<svg width="40" height="40" viewBox="0 0 40 40" fill="none" xmlns="http://www.w3.org/2000/svg">
<g clip-path="url(#clip0_350_1636)">
<path d="M21.2957 17.0877C20.4941 17.0877 19.6941 17.1439 19.0004 17.3025C17.7207 17.676 16.7051 18.476 16.7051 20.1861C16.7051 21.5189 17.3988 22.4275 18.5715 22.4275C18.7324 22.4275 18.8918 22.376 18.9988 22.376C19.6926 22.2119 20.3324 21.7322 20.7066 20.9869C21.3457 19.9197 21.2926 18.9596 21.2957 17.7283V17.0869V17.0877Z" fill="black"/>
<path d="M20 0C8.95391 0 0 8.95391 0 20C0 31.0461 8.95391 40 20 40C31.0461 40 40 31.0453 40 20C40 8.95469 31.0461 0 20 0ZM20.9211 11.9672C20.5477 11.4336 19.8547 11.1656 19.2148 11.1656H19C17.9328 11.2719 16.9727 11.8594 16.7047 13.0344C16.6531 13.2992 16.4922 13.5672 16.1711 13.6203L13.1852 13.2469C12.9727 13.1945 12.65 13.0359 12.7578 12.6078C13.3992 9.24375 16.2805 8.06875 19 7.91016H19.6398C21.1336 7.91016 23.0547 8.33906 24.2812 9.45859C25.7734 10.8445 25.6141 12.7133 25.6141 14.7422V19.5461C25.6141 20.9883 26.2016 21.6297 26.7867 22.3773C26.9477 22.6422 27.0031 22.9633 26.7344 23.1758C26.1492 23.7094 25.0305 24.6711 24.3883 25.2055C24.1758 25.3617 23.9086 25.3617 23.6422 25.257C22.6281 24.4031 22.4688 24.0281 21.882 23.2281C20.8656 24.2969 20.0148 24.8828 18.9992 25.2047C18.3602 25.3625 17.6664 25.4711 16.8133 25.4711C14.2508 25.4711 12.2234 23.8695 12.2234 20.7195C12.2234 18.2109 13.5586 16.5031 15.532 15.7031C16.5461 15.2219 17.7719 15.0094 18.9992 14.8469C19.7992 14.7406 20.6008 14.6883 21.2945 14.6359L21.2969 14.2086C21.2969 13.4602 21.3484 12.607 20.9219 11.9664L20.9211 11.9672ZM29 28.7812C28.6898 29.0312 28.3586 29.2547 28.0289 29.4539L28.0141 29.4641C25.4914 31.0477 22.243 32.018 19.3703 32.0844C19.2789 32.0867 19.1906 32.0883 19.1031 32.0883C14.5883 32.0867 11.2305 29.6133 8.16562 26.9523C8.01797 26.8359 7.91328 26.6547 7.91328 26.4547C7.91172 26.3023 7.97734 26.1523 8.08672 26.05C8.19688 25.9477 8.34531 25.8922 8.49453 25.8922C8.60859 25.8922 8.72422 25.9234 8.83984 25.9836C12.1023 27.7961 15.3383 29.6359 19.3039 29.6352C19.3961 29.6352 19.4891 29.6352 19.5812 29.6328C22.1023 29.5766 24.8273 28.9594 27.4211 27.9078V27.9062L27.6586 27.8102L27.8438 27.7328C27.9672 27.6789 28.1016 27.6203 28.2297 27.5688C28.3461 27.5125 28.4695 27.4852 28.5883 27.4859C28.968 27.4859 29.3211 27.7656 29.3281 28.182C29.3281 28.4156 29.1953 28.6383 29.0008 28.782L29 28.7812ZM30.4828 29.8797C30.3562 29.9773 30.2117 30.0461 30.0406 30.0484H30.0359C29.9219 30.0484 29.7859 30.007 29.682 29.9086C29.5742 29.807 29.5234 29.657 29.5273 29.5336C29.5273 29.4484 29.5422 29.3695 29.5711 29.2984C29.6875 28.9898 29.8648 28.525 30.0102 28.0609C30.1578 27.5984 30.268 27.1219 30.2625 26.8672C30.2641 26.8 30.2563 26.7523 30.25 26.7336C30.2477 26.7297 30.2398 26.7273 30.2297 26.7234C30.2008 26.7086 30.1523 26.6922 30.0844 26.6773C29.9508 26.6484 29.7555 26.6336 29.5391 26.6336C29.2344 26.6336 28.8812 26.6625 28.5492 26.6984C28.1617 26.7531 27.8289 26.7844 27.6031 26.8336L27.5844 26.8375L27.5641 26.8391C27.5406 26.843 27.5156 26.8438 27.4867 26.8438C27.3719 26.8438 27.2414 26.8141 27.1289 26.7227C27.0164 26.6312 26.9477 26.4766 26.9516 26.343C26.9594 26.0977 27.0938 25.9383 27.2563 25.8156C27.5164 25.6297 27.7961 25.468 28.1047 25.3406V25.3297L28.3672 25.2445L28.375 25.2398L28.8391 25.0859L28.8406 25.1156C29.3016 25.0156 29.7633 24.9758 30.1805 24.9758C30.7594 24.9773 31.2414 25.0445 31.5719 25.1719C31.6828 25.2219 31.7859 25.2641 31.893 25.382L31.9055 25.3984L31.9156 25.4148C32.0219 25.5734 32.0742 25.7648 32.0844 26.0172H32.0859L32.0906 26.1711C32.0734 27.1234 31.6633 28.8188 30.4828 29.8813V29.8797Z" fill="black"/>
</g>
<defs>
<clipPath id="clip0_350_1636">
<rect width="40" height="40" fill="white"/>
</clipPath>
</defs>
</svg>
