<svg width="40" height="40" viewBox="0 0 40 40" fill="none" xmlns="http://www.w3.org/2000/svg">
<g clip-path="url(#clip0_350_1625)">
<path d="M8.864 24.1758L7.472 29.3758L2.384 29.4798C0.864 26.6558 0 23.4318 0 19.9998C0 16.5678 0.808 13.5598 2.24 10.7998L6.768 11.6318L8.752 16.1358C8.336 17.3438 8.112 18.6478 8.112 19.9998C8.112 21.4718 8.376 22.8718 8.864 24.1758Z" fill="black"/>
<path d="M39.6475 16.2642C39.8795 17.4722 39.9995 18.7202 39.9995 20.0002C39.9995 21.4322 39.8475 22.8322 39.5595 24.1762C38.5835 28.7602 36.0395 32.7602 32.5195 35.6002L26.8155 35.3042L26.0075 30.2642C28.3435 28.8962 30.1755 26.7442 31.1355 24.1762H20.4395V16.2642H39.6475Z" fill="black"/>
<path d="M32.5208 35.5918C29.0968 38.3518 24.7368 39.9998 20.0008 39.9998C12.3848 39.9998 5.76077 35.7438 2.38477 29.4798L8.86477 24.1758C10.5528 28.6798 14.9048 31.8958 20.0008 31.8958C22.1928 31.8958 24.2408 31.3038 26.0088 30.2718L32.5208 35.6078V35.5918Z" fill="black"/>
<path d="M32.7682 4.608L26.2882 9.912C24.4642 8.776 22.3122 8.112 20.0002 8.112C14.7842 8.112 10.3602 11.472 8.75223 16.136L2.24023 10.8C5.56823 4.384 12.2722 0 20.0002 0C24.8562 0 29.3042 1.728 32.7682 4.608Z" fill="black"/>
</g>
<defs>
<clipPath id="clip0_350_1625">
<rect width="40" height="40" fill="white"/>
</clipPath>
</defs>
</svg>
