<svg width="42" height="40" viewBox="0 0 42 40" fill="none" xmlns="http://www.w3.org/2000/svg">
<g clip-path="url(#clip0_350_1621)">
<path d="M41.856 24.52V40H32.88V25.56C32.88 21.936 31.584 19.456 28.336 19.456C25.856 19.456 24.384 21.12 23.736 22.736C23.496 23.312 23.44 24.112 23.44 24.92V39.992H14.464C14.464 39.992 14.584 15.536 14.464 13H23.44V16.824C23.44 16.824 23.4 16.88 23.384 16.912H23.44V16.824C24.632 14.992 26.76 12.368 31.528 12.368C37.432 12.368 41.856 16.224 41.856 24.512V24.52ZM5.08 0C2.008 0 0 2.016 0 4.664C0 7.312 1.952 9.328 4.96 9.328H5.016C8.144 9.328 10.088 7.256 10.088 4.664C10.032 2.016 8.144 0 5.072 0H5.08ZM0.536 40H9.504V13.008H0.536V40Z" fill="black"/>
</g>
<defs>
<clipPath id="clip0_350_1621">
<rect width="41.856" height="40" fill="white"/>
</clipPath>
</defs>
</svg>
