<svg width="40" height="40" viewBox="0 0 40 40" fill="none" xmlns="http://www.w3.org/2000/svg">
<g clip-path="url(#clip0_350_1632)">
<path d="M13.9844 13.7202C11.2644 13.7202 8.98438 18.3922 8.98438 22.9682C8.98438 25.1042 9.79238 26.3042 11.1604 26.3042C12.5284 26.3042 13.3124 25.4642 15.6964 21.7362C15.6964 21.7362 16.7764 20.0162 18.5684 17.2722C16.6884 14.5762 15.4564 13.7282 13.9844 13.7282V13.7202Z" fill="#010101"/>
<path d="M25.92 13.072C24.464 13.072 23.24 14.216 21.752 16.504C22.168 17.112 22.592 17.784 23.04 18.504L24.688 21.248C27.264 25.392 27.912 26.288 29.272 26.288C30.632 26.288 31.368 25.08 31.368 22.992C31.368 17.52 28.944 13.064 25.92 13.064V13.072Z" fill="#010101"/>
<path d="M35.68 0H4.32C1.936 0 0 1.936 0 4.32V35.672C0 38.056 1.936 39.992 4.32 39.992H35.672C38.056 39.992 39.992 38.056 39.992 35.672V4.32C40 1.936 38.064 0 35.68 0ZM29.208 29.336C26.496 29.336 25 27.816 22.32 23.32L20.944 21C20.616 20.448 20.304 19.936 20.008 19.456C19.168 20.944 17.944 23.112 17.944 23.112C15.008 28.248 13.352 29.328 11.056 29.328C7.864 29.328 5.96 26.84 5.96 22.904C5.96 16.608 9.464 10.656 14.032 10.656C16.272 10.656 18.144 11.744 20.384 14.592C22.016 12.384 23.816 10.656 26.12 10.656C30.472 10.656 34.048 16.192 34.048 22.784C34.048 26.808 32.32 29.328 29.208 29.328V29.336Z" fill="#010101"/>
</g>
<defs>
<clipPath id="clip0_350_1632">
<rect width="40" height="40" fill="white"/>
</clipPath>
</defs>
</svg>
