<svg width="26" height="34" viewBox="0 0 26 34" fill="none" xmlns="http://www.w3.org/2000/svg">
<path d="M6.14286 17.8889V24.5556C6.14286 26.2729 9.21143 27.6667 13 27.6667C16.7886 27.6667 19.8571 26.2729 19.8571 24.5556V17.8889M16.4286 1V8.11111C16.4286 8.58261 16.6092 9.03479 16.9307 9.36819C17.2522 9.70159 17.6882 9.88889 18.1429 9.88889H25M16.4286 1H4.42857C3.51926 1 2.64719 1.3746 2.00421 2.0414C1.36122 2.70819 1 3.61256 1 4.55556V29.4444C1 30.3874 1.36122 31.2918 2.00421 31.9586C2.64719 32.6254 3.51926 33 4.42857 33H21.5714C22.4807 33 23.3528 32.6254 23.9958 31.9586C24.6388 31.2918 25 30.3874 25 29.4444V9.88889M16.4286 1L25 9.88889M6.14286 18.3333C6.14286 19.1585 6.8653 19.9498 8.15127 20.5332C9.43723 21.1167 11.1814 21.4444 13 21.4444C14.8186 21.4444 16.5628 21.1167 17.8487 20.5332C19.1347 19.9498 19.8571 19.1585 19.8571 18.3333C19.8571 17.5082 19.1347 16.7169 17.8487 16.1334C16.5628 15.55 14.8186 15.2222 13 15.2222C11.1814 15.2222 9.43723 15.55 8.15127 16.1334C6.8653 16.7169 6.14286 17.5082 6.14286 18.3333Z" stroke="white" stroke-width="2" stroke-linecap="round" stroke-linejoin="round"/>
</svg>
