<svg width="32" height="32" viewBox="0 0 32 32" fill="none" xmlns="http://www.w3.org/2000/svg">
<path d="M19.3319 30.2976V26.5273C20.0994 26.3052 20.8357 26.005 21.5408 25.6388L23.656 27.704C23.9804 28.0222 24.5108 28.0222 24.8353 27.704L28.3731 24.258C28.6976 23.9398 28.6976 23.4235 28.3731 23.1113L26.2579 21.046C26.6385 20.3616 26.9443 19.6412 27.1689 18.8907H30.1639C30.6256 18.8907 31 18.5245 31 18.0802V13.2053C31 12.7551 30.6256 12.3948 30.1639 12.3948H27.1689C26.9443 11.6504 26.6385 10.924 26.2579 10.2395L28.3731 8.1743C28.6976 7.85611 28.6976 7.3398 28.3731 7.02762L24.8353 3.58155C24.5108 3.26336 23.9804 3.26336 23.656 3.58155L21.5408 5.64679C20.8357 5.27456 20.0994 4.98039 19.3319 4.75826V1.81049C19.3319 1.36022 18.9576 1 18.4958 1H13.4979C13.0362 1 12.6618 1.36622 12.6618 1.81049V4.73424C11.8943 4.95637 11.1581 5.25655 10.453 5.62277L8.33777 3.55753C8.01331 3.23934 7.48294 3.23934 7.15849 3.55753L3.62063 7.0036C3.29617 7.32179 3.29617 7.8381 3.62063 8.15029L5.73586 10.2155C5.35524 10.8999 5.0495 11.6204 4.82488 12.3708H1.83611C1.37438 12.3708 1 12.737 1 13.1813V18.0622C1.01248 18.5065 1.38062 18.8607 1.83611 18.8727H4.83111C5.05574 19.6172 5.36148 20.3436 5.7421 21.028L3.62687 23.0933C3.30241 23.4114 3.30241 23.9278 3.62687 24.2399L7.16472 27.686C7.48918 28.0042 8.01955 28.0042 8.34401 27.686L10.4592 25.6208C11.1643 25.993 11.9006 26.2872 12.6681 26.5093V30.2796C12.6681 30.6758 12.9988 31 13.4106 31H18.5957C19.0012 31 19.3319 30.6758 19.3319 30.2796V30.2976Z" stroke="white" stroke-width="2" stroke-linecap="round" stroke-linejoin="round"/>
<path d="M21.3673 20.8659C18.4034 23.7537 13.599 23.7537 10.6351 20.8659C7.67134 17.9782 7.67134 13.2894 10.6351 10.4016C13.599 7.51391 18.4034 7.51391 21.3673 10.4016C24.3311 13.2894 24.3311 17.9782 21.3673 20.8659Z" stroke="white" stroke-width="2" stroke-linecap="round" stroke-linejoin="round"/>
</svg>
