<svg width="34" height="34" viewBox="0 0 34 34" fill="none" xmlns="http://www.w3.org/2000/svg">
<path d="M16.7166 9.42222H13.5097C12.6241 9.42222 11.9062 10.1883 11.9062 11.1333V12.05M16.7166 9.42222V6.51333C16.7166 6.22983 16.9319 6 17.1976 6H22.6494C22.915 6 23.1304 6.22983 23.1304 6.51333V9.42222M16.7166 9.42222H23.1304M27.9407 19.5356V11.1333C27.9407 10.1883 27.2229 9.42222 26.3373 9.42222H23.1304" stroke="white" stroke-width="2" stroke-linecap="round" stroke-linejoin="round"/>
<path d="M6.09861 23.3794H6.73738C6.85655 23.3653 6.98006 23.3583 7.1046 23.3583C8.79069 23.3583 10.6889 24.6539 12.5253 25.9066C14.0348 26.9357 15.5958 28 16.7183 28C16.9094 28 17.0865 27.9693 17.2459 27.909L17.2624 27.9032L31.8677 23.2083C32.7057 22.7835 33.1782 21.6717 32.9371 20.5933C32.7192 19.6232 31.9812 18.9715 31.1008 18.9715C30.9516 18.9715 30.8005 18.9907 30.6518 19.0285L18.923 21.607M5.98382 13.6898L6.59453 13.3397C8.29727 12.6105 9.60007 12.2562 10.5765 12.2562C11.8466 12.2562 12.4247 12.8495 12.9352 13.3743L12.9434 13.3827C13.172 13.6332 13.4229 13.8587 13.6875 14.0522L19.342 17.9495C19.728 18.2167 20.004 18.6479 20.1189 19.1631C20.2338 19.6783 20.1729 20.2159 19.9491 20.6772C19.6511 21.2904 19.0962 21.6717 18.5019 21.6717C18.2088 21.6717 17.9189 21.5782 17.6645 21.4026L12.9455 18.1506M5.98382 24.2207C5.98382 24.8878 5.52801 25.4312 4.96866 25.4318H3.01463C2.45582 25.4312 2.00054 24.8878 2 24.2201V12.7111C2 12.044 2.45582 11.5006 3.01463 11.5H4.96919C5.528 11.5 5.98328 12.0441 5.98382 12.7118V24.2207Z" stroke="white" stroke-width="2" stroke-linecap="round"/>
</svg>
