<svg width="32" height="28" viewBox="0 0 32 28" fill="none" xmlns="http://www.w3.org/2000/svg">
<path d="M16 5.07143C8.88253 5.07143 3.11268 11.2317 3.11268 18.8308V22.2143M16 5.07143C23.1175 5.07143 28.8873 11.2317 28.8873 18.8308V22.2143M16 5.07143C17.0042 5.07143 17.8182 4.27194 17.8182 3.28571C17.8182 2.29949 17.0042 1.5 16 1.5C14.9958 1.5 14.1818 2.29949 14.1818 3.28571C14.1818 4.27194 14.9958 5.07143 16 5.07143ZM4.11688 26.5H27.8831C29.6045 26.5 31 25.1294 31 23.4388C31 22.7625 30.4418 22.2143 29.7532 22.2143H2.24675C1.55819 22.2143 1 22.7625 1 23.4388C1 25.1294 2.39548 26.5 4.11688 26.5ZM13.7273 11.7679C13.7273 13.0006 12.7097 14 11.4545 14C10.1994 14 9.18182 13.0006 9.18182 11.7679C9.18182 10.5351 10.1994 9.53571 11.4545 9.53571C12.7097 9.53571 13.7273 10.5351 13.7273 11.7679Z" stroke="white" stroke-width="2" stroke-linecap="round" stroke-linejoin="round"/>
</svg>
