<svg width="34" height="28" viewBox="0 0 34 28" fill="none" xmlns="http://www.w3.org/2000/svg">
<path d="M1 1H6.38112L7.96623 5.11262M7.96623 5.11262L12.4798 16.8232M7.96623 5.11262H26.4708M12.4798 16.8232H22.2377M12.4798 16.8232L9.60983 21.842H28.7668M26.4708 5.11262H33L28.7668 16.8232H22.2377M26.4708 5.11262L22.2377 16.8232M17.4663 24.421C17.4663 25.8453 16.2778 27 14.8116 27C13.3455 27 12.157 25.8453 12.157 24.421C12.157 22.9966 13.3455 21.8419 14.8116 21.8419C16.2778 21.8419 17.4663 22.9966 17.4663 24.421ZM26.7179 24.421C26.7179 25.8453 25.5293 27 24.0632 27C22.5971 27 21.4086 25.8453 21.4086 24.421C21.4086 22.9966 22.5971 21.8419 24.0632 21.8419C25.5293 21.8419 26.7179 22.9966 26.7179 24.421Z" stroke="white" stroke-width="2" stroke-linecap="round" stroke-linejoin="round"/>
</svg>
