<svg width="32" height="28" viewBox="0 0 32 28" fill="none" xmlns="http://www.w3.org/2000/svg">
<path d="M21 1L31 4.25V12.375H26V25.375C26 25.806 25.8244 26.2193 25.5118 26.524C25.1993 26.8288 24.7754 27 24.3333 27H7.66667C7.22464 27 6.80072 26.8288 6.48816 26.524C6.17559 26.2193 6 25.806 6 25.375V12.375H1V4.25L11 1C11 2.29293 11.5268 3.53291 12.4645 4.44715C13.4021 5.36139 14.6739 5.875 16 5.875C17.3261 5.875 18.5979 5.36139 19.5355 4.44715C20.4732 3.53291 21 2.29293 21 1Z" stroke="white" stroke-width="2" stroke-linecap="round" stroke-linejoin="round"/>
</svg>
