<svg width="50" height="50" viewBox="0 0 50 50" fill="none" xmlns="http://www.w3.org/2000/svg">
<path d="M39.216 8.14307H10.7963C9.33178 8.14307 8.14453 9.33031 8.14453 10.7949V39.2145C8.14453 40.679 9.33178 41.8663 10.7963 41.8663H39.216C40.6805 41.8663 41.8677 40.679 41.8677 39.2145V10.7949C41.8677 9.33031 40.6805 8.14307 39.216 8.14307Z" stroke="#77787B" stroke-width="2" stroke-linecap="round" stroke-linejoin="round"/>
<path d="M41.8555 18.2407H47.3198" stroke="#77787B" stroke-width="2" stroke-linecap="round" stroke-linejoin="round"/>
<path d="M41.8555 24.9998H47.3198" stroke="#77787B" stroke-width="2" stroke-linecap="round" stroke-linejoin="round"/>
<path d="M41.8555 31.7585H47.3198" stroke="#77787B" stroke-width="2" stroke-linecap="round" stroke-linejoin="round"/>
<path d="M2.67969 18.2407H8.14397" stroke="#77787B" stroke-width="2" stroke-linecap="round" stroke-linejoin="round"/>
<path d="M2.67969 24.9998H8.14397" stroke="#77787B" stroke-width="2" stroke-linecap="round" stroke-linejoin="round"/>
<path d="M2.67969 31.7585H8.14397" stroke="#77787B" stroke-width="2" stroke-linecap="round" stroke-linejoin="round"/>
<path d="M31.7617 2.67847V8.14275" stroke="#77787B" stroke-width="2" stroke-linecap="round" stroke-linejoin="round"/>
<path d="M25 2.67847V8.14275" stroke="#77787B" stroke-width="2" stroke-linecap="round" stroke-linejoin="round"/>
<path d="M18.2422 2.67847V8.14275" stroke="#77787B" stroke-width="2" stroke-linecap="round" stroke-linejoin="round"/>
<path d="M31.7617 41.8569V47.3212" stroke="#77787B" stroke-width="2" stroke-linecap="round" stroke-linejoin="round"/>
<path d="M25 41.8569V47.3212" stroke="#77787B" stroke-width="2" stroke-linecap="round" stroke-linejoin="round"/>
<path d="M18.2422 41.8569V47.3212" stroke="#77787B" stroke-width="2" stroke-linecap="round" stroke-linejoin="round"/>
</svg>
