<svg width="49" height="50" viewBox="0 0 49 50" fill="none" xmlns="http://www.w3.org/2000/svg">
<path d="M28.9118 46.2499V40.6428C30.01 40.3124 31.0636 39.866 32.0725 39.3213L35.0993 42.3928C35.5636 42.866 36.3225 42.866 36.7868 42.3928L41.8493 37.2678C42.3136 36.7945 42.3136 36.0267 41.8493 35.5624L38.8225 32.491C39.3672 31.4731 39.8047 30.4017 40.1261 29.2856H44.4118C45.0725 29.2856 45.6083 28.741 45.6083 28.0803V20.8303C45.6083 20.1606 45.0725 19.6249 44.4118 19.6249H40.1261C39.8047 18.5178 39.3672 17.4374 38.8225 16.4195L41.8493 13.3481C42.3136 12.8749 42.3136 12.107 41.8493 11.6428L36.7868 6.51775C36.3225 6.04454 35.5636 6.04454 35.0993 6.51775L32.0725 9.58918C31.0636 9.03561 30.01 8.59811 28.9118 8.26775V3.88382C28.9118 3.21418 28.3761 2.67847 27.7154 2.67847H20.5636C19.9029 2.67847 19.3672 3.22311 19.3672 3.88382V8.23204C18.269 8.5624 17.2154 9.00882 16.2065 9.55347L13.1797 6.48204C12.7154 6.00882 11.9565 6.00882 11.4922 6.48204L6.42969 11.607C5.9654 12.0803 5.9654 12.8481 6.42969 13.3124L9.45647 16.3838C8.91183 17.4017 8.47433 18.4731 8.1529 19.5892H3.87612C3.2154 19.5892 2.67969 20.1338 2.67969 20.7945V28.0535C2.69754 28.7142 3.22433 29.241 3.87612 29.2588H8.16183C8.48326 30.366 8.92076 31.4463 9.4654 32.4642L6.43862 35.5356C5.97433 36.0088 5.97433 36.7767 6.43862 37.241L11.5011 42.366C11.9654 42.8392 12.7243 42.8392 13.1886 42.366L16.2154 39.2945C17.2243 39.8481 18.2779 40.2856 19.3761 40.616V46.2231C19.3761 46.8124 19.8493 47.2945 20.4386 47.2945H27.8583C28.4386 47.2945 28.9118 46.8124 28.9118 46.2231V46.2499Z" stroke="#77787B" strokeWidth="2" strokeLinecap="round" strokeLinejoin="round"/>
<path d="M31.8231 32.2234C27.582 36.5181 20.707 36.5181 16.466 32.2234C12.2249 27.9288 12.2249 20.9556 16.466 16.6609C20.707 12.3663 27.582 12.3663 31.8231 16.6609C36.0642 20.9556 36.0642 27.9288 31.8231 32.2234Z" stroke="#77787B" strokeWidth="2" strokeLinecap="round" strokeLinejoin="round"/>
</svg>
