<svg width="51" height="53" viewBox="0 0 51 53" fill="none" xmlns="http://www.w3.org/2000/svg">
<path d="M20.8308 38.1216H29.7696M25.3002 34.546V28.2889M25.3002 28.2889L21.7246 24.7133M25.3002 28.2889L28.8757 24.7133M30.6457 50.2993V44.0455C31.8764 43.6753 33.0571 43.175 34.1878 42.5646L37.5798 46.0067C38.1002 46.537 38.9507 46.537 39.471 46.0067L45.1444 40.2633C45.6647 39.7329 45.6647 38.8724 45.1444 38.3521L41.7523 34.91C42.3627 33.7694 42.853 32.5686 43.2132 31.3179H48.0161C48.7566 31.3179 49.3569 30.7075 49.3569 29.9671V21.8422C49.3569 21.0918 48.7566 20.4914 48.0161 20.4914H43.2132C42.853 19.2507 42.3627 18.0399 41.7523 16.8992L45.1444 13.4572C45.6647 12.9269 45.6647 12.0663 45.1444 11.546L39.471 5.80258C38.9507 5.27226 38.1002 5.27226 37.5798 5.80258L34.1878 9.24465C33.0571 8.62427 31.8764 8.13398 30.6457 7.76376V2.85081C30.6457 2.10036 30.0453 1.5 29.3049 1.5H21.2901C20.5496 1.5 19.9493 2.11037 19.9493 2.85081V7.72373C18.7185 8.09396 17.5378 8.59426 16.4071 9.20462L13.0151 5.76256C12.4948 5.23224 11.6443 5.23224 11.124 5.76256L5.45057 11.506C4.93026 12.0363 4.93026 12.8968 5.45057 13.4172L8.8426 16.8592C8.23224 17.9999 7.74194 19.2006 7.38173 20.4514H2.58885C1.84841 20.4514 1.24805 21.0617 1.24805 21.8022V29.9371C1.26806 30.6775 1.85841 31.2679 2.58885 31.2879H7.39173C7.75195 32.5286 8.24224 33.7393 8.85261 34.88L5.46057 38.3221C4.94026 38.8524 4.94026 39.7129 5.46057 40.2332L11.134 45.9767C11.6543 46.507 12.5048 46.507 13.0251 45.9767L16.4171 42.5346C17.5478 43.155 18.7285 43.6453 19.9593 44.0155V50.2993C19.9593 50.9597 20.4896 51.5 21.15 51.5H29.465C30.1154 51.5 30.6457 50.9597 30.6457 50.2993ZM19.7917 30.8592C18.7291 30.029 17.8684 28.969 17.2743 27.7584C16.6802 26.548 16.3681 25.2186 16.3615 23.8701C16.3347 19.0253 20.2409 14.9928 25.0847 14.881C26.9618 14.8356 28.8056 15.3824 30.3545 16.4439C31.9033 17.5054 33.0786 19.0278 33.7135 20.7949C34.3484 22.562 34.4106 24.4842 33.8914 26.2888C33.3723 28.0933 32.298 29.6885 30.8211 30.848C30.4954 31.1006 30.2314 31.424 30.0492 31.7938C29.8671 32.1635 29.7715 32.57 29.7697 32.9821V33.6526C29.7697 33.8896 29.6755 34.117 29.5079 34.2846C29.3402 34.4523 29.1129 34.5464 28.8758 34.5464H21.7247C21.4877 34.5464 21.2603 34.4523 21.0927 34.2846C20.925 34.117 20.8309 33.8896 20.8309 33.6526V32.9821C20.8305 32.5726 20.7367 32.1685 20.5566 31.8006C20.3765 31.4328 20.1149 31.1108 19.7917 30.8592Z" stroke="#77787B" strokeWidth="2" strokeLinecap="round" strokeLinejoin="round"/>
</svg>
