<svg width="52" height="53" viewBox="0 0 52 53" fill="none" xmlns="http://www.w3.org/2000/svg">
<path d="M21.4464 31.7607V28.0595C21.4464 27.7323 21.3164 27.4185 21.085 27.1872C20.8537 26.9558 20.5399 26.8258 20.2127 26.8258C19.2311 26.8258 18.2897 26.4359 17.5956 25.7418C16.9015 25.0477 16.5115 24.1063 16.5115 23.1247C16.5115 22.1431 16.9015 21.2017 17.5956 20.5076C18.2897 19.8135 19.2311 19.4236 20.2127 19.4236C20.5399 19.4236 20.8537 19.2936 21.085 19.0622C21.3164 18.8309 21.4464 18.5171 21.4464 18.1899V12.0213H6.64187C5.33307 12.0213 4.07787 12.5412 3.15241 13.4667C2.22695 14.3922 1.70703 15.6474 1.70703 16.9562V46.5652C1.70703 47.874 2.22695 49.1292 3.15241 50.0546C4.07787 50.9801 5.33307 51.5 6.64187 51.5H36.2509C37.5597 51.5 38.8149 50.9801 39.7403 50.0546C40.6658 49.1292 41.1857 47.874 41.1857 46.5652V31.7607H35.0172C34.69 31.7607 34.3762 31.6307 34.1448 31.3993C33.9134 31.168 33.7835 30.8542 33.7835 30.527C33.7835 29.5454 33.3935 28.604 32.6994 27.9099C32.0053 27.2158 31.0639 26.8258 30.0823 26.8258C29.1007 26.8258 28.1593 27.2158 27.4652 27.9099C26.7711 28.604 26.3812 29.5454 26.3812 30.527C26.3812 30.8542 26.2512 31.168 26.0199 31.3993C25.7885 31.6307 25.4747 31.7607 25.1475 31.7607H21.4464ZM21.4464 31.7607V35.4618C21.4464 35.789 21.5763 36.1028 21.8077 36.3342C22.0391 36.5655 22.3529 36.6955 22.6801 36.6955C23.6617 36.6955 24.6031 37.0854 25.2972 37.7795C25.9913 38.4736 26.3812 39.415 26.3812 40.3966C26.3812 41.3782 25.9913 42.3196 25.2972 43.0137C24.6031 43.7078 23.6617 44.0977 22.6801 44.0977C22.3529 44.0977 22.0391 44.2277 21.8077 44.4591C21.5763 44.6905 21.4464 45.0043 21.4464 45.3315V51.5M21.4464 31.7607H17.7452C17.418 31.7607 17.1042 31.8906 16.8729 32.122C16.6415 32.3534 16.5115 32.6672 16.5115 32.9944C16.5115 33.976 16.1216 34.9174 15.4275 35.6115C14.7334 36.3056 13.792 36.6955 12.8104 36.6955C11.8288 36.6955 10.8874 36.3056 10.1933 35.6115C9.49922 34.9174 9.10928 33.976 9.10928 32.9944C9.10928 32.6672 8.9793 32.3534 8.74794 32.122C8.51657 31.8906 8.20277 31.7607 7.87557 31.7607H1.70703M45.9635 1.5C47.2723 1.5 48.5274 2.01992 49.4529 2.94538C50.3784 3.87084 50.8983 5.12603 50.8983 6.43483V21.2393H44.7297C44.4025 21.2393 44.0887 21.1094 43.8574 20.878C43.626 20.6466 43.496 20.3328 43.496 20.0056C43.496 19.024 43.1061 18.0826 42.412 17.3885C41.7179 16.6944 40.7765 16.3045 39.7949 16.3045C38.8133 16.3045 37.8719 16.6944 37.1778 17.3885C36.4837 18.0826 36.0938 19.024 36.0938 20.0056C36.0938 20.3328 35.9638 20.6466 35.7324 20.878C35.5011 21.1094 35.1873 21.2393 34.8601 21.2393H31.159V17.5382C31.159 17.211 31.029 16.8972 30.7976 16.6658C30.5662 16.4345 30.2524 16.3045 29.9252 16.3045C28.9436 16.3045 28.0022 15.9146 27.3082 15.2205C26.6141 14.5264 26.2241 13.585 26.2241 12.6034C26.2241 11.6218 26.6141 10.6804 27.3082 9.98629C28.0022 9.29219 28.9436 8.90225 29.9252 8.90225C30.2524 8.90225 30.5662 8.77227 30.7976 8.54091C31.029 8.30954 31.159 7.99574 31.159 7.66854V1.5H45.9635Z" stroke="#77787B" strokeWidth="2" strokeLinecap="round" strokeLinejoin="round"/>
</svg>
