<svg width="38" height="53" viewBox="0 0 38 53" fill="none" xmlns="http://www.w3.org/2000/svg">
<path d="M31.7798 17.7562L19.3015 13.0829L6.82331 17.7562L11.6966 19.5813M31.7798 17.7562L26.9063 19.5814M31.7798 17.7562V22.8113M11.6966 19.5813L19.3015 22.4295L26.9063 19.5814M11.6966 19.5813V26.0191C11.6966 26.0191 16.1702 28.5596 19.3015 28.5596C22.4327 28.5596 26.9063 26.0191 26.9063 26.0191V19.5814M10.7614 43.98H27.8416M13.5459 47.6626H25.0564M16.9809 51.3452H21.3633M8.39151 32.9948C6.28695 31.3507 4.58236 29.2513 3.40574 26.8538C2.22911 24.4565 1.61101 21.8236 1.59793 19.1532C1.54482 9.55799 9.28114 1.5717 18.874 1.35041C22.5917 1.26036 26.2433 2.34333 29.3108 4.44567C32.3783 6.54796 34.7058 9.56297 35.9632 13.0627C37.2206 16.5624 37.3439 20.3693 36.3157 23.9432C35.2875 27.517 33.16 30.6762 30.235 32.9726C29.5899 33.4729 29.0671 34.1134 28.7062 34.8458C28.3455 35.5781 28.1562 36.383 28.1526 37.1993V38.527C28.1526 38.9966 27.9662 39.4468 27.6342 39.7788C27.3021 40.1109 26.8519 40.2974 26.3823 40.2974H12.2198C11.7503 40.2974 11.3 40.1109 10.9681 39.7788C10.636 39.4468 10.4495 38.9966 10.4495 38.527V37.1993C10.4487 36.3882 10.2629 35.5878 9.90623 34.8593C9.54967 34.1308 9.03154 33.4931 8.39151 32.9948Z" stroke="#77787B" strokeWidth="2" strokeLinecap="round" strokeLinejoin="round"/>
</svg>
