<svg width="53" height="43" viewBox="0 0 53 43" fill="none" xmlns="http://www.w3.org/2000/svg">
<path d="M34.8671 16.1466H7.64289M14.2177 8.44905H7.64289M14.2177 23.8438H7.64289M34.8671 8.44905H17.9676M17.9676 23.8438H32.6199M35.5534 29.1514L39.3988 32.9969L46.485 25.9107M41.2071 19.0577C37.5797 19.0577 34.3992 20.9712 32.6199 23.8438M41.2071 19.0577V19.0577ZM41.2071 19.0577C46.7816 19.0578 51.3008 23.5769 51.3008 29.1514C51.3008 34.7259 46.7817 39.245 41.2071 39.245C36.2461 39.245 32.1211 35.666 31.2731 30.9492M41.2071 19.0577L41.2074 5.36066C41.2074 3.28861 39.5276 1.60889 37.4556 1.60889H5.05256C2.98051 1.60889 1.30078 3.28861 1.30078 5.36066V27.1974C1.30078 29.2694 2.98051 30.9492 5.05255 30.9492H9.77762V41.3913L19.1209 32.048C19.8245 31.3444 20.7787 30.9492 21.7738 30.9492H31.2731M31.2731 30.9492C31.1682 30.3658 31.1135 29.765 31.1135 29.1514C31.1135 27.2042 31.6648 25.3858 32.6199 23.8438" stroke="#77787B" strokeWidth="2" strokeLinecap="round" strokeLinejoin="round"/>
</svg>
