<svg width="53" height="48" viewBox="0 0 53 48" fill="none" xmlns="http://www.w3.org/2000/svg">
<path d="M47.1465 25.6583L26.3239 46.281L5.50137 25.6583C4.12793 24.3218 3.0461 22.7155 2.32398 20.9403C1.60187 19.1652 1.25513 17.2598 1.3056 15.344C1.35606 13.4283 1.80263 11.5438 2.61719 9.80915C3.43176 8.07449 4.59666 6.52728 6.03856 5.26495C7.48045 4.00262 9.1681 3.05251 10.9952 2.47446C12.8224 1.8964 14.7494 1.70292 16.6549 1.9062C18.5605 2.10947 20.4034 2.7051 22.0674 3.65558C23.7315 4.60606 25.1808 5.8908 26.3239 7.42889C27.472 5.90196 28.923 4.62845 30.5859 3.68806C32.2488 2.74767 34.0879 2.16064 35.9882 1.96372C37.8884 1.7668 39.8088 1.96421 41.6292 2.54362C43.4497 3.12302 45.1309 4.07194 46.5677 5.33098C48.0046 6.59003 49.166 8.13209 49.9795 9.86066C50.7929 11.5892 51.2408 13.4671 51.2952 15.3767C51.3495 17.2864 51.0091 19.1867 50.2952 20.9587C49.5813 22.7307 48.5094 24.3363 47.1465 25.675M26.3239 7.41223L17.1814 16.5547C16.6609 17.0754 16.3686 17.7814 16.3686 18.5176C16.3686 19.2538 16.6609 19.9598 17.1814 20.4805L18.689 21.988C20.6047 23.9037 23.7142 23.9037 25.6298 21.988L28.4062 19.2117C30.0629 17.5549 32.3099 16.6242 34.6529 16.6242C36.9959 16.6242 39.2429 17.5549 40.8997 19.2117L47.1465 25.4584M27.7121 33.7875L33.2648 39.3401M34.6529 26.8466L40.2056 32.3993" stroke="#77787B" strokeWidth="2" strokeLinecap="round" strokeLinejoin="round"/>
</svg>
