<svg width="53" height="50" viewBox="0 0 53 50" fill="none" xmlns="http://www.w3.org/2000/svg">
<g clip-path="url(#clip0_3146_997)">
<path d="M24.8555 23.5907C23.977 22.6833 22.9807 21.9041 22.0486 21.0608C21.6308 20.6872 21.2022 20.3136 20.8594 19.8652" stroke="#E53E31" stroke-width="2" stroke-linecap="round" stroke-linejoin="round"/>
<path d="M20.8044 19.8115C20.8258 19.5126 20.9329 19.2564 21.0508 18.9789C21.7043 17.5698 21.9721 16.0967 21.8543 14.5276C21.6722 12.0404 20.4937 10.1083 18.7152 8.47504C17.4082 7.27948 16.0047 6.20134 14.4619 5.31535C12.7263 4.31193 10.8836 3.56471 8.90159 3.25514C7.20885 2.98828 5.54825 3.13772 4.01621 3.98102C2.49488 4.81364 1.62708 6.12662 1.25211 7.81321C0.802139 9.82004 1.20925 11.7308 1.88421 13.6095C2.79486 16.1501 4.30547 18.3277 6.07321 20.3559C7.14457 21.5728 8.33377 22.5976 9.83367 23.2381C11.1086 23.7825 12.4371 23.9853 13.8298 23.8785C14.9762 23.7825 16.0368 23.5156 17.0546 22.9925C17.6117 22.7043 17.7938 22.7791 18.2438 23.2487C19.1759 24.1881 20.9008 26.1202 21.79 27.0916" stroke="#E53E31" stroke-width="2" stroke-linecap="round" stroke-linejoin="round"/>
<path d="M29.321 27.4238C30.2637 28.4059 31.3244 29.2599 32.3422 30.1565C34.6563 32.2167 36.9811 34.2663 39.306 36.3158C41.288 38.0664 43.2593 39.8384 45.2734 41.557C46.0127 42.1869 46.6555 42.9234 46.8805 43.8841C47.2769 45.6027 46.7626 47.1506 45.2306 48.2394C43.7093 49.3175 41.4059 49.1467 39.9809 47.5562C38.9953 46.4567 37.9989 45.3465 37.024 44.2471C34.1742 41.034 31.3137 37.8209 28.4532 34.6185C27.7675 33.85 27.0604 33.1027 26.4176 32.2915C26.1819 31.9926 25.8819 31.7471 25.5391 31.5656" stroke="#E53E31" stroke-width="2" stroke-linecap="round" stroke-linejoin="round"/>
<path d="M32.9082 22.918C30.787 25.3304 19.1413 38.3321 17.0093 40.7339C15.0166 42.9756 12.9917 45.1959 11.0419 47.4696C9.55267 49.1989 6.88499 49.4338 5.21368 47.8859C4.24946 47 3.87448 45.8898 3.91734 44.6195C3.9709 43.1784 4.89227 42.2284 5.88863 41.3637C8.29918 39.2822 10.6669 37.1473 13.056 35.0444C14.2452 33.9982 15.4451 32.9842 16.5915 31.8847" stroke="#E53E31" stroke-width="2" stroke-linecap="round" stroke-linejoin="round"/>
<path d="M51.9306 9.55371C47.9559 13.5247 44.0776 17.3996 40.0814 21.3599C38.7637 22.6622 37.1459 23.2279 35.3032 23.1105C34.7782 23.0785 34.2425 22.9611 33.7497 22.7476C33.4069 22.5981 33.1605 22.6515 32.9141 22.9077" stroke="#E53E31" stroke-width="2" stroke-linecap="round" stroke-linejoin="round"/>
<path d="M43.3978 1.06738C39.5088 4.95295 35.6091 8.83852 31.7093 12.7134C30.7237 13.6848 30.0701 14.8377 29.8666 16.1933C29.738 17.026 29.7595 17.9013 30.0059 18.7232C30.1023 19.0541 30.1773 19.3851 30.2523 19.7053" stroke="#E53E31" stroke-width="2" stroke-linecap="round" stroke-linejoin="round"/>
<path d="M48.6749 6.7998C45.5036 9.9595 43.0931 12.3613 39.9219 15.521" stroke="#E53E31" stroke-width="2" stroke-linecap="round" stroke-linejoin="round"/>
<path d="M46.1251 4.08789C43.2003 6.97004 40.2969 9.87354 37.3828 12.777" stroke="#E53E31" stroke-width="2" stroke-linecap="round" stroke-linejoin="round"/>
<path d="M30.3599 19.7051C29.1922 20.7725 23.3533 26.4621 22.1641 27.5082" stroke="#E53E31" stroke-width="2" stroke-linecap="round" stroke-linejoin="round"/>
</g>
<defs>
<clipPath id="clip0_3146_997">
<rect width="53" height="50" fill="white"/>
</clipPath>
</defs>
</svg>
