<svg width="70" height="70" viewBox="0 0 70 70" fill="none" xmlns="http://www.w3.org/2000/svg">
<path d="M41.0376 65H6.58101C5.15552 65 4 63.8445 4 62.419V11.2288C4 9.80344 5.15552 8.64779 6.58101 8.64779H41.0376C42.4631 8.64779 43.6186 9.80344 43.6186 11.2288V62.419C43.6186 63.8445 42.4631 65 41.0376 65Z" stroke="#E63E31" stroke-width="2.5" stroke-miterlimit="10" stroke-linecap="round" stroke-linejoin="round"/>
<path d="M14.4489 11.6074V5.00002" stroke="#E63E31" stroke-width="2.5" stroke-miterlimit="10" stroke-linecap="round" stroke-linejoin="round"/>
<path d="M33.1698 11.6074V5.00002" stroke="#E63E31" stroke-width="2.5" stroke-miterlimit="10" stroke-linecap="round" stroke-linejoin="round"/>
<path d="M53.1688 8.79106V52.6177H66.2019V8.79106C66.2019 7.45294 65.0464 6.36802 63.6209 6.36802H55.7498C54.3243 6.36802 53.1688 7.45294 53.1688 8.79106Z" stroke="#E63E31" stroke-width="2.5" stroke-miterlimit="10" stroke-linecap="round" stroke-linejoin="round"/>
<path d="M59.6854 64.7334L66.2025 52.6182H53.1683L59.6854 64.7334Z" stroke="#E63E31" stroke-width="2.5" stroke-miterlimit="10" stroke-linecap="round" stroke-linejoin="round"/>
<path d="M53.1688 15.1821H66.2019" stroke="#E63E31" stroke-width="2.5" stroke-miterlimit="10" stroke-linecap="round" stroke-linejoin="round"/>
<path d="M11.9753 47.1138H21.8864" stroke="#E63E31" stroke-width="2.5" stroke-miterlimit="10" stroke-linecap="round" stroke-linejoin="round"/>
<path d="M11.9753 53.7212H28.4938" stroke="#E63E31" stroke-width="2.5" stroke-miterlimit="10" stroke-linecap="round" stroke-linejoin="round"/>
</svg>
