<svg width="40" height="40" viewBox="0 0 40 40" fill="none" xmlns="http://www.w3.org/2000/svg">
<g clip-path="url(#clip0_1761_698)">
<path d="M27.504 0H12.496C5.6 0 0 5.6 0 12.496V27.496C0 34.4 5.6 39.992 12.496 39.992H27.496C34.4 39.992 39.992 34.392 39.992 27.496V12.496C39.992 5.592 34.392 0 27.496 0H27.504ZM36.248 27.504C36.248 32.328 32.32 36.256 27.496 36.256H12.496C7.672 36.256 3.744 32.328 3.744 27.504V12.496C3.744 7.672 7.672 3.744 12.496 3.744H27.496C32.32 3.744 36.248 7.672 36.248 12.496V27.496V27.504Z" fill="#1D1D1B"/>
<path d="M20 10C14.48 10 10 14.48 10 20C10 25.52 14.48 30 20 30C25.52 30 30 25.52 30 20C30 14.48 25.52 10 20 10ZM20 26.248C16.552 26.248 13.752 23.44 13.752 20C13.752 16.56 16.56 13.752 20 13.752C23.44 13.752 26.248 16.552 26.248 20C26.248 23.448 23.44 26.248 20 26.248Z" fill="#1D1D1B"/>
<path d="M30.7501 10.5841C31.4879 10.5841 32.0861 9.98596 32.0861 9.24811C32.0861 8.51026 31.4879 7.91211 30.7501 7.91211C30.0122 7.91211 29.4141 8.51026 29.4141 9.24811C29.4141 9.98596 30.0122 10.5841 30.7501 10.5841Z" fill="#1D1D1B"/>
</g>
<defs>
<clipPath id="clip0_1761_698">
<rect width="40" height="40" fill="white"/>
</clipPath>
</defs>
</svg>
