<svg width="41" height="38" viewBox="0 0 41 38" fill="none" xmlns="http://www.w3.org/2000/svg">
<path d="M1.31531 37.5H6.58102C7.30748 37.5 7.89633 36.9111 7.89633 36.1846V13.1683C7.89633 12.4418 7.30748 11.853 6.58102 11.853H1.31531C0.588775 11.853 0 12.4418 0 13.1683V36.1846C0 36.911 0.588775 37.5 1.31531 37.5Z" fill="white"/>
<path d="M1.31531 7.8066H6.58102C7.30748 7.8066 7.89633 7.21775 7.89633 6.49129V1.81531C7.89633 1.08885 7.30748 0.5 6.58102 0.5H1.31531C0.588775 0.5 0 1.08885 0 1.81531V6.49129C0 7.21775 0.588775 7.8066 1.31531 7.8066Z" fill="white"/>
<path d="M38.5237 14.5226C37.7838 13.5486 36.6927 12.7476 35.25 12.1198C33.8074 11.4924 32.2149 11.1785 30.4726 11.1785C26.9357 11.1785 23.9387 12.5283 21.4817 15.2285C20.9928 15.7657 20.6373 15.6483 20.6373 14.9217V13.1683C20.6373 12.4418 20.0484 11.853 19.3219 11.853H14.6182C13.8917 11.853 13.3029 12.4418 13.3029 13.1683V36.1846C13.3029 36.9111 13.8917 37.5 14.6182 37.5H19.8839C20.6104 37.5 21.1992 36.9111 21.1992 36.1846V28.1801C21.1992 24.8455 21.4006 22.5598 21.8033 21.3234C22.2059 20.087 22.9508 19.0942 24.0373 18.3448C25.124 17.5954 26.351 17.2205 27.7188 17.2205C28.7865 17.2205 29.6999 17.4828 30.4588 18.0075C31.2175 18.5322 31.7656 19.2672 32.1028 20.2135C32.4402 21.1596 32.6087 23.2437 32.6087 26.4661V36.1845C32.6087 36.911 33.1975 37.4999 33.9239 37.4999H39.1896C39.9161 37.4999 40.5049 36.911 40.5049 36.1845V23.15C40.5049 20.8458 40.3596 19.0753 40.0695 17.8389C39.7794 16.6025 39.2641 15.4971 38.5237 14.5226Z" fill="white"/>
</svg>
