<svg width="42" height="40" viewBox="0 0 42 40" fill="none" xmlns="http://www.w3.org/2000/svg">
<path fill-rule="evenodd" clip-rule="evenodd" d="M21.0012 40C18.3318 40 17.1683 39.3904 14.8992 37.7416C12.8459 36.2504 11.5288 35.4307 7.71668 36.1955C6.22956 36.4937 6.25861 36.3571 5.9392 34.8489C5.76913 34.0543 5.64675 33.5707 5.35638 33.5238C2.25977 33.0339 0.428358 32.3095 0.06332 31.434C-0.110903 31.0122 0.0965331 30.6803 0.415941 30.625C4.45417 29.9433 7.7188 26.5028 9.13539 23.1136C9.13954 23.1051 9.14162 23.0963 9.14577 23.09C9.50459 22.3444 9.5751 21.701 9.3594 21.1769C8.87199 19.9968 7.3019 19.7497 6.17568 19.2896C5.39997 18.9743 4.12439 18.31 4.29446 17.394C4.45002 16.5547 5.77535 16.0221 6.48469 16.363C8.26632 17.2214 9.69327 16.9589 10.1205 16.5542C10.0998 16.143 10.3695 15.698 10.3695 15.2805C10.3695 12.377 9.64769 8.76452 10.5478 6.69392C14.4326 -2.25305 27.3914 -2.20817 31.2554 6.68981C32.1556 8.76253 31.9336 12.3769 31.7553 15.2846L31.747 15.4234C31.7221 15.8175 31.6993 16.19 31.6806 16.5521C31.7636 16.6309 32.0975 16.9037 32.7799 16.9314C33.3586 16.908 34.0264 16.7166 34.7606 16.363C35.6255 15.9476 37.1831 16.5846 37.1997 17.539C37.208 17.9842 36.8866 18.6484 35.3041 19.2896C34.182 19.7454 32.6077 19.9968 32.1224 21.1769C31.9046 21.701 31.9752 22.3445 32.334 23.0879C32.3381 23.0964 32.3402 23.1051 32.3443 23.1136C32.4543 23.3799 35.1194 29.6195 41.0637 30.625C41.3147 30.6676 41.4952 30.8975 41.4807 31.1574C41.4744 31.2512 41.4537 31.3444 41.4143 31.436C41.0513 32.3073 39.222 33.0298 36.1233 33.5197C35.8329 33.5666 35.7106 34.0503 35.5426 34.8406C35.2874 36.0421 35.3269 36.4553 33.763 36.14C29.9923 35.3859 28.5633 36.2975 26.5825 37.7354C25.1224 38.7962 23.4714 40 21.0012 40Z" fill="white"/>
</svg>
