<svg width="34" height="34" viewBox="0 0 34 34" fill="none" xmlns="http://www.w3.org/2000/svg">
<path d="M17 5.78007C20.1913 5.7373 23.3024 6.78033 25.823 8.73807C28.5758 10.9225 30.3983 14.0692 30.923 17.5441C31.4433 20.4793 30.9959 23.5042 29.648 26.1631C28.543 28.5431 27.013 28.4921 25.908 28.0331C25.6138 27.9055 25.3489 27.7191 25.1296 27.4852C24.9103 27.2512 24.7413 26.9749 24.633 26.6731C24.5029 26.2935 24.4568 25.8901 24.4979 25.4909C24.539 25.0917 24.6663 24.7062 24.871 24.3611C25.1314 23.8145 25.3419 23.2455 25.5 22.6611M17 5.78007C14.0435 5.83999 11.1655 6.74231 8.704 8.38107C6.95828 9.59122 5.52323 11.1968 4.51582 13.0668C3.50841 14.9369 2.95716 17.0185 2.907 19.1421C2.69604 22.028 3.43 24.9041 4.998 27.3361C5.23465 27.6417 5.53897 27.8883 5.88705 28.0565C6.23513 28.2246 6.61747 28.3097 7.004 28.3051C7.37786 28.3056 7.74796 28.2304 8.092 28.0841C8.61675 27.8453 9.03696 27.4241 9.27459 26.8988C9.51222 26.3735 9.55109 25.7799 9.384 25.2281C9.39351 25.1718 9.39351 25.1143 9.384 25.0581C9.384 25.0581 6.664 19.9581 9.197 15.5891L9.27459 15.4361C10.0244 14.0237 11.0592 12.8489 12.4409 12.0439C13.8225 11.2389 15.4016 10.8359 17 10.8801M17 5.78007V10.8801M17 10.8801C18.5861 10.9094 20.1385 11.3432 21.51 12.1406C22.8815 12.9379 24.0267 14.0722 24.837 15.4361M24.837 15.4361C25.8851 17.256 25.9125 20.6019 25.5 22.6611M24.837 15.4361L29.4367 13.0668M25.5 22.6611L27.4999 23.5L16.864 19.4481M9.384 15.0733L4.998 12.243" stroke="white"/>
<path d="M13.379 12.886C13.2633 12.8826 13.1493 12.9141 13.0516 12.9763C12.954 13.0385 12.8773 13.1286 12.8315 13.2348C12.7857 13.3411 12.7728 13.4587 12.7945 13.5724C12.8163 13.6861 12.8717 13.7906 12.9535 13.8725C13.0354 13.9543 13.1399 14.0097 13.2536 14.0314C13.3673 14.0532 13.4849 14.0403 13.5912 13.9945C13.6974 13.9486 13.7875 13.872 13.8497 13.7743C13.9119 13.6767 13.9434 13.5627 13.94 13.447C13.9357 13.2996 13.8752 13.1593 13.7709 13.055C13.6667 12.9507 13.5264 12.8903 13.379 12.886Z" fill="white"/>
<path d="M20.638 13.9741C20.9479 13.9741 21.199 13.7229 21.199 13.4131C21.199 13.1032 20.9479 12.8521 20.638 12.8521C20.3282 12.8521 20.077 13.1032 20.077 13.4131C20.077 13.7229 20.3282 13.9741 20.638 13.9741Z" fill="white"/>
<path d="M24.1558 19.595C24.1591 19.48 24.1281 19.3666 24.0667 19.2694C24.0053 19.1721 23.9162 19.0954 23.811 19.049C23.7057 19.0027 23.589 18.9888 23.4758 19.0091C23.3626 19.0295 23.258 19.0831 23.1754 19.1632C23.0929 19.2434 23.0361 19.3463 23.0124 19.4588C22.9887 19.5714 22.9991 19.6885 23.0423 19.7951C23.0855 19.9017 23.1595 19.993 23.2549 20.0573C23.3503 20.1216 23.4627 20.156 23.5778 20.156C23.7281 20.1561 23.8726 20.0975 23.9806 19.9928C24.0885 19.888 24.1513 19.7453 24.1558 19.595Z" fill="white"/>
<path d="M9.48602 19.3289C9.37585 19.3322 9.2691 19.3679 9.17911 19.4316C9.08912 19.4952 9.01986 19.5839 8.98 19.6867C8.94013 19.7895 8.93142 19.9017 8.95495 20.0094C8.97848 20.117 9.0332 20.2154 9.11229 20.2922C9.19139 20.3689 9.29134 20.4207 9.39967 20.441C9.50801 20.4613 9.61992 20.4493 9.72144 20.4063C9.82297 20.3634 9.9096 20.2916 9.97052 20.1997C10.0314 20.1079 10.064 20.0001 10.064 19.8899C10.0641 19.8147 10.049 19.7404 10.0197 19.6712C9.9905 19.602 9.94765 19.5394 9.89374 19.4871C9.83983 19.4347 9.77596 19.3938 9.70593 19.3666C9.63589 19.3394 9.56111 19.3266 9.48602 19.3289Z" fill="white"/>
</svg>
