<svg width="34" height="34" viewBox="0 0 34 34" fill="none" xmlns="http://www.w3.org/2000/svg">
<path d="M15.2292 31.8751H18.7992C20.1592 31.8751 21.0375 30.9117 20.7825 29.7359L20.2017 27.1719H13.8267L13.2458 29.7359C12.9908 30.8409 13.9542 31.8751 15.2292 31.8751Z" stroke="white" stroke-linecap="round" stroke-linejoin="round"/>
<path d="M20.2016 27.1577L22.6525 24.9759C24.0266 23.7576 24.0833 22.9076 22.9925 21.5334L18.6716 16.0511C17.765 14.9036 16.2775 14.9036 15.3708 16.0511L11.05 21.5334C9.95912 22.9076 9.95912 23.8001 11.39 24.9759L13.8408 27.1577" stroke="white" stroke-linecap="round" stroke-linejoin="round"/>
<path d="M17.0142 15.7534V19.3376" stroke="white" stroke-linecap="round" stroke-linejoin="round"/>
<path d="M15.7958 7.35259L14.6908 6.24754C14.0249 5.58171 14.0249 4.50511 14.6908 3.83928L15.7958 2.73424C16.4616 2.0684 17.5383 2.0684 18.2041 2.73424L19.3091 3.83928C19.9749 4.50511 19.9749 5.58171 19.3091 6.24754L18.2041 7.35259C17.5383 8.01842 16.4616 8.01842 15.7958 7.35259Z" stroke="white" stroke-linecap="round" stroke-linejoin="round"/>
<path d="M27.5541 13.8975H29.1125C30.0475 13.8975 30.8125 14.6625 30.8125 15.5975V17.1557C30.8125 18.0907 30.0475 18.8559 29.1125 18.8559H27.5541C26.6191 18.8559 25.8541 18.0907 25.8541 17.1557V15.5975C25.8541 14.6625 26.6191 13.8975 27.5541 13.8975Z" stroke="white" stroke-linecap="round" stroke-linejoin="round"/>
<path d="M6.44583 13.8975H4.8875C3.9525 13.8975 3.1875 14.6625 3.1875 15.5975V17.1557C3.1875 18.0907 3.9525 18.8559 4.8875 18.8559H6.44583C7.38083 18.8559 8.14583 18.0907 8.14583 17.1557V15.5975C8.14583 14.6625 7.38083 13.8975 6.44583 13.8975Z" stroke="white" stroke-linecap="round" stroke-linejoin="round"/>
<path d="M26.265 14.3086L18.7567 6.80029" stroke="white" stroke-linecap="round" stroke-linejoin="round"/>
<path d="M7.73499 14.3086L15.2433 6.80029" stroke="white" stroke-linecap="round" stroke-linejoin="round"/>
</svg>
