<svg width="19" height="31" viewBox="0 0 19 31" fill="none" xmlns="http://www.w3.org/2000/svg">
<path d="M3.58595 0.5H15.0586C15.9075 0.5 16.6796 0.841797 17.2388 1.39355C17.7981 1.94531 18.1446 2.70703 18.1446 3.54443V27.4556C18.1446 28.293 17.7981 29.0547 17.2388 29.6064C16.6796 30.1582 15.9075 30.5 15.0586 30.5H3.58595C2.73713 30.5 1.96502 30.1582 1.40574 29.6064C0.846458 29.0547 0.5 28.293 0.5 27.4556V3.54443C0.5 2.70703 0.846458 1.94531 1.40574 1.39355C1.96502 0.841797 2.73713 0.5 3.58595 0.5ZM3.58595 0.5H15.0586C15.9075 0.5 16.6796 0.841797 17.2388 1.39355C17.7981 1.94531 18.1446 2.70703 18.1446 3.54443V27.4556M3.58595 0.5H15.0586C15.9075 0.5 16.6796 0.841797 17.2388 1.39355C17.7981 1.94531 18.1446 2.70703 18.1446 3.54443V27.4556M3.58595 0.5H15.0586C15.9075 0.5 16.6796 0.841797 17.2388 1.39355C17.7981 1.94531 18.1446 2.70703 18.1446 3.54443V27.4556" stroke="white"/>
<path d="M11.0546 28.0879H7.6593" stroke="white"/>
<path d="M7.93162 2.8291C7.93162 2.50928 7.66683 2.24805 7.34264 2.24805C7.01845 2.24805 6.75366 2.50928 6.75366 2.8291C6.75366 3.14893 7.01845 3.41016 7.34264 3.41016C7.66683 3.41016 7.93162 3.14893 7.93162 2.8291Z" fill="white"/>
<path d="M9.91123 2.8291C9.91123 2.50928 9.64644 2.24805 9.32225 2.24805C8.99807 2.24805 8.73328 2.50928 8.73328 2.8291C8.73328 3.14893 8.99559 3.41016 9.32225 3.41016C9.64644 3.41016 9.91123 3.14893 9.91123 2.8291Z" fill="white"/>
<path d="M11.891 2.8291C11.891 2.50928 11.6262 2.24805 11.302 2.24805C10.9778 2.24805 10.713 2.50928 10.713 2.8291C10.713 3.14893 10.9753 3.41016 11.302 3.41016C11.6262 3.41016 11.891 3.14893 11.891 2.8291Z" fill="white"/>
<path d="M0.941162 24.7407H17.7059" stroke="white"/>
<path d="M17.7059 5.18994H0.5" stroke="white"/>
</svg>
