<svg width="36" height="34" viewBox="0 0 36 34" fill="none" xmlns="http://www.w3.org/2000/svg">
<path d="M10.7175 33.1985C10.6464 33.1985 10.5812 33.1452 10.5338 33.0623C10.5101 33.0149 10.4923 32.9615 10.4686 32.9023C10.4568 32.8727 10.4508 32.843 10.439 32.8134L10.1309 32.0136C9.88206 31.3618 9.62729 30.7042 9.37845 30.0524C9.30142 29.8569 9.31327 29.7799 9.33105 29.7562C9.3429 29.7266 9.40215 29.6792 9.62729 29.6258C10.1487 29.5133 10.6819 29.3889 11.1974 29.2763C11.4462 29.217 11.6951 29.1637 11.9498 29.1045H11.9795C12.0446 29.0808 12.1098 29.0689 12.1631 29.063C12.1691 29.063 12.1809 29.063 12.1868 29.063C12.3349 29.063 12.3646 29.1341 12.3764 29.1993C12.406 29.3652 12.329 29.4066 12.2461 29.4303C11.9261 29.5133 11.6062 29.5844 11.2863 29.6555C11.1441 29.6851 11.0019 29.7206 10.8597 29.7562C10.7886 29.774 10.7234 29.7917 10.6286 29.8095L10.4686 29.851L10.0065 29.9636L10.4212 30.2065C10.4923 30.248 10.5634 30.2894 10.6227 30.325C10.753 30.402 10.8597 30.4672 10.9782 30.5323C13.2889 31.7114 15.6055 32.3039 17.8628 32.3039C20.5112 32.3039 23.1597 31.4803 25.731 29.8569C25.7725 29.8332 25.8081 29.8036 25.8436 29.7799C25.9029 29.7384 25.9621 29.6969 26.0154 29.6673C26.051 29.6495 26.0806 29.6436 26.1102 29.6436C26.128 29.6436 26.1813 29.6436 26.2465 29.7266C26.3176 29.8214 26.3117 29.8925 26.2287 29.9813C26.1576 30.0524 26.0628 30.1117 25.974 30.1709C23.3078 31.8477 20.5764 32.7008 17.851 32.7008C15.4751 32.7008 13.04 32.055 10.6167 30.7812C10.5871 30.7634 10.5575 30.7516 10.5101 30.7219C10.4805 30.7042 10.4449 30.6864 10.3975 30.6627L9.93538 30.4139C9.93538 30.4139 10.6227 32.215 10.7945 32.6534C10.8063 32.6831 10.8182 32.7068 10.83 32.7364C10.8537 32.8016 10.8834 32.8667 10.9011 32.926C10.9426 33.0504 10.913 33.1215 10.7886 33.1808C10.7649 33.1926 10.7412 33.1985 10.7175 33.1985Z" stroke="#E43D30" stroke-width="1.2"/>
<path d="M23.426 5.33428C23.3135 5.33428 23.2601 5.2928 23.2364 5.18023C23.2187 5.08543 23.2246 4.99064 23.4023 4.94916C23.7104 4.87214 24.0244 4.80104 24.3325 4.73587C24.4688 4.70624 24.5992 4.67662 24.7354 4.64699C24.8065 4.62922 24.8776 4.61145 24.9724 4.59367L25.6123 4.44555L25.2035 4.20263C22.8691 2.80437 20.4577 2.12301 17.833 2.12301C17.673 2.12301 17.5071 2.12301 17.3412 2.12893C14.6217 2.2178 12.0859 3.04728 9.78702 4.60552L9.57373 4.30335C11.7422 2.69179 14.8172 1.73197 17.8389 1.73197C20.434 1.73197 22.9046 2.40148 25.1976 3.72272L25.6597 3.98934L25.4701 3.48572C25.4346 3.39093 25.399 3.29613 25.3694 3.20726C25.2983 3.01173 25.2272 2.82807 25.162 2.6444C25.1087 2.49627 25.0494 2.35407 24.9902 2.20595C24.9013 1.98081 24.8125 1.75567 24.7295 1.5246C24.688 1.41203 24.6703 1.26983 24.8184 1.2165C24.848 1.20465 24.8717 1.19873 24.9013 1.19873C25.002 1.19873 25.0613 1.29945 25.0968 1.3824C25.5353 2.50812 25.9145 3.5035 26.264 4.4337C26.2996 4.52257 26.2996 4.5996 26.2759 4.65292C26.2463 4.71217 26.1692 4.74179 26.11 4.75364C25.2805 4.93731 24.457 5.12098 23.6275 5.30465C23.5801 5.3165 23.5327 5.32835 23.4853 5.33428C23.4675 5.33428 23.4438 5.33428 23.426 5.33428Z" stroke="#E43D30" stroke-width="1.2"/>
<path d="M34.3815 26.221C34.3163 26.221 34.1919 26.221 34.1919 25.9484C34.1919 25.6344 34.1919 25.3145 34.1919 25.0005C34.1919 24.6153 34.1919 24.2125 34.1919 23.8214C34.1741 21.0782 32.1182 18.8445 29.4046 18.6194C29.2624 18.6075 29.1202 18.6016 28.9781 18.6016C26.4541 18.6016 24.2678 20.4857 23.8827 22.9919C23.7938 23.5666 23.7997 24.1591 23.8057 24.7338C23.8057 24.9886 23.8057 25.2493 23.8057 25.4981C23.8057 25.5811 23.8057 25.6581 23.8057 25.7351C23.8057 25.8359 23.8057 25.9307 23.8057 26.0195C23.7997 26.1736 23.7346 26.2091 23.622 26.2151C23.6161 26.2151 23.6101 26.2151 23.6042 26.2151C23.4976 26.2151 23.4324 26.1499 23.4205 26.0314C23.4028 25.7825 23.4087 25.5278 23.4146 25.2789V25.2078C23.4146 24.9945 23.4146 24.7812 23.4146 24.5739C23.4146 23.8629 23.4028 23.1934 23.5627 22.5179C23.8471 21.3034 24.5522 20.2013 25.5416 19.4133C26.5252 18.6312 27.7338 18.1987 28.9425 18.1987C29.138 18.1987 29.3276 18.2106 29.5231 18.2343C30.9333 18.3943 32.2189 19.0401 33.1432 20.0532C34.0675 21.0664 34.577 22.3935 34.583 23.7859C34.583 23.9932 34.583 24.2065 34.583 24.4139V24.5146V24.7101C34.583 24.8346 34.583 24.959 34.583 25.0834C34.583 25.3619 34.583 25.6522 34.583 25.9425C34.583 26.2269 34.4645 26.2269 34.3874 26.2269L34.3815 26.221Z" stroke="#E43D30" stroke-width="2"/>
<path d="M12.3882 26.2151C12.3231 26.2151 12.2105 26.2091 12.2046 25.9721C12.2046 25.5041 12.2046 25.0242 12.2046 24.562C12.2046 24.3132 12.2046 24.0703 12.2046 23.8214C12.2046 21.2797 10.4449 19.1645 7.94461 18.6846C7.63652 18.6253 7.31658 18.5957 7.00256 18.5957C4.22973 18.5957 1.90718 20.8353 1.82424 23.5844C1.80646 24.0999 1.81239 24.6272 1.81831 25.1367C1.81831 25.3915 1.81831 25.6522 1.81831 25.907C1.81831 26.2151 1.69981 26.2151 1.62279 26.2151C1.55169 26.2151 1.42727 26.2151 1.42727 25.907C1.42727 25.6285 1.42727 25.356 1.42727 25.0242C1.42727 24.8642 1.42727 24.5028 1.42727 24.5028C1.37987 23.4481 1.50429 22.5476 1.80646 21.7536C2.60632 19.6622 4.73926 18.1987 6.99071 18.1987C7.15068 18.1987 7.31657 18.2047 7.47655 18.2224C8.71484 18.3409 9.89389 18.8564 10.8004 19.6799C11.7128 20.5035 12.3112 21.6055 12.483 22.7786C12.5897 23.5311 12.5897 24.325 12.5897 25.0893C12.5897 25.3915 12.5897 25.7055 12.5897 26.0136C12.5897 26.061 12.5838 26.1203 12.5423 26.1677C12.5008 26.2091 12.4416 26.221 12.4001 26.221C12.4001 26.221 12.3942 26.221 12.3882 26.221V26.2151Z" stroke="#E43D30" stroke-width="2"/>
<path d="M6.79465 15.8565C5.9 15.8565 5.05274 15.507 4.41286 14.873C3.77298 14.2391 3.41156 13.3859 3.39971 12.4794C3.38786 11.5788 3.7315 10.7256 4.37139 10.0739C5.0172 9.41624 5.8763 9.04889 6.80058 9.04297H6.82428C8.70245 9.04297 10.1955 10.542 10.2192 12.4498C10.2429 14.2924 8.73208 15.821 6.8539 15.8506C6.83613 15.8506 6.81243 15.8506 6.79465 15.8506V15.8565ZM6.81243 9.43401C6.00665 9.43401 5.24826 9.74803 4.67948 10.3168C4.10477 10.8856 3.79075 11.644 3.79075 12.4438C3.79075 14.0909 5.13569 15.4477 6.7828 15.4596H6.8065C8.45953 15.4596 9.8104 14.1146 9.82225 12.4616C9.82225 11.6499 9.51416 10.8915 8.94537 10.3168C8.37659 9.74803 7.62413 9.42809 6.81835 9.42809H6.81243V9.43401Z" stroke="#E43D30" stroke-width="2"/>
<path d="M28.8053 15.8565C27.8869 15.8565 27.0278 15.5011 26.388 14.8553C25.7422 14.2094 25.3926 13.3444 25.3985 12.4201C25.4104 10.5597 26.933 9.04297 28.7935 9.04297H28.8112C29.7296 9.04297 30.5828 9.40438 31.2286 10.0561C31.8685 10.7019 32.218 11.561 32.2121 12.4675C32.2002 14.3398 30.6716 15.8625 28.8053 15.8625V15.8565ZM28.7994 9.43401C27.9936 9.43401 27.2352 9.74803 26.6664 10.3168C26.0976 10.8856 25.7836 11.644 25.7836 12.4498C25.7836 14.1087 27.1345 15.4596 28.7994 15.4596H28.8112C29.6229 15.4596 30.3813 15.1337 30.956 14.5531C31.5248 13.9784 31.8329 13.22 31.8211 12.4261C31.8033 10.779 30.4465 9.43401 28.7994 9.43401Z" stroke="#E43D30" stroke-width="2"/>
</svg>
