<svg width="26" height="26" viewBox="0 0 26 26" fill="none" xmlns="http://www.w3.org/2000/svg">
<path d="M13.1981 25.1987C13.0777 25.1987 12.9615 25.1729 12.8539 25.1256C12.5872 25.0094 12.4021 24.7642 12.3591 24.4802L11.8041 20.9047L11.2964 20.9951C11.2447 21.0037 11.1931 21.0123 11.1415 21.0209C11.064 21.0338 10.9866 21.0424 10.9048 21.0424C10.5219 21.0424 10.1476 20.8875 9.87651 20.6164L5.58249 16.3224C5.25119 15.9911 5.0963 15.5178 5.17375 15.0618C5.18235 15.0058 5.19096 14.9499 5.20386 14.8983L5.29422 14.3992L1.71874 13.8441C1.43047 13.8011 1.18952 13.6161 1.07335 13.3493C0.957181 13.0826 0.982997 12.7814 1.14219 12.5361L3.63771 8.76273C3.88726 8.3841 4.28741 8.14746 4.73918 8.11304L8.60293 7.81616C8.60293 7.81616 8.77934 7.60103 8.79225 7.58812C10.3627 5.70357 12.329 4.07288 14.1834 3.1134C17.234 1.53003 20.405 1.19873 22.5305 1.19873C22.8876 1.19873 23.249 1.20734 23.5933 1.22885C24.3376 1.26757 24.9271 1.86133 24.9701 2.60138C25.0777 4.55477 24.9701 8.37119 23.0898 12.0155C22.1304 13.8699 20.4997 15.8319 18.6151 17.4067C18.6022 17.4196 18.3871 17.596 18.3871 17.596L18.0902 21.4598C18.0558 21.9115 17.8191 22.3117 17.4405 22.5612L13.6671 25.0567C13.5251 25.1514 13.3659 25.1987 13.1981 25.1987ZM17.0275 18.5942C15.6291 19.5322 14.1705 20.2249 12.6861 20.6595L12.2774 20.7799L12.9228 24.9578L17.1694 22.1525C17.419 21.9847 17.5782 21.7179 17.5997 21.421L17.8622 18.0349L17.0275 18.5942ZM6.2494 12.8803C5.98264 13.629 5.78042 14.3863 5.65564 15.1392C5.60401 15.4404 5.70727 15.7545 5.9267 15.9782L10.2207 20.2722C10.4014 20.4529 10.651 20.5562 10.9048 20.5562C10.9565 20.5562 11.0081 20.5562 11.0597 20.5433C11.8041 20.4185 12.5613 20.2206 13.3186 19.9495L14.0414 19.6914L6.51186 12.1575L6.2537 12.8803H6.2494ZM22.5262 1.68493C20.4566 1.68493 17.3717 2.00762 14.4072 3.53935C12.6087 4.46872 10.6983 6.05639 9.16658 7.8936C8.24582 8.99507 7.47995 10.1697 6.88619 11.3787L6.73129 11.6928L14.5018 19.4633L14.8159 19.3127C16.0206 18.7233 17.1953 17.9574 18.301 17.0324C20.1383 15.5006 21.7216 13.5903 22.6553 11.7918C24.4882 8.25072 24.5872 4.53326 24.4839 2.6272C24.4581 2.1324 24.0622 1.74086 23.5717 1.71504C23.2318 1.69783 22.879 1.68923 22.5305 1.68923L22.5262 1.68493ZM4.77791 8.59493C4.47672 8.61644 4.20996 8.77564 4.04646 9.02519L1.23685 13.2719L5.41469 13.9173L5.53517 13.5085C5.96973 12.0284 6.66675 10.5655 7.60042 9.16718L8.15976 8.33247L4.7736 8.59493H4.77791Z" stroke="#E43D30"/>
<path d="M17.6212 11.749C16.7736 11.749 15.9776 11.4177 15.3796 10.8239C14.7815 10.2259 14.4502 9.42987 14.4502 8.58225C14.4502 7.73464 14.7815 6.93865 15.3796 6.34059C15.9776 5.74253 16.7736 5.41553 17.6212 5.41553C18.4688 5.41553 19.2648 5.74683 19.8629 6.34059C20.461 6.93865 20.7923 7.73464 20.7923 8.58225C20.7923 9.42987 20.461 10.2259 19.8629 10.8239C19.2648 11.422 18.4688 11.749 17.6212 11.749ZM17.6212 5.89742C16.9027 5.89742 16.2315 6.17709 15.7238 6.6805C15.2161 7.18821 14.9364 7.85941 14.9364 8.57795C14.9364 9.29649 15.2161 9.9677 15.7238 10.4754C16.2315 10.9831 16.9027 11.2585 17.6212 11.2585C18.3398 11.2585 19.011 10.9788 19.5187 10.4754C20.0264 9.9677 20.3061 9.29649 20.3061 8.57795C20.3061 7.85941 20.0264 7.18821 19.5187 6.6805C19.011 6.17279 18.3398 5.89742 17.6212 5.89742Z" stroke="#E43D30"/>
<path d="M1.25823 20.8057C1.21951 20.8057 1.14637 20.7971 1.08613 20.7326C0.991472 20.6379 0.991472 20.483 1.08613 20.3883L3.47408 18.0004C3.53432 17.9402 3.60746 17.9272 3.64619 17.9272C3.68491 17.9272 3.75806 17.9359 3.81829 18.0004C3.91295 18.095 3.91295 18.2499 3.81829 18.3446L1.43034 20.7326C1.3701 20.7928 1.29696 20.8057 1.25823 20.8057Z" stroke="#E43D30"/>
<path d="M1.24505 25.1986C1.20633 25.1986 1.13318 25.19 1.07295 25.1254C0.978289 25.0308 0.978289 24.8759 1.07295 24.7812L5.66384 20.1903C5.72408 20.1301 5.79722 20.1172 5.83594 20.1172C5.87467 20.1172 5.94781 20.1258 6.00805 20.1903C6.06829 20.2506 6.08119 20.3237 6.08119 20.3624C6.08119 20.4012 6.07259 20.4743 6.00805 20.5345L1.41716 25.1254C1.35692 25.1857 1.28377 25.1986 1.24505 25.1986Z" stroke="#E43D30"/>
<path d="M5.63812 25.1817C5.59939 25.1817 5.52625 25.1731 5.46601 25.1085C5.37136 25.0139 5.37136 24.859 5.46601 24.7643L7.85397 22.3764C7.9142 22.3161 7.98735 22.3032 8.02607 22.3032C8.06479 22.3032 8.13794 22.3118 8.19817 22.3764C8.25841 22.4409 8.27132 22.5097 8.27132 22.5485C8.27132 22.5872 8.26271 22.6603 8.19817 22.7206L5.81022 25.1085C5.74999 25.1688 5.67684 25.1817 5.63812 25.1817Z" stroke="#E43D30"/>
</svg>
