<svg width="26" height="27" viewBox="0 0 26 27" fill="none" xmlns="http://www.w3.org/2000/svg">
<path d="M22.3746 9.54941C23.0427 9.52541 23.6878 9.75811 24.1839 10.2298C25.196 11.1919 25.278 12.8416 24.3669 13.9081L17.56 21.8804C15.7578 23.9893 13.1725 25.1987 10.4662 25.1987H4.50043C2.57019 25.1987 1 23.5604 1 21.5465V16.329C1 14.3151 2.57019 12.6768 4.50043 12.6768H14.3596C15.5678 12.6768 16.5889 13.5272 16.903 14.6834L20.6354 10.403C21.0865 9.88542 21.7045 9.5828 22.3746 9.54941Z" stroke="#E43D30" stroke-width="2"/>
<path d="M12.3074 10.6054L5.70058 10.5887C4.2154 10.5856 3.00625 9.32193 3.00625 7.77129V2.78442C3.00625 2.16667 3.33929 1.62301 3.87635 1.36422C4.37141 1.12943 4.94949 1.17222 5.35254 1.47275C5.43955 1.5364 5.51856 1.61779 5.58456 1.70962L6.58469 3.10999L7.57681 1.88388C8.38791 1.03239 9.59406 1.00422 10.3522 1.78788L11.4203 3.1006L12.3074 1.82753C12.7414 1.26613 13.4045 1.06369 14.0106 1.28909C14.6167 1.51866 15.0067 2.09676 15.0067 2.76459V7.78694C15.0067 8.54244 14.7257 9.25097 14.2136 9.78211C13.7036 10.3133 13.0265 10.6054 12.3074 10.6054Z" stroke="#E43D30" stroke-width="2"/>
</svg>
