<svg width="24" height="26" viewBox="0 0 24 26" fill="none" xmlns="http://www.w3.org/2000/svg">
<path fill-rule="evenodd" clip-rule="evenodd" d="M14.5782 25.2374C14.5782 25.2374 14.5327 25.2366 14.5042 25.2106L13.4947 24.4963C13.4947 24.4963 13.4662 24.4746 13.454 24.4616L13.4134 24.4142L13.3559 24.3919C13.3559 24.3919 13.3354 24.3831 13.3272 24.3745C13.2986 24.3527 13.2785 24.3226 13.2708 24.2842C13.2632 24.2457 13.272 24.2118 13.2932 24.1781L14.1063 22.9653C14.1317 22.9274 14.1734 22.9025 14.223 22.9033C14.2437 22.9036 14.2685 22.904 14.297 22.93C14.3583 22.9736 14.3734 23.0632 14.331 23.1264L13.6789 24.0992L14.3344 23.9437C19.0312 22.8358 22.5004 18.3837 22.5809 13.3664C22.667 8.00872 18.8652 3.31222 13.7414 2.44247C13.2261 2.35333 12.7019 2.3066 12.1771 2.29817C12.1028 2.29698 12.0418 2.23215 12.043 2.15555C12.0443 2.07895 12.1073 2.01611 12.1816 2.01731C12.7188 2.02593 13.2595 2.07718 13.7871 2.16653C16.3264 2.59891 18.6441 3.95568 20.3143 5.99588C21.9966 8.0533 22.9011 10.6729 22.8578 13.3709C22.8371 14.6603 22.606 15.9251 22.1692 17.1312C21.7453 18.2992 21.1451 19.3835 20.3772 20.3545C18.8372 22.3048 16.703 23.6795 14.3712 24.2252L13.7904 24.3606L14.6649 24.9833C14.6935 25.0051 14.7137 25.0352 14.7214 25.0736C14.729 25.1121 14.7202 25.146 14.699 25.1797C14.6736 25.2176 14.6319 25.2425 14.5823 25.2417L14.5782 25.2374ZM11.8144 24.3757C10.3474 24.3522 8.93059 24.0357 7.6052 23.4313C6.3208 22.8488 5.17259 22.0216 4.19316 20.98C3.21373 19.9384 2.44779 18.73 1.92371 17.3893C1.37971 16.0014 1.11809 14.5329 1.14228 13.0265C1.16298 11.737 1.39409 10.4723 1.83093 9.26615C2.25476 8.09813 2.85498 7.01381 3.62285 6.04286C5.16286 4.09252 7.29711 2.71784 9.62884 2.17212L10.2097 2.03673L9.33514 1.41399C9.27384 1.37044 9.25875 1.2808 9.3011 1.21764C9.32651 1.17973 9.36824 1.15486 9.41783 1.15566C9.43849 1.15599 9.46328 1.15639 9.4918 1.18239L10.7833 2.09701L9.89389 3.42783C9.86848 3.46573 9.82674 3.4906 9.77716 3.4898C9.7565 3.48947 9.7317 3.48907 9.70318 3.46307C9.64188 3.41952 9.62679 3.32989 9.66914 3.26672L10.3213 2.29392L9.66572 2.4494C4.96065 3.55719 1.49157 8.005 1.41095 13.0265C1.31447 19.0353 5.98402 24.0012 11.8189 24.0948C11.8933 24.096 11.9542 24.1609 11.953 24.2375C11.9518 24.3141 11.8888 24.3769 11.8144 24.3757ZM11.8604 21.5117C9.70328 21.4771 7.68817 20.5807 6.18855 18.9859C4.68893 17.3911 3.88361 15.2882 3.91928 13.0668C3.95495 10.8454 4.82736 8.76941 6.37741 7.22361C7.92746 5.6778 9.97031 4.84651 12.1274 4.88114C14.2845 4.91578 16.2996 5.81223 17.7992 7.407C19.2988 9.00177 20.1041 11.1047 20.0685 13.3261C20.0328 15.5475 19.1604 17.6235 17.6104 19.1693C16.0603 20.7151 14.0175 21.5464 11.8604 21.5117ZM4.19351 13.4926C4.32043 17.1724 6.84975 20.282 10.3425 21.0532L11.1456 21.2321L10.5894 20.6102C10.4472 20.4504 10.3095 20.278 10.1844 20.0887C9.74421 19.4431 9.39348 18.633 9.14418 17.684C8.83644 16.5127 8.68103 15.1226 8.67738 13.5476L8.68162 13.2837L4.18563 13.2115L4.19351 13.4926ZM8.94998 13.5605C8.95173 17.0552 9.7438 18.9536 10.4061 19.9262C10.7937 20.4986 11.1853 20.8241 11.4429 20.9985C11.586 21.0944 11.7049 21.1559 11.7787 21.1912L11.7951 21.2L11.8731 21.2353L11.9643 21.2154C12.039 21.1954 12.1554 21.1589 12.3012 21.0889C12.5636 20.9612 12.9563 20.7035 13.3614 20.1865C14.0537 19.2909 14.906 17.436 15.0245 13.6623L15.0288 13.3899L8.95015 13.2923L8.94578 13.5646L8.94998 13.5605ZM15.2974 13.6539C15.2454 15.3472 15.0441 16.8125 14.6985 18.003C14.4184 18.969 14.042 19.759 13.5778 20.356C13.5102 20.4443 13.4344 20.5324 13.3628 20.6122L12.799 21.2331L13.6078 21.0588C17.009 20.3217 19.5457 17.3104 19.7848 13.7429L19.8018 13.4623L15.3099 13.3902L15.3057 13.654L15.2974 13.6539ZM13.5961 5.82416C13.6651 5.90614 13.738 5.9967 13.8027 6.08713C14.2476 6.69871 14.5985 7.50033 14.8473 8.47484C15.1546 9.67588 15.3087 11.1469 15.3063 12.841L15.3021 13.1048L19.7981 13.177L19.7902 12.896C19.6658 9.3184 17.227 6.2315 13.8512 5.38556L13.0484 5.18538L13.592 5.82409L13.5961 5.82416ZM12.0563 5.19074L12.0396 5.19898C11.9647 5.23183 11.844 5.28523 11.6978 5.38078C11.4347 5.54683 11.0328 5.86388 10.6271 6.41924C9.93392 7.3701 9.08132 9.2421 8.96737 12.735L8.96299 13.0073L15.0375 13.1048L15.0419 12.8325C15.0447 9.05691 14.2523 7.17553 13.585 6.25816C13.2009 5.72842 12.8126 5.45402 12.5543 5.32217C12.4108 5.24751 12.2958 5.20735 12.2217 5.18488L12.1311 5.16214L12.0521 5.19493L12.0563 5.19074ZM10.5956 5.29072C7.07988 5.94939 4.45203 8.97622 4.20704 12.65L4.19014 12.9307L8.68199 13.0028L8.68623 12.739C8.74037 11.1691 8.94454 9.78049 9.28971 8.61972C9.56935 7.67924 9.94591 6.88078 10.4066 6.24969C10.5418 6.06457 10.6809 5.89654 10.8281 5.7414L11.4041 5.1377L10.5956 5.29072Z" stroke="#E43D30"/>
</svg>
