<svg width="26" height="26" viewBox="0 0 26 26" fill="none" xmlns="http://www.w3.org/2000/svg">
<path d="M18.4545 1.5V25M15.1818 6.69873C15.1818 6.97473 14.9375 7.19873 14.6364 7.19873H4.81818C4.51709 7.19873 4.27273 6.97473 4.27273 6.69873C4.27273 6.42273 4.51709 6.19873 4.81818 6.19873H14.6364C14.9375 6.19873 15.1818 6.42273 15.1818 6.69873ZM12.4545 10.1987H7C6.69891 10.1987 6.45455 10.4227 6.45455 10.6987C6.45455 10.9747 6.69891 11.1987 7 11.1987H12.4545C12.7556 11.1987 13 10.9747 13 10.6987C13 10.4227 12.7556 10.1987 12.4545 10.1987ZM25 17.9067V20.6987C25 23.1797 22.7975 25.1987 20.0909 25.1987H5.90909C3.20255 25.1987 1 23.1797 1 20.6987V5.69873C1 3.21773 3.20255 1.19873 5.90909 1.19873H17.9091C20.6156 1.19873 22.8182 3.21773 22.8182 5.69873V12.4907C22.8182 12.8767 22.9175 13.2627 23.1062 13.6087L24.5975 16.3417C24.8604 16.8257 25 17.3667 25 17.9067Z" stroke="#E43D30"/>
</svg>
