<svg width="190" height="93" viewBox="0 0 190 93" fill="none" xmlns="http://www.w3.org/2000/svg">
<rect x="0.931641" y="0.763184" width="188.733" height="91.7633" fill="white"/>
<mask id="mask0_206_33790" style="mask-type:luminance" maskUnits="userSpaceOnUse" x="38" y="26" width="116" height="42">
<path d="M153.22 26.145H38.0278V67.7964H153.22V26.145Z" fill="white"/>
</mask>
<g mask="url(#mask0_206_33790)">
<path d="M95.4603 36.9478C97.5468 36.1968 98.9376 34.7526 98.9376 32.3841C98.9376 28.8025 95.6341 27.2427 91.4618 27.2427H86.709V49.5993H92.9105C97.6047 49.5993 101.72 47.6929 101.72 43.418C101.778 40.0096 99.2272 37.641 95.4603 36.9478ZM92.6788 48.3284H90.0704V37.5256V36.2546V28.5136H91.8093C94.8811 28.5136 95.9237 30.0156 95.9237 32.2686C95.9237 32.6152 96.156 36.3124 93.1422 37.0056C93.8958 37.1789 95.3445 37.6988 96.5036 38.7387C97.7206 39.7208 98.3004 41.2805 98.3004 43.0714C98.3004 46.1908 96.5615 48.3284 92.6788 48.3284Z" fill="#DABC67"/>
<path d="M39.5926 48.8482C41.0994 49.6571 43.0699 50.0036 44.7506 50.0036C47.6483 50.0036 52.7484 48.9638 52.7484 43.8801C52.7484 40.3562 50.1983 38.3342 45.9097 35.5036C43.9392 34.1172 41.2733 32.7307 41.2733 30.4199C41.3312 28.5136 43.0699 27.3582 45.504 27.3582C47.9381 27.3582 49.8506 28.5136 50.3142 28.8024L49.0972 26.7227C48.2859 26.2605 46.4893 26.145 45.504 26.145C42.2585 26.145 38.4915 27.5315 38.4915 31.3442C38.4915 34.406 40.8676 36.0813 44.8665 38.9697C46.7211 40.2984 49.6188 42.3781 49.6188 44.9199C49.6188 47.2884 47.7642 48.7904 44.7506 48.7904C41.2153 48.7327 38.6654 46.6531 38.0278 46.0754L39.5926 48.8482Z" fill="#DABC67"/>
<path d="M68.7437 50.0036C62.7744 50.0036 58.0801 45.2087 58.0801 38.4498C58.0801 31.8063 62.7165 26.896 68.7437 26.896C74.771 26.896 79.3492 31.8063 79.3492 38.4498C79.4071 45.2087 74.771 50.0036 68.7437 50.0036ZM76.104 38.4498C76.104 32.384 73.1483 28.1669 68.7437 28.1669C64.3392 28.1669 61.3835 32.4418 61.3835 38.4498C61.4414 44.5155 64.3392 48.7327 68.7437 48.7327C73.1483 48.7327 76.104 44.5155 76.104 38.4498Z" fill="#DABC67"/>
<path d="M146.925 43.0133H138.29L135.624 49.5989H134.349L143.68 26.7803L153.068 49.5989H149.591L146.925 43.0133ZM138.753 41.8002H146.403L142.578 32.4994L138.753 41.8002Z" fill="#DABC67"/>
<path d="M124.67 27.2427V36.4279H112.674V27.2427H109.37V49.5993H112.674V37.6988H124.67V49.5993H127.915V27.2427H124.67Z" fill="#DABC67"/>
<path d="M51.0087 63.0593V63.3481H49.7337V63.1749C49.7337 62.5394 49.2121 61.9039 48.2849 61.9039C47.1258 61.9039 46.4882 62.7704 46.4882 63.868V64.7346C46.4882 65.8322 47.0678 66.6988 48.2849 66.6988C49.2121 66.6988 49.7337 66.121 49.7337 65.4278V65.1967H51.0087V65.4856C51.0087 66.6988 50.0814 67.7963 48.2269 67.7963C46.2564 67.7963 45.1553 66.5254 45.1553 64.7346V63.9258C45.1553 62.135 46.3144 60.8641 48.2849 60.8641C50.1394 60.8063 51.0087 61.8462 51.0087 63.0593Z" fill="#DABC67"/>
<path d="M59.5867 63.9258V64.6189C59.5867 66.641 58.3697 67.7386 56.4572 67.7386C54.5446 67.7386 53.3276 66.641 53.3276 64.6189V63.9258C53.3276 61.9038 54.5446 60.7485 56.4572 60.7485C58.3697 60.8063 59.5867 61.9038 59.5867 63.9258ZM54.6606 63.9258V64.6768C54.6606 66.0055 55.2981 66.6987 56.4572 66.6987C57.6163 66.6987 58.2537 66.0633 58.2537 64.6768V63.9258C58.2537 62.5971 57.6163 61.9038 56.4572 61.9038C55.2981 61.9038 54.6606 62.5393 54.6606 63.9258Z" fill="#DABC67"/>
<path d="M63.527 60.9795L66.8304 65.601V60.9795H68.0475V67.6229H66.7724L63.469 62.9437V67.6229H62.252V60.9795H63.527Z" fill="#DABC67"/>
<path d="M76.2777 62.8858V63.0592H74.9447V62.8858C74.9447 62.3081 74.5391 61.846 73.4959 61.846C72.6845 61.846 72.163 62.1926 72.163 62.7125C72.163 63.2901 72.5686 63.4058 73.8436 63.7524C75.7561 64.1567 76.3935 64.6188 76.3935 65.7743C76.3935 67.0452 75.2345 67.7962 73.6118 67.7962C71.6992 67.7962 70.772 66.9296 70.772 65.6588V65.4276H72.1049V65.5432C72.1049 66.2364 72.6266 66.6986 73.6697 66.6986C74.5391 66.6986 75.0606 66.352 75.0606 65.832C75.0606 65.2543 74.7129 65.0811 73.322 64.7345C71.5255 64.33 70.83 63.8679 70.83 62.7703C70.83 61.6149 71.8732 60.8062 73.5538 60.8062C75.4084 60.8062 76.2777 61.7305 76.2777 62.8858Z" fill="#DABC67"/>
<path d="M84.1012 60.9795V62.0772H81.8409V67.6229H80.5081V62.0772H78.248V60.9795H84.1012Z" fill="#DABC67"/>
<path d="M87.8109 67.6229H86.478V60.9795H89.665C91.1723 60.9795 91.9253 61.7305 91.9253 62.8859V63.2325C91.9253 64.0991 91.404 64.7923 90.4766 65.0234L92.2155 67.6808H90.7662L89.1437 65.1966H87.753L87.8109 67.6229ZM87.8109 64.0991H89.4333C90.3028 64.0991 90.7082 63.7525 90.7082 63.1748V62.8859C90.7082 62.3082 90.3607 61.9616 89.4913 61.9616H87.8109V64.0991Z" fill="#DABC67"/>
<path d="M95.8667 60.9795V65.0812C95.8667 66.121 96.4459 66.6987 97.4312 66.6987C98.4166 66.6987 98.9964 66.121 98.9964 65.0812V60.9795H100.271V65.0234C100.271 66.7565 99.286 67.7963 97.4312 67.7963C95.5771 67.7963 94.5918 66.8142 94.5918 65.0234V60.9795H95.8667Z" fill="#DABC67"/>
<path d="M108.617 63.0593V63.3481H107.342V63.1749C107.342 62.5394 106.821 61.9039 105.835 61.9039C104.676 61.9039 104.039 62.7704 104.039 63.868V64.7346C104.039 65.8322 104.618 66.6988 105.835 66.6988C106.821 66.6988 107.342 66.121 107.342 65.4278V65.1967H108.617V65.4856C108.617 66.6988 107.69 67.7963 105.835 67.7963C103.865 67.7963 102.764 66.5254 102.764 64.7346V63.9258C102.764 62.135 103.923 60.8641 105.893 60.8641C107.748 60.8063 108.617 61.8462 108.617 63.0593Z" fill="#DABC67"/>
<path d="M116.441 60.9795V62.0772H114.123V67.6229H112.848V62.0772H110.588V60.9795H116.441Z" fill="#DABC67"/>
<path d="M120.207 60.9795H118.875V67.6808H120.207V60.9795Z" fill="#DABC67"/>
<path d="M129.191 63.9258V64.6189C129.191 66.641 127.974 67.7386 126.061 67.7386C124.149 67.7386 122.932 66.641 122.932 64.6189V63.9258C122.932 61.9038 124.149 60.7485 126.061 60.7485C127.974 60.8063 129.191 61.9038 129.191 63.9258ZM124.265 63.9258V64.6768C124.265 66.0055 124.902 66.6987 126.061 66.6987C127.22 66.6987 127.858 66.0633 127.858 64.6768V63.9258C127.858 62.5971 127.22 61.9038 126.061 61.9038C124.902 61.9038 124.265 62.5393 124.265 63.9258Z" fill="#DABC67"/>
<path d="M133.132 60.9795L136.435 65.601V60.9795H137.652V67.6229H136.376L133.074 62.9437H133.016V67.6229H131.856V60.9795H133.132Z" fill="#DABC67"/>
<path d="M145.881 62.8858V63.0592H144.548V62.8858C144.548 62.3081 144.142 61.846 143.041 61.846C142.229 61.846 141.708 62.1926 141.708 62.7125C141.708 63.2901 142.114 63.4058 143.389 63.7524C145.301 64.1567 145.939 64.6188 145.939 65.7743C145.939 67.0452 144.779 67.7962 143.157 67.7962C141.186 67.7962 140.317 66.9296 140.317 65.6588V65.4276H141.65V65.5432C141.65 66.2364 142.172 66.6986 143.215 66.6986C144.084 66.6986 144.606 66.352 144.606 65.832C144.606 65.2543 144.258 65.0811 142.867 64.7345C141.07 64.33 140.375 63.8679 140.375 62.7703C140.375 61.6149 141.419 60.8062 143.041 60.8062C145.012 60.8062 145.881 61.7305 145.881 62.8858Z" fill="#DABC67"/>
</g>
</svg>
