<svg width="190" height="93" viewBox="0 0 190 93" fill="none" xmlns="http://www.w3.org/2000/svg">
<rect x="0.73291" y="0.526367" width="188.733" height="91.7633" fill="white"/>
<path d="M70.3037 85.6516C70.564 85.5865 70.6942 85.4563 70.8243 85.3262C70.9545 85.196 71.0196 85.0008 71.0196 84.8055C71.0196 84.5452 70.8894 84.2849 70.6291 84.1547C70.3688 83.9595 70.0434 83.8944 69.6529 83.8944H68.0909V87.6691H69.783C70.2386 87.6691 70.564 87.604 70.8243 87.4087C71.0846 87.2135 71.2148 86.9532 71.2148 86.6278C71.2148 86.3675 71.1497 86.1722 70.9545 86.0421C70.8243 85.8468 70.6291 85.7167 70.3037 85.6516ZM68.5465 84.0896H69.6529C69.9783 84.0896 70.1735 84.1547 70.3688 84.2849C70.564 84.415 70.6291 84.6103 70.6291 84.8055C70.6291 85.0658 70.564 85.196 70.3688 85.3262C70.1735 85.4563 69.9783 85.5214 69.6529 85.5214H68.5465V84.0896ZM70.564 87.2135C70.3688 87.3437 70.1084 87.4738 69.783 87.4738H68.5465V85.7817H69.783C70.1084 85.7817 70.3688 85.8468 70.564 86.0421C70.7592 86.1722 70.8243 86.4325 70.8243 86.6278C70.8243 86.8881 70.7592 87.0833 70.564 87.2135ZM77.007 83.8944H77.2673L75.7053 86.1722V87.6691H75.3149V86.2373L73.6879 83.8944H74.1434L75.5752 85.9119L77.007 83.8944ZM84.2959 87.4738H86.6388V87.6691H83.9055V83.8944H84.2959V87.4738ZM90.9342 83.8944L89.177 87.6691H89.4373L89.9579 86.5627H91.9754L92.4961 87.6691H92.9516L91.1945 83.8944H90.9342ZM90.023 86.3675L90.9342 84.35L91.8453 86.3675H90.023ZM94.904 83.8944H98.3533V84.0896H96.8565V87.6691H96.466V84.0896H94.9691V83.8944H94.904ZM101.217 83.8944H101.607V87.6691H101.217V83.8944ZM107.985 83.8944H108.18V87.6691H107.985L105.122 84.415V87.6691H104.926V83.8944H105.122L107.985 87.1484V83.8944ZM111.369 83.8944H114.168V84.0896H111.76V85.6516H113.842V85.8468H111.76V87.4738H114.168V87.6691H111.369V83.8944ZM120.936 83.8944H121.457V87.6691H121.066V84.2198L119.374 87.6691H119.114L117.422 84.2198V87.6691H117.227V83.8944H117.747L119.374 87.2135L120.936 83.8944ZM91.4548 48.2304H82.8642H82.7991V71.3339C82.7991 71.399 82.7991 71.5291 82.7991 71.5942V73.6117H78.8943V71.4641C78.8943 71.399 78.8943 71.399 78.8943 71.3339V48.2304H70.2386V47.5145H91.3897V48.2304H91.4548ZM93.6675 73.807L93.9278 73.6768H94.7088L95.4898 71.9196C95.4898 71.7895 95.5549 71.7244 95.6199 71.5942L96.7914 68.8608H110.133L111.174 71.4641C111.239 71.5942 111.239 71.6593 111.304 71.7895L112.15 73.7419H116.315L105.057 47.8399L93.6675 73.807ZM108.246 64.3703L109.873 68.4053H96.9215L98.6136 64.3703L98.939 63.6544L103.495 53.1765L108.05 63.6544L108.246 64.3703ZM139.484 47.5796L130.243 64.6957V71.5942V73.872H126.338V64.3703V64.3052L117.942 49.8574C117.942 49.8574 117.942 49.7923 117.877 49.7923L116.576 47.5796H120.611L121.847 49.7923L129.722 62.9385L137.987 47.5796H139.484ZM67.0497 64.8909C67.1798 65.737 67.1798 66.583 67.0497 67.4291C66.8544 68.6656 66.3338 69.8371 65.4877 70.8133C64.9671 71.4641 64.3163 72.0498 63.6004 72.5053C63.0147 72.8307 62.3639 73.2212 61.648 73.4165C60.9321 73.6768 60.2162 73.872 59.5003 73.9371C58.7194 74.0673 57.8733 74.0673 57.0924 74.0022C56.1162 73.9371 55.205 73.807 54.2939 73.4816C53.5129 73.2212 52.732 72.8958 52.0812 72.4403C51.4955 72.0498 50.9748 71.5942 50.5192 71.0736L50.1938 69.5767C50.3891 69.8371 50.9097 70.4878 51.105 70.7482C51.3002 71.0085 51.5605 71.2688 51.8209 71.4641C52.4066 71.9196 52.9272 72.3101 53.578 72.5704C54.2288 72.8307 54.8146 73.0911 55.5304 73.1562C56.2463 73.2212 56.8971 73.3514 57.5479 73.4165C57.8733 73.4165 58.2638 73.4165 58.5892 73.3514C59.4353 73.2212 60.2162 73.026 60.9972 72.6355C61.7782 72.245 62.429 71.7895 63.0147 71.1387C63.4702 70.618 63.7956 70.0323 63.9909 69.3815C64.1861 68.7958 64.3163 68.21 64.3163 67.6243C64.3163 66.8434 64.121 66.1926 63.7306 65.4767C63.275 64.6957 62.6242 64.0449 61.9083 63.5243C61.3877 63.1338 60.867 62.8084 60.3464 62.483C59.5654 61.9623 58.7194 61.5068 57.9384 61.0512C57.0924 60.5306 56.2463 60.075 55.4654 59.6194C55.0098 59.3591 54.6193 59.0988 54.1638 58.7734C53.578 58.3178 52.9272 57.7972 52.4066 57.2765C51.8859 56.7559 51.4955 56.1702 51.2351 55.4543C50.9097 54.7384 50.7796 53.9574 50.8447 53.1765C50.8447 52.5257 51.0399 51.94 51.2351 51.3542C51.5605 50.5082 52.0812 49.7272 52.7971 49.1415C52.9923 48.9463 53.1875 48.8161 53.4479 48.6209C54.1637 48.1002 55.0098 47.8399 55.8558 47.5796C56.3114 47.4494 56.832 47.3843 57.2876 47.3193C57.9384 47.2542 58.5241 47.3193 59.1749 47.3193C59.5654 47.3193 60.2813 47.4494 60.7369 47.5145C61.3226 47.6446 62.5591 47.9701 63.0147 48.1653L63.3401 48.751C63.275 48.751 63.2099 48.6859 63.1448 48.6209C61.7131 47.9701 60.0861 47.7097 59.24 47.6447C58.7844 47.5796 58.394 47.5796 57.9384 47.6447C57.3527 47.7097 56.767 47.8399 56.1812 48.0351C55.6606 48.2304 55.205 48.4907 54.8146 48.8161C54.1638 49.3367 53.6431 49.9875 53.3828 50.7685C53.3828 50.8336 53.3177 50.9637 53.3177 51.0288C53.1875 51.94 53.2526 52.8511 53.8384 53.6971C54.0336 54.0225 54.2939 54.3479 54.5542 54.5432C55.14 55.1289 55.8558 55.6495 56.5717 55.9749C57.3527 56.3654 58.1337 56.7559 58.8495 57.1464C59.6305 57.5369 60.4115 57.8623 61.1273 58.2527C61.9083 58.7083 62.7544 59.0988 63.4702 59.6194C64.056 60.0099 64.6417 60.4655 65.1623 60.9861C65.683 61.5068 66.1385 62.0925 66.4639 62.8084C66.6592 63.4592 66.9195 64.1751 67.0497 64.8909ZM94.5786 29.292C94.5786 25.4523 88.8516 21.8078 83.0594 26.4935C83.0594 26.4935 77.5927 24.8015 75.445 20.6363C79.3498 18.0331 84.9468 19.2045 84.9468 19.2045C85.988 22.9141 89.6976 24.0205 90.3484 24.1507C92.1707 24.6062 94.058 26.1031 94.4485 27.665C93.277 22.003 88.4611 19.0744 84.8817 19.2045C84.8817 19.2045 81.6277 14.5188 82.4737 9.89805C87.1595 10.2885 90.8691 14.6489 90.8691 14.6489C89.8278 19.2696 92.6262 22.9141 93.0818 23.5649C93.6675 24.4761 94.1882 25.5824 94.5136 26.7539C94.5136 26.7539 95.0993 18.0331 90.8691 14.5838C90.8691 14.5838 91.1945 8.85677 94.6437 5.73291C98.1581 8.85677 98.4184 14.6489 98.4184 14.6489C94.1882 18.0331 94.7739 26.7539 94.7739 26.7539C95.1644 25.5173 95.685 24.4761 96.2057 23.5649C96.6612 22.849 99.3946 19.2696 98.4184 14.6489C98.4184 14.6489 102.128 10.2235 106.749 9.89805C107.66 14.5188 104.341 19.2045 104.341 19.2045C100.826 19.0744 96.0104 22.003 94.7739 27.665C95.2295 26.1031 97.0517 24.6062 98.874 24.1507C99.5248 23.9554 103.234 22.9141 104.276 19.2045C104.276 19.2045 109.938 18.0331 113.842 20.6363C111.695 24.8015 106.228 26.4935 106.228 26.4935C100.436 21.8078 94.7088 25.4523 94.7088 29.292V36.4508H94.6437H94.4485H94.3834L94.5786 29.292Z" fill="#05112B"/>
</svg>
