<svg width="190" height="93" viewBox="0 0 190 93" fill="none" xmlns="http://www.w3.org/2000/svg">
<rect x="0.931641" y="0.526367" width="188.733" height="91.7633" fill="white"/>
<path d="M80.8458 59.9993C81.1483 59.9993 81.6049 59.9993 82.2156 59.9993C82.8263 59.9993 83.283 59.9993 83.6026 59.9993C83.7054 59.9993 83.7796 60.0279 83.831 60.0906C83.8652 60.1306 83.848 60.1534 83.7681 60.1592C83.7681 60.1592 83.7567 60.1649 83.751 60.1649C83.4314 60.1649 82.969 60.1592 82.3583 60.1534C81.7476 60.1534 81.2967 60.1534 80.9942 60.1534C80.8971 60.1534 80.823 60.1249 80.7716 60.0678C80.7487 60.0222 80.7716 59.9993 80.8515 59.9937M82.4554 60.3132C82.4554 61.2493 82.4554 62.4252 82.4554 63.8407C82.4554 63.8749 82.4154 63.9149 82.3298 63.9548C82.2442 63.9947 82.1642 64.0119 82.0958 64.0119C82.0216 64.0119 81.9816 63.989 81.9702 63.9377C81.9702 62.3224 81.9702 61.158 81.9702 60.4445C81.9702 60.376 82.0387 60.3189 82.17 60.2619C82.3241 60.1991 82.4154 60.2048 82.4554 60.2733C82.4554 60.2847 82.4611 60.2962 82.4611 60.3075" fill="#30323E"/>
<path d="M84.807 60.1703C84.8013 60.6212 84.7956 61.1749 84.8013 61.8427C85.3607 61.8427 86.1826 61.8427 87.2671 61.837C87.2671 61.1178 87.2671 60.6212 87.2671 60.3529C87.2671 60.2616 87.3355 60.1817 87.4725 60.1132C87.6095 60.0447 87.7009 60.0447 87.7465 60.1132C87.758 60.1303 87.7637 60.1532 87.7637 60.1817C87.7522 60.9979 87.7522 62.168 87.7637 63.6863C87.7637 63.7776 87.6951 63.8632 87.5581 63.9317C87.4211 64.0002 87.3298 64.0002 87.2899 63.9317C87.2785 63.9146 87.2728 63.8974 87.2728 63.8746C87.2728 63.1383 87.2671 62.5162 87.2671 61.9968C86.0799 62.0025 85.2865 62.0082 84.8755 62.0025C84.847 62.0025 84.8241 61.9968 84.8013 61.9797C84.8013 62.4876 84.8013 63.0584 84.807 63.6805C84.807 63.7719 84.7385 63.8518 84.6015 63.9203C84.4645 63.9945 84.3732 63.9945 84.3275 63.926C84.3218 63.9089 84.3162 63.8917 84.3162 63.8632C84.3105 61.9854 84.3048 60.8153 84.3105 60.3472C84.3105 60.2559 84.3789 60.176 84.5159 60.1075C84.6529 60.039 84.7443 60.039 84.7899 60.1075C84.8013 60.1246 84.807 60.1475 84.807 60.176" fill="#30323E"/>
<path d="M88.7507 61.9002C89.2359 61.9002 89.978 61.9002 90.9768 61.8945C91.011 61.8945 91.0396 61.9173 91.0739 61.9744C91.1081 62.0257 91.0909 62.0543 91.0225 62.0543C89.9037 62.0601 89.1674 62.0657 88.8078 62.06C88.7736 62.06 88.745 62.0486 88.7165 62.02C88.7165 62.5395 88.7165 63.116 88.7222 63.7495C88.7222 63.818 88.688 63.8808 88.6195 63.9378H91.0339C91.1252 63.9378 91.1994 63.9664 91.2451 64.0292C91.2793 64.0691 91.2565 64.092 91.1822 64.0977H91.1652C90.8969 64.0977 90.4916 64.0977 89.9608 64.0977C89.4243 64.0977 89.0305 64.0977 88.7679 64.0977C88.6766 64.0977 88.6024 64.0691 88.5567 64.0064C88.5567 64.0064 88.551 64.0007 88.5453 63.995C88.5396 63.995 88.5281 64.0007 88.5224 64.0064C88.3855 64.0748 88.2942 64.0748 88.2485 64.0064C88.2428 63.9892 88.2371 63.9721 88.2371 63.9493C88.2314 62.0372 88.2256 60.8385 88.2314 60.3591C88.2314 60.2678 88.2999 60.1879 88.4368 60.1193C88.4882 60.0908 88.5339 60.0737 88.5738 60.0737H88.5681C88.5339 60.028 88.5567 60.0052 88.6309 59.9995H88.6481C88.9106 59.9995 89.3044 59.9995 89.8353 59.9995C90.3661 59.9995 90.7599 59.9995 91.011 59.9995C91.1024 59.9995 91.1709 60.028 91.2166 60.0908C91.2508 60.1308 91.2336 60.1537 91.1595 60.1593H88.7793C88.7793 60.1593 88.7394 60.1593 88.7222 60.1536V60.1822C88.7165 60.6445 88.7108 61.2266 88.7165 61.9116H88.745L88.7507 61.9002Z" fill="#30323E"/>
<path d="M82.0963 81.4546C81.7195 80.9009 81.3314 80.5471 80.9204 80.4043C80.6579 80.3187 80.3839 80.2902 80.1043 80.3073C79.8246 80.3244 79.5563 80.393 79.3052 80.5071C78.8485 80.7183 78.4775 81.0722 78.1864 81.5802C77.9182 82.0482 77.7812 82.522 77.7812 83.0071C77.7812 83.6064 77.8725 84.1487 78.0609 84.6396C78.2435 85.1304 78.5175 85.5243 78.8657 85.8325C79.0769 86.0151 79.3222 86.1464 79.6134 86.2206C79.9044 86.2948 80.1842 86.3119 80.4582 86.272C80.7207 86.232 80.9718 86.1293 81.2059 85.9751C81.4398 85.821 81.6339 85.6269 81.7937 85.393C82.005 85.0848 82.2503 84.8622 82.5358 84.7309C82.7469 84.6396 82.8554 84.6566 82.8668 84.7822C82.8668 84.8507 82.8383 84.9363 82.7869 85.0391C82.6384 85.3359 82.4444 85.5984 82.2104 85.821C81.9763 86.0437 81.7195 86.2091 81.4512 86.3176C80.8862 86.5459 80.2698 86.5859 79.6134 86.4432C79.0026 86.3119 78.4718 86.0265 78.0095 85.5927C77.4901 85.1018 77.1932 84.5767 77.1248 84.006C77.0392 83.3154 77.1076 82.6589 77.3189 82.0367C77.5301 81.4146 77.8553 80.9295 78.3005 80.5756C78.7572 80.2046 79.3736 80.0334 80.1613 80.0562C80.8976 80.0791 81.4969 80.2788 81.9706 80.6498C82.2503 80.8724 82.3873 81.1235 82.3816 81.4033C82.3759 81.5573 82.3302 81.6372 82.2503 81.6372C82.199 81.6372 82.1419 81.5745 82.0906 81.4603" fill="#30323E"/>
<path d="M87.5408 80.6043C86.6504 80.2903 85.9654 80.2504 85.486 80.4902C85.1892 80.6385 84.9267 80.8555 84.7041 81.1351C84.4815 81.4148 84.3045 81.7345 84.1733 82.0826C83.9278 82.739 83.8764 83.4183 84.0191 84.126C84.1675 84.8566 84.51 85.4388 85.0408 85.8725C85.2806 86.0609 85.5831 86.1808 85.9597 86.2264C86.3308 86.2721 86.7131 86.2379 87.1014 86.1237C87.381 86.0381 87.6435 85.8897 87.8833 85.6728C88.123 85.4559 88.3285 85.199 88.4883 84.9022C88.7223 84.4799 88.8422 83.9319 88.8479 83.2641C88.8479 82.5336 88.7052 81.9285 88.4255 81.4433C88.2599 81.158 88.1915 80.9297 88.2257 80.7642C88.2486 80.6557 88.3113 80.6499 88.4141 80.747C89.0648 81.3691 89.4472 82.1682 89.5671 83.1385C89.607 83.4867 89.5899 83.8292 89.5157 84.1774C89.4415 84.5256 89.3273 84.8281 89.1732 85.0849C88.9734 85.3988 88.7338 85.6671 88.4369 85.884C88.1458 86.1009 87.8376 86.255 87.5122 86.352C86.7874 86.5518 86.091 86.5632 85.4232 86.3806C85.115 86.2892 84.7897 86.1123 84.4529 85.844C84.1161 85.5758 83.8422 85.2618 83.631 84.9137C83.4369 84.5826 83.3113 84.223 83.2429 83.8235C83.1801 83.424 83.1801 83.0358 83.2429 82.6648C83.3171 82.2538 83.4541 81.8657 83.6595 81.5061C83.865 81.1465 84.1219 80.8498 84.4244 80.6157C84.7326 80.3817 85.0865 80.2219 85.486 80.1306C85.8855 80.0392 86.2737 80.0335 86.6618 80.1021C87.1641 80.199 87.5351 80.3589 87.7748 80.5929C87.8718 80.6842 87.889 80.7298 87.8262 80.7355C87.7748 80.7413 87.6721 80.7013 87.5237 80.61" fill="#30323E"/>
<path d="M95.504 80.4791V85.6732C95.504 85.8272 95.4012 85.9585 95.19 86.067C95.0017 86.1754 94.8704 86.1811 94.7962 86.0842V86.0727C94.7391 86.2097 94.6592 86.2439 94.5736 86.1698C94.5622 86.1583 94.5451 86.1412 94.5279 86.1184C93.3236 84.3318 92.1763 82.6709 91.0862 81.1298V85.7245C91.0862 85.8786 90.9834 86.0156 90.7837 86.1298C90.5839 86.2325 90.4526 86.2325 90.3899 86.1412C90.3727 86.1127 90.3613 86.0784 90.3613 86.0328V80.8102C90.3613 80.6732 90.464 80.5533 90.6638 80.4448C90.8636 80.3421 91.0006 80.3364 91.069 80.4448C91.0747 80.4563 91.0805 80.4677 91.0805 80.4791C91.1204 80.4506 91.1718 80.4563 91.2232 80.5077C91.2346 80.519 91.2517 80.5362 91.2688 80.5533C92.4104 82.1515 93.5748 83.8352 94.7734 85.599C94.7791 84.7199 94.7791 83.1104 94.7734 80.7588C94.7734 80.6161 94.8761 80.4962 95.0759 80.3935C95.2757 80.2907 95.4126 80.2907 95.4812 80.382C95.4983 80.4106 95.5097 80.4448 95.5097 80.4791" fill="#30323E"/>
<path d="M100.938 81.4546C100.561 80.9009 100.167 80.5471 99.7617 80.4043C99.4992 80.3187 99.2252 80.2902 98.9456 80.3073C98.6659 80.3244 98.3976 80.393 98.1465 80.5071C97.6898 80.7183 97.3188 81.0722 97.0277 81.5802C96.7595 82.0482 96.6225 82.522 96.6225 83.0071C96.6225 83.6064 96.7138 84.1487 96.9022 84.6396C97.0848 85.1304 97.3588 85.5243 97.707 85.8325C97.9124 86.0151 98.1635 86.1464 98.4547 86.2206C98.7457 86.2948 99.0255 86.3119 99.2994 86.272C99.562 86.232 99.8131 86.1293 100.047 85.9751C100.281 85.821 100.481 85.6269 100.635 85.393C100.846 85.0848 101.092 84.8622 101.377 84.7309C101.588 84.6396 101.697 84.6566 101.708 84.7822C101.708 84.8507 101.68 84.9363 101.628 85.0391C101.48 85.3359 101.286 85.5984 101.052 85.821C100.818 86.0437 100.561 86.2091 100.293 86.3176C99.7218 86.5459 99.1111 86.5859 98.4547 86.4432C97.844 86.3119 97.3132 86.0265 96.8508 85.5927C96.3314 85.1018 96.0346 84.5767 95.9661 84.006C95.8805 83.3154 95.9489 82.6589 96.1602 82.0367C96.3713 81.4146 96.6967 80.9295 97.1419 80.5756C97.5985 80.2046 98.2149 80.0334 99.0026 80.0562C99.7389 80.0791 100.338 80.2788 100.812 80.6498C101.092 80.8724 101.229 81.1235 101.223 81.4033C101.217 81.5573 101.172 81.6372 101.092 81.6372C101.035 81.6372 100.983 81.5745 100.932 81.4603" fill="#30323E"/>
<path d="M103.174 83.133C103.899 83.133 104.995 83.133 106.474 83.1216C106.519 83.1216 106.571 83.1615 106.616 83.2358C106.662 83.3157 106.639 83.3499 106.542 83.3499C104.887 83.3613 103.797 83.367 103.266 83.3613C103.22 83.3613 103.174 83.3385 103.129 83.2985C103.129 84.0691 103.129 84.9309 103.14 85.8785C103.14 85.9812 103.089 86.0725 102.986 86.1581H106.559C106.696 86.1581 106.799 86.2038 106.873 86.2894C106.919 86.3522 106.89 86.3807 106.782 86.3864H106.753C106.354 86.3864 105.76 86.3864 104.967 86.3864C104.173 86.3864 103.585 86.3864 103.197 86.3864C103.06 86.3864 102.958 86.3407 102.883 86.2551C102.878 86.2494 102.872 86.2438 102.866 86.2381C102.855 86.2438 102.843 86.2494 102.832 86.2551C102.627 86.3579 102.495 86.3579 102.427 86.2551C102.415 86.2323 102.41 86.2037 102.41 86.1638C102.398 83.3157 102.393 81.5291 102.398 80.8156C102.398 80.6786 102.501 80.5588 102.701 80.456C102.781 80.4161 102.849 80.3933 102.906 80.3819L102.895 80.3704C102.849 80.3134 102.878 80.2791 102.986 80.2734H103.015C103.403 80.2734 103.991 80.2734 104.773 80.2734C105.56 80.2734 106.137 80.2734 106.514 80.2734C106.651 80.2734 106.753 80.319 106.816 80.4104C106.867 80.4675 106.845 80.5017 106.736 80.5074H103.209C103.18 80.5074 103.152 80.5074 103.129 80.496V80.5416C103.117 81.2323 103.112 82.0942 103.117 83.1216H103.163L103.174 83.133Z" fill="#30323E"/>
<path d="M108.517 83.3892C108.637 83.3949 108.814 83.4005 109.048 83.412C109.282 83.4234 109.464 83.4291 109.596 83.4349C109.727 83.4405 109.881 83.4405 110.064 83.4349C110.241 83.4291 110.406 83.412 110.549 83.3892C110.92 83.3321 111.222 83.1951 111.451 82.9782C111.685 82.7613 111.839 82.4988 111.907 82.1905C111.987 81.8309 111.964 81.4999 111.856 81.1974C111.799 81.0433 111.696 80.9006 111.554 80.7807C111.411 80.6608 111.251 80.5752 111.063 80.5353C110.766 80.4611 110.406 80.4269 109.984 80.4212C109.562 80.4154 109.173 80.4269 108.825 80.4554C108.517 80.4725 108.294 80.4382 108.163 80.3469C108.083 80.2956 108.117 80.2613 108.26 80.2499C108.277 80.2499 108.3 80.2385 108.323 80.2385C108.42 80.2328 108.58 80.2213 108.808 80.2099C109.036 80.1928 109.213 80.1871 109.345 80.1757C109.476 80.1699 109.636 80.1699 109.83 80.1757C110.018 80.1757 110.195 80.1871 110.349 80.1985C111.576 80.3184 112.307 80.678 112.547 81.283C112.667 81.6198 112.684 81.9393 112.604 82.2476C112.524 82.5558 112.375 82.8241 112.159 83.0581C111.942 83.2921 111.702 83.4519 111.439 83.5318C111.154 83.6174 110.789 83.6631 110.349 83.6688C109.91 83.6802 109.493 83.6688 109.099 83.646C108.705 83.6346 108.437 83.5832 108.3 83.4919V85.6894C108.306 85.8606 108.203 86.009 107.998 86.1289C107.809 86.2373 107.678 86.243 107.615 86.146C107.598 86.1175 107.587 86.0775 107.587 86.0376C107.575 84.6791 107.57 82.9553 107.581 80.8492C107.581 80.7122 107.684 80.5924 107.883 80.4896C108.083 80.3869 108.22 80.3868 108.289 80.4782C108.3 80.501 108.306 80.5295 108.306 80.5695V83.4005C108.306 83.4005 108.346 83.4005 108.369 83.3892H108.511H108.517Z" fill="#30323E"/>
<path d="M113.209 80.3018C113.66 80.3018 114.334 80.3018 115.235 80.3018C116.137 80.3018 116.822 80.3018 117.285 80.3018C117.433 80.3018 117.547 80.3474 117.627 80.4387C117.678 80.4958 117.65 80.53 117.536 80.5357C117.53 80.5415 117.519 80.5472 117.507 80.5472C117.033 80.5415 116.348 80.5357 115.447 80.5357C114.545 80.5357 113.871 80.5357 113.42 80.5357C113.278 80.5357 113.169 80.4958 113.089 80.4102C113.055 80.3474 113.089 80.3074 113.204 80.3018M115.601 80.7641C115.595 82.1568 115.595 83.9091 115.601 86.0209C115.601 86.0723 115.538 86.1294 115.412 86.1865C115.287 86.2435 115.173 86.2721 115.064 86.2778C114.956 86.2778 114.893 86.2435 114.876 86.1636C114.87 83.755 114.87 82.0198 114.876 80.9582C114.876 80.8554 114.973 80.7641 115.173 80.6899C115.401 80.5986 115.538 80.6043 115.595 80.707C115.601 80.7241 115.607 80.7413 115.607 80.7583" fill="#30323E"/>
<path d="M74.1168 69.3427V75.587C73.7686 75.8039 73.3804 75.9866 72.9409 76.1407C72.57 76.2833 72.1248 76.4089 71.5996 76.5231C71.0802 76.6372 70.498 76.6943 69.8588 76.6943C68.7286 76.6943 67.7412 76.5288 66.8964 76.2034C66.0517 75.8781 65.3439 75.4215 64.7902 74.8279C64.2309 74.2343 63.8085 73.5151 63.5288 72.6646C63.2491 71.8142 63.1064 70.861 63.1064 69.8051C63.1064 68.7491 63.2491 67.7674 63.5288 66.9112C63.8142 66.055 64.2366 65.3302 64.8074 64.7365C65.3781 64.143 66.0859 63.6863 66.9249 63.3667C67.764 63.047 68.7457 62.8872 69.8588 62.8872C70.3953 62.8872 70.8747 62.9272 71.2857 63.0014C71.6966 63.0756 72.0505 63.1612 72.3474 63.2526C72.6784 63.3552 72.9695 63.4695 73.2149 63.595L73.0208 64.5139C72.8039 64.4226 72.5414 64.3484 72.2332 64.2856C71.9763 64.2229 71.6509 64.1658 71.2514 64.1201C70.8519 64.0744 70.3896 64.0517 69.8645 64.0517C69.1453 64.0517 68.4889 64.1829 67.8895 64.4455C67.2903 64.708 66.7822 65.0847 66.3599 65.587C65.9375 66.0836 65.6065 66.6886 65.3781 67.3964C65.1441 68.1041 65.03 68.9032 65.03 69.7994C65.03 70.6955 65.1441 71.4946 65.3781 72.2023C65.6065 72.9101 65.9375 73.5094 66.3599 74.0003C66.7822 74.4912 67.296 74.8678 67.8895 75.1304C68.4889 75.3929 69.1453 75.5242 69.8645 75.5242C70.3781 75.5242 70.8519 75.49 71.28 75.4272C71.7081 75.3644 72.0904 75.2902 72.4273 75.1989L72.5985 70.2389H69.8245V69.5311L74.1168 69.337V69.3427Z" fill="#30323E"/>
<path d="M82.8379 76.4886C82.5696 76.2203 82.3927 75.8037 82.3185 75.2443C81.7934 76.2146 80.8916 76.6998 79.6245 76.6998C78.8139 76.6998 78.1519 76.6027 77.6325 76.4144C77.113 76.2261 76.6964 75.9692 76.3882 75.6496C76.08 75.3299 75.8631 74.9703 75.7431 74.5708C75.6233 74.1712 75.5605 73.7546 75.5605 73.3379C75.5605 72.3676 75.8973 71.6484 76.5594 71.1861C77.2272 70.718 78.2774 70.4898 79.7158 70.4898C79.9441 70.4898 80.1952 70.4954 80.4578 70.5068C80.7203 70.5183 80.9772 70.5297 81.2169 70.5468C81.4623 70.5582 81.6792 70.5697 81.879 70.5867C82.0788 70.5982 82.2329 70.6039 82.3528 70.6039V70.4898C82.3528 70.0959 82.2956 69.7078 82.1873 69.3311C82.0788 68.9543 81.9133 68.629 81.6849 68.3436C81.4623 68.0639 81.1827 67.8356 80.8573 67.6644C80.532 67.4931 80.1496 67.4075 79.7101 67.4075C79.322 67.4075 78.9909 67.4247 78.6998 67.4532C78.4087 67.4874 78.169 67.5217 77.9806 67.556C77.7523 67.6074 77.5639 67.653 77.4212 67.6872L77.2272 67.0765C77.4212 66.9852 77.6382 66.9053 77.8836 66.8253C78.1005 66.7626 78.363 66.6998 78.6655 66.6427C78.9681 66.5857 79.3163 66.5571 79.7158 66.5571C80.4977 66.5571 81.1656 66.6541 81.7192 66.8425C82.2729 67.0309 82.7181 67.3048 83.0662 67.6473C83.4144 67.9897 83.6655 68.4064 83.8197 68.8916C83.9737 69.3768 84.048 69.9076 84.048 70.4783C84.048 71.1804 84.0251 71.8539 83.9794 72.4989C83.9338 73.1439 83.911 73.726 83.9053 74.2512C83.8996 74.7763 83.9224 75.2329 83.9737 75.621C84.0251 76.0092 84.145 76.3002 84.339 76.4943H82.8379V76.4886ZM79.6245 75.855C79.9726 75.855 80.3036 75.8036 80.6233 75.701C80.943 75.5982 81.2283 75.4555 81.4681 75.2728C81.7135 75.0902 81.9018 74.8619 82.0445 74.6051C82.1873 74.3425 82.2557 74.0514 82.2557 73.7317C82.2671 73.3721 82.2786 72.9955 82.2956 72.6016C82.3071 72.2078 82.3185 71.7854 82.3356 71.3402H79.7158C79.4076 71.3402 79.1107 71.3744 78.8311 71.4372C78.5514 71.5 78.3003 71.6084 78.0777 71.7626C77.8608 71.9167 77.6838 72.1222 77.5582 72.3733C77.4326 72.6301 77.3642 72.9498 77.3642 73.3322C77.3642 73.6747 77.3984 74 77.4726 74.3082C77.5411 74.6164 77.6667 74.8847 77.8379 75.113C78.0091 75.3414 78.2432 75.524 78.5342 75.661C78.8254 75.7923 79.185 75.8607 79.6245 75.8607" fill="#30323E"/>
<path d="M91.1368 66.5517C91.2624 66.5517 91.3994 66.5687 91.542 66.6087C91.6847 66.6487 91.8046 66.6944 91.9073 66.74C92.0329 66.7913 92.1584 66.8484 92.2726 66.9113V67.9615C92.1699 67.9386 92.0557 67.9044 91.9245 67.8644C91.8217 67.8416 91.7019 67.8187 91.5591 67.796C91.4164 67.7788 91.2794 67.7674 91.1368 67.7674C90.6116 67.7674 90.1721 67.8473 89.8182 68.0071C89.4644 68.1669 89.179 68.3724 88.9621 68.6178C88.7453 68.869 88.5911 69.1487 88.4998 69.4626C88.4084 69.7765 88.3628 70.079 88.3628 70.3701V73.6807C88.3628 74.5254 88.3685 75.4558 88.3799 76.4774H86.7076V72.7446C86.7076 72.0425 86.6961 71.3633 86.679 70.7069C86.6619 70.0505 86.622 69.4512 86.5706 68.909C86.5192 68.3667 86.4507 67.9101 86.3594 67.5334C86.2681 67.1566 86.1539 66.8998 86.0112 66.7571H87.5123C87.832 67.0768 88.066 67.6817 88.203 68.5779C88.4598 67.8245 88.8479 67.2994 89.3674 66.9969C89.8868 66.6944 90.4747 66.5459 91.1311 66.5459" fill="#30323E"/>
<path d="M92.9638 71.7007C92.9638 70.6677 93.0722 69.8172 93.2834 69.1436C93.4946 68.4758 93.8028 67.945 94.1966 67.5626C94.5962 67.1802 95.0813 66.9177 95.6521 66.7692C96.2229 66.6208 96.8679 66.5466 97.587 66.5466C98.3462 66.5466 98.9341 66.6665 99.3564 66.912C99.7788 67.1573 100.098 67.4713 100.321 67.8708V62.0889H102.016V70.4735C102.016 71.1756 102.028 71.8606 102.045 72.5227C102.062 73.1848 102.096 73.7898 102.142 74.332C102.188 74.8743 102.256 75.3366 102.342 75.7133C102.433 76.09 102.547 76.3469 102.69 76.4895H101.206C100.886 76.1699 100.652 75.5649 100.509 74.6688C100.253 75.4108 99.8644 75.9302 99.3451 76.2384C98.8256 76.5466 98.2378 76.6951 97.5813 76.6951C96.708 76.6951 95.9775 76.598 95.3838 76.3982C94.7959 76.1985 94.3165 75.896 93.9569 75.4907C93.5973 75.0797 93.3404 74.5661 93.1864 73.9382C93.0322 73.3103 92.958 72.5683 92.958 71.6951M94.7788 71.7007C94.7788 72.3914 94.8188 72.9907 94.893 73.5101C94.9672 74.0295 95.1098 74.4576 95.3154 74.8C95.5208 75.1425 95.8063 75.4051 96.1715 75.582C96.5368 75.759 97.0105 75.8503 97.587 75.8503C98.1122 75.8503 98.5517 75.7704 98.9056 75.5991C99.2595 75.4336 99.5391 75.211 99.7503 74.937C99.9615 74.6631 100.116 74.3492 100.213 73.9896C100.31 73.63 100.355 73.2646 100.355 72.8765C100.344 72.6996 100.338 72.4313 100.338 72.0717V70.9986C100.338 70.5763 100.332 70.1311 100.321 69.6574C100.258 68.8126 99.9957 68.2247 99.5391 67.888C99.0825 67.5512 98.4318 67.38 97.587 67.38C97.1362 67.38 96.7366 67.4542 96.3827 67.6083C96.0289 67.7624 95.732 68.0078 95.498 68.3445C95.2583 68.6814 95.0813 69.1266 94.9615 69.6745C94.8416 70.2224 94.7788 70.896 94.7788 71.6836" fill="#30323E"/>
<path d="M106.171 71.3351V71.6205C106.171 72.9333 106.423 73.9664 106.931 74.7199C107.439 75.4733 108.203 75.85 109.231 75.85C109.682 75.85 110.115 75.81 110.538 75.7358C110.96 75.6616 111.331 75.5703 111.657 75.4676C112.028 75.3534 112.381 75.2164 112.718 75.0681L112.912 75.8728C112.667 76.0269 112.376 76.1697 112.028 76.2952C111.731 76.398 111.348 76.4893 110.88 76.5749C110.412 76.6605 109.864 76.7005 109.236 76.7005C108.3 76.7005 107.524 76.5692 106.919 76.3009C106.308 76.0327 105.823 75.6673 105.464 75.2107C105.104 74.7484 104.853 74.2119 104.705 73.5954C104.556 72.979 104.482 72.3226 104.482 71.6319C104.482 70.9413 104.556 70.2907 104.705 69.6685C104.853 69.0521 105.11 68.5098 105.475 68.0532C105.84 67.5909 106.331 67.2313 106.936 66.963C107.547 66.6948 108.312 66.5635 109.236 66.5635C110.07 66.5635 110.772 66.689 111.337 66.9459C111.902 67.2027 112.353 67.5281 112.695 67.9219C113.038 68.3157 113.278 68.7438 113.426 69.2061C113.574 69.6685 113.649 70.0908 113.649 70.4904V71.3523H106.177L106.171 71.3351ZM109.236 67.3911C108.352 67.3911 107.655 67.6765 107.159 68.2416C106.657 68.8123 106.348 69.6 106.234 70.6046C106.451 70.6046 106.834 70.5932 107.381 70.576C107.924 70.5589 108.506 70.5418 109.117 70.5303C109.727 70.5189 110.315 70.5076 110.88 70.4904C111.445 70.4789 111.856 70.4733 112.113 70.4733C112.113 70.0794 112.05 69.6913 111.931 69.3146C111.811 68.9379 111.628 68.6069 111.383 68.3272C111.137 68.0474 110.84 67.8191 110.486 67.6479C110.133 67.4767 109.722 67.3911 109.242 67.3911" fill="#30323E"/>
<path d="M119.539 66.5518C120.258 66.5518 120.891 66.626 121.445 66.7744C121.999 66.9228 122.461 67.1853 122.832 67.5678C123.203 67.9502 123.488 68.4753 123.677 69.1488C123.871 69.8166 123.968 70.6727 123.968 71.7059V76.4947H122.158V71.7059C122.158 70.9125 122.107 70.2447 122.004 69.6967C121.902 69.1488 121.742 68.7036 121.531 68.3668C121.319 68.0301 121.051 67.7847 120.72 67.6305C120.395 67.4765 120.001 67.4022 119.539 67.4022C118.934 67.4022 118.414 67.5791 117.969 67.9273C117.524 68.2812 117.267 68.8748 117.187 69.7196V76.4947H115.492V66.7116H117.187V67.9387C117.392 67.5278 117.678 67.1967 118.055 66.9456C118.426 66.6887 118.922 66.5632 119.539 66.5632" fill="#30323E"/>
<path d="M133.261 28.3215C132.456 29.2233 131.571 30.0453 130.641 30.8101C127.216 33.6183 123.386 35.6332 119.094 36.7462C116.976 37.2941 114.819 37.5681 112.627 37.4882C109.248 37.3626 106.12 36.4323 103.3 34.5372C103.129 34.4231 102.987 34.406 102.787 34.4745C101.508 34.9083 100.218 35.3363 98.9969 35.9243C98.1978 36.3066 97.4329 36.7462 96.805 37.3854C96.1943 38.0076 95.8747 38.7496 95.8747 39.6343C95.8861 41.8318 95.8747 44.0293 95.8747 46.2268V46.5407C95.9432 46.5122 95.9832 46.5065 96.0117 46.4893C97.1989 45.656 98.5232 45.1309 99.9101 44.7428C101.811 44.212 103.746 43.9551 105.715 43.9037C107.781 43.8524 109.825 44.035 111.839 44.5087C112.747 44.7256 113.649 44.9768 114.493 45.3707C115.407 45.7987 116.366 46.0041 117.347 46.1411C118.403 46.2896 119.459 46.3181 120.509 46.1354C122.433 45.7987 123.934 44.7884 125.116 43.2644C125.213 43.1389 125.304 43.0133 125.395 42.8878C125.481 42.7678 125.561 42.648 125.703 42.5339C125.698 42.6423 125.698 42.7508 125.681 42.8535C125.595 43.3957 125.372 43.8809 125.081 44.3432C124.562 45.1651 123.877 45.8386 123.135 46.4551C122.895 46.6549 122.638 46.8375 122.387 47.0316C122.336 47.0715 122.29 47.1115 122.187 47.1971C122.587 47.2257 122.924 47.2656 123.261 47.2713C126.537 47.374 129.762 47.0201 132.912 46.1012C134.528 45.6332 136.08 45.0053 137.502 44.0921C137.65 43.9951 137.793 43.898 137.941 43.7952C137.958 43.8181 137.981 43.8352 137.998 43.8581C135.104 46.6549 131.617 48.253 127.678 48.9322C125.88 49.2405 124.071 49.3261 122.256 49.2062C119.431 49.0179 116.719 48.3729 114.122 47.2257C112.559 46.535 110.915 46.1411 109.225 45.9243C109.14 45.9128 109.048 45.9071 108.963 45.9071C108.945 45.9071 108.928 45.9243 108.9 45.9414C108.911 45.9814 108.923 46.0327 108.94 46.0727C109.659 47.7508 110.635 49.2519 111.999 50.4848C113.146 51.5236 114.465 52.2484 115.966 52.6366C116.023 52.648 116.074 52.6709 116.132 52.7336C116.052 52.745 115.972 52.7622 115.898 52.7678C114.533 52.8421 113.272 52.4882 112.085 51.8546C109.653 50.5532 107.941 48.6012 106.936 46.0327C106.834 45.7645 106.834 45.7645 106.594 45.7588C104.436 45.7416 102.307 45.9814 100.23 46.5864C99.2023 46.8831 98.1978 47.2599 97.3016 47.8592C96.9877 48.0704 96.6909 48.3215 96.4169 48.5841C96.0403 48.9551 95.8633 49.4117 95.8633 49.9597C95.8747 54.7598 95.869 59.5544 95.869 64.3547V64.7542H94.0083V64.3318C94.0083 59.5544 94.0026 54.777 94.014 49.9996C94.014 49.3946 93.8028 48.9151 93.3918 48.4985C92.9352 48.0361 92.3987 47.7051 91.8222 47.4197C90.6977 46.8603 89.5105 46.495 88.2891 46.2382C86.6338 45.89 84.9557 45.7359 83.2605 45.7588C83.1921 45.7588 83.1236 45.7702 83.0436 45.7758C82.998 45.8843 82.958 45.9928 82.9181 46.1012C81.7651 48.9208 79.8359 50.9871 77.0276 52.2028C76.0802 52.6138 75.087 52.8135 74.0483 52.7622C73.9512 52.7622 73.8599 52.7508 73.7514 52.7165C77.3758 51.7462 79.5505 49.2462 81.0288 45.9015C80.8462 45.9128 80.7206 45.9185 80.6008 45.9357C78.8713 46.164 77.1989 46.5978 75.5951 47.2998C73.1578 48.3672 70.6007 48.9779 67.9523 49.1834C64.9957 49.4174 62.0962 49.1263 59.2652 48.2302C56.7195 47.4197 54.4249 46.1583 52.4272 44.366C52.2902 44.2405 52.1532 44.1149 52.022 43.9893L52.0962 43.9151C52.3701 44.0807 52.6384 44.2576 52.9181 44.4174C54.3279 45.2337 55.8405 45.7987 57.4044 46.2268C59.482 46.7975 61.5996 47.1172 63.7514 47.2427C64.9273 47.3113 66.103 47.3113 67.2789 47.2314C67.393 47.2257 67.5071 47.2085 67.7012 47.1914C67.5814 47.0944 67.5128 47.0373 67.4386 46.9802C66.6624 46.4209 65.949 45.7987 65.3381 45.0624C64.8473 44.4688 64.4307 43.8295 64.2537 43.0647C64.2252 42.9505 64.2138 42.8364 64.1966 42.7165C64.1909 42.6594 64.1966 42.6023 64.1966 42.4768C64.2994 42.6138 64.3621 42.6937 64.4192 42.7735C65.0699 43.7211 65.8462 44.543 66.8279 45.1594C67.8439 45.7987 68.9626 46.1297 70.1556 46.2268C71.5711 46.341 72.9523 46.1241 74.3222 45.793C74.5391 45.7416 74.7503 45.6445 74.9558 45.5532C76.8165 44.7256 78.7743 44.2576 80.7948 44.035C82.6727 43.8238 84.5505 43.8352 86.4284 44.0464C88.2948 44.2576 90.1213 44.6572 91.8621 45.382C92.5357 45.6617 93.1749 45.9984 93.78 46.4094C93.8427 46.4494 93.9113 46.4836 94.0254 46.5521V46.164C94.0254 44.0236 94.0083 41.8888 94.0311 39.7485C94.0425 38.6754 93.6373 37.8307 92.8496 37.14C92.3359 36.6891 91.7594 36.341 91.1544 36.0384C89.95 35.4334 88.6715 35.0167 87.4101 34.5601C87.0106 34.4174 86.7252 34.4573 86.3655 34.6914C84.3051 36.0498 82.0391 36.8831 79.6019 37.2656C76.9193 37.6822 74.2594 37.5396 71.6281 36.9345C66.3199 35.7188 61.7194 33.1845 57.764 29.4573C57.3416 29.0635 56.9535 28.6355 56.5026 28.1731C56.611 28.213 56.6681 28.2188 56.7138 28.253C57.4558 28.7439 58.2035 29.229 58.9455 29.7256C61.1372 31.1982 63.3861 32.5738 65.7891 33.6754C66.2457 33.8866 66.708 34.075 67.1647 34.269C67.2503 34.309 67.3473 34.3375 67.4558 34.3775C67.4729 34.3146 67.49 34.269 67.49 34.229C67.5071 31.9174 67.2389 29.6515 66.4341 27.4653C66.2001 26.8318 65.909 26.2153 65.5551 25.6388C65.4638 25.4905 65.3667 25.3421 65.2697 25.1993C65.2869 25.1594 65.3039 25.1252 65.3211 25.0852C65.6007 25.382 65.9033 25.6674 66.1601 25.9814C67.216 27.2599 67.861 28.7439 68.272 30.3421C68.5802 31.5292 68.7571 32.745 68.917 33.9608C68.9455 34.1948 68.9912 34.4288 69.0083 34.6629C69.0197 34.8455 69.1053 34.9482 69.2822 34.9882C69.7503 35.1024 70.2069 35.2393 70.6807 35.3363C71.5996 35.5247 72.5242 35.7302 73.4546 35.8558C75.8405 36.1754 78.1863 35.9585 80.5037 35.3135C81.7994 34.9482 83.0436 34.4459 84.2309 33.8067C84.2937 33.7725 84.3508 33.7382 84.4078 33.7039C84.4249 33.6925 84.4306 33.6754 84.4706 33.624C84.3678 33.5841 84.2822 33.5384 84.1852 33.5099C83.0151 33.116 81.9193 32.5796 80.8861 31.9117C80.1327 31.4209 79.4421 30.8672 78.8713 30.1651C78.3405 29.5145 77.9695 28.7895 77.9066 27.9334C77.9066 27.882 77.901 27.8364 77.901 27.785C77.901 27.7678 77.9181 27.7565 77.941 27.7165C77.9752 27.7565 78.0094 27.785 78.0323 27.8192C78.74 28.898 79.6989 29.7142 80.8005 30.3706C81.9592 31.067 83.2035 31.5692 84.4935 31.9631C85.9832 32.4197 87.4843 32.8307 88.9854 33.2701C90.0014 33.5669 91.0117 33.8866 91.982 34.3146C92.6384 34.6058 93.2662 34.9425 93.8427 35.3763C93.8827 35.4049 93.9227 35.4277 93.9911 35.4733C94.0026 35.3763 94.0197 35.3021 94.0197 35.2337C94.0197 32.7621 94.0197 30.2907 94.0197 27.8192C94.0197 27.7222 94.014 27.6195 93.9854 27.5282C93.506 25.7131 92.7012 24.075 91.377 22.7222C90.361 21.6834 89.1452 20.9357 87.8154 20.3706C86.4569 19.7941 85.0299 19.4346 83.603 19.075C82.4786 18.7953 81.3598 18.5042 80.2525 18.1845C79.5848 17.9904 78.9512 17.6937 78.3804 17.2827C77.8781 16.9174 77.4843 16.4722 77.2218 15.8501C77.3131 15.8729 77.3758 15.8786 77.4329 15.9014C79.2879 16.7291 81.2172 17.2998 83.2206 17.6423C83.5288 17.6937 83.837 17.7451 84.1509 17.7793C84.8644 17.8534 85.5608 18.0019 86.2572 18.1903C86.3428 18.213 86.4284 18.2359 86.514 18.253C86.5311 18.253 86.5482 18.2417 86.5939 18.2245C86.5482 18.1217 86.4968 18.0133 86.4512 17.9106C85.9946 16.9631 85.7491 15.9699 85.8347 14.9197C85.8747 14.4174 85.9547 13.9037 86.0859 13.4185C86.5768 11.6149 86.3598 9.90257 85.5095 8.25302C85.4409 8.11604 85.3553 7.98476 85.2811 7.84778C85.3096 7.81923 85.3325 7.7964 85.361 7.76787C86.3542 8.63545 87.0276 9.68567 87.2617 10.9985C87.353 11.5122 87.3473 12.0316 87.2617 12.551C87.0962 13.5498 86.9934 14.5544 87.0562 15.5704C87.1304 16.7461 87.4729 17.8192 88.2777 18.7154C88.4432 18.898 88.6316 19.0407 88.8599 19.1434C90.4352 19.8569 91.885 20.7588 93.1407 21.9574C93.7685 22.5567 94.3222 23.213 94.7845 23.9494C94.8302 24.0236 94.8816 24.0977 94.9443 24.1948C94.9843 24.1491 95.0186 24.1206 95.0413 24.0807C95.9774 22.5282 97.2902 21.3466 98.7914 20.3649C99.5334 19.8798 100.315 19.4688 101.114 19.0978C101.269 19.0236 101.423 18.9208 101.543 18.7953C102.324 17.9847 102.696 16.9916 102.827 15.89C102.947 14.8569 102.878 13.8295 102.69 12.8135C102.347 10.9357 102.935 9.37745 104.237 8.04184C104.351 7.92768 104.471 7.81352 104.585 7.70508C104.602 7.71649 104.625 7.73361 104.642 7.74504C104.573 7.89343 104.505 8.04184 104.431 8.18453C104.031 8.93795 103.757 9.73134 103.637 10.5761C103.506 11.5007 103.563 12.414 103.809 13.3158C103.951 13.8352 104.048 14.366 104.082 14.9083C104.14 15.9014 103.946 16.8375 103.54 17.7393C103.477 17.882 103.409 18.0247 103.346 18.1674C103.34 18.1845 103.34 18.2073 103.335 18.2417C103.375 18.2417 103.409 18.2587 103.443 18.2473C104.425 17.9505 105.435 17.8249 106.445 17.6765C108.472 17.374 110.424 16.8032 112.302 15.9814C112.393 15.9414 112.479 15.9014 112.57 15.8614C112.587 15.8558 112.61 15.8614 112.678 15.8501C112.633 15.9642 112.598 16.0555 112.553 16.1469C112.199 16.7975 111.662 17.2599 111.023 17.6081C110.287 18.0133 109.499 18.2816 108.689 18.487C107.57 18.7781 106.44 19.0407 105.321 19.3204C104.065 19.64 102.827 20.0167 101.651 20.5647C100.076 21.2953 98.7229 22.3056 97.6841 23.7154C96.8336 24.8683 96.2742 26.1583 95.9203 27.5396C95.8918 27.6423 95.8861 27.7508 95.8861 27.8592C95.8861 30.3135 95.8861 32.7621 95.8861 35.2165C95.8861 35.2907 95.8976 35.3649 95.9033 35.4505C95.9489 35.4391 95.9832 35.4448 96.0003 35.4277C96.9592 34.7028 98.038 34.2062 99.1681 33.8409C100.521 33.4071 101.885 33.0133 103.255 32.6195C104.688 32.2085 106.12 31.7918 107.49 31.1983C108.66 30.6902 109.756 30.0738 110.698 29.2062C111.12 28.8181 111.491 28.39 111.817 27.922C111.862 27.8592 111.908 27.7964 111.976 27.7051C112.045 27.8534 112.011 27.9734 111.993 28.0932C111.908 28.7953 111.617 29.406 111.2 29.9654C110.606 30.7645 109.847 31.3809 109.02 31.9174C107.998 32.5795 106.902 33.1104 105.743 33.5042C105.641 33.5384 105.544 33.5784 105.407 33.6298C105.504 33.6982 105.561 33.7439 105.629 33.7782C107.536 34.8055 109.562 35.4848 111.708 35.8044C112.952 35.9927 114.208 36.0384 115.464 35.9642C116.531 35.9015 117.587 35.7131 118.626 35.479C119.265 35.3363 119.904 35.1708 120.544 35.0224C120.778 34.9654 120.886 34.8512 120.92 34.5886C121.097 33.1274 121.286 31.672 121.668 30.245C122.125 28.5213 122.867 26.9517 124.071 25.616C124.219 25.4505 124.385 25.2964 124.545 25.1309C124.573 25.1594 124.602 25.188 124.625 25.2108C123.609 26.7633 123.044 28.487 122.735 30.3021C122.519 31.5521 122.416 32.8078 122.433 34.0807C122.433 34.1663 122.433 34.2576 122.433 34.3889C122.559 34.3432 122.656 34.3203 122.753 34.2804C124.573 33.5499 126.308 32.6366 127.998 31.6377C129.568 30.7074 131.069 29.6742 132.581 28.6469C132.781 28.5099 132.992 28.3843 133.198 28.2473L133.272 28.3273L133.261 28.3215Z" fill="#30323E"/>
<path d="M129.522 23.418C129.459 25.4214 127.559 27.5447 125.766 27.636C125.943 26.9739 126.28 26.4088 126.674 25.8723C127.068 25.3301 127.53 24.8563 128.061 24.434C127.97 24.4568 127.878 24.4796 127.787 24.5081C127.136 24.7365 126.605 25.1303 126.246 25.7182C125.983 26.1406 125.778 26.5972 125.55 27.0424C125.504 27.1223 125.47 27.2079 125.407 27.2821C125.355 26.1063 125.704 25.1075 126.668 24.3826C127.262 23.9431 127.941 23.6976 128.66 23.555C128.934 23.4979 129.214 23.4637 129.522 23.418Z" fill="#30323E"/>
<path d="M62.798 43.3779C60.7318 42.2306 60.0241 40.096 60.4693 38.2295C60.5035 38.2353 60.5434 38.241 60.5777 38.258C61.3198 38.5834 62.0104 38.9887 62.5754 39.5822C63.5115 40.564 63.717 41.7112 63.3118 42.9841C63.3003 43.0126 63.2889 43.0411 63.2775 43.064C63.2775 43.0697 63.2661 43.0754 63.2204 43.1153C63.2033 42.9955 63.1805 42.8984 63.169 42.8015C63.1119 42.2763 63.0378 41.7512 62.8723 41.2432C62.6896 40.701 62.3871 40.2386 61.9419 39.8734C61.8449 39.7935 61.7364 39.7307 61.5766 39.6222C61.8163 40.0617 62.0503 40.427 62.2215 40.8151C62.3928 41.209 62.5241 41.6199 62.6439 42.0366C62.7638 42.4589 62.8266 42.8928 62.8037 43.3722" fill="#30323E"/>
<path d="M138.934 50.4956C137.861 50.724 136.805 50.7069 135.784 50.2445C134.904 49.845 134.236 49.2057 133.677 48.3496C134.408 48.2925 135.053 48.4295 135.692 48.6121C136.337 48.7948 136.937 49.0744 137.513 49.4283C137.478 49.377 137.45 49.3199 137.41 49.2742C136.834 48.5151 136.04 48.1612 135.121 48.0414C134.87 48.0071 134.613 47.99 134.362 47.9671C134.231 47.9557 134.094 47.9386 133.957 47.8815C133.996 47.8587 134.037 47.8302 134.076 47.813C135.384 47.3507 136.565 47.539 137.592 48.4979C138.175 49.0402 138.592 49.7023 138.934 50.41C138.94 50.4272 138.934 50.45 138.934 50.4899" fill="#30323E"/>
<path d="M114.185 48.7429C114.539 48.7316 114.893 48.6802 115.241 48.7087C116.114 48.7829 116.822 49.2053 117.37 49.8845C117.918 50.558 118.249 51.34 118.466 52.1734C118.466 52.1904 118.466 52.2133 118.454 52.2647C117.49 52.2989 116.577 52.1277 115.726 51.6425C114.767 51.0946 114.145 50.2612 113.688 49.211C113.831 49.2224 113.934 49.2224 114.031 49.2453C115.161 49.5021 116.166 50.0101 117.022 50.7978C117.073 50.8434 117.125 50.8891 117.17 50.9348C117.176 50.9405 117.187 50.9405 117.239 50.9633C117.204 50.8719 117.193 50.8035 117.159 50.7464C116.828 50.1185 116.343 49.6334 115.68 49.3708C115.173 49.1654 114.642 49.0227 114.122 48.8572C114.139 48.8172 114.162 48.7829 114.179 48.7429" fill="#30323E"/>
<path d="M87.9524 10.3302C87.9296 8.97173 88.4205 7.89297 89.6362 7.20233C90.304 6.82562 91.0289 6.63155 91.7824 6.54023C91.885 6.52881 91.9935 6.54023 92.0963 6.54023C92.022 8.51511 90.2241 10.5242 88.3862 10.7183C88.3634 10.0391 89.425 8.54366 90.6864 7.51055C90.5723 7.53338 90.5038 7.53338 90.441 7.55621C89.7789 7.77882 89.2252 8.16123 88.8543 8.75484C88.5803 9.19434 88.3634 9.66809 88.1236 10.1247C88.0837 10.1989 88.0494 10.2788 88.0152 10.353C87.9981 10.3473 87.9753 10.3359 87.9581 10.3302" fill="#30323E"/>
<path d="M65.6803 32.4762C64.7843 32.3393 63.9852 32.0025 63.3116 31.4089C62.4212 30.6326 61.9703 29.6223 61.7534 28.4694C61.8219 28.4579 61.8789 28.4351 61.9303 28.4409C62.7237 28.5093 63.5 28.652 64.2248 29.0116C65.4292 29.6166 66.0057 30.6155 66.0685 31.934C66.0685 31.9797 66.0571 32.0253 66.0456 32.1337C65.9772 32.0196 65.9429 31.9568 65.9086 31.8941C65.6803 31.4831 65.4691 31.0607 65.2123 30.6725C64.7843 30.0104 64.1678 29.5938 63.4087 29.394C63.3801 29.3883 63.3516 29.3826 63.3231 29.3826C63.3173 29.3826 63.3059 29.3883 63.2717 29.4055C64.3904 30.1874 65.2295 31.1806 65.6917 32.4762" fill="#30323E"/>
<path d="M66.1887 55.085C66.0402 54.4115 65.9718 53.795 66.0117 53.1615C66.0232 53.0131 66.0345 52.8704 66.0631 52.722C66.2914 51.2951 67.1248 50.4047 68.4832 49.9765C68.5117 49.9709 68.5403 49.9709 68.6144 49.9595C68.5573 50.0279 68.5174 50.0736 68.4774 50.1192C68.1407 50.4503 67.7868 50.7585 67.4729 51.1067C66.9535 51.6832 66.6853 52.3624 66.6853 53.1444C66.6853 53.2015 66.691 53.2585 66.7195 53.327C67.1989 52.0656 67.9352 51.0039 69.0825 50.1535C69.1567 51.1467 69.0312 52.0314 68.6087 52.8647C68.0893 53.8864 67.2503 54.5599 66.1944 55.0793" fill="#30323E"/>
<path d="M72.935 13.9891C73.991 14.4115 74.87 15.0678 75.5891 15.9298C75.7261 16.0895 75.8346 16.2722 75.9716 16.4606C73.9853 16.6717 71.9876 15.4446 71.2798 13.3612C71.3426 13.3441 71.4054 13.3156 71.4682 13.3099C72.2216 13.2128 72.975 13.1957 73.7171 13.3726C75.0755 13.698 75.8746 14.577 76.217 15.9069C76.2227 15.9354 76.217 15.964 76.217 15.9925C76.217 15.9982 76.2056 16.0097 76.1828 16.0439C76.1029 15.9468 76.0344 15.8555 75.9602 15.7699C75.652 15.4274 75.3609 15.0678 75.0298 14.7482C74.4933 14.2345 73.8369 13.972 73.0892 13.9434C73.0492 13.9434 73.0093 13.9434 72.975 13.9491C72.9694 13.9491 72.9636 13.9605 72.935 13.9834" fill="#30323E"/>
<path d="M99.6416 29.4282C99.1279 29.6336 98.7169 29.9704 98.3916 30.4099C98.072 30.838 97.8722 31.3288 97.6952 31.8311C97.6268 32.0252 97.5583 32.2135 97.4441 32.4076C97.4327 32.3277 97.4156 32.2478 97.4099 32.1736C97.3585 31.3859 97.4898 30.6496 97.9464 29.9875C98.1633 29.6793 98.4259 29.4167 98.7284 29.1941C99.3619 28.7261 100.441 28.3094 101.24 28.2295C101.206 29.1827 100.977 30.0674 100.458 30.8665C99.8357 31.8197 98.9452 32.4019 97.8779 32.7672C97.8608 31.9738 98.7797 30.387 99.7615 29.4796C99.8129 29.4396 99.8585 29.3996 99.9098 29.3596C99.8985 29.3426 99.8813 29.3254 99.8699 29.3083C99.7957 29.3483 99.7215 29.3882 99.6473 29.4224" fill="#30323E"/>
<path d="M112.951 43.932C112.917 43.2471 113.088 42.6078 113.3 41.98C113.511 41.3578 113.813 40.7813 114.213 40.2562C114.196 40.2391 114.184 40.2277 114.167 40.2163C114.076 40.2791 113.979 40.3418 113.893 40.4104C113.214 40.9355 112.866 41.6547 112.712 42.4823C112.66 42.7733 112.626 43.0645 112.58 43.3555C112.563 43.464 112.546 43.5781 112.506 43.6866C112.329 43.3441 112.272 42.9789 112.249 42.6136C112.204 41.8487 112.409 41.1581 112.872 40.5474C113.494 39.7197 114.35 39.2288 115.28 38.8179C115.526 39.3658 115.44 40.8099 115.103 41.6204C114.704 42.5793 113.728 43.658 112.957 43.9378" fill="#30323E"/>
<path d="M82.0844 25.1701C82.016 25.1872 81.9417 25.2044 81.8733 25.2271C81.1541 25.4669 80.6005 25.9178 80.218 26.5685C80.0011 26.9395 79.8241 27.3334 79.6244 27.7157C79.5788 27.8071 79.5388 27.9041 79.4418 27.984C79.436 27.9384 79.4189 27.8984 79.4189 27.8527C79.4418 26.5 79.984 25.4497 81.2112 24.7991C81.9132 24.428 82.6781 24.2511 83.46 24.1655C83.4886 24.1655 83.5171 24.1712 83.5399 24.1769C83.6312 24.7706 83.0776 26.1632 82.4612 26.871C81.7991 27.6416 80.5319 28.3551 79.8071 28.3493C79.9954 27.693 80.3322 27.1221 80.726 26.5857C81.1141 26.0548 81.565 25.581 82.0844 25.1644" fill="#30323E"/>
<path d="M126.788 35.57C128.124 35.2561 129.413 35.3816 130.698 35.8268C130.652 35.7812 130.618 35.7355 130.566 35.6956C129.802 35.0506 128.911 34.8965 127.947 34.9992C127.598 35.0392 127.25 35.0791 126.862 35.1248C126.913 35.0734 126.931 35.0392 126.959 35.022C128.049 34.3257 129.179 34.1887 130.355 34.7824C131.137 35.1819 131.748 35.7869 132.284 36.4775C132.302 36.5004 132.302 36.5289 132.319 36.586C131.32 37.0426 130.292 37.2252 129.208 37.0083C128.312 36.8257 127.125 36.1293 126.782 35.57" fill="#30323E"/>
<path d="M110.658 20.5127C111.588 21.3176 112.365 22.1623 112.627 23.3552C112.844 24.354 112.53 25.2216 111.925 26.0207C111.925 25.9694 111.919 25.9237 111.925 25.8781C111.982 25.4499 112.062 25.0276 112.102 24.5995C112.176 23.789 111.988 23.0413 111.491 22.3849C111.446 22.3221 111.389 22.2707 111.32 22.2193C111.737 23.5093 111.805 24.805 111.423 26.1177C110.772 25.4614 110.321 24.7022 110.139 23.8004C109.905 22.6588 110.133 21.5915 110.658 20.5127Z" fill="#30323E"/>
<path d="M108.791 8.61264C108.614 9.78844 108.22 10.7987 107.393 11.6092C106.765 12.2256 105.595 12.825 104.996 12.8078C105.441 11.5008 106.234 10.4677 107.307 9.62862C106.662 9.77702 106.131 10.0967 105.709 10.5989C105.372 11.0042 105.138 11.4665 104.921 11.9403C104.841 12.1172 104.762 12.2941 104.636 12.4654C104.63 12.3912 104.613 12.3227 104.619 12.2485C104.653 10.833 105.275 9.79414 106.565 9.1777C107.256 8.84665 107.981 8.68684 108.797 8.60693" fill="#30323E"/>
<path d="M56.6739 51.0267C57.6613 50.2562 58.78 49.7996 60.0301 49.6626C60.0814 49.6626 60.127 49.6626 60.1784 49.6626C60.1956 49.6626 60.2126 49.674 60.2697 49.6968C59.8417 50.4845 59.288 51.1523 58.5232 51.626C57.5186 52.2539 56.4227 52.3737 55.2526 52.2482C55.2526 52.2025 55.2412 52.1626 55.2526 52.1283C55.5437 51.3692 55.9147 50.6614 56.4741 50.0679C57.4216 49.0575 58.5803 48.8178 59.8931 49.1603C59.9273 49.166 59.9558 49.1945 60.0243 49.2345C59.6362 49.3087 59.288 49.3544 58.9513 49.44C58.6031 49.5313 58.2492 49.634 57.9182 49.7767C57.3531 50.0222 56.9307 50.4331 56.6168 50.9582C56.5825 51.0039 56.554 51.0495 56.5198 51.1009C56.5312 51.1123 56.5483 51.1238 56.5597 51.1351C56.5997 51.0952 56.6339 51.0552 56.6739 51.0153" fill="#30323E"/>
<path d="M120.977 20.9468C121.611 21.4719 122.142 22.0312 122.536 22.7105C122.764 23.1043 122.924 23.5267 122.987 23.9776C123.112 24.8909 122.827 25.69 122.313 26.4205C122.29 26.4205 122.267 26.4148 122.245 26.4091C122.256 26.3235 122.262 26.2321 122.279 26.1465C122.376 25.6043 122.456 25.0621 122.433 24.5084C122.41 23.8578 122.188 23.287 121.794 22.7733C121.754 22.7219 121.725 22.6591 121.657 22.6249C122.056 23.9319 122.136 25.2219 121.759 26.6032C121.097 25.8783 120.646 25.1135 120.458 24.2116C120.218 23.0758 120.458 22.0142 120.977 20.9468Z" fill="#30323E"/>
<path d="M90.9318 37.4644C89.3451 39.0397 87.0791 39.1767 85.3496 38.155C85.3496 38.1379 85.3496 38.1093 85.3553 38.0979C86.0117 37.3217 86.7651 36.671 87.7412 36.3456C88.8599 35.9746 89.8644 36.2486 90.7891 36.9221C90.8005 36.9278 90.8005 36.9563 90.812 36.9963C90.4524 36.9336 90.0985 36.865 89.7446 36.8137C89.248 36.7452 88.7457 36.728 88.2548 36.8422C87.8153 36.945 87.4272 37.1447 87.0733 37.4187C87.0334 37.4472 86.982 37.4587 86.965 37.5101C88.2834 37.1276 89.5791 37.0762 90.9318 37.4587" fill="#30323E"/>
<path d="M125.344 20.0338C125.515 21.3865 125.327 22.6707 124.739 23.9093C124.322 23.5212 123.86 22.1628 123.883 21.2894C123.905 20.245 124.413 18.8637 125.024 18.3101C125.047 18.3214 125.076 18.3328 125.093 18.3557C125.658 19.0578 126.12 19.8112 126.326 20.7016C126.611 21.9573 126.2 22.9961 125.304 23.8694C125.287 23.8865 125.252 23.8865 125.195 23.9093C125.275 23.6924 125.35 23.5041 125.424 23.3158C125.658 22.6765 125.846 22.0315 125.795 21.3408C125.76 20.8614 125.601 20.4333 125.35 20.0338" fill="#30323E"/>
<path d="M110.412 27.9962C110.332 27.8193 110.252 27.6423 110.172 27.4654C109.967 27.0202 109.744 26.5864 109.436 26.1983C109.071 25.7417 108.608 25.4277 108.055 25.2336C107.992 25.2108 107.929 25.2051 107.849 25.2108C108.882 26.0499 109.664 27.0659 110.098 28.3329C109.641 28.4015 108.448 27.8364 107.826 27.2656C106.925 26.438 106.485 25.3878 106.325 24.1949C106.382 24.1834 106.411 24.1663 106.439 24.172C107.347 24.269 108.22 24.4802 108.996 24.9825C110.087 25.6846 110.503 26.7291 110.486 27.9791C110.463 27.9848 110.44 27.9905 110.418 28.0019" fill="#30323E"/>
<path d="M79.7961 33.761C79.7276 33.6867 79.6648 33.6182 79.6021 33.5554C79.2652 33.213 78.9456 32.8534 78.5861 32.5394C78.0096 32.0315 77.3189 31.8203 76.5541 31.8203C76.5255 31.8203 76.497 31.8317 76.4057 31.8603C77.7242 32.3397 78.7858 33.0874 79.6306 34.2404C78.7002 34.3146 77.8783 34.1947 77.0906 33.8351C76.0746 33.3671 75.1329 32.3568 74.7676 31.3522C74.7961 31.3351 74.8246 31.3009 74.8589 31.2951C75.7493 31.1239 76.6454 31.0612 77.5358 31.3066C78.7516 31.6434 79.4651 32.4824 79.8247 33.6582C79.8247 33.6753 79.8247 33.6981 79.8247 33.7153C79.8247 33.721 79.8189 33.7324 79.7961 33.7667" fill="#30323E"/>
<path d="M113.455 31.8316C113.118 31.8031 112.781 31.8487 112.456 31.9343C112.033 32.0485 111.645 32.2483 111.326 32.5393C110.977 32.8533 110.658 33.2014 110.327 33.5325C110.253 33.6067 110.184 33.6809 110.093 33.738C110.372 32.6763 110.943 31.8602 111.988 31.432C112.735 31.1295 113.512 31.0896 114.299 31.1752C114.579 31.2038 114.859 31.2551 115.184 31.3007C114.773 32.1854 114.248 32.9046 113.483 33.4412C112.547 34.1033 111.491 34.3087 110.355 34.246C110.327 34.109 110.424 34.0348 110.487 33.9548C111.229 33.0474 112.136 32.3738 113.238 31.9628C113.278 31.9515 113.312 31.9343 113.352 31.9229C113.386 31.9115 113.426 31.9001 113.46 31.8887C113.46 31.8715 113.46 31.8487 113.455 31.8316Z" fill="#30323E"/>
<path d="M79.2366 20.5586C80.2869 22.4021 80.0014 24.6225 78.4831 26.1293C78.2435 25.4729 78.2206 24.8051 78.2435 24.1316C78.2663 23.4638 78.3918 22.8131 78.6144 22.1852C78.1464 22.6704 77.8781 23.2469 77.8153 23.909C77.7583 24.5197 77.8496 25.1191 77.958 25.7241C77.9752 25.8154 77.9866 25.9067 77.998 25.998C77.9809 26.0038 77.9638 26.0152 77.941 26.0209C77.861 25.901 77.7811 25.7869 77.7069 25.6613C77.0676 24.5597 77.0563 23.4467 77.6727 22.3337C78.0436 21.6659 78.5631 21.1179 79.1396 20.6214C79.1681 20.5985 79.2023 20.5814 79.2366 20.5643" fill="#30323E"/>
<path d="M55.7491 33.8517C56.805 33.0812 57.9808 32.6588 59.2993 32.5903C59.1795 33.144 58.2091 34.1599 57.5242 34.5367C56.4968 35.1017 55.4066 35.233 54.2708 35.0504C54.2651 34.999 54.2537 34.9762 54.2594 34.9647C54.6247 34.0629 55.1041 33.2353 55.8747 32.6189C56.8107 31.8654 57.861 31.7627 58.9854 32.1052C59.0082 32.1109 59.0254 32.1394 59.071 32.1851C58.7742 32.2307 58.506 32.2593 58.2434 32.3164C57.9009 32.3905 57.5528 32.4591 57.216 32.5675C56.5596 32.7843 56.0516 33.2011 55.6749 33.7775C55.6349 33.8347 55.6007 33.886 55.5607 33.943C55.5779 33.9545 55.595 33.9659 55.6121 33.9773C55.6578 33.9316 55.7034 33.8917 55.7491 33.846" fill="#30323E"/>
<path d="M70.4291 45.3473C70.2635 44.5825 70.7659 43.0813 71.6905 41.6259C71.5992 41.6715 71.5421 41.6886 71.4908 41.7229C70.7431 42.2366 70.3378 42.9614 70.1722 43.8348C70.1038 44.2114 70.0581 44.5882 69.9953 44.9706C69.9896 45.0163 69.9782 45.0562 69.9553 45.1418C69.9154 45.0734 69.8869 45.0448 69.8754 45.0105C69.4816 43.7377 69.6814 42.5848 70.6232 41.6087C71.1939 41.0151 71.896 40.6042 72.6551 40.2845C72.678 40.2731 72.7122 40.2845 72.7351 40.2788C73.3686 41.9112 72.0673 44.7594 70.4234 45.353" fill="#30323E"/>
<path d="M50.9373 50.4844C51.4396 49.4742 52.0161 48.578 52.9807 48.0015C53.8997 47.4536 54.8643 47.4707 55.8403 47.8189C55.8746 47.8303 55.9031 47.8588 55.9773 47.9159C55.7547 47.9387 55.5778 47.9444 55.4065 47.973C54.9442 48.0472 54.4705 48.0929 54.0195 48.2127C53.3289 48.3954 52.7581 48.852 52.3985 49.4513C52.9579 49.0803 53.5629 48.8006 54.2022 48.6122C54.8415 48.4296 55.4864 48.2983 56.2227 48.344C55.652 49.2002 54.9842 49.8508 54.0937 50.2447C53.0778 50.6956 52.0332 50.7127 50.9316 50.4787" fill="#30323E"/>
<path d="M98.9795 24.0518C100.281 23.6466 101.571 23.6922 102.872 24.0576C102.821 24.0119 102.769 23.9548 102.712 23.9148C102.073 23.4468 101.354 23.2642 100.578 23.3384C100.167 23.3783 99.7615 23.4525 99.3562 23.5096C99.2763 23.521 99.1907 23.5325 99.0936 23.5039C99.1336 23.4696 99.1736 23.424 99.2192 23.3955C100.315 22.6534 101.462 22.5221 102.667 23.1272C103.414 23.5039 104.014 24.0576 104.59 24.7139C103.711 25.1819 102.809 25.4274 101.839 25.3646C100.732 25.2904 99.8014 24.811 98.9852 24.0518" fill="#30323E"/>
<path d="M78.4774 18.3784C78.1692 18.327 77.8667 18.2699 77.5585 18.2242C77.1304 18.1615 76.7023 18.1272 76.2685 18.1842C75.6978 18.2585 75.0756 18.5438 74.6761 18.9548C75.3667 18.7322 76.006 18.6067 76.6681 18.601C77.3245 18.5952 77.9808 18.6352 78.6087 18.8578C78.4147 19.2345 77.3531 19.8567 76.5482 20.0679C75.3154 20.3818 74.1681 20.1363 73.0322 19.5655C73.0836 19.4914 73.1178 19.4343 73.1578 19.3886C73.6544 18.8407 74.2023 18.3498 74.8587 18.0016C76.0801 17.3567 77.2503 17.4651 78.3804 18.2299C78.4204 18.2528 78.4489 18.2927 78.4889 18.3212C78.4889 18.3441 78.4774 18.3612 78.4717 18.3841" fill="#30323E"/>
<path d="M110.058 39.7766C109.95 39.8052 109.887 39.8165 109.824 39.8337C109.162 40.0563 108.62 40.4558 108.255 41.0551C108.009 41.4546 107.809 41.8828 107.593 42.2994C107.541 42.3965 107.501 42.4935 107.399 42.5848C107.393 42.4992 107.381 42.4079 107.381 42.3223C107.438 40.8611 108.141 39.8451 109.476 39.2629C110.058 39.0117 110.663 38.8691 111.291 38.7892C111.36 38.7835 111.422 38.7892 111.491 38.7892C111.588 39.3256 111.086 40.6442 110.526 41.352C109.876 42.1681 108.614 42.9273 107.781 42.9672C107.878 42.5277 108.072 42.1339 108.312 41.7743C108.546 41.4147 108.791 41.0551 109.077 40.7355C109.368 40.4044 109.704 40.1247 110.064 39.7766" fill="#30323E"/>
<path d="M72.3472 22.0654C72.644 22.1111 72.9065 22.1453 73.1634 22.191C73.8027 22.3109 74.4134 22.5163 74.9727 22.8588C76.0743 23.5495 76.531 24.5769 76.5139 25.844C76.5139 25.8611 76.4967 25.8782 76.4739 25.9182C76.4282 25.844 76.394 25.7812 76.3597 25.7184C76.1486 25.3074 75.9659 24.8851 75.7319 24.4912C75.3209 23.7949 74.7216 23.3326 73.9397 23.0985C73.9054 23.0871 73.8654 23.0814 73.8141 23.0928C74.8871 23.9261 75.6805 24.9593 76.1314 26.255C75.6463 26.312 74.4591 25.7412 73.8312 25.159C72.9465 24.3371 72.5184 23.2869 72.3472 22.0654Z" fill="#30323E"/>
<path d="M111.291 18.8803C112.598 18.4807 113.888 18.5207 115.235 18.9545C115.149 18.8632 115.11 18.8118 115.064 18.7776C114.442 18.3095 113.74 18.0983 112.969 18.1612C112.541 18.1954 112.113 18.2753 111.691 18.3381C111.588 18.3552 111.485 18.3723 111.382 18.3838L111.36 18.3267C111.565 18.2011 111.765 18.0641 111.976 17.9556C112.906 17.4762 113.854 17.442 114.807 17.8814C115.629 18.2525 116.274 18.846 116.89 19.5424C115.983 20.0219 115.053 20.273 114.048 20.1817C112.975 20.0846 112.073 19.6109 111.291 18.8746" fill="#30323E"/>
<path d="M84.99 40.2102C85.9717 41.0949 86.611 42.1737 86.9592 43.5208C85.9603 43.1839 85.1498 42.6931 84.5333 41.9054C83.8599 41.0493 83.5916 40.0618 83.5288 38.9316C83.877 39.023 84.1795 39.0915 84.4763 39.1829C85.0985 39.3711 85.6863 39.6394 86.1944 40.0561C87.1704 40.8552 87.4786 41.9054 87.2845 43.1383C87.2503 43.0413 87.2161 42.95 87.1761 42.8529C87.0391 42.4991 86.9136 42.1337 86.7594 41.7856C86.4227 41.0322 85.8804 40.4728 85.1155 40.1474C85.0357 40.1132 84.9558 40.0732 84.8759 40.039L84.8473 40.0961C84.8987 40.1303 84.9443 40.1702 84.9957 40.2045" fill="#30323E"/>
<path d="M90.869 23.5666C90.6121 23.5209 90.4238 23.4867 90.2297 23.4525C89.6704 23.3554 89.1053 23.2755 88.5345 23.3611C88.0093 23.4353 87.5414 23.6522 87.1189 23.9719C87.0961 23.989 87.0847 24.0175 87.022 24.1031C87.7069 23.8977 88.3404 23.7721 88.9911 23.7664C89.6475 23.7664 90.2982 23.8006 90.9774 24.0461C90.2639 24.6853 89.4991 25.1134 88.6087 25.2903C87.4615 25.5187 86.3941 25.2618 85.3667 24.7367C85.3781 24.6968 85.3781 24.6625 85.3895 24.6454C85.926 24.0232 86.5254 23.481 87.2674 23.1157C88.5002 22.5049 89.6589 22.6705 90.7605 23.441C90.7834 23.4582 90.7947 23.481 90.869 23.5666Z" fill="#30323E"/>
<path d="M101.428 15.1588C99.6129 15.0446 97.638 12.83 97.6723 10.9807C97.7065 10.975 97.7408 10.9578 97.7808 10.9636C98.5456 11.0492 99.2876 11.2204 99.9782 11.5743C101.217 12.2135 101.793 13.2524 101.805 14.6279C101.805 14.6736 101.799 14.7193 101.788 14.8049C101.673 14.7193 101.656 14.6108 101.611 14.5195C101.394 14.1028 101.2 13.6747 100.954 13.2752C100.56 12.6302 99.9839 12.2135 99.259 11.9909C99.2133 11.9795 99.1677 11.9738 99.1107 11.9795C100.052 12.6987 100.76 13.5948 101.24 14.6679C101.308 14.822 101.359 14.9876 101.422 15.1645" fill="#30323E"/>
<path d="M92.4272 32.3914C92.3987 32.3115 92.3644 32.2373 92.3359 32.1574C92.1817 31.7635 92.0448 31.3697 91.8678 30.9873C91.5368 30.2796 91.0174 29.7487 90.2925 29.4291C90.2297 29.4006 90.1669 29.3777 90.1041 29.3549C90.0871 29.3549 90.0699 29.3549 90.03 29.3663C91.0574 30.2853 91.748 31.3869 92.0562 32.7282C91.2057 32.4885 90.4809 32.0604 89.8872 31.4154C89.0768 30.525 88.7457 29.4519 88.6772 28.2533C88.7343 28.2533 88.7799 28.2362 88.8199 28.2419C89.6019 28.396 90.3553 28.6472 91.0288 29.0867C92.119 29.8058 92.5813 30.8332 92.5186 32.1231C92.5186 32.2088 92.4957 32.2944 92.4786 32.38C92.4615 32.38 92.45 32.38 92.4329 32.3857" fill="#30323E"/>
<path d="M71.3654 26.5175C70.8402 26.6202 70.3894 26.8599 70.0126 27.2309C69.7044 27.5278 69.4703 27.8759 69.2763 28.2526C69.0994 28.6008 68.9339 28.9547 68.7455 29.3543C68.7226 29.2629 68.7056 29.2173 68.7056 29.1716C68.7169 27.8131 69.2706 26.7743 70.4978 26.1293C71.1827 25.7698 71.9247 25.5928 72.6896 25.5015C72.7181 25.5015 72.7466 25.5015 72.7752 25.5015C72.7923 25.5015 72.8094 25.5129 72.8608 25.5357C72.7295 26.5061 72.4099 27.4022 71.7706 28.167C71.08 28.9947 70.1725 29.4627 69.0879 29.7424C69.2592 29.0346 69.613 28.4809 69.9955 27.9444C70.3779 27.4079 70.8346 26.9398 71.3654 26.5346" fill="#30323E"/>
<path d="M125.8 50.0283C126.839 50.1139 127.724 50.4906 128.351 51.3696C128.831 52.0432 129.036 52.8194 129.122 53.6299C129.15 53.921 129.162 54.2121 129.185 54.5545C128.157 54.3091 127.29 53.8924 126.588 53.1675C125.846 52.397 125.475 51.4609 125.315 50.3536C126 50.6276 126.531 51.0157 127.027 51.4609C127.518 51.9004 127.941 52.4028 128.306 52.9678C128.3 52.8993 128.306 52.8308 128.289 52.7623C128.117 52.0032 127.712 51.3924 127.09 50.9358C126.776 50.7075 126.434 50.5077 126.103 50.2965C125.994 50.2281 125.886 50.171 125.777 50.1082C125.783 50.0854 125.794 50.0625 125.806 50.034" fill="#30323E"/>
<path d="M64.8931 18.2875C66.2858 19.9712 66.3999 22.1744 65.1957 23.9096C64.8474 23.316 64.6934 22.671 64.5906 22.0146C64.4822 21.3525 64.4765 20.6904 64.5792 20.0169C64.3623 20.3194 64.2367 20.6562 64.1625 21.0215C64.0598 21.5409 64.1112 22.0603 64.2596 22.5626C64.3623 22.9108 64.4879 23.2532 64.6078 23.5957C64.6363 23.687 64.6648 23.7726 64.6477 23.8925C64.5735 23.8183 64.4993 23.7498 64.4251 23.6699C63.529 22.6939 63.2893 21.5752 63.6945 20.3137C63.9057 19.6573 64.4251 18.7726 64.8931 18.2817" fill="#30323E"/>
<path d="M106.274 47.9612C106.211 48.1324 106.171 48.2523 106.131 48.3664C105.92 48.9372 105.72 49.5137 105.686 50.1301C105.652 50.7523 105.812 51.3288 106.154 51.8539C105.971 50.5012 106.143 49.2112 106.765 47.9155C107.267 48.7032 107.541 49.4909 107.598 50.3527C107.667 51.4543 107.216 52.7101 106.491 53.5663C106.468 53.5548 106.434 53.5491 106.417 53.5319C105.84 52.8242 105.366 52.0651 105.161 51.1633C104.881 49.9418 105.275 48.9258 106.126 48.0525C106.148 48.0297 106.188 48.0183 106.274 47.9669" fill="#30323E"/>
<path d="M134.287 33.915C133.882 33.1901 133.277 32.7163 132.49 32.5052C132.096 32.3967 131.685 32.3396 131.28 32.2597C131.143 32.2312 131 32.2197 130.852 32.1513C130.892 32.1341 130.932 32.1056 130.977 32.0942C132.273 31.7175 133.42 31.9572 134.385 32.9332C134.95 33.5097 135.338 34.1947 135.646 34.9367C135.657 34.9595 135.652 34.9938 135.663 35.0508C134.705 35.222 133.774 35.1478 132.872 34.7768C131.856 34.3545 131.131 33.6068 130.578 32.665C130.943 32.5508 131.679 32.6707 132.53 32.9789C133.158 33.2072 133.746 33.5154 134.287 33.915Z" fill="#30323E"/>
<path d="M117.552 22.1231C117.398 23.2247 117.016 24.2122 116.228 25.017C115.577 25.6791 114.425 26.2784 113.768 26.2841C114.219 24.977 115.007 23.9382 116.085 23.0992C115.463 23.2361 114.944 23.5386 114.522 24.0181C114.168 24.4233 113.928 24.8913 113.705 25.3708C113.62 25.5534 113.54 25.7361 113.409 25.9073C113.403 25.8617 113.386 25.8217 113.386 25.776C113.397 24.4176 113.945 23.3731 115.172 22.7281C115.886 22.3514 116.656 22.1745 117.45 22.0889C117.467 22.0889 117.484 22.1002 117.547 22.1231" fill="#30323E"/>
<path d="M84.9211 12.8703C83.8424 12.602 82.952 12.1454 82.2613 11.3406C81.5992 10.5701 81.2624 9.65682 81.1255 8.6123C81.388 8.65226 81.6049 8.67509 81.8275 8.71504C82.4268 8.8235 83.009 9.00044 83.5455 9.29153C84.6072 9.8566 85.3663 10.9297 85.2636 12.4936C85.2122 12.408 85.1779 12.3623 85.1494 12.3052C84.9154 11.8543 84.7099 11.3863 84.4474 10.9525C84.0193 10.2561 83.3857 9.81664 82.5752 9.634C83.1117 10.0392 83.5798 10.5073 83.9737 11.0438C84.3675 11.5803 84.7042 12.1511 84.9154 12.8703" fill="#30323E"/>
<path d="M100.19 18.3497C100.058 18.0585 99.9443 17.8132 99.8245 17.5677C99.6305 17.1624 99.4078 16.7686 99.111 16.4261C98.6944 15.9524 98.1064 15.5985 97.5357 15.5186C98.0836 15.9182 98.5459 16.3919 98.9455 16.9342C99.3336 17.4707 99.6761 18.0358 99.8587 18.6979C98.0436 18.5836 96.1316 16.4376 96.103 14.4912C96.2571 14.5083 96.4112 14.5197 96.5596 14.5426C97.3131 14.6567 98.038 14.8622 98.6886 15.2674C99.7902 15.9524 100.253 16.9741 100.235 18.2469C100.235 18.2641 100.224 18.2811 100.19 18.3497Z" fill="#30323E"/>
<path d="M111.177 9.58887C111.685 10.0169 112.101 10.4736 112.449 10.9873C112.769 11.4667 113.009 11.9804 113.095 12.5512C113.237 13.5101 112.946 14.3491 112.358 15.1026C112.358 15.1026 112.341 15.1026 112.301 15.1083C112.33 14.9427 112.364 14.7829 112.392 14.6231C112.495 14.1037 112.575 13.5786 112.541 13.0478C112.501 12.4199 112.278 11.8663 111.896 11.3697C111.879 11.3469 111.856 11.3297 111.833 11.3126C111.827 11.3126 111.816 11.3126 111.776 11.3012C112.181 12.6026 112.227 13.8982 111.816 15.2681C111.171 14.5147 110.731 13.7327 110.572 12.8138C110.372 11.6836 110.634 10.6391 111.171 9.58887" fill="#30323E"/>
<path d="M86.8275 31.3118C86.8275 31.2091 86.8332 31.1006 86.8275 30.9979C86.7876 30.5413 86.7704 30.0789 86.6962 29.6223C86.5821 28.9202 86.2283 28.3381 85.6974 27.87C85.6403 27.8186 85.5775 27.7844 85.4976 27.7502C86.1654 28.9259 86.5079 30.1759 86.428 31.5972C85.6574 31.0721 85.0981 30.4442 84.7214 29.6623C84.1962 28.5663 84.1963 27.4305 84.4931 26.2775C84.5387 26.2775 84.5672 26.2661 84.5901 26.2775C85.3492 26.6828 86.0456 27.1737 86.5707 27.8643C87.3755 28.9146 87.444 30.0504 86.9474 31.249C86.936 31.2718 86.9131 31.2947 86.896 31.3175C86.8732 31.3175 86.8504 31.3118 86.8275 31.3061" fill="#30323E"/>
<path d="M105.384 26.2433C105.994 28.2582 105.349 30.3586 103.506 31.563C103.397 30.878 103.517 30.2331 103.671 29.5881C103.825 28.9431 104.076 28.3324 104.413 27.7502C103.979 28.0413 103.654 28.4237 103.437 28.8917C103.237 29.3255 103.152 29.7878 103.112 30.2559C103.089 30.547 103.083 30.8438 103.066 31.1349C103.066 31.1976 103.055 31.2662 103.038 31.3975C102.981 31.2832 102.941 31.2319 102.918 31.1691C102.393 29.8335 102.598 28.6291 103.568 27.5675C104.076 27.0139 104.687 26.5972 105.372 26.2319" fill="#30323E"/>
<path d="M74.3274 34.44C74.2818 34.3543 74.2418 34.2687 74.1962 34.1888C73.9736 33.795 73.7681 33.3955 73.5226 33.0187C73.0889 32.3623 72.4724 31.9456 71.7076 31.7516C71.6733 31.7402 71.6334 31.7402 71.5192 31.7287C72.695 32.5393 73.5284 33.5438 74.0364 34.8281C73.4712 34.8737 72.2726 34.3429 71.6162 33.755C70.743 32.9788 70.292 31.98 70.0752 30.8327C70.155 30.8213 70.2064 30.7984 70.2635 30.8041C70.9599 30.8669 71.6448 30.9868 72.2898 31.2608C73.6254 31.8258 74.3046 32.8532 74.3902 34.2915C74.3902 34.3372 74.3902 34.3886 74.3846 34.4342C74.3674 34.4342 74.3446 34.4457 74.3274 34.4514" fill="#30323E"/>
<path d="M55.4119 43.972C55.3891 43.7323 55.3719 43.4925 55.332 43.2585C55.2635 42.8532 55.2007 42.4423 55.0808 42.0542C54.8754 41.375 54.4473 40.8556 53.8308 40.4788C54.5672 41.6146 55.0009 42.8419 54.9952 44.2745C54.1619 43.7551 53.5283 43.1386 53.1117 42.3168C52.5866 41.2894 52.5238 40.1991 52.7407 39.0918C52.7749 39.0805 52.7977 39.0633 52.8092 39.069C53.6824 39.4514 54.4701 39.9537 55.0637 40.7186C55.8171 41.6946 55.8971 42.779 55.4975 43.9149C55.4918 43.932 55.4747 43.9492 55.4633 43.9605C55.4633 43.9605 55.4461 43.9605 55.4119 43.972Z" fill="#30323E"/>
<path d="M124.19 32.4706C124.704 31.1863 125.526 30.1818 126.639 29.3941C126.011 29.5083 125.475 29.788 125.041 30.2502C124.659 30.6555 124.39 31.1349 124.145 31.6201C124.065 31.7743 123.991 31.934 123.865 32.0825C123.859 32.0254 123.842 31.9626 123.842 31.9055C123.928 30.5585 124.533 29.5596 125.772 28.9717C126.474 28.6407 127.221 28.5037 127.986 28.4409C128.026 28.4409 128.06 28.4466 128.095 28.4523C128.174 29.0117 127.581 30.3702 126.953 31.0608C126.274 31.8085 124.927 32.5105 124.19 32.4706Z" fill="#30323E"/>
<path d="M102.826 37.4416C102.387 37.0478 101.868 36.848 101.285 36.7852C100.663 36.7167 100.052 36.8194 99.4475 36.9393C99.3505 36.9564 99.2534 36.9793 99.1564 36.9907C99.145 36.9907 99.1278 36.9736 99.105 36.9564C99.1221 36.9337 99.1336 36.9051 99.1564 36.8936C100.149 36.1859 101.217 35.9576 102.376 36.4199C103.272 36.7795 103.962 37.4074 104.613 38.1494C103.705 38.6231 102.787 38.8743 101.793 38.7887C100.715 38.6973 99.8127 38.2293 98.9966 37.5215C99.0707 37.4017 99.185 37.3959 99.2819 37.3732C99.9954 37.1962 100.715 37.1562 101.439 37.2304C101.85 37.2704 102.256 37.316 102.638 37.4873C102.672 37.5044 102.712 37.493 102.752 37.4987L102.941 37.5786C102.941 37.5786 102.958 37.5387 102.969 37.5215C102.918 37.493 102.866 37.4645 102.815 37.4359" fill="#30323E"/>
<path d="M78.7283 9.63379C79.79 11.4489 79.6016 13.6749 78.0833 15.216C77.8494 14.5767 77.8094 13.9317 77.8094 13.2753C77.8094 12.6132 77.9178 11.974 78.0776 11.3233C78.032 11.3747 77.9749 11.426 77.935 11.4831C77.4783 12.1281 77.2957 12.8473 77.3813 13.6235C77.4327 14.1201 77.524 14.611 77.6039 15.1304C77.5582 15.0847 77.5125 15.0619 77.484 15.0219C77.113 14.4911 76.8562 13.9203 76.7934 13.2639C76.7477 12.7731 76.8334 12.305 77.0103 11.8541C77.3585 10.9751 77.952 10.2788 78.6541 9.66804C78.6712 9.65091 78.7055 9.6452 78.7341 9.63379" fill="#30323E"/>
<path d="M66.0568 43.19C66.0282 43.1215 65.9997 43.053 65.9768 42.9788C65.5773 41.5975 65.9084 40.4274 66.97 39.4628C67.518 38.9662 68.1572 38.6066 68.8365 38.3213C69.0648 38.7722 69.0134 40.0564 68.7451 40.8726C68.3627 42.0142 67.5865 42.8304 66.5248 43.4754C66.5191 43.3327 66.502 43.2357 66.5076 43.1386C66.542 42.585 66.6675 42.0542 66.8445 41.5347C67.0556 40.9297 67.3239 40.3532 67.7177 39.8452C67.7406 39.8167 67.7577 39.7825 67.8091 39.6854C67.7006 39.7482 67.6436 39.771 67.5922 39.8052C66.833 40.3247 66.4392 41.0724 66.2737 41.9514C66.2166 42.2425 66.1824 42.5336 66.1367 42.8247C66.1195 42.9502 66.1024 43.0702 66.0853 43.1957C66.0739 43.1957 66.0568 43.1957 66.0454 43.1957" fill="#30323E"/>
<path d="M89.6701 18.2918C89.6529 17.1959 89.9668 16.237 90.8573 15.5235C91.4851 15.0213 92.2214 14.7644 92.9977 14.6046C93.2545 14.5532 93.5171 14.5247 93.7739 14.479C93.8767 15.0441 93.363 16.3854 92.7808 17.1046C92.0788 17.9664 91.1598 18.4573 90.0411 18.737C90.2408 18.0293 90.5776 17.4642 90.9715 16.9277C91.3653 16.3854 91.8276 15.9117 92.3641 15.4893C92.2957 15.5064 92.2214 15.5178 92.153 15.5407C91.468 15.769 90.9144 16.1742 90.532 16.7907C90.3094 17.1446 90.1267 17.5269 89.9326 17.9037C89.8642 18.0406 89.8071 18.1833 89.7442 18.326C89.7214 18.3146 89.6986 18.3089 89.6758 18.2975" fill="#30323E"/>
<path d="M128.877 45.81C129.425 44.5429 130.321 43.5954 131.554 42.8591C131.114 42.8933 130.783 43.0189 130.464 43.1787C130.047 43.3956 129.699 43.6981 129.431 44.0749C129.185 44.4173 128.968 44.7769 128.74 45.1308C128.683 45.2164 128.632 45.3077 128.529 45.3876C128.529 45.3362 128.529 45.2849 128.529 45.2335C128.7 43.7495 129.488 42.7678 130.92 42.3055C131.56 42.0999 132.222 42.02 132.89 42.02C132.929 42.02 132.964 42.0315 133.004 42.0372C133.027 42.5566 132.456 43.7438 131.874 44.3774C131.074 45.2449 130.058 45.6787 128.888 45.81" fill="#30323E"/>
<path d="M99.2594 7.49923C100.338 8.34968 101.12 9.3885 101.577 10.6956C100.96 10.7127 99.7559 10.0905 99.1167 9.43415C98.3347 8.63507 97.9523 7.65334 97.7925 6.5289C97.9009 6.5289 97.9809 6.5232 98.0551 6.5289C98.9226 6.63164 99.7503 6.84854 100.487 7.3337C101.56 8.04146 101.982 9.06886 101.902 10.336C101.874 10.2846 101.839 10.2275 101.811 10.1762C101.577 9.72526 101.371 9.25721 101.109 8.82342C100.738 8.20699 100.184 7.79603 99.4991 7.56201C99.4192 7.53347 99.3393 7.51635 99.2537 7.49352" fill="#30323E"/>
<path d="M76.1655 49.2345C75.8002 50.9582 73.3572 52.5222 71.4395 52.2425C71.4508 52.1683 71.4566 52.0941 71.4795 52.0199C71.6564 51.4149 71.8903 50.8327 72.2329 50.3018C72.718 49.5484 73.3515 48.9948 74.242 48.7835C74.6929 48.6752 75.1495 48.6523 75.6118 48.7323C75.6632 48.7436 75.7146 48.7722 75.8344 48.8179C75.6974 48.8635 75.629 48.892 75.5491 48.9148C75.0924 49.069 74.6301 49.1945 74.1906 49.3772C73.4657 49.6854 72.9577 50.2277 72.6609 50.9754C72.7123 50.9354 72.7694 50.9012 72.8207 50.8498C73.6826 50.0336 74.6986 49.5142 75.8459 49.2459C75.92 49.2288 75.9999 49.2174 76.0799 49.2117C76.1084 49.2117 76.1369 49.2231 76.1598 49.2288" fill="#30323E"/>
<path d="M88.5116 15.1532C88.9284 13.8461 89.7046 12.813 90.8462 11.9512C90.7205 11.974 90.6578 11.9797 90.6007 11.9968C89.9443 12.208 89.3963 12.579 89.0254 13.1612C88.7571 13.5779 88.546 14.0345 88.3119 14.474C88.2605 14.571 88.2263 14.6681 88.1521 14.8336C88.1235 14.7194 88.1064 14.6681 88.1064 14.6224C88.1121 13.1897 88.7457 12.1452 90.0414 11.5174C90.692 11.2034 91.3884 11.0493 92.1018 10.958C92.1361 10.958 92.1761 10.9637 92.2103 10.9694C92.2902 11.506 91.845 12.7388 91.3142 13.4409C90.6121 14.377 89.6533 14.9021 88.5116 15.1532Z" fill="#30323E"/>
<path d="M108.112 14.0631C107.399 14.0346 106.754 14.2229 106.189 14.6624C105.755 14.9935 105.413 15.4102 105.07 15.8268C104.984 15.9295 104.899 16.038 104.819 16.1407C104.802 16.1294 104.785 16.1236 104.768 16.1122C104.802 15.9866 104.836 15.8554 104.876 15.7241C105.27 14.5026 106.086 13.7378 107.347 13.4581C108.135 13.2812 108.923 13.3097 109.711 13.4295C109.665 13.9375 108.934 15.0106 108.295 15.5529C107.427 16.2891 106.177 16.6545 105.087 16.5859C105.059 16.4376 105.167 16.3519 105.241 16.2606C105.795 15.5072 106.497 14.9136 107.308 14.4512C107.519 14.3314 107.747 14.2401 107.97 14.1373C108.021 14.1145 108.067 14.0917 108.112 14.0631Z" fill="#30323E"/>
<path d="M97.8097 44.6111C98.1179 43.2641 98.8029 42.1625 99.8075 41.2321C99.7389 41.2549 99.6705 41.2721 99.602 41.3006C98.9455 41.5746 98.4319 42.0198 98.1065 42.6533C97.8953 43.0643 97.7413 43.498 97.5586 43.9205C97.5187 44.0175 97.4843 44.1088 97.4444 44.2058C97.4273 44.2058 97.4045 44.2002 97.3817 44.1944C97.3702 44.1373 97.3474 44.0745 97.3417 44.0175C97.2561 42.5963 97.8439 41.5346 99.0768 40.8269C99.6762 40.4844 100.549 40.1875 101.12 40.1362C101.269 40.5244 100.903 42.0597 100.327 42.8588C99.6933 43.7435 98.8371 44.2971 97.804 44.6111" fill="#30323E"/>
<path d="M134.938 44.2175C134.922 42.8419 135.327 41.609 136.075 40.4617C136.023 40.4903 135.966 40.5188 135.915 40.553C135.201 41.0725 134.813 41.7859 134.664 42.6421C134.607 42.9674 134.579 43.3042 134.533 43.6353C134.516 43.7494 134.504 43.8579 134.465 43.972C134.293 43.6695 134.23 43.3498 134.197 43.0188C134.088 42.077 134.362 41.2551 134.979 40.5474C135.567 39.8738 136.302 39.4229 137.101 39.0576C137.353 39.5142 137.318 40.9183 137.033 41.7459C136.656 42.8419 135.926 43.6353 134.932 44.2231" fill="#30323E"/>
<path d="M103.072 52.1907C101.913 52.1222 100.88 51.814 100.007 51.072C99.305 50.4727 98.8541 49.7021 98.5459 48.7832C99.2594 48.903 99.853 49.1999 100.418 49.5423C100.994 49.8905 101.503 50.3072 101.953 50.8151C101.811 50.3186 101.542 49.8962 101.166 49.548C100.806 49.2169 100.384 48.9943 99.9329 48.8117C99.6874 48.7147 99.4363 48.6291 99.1908 48.5378C99.0995 48.5035 99.0139 48.4692 98.8826 48.4122C99.1908 48.3094 99.4534 48.3322 99.716 48.3494C100.783 48.4293 101.617 48.9202 102.21 49.8106C102.661 50.4898 102.912 51.2489 103.072 52.048C103.078 52.0823 103.072 52.1222 103.072 52.1907Z" fill="#30323E"/>
<path d="M120.794 29.6793C119.756 29.4567 118.854 29.0001 118.163 28.1838C117.512 27.4133 117.181 26.5115 117.039 25.4727C117.267 25.5012 117.45 25.5183 117.632 25.5469C118.266 25.6553 118.877 25.8266 119.442 26.1291C120.657 26.7912 121.211 27.8299 121.194 29.1941C121.194 29.2227 121.182 29.2512 121.171 29.3197C121.12 29.2397 121.085 29.1941 121.057 29.1428C120.857 28.7489 120.68 28.3437 120.463 27.9612C120.058 27.2534 119.464 26.7626 118.682 26.5172C118.637 26.5057 118.591 26.4943 118.528 26.5057C119.59 27.3391 120.372 28.3722 120.789 29.6793" fill="#30323E"/>
<path d="M113.677 15.9977C113.956 14.8161 114.59 13.92 115.783 13.4977C116.69 13.1723 117.632 13.1894 118.568 13.3321C118.585 13.3321 118.603 13.355 118.648 13.3892C118.271 14.3139 117.718 15.113 116.885 15.6951C116.017 16.2945 115.041 16.5228 113.991 16.4999C114.202 15.7751 115.566 14.6335 117.027 13.9657C116.925 13.9543 116.867 13.9429 116.805 13.9429C115.909 13.9771 115.189 14.3767 114.59 15.0217C114.356 15.2728 114.145 15.5411 113.922 15.8036C113.859 15.8778 113.797 15.952 113.74 16.0262C113.722 16.0148 113.705 16.0091 113.682 15.9977" fill="#30323E"/>
<path d="M103.58 21.3925C104.259 21.1414 104.915 21.1014 105.583 21.1128C106.251 21.1242 106.907 21.227 107.558 21.4381C107.518 21.3925 107.478 21.3468 107.432 21.3126C106.844 20.8617 106.171 20.6276 105.429 20.6733C104.944 20.7019 104.459 20.7932 103.973 20.8617C103.894 20.8731 103.808 20.8845 103.728 20.9016C103.722 20.8845 103.711 20.8617 103.705 20.8446C103.865 20.7418 104.025 20.6333 104.19 20.5363C105.172 19.9827 106.182 19.937 107.204 20.4222C107.997 20.7989 108.631 21.3754 109.23 22.0603C108.346 22.5227 107.449 22.7738 106.479 22.7053C105.372 22.6253 104.441 22.1516 103.58 21.3925Z" fill="#30323E"/>
<path d="M80.6689 22.0594C81.5308 21.1119 82.4269 20.3128 83.7112 20.1187C84.4075 20.0161 85.0525 20.1758 85.6633 20.5069C85.8459 20.6096 86.0228 20.7295 86.1998 20.8437C86.1884 20.8665 86.1826 20.8836 86.1712 20.9065C85.8859 20.8551 85.6004 20.8037 85.315 20.7581C84.8013 20.6782 84.282 20.6325 83.7682 20.7295C83.226 20.8322 82.7579 21.0777 82.3471 21.4487C83.6541 21.0378 84.9612 20.9921 86.3481 21.3802C85.6062 22.0366 84.8356 22.4703 83.9281 22.6416C82.7922 22.8585 81.7362 22.5959 80.6689 22.0594Z" fill="#30323E"/>
<path d="M63.1119 35.6502C62.4612 36.2838 61.7192 36.7575 60.8174 36.9744C59.693 37.2484 58.6256 37.0486 57.564 36.5806C57.6153 36.5007 57.6553 36.4322 57.7009 36.3751C58.2032 35.7644 58.7569 35.2165 59.4589 34.8397C60.6575 34.1948 61.8105 34.3146 62.935 35.0281C62.9578 35.0395 62.9692 35.068 63.0149 35.1251C62.6438 35.0795 62.3071 35.0395 61.976 35.0052C61.4738 34.9539 60.9772 34.9596 60.4863 35.0909C60.0069 35.2222 59.5902 35.4619 59.2477 35.8443C59.556 35.753 59.8585 35.6445 60.1781 35.5761C60.492 35.5075 60.8174 35.4619 61.137 35.4391C61.4681 35.4162 61.8048 35.4105 62.1359 35.4276C62.4556 35.4448 62.7751 35.5075 63.089 35.5475L63.1119 35.6502Z" fill="#30323E"/>
<path d="M109.413 52.2197C109.55 52.7391 109.664 53.2699 109.836 53.7779C110.07 54.4685 110.538 54.9937 111.166 55.3647C111.223 55.3989 111.285 55.4218 111.36 55.4389C110.481 54.3944 109.933 53.2186 109.756 51.7974C110.652 52.2197 111.354 52.7677 111.868 53.5439C112.507 54.5085 112.684 55.5816 112.593 56.706C112.553 56.7118 112.53 56.7231 112.513 56.7231C111.662 56.4492 110.874 56.0724 110.218 55.456C109.339 54.6284 109.059 53.601 109.265 52.4309C109.276 52.3624 109.293 52.2939 109.305 52.2311C109.339 52.2311 109.373 52.2311 109.413 52.2311" fill="#30323E"/>
<path d="M123.82 43.1554C123.74 42.6874 123.677 42.2307 123.586 41.7799C123.415 40.9522 123.004 40.2673 122.296 39.7822C122.25 39.7479 122.199 39.7251 122.13 39.7136C122.518 40.2616 122.821 40.8438 123.038 41.4716C123.255 42.0995 123.42 42.7388 123.392 43.4237C121.708 42.7959 120.458 40.0789 121.046 38.3267C121.092 38.338 121.137 38.338 121.177 38.3609C121.862 38.6577 122.507 39.0345 123.049 39.5538C124.06 40.5299 124.316 41.6999 123.917 43.0298C123.905 43.0641 123.888 43.0984 123.871 43.1326C123.871 43.1383 123.854 43.1383 123.826 43.1498" fill="#30323E"/>
<path d="M83.4483 53.5897C82.067 51.9059 81.9357 49.697 83.1572 47.939C83.7736 49.1946 83.9334 50.4903 83.7337 51.8944C83.7964 51.8088 83.8364 51.7689 83.865 51.7175C84.276 50.9413 84.3273 50.125 84.0819 49.2917C83.9791 48.9321 83.8478 48.5839 83.728 48.2358C83.6995 48.1559 83.6766 48.076 83.6309 47.9503C83.7051 47.996 83.7394 48.0074 83.7622 48.0303C84.6983 48.9778 85.0693 50.0851 84.6926 51.3922C84.4529 52.2141 84.002 52.9218 83.4483 53.5954" fill="#30323E"/>
<path d="M88.0549 50.7413C88.8711 49.7881 90.5835 48.7835 91.3198 48.8235C90.983 50.6385 88.6885 52.3452 86.8335 52.1568C86.8335 52.1226 86.8221 52.0826 86.8278 52.0484C86.999 51.215 87.2558 50.416 87.7582 49.7196C88.5172 48.6522 89.5732 48.2527 90.8518 48.3554C90.8917 48.3554 90.9259 48.3726 91.0173 48.3954C90.9145 48.4468 90.8575 48.4753 90.7947 48.5039C90.4293 48.6465 90.0584 48.7721 89.6988 48.9262C88.9111 49.2687 88.3232 49.8166 87.9921 50.6214C87.9579 50.6956 87.9237 50.7641 87.8837 50.8383C87.9008 50.8498 87.9237 50.8611 87.9408 50.8725C87.975 50.8269 88.015 50.7869 88.0492 50.7413" fill="#30323E"/>
<path d="M61.3651 45.4271C61.291 45.3072 61.2396 45.2216 61.1825 45.136C60.9371 44.7593 60.7088 44.3655 60.4348 44.0116C59.9611 43.3837 59.3161 43.0127 58.5398 42.87C58.5113 42.87 58.4828 42.8643 58.4542 42.8643C58.4485 42.8643 58.4371 42.87 58.3971 42.8871C59.0022 43.2239 59.5216 43.6463 59.9725 44.1486C60.4177 44.6394 60.8115 45.1702 61.0684 45.8152C58.9451 45.6554 57.2841 44.12 56.896 42.0366C57.2898 41.9967 57.678 42.0366 58.0661 42.0937C58.7738 42.1965 59.4474 42.3905 60.0352 42.8072C60.9029 43.4122 61.2967 44.2799 61.3937 45.3015C61.3937 45.3243 61.3823 45.3528 61.3651 45.4271Z" fill="#30323E"/>
<path d="M82.1358 42.9789C80.2466 42.7791 78.3117 40.5874 78.3973 38.7666C78.597 38.7951 78.8026 38.8179 79.0023 38.8465C79.653 38.9549 80.2808 39.149 80.8573 39.4743C81.9931 40.1193 82.6439 41.3522 82.4954 42.6421C82.4383 42.5337 82.3984 42.4652 82.3584 42.391C82.1358 41.9572 81.9361 41.5063 81.6793 41.0897C81.3082 40.4732 80.7546 40.0565 80.0697 39.8282C80.024 39.8111 79.9783 39.7997 79.9269 39.7883C79.8984 39.7825 79.8698 39.7825 79.8299 39.794C80.355 40.1992 80.8231 40.6558 81.2055 41.1923C81.5936 41.7289 81.9418 42.2939 82.1358 42.9789Z" fill="#30323E"/>
<path d="M64.4645 27.2595C64.3162 26.9399 64.1734 26.6374 64.0307 26.3348C63.8423 25.9524 63.6197 25.5985 63.3344 25.2846C62.9519 24.8623 62.3584 24.5255 61.8047 24.4341C62.9234 25.2846 63.7168 26.3177 64.1792 27.6762C63.1974 27.4365 62.3755 27.0369 61.702 26.3577C60.9143 25.5586 60.5319 24.5711 60.3721 23.4581C60.4462 23.4468 60.4919 23.4239 60.5376 23.4296C61.3195 23.5266 62.0844 23.6979 62.7807 24.0802C63.9851 24.7367 64.533 25.7698 64.5273 27.1226C64.5273 27.1511 64.5216 27.1796 64.5102 27.2082C64.5102 27.2139 64.4988 27.2195 64.4645 27.2481" fill="#30323E"/>
<path d="M61.5885 53.0645C62.319 51.8316 63.2779 50.9469 64.5508 50.3991C64.4595 51.3294 64.1512 52.1685 63.5633 52.8933C62.8441 53.7837 61.8795 54.2689 60.7551 54.5486C60.7551 54.3431 60.7437 54.1661 60.7551 53.9949C60.8007 53.2871 60.9206 52.5908 61.2231 51.9401C61.7767 50.7529 62.7414 50.165 64.02 50.0337C64.0599 50.0337 64.0941 50.0337 64.1855 50.0452C64.0884 50.1079 64.0313 50.1536 63.9686 50.1935C63.6147 50.4161 63.2437 50.6273 62.9012 50.8671C62.1877 51.3694 61.7482 52.0543 61.5885 52.9162C61.5885 52.9447 61.5885 52.9732 61.5885 53.0588" fill="#30323E"/>
<path d="M102.975 43.4982C103.101 42.7961 103.397 42.2025 103.74 41.6317C104.082 41.061 104.505 40.5473 105.001 40.0792C104.916 40.1078 104.824 40.1363 104.739 40.1763C103.985 40.513 103.466 41.0781 103.135 41.8201C102.986 42.1512 102.872 42.4937 102.741 42.8304C102.707 42.9274 102.667 43.0188 102.61 43.1101C102.513 42.7904 102.524 42.4708 102.564 42.1512C102.684 41.158 103.18 40.3874 104.008 39.8395C104.687 39.3886 105.446 39.1375 106.24 38.9776C106.268 38.9719 106.297 38.9776 106.371 38.9776C106.348 39.8795 106.131 40.7128 105.669 41.4834C105.11 42.4194 104.065 43.2014 102.981 43.4867" fill="#30323E"/>
<path d="M115.858 34.845C116.383 33.5437 117.205 32.5333 118.306 31.7286C118.198 31.7571 118.09 31.7799 117.981 31.8142C117.325 32.0254 116.788 32.4135 116.412 32.9842C116.155 33.3667 115.949 33.7776 115.721 34.1772C115.675 34.2571 115.635 34.3427 115.544 34.4169C115.538 34.3541 115.527 34.2914 115.527 34.2343C115.607 32.8416 116.275 31.8484 117.553 31.2777C118.227 30.9809 118.934 30.8552 119.665 30.7925C119.711 30.7925 119.762 30.7982 119.808 30.8039C119.562 32.853 118.044 34.5425 115.864 34.8393" fill="#30323E"/>
<path d="M128.175 39.7192C127.53 40.1587 127.131 40.7751 126.954 41.5286C126.845 41.9852 126.794 42.4532 126.72 42.9213C126.708 42.9784 126.703 43.0297 126.686 43.1553C126.629 43.0354 126.594 42.9841 126.577 42.9213C126.155 41.4829 126.509 40.2729 127.639 39.2912C128.13 38.8631 128.695 38.5435 129.288 38.2752C129.334 38.258 129.38 38.2466 129.425 38.2295C129.933 40.2101 129.032 42.3391 127.125 43.3494C127.125 43.2295 127.114 43.1268 127.119 43.0297C127.205 41.8482 127.593 40.7751 128.261 39.7935C128.335 39.7421 128.404 39.685 128.404 39.5252C128.307 39.6051 128.244 39.6565 128.181 39.7078" fill="#30323E"/>
<path d="M75.6864 40.2157C76.3485 41.1119 76.7366 42.1165 76.9135 43.2067C76.9534 43.4407 76.9934 43.6804 76.9478 43.9372C75.0642 42.9441 74.1567 40.9349 74.6019 38.8345C74.6589 38.8516 74.716 38.8573 74.7674 38.8802C75.4352 39.177 76.0574 39.5366 76.5939 40.0445C77.6384 41.0434 77.8895 42.2363 77.4672 43.5948C77.4615 43.6233 77.4386 43.6461 77.4044 43.7089C77.3816 43.6176 77.3587 43.5605 77.3473 43.5034C77.2617 43.024 77.2104 42.5331 77.0904 42.0594C76.8793 41.2204 76.3713 40.5753 75.6864 40.2214" fill="#30323E"/>
<path d="M81.7932 14.0518C82.7978 14.4514 83.6425 15.0678 84.356 15.8669C84.5444 16.0781 84.6984 16.3064 84.8811 16.5461C84.3218 16.7117 82.9462 16.432 82.1813 15.9583C81.2167 15.3646 80.5946 14.5085 80.1494 13.4582C80.5889 13.3441 80.9999 13.3384 81.4108 13.3384C81.9017 13.3384 82.3869 13.3897 82.8606 13.5381C84.1163 13.9263 84.8241 14.8053 85.1266 16.0496C85.1266 16.0667 85.1266 16.0895 85.1266 16.1066C85.1266 16.1123 85.1152 16.118 85.0923 16.1409C85.0181 16.0439 84.9382 15.9468 84.8583 15.8555C84.5501 15.513 84.259 15.1534 83.9222 14.8395C83.3343 14.2802 82.6095 14.0404 81.7932 14.0576" fill="#30323E"/>
<path d="M78.6485 55.4045C79.4876 54.9708 79.967 54.2573 80.2181 53.3726C80.3152 53.0415 80.3837 52.7048 80.4636 52.3737C80.4807 52.2995 80.5035 52.2253 80.5492 52.1511C80.6519 52.3623 80.6748 52.5849 80.6919 52.8076C80.7832 53.9491 80.378 54.8794 79.5046 55.61C78.8711 56.1408 78.1405 56.4776 77.3129 56.7402C77.2273 55.6956 77.37 54.7253 77.8608 53.8235C78.3289 52.9616 79.4362 51.9913 80.0983 51.8486C80.1724 52.6933 79.4533 54.3315 78.58 55.3247C78.5458 55.3646 78.5172 55.4045 78.483 55.4445C78.4944 55.4559 78.5058 55.4674 78.5115 55.4787C78.5572 55.4502 78.5971 55.4217 78.6428 55.3988" fill="#30323E"/>
<path d="M121.377 49.9707C122.119 50.1933 122.77 50.5586 123.243 51.2035C123.643 51.7401 123.826 52.3508 123.888 53.0072C123.951 53.6579 123.888 54.2971 123.763 54.9364C123.757 54.9707 123.734 55.0049 123.706 55.0792C122.861 54.6796 122.142 54.1488 121.611 53.3839C120.955 52.4421 120.755 51.3862 120.823 50.2504C120.966 50.2275 121.04 50.3245 121.114 50.3874C122.022 51.1408 122.695 52.0655 123.106 53.1785C123.129 53.2469 123.158 53.3154 123.209 53.3725C123.255 52.8702 123.175 52.3851 122.969 51.9285C122.787 51.5232 122.518 51.1693 122.205 50.8554C121.993 50.6385 121.765 50.4387 121.542 50.2275C121.474 50.159 121.405 50.0962 121.331 50.0278C121.343 50.0106 121.36 49.9878 121.371 49.9707" fill="#30323E"/>
<path d="M119.933 45.1079C119.898 44.8682 119.881 44.6342 119.835 44.4116C119.767 44.0463 119.704 43.6809 119.596 43.3214C119.39 42.625 118.962 42.0885 118.369 41.6833C118.334 41.6604 118.3 41.6433 118.266 41.6262C118.26 41.6262 118.249 41.6262 118.22 41.6376C119.036 42.7392 119.47 43.9664 119.533 45.342C119.042 45.2563 118.083 44.3602 117.638 43.5953C117.033 42.5566 116.953 41.4378 117.13 40.2734C117.187 40.2734 117.221 40.2734 117.244 40.2849C118.055 40.633 118.802 41.0725 119.396 41.7403C120.241 42.6936 120.395 43.7894 120.035 44.9824C120.03 45.0109 120.018 45.0395 120.001 45.0622C119.995 45.0737 119.972 45.0794 119.927 45.1136" fill="#30323E"/>
<path d="M90.2239 41.392C91.1714 42.2767 91.8107 43.3383 92.136 44.6112C91.5881 44.5941 90.4637 43.892 89.9899 43.3783C89.1509 42.4708 88.7913 41.3806 88.7285 40.1534C88.7856 40.1477 88.8198 40.1306 88.854 40.142C89.6018 40.2904 90.3152 40.5187 90.966 40.924C92.1417 41.6488 92.644 42.7162 92.5641 44.0804C92.5641 44.1317 92.5527 44.1774 92.547 44.223C92.547 44.2402 92.5298 44.2573 92.4956 44.3201C92.4442 44.1888 92.41 44.086 92.3701 43.9834C92.1874 43.5439 92.0219 43.0872 91.805 42.6592C91.4911 42.0484 90.9945 41.6089 90.3552 41.335C90.2696 41.2721 90.1839 41.2093 90.0127 41.2493C90.1098 41.3178 90.1726 41.3578 90.2296 41.3977" fill="#30323E"/>
<path d="M68.2433 22.642C68.192 22.6933 68.1407 22.7447 68.095 22.8018C67.6555 23.3783 67.4386 24.029 67.4728 24.7482C67.4956 25.2561 67.587 25.7584 67.6498 26.2664C67.6555 26.3178 67.6612 26.3749 67.6726 26.4719C67.6098 26.4148 67.5812 26.392 67.5585 26.3634C66.8621 25.3474 66.6738 24.263 67.176 23.1043C67.5527 22.2368 68.1749 21.569 68.9226 20.9468C69.3963 21.8657 69.6189 22.8133 69.5105 23.8178C69.3963 24.8795 68.9054 25.7584 68.1634 26.586C67.9238 25.8954 67.9009 25.2391 67.9181 24.5712C67.9408 23.9149 68.0551 23.2755 68.2433 22.6363" fill="#30323E"/>
<path d="M133.26 50.9124C132.792 50.1476 132.09 49.7195 131.24 49.514C130.857 49.4227 130.469 49.3599 130.087 49.2857C130.041 49.2743 130.001 49.2629 129.893 49.2401C130.001 49.1944 130.047 49.1659 130.098 49.1544C131.456 48.812 132.621 49.1373 133.552 50.2046C134.042 50.764 134.379 51.4147 134.647 52.1053C134.658 52.1396 134.658 52.1796 134.67 52.2538C133.688 52.3679 132.752 52.2994 131.856 51.8827C130.869 51.4204 130.178 50.6613 129.653 49.7138C130.389 49.5483 132.158 50.1989 133.18 50.998C133.237 51.0494 133.289 51.1065 133.346 51.1579C133.363 51.1407 133.38 51.1236 133.397 51.1122C133.351 51.0494 133.306 50.9866 133.26 50.9181" fill="#30323E"/>
<path d="M65.3268 25.0848C65.3097 25.1247 65.2925 25.159 65.2754 25.199C65.1898 25.0848 65.1042 24.9707 65.0186 24.8564C65.1727 24.885 65.2754 24.9535 65.3268 25.0848Z" fill="#30323E"/>
<path d="M124.613 25.2045C124.613 25.2045 124.556 25.1475 124.533 25.1246C124.63 25.0219 124.727 24.9191 124.824 24.8164C124.841 24.8335 124.864 24.8506 124.881 24.862C124.79 24.9762 124.699 25.0903 124.613 25.2045Z" fill="#30323E"/>
<path d="M138.01 43.8518C138.01 43.8518 137.969 43.8118 137.952 43.789C138.044 43.7092 138.135 43.6292 138.232 43.5493C138.215 43.7034 138.124 43.789 138.01 43.8518Z" fill="#30323E"/>
<path d="M133.26 28.3209C133.26 28.3209 133.209 28.2695 133.186 28.241C133.266 28.1839 133.346 28.1211 133.426 28.064C133.443 28.0811 133.454 28.0983 133.472 28.1211C133.403 28.1896 133.329 28.258 133.26 28.3266" fill="#30323E"/>
<path d="M90.2237 41.3923C90.1667 41.3524 90.1039 41.3125 90.0068 41.244C90.1781 41.2041 90.2637 41.2668 90.3494 41.3296C90.3094 41.3524 90.2694 41.3753 90.2237 41.3923Z" fill="#30323E"/>
<path d="M85.3555 7.75604L85.2756 7.83595C85.2242 7.76746 85.1728 7.69325 85.1157 7.62477C85.1329 7.60764 85.15 7.59052 85.1671 7.5791C85.2299 7.63618 85.2927 7.69897 85.3555 7.75604Z" fill="#30323E"/>
<path d="M128.175 39.7193C128.238 39.6679 128.3 39.6165 128.397 39.5366C128.397 39.6965 128.329 39.7535 128.255 39.8049C128.226 39.7764 128.198 39.7478 128.175 39.7193Z" fill="#30323E"/>
<path d="M133.26 50.9121C133.306 50.9749 133.351 51.0377 133.397 51.1062C133.38 51.1233 133.363 51.1404 133.346 51.1519C133.289 51.1005 133.237 51.0434 133.18 50.992C133.209 50.9635 133.232 50.9406 133.26 50.9121Z" fill="#30323E"/>
<path d="M84.9902 40.2104C84.9388 40.1705 84.8931 40.1362 84.8418 40.102L84.8703 40.0449C84.9502 40.0791 85.0301 40.1135 85.11 40.1534L84.9902 40.2161V40.2104Z" fill="#30323E"/>
<path d="M99.6416 29.4276C99.7158 29.3877 99.79 29.3478 99.8642 29.3135C99.8757 29.3306 99.8927 29.3478 99.9042 29.3649C99.8528 29.4049 99.8071 29.4448 99.7557 29.4847C99.7158 29.4676 99.6758 29.4505 99.6416 29.4276Z" fill="#30323E"/>
<path d="M55.7489 33.8521C55.7032 33.8978 55.6576 33.9378 55.6119 33.9834C55.5948 33.9721 55.5777 33.9606 55.5605 33.9492C55.6005 33.8921 55.6347 33.8408 55.6747 33.7837C55.6975 33.8065 55.7204 33.8293 55.7432 33.8521" fill="#30323E"/>
<path d="M88.0547 50.7414C88.0205 50.7871 87.9805 50.827 87.9462 50.8727C87.9292 50.8613 87.9063 50.8499 87.8892 50.8385C87.9234 50.7643 87.9577 50.6958 87.9976 50.6216L88.0604 50.7414H88.0547Z" fill="#30323E"/>
<path d="M114.185 48.7432C114.168 48.7832 114.145 48.8174 114.128 48.8573C114.082 48.8516 114.042 48.8402 113.997 48.8345C113.997 48.8117 113.997 48.7945 113.997 48.7717C114.059 48.7603 114.128 48.7546 114.191 48.7432" fill="#30323E"/>
<path d="M56.6736 51.0263C56.6337 51.0663 56.5994 51.1062 56.5595 51.1461C56.5481 51.1348 56.5309 51.1234 56.5195 51.1119C56.5538 51.0663 56.5823 51.0206 56.6166 50.9692C56.6394 50.9864 56.6565 51.0092 56.6793 51.0263" fill="#30323E"/>
<path d="M78.6485 55.4048C78.6029 55.4333 78.5629 55.4619 78.5173 55.4847C78.5058 55.4732 78.4945 55.4619 78.4888 55.4504C78.5173 55.4105 78.5515 55.3705 78.5858 55.3306C78.6086 55.3534 78.6315 55.3763 78.6543 55.3991" fill="#30323E"/>
<path d="M109.414 52.2202C109.379 52.2202 109.345 52.2202 109.305 52.2202C109.328 52.1745 109.351 52.1346 109.374 52.0889C109.385 52.1288 109.396 52.1745 109.414 52.2145" fill="#30323E"/>
<path d="M102.827 37.4424C102.878 37.4709 102.93 37.4995 102.981 37.528C102.97 37.5451 102.964 37.5679 102.952 37.5851L102.764 37.5051L102.827 37.4424Z" fill="#30323E"/>
</svg>
