<svg width="189" height="92" viewBox="0 0 189 92" fill="none" xmlns="http://www.w3.org/2000/svg">
<rect width="188.733" height="91.7633" fill="white"/>
<path d="M31.3038 25.6421H26.0974V30.8485H31.3038V25.6421Z" fill="#DF1766"/>
<path d="M31.3038 33.2563H26.0974V49.6566H31.3038V33.2563Z" fill="#231F20"/>
<path d="M39.0483 37.8122V37.7471C39.0483 30.9787 44.1897 25.3818 51.4787 25.3818C55.9692 25.3818 58.7026 26.8787 60.9153 29.0914L57.5962 32.9312C55.774 31.2391 53.8867 30.2629 51.4787 30.2629C47.4437 30.2629 44.5802 33.582 44.5802 37.682V37.7471C44.5802 41.8472 47.3786 45.2313 51.4787 45.2313C54.2121 45.2313 55.9041 44.125 57.7264 42.4329L61.0455 45.8171C58.5724 48.4203 55.8391 50.0473 51.2834 50.0473C44.2548 50.1124 39.0483 44.6456 39.0483 37.8122Z" fill="#231F20"/>
<path d="M76.8598 25.6421H81.6758L91.8934 49.6567H86.4267L84.2139 44.3201H74.1265L71.9137 49.6567H66.5771L76.8598 25.6421ZM82.3917 39.6994L79.2027 31.9549L76.0138 39.6994H82.3917Z" fill="#231F20"/>
<path d="M101.525 30.6533H94.2363V25.8374H114.021V30.6533H106.732V49.7219H101.525V30.6533Z" fill="#231F20"/>
<path d="M119.423 37.8122V37.7471C119.423 30.9787 124.564 25.3818 131.853 25.3818C136.344 25.3818 139.077 26.8787 141.29 29.0914L137.971 32.9312C136.148 31.2391 134.261 30.2629 131.853 30.2629C127.818 30.2629 124.954 33.582 124.954 37.682V37.7471C124.954 41.8472 127.753 45.2313 131.853 45.2313C134.586 45.2313 136.278 44.125 138.101 42.4329L141.42 45.8171C138.947 48.4203 136.213 50.0473 131.658 50.0473C124.629 50.1124 119.423 44.6456 119.423 37.8122Z" fill="#231F20"/>
<path d="M149.034 25.8374H154.306V35.2741H163.938V25.8374H169.209V49.7219H163.938V40.09H154.306V49.7219H149.034V25.8374Z" fill="#231F20"/>
<path d="M26.0322 59.0933H26.8783L29.4815 63.0632L32.1498 59.0933H32.9958V66.3823H32.1498V60.46L29.5466 64.3648H29.4815L26.8132 60.46V66.3823H26.0322V59.0933Z" fill="#808184"/>
<path d="M38.072 59.0283H38.853L42.1721 66.3173H41.261L40.4149 64.3649H36.445L35.599 66.3173H34.7529L38.072 59.0283ZM40.0895 63.7141L38.4625 60.0045L36.8355 63.7141H40.0895Z" fill="#808184"/>
<path d="M43.9294 59.0933H44.7755V63.4536L48.9406 59.0933H49.9819L46.8581 62.2822L50.1121 66.3823H49.0708L46.3374 62.8028L44.7755 64.4298V66.3823H43.9294V59.0933Z" fill="#808184"/>
<path d="M52.6502 59.0933H51.8042V66.3823H52.6502V59.0933Z" fill="#808184"/>
<path d="M55.1233 59.0933H55.9043L60.4599 64.8854V59.0933H61.3059V66.3823H60.6551L55.9693 60.3949V66.3823H55.1233V59.0933Z" fill="#808184"/>
<path d="M63.3884 62.738C63.3884 60.7206 64.8202 58.9634 67.0329 58.9634C68.2695 58.9634 68.9853 59.2888 69.7663 59.9396L69.2457 60.5904C68.6599 60.1348 68.0742 59.7443 67.0329 59.7443C65.4059 59.7443 64.2996 61.111 64.2996 62.738C64.2996 64.4952 65.4059 65.7317 67.1631 65.7317C68.0091 65.7317 68.7901 65.4063 69.2457 65.0159V63.1936H67.0329V62.4777H70.0266V65.3413C69.3758 65.927 68.3345 66.4476 67.098 66.4476C64.7551 66.4476 63.3884 64.8206 63.3884 62.738Z" fill="#808184"/>
<path d="M75.6889 59.0933H78.7476C79.5937 59.0933 80.2445 59.3536 80.635 59.7441C80.9604 60.0695 81.0905 60.46 81.0905 60.9155C81.0905 61.8917 80.5048 62.3473 79.9191 62.6076C80.7651 62.8679 81.481 63.3886 81.481 64.3648C81.481 65.6013 80.4397 66.3172 78.8778 66.3172H75.6238V59.0933H75.6889ZM78.6175 62.3473C79.5937 62.3473 80.3096 61.8917 80.3096 61.0457C80.3096 60.3298 79.7238 59.8742 78.6826 59.8742H76.4698V62.3473H78.6175ZM78.8778 65.6013C79.9842 65.6013 80.635 65.1457 80.635 64.2997C80.635 63.5187 79.9842 63.0632 78.6826 63.0632H76.4047V65.6013H78.8778Z" fill="#808184"/>
<path d="M83.498 59.0933H86.6219C87.533 59.0933 88.2489 59.3536 88.7045 59.8091C89.0299 60.1346 89.2902 60.6552 89.2902 61.2409C89.2902 62.4124 88.4441 63.1282 87.3378 63.3886L89.5505 66.3823H88.5092L86.4267 63.5838H84.3441V66.3823H83.498V59.0933ZM86.5568 62.8028C87.6632 62.8028 88.4441 62.2171 88.4441 61.306C88.4441 60.3949 87.7283 59.8742 86.5568 59.8742H84.3441V62.8028H86.5568Z" fill="#808184"/>
<path d="M94.0413 59.0283H94.8222L98.1413 66.3173H97.2302L96.3842 64.3649H92.4143L91.5682 66.3173H90.7222L94.0413 59.0283ZM96.0588 63.7141L94.4318 60.0045L92.8047 63.7141H96.0588Z" fill="#808184"/>
<path d="M99.8984 59.0933H100.679L105.235 64.8854V59.0933H106.081V66.3823H105.43L100.744 60.3949V66.3823H99.8984V59.0933Z" fill="#808184"/>
<path d="M108.489 59.0933H111.027C113.305 59.0933 114.867 60.6552 114.867 62.6727C114.867 64.6902 113.305 66.3172 111.027 66.3172H108.489V59.0933ZM110.962 65.6013C112.785 65.6013 113.956 64.3648 113.956 62.7378C113.956 61.1108 112.785 59.8742 110.962 59.8742H109.27V65.6013H110.962Z" fill="#808184"/>
<path d="M116.364 65.2759L116.884 64.6902C117.665 65.4061 118.381 65.7315 119.357 65.7315C120.334 65.7315 120.984 65.2108 120.984 64.4949C120.984 63.8441 120.594 63.4536 119.097 63.1282C117.405 62.7378 116.689 62.2171 116.689 61.0457C116.689 59.8742 117.73 59.0933 119.097 59.0933C120.138 59.0933 120.919 59.4187 121.635 60.0044L121.18 60.6552C120.529 60.1345 119.813 59.8742 119.097 59.8742C118.121 59.8742 117.535 60.3949 117.535 61.0457C117.535 61.7616 117.926 62.087 119.488 62.4774C121.115 62.8028 121.831 63.4537 121.831 64.56C121.831 65.7965 120.789 66.6426 119.357 66.6426C118.186 66.4473 117.21 66.0569 116.364 65.2759Z" fill="#808184"/>
<path d="M126.712 59.0933H127.623L130.161 65.341L132.764 59.0933H133.675L130.551 66.3823H129.836L126.712 59.0933Z" fill="#808184"/>
<path d="M136.344 59.0933H135.498V66.3823H136.344V59.0933Z" fill="#808184"/>
<path d="M138.361 65.2759L138.882 64.6902C139.663 65.4061 140.379 65.7315 141.355 65.7315C142.331 65.7315 142.982 65.2108 142.982 64.4949C142.982 63.8441 142.591 63.4536 141.094 63.1282C139.402 62.7378 138.686 62.2171 138.686 61.0457C138.686 59.8742 139.663 59.0933 141.094 59.0933C142.136 59.0933 142.917 59.4187 143.633 60.0044L143.177 60.6552C142.526 60.1345 141.81 59.8742 141.094 59.8742C140.118 59.8742 139.533 60.3949 139.533 61.0457C139.533 61.7616 139.923 62.087 141.485 62.4774C143.112 62.8028 143.828 63.4537 143.828 64.56C143.828 65.7965 142.787 66.6426 141.355 66.6426C140.183 66.4473 139.207 66.0569 138.361 65.2759Z" fill="#808184"/>
<path d="M146.756 59.0933H145.91V66.3823H146.756V59.0933Z" fill="#808184"/>
<path d="M149.23 59.0933H152.288C153.134 59.0933 153.785 59.3536 154.176 59.7441C154.501 60.0695 154.631 60.46 154.631 60.9155C154.631 61.8917 154.046 62.3473 153.46 62.6076C154.306 62.8679 155.022 63.3886 155.022 64.3648C155.022 65.6013 153.98 66.3172 152.419 66.3172H149.165V59.0933H149.23ZM152.158 62.3473C153.134 62.3473 153.85 61.8917 153.85 61.0457C153.85 60.3298 153.265 59.8742 152.223 59.8742H150.011V62.3473H152.158ZM152.419 65.6013C153.525 65.6013 154.176 65.1457 154.176 64.2997C154.176 63.5187 153.525 63.0632 152.223 63.0632H149.946V65.6013H152.419Z" fill="#808184"/>
<path d="M157.039 59.0933H157.885V65.6013H161.985V66.3823H157.039V59.0933Z" fill="#808184"/>
<path d="M163.808 59.0933H169.079V59.8091H164.654V62.3473H168.624V63.0632H164.654V65.6013H169.144V66.3823H163.808V59.0933Z" fill="#808184"/>
</svg>
