<svg width="189" height="93" viewBox="0 0 189 93" fill="none" xmlns="http://www.w3.org/2000/svg">
<rect x="0.19873" y="0.289551" width="188.733" height="91.7633" fill="white"/>
<path d="M92.3975 38.6768C92.3975 34.966 94.362 33.0742 97.4179 33.0742C100.256 33.0742 101.711 34.5294 101.711 36.6395L100.401 36.8578C99.9645 36.9305 99.6007 36.6395 99.528 36.2029C99.2369 35.3298 98.5821 34.966 97.4179 34.966C95.7444 34.966 94.653 36.0574 94.653 38.604C94.653 41.0779 95.9627 42.3148 98.0728 42.3148C98.9459 42.3148 99.6735 42.1693 100.256 41.8782C100.765 41.6599 101.274 41.951 101.42 42.4603L101.638 43.2607C100.91 43.77 99.6735 44.2066 97.8545 44.2066C94.362 44.2066 92.3975 42.1693 92.3975 38.6768Z" fill="black"/>
<path d="M111.097 43.1884V43.9887H104.039C103.966 43.9887 103.894 43.916 103.894 43.8432V33.2202H104.912C105.494 33.2202 106.004 33.7295 106.004 34.3116V42.097H110.005C110.66 42.097 111.097 42.6063 111.097 43.1884Z" fill="black"/>
<path d="M111.751 38.6045C111.751 35.112 113.643 33.002 116.99 33.002C120.264 33.002 122.229 35.112 122.229 38.6045C122.229 42.097 120.337 44.207 116.99 44.207C113.716 44.207 111.751 42.097 111.751 38.6045ZM120.119 38.6045C120.119 36.3489 119.1 34.8937 116.99 34.8937C114.953 34.8937 113.934 36.3489 113.934 38.6045C113.934 40.8601 114.953 42.3153 116.99 42.3153C119.027 42.3153 120.119 40.8601 120.119 38.6045Z" fill="black"/>
<path d="M124.703 39.8414V33.2202H125.721C126.303 33.2202 126.813 33.7295 126.813 34.3116V39.6959C126.813 41.5876 127.613 42.388 129.141 42.388C130.669 42.388 131.542 41.6604 131.542 39.7686V34.3116C131.542 33.7295 132.051 33.2202 132.634 33.2202H133.652V39.8414C133.652 42.6063 132.051 44.207 129.214 44.207C126.158 44.207 124.703 42.7518 124.703 39.8414Z" fill="black"/>
<path d="M145.804 38.5317C145.804 42.0242 143.548 43.9887 139.983 43.9887H136.781C136.709 43.9887 136.636 43.916 136.636 43.8432V33.3657C136.636 33.293 136.709 33.2202 136.781 33.2202H139.983C143.693 33.2202 145.804 35.1847 145.804 38.5317ZM143.694 38.5317C143.694 36.3489 142.384 35.0392 139.983 35.0392H138.673V42.097H139.983C142.457 42.1697 143.694 40.86 143.694 38.5317Z" fill="black"/>
<path d="M101.565 54.4663C101.565 57.9588 99.3097 59.9233 95.7444 59.9233H92.543C92.4702 59.9233 92.3975 59.8506 92.3975 59.7778V49.3003C92.3975 49.2275 92.4702 49.1548 92.543 49.1548H95.7444C99.4552 49.1548 101.565 51.0466 101.565 54.4663ZM99.4552 54.4663C99.4552 52.2835 98.1455 50.9738 95.7444 50.9738H94.4347V58.0315H95.7444C98.1455 58.0315 99.4552 56.7946 99.4552 54.4663Z" fill="black"/>
<path d="M111.606 49.3731L107.823 55.776V59.7778C107.823 59.8506 107.75 59.9233 107.677 59.9233H105.931C105.858 59.9233 105.785 59.8506 105.785 59.7778V55.776L102.002 49.3731C101.929 49.2275 102.002 49.1548 102.147 49.1548H103.384C103.893 49.1548 104.33 49.4458 104.548 49.8096L106.877 53.8842L109.205 49.8096C109.423 49.3731 109.86 49.1548 110.369 49.1548H111.533C111.606 49.1548 111.679 49.2275 111.606 49.3731Z" fill="black"/>
<path d="M122.302 49.1548V59.7778C122.302 59.8506 122.229 59.9233 122.157 59.9233H120.41C120.338 59.9233 120.338 59.9233 120.265 59.8506L114.953 52.429V58.8319C114.953 59.414 114.444 59.9233 113.862 59.9233H112.843V49.3003C112.843 49.2275 112.916 49.1548 112.989 49.1548H114.881C114.953 49.1548 114.953 49.1548 115.026 49.2275L120.192 56.5036V50.2462C120.192 49.6641 120.701 49.1548 121.283 49.1548H122.302Z" fill="black"/>
<path d="M131.179 57.4495H126.886L126.231 59.2685C126.086 59.705 125.649 59.9961 125.213 59.9961H124.049C123.903 59.9961 123.83 59.8505 123.903 59.7778L127.905 49.3003C127.905 49.2275 127.978 49.2275 128.05 49.2275H130.088C130.16 49.2275 130.233 49.3003 130.233 49.3003L134.235 59.7778C134.308 59.8505 134.162 59.9961 134.09 59.9961H132.925C132.489 59.9961 132.052 59.705 131.907 59.2685L131.179 57.4495ZM130.524 55.7032L128.996 51.3376L127.468 55.7032H130.524Z" fill="black"/>
<path d="M145.076 58.8319V52.3562L142.311 58.3954C142.311 58.4681 142.238 58.4681 142.166 58.4681H140.71C140.638 58.4681 140.565 58.3954 140.565 58.3954L137.8 52.2835V58.8319C137.8 59.414 137.291 59.9233 136.709 59.9233H135.981C135.908 59.9233 135.835 59.8506 135.835 59.7778V49.3003C135.835 49.2275 135.908 49.1548 135.981 49.1548H138.382C138.455 49.1548 138.528 49.2275 138.528 49.2275L141.511 55.776L144.494 49.2275C144.494 49.1548 144.567 49.1548 144.639 49.1548H146.895C146.968 49.1548 147.041 49.2275 147.041 49.3003V59.7778C147.041 59.8506 146.968 59.9233 146.895 59.9233H146.167C145.585 59.9233 145.076 59.414 145.076 58.8319Z" fill="black"/>
<path d="M153.007 50.9738V58.1043H154.025C154.098 58.1043 154.171 58.1771 154.171 58.2498V59.7778C154.171 59.8506 154.098 59.9233 154.025 59.9233H149.878C149.805 59.9233 149.732 59.8506 149.732 59.7778V58.2498C149.732 58.1771 149.805 58.1043 149.878 58.1043H150.897V50.9738H149.878C149.805 50.9738 149.732 50.901 149.732 50.8283V49.3003C149.732 49.2275 149.805 49.1548 149.878 49.1548H154.025C154.098 49.1548 154.171 49.2275 154.171 49.3003V50.8283C154.171 50.901 154.098 50.9738 154.025 50.9738H153.007Z" fill="black"/>
<path d="M156.063 54.5391C156.063 50.8283 158.028 48.9365 161.083 48.9365C163.921 48.9365 165.376 50.3917 165.376 52.5018L164.285 52.6473C163.776 52.7201 163.266 52.429 163.048 51.9197C162.757 51.1193 162.029 50.7555 160.938 50.7555C159.264 50.7555 158.173 51.8469 158.173 54.3935C158.173 56.8674 159.483 58.1043 161.593 58.1043C162.466 58.1043 163.193 57.886 163.848 57.6678C164.358 57.4495 164.867 57.7405 165.013 58.2498L165.231 59.0502C164.503 59.5595 163.266 59.9961 161.447 59.9961C158.028 60.1416 156.063 58.1043 156.063 54.5391Z" fill="black"/>
<path d="M167.341 59.1957L167.414 58.6136C167.486 58.0316 168.141 57.595 168.723 57.8133C169.378 58.1043 170.179 58.2498 171.052 58.2498C172.507 58.2498 173.234 57.8133 173.234 56.9402C173.234 54.3935 167.123 56.2853 167.123 52.138C167.123 50.0279 168.505 48.9365 171.124 48.9365C173.598 48.9365 174.835 49.8824 174.908 51.6287L173.671 51.8469C173.307 51.9197 172.871 51.7742 172.725 51.4104C172.434 50.8283 171.925 50.6828 171.052 50.6828C169.815 50.6828 169.16 51.1921 169.16 52.0652C169.16 54.6846 175.199 52.6473 175.199 56.9402C175.199 59.1957 173.671 60.1416 170.979 60.1416C169.16 60.1416 168.068 59.6323 167.341 59.1957Z" fill="black"/>
<path d="M59.2915 61.4509H36.5175C28.2956 61.4509 21.6744 54.757 21.6744 46.6078C21.6744 38.4587 28.3684 31.7647 36.5175 31.7647C38.3365 31.7647 39.719 30.3095 39.719 28.5633C39.719 26.817 38.2638 25.3618 36.5175 25.3618C24.8031 25.3618 15.1987 34.8934 15.1987 46.6806C15.1987 58.395 24.7303 67.9994 36.5175 67.9994H59.2915C61.1105 67.9994 62.4929 66.5442 62.4929 64.7979C62.4929 63.0517 61.0377 61.4509 59.2915 61.4509Z" fill="#592D81"/>
<path d="M77.336 25.2891C75.517 25.2891 74.1345 26.7443 74.1345 28.4905V31.3282C70.2782 27.6174 65.0395 25.2891 59.2914 25.2891C47.577 25.2891 37.9727 34.8207 37.9727 46.6078C37.9727 58.3223 47.5043 67.9266 59.2914 67.9266C70.9331 67.9266 80.3192 58.6133 80.5375 47.0444V46.9716V28.4905C80.5375 26.7443 79.155 25.2891 77.336 25.2891ZM59.2914 61.4509C51.0695 61.4509 44.4483 54.757 44.4483 46.6078C44.4483 38.4587 51.1423 31.7647 59.2914 31.7647C67.5134 31.7647 74.1345 38.4587 74.1345 46.6078C74.1345 54.757 67.4406 61.4509 59.2914 61.4509Z" fill="#592D81"/>
</svg>
