<svg width="190" height="93" viewBox="0 0 190 93" fill="none" xmlns="http://www.w3.org/2000/svg">
<rect x="0.73291" y="0.289551" width="188.733" height="91.7633" fill="white"/>
<path d="M96.0016 26.2896C96.0016 26.2896 88.8036 29.3138 85.5942 29.3138C88.3562 31.4894 89.5443 33.2638 89.5443 36.0412C89.5597 43.9181 89.5211 51.8027 89.5674 59.6796C89.5828 62.0095 89.2125 64.0925 86.9135 65.6278C90.8558 65.6278 94.5204 65.6278 98.725 65.6278C95.4384 63.6296 96.0093 60.7211 96.0093 57.9978C95.9939 50.6223 96.0016 43.2469 96.0016 35.8714C96.0016 33.3718 96.0016 28.982 96.0016 26.2896Z" fill="black"/>
<path d="M142.469 65.6277C136.011 65.0182 131.274 61.5465 129.839 56.4393C128.721 52.4275 129.037 48.5084 131.552 44.8746C133.859 41.5495 137.377 39.7134 141.821 39.0576C138.148 41.1175 136.752 44.2497 136.104 47.7137C135.379 51.5557 135.61 55.3823 136.829 59.1318C137.693 61.7626 139.151 64.0847 142.469 65.6277Z" fill="black"/>
<path d="M144.737 39.0576C151.194 39.6671 155.931 43.1388 157.366 48.2461C158.485 52.2578 158.168 56.177 155.653 59.8107C153.347 63.1358 149.829 64.9719 145.385 65.6277C149.057 63.5678 150.454 60.4356 151.102 56.9716C151.827 53.1296 151.595 49.303 150.376 45.5536C149.52 42.9305 148.054 40.6006 144.737 39.0576Z" fill="black"/>
<path d="M117.434 62.4337C111.779 61.4617 108.176 54.9194 109.395 47.814C109.974 44.4503 111.524 41.5572 113.607 39.5591C106.78 39.9757 101.372 45.6461 101.372 52.5818C101.372 59.7875 107.212 65.6277 114.417 65.6277C118.807 65.6277 122.688 63.4598 125.049 60.1347C122.842 61.994 120.15 62.8966 117.434 62.4337Z" fill="black"/>
<path d="M116.169 39.5591C116.169 39.5591 125.465 40.7935 125.589 52.3658H118.468C118.468 52.3658 119.764 43.3394 116.169 39.5591Z" fill="black"/>
<path d="M120.636 52.1348H115.073V52.3585H120.636V52.1348Z" fill="black"/>
<path d="M76.0053 62.4337C70.3503 61.4617 66.7474 54.9194 67.9664 47.814C68.545 44.4503 70.0957 41.5572 72.1787 39.5591C65.351 39.9757 59.9429 45.6461 59.9429 52.5818C59.9429 59.7875 65.783 65.6277 72.9888 65.6277C77.3785 65.6277 81.2591 63.4598 83.6199 60.1347C81.4134 61.994 78.7209 62.8966 76.0053 62.4337Z" fill="black"/>
<path d="M74.7397 39.5591C74.7397 39.5591 84.0362 40.7935 84.1596 52.3658H77.0388C77.0388 52.3658 78.3349 43.3394 74.7397 39.5591Z" fill="black"/>
<path d="M79.207 52.1348H73.6445V52.3585H79.207V52.1348Z" fill="black"/>
<path d="M33.3031 30.8105C31.0813 33.7885 31.2278 36.8127 34.1826 38.7877C36.7748 40.5159 39.7914 41.6963 42.7307 42.8535C46.2873 44.2499 49.867 45.5537 52.7138 48.1691C55.7921 50.9927 56.7873 55.151 55.1286 58.5687C54.1102 60.6826 52.3281 62.0559 50.0676 62.9585C51.6492 61.2998 52.0658 59.4482 51.2789 57.3729C50.5151 55.3593 49.0955 53.8549 47.1668 52.9832C43.7028 51.4247 40.1308 50.0901 36.6283 48.6088C33.9975 47.4901 31.5519 46.1092 29.7466 43.8179C26.0743 39.1426 27.5093 33.4568 33.3031 30.8105Z" fill="black"/>
<path d="M28.5972 62.9588V55.3057C28.5972 55.3057 30.5413 61.6782 34.4219 62.9588H28.5972Z" fill="black"/>
<path d="M45.1455 30.4326C45.2149 30.4712 45.485 30.4017 45.5698 30.4017C45.9479 30.3863 46.3259 30.3863 46.7116 30.4172C47.892 30.4943 49.0724 30.7566 50.1525 31.2504C51.9809 32.0913 53.7939 33.7037 53.8248 35.8639C53.8479 37.9546 52.1815 39.8448 50.0599 39.9528C49.759 39.9682 49.4581 39.9451 49.165 39.8911C47.7531 39.6133 46.5805 38.5024 46.3259 37.0751C46.2024 36.3962 46.3799 35.887 46.511 35.2313C46.6113 34.6912 46.6731 34.1435 46.6731 33.588C46.6576 32.3536 46.2719 31.0729 45.1455 30.4326Z" fill="black"/>
<path d="M158.261 41.588C158.284 41.5108 158.523 41.3642 158.585 41.3102C158.863 41.0556 159.133 40.7856 159.38 40.5002C160.159 39.613 160.815 38.5946 161.224 37.4759C161.926 35.5858 162.064 33.1633 160.552 31.6203C159.094 30.1236 156.571 29.9693 154.998 31.3889C154.774 31.5895 154.581 31.8132 154.411 32.0678C153.609 33.2636 153.57 34.876 154.396 36.0641C154.789 36.6273 155.275 36.8587 155.831 37.2368C156.286 37.5454 156.718 37.8925 157.104 38.286C157.976 39.1578 158.6 40.3305 158.261 41.588Z" fill="black"/>
</svg>
