<svg width="190" height="93" viewBox="0 0 190 93" fill="none" xmlns="http://www.w3.org/2000/svg">
<rect x="0.46582" y="0.526367" width="188.733" height="91.7633" fill="white"/>
<path d="M63.3136 57.7789C63.3765 57.9784 63.4394 58.2444 63.4394 58.5104C63.4394 58.9093 63.3765 59.2418 63.1878 59.5743C63.062 59.9068 62.8103 60.1727 62.5587 60.3722C62.307 60.5717 61.9925 60.7712 61.6779 60.8377C61.3634 60.9707 60.9859 61.0372 60.6084 61.0372C59.2244 61.0372 58.1549 60.5717 57.5258 59.6408L57.4629 59.5743L58.7211 58.4439L58.784 58.5104C59.0357 58.8428 59.3502 59.0423 59.6648 59.2418C59.9793 59.3748 60.2939 59.5078 60.7343 59.5078C61.0488 59.5078 61.3005 59.4413 61.4892 59.3083C61.6779 59.1753 61.7408 59.0423 61.7408 58.8428C61.7408 58.7763 61.7408 58.7098 61.6779 58.6433C61.6779 58.5768 61.615 58.5104 61.4892 58.4439C61.4263 58.3774 61.3005 58.3109 61.1117 58.2444C60.9859 58.1779 60.7972 58.0449 60.5455 57.9784C60.2939 57.9119 60.1051 57.7789 59.9164 57.6459C59.7277 57.5129 59.539 57.3799 59.3502 57.2469C59.1615 57.114 59.0357 56.9145 58.9728 56.6485C58.8469 56.449 58.8469 56.183 58.8469 55.917C58.8469 55.5181 58.9098 55.1856 59.0986 54.8531C59.2244 54.5206 59.476 54.2547 59.7277 54.0552C59.9793 53.8557 60.2939 53.6562 60.6084 53.5232C60.923 53.3902 61.3005 53.3237 61.6779 53.3237C62.307 53.3237 62.8103 53.4567 63.2507 53.6562C63.6911 53.8557 64.0685 54.1217 64.3831 54.4542L64.446 54.5206L63.2507 55.7841L63.1878 55.7176C62.9361 55.4516 62.6845 55.2521 62.4329 55.1191C62.1812 54.9861 61.8667 54.9196 61.5521 54.9196C61.2376 54.9196 60.9859 54.9861 60.8601 55.1191C60.6713 55.2521 60.6084 55.3851 60.6084 55.5846C60.6084 55.6511 60.6084 55.7176 60.6713 55.7841C60.7343 55.8505 60.7343 55.917 60.8601 55.9835C60.923 56.05 61.0488 56.1165 61.2376 56.183C61.3634 56.2495 61.615 56.316 61.8037 56.449C62.0554 56.582 62.2441 56.6485 62.4958 56.7815C62.6845 56.9145 62.8732 57.0475 63.062 57.1805C63.1249 57.3799 63.2507 57.5129 63.3136 57.7789Z" fill="#5BA646"/>
<path d="M71.2402 53.3901L70.7999 55.0525H68.7238L67.2139 60.9706H65.5153L67.0252 55.0525H64.8862L65.2637 53.3901H71.2402Z" fill="#5BA646"/>
<path d="M73.4424 54.986L73.0649 56.3159H76.3363L75.9588 57.9118H72.6874L72.31 59.3082H76.0846L75.6442 60.9706H70.2339V60.8376L72.1212 53.3901H77.5316L77.1541 54.986H73.4424Z" fill="#5BA646"/>
<path d="M80.1108 54.986L79.7333 56.3159H83.0047L82.5643 57.9118H79.3559L78.9784 59.3082H82.7531L82.3127 60.9706H76.9023V60.8376L78.7897 53.3901H84.2L83.7596 54.986H80.1108Z" fill="#5BA646"/>
<path d="M89.1703 59.3082L88.7299 60.9706H83.5083L83.5712 60.8376L85.4585 53.3901H87.1571L85.6473 59.3082H89.1703Z" fill="#5BA646"/>
<path d="M96.4678 53.3901V53.4566L94.5804 60.9706H92.8818V60.8376L94.7692 53.3901H96.4678Z" fill="#5BA646"/>
<path d="M104.458 53.3901L104.395 53.4566L102.507 60.9706H101.06V60.9041L99.0472 56.2494L97.8519 60.9706H96.1533L96.2162 60.8376L98.1036 53.3901H99.6134V53.4566L101.564 57.9118L102.759 53.3901H104.458Z" fill="#5BA646"/>
<path d="M110.811 54.3212C110.559 54.0552 110.182 53.7892 109.742 53.5897C109.301 53.3902 108.735 53.3237 108.043 53.3237H105.967L104.08 60.7712V60.9042H106.785C107.603 60.9042 108.358 60.7712 108.924 60.5717C109.553 60.3057 110.056 59.9732 110.497 59.5078C110.874 59.1088 111.189 58.6433 111.377 58.1114C111.566 57.5794 111.692 57.0475 111.692 56.5155C111.629 55.6511 111.377 54.9196 110.811 54.3212ZM106.911 59.3083H106.156L107.225 54.9861H107.917C108.295 54.9861 108.609 55.0526 108.861 55.1191C109.112 55.1856 109.301 55.3186 109.427 55.5181C109.679 55.7841 109.804 56.183 109.804 56.6485C109.804 56.981 109.742 57.3134 109.616 57.6459C109.49 57.9784 109.301 58.2444 109.112 58.4439C108.861 58.7098 108.483 58.9758 108.106 59.1088C107.791 59.2418 107.351 59.3083 106.911 59.3083Z" fill="#5BA646"/>
<path d="M119.871 53.3901L118.738 57.9118C118.487 58.9092 118.109 59.6407 117.606 60.1726C117.291 60.5051 116.977 60.7046 116.536 60.9041C116.159 61.0371 115.656 61.1036 115.152 61.1036C114.712 61.1036 114.335 61.0371 114.02 60.9041C113.705 60.7711 113.391 60.6381 113.139 60.3721C112.888 60.1726 112.699 59.9067 112.573 59.5742C112.447 59.2417 112.384 58.9092 112.384 58.5103C112.384 58.3108 112.384 58.1113 112.447 57.9118C112.447 57.7123 112.51 57.5128 112.573 57.3133L113.58 53.3901H115.278L114.272 57.5128C114.209 57.6458 114.209 57.7788 114.209 57.9118C114.209 58.0448 114.209 58.1778 114.209 58.3108C114.209 58.6432 114.335 58.9092 114.523 59.1752C114.712 59.3747 115.027 59.5077 115.404 59.5077C115.844 59.5077 116.222 59.3747 116.473 59.0422C116.788 58.7097 116.977 58.3108 117.103 57.7123L118.172 53.4566L119.871 53.3901Z" fill="#5BA646"/>
<path d="M125.092 57.7789C125.155 57.9784 125.218 58.2444 125.218 58.5104C125.218 58.9093 125.155 59.2418 124.967 59.5743C124.841 59.9068 124.589 60.1727 124.337 60.3722C124.086 60.5717 123.771 60.7712 123.457 60.8377C123.142 60.9707 122.765 61.0372 122.387 61.0372C121.003 61.0372 119.934 60.5717 119.305 59.6408L119.242 59.5743L120.5 58.4439L120.563 58.5104C120.814 58.8428 121.129 59.0423 121.444 59.2418C121.758 59.3748 122.073 59.5078 122.45 59.5078C122.765 59.5078 123.016 59.4413 123.205 59.3083C123.394 59.1753 123.457 59.0423 123.457 58.8428C123.457 58.7763 123.457 58.7098 123.394 58.6433C123.394 58.5768 123.331 58.5104 123.205 58.4439C123.142 58.3774 123.016 58.3109 122.828 58.2444C122.702 58.1779 122.513 58.0449 122.261 57.9784C122.01 57.9119 121.821 57.7789 121.632 57.6459C121.444 57.5129 121.255 57.3799 121.066 57.2469C120.877 57.114 120.752 56.9145 120.689 56.6485C120.563 56.449 120.563 56.183 120.563 55.917C120.563 55.5181 120.626 55.1856 120.814 54.8531C120.94 54.5206 121.192 54.2547 121.444 54.0552C121.695 53.8557 122.01 53.6562 122.324 53.5232C122.639 53.3902 123.016 53.3237 123.394 53.3237C124.023 53.3237 124.526 53.4567 124.967 53.6562C125.407 53.8557 125.784 54.1217 126.099 54.4542L126.162 54.5206L124.967 55.7841L124.904 55.7176C124.652 55.4516 124.4 55.2521 124.149 55.1191C123.897 54.9861 123.583 54.9196 123.268 54.9196C122.953 54.9196 122.702 54.9861 122.576 55.1191C122.387 55.2521 122.324 55.3851 122.324 55.5846C122.324 55.6511 122.324 55.7176 122.387 55.7841C122.45 55.8505 122.45 55.917 122.576 55.9835C122.639 56.05 122.765 56.1165 122.953 56.183C123.079 56.2495 123.331 56.316 123.52 56.449C123.771 56.582 123.96 56.6485 124.212 56.7815C124.4 56.9145 124.589 57.0475 124.778 57.1805C124.904 57.3799 125.03 57.5129 125.092 57.7789Z" fill="#5BA646"/>
<path d="M133.019 53.3901L132.642 55.0525H130.503L128.993 60.9706H127.294L128.804 55.0525H126.665L127.042 53.3901H133.019Z" fill="#5BA646"/>
<path d="M138.807 54.1217C138.555 53.8557 138.24 53.6562 137.863 53.5232C137.486 53.3902 137.045 53.3237 136.542 53.3237H133.963L132.075 60.7712V60.9042H133.774L134.403 58.5104H135.472L136.542 60.9042H138.492L137.297 58.3774C137.989 58.1779 138.555 57.8454 138.932 57.4464C139.31 56.981 139.499 56.3825 139.499 55.7176C139.373 55.0526 139.184 54.5206 138.807 54.1217ZM135.976 56.981H134.717L135.221 55.0526H136.479C136.919 55.0526 137.297 55.1191 137.423 55.3186C137.548 55.4516 137.611 55.6511 137.611 55.8505C137.611 56.05 137.548 56.183 137.486 56.316C137.423 56.449 137.297 56.582 137.171 56.6485C137.045 56.715 136.856 56.848 136.668 56.848C136.479 56.9145 136.227 56.981 135.976 56.981Z" fill="#5BA646"/>
<path d="M142.959 53.3901V53.4566L141.072 60.9706H139.373V60.8376L141.26 53.3901H142.959Z" fill="#5BA646"/>
<path d="M145.853 54.986L145.538 56.3159H148.747L148.369 57.9118H145.098L144.721 59.3082H148.495L148.118 60.9706H142.645V60.8376L144.595 53.3901H149.942L149.565 54.986H145.853Z" fill="#5BA646"/>
<path d="M154.975 57.7789C155.038 57.9784 155.101 58.2444 155.101 58.5104C155.101 58.9093 155.038 59.2418 154.849 59.5743C154.724 59.9068 154.472 60.1727 154.22 60.3722C153.969 60.5717 153.654 60.7712 153.34 60.8377C153.025 60.9707 152.648 61.0372 152.27 61.0372C150.886 61.0372 149.817 60.5717 149.187 59.6408L149.125 59.5743L150.383 58.4439L150.446 58.5104C150.697 58.8428 151.012 59.0423 151.326 59.2418C151.641 59.3748 151.956 59.5078 152.333 59.5078C152.648 59.5078 152.899 59.4413 153.088 59.3083C153.277 59.1753 153.34 59.0423 153.34 58.8428C153.34 58.7763 153.34 58.7098 153.277 58.6433C153.277 58.5768 153.214 58.5104 153.088 58.4439C153.025 58.3774 152.899 58.3109 152.71 58.2444C152.585 58.1779 152.396 58.0449 152.144 57.9784C151.893 57.9119 151.704 57.7789 151.515 57.6459C151.326 57.5129 151.138 57.3799 150.949 57.2469C150.76 57.114 150.634 56.9145 150.571 56.6485C150.446 56.449 150.446 56.183 150.446 55.917C150.446 55.5181 150.509 55.1856 150.697 54.8531C150.823 54.5206 151.075 54.2547 151.326 54.0552C151.578 53.8557 151.893 53.6562 152.207 53.5232C152.522 53.3902 152.899 53.3237 153.277 53.3237C153.906 53.3237 154.409 53.4567 154.849 53.6562C155.29 53.8557 155.667 54.1217 155.982 54.4542L156.045 54.5206L154.849 55.7841L154.787 55.7176C154.535 55.4516 154.283 55.2521 154.032 55.1191C153.78 54.9861 153.465 54.9196 153.151 54.9196C152.836 54.9196 152.585 54.9861 152.459 55.1191C152.27 55.2521 152.207 55.3851 152.207 55.5846C152.207 55.6511 152.207 55.7176 152.27 55.7841C152.333 55.8505 152.333 55.917 152.459 55.9835C152.522 56.05 152.648 56.1165 152.836 56.183C152.962 56.2495 153.214 56.316 153.402 56.449C153.654 56.582 153.843 56.6485 154.094 56.7815C154.283 56.9145 154.472 57.0475 154.661 57.1805C154.724 57.3799 154.849 57.5129 154.975 57.7789Z" fill="#5BA646"/>
<path d="M56.016 44.0804L40.9174 38.3618L36.2619 44.2799C35.3183 45.4768 35.3183 46.7402 36.2619 47.1392L40.9174 48.9345L56.6451 45.8093C56.8338 44.9448 56.6451 44.2799 56.016 44.0804Z" fill="#5BA646"/>
<path d="M44.1257 35.8354C43.3079 35.9684 42.4271 36.5669 41.798 37.2983L53.4365 41.6205L54.6319 41.3545C56.3305 41.022 58.029 39.8916 59.2873 38.3622L65.0122 31.1143L44.1257 35.8354ZM36.0102 51.0628C34.3116 51.3953 32.613 52.5257 31.4177 54.0551L25.6299 61.303L47.2713 56.9809C48.152 56.7814 49.0957 56.2494 49.7248 55.385L56.1417 47.0731L42.1126 49.8659L36.0102 51.0628Z" fill="#18355F"/>
<path d="M72.2473 32.1117L61.6782 49.3339H66.5853L69.1646 44.8787H75.4557L75.8961 49.3339H80.7403L78.2238 32.1117H72.2473ZM70.5487 42.086L72.6876 38.3622C73.2538 37.3648 73.883 36.0349 74.4492 34.971H74.5121C74.6379 36.0349 74.7637 37.4313 74.8266 38.3622L75.267 42.086H70.5487ZM91.498 39.2267C89.6736 38.4287 88.3525 37.7638 88.3525 36.8328C88.3525 35.9019 89.4849 35.0375 91.6239 35.0375C93.4483 35.0375 94.9581 35.5029 95.7131 35.7689L97.16 32.7101C96.2164 32.3112 94.6436 31.8457 92.0013 31.8457C87.283 31.8457 83.4454 33.9735 83.4454 37.4313C83.4454 39.6921 85.6473 41.022 87.975 42.0195C89.9882 42.8174 90.9318 43.4824 90.9318 44.4798C90.9318 45.8097 89.2962 46.4746 87.4717 46.4746C85.4586 46.4746 83.6342 46.0092 82.313 45.3442L80.7403 48.3365C81.7468 48.9349 83.9487 49.5334 86.9684 49.5334C91.8126 49.5334 95.776 47.5386 95.776 43.7483C95.8389 41.7535 94.1403 40.3571 91.498 39.2267ZM141.009 38.3622C140.38 40.889 140.128 42.7509 140.002 44.5463H139.877C139.373 42.6844 138.744 40.889 137.926 38.6947L135.032 32.1117H129.559L125.407 49.3339H129.748L131.195 43.2829C131.824 40.5566 132.327 38.0962 132.642 36.4339H132.705C133.271 38.5617 133.837 40.0911 134.844 42.4184L137.863 49.3339H142.645L146.734 32.1117H142.393L141.009 38.3622ZM147.866 32.1117L147.048 35.3699H152.773L149.439 49.4004H154.094L157.429 35.3699H163.217L163.972 32.1117C164.034 32.1117 147.866 32.1117 147.866 32.1117ZM105.968 39.2267C104.143 38.4287 102.822 37.7638 102.822 36.8328C102.822 35.9019 103.954 35.0375 106.093 35.0375C107.918 35.0375 109.428 35.5029 110.183 35.7689L111.63 32.7101C110.686 32.3112 109.176 31.8457 106.471 31.8457C101.753 31.8457 97.915 33.9735 97.915 37.4313C97.915 39.6921 100.117 41.022 102.445 42.0195C104.458 42.8174 105.401 43.4824 105.401 44.4798C105.401 45.8097 103.766 46.4746 101.941 46.4746C99.9281 46.4746 98.1037 46.0092 96.7826 45.3442L95.2098 48.3365C96.2164 48.9349 98.4182 49.5334 101.438 49.5334C106.282 49.5334 110.308 47.5386 110.308 43.7483C110.308 41.7535 108.61 40.3571 105.968 39.2267ZM118.487 35.237H126.665L127.42 32.1117H114.523L110.371 49.3339H123.771L124.526 46.2087H115.845L116.851 42.0195H124.589L125.344 38.9607H117.606L118.487 35.237Z" fill="#18355F"/>
</svg>
