<svg width="190" height="93" viewBox="0 0 190 93" fill="none" xmlns="http://www.w3.org/2000/svg">
<rect x="0.46582" y="0.289551" width="188.733" height="91.7633" fill="white"/>
<g clip-path="url(#clip0_206_33798)">
<path d="M68.6803 55.6447L71.0882 49.4242L76.1364 49.3714C78.2486 49.1708 81.4486 50.1529 80.6037 52.3496C79.6004 54.9476 73.8235 55.6764 71.6163 55.6764L68.6803 55.6447ZM62.1114 63.6394C61.5411 65.0968 60.8441 67.4202 58.9114 68.0222L58.8691 68.1172H64.4982C67.0539 68.1172 73.6546 68.2123 76.4532 67.1351C79.1146 66.1106 81.7126 64.0196 82.6631 61.58C83.8671 58.4645 82.1351 56.5635 79.3047 55.9615C81.5542 55.1694 83.4763 53.9549 84.3001 51.8321C85.3984 49.0124 83.4657 47.2275 78.9668 47.2275H66.9378L66.9061 47.3226C68.4057 47.9246 67.2757 50.248 66.7265 51.6737L62.0902 63.6394H62.1114ZM64.8256 65.6776L67.8671 57.7463L72.3978 57.778C75.4499 57.609 80.1073 58.8024 78.9034 61.8862C77.7311 64.9067 72.4717 66.0367 69.7787 65.7938L64.8256 65.6882V65.6776Z" fill="black"/>
<path d="M98.7897 60.2915L98.8953 64.7694C98.9587 66.9872 99.0854 67.3357 97.1528 68.0327L97.1105 68.1278H104.102L104.134 68.0327C102.549 67.1139 102.623 65.3397 102.539 63.5232L101.768 47.2275H96.3924L96.3607 47.3226C97.8181 47.8084 96.6458 49.1391 95.727 50.2691L84.9125 63.5232C83.4762 65.3397 82.1984 67.1139 79.8749 68.0327L79.8433 68.1278H86.1059L86.1376 68.0327C84.7224 67.4624 85.3139 66.5436 86.729 64.7694L90.2353 60.2915H98.8108H98.7897ZM98.7158 57.9258H92.0095L98.4729 49.9312L98.7158 57.9258Z" fill="black"/>
<path d="M111.558 63.682C110.999 65.1077 109.837 67.4312 111.305 68.0226L111.263 68.1176H104.82L104.852 68.0226C106.806 67.4523 107.524 65.1077 108.073 63.682L112.709 51.7269C113.28 50.2589 114.378 47.9461 112.868 47.3335L112.91 47.2385H124.95C125.53 47.2385 126.09 47.3019 126.608 47.0801H126.713L125.288 50.7659H125.182C124.559 49.657 123.218 49.5302 121.644 49.5302C120.451 49.5302 118.106 49.5619 116.944 49.752L114.653 55.6556H119.849C120.366 55.6556 120.905 55.6556 121.391 55.4655H121.486L120.187 58.8239H120.081C119.912 57.8629 118.455 57.9262 117.398 57.9262H113.765L111.548 63.682H111.558Z" fill="black"/>
<path d="M144.086 51.1881C142.639 50.0897 140.728 49.3821 138.489 49.3821C133.789 49.3821 129.279 52.5821 127.505 57.1762C125.71 61.8336 127.505 65.9841 132.754 65.9841C135.299 65.9841 138.182 65.1286 140.77 63.988H140.865L137.707 67.6633C135.838 68.3603 133.969 68.6243 132.194 68.6243C124.168 68.6243 120.81 64.4316 123.439 57.6514C125.974 51.093 132.627 46.7524 139.608 46.7524C141.689 46.7524 143.674 47.101 145.501 47.5445L144.086 51.1986V51.1881Z" fill="black"/>
<path d="M160.054 46.6994C152.946 46.541 145.923 51.5892 143.589 57.609C141.065 64.1145 144.476 68.6241 151.225 68.6241C157.973 68.6241 165.588 63.935 168.091 57.4611C170.309 51.7476 167.225 46.6783 160.054 46.6994ZM158.808 48.9912C164.194 48.9912 165.63 53.469 163.835 58.0948C162.008 62.8155 157.34 66.3429 152.154 66.3429C146.969 66.3429 145.86 61.77 147.571 57.3344C149.43 52.5397 153.517 48.9912 158.797 48.9912" fill="black"/>
<path d="M65.8181 38.3985L70.2854 26.1372H62.8822C62.7977 26.1795 59.3759 28.1121 54.3911 31.3227C58.5627 32.5689 63.3997 34.9768 65.8181 38.3985Z" fill="#EE3124"/>
<path d="M53.1242 54.24C50.1777 52.0011 36.6913 46.6149 36.6173 46.6783C57.0951 41.2183 60.274 39.3912 60.274 39.3912C58.4997 37.2684 55.4159 35.3147 50.5473 33.8467C38.2226 42.0737 20.2689 55.6235 14.1963 68.1172C14.4709 67.832 21.1666 61.0307 53.1136 54.24" fill="#EE3124"/>
<path d="M46.4706 32.8115C41.4858 31.7765 35.0964 31.1534 27.0067 31.1534C27.0067 31.1534 38.2753 28.5659 50.9802 30.5303C51.0436 30.5408 51.1175 30.562 51.1914 30.5725C55.4264 28.6715 58.7637 27.1824 62.196 26.1475H25.3592L14.1328 56.9328C23.4793 46.3929 35.54 38.3032 46.4706 32.8115Z" fill="#EE3124"/>
<path d="M54.9934 68.1172L58.827 57.5879C54.064 59.9324 37.0291 60.5344 15.1572 68.1172H54.9934Z" fill="#EE3124"/>
<path d="M60.2419 53.733L64.2023 42.834C60.2419 44.7138 52.2577 45.865 45.9634 46.6888C53.0181 48.7482 57.2953 51.1349 60.2419 53.7435" fill="#EE3124"/>
<path d="M172.696 33.3928C173.266 32.0093 173.71 30.8054 175.167 30.3829L175.199 30.309H169.137L169.105 30.3829C170.552 30.8899 169.622 32.8436 169.179 34.0687L167.901 37.3532H154.013L156.696 29.8232C157.129 28.6298 157.636 26.6443 159.421 26.1374L159.442 26.0635H153.358L153.337 26.1374C154.784 26.6443 153.865 28.5981 153.422 29.8232L151.362 35.579C150.94 36.7829 150.423 38.7578 148.669 39.2436L148.638 39.3281H172.041L172.062 39.2436C170.953 38.8423 171.207 37.5539 171.587 36.4344L172.706 33.3823L172.696 33.3928Z" fill="black"/>
<path d="M143.79 33.5722H140.896C139.355 33.5722 137.918 33.3821 137.021 32.9596C135.753 32.3682 135.912 31.1643 136.968 30.3827C138.33 29.295 140.96 28.8725 143.262 28.9464H145.586L143.79 33.5616V33.5722ZM150.76 27.658H144.952C136.45 27.658 133.472 29.0732 132.479 31.2593C131.825 32.6956 133.229 33.9946 135.246 34.6071C137.369 35.2619 140.041 35.1986 142.565 35.1986H143.188L142.364 37.353H125.541L126.111 35.3781C126.829 32.252 124.041 29.7174 118.264 29.7174H105.411L111.009 26.1372H105.908L97.459 31.5233H117.271C121.073 31.5233 122.848 32.7167 122.394 35.0613L121.57 37.353H91.925C92.3264 36.8989 92.6643 36.4025 92.9389 35.8956C93.5937 34.6811 93.6993 33.551 93.3719 32.59C92.9072 30.6468 90.0874 29.1365 85.7997 28.957C80.1495 28.6402 74.9746 30.5517 73.4855 33.1075C71.7852 36.0118 74.9535 38.652 80.3185 38.9266C81.2056 38.9688 81.7653 38.9266 82.6525 38.8632C84.2894 38.3141 85.694 37.6593 86.729 36.7616C85.261 37.3108 82.9904 37.5853 81.1634 37.4903C77.3614 37.3108 75.9357 35.4626 77.0868 33.551C78.2168 31.6817 81.4485 30.3405 85.4089 30.5412C88.535 30.7101 89.9079 31.7345 90.1825 33.2448C90.2247 35.3992 88.894 37.0256 86.6128 38.3669C86.6234 38.3669 86.6445 38.3669 86.6128 38.3669C84.3739 39.7715 81.1317 40.817 78.0162 40.817C75.5027 40.817 73.0525 40.6375 71.5845 38.9794L70.3066 41.2923C72.3766 42.3695 74.9112 42.4857 76.4743 42.4857C81.9132 42.4857 86.5706 41.3028 89.6967 39.2434H145.131L147.993 31.3649C148.426 30.161 148.965 28.1332 150.739 27.6263" fill="black"/>
<path d="M144.603 26.1375C145.807 26.1375 147.032 25.5989 147.349 24.923C147.656 24.2577 146.937 23.7085 145.744 23.7085C144.551 23.7085 143.315 24.2577 142.998 24.923C142.681 25.5884 143.4 26.1375 144.603 26.1375Z" fill="black"/>
<path d="M161.786 40.8701C160.592 40.8701 159.357 41.4193 159.04 42.0846C158.723 42.7605 159.452 43.2992 160.656 43.2992C161.86 43.2992 163.085 42.7605 163.391 42.0846C163.697 41.4193 162.979 40.8701 161.775 40.8701" fill="black"/>
</g>
<defs>
<clipPath id="clip0_206_33798">
<rect width="161.066" height="44.9054" fill="white" transform="translate(14.1328 23.7188)"/>
</clipPath>
</defs>
</svg>
