<svg width="189" height="93" viewBox="0 0 189 93" fill="none" xmlns="http://www.w3.org/2000/svg">
<rect y="0.526367" width="188.733" height="91.7633" fill="white"/>
<g clip-path="url(#clip0_206_33792)">
<path d="M38.0985 49.7373H41.249C41.4019 49.7373 41.5278 49.861 41.5278 50.0161V51.5318C41.5278 51.6285 41.647 51.6734 41.71 51.5992C42.2137 51.0281 43.6574 49.5034 45.8611 49.5034C47.4959 49.5034 48.9486 50.1061 49.7829 51.4935C49.8841 51.6622 50.118 51.6802 50.2416 51.5273C51.1096 50.4614 52.4971 49.5416 54.2916 49.5416C57.3206 49.5416 59.4884 50.9246 59.4884 54.5585V63.6231C59.4884 63.7761 59.3647 63.902 59.2095 63.902H55.8499C55.697 63.902 55.5711 63.7783 55.5711 63.6231V55.991C55.5711 54.1223 55.4137 52.5864 53.1942 52.5864C50.9747 52.5864 50.5565 54.3517 50.5565 56.1192V63.6231C50.5565 63.7761 50.4328 63.902 50.2776 63.902H46.918C46.7651 63.902 46.6392 63.7783 46.6392 63.6231V56.0674C46.6392 54.4281 46.7696 52.5864 44.2893 52.5864C43.5067 52.5864 41.7325 53.0721 41.7325 55.7864V63.6231C41.7325 63.7761 41.6088 63.902 41.4536 63.902H38.094C37.9411 63.902 37.8152 63.7783 37.8152 63.6231V50.0161C37.8152 49.8632 37.9389 49.7373 38.094 49.7373H38.0985Z" fill="#231916"/>
<path d="M66.093 47.6771H62.9065C62.7536 47.6771 62.6277 47.5534 62.6277 47.3982V44.7627C62.6277 44.6098 62.7514 44.4839 62.9065 44.4839H66.093C66.2459 44.4839 66.3718 44.6076 66.3718 44.7627V47.3982C66.3718 47.5511 66.2481 47.6771 66.093 47.6771ZM62.9065 49.8403H66.093C66.2459 49.8403 66.3718 49.964 66.3718 50.1192V63.625C66.3718 63.7779 66.2481 63.9039 66.093 63.9039H62.9065C62.7536 63.9039 62.6277 63.7802 62.6277 63.625V50.1192C62.6277 49.9663 62.7514 49.8403 62.9065 49.8403Z" fill="#231916"/>
<path d="M122.626 47.6771H119.439C119.286 47.6771 119.16 47.5534 119.16 47.3982V44.7627C119.16 44.6098 119.284 44.4839 119.439 44.4839H122.626C122.779 44.4839 122.905 44.6076 122.905 44.7627V47.3982C122.905 47.5511 122.781 47.6771 122.626 47.6771ZM119.439 49.8403H122.626C122.779 49.8403 122.905 49.964 122.905 50.1192V63.625C122.905 63.7779 122.781 63.9039 122.626 63.9039H119.439C119.286 63.9039 119.16 63.7802 119.16 63.625V50.1192C119.16 49.9663 119.284 49.8403 119.439 49.8403Z" fill="#231916"/>
<path d="M79.32 54.7857C79.1918 54.7857 79.0772 54.698 79.0502 54.5698C78.7376 53.1283 77.7504 52.3525 76.2213 52.3525C73.7387 52.3525 72.9134 54.8621 72.9134 56.9579C72.9134 59.0537 73.714 61.4081 76.1448 61.4081C77.8516 61.4081 78.8703 60.3423 79.1829 58.7569C79.2076 58.6287 79.3245 58.5365 79.455 58.5365H82.6459C82.819 58.5365 82.9495 58.6939 82.9202 58.8648C82.3221 62.4066 79.7585 64.3315 76.1718 64.3315C71.906 64.3315 69.0366 61.3294 69.0366 57.0883C69.0366 52.8473 71.6474 49.4292 76.2483 49.4292C79.4842 49.4292 82.4525 51.0865 82.837 54.4708C82.855 54.6372 82.7268 54.7857 82.5604 54.7857H79.3223H79.32Z" fill="#231916"/>
<path d="M85.4701 49.816H88.562C88.715 49.816 88.8409 49.9397 88.8409 50.0948L88.8139 51.8803C88.8139 52.004 88.9758 52.0467 89.0343 51.9388C89.8663 50.4299 91.6428 49.4292 93.3293 49.4292C93.5205 49.4292 93.7566 49.4584 93.9702 49.5169C94.0894 49.5506 94.1704 49.6608 94.1704 49.7845V52.8383C94.1704 53.0069 94.0219 53.1373 93.8533 53.1149C93.5272 53.0699 93.1315 53.0406 92.7919 53.0406C89.9855 53.0406 89.0163 55.078 89.0163 57.5561V63.6231C89.0163 63.7761 88.8926 63.902 88.7374 63.902H85.4678C85.3149 63.902 85.189 63.7783 85.189 63.6231V50.0948C85.189 49.9419 85.3126 49.816 85.4678 49.816H85.4701Z" fill="#231916"/>
<path d="M102.158 49.4785C106.637 49.4785 109.527 52.4176 109.527 56.9308C109.527 61.444 106.637 64.3313 102.158 64.3313C97.6784 64.3313 94.8135 61.3923 94.8135 56.9308C94.8135 52.4693 97.7031 49.4785 102.158 49.4785ZM102.158 61.417C104.814 61.417 105.621 59.148 105.621 56.9308C105.621 54.7135 104.814 52.3929 102.158 52.3929C99.5021 52.3929 98.7195 54.6618 98.7195 56.9308C98.7195 59.1997 99.5268 61.417 102.158 61.417Z" fill="#231916"/>
<path d="M112.262 44.5718H115.448C115.601 44.5718 115.727 44.6955 115.727 44.8506V63.623C115.727 63.7759 115.603 63.9018 115.448 63.9018H112.262C112.109 63.9018 111.983 63.7781 111.983 63.623V44.8506C111.983 44.6977 112.106 44.5718 112.262 44.5718Z" fill="#231916"/>
<path d="M139.435 63.0608C139.435 65.3837 138.614 69.31 132.183 69.31C129.509 69.31 126.233 67.9315 125.866 64.9587C125.846 64.7923 125.976 64.6439 126.143 64.6439H129.444C129.563 64.6439 129.651 64.7271 129.707 64.8328C130.379 66.1056 131.448 66.6363 132.743 66.643C134.427 66.652 135.794 65.2578 135.767 63.2182L135.747 61.7138C135.747 61.6171 135.624 61.5811 135.567 61.6598C134.677 62.9439 133.094 63.5533 131.513 63.5533C127.337 63.5533 125.542 60.3511 125.542 56.4765C125.542 52.8089 127.618 49.4785 131.565 49.4785C133.249 49.4785 134.605 50.0317 135.527 51.4034C135.592 51.5024 135.745 51.4596 135.747 51.3405L135.765 50.1441C135.765 49.9912 135.889 49.8653 136.044 49.8653H139.152C139.305 49.8653 139.431 49.989 139.431 50.1441V63.0608H139.435ZM135.772 56.7351C135.772 54.4617 135.003 52.3974 132.493 52.3974C130.341 52.3974 129.392 54.3088 129.392 56.4248C129.392 58.5409 130.161 60.6344 132.493 60.6344C134.697 60.6344 135.772 58.75 135.772 56.7351Z" fill="#231916"/>
<path d="M142.81 44.5719H146.143C146.296 44.5719 146.422 44.6956 146.422 44.8507L146.469 51.4372C146.469 51.5519 146.615 51.5991 146.685 51.5069C147.694 50.16 149.293 49.4943 150.647 49.4943C154.769 49.4943 155.805 51.7903 155.805 55.2331V63.5241C155.805 63.677 155.682 63.803 155.527 63.803H152.196C152.043 63.803 151.917 63.6793 151.917 63.5241V55.9459C151.917 53.65 151.243 52.5279 149.428 52.5279C147.328 52.5279 146.422 53.6747 146.422 56.5059V63.5219C146.422 63.6748 146.298 63.8007 146.143 63.8007H142.81C142.657 63.8007 142.531 63.677 142.531 63.5219V44.8462C142.531 44.6933 142.655 44.5674 142.81 44.5674V44.5719Z" fill="#231916"/>
<path d="M163.867 49.8831H166.161C166.314 49.8831 166.44 50.0068 166.44 50.162V52.1723C166.44 52.3252 166.316 52.4512 166.161 52.4512H163.867C163.714 52.4512 163.588 52.5748 163.588 52.73V59.411C163.588 60.695 163.926 61.0278 165.221 61.0278C165.531 61.0278 165.826 61.0143 166.127 60.9738C166.294 60.9513 166.44 61.0818 166.44 61.2504V63.688C166.44 63.8297 166.334 63.9489 166.195 63.9646C165.585 64.0388 164.843 64.0591 164.16 64.0591C161.776 64.0591 159.7 63.5194 159.7 60.722V52.7322C159.7 52.5793 159.577 52.4534 159.422 52.4534H157.62C157.467 52.4534 157.342 52.3297 157.342 52.1746V50.1642C157.342 50.0113 157.465 49.8854 157.62 49.8854H159.422C159.575 49.8854 159.7 49.7617 159.7 49.6065V45.9771C159.7 45.8242 159.824 45.6982 159.979 45.6982H163.31C163.463 45.6982 163.588 45.8219 163.588 45.9771V49.6065C163.588 49.7594 163.712 49.8854 163.867 49.8854V49.8831Z" fill="#231916"/>
<path d="M170.976 59.3551C171.117 59.3551 171.236 59.463 171.252 59.6047C171.407 61.1023 172.759 61.7072 174.202 61.7072C175.336 61.7072 176.703 61.2935 176.703 59.924C176.703 58.7344 175.131 58.3476 172.347 57.727C170.13 57.2368 167.888 56.461 167.888 53.9784C167.888 50.3579 171.007 49.4292 174.023 49.4292C177.038 49.4292 179.746 50.4231 180.198 53.6321C180.222 53.8007 180.092 53.9536 179.921 53.9536H176.795C176.658 53.9536 176.541 53.8524 176.521 53.7175C176.316 52.411 175.21 52.0422 173.919 52.0422C173.042 52.0422 171.754 52.1974 171.754 53.3352C171.754 54.7317 173.944 54.9386 176.134 55.4558C178.403 55.973 180.566 56.7735 180.566 59.4113C180.566 63.1082 177.396 64.3225 174.176 64.3225C170.955 64.3225 167.911 63.1509 167.598 59.6676C167.582 59.5035 167.71 59.3596 167.875 59.3596H170.976V59.3551Z" fill="#231916"/>
<path d="M8.62662 25.6286V44.185C8.62662 44.185 8.25109 44.8844 8.62662 45.098C9.00216 45.3116 9.87241 45.8064 10.6865 45.8851C10.8484 45.9008 11.9997 46.083 12.3573 46.3326C12.7148 46.5822 13.1758 46.4765 13.1938 45.993C13.2118 45.5095 13.1938 26.3639 13.1938 26.0064C13.1938 25.6488 13.1488 25.0124 12.3348 24.8775C11.5814 24.7538 10.8843 24.5739 10.149 24.3221C9.41368 24.0702 9.03364 23.8116 8.66485 24.05C8.38151 24.2321 8.50744 24.837 8.5794 25.1653C8.61313 25.3182 8.62662 25.4712 8.62662 25.6286Z" fill="#231916"/>
<path d="M23.0433 29.6607C23.2411 29.8406 23.4368 30.5017 23.3109 30.7715C23.1962 31.0166 23.1467 41.4979 23.1399 43.4139C23.1399 43.6005 23.2479 43.7669 23.4188 43.8389C23.8011 44.003 24.5072 44.2819 25.1143 44.3808C25.9981 44.5247 26.6839 44.8463 26.9718 44.9902C27.2596 45.1341 27.7296 45.1701 27.7296 44.3088V31.2528C27.7296 30.4477 27.073 28.5835 25.229 28.4419C23.3851 28.3002 22.8656 28.642 22.7936 28.9073C22.6677 29.3728 23.0433 29.6584 23.0433 29.6584V29.6607Z" fill="#231916"/>
<path d="M37.4509 28.4034C37.6488 28.5832 37.7567 28.6215 37.6848 29.3568C37.6578 29.6244 37.5566 40.1574 37.5363 42.1948C37.5363 42.4017 37.66 42.586 37.8557 42.6558C38.2492 42.7997 38.935 43.0313 39.5242 43.1257C40.408 43.2697 41.2197 43.58 41.5053 43.7217C41.7909 43.8633 42.1372 43.9128 42.1372 43.0538V29.7571C42.1372 29.2534 41.9461 28.8216 41.4761 28.2167C41.0781 27.7017 40.4822 27.2498 39.6344 27.1845C37.7904 27.0406 37.2957 27.3217 37.226 27.5871C37.1001 28.0525 37.4509 28.4034 37.4509 28.4034Z" fill="#231916"/>
</g>
<defs>
<clipPath id="clip0_206_33792">
<rect width="172.106" height="45.3545" fill="white" transform="translate(8.46045 23.9556)"/>
</clipPath>
</defs>
</svg>
