<svg width="189" height="93" viewBox="0 0 189 93" fill="none" xmlns="http://www.w3.org/2000/svg">
<rect x="0.19873" y="0.526367" width="188.733" height="91.7633" fill="white"/>
<path d="M124.574 66.6892C123.001 67.0881 121.302 67.4871 119.478 67.8861C118.534 68.0856 117.528 68.2186 116.332 68.3515C115.2 68.418 113.879 68.4845 112.495 68.4845C109.79 68.4845 107.022 68.0856 104.253 67.2876C101.548 66.4897 99.0319 65.2263 96.7671 63.4974C94.5652 61.835 92.7408 59.5077 91.2938 56.6484C89.9098 53.7891 89.2178 50.3314 89.2178 46.2752C89.2178 42.4849 89.784 39.2267 90.9793 36.4339C92.1746 33.6411 93.7474 31.2473 95.8234 29.3854C97.8995 27.5235 100.353 26.1271 103.184 25.1962C106.015 24.2653 109.161 23.7998 112.495 23.7998C114.634 23.7998 116.647 23.9993 118.597 24.4648C120.547 24.9302 122.561 25.3957 124.511 26.0606L123.63 35.37C121.869 34.3725 120.107 33.5746 118.408 33.1091C116.71 32.6437 114.885 32.3777 113.061 32.3777C111.111 32.3777 109.349 32.7102 107.839 33.4416C106.267 34.1066 104.946 35.104 103.813 36.3674C102.681 37.6308 101.863 39.0937 101.234 40.8226C100.668 42.5514 100.353 44.4133 100.353 46.4082C100.353 48.536 100.668 50.4644 101.36 52.1267C102.052 53.7891 102.995 55.252 104.191 56.3824C105.386 57.5793 106.833 58.4438 108.469 59.0422C110.104 59.6407 111.929 59.9732 113.942 59.9732C115.703 59.9732 117.465 59.7737 119.226 59.3082C120.988 58.9092 122.624 58.3773 124.07 57.7123L124.574 66.6892Z" fill="#0A1F8F"/>
<path d="M65.6259 32.2447H82.5489C83.0522 32.2447 83.4297 31.7792 83.4297 31.2473V24.7972C83.4297 24.2653 83.0522 23.7998 82.5489 23.7998H55.6859C55.1826 23.7998 54.8052 24.2653 54.8052 24.7972V31.3138C54.8052 31.8457 55.1826 32.3112 55.6859 32.3112L65.6259 32.2447Z" fill="#0A1F8F"/>
<path d="M65.6259 59.0427V50.8638C65.6259 50.3318 66.0033 49.8664 66.5066 49.8664H81.5424C82.0456 49.8664 82.4231 49.4009 82.4231 48.8689V42.4189C82.4231 41.8869 82.0456 41.4215 81.5424 41.4215H66.5066C66.0033 41.4215 65.6259 40.956 65.6259 40.4241V36.2349C65.6259 35.5034 64.8709 34.9715 64.3047 35.3704L54.8052 41.355V67.3546C54.8052 67.8865 55.1826 68.352 55.6859 68.352H82.5489C83.0522 68.352 83.4297 67.8865 83.4297 67.3546V60.9046C83.4297 60.3726 83.0522 59.9071 82.5489 59.9071H66.5066C66.0033 60.0401 65.6259 59.5747 65.6259 59.0427Z" fill="#0A1F8F"/>
<path d="M40.6508 45.6767V45.5437C41.7832 45.0782 42.7898 44.6128 43.6705 43.9478C44.5513 43.3494 45.3062 42.6179 45.9353 41.7535C46.5644 40.8891 47.0048 39.9581 47.3193 38.8277C47.6339 37.7638 47.7597 36.5004 47.7597 35.0375C47.7597 33.1091 47.4452 31.4467 46.7531 30.0503C46.0611 28.654 45.1804 27.457 43.9851 26.5261C42.7898 25.5952 41.4057 24.8637 39.8329 24.3983C38.3231 24.0658 36.4987 23.7998 34.6113 23.7998H16.7446C16.3042 23.7998 15.9268 24.1988 15.9268 24.6642V31.3803C15.9268 31.8457 16.3042 32.2447 16.7446 32.2447H26.8733H29.893C30.7738 32.2447 31.6545 32.3112 32.5353 32.3777C33.416 32.4442 34.1709 32.6437 34.8001 32.9761C35.4921 33.3086 35.9954 33.7076 36.3728 34.306C36.7503 34.9045 37.0019 35.7024 37.0019 36.6999C37.0019 37.6308 36.8132 38.4287 36.3728 39.0272C35.9325 39.6256 35.4292 40.1576 34.7371 40.4901C34.0451 40.8226 33.2902 41.0885 32.4094 41.2215C31.5287 41.3545 30.6479 41.421 29.7672 41.421H27.5653C27.1249 41.421 26.7474 41.022 26.7474 40.5566V36.1014C26.7474 35.4365 26.0554 34.971 25.5521 35.3035L15.9268 41.4875V67.6201C15.9268 68.0856 16.3042 68.4845 16.7446 68.4845H33.0385C33.9193 68.4845 34.863 68.418 35.8066 68.3515C36.7503 68.285 37.6311 68.1521 38.6376 67.9526C40.525 67.6201 42.2236 66.9552 43.7334 65.9577C45.2433 64.9603 46.5015 63.6969 47.4452 62.0345C48.3888 60.3721 48.8921 58.2443 48.8921 55.518C48.8921 50.1984 46.124 46.8736 40.6508 45.6767ZM37.3165 57.5793C36.8132 58.2443 36.247 58.7762 35.4292 59.1087C34.6742 59.4412 33.7935 59.7072 32.8498 59.8402C31.9062 59.9732 30.8996 60.0397 29.893 60.0397H27.5024C27.062 60.0397 26.6845 59.6407 26.6845 59.1752V50.3979C26.6845 49.9324 27.062 49.5334 27.5024 49.5334H30.0188C30.9625 49.5334 31.9062 49.5999 32.8498 49.6664C33.7935 49.7329 34.6742 49.9989 35.4292 50.3314C36.1841 50.6638 36.8132 51.2623 37.3165 51.9272C37.8198 52.6587 38.0714 53.5896 38.0714 54.7865C38.0714 55.9835 37.8198 56.9144 37.3165 57.5793Z" fill="#0A1F8F"/>
<path d="M135.395 59.9731H136.59L139.861 68.3515H138.603L137.785 66.2237H133.948L133.13 68.3515H131.935L135.395 59.9731ZM135.898 61.1036L134.325 65.2928H137.471L135.898 61.1036Z" fill="#A2A9AD"/>
<path d="M140.994 59.9731H142.944C143.133 59.9731 143.321 59.9731 143.51 59.9731C143.699 59.9731 143.888 59.9731 144.076 60.0396C144.265 60.0396 144.454 60.1061 144.58 60.1726C144.768 60.2391 144.894 60.3056 145.02 60.3721C145.146 60.4386 145.272 60.5716 145.397 60.6381C145.523 60.7711 145.586 60.9041 145.712 61.0371C145.775 61.1701 145.838 61.3695 145.901 61.569C145.964 61.7685 145.964 61.968 145.964 62.234C145.964 62.5 145.901 62.6994 145.838 62.9654C145.775 63.1649 145.649 63.3644 145.523 63.5639C145.397 63.6969 145.209 63.8964 145.02 63.9629C144.831 64.0958 144.58 64.1623 144.391 64.1623C144.454 64.2288 144.58 64.2288 144.643 64.2953C144.705 64.3618 144.768 64.3618 144.831 64.4283C144.957 64.5613 145.083 64.7608 145.209 64.9603L146.719 68.285H145.397L144.202 65.3592C144.139 65.1598 144.013 65.0268 143.95 64.8938C143.888 64.7608 143.762 64.6943 143.636 64.6278C143.51 64.5613 143.447 64.5613 143.321 64.5613C143.196 64.5613 143.07 64.5613 142.881 64.5613H142.189V68.3515H141.057V59.9731H140.994ZM142.126 63.5639H143.07C143.636 63.5639 144.013 63.4309 144.328 63.2314C144.643 63.0319 144.768 62.6994 144.768 62.3005C144.768 61.9015 144.643 61.6355 144.391 61.3695C144.139 61.1701 143.699 61.0371 143.196 61.0371H142.126V63.5639Z" fill="#A2A9AD"/>
<path d="M150.43 59.9731H151.626L154.96 68.3515H153.702L152.884 66.2237H149.046L148.229 68.3515H147.033L150.43 59.9731ZM150.997 61.1036L149.424 65.2928H152.569L150.997 61.1036Z" fill="#A2A9AD"/>
<path d="M156.03 59.9731H158.169C158.546 59.9731 158.924 60.0396 159.301 60.1061C159.616 60.1726 159.93 60.3056 160.182 60.5051C160.434 60.7046 160.622 60.9041 160.748 61.1701C160.874 61.436 160.937 61.7685 160.937 62.1675C160.937 62.7659 160.811 63.1649 160.496 63.4974C160.182 63.8299 159.804 64.0293 159.301 64.1623C159.553 64.1623 159.804 64.2288 160.056 64.3618C160.308 64.4948 160.496 64.6278 160.622 64.7608C160.811 64.9603 160.937 65.1598 161 65.3592C161.063 65.6252 161.126 65.8912 161.126 66.1572C161.126 66.6227 161.063 66.9551 160.874 67.2876C160.685 67.5536 160.496 67.8196 160.245 67.9526C159.993 68.152 159.679 68.2185 159.301 68.285C158.924 68.3515 158.546 68.3515 158.169 68.3515H156.093V59.9731H156.03ZM157.162 63.5639H157.791C158.043 63.5639 158.295 63.5639 158.546 63.4974C158.798 63.4974 158.987 63.4309 159.175 63.2979C159.364 63.2314 159.49 63.0984 159.616 62.8989C159.742 62.6994 159.804 62.5 159.804 62.1675C159.804 61.9015 159.742 61.702 159.679 61.569C159.616 61.436 159.49 61.303 159.301 61.1701C159.175 61.1036 158.987 61.0371 158.861 60.9706C158.672 60.9041 158.546 60.9041 158.357 60.9041H157.162V63.5639ZM157.162 67.3541H157.98C158.232 67.3541 158.483 67.3541 158.735 67.2876C158.987 67.2211 159.175 67.1546 159.364 67.0881C159.553 67.0216 159.679 66.8221 159.804 66.6891C159.93 66.4897 159.993 66.2902 159.993 66.0242C159.993 65.6917 159.93 65.4257 159.804 65.2263C159.679 65.0268 159.553 64.8938 159.301 64.7608C159.112 64.6278 158.861 64.5613 158.672 64.5613C158.42 64.5613 158.169 64.4948 157.917 64.4948H157.162V67.3541Z" fill="#A2A9AD"/>
<path d="M164.145 59.9731H163.013V68.3515H164.145V59.9731Z" fill="#A2A9AD"/>
<path d="M168.675 59.9731H169.87L173.204 68.3515H171.946L171.128 66.2237H167.291L166.473 68.3515H165.277L168.675 59.9731ZM169.241 61.1036L167.668 65.2928H170.814L169.241 61.1036Z" fill="#A2A9AD"/>
<path d="M137.722 51.9938C137.722 52.1268 137.722 52.3263 137.722 52.3928C137.722 52.5258 137.785 52.5923 137.848 52.6588C137.911 52.7253 137.974 52.7918 138.1 52.7918C138.226 52.7918 138.352 52.8583 138.477 52.8583H142.189C142.315 52.8583 142.441 52.8583 142.504 52.9248C142.567 52.9913 142.63 53.0578 142.63 53.1907V53.5897C142.63 53.6562 142.63 53.7227 142.567 53.7892C142.567 53.8557 142.504 53.8557 142.504 53.9222C142.441 53.9222 142.441 53.9887 142.378 53.9887C142.315 53.9887 142.252 53.9887 142.189 53.9887H138.226C137.974 53.9887 137.722 53.9887 137.597 53.9222C137.408 53.8557 137.282 53.7892 137.156 53.7227C137.03 53.6562 136.968 53.5232 136.905 53.4567C136.842 53.3237 136.779 53.2572 136.779 53.1243C136.464 53.3237 136.213 53.4567 135.961 53.5232C135.709 53.5897 135.458 53.6562 135.143 53.6562C134.891 53.6562 134.703 53.5897 134.451 53.5232C134.199 53.4567 134.011 53.3237 133.822 53.1907C133.633 53.0578 133.445 52.8583 133.382 52.5923C133.256 52.3263 133.193 52.0603 133.193 51.7279C133.193 51.3954 133.256 51.1294 133.382 50.9299C133.507 50.6639 133.633 50.4644 133.822 50.265C134.011 50.0655 134.262 49.9325 134.514 49.733C134.766 49.6 135.017 49.467 135.269 49.334C135.521 49.201 135.772 49.1345 136.024 49.0681C136.276 49.0016 136.527 48.9351 136.716 48.8686V48.2036H137.785V51.9938H137.722ZM136.716 49.7995C136.338 49.866 135.961 49.999 135.646 50.0655C135.332 50.1985 135.08 50.265 134.829 50.4644C134.577 50.5974 134.451 50.7969 134.325 50.9299C134.199 51.1294 134.137 51.3289 134.137 51.5284C134.137 51.7279 134.199 51.8608 134.262 51.9938C134.325 52.1268 134.451 52.1933 134.514 52.2598C134.64 52.3263 134.766 52.3928 134.891 52.3928C135.017 52.3928 135.206 52.4593 135.332 52.4593C135.583 52.4593 135.835 52.3928 136.087 52.3263C136.338 52.2598 136.527 52.1268 136.716 51.9938V49.7995ZM134.829 46.6742C134.829 46.6077 134.829 46.4747 134.891 46.4082C134.954 46.3418 134.954 46.2753 135.017 46.2088C135.08 46.1423 135.143 46.0758 135.206 46.0758C135.269 46.0093 135.332 46.0093 135.458 46.0093C135.521 46.0093 135.646 46.0093 135.709 46.0758C135.772 46.1423 135.835 46.1423 135.898 46.2088C135.961 46.2753 136.024 46.3418 136.024 46.4082C136.087 46.4747 136.087 46.5412 136.087 46.6742C136.087 46.7407 136.087 46.8737 136.024 46.9402C135.961 47.0067 135.961 47.0732 135.898 47.1397C135.835 47.2062 135.772 47.2727 135.709 47.2727C135.646 47.3392 135.583 47.3392 135.458 47.3392C135.269 47.3392 135.143 47.2727 135.017 47.1397C134.891 47.0067 134.829 46.8737 134.829 46.6742ZM136.464 46.6742C136.464 46.6077 136.464 46.4747 136.527 46.4082C136.59 46.3418 136.59 46.2753 136.653 46.2088C136.716 46.1423 136.779 46.0758 136.842 46.0758C136.905 46.0093 136.968 46.0093 137.093 46.0093C137.156 46.0093 137.282 46.0093 137.345 46.0758C137.408 46.1423 137.471 46.1423 137.534 46.2088C137.597 46.2753 137.66 46.3418 137.66 46.4082C137.722 46.4747 137.722 46.5412 137.722 46.6742C137.722 46.7407 137.722 46.8737 137.66 46.9402C137.597 47.0067 137.597 47.0732 137.534 47.1397C137.471 47.2062 137.408 47.2727 137.345 47.2727C137.282 47.3392 137.219 47.3392 137.093 47.3392C136.905 47.3392 136.779 47.2727 136.653 47.1397C136.527 47.0067 136.464 46.8737 136.464 46.6742Z" fill="#A2A9AD"/>
<path d="M144.769 52.4594C144.957 52.5924 145.146 52.6589 145.398 52.7254C145.649 52.7919 145.901 52.7919 146.216 52.7919H146.278C146.404 52.7919 146.53 52.7919 146.593 52.8584C146.656 52.9249 146.719 52.9914 146.719 53.1244V53.5234C146.719 53.5899 146.719 53.6563 146.656 53.7228C146.656 53.7893 146.593 53.7893 146.593 53.8558C146.53 53.8558 146.53 53.9223 146.467 53.9223C146.404 53.9223 146.341 53.9223 146.278 53.9223H146.216C145.838 53.9223 145.461 53.8558 145.209 53.7893C144.957 53.6563 144.706 53.5234 144.517 53.3904C144.391 53.5234 144.265 53.7228 144.139 53.7893C143.951 53.9223 143.762 53.9888 143.51 53.9888H142.126C142 53.9888 138.603 53.9888 138.54 53.9223C138.477 53.8558 138.415 53.7893 138.415 53.6563V53.2574C138.415 53.1909 138.415 53.1244 138.477 53.0579C138.477 52.9914 138.54 52.9914 138.54 52.9249C138.603 52.9249 141.938 52.8584 141.938 52.8584C142 52.8584 142.063 52.8584 142.126 52.8584H143.322C143.447 52.8584 143.573 52.7919 143.636 52.6589C143.699 52.5259 143.762 52.3929 143.762 52.127V49.2012H144.831V52.4594H144.769ZM142.755 55.7842C142.755 55.7177 142.755 55.5847 142.818 55.5182C142.881 55.4517 142.881 55.3852 142.944 55.3187C143.007 55.2522 143.07 55.1857 143.133 55.1857C143.196 55.1192 143.259 55.1192 143.385 55.1192C143.447 55.1192 143.573 55.1192 143.636 55.1857C143.699 55.2522 143.762 55.2522 143.825 55.3187C143.888 55.3852 143.951 55.4517 143.951 55.5182C144.014 55.5847 144.014 55.6512 144.014 55.7842C144.014 55.8507 144.014 55.9837 143.951 56.0502C143.888 56.1167 143.888 56.1832 143.825 56.2497C143.762 56.3162 143.699 56.3826 143.636 56.3826C143.573 56.4491 143.51 56.4491 143.385 56.4491C143.196 56.4491 143.07 56.3826 142.944 56.2497C142.818 56.1167 142.755 55.9837 142.755 55.7842ZM144.391 55.7842C144.391 55.7177 144.391 55.5847 144.454 55.5182C144.517 55.4517 144.517 55.3852 144.58 55.3187C144.643 55.2522 144.706 55.1857 144.769 55.1857C144.831 55.1192 144.894 55.1192 145.02 55.1192C145.083 55.1192 145.209 55.1192 145.272 55.1857C145.335 55.2522 145.398 55.2522 145.461 55.3187C145.523 55.3852 145.586 55.4517 145.586 55.5182C145.649 55.5847 145.649 55.6512 145.649 55.7842C145.649 55.8507 145.649 55.9837 145.586 56.0502C145.523 56.1167 145.523 56.1832 145.461 56.2497C145.398 56.3162 145.335 56.3826 145.272 56.3826C145.209 56.4491 145.146 56.4491 145.02 56.4491C144.831 56.4491 144.706 56.3826 144.58 56.2497C144.454 56.1167 144.391 55.9837 144.391 55.7842Z" fill="#A2A9AD"/>
<path d="M146.341 53.9224C146.215 53.9224 146.09 53.9224 146.027 53.8559C145.964 53.7894 145.901 53.7229 145.901 53.5899V53.191C145.901 53.1245 145.901 53.058 145.964 52.9915C145.964 52.925 146.027 52.925 146.027 52.8585C146.09 52.8585 146.09 52.792 146.153 52.792C146.215 52.792 146.278 52.792 146.341 52.792H151.563V49.1348H152.632V53.8559H146.341V53.9224ZM151.437 55.7843C151.437 55.7178 151.437 55.5848 151.5 55.5183C151.563 55.4518 151.563 55.3853 151.626 55.3188C151.689 55.2523 151.752 55.1858 151.815 55.1858C151.877 55.1193 151.94 55.1193 152.066 55.1193C152.129 55.1193 152.255 55.1193 152.318 55.1858C152.381 55.2523 152.444 55.2523 152.507 55.3188C152.569 55.3853 152.632 55.4518 152.632 55.5183C152.695 55.5848 152.695 55.6513 152.695 55.7843C152.695 55.8508 152.695 55.9838 152.632 56.0503C152.569 56.1168 152.569 56.1832 152.507 56.2497C152.444 56.3162 152.381 56.3827 152.318 56.3827C152.255 56.4492 152.192 56.4492 152.066 56.4492C151.877 56.4492 151.752 56.3827 151.626 56.2497C151.5 56.1168 151.437 55.9838 151.437 55.7843Z" fill="#A2A9AD"/>
<path d="M153.451 55.4518C153.891 55.3853 154.206 55.3188 154.457 55.1858C154.709 55.0528 154.898 54.9198 155.023 54.7204C155.149 54.5209 155.212 54.3214 155.275 54.0554C155.338 53.7894 155.338 53.5234 155.338 53.191V49.1348H156.407V52.792H157.792C157.917 52.792 158.043 52.792 158.106 52.8585C158.169 52.925 158.232 52.9915 158.232 53.1245V53.5234C158.232 53.5899 158.232 53.6564 158.169 53.7229C158.169 53.7894 158.106 53.7894 158.106 53.8559C158.043 53.8559 158.043 53.9224 157.98 53.9224C157.917 53.9224 157.854 53.9224 157.792 53.9224H156.345C156.282 54.3214 156.219 54.7204 156.03 54.9863C155.904 55.2523 155.715 55.5183 155.464 55.7178C155.212 55.9173 154.961 56.0503 154.646 56.1832C154.331 56.3162 153.954 56.3827 153.576 56.4492L153.451 55.4518Z" fill="#A2A9AD"/>
<path d="M160.182 52.5258C159.993 52.3928 159.867 52.2598 159.678 52.0603C159.49 51.8608 159.364 51.6614 159.238 51.4619C159.112 51.2624 158.986 51.0629 158.86 50.9299C158.735 50.7304 158.672 50.6639 158.609 50.5309C158.609 50.4644 158.672 50.3315 158.672 50.265C158.672 50.132 158.735 50.0655 158.798 49.9325C158.86 49.7995 158.86 49.733 158.923 49.6665C158.986 49.6 158.986 49.5335 159.049 49.5335C159.175 49.467 159.301 49.4005 159.49 49.334C159.678 49.2675 159.867 49.201 160.056 49.1345C160.245 49.0681 160.496 49.0016 160.748 49.0016C160.999 48.9351 161.251 48.9351 161.566 48.9351C161.754 48.9351 162.006 48.9351 162.195 49.0016C162.383 49.0681 162.572 49.1345 162.761 49.201C162.95 49.2675 163.075 49.4005 163.201 49.5335C163.327 49.6665 163.39 49.7995 163.39 49.999C163.39 50.132 163.39 50.265 163.327 50.4644C163.327 50.6639 163.264 50.8634 163.138 51.0629C163.075 51.2624 162.887 51.5284 162.761 51.7944C162.572 52.0603 162.383 52.3263 162.069 52.6588C162.132 52.7253 162.258 52.7253 162.383 52.7918C162.509 52.8583 162.635 52.8583 162.824 52.8583C163.013 52.8583 163.138 52.9248 163.327 52.9248C163.516 52.9248 163.705 52.9248 163.893 52.9248H164.397C164.522 52.9248 164.648 52.9248 164.711 52.9913C164.774 53.0578 164.837 53.1243 164.837 53.2572V53.6562C164.837 53.7227 164.837 53.7892 164.774 53.8557C164.774 53.9222 164.711 53.9222 164.711 53.9887C164.648 53.9887 164.648 54.0552 164.585 54.0552C164.522 54.0552 164.46 54.0552 164.397 54.0552H163.642C163.327 54.0552 163.013 54.0552 162.761 53.9887C162.509 53.9222 162.258 53.8557 162.006 53.7892C161.817 53.7227 161.629 53.6562 161.44 53.5232C161.251 53.4567 161.188 53.3902 161.062 53.3237C160.874 53.3902 160.748 53.5232 160.559 53.5897C160.37 53.6562 160.182 53.7227 159.993 53.7892C159.804 53.8557 159.552 53.9222 159.301 53.9222C159.049 53.9887 158.798 53.9887 158.546 53.9887H157.791C157.665 53.9887 157.539 53.9887 157.476 53.9222C157.414 53.8557 157.351 53.7892 157.351 53.6562V53.2572C157.351 53.1907 157.351 53.1243 157.351 53.0578C157.351 52.9913 157.414 52.9913 157.414 52.9248C157.476 52.9248 157.476 52.8583 157.539 52.8583C157.602 52.8583 157.665 52.8583 157.728 52.8583H158.546C158.735 52.8583 158.986 52.8583 159.112 52.8583C159.301 52.8583 159.49 52.7918 159.615 52.7918C159.741 52.7918 159.867 52.7253 159.993 52.7253C160.056 52.6588 160.182 52.5923 160.182 52.5258ZM162.258 50.5309C162.258 50.4644 162.258 50.3315 162.195 50.265C162.132 50.1985 162.069 50.132 161.943 50.0655C161.817 49.999 161.691 49.9325 161.566 49.9325C161.44 49.866 161.251 49.866 161.062 49.866C160.874 49.866 160.622 49.866 160.37 49.9325C160.119 49.999 159.804 50.0655 159.552 50.265C159.615 50.398 159.678 50.5309 159.804 50.6639C159.93 50.8634 160.056 50.9964 160.182 51.1959C160.307 51.3954 160.496 51.5284 160.622 51.7279C160.811 51.9273 160.937 52.0603 161.125 52.1268C161.314 51.9938 161.44 51.8608 161.629 51.7279C161.754 51.5949 161.88 51.4619 162.006 51.2624C162.132 51.1294 162.195 50.9964 162.258 50.8634C162.258 50.7304 162.258 50.5974 162.258 50.5309Z" fill="#A2A9AD"/>
<path d="M164.271 53.9219C164.145 53.9219 164.019 53.9219 163.956 53.8554C163.893 53.7889 163.831 53.7224 163.831 53.5894V53.1904C163.831 53.1239 163.831 53.0575 163.893 52.991C163.893 52.9245 163.956 52.9245 163.956 52.858C164.019 52.858 164.019 52.7915 164.082 52.7915C164.145 52.7915 164.208 52.7915 164.271 52.7915H169.115V45.1445H170.185V53.9884H164.271V53.9219Z" fill="#A2A9AD"/>
<path d="M173.204 45.1445H172.135V53.9884H173.204V45.1445Z" fill="#A2A9AD"/>
</svg>
