<svg width="190" height="92" viewBox="0 0 190 92" fill="none" xmlns="http://www.w3.org/2000/svg">
<rect x="0.73291" width="188.733" height="91.7633" fill="white"/>
<path d="M110.158 20.9271V19.0495C110.158 18.7992 110.098 18.5488 109.921 18.3611C109.743 18.1733 109.506 18.0481 109.21 18.0481C108.914 18.0481 108.618 18.2359 108.44 18.5488C108.263 18.7992 108.144 19.1121 108.144 19.4876C108.144 19.8632 108.203 20.1761 108.381 20.4264C108.559 20.7394 108.855 20.9271 109.151 20.9271H110.158ZM111.815 21.553H110.631C110.454 22.4918 109.861 22.9299 108.914 22.9925V22.3666H108.973C109.506 22.3666 109.861 22.0537 109.98 21.4904H109.032C108.559 21.4904 108.144 21.3026 107.848 20.9271C107.552 20.5516 107.375 20.0509 107.375 19.4876C107.375 18.9244 107.552 18.4237 107.848 18.0481C108.203 17.6726 108.559 17.4849 109.092 17.4849C110.039 17.4849 110.631 18.1107 110.631 19.2999V20.9897H111.756V21.553H111.815Z" fill="#909496"/>
<path d="M113.711 22.9299H113.118V22.1789H113.711V22.9299ZM112.585 22.9299H111.993V22.1789H112.585V22.9299ZM113.711 17.4849V19.9883C113.711 21.0523 113.296 21.553 112.467 21.553H111.697V20.9271H112.23C112.585 20.9271 112.822 20.802 112.941 20.5516C113 20.3638 113.059 20.1135 113.059 19.6754V17.4849H113.711Z" fill="#909496"/>
<path d="M115.665 15.7949H115.072V21.5529H115.665V15.7949Z" fill="#909496"/>
<path d="M119.514 21.553H118.034C117.856 22.4918 117.323 22.9299 116.316 22.9925V22.3666C117.086 22.3666 117.501 21.9285 117.501 20.8645V17.4849H118.093V20.9271H119.514V21.553Z" fill="#909496"/>
<path d="M124.961 20.6767V21.5529H119.099V20.927H124.251C124.251 20.8019 124.251 20.7393 124.251 20.6141C124.251 19.9256 124.073 19.3624 123.777 18.9868C123.422 18.4861 122.889 18.2358 122.178 18.2358H120.461C120.757 17.6725 121.172 16.8589 121.764 15.7949H122.474L121.468 17.6099H122.237C123.066 17.6099 123.777 17.8603 124.31 18.4236C124.724 18.9868 124.961 19.7379 124.961 20.6767Z" fill="#909496"/>
<path d="M133.133 16.045H132.541V15.2939H133.133V16.045ZM132.896 20.3635C133.607 20.0505 134.08 19.4247 134.08 18.6736C134.08 17.9226 133.607 17.4219 132.896 17.4219C132.185 17.4219 131.712 17.9852 131.712 18.611C131.712 19.3621 132.185 19.9879 132.896 20.3635ZM135.738 21.5526H134.909C133.725 21.5526 133.607 21.49 132.955 21.0519C132.304 21.49 132.126 21.5526 130.942 21.5526H129.58C127.981 21.5526 127.152 20.6764 127.152 18.924V17.6096H127.744V18.924C127.744 20.2383 128.337 20.9267 129.521 20.9267H131.475C131.771 20.9267 132.067 20.8642 132.363 20.739C131.653 20.3635 131.179 19.6124 131.179 18.7988C131.179 17.7348 131.949 16.9212 133.014 16.9212C134.08 16.9212 134.85 17.6722 134.85 18.7988C134.85 19.675 134.376 20.3635 133.666 20.739C133.903 20.8642 134.199 20.9267 134.554 20.9267H135.916V21.5526H135.738Z" fill="#909496"/>
<path d="M137.515 15.7945V19.9878C137.515 21.0518 137.101 21.5525 136.272 21.5525H135.561V20.9266H136.094C136.449 20.9266 136.686 20.8015 136.805 20.5511C136.864 20.3633 136.923 20.113 136.923 19.6749V15.7319H137.515V15.7945Z" fill="#909496"/>
<path d="M140.475 21.5529H139.824C139.528 21.5529 139.291 21.4277 139.054 21.24C138.817 20.9896 138.699 20.6141 138.699 20.176V15.7949H139.291V19.7379C139.291 20.176 139.35 20.4263 139.468 20.6141C139.587 20.7393 139.705 20.8644 139.942 20.8644C140.001 20.8644 140.061 20.8644 140.475 20.8644V21.5529Z" fill="#909496"/>
<path d="M143.791 22.9297H143.199V22.1787H143.791V22.9297ZM146.159 20.6766V21.5528H140.297V20.927H145.449C145.449 20.8018 145.449 20.6766 145.449 20.614C145.449 19.1119 144.679 18.2357 143.376 18.2357C142.666 18.2357 142.133 18.5487 141.778 19.1119C141.718 18.9868 141.541 18.8616 141.245 18.5487C141.718 17.9228 142.429 17.6099 143.317 17.6099C145.034 17.6099 146.159 18.799 146.159 20.6766Z" fill="#909496"/>
<path d="M110.513 67.6163H107.553V50.5928H110.513V67.6163ZM118.389 53.7221C113.356 53.7221 111.579 57.1018 111.579 57.1018C111.579 50.7805 118.389 50.5928 118.389 50.5928V53.7221Z" fill="#365888"/>
<path d="M105.362 31.5665H99.4995C99.4995 31.5665 102.164 32.8808 102.401 35.1339V39.8279C102.401 41.4552 101.454 42.2688 100.388 42.7069C99.914 42.8947 99.381 42.9573 98.9073 43.0199C100.032 43.2076 101.217 43.5206 102.46 44.0213C104.296 42.8321 105.125 41.3926 105.362 41.0171V31.5665ZM96.7164 24.0561C100.269 24.0561 102.815 24.9323 105.362 28.1868V24.5568C102.815 22.3663 99.4403 21.6152 96.7164 21.6152C93.4005 21.6152 90.6767 22.7418 88.545 25.0575C86.4726 27.3106 85.4067 30.2522 85.4067 33.757C85.4067 36.949 86.4134 39.7028 88.4266 41.9559C89.2556 42.8321 90.1438 43.5831 91.1504 44.1464C92.2163 43.6457 93.7558 43.0825 95.6506 42.8947C92.0386 42.1437 88.4858 38.3259 88.4858 33.5693C88.4858 28.312 92.4531 24.0561 96.7164 24.0561Z" fill="#909496"/>
<path d="M113.592 43.1448C111.579 42.6441 110.513 41.0794 110.513 38.8263V28.4995H107.553V39.8277C107.553 41.8305 108.559 44.2713 111.106 45.2101C114.066 46.2741 116.968 44.4591 117.501 42.7067C117.737 41.9556 117.678 41.5801 117.678 41.5801C117.678 41.5801 116.375 43.8958 113.592 43.1448ZM118.981 45.5231H121.942V28.4995H118.981V45.5231Z" fill="#909496"/>
<path d="M120.52 50.5928H124.132L130.645 63.2979L135.383 50.5928H138.698L130.349 72.3103C130.053 73.124 128.277 77.3173 124.191 76.3159C122.415 75.8778 121.467 74.3131 121.467 74.3131C121.467 74.3131 123.777 75.1893 125.731 73.6247C127.626 72.2478 129.224 66.8027 129.224 66.8027L120.52 50.5928Z" fill="#365888"/>
<path d="M105.362 50.3426C102.816 47.0881 100.27 46.2119 96.7168 46.2119C92.4535 46.2119 88.4862 50.4678 88.4862 55.725C88.4862 60.9823 92.8087 65.0505 96.7168 65.2382C99.0261 65.3008 101.454 64.8627 105.362 63.2354C104.947 63.8613 102.875 67.7417 96.776 67.7417C93.4009 67.7417 90.6179 66.5525 88.4862 64.1117C86.4729 61.8585 85.4663 59.1047 85.4663 55.9128C85.4663 52.408 86.5321 49.4664 88.6046 47.2133C90.7363 44.8976 93.4601 43.771 96.776 43.771C99.4998 43.771 102.816 44.522 105.421 46.7126V50.3426H105.362Z" fill="#365888"/>
<path d="M152.14 52.9085C153.68 54.5357 154.45 56.5385 154.45 59.1046C154.45 61.608 153.68 63.6734 152.14 65.3006C150.601 66.8653 148.706 67.6163 146.456 67.6163C144.028 67.6163 142.074 66.7401 140.535 65.0503C139.113 63.423 138.403 61.4828 138.403 59.2297C138.403 56.7263 139.173 54.6609 140.653 53.0336C142.133 51.4064 144.087 50.5928 146.456 50.5928C148.706 50.5928 150.601 51.3438 152.14 52.9085ZM141.363 59.042C141.363 62.7972 143.614 65.8013 146.397 65.8013C149.18 65.8013 151.43 62.7972 151.43 59.042C151.43 55.2868 149.18 52.2826 146.397 52.2826C143.614 52.3452 141.363 55.3494 141.363 59.042Z" fill="#365888"/>
<path d="M124.132 39.828V23.3677H127.093V38.8266C127.093 41.0797 128.159 42.6444 130.172 43.1451C132.955 43.8961 134.258 41.5804 134.258 41.5804C134.258 41.5804 134.317 41.9559 134.08 42.7069C133.547 44.4594 130.646 46.2744 127.685 45.2104C125.139 44.2716 124.132 41.8307 124.132 39.828Z" fill="#909496"/>
<path d="M136.508 29.063C136.508 27.0602 137.515 24.6193 140.061 23.6805C143.021 22.6165 145.923 24.4315 146.456 26.184C146.693 26.935 146.633 27.3105 146.633 27.3105C146.633 27.3105 145.331 24.9948 142.548 25.7459C140.534 26.2466 139.469 27.8112 139.469 30.0643V31.8794H144.798V33.3188H139.469V45.5232H136.508V33.3814H134.258V31.9419H136.508V29.063Z" fill="#909496"/>
<path d="M36.0226 21.5527H79.6035V67.6165H63.8528C71.6689 63.9239 76.9981 55.9754 76.9981 46.8377C76.9981 34.1327 66.695 23.8059 53.9642 23.8059C46.681 23.8059 40.1675 27.1855 35.9634 32.4428V21.5527H36.0226ZM46.2073 67.6791H36.0226V60.8571C39.0425 64.1117 43.5427 65.2382 49.1679 64.1116C43.6019 61.6082 39.6346 54.8488 39.6346 46.9003C39.6346 36.8239 46.0888 28.625 54.0234 28.625C61.958 28.625 68.4122 36.8239 68.4122 46.9003C68.4122 53.3468 65.7476 59.0421 61.7803 62.2966C60.8921 63.1103 56.5696 66.9281 46.2073 67.6791Z" fill="#365888"/>
</svg>
