<svg width="190" height="93" viewBox="0 0 190 93" fill="none" xmlns="http://www.w3.org/2000/svg">
<rect x="0.931641" y="0.289551" width="188.733" height="91.7633" fill="white"/>
<mask id="mask0_208_65939" style="mask-type:luminance" maskUnits="userSpaceOnUse" x="48" y="8" width="94" height="76">
<path d="M141.145 8.28955H48.9316V83.2896H141.145V8.28955Z" fill="white"/>
</mask>
<g mask="url(#mask0_208_65939)">
<path d="M123.606 27.1548V58.5167H109.922V38.2345H82.811L92.1983 27.1548H123.606Z" fill="#A14516"/>
<path opacity="0.5" d="M123.606 27.1548V58.5167H109.922V38.2345H82.811L92.1983 27.1548H123.606Z" fill="url(#paint0_linear_208_65939)"/>
<path d="M123.606 32.584V58.4981H85.6694C71.8006 58.4981 60.5137 47.2343 60.5137 33.3939C60.4953 19.5534 71.7821 8.28955 85.6694 8.28955H123.606L113.278 21.9459H85.6694C79.3436 21.9459 74.1797 27.081 74.1797 33.4122C74.1797 39.7436 79.3252 44.8785 85.6694 44.8785H110.715C117.612 44.86 123.292 39.4122 123.606 32.584Z" fill="url(#paint1_linear_208_65939)"/>
<path opacity="0.5" d="M123.606 8.28955L113.278 21.9459H73.405C66.489 21.9459 60.8271 27.3939 60.5136 34.2036C60.5136 33.9459 60.4951 33.6699 60.4951 33.3939C60.4951 19.5534 71.782 8.28955 85.6693 8.28955H123.606Z" fill="url(#paint2_linear_208_65939)"/>
<mask id="mask1_208_65939" style="mask-type:luminance" maskUnits="userSpaceOnUse" x="48" y="8" width="94" height="76">
<path d="M141.145 8.28955H48.9316V83.2896H141.145V8.28955Z" fill="white"/>
</mask>
<g mask="url(#mask1_208_65939)">
<path d="M54.1509 72.854C54.1509 73.8295 53.5239 74.5105 52.6202 74.5105C51.6427 74.5105 51.071 73.8295 51.071 72.854C51.071 72.3572 51.2185 71.9522 51.4952 71.6577H50.4993C49.8353 71.6577 49.448 72.2835 49.448 73.2773V75.7436H48.9316L48.9316 73.259C48.9316 71.897 49.448 71.2344 50.4993 71.2344H52.6202C53.5607 71.1976 54.1509 71.8602 54.1509 72.854ZM53.5423 72.7988C53.5423 72.0994 53.2288 71.6577 52.657 71.6577C52.0484 71.6577 51.7165 72.1179 51.7165 72.8724C51.7165 73.5718 52.0484 74.0135 52.6202 74.0135C53.2288 74.032 53.5423 73.627 53.5423 72.7988Z" fill="black"/>
</g>
<mask id="mask2_208_65939" style="mask-type:luminance" maskUnits="userSpaceOnUse" x="48" y="8" width="94" height="76">
<path d="M141.145 8.28955H48.9316V83.2896H141.145V8.28955Z" fill="white"/>
</mask>
<g mask="url(#mask2_208_65939)">
<path d="M55.3129 73.7744H54.6489V74.5291H55.3129V73.7744Z" fill="black"/>
</g>
<mask id="mask3_208_65939" style="mask-type:luminance" maskUnits="userSpaceOnUse" x="48" y="8" width="94" height="76">
<path d="M141.145 8.28955H48.9316V83.2896H141.145V8.28955Z" fill="white"/>
</mask>
<g mask="url(#mask3_208_65939)">
<path d="M61.2147 72.854C61.2147 73.8295 60.6061 74.5105 59.684 74.5105C58.7066 74.5105 58.1348 73.8295 58.1348 72.854C58.1348 72.3572 58.2824 71.9522 58.559 71.6577H57.5447C56.8807 71.6577 56.4934 72.2835 56.4934 73.2773V75.7436H55.9771V73.259C55.9771 71.897 56.4934 71.2344 57.5447 71.2344H59.6656C60.6245 71.1976 61.2147 71.8602 61.2147 72.854ZM60.6061 72.7988C60.6061 72.0994 60.2926 71.6577 59.7209 71.6577C59.1123 71.6577 58.7803 72.1179 58.7803 72.8724C58.7803 73.5718 59.1123 74.0135 59.684 74.0135C60.2926 74.032 60.6061 73.627 60.6061 72.7988Z" fill="black"/>
</g>
<mask id="mask4_208_65939" style="mask-type:luminance" maskUnits="userSpaceOnUse" x="48" y="8" width="94" height="76">
<path d="M141.145 8.28955H48.9316V83.2896H141.145V8.28955Z" fill="white"/>
</mask>
<g mask="url(#mask4_208_65939)">
<path d="M62.3763 73.7744H61.7124V74.5291H62.3763V73.7744Z" fill="black"/>
</g>
<mask id="mask5_208_65939" style="mask-type:luminance" maskUnits="userSpaceOnUse" x="48" y="8" width="94" height="76">
<path d="M141.145 8.28955H48.9316V83.2896H141.145V8.28955Z" fill="white"/>
</mask>
<g mask="url(#mask5_208_65939)">
<path d="M66.4714 74.5289H63.207V74.0135H65.9181C65.9181 73.3693 65.8074 72.8356 65.5677 72.4307C65.2726 71.9522 64.8115 71.6945 64.2029 71.676H64.0001V71.1975C65.0329 71.1975 65.7521 71.6025 66.121 72.4307C66.3607 72.9092 66.4714 73.6086 66.4714 74.5289ZM64.8669 70.6638H64.3505V70.0381H64.8669V70.6638Z" fill="black"/>
</g>
<mask id="mask6_208_65939" style="mask-type:luminance" maskUnits="userSpaceOnUse" x="48" y="8" width="94" height="76">
<path d="M141.145 8.28955H48.9316V83.2896H141.145V8.28955Z" fill="white"/>
</mask>
<g mask="url(#mask6_208_65939)">
<path d="M73.7746 71.1976V73.2405C73.7746 74.1056 73.4241 74.5289 72.7049 74.5289H70.4549C69.0348 74.5289 68.334 73.8112 68.334 72.3939V71.1976H68.8504V72.3939C68.8504 73.4798 69.3668 74.0135 70.3996 74.0135H72.5389C73.0553 74.0135 73.2766 73.8112 73.2766 73.0013V71.1976H73.7746ZM70.8606 71.1976H70.3442V70.5718H70.8606V71.1976ZM71.8196 71.1976H71.3032V70.5718H71.8196V71.1976Z" fill="black"/>
</g>
<mask id="mask7_208_65939" style="mask-type:luminance" maskUnits="userSpaceOnUse" x="48" y="8" width="94" height="76">
<path d="M141.145 8.28955H48.9316V83.2896H141.145V8.28955Z" fill="white"/>
</mask>
<g mask="url(#mask7_208_65939)">
<path d="M75.2864 69.7808H74.77V74.5292H75.2864V69.7808Z" fill="black"/>
</g>
<mask id="mask8_208_65939" style="mask-type:luminance" maskUnits="userSpaceOnUse" x="48" y="8" width="94" height="76">
<path d="M141.145 8.28955H48.9316V83.2896H141.145V8.28955Z" fill="white"/>
</mask>
<g mask="url(#mask8_208_65939)">
<path d="M78.5133 73.2587L77.9969 73.3139C77.9416 73.0195 77.794 72.8723 77.5174 72.8723C77.167 72.8723 77.001 73.1115 77.001 73.5716C77.001 73.7557 77.0379 73.9029 77.1117 74.0134H78.4949V74.5287H76.042V74.0134H76.5584C76.5031 73.8661 76.4662 73.7372 76.4662 73.5716C76.4662 73.2404 76.5399 73.0011 76.7059 72.7986C76.8904 72.5778 77.1485 72.4673 77.499 72.4673C78.0707 72.4673 78.4026 72.725 78.5133 73.2587Z" fill="black"/>
</g>
<mask id="mask9_208_65939" style="mask-type:luminance" maskUnits="userSpaceOnUse" x="48" y="8" width="94" height="76">
<path d="M141.145 8.28955H48.9316V83.2896H141.145V8.28955Z" fill="white"/>
</mask>
<g mask="url(#mask9_208_65939)">
<path d="M81.1136 74.5292H80.5419C80.2837 74.5292 80.0624 74.4372 79.878 74.2531C79.6567 74.0507 79.5645 73.7563 79.5645 73.3697V69.7808H80.0993V73.0568C80.0993 73.3881 80.1546 73.6274 80.2468 73.793C80.3206 73.9219 80.4681 73.9955 80.671 74.0138C80.7263 74.0138 80.7817 74.0138 81.1505 74.0138V74.5292H81.1136Z" fill="black"/>
</g>
<mask id="mask10_208_65939" style="mask-type:luminance" maskUnits="userSpaceOnUse" x="48" y="8" width="94" height="76">
<path d="M141.145 8.28955H48.9316V83.2896H141.145V8.28955Z" fill="white"/>
</mask>
<g mask="url(#mask10_208_65939)">
<path d="M87.938 74.5286H80.9482V74.0133H81.6306C82.1101 74.0133 82.4052 73.7004 82.4052 73.0747V71.1973H82.9216V73.2403C82.9216 73.5348 82.8847 73.7925 82.7925 73.9948V74.0317H83.7515C84.231 74.0317 84.3786 73.8108 84.3786 73.0195V71.2158H84.895V73.2587C84.895 73.5715 84.8581 73.8292 84.7474 74.0317H85.6327C86.1859 74.0317 86.3704 73.8108 86.3704 73.0195V71.2158H86.8868V73.2587C86.8868 73.5715 86.8314 73.8292 86.7392 74.0317H87.9196V74.5286H87.938ZM84.4339 70.6636H83.9175V70.0378H84.4339V70.6636ZM84.9134 69.8537H84.397V69.228H84.9134V69.8537ZM85.4114 70.6636H84.895V70.0378H85.4114V70.6636Z" fill="black"/>
</g>
<mask id="mask11_208_65939" style="mask-type:luminance" maskUnits="userSpaceOnUse" x="48" y="8" width="94" height="76">
<path d="M141.145 8.28955H48.9316V83.2896H141.145V8.28955Z" fill="white"/>
</mask>
<g mask="url(#mask11_208_65939)">
<path d="M89.5055 71.1975V73.2405C89.5055 74.1055 89.1552 74.5289 88.4175 74.5289H87.772V74.0135H88.2514C88.5649 74.0135 88.7679 73.903 88.8785 73.7007C88.9523 73.5718 88.9891 73.3326 88.9891 73.0012V71.1975H89.5055ZM89.5055 70.6638H88.9891V70.0381H89.5055V70.6638Z" fill="black"/>
</g>
<mask id="mask12_208_65939" style="mask-type:luminance" maskUnits="userSpaceOnUse" x="48" y="8" width="94" height="76">
<path d="M141.145 8.28955H48.9316V83.2896H141.145V8.28955Z" fill="white"/>
</mask>
<g mask="url(#mask12_208_65939)">
<path d="M94.6505 74.5292H90.335V74.0138H91.5337L90.5932 70.3329H91.1464L92.087 74.0138H92.2899C92.8247 74.0138 93.0276 73.793 93.0276 73.0016V69.7808H93.544V73.2408C93.544 73.5538 93.4887 73.8115 93.3964 74.0138H94.669L94.6505 74.5292Z" fill="black"/>
</g>
<mask id="mask13_208_65939" style="mask-type:luminance" maskUnits="userSpaceOnUse" x="48" y="8" width="94" height="76">
<path d="M141.145 8.28955H48.9316V83.2896H141.145V8.28955Z" fill="white"/>
</mask>
<g mask="url(#mask13_208_65939)">
<path d="M96.1633 69.7808V73.2408C96.1633 74.1059 95.8129 74.5292 95.0752 74.5292H94.4297V74.0138H94.9092C95.2227 74.0138 95.4256 73.9034 95.5362 73.701C95.61 73.5722 95.6469 73.3329 95.6469 73.0016V69.7808H96.1633Z" fill="black"/>
</g>
<mask id="mask14_208_65939" style="mask-type:luminance" maskUnits="userSpaceOnUse" x="48" y="8" width="94" height="76">
<path d="M141.145 8.28955H48.9316V83.2896H141.145V8.28955Z" fill="white"/>
</mask>
<g mask="url(#mask14_208_65939)">
<path d="M102.212 74.5291H101.862C101.124 74.5291 100.663 74.161 100.46 73.4615C100.239 73.8296 99.8701 74.0321 99.3353 74.0321C98.5792 74.0321 98.0259 73.2592 98.0259 72.2837C98.0259 71.2346 98.5792 70.5169 99.4275 70.5169H100.995V72.8726C100.995 73.6088 101.346 74.0321 101.936 74.0321H102.212V74.5291ZM100.46 72.1732V70.8849H99.5197C98.948 70.8849 98.5423 71.4739 98.5423 72.2469C98.5423 73.0014 98.9296 73.6273 99.5013 73.6273C100.128 73.6273 100.442 73.1487 100.46 72.1732ZM99.6857 69.9647H99.1693V69.3389H99.6857V69.9647ZM100.645 69.9647H100.128V69.3389H100.645V69.9647Z" fill="black"/>
</g>
<mask id="mask15_208_65939" style="mask-type:luminance" maskUnits="userSpaceOnUse" x="48" y="8" width="94" height="76">
<path d="M141.145 8.28955H48.9316V83.2896H141.145V8.28955Z" fill="white"/>
</mask>
<g mask="url(#mask15_208_65939)">
<path d="M106.233 73.4987C106.233 73.9772 106.104 74.3638 105.845 74.6766C105.569 75.0079 105.2 75.1735 104.72 75.1735C104.149 75.1735 103.725 74.9711 103.448 74.5294H102.028V74.014H103.227C103.19 73.8668 103.153 73.6827 103.153 73.4987C103.153 73.0202 103.3 72.6153 103.577 72.3024C103.854 71.9895 104.241 71.8423 104.72 71.8423C105.2 71.8423 105.587 72.0079 105.845 72.3208C106.104 72.6153 106.233 73.0202 106.233 73.4987ZM105.624 73.4435C105.624 73.1122 105.55 72.8545 105.44 72.652C105.274 72.4128 105.052 72.2839 104.739 72.2839C104.407 72.2839 104.149 72.4128 103.983 72.6705C103.835 72.8729 103.78 73.1675 103.78 73.5171C103.78 73.8484 103.854 74.1245 103.983 74.3269C104.149 74.5661 104.388 74.695 104.72 74.695C105.329 74.7134 105.624 74.2901 105.624 73.4435Z" fill="black"/>
</g>
<mask id="mask16_208_65939" style="mask-type:luminance" maskUnits="userSpaceOnUse" x="48" y="8" width="94" height="76">
<path d="M141.145 8.28955H48.9316V83.2896H141.145V8.28955Z" fill="white"/>
</mask>
<g mask="url(#mask16_208_65939)">
<path d="M108.833 74.5292H108.262C108.003 74.5292 107.782 74.4372 107.598 74.2531C107.376 74.0507 107.284 73.7563 107.284 73.3697V69.7808H107.819V73.0568C107.819 73.3881 107.874 73.6274 107.967 73.793C108.04 73.9219 108.188 73.9955 108.391 74.0138C108.446 74.0138 108.501 74.0138 108.852 74.0138L108.833 74.5292Z" fill="black"/>
</g>
<mask id="mask17_208_65939" style="mask-type:luminance" maskUnits="userSpaceOnUse" x="48" y="8" width="94" height="76">
<path d="M141.145 8.28955H48.9316V83.2896H141.145V8.28955Z" fill="white"/>
</mask>
<g mask="url(#mask17_208_65939)">
<path d="M113.997 74.5293H112.577C112.134 74.5293 111.765 74.3452 111.489 73.9588C111.046 74.3452 110.493 74.5293 109.829 74.5293H108.667V74.014H109.81C110.069 74.014 110.308 73.9771 110.493 73.9219C110.677 73.8484 110.899 73.7378 111.138 73.5539C110.733 72.9465 110.216 72.5048 109.571 72.2655V71.695C110.179 71.3085 110.788 71.106 111.415 71.106C112.116 71.106 112.761 71.3452 113.351 71.8054C113.167 72.1551 113.019 72.4311 112.89 72.6152C112.632 72.9833 112.319 73.3146 111.913 73.6091C112.079 73.8115 112.263 73.9403 112.429 73.9771C112.503 73.9955 112.706 74.014 113.019 74.014H114.015L113.997 74.5293ZM112.743 71.971C112.429 71.8237 112.226 71.7318 112.19 71.7133C111.931 71.6214 111.692 71.5662 111.433 71.5662C110.991 71.5662 110.53 71.7133 110.032 71.9895C110.364 72.1182 110.64 72.2839 110.88 72.4863C111.083 72.6521 111.304 72.9096 111.544 73.241C112.079 72.8729 112.466 72.4496 112.743 71.971Z" fill="black"/>
</g>
<mask id="mask18_208_65939" style="mask-type:luminance" maskUnits="userSpaceOnUse" x="48" y="8" width="94" height="76">
<path d="M141.145 8.28955H48.9316V83.2896H141.145V8.28955Z" fill="white"/>
</mask>
<g mask="url(#mask18_208_65939)">
<path d="M115.583 69.7808V73.2408C115.583 74.1059 115.214 74.5292 114.495 74.5292H113.85V74.0138H114.311C114.624 74.0138 114.827 73.9034 114.938 73.701C115.011 73.5722 115.048 73.3329 115.048 73.0016V69.7808H115.583Z" fill="black"/>
</g>
<mask id="mask19_208_65939" style="mask-type:luminance" maskUnits="userSpaceOnUse" x="48" y="8" width="94" height="76">
<path d="M141.145 8.28955H48.9316V83.2896H141.145V8.28955Z" fill="white"/>
</mask>
<g mask="url(#mask19_208_65939)">
<path d="M117.095 69.7808H116.579V74.5292H117.095V69.7808Z" fill="black"/>
</g>
<mask id="mask20_208_65939" style="mask-type:luminance" maskUnits="userSpaceOnUse" x="48" y="8" width="94" height="76">
<path d="M141.145 8.28955H48.9316V83.2896H141.145V8.28955Z" fill="white"/>
</mask>
<g mask="url(#mask20_208_65939)">
<path d="M123.2 74.5291H122.868C122.149 74.5291 121.669 74.161 121.466 73.4615C121.245 73.8296 120.876 74.0321 120.341 74.0321C119.585 74.0321 119.032 73.2592 119.032 72.2837C119.032 71.2346 119.585 70.5169 120.433 70.5169H122.001V72.8726C122.001 73.6088 122.351 74.0321 122.942 74.0321H123.218L123.2 74.5291ZM121.466 72.1732V70.8849H120.526C119.954 70.8849 119.548 71.4739 119.548 72.2469C119.548 73.0014 119.935 73.6273 120.507 73.6273C121.134 73.6273 121.448 73.1487 121.466 72.1732ZM120.692 69.9647H120.175V69.3389H120.692V69.9647ZM121.651 69.9647H121.134V69.3389H121.651V69.9647Z" fill="black"/>
</g>
<mask id="mask21_208_65939" style="mask-type:luminance" maskUnits="userSpaceOnUse" x="48" y="8" width="94" height="76">
<path d="M141.145 8.28955H48.9316V83.2896H141.145V8.28955Z" fill="white"/>
</mask>
<g mask="url(#mask21_208_65939)">
<path d="M127.959 73.7928V74.529H122.869V74.0136H127.332C127.332 73.9216 127.35 73.8295 127.35 73.7559C127.35 73.1854 127.221 72.7436 126.944 72.3939C126.631 72.0075 126.151 71.805 125.543 71.805H124.031C124.289 71.3265 124.676 70.6639 125.156 69.7988H125.764L124.897 71.308H125.543C126.281 71.308 126.889 71.529 127.313 72.0075C127.756 72.4308 127.959 73.0381 127.959 73.7928Z" fill="black"/>
</g>
<mask id="mask22_208_65939" style="mask-type:luminance" maskUnits="userSpaceOnUse" x="48" y="8" width="94" height="76">
<path d="M141.145 8.28955H48.9316V83.2896H141.145V8.28955Z" fill="white"/>
</mask>
<g mask="url(#mask22_208_65939)">
<path d="M131.278 74.5291H130.005C129.858 75.2837 129.36 75.6887 128.511 75.7254V75.2284C129.194 75.2284 129.544 74.8603 129.544 73.9954V71.1978H130.06V74.0137H131.278V74.5291Z" fill="black"/>
</g>
<mask id="mask23_208_65939" style="mask-type:luminance" maskUnits="userSpaceOnUse" x="48" y="8" width="94" height="76">
<path d="M141.145 8.28955H48.9316V83.2896H141.145V8.28955Z" fill="white"/>
</mask>
<g mask="url(#mask23_208_65939)">
<path d="M138.046 74.5286H131.057V74.0133H131.739C132.2 74.0133 132.514 73.7004 132.514 73.0747V71.1973H133.03V73.2403C133.03 73.5348 132.993 73.7925 132.901 73.9948V74.0317H133.86C134.321 74.0317 134.487 73.8108 134.487 73.0195V71.2158H135.003V73.2587C135.003 73.5715 134.966 73.8292 134.856 74.0317H135.741C136.294 74.0317 136.479 73.8108 136.479 73.0195V71.2158H136.995V73.2587C136.995 73.5715 136.94 73.8292 136.848 74.0317H138.028L138.046 74.5286ZM134.561 70.6636H134.044V70.0378H134.561V70.6636ZM135.022 69.8537H134.505V69.228H135.022V69.8537ZM135.52 70.6636H135.003V70.0378H135.52V70.6636Z" fill="black"/>
</g>
<mask id="mask24_208_65939" style="mask-type:luminance" maskUnits="userSpaceOnUse" x="48" y="8" width="94" height="76">
<path d="M141.145 8.28955H48.9316V83.2896H141.145V8.28955Z" fill="white"/>
</mask>
<g mask="url(#mask24_208_65939)">
<path d="M139.633 69.7808V73.2408C139.633 74.1059 139.264 74.5292 138.545 74.5292H137.899V74.0138H138.379C138.692 74.0138 138.895 73.9034 139.006 73.701C139.08 73.5722 139.117 73.3329 139.117 73.0016V69.7808H139.633Z" fill="black"/>
</g>
<mask id="mask25_208_65939" style="mask-type:luminance" maskUnits="userSpaceOnUse" x="48" y="8" width="94" height="76">
<path d="M141.145 8.28955H48.9316V83.2896H141.145V8.28955Z" fill="white"/>
</mask>
<g mask="url(#mask25_208_65939)">
<path d="M141.126 69.7808H140.61V74.5292H141.126V69.7808Z" fill="black"/>
</g>
<mask id="mask26_208_65939" style="mask-type:luminance" maskUnits="userSpaceOnUse" x="48" y="8" width="94" height="76">
<path d="M141.145 8.28955H48.9316V83.2896H141.145V8.28955Z" fill="white"/>
</mask>
<g mask="url(#mask26_208_65939)">
<path d="M51.4214 80.4737V81.9645C51.4214 82.2405 51.3661 82.4797 51.2739 82.6822C51.1816 82.8847 51.0341 83.0319 50.8497 83.124C50.6652 83.216 50.4439 83.2712 50.1857 83.2712C49.9275 83.2712 49.6878 83.216 49.5034 83.124C49.3189 83.0319 49.1714 82.8847 49.0792 82.7007C48.987 82.5166 48.9316 82.2957 48.9316 82.0381V79.3693C48.9316 79.0933 48.987 78.854 49.0792 78.67C49.1714 78.4859 49.3189 78.3203 49.5034 78.2282C49.6878 78.1363 49.9091 78.0811 50.1673 78.0811C50.4255 78.0811 50.6468 78.1363 50.8128 78.2282C50.9788 78.3203 51.1263 78.4675 51.2185 78.67C51.3107 78.854 51.3661 79.0933 51.3661 79.351V79.5903H50.8128V79.3326C50.8128 79.167 50.7943 79.0197 50.739 78.9093C50.6837 78.7988 50.6099 78.7068 50.5177 78.6332C50.4255 78.5779 50.2964 78.5411 50.1673 78.5411C50.0198 78.5411 49.8907 78.5779 49.78 78.6332C49.6693 78.6884 49.5956 78.7988 49.5402 78.9093C49.4849 79.0197 49.448 79.1853 49.448 79.351V82.0197C49.448 82.1853 49.4849 82.3141 49.5402 82.4245C49.5956 82.5349 49.6878 82.627 49.7984 82.6822C49.9091 82.7375 50.0382 82.7742 50.2042 82.7742C50.3517 82.7742 50.4808 82.7375 50.5915 82.6822C50.7021 82.627 50.7759 82.5166 50.8312 82.4062C50.8866 82.2774 50.9234 82.1301 50.9234 81.9645V80.9338H50.1857V80.4552L51.4214 80.4737Z" fill="black"/>
</g>
<mask id="mask27_208_65939" style="mask-type:luminance" maskUnits="userSpaceOnUse" x="48" y="8" width="94" height="76">
<path d="M141.145 8.28955H48.9316V83.2896H141.145V8.28955Z" fill="white"/>
</mask>
<g mask="url(#mask27_208_65939)">
<path d="M52.0483 78.1172H52.5647V83.2337H52.0483V78.1172ZM52.3987 78.1172H54.243V78.5957H52.3987V78.1172ZM52.3987 80.4546H54.077V80.9331H52.3987V80.4546ZM52.3987 82.7551H54.243V83.2337H52.3987V82.7551Z" fill="black"/>
</g>
<mask id="mask28_208_65939" style="mask-type:luminance" maskUnits="userSpaceOnUse" x="48" y="8" width="94" height="76">
<path d="M141.145 8.28955H48.9316V83.2896H141.145V8.28955Z" fill="white"/>
</mask>
<g mask="url(#mask28_208_65939)">
<path d="M54.7773 78.1172H55.2569L56.8798 82.3135L56.7876 82.4055V78.1172H57.2855V83.2153H56.806L55.2015 79.0374L55.2753 78.9454V83.2153H54.7773V78.1172Z" fill="black"/>
</g>
<mask id="mask29_208_65939" style="mask-type:luminance" maskUnits="userSpaceOnUse" x="48" y="8" width="94" height="76">
<path d="M141.145 8.28955H48.9316V83.2896H141.145V8.28955Z" fill="white"/>
</mask>
<g mask="url(#mask29_208_65939)">
<path d="M58.0049 78.1172H58.5213V83.2337H58.0049V78.1172ZM58.3368 78.1172H60.1811V78.5957H58.3368V78.1172ZM58.3368 80.4546H60.0151V80.9331H58.3368V80.4546ZM58.3368 82.7551H60.1811V83.2337H58.3368V82.7551Z" fill="black"/>
</g>
<mask id="mask30_208_65939" style="mask-type:luminance" maskUnits="userSpaceOnUse" x="48" y="8" width="94" height="76">
<path d="M141.145 8.28955H48.9316V83.2896H141.145V8.28955Z" fill="white"/>
</mask>
<g mask="url(#mask30_208_65939)">
<path d="M60.7168 78.1172H61.2332V83.2337H60.7168V78.1172ZM61.0303 80.6018H61.9709C62.1184 80.6018 62.2475 80.5833 62.3582 80.5098C62.4688 80.4362 62.5611 80.3625 62.6164 80.2705C62.6717 80.1601 62.7086 80.0313 62.7086 79.884V79.3503C62.7086 79.1846 62.6717 79.0558 62.6164 78.9454C62.5611 78.835 62.4688 78.7429 62.3582 78.6877C62.2475 78.6325 62.1184 78.5957 61.9709 78.5957H61.0303V78.1172H61.934C62.1922 78.1172 62.432 78.1724 62.6164 78.2459C62.8008 78.3196 62.9484 78.4669 63.059 78.6325C63.1512 78.8165 63.2066 79.019 63.2066 79.2583V79.8472C63.2066 80.1048 63.1512 80.3073 63.059 80.4914C62.9668 80.6754 62.8193 80.8043 62.6164 80.8962C62.432 80.9883 62.1922 81.0435 61.934 81.0435H61.0303V80.6018ZM62.1 80.9147L62.5426 80.7491L63.3541 83.2337H62.7639L62.1 80.9147Z" fill="black"/>
</g>
<mask id="mask31_208_65939" style="mask-type:luminance" maskUnits="userSpaceOnUse" x="48" y="8" width="94" height="76">
<path d="M141.145 8.28955H48.9316V83.2896H141.145V8.28955Z" fill="white"/>
</mask>
<g mask="url(#mask31_208_65939)">
<path d="M64.7369 78.1172H65.3455L66.5258 83.2337H65.9541L65.0319 78.6877L64.1098 83.2337H63.5381L64.7369 78.1172ZM64.202 81.5221H65.9356V82.0006H64.202V81.5221Z" fill="black"/>
</g>
<mask id="mask32_208_65939" style="mask-type:luminance" maskUnits="userSpaceOnUse" x="48" y="8" width="94" height="76">
<path d="M141.145 8.28955H48.9316V83.2896H141.145V8.28955Z" fill="white"/>
</mask>
<g mask="url(#mask32_208_65939)">
<path d="M66.9868 78.1172H67.5032V83.2337H66.9868V78.1172ZM67.3372 82.7551H69.1077V83.2337H67.3372V82.7551Z" fill="black"/>
</g>
<mask id="mask33_208_65939" style="mask-type:luminance" maskUnits="userSpaceOnUse" x="48" y="8" width="94" height="76">
<path d="M141.145 8.28955H48.9316V83.2896H141.145V8.28955Z" fill="white"/>
</mask>
<g mask="url(#mask33_208_65939)">
<path d="M71.6348 83.124C71.4504 83.0136 71.3213 82.8663 71.2291 82.6822C71.1369 82.4797 71.0815 82.2589 71.0815 81.9829V79.3878C71.0815 79.1118 71.1369 78.8725 71.2291 78.67C71.3213 78.4675 71.4504 78.3203 71.6348 78.2282C71.8192 78.1363 72.0221 78.0811 72.2803 78.0811C72.5385 78.0811 72.7414 78.1363 72.9258 78.2282C73.1102 78.3203 73.2393 78.4859 73.3315 78.67C73.4238 78.854 73.4791 79.0933 73.4791 79.3693V79.5534H72.9627V79.3693C72.9627 79.2037 72.9442 79.0564 72.8889 78.9277C72.8336 78.7988 72.7598 78.7068 72.6492 78.6515C72.5385 78.5779 72.4279 78.5596 72.2803 78.5596C72.1328 78.5596 72.0221 78.5963 71.9115 78.6515C71.8008 78.7252 71.727 78.8172 71.6717 78.9277C71.6164 79.0564 71.5979 79.2037 71.5979 79.3693V81.9645C71.5979 82.1301 71.6164 82.2774 71.6717 82.4062C71.727 82.535 71.8008 82.627 71.9115 82.6822C72.0221 82.7559 72.1328 82.7742 72.2803 82.7742C72.4279 82.7742 72.557 82.7375 72.6492 82.6822C72.7598 82.6086 72.8336 82.5166 72.8889 82.4062C72.9442 82.2774 72.9627 82.1301 72.9627 81.9645V81.7804H73.4791V81.9645C73.4791 82.2405 73.4238 82.4797 73.3315 82.6638C73.2393 82.8663 73.1102 83.0135 72.9258 83.1056C72.7414 83.216 72.5385 83.2527 72.2803 83.2527C72.0406 83.2896 71.8192 83.2344 71.6348 83.124Z" fill="black"/>
</g>
<mask id="mask34_208_65939" style="mask-type:luminance" maskUnits="userSpaceOnUse" x="48" y="8" width="94" height="76">
<path d="M141.145 8.28955H48.9316V83.2896H141.145V8.28955Z" fill="white"/>
</mask>
<g mask="url(#mask34_208_65939)">
<path d="M74.5487 83.1241C74.3642 83.0322 74.2167 82.8849 74.106 82.6825C74.0138 82.4985 73.9585 82.2592 73.9585 81.983V79.3327C73.9585 79.0567 74.0138 78.8359 74.106 78.6334C74.1983 78.4493 74.3458 78.3021 74.5487 78.1916C74.7331 78.0996 74.9728 78.0444 75.231 78.0444C75.4892 78.0444 75.729 78.0996 75.9134 78.1916C76.0978 78.2837 76.2454 78.4309 76.356 78.6334C76.4483 78.8174 76.5036 79.0567 76.5036 79.3327V81.983C76.5036 82.2592 76.4483 82.48 76.356 82.6825C76.2638 82.8849 76.1163 83.0137 75.9134 83.1241C75.729 83.2162 75.4892 83.2714 75.231 83.2714C74.9728 83.2714 74.7331 83.2346 74.5487 83.1241ZM75.6552 82.7008C75.7659 82.6456 75.8581 82.5537 75.9134 82.4432C75.9687 82.3327 76.0056 82.1855 76.0056 82.0199V79.3327C76.0056 79.1671 75.9687 79.0382 75.9134 78.9094C75.8581 78.799 75.7659 78.707 75.6552 78.6518C75.5446 78.5966 75.397 78.5597 75.2495 78.5597C75.0835 78.5597 74.9544 78.5966 74.8437 78.6518C74.7331 78.707 74.6409 78.799 74.5855 78.9094C74.5302 79.0199 74.4933 79.1671 74.4933 79.3327V82.0199C74.4933 82.1855 74.5302 82.3144 74.5855 82.4432C74.6409 82.5537 74.7331 82.6456 74.8437 82.7008C74.9544 82.756 75.1019 82.7929 75.2495 82.7929C75.397 82.7929 75.5261 82.756 75.6552 82.7008Z" fill="black"/>
</g>
<mask id="mask35_208_65939" style="mask-type:luminance" maskUnits="userSpaceOnUse" x="48" y="8" width="94" height="76">
<path d="M141.145 8.28955H48.9316V83.2896H141.145V8.28955Z" fill="white"/>
</mask>
<g mask="url(#mask35_208_65939)">
<path d="M77.1304 78.1172H77.6099L79.2328 82.3135L79.1591 82.4055V78.1172H79.657V83.2153H79.1591L77.5546 79.0374L77.6283 78.9454V83.2153H77.1304V78.1172Z" fill="black"/>
</g>
<mask id="mask36_208_65939" style="mask-type:luminance" maskUnits="userSpaceOnUse" x="48" y="8" width="94" height="76">
<path d="M141.145 8.28955H48.9316V83.2896H141.145V8.28955Z" fill="white"/>
</mask>
<g mask="url(#mask36_208_65939)">
<path d="M80.8737 83.1423C80.6893 83.0504 80.5417 82.9215 80.468 82.7374C80.3758 82.5534 80.3389 82.3326 80.3389 82.0749V81.8172H80.8368V82.0749C80.8368 82.3141 80.8921 82.4982 81.0212 82.627C81.1503 82.7559 81.3348 82.8111 81.5745 82.8111C81.8143 82.8111 81.9987 82.7559 82.1278 82.627C82.2385 82.4982 82.3122 82.3141 82.3122 82.0749V81.7804C82.3122 81.6148 82.2753 81.4859 82.2016 81.3571C82.1278 81.2282 82.0356 81.1363 81.9249 81.0626C81.8143 80.989 81.6667 80.897 81.4823 80.8049H81.4639H81.4454L81.3901 80.7866C81.1503 80.6761 80.9659 80.5656 80.8368 80.4737C80.6893 80.3816 80.5786 80.2529 80.4864 80.1056C80.3942 79.9583 80.3389 79.7559 80.3389 79.5166V79.2589C80.3389 79.0012 80.3942 78.7804 80.468 78.5963C80.5602 78.4123 80.6893 78.2834 80.8737 78.2099C81.0581 78.1178 81.2794 78.0811 81.5561 78.0811C81.8143 78.0811 82.054 78.1178 82.22 78.2099C82.4044 78.3019 82.5335 78.4307 82.6258 78.6148C82.718 78.7988 82.7549 79.0197 82.7549 79.2774V79.5534H82.2569V79.2774C82.2569 79.0381 82.2016 78.8541 82.0725 78.7252C81.9618 78.5963 81.7774 78.5411 81.5376 78.5411C81.2979 78.5411 81.1135 78.5963 80.9844 78.7252C80.8553 78.8356 80.7999 79.0197 80.7999 79.2405V79.4982C80.7999 79.6638 80.8368 79.7927 80.9106 79.9031C80.9844 80.0136 81.0766 80.1056 81.2057 80.1792C81.3163 80.2529 81.4823 80.3448 81.6852 80.4368C81.7036 80.4368 81.7221 80.4552 81.7405 80.4552C81.759 80.4552 81.7774 80.4737 81.7958 80.4737C81.8143 80.4737 81.8143 80.4737 81.8143 80.492C81.8143 80.492 81.8327 80.4921 81.8327 80.5104C82.0171 80.6025 82.1831 80.7129 82.3122 80.8049C82.4413 80.897 82.552 81.0442 82.6442 81.1915C82.7364 81.3571 82.7733 81.5596 82.7733 81.7804V82.1118C82.7733 82.3878 82.7364 82.6086 82.6442 82.7742C82.552 82.9583 82.4229 83.0871 82.2385 83.1792C82.054 83.2712 81.8327 83.3081 81.5561 83.3081C81.2794 83.2896 81.0581 83.2344 80.8737 83.1423Z" fill="black"/>
</g>
<mask id="mask37_208_65939" style="mask-type:luminance" maskUnits="userSpaceOnUse" x="48" y="8" width="94" height="76">
<path d="M141.145 8.28955H48.9316V83.2896H141.145V8.28955Z" fill="white"/>
</mask>
<g mask="url(#mask37_208_65939)">
<path d="M83.1055 78.1172H85.5952V78.5957H83.1055V78.1172ZM84.1014 78.5405H84.6178V83.2337H84.1014V78.5405Z" fill="black"/>
</g>
<mask id="mask38_208_65939" style="mask-type:luminance" maskUnits="userSpaceOnUse" x="48" y="8" width="94" height="76">
<path d="M141.145 8.28955H48.9316V83.2896H141.145V8.28955Z" fill="white"/>
</mask>
<g mask="url(#mask38_208_65939)">
<path d="M86.0933 78.1172H86.6097V83.2337H86.0933V78.1172ZM86.4068 80.6018H87.3474C87.4949 80.6018 87.624 80.5833 87.7347 80.5098C87.8453 80.4546 87.9191 80.3625 87.9929 80.2705C88.0482 80.1601 88.0851 80.0313 88.0851 79.884V79.3503C88.0851 79.1846 88.0482 79.0558 87.9929 78.9454C87.9375 78.835 87.8453 78.7429 87.7347 78.6877C87.624 78.6325 87.4949 78.5957 87.3474 78.5957H86.4068V78.1172H87.3105C87.5687 78.1172 87.8084 78.1724 87.9929 78.2459C88.1773 78.3196 88.3248 78.4669 88.4355 78.6325C88.5277 78.8165 88.583 79.019 88.583 79.2583V79.8472C88.583 80.1048 88.5277 80.3073 88.4355 80.4914C88.3433 80.6754 88.1957 80.8043 87.9929 80.8962C87.8084 80.9883 87.5687 81.0435 87.3105 81.0435H86.4068V80.6018ZM87.458 80.9147L87.9006 80.7491L88.7121 83.2337H88.1219L87.458 80.9147Z" fill="black"/>
</g>
<mask id="mask39_208_65939" style="mask-type:luminance" maskUnits="userSpaceOnUse" x="48" y="8" width="94" height="76">
<path d="M141.145 8.28955H48.9316V83.2896H141.145V8.28955Z" fill="white"/>
</mask>
<g mask="url(#mask39_208_65939)">
<path d="M89.672 83.1417C89.506 83.0496 89.377 82.9209 89.2847 82.7368C89.1925 82.5528 89.1558 82.3318 89.1558 82.0742V78.1172H89.672V82.111C89.672 82.3318 89.7274 82.5159 89.838 82.6263C89.9487 82.7368 90.1147 82.792 90.336 82.792C90.5573 82.792 90.7233 82.7368 90.8339 82.6263C90.9446 82.5159 91 82.3503 91 82.111V78.1172H91.5163V82.0742C91.5163 82.3503 91.4794 82.5711 91.3872 82.7368C91.295 82.9209 91.166 83.0496 91 83.1417C90.834 83.2337 90.6127 83.2706 90.3545 83.2706C90.0779 83.2889 89.8565 83.2337 89.672 83.1417Z" fill="black"/>
</g>
<mask id="mask40_208_65939" style="mask-type:luminance" maskUnits="userSpaceOnUse" x="48" y="8" width="94" height="76">
<path d="M141.145 8.28955H48.9316V83.2896H141.145V8.28955Z" fill="white"/>
</mask>
<g mask="url(#mask40_208_65939)">
<path d="M92.5669 83.124C92.3825 83.0136 92.2534 82.8663 92.1612 82.6822C92.069 82.4797 92.0137 82.2589 92.0137 81.9829V79.3878C92.0137 79.1118 92.069 78.8725 92.1612 78.67C92.2534 78.4675 92.3825 78.3203 92.5669 78.2282C92.7514 78.1178 92.9542 78.0811 93.2124 78.0811C93.4706 78.0811 93.6735 78.1363 93.8579 78.2282C94.0424 78.3203 94.1715 78.4859 94.2637 78.67C94.3559 78.854 94.4112 79.0933 94.4112 79.3693V79.5534H93.8948V79.3693C93.8948 79.2037 93.8764 79.0564 93.821 78.9277C93.7657 78.7988 93.6919 78.7068 93.5813 78.6515C93.4706 78.5779 93.36 78.5596 93.2124 78.5596C93.0649 78.5596 92.9542 78.5963 92.8436 78.6515C92.7329 78.7068 92.6592 78.8172 92.6038 78.9277C92.5485 79.0564 92.5301 79.2037 92.5301 79.3693V81.9645C92.5301 82.1301 92.5485 82.2774 92.6038 82.4062C92.6592 82.535 92.7329 82.627 92.8436 82.6822C92.9542 82.7559 93.0649 82.7742 93.2124 82.7742C93.36 82.7742 93.4891 82.7375 93.5813 82.6822C93.6919 82.6086 93.7657 82.5166 93.821 82.4062C93.8764 82.2774 93.8948 82.1301 93.8948 81.9645V81.7804H94.4112V81.9645C94.4112 82.2405 94.3559 82.4797 94.2637 82.6638C94.1715 82.8663 94.0424 83.0135 93.8579 83.1056C93.6735 83.216 93.4706 83.2527 93.2124 83.2527C92.9727 83.2896 92.7514 83.2344 92.5669 83.124Z" fill="black"/>
</g>
<mask id="mask41_208_65939" style="mask-type:luminance" maskUnits="userSpaceOnUse" x="48" y="8" width="94" height="76">
<path d="M141.145 8.28955H48.9316V83.2896H141.145V8.28955Z" fill="white"/>
</mask>
<g mask="url(#mask41_208_65939)">
<path d="M94.688 78.1172H97.1777V78.5957H94.688V78.1172ZM95.6653 78.5405H96.1818V83.2337H95.6653V78.5405Z" fill="black"/>
</g>
<mask id="mask42_208_65939" style="mask-type:luminance" maskUnits="userSpaceOnUse" x="48" y="8" width="94" height="76">
<path d="M141.145 8.28955H48.9316V83.2896H141.145V8.28955Z" fill="white"/>
</mask>
<g mask="url(#mask42_208_65939)">
<path d="M98.2473 78.1172H97.731V83.2337H98.2473V78.1172Z" fill="black"/>
</g>
<mask id="mask43_208_65939" style="mask-type:luminance" maskUnits="userSpaceOnUse" x="48" y="8" width="94" height="76">
<path d="M141.145 8.28955H48.9316V83.2896H141.145V8.28955Z" fill="white"/>
</mask>
<g mask="url(#mask43_208_65939)">
<path d="M99.6125 83.1241C99.4281 83.0322 99.2807 82.8849 99.17 82.6825C99.0778 82.4985 99.0225 82.2592 99.0225 81.983V79.3327C99.0225 79.0567 99.0778 78.8359 99.17 78.6334C99.2622 78.4493 99.4096 78.3021 99.6125 78.1916C99.7969 78.0996 100.037 78.0444 100.295 78.0444C100.553 78.0444 100.793 78.0996 100.977 78.1916C101.162 78.2837 101.309 78.4309 101.42 78.6334C101.512 78.8174 101.568 79.0567 101.568 79.3327V81.983C101.568 82.2592 101.512 82.48 101.42 82.6825C101.328 82.8849 101.18 83.0137 100.977 83.1241C100.793 83.2162 100.553 83.2714 100.295 83.2714C100.037 83.2714 99.7969 83.2346 99.6125 83.1241ZM100.701 82.7008C100.811 82.6456 100.904 82.5537 100.959 82.4432C101.014 82.3327 101.051 82.1855 101.051 82.0199V79.3327C101.051 79.1671 101.014 79.0382 100.959 78.9094C100.904 78.799 100.811 78.707 100.701 78.6518C100.59 78.5966 100.443 78.5597 100.295 78.5597C100.129 78.5597 99.9998 78.5966 99.8891 78.6518C99.7785 78.707 99.6864 78.799 99.6311 78.9094C99.5757 79.0199 99.5389 79.1671 99.5389 79.3327V82.0199C99.5389 82.1855 99.5757 82.3144 99.6311 82.4432C99.6864 82.5537 99.7785 82.6456 99.8891 82.7008C99.9998 82.756 100.147 82.7929 100.295 82.7929C100.461 82.7929 100.59 82.756 100.701 82.7008Z" fill="black"/>
</g>
<mask id="mask44_208_65939" style="mask-type:luminance" maskUnits="userSpaceOnUse" x="48" y="8" width="94" height="76">
<path d="M141.145 8.28955H48.9316V83.2896H141.145V8.28955Z" fill="white"/>
</mask>
<g mask="url(#mask44_208_65939)">
<path d="M102.194 78.1172H102.673L104.296 82.3135L104.204 82.4055V78.1172H104.702V83.2153H104.223L102.6 79.0374L102.692 78.9454V83.2153H102.194V78.1172Z" fill="black"/>
</g>
<mask id="mask45_208_65939" style="mask-type:luminance" maskUnits="userSpaceOnUse" x="48" y="8" width="94" height="76">
<path d="M141.145 8.28955H48.9316V83.2896H141.145V8.28955Z" fill="white"/>
</mask>
<g mask="url(#mask45_208_65939)">
<path d="M107.414 83.124C107.229 83.0136 107.1 82.8663 107.008 82.6822C106.916 82.4797 106.86 82.2589 106.86 81.9829V79.3878C106.86 79.1118 106.916 78.8725 107.008 78.67C107.1 78.4675 107.229 78.3203 107.414 78.2282C107.598 78.1178 107.801 78.0811 108.059 78.0811C108.317 78.0811 108.52 78.1363 108.705 78.2282C108.889 78.3203 109.018 78.4859 109.11 78.67C109.202 78.854 109.258 79.0933 109.258 79.3693V79.5534H108.741V79.3693C108.741 79.2037 108.723 79.0564 108.668 78.9277C108.612 78.7988 108.539 78.7068 108.428 78.6515C108.336 78.5779 108.207 78.5596 108.059 78.5596C107.912 78.5596 107.801 78.5963 107.69 78.6515C107.58 78.7068 107.506 78.8172 107.45 78.9277C107.395 79.0564 107.377 79.2037 107.377 79.3693V81.9645C107.377 82.1301 107.395 82.2774 107.45 82.4062C107.506 82.535 107.58 82.627 107.69 82.6822C107.782 82.7559 107.912 82.7742 108.059 82.7742C108.207 82.7742 108.336 82.7375 108.428 82.6822C108.52 82.6086 108.612 82.5166 108.668 82.4062C108.723 82.2774 108.741 82.1301 108.741 81.9645V81.7804H109.258V81.9645C109.258 82.2405 109.202 82.4797 109.11 82.6638C109.018 82.8663 108.889 83.0135 108.705 83.1056C108.52 83.216 108.317 83.2527 108.059 83.2527C107.801 83.2896 107.58 83.2344 107.414 83.124Z" fill="black"/>
</g>
<mask id="mask46_208_65939" style="mask-type:luminance" maskUnits="userSpaceOnUse" x="48" y="8" width="94" height="76">
<path d="M141.145 8.28955H48.9316V83.2896H141.145V8.28955Z" fill="white"/>
</mask>
<g mask="url(#mask46_208_65939)">
<path d="M110.308 83.1241C110.124 83.0322 109.976 82.8849 109.866 82.6825C109.774 82.4985 109.718 82.2592 109.718 81.983V79.3327C109.718 79.0567 109.774 78.8359 109.866 78.6334C109.958 78.4493 110.106 78.3021 110.308 78.1916C110.493 78.0996 110.733 78.0444 110.991 78.0444C111.249 78.0444 111.489 78.0996 111.673 78.1916C111.858 78.2837 112.005 78.4309 112.116 78.6334C112.208 78.8174 112.263 79.0567 112.263 79.3327V81.983C112.263 82.2592 112.208 82.48 112.116 82.6825C112.024 82.8849 111.876 83.0137 111.673 83.1241C111.489 83.2162 111.249 83.2714 110.991 83.2714C110.733 83.2714 110.511 83.2346 110.308 83.1241ZM111.415 82.7008C111.526 82.6456 111.618 82.5537 111.673 82.4432C111.729 82.3327 111.765 82.1855 111.765 82.0199V79.3327C111.765 79.1671 111.729 79.0382 111.673 78.9094C111.618 78.799 111.526 78.707 111.415 78.6518C111.304 78.5966 111.157 78.5597 111.009 78.5597C110.843 78.5597 110.714 78.5966 110.604 78.6518C110.493 78.707 110.401 78.799 110.345 78.9094C110.29 79.0199 110.253 79.1671 110.253 79.3327V82.0199C110.253 82.1855 110.29 82.3144 110.345 82.4432C110.401 82.5537 110.493 82.6456 110.604 82.7008C110.714 82.756 110.862 82.7929 111.009 82.7929C111.157 82.7929 111.304 82.756 111.415 82.7008Z" fill="black"/>
</g>
<mask id="mask47_208_65939" style="mask-type:luminance" maskUnits="userSpaceOnUse" x="48" y="8" width="94" height="76">
<path d="M141.145 8.28955H48.9316V83.2896H141.145V8.28955Z" fill="white"/>
</mask>
<g mask="url(#mask47_208_65939)">
<path d="M115.712 78.1172H116.21V83.2337H115.712V79.1294L115.749 79.3503L114.772 82.5159H114.348L113.37 79.4239L113.389 79.1294V83.2337H112.909V78.1172H113.407L114.551 81.835L115.712 78.1172Z" fill="black"/>
</g>
<mask id="mask48_208_65939" style="mask-type:luminance" maskUnits="userSpaceOnUse" x="48" y="8" width="94" height="76">
<path d="M141.145 8.28955H48.9316V83.2896H141.145V8.28955Z" fill="white"/>
</mask>
<g mask="url(#mask48_208_65939)">
<path d="M116.911 78.1185H117.428V83.2351H116.911V78.1185ZM117.28 80.7689H118.368C118.479 80.7689 118.553 80.7504 118.645 80.6952C118.737 80.64 118.774 80.5848 118.811 80.4927C118.848 80.4008 118.866 80.3087 118.866 80.1798V79.186C118.866 79.0571 118.848 78.9467 118.811 78.8548C118.774 78.7627 118.719 78.689 118.645 78.6523C118.571 78.5971 118.479 78.5786 118.368 78.5786H117.28V78.1001H118.35C118.571 78.1001 118.755 78.1369 118.903 78.2289C119.05 78.3209 119.18 78.4314 119.253 78.5971C119.327 78.7627 119.382 78.9467 119.382 79.186V80.1798C119.382 80.4008 119.346 80.5848 119.253 80.7504C119.161 80.916 119.05 81.0264 118.903 81.1185C118.755 81.2105 118.571 81.2474 118.35 81.2474H117.28V80.7689Z" fill="black"/>
</g>
<mask id="mask49_208_65939" style="mask-type:luminance" maskUnits="userSpaceOnUse" x="48" y="8" width="94" height="76">
<path d="M141.145 8.28955H48.9316V83.2896H141.145V8.28955Z" fill="white"/>
</mask>
<g mask="url(#mask49_208_65939)">
<path d="M120.674 78.1172H121.282L122.463 83.2337H121.909L120.987 78.6877L120.065 83.2337H119.512L120.674 78.1172ZM120.157 81.5221H121.891V82.0006H120.157V81.5221Z" fill="black"/>
</g>
<mask id="mask50_208_65939" style="mask-type:luminance" maskUnits="userSpaceOnUse" x="48" y="8" width="94" height="76">
<path d="M141.145 8.28955H48.9316V83.2896H141.145V8.28955Z" fill="white"/>
</mask>
<g mask="url(#mask50_208_65939)">
<path d="M122.923 78.1172H123.403L125.026 82.3135L124.934 82.4055V78.1172H125.432V83.2153H124.952L123.348 79.0374L123.421 78.9454V83.2153H122.923V78.1172Z" fill="black"/>
</g>
<mask id="mask51_208_65939" style="mask-type:luminance" maskUnits="userSpaceOnUse" x="48" y="8" width="94" height="76">
<path d="M141.145 8.28955H48.9316V83.2896H141.145V8.28955Z" fill="white"/>
</mask>
<g mask="url(#mask51_208_65939)">
<path d="M127.479 81.0803V83.2337H126.963V81.0803L125.856 78.1172H126.372L127.221 80.4914L128.014 78.1172H128.53L127.479 81.0803Z" fill="black"/>
</g>
<mask id="mask52_208_65939" style="mask-type:luminance" maskUnits="userSpaceOnUse" x="48" y="8" width="94" height="76">
<path d="M141.145 8.28955H48.9316V83.2896H141.145V8.28955Z" fill="white"/>
</mask>
<g mask="url(#mask52_208_65939)">
<path d="M130.263 78.1172H130.78V83.2337H130.263V78.1172ZM130.632 82.7551H132.403V83.2337H130.632V82.7551Z" fill="black"/>
</g>
<mask id="mask53_208_65939" style="mask-type:luminance" maskUnits="userSpaceOnUse" x="48" y="8" width="94" height="76">
<path d="M141.145 8.28955H48.9316V83.2896H141.145V8.28955Z" fill="white"/>
</mask>
<g mask="url(#mask53_208_65939)">
<path d="M133.455 82.6455H132.883V83.216H133.455V82.6455Z" fill="black"/>
</g>
<mask id="mask54_208_65939" style="mask-type:luminance" maskUnits="userSpaceOnUse" x="48" y="8" width="94" height="76">
<path d="M141.145 8.28955H48.9316V83.2896H141.145V8.28955Z" fill="white"/>
</mask>
<g mask="url(#mask54_208_65939)">
<path d="M134.136 78.1172H134.652V83.2337H134.136V78.1172ZM134.505 82.7551H136.275V83.2337H134.505V82.7551Z" fill="black"/>
</g>
<mask id="mask55_208_65939" style="mask-type:luminance" maskUnits="userSpaceOnUse" x="48" y="8" width="94" height="76">
<path d="M141.145 8.28955H48.9316V83.2896H141.145V8.28955Z" fill="white"/>
</mask>
<g mask="url(#mask55_208_65939)">
<path d="M137.327 82.6455H136.755V83.216H137.327V82.6455Z" fill="black"/>
</g>
<mask id="mask56_208_65939" style="mask-type:luminance" maskUnits="userSpaceOnUse" x="48" y="8" width="94" height="76">
<path d="M141.145 8.28955H48.9316V83.2896H141.145V8.28955Z" fill="white"/>
</mask>
<g mask="url(#mask56_208_65939)">
<path d="M138.342 83.124C138.157 83.0136 138.028 82.8663 137.936 82.6822C137.844 82.4797 137.789 82.2589 137.789 81.9829V79.3878C137.789 79.1118 137.844 78.8725 137.936 78.67C138.028 78.4675 138.157 78.3203 138.342 78.2282C138.526 78.1178 138.729 78.0811 138.987 78.0811C139.246 78.0811 139.448 78.1363 139.633 78.2282C139.817 78.3203 139.946 78.4859 140.039 78.67C140.131 78.854 140.186 79.0933 140.186 79.3693V79.5534H139.67V79.3693C139.67 79.2037 139.651 79.0564 139.596 78.9277C139.541 78.7988 139.467 78.7068 139.356 78.6515C139.264 78.5779 139.135 78.5596 138.987 78.5596C138.84 78.5596 138.729 78.5963 138.618 78.6515C138.508 78.7068 138.434 78.8172 138.379 78.9277C138.323 79.0564 138.305 79.2037 138.305 79.3693V81.9645C138.305 82.1301 138.323 82.2774 138.379 82.4062C138.434 82.535 138.508 82.627 138.618 82.6822C138.711 82.7559 138.84 82.7742 138.987 82.7742C139.135 82.7742 139.264 82.7375 139.356 82.6822C139.448 82.6086 139.541 82.5166 139.596 82.4062C139.651 82.2774 139.67 82.1301 139.67 81.9645V81.7804H140.186V81.9645C140.186 82.2405 140.131 82.4797 140.039 82.6638C139.946 82.8663 139.817 83.0135 139.633 83.1056C139.448 83.216 139.246 83.2527 138.987 83.2527C138.748 83.2896 138.526 83.2344 138.342 83.124Z" fill="black"/>
</g>
<mask id="mask57_208_65939" style="mask-type:luminance" maskUnits="userSpaceOnUse" x="48" y="8" width="94" height="76">
<path d="M141.145 8.28955H48.9316V83.2896H141.145V8.28955Z" fill="white"/>
</mask>
<g mask="url(#mask57_208_65939)">
<path d="M141.145 82.6455H140.573V83.216H141.145V82.6455Z" fill="black"/>
</g>
</g>
<defs>
<linearGradient id="paint0_linear_208_65939" x1="82.8037" y1="42.832" x2="123.608" y2="42.832" gradientUnits="userSpaceOnUse">
<stop stop-color="#FEE88F"/>
<stop offset="0.9987" stop-color="#944A21"/>
<stop offset="1" stop-color="#944A21"/>
</linearGradient>
<linearGradient id="paint1_linear_208_65939" x1="128.081" y1="19.2963" x2="75.5999" y2="47.2584" gradientUnits="userSpaceOnUse">
<stop stop-color="#FEE88F"/>
<stop offset="0.9987" stop-color="#944A21"/>
<stop offset="1" stop-color="#944A21"/>
</linearGradient>
<linearGradient id="paint2_linear_208_65939" x1="60.5006" y1="21.2476" x2="123.608" y2="21.2476" gradientUnits="userSpaceOnUse">
<stop stop-color="#FEE88F"/>
<stop offset="1" stop-color="#944A21"/>
</linearGradient>
</defs>
</svg>
