<svg width="190" height="92" viewBox="0 0 190 92" fill="none" xmlns="http://www.w3.org/2000/svg">
<rect x="0.46582" width="188.733" height="91.7633" fill="white"/>
<g clip-path="url(#clip0_206_33796)">
<mask id="mask0_206_33796" style="mask-type:luminance" maskUnits="userSpaceOnUse" x="6" y="29" width="178" height="34">
<path d="M183.762 29.2861H6.32275V62.4771H183.762V29.2861Z" fill="white"/>
</mask>
<g mask="url(#mask0_206_33796)">
<path d="M37.8468 48.3584C38.5331 47.4637 38.8763 46.2748 38.8763 44.8163C38.8763 43.3577 38.5331 42.1443 37.8468 41.2373C37.1604 40.3303 36.2534 39.8891 35.138 39.8891C33.9491 39.8891 32.9686 40.3303 32.221 41.2128C31.4733 42.0953 31.1056 43.2964 31.1056 44.8163C31.1056 46.3361 31.4856 47.525 32.221 48.4075C32.9686 49.2777 33.9369 49.7189 35.138 49.7189C36.2657 49.7189 37.1726 49.2654 37.8468 48.3707M38.4351 38.8105C39.3053 39.3866 39.9794 40.1833 40.4574 41.2251C40.9354 42.2546 41.1806 43.4558 41.1806 44.8163C41.1806 46.1768 40.9354 47.3656 40.4452 48.4075C39.9549 49.437 39.2685 50.246 38.3983 50.822C37.5281 51.3981 36.5476 51.68 35.4567 51.68C33.4221 51.68 31.7797 50.9078 30.8605 49.3512V51.202H28.8994V33.9937H30.8605V40.122C31.8288 38.6757 33.5569 37.9525 35.4567 37.9525C36.5598 37.9525 37.5526 38.2344 38.4228 38.8105" fill="black"/>
<path d="M20.7611 46.85C19.7315 47.7815 18.8123 48.4679 18.0156 48.8846C17.1944 49.3136 16.2506 49.5342 15.1966 49.5342C13.9219 49.5342 12.8065 49.2033 11.8505 48.5537C10.8945 47.9041 10.1468 46.9848 9.60753 45.8205C9.0805 44.6561 8.81085 43.3324 8.81085 41.8493C8.81085 40.3663 9.0805 39.018 9.60753 37.8659C10.1346 36.7138 10.8945 35.8068 11.875 35.1572C12.8555 34.5076 14.0199 34.1766 15.3559 34.1766C16.2261 34.1766 17.0596 34.336 17.8562 34.6547C18.6162 34.9488 19.4496 35.4881 20.3811 36.248L21.9255 34.7037C20.8101 33.7477 19.7438 33.0736 18.7387 32.6568C17.7214 32.2401 16.5938 32.0317 15.3804 32.0317C13.4684 32.0317 11.8382 32.4485 10.4778 33.2942C9.11727 34.1276 8.08771 35.292 7.37682 36.7751C6.66594 38.2581 6.32275 39.9495 6.32275 41.837C6.32275 43.7246 6.6782 45.4405 7.37682 46.9236C8.08771 48.4066 9.11727 49.571 10.4655 50.4167C11.8137 51.2624 13.4071 51.6914 15.2456 51.6914C16.6061 51.6914 17.8195 51.4463 18.8981 50.956C19.9766 50.4657 21.1165 49.62 22.3177 48.4434L22.1706 48.284L20.7488 46.8623L20.7611 46.85Z" fill="black"/>
<path d="M65.8041 45.0486C65.0442 44.4725 63.7818 43.9822 62.0168 43.5778C61.0608 43.3694 60.3622 43.1855 59.9087 43.0507C59.4552 42.9036 59.112 42.732 58.8791 42.5237C58.6463 42.3153 58.5237 42.0212 58.5237 41.6535C58.5237 41.0897 58.7811 40.6239 59.3081 40.2685C59.8229 39.9008 60.5215 39.7292 61.3917 39.7292C62.1271 39.7292 62.8013 39.8395 63.3896 40.0601C63.794 40.2072 64.2475 40.4523 64.7623 40.7955L66.1841 39.3737C65.51 38.8957 64.8604 38.5525 64.223 38.3197C63.4141 38.0255 62.4703 37.8784 61.3917 37.8784C60.399 37.8784 59.5287 38.0378 58.7566 38.3687C57.9844 38.6996 57.3961 39.1531 56.9671 39.7292C56.5381 40.3052 56.3298 40.9793 56.3298 41.7393C56.3298 42.4992 56.4891 43.0507 56.7955 43.5042C57.1019 43.9577 57.5922 44.3254 58.254 44.6073C58.9159 44.8892 59.8597 45.1589 61.0731 45.4285C62.3478 45.7104 63.267 45.9923 63.8553 46.2865C64.4436 46.5806 64.7256 47.0464 64.7256 47.7082C64.7256 48.3701 64.4437 48.8481 63.8921 49.2158C63.3406 49.5835 62.6297 49.7674 61.7594 49.7674C60.9505 49.7674 60.2029 49.6203 59.5042 49.3261C58.9159 49.081 58.2418 48.652 57.4819 48.0514L56.0479 49.4855C56.9548 50.2331 57.8005 50.7724 58.6217 51.0911C59.5287 51.4465 60.5705 51.6304 61.7349 51.6304C63.3038 51.6304 64.5662 51.2627 65.5222 50.515C66.4782 49.7796 66.9563 48.7991 66.9563 47.5734C66.9563 46.4581 66.5763 45.6124 65.8164 45.0486" fill="black"/>
<path d="M51.8809 51.1889H54.2096L53.1433 50.1104C52.6898 50.5393 52.2608 50.8948 51.8809 51.1889Z" fill="black"/>
<path d="M45.8873 43.235C46.5615 42.5854 47.4439 42.2545 48.5103 42.2545C49.6379 42.2545 50.5204 42.5976 51.17 43.2718C51.8196 43.9459 52.1627 44.6445 52.2118 45.7844H44.6004C44.7842 44.5832 45.2132 43.8846 45.8873 43.235ZM43.1541 51.1896H45.8751C45.8138 51.1283 45.7525 51.067 45.7035 50.9934C44.9926 50.1355 44.6004 49.0814 44.5269 47.7577H54.4425C54.4792 47.439 54.4915 47.0591 54.4915 46.7036C54.4915 44.7671 53.9645 43.235 52.9227 42.1074C51.8808 40.9798 50.4223 40.4282 48.5348 40.4282C47.2601 40.4282 46.157 40.7224 45.2132 41.3107C44.2695 41.899 43.5341 42.7202 43.0193 43.7743C42.5045 44.8284 42.2349 46.0295 42.2349 47.39C42.2349 48.7505 42.4923 49.9394 43.0315 50.9689C43.0683 51.0425 43.1173 51.116 43.1541 51.1896Z" fill="black"/>
<path d="M52.2734 33.9937C52.1263 34.251 51.967 34.4962 51.7831 34.7168C51.0723 35.587 50.0917 36.016 48.7558 36.016C47.4198 36.016 46.4393 35.587 45.7284 34.7168C45.5445 34.4962 45.3729 34.251 45.2381 33.9937H42.75C42.8358 34.2388 42.9461 34.4717 43.0564 34.6923C43.5835 35.7218 44.3434 36.5063 45.3239 37.0823C46.3044 37.6461 47.4443 37.928 48.7558 37.928C50.0672 37.928 51.2071 37.6461 52.1876 37.0823C53.1681 36.5185 53.9281 35.7218 54.4551 34.7045C54.5777 34.4839 54.6757 34.251 54.7615 34.0059H52.2857L52.2734 33.9937Z" fill="black"/>
<path d="M78.0852 49.1056H86.91V51.1769H75.6094V32.314H78.0852V49.1056Z" fill="black"/>
<path d="M91.1879 35.5257H88.9082V32.7925H91.1879V35.5257ZM91.1879 51.1774H88.9082V38.0996H91.1879V51.1774Z" fill="black"/>
<path d="M98.1132 34.3488C97.8068 34.7165 97.6474 35.3294 97.6474 36.1996V38.1116H100.944V39.8398H97.6474V51.1895H95.3677V39.8398H92.9531V38.1116H95.3677V35.9299C95.3677 34.643 95.7109 33.638 96.3727 32.9393C97.0468 32.2407 98.0274 31.8853 99.3021 31.8853C100.148 31.8853 101.03 32.0323 101.937 32.3387L101.484 34.0914C100.724 33.8953 100.123 33.7973 99.682 33.7973C98.9589 33.7973 98.4318 33.9811 98.1254 34.3366" fill="black"/>
<path d="M109.058 50.9687C108.225 51.2751 107.33 51.4222 106.374 51.4222C105.173 51.4222 104.303 51.1526 103.788 50.601C103.261 50.0495 103.004 49.2405 103.004 48.162V39.8397H100.564V38.1115H103.004V33.7236H105.296V38.1115H108.825V39.8397H105.296V47.8923C105.296 48.4806 105.418 48.8851 105.651 49.1302C105.884 49.3754 106.288 49.4857 106.828 49.4857C107.306 49.4857 107.931 49.3754 108.715 49.167L109.058 50.9687Z" fill="black"/>
<path d="M124.121 41.2977H132.444V51.1888H130.532L130.348 48.7743C129.747 49.7425 128.938 50.4657 127.909 50.9069C126.891 51.3604 125.727 51.581 124.44 51.581C122.602 51.581 121.008 51.1643 119.685 50.3309C118.361 49.4974 117.344 48.333 116.645 46.85C115.946 45.3669 115.591 43.6632 115.591 41.7512C115.591 39.8392 115.959 38.1845 116.694 36.7015C117.429 35.2184 118.483 34.0418 119.856 33.1961C121.229 32.3504 122.859 31.9214 124.734 31.9214C126.279 31.9214 127.651 32.2155 128.865 32.7916C130.078 33.3677 131.279 34.2747 132.468 35.5126L130.899 37.1059C129.796 36.0274 128.791 35.2552 127.872 34.7772C126.953 34.3114 125.899 34.0663 124.71 34.0663C123.398 34.0663 122.246 34.385 121.241 35.0223C120.236 35.6597 119.464 36.5544 118.912 37.7188C118.361 38.8832 118.091 40.2191 118.091 41.7512C118.091 43.2833 118.349 44.6683 118.876 45.8327C119.403 46.9971 120.15 47.8918 121.119 48.5169C122.087 49.142 123.251 49.4606 124.575 49.4606C126.242 49.4606 127.59 48.9826 128.62 48.0266C129.649 47.0706 130.164 45.7714 130.164 44.1167V43.3691H124.134V41.2977H124.121Z" fill="black"/>
<path d="M142.911 38.3443L142.482 40.2563C141.845 40.0848 141.281 39.9867 140.778 39.9867C139.871 39.9867 139.136 40.3544 138.572 41.1021C138.008 41.8497 137.727 42.867 137.727 44.154V51.177H135.435V38.0992H137.592V40.097C137.898 39.4474 138.327 38.9204 138.879 38.5404C139.442 38.1605 140.092 37.9644 140.827 37.9644C141.465 37.9644 142.151 38.0869 142.899 38.3321" fill="black"/>
<path d="M153.293 38.6134C154.273 39.2017 155.045 40.0106 155.597 41.0647C156.148 42.1188 156.418 43.3077 156.418 44.6559C156.418 46.0041 156.148 47.2053 155.597 48.2471C155.045 49.2889 154.285 50.1101 153.293 50.6862C152.312 51.2745 151.184 51.5564 149.934 51.5564C148.684 51.5564 147.557 51.2622 146.588 50.6862C145.62 50.0979 144.848 49.2889 144.308 48.2471C143.769 47.2053 143.487 46.0041 143.487 44.6559C143.487 43.3077 143.757 42.1188 144.308 41.0647C144.86 40.0106 145.62 39.2017 146.588 38.6134C147.557 38.0251 148.684 37.7432 149.934 37.7432C151.184 37.7432 152.312 38.0373 153.293 38.6134ZM146.931 41.0279C146.184 41.9472 145.816 43.1606 145.816 44.6437C145.816 46.1267 146.184 47.3401 146.931 48.2594C147.679 49.1786 148.672 49.6444 149.934 49.6444C151.197 49.6444 152.202 49.1786 152.949 48.2594C153.697 47.3401 154.077 46.139 154.077 44.6437C154.077 43.1483 153.697 41.9472 152.949 41.0279C152.202 40.1087 151.197 39.6429 149.934 39.6429C148.672 39.6429 147.679 40.1087 146.931 41.0279Z" fill="black"/>
<path d="M168.858 38.0991V51.177H166.726V49.5591C166.334 50.1964 165.794 50.6867 165.12 51.0299C164.434 51.3731 163.649 51.5447 162.767 51.5447C161.186 51.5447 160.021 51.1524 159.261 50.368C158.502 49.5836 158.122 48.5418 158.122 47.2671V38.0991H160.401V46.7155C160.401 47.6593 160.634 48.3702 161.1 48.8605C161.566 49.3507 162.252 49.5958 163.135 49.5958C164.14 49.5958 164.973 49.3017 165.61 48.6889C166.248 48.0883 166.566 47.2181 166.566 46.0904V38.1114H168.858V38.0991Z" fill="black"/>
<path d="M180.98 38.6261C181.85 39.2021 182.525 40.0111 183.027 41.0406C183.517 42.0825 183.775 43.2713 183.775 44.6196C183.775 45.9678 183.53 47.1935 183.027 48.2353C182.525 49.2771 181.85 50.0983 180.98 50.6621C180.11 51.2382 179.117 51.5323 178.002 51.5323C176.053 51.5323 174.607 50.8459 173.663 49.4609V55.9692H171.383V38.099H173.54V40.1459C174.496 38.5525 175.98 37.7559 178.002 37.7559C179.117 37.7559 180.11 38.05 180.98 38.6138M180.392 48.2108C181.078 47.3038 181.434 46.1149 181.434 44.6196C181.434 43.1243 181.091 41.9599 180.404 41.0652C179.718 40.1582 178.811 39.7047 177.659 39.7047C176.507 39.7047 175.477 40.1459 174.717 41.0161C173.969 41.8986 173.589 43.0998 173.589 44.6196C173.589 46.1394 173.969 47.3651 174.717 48.2475C175.465 49.1178 176.445 49.559 177.659 49.559C178.786 49.559 179.706 49.1055 180.392 48.1985" fill="black"/>
</g>
</g>
<defs>
<clipPath id="clip0_206_33796">
<rect width="177.439" height="33.191" fill="white" transform="translate(6.32324 29.2861)"/>
</clipPath>
</defs>
</svg>
