<svg width="189" height="92" viewBox="0 0 189 92" fill="none" xmlns="http://www.w3.org/2000/svg">
<rect x="0.19873" width="188.733" height="91.7633" fill="white"/>
<g clip-path="url(#clip0_206_33791)">
<path fill-rule="evenodd" clip-rule="evenodd" d="M132.396 28.6968L131.31 30.0489L132.682 31.1205L133.623 30.0489L134.99 31.1205L136.082 29.8235L134.74 28.6968L133.763 29.7935L132.396 28.6968Z" fill="#313080"/>
<path fill-rule="evenodd" clip-rule="evenodd" d="M102.875 29.1475L101.729 30.4495L103.066 31.5412L104.212 30.2442L102.875 29.1475Z" fill="#313080"/>
<path fill-rule="evenodd" clip-rule="evenodd" d="M149.187 38.6221L149.252 38.7623L149.393 38.9576L149.568 39.1228L149.768 39.2631L150.024 39.3532L150.309 39.4083H150.91V38.6271H155.242V38.6521L155.101 38.8174L154.986 38.9576L154.816 39.0978L154.701 39.213L154.395 39.3782L154.195 39.4083L154.05 39.4383H152.598L152.542 39.5786L152.482 39.7739L152.397 39.9992L152.342 40.2496L152.202 40.51L152.087 40.8205L151.947 41.161L151.831 41.5216L151.521 41.9422L151.376 42.1425L151.291 42.2277L151.235 42.3429L150.925 42.6784V40.3948L151.21 40.0293L151.461 39.6837L151.551 39.5535L151.631 39.4383L150.92 39.4083V38.6271H149.197M155.447 38.6271L155.492 38.6521L155.637 38.6721L155.818 38.7623L156.023 38.8474L156.238 38.9626L157.721 39.5585V38.6271H167.13L166.815 38.8474L166.559 38.9626L166.309 39.0678L166.159 39.1279H166.084L166.028 39.1879L165.698 39.2681L165.513 39.2981L165.342 39.3282L164.947 39.3833H164.536L164.516 39.4133H164.085L164.05 39.4433H161.572L161.146 39.3833L160.755 39.2681L160.38 39.0678L160.069 38.8524L159.273 40.1795L157.726 39.5635V38.6321H155.452M168.377 38.6271L168.392 38.6721L168.502 38.9576L168.622 39.1579L168.783 39.3282L168.928 39.3833L169.128 39.4433H174.041L174.126 39.4133H174.201L174.291 39.3833H174.376L174.512 39.3532L174.687 39.3282L174.802 39.243L174.917 39.1629L174.997 39.0678L175.032 39.0177L175.093 38.9626L175.298 38.6321H168.367M176.264 38.6271L177.551 39.0978V38.6271H180.075L180.06 38.6521L179.89 38.8174L179.66 39.0628L179.409 39.3282L179.149 39.6637L177.551 39.0978V38.6271H176.264ZM150.91 40.3998H150.875L150.715 40.5951L150.509 40.8205L150.079 41.1861L149.678 41.5216L149.307 41.802L148.967 42.0374L148.626 42.2327L148.286 42.3479L147.94 42.428L147.65 42.4831L147.084 42.428L146.568 42.3479L146.087 42.1826L145.622 41.9873L145.577 42.1826L146.999 42.9688L147.339 43.109L147.685 43.2493L148 43.3594L148.141 43.4195L148.316 43.4696H148.436L148.566 43.5297L148.802 43.5597H148.887L149.002 43.5848H149.197L149.568 43.4946L149.898 43.3895L150.074 43.2793L150.134 43.2192L150.244 43.1892L150.589 42.9688L150.905 42.6834V40.3998H150.91Z" fill="#313080"/>
<path fill-rule="evenodd" clip-rule="evenodd" d="M150.91 38.6268V37.6302L150.8 37.6052L150.534 37.5451L150.364 37.495L150.199 37.4099L150.079 37.3498L149.999 37.2146L149.944 37.1294V37.0143L149.999 36.8991L150.079 36.6737L150.339 36.5285L150.62 36.4233H150.91V34.8709H150.82L150.62 34.9561L150.454 35.0712L150.249 35.2115L150.079 35.3717L149.768 35.8274L149.453 36.3332L149.308 36.5936L149.252 36.844L149.147 37.3498L149.077 37.6052V37.8856V38.2262L149.147 38.5116L149.187 38.6218L150.91 38.6268V37.6302L151.14 37.6603H151.251H151.421H151.646H151.706H151.761H151.876L151.846 37.465L151.821 37.3498L151.796 37.2947L151.706 37.0994L151.571 36.8991L151.391 36.6737L151.251 36.5285L151.075 36.4484L150.965 36.4233H150.91V34.8709L151.251 34.8159H151.421L151.621 34.8709L151.761 34.9561L151.937 35.0963L152.077 35.2315L152.247 35.4368L152.357 35.6371L152.502 35.9126L152.613 36.3082L152.758 36.7288L152.873 37.1845L152.933 37.6603H154.19L154.305 37.6302H154.445L154.561 37.6052H154.611H154.696L154.726 37.5451V37.5251H154.761H154.791L154.811 37.495V37.465H154.846H154.871L154.961 37.4099L155.071 37.3248L156.384 35.6872L156.639 35.4018L156.869 35.1814L157.35 34.8709L157.721 34.7057V36.0528L157.47 36.0878L157.27 36.1379L157.125 36.2831L156.924 36.4233L156.754 36.5936L156.384 37.0393L157.721 37.5451V38.6268H167.13L168.222 37.8355L168.252 38.111L168.302 38.4014L168.377 38.6268H175.308L175.498 38.3363L176.264 38.6268H177.546V37.1845L178.949 37.6603L178.919 37.2947L178.858 36.9892L178.773 36.6737L178.688 36.3633L178.428 36.0027L178.318 35.8575L178.232 35.7723L178.092 35.6872L177.977 35.6371L177.837 35.577H177.717L177.546 35.6021V34.3301L177.807 34.2199L178.263 34.1698L178.518 34.1949H178.628L178.773 34.25L179.014 34.3952L179.114 34.4753L179.234 34.5905L179.429 34.936L179.55 35.0963L179.66 35.3216L179.83 35.7473L180.01 36.2831L180.06 36.5085L180.15 36.7639L180.261 37.2697L180.291 37.495L180.311 37.7454L180.351 37.9758V38.0809V38.141L180.371 38.2262L180.351 38.2562L180.291 38.3363L180.165 38.4515L180.075 38.6268H177.546V37.1845L176.179 36.7038L176.35 36.4233L176.55 36.198L176.75 36.0027L176.95 35.8575L177.321 35.6371L177.546 35.6021V34.3301L177.321 34.4503L176.87 34.7558L176.385 35.2315L176.229 35.3717L176.124 35.577L175.954 35.8024L175.814 36.0878L175.608 36.3633L175.408 36.7038L175.178 37.0744L175.002 37.465L174.181 37.6603H169.504L169.389 37.6302H169.269L169.133 37.6052L169.073 37.5251V37.4399L169.304 37.2947L169.594 37.1545L169.885 37.0393L170.245 36.9892L170.591 36.9291L170.991 36.8991L171.407 36.869L171.903 36.8991L172.524 35.2115L172.008 35.1814H171.928H171.873H171.757H171.532L170.566 35.0712L170.05 35.0112L169.559 34.936L168.562 34.7057L166.82 34.1698L166.369 34.0246L166.064 33.9445L165.793 33.8794H165.623L165.202 33.9144L164.792 34.0797L164.426 34.3L164.085 34.6756L163.77 35.0412L163.575 35.4669L163.434 35.8875L163.369 36.3633L163.52 36.168L163.685 36.0528L163.885 35.9126L164.085 35.8274L164.286 35.7473L164.516 35.6872L165.052 35.6572L165.388 35.6872L165.823 35.7473L166.244 35.8575L166.735 36.0227L168.362 36.4784L167.997 36.7288L167.621 36.9892L167.275 37.1845L166.97 37.3498L166.624 37.465L166.314 37.5852L165.998 37.6302L165.703 37.6603H161.797L160.805 37.5251L160.58 37.3848L160.375 37.2396L160.204 37.0393L160.124 36.819L159.949 36.4484L159.834 36.1129L159.714 35.8274L159.639 35.6021L159.518 35.3717L159.438 35.2315L159.378 35.0963L159.333 35.0412L159.118 34.8159L158.892 34.7057L158.752 34.6456L158.632 34.6155L158.357 34.5905L157.841 34.6456L157.721 34.7057V36.0528L157.866 36.0227H157.986L158.126 36.0528L158.357 36.198L158.552 36.4233L158.752 36.7889L158.867 37.0994L158.892 37.2697L158.922 37.3498L158.953 37.4399L159.008 37.7454L159.033 38.0559L157.721 37.5451V38.6268H155.447L155.387 38.5917H155.327H155.242V38.6268H150.91Z" fill="#313080"/>
<path fill-rule="evenodd" clip-rule="evenodd" d="M143.719 35.7477V35.6876H143.744V35.5774L143.639 35.322L143.554 35.0666L143.434 34.8462L143.319 34.6409L143.148 34.4456L143.013 34.2503L142.698 33.9348L142.467 33.7395L142.267 33.5943L142.062 33.4541L141.866 33.399L141.641 33.2838L141.411 33.2588L141.16 33.2037H140.76L140.589 33.2588L140.394 33.2838L140.219 33.369L139.818 33.5092L139.618 33.6193L139.428 33.7646L139.012 34.015L138.676 34.3254L138.386 34.6059L138.166 34.9264L137.96 35.2569L137.815 35.6275L137.73 35.963L137.705 36.3586L137.73 36.6691L137.815 36.9796L137.93 37.29L138.12 37.6556H136.273L136.077 37.6005L135.902 37.5404L135.732 37.4603L135.587 37.3151L135.451 37.1198L135.336 36.9195L135.246 36.6641L135.166 36.3536L134.395 31.1655L133.488 32.8832L133.633 33.7045L133.518 33.7846L133.433 33.8998L133.263 34.0099L133.098 34.1802L132.832 34.3204L132.552 34.4907L132.432 34.5508V35.6275L132.752 35.5373L132.887 35.4322L133.038 35.2869L133.213 35.0616L133.373 34.8412L133.669 34.1602L134.009 36.3536L133.984 36.4938L133.954 36.5539L133.924 36.634L133.864 36.6691L133.844 36.6991L133.804 36.7242L133.639 36.8143L133.468 36.8393H133.268L133.243 36.8644L133.158 36.8393H132.987L132.707 36.8143L132.442 36.7843V38.6672H132.472L132.637 38.6472H132.877L133.043 38.5821L133.243 38.557L133.844 37.4553L134.034 36.9195L134.119 37.4553L134.154 37.7057L134.209 37.9611L134.244 38.1314L134.29 38.3267L134.4 38.6422L134.515 38.8074L134.66 38.9476L134.765 39.0878L134.941 39.203L135.136 39.2831L135.371 39.3683L135.592 39.3983L135.877 39.4284H143.98L145.006 37.6807L141.265 37.6456L141.04 37.5905L140.84 37.5304L140.434 37.3952L140.209 37.28L140.008 37.1398L139.778 36.9746L139.573 36.8093L139.227 36.4688L139.062 36.3235L138.977 36.2184L138.802 35.963L138.746 35.7927L138.802 35.5974L138.892 35.4872L139.037 35.3971L139.167 35.2869L139.372 35.2018L139.918 35.0315L140.169 34.9264L140.424 34.8412L140.649 34.7461L140.88 34.7261L141.085 34.666L141.25 34.6359H141.931L142.252 34.696L142.567 34.7511L142.873 34.8963L143.108 35.0365L143.334 35.2268L143.539 35.4322L143.704 35.7426M132.422 34.5608L132.191 34.676L131.851 34.8713L131.455 35.0966L131.11 35.4021L130.769 35.7477L130.519 36.1984L130.258 36.6791L130.033 37.24L129.858 37.8409L129.712 38.4569L130.198 38.4819L130.659 38.542H131.085L131.505 38.572L131.766 38.5971L131.996 38.6622H132.196L132.427 38.6822V36.7993L132.181 36.7392H131.721L131.265 36.7142L130.854 36.7392L130.949 36.5739L131.09 36.4337L131.265 36.2635L131.485 36.1282L131.751 35.958L132.031 35.8178L132.372 35.6775L132.427 35.6575V34.5808L132.422 34.5608Z" fill="#313080"/>
<path fill-rule="evenodd" clip-rule="evenodd" d="M122.015 39.4435L122.095 39.0179L122.185 38.6523L122.235 38.2817L122.326 37.9462L122.356 37.6007L122.386 37.3202L122.421 37.0348L122.451 36.7844L122.421 36.3287L122.361 35.9381L122.275 35.5124L122.16 35.1168L122.02 34.7512L121.845 34.3857L121.619 34.0201L121.389 33.6846L120.538 35.2871L120.563 35.3672L120.583 35.3972L120.623 35.4623L120.733 35.6576L120.933 36.0232L121.069 36.3637L121.214 36.6742L121.334 36.9196L121.414 37.2101L121.469 37.4354L121.529 37.6557H116.431L116.371 37.18L116.281 36.7193L116.136 36.2986L116.026 35.903L115.881 35.6276L115.77 35.4273L115.63 35.222L115.485 35.0867L115.315 34.9465L115.139 34.8614L114.939 34.8063H114.774L114.428 34.8614V36.4138H114.518L114.624 36.4389L114.774 36.519L114.939 36.6642L115.084 36.8896L115.199 37.0298L115.315 37.2301L115.375 37.4304L115.4 37.6507H114.659L114.433 37.6207V39.3985L115.179 39.4285L114.914 39.734L114.659 40.1046L114.433 40.3549V42.6635L114.714 42.328L114.779 42.2128L114.859 42.1277L115.029 41.9274L115.35 41.5067L116.141 39.4235H122.025M114.423 34.8714H114.338L114.133 34.9565L113.968 35.0717L113.767 35.2119L113.597 35.3772L113.287 35.8329L112.981 36.3337L112.856 36.5941L112.771 36.8495L112.661 37.3553L112.63 37.6107V38.2366L112.691 38.5221L112.771 38.7775L112.916 38.9728L113.086 39.138L113.287 39.2783L113.542 39.3684L113.827 39.4235H114.423V37.6457L114.338 37.6157L114.088 37.5606L113.847 37.5105L113.682 37.4254L113.562 37.3653L113.487 37.2301L113.452 37.145V37.0248L113.502 36.9196V36.8044L113.622 36.6942L113.877 36.549L114.163 36.4439H114.418V34.8914M114.423 40.37L114.338 40.4501L113.998 40.8207L113.567 41.1862L113.201 41.5218L112.826 41.8022L112.485 42.0376L112.145 42.2329L111.799 42.348L111.484 42.4282L111.198 42.4833L110.627 42.4282L110.097 42.348L109.581 42.1828L109.15 41.9875L109.065 42.1828L109.461 42.4282L109.526 42.4632L109.581 42.4833L109.641 42.5233L109.841 42.6285L110.172 42.8037L110.517 42.969L110.687 43.0241L110.863 43.1142L111.028 43.1693L111.198 43.2544L111.519 43.3646L111.639 43.4247L111.804 43.4748H111.924L112.065 43.5349L112.31 43.5649H112.405L112.52 43.59H112.741L112.886 43.5349L113.081 43.4998L113.427 43.3947L113.562 43.2845L113.652 43.2244L113.762 43.1944L114.108 42.964L114.243 42.8238L114.388 42.6836H114.418V40.375L114.423 40.37Z" fill="#313080"/>
<path fill-rule="evenodd" clip-rule="evenodd" d="M122.211 41.6722L120.814 40.6206L119.697 41.8926L121.069 42.9592L122.211 41.6722Z" fill="#313080"/>
<path fill-rule="evenodd" clip-rule="evenodd" d="M166.75 41.6722L165.348 40.6206L164.236 41.8926L165.603 42.9642L166.75 41.6722Z" fill="#313080"/>
<path fill-rule="evenodd" clip-rule="evenodd" d="M74.5867 35.7073L74.2062 36.6788L75.6083 38.767L75.5532 38.9623L75.4881 39.1877L75.403 39.4431L75.2728 39.6935L75.0675 39.9789L74.8471 40.2544L74.5517 40.5698L74.2662 40.9104L73.8706 41.2459L73.465 41.5864L73.0944 41.8368L72.7589 42.0622L72.3833 42.2324L72.0829 42.3476L71.7323 42.4277L71.4218 42.4828H70.8159L70.2801 42.4027L69.7342 42.2374L69.4488 42.1523L69.1934 42.0421L69.3035 42.2875L69.589 42.4277L69.8995 42.608H69.9596L70.0447 42.6581L70.1899 42.7432L70.5004 42.8834L70.6156 42.9085L70.6707 42.9385L70.7558 42.9636L71.0162 43.1088L71.2365 43.1889L71.4919 43.3041L71.6922 43.3592L71.9226 43.4443L72.1179 43.4944L72.2932 43.5595L72.4584 43.5845L72.6287 43.6146H72.809L72.9442 43.6396L73.0844 43.5845L73.2246 43.5595L73.5401 43.4693L73.6853 43.3892L73.8556 43.3041L74.1661 43.1338L74.4265 42.8784L74.4816 42.7883L74.5717 42.7332L74.737 42.598L74.9924 42.2474L75.1376 42.0521L75.3079 41.8869L75.4781 41.5464L75.6734 41.2058L75.8237 40.8753L75.9088 40.675L75.9939 40.5348L76.049 40.3345L76.1291 40.1692L76.2794 39.8287L76.5047 39.1226L76.7952 39.2628L77.1107 39.3529L77.4212 39.408L77.7667 39.4381H85.7791V37.6603H82.474L82.5892 37.6002L82.7595 37.5151L82.9247 37.4049L83.1901 37.2897L83.4155 37.0894L83.7009 36.9192L83.9864 36.6988L84.3619 36.4434L84.6774 36.193L84.9879 35.9977L85.2684 35.7974L85.4687 35.7023H83.9162L83.761 35.7974L83.3003 36.1329L83.1 36.2431L82.9297 36.3833L82.7294 36.4985L82.6192 36.6137L82.3037 36.7789L82.1034 36.9142L81.9832 36.9442L81.9232 36.9743L81.8781 36.9943V37.0293L81.9232 36.834L81.9832 36.7189L82.0483 36.6137V36.4384L82.1034 36.2982L82.1886 35.9326L82.1986 35.6973H81.4875L81.5075 35.8525L81.5576 36.2431V36.9142V36.9743L81.5325 37.0644L81.4724 37.1195L81.4324 37.2046L81.3523 37.2296L81.3222 37.2597L81.2972 37.2897L81.1219 37.4049H80.9767V37.435L80.8715 37.465L80.6061 37.5451L80.2656 37.6002H80.0653L79.9 37.6603H77.9319L77.7066 37.6303L77.4963 37.5702L77.301 37.465L77.1007 37.3849L76.8703 37.2146L76.665 37.0394L76.4697 36.844L76.2994 36.6237L75.6834 35.7073H74.5667M87.647 35.7073L87.7272 35.7473L88.1278 36.0228L88.3231 36.193L88.5234 36.3833L88.6636 36.5236L88.7488 36.6187L88.8089 36.7239L88.8589 36.784L88.919 36.839L88.9791 36.9793L89.0342 37.0894L89.0893 37.2096L89.0643 37.2897L89.0342 37.3448H89.0092V37.4049H88.9491L88.919 37.465L88.8089 37.5151L88.6035 37.5702L88.4032 37.6002H88.258L88.1478 37.6303H87.8624V37.6603H85.7741V39.4381H88.884L89.1744 39.0976L89.4298 38.8171L89.8555 38.2813L90.0257 38.0259L90.171 37.8356L90.3112 37.6303L90.4264 37.465L90.6868 36.9192V36.6988L90.6567 36.5887V36.4785L90.5966 36.2481L90.5365 36.138L90.5165 36.0528L90.3412 35.7674L90.2962 35.7023H87.637L87.647 35.7073Z" fill="#313080"/>
<path fill-rule="evenodd" clip-rule="evenodd" d="M75.7032 35.7076L74.9971 34.6459L74.5864 35.7076H75.7032ZM82.2033 35.7076L82.2233 35.4922L82.2483 35.0115V34.701L82.2784 34.4456V33.8547L82.3084 33.8247L82.0831 30.9802L82.3084 31.1204L83.2599 29.3176L82.8843 29.1524L82.5638 28.9821L82.3084 28.8419L82.0831 28.7017L81.9078 28.5615L81.7976 28.4463L81.7375 28.3361L81.7075 28.286L81.8227 27.7752L81.7976 27.6651L81.7075 27.605L81.6224 27.64L81.5673 27.7202L81.4821 27.7752L81.392 27.9205L81.2818 28.0306L81.1667 28.2009L81.0565 28.3712L80.9463 28.5965L80.6859 28.9921L80.6008 29.1624L80.5457 29.3277L80.4906 29.4378L80.4355 29.528V29.8334L80.4656 29.9186L80.5257 30.0037L80.6609 30.1439L80.8662 30.3142L81.3219 33.7345L81.377 34.1852V34.4056L81.4271 34.6309L81.4922 35.4822L81.5072 35.7226H82.2183M85.4683 35.7076L85.5535 35.6575L85.7788 35.5423V34.4707H85.7488L85.5184 34.5808L85.2931 34.7461L84.8173 35.0616L84.5519 35.2268L84.2965 35.4572L83.9109 35.6976H85.4633M90.3059 35.7076L90.2908 35.6875L90.2308 35.6375L90.1757 35.5173L89.9153 35.2318L89.8602 35.1768L89.8001 35.1167L89.6549 35.0065L89.3444 34.696L89.0589 34.4957L88.8035 34.2703L88.5431 34.1301L88.0023 33.9298L87.5516 33.8747H87.2661L86.9456 33.9599L86.7503 34.0149L86.5701 34.07L86.2045 34.2353L85.7738 34.4656V35.5373L85.7989 35.5073L86.0643 35.4572L86.2896 35.3921H86.545L86.9206 35.4271L87.3212 35.5323L87.6367 35.6926H90.2959L90.3059 35.7076Z" fill="#313080"/>
<path fill-rule="evenodd" clip-rule="evenodd" d="M93.7667 27.9058L92.6299 29.4532L92.69 29.8738L92.7701 30.3295L92.8302 30.8103L92.8903 31.286L92.9504 31.7918L93.0005 32.3627L93.1257 33.4594L93.1457 34.0503L93.1707 34.6763L93.2559 35.9433L93.2859 37.2954L93.346 38.7626V39.013L93.4612 39.2684L93.5113 39.3285L93.5964 39.3836L93.7216 39.4137L93.8318 39.4437H102.155L102.47 39.4137L102.645 39.3836H102.816L103.101 39.3536L103.387 39.3285L103.647 39.2434L103.897 39.1583L103.957 39.1282V39.0982H104.013L104.123 39.0681L104.153 39.013H104.183H104.213L104.323 38.963L106.316 37.5457L106.552 37.3855L106.837 37.2653L107.122 37.1551L107.463 37.075L107.834 36.9849H108.234L108.695 36.9548L109.176 36.9849L109.381 36.4791L109.546 36.0534L109.691 35.6578L109.832 35.2922L108.75 35.2322L107.748 35.1821L107.238 35.0969L106.782 35.0118L105.835 34.7865L105.239 34.5611L104.694 34.4209L104.248 34.2456L103.847 34.1655L103.497 34.0804L103.241 34.0253L103.016 33.9702H102.896L102.445 34.0253L102.05 34.1354L101.649 34.3908L101.333 34.7013L101.018 35.0719L100.818 35.4926L100.702 35.9433L100.647 36.449L100.988 36.1135L101.158 36.0034L101.394 35.9132L101.589 35.803L101.809 35.773L102.05 35.748H102.33H102.696L103.101 35.803L103.532 35.9132L104.013 36.0835L104.268 36.1686L104.383 36.1987L104.438 36.2287L104.518 36.2487L104.759 36.3088L104.959 36.3889L105.149 36.424L105.214 36.449L105.325 36.4791L105.46 36.5292L105.635 36.5642L105.3 36.8196L104.974 37.04L104.669 37.2152L104.383 37.3855L104.098 37.4656L103.847 37.5708L103.587 37.6309L103.387 37.6609H94.7131L94.628 37.6309L94.5679 37.6008L94.4627 37.5157L94.3976 37.3855V37.1852L94.1472 32.2826L94.0571 31.4312L94.0321 30.6701L93.977 30.0291L93.9419 29.4532L93.8868 28.9474L93.8318 28.5267L93.7917 28.1562L93.7667 27.9058Z" fill="#313080"/>
<path fill-rule="evenodd" clip-rule="evenodd" d="M69.5889 61.9333V50.165H74.0608C74.9672 50.165 75.6984 50.2852 76.2542 50.5156C76.8051 50.766 77.2358 51.1265 77.5513 51.6273C77.8567 52.1231 78.012 52.6439 78.012 53.1797C78.012 53.6855 77.8717 54.1613 77.5963 54.6019C77.3159 55.0576 76.9002 55.4132 76.3394 55.6836C77.0605 55.8889 77.6163 56.2495 78.007 56.7503C78.3976 57.2561 78.5929 57.847 78.5929 58.528C78.5929 59.0739 78.4677 59.5897 78.2323 60.0604C78.0019 60.5412 77.7115 60.8967 77.361 61.1521C77.0154 61.4125 76.5797 61.6028 76.0589 61.733C75.5281 61.8632 74.8921 61.9333 74.1359 61.9333H69.5889ZM71.1713 55.1127H73.7453C74.4414 55.1127 74.9372 55.0727 75.2477 54.9825C75.6483 54.8673 75.9538 54.672 76.1491 54.3966C76.3494 54.1162 76.4545 53.7706 76.4545 53.355C76.4545 52.9644 76.3594 52.6189 76.1741 52.3334C75.9788 52.0329 75.7134 51.8226 75.3628 51.7124C75.0123 51.6023 74.4064 51.5472 73.55 51.5472H71.1763V55.1127M71.1713 60.5562H74.1409C74.6567 60.5562 75.0123 60.5412 75.2176 60.4961C75.5832 60.431 75.8837 60.3258 76.129 60.1756C76.3794 60.0304 76.5797 59.81 76.725 59.5246C76.8852 59.2341 76.9754 58.9036 76.9754 58.528C76.9754 58.0874 76.8502 57.7118 76.6148 57.3863C76.3744 57.0507 76.0589 56.8304 75.6533 56.6952C75.2527 56.555 74.6768 56.4999 73.9156 56.4999H71.1663V60.5612L71.1713 60.5562Z" fill="#313080"/>
<path fill-rule="evenodd" clip-rule="evenodd" d="M86.2748 61.9334V60.6815C85.6037 61.648 84.6873 62.1287 83.5355 62.1287C83.0247 62.1287 82.549 62.0286 82.1033 61.8333C81.6676 61.648 81.3371 61.4026 81.1318 61.1121C80.9114 60.8167 80.7612 60.4611 80.6761 60.0355C80.616 59.755 80.5859 59.3043 80.5859 58.6934V53.4102H82.0382V58.1425C82.0382 58.8887 82.0682 59.3945 82.1233 59.6549C82.2185 60.0355 82.4088 60.3409 82.7142 60.5563C83.0097 60.7666 83.3753 60.8768 83.816 60.8768C84.2566 60.8768 84.6623 60.7716 85.0529 60.5513C85.4385 60.3259 85.7089 60.0254 85.8742 59.6448C86.0344 59.2592 86.1145 58.7084 86.1145 57.9773V53.4152H87.5668V61.9384H86.2748V61.9334Z" fill="#313080"/>
<path fill-rule="evenodd" clip-rule="evenodd" d="M89.9502 61.9335V50.1602H91.3974V56.8656L94.8779 53.4102H96.7758L93.4657 56.5751L97.1013 61.9335H95.3035L92.414 57.5967L91.3974 58.5682V61.9335H89.9502Z" fill="#313080"/>
<path fill-rule="evenodd" clip-rule="evenodd" d="M98.3185 61.9333V50.165H99.7757V54.3966C100.452 53.6154 101.313 53.2198 102.35 53.2198C102.991 53.2198 103.542 53.345 104.017 53.6004C104.483 53.8458 104.824 54.1863 105.024 54.627C105.224 55.0727 105.324 55.7087 105.324 56.5299V61.9333H103.882V56.5299C103.882 55.8138 103.722 55.288 103.406 54.9525C103.086 54.632 102.63 54.4667 102.054 54.4667C101.624 54.4667 101.218 54.5769 100.827 54.7922C100.447 55.0126 100.176 55.318 100.011 55.6986C99.8559 56.0742 99.7707 56.6 99.7707 57.2661V61.9233H98.3135L98.3185 61.9333Z" fill="#313080"/>
<path fill-rule="evenodd" clip-rule="evenodd" d="M113.286 60.8768C112.761 61.3325 112.245 61.663 111.739 61.8433C111.238 62.0285 110.687 62.1287 110.111 62.1287C109.16 62.1287 108.429 61.8983 107.913 61.4376C107.407 60.9819 107.152 60.401 107.152 59.6849C107.152 59.2642 107.247 58.8887 107.437 58.5431C107.633 58.1976 107.878 57.9172 108.198 57.7068C108.514 57.4965 108.87 57.3363 109.26 57.2361C109.546 57.161 109.981 57.0909 110.567 57.0208C111.754 56.8855 112.63 56.7153 113.191 56.525C113.201 56.3247 113.201 56.1945 113.201 56.1494C113.201 55.5635 113.061 55.1478 112.786 54.9025C112.405 54.577 111.854 54.4067 111.108 54.4067C110.422 54.4067 109.916 54.5269 109.581 54.7622C109.25 55.0026 109.01 55.4233 108.844 56.0392L107.397 55.8489C107.527 55.243 107.743 54.7522 108.043 54.3766C108.339 54.0061 108.769 53.7156 109.34 53.5153C109.906 53.32 110.557 53.2148 111.303 53.2148C112.049 53.2148 112.64 53.3 113.106 53.4752C113.567 53.6505 113.907 53.8659 114.123 54.1162C114.343 54.3817 114.493 54.7122 114.578 55.1078C114.623 55.3582 114.649 55.7989 114.649 56.4348V58.3628C114.649 59.7049 114.684 60.5512 114.739 60.9168C114.799 61.2724 114.909 61.6079 115.079 61.9384H113.582C113.432 61.6379 113.331 61.2874 113.286 60.8818M113.201 57.6517C112.66 57.8721 111.864 58.0474 110.788 58.2026C110.182 58.2877 109.751 58.3879 109.501 58.488C109.25 58.5932 109.055 58.7535 108.92 58.9638C108.779 59.1591 108.709 59.3944 108.709 59.6448C108.709 60.0304 108.86 60.3509 109.16 60.6113C109.455 60.8667 109.891 60.9819 110.472 60.9819C111.053 60.9819 111.534 60.8617 111.984 60.6264C112.42 60.386 112.751 60.0455 112.956 59.6198C113.111 59.2993 113.191 58.8135 113.191 58.1876L113.201 57.6517Z" fill="#313080"/>
<path fill-rule="evenodd" clip-rule="evenodd" d="M120.167 60.6359L120.358 61.9129C119.942 61.998 119.571 62.0431 119.251 62.0431C118.72 62.0431 118.309 61.953 118.014 61.7977C117.719 61.6375 117.513 61.4171 117.393 61.1417C117.268 60.8763 117.208 60.3104 117.208 59.4441V54.5565H116.141V53.4147H117.208V51.3064L118.665 50.4351V53.4147H120.172V54.5565H118.665V59.5242C118.665 59.9298 118.685 60.1902 118.74 60.3104C118.795 60.4306 118.88 60.5207 119.001 60.5858C119.121 60.661 119.296 60.691 119.511 60.691C119.687 60.691 119.902 60.676 120.172 60.6359H120.167Z" fill="#313080"/>
<path fill-rule="evenodd" clip-rule="evenodd" d="M121.66 51.8176V50.165H123.112V51.8176H121.66ZM121.66 61.9333V53.4101H123.112V61.9333H121.66Z" fill="#313080"/>
<path fill-rule="evenodd" clip-rule="evenodd" d="M125.385 61.9333V53.41H126.707V54.707C127.033 54.1011 127.343 53.6955 127.629 53.5102C127.909 53.3199 128.22 53.2197 128.555 53.2197C129.046 53.2197 129.542 53.385 130.048 53.6855L129.537 55.0075C129.181 54.8172 128.831 54.712 128.475 54.712C128.165 54.712 127.884 54.8122 127.629 54.9975C127.383 55.1878 127.198 55.4532 127.083 55.7937C126.923 56.3045 126.843 56.8654 126.843 57.4763V61.9383H125.385V61.9333Z" fill="#313080"/>
<path fill-rule="evenodd" clip-rule="evenodd" d="M141.49 57.3113V55.9241H146.528V60.2859C145.757 60.8968 144.961 61.3525 144.135 61.668C143.313 61.9735 142.462 62.1237 141.591 62.1237C140.419 62.1237 139.357 61.8784 138.396 61.3826C137.439 60.8868 136.718 60.1707 136.222 59.2393C135.741 58.2978 135.496 57.2512 135.496 56.0994C135.496 54.9476 135.741 53.8859 136.222 52.9044C136.708 51.9129 137.414 51.1717 138.32 50.686C139.237 50.2052 140.279 49.9648 141.46 49.9648C142.327 49.9648 143.103 50.1101 143.799 50.3805C144.495 50.6559 145.041 51.0415 145.432 51.5273C145.822 52.023 146.133 52.659 146.333 53.4553L144.876 53.8359C144.7 53.2349 144.475 52.7742 144.21 52.4287C143.949 52.0831 143.564 51.8127 143.078 51.6024C142.592 51.3971 142.046 51.2969 141.44 51.2969C140.724 51.2969 140.098 51.3971 139.577 51.6224C139.052 51.8428 138.626 52.1232 138.31 52.4788C137.98 52.8393 137.74 53.2249 137.549 53.6506C137.254 54.3767 137.104 55.1679 137.104 56.0193C137.104 57.0759 137.284 57.9523 137.649 58.6634C138.005 59.3695 138.541 59.8953 139.247 60.2358C139.943 60.5763 140.684 60.7416 141.455 60.7416C142.141 60.7416 142.802 60.6164 143.453 60.361C144.104 60.0906 144.59 59.8152 144.926 59.5247V57.3163H141.48L141.49 57.3113Z" fill="#313080"/>
<path fill-rule="evenodd" clip-rule="evenodd" d="M148.691 61.9333V53.41H150.013V54.707C150.344 54.1011 150.659 53.6955 150.935 53.5102C151.215 53.3199 151.526 53.2197 151.866 53.2197C152.352 53.2197 152.848 53.385 153.354 53.6855L152.848 55.0125C152.482 54.8172 152.137 54.707 151.781 54.707C151.471 54.707 151.18 54.8072 150.935 54.9925C150.684 55.1828 150.504 55.4482 150.399 55.7887C150.234 56.2995 150.149 56.8604 150.149 57.4713V61.9333H148.691Z" fill="#313080"/>
<path fill-rule="evenodd" clip-rule="evenodd" d="M153.785 57.6718C153.785 56.0893 154.23 54.9275 155.112 54.1613C155.863 53.5353 156.764 53.2148 157.831 53.2148C159.013 53.2148 159.974 53.6004 160.731 54.3766C161.477 55.1378 161.862 56.1945 161.862 57.5466C161.862 58.6433 161.687 59.5096 161.357 60.1456C161.026 60.7666 160.535 61.2573 159.909 61.5979C159.278 61.9484 158.572 62.1287 157.831 62.1287C156.619 62.1287 155.648 61.7481 154.897 60.9819C154.155 60.2157 153.78 59.119 153.78 57.6818M155.297 57.6668C155.297 58.7635 155.538 59.5797 156.023 60.1256C156.499 60.6714 157.095 60.9419 157.836 60.9419C158.577 60.9419 159.153 60.6714 159.639 60.1206C160.125 59.5747 160.35 58.7484 160.35 57.6267C160.35 56.5701 160.115 55.7738 159.639 55.233C159.148 54.6921 158.557 54.4167 157.836 54.4167C157.115 54.4167 156.499 54.6921 156.023 55.228C155.538 55.7738 155.297 56.5851 155.297 57.6768V57.6668Z" fill="#313080"/>
<path fill-rule="evenodd" clip-rule="evenodd" d="M169.319 61.9334V60.6815C168.653 61.648 167.731 62.1287 166.579 62.1287C166.069 62.1287 165.603 62.0286 165.157 61.8383C164.717 61.643 164.381 61.4026 164.171 61.1171C163.95 60.8117 163.8 60.4611 163.725 60.0355C163.66 59.755 163.63 59.3043 163.63 58.6934V53.4102H165.082V58.1425C165.082 58.8837 165.107 59.3945 165.167 59.6549C165.262 60.0355 165.453 60.3459 165.753 60.5563C166.064 60.7666 166.419 60.8768 166.87 60.8768C167.321 60.8768 167.716 60.7716 168.102 60.5513C168.482 60.3259 168.763 60.0254 168.913 59.6448C169.073 59.2592 169.158 58.7084 169.158 57.9773V53.4152H170.611V61.9384H169.324L169.319 61.9334Z" fill="#313080"/>
<path fill-rule="evenodd" clip-rule="evenodd" d="M172.954 65.2036V53.4053H174.256V54.527C174.582 54.0863 174.937 53.7658 175.338 53.5455C175.729 53.3301 176.214 53.21 176.78 53.21C177.521 53.21 178.187 53.4003 178.748 53.7758C179.324 54.1514 179.75 54.6772 180.04 55.3583C180.336 56.0394 180.466 56.7905 180.466 57.5968C180.466 58.4731 180.306 59.2594 179.995 59.9605C179.675 60.6565 179.204 61.1824 178.603 61.5579C177.997 61.9335 177.351 62.1188 176.685 62.1188C176.189 62.1188 175.749 62.0187 175.353 61.8083C174.962 61.608 174.642 61.3526 174.391 61.0421V65.2036H172.949M174.236 57.717C174.236 58.8187 174.467 59.6199 174.927 60.1508C175.373 60.6716 175.934 60.937 176.575 60.937C177.216 60.937 177.797 60.6666 178.267 60.1207C178.738 59.5749 178.969 58.7386 178.969 57.6018C178.969 56.465 178.743 55.7088 178.283 55.163C177.822 54.6222 177.281 54.3567 176.635 54.3567C175.989 54.3567 175.453 54.6322 174.962 55.2131C174.477 55.794 174.231 56.6203 174.231 57.712L174.236 57.717Z" fill="#313080"/>
<path fill-rule="evenodd" clip-rule="evenodd" d="M39.0665 57.1911C38.4856 57.762 38.4856 58.6984 39.0665 59.2793L45.3463 65.5541C45.9222 66.13 46.8587 66.13 47.4396 65.5541L59.9841 53.0146H59.9941L66.2738 46.7348C66.8547 46.1539 66.8547 45.2225 66.2738 44.6416L59.9941 38.3668L47.4396 25.8123C46.8587 25.2364 45.9222 25.2364 45.3463 25.8123L39.0665 32.087C38.4856 32.6579 38.4856 33.5944 39.0665 34.1803L50.5744 45.6782L39.0665 57.1861V57.1911Z" fill="#313080"/>
<path fill-rule="evenodd" clip-rule="evenodd" d="M24.7894 45.6782L36.2973 34.1803C36.8782 33.5994 36.8782 32.6629 36.2973 32.087L30.0225 25.8123C29.4466 25.2364 28.5052 25.2364 27.9343 25.8123L15.3748 38.3618L9.09501 44.6366C8.51911 45.2175 8.51911 46.1489 9.09501 46.7298L15.3748 53.0046L27.9293 65.5541C28.5002 66.13 29.4416 66.13 30.0175 65.5541L36.2923 59.2793C36.8732 58.6984 36.8732 57.762 36.2923 57.1911L24.7844 45.6832L24.7894 45.6782Z" fill="#B6B2B2"/>
</g>
<defs>
<clipPath id="clip0_206_33791">
<rect width="171.812" height="40.5981" fill="white" transform="translate(8.65918 25.3813)"/>
</clipPath>
</defs>
</svg>
