<svg width="190" height="92" viewBox="0 0 190 92" fill="none" xmlns="http://www.w3.org/2000/svg">
<rect x="0.931641" width="188.733" height="91.7633" fill="white"/>
<path d="M26.0962 36.1733C26.0962 34.5774 26.0962 33.048 26.0962 31.4521C41.6981 31.4521 57.2371 31.4521 72.8391 31.4521C72.8391 32.9815 72.8391 34.5109 72.8391 36.1733C57.3001 36.1733 41.761 36.1733 26.0962 36.1733Z" fill="black"/>
<path d="M117.946 36.2397C117.946 34.6438 117.946 33.1144 117.946 31.5186C133.485 31.5186 148.898 31.5186 164.437 31.5186C164.437 33.0479 164.437 34.5773 164.437 36.2397C149.024 36.2397 133.548 36.2397 117.946 36.2397Z" fill="black"/>
<path d="M95.6757 45.749C97.2485 45.35 98.4438 45.616 99.4504 47.1454C101.715 50.4701 104.295 53.5954 106.685 56.8537C106.937 57.1196 107.188 57.4521 107.629 57.9841C107.629 53.7284 107.629 49.8052 107.629 45.749C108.824 45.749 109.894 45.749 111.026 45.749C111.026 51.9995 111.026 58.1836 111.026 64.3676C109.327 64.7666 108.132 64.5006 107 62.9047C104.861 59.7795 102.533 56.9202 100.268 53.9279C99.9536 53.5289 99.5762 53.1299 99.01 52.465C99.01 56.6542 99.01 60.5109 99.01 64.4341C97.8147 64.4341 96.7452 64.4341 95.6128 64.4341C95.6757 58.2501 95.6757 52.066 95.6757 45.749Z" fill="black"/>
<path d="M134.115 64.5006C134.115 58.117 134.115 51.9995 134.115 45.8154C137.072 45.8154 140.028 45.4829 142.859 45.8819C146.697 46.4139 149.15 49.8051 149.339 53.9278C149.465 56.3217 149.276 58.5825 148.018 60.6438C146.571 63.0377 144.369 64.2346 141.79 64.5006C139.336 64.7 136.757 64.5006 134.115 64.5006ZM137.512 48.7412C137.512 53.0634 137.512 57.1861 137.512 61.4418C140.28 61.5748 143.048 61.9737 144.873 59.1809C146.508 56.6541 146.508 53.9278 145.124 51.268C143.488 48.0098 140.469 48.7412 137.512 48.7412Z" fill="black"/>
<path d="M46.6677 58.3168C46.6677 60.3117 46.6677 62.3065 46.6677 64.4344C45.5353 64.4344 44.5287 64.4344 43.2705 64.4344C43.2705 61.3756 43.2705 58.2503 43.2705 55.125C43.2705 52.0663 43.2705 48.941 43.2705 45.6162C45.9128 45.6162 48.4921 45.5497 51.0086 45.6827C52.078 45.7492 53.2734 46.0152 54.1541 46.6137C57.9288 49.2735 57.74 54.4601 53.6508 57.4524C54.909 59.7132 56.2302 61.974 57.6142 64.5008C56.356 64.5008 55.2865 64.5673 54.2799 64.5008C53.9654 64.5008 53.6508 64.1019 53.4621 63.8359C52.7701 62.7055 52.078 61.4421 51.386 60.3117C50.1278 57.9178 49.5616 57.6519 46.6677 58.3168ZM46.7306 48.675C46.7306 50.8693 46.7306 52.8642 46.7306 54.9256C48.1147 54.9256 49.4358 54.9256 50.7569 54.9256C52.3297 54.9256 53.3992 53.7951 53.4621 51.9998C53.525 50.4039 52.3926 48.808 51.0086 48.675C49.6245 48.6085 48.2405 48.675 46.7306 48.675Z" fill="black"/>
<path d="M114.674 45.7485C115.995 45.7485 117.002 45.7485 118.197 45.7485C118.197 48.4083 118.197 51.0017 118.197 53.6615C118.197 54.7254 118.197 55.7228 118.26 56.7867C118.386 59.5795 120.21 61.5744 122.538 61.5744C124.992 61.5744 126.879 59.7125 127.005 56.8532C127.131 53.7944 127.068 50.8022 127.131 47.7434C127.131 47.0784 127.131 46.48 127.131 45.7485C128.263 45.7485 129.27 45.7485 130.654 45.7485C130.402 50.2702 130.465 54.8584 129.773 59.247C129.144 63.2368 126.187 64.8326 121.72 64.6331C118.449 64.5002 115.555 62.1063 115.178 58.5821C114.737 54.3264 114.8 50.0707 114.674 45.7485Z" fill="black"/>
<path d="M60.2568 45.6826C61.2004 45.6826 62.207 45.6826 63.4023 45.6826C63.4023 49.0739 63.4023 52.3986 63.4023 55.7234C63.4023 56.6543 63.5281 57.5852 63.7798 58.5162C64.4089 60.5775 66.3591 61.8409 68.4352 61.575C70.3854 61.309 72.084 59.3806 72.1469 56.9868C72.2728 53.928 72.2098 50.8027 72.2728 47.744C72.2728 47.1455 72.2728 46.5471 72.2728 45.8156C73.4052 45.8156 74.4117 45.8156 75.5441 45.8156C75.5441 46.2811 75.607 46.7465 75.607 47.212C75.5441 50.8692 75.7329 54.593 75.2925 58.2502C74.7892 62.5724 71.9582 64.7002 67.6802 64.6337C63.6539 64.5672 60.76 62.3064 60.4455 58.1172C59.9422 54.061 60.2568 49.9383 60.2568 45.6826Z" fill="black"/>
<path d="M82.6532 56.2548C82.6532 58.1166 82.6532 59.646 82.6532 61.3749C85.61 61.3749 88.5668 61.3749 91.5866 61.3749C91.5866 62.5053 91.5866 63.4362 91.5866 64.4337C87.5603 64.4337 83.534 64.4337 79.3818 64.4337C79.3818 58.2496 79.3818 52.0656 79.3818 45.7485C83.3452 45.7485 87.3086 45.7485 91.3349 45.7485C91.3349 46.6795 91.3349 47.6104 91.3349 48.6743C88.5039 48.6743 85.6729 48.6743 82.779 48.6743C82.779 50.2702 82.779 51.7996 82.779 53.462C85.2326 53.462 87.6861 53.462 90.2025 53.462C90.2025 54.3929 90.2025 55.2573 90.2025 56.2548C87.6861 56.2548 85.2326 56.2548 82.6532 56.2548Z" fill="black"/>
<path d="M152.484 64.4341C152.484 58.25 152.484 52.066 152.484 45.8154C156.448 45.8154 160.411 45.8154 164.5 45.8154C164.5 46.6799 164.5 47.6108 164.5 48.6747C161.669 48.6747 158.838 48.6747 155.882 48.6747C155.882 50.3371 155.882 51.8665 155.882 53.4624C158.335 53.4624 160.789 53.4624 163.305 53.4624C163.305 54.3933 163.305 55.2577 163.305 56.1887C160.852 56.1887 158.461 56.1887 155.756 56.1887C155.756 57.7846 155.693 59.3139 155.819 60.7768C155.819 61.0428 156.511 61.4418 156.888 61.4418C159.027 61.5083 161.229 61.5083 163.368 61.5083C163.745 61.5083 164.123 61.5748 164.5 61.5748C164.5 62.5057 164.5 63.4366 164.5 64.4341C160.6 64.4341 156.574 64.4341 152.484 64.4341Z" fill="black"/>
<path d="M31.7582 48.6743C29.745 48.6743 27.9206 48.6743 26.0962 48.6743C26.0962 47.6769 26.0962 46.746 26.0962 45.7485C30.9403 45.7485 35.7845 45.7485 40.6915 45.7485C40.6915 46.6795 40.6915 47.6104 40.6915 48.6743C38.8671 48.6743 37.1056 48.6743 35.0925 48.6743C35.0925 53.9939 35.0925 59.1805 35.0925 64.5002C33.8972 64.5002 32.8906 64.5002 31.6953 64.5002C31.7582 59.247 31.7582 54.0604 31.7582 48.6743Z" fill="black"/>
<path d="M90.3285 26.6646C91.0835 26.6646 91.7755 26.6646 92.5933 26.6646C92.5933 28.5929 92.5933 30.4548 92.5933 32.4496C94.7952 32.4496 96.8084 32.4496 98.8844 32.4496C98.8844 30.5213 98.8844 28.7259 98.8844 26.7975C99.7023 26.7975 100.457 26.7975 101.275 26.7975C101.275 31.4522 101.275 36.1069 101.275 40.828C100.52 40.828 99.891 40.828 98.9473 40.828C98.9473 38.8997 98.9473 36.9048 98.9473 34.777C96.8084 34.777 94.7952 34.777 92.6562 34.777C92.6562 36.7053 92.6562 38.7002 92.6562 40.828C91.7126 40.828 91.0206 40.828 90.2656 40.828C90.3285 36.1069 90.3285 31.3857 90.3285 26.6646Z" fill="black"/>
<path d="M105.301 40.8281C105.301 39.2322 105.301 37.7028 105.301 36.1734C105.301 33.4471 105.301 30.7208 105.301 27.928C105.301 26.9971 105.49 26.5981 106.496 26.5981C109.075 26.6646 111.655 26.5981 114.36 26.5981C114.36 27.3961 114.36 28.061 114.36 28.859C112.221 28.859 110.145 28.859 107.943 28.859C107.943 30.0559 107.943 31.1198 107.943 32.3832C109.705 32.3832 111.529 32.3832 113.416 32.3832C113.416 33.1812 113.416 33.7796 113.416 34.5111C111.655 34.5111 109.83 34.5111 107.943 34.5111C107.943 35.841 107.943 37.0379 107.943 38.3678C110.082 38.3678 112.221 38.3678 114.486 38.3678C114.486 39.2322 114.486 39.8972 114.486 40.6951C111.466 40.8281 108.446 40.8281 105.301 40.8281Z" fill="black"/>
<path d="M87.3089 26.7314C87.3089 27.4629 87.3089 28.1278 87.3089 28.9258C85.9878 28.9258 84.6037 28.9258 83.1568 28.9258C83.1568 32.9155 83.1568 36.7722 83.1568 40.7619C82.276 40.7619 81.5211 40.7619 80.6403 40.7619C80.6403 36.9052 80.6403 33.0485 80.6403 28.9923C79.1934 28.9923 77.8722 28.9923 76.4253 28.9923C76.4253 28.1278 76.4253 27.4629 76.4253 26.7314C80.0112 26.7314 83.5971 26.7314 87.3089 26.7314Z" fill="black"/>
</svg>
