<svg width="189" height="93" viewBox="0 0 189 93" fill="none" xmlns="http://www.w3.org/2000/svg">
<rect y="0.763184" width="188.733" height="91.7633" fill="white"/>
<g clip-path="url(#clip0_206_33788)">
<path d="M42.9172 38.062H48.5871C53.6771 38.062 56.5236 40.6078 56.5236 45.9289C56.5236 51.25 54.0929 54.5828 48.5871 54.5828H42.9172V38.062ZM45.1159 52.7312H48.7719C50.2763 52.7312 54.3258 52.3145 54.3258 46.2288C54.3258 42.2962 52.8677 39.9136 48.8174 39.9136H45.1159V52.7312Z" fill="#098675"/>
<path d="M69.0869 50.7891C68.555 53.4269 66.6588 54.8609 63.9729 54.8609C60.1563 54.8609 58.3511 52.2232 58.2351 48.5681C58.2351 44.98 60.5936 42.3423 63.8569 42.3423C68.0919 42.3423 69.3893 46.3006 69.2716 49.191H60.317C60.2474 51.2746 61.4288 53.1253 64.0425 53.1253C65.6621 53.1253 66.7954 52.3383 67.1442 50.7883H69.0869V50.7891ZM67.1906 47.4563C67.097 45.5815 65.6861 44.0779 63.7426 44.0779C61.6848 44.0779 60.4579 45.6279 60.3178 47.4563H67.1906Z" fill="#098675"/>
<path d="M72.5115 50.8121C72.5811 52.5709 74.1071 53.1251 75.7267 53.1251C76.9536 53.1251 78.6196 52.8484 78.6196 51.3439C78.6196 49.8395 76.6769 49.5628 74.7094 49.1229C72.7667 48.683 70.7991 48.0351 70.7991 45.7445C70.7991 43.3379 73.1834 42.3438 75.2653 42.3438C77.903 42.3438 80.009 43.1763 80.1722 46.0907H78.2038C78.0663 44.5648 76.7233 44.0768 75.4268 44.0768C74.2471 44.0768 72.8827 44.4015 72.8827 45.6044C72.8827 47.017 74.9645 47.2481 76.7929 47.688C78.7588 48.1262 80.7032 48.7758 80.7032 51.0888C80.7032 53.9353 78.0414 54.8598 75.6115 54.8598C72.9282 54.8598 70.6608 53.7738 70.5457 50.8121H72.5115Z" fill="#098675"/>
<path d="M93.081 50.7891C92.5492 53.4269 90.6529 54.8609 87.967 54.8609C84.1504 54.8609 82.3452 52.2232 82.2292 48.5681C82.2292 44.98 84.5878 42.3423 87.851 42.3423C92.0861 42.3423 93.3826 46.3006 93.2658 49.191H84.3111C84.2415 51.2746 85.4229 53.1253 88.0366 53.1253C89.6579 53.1253 90.7912 52.3383 91.1384 50.7883H93.081V50.7891ZM91.1848 47.4563C91.0911 45.5815 89.6803 44.0779 87.7368 44.0779C85.679 44.0779 84.452 45.6279 84.312 47.4563H91.1848Z" fill="#098675"/>
<path d="M95.2341 42.6204H97.0849V45.1422H97.1304C98.0807 43.2219 99.3996 42.2733 101.527 42.3429V44.4248C98.3574 44.4248 97.2 46.23 97.2 49.2613V54.5823H95.2341V42.6196V42.6204Z" fill="#098675"/>
<path d="M105.739 42.6205H108.123V44.3552H105.739V51.7822C105.739 52.6861 105.994 52.8476 107.219 52.8476H108.123V54.5824H106.617C104.58 54.5824 103.772 54.1657 103.772 51.967V44.3552H101.734V42.6205H103.772V39.0342H105.738V42.6205H105.739Z" fill="#098675"/>
<path d="M110.574 38.0615H118.603C121.565 38.0615 123.51 39.4045 123.51 42.1574C123.51 43.8251 122.653 45.0262 121.149 45.675V45.7205C123.163 46.1604 124.251 47.7327 124.251 49.9779C124.251 52.5692 122.446 54.5832 118.165 54.5832H110.575V38.0615H110.574ZM113.466 44.9799H118.186C119.576 44.9799 120.617 44.1705 120.617 42.6909C120.617 41.0232 119.762 40.4218 118.186 40.4218H113.466V44.9799ZM113.466 52.2238H118.58C120.339 52.2238 121.357 51.2753 121.357 49.6084C121.357 47.9415 120.339 47.0643 118.58 47.0643H113.466V52.2238Z" fill="black"/>
<path d="M125.939 48.5902C125.939 44.9343 128.136 42.2974 131.977 42.2974C135.819 42.2974 138.018 44.9351 138.018 48.5902C138.018 52.2453 135.821 54.9071 131.977 54.9071C128.134 54.9071 125.939 52.2693 125.939 48.5902ZM135.38 48.5902C135.38 46.5307 134.338 44.3792 131.977 44.3792C129.617 44.3792 128.577 46.5307 128.577 48.5902C128.577 50.6497 129.619 52.8252 131.977 52.8252C134.336 52.8252 135.38 50.672 135.38 48.5902Z" fill="black"/>
<path d="M150.235 51.9229C150.235 52.5708 150.373 52.8251 150.859 52.8251C151.021 52.8251 151.23 52.8251 151.507 52.7796V54.6062C151.114 54.7454 150.282 54.907 149.842 54.907C148.776 54.907 148.013 54.5366 147.806 53.4489C146.763 54.467 145.074 54.907 143.662 54.907C141.511 54.907 139.568 53.7496 139.568 51.4126C139.568 48.4285 141.951 47.9422 144.172 47.687C146.07 47.3399 147.757 47.5496 147.757 45.9978C147.757 44.6334 146.347 44.3782 145.281 44.3782C143.801 44.3782 142.761 44.9797 142.645 46.2745H140.006C140.191 43.1986 142.807 42.2964 145.444 42.2964C147.782 42.2964 150.235 43.245 150.235 45.7667V51.9221V51.9229ZM147.596 48.5901C146.787 49.1219 145.514 49.1004 144.357 49.3075C143.223 49.4931 142.205 49.909 142.205 51.2974C142.205 52.4771 143.71 52.8251 144.633 52.8251C145.791 52.8251 147.596 52.2237 147.596 50.5559V48.5892V48.5901Z" fill="black"/>
<path d="M153.08 42.6207H155.557V44.9354H155.602C155.903 43.662 157.477 42.2959 159.096 42.2959C159.698 42.2959 159.859 42.344 160.091 42.3655V44.9113C159.722 44.8658 159.328 44.7953 158.957 44.7953C157.152 44.7953 155.718 46.2517 155.718 48.8912V54.5825H153.08V42.6198V42.6207Z" fill="black"/>
<path d="M172.077 54.5837H169.579V52.9624H169.531C168.837 54.3285 167.334 54.9067 165.829 54.9067C162.058 54.9067 160.23 52.1075 160.23 48.5203C160.23 44.1933 162.798 42.297 165.413 42.297C166.918 42.297 168.583 42.8529 169.393 44.1718H169.439V38.062H172.076V54.5845L172.077 54.5837ZM166.176 52.8249C168.537 52.8249 169.532 50.6734 169.532 48.5899C169.532 45.9521 168.258 44.3789 166.223 44.3789C163.746 44.3789 162.867 46.5785 162.867 48.7299C162.867 50.8814 163.886 52.8258 166.176 52.8258" fill="black"/>
<path d="M179.854 52.1665C179.854 53.6392 178.659 54.8335 177.187 54.8335C175.714 54.8335 174.52 53.6392 174.52 52.1665C174.52 50.6938 175.714 49.4995 177.187 49.4995C178.659 49.4995 179.854 50.6938 179.854 52.1665Z" fill="#098675"/>
<path d="M37.5328 46.4844C37.5328 49.9702 36.5232 53.5763 34.5436 56.4718C32.7565 59.0949 30.044 60.9629 27.0582 61.9776C23.7563 63.0988 20.3599 62.9072 16.9273 62.9072C16.3465 62.9072 8.45898 62.9072 8.45898 62.9072V30.0624H8.46758H16.9265C20.3581 30.0624 23.7546 29.8699 27.0574 30.992C30.0422 32.0067 32.7548 33.8747 34.5428 36.4978C36.5224 39.3933 37.5319 42.9994 37.5319 46.4852L37.5328 46.4844Z" fill="#098675"/>
<path d="M8.89349 34.8121C9.64873 37.3992 9.97007 40.0585 10.0422 42.789C9.76558 42.3465 9.65389 41.8774 9.57312 41.4083C9.26467 39.6521 8.89864 37.9087 8.46045 36.18V33.3867C8.61253 33.8601 8.75516 34.3344 8.89349 34.8121Z" fill="white"/>
<path d="M11.7357 41.421C11.8431 42.5027 11.8071 43.6017 11.8337 44.692C11.8337 44.7728 11.7976 44.857 11.7306 44.9377C11.5605 43.8964 11.4041 42.855 11.2168 41.8188C10.7296 39.102 10.0594 36.4342 9.21913 33.8067C8.96566 33.0154 8.71477 32.2292 8.46045 31.443V30.522C10.2656 33.9356 11.3654 37.5649 11.7357 41.421Z" fill="white"/>
<path d="M16.5129 31.2774C14.7034 30.9965 12.9248 30.5712 11.1643 30.0625H14.1406C15.4053 30.2816 16.6701 30.4955 17.9349 30.7017C19.9729 31.0325 22.0195 31.292 24.061 31.5867C24.262 31.6134 24.4588 31.6537 24.6289 31.6804C24.012 31.8952 20.0708 31.8325 16.5137 31.2783L16.5129 31.2774Z" fill="white"/>
<path d="M22.3039 45.7886C22.255 45.7576 22.2008 45.7396 22.0891 45.6854C22.5677 46.3195 22.8865 46.7208 23.329 47.2973C23.3651 47.342 23.4226 47.3686 23.4716 47.3953C24.9237 48.1729 26.1961 49.063 27.5185 50.0416C28.3991 50.6938 29.2661 51.3691 30.133 52.0393C30.2808 52.1553 30.4011 52.3031 30.5265 52.4508C27.9481 51.0521 25.8928 49.6086 23.7792 47.8842C23.7792 47.9065 23.7843 47.9426 23.7843 47.9426C24.3162 48.5861 24.8334 49.2297 25.3704 49.8638C26.5458 51.2402 27.5288 52.8401 28.3244 54.4803C28.6595 55.1685 29.1999 56.5493 29.1999 56.6833C27.0553 53.3092 25.8464 50.6998 22.7859 46.9605C22.9286 47.2466 24.6908 50.4497 25.3258 52.0273C25.8662 53.3633 26.264 54.7398 26.4427 56.1738C26.447 56.1961 26.4384 56.2185 26.4384 56.2271C25.9203 55.0113 25.3971 53.7869 24.879 52.5668C24.3291 51.2797 23.7354 50.0064 23.2482 48.697C22.944 47.8927 22.5746 46.8591 22.1493 46.1039C22.0109 45.8582 21.9474 45.8504 21.7686 45.627C21.492 45.2782 21.3339 45.0651 21.0074 44.7395C21.1371 45.0385 21.2531 45.3383 21.3958 45.633C22.035 46.9511 22.3228 48.1033 22.908 49.4436C23.5429 50.9051 23.9536 52.4422 24.0919 54.0378C24.0962 54.0782 24.0962 54.1229 24.1005 54.1804C24.0644 54.1581 24.0378 54.1538 24.0335 54.1357C23.225 52.053 23.0411 51.2136 22.2593 49.1171C21.9955 48.4151 21.4997 46.6503 21.254 45.9398C21.0753 45.4165 20.6826 44.4155 20.3879 43.955C19.9368 43.253 19.8921 43.2754 19.356 42.6275C19.7444 43.4764 19.7925 43.9198 20.186 44.7644C21.2402 46.994 21.5306 49.3534 21.3347 51.7893C21.3038 52.1733 21.2454 52.5625 21.1964 52.9466C21.1964 52.9646 21.1741 52.9827 21.1337 53.054C21.1071 52.7997 21.0753 52.5978 21.071 52.3924C20.9859 49.8139 20.4807 47.3068 19.7933 44.8314C19.6636 44.358 19.5339 43.8888 19.3998 43.4146C19.1541 42.5433 18.88 41.8912 18.2725 41.2159C18.1918 41.1308 18.1565 41.0861 18.0491 41.0105C18.0852 41.0999 18.1248 41.1849 18.1608 41.2743C18.6746 42.5837 19.0604 43.6964 19.521 45.0273C20.1112 46.7208 20.2092 48.4865 20.1061 50.2642C20.07 50.8768 20.003 51.4928 19.9497 52.1054H19.8646C19.8423 51.8958 19.8114 51.6896 19.8019 51.4799C19.6902 48.41 19.0733 45.4208 18.3585 42.4488C18.2158 41.8457 17.7871 41.0105 17.5542 40.434C17.4606 40.202 17.2458 40.0138 17.0808 39.8128C16.7595 39.4193 16.8488 39.5344 16.5094 39.128C17.171 41.0853 17.9065 42.6499 18.2863 44.6742C18.5767 46.207 18.6171 47.7484 18.5681 49.2993C18.5458 50.0408 18.5191 50.778 18.4925 51.5959C18.4212 51.1758 18.3447 50.8269 18.3 50.4747C18.0182 48.2003 17.7819 45.9166 17.4511 43.6508C17.2948 42.6009 16.982 41.5776 16.7182 40.5448C16.5576 39.9374 16.3651 39.3342 16.1597 38.7396C16.1065 38.579 15.9501 38.4578 15.8333 38.3238C15.3822 37.7876 15.0101 37.3383 14.5273 36.8107C16.8729 41.0646 17.4864 45.5274 16.9906 50.2908C16.9683 50.2951 16.9416 50.3045 16.9193 50.3088C16.8884 50.1525 16.848 50.0047 16.8342 49.8483C16.7139 48.4762 16.6289 47.0997 16.4768 45.7284C16.1683 42.9489 15.5068 40.2407 14.6089 37.5909C14.4834 37.2154 14.3674 36.8313 14.193 36.4782C14.077 36.2325 13.876 36.022 13.6973 35.8123C13.3218 35.3793 12.9377 34.9497 12.5313 34.5295C14.6716 38.8152 15.6906 43.3372 15.4183 48.1368C15.3959 47.9984 15.3693 47.8601 15.3512 47.7209C15.0342 45.3572 14.6364 43.0064 14.0152 40.7003C13.479 38.7027 12.8716 36.7231 12.3122 34.7297C12.1782 34.2382 11.9814 33.8181 11.6154 33.4469C11.1282 32.9683 10.69 32.4373 10.2166 31.9407C12.6525 36.5744 13.9748 41.4504 13.5323 46.7139C13.5057 46.7182 13.4833 46.7225 13.4567 46.732C13.3269 45.7353 13.211 44.7438 13.0683 43.7514C12.6929 41.0749 12.0716 38.4518 11.2717 35.8733C10.843 34.4969 10.3962 33.1204 9.9537 31.7491C9.91332 31.6288 9.83341 31.5077 9.74835 31.4097C9.33164 30.9561 8.91149 30.4998 8.46899 30.0625H9.24658C9.42099 30.2593 9.59971 30.456 9.77842 30.6476C9.83685 30.7103 9.92621 30.7636 10.0104 30.7817C12.057 31.1975 14.0899 31.6709 16.1503 32.0103C18.6755 32.4305 21.2222 32.7432 23.7603 33.1049C24.037 33.1453 24.3102 33.2029 24.5825 33.306C22.9294 33.4761 21.2806 33.4761 19.6309 33.3593C17.9821 33.2433 16.3462 33.0104 14.7601 32.537C13.1826 32.0636 11.6317 31.5094 10.0817 30.9956C10.2965 31.2413 10.5328 31.5094 10.7699 31.7775C10.904 31.9296 11.02 32.104 11.1721 32.2337C11.2923 32.3411 11.4487 32.4348 11.6008 32.4709C13.9335 32.958 16.2663 33.4632 18.6033 33.91C20.4575 34.2632 22.3211 34.5398 24.1804 34.862C24.8197 34.9694 25.4495 35.1164 26.0793 35.2822C23.6039 35.3269 21.1414 35.2152 18.697 34.7821C16.2482 34.3482 13.9198 33.5268 11.5785 32.6822C11.7529 32.897 11.9273 33.1067 12.1017 33.3172C12.2761 33.5225 12.4454 33.733 12.6336 33.9298C12.7049 34.0011 12.808 34.0638 12.9059 34.0862C16.6504 34.9127 20.4137 35.6637 24.1091 36.6956C24.8644 36.9104 25.6196 37.12 26.3749 37.3434C26.6163 37.4147 26.8534 37.5264 27.1121 37.6252C26.6111 37.6965 22.2369 36.9551 19.8947 36.437C17.5173 35.9094 15.4844 35.4386 13.2505 34.4599C13.131 34.4161 13.0563 34.3594 12.9841 34.356C13.2788 34.691 13.4687 35.0244 13.8304 35.2701C14.2016 35.5202 14.6793 35.6233 15.1132 35.7754C17.5886 36.6337 20.1095 37.3443 22.6657 37.9156C24.1495 38.2507 25.6419 38.5411 27.1301 38.8539C27.3045 38.89 27.4789 38.9518 27.6396 39.0464C22.8048 38.7963 18.3817 38.0737 14.114 35.6697C14.5522 36.2015 14.6957 36.382 15.1382 36.9095C15.1871 36.9722 15.2722 37.0126 15.3478 37.0436C17.5422 37.8435 19.8775 38.5686 22.1433 39.1452C23.6984 39.543 25.2398 39.9855 26.7821 40.4228C27.1353 40.5259 27.466 40.6952 27.7968 40.8833C27.4033 40.812 27.015 40.727 26.6257 40.6642C24.8248 40.3962 23.0282 40.0877 21.2901 39.5559C20.1327 39.1984 19.02 38.7027 17.8936 38.2559C17.0894 37.9337 16.3471 37.6613 15.511 37.3752C15.6365 37.5359 15.713 37.6218 15.8427 37.7825C16.0575 38.0462 16.1718 38.17 16.3857 38.4295C16.4923 38.554 16.5722 38.6546 16.7182 38.7328C16.781 38.7663 17.0155 38.8539 17.0379 38.8651C18.1858 39.4399 19.5304 39.8093 20.7445 40.1685C23.2027 40.9014 25.6737 41.5982 28.1354 42.3088C28.2385 42.3397 28.3321 42.3801 28.4344 42.4162C28.4301 42.4385 28.4258 42.4566 28.4206 42.4789C27.9695 42.4299 27.5176 42.3895 27.0708 42.3311C25.5019 42.1343 23.9476 41.8439 22.4371 41.3662C21.217 40.977 20.0459 40.4503 18.8929 39.9056C18.209 39.6598 17.6909 39.4364 16.976 39.1632C17.275 39.5387 17.3326 39.6341 17.641 40.0001C17.7613 40.1384 17.9048 40.2819 18.0655 40.367C19.0484 40.8894 20.2513 41.1875 21.3064 41.5269C23.0807 42.094 24.8592 42.6533 26.6421 43.2118C27.4781 43.4756 28.3175 43.7351 29.1535 43.998C29.2386 44.0246 29.3185 44.0607 29.3907 44.1277C27.4291 43.8416 25.4538 43.5598 23.5902 42.863C21.7489 42.1747 20.0477 41.4891 18.2382 40.7338C18.2425 40.7424 18.2519 40.7871 18.2786 40.8189C18.5466 41.1626 18.7202 41.3843 18.9926 41.7279C19.0458 41.7907 19.1042 41.862 19.1799 41.8929C19.698 42.112 20.2118 42.344 20.7436 42.5227C22.5849 43.1353 24.4305 43.7333 26.2717 44.3322C27.2865 44.6587 28.3003 44.9714 29.3151 45.2928C29.3907 45.3151 29.4628 45.3512 29.5299 45.4131C27.729 45.1536 25.9418 44.846 24.2028 44.2918C22.4552 43.7333 21.1019 42.9781 19.399 42.2271C19.698 42.6112 19.8011 42.7143 20.0468 43.0855C20.5116 43.7823 20.9447 43.8098 21.9774 44.2385C23.2731 44.712 24.5645 45.2172 25.8473 45.7267C27.3311 46.3118 28.8013 46.9201 30.2799 47.519C30.2937 47.5233 30.3023 47.5413 30.3513 47.586C30.1098 47.5499 29.9088 47.519 29.7077 47.4924C27.7144 47.1934 25.8421 46.4106 24.073 45.5884C23.0858 45.0788 22.2971 44.7652 21.3141 44.242C21.1758 44.1664 21.0237 44.1165 20.845 44.0856C21.0418 44.3451 20.973 44.2162 21.1474 44.4886C21.5985 45.1991 22.4105 45.6373 23.1391 45.9458C24.1444 46.3745 25.1324 46.8437 26.1154 47.3222C27.8003 48.1402 29.4757 48.9711 31.1563 49.7976C31.183 49.8157 31.2096 49.8337 31.2414 49.8466C31.2328 49.8689 31.2276 49.8913 31.2191 49.9136C30.5841 49.7392 30.0033 49.6318 29.3202 49.3861C27.5597 48.7245 26.0939 48.0586 24.61 47.1298C23.774 46.6117 23.1399 46.3127 22.3039 45.7903V45.7886Z" fill="white"/>
</g>
<defs>
<clipPath id="clip0_206_33788">
<rect width="171.394" height="32.8698" fill="white" transform="translate(8.46045 30.0493)"/>
</clipPath>
</defs>
</svg>
