<svg width="190" height="93" viewBox="0 0 190 93" fill="none" xmlns="http://www.w3.org/2000/svg">
<rect x="0.73291" y="0.763184" width="188.733" height="91.7633" fill="white"/>
<path d="M166.688 31.6119C166.492 31.8722 166.362 32.1326 166.167 32.3278C165.777 32.7183 165.386 32.6532 165.126 32.1976C164.93 31.8072 164.605 31.6119 164.15 31.5468C161.611 31.2214 159.073 31.1563 156.47 31.1563C154.192 31.2214 151.914 31.2865 149.637 31.3516C148.01 31.4167 146.383 31.4817 144.821 31.6119C142.868 31.7421 140.916 31.8072 138.963 31.9373C138.508 31.9373 138.117 32.1326 137.792 32.523C137.597 32.7834 137.402 32.9786 137.271 33.2389C135.775 36.1025 134.278 38.966 132.716 41.7644C130.113 46.5804 127.77 51.5265 125.557 56.4726C123.539 61.0282 121.522 65.5839 119.635 70.1395C119.504 70.3998 119.439 70.6601 119.309 70.8554C119.049 71.3109 118.333 71.4411 117.877 71.1808C117.617 71.0506 117.552 70.8554 117.682 70.53C117.877 69.8791 118.073 69.2283 118.268 68.6426C119.309 65.5188 120.546 62.46 121.717 59.4012C123.344 55.3662 124.906 51.3313 126.533 47.2963C126.663 47.0359 126.728 46.7106 126.859 46.4502C126.663 46.3201 126.468 46.3851 126.273 46.3851C125.622 46.4502 125.036 46.3851 124.385 46.255C124.125 46.1899 123.8 46.0597 123.539 45.8645C123.149 45.6042 122.824 45.2788 122.498 45.0185C122.108 44.6931 121.912 44.3026 121.912 43.847C121.912 43.6518 121.912 43.4565 121.847 43.3264C121.652 43.2613 121.522 43.3915 121.457 43.5216C121.131 43.847 120.806 44.1724 120.481 44.5629C118.138 47.101 116.055 49.8344 114.038 52.6329C113.647 53.2186 113.192 53.8043 112.736 54.39C112.671 54.5202 112.541 54.6503 112.411 54.7805C112.215 54.9757 111.955 55.0408 111.695 54.9107C111.304 54.7805 110.914 54.6504 110.523 54.5202C110.068 54.39 109.807 54.0646 109.873 53.6091C109.873 53.0884 109.938 52.5678 110.003 52.0471C110.198 51.2011 110.393 50.355 110.588 49.4439C110.588 49.3138 110.653 49.1836 110.653 49.0534C110.458 49.0534 110.393 49.1836 110.328 49.3138C109.482 50.6154 108.636 51.917 107.79 53.2837C107.334 53.9345 106.944 54.6504 106.358 55.2361C106.163 55.4313 105.968 55.6916 105.707 55.8218C104.926 56.4075 103.95 56.2123 103.495 55.3662C103.299 55.0408 103.169 54.6504 103.169 54.2599C103.039 53.0884 103.169 51.8519 103.364 50.6805C103.625 48.9884 104.211 47.3614 104.796 45.7343C104.926 45.4089 104.992 45.0835 105.122 44.7581C105.187 44.628 105.187 44.5629 105.187 44.3677C104.992 44.3677 104.861 44.5629 104.796 44.6931C103.885 45.7994 102.909 46.9709 101.998 48.0772C101.152 49.1185 100.306 50.1598 99.4597 51.2011C99.0692 51.6567 98.6136 52.1773 98.2232 52.6329C98.093 52.763 97.8977 52.8932 97.7676 53.0233C97.4422 53.2837 97.0517 53.2837 96.6612 53.0884C96.466 53.0233 96.3358 52.8932 96.1406 52.8281C95.0342 52.2424 94.4485 51.2662 94.5136 50.0296C94.5136 49.9646 94.5136 49.8995 94.5136 49.8344C94.5136 49.8344 94.5136 49.8344 94.5136 49.7693C94.4485 49.8344 94.3834 49.8344 94.3183 49.8995C93.7326 50.355 93.1469 50.8106 92.5612 51.2662C91.9754 51.7217 91.3897 52.1773 90.6738 52.4376C90.2183 52.6329 89.7627 52.6329 89.3071 52.3725C89.0468 52.2424 88.7865 52.1122 88.5913 51.9821C87.7452 51.5265 87.4198 50.9408 87.6151 49.9646C87.8754 48.4677 88.2659 47.0359 88.8516 45.6693C88.9167 45.474 88.9817 45.2137 89.1119 45.0185C89.177 44.8883 89.177 44.7581 89.0468 44.5629C88.8516 44.6931 88.6563 44.7581 88.4611 44.8883C86.2484 46.4502 84.2309 48.2074 82.3435 50.0947C81.107 51.3313 79.8705 52.5027 78.634 53.7392C78.1784 54.1948 77.6578 54.2599 77.072 54.0646C76.8117 53.9995 76.6165 53.8694 76.3562 53.7392C75.7704 53.4789 75.5101 53.0233 75.5752 52.3725C75.7054 51.3313 75.9657 50.29 76.2911 49.3138C77.4625 45.9296 79.0245 42.6756 80.9769 39.6168C81.1721 39.2914 81.4324 39.0311 81.6277 38.7707C81.6927 38.7057 81.7578 38.5755 81.888 38.5104C82.3435 38.1199 82.6689 38.1199 83.1245 38.5104C83.6451 39.0311 84.1658 39.5517 84.6864 40.0724C85.0769 40.4628 85.142 40.8533 84.9468 41.374C84.6864 41.9597 84.4261 42.5454 84.1007 43.1311C82.9943 45.0185 81.888 46.9058 80.8467 48.7931C80.7165 48.9884 80.6515 49.1836 80.5213 49.4439C80.7165 49.509 80.8467 49.3788 80.9769 49.3138C81.2372 49.0534 81.4975 48.7931 81.7578 48.5979C84.1007 46.3201 86.5738 44.1724 89.177 42.22C89.6325 41.8946 90.1532 41.5692 90.6087 41.2438C91.0643 40.9835 91.2596 40.9835 91.65 41.374C91.9754 41.6994 92.3659 42.0898 92.6913 42.4152C92.9516 42.6756 93.0818 43.001 93.0167 43.3915C92.9516 43.7169 92.8866 44.0423 92.7564 44.3677C92.1707 45.474 91.585 46.5804 90.9992 47.6868C90.5437 48.5328 90.1532 49.3788 89.8278 50.2249V50.29C89.8278 50.4201 89.7627 50.6154 89.8929 50.6805C89.9579 50.7455 90.1532 50.7455 90.2833 50.6805C90.4135 50.6154 90.5437 50.5503 90.6738 50.4852C91.9104 49.7693 93.212 49.0534 94.4485 48.3376C94.7739 48.1423 94.7739 48.1423 94.6437 47.6868C94.6437 47.6217 94.6437 47.5566 94.6437 47.4264C94.7739 46.9058 94.9041 46.3851 95.2295 45.9947C95.2945 45.8645 95.3596 45.7343 95.4247 45.5391C95.9453 44.3026 96.6612 43.1311 97.7025 42.22C97.8977 42.0248 98.093 41.8946 98.2882 41.7644C99.0041 41.3089 99.72 41.1787 100.501 41.5041C100.957 41.6994 101.347 41.9597 101.737 42.22C102.128 42.4803 102.518 42.8057 102.974 43.1311C103.104 43.1962 103.234 43.3264 103.364 43.3915C103.625 43.5867 103.755 43.5216 104.015 43.3264C104.211 43.1311 104.341 42.9359 104.536 42.7406C105.187 42.0248 105.838 41.3089 106.488 40.593C106.619 40.4628 106.749 40.2676 106.944 40.1374C107.465 39.747 108.18 39.812 108.636 40.3978C108.831 40.6581 108.896 40.9835 108.766 41.3089C108.376 42.1549 108.05 43.066 107.66 43.9121C106.879 45.7343 106.098 47.5566 105.512 49.4439C105.057 50.8106 104.731 52.2424 104.536 53.6741C104.471 54.1948 104.471 54.325 104.731 54.6504C104.992 54.6504 105.122 54.5202 105.317 54.39C105.968 53.6091 106.684 52.763 107.269 51.917C108.376 50.4201 109.482 48.8582 110.523 47.3614C110.588 47.2312 110.653 47.101 110.784 47.036C111.434 46.3851 111.825 45.5391 112.215 44.6931C112.801 43.5216 113.322 42.3502 113.973 41.1787C114.168 40.7882 114.493 40.3978 114.754 40.0073C115.274 39.3565 115.73 39.3565 116.315 39.8771C116.771 40.2676 117.292 40.7232 117.747 41.1136C118.138 41.439 118.203 41.6994 117.942 42.22C117.422 43.3264 116.836 44.4327 116.315 45.5391C116.055 46.0597 115.795 46.5153 115.6 47.036C115.535 47.1661 115.535 47.2312 115.535 47.3614C115.73 47.4264 115.86 47.2963 115.925 47.1661C116.381 46.5804 116.836 46.0597 117.292 45.474C118.789 43.5867 120.416 41.8295 122.173 40.1374C122.303 40.0073 122.498 39.812 122.693 39.6819C122.889 39.4866 123.149 39.4866 123.344 39.6168C123.735 39.8771 124.125 40.1374 124.451 40.4628C124.711 40.7882 124.841 41.1787 124.711 41.6343C124.646 42.0248 124.516 42.3502 124.385 42.7406C124.255 43.1311 124.19 43.4565 124.125 43.847C124.06 44.0423 124.06 44.2375 124.06 44.4978C124.06 44.8883 124.255 45.0835 124.581 45.0835C124.906 45.1486 125.166 45.1486 125.492 45.1486C125.947 45.1486 126.403 45.0835 126.859 45.0835C127.119 45.0835 127.249 45.0185 127.314 44.7581C127.835 43.3915 128.355 42.0248 128.876 40.6581C129.787 38.185 130.828 35.712 131.935 33.304C132 33.1088 132.13 32.9135 132.195 32.7183C132.26 32.458 132.195 32.3278 131.935 32.3278C131.805 32.3278 131.74 32.3278 131.609 32.3278C130.113 32.458 128.616 32.523 127.054 32.6532C125.817 32.7183 124.581 32.7834 123.344 32.9135C121.782 33.0437 120.155 33.1088 118.593 33.2389C117.292 33.304 115.99 33.4342 114.688 33.5643C113.322 33.6945 112.02 33.7596 110.653 33.8897C108.961 34.0199 107.269 34.2151 105.577 34.15C105.122 34.15 104.731 34.085 104.276 34.0199C103.82 33.9548 103.43 33.6945 103.169 33.304C102.844 32.8484 102.518 32.458 102.193 32.0024C102.063 31.8071 101.868 31.6119 102.063 31.3516C102.193 31.0913 102.453 31.0913 102.714 31.1563C103.364 31.2214 104.015 31.2865 104.666 31.3516C105.772 31.4167 106.879 31.4167 107.985 31.4818C110.719 31.5468 113.387 31.3516 116.055 31.2865C117.682 31.2214 119.244 31.2214 120.871 31.0913C122.433 31.0262 123.93 30.896 125.492 30.8309C126.793 30.7659 128.16 30.7008 129.462 30.7008C130.438 30.6357 131.349 30.6357 132.325 30.6357C132.976 30.6357 133.367 30.3103 133.627 29.7897C134.147 28.6833 134.668 27.642 135.254 26.5356C136.035 24.9737 136.881 23.4769 137.727 21.98C137.857 21.7197 138.052 21.4594 138.248 21.1991C138.443 20.9387 138.573 20.9387 138.833 21.0689C138.963 21.134 139.094 21.1991 139.224 21.3292C139.614 21.6546 140.005 21.9149 140.395 22.2403C141.046 22.8261 141.241 23.5419 141.046 24.3229C140.916 24.9737 140.656 25.6245 140.395 26.2102C139.94 27.3166 139.484 28.3579 139.029 29.3992C138.963 29.5293 138.963 29.5944 138.898 29.7246C138.703 30.1801 138.768 30.3103 139.289 30.3103C139.679 30.3103 140.07 30.3103 140.46 30.3103C143.714 30.2452 146.968 30.1151 150.287 30.05C151.654 30.05 153.086 29.9849 154.453 30.05C156.08 30.1151 157.707 30.1801 159.334 30.3103C160.44 30.3754 161.546 30.5055 162.653 30.6357C163.499 30.7008 164.345 30.8309 165.126 31.0913C165.451 31.1564 165.711 31.2214 166.037 31.2865C166.232 31.2865 166.297 31.3516 166.427 31.4818C166.688 31.4818 166.688 31.5468 166.688 31.6119ZM97.5723 50.6805C98.3533 50.2249 102.584 45.4089 102.844 44.6931C102.323 44.5629 101.868 44.628 101.412 44.8883C100.761 45.2788 100.176 45.7994 99.6549 46.3851C98.6787 47.5566 98.093 48.9884 97.5723 50.4201C97.5723 50.4852 97.5723 50.5503 97.5723 50.6805Z" fill="black"/>
<path d="M23.5112 61.9388C23.5763 61.8737 23.5763 61.8087 23.6414 61.6785C23.9017 60.1817 24.6827 58.9451 25.6589 57.8388C26.6351 56.7324 27.7414 55.8213 28.978 54.9752C31.1256 53.6085 33.3384 52.5022 35.6162 51.3958C38.2845 50.1593 40.9528 48.9878 43.6861 47.9465C44.1417 47.8164 44.5322 47.6211 44.9877 47.491C45.0528 47.491 45.1179 47.4259 45.183 47.4259C45.5084 47.2307 45.5735 47.1005 45.3782 46.7751C45.3131 46.6449 45.183 46.4497 45.1179 46.3195C44.2719 44.8878 43.2306 43.6512 42.1893 42.4147C40.302 40.2671 38.4146 38.0543 36.5273 35.9067C35.2257 34.3448 34.0542 32.7177 33.1431 30.8955C32.4272 29.3987 31.9717 27.9018 32.0368 26.2097C32.0368 24.9081 32.3622 23.6065 32.8828 22.37C33.859 20.0922 35.2257 18.1397 36.9178 16.3175C38.5448 14.5603 40.4972 13.1936 42.5147 11.9571C46.6148 9.48407 50.9101 7.72689 55.5958 6.68561C57.353 6.29513 59.1102 5.96973 60.8673 6.03481C60.9975 6.03481 61.0626 5.96973 61.1927 5.96973C61.5832 5.96973 61.9086 5.96973 62.2991 5.96973C62.4293 5.96973 62.4944 6.03481 62.6245 6.03481C64.0563 6.09989 65.423 6.36021 66.7897 6.75069C67.4405 6.94593 68.0262 7.20625 68.6119 7.59674C69.5881 8.24754 70.304 9.15866 70.7596 10.265C71.2151 11.5666 71.6707 12.8032 72.1262 14.1048C72.5818 15.4064 72.712 16.708 72.3215 18.0096C72.0612 19.0509 71.5405 19.8969 70.8246 20.6779C69.1325 22.5652 67.05 23.7367 64.642 24.4525C64.2515 24.5827 63.861 24.6478 63.4706 24.7129C62.6896 24.843 61.9086 24.6478 61.2578 24.1271C60.6721 23.6065 60.1515 23.0859 59.6308 22.5001C59.3054 22.1096 59.3054 21.7843 59.6959 21.4588C59.8911 21.2636 60.1515 21.0684 60.4118 20.9382C61.4531 20.2874 62.4944 19.7017 63.5356 19.0509C65.6182 17.7493 67.2452 15.9921 68.4167 13.8444C68.4818 13.7794 68.4817 13.7143 68.5468 13.6492C68.8071 13.1286 68.677 12.8682 68.2214 12.673C67.1801 12.2174 66.0738 11.892 64.9023 11.892C64.2515 11.892 63.6658 11.827 63.015 11.827C62.169 11.827 61.388 11.827 60.5419 11.892C58.6546 12.0222 56.7673 12.2825 54.945 12.7381C50.5196 13.8444 46.5497 15.7969 42.9702 18.6604C41.8639 19.5064 40.8226 20.4176 39.8464 21.4588C38.74 22.6303 37.894 23.9319 37.2432 25.3637C36.0067 28.032 36.0717 30.7003 37.4384 33.3035C38.3495 34.9956 39.4559 36.5575 40.7575 37.9893C42.9703 40.4623 45.183 42.9354 47.2656 45.4735C47.3957 45.6037 47.5259 45.7989 47.656 45.9291C48.0465 46.3846 48.5021 46.5148 49.0878 46.3846C49.9339 46.1894 50.845 46.0592 51.691 45.864C52.1466 45.7989 52.472 45.9291 52.7974 46.1894C53.1228 46.5148 53.0577 46.8402 52.6021 46.9703C51.8212 47.2307 51.0402 47.4259 50.1942 47.6211C49.9989 47.6862 49.8688 47.6862 49.6735 47.8164C49.4132 47.9466 49.3481 48.1418 49.4783 48.4021C49.5434 48.5974 49.6735 48.7926 49.7386 48.9878C50.7148 50.6148 51.4958 52.3069 51.8863 54.1943C52.1466 55.4308 52.2767 56.6673 52.1466 57.9689C51.9513 59.7261 51.2355 61.2229 50.064 62.5245C48.8926 63.8261 47.3957 64.8024 45.8338 65.6484C43.6211 66.7548 41.2782 67.4706 38.8051 67.9262C37.3083 68.1865 35.8114 68.3818 34.2495 68.3818C31.9717 68.3818 29.8891 67.9262 27.8065 66.95C27.0256 66.5595 26.2446 66.169 25.5287 65.7135C24.6176 65.1928 24.0319 64.3468 23.7715 63.3055C23.7715 63.1754 23.7065 63.1103 23.6414 63.0452C23.5112 62.6547 23.5112 62.2642 23.5112 61.9388ZM47.5259 53.999C47.5259 52.8927 47.3957 51.9815 47.2005 51.1355C47.0703 50.6148 46.8751 50.0291 46.6798 49.5085C46.4846 48.9878 46.2243 48.8577 45.7036 49.0529C45.3782 49.1831 45.1179 49.2482 44.7925 49.3783C41.7988 50.6148 38.8702 51.9815 36.0067 53.5435C34.5098 54.3244 33.078 55.2355 31.7114 56.2768C30.2145 57.4483 28.8478 58.7499 27.8065 60.3118C27.2208 61.2229 26.8303 62.1991 26.7652 63.2404C26.6351 64.3468 27.2208 65.5182 28.6526 65.7135C29.5637 65.8436 30.4097 65.7786 31.3209 65.7786C31.9066 65.7786 32.4923 65.7135 33.078 65.6484C34.7701 65.5182 36.4622 65.1278 38.0892 64.542C40.6274 63.5658 42.9052 62.1991 44.8576 60.2467C46.6147 58.4896 47.5259 56.3419 47.5259 53.999Z" fill="black"/>
<path d="M71.4103 44.8884C71.2151 44.8884 71.0849 45.0185 70.9548 45.1487C68.1563 47.882 65.3579 50.5503 62.5594 53.2837C61.5832 54.2599 60.4768 55.106 59.3705 56.0171C59.1752 56.2123 58.9149 56.3425 58.7197 56.4727C58.1339 56.7981 57.5482 56.8631 56.9625 56.6679C56.1815 56.4076 55.4657 56.0822 54.7498 55.6266C54.1641 55.2361 53.9037 54.7155 53.9037 54.0647C53.8386 52.8932 54.0339 51.7869 54.2942 50.7456C54.8799 48.4027 55.7911 46.1249 56.8974 43.9772C57.5482 42.6756 58.2641 41.4391 58.98 40.1375C59.1752 39.8772 59.3705 39.6168 59.5657 39.3565C59.8911 39.0311 60.1514 39.0311 60.5419 39.2264C60.6721 39.2914 60.8022 39.4216 60.9324 39.4867C61.5832 40.0073 62.234 40.4629 62.8848 40.9835C63.0801 41.1137 63.2102 41.2439 63.3404 41.4391C63.6007 41.7645 63.6658 42.155 63.5356 42.6105C63.1451 43.782 62.6245 44.8233 62.0388 45.9296C60.9324 48.1424 59.8911 50.3551 58.7848 52.5678C58.5895 53.0234 58.5895 53.0885 58.7197 53.4139C58.98 53.4139 59.1752 53.2837 59.3705 53.0885C60.2165 52.3726 60.9975 51.6567 61.7785 50.8757C65.0976 47.7519 68.4166 44.628 71.7357 41.4391C72.5818 40.593 73.4278 39.747 74.2739 38.8359C74.404 38.7057 74.5993 38.5105 74.7945 38.3803C75.0548 38.1851 75.3152 38.1851 75.5104 38.3803C76.1612 38.966 76.6819 39.6168 77.0723 40.3327C77.2676 40.7232 77.2025 41.1788 77.1374 41.5693C76.6818 43.3264 76.031 45.0836 75.3802 46.7757C74.0136 50.29 72.5167 53.7393 70.8897 57.1235C69.9135 59.206 69.0024 61.2886 68.0262 63.3061C66.0737 67.4062 64.3166 71.5713 62.4293 75.7364C61.1927 78.4698 59.9562 81.1381 58.5244 83.8064C58.134 84.5874 57.5482 85.3683 57.0276 86.0842C56.8323 86.4096 56.5069 86.6048 56.1815 86.8001C55.726 86.9953 55.4006 86.8652 55.2053 86.4096C55.0752 86.0842 55.0752 85.7588 55.1402 85.4334C55.2053 84.7826 55.4006 84.1318 55.6609 83.481C57.353 78.9905 58.9149 74.4348 60.6721 69.9443C63.5356 62.46 66.6595 55.0409 70.1738 47.817C70.5643 47.1011 70.8897 46.3201 71.2802 45.6042C71.4754 45.2788 71.6056 45.1487 71.4103 44.8884Z" fill="black"/>
<path d="M135.124 57.3189C135.319 57.1887 135.514 57.0586 135.71 56.9284C137.337 55.5617 138.964 54.195 140.591 52.8283C142.933 50.8759 145.211 48.9235 147.554 46.9711C148.075 46.5155 148.595 46.1901 149.181 45.7997C149.441 45.6044 149.702 45.5393 149.962 45.6695C150.353 45.7997 150.418 46.06 150.092 46.3203C149.637 46.7108 149.181 47.1013 148.661 47.4918C146.383 49.3791 144.3 51.4616 142.152 53.4791C140.46 55.0411 138.768 56.5379 137.076 58.0348C136.49 58.5554 135.775 58.9459 134.929 58.8157C134.473 58.7507 134.017 58.6205 133.562 58.4903C133.106 58.2951 132.781 57.9697 132.586 57.5141C132.39 57.0586 132.325 56.603 132.26 56.0824C132.26 55.1712 132.39 54.3252 132.586 53.4791C133.367 49.6394 134.798 45.9298 136.686 42.5456C137.141 41.7647 137.532 41.0488 137.987 40.2678C138.183 39.9424 138.443 39.617 138.703 39.3567C139.029 39.0313 139.289 38.9662 139.679 39.2265C140.395 39.6821 141.046 40.2028 141.697 40.8536C141.892 41.0488 141.957 41.244 141.827 41.5044C141.762 41.6996 141.632 41.8948 141.567 42.0901C140.395 44.3028 139.159 46.5155 137.987 48.7934C136.881 50.8759 135.905 53.0887 135.254 55.3665C135.124 55.822 134.994 56.2776 134.929 56.7332C134.929 56.9284 134.929 57.1236 135.124 57.3189Z" fill="black"/>
<path d="M145.081 35.0611C145.081 35.6469 144.886 36.1675 144.495 36.558C144.105 37.0136 143.649 37.339 143.129 37.6644C142.738 37.8596 142.348 37.8596 142.022 37.5993C141.632 37.2739 141.241 37.0136 140.916 36.6882C140.525 36.2977 140.46 35.9723 140.655 35.4516C140.851 34.9961 141.046 34.5405 141.306 34.15C141.567 33.6294 142.022 33.304 142.608 33.1087C142.933 32.9786 143.324 33.0437 143.584 33.2389C143.975 33.5643 144.365 33.8897 144.756 34.2151C145.016 34.4754 145.081 34.7357 145.081 35.0611Z" fill="black"/>
</svg>
