<svg width="190" height="93" viewBox="0 0 190 93" fill="none" xmlns="http://www.w3.org/2000/svg">
<rect x="0.46582" y="0.763184" width="188.733" height="91.7633" fill="white"/>
<path d="M43.3536 71.8963C49.0156 71.2455 54.6125 67.0804 57.8665 60.7676C57.2808 61.093 56.7601 61.3533 56.1093 61.6136C46.3473 65.5185 33.5915 56.6675 27.6041 41.7641C27.2137 40.853 26.8883 39.9419 26.6279 39.0308C27.2137 49.6389 30.3375 58.8803 38.1472 67.0153C39.9043 68.8376 41.8567 70.6598 43.9393 72.2868C43.679 72.1567 43.5488 72.0265 43.3536 71.8963Z" fill="#00A94F"/>
<path d="M48.1698 18.3354H39.3188C42.7681 20.0275 46.738 22.3053 50.7079 25.3641C59.7541 32.3277 65.5462 40.7231 68.1494 49.7693C69.386 45.2136 69.9066 40.4628 69.9066 35.3214V18.3354H48.1698Z" fill="#27318B"/>
<path d="M51.6838 26.145C51.6187 26.145 51.6187 26.2101 51.5537 26.2101C46.6076 29.4641 42.2472 33.3689 38.5376 37.8595C42.2472 40.2024 46.152 43.1961 49.6013 46.9057C52.9204 41.8294 56.695 37.7944 60.2744 34.6705C57.8665 31.6769 55.0029 28.8133 51.6838 26.145Z" fill="#00A94F"/>
<path d="M57.8664 60.7681C54.6124 67.0809 49.0155 71.1809 43.3535 71.8968C44.9154 73.1333 46.5425 74.3699 48.1695 75.4111C51.7489 73.1333 55.3283 70.1396 58.2569 67.0809C58.5823 66.7555 58.8426 66.4301 59.103 66.1697C58.8426 64.2173 58.3871 62.4602 57.8664 60.7681Z" fill="#27318B"/>
<path d="M69.8415 18.3354C66.197 19.1815 59.2334 21.2641 51.6841 26.2102C55.0032 28.8785 57.8667 31.742 60.2747 34.7357C63.9843 31.4817 67.4986 29.2039 69.8415 27.7721V18.3354Z" fill="#7AC143"/>
<path d="M38.538 37.9248C34.7633 42.5455 31.7046 47.6869 29.4268 53.3488C31.249 58.2299 34.0475 62.7855 38.0824 67.0157C38.9936 67.9268 39.9047 68.838 40.8809 69.7491C42.2476 60.5728 45.5667 53.0234 49.5366 46.9059C47.8445 45.0836 45.9572 43.3916 44.1349 41.8947C42.2476 40.3979 40.3603 39.0963 38.538 37.9248Z" fill="#27318B"/>
<path d="M49.6016 46.9055C54.2223 51.9167 57.9969 58.2295 59.1033 66.0391C63.5938 61.0279 66.4574 55.6263 68.0844 49.704C66.5875 44.4325 63.9843 39.3562 60.2747 34.6704C56.6953 37.8593 52.9207 41.8943 49.6016 46.9055Z" fill="#00703C"/>
<path d="M51.4889 26.2751C51.554 26.2751 51.554 26.21 51.6191 26.21C51.2937 25.9497 50.9683 25.6894 50.5778 25.4291C46.6079 22.3703 42.638 20.0925 39.1887 18.4004H26.498V31.872C29.1013 32.8482 33.6569 34.8006 38.5379 37.8594C42.1824 33.434 46.5428 29.5291 51.4889 26.2751Z" fill="#7AC143"/>
<path d="M78.4321 19.5068C78.5623 19.5068 78.7575 19.5719 78.9528 19.5719C79.0829 19.5719 79.2782 19.5719 79.4734 19.5068V27.1863C79.2782 27.1863 79.148 27.1212 78.9528 27.1212C78.7575 27.1212 78.6274 27.1212 78.4321 27.1863V19.5068Z" fill="#27318B"/>
<path d="M88.1293 27.2514H87.8039C87.6737 27.1212 87.4785 26.7958 87.2181 26.5355L82.3371 21.1338H82.207V27.1863C82.0768 27.1863 82.0117 27.1212 81.8816 27.1212C81.7514 27.1212 81.6863 27.1212 81.5562 27.1863V19.5068H82.0117L87.3483 25.299H87.4785V19.5068C87.6086 19.5068 87.6737 19.5719 87.8039 19.5719C87.934 19.5719 87.9991 19.5719 88.1293 19.5068V27.2514Z" fill="#27318B"/>
<path d="M92.945 27.2513C92.7498 27.2513 92.6196 27.1862 92.4244 27.1862C92.2291 27.1862 92.099 27.1862 91.9037 27.2513V20.0924C90.7974 20.0924 90.0815 20.1575 89.4307 20.2226C89.4307 20.0924 89.4957 20.0273 89.4957 19.8972C89.4957 19.767 89.4957 19.7019 89.4307 19.5718H95.2228C95.2228 19.7019 95.1577 19.767 95.1577 19.8972C95.1577 20.0273 95.1577 20.0924 95.2228 20.2226C94.6371 20.1575 93.8561 20.0924 92.8799 20.0924L92.945 27.2513Z" fill="#27318B"/>
<path d="M97.5006 22.891H99.2578C99.5832 22.891 99.9086 22.8259 100.234 22.8259C100.234 22.891 100.169 23.0212 100.169 23.0863C100.169 23.1513 100.169 23.2815 100.234 23.4117C99.9086 23.4117 99.5832 23.3466 99.2578 23.3466H97.5006V26.6657C98.2165 26.6657 98.8673 26.6657 99.5181 26.6006C99.8435 26.6006 100.234 26.5355 100.559 26.4704C100.559 26.6006 100.494 26.6657 100.494 26.7958C100.494 26.926 100.494 26.9911 100.559 27.1212H96.5244V19.5068H100.494C100.494 19.637 100.429 19.7021 100.429 19.8322C100.429 19.9624 100.429 20.0275 100.494 20.1576C100.169 20.0926 99.8435 20.0275 99.453 20.0275H98.3467H97.5006V22.891Z" fill="#27318B"/>
<path d="M102.186 19.5068H104.594C106.351 19.5068 107.067 20.0926 107.067 21.1989C107.067 22.5005 105.896 23.1513 104.789 23.3466L107.132 26.2752L107.653 26.926L107.848 27.1863C107.588 27.1863 107.393 27.1212 107.197 27.1212C107.002 27.1212 106.742 27.1212 106.547 27.1863C106.286 26.8609 106.091 26.5355 105.831 26.2101L104.529 24.518L103.618 23.4767H103.162V27.2514C102.967 27.2514 102.837 27.1863 102.642 27.1863C102.446 27.1863 102.316 27.1863 102.121 27.2514L102.186 19.5068ZM103.162 23.0212C103.293 23.0212 104.074 23.0863 104.594 22.9561C105.44 22.7609 106.026 22.2402 106.026 21.3291C106.026 20.5481 105.635 20.0275 104.789 19.8973C104.399 19.8322 103.618 19.8322 103.162 19.8973V23.0212Z" fill="#27318B"/>
<path d="M115.658 27.2514H115.333C115.202 27.1212 115.007 26.7958 114.747 26.5355L109.866 21.1338H109.801V27.1863C109.671 27.1863 109.605 27.1212 109.475 27.1212C109.345 27.1212 109.28 27.1212 109.15 27.1863V19.5068H109.605L114.942 25.299H115.072V19.5068C115.202 19.5068 115.267 19.5719 115.398 19.5719C115.528 19.5719 115.593 19.5719 115.723 19.5068V27.2514H115.658Z" fill="#27318B"/>
<path d="M123.923 27.2512C123.728 27.2512 123.533 27.1861 123.338 27.1861C123.142 27.1861 122.947 27.1861 122.752 27.2512C122.426 26.3401 122.036 25.2337 121.58 24.1924H118.717C118.326 25.1686 117.936 26.1448 117.611 27.2512C117.48 27.2512 117.35 27.1861 117.22 27.1861C117.09 27.1861 116.96 27.1861 116.83 27.2512L120.344 19.3765H120.604L123.923 27.2512ZM120.149 20.8082L118.912 23.6718H121.385L120.149 20.8082Z" fill="#27318B"/>
<path d="M126.917 27.2513C126.721 27.2513 126.591 27.1862 126.396 27.1862C126.201 27.1862 126.071 27.1862 125.875 27.2513V20.0924C124.769 20.0924 124.053 20.1575 123.402 20.2226C123.402 20.0924 123.467 20.0273 123.467 19.8972C123.467 19.767 123.467 19.7019 123.402 19.5718H129.195C129.195 19.7019 129.129 19.767 129.129 19.8972C129.129 20.0273 129.129 20.0924 129.195 20.2226C128.609 20.1575 127.828 20.0924 126.852 20.0924V27.2513H126.917Z" fill="#27318B"/>
<path d="M130.562 19.5068C130.692 19.5068 130.887 19.5719 131.082 19.5719C131.212 19.5719 131.408 19.5719 131.603 19.5068V27.1863C131.408 27.1863 131.277 27.1212 131.082 27.1212C130.887 27.1212 130.757 27.1212 130.562 27.1863V19.5068Z" fill="#27318B"/>
<path d="M133.1 23.3465C133.1 20.8735 134.922 19.3115 137.265 19.3115C139.412 19.3115 141.56 20.483 141.56 23.1513C141.56 25.6894 139.803 27.3164 137.265 27.3164C134.792 27.3815 133.1 25.7545 133.1 23.3465ZM139.738 20.8084C139.152 20.0925 138.306 19.702 137.395 19.702C135.443 19.702 134.206 21.1989 134.206 23.4767C134.206 25.7545 135.573 26.9259 137.265 26.9259C139.608 26.9259 140.519 24.4529 140.389 23.2163C140.454 22.3703 140.324 21.5893 139.738 20.8084Z" fill="#27318B"/>
<path d="M149.63 27.2514H149.305C149.175 27.1212 148.979 26.7958 148.719 26.5355L143.838 21.1338H143.708V27.1863C143.578 27.1863 143.513 27.1212 143.383 27.1212C143.252 27.1212 143.187 27.1212 143.057 27.1863V19.5068H143.513L148.849 25.299H148.979V19.5068C149.11 19.5068 149.175 19.5719 149.305 19.5719C149.435 19.5719 149.5 19.5719 149.63 19.5068V27.2514Z" fill="#27318B"/>
<path d="M157.895 27.2512C157.7 27.2512 157.505 27.1861 157.309 27.1861C157.114 27.1861 156.919 27.1861 156.724 27.2512C156.398 26.3401 156.008 25.2337 155.552 24.1924H152.689C152.298 25.1686 151.908 26.1448 151.582 27.2512C151.452 27.2512 151.322 27.1861 151.192 27.1861C151.062 27.1861 150.931 27.1861 150.801 27.2512L154.316 19.3765H154.576L157.895 27.2512ZM154.12 20.8082L152.884 23.6718H155.357L154.12 20.8082Z" fill="#27318B"/>
<path d="M160.043 26.6657C160.759 26.6657 161.409 26.6657 162.06 26.6006C162.451 26.6006 162.776 26.5355 163.102 26.4704C163.102 26.6006 163.036 26.6657 163.036 26.7958C163.036 26.926 163.036 26.9911 163.102 27.1212H159.001V19.5068C159.132 19.5068 159.327 19.5719 159.522 19.5719C159.652 19.5719 159.848 19.5719 160.043 19.5068V26.6657Z" fill="#27318B"/>
<path d="M78.8226 37.7296C79.2782 38.5105 79.8639 38.9661 80.775 38.9661C81.7512 38.9661 82.4671 38.1201 82.4671 37.2089C82.4671 34.9311 78.6274 35.9724 78.6274 33.1739C78.6274 31.612 79.8639 30.8311 81.3607 30.8311C81.9465 30.8311 82.6623 31.0263 83.1179 31.4168C82.9878 31.7422 82.8576 32.0676 82.7925 32.393H82.6624C82.402 31.7422 81.8814 31.3517 81.1655 31.3517C80.3195 31.3517 79.6036 31.9374 79.6036 32.7835C79.6036 34.9962 83.4433 34.1502 83.4433 36.6883C83.4433 38.4455 82.0766 39.4867 80.4496 39.4867C79.8639 39.4867 78.8877 39.2264 78.4321 38.7709C78.5623 38.4455 78.6274 38.055 78.6274 37.6645H78.8226V37.7296Z" fill="#27318B"/>
<path d="M91.448 38.7709C90.667 39.2915 89.6908 39.4867 88.7797 39.4867C86.1114 39.4867 84.4844 37.7947 84.4844 35.1264C84.4844 32.393 86.5019 30.8311 89.1051 30.8311C90.0162 30.8311 90.9273 31.0263 91.7083 31.4168C91.5781 31.7422 91.5131 32.0676 91.448 32.3279H91.3829C91.1876 32.1327 90.2765 31.2866 89.04 31.2866C86.8273 31.2866 85.7209 33.1089 85.7209 35.1914C85.7209 37.5343 87.0876 39.0312 88.9749 39.0312C90.2765 39.0312 91.3178 38.2502 91.5781 38.055L91.448 38.7709Z" fill="#27318B"/>
<path d="M99.3881 31.0259C99.5833 31.0259 99.7135 31.091 99.9087 31.091C100.104 31.091 100.234 31.091 100.429 31.0259V39.3562C100.234 39.3562 100.039 39.2911 99.9087 39.2911C99.7135 39.2911 99.5182 39.2911 99.3881 39.3562V35.1259C98.542 35.1259 97.696 35.0609 96.8499 35.0609C96.0039 35.0609 95.1578 35.1259 94.3118 35.1259V39.2911C94.1165 39.2911 93.9213 39.226 93.7911 39.226C93.5959 39.226 93.4007 39.226 93.2705 39.2911V31.0259C93.4657 31.0259 93.5959 31.091 93.7911 31.091C93.9864 31.091 94.1165 31.091 94.3118 31.0259V34.4751C95.1578 34.4751 96.069 34.5402 96.8499 34.5402C97.696 34.5402 98.542 34.4751 99.3881 34.4751V31.0259Z" fill="#27318B"/>
<path d="M102.121 35.1914C102.121 32.5231 104.074 30.8311 106.612 30.8311C108.889 30.8311 111.232 32.0676 111.232 34.9962C111.232 37.7296 109.28 39.4867 106.612 39.4867C103.878 39.4867 102.121 37.7947 102.121 35.1914ZM109.28 32.393C108.694 31.612 107.718 31.2215 106.742 31.2215C104.594 31.2215 103.293 32.8485 103.293 35.3216C103.293 37.7947 104.789 39.0963 106.612 39.0963C109.15 39.0963 110.126 36.428 109.996 35.1264C110.061 34.0851 109.931 33.239 109.28 32.393Z" fill="#27318B"/>
<path d="M112.274 35.1914C112.274 32.5231 114.291 30.8311 116.764 30.8311C119.042 30.8311 121.385 32.0676 121.385 34.9962C121.385 37.7296 119.433 39.4867 116.764 39.4867C114.031 39.4867 112.274 37.7947 112.274 35.1914ZM119.433 32.393C118.847 31.612 117.871 31.2215 116.895 31.2215C114.747 31.2215 113.445 32.8485 113.445 35.3216C113.445 37.7947 114.942 39.0963 116.764 39.0963C119.368 39.0963 120.279 36.428 120.149 35.1264C120.214 34.0851 120.084 33.239 119.433 32.393Z" fill="#27318B"/>
<path d="M124.053 38.7054C124.769 38.7054 125.55 38.7054 126.266 38.6403C126.657 38.6403 127.047 38.5752 127.438 38.5101C127.438 38.6403 127.373 38.7704 127.373 38.9006C127.373 39.0308 127.373 39.1609 127.438 39.2911H123.012V31.0259C123.207 31.0259 123.338 31.091 123.533 31.091C123.728 31.091 123.858 31.091 124.053 31.0259V38.7054Z" fill="#27318B"/>
<path d="M130.757 35.1914C130.757 32.5231 132.774 30.8311 135.247 30.8311C137.525 30.8311 139.868 32.0676 139.868 34.9962C139.868 37.7296 137.916 39.4867 135.247 39.4867C132.514 39.4867 130.757 37.7947 130.757 35.1914ZM137.916 32.393C137.33 31.612 136.354 31.2215 135.378 31.2215C133.23 31.2215 131.928 32.8485 131.928 35.3216C131.928 37.7947 133.425 39.0963 135.247 39.0963C137.851 39.0963 138.762 36.428 138.632 35.1264C138.632 34.0851 138.501 33.239 137.916 32.393Z" fill="#27318B"/>
<path d="M141.43 31.0259H145.725C145.725 31.156 145.66 31.2862 145.66 31.4164C145.66 31.5465 145.66 31.6767 145.725 31.8068C145.335 31.7418 145.009 31.6767 144.619 31.6767H143.382H142.471V34.7355H144.358C144.749 34.7355 145.074 34.6704 145.465 34.6704C145.465 34.8005 145.4 34.8656 145.4 34.9958C145.4 35.0609 145.4 35.191 145.465 35.3212C145.074 35.3212 144.749 35.2561 144.358 35.2561H142.471V39.4212C142.276 39.4212 142.08 39.3562 141.95 39.3562C141.755 39.3562 141.56 39.3562 141.43 39.4212V31.0259Z" fill="#27318B"/>
<path d="M85.3957 50.2899C84.6148 50.8105 83.6386 51.0058 82.7274 51.0058C80.0591 51.0058 78.4321 49.3137 78.4321 46.6454C78.4321 43.912 80.4496 42.3501 83.0528 42.3501C83.964 42.3501 84.8751 42.5453 85.656 42.9358C85.5259 43.2612 85.4608 43.5866 85.3957 43.8469H85.3306C85.1354 43.6517 84.2243 42.8057 82.9878 42.8057C80.775 42.8057 79.6036 44.6279 79.6036 46.7105C79.6036 49.0534 80.9703 50.5502 82.8576 50.5502C84.1592 50.5502 85.2005 49.7693 85.4608 49.574L85.3957 50.2899Z" fill="#27318B"/>
<path d="M87.2178 42.5454H89.821C91.7083 42.5454 92.5544 43.1311 92.5544 44.3677C92.5544 45.7994 91.3178 46.4502 90.0813 46.7106L92.6194 49.8995L93.2052 50.5503L93.4655 50.8757C93.2052 50.8757 93.0099 50.8106 92.7496 50.8106C92.4893 50.8106 92.294 50.8106 92.0337 50.8757C91.7734 50.4852 91.5131 50.1598 91.2528 49.8344L89.821 47.9471L88.8448 46.7756H88.3892V50.8106C88.194 50.8106 87.9987 50.7455 87.8686 50.7455C87.6733 50.7455 87.4781 50.7455 87.3479 50.8106L87.2178 42.5454ZM88.2591 46.3201C88.4543 46.3201 89.2353 46.3851 89.821 46.255C90.7321 46.0597 91.3829 45.474 91.3829 44.4978C91.3829 43.6518 90.9274 43.1311 90.0162 42.9359C89.5607 42.8708 88.7146 42.8708 88.194 42.9359V46.3201H88.2591Z" fill="#27318B"/>
<path d="M95.6786 46.1248H97.566C97.9564 46.1248 98.2818 46.0597 98.6723 46.0597C98.6723 46.1899 98.6072 46.255 98.6072 46.3852C98.6072 46.4502 98.6072 46.5804 98.6723 46.7106C98.2818 46.7106 97.9564 46.6455 97.566 46.6455H95.6786V50.2249C96.3945 50.2249 97.1755 50.2249 97.8914 50.1598C98.2818 50.1598 98.6072 50.0947 98.9977 50.0296C98.9977 50.1598 98.9326 50.29 98.9326 50.4201C98.9326 50.5503 98.9326 50.6805 98.9977 50.8106H94.5723V42.5454H98.9326C98.9326 42.6756 98.8676 42.8057 98.8676 42.9359C98.8676 43.0661 98.8676 43.1962 98.9326 43.3264C98.5422 43.2613 98.2168 43.1962 97.8263 43.1962H96.5898H95.6135L95.6786 46.1248Z" fill="#27318B"/>
<path d="M107.588 50.8756C107.328 50.8756 107.133 50.8105 106.937 50.8105C106.677 50.8105 106.482 50.8105 106.286 50.8756C105.961 49.8343 105.506 48.6629 104.985 47.5565H101.861C101.405 48.5978 101.015 49.7042 100.624 50.8756C100.429 50.8756 100.299 50.8105 100.169 50.8105C100.039 50.8105 99.8435 50.8105 99.7134 50.8756L103.488 42.3501H103.748L107.588 50.8756ZM103.488 43.912L102.186 47.0359H104.855L103.488 43.912Z" fill="#27318B"/>
<path d="M110.842 50.8755C110.647 50.8755 110.451 50.8104 110.321 50.8104C110.126 50.8104 109.931 50.8104 109.801 50.8755V43.0658C108.564 43.0658 107.848 43.1309 107.132 43.196C107.132 43.0658 107.197 42.9357 107.197 42.8055C107.197 42.6754 107.197 42.5452 107.132 42.415H113.445C113.445 42.5452 113.38 42.6754 113.38 42.8055C113.38 42.9357 113.38 43.0658 113.445 43.196C112.859 43.1309 111.948 43.0658 110.907 43.0658L110.842 50.8755Z" fill="#27318B"/>
<path d="M114.812 42.5454C115.007 42.5454 115.137 42.5454 115.333 42.5454C115.528 42.5454 115.658 42.5454 115.853 42.5454V50.8757C115.658 50.8757 115.463 50.8106 115.333 50.8106C115.137 50.8106 114.942 50.8106 114.812 50.8757V42.5454Z" fill="#27318B"/>
<path d="M123.338 44.7581L124.054 42.7406L124.119 42.5454C124.249 42.5454 124.444 42.5454 124.574 42.5454C124.704 42.5454 124.834 42.5454 125.03 42.5454C124.639 43.2613 121.971 49.509 121.515 50.8757C121.45 50.8757 121.32 50.8106 121.255 50.8106C121.19 50.8106 121.06 50.8106 120.995 50.8757C119.628 48.0122 117.806 43.5867 117.285 42.5454C117.48 42.5454 117.676 42.5454 117.871 42.5454C118.066 42.5454 118.261 42.5454 118.457 42.5454C118.587 42.9359 118.782 43.3264 118.912 43.7169L119.758 45.8645L121.255 49.5741H121.385C121.646 49.0534 121.906 48.5979 122.036 48.0772L123.338 44.7581Z" fill="#27318B"/>
<path d="M127.308 46.1248H129.195C129.585 46.1248 129.911 46.0597 130.301 46.0597C130.301 46.1899 130.236 46.255 130.236 46.3852C130.236 46.4502 130.236 46.5804 130.301 46.7106C129.911 46.7106 129.585 46.6455 129.195 46.6455H127.308V50.2249C128.023 50.2249 128.804 50.2249 129.52 50.1598C129.911 50.1598 130.236 50.0947 130.627 50.0296C130.627 50.1598 130.562 50.29 130.562 50.4201C130.562 50.5503 130.562 50.6805 130.627 50.8106H126.201V42.5454H130.496C130.496 42.6756 130.431 42.8057 130.431 42.9359C130.431 43.0661 130.431 43.1962 130.496 43.3264C130.106 43.2613 129.781 43.1962 129.39 43.1962H128.154H127.242L127.308 46.1248Z" fill="#27318B"/>
<path d="M78.8226 60.2475C79.2782 61.0285 79.8639 61.5491 80.775 61.5491C81.7512 61.5491 82.4671 60.7031 82.4671 59.7919C82.4671 57.5141 78.6274 58.5554 78.6274 55.757C78.6274 54.195 79.8639 53.4141 81.3607 53.4141C81.9465 53.4141 82.6623 53.6093 83.1179 53.9998C82.9878 54.3252 82.8576 54.6506 82.7925 54.976H82.6624C82.402 54.3252 81.8814 53.9347 81.1655 53.9347C80.3195 53.9347 79.6036 54.5204 79.6036 55.3665C79.6036 57.5792 83.4433 56.6681 83.4433 59.2713C83.4433 61.0285 82.0766 62.0698 80.4496 62.0698C79.8639 62.0698 78.8877 61.8094 78.4321 61.3539C78.5623 60.9634 78.6274 60.638 78.6924 60.2475H78.8226Z" fill="#27318B"/>
<path d="M91.448 61.3534C90.667 61.874 89.6908 62.0693 88.7797 62.0693C86.1114 62.0693 84.4844 60.3772 84.4844 57.7089C84.4844 54.9755 86.5019 53.4136 89.1051 53.4136C90.0162 53.4136 90.9273 53.6088 91.7083 53.9993C91.5781 54.3247 91.5131 54.6501 91.448 54.9104H91.3829C91.1876 54.7152 90.2765 53.8691 89.04 53.8691C86.8273 53.8691 85.7209 55.6914 85.7209 57.774C85.7209 60.1169 87.0876 61.6137 88.9749 61.6137C90.2765 61.6137 91.3178 60.8327 91.5781 60.6375L91.448 61.3534Z" fill="#27318B"/>
<path d="M93.2705 53.5439C93.4657 53.5439 93.5959 53.5439 93.7911 53.5439C93.9864 53.5439 94.1165 53.5439 94.3118 53.5439V61.8742C94.1165 61.8742 93.9213 61.8091 93.7911 61.8091C93.5959 61.8091 93.4007 61.8091 93.2705 61.8742V53.5439Z" fill="#27318B"/>
<path d="M97.6308 57.1883H99.5181C99.9086 57.1883 100.234 57.1232 100.624 57.1232C100.624 57.2534 100.559 57.3185 100.559 57.4486C100.559 57.5137 100.559 57.6439 100.624 57.774C100.234 57.774 99.9086 57.7089 99.5181 57.7089H97.6308V61.2884C98.3467 61.2884 99.1276 61.2884 99.8435 61.2233C100.234 61.2233 100.559 61.1582 100.95 61.0931C100.95 61.2233 100.885 61.3534 100.885 61.4836C100.885 61.6138 100.885 61.7439 100.95 61.8741H96.5244V53.6089H100.82C100.82 53.739 100.755 53.8692 100.755 53.9994C100.755 54.1295 100.755 54.2597 100.82 54.3898C100.429 54.3248 100.104 54.2597 99.7133 54.2597H98.4768H97.5657V57.1883H97.6308Z" fill="#27318B"/>
<path d="M109.866 61.939H109.475C109.345 61.7438 109.085 61.4835 108.824 61.2231L103.553 55.431H103.423V62.0041C103.293 62.0041 103.162 61.939 103.097 61.939C102.967 61.939 102.837 61.939 102.772 62.0041V53.6738H103.228L109.02 59.9215H109.15V53.6738C109.28 53.6738 109.345 53.6738 109.475 53.6738C109.605 53.6738 109.67 53.6738 109.801 53.6738V61.939H109.866Z" fill="#27318B"/>
<path d="M118.521 61.3534C117.74 61.874 116.764 62.0693 115.853 62.0693C113.185 62.0693 111.558 60.3772 111.558 57.7089C111.558 54.9755 113.575 53.4136 116.178 53.4136C117.089 53.4136 118.001 53.6088 118.782 53.9993C118.651 54.3247 118.586 54.6501 118.521 54.9104H118.456C118.261 54.7152 117.415 53.8691 116.113 53.8691C113.901 53.8691 112.729 55.6914 112.729 57.774C112.729 60.1169 114.096 61.6137 115.983 61.6137C117.285 61.6137 118.326 60.8327 118.586 60.6375L118.521 61.3534Z" fill="#27318B"/>
<path d="M121.385 57.1883H123.272C123.663 57.1883 123.988 57.1232 124.379 57.1232C124.379 57.2534 124.314 57.3185 124.314 57.4486C124.314 57.5137 124.314 57.6439 124.379 57.774C123.988 57.774 123.663 57.7089 123.272 57.7089H121.385V61.2884C122.101 61.2884 122.882 61.2884 123.598 61.2233C123.988 61.2233 124.314 61.1582 124.704 61.0931C124.704 61.2233 124.639 61.3534 124.639 61.4836C124.639 61.6138 124.639 61.7439 124.704 61.8741H120.279V53.6089H124.574C124.574 53.739 124.509 53.8692 124.509 53.9994C124.509 54.1295 124.509 54.2597 124.574 54.3898C124.184 54.3248 123.858 54.2597 123.468 54.2597H122.231H121.32V57.1883H121.385Z" fill="#27318B"/>
</svg>
