<svg width="189" height="93" viewBox="0 0 189 93" fill="none" xmlns="http://www.w3.org/2000/svg">
<rect x="0.19873" y="0.763184" width="188.733" height="91.7633" fill="white"/>
<mask id="mask0_206_33786" style="mask-type:luminance" maskUnits="userSpaceOnUse" x="41" y="35" width="108" height="24">
<path d="M148.669 35.3403H41.0908V58.6136H148.669V35.3403Z" fill="white"/>
</mask>
<g mask="url(#mask0_206_33786)">
<path d="M100.287 37.605C105.735 37.605 110.081 42.2312 110.081 47.9898C110.081 53.7483 105.735 58.3422 100.287 58.3422C94.8387 58.3422 90.4922 53.7483 90.4922 47.9898C90.4922 42.2312 94.8387 37.605 100.287 37.605ZM100.287 54.5894C103.715 54.5894 106.562 51.6132 106.562 47.9898C106.562 44.3665 103.715 41.3255 100.287 41.3255C96.8588 41.3255 94.0429 44.3341 94.0429 47.9898C94.0429 51.6132 96.8588 54.5894 100.287 54.5894Z" fill="#122023"/>
<path d="M110.479 38.6401C110.326 38.2519 110.54 37.896 110.938 37.896H113.724C113.968 37.896 114.122 38.0578 114.182 38.2195L119.416 50.6101H119.6L124.834 38.2195C124.895 38.0901 125.048 37.896 125.294 37.896H128.078C128.476 37.896 128.691 38.2842 128.537 38.6401L120.09 58.0186C119.998 58.1803 119.876 58.3421 119.63 58.3421H119.355C119.111 58.3421 118.987 58.2127 118.896 58.0186L110.479 38.6401Z" fill="#122023"/>
<path d="M138.699 37.605C144.147 37.605 148.493 42.2312 148.493 47.9898C148.493 53.7483 144.147 58.3422 138.699 58.3422C133.251 58.3422 128.905 53.7483 128.905 47.9898C128.935 42.2312 133.251 37.605 138.699 37.605ZM138.699 54.5894C142.127 54.5894 144.974 51.6132 144.974 47.9898C144.974 44.3665 142.127 41.3255 138.699 41.3255C135.271 41.3255 132.455 44.3341 132.455 47.9898C132.486 51.6132 135.271 54.5894 138.699 54.5894Z" fill="#122023"/>
<path d="M63.5269 58.148C63.2514 58.148 63.0065 57.9216 63.0065 57.598V46.6633C63.0065 43.3634 61.0782 41.2282 58.0787 41.2282C55.1098 41.2282 53.1815 43.3634 53.1815 46.6633V57.598C53.1815 57.8892 52.9366 58.148 52.6611 58.148H50.0902C49.8146 58.148 49.5698 57.9216 49.5698 57.598V46.6633C49.5698 40.84 52.5999 37.6372 58.1093 37.6372C63.6187 37.6372 66.6488 40.8724 66.6488 46.6633V57.598C66.6488 57.8892 66.4039 58.148 66.1285 58.148H63.5269Z" fill="#122023"/>
<path d="M84.4012 58.148C84.1256 58.148 83.8802 57.9216 83.8802 57.598V46.6633C83.8802 43.3634 81.952 41.2282 78.9524 41.2282C75.9838 41.2282 74.0556 43.3634 74.0556 46.6633V57.598C74.0556 57.8892 73.8107 58.148 73.5352 58.148H70.9642C70.6887 58.148 70.4438 57.9216 70.4438 57.598V46.6633C70.4438 40.84 73.474 37.6372 78.9833 37.6372C84.493 37.6372 87.5228 40.84 87.5228 46.6633V57.598C87.5228 57.8892 87.2781 58.148 87.0025 58.148H84.4012Z" fill="#122023"/>
<path d="M43.5088 40.4196C44.825 40.4196 45.9268 39.2873 45.9268 37.8638C45.9268 36.4727 44.8555 35.3081 43.5088 35.3081C42.1621 35.3404 41.0908 36.4727 41.0908 37.8962C41.0908 39.2873 42.1621 40.4196 43.5088 40.4196Z" fill="#122023"/>
<path d="M41.7036 43.1041C41.7036 42.813 41.9485 42.5542 42.224 42.5542H44.7644C45.0398 42.5542 45.2847 42.813 45.2847 43.1041V57.5976C45.2847 57.8887 45.0398 58.1475 44.7644 58.1475H42.224C41.9485 58.1475 41.7036 57.8887 41.7036 57.5976V43.1041Z" fill="#122023"/>
</g>
</svg>
