<svg width="38" height="38" viewBox="0 0 38 38" fill="none" xmlns="http://www.w3.org/2000/svg">
<path d="M1 36.25C1 28.393 7.39243 22 15.2487 22H15.9987M14.4988 19C19.4618 19 23.498 14.9635 23.498 10C23.498 5.0365 19.4618 1 14.4988 1C9.53573 1 5.4996 5.0365 5.4996 10C5.4996 14.9635 9.53573 19 14.4988 19ZM36.8678 26.1385C36.5633 25.303 35.7609 24.742 34.8715 24.742H31.2748L29.9909 21.133C29.6819 20.3065 28.8825 19.75 27.9991 19.75C27.1157 19.75 26.3162 20.3065 26.0043 21.1435L24.7234 24.742H21.1267C20.2388 24.742 19.4378 25.3015 19.1319 26.1325C18.8244 26.9665 19.0734 27.913 19.7633 28.4965L22.6311 30.8305L21.4957 34.2385C21.2272 35.098 21.5302 36.0385 22.2501 36.5755C22.6146 36.85 23.0675 37 23.5235 37C23.9464 37 24.3559 36.8755 24.7054 36.6415L28.0171 34.4245L31.3888 36.6205C32.1447 37.1095 33.1286 37.072 33.847 36.523C34.561 35.9725 34.849 35.029 34.5625 34.159L33.3911 30.8185L36.2453 28.4935C36.9248 27.9205 37.1767 26.974 36.8723 26.14L36.8678 26.1385Z" stroke="white" stroke-width="2"/>
</svg>
