<svg width="34" height="34" viewBox="0 0 34 34" fill="none" xmlns="http://www.w3.org/2000/svg">
<path d="M13.6794 7.88L12.1874 6.61252C11.7154 6.19513 11.546 5.52174 11.7554 4.93183C11.9634 4.3433 12.5074 3.94678 13.1114 3.94678H14.9754L15.6434 1.99061C15.8554 1.39513 16.3994 1 17.0007 1C17.602 1 18.146 1.39513 18.354 1.98365L19.0247 3.94817H20.8887C21.494 3.94817 22.038 4.34609 22.246 4.93878C22.454 5.53148 22.282 6.20209 21.8194 6.60835L20.334 7.87165L20.9407 9.67478C21.138 10.2925 20.9407 10.9631 20.4554 11.3541C19.97 11.7423 19.2994 11.7715 18.786 11.4237L17.0127 10.2174L15.2727 11.4334C15.0327 11.6003 14.7554 11.688 14.4687 11.688C14.1554 11.688 13.8554 11.585 13.6034 11.3889C13.1127 11.0049 12.906 10.3384 13.09 9.72904L13.6794 7.88Z" stroke="white" stroke-width="1.5"/>
<path d="M31.5554 7.97044C32.1607 7.97044 32.7047 8.36835 32.9127 8.96104C33.1207 9.55374 32.9487 10.223 32.486 10.6292L31.0007 11.8925L31.6074 13.6957C31.8047 14.3134 31.6074 14.984 31.122 15.375C30.6367 15.7631 29.9647 15.7923 29.4527 15.4445L27.6794 14.2383L25.9394 15.4543C25.6994 15.6212 25.422 15.7089 25.1354 15.7089C24.8194 15.7089 24.5194 15.6059 24.2687 15.4083C23.7794 15.0257 23.5727 14.3593 23.7567 13.7499L24.346 11.9009L22.854 10.6334C22.382 10.216 22.214 9.54539 22.4234 8.95409C22.6287 8.36696 23.174 7.96904 23.778 7.96904H25.642L26.31 6.01287C26.522 5.41739 27.066 5.02226 27.6674 5.02226C28.2687 5.02226 28.8127 5.41739 29.0207 6.00591L29.6914 7.97044H31.5554Z" stroke="white" stroke-width="1.5"/>
<path d="M9.78739 15.3763C9.30205 15.7645 8.63139 15.7937 8.11805 15.4459V15.4445L6.34472 14.2383L4.60473 15.4543C4.36473 15.6212 4.08739 15.7089 3.80073 15.7089C3.48473 15.7089 3.18473 15.6059 2.93406 15.4083C2.44473 15.0257 2.23806 14.3593 2.42206 13.7499L3.01139 11.9009L1.5194 10.6334C1.0474 10.216 0.879398 9.54539 1.08873 8.95409C1.29406 8.36696 1.8394 7.96904 2.4434 7.96904H4.30739L4.97539 6.01287C5.18739 5.41739 5.73139 5.02226 6.33272 5.02226C6.93406 5.02226 7.47806 5.41739 7.68606 6.00591L8.35672 7.97044H10.2207C10.8261 7.97044 11.3701 8.36835 11.578 8.96104C11.786 9.55374 11.614 10.2243 11.1514 10.6306L9.66605 11.8939L10.2727 13.697C10.4701 14.3148 10.2727 14.9854 9.78739 15.3763Z" stroke="white" stroke-width="1.5"/>
<path d="M7.66739 24.6522V30.2174C7.66739 31.752 8.86339 33 10.3341 33H11.6674V21.8696H10.3341C8.86339 21.8696 7.66739 23.1176 7.66739 24.6522Z" stroke="white" stroke-width="1.5"/>
<path d="M25.4287 29.6442L26.2807 25.1976C26.438 24.3767 26.238 23.535 25.7287 22.888C25.2207 22.241 24.47 21.8696 23.6674 21.8696H18.09C17.6954 21.8696 17.3234 21.6887 17.0687 21.3729C16.814 21.0543 16.7087 20.641 16.778 20.2348L17.5594 15.3875C17.4687 15.1704 17.3634 15.0508 17.23 14.9826C17.0554 14.8936 16.8407 14.895 16.6234 14.9896L13.454 21.128C13.346 21.3423 13.1887 21.519 13.0007 21.6456V33H21.506C23.406 33 25.0554 31.5878 25.4287 29.6442Z" stroke="white" stroke-width="1.5"/>
</svg>
