<svg width="30" height="38" viewBox="0 0 30 38" fill="none" xmlns="http://www.w3.org/2000/svg">
<path d="M24.3119 4.41737C21.3379 1.85965 17.3483 0.646051 13.3463 1.09009C7.13717 1.77715 2.0028 6.60155 1.14111 12.5616C0.498734 17.0079 2.06657 21.3028 5.44179 24.342C7.56179 26.2517 8.77967 28.8859 8.77967 31.5667V37.0001H21.2228V31.2201C21.2228 28.6909 22.3925 26.2562 24.5172 24.363C27.3651 21.8218 28.9998 18.226 28.9998 14.4982C28.9998 10.6534 27.292 6.97958 24.3134 4.41737H24.3119ZM21.3084 18.9461L19.207 17.791C18.364 18.7916 17.1617 19.4801 15.7758 19.6737V21.9988H14.2204V19.6737C12.8408 19.4816 11.64 18.7961 10.7986 17.8015L8.68945 18.9461L7.90087 17.653L9.97732 16.5264C9.70668 15.9023 9.55425 15.2183 9.55425 14.4982C9.55425 13.7902 9.70357 13.1151 9.96799 12.4985L7.90087 11.3435L8.68945 10.0503L10.7799 11.2189C11.6229 10.2124 12.8315 9.5178 14.222 9.32428V6.99908H15.7774V9.32428C17.157 9.5163 18.3578 10.2019 19.1993 11.1964L21.3084 10.0518L22.097 11.345L20.0205 12.4715C20.2912 13.0956 20.4436 13.7797 20.4436 14.4997C20.4436 15.2138 20.2927 15.8948 20.0252 16.5159L22.097 17.791L21.3084 18.9461Z" stroke="white" stroke-width="2"/>
</svg>
