<svg width="38" height="38" viewBox="0 0 38 38" fill="none" xmlns="http://www.w3.org/2000/svg">
<path d="M25.2075 4.1575C22.5525 2.092 19.3695 1 15.999 1C7.72802 1 0.999023 7.729 0.999023 16C0.999023 24.271 7.72802 31 15.999 31.0015C19.8645 31.0015 23.382 29.518 26.0445 27.1075L35.718 36.781C35.865 36.9265 36.057 37 36.249 37C36.441 37 36.633 36.928 36.78 36.781L36.7815 36.7765C37.074 36.484 37.074 36.0085 36.7815 35.716L27.108 26.0425C29.5185 23.38 31.002 19.8625 31.002 15.997C31.002 14.656 30.825 13.3285 30.477 12.0505M4.35752 22.801L11.4315 14.4235C11.82 13.9645 12.387 13.687 12.9855 13.6615C13.584 13.6345 14.1735 13.864 14.5995 14.29L17.7045 17.395C17.835 17.524 18.0135 17.584 18.1905 17.5855C18.3735 17.5795 18.54 17.4985 18.6585 17.362L32.6835 1.258" stroke="white" stroke-width="2" stroke-linecap="round"/>
</svg>
