<svg width="52" height="52" viewBox="0 0 52 52" fill="none" xmlns="http://www.w3.org/2000/svg">
<path d="M1 51V39.6111C1 36.6643 2.17063 33.8381 4.25437 31.7544C6.33811 29.6706 9.16426 28.5 12.1111 28.5H23.2222C26.1691 28.5 28.9952 29.6706 31.079 31.7544C33.1627 33.8381 34.3333 36.6643 34.3333 39.6111V51M37.1111 1.36111C39.5012 1.97306 41.6195 3.36306 43.1323 5.31197C44.6451 7.26089 45.4662 9.65786 45.4662 12.125C45.4662 14.5921 44.6451 16.9891 43.1323 18.938C41.6195 20.8869 39.5012 22.2769 37.1111 22.8889M51 51V39.6111C50.9859 37.1588 50.1609 34.78 48.6535 32.8456C47.1462 30.9111 45.0412 29.5297 42.6667 28.9167M6.55556 12.1111C6.55556 15.058 7.72619 17.8841 9.80992 19.9679C11.8937 22.0516 14.7198 23.2222 17.6667 23.2222C20.6135 23.2222 23.4397 22.0516 25.5234 19.9679C27.6071 17.8841 28.7778 15.058 28.7778 12.1111C28.7778 9.16426 27.6071 6.33811 25.5234 4.25437C23.4397 2.17063 20.6135 1 17.6667 1C14.7198 1 11.8937 2.17063 9.80992 4.25437C7.72619 6.33811 6.55556 9.16426 6.55556 12.1111Z" stroke="#E43D30" stroke-width="2" stroke-linecap="round" stroke-linejoin="round"/>
</svg>
