<svg width="41" height="40" viewBox="0 0 41 40" fill="none" xmlns="http://www.w3.org/2000/svg">
<path fill-rule="evenodd" clip-rule="evenodd" d="M20.4186 0C9.46464 0 0.666626 8.86929 0.666626 19.917C0.666626 28.1171 5.48064 34.9788 12.4526 38.1592C12.4526 34.4242 12.4266 34.9055 15.2726 22.7607C13.7086 19.6045 14.9246 14.3936 18.4266 14.3936C23.2866 14.3936 19.9846 21.5991 19.4226 24.4346C18.9246 26.6107 20.5846 28.2852 22.5766 28.2852C26.3946 28.2852 28.8826 23.4304 28.8826 17.7412C28.8826 13.3891 25.8966 10.209 20.7506 10.209C11.6006 10.209 9.28064 20.3991 12.4526 23.5977C13.2506 24.8057 12.4526 24.8622 12.4526 26.4434C11.8986 28.1152 7.47263 25.6851 7.47263 19.415C7.47263 13.7238 12.1206 7.03027 21.5806 7.03027C29.0486 7.03027 34.0286 12.5525 34.0286 18.4111C34.0286 26.2764 29.7126 31.9678 23.4066 31.9678C21.2486 31.9678 19.2566 30.7952 18.5926 29.4561C17.3866 34.147 17.1426 36.5252 15.2726 39.1631C17.0986 39.6652 18.9246 40 20.9166 40C31.8706 40 40.6666 31.1306 40.6666 20.085C40.1706 8.86988 31.3726 0 20.4186 0Z" fill="#010101"/>
</svg>
