<svg width="40" height="39" viewBox="0 0 40 39" fill="none" xmlns="http://www.w3.org/2000/svg">
<path d="M24.0634 9.48824L20.9179 12.5543L17.7724 9.48824C17.5649 9.28954 17.4015 9.05072 17.2924 8.7868C17.1833 8.52289 17.1309 8.23961 17.1385 7.95479C17.1462 7.66998 17.2136 7.3898 17.3367 7.1319C17.4597 6.87401 17.6357 6.64398 17.8535 6.4563C18.0713 6.26863 18.3263 6.12737 18.6023 6.04143C18.8783 5.95549 19.1694 5.92673 19.4572 5.95695C19.7451 5.98717 20.0235 6.07573 20.2749 6.21704C20.5262 6.35835 20.7452 6.54935 20.9179 6.77802C21.0913 6.55101 21.3105 6.36167 21.5617 6.22186C21.8129 6.08205 22.0907 5.99478 22.3778 5.9655C22.6648 5.93622 22.9549 5.96557 23.2299 6.05172C23.5049 6.13786 23.7589 6.27894 23.9759 6.46612C24.193 6.65331 24.3684 6.88257 24.4913 7.13956C24.6142 7.39655 24.6819 7.67574 24.6901 7.95965C24.6983 8.24356 24.6468 8.52608 24.539 8.78953C24.4312 9.05298 24.2692 9.29169 24.0634 9.49072M20.9144 15.8613C17.0036 15.8613 13.8333 12.6904 13.8333 8.78025C13.8333 4.87012 17.0036 1.69922 20.9144 1.69922C24.8251 1.69922 27.9954 4.87012 27.9954 8.78025C27.9954 12.6904 24.8251 15.8613 20.9144 15.8613Z" stroke="#E43D30" stroke-width="1.64444" stroke-linecap="round" stroke-linejoin="round"/>
<path d="M13.2369 34.4228L10.8996 36.76C10.5072 37.1524 9.87598 37.1524 9.4836 36.76L2.61683 29.8933C2.52347 29.8005 2.44937 29.6902 2.39881 29.5687C2.34825 29.4472 2.32222 29.3169 2.32222 29.1853C2.32222 29.0536 2.34825 28.9233 2.39881 28.8018C2.44937 28.6803 2.52347 28.57 2.61683 28.4773L4.95409 26.14C5.34648 25.7476 5.97771 25.7476 6.3701 26.14L13.2369 33.0068C13.6292 33.3906 13.6292 34.0304 13.2369 34.4228Z" stroke="#E43D30" stroke-width="1.64444" stroke-linecap="round" stroke-linejoin="round"/>
<path d="M6.54092 26.3023L12.7338 20.1094H24.0618C25.4011 20.1094 26.4929 21.1927 26.4929 22.5405C26.4929 23.8797 25.4096 24.9716 24.0618 24.9716H17.9031" stroke="#E43D30" stroke-width="1.64444" stroke-linecap="round" stroke-linejoin="round"/>
<path d="M13.0665 32.8283L26.1773 31.0796L37.2751 19.9478C37.7585 19.4632 38.0299 18.8067 38.0299 18.1223C38.0299 17.4379 37.7585 16.7814 37.2751 16.2969C36.7905 15.8135 36.134 15.542 35.4496 15.542C34.7652 15.542 34.1087 15.8135 33.6242 16.2969L29.5382 20.3828" stroke="#E43D30" stroke-width="1.64444" stroke-linecap="round" stroke-linejoin="round"/>
</svg>
