<svg width="44" height="40" viewBox="0 0 44 40" fill="none" xmlns="http://www.w3.org/2000/svg">
<path d="M19.1152 19.1253C16.794 19.1253 14.912 17.2432 14.912 14.922C14.912 12.6008 16.794 10.7188 19.1152 10.7188C21.4364 10.7188 23.3185 12.6008 23.3185 14.922" stroke="#E43D30" stroke-width="1.9593" stroke-linecap="round" stroke-linejoin="round"/>
<path d="M19.1152 19.126C21.4364 19.126 23.3185 21.008 23.3185 23.3292C23.3185 25.6505 21.4364 27.5325 19.1152 27.5325C16.794 27.5325 14.912 25.6505 14.912 23.3292" stroke="#E43D30" stroke-width="1.9593" stroke-linecap="round" stroke-linejoin="round"/>
<path d="M19.1143 10.7259V8.94141" stroke="#E43D30" stroke-width="1.9593" stroke-linecap="round" stroke-linejoin="round"/>
<path d="M19.1143 29.3099V27.5254" stroke="#E43D30" stroke-width="1.9593" stroke-linecap="round" stroke-linejoin="round"/>
<path d="M36.1629 22.7505C36.4103 21.5812 36.5404 20.3687 36.5404 19.1257C36.5404 9.50132 28.7383 1.69922 19.114 1.69922C9.48957 1.69922 1.68747 9.50132 1.68747 19.1257C1.68747 28.7501 9.48957 36.5522 19.114 36.5522C21.919 36.5522 24.5692 35.8895 26.9166 34.712" stroke="#E43D30" stroke-width="1.9593" stroke-linecap="round" stroke-linejoin="round"/>
<path d="M30.8039 36.3826C30.8545 36.6099 30.9734 36.8164 31.1447 36.9742C31.316 37.1321 31.5315 37.2338 31.7622 37.2657C31.9929 37.2976 32.2279 37.2581 32.4356 37.1527C32.6433 37.0472 32.8137 36.8808 32.9241 36.6757L34.9131 33.7323L39.5827 38.4019C39.677 38.4962 39.7889 38.571 39.9121 38.6221C40.0353 38.6731 40.1674 38.6994 40.3007 38.6994C40.4341 38.6994 40.5661 38.6731 40.6893 38.6221C40.8125 38.571 40.9244 38.4962 41.0187 38.4019L42.0151 37.4056C42.1094 37.3113 42.1842 37.1994 42.2352 37.0762C42.2862 36.953 42.3125 36.8209 42.3125 36.6876C42.3125 36.5542 42.2862 36.4222 42.2352 36.299C42.1842 36.1758 42.1094 36.0639 42.0151 35.9696L37.3454 31.2999L40.3079 29.311C40.513 29.2005 40.6794 29.03 40.7848 28.8222C40.8902 28.6145 40.9295 28.3795 40.8975 28.1487C40.8655 27.918 40.7637 27.7025 40.6057 27.5313C40.4478 27.3601 40.2412 27.2412 40.0138 27.1908L27.0887 23.4756L30.8039 36.3826Z" stroke="#E43D30" stroke-width="1.9593" stroke-linecap="round" stroke-linejoin="round"/>
</svg>
