<svg width="42" height="40" viewBox="0 0 42 40" fill="none" xmlns="http://www.w3.org/2000/svg">
<path fill-rule="evenodd" clip-rule="evenodd" d="M21.3345 40C18.6652 40 17.5017 39.3904 15.2326 37.7416C13.1793 36.2504 11.8622 35.4307 8.05005 36.1955C6.56294 36.4937 6.59199 36.3571 6.27258 34.8489C6.1025 34.0543 5.98012 33.5707 5.68975 33.5238C2.59315 33.0339 0.761732 32.3095 0.396694 31.434C0.222471 31.0122 0.429907 30.6803 0.749315 30.625C4.78755 29.9433 8.05217 26.5028 9.46877 23.1136C9.47291 23.1051 9.475 23.0963 9.47915 23.09C9.83796 22.3444 9.90847 21.701 9.69277 21.1769C9.20536 19.9968 7.63528 19.7497 6.50905 19.2896C5.73335 18.9743 4.45776 18.31 4.62783 17.394C4.78339 16.5547 6.10873 16.0221 6.81806 16.363C8.5997 17.2214 10.0266 16.9589 10.4539 16.5542C10.4332 16.143 10.7028 15.698 10.7028 15.2805C10.7028 12.377 9.98106 8.76452 10.8812 6.69392C14.766 -2.25305 27.7248 -2.20817 31.5888 6.68981C32.4889 8.76253 32.267 12.3769 32.0886 15.2846L32.0803 15.4234C32.0554 15.8175 32.0327 16.19 32.014 16.5521C32.097 16.6309 32.4309 16.9037 33.1133 16.9314C33.6919 16.908 34.3598 16.7166 35.094 16.363C35.9589 15.9476 37.5165 16.5846 37.5331 17.539C37.5414 17.9842 37.22 18.6484 35.6374 19.2896C34.5154 19.7454 32.9411 19.9968 32.4557 21.1769C32.238 21.701 32.3085 22.3445 32.6673 23.0879C32.6715 23.0964 32.6736 23.1051 32.6777 23.1136C32.7876 23.3799 35.4528 29.6195 41.3971 30.625C41.6481 30.6676 41.8286 30.8975 41.814 31.1574C41.8078 31.2512 41.787 31.3444 41.7476 31.436C41.3847 32.3073 39.5554 33.0298 36.4567 33.5197C36.1663 33.5666 36.0439 34.0503 35.8759 34.8406C35.6208 36.0421 35.6602 36.4553 34.0964 36.14C30.3257 35.3859 28.8966 36.2975 26.9159 37.7354C25.4557 38.7962 23.8048 40 21.3345 40Z" fill="#010101"/>
</svg>
