<svg width="52" height="38" viewBox="0 0 52 38" fill="none" xmlns="http://www.w3.org/2000/svg">
<path d="M50.3579 6.63136C49.7684 4.43136 48.0316 2.69452 45.8316 2.09452C41.8105 0.989258 25.7158 0.989258 25.7158 0.989258C25.7158 0.989258 9.62105 0.989258 5.6 2.05242C3.43158 2.65242 1.65263 4.43136 1.06316 6.63136C0 10.6524 0 18.9998 0 18.9998C0 18.9998 0 27.3893 1.06316 31.3682C1.65263 33.5682 3.38947 35.305 5.6 35.905C9.66316 37.0103 25.7158 37.0103 25.7158 37.0103C25.7158 37.0103 41.8105 37.0103 45.8316 35.9472C48.0316 35.3577 49.7684 33.6208 50.3684 31.4208C51.4316 27.3998 51.4316 19.0524 51.4316 19.0524C51.4316 19.0524 51.4737 10.6629 50.3684 6.64189L50.3579 6.63136ZM20.5789 26.705V11.284L33.9579 18.9893L20.5789 26.6945V26.705Z" fill="black"/>
</svg>
