<svg width="149" height="37" viewBox="0 0 149 37" fill="none" xmlns="http://www.w3.org/2000/svg">
<path fill-rule="evenodd" clip-rule="evenodd" d="M107.244 3.77295L106.331 4.9146L107.529 5.885L108.328 4.9146L109.527 5.885L110.44 4.74335L109.299 3.77295L108.443 4.74335L107.244 3.77295Z" fill="#313080"/>
<path fill-rule="evenodd" clip-rule="evenodd" d="M81.6708 4.17285L80.7004 5.3145L81.8421 6.22782L82.8125 5.08617L81.6708 4.17285Z" fill="#313080"/>
<path fill-rule="evenodd" clip-rule="evenodd" d="M121.8 12.3925L121.857 12.5067L121.971 12.6779L122.142 12.8491L122.314 12.9633L122.542 13.0204L122.77 13.0775H123.284V12.3925H127.052L126.937 12.5637L126.823 12.6779L126.652 12.7921L126.538 12.9062L126.252 13.0775H126.081H125.967H124.711L124.654 13.1916L124.597 13.3629L124.54 13.5341L124.483 13.7625L124.369 13.9908L124.254 14.2762L124.14 14.5616L124.026 14.847L123.741 15.1895L123.627 15.3608L123.569 15.4179L123.512 15.532L123.227 15.8174V13.8195L123.455 13.4771L123.684 13.1916L123.741 13.0775L123.798 12.9633H123.17V12.2783L121.8 12.3925ZM127.223 12.3925L127.394 12.4496L127.565 12.5067L127.737 12.5637L127.908 12.6779L129.164 13.1916V12.3925H137.326L137.041 12.5637L136.813 12.6779L136.584 12.7921L136.47 12.8491L136.413 12.9062L136.128 12.9633H135.956H135.785L135.443 13.0204H135.214H135.1H135.043H134.815H134.758H134.701H134.643H132.474L132.132 12.9633L131.789 12.8491L131.447 12.6779L131.161 12.5067L130.476 13.6483L129.107 13.1346V12.3354H127.223V12.3925ZM138.468 12.3925L138.582 12.6779L138.696 12.8491L138.811 13.0204L138.925 13.0775L139.096 13.1346H143.377H143.434H143.491H143.548H143.605H143.72H143.891L144.005 13.0775L144.119 13.0204L144.176 12.9633L144.233 12.9062L144.29 12.8491L144.462 12.5637H138.468V12.3925ZM145.261 12.3925L146.402 12.7921V12.3925H148.572L148.4 12.5637L148.229 12.7921L148.001 13.0204L147.772 13.3058L146.402 12.7921V12.3925H145.261ZM123.284 13.9337L123.113 14.105L122.942 14.2762L122.542 14.6187L122.2 14.9041L121.857 15.1324L121.572 15.3608L121.286 15.532L121.001 15.6462L120.715 15.7033H120.487L119.973 15.6462L119.517 15.5891L119.117 15.4179L118.717 15.2466L118.66 15.4179L119.916 16.1028L120.202 16.217L120.487 16.3312L120.772 16.4453L120.887 16.5024L121.058 16.5595H121.172L121.286 16.6166H121.515H121.572H121.686H121.857L122.2 16.5595L122.485 16.4453L122.656 16.3312L122.713 16.2741H122.827L123.113 16.1028L123.398 15.8745V13.9337H123.284Z" fill="#313080"/>
<path fill-rule="evenodd" clip-rule="evenodd" d="M123.284 12.3927V11.5364L123.227 11.4793L122.998 11.4223H122.827L122.713 11.3081L122.599 11.251L122.542 11.1368L122.485 11.0798V10.9656L122.542 10.9085L122.599 10.6802L122.827 10.566L123.056 10.4519H123.284V9.13895H123.227L123.056 9.19603L122.884 9.3102L122.713 9.42436L122.599 9.53853L122.314 9.93811L122.028 10.3948L121.914 10.6231L121.857 10.8514L121.8 11.251L121.743 11.4793V11.7077V12.0502L121.8 12.2785V12.3927H123.284V11.5364H123.512H123.626H123.741H123.969H124.026H124.14V11.3652L124.083 11.251V11.1939L123.969 11.0798L123.855 10.9085L123.741 10.6802L123.626 10.566L123.455 10.5089L123.341 10.4519H123.284V9.13895L123.626 9.08187H123.741L123.912 9.13895L124.026 9.19603L124.197 9.3102L124.311 9.42436L124.483 9.59561L124.54 9.76686L124.711 10.0523L124.768 10.3948L124.882 10.7373L124.996 11.1368L125.053 11.5364H126.138H126.252H126.366L126.481 11.4793H126.538H126.595V11.4223H126.652H126.709V11.3652H126.766L126.823 11.3081L126.937 11.251L128.022 9.82394L128.25 9.59561L128.478 9.36728L128.878 9.13895L129.22 8.9677V10.1664H128.992L128.821 10.2235L128.707 10.3377L128.535 10.4519L128.364 10.6231L128.022 11.0227L129.22 11.4223V12.3927H137.383L138.297 11.7077L138.354 11.936V12.1643L138.468 12.3927H144.462L144.633 12.1072L145.261 12.3927H146.402V11.1368L147.601 11.5364V11.1939L147.544 10.9656L147.43 10.6802L147.373 10.3948L147.144 10.1094L147.087 9.99519L146.973 9.88103L146.859 9.82394L146.745 9.76686L146.631 9.70978H146.516L146.402 9.76686V8.68229L146.631 8.56813L147.03 8.51105H147.259H147.316L147.43 8.56813L147.658 8.68229L147.772 8.79646L147.829 8.85354L148.001 9.19603L148.115 9.3102L148.229 9.53853L148.4 9.88103L148.514 10.3377L148.571 10.566L148.629 10.7373L148.743 11.1939L148.8 11.4223V11.5935V11.8218V11.8789V11.936L148.857 12.0502H148.8V12.1072L148.686 12.2214L148.571 12.3927H146.402V11.1368L145.204 10.7373L145.375 10.4519L145.546 10.2806L145.717 10.1094L145.889 9.99519L146.174 9.76686H146.402V8.68229L146.174 8.73938L145.831 9.02479L145.375 9.42436L145.261 9.53853L145.146 9.70978L145.032 9.93811L144.918 10.1664L144.69 10.3948L144.519 10.7373L144.347 11.0227L144.176 11.3652L143.491 11.5364H139.438H139.324H139.21L139.096 11.4793L139.039 11.4223V11.3652L139.267 11.1939L139.495 11.0798L139.724 11.0227L140.066 10.9656L140.352 10.9085H140.694L141.094 10.8514L141.493 10.9085L142.064 9.42436L141.607 9.36728H141.55H141.493H141.379H141.208L140.352 9.3102L139.895 9.25312L139.495 9.19603L138.582 8.9677L137.098 8.51105L136.698 8.39688L136.413 8.3398L136.185 8.28271H136.07H135.671L135.328 8.45396L135.043 8.62521L134.7 8.9677L134.472 9.25312L134.301 9.6527L134.187 9.99519L134.13 10.3948L134.244 10.2235L134.358 10.1664L134.529 10.0523L134.7 9.93811L134.872 9.88103L135.1 9.82394H135.557H135.842L136.242 9.88103L136.584 9.99519L137.041 10.1094L138.411 10.5089L138.125 10.7373L137.783 10.9656L137.497 11.1368L137.212 11.251L136.927 11.3652L136.641 11.4793L136.356 11.5364H136.127H132.76L131.903 11.4223L131.675 11.3081L131.504 11.1939L131.39 11.0227L131.275 10.7943L131.161 10.5089L131.047 10.2235L130.933 9.93811L130.876 9.76686L130.762 9.53853L130.705 9.42436L130.648 9.3102L130.59 9.25312L130.419 9.08187L130.248 8.9677L130.077 8.91062H130.02L129.734 8.85354L129.335 8.91062L129.22 8.9677V10.1664L129.335 10.1094H129.449L129.563 10.1664L129.734 10.2806L129.905 10.4519L130.077 10.7943L130.191 11.0798L130.248 11.1939V11.251V11.3652L130.305 11.5935L130.362 11.8789L129.22 11.4223V12.3927H127.223L127.166 12.3356H127.108H127.051V12.3927H123.284Z" fill="#313080"/>
<path fill-rule="evenodd" clip-rule="evenodd" d="M117.062 9.88108V9.76691V9.70983L116.948 9.4815L116.891 9.25317L116.777 9.08192L116.662 8.91067L116.491 8.73943L116.377 8.56818L116.092 8.28276L115.92 8.11152L115.749 7.99735L115.578 7.88319L115.407 7.8261L115.235 7.71194H115.007L114.779 7.65486H114.55H114.379L114.208 7.71194H114.037L113.865 7.76902L113.523 7.88319L113.352 7.99735L113.18 8.11152L112.838 8.33985L112.552 8.62526L112.324 8.85359L112.153 9.139L111.982 9.42441L111.867 9.76691L111.81 10.0523V10.3948V10.6802L111.867 10.9656L111.982 11.2511L112.153 11.5936H110.555L110.383 11.5365L110.212 11.4794L110.041 11.4223L109.927 11.3081L109.812 11.1369L109.698 10.9656L109.641 10.7373L109.584 10.4519L108.899 5.94238L108.1 7.42653L108.214 8.11152L108.1 8.1686L108.043 8.28276L107.872 8.39693L107.7 8.56818L107.472 8.68234L107.244 8.85359L107.13 8.91067V9.82399L107.415 9.76691L107.529 9.65275L107.643 9.53858L107.815 9.36733L107.929 9.19608L108.157 8.62526L108.442 10.509V10.6231V10.6802V10.7373L108.385 10.7944H108.328L108.214 10.8515H108.043H107.929H107.872H107.815H107.757H107.643H107.415H107.187V12.5069H107.358H107.415H107.472H107.586L107.757 12.4498H107.929L108.442 11.4794L108.614 11.0227L108.671 11.4794L108.728 11.7077L108.785 11.936L108.842 12.1073L108.899 12.2785L109.013 12.564L109.127 12.7352L109.242 12.8494L109.356 12.9635L109.527 13.0777L109.698 13.1348L109.927 13.1919H110.098H110.326H117.347L118.261 11.6506L115.007 11.5936L114.836 11.5365L114.664 11.4794L114.322 11.3652L114.151 11.2511L113.979 11.1369L113.808 10.9656L113.637 10.7944L113.352 10.509L113.18 10.3948L113.123 10.2807L112.952 10.0523L112.895 9.88108L112.952 9.70983L113.009 9.59566L113.123 9.53858L113.237 9.42441L113.409 9.36733L113.865 9.19608L114.094 9.08192L114.322 9.02484L114.493 8.96775H114.722L114.893 8.91067H115.007H115.292H115.635L115.92 8.96775L116.206 9.02484L116.491 9.139L116.719 9.25317L116.891 9.42441L117.062 9.59566V9.88108ZM107.301 8.85359L107.13 8.96775L106.844 9.139L106.502 9.31025L106.216 9.59566L105.931 9.88108L105.703 10.2807L105.474 10.6802L105.303 11.194L105.075 11.7077L104.96 12.2215H105.36L105.76 12.2785H106.102H106.445H106.673L106.844 12.3356H106.901H107.015H107.187V10.6802L106.958 10.6231H106.559H106.159H105.817L105.874 10.509L105.988 10.3948L106.159 10.2236L106.33 10.1094L106.559 9.93816L106.787 9.82399L107.072 9.70983H107.13V8.85359H107.301Z" fill="#313080"/>
<path fill-rule="evenodd" clip-rule="evenodd" d="M98.2818 13.0775L98.3389 12.735L98.396 12.3925L98.4531 12.05L98.5102 11.7646V11.4791V11.2508L98.5672 11.0225V10.7942V10.3946L98.5102 10.0521L98.4531 9.70959L98.3389 9.3671L98.2247 9.0246L98.0535 8.68211L97.8822 8.33961L97.711 8.0542L96.9689 9.42418V9.48126L97.026 9.53834L97.1402 9.70959L97.3114 10.0521L97.4256 10.3375L97.5398 10.6229L97.6539 10.8512L97.711 11.0796L97.7681 11.2508L97.8252 11.4221H93.4298L93.3727 11.0225L93.3156 10.6229L93.2015 10.2804L93.0873 9.93792L92.9732 9.70959L92.859 9.53834L92.7448 9.3671L92.6307 9.25293L92.4594 9.13877L92.2882 9.08169L92.1169 9.0246H92.0028L91.7173 9.08169V10.4517H91.7744H91.8886L92.0028 10.5087L92.1169 10.6229L92.2311 10.7942L92.3452 10.9083L92.4594 11.0796L92.5165 11.2508V11.4221H92.4023H92.3452H92.1169H92.0028H91.8886H91.7173V12.9633H92.3452L92.1169 13.2487L91.8886 13.5912L91.7173 13.8195V15.8174L91.9457 15.532L92.0028 15.4178L92.0598 15.3608L92.2311 15.1895L92.5165 14.847L93.2015 13.0204H98.2818V13.0775ZM91.6603 9.13877H91.6032L91.4319 9.19585L91.3178 9.31002L91.1465 9.42418L90.9753 9.53834L90.6899 9.93792L90.4044 10.3946L90.2903 10.6229L90.2332 10.8512L90.119 11.3079V11.5362V11.7075V11.9929L90.1761 12.2212L90.2332 12.4496L90.3474 12.6208L90.5186 12.792L90.6899 12.9062L90.9182 12.9633L91.1465 13.0204H91.6603V11.4791H91.6032L91.3748 11.4221L91.1465 11.365L90.9753 11.3079L90.8611 11.2508L90.804 11.1367V11.0796V10.9654L90.8611 10.8512V10.7371L90.9753 10.6229L91.2036 10.5087L91.4319 10.3946H91.6603V9.13877ZM91.6603 13.8766L91.6032 13.9337L91.3178 14.2762L90.9182 14.6187L90.5757 14.9041L90.2332 15.1324L89.9478 15.3608L89.6624 15.532L89.377 15.6462L89.0915 15.7033L88.8632 15.7603L88.3495 15.7033L87.8928 15.6462L87.4362 15.4749L87.0366 15.3037L86.9795 15.4749L87.322 15.7033L87.3791 15.7603H87.4362L87.4932 15.8174L87.6645 15.9316L87.9499 16.1028L88.2353 16.217L88.4066 16.2741L88.5778 16.3312L88.749 16.3882L88.9203 16.4453L89.2057 16.5595L89.3199 16.6166L89.434 16.6737H89.5482L89.6624 16.7307H89.8907H89.9478H90.0619H90.1761H90.2903L90.4044 16.6737L90.5757 16.6166L90.8611 16.5024L90.9753 16.3882L91.0323 16.3312H91.1465L91.4319 16.1599L91.5461 16.0457L91.6603 15.9316V13.8766Z" fill="#313080"/>
<path fill-rule="evenodd" clip-rule="evenodd" d="M98.453 15.0183L97.1972 14.105L96.2268 15.1895L97.4255 16.16L98.453 15.0183Z" fill="#313080"/>
<path fill-rule="evenodd" clip-rule="evenodd" d="M137.041 15.0183L135.842 14.105L134.872 15.1895L136.013 16.16L137.041 15.0183Z" fill="#313080"/>
<path fill-rule="evenodd" clip-rule="evenodd" d="M57.1254 9.8238L56.7829 10.68L57.9816 12.5067L57.9245 12.6779L57.8675 12.8492L57.8104 13.0775L57.6962 13.3058L57.525 13.5342L57.3537 13.7625L57.1254 14.0479L56.8971 14.3333L56.5546 14.6187L56.2121 14.9041L55.8696 15.1325L55.5842 15.3037L55.2417 15.475L54.9563 15.5891L54.6708 15.6462L54.3854 15.7033H53.8717L53.415 15.6462L52.9584 15.532L52.73 15.475L52.5017 15.3608L52.6159 15.5891L52.8442 15.7033L53.1296 15.8745L53.1867 15.9316L53.3009 15.9887L53.5863 16.1029H53.7004H53.7575H53.8146L54.0429 16.217L54.2142 16.2741L54.4425 16.3883L54.6138 16.4454L54.8421 16.5025L55.0133 16.5595L55.1846 16.6166H55.3558H55.5271H55.6983H55.8125L55.9267 16.5595H56.0408L56.3262 16.5025L56.4404 16.4454L56.6117 16.3883L56.8971 16.217L57.1254 15.9887L57.1825 15.9316L57.2396 15.8745L57.4108 15.7604L57.6391 15.475L57.7533 15.3037L57.9245 15.1325L58.0958 14.8471L58.267 14.5616L58.3812 14.2762L58.4383 14.105L58.4954 13.9908L58.5525 13.8196L58.6095 13.6483L58.7237 13.3629L58.895 12.735L59.1233 12.8492L59.4087 12.9063L59.6941 12.9633H59.9795H66.8294V11.4221H63.9753L64.0895 11.365L64.2607 11.3079L64.432 11.1938L64.6603 11.0796L64.8315 10.9084L65.0599 10.7371L65.2882 10.5659L65.6307 10.3375L65.9161 10.1092L66.2015 9.93797L66.4298 9.76672L66.6011 9.70963H65.2311L65.1169 9.76672L64.7174 10.0521L64.5461 10.1663L64.3749 10.2805L64.2036 10.3946L64.0895 10.5088L63.804 10.68L63.6328 10.7942H63.5186H63.4616H63.4045L63.4616 10.623L63.5186 10.5088L63.5757 10.3946V10.2234L63.6328 10.1092L63.6899 9.76672V9.53839H63.062V9.65255L63.1191 9.99505V10.2805V10.5659V10.623L63.062 10.68L63.0049 10.7371H62.9478L62.7766 10.8513H62.7195H62.6053L62.377 10.9084L62.0916 10.9654H61.9203L61.7491 11.0225H60.0366H59.8654L59.6941 10.9654L59.5229 10.8513L59.3516 10.7942L59.1804 10.623L59.0091 10.4517L58.8379 10.2805L58.6666 10.1092L58.1529 9.31006H57.1254V9.8238ZM68.4848 9.8238L68.5419 9.88088L68.8844 10.1092L69.0556 10.2805L69.2269 10.4517L69.341 10.5659L69.3981 10.623L69.4552 10.7371L69.5123 10.7942L69.5694 10.8513L69.6265 10.9654L69.6835 11.0796L69.7406 11.1938V11.2509V11.3079V11.365V11.4221L69.6265 11.4792L69.4552 11.5363H69.284H69.1698H69.0556H68.8844H68.8273H68.7702H66.8294V13.0775H69.5123L69.7406 12.7921L69.969 12.5638L70.3115 12.1071L70.4827 11.8788L70.5969 11.7075L70.711 11.5363L70.8252 11.4221L71.0535 10.9654V10.7942V10.68V10.5659L70.9964 10.3946L70.9394 10.2805V10.2234L70.7681 9.99505L70.711 9.93797H68.4848V9.8238Z" fill="#313080"/>
<path fill-rule="evenodd" clip-rule="evenodd" d="M58.0959 9.82388L57.468 8.91056L57.1255 9.82388H58.0959ZM63.7471 9.82388V9.65263V9.25305V8.96764V8.73932V8.4539V8.28265L63.5758 5.8281L63.7471 5.94227L64.5462 4.40104L64.2037 4.2298L63.9183 4.05855L63.69 3.94438L63.5187 3.83022L63.3475 3.71605L63.2333 3.60189L63.1762 3.48772V3.43064L63.2904 2.97398V2.85982L63.2333 2.80273L63.1762 2.85982L63.1192 2.9169L63.0621 2.97398L63.005 3.08815L62.8908 3.20231L62.7767 3.37356L62.6625 3.5448L62.5483 3.71605L62.32 4.05855L62.2629 4.2298L62.2058 4.40104L62.1487 4.51521L62.0917 4.57229V4.74354V4.8577V4.91479L62.1487 4.97187L62.2629 5.08603L62.4342 5.25728L62.8337 8.22557L62.8908 8.62515V8.68223V8.7964L62.9479 8.96764L63.005 9.70972V9.93805H63.7471V9.82388ZM66.6012 9.82388L66.6583 9.7668L66.8295 9.65263V8.73932L66.6012 8.85348L66.4299 9.02473L66.0304 9.31014L65.802 9.4243L65.5737 9.65263L65.2312 9.88097H66.6012V9.82388ZM70.7682 9.82388L70.7111 9.7668L70.654 9.65263L70.4257 9.4243L70.3686 9.36722L70.3115 9.31014L70.1974 9.19597L69.912 8.91056L69.6836 8.73932L69.4553 8.56807L69.227 8.4539L68.7703 8.28265L68.3707 8.22557H68.1424L67.857 8.28265L67.6858 8.33973L67.5145 8.39682L67.172 8.56807L66.7724 8.73932V9.65263L67.0008 9.59555L67.172 9.53847H67.4003L67.7428 9.59555L68.0853 9.70972L68.3707 9.82388H70.7682Z" fill="#313080"/>
<path fill-rule="evenodd" clip-rule="evenodd" d="M73.7936 3.08838L72.7661 4.40127L72.8232 4.80085L72.9374 5.20043V5.60001L72.9944 5.99959L73.0515 6.45625L73.1086 6.96999L73.2228 7.88331V8.39705L73.2799 8.96787L73.3369 10.0524V11.1941L73.394 12.507V12.7353L73.5082 12.9066L73.5653 12.9636L73.6224 13.0207L73.7365 13.0778H73.8507H81.0431H81.3285L81.4427 13.0207H81.6139H81.8422L82.1276 12.9636L82.356 12.9066L82.5843 12.8495V12.7924H82.6414L82.7556 12.7353H82.8126L82.9268 12.6782L84.6393 11.4224L84.8676 11.3083L85.0959 11.1941L85.3243 11.0799L85.6668 11.0228L85.9522 10.9658H86.2947L86.6942 10.9087L87.1509 10.9658L87.3222 10.5091L87.4363 10.1666L87.5505 9.82411L87.7217 9.48162L86.7513 9.42454L85.8951 9.36745L85.4384 9.31037L85.0389 9.25329L84.2397 9.02496L83.726 8.85371L83.2693 8.73955L82.8697 8.5683L82.5272 8.51122L82.1847 8.45413L82.0135 8.39705L81.7851 8.33997H81.671L81.2714 8.39705L80.9289 8.51122L80.5864 8.68246L80.3581 8.96787L80.0727 9.31037L79.9014 9.65287L79.7873 10.0524L79.7302 10.5091L80.0156 10.2237L80.1868 10.1095L80.3581 10.0524L80.5293 9.93828L80.7577 9.8812H80.9289H81.2143H81.4997L81.8422 9.93828L82.2418 10.0524L82.6414 10.1666L82.8697 10.2237L82.9839 10.2808H83.041L83.098 10.3379L83.3264 10.3949L83.4976 10.452H83.6689V10.5091H83.783L83.8972 10.5662H84.0684L83.783 10.7945L83.4976 11.0228L83.2122 11.137L82.9839 11.3083L82.7556 11.3653L82.5272 11.4795L82.2989 11.5366H82.1276H74.5928H74.5357L74.4786 11.4795L74.3644 11.4224L74.3073 11.3083V11.137L74.079 6.85582L74.0219 6.11375V5.48584L73.9648 4.91502L73.9078 4.40127L73.8507 4.0017V3.60212L73.7936 3.31671V3.08838Z" fill="#313080"/>
<path fill-rule="evenodd" clip-rule="evenodd" d="M52.7871 32.5996V22.3818H56.6687C57.4679 22.3818 58.0958 22.496 58.5524 22.6672C59.0091 22.8956 59.4087 23.181 59.6941 23.6377C59.9795 24.0943 60.0937 24.4939 60.0937 25.0076C60.0937 25.4643 59.9795 25.8639 59.7512 26.2634C59.5229 26.663 59.1233 26.9484 58.6666 27.1768C59.2945 27.348 59.7512 27.6905 60.0937 28.0901C60.4362 28.5467 60.6074 29.0605 60.6074 29.6313C60.6074 30.088 60.4933 30.5446 60.322 30.9442C60.1508 31.3438 59.8653 31.6863 59.5799 31.9146C59.2945 32.1429 58.8949 32.3142 58.4383 32.4284C57.9816 32.5425 57.4108 32.5996 56.7829 32.5996H52.7871ZM54.2142 26.663H56.4404C57.0683 26.663 57.4679 26.6059 57.7533 26.5489C58.0958 26.4347 58.3812 26.2634 58.5524 26.0351C58.7237 25.8068 58.8379 25.5214 58.8379 25.1218C58.8379 24.7793 58.7808 24.4939 58.6095 24.2085C58.4383 23.9231 58.2099 23.7518 57.9245 23.6947C57.6391 23.5806 57.0683 23.5806 56.3262 23.5806H54.2713V26.663M54.2142 31.4009H56.7829C57.2395 31.4009 57.525 31.4009 57.6962 31.3438C58.0387 31.2867 58.267 31.1725 58.4954 31.0584C58.7237 30.9442 58.8949 30.7159 59.0091 30.4876C59.1233 30.2592 59.2374 29.9738 59.2374 29.6313C59.2374 29.2317 59.1233 28.9463 58.952 28.6609C58.7237 28.3755 58.4954 28.2043 58.0958 28.0901C57.7533 27.9759 57.2396 27.9188 56.6116 27.9188H54.2142V31.4009Z" fill="#313080"/>
<path fill-rule="evenodd" clip-rule="evenodd" d="M67.286 32.6V31.5154C66.7152 32.3717 65.916 32.7713 64.8885 32.7713C64.4319 32.7713 64.0323 32.7142 63.6327 32.5429C63.2331 32.3717 62.9477 32.1434 62.7765 31.915C62.6052 31.6867 62.434 31.3442 62.3769 31.0017C62.3198 30.7734 62.3198 30.3738 62.3198 29.8601V25.2935H63.5756V29.4034C63.5756 30.0313 63.5756 30.488 63.6327 30.7163C63.6898 31.0588 63.861 31.2871 64.1465 31.5154C64.3748 31.6867 64.7173 31.8009 65.1169 31.8009C65.5164 31.8009 65.8589 31.6867 66.2014 31.5154C66.5439 31.3442 66.7723 31.0588 66.8864 30.7163C67.0006 30.3738 67.1148 29.9171 67.1148 29.2892V25.3505H68.3706V32.7142H67.286V32.6Z" fill="#313080"/>
<path fill-rule="evenodd" clip-rule="evenodd" d="M70.4827 32.5996V22.3818H71.7385V28.2043L74.7639 25.1789H76.3622L73.508 27.9188L76.6476 32.5996H75.1064L72.5947 28.8322L71.7385 29.6884V32.5996H70.4827Z" fill="#313080"/>
<path fill-rule="evenodd" clip-rule="evenodd" d="M77.7322 32.5996V22.3818H78.988V26.0351C79.5588 25.3501 80.3009 25.0076 81.2142 25.0076C81.785 25.0076 82.2417 25.1218 82.6413 25.3501C83.0408 25.5785 83.3263 25.8639 83.4975 26.2634C83.6688 26.663 83.7829 27.1768 83.7829 27.9188V32.5996H82.5271V27.9188C82.5271 27.2909 82.4129 26.8343 82.1275 26.5489C81.8421 26.2634 81.4425 26.1493 80.9859 26.1493C80.5863 26.1493 80.2438 26.2634 79.9013 26.4347C79.5588 26.6059 79.3305 26.8914 79.2163 27.2338C79.1022 27.5763 78.988 28.033 78.988 28.6038V32.6567H77.7322V32.5996Z" fill="#313080"/>
<path fill-rule="evenodd" clip-rule="evenodd" d="M90.69 31.6865C90.2334 32.086 89.7767 32.3715 89.3771 32.5427C88.9205 32.7139 88.4638 32.771 87.9501 32.771C87.1509 32.771 86.4659 32.5998 86.0663 32.2002C85.6097 31.8006 85.3813 31.2869 85.3813 30.659C85.3813 30.3165 85.4384 29.974 85.6097 29.6886C85.7809 29.4032 86.0093 29.1748 86.2947 28.9465C86.5801 28.7753 86.8655 28.604 87.208 28.5469C87.4363 28.4898 87.8359 28.4328 88.3496 28.3757C89.3771 28.2615 90.1192 28.0903 90.6329 27.919C90.6329 27.7478 90.6329 27.6336 90.6329 27.5765C90.6329 27.0628 90.5188 26.7203 90.2904 26.492C89.948 26.2065 89.4913 26.0924 88.8063 26.0924C88.2355 26.0924 87.7788 26.2065 87.4934 26.3778C87.208 26.6061 86.9797 26.9486 86.8655 27.4624L85.6097 27.2911C85.7238 26.7774 85.8951 26.3207 86.1805 26.0353C86.4088 25.6928 86.8084 25.4645 87.3221 25.2932C87.8359 25.122 88.3496 25.0078 89.0346 25.0078C89.6625 25.0078 90.1763 25.0649 90.5759 25.2361C90.9754 25.4074 91.2608 25.5786 91.4321 25.807C91.6033 26.0353 91.7746 26.3207 91.8317 26.6632C91.8888 26.8915 91.8887 27.2911 91.8887 27.8049V29.4602C91.8887 30.6019 91.9458 31.344 91.9458 31.6865C92.0029 31.9719 92.1171 32.3144 92.2312 32.5427H90.9183C90.8042 32.3144 90.7471 32.029 90.69 31.6865ZM90.6329 28.8894C90.1763 29.0607 89.4913 29.2319 88.5209 29.3461C88.0071 29.4032 87.6076 29.5173 87.3792 29.5744C87.1509 29.6886 86.9797 29.8027 86.8655 29.974C86.7513 30.1452 86.6942 30.3736 86.6942 30.5448C86.6942 30.8873 86.8084 31.1727 87.0938 31.4011C87.3222 31.6294 87.7217 31.7435 88.2355 31.7435C88.7492 31.7435 89.1488 31.6294 89.5484 31.4581C89.9479 31.2298 90.2334 30.9444 90.4046 30.6019C90.5188 30.3165 90.6329 29.9169 90.6329 29.3461V28.8894Z" fill="#313080"/>
<path fill-rule="evenodd" clip-rule="evenodd" d="M96.6835 31.4581L96.8547 32.5427C96.5122 32.5998 96.1697 32.6569 95.8843 32.6569C95.4276 32.6569 95.0851 32.5998 94.7997 32.4285C94.5714 32.3144 94.3431 32.086 94.286 31.8577C94.1718 31.6294 94.1147 31.1156 94.1147 30.3736V26.1495H93.2014V25.1791H94.1147V23.3524L95.3706 22.6104V25.1791H96.6835V26.1495H95.3706V30.4307C95.3706 30.7732 95.3706 31.0015 95.4276 31.1156C95.4847 31.2298 95.5418 31.2869 95.656 31.344C95.7701 31.4011 95.8843 31.4581 96.1126 31.4581C96.2268 31.5152 96.398 31.4581 96.6835 31.4581Z" fill="#313080"/>
<path fill-rule="evenodd" clip-rule="evenodd" d="M97.9395 23.8089V22.3818H99.1953V23.8089H97.9395ZM97.9395 32.5996V25.236H99.1953V32.5996H97.9395Z" fill="#313080"/>
<path fill-rule="evenodd" clip-rule="evenodd" d="M101.193 32.5999V25.2362H102.335V26.3779C102.62 25.8641 102.906 25.5216 103.134 25.3504C103.362 25.1792 103.648 25.1221 103.933 25.1221C104.333 25.1221 104.789 25.2933 105.246 25.5216L104.789 26.6633C104.504 26.492 104.161 26.435 103.876 26.435C103.591 26.435 103.362 26.492 103.134 26.6633C102.906 26.8345 102.734 27.0629 102.677 27.3483C102.563 27.8049 102.449 28.2616 102.449 28.8324V32.714H101.193V32.5999Z" fill="#313080"/>
<path fill-rule="evenodd" clip-rule="evenodd" d="M115.121 28.547V27.3483H119.46V31.1157C118.775 31.6295 118.09 32.029 117.405 32.3144C116.72 32.5999 115.978 32.714 115.178 32.714C114.151 32.714 113.238 32.4857 112.438 32.0861C111.582 31.6295 111.011 31.0586 110.555 30.2024C110.155 29.4032 109.927 28.4899 109.927 27.4624C109.927 26.492 110.155 25.5216 110.555 24.6654C110.954 23.8092 111.582 23.1813 112.381 22.7246C113.18 22.325 114.094 22.0967 115.121 22.0967C115.863 22.0967 116.548 22.2108 117.176 22.4392C117.804 22.6675 118.261 23.01 118.603 23.4096C118.946 23.8662 119.231 24.38 119.402 25.065L118.147 25.4075C117.975 24.8937 117.804 24.4941 117.576 24.2087C117.347 23.9233 117.005 23.695 116.605 23.4667C116.206 23.2954 115.692 23.1812 115.178 23.1812C114.55 23.1812 114.037 23.2954 113.58 23.4667C113.123 23.6379 112.781 23.9233 112.495 24.2087C112.21 24.4941 111.982 24.8366 111.81 25.2362C111.582 25.8641 111.411 26.5491 111.411 27.2912C111.411 28.2045 111.582 28.9466 111.868 29.5745C112.153 30.2024 112.667 30.6591 113.238 30.9445C113.865 31.2299 114.493 31.4011 115.178 31.4011C115.749 31.4011 116.32 31.287 116.891 31.0586C117.462 30.8303 117.861 30.602 118.147 30.3166V28.3758H115.121V28.547Z" fill="#313080"/>
<path fill-rule="evenodd" clip-rule="evenodd" d="M121.4 32.5999V25.2362H122.542V26.3779C122.827 25.8641 123.113 25.5216 123.341 25.3504C123.57 25.1792 123.855 25.1221 124.14 25.1221C124.54 25.1221 124.997 25.2933 125.453 25.5216L124.997 26.6633C124.654 26.492 124.369 26.3779 124.083 26.3779C123.798 26.3779 123.57 26.435 123.341 26.6062C123.113 26.7775 122.942 27.0058 122.885 27.2912C122.713 27.7479 122.656 28.2045 122.656 28.7754V32.657H121.4V32.5999Z" fill="#313080"/>
<path fill-rule="evenodd" clip-rule="evenodd" d="M125.796 28.8895C125.796 27.5195 126.195 26.492 126.937 25.8641C127.565 25.2933 128.364 25.0649 129.278 25.0649C130.305 25.0649 131.161 25.4074 131.789 26.0924C132.417 26.7774 132.76 27.6907 132.76 28.8324C132.76 29.8028 132.588 30.5449 132.303 31.0586C132.018 31.5723 131.618 32.029 131.047 32.3144C130.476 32.5998 129.906 32.7711 129.221 32.7711C128.193 32.7711 127.337 32.4286 126.652 31.8007C126.138 31.0586 125.796 30.1453 125.796 28.8895ZM127.109 28.8895C127.109 29.8599 127.337 30.5449 127.736 31.0015C128.136 31.4582 128.65 31.6865 129.335 31.6865C129.963 31.6865 130.476 31.4582 130.876 31.0015C131.276 30.5449 131.504 29.8028 131.504 28.8324C131.504 27.9191 131.276 27.2341 130.876 26.7774C130.476 26.3208 129.963 26.0924 129.335 26.0924C128.707 26.0924 128.193 26.3208 127.736 26.7774C127.337 27.2341 127.109 27.9191 127.109 28.8895Z" fill="#313080"/>
<path fill-rule="evenodd" clip-rule="evenodd" d="M139.267 32.6V31.5154C138.696 32.3717 137.897 32.7713 136.87 32.7713C136.413 32.7713 136.013 32.7142 135.614 32.5429C135.214 32.3717 134.929 32.1434 134.758 31.915C134.586 31.6296 134.415 31.3442 134.358 31.0017C134.301 30.7734 134.301 30.3738 134.301 29.8601V25.2935H135.557V29.4034C135.557 30.0313 135.557 30.488 135.614 30.7163C135.671 31.0588 135.842 31.2871 136.128 31.5154C136.413 31.6867 136.698 31.8009 137.098 31.8009C137.498 31.8009 137.84 31.6867 138.183 31.5154C138.525 31.3442 138.753 31.0588 138.868 30.7163C138.982 30.3738 139.096 29.9171 139.096 29.2892V25.3505H140.352V32.7142H139.267V32.6Z" fill="#313080"/>
<path fill-rule="evenodd" clip-rule="evenodd" d="M142.407 35.3968V25.1791H143.548V26.1495C143.834 25.7499 144.119 25.4645 144.462 25.2932C144.804 25.122 145.204 25.0078 145.718 25.0078C146.345 25.0078 146.916 25.1791 147.43 25.5216C147.944 25.864 148.286 26.3207 148.572 26.8915C148.857 27.4624 148.914 28.1473 148.914 28.8323C148.914 29.5744 148.8 30.2594 148.515 30.8873C148.229 31.5152 147.83 31.9719 147.316 32.2573C146.802 32.5998 146.231 32.7139 145.66 32.7139C145.204 32.7139 144.861 32.6569 144.519 32.4285C144.176 32.2573 143.891 32.029 143.663 31.7435V35.3397H142.407M143.548 28.9465C143.548 29.9169 143.777 30.6019 144.119 31.0586C144.519 31.5152 144.975 31.7435 145.546 31.7435C146.117 31.7435 146.631 31.5152 147.03 31.0586C147.43 30.6019 147.658 29.8598 147.658 28.8894C147.658 27.919 147.487 27.234 147.088 26.7774C146.688 26.3207 146.231 26.0924 145.66 26.0924C145.09 26.0924 144.633 26.3207 144.233 26.8345C143.72 27.234 143.548 27.9761 143.548 28.9465Z" fill="#313080"/>
<path fill-rule="evenodd" clip-rule="evenodd" d="M26.358 28.4897C25.8442 29.0034 25.8442 29.8026 26.358 30.3163L31.7808 35.7392C32.2945 36.2529 33.0937 36.2529 33.6074 35.7392L44.5102 24.8935L49.933 19.4706C50.4468 18.9569 50.4468 18.1577 49.933 17.644L44.5102 12.2212L33.6074 1.31841C33.0937 0.80467 32.2945 0.80467 31.7808 1.31841L26.358 6.74125C25.8442 7.25499 25.8442 8.05415 26.358 8.56789L36.3474 18.5573L26.358 28.4897Z" fill="#313080"/>
<path fill-rule="evenodd" clip-rule="evenodd" d="M13.9709 18.5002L23.9604 8.51076C24.4741 7.99702 24.4741 7.19786 23.9604 6.68412L18.5375 1.26128C18.0238 0.747541 17.2246 0.747541 16.7109 1.26128L5.80814 12.164L0.385307 17.5869C-0.128436 18.1006 -0.128436 18.8998 0.385307 19.4135L5.80814 24.8364L16.7109 35.682C17.2246 36.1958 18.0238 36.1958 18.5375 35.682L23.9604 30.2592C24.4741 29.7455 24.4741 28.9463 23.9604 28.4326L13.9709 18.5002Z" fill="#B6B2B2"/>
</svg>
