<svg width="172" height="37" viewBox="0 0 172 37" fill="none" xmlns="http://www.w3.org/2000/svg">
<g clip-path="url(#clip0_1_407)">
<mask id="mask0_1_407" style="mask-type:luminance" maskUnits="userSpaceOnUse" x="0" y="0" width="172" height="37">
<path d="M171.914 0H0.914062V37H171.914V0Z" fill="white"/>
</mask>
<g mask="url(#mask0_1_407)">
<path d="M95.135 3.40527C103.807 3.40527 110.725 10.3626 110.725 19.0227C110.725 27.6828 103.807 34.5913 95.135 34.5913C86.4632 34.5913 79.5452 27.6828 79.5452 19.0227C79.5452 10.3626 86.4632 3.40527 95.135 3.40527ZM95.135 28.9477C100.591 28.9477 105.122 24.4717 105.122 19.0227C105.122 13.5736 100.591 9.00028 95.135 9.00028C89.6785 9.00028 85.1965 13.5249 85.1965 19.0227C85.1965 24.4717 89.6785 28.9477 95.135 28.9477Z" fill="#122023"/>
<path d="M111.358 4.96227C111.115 4.37843 111.456 3.84326 112.089 3.84326H116.523C116.912 3.84326 117.156 4.08652 117.253 4.32978L125.584 22.9636H125.876L134.207 4.32978C134.305 4.13517 134.548 3.84326 134.938 3.84326H139.371C140.005 3.84326 140.346 4.42708 140.102 4.96227L126.656 34.1049C126.51 34.3482 126.315 34.5914 125.925 34.5914H125.487C125.097 34.5914 124.902 34.3968 124.756 34.1049L111.358 4.96227Z" fill="#122023"/>
<path d="M156.276 3.40527C164.948 3.40527 171.866 10.3626 171.866 19.0227C171.866 27.6828 164.948 34.5913 156.276 34.5913C147.604 34.5913 140.687 27.6828 140.687 19.0227C140.735 10.3626 147.604 3.40527 156.276 3.40527ZM156.276 28.9477C161.733 28.9477 166.263 24.4717 166.263 19.0227C166.263 13.5736 161.733 9.00028 156.276 9.00028C150.82 9.00028 146.338 13.5249 146.338 19.0227C146.387 24.4717 150.82 28.9477 156.276 28.9477Z" fill="#122023"/>
<path d="M36.6243 34.2996C36.1859 34.2996 35.7961 33.9591 35.7961 33.4725V17.0281C35.7961 12.0655 32.7268 8.8545 27.9525 8.8545C23.2268 8.8545 20.1577 12.0655 20.1577 17.0281V33.4725C20.1577 33.9104 19.7679 34.2996 19.3295 34.2996H15.2371C14.7986 34.2996 14.4089 33.9591 14.4089 33.4725V17.0281C14.4089 8.27067 19.232 3.4541 28.0013 3.4541C36.7704 3.4541 41.5936 8.31933 41.5936 17.0281V33.4725C41.5936 33.9104 41.2038 34.2996 40.7654 34.2996H36.6243Z" fill="#122023"/>
<path d="M69.8501 34.2996C69.4117 34.2996 69.0219 33.9591 69.0219 33.4725V17.0281C69.0219 12.0655 65.9527 8.8545 61.1783 8.8545C56.4527 8.8545 53.3835 12.0655 53.3835 17.0281V33.4725C53.3835 33.9104 52.9937 34.2996 52.5553 34.2996H48.463C48.0245 34.2996 47.6348 33.9591 47.6348 33.4725V17.0281C47.6348 8.27067 52.4578 3.4541 61.2271 3.4541C69.9963 3.4541 74.8194 8.27067 74.8194 17.0281V33.4725C74.8194 33.9104 74.4296 34.2996 73.9912 34.2996H69.8501Z" fill="#122023"/>
<path d="M4.76278 7.63822C6.85765 7.63822 8.61149 5.9354 8.61149 3.7947C8.61149 1.70265 6.90637 -0.0488281 4.76278 -0.0488281C2.61919 -0.000175908 0.914062 1.70265 0.914062 3.84335C0.914062 5.9354 2.61919 7.63822 4.76278 7.63822Z" fill="#122023"/>
<path d="M1.88818 11.6762C1.88818 11.2384 2.27793 10.8491 2.71639 10.8491H6.75998C7.19844 10.8491 7.58818 11.2384 7.58818 11.6762V33.4724C7.58818 33.9103 7.19844 34.2994 6.75998 34.2994H2.71639C2.27793 34.2994 1.88818 33.9103 1.88818 33.4724V11.6762Z" fill="#122023"/>
</g>
</g>
<defs>
<clipPath id="clip0_1_407">
<rect width="171" height="37" fill="white" transform="translate(0.914062)"/>
</clipPath>
</defs>
</svg>
