<svg width="81" height="63" viewBox="0 0 81 63" fill="none" xmlns="http://www.w3.org/2000/svg">
<g clip-path="url(#clip0_1_419)">
<path d="M24.1965 10.3831C24.1965 7.24093 24.1965 4.10117 24.1965 0.958979C24.1965 0.724779 24.2063 0.488138 24.2184 0.253937C24.2257 0.127079 24.3425 0.00265957 24.4665 0.00265957C24.9773 -0.00221961 25.4881 0.000219978 25.9989 0.00509916C26.0962 0.00509916 26.2008 0.114881 26.2154 0.212464C26.2275 0.295411 26.2446 0.380796 26.247 0.466182C26.2519 0.680866 26.2519 0.89311 26.2519 1.10779C26.2519 6.02357 26.2519 10.9369 26.2519 15.8527C26.2519 16.0674 26.2519 16.2796 26.2567 16.4943C26.2592 16.5797 26.2762 16.6626 26.2884 16.748C26.2981 16.8163 26.4124 16.8846 26.4878 16.8749C26.5097 16.8724 26.5316 16.8773 26.551 16.87C27.1591 16.6382 27.8061 16.6553 28.4386 16.5724C28.6283 16.548 28.8204 16.5577 29.0126 16.5626C29.7812 16.587 30.5401 16.6968 31.2795 16.9188C31.8317 17.0847 32.3595 17.3238 32.8533 17.6165C33.6268 18.0776 34.3297 18.6411 34.9256 19.312C35.378 19.8219 35.7697 20.3806 36.0834 20.9953C36.4264 21.6687 36.6672 22.3737 36.8277 23.1031C36.9469 23.6447 37.0053 24.1985 37.0102 24.7572C37.0126 25.1207 37.0102 25.4842 37.0102 25.8477C37.0102 28.8825 37.0102 31.9174 37.0102 34.9498C37.0102 35.184 37.0004 35.4182 36.9883 35.6548C36.981 35.7768 36.8618 35.8939 36.7353 35.9012C36.2026 35.9305 35.6724 35.95 35.1421 35.8915C35.0448 35.8793 34.9378 35.7768 34.9256 35.6817C34.9135 35.5963 34.9013 35.5109 34.9013 35.428C34.8964 35.2133 34.8964 35.001 34.8964 34.7863C34.8964 31.6881 34.8964 28.5898 34.8964 25.4915C34.8964 24.6767 34.7943 23.8765 34.6021 23.0812C34.4805 22.5738 34.264 22.1151 34.0111 21.6687C33.6389 21.01 33.133 20.4611 32.5371 20C32.0798 19.6487 31.5982 19.3315 31.0655 19.1047C30.8709 19.0217 30.669 18.951 30.4623 18.9022C29.7934 18.746 29.1147 18.707 28.4313 18.7241C28.4094 18.7241 28.3875 18.7265 28.368 18.7265C27.6894 18.6997 27.0667 18.9095 26.4562 19.1705C26.3005 19.2364 26.1521 19.3218 25.9965 19.395C25.7435 19.5121 25.5197 19.6731 25.3178 19.8683C25.0868 20.0903 24.8484 20.3025 24.6076 20.5147C24.5444 20.5709 24.4665 20.6074 24.396 20.6489C24.3498 20.6758 24.2525 20.627 24.2427 20.5733C24.2306 20.5099 24.2111 20.4489 24.2111 20.3854C24.2063 20.1927 24.2063 20 24.2063 19.8097C24.1965 16.6651 24.1965 13.5229 24.1965 10.3831Z" fill="#0000F6"/>
<path d="M33.4078 29.8926C33.4078 31.5808 33.4078 33.2665 33.4078 34.9547C33.4078 35.1475 33.4078 35.3402 33.3981 35.5305C33.3859 35.8013 33.2813 35.9037 32.9919 35.9086C32.5662 35.9159 32.1405 35.9159 31.7149 35.9062C31.4643 35.9013 31.3573 35.7964 31.3476 35.5597C31.3379 35.3475 31.3379 35.1328 31.3379 34.9181C31.3379 31.7784 31.3379 28.6386 31.3379 25.4989C31.3379 25.2842 31.3379 25.0719 31.3354 24.8573C31.333 24.5547 31.2722 24.262 31.1822 23.9766C31.0362 23.5179 30.7954 23.1227 30.3965 22.8373C30.2579 22.7373 30.1265 22.6275 29.983 22.5372C29.6717 22.3396 29.3336 22.2201 28.959 22.2249C28.8301 22.2274 28.7036 22.2274 28.5747 22.2249C28.1758 22.2152 27.8231 22.3445 27.4947 22.5592C26.7237 23.0617 26.3272 23.7814 26.2664 24.6914C26.2494 24.9475 26.2542 25.2037 26.2542 25.4598C26.2542 28.6215 26.2542 31.7833 26.2518 34.945C26.2518 35.1792 26.2421 35.4134 26.2275 35.6476C26.2202 35.7695 26.101 35.8891 25.9697 35.8891C25.437 35.894 24.9067 35.894 24.374 35.8891C24.2427 35.8866 24.1284 35.772 24.1211 35.6427C24.1065 35.4304 24.0943 35.2158 24.0943 35.0035C24.0919 33.3153 24.0943 31.6296 24.0943 29.9414C24.0943 28.3825 24.1016 26.8236 24.0895 25.2622C24.087 24.767 24.1308 24.2766 24.233 23.7985C24.4227 22.9056 24.8021 22.1054 25.4953 21.476C25.8116 21.1881 26.1497 20.932 26.5023 20.688C26.6969 20.5538 26.9061 20.4538 27.125 20.3684C27.5458 20.205 27.9763 20.1025 28.4336 20.1123C28.6452 20.1171 28.8593 20.1171 29.0733 20.1098C29.6401 20.0952 30.1679 20.2562 30.6811 20.4709C31.0581 20.627 31.3865 20.8734 31.6881 21.1393C32.087 21.4931 32.4519 21.8785 32.7486 22.3298C33.2083 23.03 33.4248 23.7985 33.4297 24.6279C33.4345 25.333 33.4151 26.038 33.4127 26.7431C33.4054 27.797 33.4078 28.8435 33.4078 29.8926Z" fill="#0000F6"/>
<path d="M44.8617 33.8836C46.5643 33.8836 48.2694 33.8836 49.9721 33.8836C50.6142 33.8836 51.2442 33.8104 51.8693 33.6568C52.4166 33.5226 52.903 33.2689 53.3774 32.981C54.506 32.293 55.2868 31.2977 55.8413 30.1145C56.0043 29.7632 56.0967 29.3875 56.16 29.0093C56.2475 28.4824 56.3083 27.9506 56.2305 27.4138C56.1843 27.0894 56.2573 26.7771 56.3108 26.4624C56.3254 26.3746 56.4008 26.3233 56.4883 26.3014C56.5102 26.2965 56.5297 26.2867 56.5491 26.2867C57.0599 26.2867 57.5707 26.2819 58.0815 26.2892C58.2494 26.2916 58.3539 26.4112 58.3685 26.5746C58.371 26.5966 58.3758 26.6161 58.3758 26.6381C58.3783 26.6795 58.3783 26.7234 58.3783 26.7673C58.3783 27.1089 58.3685 27.4504 58.3758 27.792C58.3977 28.7654 58.2226 29.7095 57.9307 30.6268C57.7702 31.1342 57.5172 31.6099 57.2424 32.0686C56.7291 32.92 56.0481 33.6202 55.2673 34.2276C54.7614 34.6228 54.2335 34.9766 53.6571 35.262C53.3311 35.4255 52.9979 35.5523 52.6452 35.6475C52.0055 35.8231 51.3536 35.9158 50.7018 36.0232C50.5339 36.05 50.3612 36.0451 50.191 36.0451C46.5497 36.0451 42.9085 36.0476 39.2649 36.0451C39.0946 36.0451 38.9243 36.0329 38.7565 36.011C38.6689 35.9988 38.6057 35.9329 38.5789 35.8475C38.5595 35.7865 38.54 35.7231 38.54 35.6621C38.5376 35.1913 38.5352 34.7229 38.5449 34.252C38.5497 34.0227 38.6689 33.9129 38.9122 33.8983C39.1238 33.8861 39.3378 33.8836 39.5519 33.8836C41.3275 33.8836 43.0958 33.8836 44.8617 33.8836Z" fill="#0000F6"/>
<path d="M52.2073 16.3628C53.9757 16.3628 55.744 16.3628 57.5123 16.3628C57.7263 16.3628 57.938 16.3677 58.152 16.3799C58.3223 16.3896 58.4487 16.497 58.4512 16.6531C58.4585 17.1654 58.4585 17.6777 58.4512 18.19C58.4487 18.3511 58.3271 18.4608 58.1593 18.4682C57.9258 18.4804 57.6899 18.4852 57.4563 18.4852C54.0048 18.4852 50.5533 18.4877 47.1018 18.4852C46.4354 18.4852 45.7859 18.5804 45.1438 18.739C44.1879 18.9756 43.3779 19.466 42.6652 20.1344C42.619 20.1783 42.5777 20.2271 42.529 20.2686C41.578 21.1127 41.0769 22.1983 40.8385 23.4278C40.7364 23.9548 40.6853 24.4842 40.7193 25.0209C40.7364 25.2966 40.7266 25.5747 40.7193 25.8528C40.7169 25.9845 40.6075 26.0919 40.4785 26.1114C40.3934 26.1236 40.3107 26.1382 40.2256 26.1382C39.8632 26.1407 39.5007 26.1431 39.1383 26.1382C39.0337 26.1358 38.9267 26.1163 38.8245 26.0919C38.737 26.0699 38.6786 26.0041 38.6567 25.9162C38.6372 25.8333 38.63 25.7479 38.6227 25.6625C38.6032 25.4064 38.5862 25.1502 38.5643 24.8965C38.54 24.6184 38.5375 24.3427 38.5862 24.067C38.5983 24.0036 38.6081 23.9402 38.6081 23.8767C38.6008 23.179 38.8099 22.5228 39.041 21.8811C39.2867 21.1981 39.6005 20.5443 40.0407 19.9563C40.425 19.4416 40.8628 18.9756 41.2934 18.5023C41.3372 18.456 41.3809 18.4096 41.432 18.3706C42.2955 17.7021 43.2052 17.1117 44.2681 16.8019C44.7376 16.6653 45.207 16.5311 45.6959 16.4604C46.0778 16.4043 46.4548 16.3652 46.8391 16.3652C48.6293 16.3652 50.4171 16.3628 52.2073 16.3628Z" fill="#0000F6"/>
<path d="M52.5941 21.9689C50.8915 21.9689 49.1864 21.9738 47.4838 21.9665C47.1165 21.964 46.7614 22.0104 46.4111 22.108C45.3628 22.4007 44.6841 23.0838 44.346 24.1109C44.2512 24.3987 44.2536 24.6988 44.2658 24.9989C44.2755 25.2331 44.2877 25.4673 44.2901 25.7039C44.2901 25.7869 44.2755 25.8747 44.2463 25.9527C44.2244 26.0064 44.1709 26.0552 44.1198 26.0845C44.0663 26.1138 43.9982 26.1308 43.935 26.1308C43.4655 26.1357 42.9985 26.1333 42.5291 26.1333C42.5072 26.1333 42.4877 26.1284 42.4658 26.126C42.2956 26.1064 42.1861 26.0089 42.1691 25.8478C42.0937 25.1648 42.0718 24.4817 42.2275 23.8083C42.3296 23.3692 42.5096 22.9569 42.7164 22.5593C43.091 21.8396 43.2466 21.6469 43.8426 21.1004C44.1442 20.8247 44.4969 20.6174 44.8593 20.4417C45.3384 20.2099 45.8322 20.0075 46.3673 19.9318C46.5789 19.9026 46.7857 19.8684 47.0022 19.8782C47.2795 19.8904 47.5568 19.8879 47.8316 19.8879C51.0691 19.8879 54.3065 19.8879 57.544 19.8904C57.7775 19.8904 58.011 19.9099 58.2421 19.927C58.3369 19.9343 58.4391 20.0489 58.4488 20.1441C58.461 20.2709 58.4707 20.4002 58.4731 20.5271C58.4756 20.8686 58.4756 21.2102 58.4658 21.5517C58.4585 21.8396 58.3564 21.9445 58.0888 21.9567C57.8967 21.9665 57.7045 21.964 57.5148 21.964C55.873 21.9689 54.2336 21.9689 52.5941 21.9689Z" fill="#0000F6"/>
<path d="M14.8051 36.0549C13.0368 36.0549 11.2685 36.0573 9.50016 36.0549C8.72911 36.0549 7.97751 35.9207 7.23321 35.7158C6.54972 35.5279 5.90515 35.2474 5.28733 34.9131C4.72546 34.6082 4.20007 34.2398 3.73549 33.7934C3.28794 33.364 2.87687 32.9053 2.53634 32.3833C2.0669 31.6636 1.68745 30.9073 1.4807 30.0657C1.27152 29.2094 1.1572 28.3458 1.18639 27.4651C1.19612 27.1455 1.19369 26.8259 1.20098 26.5063C1.20342 26.4063 1.31287 26.3063 1.40773 26.2916C1.42962 26.2892 1.44908 26.2794 1.47097 26.2794C2.00366 26.2794 2.53634 26.277 3.0666 26.2819C3.19551 26.2843 3.30497 26.3965 3.31226 26.5331C3.32199 26.7234 3.33659 26.9186 3.31226 27.1089C3.18578 28.0432 3.34388 28.9483 3.64306 29.8217C3.91549 30.6146 4.34115 31.3269 4.92491 31.9441C5.50624 32.5589 6.1946 33.0176 6.94619 33.3859C7.46672 33.6421 8.03589 33.7568 8.60749 33.8226C8.98694 33.8665 9.37368 33.8763 9.75556 33.8763C13.1876 33.8812 16.6172 33.8787 20.0493 33.8812C20.3047 33.8812 20.5576 33.9031 20.813 33.9227C20.9152 33.93 21.0149 34.0373 21.0149 34.1398C21.0198 34.6936 21.0198 35.2498 21.0149 35.8036C21.0149 35.9231 20.886 36.0305 20.7522 36.0378C20.5819 36.05 20.4117 36.0573 20.2414 36.0573C18.8988 36.0597 17.5561 36.0573 16.2134 36.0573C15.7416 36.0549 15.2746 36.0549 14.8051 36.0549Z" fill="#DC0000"/>
<path d="M14.793 16.3262C16.5394 16.3262 18.2859 16.3262 20.0323 16.3262C20.2658 16.3262 20.4993 16.3384 20.7328 16.3554C20.8982 16.3676 21.0004 16.4799 21.0028 16.6555C21.0101 17.1459 21.0077 17.6387 21.0077 18.129C21.0077 18.1705 20.9955 18.212 20.9882 18.2559C20.9712 18.3559 20.8739 18.4559 20.7766 18.4681C20.6915 18.4779 20.6063 18.4901 20.5236 18.4901C20.3315 18.495 20.1393 18.4925 19.9496 18.4925C16.5638 18.4925 13.1779 18.4974 9.79209 18.4876C9.25698 18.4852 8.72673 18.5267 8.2062 18.6316C7.83405 18.7072 7.46434 18.8316 7.11408 18.9804C6.40383 19.283 5.76899 19.7148 5.21684 20.2588C5.01982 20.454 4.82524 20.6516 4.64281 20.8589C4.14175 21.4322 3.82068 22.0982 3.61879 22.8301C3.51177 23.2205 3.39988 23.6108 3.37069 24.0182C3.36339 24.1011 3.33907 24.1865 3.31718 24.267C3.28313 24.4012 3.17854 24.5012 3.04719 24.5012C2.5145 24.5037 1.98425 24.5012 1.45157 24.4964C1.35184 24.4964 1.25211 24.3793 1.25941 24.2768C1.2886 23.8084 1.28373 23.3376 1.40535 22.8789C1.47103 22.6325 1.51967 22.3788 1.58778 22.1324C1.63156 21.9689 1.68021 21.8031 1.75075 21.6469C2.08398 20.9053 2.48045 20.1978 2.94989 19.5342C3.02286 19.4293 3.11043 19.3342 3.19556 19.2415C4.03959 18.3169 5.02712 17.585 6.14357 17.0288C6.21897 16.9897 6.29438 16.9507 6.37464 16.9214C7.40839 16.5701 8.4616 16.3213 9.56102 16.3213C11.3002 16.3262 13.0466 16.3262 14.793 16.3262Z" fill="#DC0000"/>
<path d="M14.9948 32.4905C13.4406 32.4905 11.8863 32.4905 10.332 32.4905C10.1399 32.4905 9.94772 32.4759 9.75799 32.4978C9.36882 32.5442 8.9918 32.4856 8.62209 32.3881C7.9386 32.21 7.28673 31.9514 6.70783 31.5342C6.56918 31.4342 6.44027 31.322 6.32108 31.2024C5.92218 30.8121 5.60111 30.3608 5.31652 29.8826C5.08545 29.4923 4.97356 29.058 4.85924 28.6238C4.82275 28.4798 4.80086 28.331 4.78141 28.1822C4.7133 27.6504 4.72789 27.1161 4.74006 26.5843C4.74492 26.4086 4.83005 26.2818 5.00275 26.2793C5.53543 26.272 6.06569 26.2744 6.59837 26.2818C6.72729 26.2842 6.82701 26.4013 6.83917 26.5379C6.8489 26.6648 6.85377 26.7941 6.85863 26.9209C6.8635 27.1137 6.8562 27.3064 6.86593 27.4967C6.89755 28.2456 7.12133 28.9165 7.64671 29.4752C7.87049 29.7143 8.11372 29.9168 8.40561 30.0485C8.83613 30.2388 9.28368 30.3778 9.76043 30.39C9.97204 30.3949 10.1861 30.3949 10.4001 30.3949C13.6157 30.3949 16.8288 30.3949 20.0444 30.3949C20.2779 30.3949 20.5114 30.4022 20.7449 30.4169C20.9079 30.4266 21.0222 30.5437 21.0246 30.7096C21.0295 31.2 21.0271 31.6903 21.0246 32.1807C21.0246 32.2026 21.0173 32.2222 21.0125 32.2441C20.9979 32.349 20.9055 32.4515 20.8057 32.4588C20.5941 32.4734 20.3825 32.4881 20.1685 32.4881C18.8063 32.4905 17.4442 32.4905 16.0797 32.4905C15.7173 32.4905 15.3548 32.4905 14.9948 32.4905Z" fill="#DC0000"/>
<path d="M66.276 33.8835C67.9811 33.8835 69.6862 33.8835 71.3913 33.8835C72.0334 33.8835 72.6634 33.803 73.2885 33.6517C73.8382 33.52 74.3198 33.2517 74.7941 32.9662C75.2903 32.6686 75.7355 32.3075 76.1052 31.8538C76.4554 31.422 76.796 30.9901 77.0514 30.4876C77.4357 29.7289 77.6449 28.936 77.6376 28.0846C77.6351 27.8284 77.6157 27.5723 77.6254 27.3161C77.6327 27.0405 77.6594 26.7623 77.6862 26.4867C77.6959 26.3964 77.764 26.3378 77.8516 26.311C77.893 26.2988 77.9343 26.2842 77.9757 26.2842C78.4864 26.2817 78.9972 26.2793 79.508 26.2866C79.671 26.2891 79.7732 26.4135 79.778 26.5842C79.7805 26.6477 79.7878 26.7135 79.778 26.777C79.7294 27.0746 79.7415 27.3722 79.7756 27.6723C79.7853 27.7577 79.7902 27.8431 79.7878 27.9285C79.7415 28.8506 79.6296 29.763 79.3183 30.634C79.1091 31.2146 78.8367 31.7708 78.4937 32.2929C77.9708 33.0906 77.2873 33.7225 76.5527 34.3129C75.5822 35.0911 74.4609 35.5449 73.2715 35.8254C72.6512 35.9718 72.0164 36.0523 71.3718 36.0499C67.8984 36.0425 64.425 36.045 60.9516 36.045C60.7595 36.045 60.5673 36.045 60.3776 36.0377C60.0663 36.023 59.9811 35.9279 59.9641 35.5961C59.9641 35.5741 59.9617 35.5522 59.9617 35.5327C59.9617 35.1277 59.9568 34.7203 59.9665 34.3153C59.9738 33.9982 60.0687 33.9103 60.3971 33.8933C60.6087 33.8835 60.8227 33.8835 61.0368 33.8835C62.7832 33.8835 64.5296 33.8835 66.276 33.8835Z" fill="#0000F6"/>
<path d="M73.5949 16.3623C75.3195 16.3623 77.044 16.3623 78.7685 16.3623C78.9607 16.3623 79.1528 16.3623 79.3426 16.3648C79.7488 16.3745 79.8461 16.4453 79.8485 16.8429C79.8509 17.2918 79.8461 17.7383 79.8339 18.1872C79.829 18.3531 79.7147 18.458 79.5444 18.4677C79.3109 18.4799 79.0774 18.4848 78.8415 18.4848C75.3924 18.4848 71.9434 18.4872 68.4943 18.4823C67.8302 18.4823 67.1808 18.5775 66.5362 18.7336C65.5803 18.9654 64.7704 19.4606 64.0577 20.1242C63.9652 20.212 63.8777 20.3072 63.7853 20.395C63.0774 21.0781 62.6153 21.9027 62.3623 22.8541C62.2407 23.3103 62.1702 23.7738 62.1021 24.2373C62.0558 24.5569 62.0923 24.8765 62.1191 25.1961C62.1337 25.3864 62.1483 25.5791 62.1458 25.7694C62.1434 25.9768 62.0315 26.111 61.8442 26.1134C61.3334 26.1231 60.8226 26.1231 60.3143 26.1158C60.1221 26.1134 60.0175 25.989 60.0078 25.7767C59.9884 25.2864 59.964 24.796 59.9689 24.3032C59.9762 23.2396 60.251 22.2393 60.6743 21.2684C60.9589 20.617 61.3286 20.0217 61.7615 19.4655C62.1021 19.0264 62.4961 18.6312 62.9291 18.2847C63.4107 17.8993 63.9288 17.5626 64.4809 17.2772C65.0939 16.96 65.736 16.738 66.3976 16.5819C66.9765 16.4453 67.5651 16.3501 68.1659 16.3526C69.9756 16.3697 71.7853 16.3623 73.5949 16.3623Z" fill="#0000F6"/>
<path d="M65.9526 32.4807C64.2499 32.4807 62.5473 32.4807 60.8446 32.4783C60.633 32.4783 60.419 32.4637 60.2073 32.449C60.1028 32.4417 60.0079 32.3441 59.9909 32.2441C59.986 32.2222 59.9787 32.2026 59.9787 32.1807C59.9763 31.6903 59.9714 31.2 59.9787 30.7096C59.9811 30.5486 60.1003 30.4315 60.2657 30.4217C60.4992 30.4071 60.7327 30.3998 60.9662 30.3998C64.1794 30.3973 67.3949 30.3998 70.6081 30.3998C70.8221 30.3998 71.0337 30.4071 71.2454 30.3925C71.8048 30.3559 72.3326 30.2046 72.8215 29.9216C73.0088 29.8143 73.1693 29.6777 73.308 29.5118C73.595 29.1678 73.8723 28.8189 73.9915 28.37C74.0742 28.0553 74.0961 27.7382 74.0815 27.4186C74.0669 27.1185 74.079 26.8209 74.1301 26.5257C74.1544 26.3891 74.2542 26.2866 74.388 26.2842C74.8987 26.2769 75.4095 26.272 75.9179 26.2769C76.1246 26.2793 76.239 26.394 76.2414 26.594C76.2463 26.977 76.2584 27.3625 76.2317 27.7455C76.2073 28.0846 76.1563 28.4261 76.0784 28.7579C75.8401 29.7923 75.249 30.6169 74.4998 31.339C74.4244 31.4122 74.332 31.4708 74.2444 31.5293C73.7555 31.8391 73.2423 32.0953 72.695 32.2758C72.228 32.4295 71.7537 32.5369 71.2551 32.4881C71.0435 32.4685 70.8294 32.4783 70.6178 32.4783C69.0587 32.4807 67.5044 32.4807 65.9526 32.4807Z" fill="#0000F6"/>
<mask id="mask0_1_419" style="mask-type:luminance" maskUnits="userSpaceOnUse" x="33" y="55" width="1" height="7">
<path d="M33.2061 61.3317H33.9017V57.2186H33.2061V61.3317ZM33.2061 56.455H33.9017V55.6523H33.2061V56.455Z" fill="white"/>
</mask>
<g mask="url(#mask0_1_419)">
<path d="M33.9017 55.6538H33.2061V61.3307H33.9017V55.6538Z" fill="url(#paint0_linear_1_419)"/>
</g>
<mask id="mask1_1_419" style="mask-type:luminance" maskUnits="userSpaceOnUse" x="1" y="55" width="5" height="7">
<path d="M1.65356 61.3317V55.6548H5.74721V56.3232H2.40273V58.0627H5.53316V58.7287H2.40273V60.6608H5.87856V61.3317H1.65356Z" fill="white"/>
</mask>
<g mask="url(#mask1_1_419)">
<path d="M5.87856 55.6548H1.65356V61.3317H5.87856V55.6548Z" fill="url(#paint1_linear_1_419)"/>
</g>
<mask id="mask2_1_419" style="mask-type:luminance" maskUnits="userSpaceOnUse" x="6" y="57" width="5" height="5">
<path d="M7.44982 57.8042V57.2187H6.82471V61.3318H7.52036V59.085C7.52036 58.558 7.62738 58.2018 7.84386 58.0115C8.05791 57.8237 8.31331 57.7286 8.61005 57.7286C8.79491 57.7286 8.95788 57.77 9.09409 57.8554C9.23273 57.9384 9.3276 58.0506 9.38111 58.1921C9.43462 58.3336 9.46137 58.5458 9.46137 58.8288V61.3294H10.157V58.7995C10.157 58.4775 10.1449 58.2506 10.1181 58.1213C10.0768 57.9237 10.0038 57.7505 9.90163 57.6066C9.79947 57.4626 9.6438 57.3455 9.43705 57.2553C9.2303 57.165 9.00166 57.1211 8.75599 57.1211C8.18439 57.126 7.75143 57.3529 7.44982 57.8042Z" fill="white"/>
</mask>
<g mask="url(#mask2_1_419)">
<path d="M10.157 57.126H6.82471V61.3318H10.157V57.126Z" fill="url(#paint2_linear_1_419)"/>
</g>
<mask id="mask3_1_419" style="mask-type:luminance" maskUnits="userSpaceOnUse" x="10" y="57" width="5" height="7">
<path d="M11.991 60.3829C11.777 60.134 11.67 59.7413 11.67 59.2021C11.67 58.7069 11.777 58.3336 11.9935 58.0799C12.2099 57.8286 12.4726 57.7018 12.7815 57.7018C13.0953 57.7018 13.3629 57.8286 13.5866 58.0848C13.8104 58.3409 13.9199 58.7191 13.9199 59.2241C13.9199 59.751 13.8129 60.1365 13.5964 60.3829C13.3799 60.6293 13.1123 60.7537 12.7937 60.7537C12.4702 60.7537 12.2026 60.6317 11.991 60.3829ZM11.7843 57.3968C11.5143 57.5774 11.31 57.8335 11.1689 58.1653C11.0278 58.4971 10.9573 58.8581 10.9573 59.2509C10.9573 59.8218 11.1129 60.3097 11.4194 60.7195C11.7283 61.127 12.1637 61.3319 12.728 61.3319C13.1804 61.3319 13.5599 61.1514 13.8639 60.7927C13.8664 61.2465 13.8493 61.5441 13.8129 61.6881C13.752 61.9198 13.6329 62.1004 13.4577 62.2297C13.2826 62.359 13.0345 62.4224 12.7134 62.4224C12.4143 62.4224 12.1783 62.359 12.0056 62.2297C11.8767 62.1345 11.7989 61.9808 11.7697 61.7734L11.0935 61.6734C11.0838 62.1174 11.2297 62.4492 11.5289 62.6712C11.8305 62.8908 12.2245 63.003 12.7134 63.003C13.1245 63.003 13.4723 62.9249 13.7545 62.7712C14.0366 62.6151 14.2434 62.4053 14.3723 62.1369C14.5012 61.8686 14.5669 61.4148 14.5669 60.7757V57.2212H13.9272V57.7164C13.6134 57.3236 13.2145 57.1285 12.7305 57.1285C12.368 57.126 12.0518 57.2163 11.7843 57.3968Z" fill="white"/>
</mask>
<g mask="url(#mask3_1_419)">
<path d="M14.57 57.127H10.9556V63.0015H14.57V57.127Z" fill="url(#paint3_linear_1_419)"/>
</g>
<mask id="mask4_1_419" style="mask-type:luminance" maskUnits="userSpaceOnUse" x="15" y="55" width="2" height="7">
<path d="M15.6226 61.3317H16.3182V57.2186H15.6226V61.3317ZM15.6226 56.455H16.3182V55.6523H15.6226V56.455Z" fill="white"/>
</mask>
<g mask="url(#mask4_1_419)">
<path d="M16.3182 55.6538H15.6226V61.3307H16.3182V55.6538Z" fill="url(#paint4_linear_1_419)"/>
</g>
<mask id="mask5_1_419" style="mask-type:luminance" maskUnits="userSpaceOnUse" x="17" y="57" width="4" height="5">
<path d="M18.0013 57.8042V57.2187H17.3762V61.3318H18.0719V59.085C18.0719 58.558 18.1789 58.2018 18.3954 58.0115C18.6094 57.8237 18.8648 57.7286 19.1616 57.7286C19.3464 57.7286 19.5094 57.77 19.6456 57.8554C19.7842 57.9384 19.8791 58.0506 19.9326 58.1921C19.9861 58.3336 20.0129 58.5458 20.0129 58.8288V61.3294H20.7085V58.7995C20.7085 58.4775 20.6964 58.2506 20.6696 58.1213C20.6283 57.9237 20.5553 57.7505 20.4531 57.6066C20.351 57.4626 20.1953 57.3455 19.9886 57.2553C19.7818 57.165 19.5532 57.1211 19.3075 57.1211C18.7383 57.126 18.3029 57.3529 18.0013 57.8042Z" fill="white"/>
</mask>
<g mask="url(#mask5_1_419)">
<path d="M20.7085 57.126H17.3762V61.3318H20.7085V57.126Z" fill="url(#paint5_linear_1_419)"/>
</g>
<mask id="mask6_1_419" style="mask-type:luminance" maskUnits="userSpaceOnUse" x="21" y="57" width="5" height="5">
<path d="M22.6594 58.0213C22.8759 57.8066 23.1459 57.6993 23.4645 57.6993C23.8172 57.6993 24.1042 57.8335 24.3256 58.1018C24.4691 58.275 24.5567 58.5336 24.5883 58.88H22.2994C22.3213 58.5214 22.4429 58.2336 22.6594 58.0213ZM22.0757 57.6993C21.7205 58.0823 21.543 58.619 21.543 59.3094C21.543 59.9779 21.7181 60.4975 22.0708 60.8683C22.421 61.2391 22.8978 61.4245 23.4986 61.4245C23.9753 61.4245 24.3669 61.3074 24.6734 61.0757C24.9799 60.8439 25.1891 60.517 25.3034 60.095L24.5858 60.0071C24.4812 60.3023 24.3377 60.5146 24.1577 60.6487C23.9778 60.7829 23.7613 60.8512 23.5059 60.8512C23.1629 60.8512 22.8783 60.7317 22.6497 60.4902C22.421 60.2511 22.2921 59.9047 22.2678 59.4533H25.3253C25.3277 59.3704 25.3301 59.3094 25.3301 59.2679C25.3301 58.5897 25.1574 58.0628 24.8096 57.6871C24.4618 57.3138 24.0142 57.126 23.467 57.126C22.8905 57.126 22.4308 57.3163 22.0757 57.6993Z" fill="white"/>
</mask>
<g mask="url(#mask6_1_419)">
<path d="M25.3228 57.126H21.543V61.4245H25.3228V57.126Z" fill="url(#paint6_linear_1_419)"/>
</g>
<mask id="mask7_1_419" style="mask-type:luminance" maskUnits="userSpaceOnUse" x="25" y="57" width="5" height="5">
<path d="M27.0571 58.0213C27.2736 57.8066 27.5436 57.6993 27.8622 57.6993C28.2149 57.6993 28.5019 57.8335 28.7233 58.1018C28.8668 58.275 28.9544 58.5336 28.986 58.88H26.6971C26.719 58.5214 26.8406 58.2336 27.0571 58.0213ZM26.4734 57.6993C26.1182 58.0823 25.9407 58.619 25.9407 59.3094C25.9407 59.9779 26.1158 60.4975 26.4685 60.8683C26.8188 61.2391 27.2955 61.4245 27.8963 61.4245C28.373 61.4245 28.7646 61.3074 29.0711 61.0757C29.3776 60.8439 29.5868 60.517 29.7011 60.095L28.9835 60.0071C28.879 60.3023 28.7354 60.5146 28.5555 60.6487C28.3755 60.7829 28.1565 60.8512 27.9036 60.8512C27.5606 60.8512 27.276 60.7317 27.0474 60.4902C26.8188 60.2511 26.6898 59.9047 26.6655 59.4533H29.723C29.7254 59.3704 29.7278 59.3094 29.7278 59.2679C29.7278 58.5897 29.5551 58.0628 29.2073 57.6871C28.8595 57.3138 28.4119 57.126 27.8647 57.126C27.2882 57.126 26.8285 57.3163 26.4734 57.6993Z" fill="white"/>
</mask>
<g mask="url(#mask7_1_419)">
<path d="M29.7205 57.126H25.9407V61.4245H29.7205V57.126Z" fill="url(#paint7_linear_1_419)"/>
</g>
<mask id="mask8_1_419" style="mask-type:luminance" maskUnits="userSpaceOnUse" x="30" y="57" width="3" height="5">
<path d="M31.6298 57.2646C31.4936 57.3573 31.3477 57.5501 31.1871 57.8428V57.2183H30.562V61.3314H31.2577V59.1773C31.2577 58.8821 31.2966 58.6113 31.3744 58.3649C31.4255 58.2014 31.5131 58.0746 31.6322 57.9843C31.7539 57.8916 31.8901 57.8477 32.0409 57.8477C32.2111 57.8477 32.3814 57.8989 32.5517 57.999L32.79 57.3525C32.5492 57.2036 32.3109 57.128 32.0749 57.128C31.912 57.1256 31.7636 57.1719 31.6298 57.2646Z" fill="white"/>
</mask>
<g mask="url(#mask8_1_419)">
<path d="M32.79 57.126H30.562V61.3318H32.79V57.126Z" fill="url(#paint8_linear_1_419)"/>
</g>
<mask id="mask9_1_419" style="mask-type:luminance" maskUnits="userSpaceOnUse" x="34" y="57" width="5" height="5">
<path d="M35.5848 57.8042V57.2187H34.9597V61.3318H35.6554V59.085C35.6554 58.558 35.7624 58.2018 35.9789 58.0115C36.1929 57.8237 36.4483 57.7286 36.7451 57.7286C36.9299 57.7286 37.0929 57.77 37.2291 57.8554C37.3677 57.9384 37.4626 58.0506 37.5161 58.1921C37.5696 58.3336 37.5964 58.5458 37.5964 58.8288V61.3294H38.292V58.7995C38.292 58.4775 38.2799 58.2506 38.2531 58.1213C38.2118 57.9237 38.1388 57.7505 38.0366 57.6066C37.9345 57.4626 37.7788 57.3455 37.5721 57.2553C37.3653 57.165 37.1367 57.1211 36.891 57.1211C36.3218 57.126 35.8864 57.3529 35.5848 57.8042Z" fill="white"/>
</mask>
<g mask="url(#mask9_1_419)">
<path d="M38.292 57.126H34.9597V61.3318H38.292V57.126Z" fill="url(#paint9_linear_1_419)"/>
</g>
<mask id="mask10_1_419" style="mask-type:luminance" maskUnits="userSpaceOnUse" x="39" y="57" width="4" height="7">
<path d="M40.126 60.3829C39.912 60.134 39.805 59.7413 39.805 59.2021C39.805 58.7069 39.912 58.3336 40.1285 58.0799C40.3449 57.8286 40.6076 57.7018 40.9165 57.7018C41.2303 57.7018 41.4979 57.8286 41.7217 58.0848C41.9454 58.3409 42.0549 58.7191 42.0549 59.2241C42.0549 59.751 41.9479 60.1365 41.7314 60.3829C41.5149 60.6293 41.2473 60.7537 40.9287 60.7537C40.6076 60.7537 40.3401 60.6317 40.126 60.3829ZM39.9193 57.3968C39.6493 57.5774 39.445 57.8335 39.3039 58.1653C39.1628 58.4971 39.0923 58.8581 39.0923 59.2509C39.0923 59.8218 39.2455 60.3097 39.5544 60.7195C39.8633 61.127 40.2987 61.3319 40.863 61.3319C41.3155 61.3319 41.6949 61.1514 41.9989 60.7927C42.0014 61.2465 41.9843 61.5441 41.9479 61.6881C41.8871 61.9198 41.7679 62.1004 41.5927 62.2297C41.4176 62.359 41.1695 62.4224 40.8484 62.4224C40.5493 62.4224 40.3133 62.359 40.1406 62.2297C40.0117 62.1345 39.9339 61.9808 39.9047 61.7734L39.2285 61.6734C39.2188 62.1174 39.3647 62.4492 39.6639 62.6712C39.9655 62.8908 40.3595 63.003 40.8484 63.003C41.2595 63.003 41.6073 62.9249 41.8895 62.7712C42.1716 62.6151 42.3784 62.4053 42.5073 62.1369C42.6362 61.8686 42.7019 61.4148 42.7019 60.7757V57.2212H42.0598V57.7164C41.746 57.3236 41.3471 57.1285 40.863 57.1285C40.503 57.126 40.1893 57.2163 39.9193 57.3968Z" fill="white"/>
</mask>
<g mask="url(#mask10_1_419)">
<path d="M42.705 57.127H39.0906V63.0015H42.705V57.127Z" fill="url(#paint10_linear_1_419)"/>
</g>
<mask id="mask11_1_419" style="mask-type:luminance" maskUnits="userSpaceOnUse" x="45" y="55" width="6" height="7">
<path d="M46.7931 60.4412C46.6106 60.1924 46.5182 59.9557 46.5182 59.724C46.5182 59.5361 46.5839 59.3458 46.7152 59.1531C46.8466 58.9604 47.0995 58.753 47.4766 58.5286L48.7511 60.1118C48.6173 60.3192 48.4398 60.4875 48.216 60.6168C47.9922 60.7461 47.7782 60.812 47.569 60.812C47.2358 60.812 46.9755 60.6876 46.7931 60.4412ZM47.4644 57.3429C47.3744 57.2356 47.3063 57.1307 47.2625 57.0355C47.2163 56.9379 47.1944 56.8452 47.1944 56.7598C47.1944 56.5842 47.2576 56.4354 47.3817 56.3134C47.5057 56.1914 47.6639 56.1304 47.8511 56.1304C48.0336 56.1304 48.1868 56.1914 48.3084 56.3134C48.43 56.4354 48.4909 56.594 48.4909 56.7867C48.4909 56.9501 48.4471 57.099 48.3571 57.2331C48.2671 57.3673 48.0725 57.5234 47.7733 57.7015L47.4644 57.3429ZM46.8806 55.9353C46.6131 56.1865 46.4817 56.4842 46.4817 56.8233C46.4817 56.994 46.5231 57.1697 46.6082 57.3527C46.6933 57.5356 46.8636 57.7747 47.119 58.0699C46.6715 58.2846 46.3334 58.5334 46.1096 58.8164C45.8834 59.0994 45.7715 59.4166 45.7715 59.7679C45.7715 60.1631 45.9101 60.5217 46.185 60.8413C46.5255 61.2341 46.9852 61.4292 47.5641 61.4292C47.8779 61.4292 48.1698 61.3658 48.4398 61.2365C48.7098 61.1096 48.9603 60.9169 49.1889 60.6608C49.4881 61.0145 49.7776 61.2829 50.0573 61.4634L50.5243 60.9096C50.1959 60.6754 49.8992 60.3851 49.6389 60.0387C49.8505 59.7191 50.0184 59.3117 50.14 58.814L49.4176 58.6603C49.3543 58.9604 49.2619 59.2238 49.1476 59.4507L48.1333 58.1529C48.846 57.7698 49.2035 57.3088 49.2035 56.7696C49.2035 56.4354 49.0795 56.1524 48.8338 55.9133C48.5881 55.6767 48.2719 55.5571 47.8852 55.5571C47.4814 55.5571 47.1482 55.684 46.8806 55.9353Z" fill="white"/>
</mask>
<g mask="url(#mask11_1_419)">
<path d="M50.5243 55.5571H45.7715V61.4634H50.5243V55.5571Z" fill="url(#paint11_linear_1_419)"/>
</g>
<mask id="mask12_1_419" style="mask-type:luminance" maskUnits="userSpaceOnUse" x="53" y="55" width="5" height="7">
<path d="M54.2313 58.7092H55.5399C55.8999 58.7092 56.1772 58.7409 56.3669 58.8043C56.5591 58.8677 56.7075 58.9775 56.8169 59.1336C56.924 59.2898 56.9799 59.4727 56.9799 59.685C56.9799 59.8655 56.9434 60.0241 56.868 60.1631C56.7926 60.3022 56.6977 60.4071 56.5834 60.4779C56.4667 60.551 56.3232 60.6023 56.1505 60.634C56.0532 60.6511 55.8829 60.6608 55.6397 60.6608H54.2313V58.7092ZM54.2313 56.3232H55.3624C55.7686 56.3232 56.0556 56.3501 56.2234 56.4037C56.3913 56.4574 56.5202 56.555 56.6102 56.6989C56.7002 56.8429 56.7464 57.0088 56.7464 57.1966C56.7464 57.3967 56.6977 57.5601 56.6005 57.6918C56.5032 57.8236 56.3596 57.9187 56.1699 57.9748C56.0264 58.0187 55.788 58.0407 55.4548 58.0407H54.2313V56.3232ZM53.4822 55.6548V61.3317H55.6397C55.9997 61.3317 56.3037 61.3 56.5518 61.2366C56.7999 61.1731 57.0067 61.0804 57.1721 60.956C57.3375 60.8316 57.4761 60.6559 57.588 60.4266C57.6999 60.1973 57.7558 59.9509 57.7558 59.685C57.7558 59.3556 57.6634 59.0678 57.4785 58.8263C57.2937 58.5847 57.031 58.4115 56.688 58.3115C56.9531 58.1798 57.1502 58.0065 57.2815 57.7919C57.4129 57.5772 57.4785 57.3503 57.4785 57.1063C57.4785 56.8453 57.4056 56.5965 57.2572 56.3574C57.1088 56.1183 56.9045 55.9427 56.6442 55.828C56.384 55.7133 56.0361 55.6548 55.6032 55.6548H53.4822V55.6548Z" fill="white"/>
</mask>
<g mask="url(#mask12_1_419)">
<path d="M57.7558 55.6548H53.4822V61.3317H57.7558V55.6548Z" fill="url(#paint12_linear_1_419)"/>
</g>
<mask id="mask13_1_419" style="mask-type:luminance" maskUnits="userSpaceOnUse" x="58" y="57" width="5" height="5">
<path d="M59.5849 58.0213C59.8014 57.8066 60.0714 57.6993 60.3901 57.6993C60.7427 57.6993 61.0298 57.8335 61.2511 58.1018C61.3946 58.275 61.4822 58.5336 61.5138 58.88H59.225C59.2468 58.5214 59.366 58.2336 59.5849 58.0213ZM58.9987 57.6993C58.6436 58.0823 58.4661 58.619 58.4661 59.3094C58.4661 59.9779 58.6412 60.4975 58.9939 60.8683C59.3441 61.2391 59.8209 61.4245 60.4217 61.4245C60.8984 61.4245 61.29 61.3074 61.5965 61.0757C61.903 60.8439 62.1122 60.517 62.2265 60.095L61.5089 60.0071C61.4043 60.3023 61.2608 60.5146 61.0808 60.6487C60.9008 60.7829 60.6844 60.8512 60.429 60.8512C60.086 60.8512 59.8014 60.7317 59.5728 60.4902C59.3441 60.2511 59.2152 59.9047 59.1909 59.4533H62.2484C62.2508 59.3704 62.2532 59.3094 62.2532 59.2679C62.2532 58.5897 62.0805 58.0628 61.7327 57.6871C61.3849 57.3138 60.9373 57.126 60.3901 57.126C59.8136 57.126 59.3539 57.3163 58.9987 57.6993Z" fill="white"/>
</mask>
<g mask="url(#mask13_1_419)">
<path d="M62.2459 57.126H58.4661V61.4245H62.2459V57.126Z" fill="url(#paint13_linear_1_419)"/>
</g>
<mask id="mask14_1_419" style="mask-type:luminance" maskUnits="userSpaceOnUse" x="62" y="57" width="5" height="7">
<path d="M65.763 57.2183L64.8874 59.6164C64.7755 59.9213 64.6806 60.2336 64.6028 60.5532C64.5152 60.219 64.4155 59.9018 64.306 59.6017L63.4523 57.2207H62.7031L64.2598 61.3412C64.2306 61.4168 64.2112 61.4729 64.199 61.5119C64.1017 61.7876 64.0312 61.9608 63.9874 62.0316C63.929 62.1243 63.8512 62.1975 63.7588 62.2487C63.6663 62.2999 63.5423 62.3268 63.389 62.3268C63.2747 62.3268 63.1434 62.3072 62.9926 62.2658L63.0704 62.9196C63.2358 62.9757 63.3842 63.005 63.518 63.005C63.7393 63.005 63.929 62.9513 64.0896 62.844C64.2501 62.7366 64.3912 62.5683 64.5152 62.339C64.6077 62.1682 64.739 61.8584 64.9044 61.4046L66.4635 57.2231H65.763V57.2183Z" fill="white"/>
</mask>
<g mask="url(#mask14_1_419)">
<path d="M66.4594 57.2183H62.7014V63.0001H66.4594V57.2183Z" fill="url(#paint14_linear_1_419)"/>
</g>
<mask id="mask15_1_419" style="mask-type:luminance" maskUnits="userSpaceOnUse" x="66" y="57" width="5" height="5">
<path d="M67.8476 60.4585C67.619 60.1974 67.5047 59.8022 67.5047 59.2753C67.5047 58.7483 67.619 58.3555 67.8476 58.0945C68.0763 57.8335 68.3657 57.7042 68.7135 57.7042C69.0565 57.7042 69.3411 57.8359 69.5722 58.0969C69.8032 58.358 69.9176 58.7434 69.9176 59.2533C69.9176 59.7925 69.8032 60.195 69.5746 60.4585C69.346 60.7219 69.0589 60.8537 68.7135 60.8537C68.3657 60.8512 68.0787 60.7195 67.8476 60.4585ZM67.4244 57.5822C67.0012 57.9481 66.792 58.5141 66.792 59.2753C66.792 59.9705 66.9696 60.5024 67.3222 60.8707C67.6749 61.2391 68.1395 61.4245 68.7135 61.4245C69.0711 61.4245 69.4019 61.3416 69.7035 61.1733C70.0051 61.0049 70.2362 60.7707 70.3943 60.4658C70.5524 60.1633 70.6327 59.7461 70.6327 59.2167C70.6327 58.5629 70.4527 58.0506 70.0951 57.6822C69.7376 57.3114 69.2754 57.126 68.7135 57.126C68.2052 57.126 67.7771 57.2772 67.4244 57.5822Z" fill="white"/>
</mask>
<g mask="url(#mask15_1_419)">
<path d="M70.631 57.126H66.7903V61.4245H70.631V57.126Z" fill="url(#paint15_linear_1_419)"/>
</g>
<mask id="mask16_1_419" style="mask-type:luminance" maskUnits="userSpaceOnUse" x="71" y="57" width="4" height="5">
<path d="M72.0726 57.8042V57.2187H71.4475V61.3318H72.1432V59.085C72.1432 58.558 72.2502 58.2018 72.4667 58.0115C72.6807 57.8237 72.9361 57.7286 73.2329 57.7286C73.4177 57.7286 73.5807 57.77 73.7169 57.8554C73.8555 57.9384 73.9504 58.0506 74.0039 58.1921C74.0574 58.3336 74.0842 58.5458 74.0842 58.8288V61.3294H74.7798V58.7995C74.7798 58.4775 74.7677 58.2506 74.7409 58.1213C74.6996 57.9237 74.6266 57.7505 74.5244 57.6066C74.4223 57.4626 74.2666 57.3455 74.0599 57.2553C73.8531 57.165 73.6245 57.1211 73.3788 57.1211C72.8096 57.126 72.3742 57.3529 72.0726 57.8042Z" fill="white"/>
</mask>
<g mask="url(#mask16_1_419)">
<path d="M74.7798 57.126H71.4475V61.3318H74.7798V57.126Z" fill="url(#paint16_linear_1_419)"/>
</g>
<mask id="mask17_1_419" style="mask-type:luminance" maskUnits="userSpaceOnUse" x="75" y="55" width="5" height="7">
<path d="M76.6404 60.4608C76.4191 60.1997 76.3072 59.807 76.3072 59.28C76.3072 58.736 76.4118 58.3359 76.6185 58.0846C76.8253 57.8309 77.0831 57.704 77.392 57.704C77.7082 57.704 77.9758 57.8358 78.1922 58.0993C78.4087 58.3627 78.5157 58.775 78.5157 59.3386C78.5157 59.8509 78.4087 60.229 78.1971 60.4803C77.9855 60.7291 77.7277 60.8536 77.4236 60.8536C77.122 60.8511 76.8617 60.7218 76.6404 60.4608ZM78.4598 55.6548V57.6918C78.3382 57.5235 78.1825 57.3869 77.9879 57.2844C77.7958 57.1795 77.5744 57.1283 77.3288 57.1283C76.9907 57.1283 76.6866 57.2186 76.4142 57.3967C76.1418 57.5747 75.9375 57.8309 75.8012 58.1651C75.665 58.4993 75.5969 58.8726 75.5969 59.2825C75.5969 59.7045 75.6723 60.0753 75.8231 60.3998C75.9739 60.7243 76.1855 60.9755 76.4604 61.1561C76.7353 61.3366 77.0344 61.4269 77.3628 61.4269C77.8663 61.4269 78.2506 61.2219 78.5084 60.8145V61.3342H79.153V55.6572H78.4598V55.6548Z" fill="white"/>
</mask>
<g mask="url(#mask17_1_419)">
<path d="M79.1513 55.6548H75.5952V61.4244H79.1513V55.6548Z" fill="url(#paint17_linear_1_419)"/>
</g>
<mask id="mask18_1_419" style="mask-type:luminance" maskUnits="userSpaceOnUse" x="0" y="38" width="81" height="12">
<path d="M80.9141 38.2383H0.914062V49.5873H80.9141V38.2383Z" fill="white"/>
</mask>
<g mask="url(#mask18_1_419)">
<path d="M6.60332 44.1006L7.50572 44.347C7.30384 45.0911 6.95115 45.6522 6.45008 46.0376C5.94902 46.4207 5.34336 46.6061 4.63069 46.5939C3.89368 46.5817 3.29533 46.4207 2.83804 46.1108C2.38076 45.801 2.0378 45.3594 1.8043 44.7837C1.57322 44.208 1.46377 43.5932 1.4735 42.9369C1.48566 42.2221 1.63403 41.6 1.91375 41.0731C2.1959 40.5461 2.58994 40.1485 3.09831 39.8801C3.60667 39.6118 4.16124 39.4849 4.7669 39.4947C5.45282 39.5069 6.02442 39.6923 6.48657 40.0485C6.94872 40.4071 7.26492 40.9047 7.43762 41.5415L6.54251 41.7366C6.39171 41.2341 6.16793 40.8657 5.87118 40.634C5.57201 40.3998 5.19499 40.2802 4.73771 40.2729C4.21232 40.2631 3.76963 40.3827 3.41208 40.6291C3.05452 40.8755 2.79913 41.2121 2.64832 41.6342C2.49752 42.0562 2.41968 42.4954 2.40995 42.9491C2.40022 43.5322 2.47562 44.0445 2.63859 44.4836C2.80156 44.9228 3.05939 45.2521 3.41208 45.4741C3.7672 45.6961 4.15151 45.8108 4.56988 45.8181C5.07824 45.8278 5.50876 45.6863 5.86632 45.4009C6.22144 45.1082 6.46711 44.6764 6.60332 44.1006Z" fill="#DC0000"/>
</g>
<mask id="mask19_1_419" style="mask-type:luminance" maskUnits="userSpaceOnUse" x="0" y="38" width="81" height="12">
<path d="M80.9141 38.2383H0.914062V49.5873H80.9141V38.2383Z" fill="white"/>
</mask>
<g mask="url(#mask19_1_419)">
<path d="M9.32519 43.9445C9.34222 43.0223 9.60734 42.3466 10.1254 41.9099C10.5584 41.5488 11.0813 41.3732 11.6943 41.3854C12.3754 41.3976 12.9299 41.6318 13.3556 42.088C13.7813 42.5442 13.9856 43.1663 13.9734 43.9567C13.9613 44.5959 13.8567 45.0984 13.6596 45.4619C13.4626 45.8254 13.178 46.106 12.8083 46.3011C12.4386 46.4987 12.0373 46.5914 11.6043 46.5841C10.9111 46.5719 10.3516 46.3402 9.93328 45.884C9.51492 45.4278 9.3106 44.7837 9.32519 43.9445ZM10.1887 43.9591C10.1789 44.5959 10.3079 45.0765 10.5803 45.3985C10.8527 45.7205 11.1981 45.884 11.6189 45.8913C12.0373 45.8986 12.3851 45.7449 12.6697 45.4326C12.9518 45.1179 13.1002 44.6349 13.1099 43.9835C13.1197 43.3687 12.9883 42.9003 12.7159 42.5783C12.4435 42.2563 12.0981 42.0928 11.6846 42.0855C11.2638 42.0782 10.9135 42.2295 10.6314 42.5393C10.3492 42.8491 10.2008 43.3224 10.1887 43.9591Z" fill="#DC0000"/>
</g>
<mask id="mask20_1_419" style="mask-type:luminance" maskUnits="userSpaceOnUse" x="0" y="38" width="81" height="12">
<path d="M80.9141 38.2383H0.914062V49.5873H80.9141V38.2383Z" fill="white"/>
</mask>
<g mask="url(#mask20_1_419)">
<path d="M16.0334 46.4351L16.121 41.4608L16.8775 41.473L16.8653 42.1805C17.2399 41.6413 17.7701 41.3754 18.4585 41.3876C18.7577 41.3925 19.0325 41.451 19.2806 41.5633C19.5287 41.6755 19.7136 41.8194 19.8352 41.9975C19.9568 42.1756 20.0395 42.383 20.0857 42.6245C20.1149 42.7806 20.1247 43.0539 20.1174 43.4442L20.0639 46.5034L19.2223 46.4888L19.2758 43.4637C19.2806 43.1197 19.2539 42.8636 19.1906 42.6904C19.1274 42.5196 19.0155 42.3805 18.8501 42.2781C18.6847 42.1732 18.4901 42.1195 18.2663 42.1146C17.9088 42.1073 17.5974 42.2171 17.3323 42.4391C17.0696 42.6635 16.931 43.0929 16.9188 43.7296L16.8726 46.4473L16.0334 46.4351Z" fill="#DC0000"/>
</g>
<mask id="mask21_1_419" style="mask-type:luminance" maskUnits="userSpaceOnUse" x="0" y="38" width="81" height="12">
<path d="M80.9141 38.2383H0.914062V49.5873H80.9141V38.2383Z" fill="white"/>
</mask>
<g mask="url(#mask21_1_419)">
<path d="M22.1631 44.9495L22.9974 44.8324C23.0387 45.1667 23.1628 45.4252 23.3744 45.6082C23.586 45.7912 23.8803 45.8839 24.2646 45.8912C24.6514 45.8985 24.9384 45.8253 25.1281 45.6692C25.3178 45.5155 25.4151 45.3325 25.4176 45.1179C25.42 44.9276 25.3422 44.7763 25.1792 44.6641C25.0649 44.586 24.7803 44.486 24.3254 44.364C23.7125 44.1981 23.2868 44.0542 23.0509 43.9371C22.815 43.82 22.6374 43.659 22.5182 43.4541C22.399 43.2516 22.3406 43.0271 22.3455 42.7832C22.3504 42.5612 22.4039 42.3562 22.5085 42.1708C22.6131 41.9854 22.7541 41.8293 22.9293 41.7073C23.0606 41.6122 23.2406 41.5341 23.4693 41.4707C23.6955 41.4072 23.9387 41.378 24.1965 41.3828C24.5857 41.3902 24.9262 41.4512 25.2181 41.5683C25.51 41.6854 25.724 41.8415 25.8603 42.0367C25.9965 42.2318 26.0889 42.4904 26.1375 42.8124L25.313 42.91C25.2789 42.6539 25.1743 42.4514 24.9992 42.305C24.8216 42.1586 24.5711 42.083 24.2427 42.0757C23.856 42.0684 23.5811 42.1269 23.4133 42.2538C23.2455 42.3782 23.1603 42.527 23.1579 42.7002C23.1555 42.81 23.1895 42.9076 23.2552 42.9979C23.3209 43.0906 23.4279 43.1662 23.5738 43.2296C23.6565 43.2613 23.9046 43.3394 24.3133 43.4589C24.9043 43.6297 25.3178 43.7663 25.5513 43.8712C25.7849 43.9761 25.9673 44.1274 26.0962 44.3226C26.2275 44.5177 26.2884 44.7592 26.2835 45.0471C26.2786 45.3277 26.1911 45.5911 26.0257 45.8375C25.8603 46.0839 25.6195 46.2718 25.3081 46.4011C24.9968 46.5328 24.6465 46.5938 24.2573 46.5865C23.6128 46.5743 23.1239 46.4328 22.7906 46.1571C22.4574 45.8815 22.2482 45.4814 22.1631 44.9495Z" fill="#DC0000"/>
</g>
<mask id="mask22_1_419" style="mask-type:luminance" maskUnits="userSpaceOnUse" x="0" y="38" width="81" height="12">
<path d="M80.9141 38.2383H0.914062V49.5873H80.9141V38.2383Z" fill="white"/>
</mask>
<g mask="url(#mask22_1_419)">
<path d="M31.6275 46.4963L31.6396 45.7644C31.2431 46.3206 30.7153 46.5914 30.0513 46.5792C29.7594 46.5743 29.487 46.5133 29.234 46.3962C28.9811 46.2791 28.7962 46.1352 28.677 45.962C28.5578 45.7888 28.4751 45.579 28.4289 45.3326C28.3973 45.1667 28.3851 44.9032 28.3924 44.5446L28.4459 41.4634L29.2875 41.478L29.2389 44.2372C29.2316 44.6763 29.2438 44.9739 29.2754 45.1276C29.324 45.3496 29.4335 45.5253 29.6037 45.657C29.774 45.7888 29.9832 45.8546 30.2362 45.8571C30.4891 45.862 30.7251 45.801 30.9488 45.6741C31.1726 45.5497 31.3331 45.374 31.428 45.152C31.5229 44.93 31.5764 44.608 31.5837 44.1835L31.6299 41.517L32.4715 41.5317L32.3839 46.506L31.6275 46.4963Z" fill="#DC0000"/>
</g>
<mask id="mask23_1_419" style="mask-type:luminance" maskUnits="userSpaceOnUse" x="0" y="38" width="81" height="12">
<path d="M80.9141 38.2383H0.914062V49.5873H80.9141V38.2383Z" fill="white"/>
</mask>
<g mask="url(#mask23_1_419)">
<path d="M34.7966 46.4646L34.9158 39.5972L35.7574 39.6118L35.6382 46.4793L34.7966 46.4646Z" fill="#DC0000"/>
</g>
<mask id="mask24_1_419" style="mask-type:luminance" maskUnits="userSpaceOnUse" x="0" y="38" width="81" height="12">
<path d="M80.9141 38.2383H0.914062V49.5873H80.9141V38.2383Z" fill="white"/>
</mask>
<g mask="url(#mask24_1_419)">
<path d="M39.9167 45.7426L40.0262 46.4891C39.7878 46.5355 39.5762 46.5575 39.3889 46.5526C39.0849 46.5477 38.8489 46.494 38.6811 46.394C38.5157 46.294 38.3989 46.1647 38.3333 46.0061C38.2676 45.8475 38.2384 45.5157 38.2481 45.0083L38.2992 42.1467L37.6838 42.1369L37.696 41.4807L38.3114 41.4904L38.3333 40.2584L39.1773 39.7681L39.1481 41.5051L39.9921 41.5197L39.98 42.1759L39.136 42.1613L39.0849 45.0693C39.08 45.3108 39.0922 45.4645 39.1214 45.5328C39.1505 45.6011 39.1968 45.6572 39.2624 45.6987C39.3281 45.7402 39.423 45.7621 39.5495 45.7646C39.6419 45.7719 39.7635 45.7621 39.9167 45.7426Z" fill="#DC0000"/>
</g>
<mask id="mask25_1_419" style="mask-type:luminance" maskUnits="userSpaceOnUse" x="0" y="38" width="81" height="12">
<path d="M80.9141 38.2383H0.914062V49.5873H80.9141V38.2383Z" fill="white"/>
</mask>
<g mask="url(#mask25_1_419)">
<path d="M45.0954 45.8889C44.7791 46.15 44.4775 46.3305 44.1857 46.4354C43.8962 46.5403 43.5849 46.5891 43.2565 46.5842C42.7117 46.5745 42.2957 46.433 42.0063 46.1622C41.7193 45.8889 41.5782 45.5474 41.5855 45.1302C41.5903 44.8863 41.6487 44.6643 41.763 44.4667C41.8774 44.2666 42.0257 44.108 42.2057 43.9885C42.3881 43.869 42.59 43.7811 42.8162 43.7226C42.9816 43.6811 43.2322 43.6445 43.5654 43.6104C44.2465 43.5421 44.7475 43.4542 45.0686 43.3469C45.0735 43.2322 45.0759 43.159 45.0759 43.1273C45.0832 42.7833 45.0078 42.5394 44.8497 42.3979C44.6381 42.2027 44.3219 42.1027 43.8962 42.0954C43.4997 42.0881 43.2078 42.1539 43.0157 42.2881C42.8235 42.4247 42.6825 42.6662 42.5852 43.0175L41.7655 42.8907C41.8457 42.5394 41.9746 42.2564 42.1498 42.0417C42.3249 41.827 42.5754 41.666 42.9014 41.5538C43.2273 41.4416 43.6043 41.3903 44.03 41.3977C44.4532 41.405 44.7962 41.4611 45.0589 41.566C45.3216 41.6709 45.5137 41.8002 45.6353 41.9539C45.757 42.1076 45.8421 42.3003 45.8883 42.5321C45.9126 42.676 45.9224 42.937 45.9175 43.3103L45.898 44.4349C45.8834 45.2181 45.8932 45.7157 45.9248 45.9231C45.9564 46.1305 46.0245 46.3305 46.1267 46.5232L45.2486 46.5086C45.1683 46.3281 45.1172 46.1231 45.0954 45.8889ZM45.0589 44.0031C44.7524 44.1227 44.2927 44.2203 43.6797 44.2983C43.3343 44.3422 43.0887 44.3935 42.9427 44.4545C42.7992 44.5155 42.6873 44.6033 42.6071 44.7228C42.5268 44.8424 42.4854 44.9741 42.483 45.1205C42.4781 45.3449 42.5608 45.5352 42.7287 45.6865C42.8965 45.8402 43.1422 45.9182 43.4681 45.9255C43.7916 45.9304 44.0811 45.8645 44.3365 45.7279C44.5919 45.5913 44.7792 45.3986 44.9032 45.1546C44.9956 44.9668 45.0467 44.6862 45.054 44.313L45.0589 44.0031Z" fill="#DC0000"/>
</g>
<mask id="mask26_1_419" style="mask-type:luminance" maskUnits="userSpaceOnUse" x="0" y="38" width="81" height="12">
<path d="M80.9141 38.2383H0.914062V49.5873H80.9141V38.2383Z" fill="white"/>
</mask>
<g mask="url(#mask26_1_419)">
<path d="M48.2866 46.4424L48.3742 41.4681L49.1306 41.4803L49.1185 42.1878C49.4931 41.6486 50.0233 41.3827 50.7117 41.3949C51.0109 41.3998 51.2833 41.4584 51.5338 41.5706C51.7819 41.6828 51.9668 41.8267 52.0884 42.0048C52.21 42.1829 52.2927 42.3903 52.3389 42.6318C52.3681 42.7879 52.3778 43.0612 52.3705 43.4515L52.317 46.5108L51.4754 46.4961L51.5289 43.471C51.5338 43.127 51.5071 42.8709 51.4438 42.6977C51.3806 42.5269 51.2687 42.3878 51.1033 42.2854C50.9379 42.1805 50.7433 42.1268 50.5195 42.1219C50.162 42.1146 49.8506 42.2244 49.5855 42.4464C49.3228 42.6708 49.1842 43.1002 49.172 43.7369L49.1258 46.4546L48.2866 46.4424Z" fill="#DC0000"/>
</g>
<mask id="mask27_1_419" style="mask-type:luminance" maskUnits="userSpaceOnUse" x="0" y="38" width="81" height="12">
<path d="M80.9141 38.2383H0.914062V49.5873H80.9141V38.2383Z" fill="white"/>
</mask>
<g mask="url(#mask27_1_419)">
<path d="M56.5759 45.7475L56.6854 46.494C56.447 46.5404 56.2354 46.5623 56.0481 46.5575C55.744 46.5526 55.5081 46.4989 55.3403 46.3989C55.1749 46.2989 55.0581 46.1696 54.9924 46.011C54.9268 45.8524 54.8976 45.5206 54.9073 45.0132L54.9584 42.1516L54.3406 42.1418L54.3527 41.4855L54.9706 41.4953L54.9924 40.2633L55.8365 39.7729L55.8073 41.5099L56.6537 41.5246L56.6416 42.1808L55.7951 42.1662L55.744 45.0742C55.7392 45.3157 55.7513 45.4694 55.7805 45.5377C55.8097 45.606 55.8559 45.6621 55.9216 45.7036C55.9873 45.7451 56.0846 45.767 56.2086 45.7695C56.2986 45.7743 56.4227 45.767 56.5759 45.7475Z" fill="#DC0000"/>
</g>
<mask id="mask28_1_419" style="mask-type:luminance" maskUnits="userSpaceOnUse" x="0" y="38" width="81" height="12">
<path d="M80.9141 38.2383H0.914062V49.5873H80.9141V38.2383Z" fill="white"/>
</mask>
<g mask="url(#mask28_1_419)">
<path d="M58.6411 46.4329L58.7603 39.5654L59.6676 39.5801L59.6189 42.4002L63.1774 42.4612L63.2261 39.6411L64.1309 39.6557L64.0117 46.5231L63.1069 46.5061L63.1629 43.2687L59.6043 43.2053L59.5484 46.4426L58.6411 46.4329Z" fill="#0000F6"/>
</g>
<mask id="mask29_1_419" style="mask-type:luminance" maskUnits="userSpaceOnUse" x="0" y="38" width="81" height="12">
<path d="M80.9141 38.2383H0.914062V49.5873H80.9141V38.2383Z" fill="white"/>
</mask>
<g mask="url(#mask29_1_419)">
<path d="M66.3711 44.225L67.2273 44.164C67.2613 44.508 67.3513 44.791 67.4948 45.0154C67.6384 45.2399 67.8646 45.4204 68.1735 45.5619C68.4824 45.7034 68.8326 45.7766 69.2218 45.7839C69.5672 45.7888 69.8737 45.7424 70.1388 45.6449C70.4039 45.5473 70.6058 45.4082 70.7372 45.2301C70.8685 45.052 70.9366 44.8569 70.9415 44.6446C70.9463 44.4299 70.8855 44.2397 70.7639 44.0762C70.6423 43.9128 70.438 43.7737 70.1534 43.659C69.971 43.5834 69.5672 43.4663 68.9397 43.3029C68.3121 43.1394 67.8743 42.9906 67.6262 42.8515C67.3027 42.6734 67.0619 42.4563 66.9062 42.2002C66.7505 41.944 66.6751 41.6561 66.68 41.3414C66.6873 40.995 66.7895 40.673 66.9913 40.3753C67.1932 40.0777 67.4827 39.8533 67.8621 39.7045C68.2416 39.5556 68.6624 39.4849 69.1221 39.4922C69.6305 39.502 70.0756 39.5898 70.4599 39.7606C70.8442 39.9313 71.1385 40.1777 71.3428 40.4998C71.5447 40.8218 71.6517 41.1853 71.659 41.5878L70.7882 41.6391C70.7493 41.2048 70.5961 40.873 70.331 40.6461C70.0658 40.4193 69.6694 40.3022 69.144 40.2924C68.5967 40.2826 68.1954 40.3753 67.94 40.573C67.6846 40.7706 67.5556 41.0096 67.5508 41.2951C67.5459 41.5415 67.6311 41.7464 67.8062 41.9074C67.9789 42.0709 68.4289 42.2416 69.1634 42.4222C69.8956 42.6027 70.3991 42.7564 70.6715 42.8857C71.068 43.076 71.3574 43.3151 71.5423 43.6005C71.7271 43.8859 71.8171 44.2128 71.8098 44.5812C71.8025 44.9471 71.6931 45.2887 71.479 45.6083C71.265 45.9279 70.9609 46.1743 70.5669 46.3475C70.1729 46.5207 69.7326 46.6012 69.2437 46.5939C68.6235 46.5841 68.1054 46.4841 67.6919 46.2938C67.2759 46.1059 66.9524 45.8278 66.7214 45.4595C66.4927 45.0984 66.376 44.6861 66.3711 44.225Z" fill="#0000F6"/>
</g>
<mask id="mask30_1_419" style="mask-type:luminance" maskUnits="userSpaceOnUse" x="0" y="38" width="81" height="12">
<path d="M80.9141 38.2383H0.914062V49.5873H80.9141V38.2383Z" fill="white"/>
</mask>
<g mask="url(#mask30_1_419)">
<path d="M73.8723 44.2226L74.7285 44.1616C74.7626 44.5056 74.8526 44.7886 74.9961 45.013C75.1396 45.235 75.3658 45.418 75.6747 45.5595C75.9836 45.701 76.3339 45.7742 76.723 45.7815C77.0684 45.7888 77.3749 45.7424 77.64 45.6424C77.9051 45.5424 78.1046 45.4058 78.2384 45.2277C78.3697 45.0496 78.4378 44.8544 78.4427 44.6422C78.4451 44.4275 78.3868 44.2372 78.2651 44.0738C78.1435 43.9103 77.9392 43.7713 77.6546 43.6566C77.4722 43.581 77.0684 43.4639 76.4409 43.3004C75.8158 43.137 75.3755 42.9881 75.1274 42.8491C74.8039 42.671 74.5631 42.4539 74.4074 42.1977C74.2518 41.9416 74.1764 41.6537 74.1812 41.339C74.1861 40.9926 74.2907 40.6705 74.4926 40.3729C74.6944 40.0753 74.9839 39.8508 75.3633 39.702C75.7428 39.5532 76.1636 39.4825 76.6233 39.4898C77.1317 39.4995 77.5768 39.5874 77.9611 39.7581C78.3454 39.9289 78.6397 40.1753 78.844 40.4973C79.0459 40.8194 79.1529 41.1829 79.1602 41.5854L78.2895 41.6366C78.2505 41.2024 78.0973 40.8706 77.8322 40.6437C77.5671 40.4168 77.1706 40.2997 76.6452 40.29C76.0979 40.2802 75.6966 40.3729 75.4412 40.5705C75.1858 40.7681 75.0569 41.0072 75.052 41.2926C75.0471 41.539 75.1323 41.744 75.3074 41.9074C75.4801 42.0709 75.9325 42.2416 76.6646 42.4197C77.3992 42.6003 77.9003 42.7539 78.1727 42.8832C78.5692 43.0735 78.8586 43.3126 79.0435 43.598C79.2283 43.8835 79.3183 44.2104 79.311 44.5788C79.3037 44.9447 79.1943 45.2862 78.9802 45.6058C78.7662 45.9254 78.4622 46.1718 78.0681 46.345C77.6741 46.5182 77.2338 46.5987 76.7449 46.5914C76.1247 46.5817 75.6066 46.4816 75.1906 46.2938C74.7747 46.1059 74.4512 45.8278 74.2201 45.4595C73.9939 45.096 73.8772 44.6812 73.8723 44.2226Z" fill="#0000F6"/>
</g>
<path d="M79.715 48.4893H2.11328V48.8064H79.715V48.4893Z" fill="#D20000"/>
<path d="M79.715 49.8726H2.11328V50.1897H79.715V49.8726Z" fill="#D20000"/>
</g>
<defs>
<linearGradient id="paint0_linear_1_419" x1="1.6527" y1="58.5502" x2="79.1998" y2="58.5502" gradientUnits="userSpaceOnUse">
<stop stop-color="#DC0000"/>
<stop offset="0.2513" stop-color="#DC0000"/>
<stop offset="0.3421" stop-color="#BD0022"/>
<stop offset="0.5439" stop-color="#6F007A"/>
<stop offset="0.809" stop-color="#0000F6"/>
<stop offset="1" stop-color="#0000F6"/>
</linearGradient>
<linearGradient id="paint1_linear_1_419" x1="1.65266" y1="58.5512" x2="79.1997" y2="58.5512" gradientUnits="userSpaceOnUse">
<stop stop-color="#DC0000"/>
<stop offset="0.2513" stop-color="#DC0000"/>
<stop offset="0.3421" stop-color="#BD0022"/>
<stop offset="0.5439" stop-color="#6F007A"/>
<stop offset="0.809" stop-color="#0000F6"/>
<stop offset="1" stop-color="#0000F6"/>
</linearGradient>
<linearGradient id="paint2_linear_1_419" x1="1.65263" y1="59.2475" x2="79.1997" y2="59.2475" gradientUnits="userSpaceOnUse">
<stop stop-color="#DC0000"/>
<stop offset="0.2513" stop-color="#DC0000"/>
<stop offset="0.3421" stop-color="#BD0022"/>
<stop offset="0.5439" stop-color="#6F007A"/>
<stop offset="0.809" stop-color="#0000F6"/>
<stop offset="1" stop-color="#0000F6"/>
</linearGradient>
<linearGradient id="paint3_linear_1_419" x1="1.65336" y1="60.0442" x2="79.2004" y2="60.0442" gradientUnits="userSpaceOnUse">
<stop stop-color="#DC0000"/>
<stop offset="0.2513" stop-color="#DC0000"/>
<stop offset="0.3421" stop-color="#BD0022"/>
<stop offset="0.5439" stop-color="#6F007A"/>
<stop offset="0.809" stop-color="#0000F6"/>
<stop offset="1" stop-color="#0000F6"/>
</linearGradient>
<linearGradient id="paint4_linear_1_419" x1="1.65267" y1="58.5502" x2="79.1998" y2="58.5502" gradientUnits="userSpaceOnUse">
<stop stop-color="#DC0000"/>
<stop offset="0.2513" stop-color="#DC0000"/>
<stop offset="0.3421" stop-color="#BD0022"/>
<stop offset="0.5439" stop-color="#6F007A"/>
<stop offset="0.809" stop-color="#0000F6"/>
<stop offset="1" stop-color="#0000F6"/>
</linearGradient>
<linearGradient id="paint5_linear_1_419" x1="1.65261" y1="59.2475" x2="79.1997" y2="59.2475" gradientUnits="userSpaceOnUse">
<stop stop-color="#DC0000"/>
<stop offset="0.2513" stop-color="#DC0000"/>
<stop offset="0.3421" stop-color="#BD0022"/>
<stop offset="0.5439" stop-color="#6F007A"/>
<stop offset="0.809" stop-color="#0000F6"/>
<stop offset="1" stop-color="#0000F6"/>
</linearGradient>
<linearGradient id="paint6_linear_1_419" x1="1.65274" y1="59.2475" x2="79.1998" y2="59.2475" gradientUnits="userSpaceOnUse">
<stop stop-color="#DC0000"/>
<stop offset="0.2513" stop-color="#DC0000"/>
<stop offset="0.3421" stop-color="#BD0022"/>
<stop offset="0.5439" stop-color="#6F007A"/>
<stop offset="0.809" stop-color="#0000F6"/>
<stop offset="1" stop-color="#0000F6"/>
</linearGradient>
<linearGradient id="paint7_linear_1_419" x1="1.65275" y1="59.2475" x2="79.1998" y2="59.2475" gradientUnits="userSpaceOnUse">
<stop stop-color="#DC0000"/>
<stop offset="0.2513" stop-color="#DC0000"/>
<stop offset="0.3421" stop-color="#BD0022"/>
<stop offset="0.5439" stop-color="#6F007A"/>
<stop offset="0.809" stop-color="#0000F6"/>
<stop offset="1" stop-color="#0000F6"/>
</linearGradient>
<linearGradient id="paint8_linear_1_419" x1="1.65261" y1="59.2475" x2="79.1997" y2="59.2475" gradientUnits="userSpaceOnUse">
<stop stop-color="#DC0000"/>
<stop offset="0.2513" stop-color="#DC0000"/>
<stop offset="0.3421" stop-color="#BD0022"/>
<stop offset="0.5439" stop-color="#6F007A"/>
<stop offset="0.809" stop-color="#0000F6"/>
<stop offset="1" stop-color="#0000F6"/>
</linearGradient>
<linearGradient id="paint9_linear_1_419" x1="1.65265" y1="59.2475" x2="79.1997" y2="59.2475" gradientUnits="userSpaceOnUse">
<stop stop-color="#DC0000"/>
<stop offset="0.2513" stop-color="#DC0000"/>
<stop offset="0.3421" stop-color="#BD0022"/>
<stop offset="0.5439" stop-color="#6F007A"/>
<stop offset="0.809" stop-color="#0000F6"/>
<stop offset="1" stop-color="#0000F6"/>
</linearGradient>
<linearGradient id="paint10_linear_1_419" x1="1.65337" y1="60.0442" x2="79.2004" y2="60.0442" gradientUnits="userSpaceOnUse">
<stop stop-color="#DC0000"/>
<stop offset="0.2513" stop-color="#DC0000"/>
<stop offset="0.3421" stop-color="#BD0022"/>
<stop offset="0.5439" stop-color="#6F007A"/>
<stop offset="0.809" stop-color="#0000F6"/>
<stop offset="1" stop-color="#0000F6"/>
</linearGradient>
<linearGradient id="paint11_linear_1_419" x1="1.6526" y1="58.5511" x2="79.1997" y2="58.5511" gradientUnits="userSpaceOnUse">
<stop stop-color="#DC0000"/>
<stop offset="0.2513" stop-color="#DC0000"/>
<stop offset="0.3421" stop-color="#BD0022"/>
<stop offset="0.5439" stop-color="#6F007A"/>
<stop offset="0.809" stop-color="#0000F6"/>
<stop offset="1" stop-color="#0000F6"/>
</linearGradient>
<linearGradient id="paint12_linear_1_419" x1="1.65274" y1="58.5512" x2="79.1998" y2="58.5512" gradientUnits="userSpaceOnUse">
<stop stop-color="#DC0000"/>
<stop offset="0.2513" stop-color="#DC0000"/>
<stop offset="0.3421" stop-color="#BD0022"/>
<stop offset="0.5439" stop-color="#6F007A"/>
<stop offset="0.809" stop-color="#0000F6"/>
<stop offset="1" stop-color="#0000F6"/>
</linearGradient>
<linearGradient id="paint13_linear_1_419" x1="1.65278" y1="59.2475" x2="79.1998" y2="59.2475" gradientUnits="userSpaceOnUse">
<stop stop-color="#DC0000"/>
<stop offset="0.2513" stop-color="#DC0000"/>
<stop offset="0.3421" stop-color="#BD0022"/>
<stop offset="0.5439" stop-color="#6F007A"/>
<stop offset="0.809" stop-color="#0000F6"/>
<stop offset="1" stop-color="#0000F6"/>
</linearGradient>
<linearGradient id="paint14_linear_1_419" x1="1.6534" y1="60.0925" x2="79.2004" y2="60.0925" gradientUnits="userSpaceOnUse">
<stop stop-color="#DC0000"/>
<stop offset="0.2513" stop-color="#DC0000"/>
<stop offset="0.3421" stop-color="#BD0022"/>
<stop offset="0.5439" stop-color="#6F007A"/>
<stop offset="0.809" stop-color="#0000F6"/>
<stop offset="1" stop-color="#0000F6"/>
</linearGradient>
<linearGradient id="paint15_linear_1_419" x1="1.65344" y1="59.2475" x2="79.2005" y2="59.2475" gradientUnits="userSpaceOnUse">
<stop stop-color="#DC0000"/>
<stop offset="0.2513" stop-color="#DC0000"/>
<stop offset="0.3421" stop-color="#BD0022"/>
<stop offset="0.5439" stop-color="#6F007A"/>
<stop offset="0.809" stop-color="#0000F6"/>
<stop offset="1" stop-color="#0000F6"/>
</linearGradient>
<linearGradient id="paint16_linear_1_419" x1="1.65284" y1="59.2475" x2="79.1998" y2="59.2475" gradientUnits="userSpaceOnUse">
<stop stop-color="#DC0000"/>
<stop offset="0.2513" stop-color="#DC0000"/>
<stop offset="0.3421" stop-color="#BD0022"/>
<stop offset="0.5439" stop-color="#6F007A"/>
<stop offset="0.809" stop-color="#0000F6"/>
<stop offset="1" stop-color="#0000F6"/>
</linearGradient>
<linearGradient id="paint17_linear_1_419" x1="1.65333" y1="58.5512" x2="79.2004" y2="58.5512" gradientUnits="userSpaceOnUse">
<stop stop-color="#DC0000"/>
<stop offset="0.2513" stop-color="#DC0000"/>
<stop offset="0.3421" stop-color="#BD0022"/>
<stop offset="0.5439" stop-color="#6F007A"/>
<stop offset="0.809" stop-color="#0000F6"/>
<stop offset="1" stop-color="#0000F6"/>
</linearGradient>
<clipPath id="clip0_1_419">
<rect width="80" height="63" fill="white" transform="translate(0.914062)"/>
</clipPath>
</defs>
</svg>
