<svg width="76" height="61" viewBox="0 0 76 61" fill="none" xmlns="http://www.w3.org/2000/svg">
<g clip-path="url(#clip0_1_595)">
<path d="M61.649 15.3438V40.8515H50.519V24.3553H28.469L36.104 15.3438H61.649Z" fill="#A14516"/>
<path opacity="0.5" d="M61.649 15.3438V40.8515H50.519V24.3553H28.469L36.104 15.3438H61.649Z" fill="url(#paint0_linear_1_595)"/>
<path d="M61.649 19.7595V40.8363H30.794C19.514 40.8363 10.334 31.6751 10.334 20.4182C10.319 9.16123 19.499 0 30.794 0H61.649L53.249 11.1072H30.794C25.649 11.1072 21.449 15.2837 21.449 20.4331C21.449 25.5826 25.634 29.759 30.794 29.759H51.164C56.774 29.744 61.394 25.3131 61.649 19.7595Z" fill="url(#paint1_linear_1_595)"/>
<path opacity="0.5" d="M61.6491 0L53.2491 11.1072H20.8191C15.1941 11.1072 10.5891 15.5382 10.3341 21.0768C10.3341 20.8672 10.3191 20.6427 10.3191 20.4182C10.3191 9.16123 19.4991 0 30.7941 0H61.6491Z" fill="url(#paint2_linear_1_595)"/>
<mask id="mask0_1_595" style="mask-type:luminance" maskUnits="userSpaceOnUse" x="0" y="0" width="76" height="61">
<path d="M75.9141 0H0.914062V61H75.9141V0Z" fill="white"/>
</mask>
<g mask="url(#mask0_1_595)">
<path d="M5.15906 52.5123C5.15906 53.3057 4.64906 53.8596 3.91406 53.8596C3.11906 53.8596 2.65406 53.3057 2.65406 52.5123C2.65406 52.1082 2.77406 51.7788 2.99906 51.5393H2.18906C1.64906 51.5393 1.33406 52.0483 1.33406 52.8566V54.8625H0.914062L0.914063 52.8417C0.914063 51.7339 1.33406 51.195 2.18906 51.195H3.91406C4.67906 51.1651 5.15906 51.704 5.15906 52.5123ZM4.66406 52.4674C4.66406 51.8986 4.40906 51.5393 3.94406 51.5393C3.44906 51.5393 3.17906 51.9136 3.17906 52.5273C3.17906 53.0961 3.44906 53.4554 3.91406 53.4554C4.40906 53.4704 4.66406 53.141 4.66406 52.4674Z" fill="black"/>
</g>
<mask id="mask1_1_595" style="mask-type:luminance" maskUnits="userSpaceOnUse" x="0" y="0" width="76" height="61">
<path d="M75.9141 0H0.914062V61H75.9141V0Z" fill="white"/>
</mask>
<g mask="url(#mask1_1_595)">
<path d="M6.10396 53.2607H5.56396V53.8745H6.10396V53.2607Z" fill="black"/>
</g>
<mask id="mask2_1_595" style="mask-type:luminance" maskUnits="userSpaceOnUse" x="0" y="0" width="76" height="61">
<path d="M75.9141 0H0.914062V61H75.9141V0Z" fill="white"/>
</mask>
<g mask="url(#mask2_1_595)">
<path d="M10.904 52.5123C10.904 53.3057 10.409 53.8596 9.65904 53.8596C8.86404 53.8596 8.39904 53.3057 8.39904 52.5123C8.39904 52.1082 8.51904 51.7788 8.74404 51.5393H7.91904C7.37904 51.5393 7.06404 52.0483 7.06404 52.8566V54.8625H6.64404V52.8417C6.64404 51.7339 7.06404 51.195 7.91904 51.195H9.64404C10.424 51.1651 10.904 51.704 10.904 52.5123ZM10.409 52.4674C10.409 51.8986 10.154 51.5393 9.68904 51.5393C9.19404 51.5393 8.92404 51.9136 8.92404 52.5273C8.92404 53.0961 9.19404 53.4554 9.65904 53.4554C10.154 53.4704 10.409 53.141 10.409 52.4674Z" fill="black"/>
</g>
<mask id="mask3_1_595" style="mask-type:luminance" maskUnits="userSpaceOnUse" x="0" y="0" width="76" height="61">
<path d="M75.9141 0H0.914062V61H75.9141V0Z" fill="white"/>
</mask>
<g mask="url(#mask3_1_595)">
<path d="M11.8491 53.2607H11.3091V53.8745H11.8491V53.2607Z" fill="black"/>
</g>
<mask id="mask4_1_595" style="mask-type:luminance" maskUnits="userSpaceOnUse" x="0" y="0" width="76" height="61">
<path d="M75.9141 0H0.914062V61H75.9141V0Z" fill="white"/>
</mask>
<g mask="url(#mask4_1_595)">
<path d="M15.1792 53.8747H12.5242V53.4555H14.7292C14.7292 52.9316 14.6392 52.4975 14.4442 52.1682C14.2042 51.779 13.8292 51.5694 13.3342 51.5544H13.1692V51.1652C14.0092 51.1652 14.5942 51.4946 14.8942 52.1682C15.0892 52.5574 15.1792 53.1262 15.1792 53.8747ZM13.8742 50.7311H13.4542V50.2222H13.8742V50.7311Z" fill="black"/>
</g>
<mask id="mask5_1_595" style="mask-type:luminance" maskUnits="userSpaceOnUse" x="0" y="0" width="76" height="61">
<path d="M75.9141 0H0.914062V61H75.9141V0Z" fill="white"/>
</mask>
<g mask="url(#mask5_1_595)">
<path d="M21.1191 51.1652V52.8268C21.1191 53.5304 20.8341 53.8747 20.2491 53.8747H18.4191C17.2641 53.8747 16.6941 53.2909 16.6941 52.1382V51.1652H17.1141V52.1382C17.1141 53.0214 17.5341 53.4555 18.3741 53.4555H20.1141C20.5341 53.4555 20.7141 53.2909 20.7141 52.6322V51.1652H21.1191ZM18.7491 51.1652H18.3291V50.6562H18.7491V51.1652ZM19.5291 51.1652H19.1091V50.6562H19.5291V51.1652Z" fill="black"/>
</g>
<mask id="mask6_1_595" style="mask-type:luminance" maskUnits="userSpaceOnUse" x="0" y="0" width="76" height="61">
<path d="M75.9141 0H0.914062V61H75.9141V0Z" fill="white"/>
</mask>
<g mask="url(#mask6_1_595)">
<path d="M22.349 50.0127H21.929V53.8748H22.349V50.0127Z" fill="black"/>
</g>
<mask id="mask7_1_595" style="mask-type:luminance" maskUnits="userSpaceOnUse" x="0" y="0" width="76" height="61">
<path d="M75.9141 0H0.914062V61H75.9141V0Z" fill="white"/>
</mask>
<g mask="url(#mask7_1_595)">
<path d="M24.9741 52.8419L24.5541 52.8868C24.5091 52.6473 24.3891 52.5276 24.1641 52.5276C23.8791 52.5276 23.7441 52.7222 23.7441 53.0964C23.7441 53.2461 23.7741 53.3658 23.8341 53.4557H24.9591V53.8748H22.9641V53.4557H23.3841C23.3391 53.3359 23.3091 53.2311 23.3091 53.0964C23.3091 52.827 23.3691 52.6324 23.5041 52.4677C23.6541 52.2881 23.8641 52.1982 24.1491 52.1982C24.6141 52.1982 24.8841 52.4078 24.9741 52.8419Z" fill="black"/>
</g>
<mask id="mask8_1_595" style="mask-type:luminance" maskUnits="userSpaceOnUse" x="0" y="0" width="76" height="61">
<path d="M75.9141 0H0.914062V61H75.9141V0Z" fill="white"/>
</mask>
<g mask="url(#mask8_1_595)">
<path d="M27.0891 53.8748H26.6241C26.4141 53.8748 26.2341 53.7999 26.0841 53.6502C25.9041 53.4856 25.8291 53.2461 25.8291 52.9317V50.0127H26.2641V52.6772C26.2641 52.9467 26.3091 53.1413 26.3841 53.276C26.4441 53.3808 26.5641 53.4407 26.7291 53.4556C26.7741 53.4556 26.8191 53.4556 27.1191 53.4556V53.8748H27.0891Z" fill="black"/>
</g>
<mask id="mask9_1_595" style="mask-type:luminance" maskUnits="userSpaceOnUse" x="0" y="0" width="76" height="61">
<path d="M75.9141 0H0.914062V61H75.9141V0Z" fill="white"/>
</mask>
<g mask="url(#mask9_1_595)">
<path d="M32.6391 53.8746H26.9541V53.4555H27.5091C27.8991 53.4555 28.1391 53.201 28.1391 52.6921V51.1652H28.5591V52.8268C28.5591 53.0663 28.5291 53.2759 28.4541 53.4405V53.4705H29.2341C29.6241 53.4705 29.7441 53.2908 29.7441 52.6472V51.1802H30.1641V52.8418C30.1641 53.0962 30.1341 53.3058 30.0441 53.4705H30.7641C31.2141 53.4705 31.3641 53.2908 31.3641 52.6472V51.1802H31.7841V52.8418C31.7841 53.0962 31.7391 53.3058 31.6641 53.4705H32.6241V53.8746H32.6391ZM29.7891 50.7311H29.3691V50.2221H29.7891V50.7311ZM30.1791 50.0724H29.7591V49.5635H30.1791V50.0724ZM30.5841 50.7311H30.1641V50.2221H30.5841V50.7311Z" fill="black"/>
</g>
<mask id="mask10_1_595" style="mask-type:luminance" maskUnits="userSpaceOnUse" x="0" y="0" width="76" height="61">
<path d="M75.9141 0H0.914062V61H75.9141V0Z" fill="white"/>
</mask>
<g mask="url(#mask10_1_595)">
<path d="M33.9141 51.1652V52.8268C33.9141 53.5304 33.6292 53.8747 33.0292 53.8747H32.5042V53.4555H32.8941C33.1491 53.4555 33.3142 53.3657 33.4042 53.2011C33.4642 53.0963 33.4941 52.9017 33.4941 52.6322V51.1652H33.9141ZM33.9141 50.7311H33.4941V50.2222H33.9141V50.7311Z" fill="black"/>
</g>
<mask id="mask11_1_595" style="mask-type:luminance" maskUnits="userSpaceOnUse" x="0" y="0" width="76" height="61">
<path d="M75.9141 0H0.914062V61H75.9141V0Z" fill="white"/>
</mask>
<g mask="url(#mask11_1_595)">
<path d="M38.0991 53.8748H34.5891V53.4556H35.5641L34.7991 50.4618H35.2491L36.0141 53.4556H36.1791C36.6141 53.4556 36.7791 53.276 36.7791 52.6323V50.0127H37.1991V52.8269C37.1991 53.0814 37.1541 53.291 37.0791 53.4556H38.1141L38.0991 53.8748Z" fill="black"/>
</g>
<mask id="mask12_1_595" style="mask-type:luminance" maskUnits="userSpaceOnUse" x="0" y="0" width="76" height="61">
<path d="M75.9141 0H0.914062V61H75.9141V0Z" fill="white"/>
</mask>
<g mask="url(#mask12_1_595)">
<path d="M39.3289 50.0127V52.8269C39.3289 53.5305 39.0439 53.8748 38.4439 53.8748H37.9189V53.4556H38.3089C38.5639 53.4556 38.7289 53.3658 38.8189 53.2012C38.8789 53.0964 38.9089 52.9018 38.9089 52.6323V50.0127H39.3289Z" fill="black"/>
</g>
<mask id="mask13_1_595" style="mask-type:luminance" maskUnits="userSpaceOnUse" x="0" y="0" width="76" height="61">
<path d="M75.9141 0H0.914062V61H75.9141V0Z" fill="white"/>
</mask>
<g mask="url(#mask13_1_595)">
<path d="M44.249 53.8747H43.964C43.364 53.8747 42.989 53.5753 42.824 53.0064C42.644 53.3058 42.344 53.4705 41.909 53.4705C41.294 53.4705 40.844 52.8418 40.844 52.0484C40.844 51.1952 41.294 50.6114 41.984 50.6114H43.259V52.5274C43.259 53.1262 43.544 53.4705 44.024 53.4705H44.249V53.8747ZM42.824 51.9586V50.9107H42.059C41.594 50.9107 41.264 51.3898 41.264 52.0185C41.264 52.6322 41.579 53.1412 42.044 53.1412C42.554 53.1412 42.809 52.752 42.824 51.9586ZM42.194 50.1623H41.774V49.6533H42.194V50.1623ZM42.974 50.1623H42.554V49.6533H42.974V50.1623Z" fill="black"/>
</g>
<mask id="mask14_1_595" style="mask-type:luminance" maskUnits="userSpaceOnUse" x="0" y="0" width="76" height="61">
<path d="M75.9141 0H0.914062V61H75.9141V0Z" fill="white"/>
</mask>
<g mask="url(#mask14_1_595)">
<path d="M47.5191 53.0362C47.5191 53.4254 47.4141 53.7398 47.2041 53.9942C46.9791 54.2637 46.6791 54.3984 46.2891 54.3984C45.8241 54.3984 45.4791 54.2338 45.2541 53.8745H44.0991V53.4553H45.0741C45.0441 53.3356 45.0141 53.1859 45.0141 53.0362C45.0141 52.647 45.1341 52.3177 45.3591 52.0632C45.5841 51.8087 45.8991 51.689 46.2891 51.689C46.6791 51.689 46.9941 51.8237 47.2041 52.0782C47.4141 52.3177 47.5191 52.647 47.5191 53.0362ZM47.0241 52.9913C47.0241 52.7219 46.9641 52.5123 46.8741 52.3476C46.7391 52.153 46.5591 52.0482 46.3041 52.0482C46.0341 52.0482 45.8241 52.153 45.6891 52.3626C45.5691 52.5272 45.5241 52.7668 45.5241 53.0512C45.5241 53.3206 45.5841 53.5452 45.6891 53.7098C45.8241 53.9044 46.0191 54.0092 46.2891 54.0092C46.7841 54.0242 47.0241 53.6799 47.0241 52.9913Z" fill="black"/>
</g>
<mask id="mask15_1_595" style="mask-type:luminance" maskUnits="userSpaceOnUse" x="0" y="0" width="76" height="61">
<path d="M75.9141 0H0.914062V61H75.9141V0Z" fill="white"/>
</mask>
<g mask="url(#mask15_1_595)">
<path d="M49.634 53.8748H49.169C48.959 53.8748 48.779 53.7999 48.629 53.6502C48.449 53.4856 48.374 53.2461 48.374 52.9317V50.0127H48.809V52.6772C48.809 52.9467 48.854 53.1413 48.929 53.276C48.989 53.3808 49.109 53.4407 49.274 53.4556C49.319 53.4556 49.364 53.4556 49.649 53.4556L49.634 53.8748Z" fill="black"/>
</g>
<mask id="mask16_1_595" style="mask-type:luminance" maskUnits="userSpaceOnUse" x="0" y="0" width="76" height="61">
<path d="M75.9141 0H0.914062V61H75.9141V0Z" fill="white"/>
</mask>
<g mask="url(#mask16_1_595)">
<path d="M53.834 53.8746H52.679C52.319 53.8746 52.019 53.7249 51.794 53.4106C51.434 53.7249 50.984 53.8746 50.444 53.8746H49.499V53.4555H50.429C50.639 53.4555 50.834 53.4255 50.984 53.3806C51.134 53.3208 51.314 53.2309 51.509 53.0813C51.179 52.5873 50.759 52.228 50.234 52.0334V51.5694C50.729 51.255 51.224 51.0903 51.734 51.0903C52.304 51.0903 52.829 51.2849 53.309 51.6592C53.159 51.9436 53.039 52.1681 52.934 52.3178C52.724 52.6172 52.469 52.8867 52.139 53.1262C52.274 53.2908 52.424 53.3956 52.559 53.4255C52.619 53.4405 52.784 53.4555 53.039 53.4555H53.849L53.834 53.8746ZM52.814 51.7939C52.559 51.6741 52.394 51.5993 52.364 51.5843C52.154 51.5095 51.959 51.4646 51.749 51.4646C51.389 51.4646 51.014 51.5843 50.609 51.8089C50.879 51.9136 51.104 52.0484 51.299 52.213C51.464 52.3478 51.644 52.5573 51.839 52.8268C52.274 52.5274 52.589 52.1831 52.814 51.7939Z" fill="black"/>
</g>
<mask id="mask17_1_595" style="mask-type:luminance" maskUnits="userSpaceOnUse" x="0" y="0" width="76" height="61">
<path d="M75.9141 0H0.914062V61H75.9141V0Z" fill="white"/>
</mask>
<g mask="url(#mask17_1_595)">
<path d="M55.1241 50.0127V52.8269C55.1241 53.5305 54.8241 53.8748 54.2391 53.8748H53.7141V53.4556H54.0891C54.3441 53.4556 54.5091 53.3658 54.5991 53.2012C54.6591 53.0964 54.6891 52.9018 54.6891 52.6323V50.0127H55.1241Z" fill="black"/>
</g>
<mask id="mask18_1_595" style="mask-type:luminance" maskUnits="userSpaceOnUse" x="0" y="0" width="76" height="61">
<path d="M75.9141 0H0.914062V61H75.9141V0Z" fill="white"/>
</mask>
<g mask="url(#mask18_1_595)">
<path d="M56.3541 50.0127H55.9341V53.8748H56.3541V50.0127Z" fill="black"/>
</g>
<mask id="mask19_1_595" style="mask-type:luminance" maskUnits="userSpaceOnUse" x="0" y="0" width="76" height="61">
<path d="M75.9141 0H0.914062V61H75.9141V0Z" fill="white"/>
</mask>
<g mask="url(#mask19_1_595)">
<path d="M61.319 53.8747H61.049C60.464 53.8747 60.074 53.5753 59.909 53.0064C59.729 53.3058 59.429 53.4705 58.994 53.4705C58.379 53.4705 57.929 52.8418 57.929 52.0484C57.929 51.1952 58.379 50.6114 59.069 50.6114H60.344V52.5274C60.344 53.1262 60.629 53.4705 61.109 53.4705H61.334L61.319 53.8747ZM59.909 51.9586V50.9107H59.144C58.679 50.9107 58.349 51.3898 58.349 52.0185C58.349 52.6322 58.664 53.1412 59.129 53.1412C59.639 53.1412 59.894 52.752 59.909 51.9586ZM59.279 50.1623H58.859V49.6533H59.279V50.1623ZM60.059 50.1623H59.639V49.6533H60.059V50.1623Z" fill="black"/>
</g>
<mask id="mask20_1_595" style="mask-type:luminance" maskUnits="userSpaceOnUse" x="0" y="0" width="76" height="61">
<path d="M75.9141 0H0.914062V61H75.9141V0Z" fill="white"/>
</mask>
<g mask="url(#mask20_1_595)">
<path d="M65.1891 53.2757V53.8745H61.0491V53.4553H64.6791C64.6791 53.3805 64.6941 53.3056 64.6941 53.2457C64.6941 52.7817 64.5891 52.4224 64.3641 52.138C64.1091 51.8237 63.7191 51.659 63.2241 51.659H61.9941C62.2041 51.2698 62.5191 50.7309 62.9091 50.0273H63.4041L62.6991 51.2548H63.2241C63.8241 51.2548 64.3191 51.4345 64.6641 51.8237C65.0241 52.168 65.1891 52.6619 65.1891 53.2757Z" fill="black"/>
</g>
<mask id="mask21_1_595" style="mask-type:luminance" maskUnits="userSpaceOnUse" x="0" y="0" width="76" height="61">
<path d="M75.9141 0H0.914062V61H75.9141V0Z" fill="white"/>
</mask>
<g mask="url(#mask21_1_595)">
<path d="M67.8892 53.8745H66.8542C66.7342 54.4882 66.3292 54.8176 65.6392 54.8475V54.4433C66.1942 54.4433 66.4792 54.1439 66.4792 53.4404V51.165H66.8992V53.4553H67.8892V53.8745Z" fill="black"/>
</g>
<mask id="mask22_1_595" style="mask-type:luminance" maskUnits="userSpaceOnUse" x="0" y="0" width="76" height="61">
<path d="M75.9141 0H0.914062V61H75.9141V0Z" fill="white"/>
</mask>
<g mask="url(#mask22_1_595)">
<path d="M73.394 53.8746H67.709V53.4555H68.264C68.639 53.4555 68.894 53.201 68.894 52.6921V51.1652H69.314V52.8268C69.314 53.0663 69.284 53.2759 69.209 53.4405V53.4705H69.989C70.364 53.4705 70.499 53.2908 70.499 52.6472V51.1802H70.919V52.8418C70.919 53.0962 70.889 53.3058 70.799 53.4705H71.519C71.969 53.4705 72.119 53.2908 72.119 52.6472V51.1802H72.539V52.8418C72.539 53.0962 72.494 53.3058 72.419 53.4705H73.379L73.394 53.8746ZM70.559 50.7311H70.139V50.2221H70.559V50.7311ZM70.934 50.0724H70.514V49.5635H70.934V50.0724ZM71.339 50.7311H70.919V50.2221H71.339V50.7311Z" fill="black"/>
</g>
<mask id="mask23_1_595" style="mask-type:luminance" maskUnits="userSpaceOnUse" x="0" y="0" width="76" height="61">
<path d="M75.9141 0H0.914062V61H75.9141V0Z" fill="white"/>
</mask>
<g mask="url(#mask23_1_595)">
<path d="M74.6842 50.0127V52.8269C74.6842 53.5305 74.3842 53.8748 73.7992 53.8748H73.2742V53.4556H73.6642C73.9192 53.4556 74.0842 53.3658 74.1742 53.2012C74.2342 53.0964 74.2642 52.9018 74.2642 52.6323V50.0127H74.6842Z" fill="black"/>
</g>
<mask id="mask24_1_595" style="mask-type:luminance" maskUnits="userSpaceOnUse" x="0" y="0" width="76" height="61">
<path d="M75.9141 0H0.914062V61H75.9141V0Z" fill="white"/>
</mask>
<g mask="url(#mask24_1_595)">
<path d="M75.899 50.0127H75.479V53.8748H75.899V50.0127Z" fill="black"/>
</g>
<mask id="mask25_1_595" style="mask-type:luminance" maskUnits="userSpaceOnUse" x="0" y="0" width="76" height="61">
<path d="M75.9141 0H0.914062V61H75.9141V0Z" fill="white"/>
</mask>
<g mask="url(#mask25_1_595)">
<path d="M2.93906 58.7097V59.9222C2.93906 60.1467 2.89406 60.3413 2.81906 60.506C2.74406 60.6707 2.62406 60.7904 2.47406 60.8653C2.32406 60.9401 2.14406 60.985 1.93406 60.985C1.72406 60.985 1.52906 60.9401 1.37906 60.8653C1.22906 60.7904 1.10906 60.6707 1.03406 60.521C0.959063 60.3713 0.914062 60.1916 0.914062 59.9821V57.8115C0.914062 57.587 0.959063 57.3924 1.03406 57.2427C1.10906 57.093 1.22906 56.9583 1.37906 56.8834C1.52906 56.8086 1.70906 56.7637 1.91906 56.7637C2.12906 56.7637 2.30906 56.8086 2.44406 56.8834C2.57906 56.9583 2.69906 57.078 2.77406 57.2427C2.84906 57.3924 2.89406 57.587 2.89406 57.7966V57.9912H2.44406V57.7816C2.44406 57.6469 2.42906 57.5271 2.38406 57.4373C2.33906 57.3475 2.27906 57.2726 2.20406 57.2128C2.12906 57.1678 2.02406 57.1379 1.91906 57.1379C1.79906 57.1379 1.69406 57.1678 1.60406 57.2128C1.51406 57.2577 1.45406 57.3475 1.40906 57.4373C1.36406 57.5271 1.33406 57.6618 1.33406 57.7966V59.9671C1.33406 60.1018 1.36406 60.2066 1.40906 60.2964C1.45406 60.3862 1.52906 60.4611 1.61906 60.506C1.70906 60.5509 1.81406 60.5808 1.94906 60.5808C2.06906 60.5808 2.17406 60.5509 2.26406 60.506C2.35406 60.4611 2.41406 60.3713 2.45906 60.2815C2.50406 60.1767 2.53406 60.0569 2.53406 59.9222V59.0839H1.93406V58.6947L2.93906 58.7097Z" fill="black"/>
</g>
<mask id="mask26_1_595" style="mask-type:luminance" maskUnits="userSpaceOnUse" x="0" y="0" width="76" height="61">
<path d="M75.9141 0H0.914062V61H75.9141V0Z" fill="white"/>
</mask>
<g mask="url(#mask26_1_595)">
<path d="M3.44897 56.7935H3.86897V60.9549H3.44897V56.7935ZM3.73397 56.7935H5.23397V57.1827H3.73397V56.7935ZM3.73397 58.6946H5.09897V59.0838H3.73397V58.6946ZM3.73397 60.5657H5.23397V60.9549H3.73397V60.5657Z" fill="black"/>
</g>
<mask id="mask27_1_595" style="mask-type:luminance" maskUnits="userSpaceOnUse" x="0" y="0" width="76" height="61">
<path d="M75.9141 0H0.914062V61H75.9141V0Z" fill="white"/>
</mask>
<g mask="url(#mask27_1_595)">
<path d="M5.66895 56.7935H6.05895L7.37895 60.2065L7.30395 60.2813V56.7935H7.70895V60.94H7.31895L6.01395 57.5419L6.07395 57.4671V60.94H5.66895V56.7935Z" fill="black"/>
</g>
<mask id="mask28_1_595" style="mask-type:luminance" maskUnits="userSpaceOnUse" x="0" y="0" width="76" height="61">
<path d="M75.9141 0H0.914062V61H75.9141V0Z" fill="white"/>
</mask>
<g mask="url(#mask28_1_595)">
<path d="M8.29395 56.7935H8.71395V60.9549H8.29395V56.7935ZM8.56395 56.7935H10.0639V57.1827H8.56395V56.7935ZM8.56395 58.6946H9.92895V59.0838H8.56395V58.6946ZM8.56395 60.5657H10.0639V60.9549H8.56395V60.5657Z" fill="black"/>
</g>
<mask id="mask29_1_595" style="mask-type:luminance" maskUnits="userSpaceOnUse" x="0" y="0" width="76" height="61">
<path d="M75.9141 0H0.914062V61H75.9141V0Z" fill="white"/>
</mask>
<g mask="url(#mask29_1_595)">
<path d="M10.499 56.7935H10.919V60.9549H10.499V56.7935ZM10.754 58.8143H11.519C11.639 58.8143 11.744 58.7993 11.834 58.7395C11.924 58.6796 11.999 58.6197 12.044 58.5449C12.089 58.4551 12.119 58.3503 12.119 58.2305V57.7964C12.119 57.6617 12.089 57.5569 12.044 57.4671C11.999 57.3773 11.924 57.3024 11.834 57.2575C11.744 57.2126 11.639 57.1827 11.519 57.1827H10.754V56.7935H11.489C11.699 56.7935 11.894 56.8384 12.044 56.8982C12.194 56.9581 12.314 57.0779 12.404 57.2126C12.479 57.3623 12.524 57.527 12.524 57.7216V58.2006C12.524 58.4101 12.479 58.5748 12.404 58.7245C12.329 58.8742 12.209 58.979 12.044 59.0538C11.894 59.1287 11.699 59.1736 11.489 59.1736H10.754V58.8143ZM11.624 59.0688L11.984 58.9341L12.644 60.9549H12.164L11.624 59.0688Z" fill="black"/>
</g>
<mask id="mask30_1_595" style="mask-type:luminance" maskUnits="userSpaceOnUse" x="0" y="0" width="76" height="61">
<path d="M75.9141 0H0.914062V61H75.9141V0Z" fill="white"/>
</mask>
<g mask="url(#mask30_1_595)">
<path d="M13.7689 56.7935H14.2639L15.2239 60.9549H14.7589L14.0089 57.2575L13.2589 60.9549H12.7939L13.7689 56.7935ZM13.3339 59.5628H14.7439V59.952H13.3339V59.5628Z" fill="black"/>
</g>
<mask id="mask31_1_595" style="mask-type:luminance" maskUnits="userSpaceOnUse" x="0" y="0" width="76" height="61">
<path d="M75.9141 0H0.914062V61H75.9141V0Z" fill="white"/>
</mask>
<g mask="url(#mask31_1_595)">
<path d="M15.5991 56.7935H16.0191V60.9549H15.5991V56.7935ZM15.8841 60.5657H17.3241V60.9549H15.8841V60.5657Z" fill="black"/>
</g>
<mask id="mask32_1_595" style="mask-type:luminance" maskUnits="userSpaceOnUse" x="0" y="0" width="76" height="61">
<path d="M75.9141 0H0.914062V61H75.9141V0Z" fill="white"/>
</mask>
<g mask="url(#mask32_1_595)">
<path d="M19.379 60.8653C19.229 60.7755 19.124 60.6557 19.049 60.506C18.974 60.3413 18.929 60.1617 18.929 59.9372V57.8265C18.929 57.602 18.974 57.4074 19.049 57.2427C19.124 57.078 19.229 56.9583 19.379 56.8834C19.529 56.8086 19.694 56.7637 19.904 56.7637C20.114 56.7637 20.279 56.8086 20.429 56.8834C20.579 56.9583 20.684 57.093 20.759 57.2427C20.834 57.3924 20.879 57.587 20.879 57.8115V57.9612H20.459V57.8115C20.459 57.6768 20.444 57.557 20.399 57.4523C20.354 57.3475 20.294 57.2726 20.204 57.2277C20.114 57.1678 20.024 57.1529 19.904 57.1529C19.784 57.1529 19.694 57.1828 19.604 57.2277C19.514 57.2876 19.454 57.3624 19.409 57.4523C19.364 57.557 19.349 57.6768 19.349 57.8115V59.9222C19.349 60.0569 19.364 60.1767 19.409 60.2815C19.454 60.3862 19.514 60.4611 19.604 60.506C19.694 60.5659 19.784 60.5808 19.904 60.5808C20.024 60.5808 20.129 60.5509 20.204 60.506C20.294 60.4461 20.354 60.3713 20.399 60.2815C20.444 60.1767 20.459 60.0569 20.459 59.9222V59.7725H20.879V59.9222C20.879 60.1467 20.834 60.3413 20.759 60.491C20.684 60.6557 20.579 60.7754 20.429 60.8503C20.279 60.9401 20.114 60.97 19.904 60.97C19.709 61 19.529 60.9551 19.379 60.8653Z" fill="black"/>
</g>
<mask id="mask33_1_595" style="mask-type:luminance" maskUnits="userSpaceOnUse" x="0" y="0" width="76" height="61">
<path d="M75.9141 0H0.914062V61H75.9141V0Z" fill="white"/>
</mask>
<g mask="url(#mask33_1_595)">
<path d="M21.749 60.8654C21.599 60.7906 21.479 60.6708 21.389 60.5062C21.314 60.3565 21.269 60.1619 21.269 59.9373V57.7817C21.269 57.5572 21.314 57.3776 21.389 57.2129C21.464 57.0632 21.584 56.9435 21.749 56.8536C21.899 56.7788 22.094 56.7339 22.304 56.7339C22.514 56.7339 22.709 56.7788 22.859 56.8536C23.009 56.9285 23.129 57.0482 23.219 57.2129C23.294 57.3626 23.339 57.5572 23.339 57.7817V59.9373C23.339 60.1619 23.294 60.3415 23.219 60.5062C23.144 60.6708 23.024 60.7756 22.859 60.8654C22.709 60.9403 22.514 60.9852 22.304 60.9852C22.094 60.9852 21.899 60.9552 21.749 60.8654ZM22.649 60.5211C22.739 60.4762 22.814 60.4014 22.859 60.3116C22.904 60.2217 22.934 60.102 22.934 59.9673V57.7817C22.934 57.647 22.904 57.5422 22.859 57.4374C22.814 57.3476 22.739 57.2728 22.649 57.2279C22.559 57.183 22.439 57.153 22.319 57.153C22.184 57.153 22.079 57.183 21.989 57.2279C21.899 57.2728 21.824 57.3476 21.779 57.4374C21.734 57.5273 21.704 57.647 21.704 57.7817V59.9673C21.704 60.102 21.734 60.2068 21.779 60.3116C21.824 60.4014 21.899 60.4762 21.989 60.5211C22.079 60.566 22.199 60.596 22.319 60.596C22.439 60.596 22.544 60.566 22.649 60.5211Z" fill="black"/>
</g>
<mask id="mask34_1_595" style="mask-type:luminance" maskUnits="userSpaceOnUse" x="0" y="0" width="76" height="61">
<path d="M75.9141 0H0.914062V61H75.9141V0Z" fill="white"/>
</mask>
<g mask="url(#mask34_1_595)">
<path d="M23.8491 56.7935H24.2391L25.5591 60.2065L25.4991 60.2813V56.7935H25.9041V60.94H25.4991L24.1941 57.5419L24.2541 57.4671V60.94H23.8491V56.7935Z" fill="black"/>
</g>
<mask id="mask35_1_595" style="mask-type:luminance" maskUnits="userSpaceOnUse" x="0" y="0" width="76" height="61">
<path d="M75.9141 0H0.914062V61H75.9141V0Z" fill="white"/>
</mask>
<g mask="url(#mask35_1_595)">
<path d="M26.894 60.8802C26.744 60.8054 26.624 60.7006 26.564 60.5509C26.489 60.4012 26.459 60.2216 26.459 60.012V59.8024H26.864V60.012C26.864 60.2066 26.909 60.3563 27.014 60.4611C27.119 60.5659 27.269 60.6108 27.464 60.6108C27.659 60.6108 27.809 60.5659 27.914 60.4611C28.004 60.3563 28.064 60.2066 28.064 60.012V59.7725C28.064 59.6378 28.034 59.533 27.974 59.4282C27.914 59.3234 27.839 59.2486 27.749 59.1887C27.659 59.1288 27.539 59.054 27.389 58.9791H27.374H27.359L27.314 58.9642C27.119 58.8743 26.969 58.7845 26.864 58.7097C26.744 58.6348 26.654 58.5301 26.579 58.4103C26.504 58.2905 26.459 58.1259 26.459 57.9313V57.7217C26.459 57.5121 26.504 57.3325 26.564 57.1828C26.639 57.0331 26.744 56.9283 26.894 56.8685C27.044 56.7936 27.224 56.7637 27.449 56.7637C27.659 56.7637 27.854 56.7936 27.989 56.8685C28.139 56.9433 28.244 57.0481 28.319 57.1978C28.394 57.3475 28.424 57.5271 28.424 57.7367V57.9612H28.019V57.7367C28.019 57.5421 27.974 57.3924 27.869 57.2876C27.779 57.1828 27.629 57.1379 27.434 57.1379C27.239 57.1379 27.089 57.1828 26.984 57.2876C26.879 57.3774 26.834 57.5271 26.834 57.7067V57.9163C26.834 58.051 26.864 58.1558 26.924 58.2456C26.984 58.3355 27.059 58.4103 27.164 58.4702C27.254 58.5301 27.389 58.6049 27.554 58.6797C27.569 58.6797 27.584 58.6947 27.599 58.6947C27.614 58.6947 27.629 58.7097 27.644 58.7097C27.659 58.7097 27.659 58.7097 27.659 58.7246C27.659 58.7246 27.674 58.7247 27.674 58.7396C27.824 58.8145 27.959 58.9043 28.064 58.9791C28.169 59.054 28.259 59.1737 28.334 59.2935C28.409 59.4282 28.439 59.5929 28.439 59.7725V60.042C28.439 60.2665 28.409 60.4461 28.334 60.5808C28.259 60.7305 28.154 60.8353 28.004 60.9102C27.854 60.985 27.674 61.015 27.449 61.015C27.224 61 27.044 60.9551 26.894 60.8802Z" fill="black"/>
</g>
<mask id="mask36_1_595" style="mask-type:luminance" maskUnits="userSpaceOnUse" x="0" y="0" width="76" height="61">
<path d="M75.9141 0H0.914062V61H75.9141V0Z" fill="white"/>
</mask>
<g mask="url(#mask36_1_595)">
<path d="M28.709 56.7935H30.734V57.1827H28.709V56.7935ZM29.519 57.1378H29.939V60.9549H29.519V57.1378Z" fill="black"/>
</g>
<mask id="mask37_1_595" style="mask-type:luminance" maskUnits="userSpaceOnUse" x="0" y="0" width="76" height="61">
<path d="M75.9141 0H0.914062V61H75.9141V0Z" fill="white"/>
</mask>
<g mask="url(#mask37_1_595)">
<path d="M31.1392 56.7935H31.5592V60.9549H31.1392V56.7935ZM31.3942 58.8143H32.1592C32.2792 58.8143 32.3842 58.7993 32.4742 58.7395C32.5642 58.6946 32.6242 58.6197 32.6842 58.5449C32.7292 58.4551 32.7592 58.3503 32.7592 58.2305V57.7964C32.7592 57.6617 32.7292 57.5569 32.6842 57.4671C32.6392 57.3773 32.5642 57.3024 32.4742 57.2575C32.3842 57.2126 32.2792 57.1827 32.1592 57.1827H31.3942V56.7935H32.1292C32.3392 56.7935 32.5342 56.8384 32.6842 56.8982C32.8342 56.9581 32.9542 57.0779 33.0442 57.2126C33.1192 57.3623 33.1642 57.527 33.1642 57.7216V58.2006C33.1642 58.4101 33.1192 58.5748 33.0442 58.7245C32.9692 58.8742 32.8492 58.979 32.6842 59.0538C32.5342 59.1287 32.3392 59.1736 32.1292 59.1736H31.3942V58.8143ZM32.2492 59.0688L32.6092 58.9341L33.2692 60.9549H32.7892L32.2492 59.0688Z" fill="black"/>
</g>
<mask id="mask38_1_595" style="mask-type:luminance" maskUnits="userSpaceOnUse" x="0" y="0" width="76" height="61">
<path d="M75.9141 0H0.914062V61H75.9141V0Z" fill="white"/>
</mask>
<g mask="url(#mask38_1_595)">
<path d="M34.0491 60.8801C33.9141 60.8052 33.8091 60.7005 33.7341 60.5508C33.6591 60.4011 33.6292 60.2214 33.6292 60.0119V56.7935H34.0491V60.0418C34.0491 60.2214 34.0941 60.3711 34.1841 60.4609C34.2741 60.5508 34.4091 60.5957 34.5891 60.5957C34.7691 60.5957 34.9041 60.5508 34.9941 60.4609C35.0841 60.3711 35.1292 60.2364 35.1292 60.0418V56.7935H35.5491V60.0119C35.5491 60.2364 35.5191 60.416 35.4441 60.5508C35.3691 60.7005 35.2642 60.8052 35.1292 60.8801C34.9942 60.9549 34.8142 60.9849 34.6042 60.9849C34.3792 60.9998 34.1991 60.9549 34.0491 60.8801Z" fill="black"/>
</g>
<mask id="mask39_1_595" style="mask-type:luminance" maskUnits="userSpaceOnUse" x="0" y="0" width="76" height="61">
<path d="M75.9141 0H0.914062V61H75.9141V0Z" fill="white"/>
</mask>
<g mask="url(#mask39_1_595)">
<path d="M36.4041 60.8653C36.2541 60.7755 36.1491 60.6557 36.0741 60.506C35.9991 60.3413 35.9541 60.1617 35.9541 59.9372V57.8265C35.9541 57.602 35.9991 57.4074 36.0741 57.2427C36.1491 57.078 36.2541 56.9583 36.4041 56.8834C36.5541 56.7936 36.7191 56.7637 36.9291 56.7637C37.1391 56.7637 37.3041 56.8086 37.4541 56.8834C37.6041 56.9583 37.7091 57.093 37.7841 57.2427C37.8591 57.3924 37.9041 57.587 37.9041 57.8115V57.9612H37.4841V57.8115C37.4841 57.6768 37.4691 57.557 37.4241 57.4523C37.3791 57.3475 37.3191 57.2726 37.2291 57.2277C37.1391 57.1678 37.0491 57.1529 36.9291 57.1529C36.8091 57.1529 36.7191 57.1828 36.6291 57.2277C36.5391 57.2726 36.4791 57.3624 36.4341 57.4523C36.3891 57.557 36.3741 57.6768 36.3741 57.8115V59.9222C36.3741 60.0569 36.3891 60.1767 36.4341 60.2815C36.4791 60.3862 36.5391 60.4611 36.6291 60.506C36.7191 60.5659 36.8091 60.5808 36.9291 60.5808C37.0491 60.5808 37.1541 60.5509 37.2291 60.506C37.3191 60.4461 37.3791 60.3713 37.4241 60.2815C37.4691 60.1767 37.4841 60.0569 37.4841 59.9222V59.7725H37.9041V59.9222C37.9041 60.1467 37.8591 60.3413 37.7841 60.491C37.7091 60.6557 37.6041 60.7754 37.4541 60.8503C37.3041 60.9401 37.1391 60.97 36.9291 60.97C36.7341 61 36.5541 60.9551 36.4041 60.8653Z" fill="black"/>
</g>
<mask id="mask40_1_595" style="mask-type:luminance" maskUnits="userSpaceOnUse" x="0" y="0" width="76" height="61">
<path d="M75.9141 0H0.914062V61H75.9141V0Z" fill="white"/>
</mask>
<g mask="url(#mask40_1_595)">
<path d="M38.1292 56.7935H40.1542V57.1827H38.1292V56.7935ZM38.9241 57.1378H39.3442V60.9549H38.9241V57.1378Z" fill="black"/>
</g>
<mask id="mask41_1_595" style="mask-type:luminance" maskUnits="userSpaceOnUse" x="0" y="0" width="76" height="61">
<path d="M75.9141 0H0.914062V61H75.9141V0Z" fill="white"/>
</mask>
<g mask="url(#mask41_1_595)">
<path d="M41.024 56.7935H40.604V60.9549H41.024V56.7935Z" fill="black"/>
</g>
<mask id="mask42_1_595" style="mask-type:luminance" maskUnits="userSpaceOnUse" x="0" y="0" width="76" height="61">
<path d="M75.9141 0H0.914062V61H75.9141V0Z" fill="white"/>
</mask>
<g mask="url(#mask42_1_595)">
<path d="M42.134 60.8654C41.984 60.7906 41.8641 60.6708 41.7741 60.5062C41.6991 60.3565 41.6541 60.1619 41.6541 59.9373V57.7817C41.6541 57.5572 41.6991 57.3776 41.7741 57.2129C41.8491 57.0632 41.969 56.9435 42.134 56.8536C42.284 56.7788 42.4791 56.7339 42.6891 56.7339C42.8991 56.7339 43.0941 56.7788 43.2441 56.8536C43.3941 56.9285 43.5141 57.0482 43.6041 57.2129C43.6791 57.3626 43.7241 57.5572 43.7241 57.7817V59.9373C43.7241 60.1619 43.6791 60.3415 43.6041 60.5062C43.5291 60.6708 43.4091 60.7756 43.2441 60.8654C43.0941 60.9403 42.8991 60.9852 42.6891 60.9852C42.4791 60.9852 42.284 60.9552 42.134 60.8654ZM43.0191 60.5211C43.1091 60.4762 43.1841 60.4014 43.2291 60.3116C43.2741 60.2217 43.3041 60.102 43.3041 59.9673V57.7817C43.3041 57.647 43.2741 57.5422 43.2291 57.4374C43.1841 57.3476 43.1091 57.2728 43.0191 57.2279C42.9291 57.183 42.8091 57.153 42.6891 57.153C42.5541 57.153 42.449 57.183 42.359 57.2279C42.269 57.2728 42.1941 57.3476 42.1491 57.4374C42.1041 57.5273 42.0741 57.647 42.0741 57.7817V59.9673C42.0741 60.102 42.1041 60.2068 42.1491 60.3116C42.1941 60.4014 42.269 60.4762 42.359 60.5211C42.449 60.566 42.5691 60.596 42.6891 60.596C42.8241 60.596 42.9291 60.566 43.0191 60.5211Z" fill="black"/>
</g>
<mask id="mask43_1_595" style="mask-type:luminance" maskUnits="userSpaceOnUse" x="0" y="0" width="76" height="61">
<path d="M75.9141 0H0.914062V61H75.9141V0Z" fill="white"/>
</mask>
<g mask="url(#mask43_1_595)">
<path d="M44.2341 56.7935H44.6241L45.9441 60.2065L45.8691 60.2813V56.7935H46.2741V60.94H45.8841L44.5641 57.5419L44.6391 57.4671V60.94H44.2341V56.7935Z" fill="black"/>
</g>
<mask id="mask44_1_595" style="mask-type:luminance" maskUnits="userSpaceOnUse" x="0" y="0" width="76" height="61">
<path d="M75.9141 0H0.914062V61H75.9141V0Z" fill="white"/>
</mask>
<g mask="url(#mask44_1_595)">
<path d="M48.4791 60.8653C48.3291 60.7755 48.2241 60.6557 48.1491 60.506C48.0741 60.3413 48.0291 60.1617 48.0291 59.9372V57.8265C48.0291 57.602 48.0741 57.4074 48.1491 57.2427C48.2241 57.078 48.3291 56.9583 48.4791 56.8834C48.6291 56.7936 48.7941 56.7637 49.0041 56.7637C49.2141 56.7637 49.3791 56.8086 49.5291 56.8834C49.6791 56.9583 49.784 57.093 49.859 57.2427C49.934 57.3924 49.9791 57.587 49.9791 57.8115V57.9612H49.559V57.8115C49.559 57.6768 49.5441 57.557 49.4991 57.4523C49.4541 57.3475 49.3941 57.2726 49.3041 57.2277C49.2291 57.1678 49.1241 57.1529 49.0041 57.1529C48.8841 57.1529 48.7941 57.1828 48.7041 57.2277C48.6141 57.2726 48.554 57.3624 48.509 57.4523C48.464 57.557 48.4491 57.6768 48.4491 57.8115V59.9222C48.4491 60.0569 48.464 60.1767 48.509 60.2815C48.554 60.3862 48.6141 60.4611 48.7041 60.506C48.7791 60.5659 48.8841 60.5808 49.0041 60.5808C49.1241 60.5808 49.2291 60.5509 49.3041 60.506C49.3791 60.4461 49.4541 60.3713 49.4991 60.2815C49.5441 60.1767 49.559 60.0569 49.559 59.9222V59.7725H49.9791V59.9222C49.9791 60.1467 49.934 60.3413 49.859 60.491C49.784 60.6557 49.6791 60.7754 49.5291 60.8503C49.3791 60.9401 49.2141 60.97 49.0041 60.97C48.7941 61 48.6141 60.9551 48.4791 60.8653Z" fill="black"/>
</g>
<mask id="mask45_1_595" style="mask-type:luminance" maskUnits="userSpaceOnUse" x="0" y="0" width="76" height="61">
<path d="M75.9141 0H0.914062V61H75.9141V0Z" fill="white"/>
</mask>
<g mask="url(#mask45_1_595)">
<path d="M50.834 60.8654C50.684 60.7906 50.564 60.6708 50.474 60.5062C50.399 60.3565 50.354 60.1619 50.354 59.9373V57.7817C50.354 57.5572 50.399 57.3776 50.474 57.2129C50.549 57.0632 50.669 56.9435 50.834 56.8536C50.984 56.7788 51.179 56.7339 51.389 56.7339C51.599 56.7339 51.794 56.7788 51.944 56.8536C52.094 56.9285 52.214 57.0482 52.304 57.2129C52.379 57.3626 52.424 57.5572 52.424 57.7817V59.9373C52.424 60.1619 52.379 60.3415 52.304 60.5062C52.229 60.6708 52.109 60.7756 51.944 60.8654C51.794 60.9403 51.599 60.9852 51.389 60.9852C51.179 60.9852 50.999 60.9552 50.834 60.8654ZM51.734 60.5211C51.824 60.4762 51.899 60.4014 51.944 60.3116C51.989 60.2217 52.019 60.102 52.019 59.9673V57.7817C52.019 57.647 51.989 57.5422 51.944 57.4374C51.899 57.3476 51.824 57.2728 51.734 57.2279C51.644 57.183 51.524 57.153 51.404 57.153C51.269 57.153 51.164 57.183 51.074 57.2279C50.984 57.2728 50.909 57.3476 50.864 57.4374C50.819 57.5273 50.789 57.647 50.789 57.7817V59.9673C50.789 60.102 50.819 60.2068 50.864 60.3116C50.909 60.4014 50.984 60.4762 51.074 60.5211C51.164 60.566 51.284 60.596 51.404 60.596C51.524 60.596 51.644 60.566 51.734 60.5211Z" fill="black"/>
</g>
<mask id="mask46_1_595" style="mask-type:luminance" maskUnits="userSpaceOnUse" x="0" y="0" width="76" height="61">
<path d="M75.9141 0H0.914062V61H75.9141V0Z" fill="white"/>
</mask>
<g mask="url(#mask46_1_595)">
<path d="M55.229 56.7935H55.634V60.9549H55.229V57.6168L55.259 57.7964L54.464 60.3711H54.119L53.324 57.8563L53.339 57.6168V60.9549H52.949V56.7935H53.354L54.284 59.8173L55.229 56.7935Z" fill="black"/>
</g>
<mask id="mask47_1_595" style="mask-type:luminance" maskUnits="userSpaceOnUse" x="0" y="0" width="76" height="61">
<path d="M75.9141 0H0.914062V61H75.9141V0Z" fill="white"/>
</mask>
<g mask="url(#mask47_1_595)">
<path d="M56.2041 56.7938H56.6241V60.9553H56.2041V56.7938ZM56.5041 58.9494H57.3891C57.4791 58.9494 57.5391 58.9344 57.6141 58.8895C57.6891 58.8446 57.7191 58.7997 57.7491 58.7248C57.7791 58.65 57.7941 58.5751 57.7941 58.4703V57.662C57.7941 57.5572 57.7791 57.4674 57.7491 57.3926C57.7191 57.3177 57.6741 57.2578 57.6141 57.2279C57.5541 57.183 57.4791 57.168 57.3891 57.168H56.5041V56.7788H57.3741C57.5541 56.7788 57.7041 56.8087 57.8241 56.8836C57.9441 56.9584 58.0491 57.0483 58.1091 57.183C58.1691 57.3177 58.2141 57.4674 58.2141 57.662V58.4703C58.2141 58.65 58.1841 58.7997 58.1091 58.9344C58.0341 59.0691 57.9441 59.1589 57.8241 59.2338C57.7041 59.3086 57.5541 59.3386 57.3741 59.3386H56.5041V58.9494Z" fill="black"/>
</g>
<mask id="mask48_1_595" style="mask-type:luminance" maskUnits="userSpaceOnUse" x="0" y="0" width="76" height="61">
<path d="M75.9141 0H0.914062V61H75.9141V0Z" fill="white"/>
</mask>
<g mask="url(#mask48_1_595)">
<path d="M59.2641 56.7935H59.7591L60.7191 60.9549H60.2691L59.5191 57.2575L58.7691 60.9549H58.3191L59.2641 56.7935ZM58.8441 59.5628H60.2541V59.952H58.8441V59.5628Z" fill="black"/>
</g>
<mask id="mask49_1_595" style="mask-type:luminance" maskUnits="userSpaceOnUse" x="0" y="0" width="76" height="61">
<path d="M75.9141 0H0.914062V61H75.9141V0Z" fill="white"/>
</mask>
<g mask="url(#mask49_1_595)">
<path d="M61.094 56.7935H61.484L62.804 60.2065L62.729 60.2813V56.7935H63.134V60.94H62.744L61.439 57.5419L61.499 57.4671V60.94H61.094V56.7935Z" fill="black"/>
</g>
<mask id="mask50_1_595" style="mask-type:luminance" maskUnits="userSpaceOnUse" x="0" y="0" width="76" height="61">
<path d="M75.9141 0H0.914062V61H75.9141V0Z" fill="white"/>
</mask>
<g mask="url(#mask50_1_595)">
<path d="M64.799 59.2035V60.9549H64.379V59.2035L63.479 56.7935H63.899L64.589 58.7245L65.234 56.7935H65.654L64.799 59.2035Z" fill="black"/>
</g>
<mask id="mask51_1_595" style="mask-type:luminance" maskUnits="userSpaceOnUse" x="0" y="0" width="76" height="61">
<path d="M75.9141 0H0.914062V61H75.9141V0Z" fill="white"/>
</mask>
<g mask="url(#mask51_1_595)">
<path d="M67.064 56.7935H67.484V60.9549H67.064V56.7935ZM67.364 60.5657H68.804V60.9549H67.364V60.5657Z" fill="black"/>
</g>
<mask id="mask52_1_595" style="mask-type:luminance" maskUnits="userSpaceOnUse" x="0" y="0" width="76" height="61">
<path d="M75.9141 0H0.914062V61H75.9141V0Z" fill="white"/>
</mask>
<g mask="url(#mask52_1_595)">
<path d="M69.6591 60.4761H69.1941V60.9401H69.6591V60.4761Z" fill="black"/>
</g>
<mask id="mask53_1_595" style="mask-type:luminance" maskUnits="userSpaceOnUse" x="0" y="0" width="76" height="61">
<path d="M75.9141 0H0.914062V61H75.9141V0Z" fill="white"/>
</mask>
<g mask="url(#mask53_1_595)">
<path d="M70.2141 56.7935H70.6341V60.9549H70.2141V56.7935ZM70.5141 60.5657H71.9541V60.9549H70.5141V60.5657Z" fill="black"/>
</g>
<mask id="mask54_1_595" style="mask-type:luminance" maskUnits="userSpaceOnUse" x="0" y="0" width="76" height="61">
<path d="M75.9141 0H0.914062V61H75.9141V0Z" fill="white"/>
</mask>
<g mask="url(#mask54_1_595)">
<path d="M72.809 60.4761H72.344V60.9401H72.809V60.4761Z" fill="black"/>
</g>
<mask id="mask55_1_595" style="mask-type:luminance" maskUnits="userSpaceOnUse" x="0" y="0" width="76" height="61">
<path d="M75.9141 0H0.914062V61H75.9141V0Z" fill="white"/>
</mask>
<g mask="url(#mask55_1_595)">
<path d="M73.6341 60.8653C73.4841 60.7755 73.3791 60.6557 73.3041 60.506C73.2291 60.3413 73.1841 60.1617 73.1841 59.9372V57.8265C73.1841 57.602 73.2291 57.4074 73.3041 57.2427C73.3791 57.078 73.4841 56.9583 73.6341 56.8834C73.7841 56.7936 73.9491 56.7637 74.1591 56.7637C74.3691 56.7637 74.5341 56.8086 74.6841 56.8834C74.8341 56.9583 74.9391 57.093 75.0141 57.2427C75.0891 57.3924 75.1341 57.587 75.1341 57.8115V57.9612H74.7141V57.8115C74.7141 57.6768 74.6991 57.557 74.6541 57.4523C74.6091 57.3475 74.5491 57.2726 74.4591 57.2277C74.3841 57.1678 74.2791 57.1529 74.1591 57.1529C74.0391 57.1529 73.9491 57.1828 73.8591 57.2277C73.7691 57.2726 73.7091 57.3624 73.6641 57.4523C73.6191 57.557 73.6041 57.6768 73.6041 57.8115V59.9222C73.6041 60.0569 73.6191 60.1767 73.6641 60.2815C73.7091 60.3862 73.7691 60.4611 73.8591 60.506C73.9341 60.5659 74.0391 60.5808 74.1591 60.5808C74.2791 60.5808 74.3841 60.5509 74.4591 60.506C74.5341 60.4461 74.6091 60.3713 74.6541 60.2815C74.6991 60.1767 74.7141 60.0569 74.7141 59.9222V59.7725H75.1341V59.9222C75.1341 60.1467 75.0891 60.3413 75.0141 60.491C74.9391 60.6557 74.8341 60.7754 74.6841 60.8503C74.5341 60.9401 74.3691 60.97 74.1591 60.97C73.9641 61 73.7841 60.9551 73.6341 60.8653Z" fill="black"/>
</g>
<mask id="mask56_1_595" style="mask-type:luminance" maskUnits="userSpaceOnUse" x="0" y="0" width="76" height="61">
<path d="M75.9141 0H0.914062V61H75.9141V0Z" fill="white"/>
</mask>
<g mask="url(#mask56_1_595)">
<path d="M75.914 60.4761H75.449V60.9401H75.914V60.4761Z" fill="black"/>
</g>
</g>
<defs>
<linearGradient id="paint0_linear_1_595" x1="28.463" y1="28.0946" x2="61.6505" y2="28.0946" gradientUnits="userSpaceOnUse">
<stop stop-color="#FEE88F"/>
<stop offset="0.9987" stop-color="#944A21"/>
<stop offset="1" stop-color="#944A21"/>
</linearGradient>
<linearGradient id="paint1_linear_1_595" x1="65.289" y1="8.95219" x2="22.6041" y2="31.6947" gradientUnits="userSpaceOnUse">
<stop stop-color="#FEE88F"/>
<stop offset="0.9987" stop-color="#944A21"/>
<stop offset="1" stop-color="#944A21"/>
</linearGradient>
<linearGradient id="paint2_linear_1_595" x1="10.3236" y1="10.5392" x2="61.6506" y2="10.5392" gradientUnits="userSpaceOnUse">
<stop stop-color="#FEE88F"/>
<stop offset="1" stop-color="#944A21"/>
</linearGradient>
<clipPath id="clip0_1_595">
<rect width="75" height="61" fill="white" transform="translate(0.914062)"/>
</clipPath>
</defs>
</svg>
