<svg width="139" height="37" viewBox="0 0 139 37" fill="none" xmlns="http://www.w3.org/2000/svg">
<g clip-path="url(#clip0_1_945)">
<path d="M139.114 34.3999L1.11401 36.0999V38.6999L139.114 36.9999V34.3999Z" fill="black"/>
<path d="M138.714 0L0.714111 1.7V4.3L138.714 2.6V0Z" fill="black"/>
<path d="M52.0142 15.7V12L39.8142 12.2H35.0142V15.9V18.5V21.8V24.4V28.1H39.8142L51.9142 27.9V24.2L39.7142 24.4V21.8L51.1142 21.7V18.4L39.6142 18.5V15.9L51.7142 15.7H52.0142Z" fill="black"/>
<path d="M68.4141 23.7999V11.8999C68.3141 11.8999 63.4141 11.8999 63.4141 11.8999V23.7999C63.5141 23.7999 63.6141 27.4999 63.6141 27.4999H68.5141L79.0141 27.2999V23.5999L68.5141 23.6999L68.4141 23.7999Z" fill="black"/>
<path d="M104.214 11.5H97.914L89.614 27.3H94.914L96.314 24.6H105.814C105.814 24.5 107.514 27.2 107.514 27.2H112.714L104.214 11.6V11.5ZM98.114 21.2L100.914 15.5L104.114 21.1H98.214L98.114 21.2Z" fill="black"/>
<path d="M128.414 23.0002V11.2002C128.314 11.2002 123.314 11.2002 123.314 11.2002V23.0002C123.414 23.0002 123.514 26.8002 123.514 26.8002H128.414L138.814 26.6002V22.8002L128.314 22.9002L128.414 23.0002Z" fill="black"/>
<path d="M0.914062 7.0002L1.21406 34.1002L28.1141 33.8002L27.8141 6.7002L0.914062 7.0002ZM23.7141 16.0002H17.0141L17.2141 28.2002H12.4141L12.2141 16.2002H5.51406V12.8002L23.7141 12.6002V16.1002V16.0002Z" fill="black"/>
</g>
<defs>
<clipPath id="clip0_1_945">
<rect width="138" height="37" fill="white" transform="translate(0.914062)"/>
</clipPath>
</defs>
</svg>
