<svg width="102" height="37" viewBox="0 0 102 37" fill="none" xmlns="http://www.w3.org/2000/svg">
<g clip-path="url(#clip0_1_956)">
<path d="M51.2109 9.47796C53.0381 8.81906 54.2562 7.55193 54.2562 5.47385C54.2562 2.33138 51.3632 0.962891 47.7089 0.962891H43.5471V20.578H48.9778C53.0888 20.578 56.6923 18.9054 56.6923 15.1547C56.7431 12.1643 54.5099 10.0862 51.2109 9.47796ZM48.7748 19.4629H46.4908V9.98481V8.86974V2.07796H48.0135C50.7034 2.07796 51.617 3.39577 51.617 5.37248C51.617 5.67659 51.82 8.92043 49.1808 9.52864C49.8406 9.6807 51.1094 10.1369 52.1245 11.0492C53.1903 11.9108 53.6979 13.2793 53.6979 14.8506C53.6979 17.5875 52.1753 19.4629 48.7748 19.4629Z" fill="black"/>
<path d="M2.28441 19.9192C3.60401 20.6288 5.32964 20.9329 6.8015 20.9329C9.33919 20.9329 13.8055 20.0205 13.8055 15.5603C13.8055 12.4685 11.5724 10.6945 7.81657 8.21096C6.09095 6.99452 3.75627 5.77808 3.75627 3.75069C3.80703 2.07808 5.32964 1.06438 7.4613 1.06438C9.59296 1.06438 11.2678 2.07808 11.6739 2.33151L10.608 0.506849C9.89748 0.10137 8.32411 0 7.4613 0C4.61909 0 1.32009 1.21644 1.32009 4.56164C1.32009 7.24795 3.401 8.71781 6.90301 11.2521C8.52713 12.4178 11.0648 14.2425 11.0648 16.4726C11.0648 18.5507 9.4407 19.8685 6.8015 19.8685C3.70552 19.8178 1.47235 17.9932 0.914062 17.4863L2.28441 19.9192Z" fill="black"/>
<path d="M27.8135 20.9326C22.5859 20.9326 18.4749 16.7258 18.4749 10.7957C18.4749 4.96691 22.5352 0.658691 27.8135 0.658691C33.0919 0.658691 37.1015 4.96691 37.1015 10.7957C37.1522 16.7258 33.0919 20.9326 27.8135 20.9326ZM34.2593 10.7957C34.2593 5.47373 31.6708 1.77376 27.8135 1.77376C23.9563 1.77376 21.3678 5.52442 21.3678 10.7957C21.4186 16.1176 23.9563 19.8176 27.8135 19.8176C31.6708 19.8176 34.2593 16.1176 34.2593 10.7957Z" fill="black"/>
<path d="M96.2804 14.8001H88.7181L86.3834 20.5782H85.2668L93.4382 0.557617L101.66 20.5782H98.6151L96.2804 14.8001ZM89.1241 13.7357H95.8236L92.4739 5.57542L89.1241 13.7357Z" fill="black"/>
<path d="M76.7908 0.962891V9.0218H66.2848V0.962891H63.3918V20.578H66.2848V10.1369H76.7908V20.578H79.6331V0.962891H76.7908Z" fill="black"/>
<path d="M12.2829 32.3875V32.6409H11.1663V32.4889C11.1663 31.9314 10.7095 31.3738 9.89744 31.3738C8.88237 31.3738 8.32408 32.1341 8.32408 33.0971V33.8574C8.32408 34.8204 8.83161 35.5807 9.89744 35.5807C10.7095 35.5807 11.1663 35.0738 11.1663 34.4656V34.2629H12.2829V34.5163C12.2829 35.5807 11.4708 36.5437 9.84669 36.5437C8.12106 36.5437 7.15674 35.4286 7.15674 33.8574V33.1478C7.15674 31.5766 8.17181 30.4615 9.89744 30.4615C11.5216 30.4108 12.2829 31.3231 12.2829 32.3875Z" fill="black"/>
<path d="M19.7944 33.148V33.7562C19.7944 35.5302 18.7286 36.4932 17.0537 36.4932C15.3788 36.4932 14.313 35.5302 14.313 33.7562V33.148C14.313 31.3741 15.3788 30.3604 17.0537 30.3604C18.7286 30.411 19.7944 31.3741 19.7944 33.148ZM15.4803 33.148V33.8069C15.4803 34.9727 16.0386 35.5809 17.0537 35.5809C18.0688 35.5809 18.6271 35.0234 18.6271 33.8069V33.148C18.6271 31.9823 18.0688 31.3741 17.0537 31.3741C16.0386 31.3741 15.4803 31.9316 15.4803 33.148Z" fill="black"/>
<path d="M23.2457 30.563L26.1387 34.6178V30.563H27.2045V36.3918H26.0879L23.195 32.2863V36.3918H22.1292V30.563H23.2457Z" fill="black"/>
<path d="M34.4115 32.2358V32.3878H33.2441V32.2358C33.2441 31.7289 32.8888 31.3235 31.9753 31.3235C31.2647 31.3235 30.8079 31.6276 30.8079 32.0837C30.8079 32.5906 31.1632 32.692 32.2798 32.9961C33.9547 33.3509 34.513 33.7563 34.513 34.77C34.513 35.8851 33.4979 36.544 32.0768 36.544C30.4019 36.544 29.5898 35.7837 29.5898 34.6687V34.4659H30.7572V34.5673C30.7572 35.1755 31.214 35.581 32.1275 35.581C32.8888 35.581 33.3456 35.2769 33.3456 34.8207C33.3456 34.3139 33.0411 34.1618 31.823 33.8577C30.2496 33.5029 29.6406 33.0974 29.6406 32.1344C29.6406 31.1207 30.5542 30.4111 32.026 30.4111C33.6501 30.4111 34.4115 31.2221 34.4115 32.2358Z" fill="black"/>
<path d="M41.2633 30.563V31.526H39.2839V36.3918H38.1166V31.526H36.1372V30.563H41.2633Z" fill="black"/>
<path d="M44.5116 36.3918H43.3442V30.563H46.1357C47.4553 30.563 48.1151 31.2219 48.1151 32.2356V32.5397C48.1151 33.3 47.6583 33.9082 46.8462 34.1109L48.3689 36.4425H47.1L45.6789 34.263H44.4608L44.5116 36.3918ZM44.5116 33.3H45.9327C46.694 33.3 47.0493 32.9959 47.0493 32.489V32.2356C47.0493 31.7287 46.7447 31.4246 45.9834 31.4246H44.5116V33.3Z" fill="black"/>
<path d="M51.5663 30.563V34.1617C51.5663 35.074 52.0738 35.5808 52.9366 35.5808C53.7995 35.5808 54.307 35.074 54.307 34.1617V30.563H55.4236V34.1109C55.4236 35.6315 54.5608 36.5438 52.9366 36.5438C51.3125 36.5438 50.4497 35.6822 50.4497 34.1109V30.563H51.5663Z" fill="black"/>
<path d="M62.7321 32.3875V32.6409H61.6155V32.4889C61.6155 31.9314 61.1587 31.3738 60.2959 31.3738C59.2808 31.3738 58.7225 32.1341 58.7225 33.0971V33.8574C58.7225 34.8204 59.2301 35.5807 60.2959 35.5807C61.1587 35.5807 61.6155 35.0738 61.6155 34.4656V34.2629H62.7321V34.5163C62.7321 35.5807 61.92 36.5437 60.2959 36.5437C58.5703 36.5437 57.606 35.4286 57.606 33.8574V33.1478C57.606 31.5766 58.621 30.4615 60.3467 30.4615C61.9708 30.4108 62.7321 31.3231 62.7321 32.3875Z" fill="black"/>
<path d="M69.5839 30.563V31.526H67.5537V36.3918H66.4372V31.526H64.4578V30.563H69.5839Z" fill="black"/>
<path d="M72.8829 30.563H71.7156V36.4425H72.8829V30.563Z" fill="black"/>
<path d="M80.7497 33.148V33.7562C80.7497 35.5302 79.6839 36.4932 78.009 36.4932C76.3341 36.4932 75.2683 35.5302 75.2683 33.7562V33.148C75.2683 31.3741 76.3341 30.3604 78.009 30.3604C79.6839 30.411 80.7497 31.3741 80.7497 33.148ZM76.4356 33.148V33.8069C76.4356 34.9727 76.9939 35.5809 78.009 35.5809C79.0241 35.5809 79.5824 35.0234 79.5824 33.8069V33.148C79.5824 31.9823 79.0241 31.3741 78.009 31.3741C76.9939 31.3741 76.4356 31.9316 76.4356 33.148Z" fill="black"/>
<path d="M84.2011 30.563L87.094 34.6178V30.563H88.1598V36.3918H87.0433L84.1503 32.2863H84.0995V36.3918H83.0845V30.563H84.2011Z" fill="black"/>
<path d="M95.3667 32.2358V32.3878H94.1994V32.2358C94.1994 31.7289 93.8441 31.3235 92.8798 31.3235C92.1693 31.3235 91.7125 31.6276 91.7125 32.0837C91.7125 32.5906 92.0678 32.692 93.1843 32.9961C94.8592 33.3509 95.4175 33.7563 95.4175 34.77C95.4175 35.8851 94.4024 36.544 92.9813 36.544C91.2557 36.544 90.4944 35.7837 90.4944 34.6687V34.4659H91.6617V34.5673C91.6617 35.1755 92.1185 35.581 93.0321 35.581C93.7934 35.581 94.2502 35.2769 94.2502 34.8207C94.2502 34.3139 93.9456 34.1618 92.7275 33.8577C91.1542 33.5029 90.5451 33.0974 90.5451 32.1344C90.5451 31.1207 91.4587 30.4111 92.8798 30.4111C94.6054 30.4111 95.3667 31.2221 95.3667 32.2358Z" fill="black"/>
</g>
<defs>
<clipPath id="clip0_1_956">
<rect width="101" height="37" fill="white" transform="translate(0.914062)"/>
</clipPath>
</defs>
</svg>
