<svg width="167" height="37" viewBox="0 0 167 37" fill="none" xmlns="http://www.w3.org/2000/svg">
<g clip-path="url(#clip0_1_975)">
<path d="M40.4419 15.8123L20.8026 8.77539L14.699 16.0192C13.4949 17.468 13.4534 19.0823 14.699 19.4962L20.761 21.6901L41.2308 17.8405C41.5214 16.9299 41.2308 16.102 40.4419 15.8123Z" fill="#5BA646"/>
<path d="M24.9961 5.75369C23.9165 5.96065 22.7955 6.62295 21.9236 7.57498L37.0786 12.8319L38.6149 12.5422C40.774 12.1283 43.0576 10.7623 44.6354 8.89958L52.1091 0L24.9961 5.75369ZM14.4083 24.4222C12.2492 24.8361 9.96558 26.2021 8.38777 28.0648L0.914062 36.9643L29.0236 31.7074C30.1447 31.5004 31.3903 30.7553 32.2207 29.7205L40.5249 19.4963V19.4549L22.2557 22.8906L14.4083 24.4222Z" fill="#18355F"/>
<path d="M63.9012 6.45728L46.4209 33.3216H54.559L58.8356 26.3675H69.1746L69.9216 33.3216H77.9766L73.7834 6.45728H63.9012ZM61.0778 21.9798L64.6486 16.1847C65.6035 14.6118 66.6 12.5421 67.5135 10.9278H67.6381C67.8041 12.5421 68.0117 14.6946 68.1778 16.1847L68.8837 21.9798H61.0778ZM150.098 13.0388C152.299 11.6728 155.205 10.9692 158.319 10.9692C161.433 10.9692 163.759 11.4659 164.838 11.8385L166.914 7.16098C165.917 6.66425 162.97 6.00195 159.067 6.00195C154.001 6.00195 149.6 6.91261 145.863 8.85807C140.424 11.5486 136.811 16.2675 136.811 22.2696C136.811 29.3479 143.206 33.6528 152.673 33.6528C156.991 33.6528 160.23 33.1147 162.139 32.4937L161.516 27.8577C159.69 28.3958 157.198 28.7269 154.707 28.7269C148.355 28.7269 145.157 25.8708 145.157 21.6073C145.157 17.9646 147.067 14.8601 150.098 13.0388ZM121.656 22.6007H127.179L125.726 28.2716C124.853 28.5614 123.608 28.7683 121.823 28.7683C116.176 28.7683 112.605 26.4917 112.605 21.9798C112.605 18.2958 114.681 15.1085 117.754 13.2872C120.162 11.8798 123.359 11.1347 126.93 11.1347C130.127 11.1347 132.908 11.6728 134.528 12.2524L136.811 7.40935C135.442 6.87124 131.954 6.20892 127.262 6.20892C121.034 6.20892 115.47 7.61628 111.442 10.0999C106.875 12.9974 104.093 17.3437 104.093 22.3937C104.093 25.8294 105.754 28.7683 108.619 30.6725C111.608 32.6593 115.636 33.6113 120.618 33.6113C125.144 33.6113 129.462 32.7835 132.244 32.0798L135.815 18.006H122.778L121.656 22.6007ZM95.7062 17.5921C92.675 16.3089 90.4745 15.3569 90.4745 13.8253C90.4745 12.3351 92.343 11.0105 95.9134 11.0105C98.9034 10.9692 101.436 11.7143 102.64 12.2109L105.048 7.40935C103.512 6.78843 100.938 6.04335 96.5781 6.04335C88.7309 6.04335 82.4195 9.35481 82.4195 14.7773C82.4195 18.2958 86.0317 20.3655 89.8929 21.897C93.2149 23.1802 94.7514 24.1736 94.7514 25.6638C94.7514 27.7749 92.0522 28.8097 89.0629 28.8097C85.7408 28.8097 82.7103 28.0646 80.5928 27.1126L78.0185 31.8314C79.7203 32.7835 83.2913 33.7355 88.3152 33.7355C96.2872 33.7355 102.931 30.6725 102.931 24.6704C102.848 21.4831 100.065 19.2892 95.7062 17.5921Z" fill="#18355F"/>
</g>
<defs>
<clipPath id="clip0_1_975">
<rect width="166" height="37" fill="white" transform="translate(0.914062)"/>
</clipPath>
</defs>
</svg>
