<svg width="32" height="33" viewBox="0 0 32 33" fill="none" xmlns="http://www.w3.org/2000/svg">
<path d="M19.3319 30.4968V26.7265C20.0994 26.5044 20.8357 26.2042 21.5408 25.838L23.656 27.9032C23.9804 28.2214 24.5108 28.2214 24.8353 27.9032L28.3731 24.4572C28.6976 24.139 28.6976 23.6227 28.3731 23.3105L26.2579 21.2452C26.6385 20.5608 26.9443 19.8404 27.1689 19.09H30.1639C30.6256 19.09 31 18.7237 31 18.2795V13.4045C31 12.9543 30.6256 12.5941 30.1639 12.5941H27.1689C26.9443 11.8496 26.6385 11.1232 26.2579 10.4388L28.3731 8.37352C28.6976 8.05533 28.6976 7.53902 28.3731 7.22684L24.8353 3.78077C24.5108 3.46258 23.9804 3.46258 23.656 3.78077L21.5408 5.84601C20.8357 5.47378 20.0994 5.17961 19.3319 4.95747V2.00971C19.3319 1.55943 18.9576 1.19922 18.4958 1.19922H13.4979C13.0362 1.19922 12.6618 1.56544 12.6618 2.00971V4.93346C11.8943 5.15559 11.1581 5.45577 10.453 5.82199L8.33777 3.75675C8.01331 3.43856 7.48294 3.43856 7.15849 3.75675L3.62063 7.20282C3.29617 7.52101 3.29617 8.03732 3.62063 8.34951L5.73586 10.4147C5.35524 11.0992 5.0495 11.8196 4.82488 12.57H1.83611C1.37438 12.57 1 12.9363 1 13.3805V18.2615C1.01248 18.7057 1.38062 19.0599 1.83611 19.0719H4.83111C5.05574 19.8164 5.36148 20.5428 5.7421 21.2272L3.62687 23.2925C3.30241 23.6107 3.30241 24.127 3.62687 24.4392L7.16472 27.8852C7.48918 28.2034 8.01955 28.2034 8.34401 27.8852L10.4592 25.82C11.1643 26.1922 11.9006 26.4864 12.6681 26.7085V30.4788C12.6681 30.875 12.9988 31.1992 13.4106 31.1992H18.5957C19.0012 31.1992 19.3319 30.875 19.3319 30.4788V30.4968Z" stroke="#E63E31" stroke-width="2" stroke-linecap="round" stroke-linejoin="round"/>
<path d="M21.3673 21.0651C18.4034 23.9529 13.599 23.9529 10.6351 21.0651C7.67134 18.1774 7.67134 13.4886 10.6351 10.6009C13.599 7.71313 18.4034 7.71313 21.3673 10.6009C24.3311 13.4886 24.3311 18.1774 21.3673 21.0651Z" stroke="#E63E31" stroke-width="2" stroke-linecap="round" stroke-linejoin="round"/>
</svg>
