<svg width="34" height="29" viewBox="0 0 34 29" fill="none" xmlns="http://www.w3.org/2000/svg">
<path d="M1 1.19922H6.38112L7.96623 5.31184M7.96623 5.31184L12.4798 17.0224M7.96623 5.31184H26.4708M12.4798 17.0224H22.2377M12.4798 17.0224L9.60983 22.0412H28.7668M26.4708 5.31184H33L28.7668 17.0224H22.2377M26.4708 5.31184L22.2377 17.0224M17.4663 24.6202C17.4663 26.0445 16.2778 27.1992 14.8116 27.1992C13.3455 27.1992 12.157 26.0445 12.157 24.6202C12.157 23.1958 13.3455 22.0412 14.8116 22.0412C16.2778 22.0412 17.4663 23.1958 17.4663 24.6202ZM26.7179 24.6202C26.7179 26.0445 25.5293 27.1992 24.0632 27.1992C22.5971 27.1992 21.4086 26.0445 21.4086 24.6202C21.4086 23.1958 22.5971 22.0412 24.0632 22.0412C25.5293 22.0412 26.7179 23.1958 26.7179 24.6202Z" stroke="#E63E31" stroke-width="2" stroke-linecap="round" stroke-linejoin="round"/>
</svg>
