<svg width="32" height="20" viewBox="0 0 32 20" fill="none" xmlns="http://www.w3.org/2000/svg">
<path d="M13 4.75C11.0046 5.08221 9.17933 6.07695 7.81862 7.57374C6.4579 9.07053 5.6411 10.9821 5.5 13M19 4.75C20.9954 5.08221 22.8207 6.07695 24.1814 7.57374C25.5421 9.07053 26.3589 10.9821 26.5 13M13 4H4M4 4C4 4.39782 3.84196 4.77936 3.56066 5.06066C3.27936 5.34196 2.89782 5.5 2.5 5.5C2.10218 5.5 1.72064 5.34196 1.43934 5.06066C1.15804 4.77936 1 4.39782 1 4C1 3.60218 1.15804 3.22064 1.43934 2.93934C1.72064 2.65804 2.10218 2.5 2.5 2.5C2.89782 2.5 3.27936 2.65804 3.56066 2.93934C3.84196 3.22064 4 3.60218 4 4ZM28 4H19M28 4C28 4.39782 28.158 4.77936 28.4393 5.06066C28.7206 5.34196 29.1022 5.5 29.5 5.5C29.8978 5.5 30.2794 5.34196 30.5607 5.06066C30.842 4.77936 31 4.39782 31 4C31 3.60218 30.842 3.22064 30.5607 2.93934C30.2794 2.65804 29.8978 2.5 29.5 2.5C29.1022 2.5 28.7206 2.65804 28.4393 2.93934C28.158 3.22064 28 3.60218 28 4ZM2.5 14.5C2.5 14.1022 2.65804 13.7206 2.93934 13.4393C3.22064 13.158 3.60218 13 4 13H7C7.39782 13 7.77936 13.158 8.06066 13.4393C8.34196 13.7206 8.5 14.1022 8.5 14.5V17.5C8.5 17.8978 8.34196 18.2794 8.06066 18.5607C7.77936 18.842 7.39782 19 7 19H4C3.60218 19 3.22064 18.842 2.93934 18.5607C2.65804 18.2794 2.5 17.8978 2.5 17.5V14.5ZM23.5 14.5C23.5 14.1022 23.658 13.7206 23.9393 13.4393C24.2206 13.158 24.6022 13 25 13H28C28.3978 13 28.7794 13.158 29.0607 13.4393C29.342 13.7206 29.5 14.1022 29.5 14.5V17.5C29.5 17.8978 29.342 18.2794 29.0607 18.5607C28.7794 18.842 28.3978 19 28 19H25C24.6022 19 24.2206 18.842 23.9393 18.5607C23.658 18.2794 23.5 17.8978 23.5 17.5V14.5ZM13 2.5C13 2.10218 13.158 1.72064 13.4393 1.43934C13.7206 1.15804 14.1022 1 14.5 1H17.5C17.8978 1 18.2794 1.15804 18.5607 1.43934C18.842 1.72064 19 2.10218 19 2.5V5.5C19 5.89782 18.842 6.27936 18.5607 6.56066C18.2794 6.84196 17.8978 7 17.5 7H14.5C14.1022 7 13.7206 6.84196 13.4393 6.56066C13.158 6.27936 13 5.89782 13 5.5V2.5Z" stroke="#E63E31" stroke-width="2" stroke-linecap="round" stroke-linejoin="round"/>
</svg>
