<svg width="32" height="28" viewBox="0 0 32 28" fill="none" xmlns="http://www.w3.org/2000/svg">
<path d="M4.95243 18.4584L6.51094 15.0891C6.71101 14.6566 7.28899 14.6566 7.48906 15.0891L9.04758 18.4584L12.5329 19.0021C12.9801 19.0719 13.1583 19.6584 12.8346 19.995L10.3131 22.6158L10.9081 26.3184C10.9846 26.7939 10.5168 27.1563 10.1167 26.9318L7 25.1828L3.88329 26.9318C3.48316 27.1563 3.01545 26.7939 3.09187 26.3184L3.68695 22.6158L1.16545 19.995C0.841704 19.6584 1.01993 19.0719 1.46711 19.0021L4.95243 18.4584Z" stroke="#E63E31" stroke-width="2" stroke-linecap="round" stroke-linejoin="round"/>
<path d="M22.9524 18.4584L24.511 15.0891C24.711 14.6566 25.2891 14.6566 25.489 15.0891L27.0477 18.4584L30.5329 19.0021C30.9801 19.0719 31.1583 19.6584 30.8346 19.995L28.3131 22.6158L28.9081 26.3184C28.9846 26.7939 28.5169 27.1563 28.1167 26.9318L25 25.1828L21.8833 26.9318C21.4831 27.1563 21.0154 26.7939 21.0919 26.3184L21.687 22.6158L19.1655 19.995C18.8418 19.6584 19.02 19.0719 19.4671 19.0021L22.9524 18.4584Z" stroke="#E63E31" stroke-width="2" stroke-linecap="round" stroke-linejoin="round"/>
<path d="M13.9524 4.69376L15.511 1.3244C15.711 0.891867 16.2891 0.891867 16.489 1.3244L18.0477 4.69376L21.5329 5.23739C21.9801 5.30713 22.1583 5.89372 21.8346 6.23022L19.3131 8.85104L19.9081 12.5536C19.9846 13.0291 19.5169 13.3916 19.1167 13.1671L16 11.418L12.8833 13.1671C12.4832 13.3916 12.0155 13.0291 12.0919 12.5536L12.687 8.85104L10.1655 6.23022C9.84171 5.89372 10.0199 5.30713 10.4671 5.23739L13.9524 4.69376Z" stroke="#E63E31" stroke-width="2" stroke-linecap="round" stroke-linejoin="round"/>
</svg>
