<svg width="90" height="35" viewBox="0 0 90 35" fill="none" xmlns="http://www.w3.org/2000/svg">
<mask id="mask0_3001_78" style="mask-type:luminance" maskUnits="userSpaceOnUse" x="0" y="0" width="90" height="34">
<path d="M90 0H0V33.108H90V0Z" fill="white"/>
</mask>
<g mask="url(#mask0_3001_78)">
<path d="M21.431 14.1619L10.7832 7.85913L7.47405 14.3473C6.82122 15.6449 6.79871 17.0908 7.47405 17.4616L10.7607 19.4266L21.8588 15.9786C22.0163 15.163 21.8588 14.4214 21.431 14.1619Z" fill="#5BA646"/>
<path d="M13.0566 5.15344C12.4712 5.33881 11.8634 5.93202 11.3907 6.78475L19.6073 11.4933L20.4402 11.2338C21.6108 10.863 22.8489 9.63955 23.7043 7.97116L27.7564 0L13.0566 5.15344ZM7.31616 21.8743C6.14557 22.2451 4.90746 23.4686 4.05203 25.137L0 33.108L15.2401 28.3997C15.848 28.2142 16.5232 27.5467 16.9735 26.6199L21.4758 17.4624V17.4253L11.5708 20.5026L7.31616 21.8743Z" fill="#18355F"/>
<path d="M34.1494 5.78477L24.6722 29.8465H29.0844L31.4031 23.6178H37.0084L37.4135 29.8465H41.7807L39.5071 5.78477H34.1494ZM32.6186 19.688L34.5546 14.4974C35.0724 13.0886 35.6126 11.2348 36.1079 9.7889H36.1754C36.2655 11.2348 36.378 13.1627 36.468 14.4974L36.8508 19.688H32.6186ZM80.8828 11.6797C82.0759 10.4562 83.6517 9.82596 85.34 9.82596C87.0284 9.82596 88.289 10.2709 88.8743 10.6046L89.9999 6.41505C89.4595 5.97016 87.8612 5.37695 85.7452 5.37695C82.9988 5.37695 80.6126 6.19261 78.5866 7.93513C75.6377 10.345 73.6792 14.5716 73.6792 19.9475C73.6792 26.2872 77.146 30.1432 82.2785 30.1432C84.6197 30.1432 86.3756 29.6612 87.4111 29.105L87.0734 24.9527C86.0828 25.4346 84.7322 25.7312 83.3816 25.7312C79.9373 25.7312 78.204 23.1731 78.204 19.3543C78.204 16.0917 79.2395 13.311 80.8828 11.6797ZM65.4626 20.2441H68.4566L67.6687 25.3234C67.1959 25.5829 66.5206 25.7684 65.5527 25.7684C62.4911 25.7684 60.5551 23.7292 60.5551 19.688C60.5551 16.3883 61.6806 13.5335 63.3465 11.9022C64.6522 10.6416 66.3856 9.97427 68.3215 9.97427C70.0549 9.97427 71.5631 10.4562 72.441 10.9753L73.6792 6.6375C72.9363 6.15553 71.0454 5.56232 68.5016 5.56232C65.1249 5.56232 62.1084 6.82287 59.9249 9.04738C57.4486 11.6427 55.9403 15.5355 55.9403 20.0587C55.9403 23.1359 56.8408 25.7684 58.3941 27.4737C60.0149 29.2533 62.1984 30.106 64.8998 30.106C67.3536 30.106 69.6947 29.3646 71.2029 28.7344L73.1389 16.1287H66.0704L65.4626 20.2441ZM51.393 15.758C49.7497 14.6087 48.5566 13.7559 48.5566 12.3842C48.5566 11.0124 49.5696 9.86303 51.5056 9.86303C53.1264 9.82596 54.4997 10.4933 55.1524 10.9382L56.4581 6.6375C55.6252 6.08137 54.2294 5.41403 51.8657 5.41403C47.6112 5.41403 44.1894 8.38004 44.1894 13.2369C44.1894 16.3883 46.1479 18.242 48.2414 19.6138C50.0423 20.7631 50.8752 21.6529 50.8752 22.9876C50.8752 24.8785 49.4121 25.8053 47.7912 25.8053C45.9903 25.8053 44.347 25.1379 43.199 24.2852L41.8032 28.5119C42.7262 29.3646 44.6621 30.2173 47.3861 30.2173C51.7082 30.2173 55.31 27.4737 55.31 22.0977C55.265 19.2431 53.7568 17.2781 51.393 15.758Z" fill="#18355F"/>
</g>
</svg>
