<svg width="70" height="35" viewBox="0 0 70 35" fill="none" xmlns="http://www.w3.org/2000/svg">
<mask id="mask0_3001_4" style="mask-type:luminance" maskUnits="userSpaceOnUse" x="0" y="0" width="70" height="35">
<path d="M70 0H0V35H70V0Z" fill="white"/>
</mask>
<g mask="url(#mask0_3001_4)">
<path d="M4.77701 13.8582C1.46464 13.8582 0 15.5066 0 18.9974C0 22.6241 1.44222 24.1367 5.25028 24.1367C6.71492 24.1367 7.97729 23.8846 8.87849 23.497C8.66209 23.0419 8.08793 22.7864 7.53619 22.9139C6.95472 23.0482 6.31671 23.1283 5.52079 23.1283C3.13204 23.1283 2.00517 22.1782 1.96033 19.1916H9.3966C9.3966 15.2545 8.1123 13.8582 4.77701 13.8582ZM1.96033 18.338C2.07292 15.7394 2.9517 14.6535 4.75459 14.6535C6.67008 14.6535 7.43627 15.7587 7.43627 18.338H1.96033Z" fill="#808184"/>
</g>
<mask id="mask1_3001_4" style="mask-type:luminance" maskUnits="userSpaceOnUse" x="0" y="0" width="70" height="35">
<path d="M70 0H0V35H70V0Z" fill="white"/>
</mask>
<g mask="url(#mask1_3001_4)">
<path d="M19.0866 9.72729V14.1686C18.1401 13.9744 17.2165 13.8582 16.4951 13.8582C13.0248 13.8582 11.47 15.3322 11.47 18.9974C11.47 22.682 13.0024 24.1367 16.5629 24.1367C18.1401 24.1367 19.6047 23.9429 21.0021 23.5159V11.3758C21.0021 10.4651 20.1443 9.72729 19.0866 9.72729ZM19.0866 22.9731C18.4559 23.1669 17.5318 23.2638 16.811 23.2638C14.3993 23.2638 13.4304 22.1778 13.4304 18.9974C13.4304 15.8166 14.3993 14.7499 16.811 14.7499C17.5318 14.7499 18.4559 14.8468 19.0866 15.0218V22.9731Z" fill="#808184"/>
</g>
<mask id="mask2_3001_4" style="mask-type:luminance" maskUnits="userSpaceOnUse" x="0" y="0" width="70" height="35">
<path d="M70 0H0V35H70V0Z" fill="white"/>
</mask>
<g mask="url(#mask2_3001_4)">
<path d="M27.4017 24.1368C29.1368 24.1368 30.8042 23.8461 32.3366 23.4384V15.7781C32.3366 14.857 31.469 14.1104 30.3987 14.1104V22.9925C29.5423 23.167 28.6187 23.2836 27.7399 23.2836C25.7119 23.2836 24.9905 22.5466 24.9905 20.8788V15.7588C24.9905 14.8482 24.1327 14.1104 23.075 14.1104V20.8595C23.075 23.0701 24.2921 24.1368 27.4017 24.1368Z" fill="#808184"/>
</g>
<mask id="mask3_3001_4" style="mask-type:luminance" maskUnits="userSpaceOnUse" x="0" y="0" width="70" height="35">
<path d="M70 0H0V35H70V0Z" fill="white"/>
</mask>
<g mask="url(#mask3_3001_4)">
<path d="M39.3123 24.1367C40.3943 24.1367 41.4081 23.9236 41.9939 23.6518L41.9847 23.6291C41.8107 23.1891 41.2804 22.9412 40.7516 23.036C40.4274 23.0943 40.0673 23.1283 39.6276 23.1283C37.0137 23.1283 36.2475 21.8481 36.2475 19.0167C36.2475 16.0494 37.1268 14.8665 39.6276 14.8665C40.0214 14.8665 40.3811 14.9051 40.7131 14.9655C41.2585 15.065 41.8034 14.7936 41.9939 14.3431C41.3857 14.091 40.4167 13.8582 39.3123 13.8582C35.7289 13.8582 34.2872 15.4483 34.2872 19.0167C34.2872 22.6627 35.7966 24.1367 39.3123 24.1367Z" fill="#808184"/>
</g>
<mask id="mask4_3001_4" style="mask-type:luminance" maskUnits="userSpaceOnUse" x="0" y="0" width="70" height="35">
<path d="M70 0H0V35H70V0Z" fill="white"/>
</mask>
<g mask="url(#mask4_3001_4)">
<path d="M48.3614 18.0473C44.8687 18.0473 43.4718 18.9781 43.4718 21.1115C43.4718 23.2449 44.5982 24.1367 47.7531 24.1367C48.9419 24.1367 50.0605 24.005 51.0236 23.8078C51.6299 23.6832 52.0574 23.2172 52.0574 22.6807V17.0192C52.0574 14.9249 50.7731 13.8582 47.7985 13.8582C46.4459 13.8582 45.0266 14.1295 44.0347 14.4983C44.2146 14.9521 44.7707 15.2155 45.3098 15.0939C45.8995 14.9605 46.5517 14.8665 47.1673 14.8665C49.3981 14.8665 50.1643 15.4874 50.1643 17.1358V18.0473H48.3614ZM50.1643 23.0314C49.6238 23.1673 48.6997 23.3028 47.9335 23.3028C46.1082 23.3028 45.3415 22.7407 45.3415 21.0918C45.3415 19.4823 46.3333 18.8812 48.4287 18.8812H50.1643V23.0314Z" fill="#808184"/>
</g>
<mask id="mask5_3001_4" style="mask-type:luminance" maskUnits="userSpaceOnUse" x="0" y="0" width="70" height="35">
<path d="M70 0H0V35H70V0Z" fill="white"/>
</mask>
<g mask="url(#mask5_3001_4)">
<path d="M54.2043 28.2675C55.2741 28.2675 56.1422 27.5208 56.1422 26.5997V24.1643C55.5154 24.5511 54.8686 24.934 54.2043 25.3145V28.2675Z" fill="#808184"/>
</g>
<mask id="mask6_3001_4" style="mask-type:luminance" maskUnits="userSpaceOnUse" x="0" y="0" width="70" height="35">
<path d="M70 0H0V35H70V0Z" fill="white"/>
</mask>
<g mask="url(#mask6_3001_4)">
<path d="M61.7117 20.2575C61.4612 22.4706 60.4547 23.2638 58.395 23.2638C58.1493 23.2638 57.8822 23.2521 57.6122 23.2294C57.2613 23.4593 56.9025 23.6883 56.5385 23.9169C57.3261 24.0507 58.0928 24.1367 58.7108 24.1367C62.1811 24.1367 63.7359 22.682 63.7359 18.9975C63.7359 18.8364 63.7325 18.6808 63.7261 18.5281C63.0979 19.1053 62.4258 19.6824 61.7117 20.2575Z" fill="#808184"/>
</g>
<mask id="mask7_3001_4" style="mask-type:luminance" maskUnits="userSpaceOnUse" x="0" y="0" width="70" height="35">
<path d="M70 0H0V35H70V0Z" fill="white"/>
</mask>
<g mask="url(#mask7_3001_4)">
<path d="M69.2396 3.8276C68.2015 2.04069 66.1159 0.731544 63.1637 0C65.3536 0.92953 67.0761 2.30537 67.9987 3.89388C68.84 5.34228 68.8726 7.09857 68.0952 9.11367C67.3437 11.0621 65.8737 13.1594 63.7252 15.3465C63.5385 15.5365 63.3455 15.7261 63.1505 15.9157C62.4141 14.474 60.9577 13.8578 58.6436 13.8578C57.0663 13.8578 55.6241 14.0713 54.2043 14.4979V22.6917C51.1897 24.5357 47.8359 26.2647 44.2521 27.8062C37.3178 30.7898 29.5053 33.3813 22.5974 35C29.4312 34.4866 37.329 32.4165 45.011 29.112C62.1787 21.7261 73.0477 10.3838 69.2396 3.8276ZM56.1422 21.4589V15.0218C56.7734 14.8469 57.6751 14.75 58.3955 14.75C60.3119 14.75 61.3169 15.4245 61.6489 17.2982C60.0244 18.7185 58.1756 20.1141 56.1422 21.4589Z" fill="#808184"/>
</g>
</svg>
