<svg width="40" height="34" viewBox="0 0 40 34" fill="none" xmlns="http://www.w3.org/2000/svg">
<path d="M0.00915527 1H6.39616L8.27758 6.0617M8.27758 6.0617L13.6348 20.4748M8.27758 6.0617H30.2412M13.6348 20.4748H25.2167M13.6348 20.4748L10.2284 26.6517H32.9663M30.2412 6.0617H37.9908L32.9663 20.4748H25.2167M30.2412 6.0617L25.2167 20.4748M19.5535 29.8258C19.5535 31.5788 18.1427 33 16.4026 33C14.6624 33 13.2517 31.5788 13.2517 29.8258C13.2517 28.0727 14.6624 26.6517 16.4026 26.6517C18.1427 26.6517 19.5535 28.0727 19.5535 29.8258ZM30.5344 29.8258C30.5344 31.5788 29.1238 33 27.3835 33C25.6434 33 24.2327 31.5788 24.2327 29.8258C24.2327 28.0727 25.6434 26.6517 27.3835 26.6517C29.1238 26.6517 30.5344 28.0727 30.5344 29.8258Z" stroke="#E43D30" stroke-width="2"/>
</svg>
