<svg width="34" height="34" viewBox="0 0 34 34" fill="none" xmlns="http://www.w3.org/2000/svg">
<path d="M14.3351 1.64323C15.149 1.21441 16.0734 1 16.999 1H16.9984C17.924 1 18.8503 1.21507 19.6681 1.64521L31.3262 7.65265C32.3597 8.19657 33 9.25547 33 10.4196C33 11.5837 32.3597 12.6433 31.3295 13.1852L19.6649 19.1973C18.851 19.6255 17.928 19.853 16.9997 19.853C16.0714 19.853 15.149 19.6255 14.3312 19.1953L2.67445 13.1872C2.67314 13.1866 2.67182 13.1852 2.67051 13.1852C1.64033 12.6433 1 11.5837 1 10.4203C1 9.25679 1.64033 8.19723 2.67051 7.65528L14.3351 1.64323Z" stroke="#E43D30" stroke-width="2"/>
<path d="M1.26014 25.3271L14.331 32.3422C15.1495 32.7723 16.0719 32.9999 16.9995 32.9999C17.9271 32.9999 18.8495 32.7723 19.6719 32.3409L32.7388 25.3278" stroke="#E43D30" stroke-width="2" stroke-linecap="round"/>
<path d="M1.26014 18.7539L14.331 25.769C15.1488 26.1991 16.0712 26.4267 16.9995 26.4267C17.9278 26.4267 18.8501 26.1991 19.6719 25.7676L32.7388 18.7546" stroke="#E43D30" stroke-width="2" stroke-linecap="round"/>
</svg>
