<svg width="40" height="40" viewBox="0 0 40 40" fill="none" xmlns="http://www.w3.org/2000/svg">
<path d="M2.25757 37.7118L15.1356 24.8338M15.1356 24.8338C13.9502 23.6486 13.9505 21.7266 15.1359 20.5411C16.3213 19.3557 18.2433 19.3557 19.4287 20.5411C20.6139 21.7266 20.6139 23.6486 19.4287 24.8338C18.2433 26.0192 16.3209 26.0192 15.1356 24.8338ZM31.591 18.3949L37.3147 12.6713C38.8951 11.0908 38.8951 8.52828 37.3147 6.94776L33.0221 2.6551C31.4414 1.0746 28.879 1.0746 27.2984 2.6551L21.5749 8.37866M31.3536 19.1068L27.4981 30.6732C27.3728 31.049 27.0721 31.3402 26.6923 31.4531L3.06211 38.4782C2.12055 38.758 1.25363 37.8624 1.56425 36.9305L9.23644 13.9139C9.34802 13.5792 9.59971 13.3095 9.92599 13.1752L20.8262 8.68685C21.2794 8.50023 21.8005 8.60443 22.1471 8.95101L31.0602 17.8644C31.3854 18.1895 31.4991 18.6705 31.3536 19.1068Z" stroke="#E43D30" stroke-width="2" stroke-linecap="round" stroke-linejoin="round"/>
</svg>
