<svg width="26" height="40" viewBox="0 0 26 40" fill="none" xmlns="http://www.w3.org/2000/svg">
<path d="M11 3.55556H15M13 30.2778V30.2983M1 5.61111C1 4.52078 1.42143 3.4751 2.17157 2.70412C2.92172 1.93313 3.93913 1.5 5 1.5H21C22.0609 1.5 23.0783 1.93313 23.8284 2.70412C24.5786 3.4751 25 4.52078 25 5.61111V34.3889C25 35.4792 24.5786 36.5249 23.8284 37.2959C23.0783 38.0669 22.0609 38.5 21 38.5H5C3.93913 38.5 2.92172 38.0669 2.17157 37.2959C1.42143 36.5249 1 35.4792 1 34.3889V5.61111Z" stroke="#E43D30" stroke-width="2" stroke-linecap="round"/>
</svg>
