<svg width="39" height="40" viewBox="0 0 39 40" fill="none" xmlns="http://www.w3.org/2000/svg">
<path d="M11.7088 4.96509L8.53179 8.16845M15.6913 8.98065L10.6166 14.0974M30.2028 23.6124L27.0258 26.8158M33.8474 27.2872L28.7727 32.404M12.9858 32.9778L2.61182 37.9791L7.57208 27.5192M12.9858 32.9778L7.57208 27.5192M12.9858 32.9778C15.1908 30.7545 17.1388 28.7903 18.9662 26.9477M7.57208 27.5192L13.5525 21.4891M28.8593 6.0554L32.027 2.86151C32.7727 2.10957 33.9818 2.10957 34.7276 2.86151L37.4407 5.59709C38.1864 6.34902 38.1864 7.56816 37.4407 8.3201L34.2731 11.514M28.8593 6.0554L34.2731 11.514M28.8593 6.0554L20.8247 14.1566M34.2731 11.514C31.2236 14.5887 28.6656 17.168 26.2385 19.6152M20.8247 14.1566L8.27221 1.5L1 8.8325L13.5525 21.4891M20.8247 14.1566L13.5525 21.4891M18.9662 26.9477L30.4235 38.5L37.6958 31.1675C33.1285 26.5624 29.9522 23.3598 26.2385 19.6152M18.9662 26.9477C21.5012 24.3918 23.804 22.0699 26.2385 19.6152" stroke="#E43D30" stroke-width="2" stroke-linecap="round" stroke-linejoin="round"/>
</svg>
