<svg width="30" height="34" viewBox="0 0 30 34" fill="none" xmlns="http://www.w3.org/2000/svg">
<path d="M11.3012 30.892L14.7854 32.9474C14.8503 32.9819 14.9227 33 14.9963 33C15.0699 33 15.1424 32.9819 15.2073 32.9474L28.7927 25.1568C28.856 25.1188 28.9083 25.0653 28.9446 25.0013C28.9809 24.9373 29 24.8651 29 24.7916V9.21192C28.9998 9.13717 28.9804 9.0637 28.9436 8.9985C28.9068 8.9333 28.8539 8.87853 28.7898 8.83941L15.2102 1.05467C15.1463 1.01883 15.0741 1 15.0007 1C14.9273 1 14.8552 1.01883 14.7912 1.05467L1.21464 8.84233C1.14975 8.88023 1.09586 8.93421 1.05824 8.99899C1.02062 9.06376 1.00056 9.13713 1 9.21192V24.7931C1 24.9421 1.08233 25.0823 1.21317 25.1539L4.93552 27.2896C6.95548 28.2932 8.19185 27.1114 8.19185 25.9238V10.5413M12.0009 19.705C12.0009 21.9795 13.2461 24.6923 19.1928 24.6923H19.1899C23.4944 24.6923 24.9849 23.9787 24.9849 21.0366C24.9849 18.1222 22.652 18.7686 18.4768 18.2208C14.7604 17.8556 12.4596 17.039 12.4596 14.0852C12.4596 11.3608 14.7707 9.73636 18.6444 9.73636C22.9975 9.73636 25.1497 11.2366 25.4232 14.4592" stroke="white" stroke-width="2"/>
</svg>
