<svg width="36" height="38" viewBox="0 0 36 38" fill="none" xmlns="http://www.w3.org/2000/svg">
<path d="M16.7881 35.5712C18.0225 35.9438 19.1754 36.125 20.3127 36.125C21.4619 36.125 22.6281 35.9441 23.8787 35.5718C27.043 34.626 27.7072 32.7866 27.7072 31.41V30.0233C27.7072 29.6586 27.4203 29.3629 27.0664 29.3629H20.9814V26.375H26.0388H30.5388C33.0241 26.375 33.7647 26.5801 34.4126 24.5708C35.1396 22.3299 35.1438 20.1095 34.4266 17.1467C34.1318 15.9274 33.7163 15.0151 33.1566 14.3576C32.4603 13.5397 31.5458 13.125 30.4388 13.125H27.9111C27.5573 13.125 27.2703 13.4207 27.2703 13.7854V16.8647C27.2703 18.8592 25.6021 20.6087 23.7003 20.6087H16.9681C14.7961 20.6087 12.9612 22.5265 12.9612 24.7967V31.4099C12.9612 33.3446 14.3199 34.8224 16.7881 35.5712Z" stroke="white" stroke-width="2"/>
<path d="M23.5042 32.8057C23.2472 32.8057 23.0388 32.5976 23.0388 32.3415C23.0411 32.0831 23.2472 31.875 23.5042 31.875C23.7589 31.875 23.9696 32.0854 23.9696 32.3415C23.9696 32.5976 23.7612 32.8057 23.5042 32.8057Z" stroke="white" stroke-width="1.2"/>
<path d="M19.2119 2.42876C17.9775 2.05615 16.8246 1.875 15.6873 1.875C14.5381 1.875 13.3719 2.05589 12.1213 2.42817C8.95698 3.37402 8.29277 5.21342 8.29277 6.59V7.97669C8.29277 8.34138 8.57973 8.63711 8.93359 8.63711H15.0186V11.625H9.96118H5.46118C2.97593 11.625 2.23529 11.4199 1.58742 13.4292C0.860401 15.6701 0.856237 17.8905 1.57339 20.8533C1.86823 22.0726 2.28368 22.9849 2.84337 23.6424C3.5397 24.4603 4.45415 24.875 5.56125 24.875H8.08886C8.44272 24.875 8.72968 24.5793 8.72968 24.2146V21.1353C8.72968 19.1408 10.3979 17.3913 12.2997 17.3913H19.0319C21.2039 17.3913 23.0388 15.4735 23.0388 13.2033V6.59007C23.0388 4.65537 21.6801 3.17761 19.2119 2.42876Z" stroke="white" stroke-width="2"/>
<path d="M14.5042 5.80574C14.2472 5.80574 14.0388 5.59764 14.0388 5.34152C14.0411 5.0831 14.2472 4.875 14.5042 4.875C14.7589 4.875 14.9696 5.08538 14.9696 5.34152C14.9696 5.59764 14.7612 5.80574 14.5042 5.80574Z" stroke="white" stroke-width="1.2"/>
</svg>
