<svg width="34" height="34" viewBox="0 0 34 34" fill="none" xmlns="http://www.w3.org/2000/svg">
<path d="M12.7984 27.3988L11.8851 27.806L11.8941 27.8262L11.904 27.846L12.7984 27.3988ZM18.9269 19.3754C19.1342 18.8635 18.8873 18.2805 18.3754 18.0731C17.8635 17.8658 17.2805 18.1127 17.0731 18.6246L18.9269 19.3754ZM14.5984 27.3988L13.6716 27.0234L13.5984 27.204V27.3988H14.5984ZM13.7984 26.9988C13.7627 26.9988 13.7352 26.9895 13.7196 26.9806C13.7124 26.9765 13.7079 26.9727 13.7048 26.9694C13.702 26.9665 13.6977 26.9613 13.6929 26.9516L11.904 27.846C12.2969 28.6317 13.0751 28.9988 13.7984 28.9988V26.9988ZM13.7118 26.9917L6.31179 10.3917L4.48508 11.206L11.8851 27.806L13.7118 26.9917ZM17.0731 18.6246L13.6716 27.0234L15.5253 27.7742L18.9269 19.3754L17.0731 18.6246ZM13.5984 27.3988C13.5984 27.264 13.6304 27.166 13.6487 27.119C13.6686 27.0678 13.6887 27.0357 13.6976 27.0223C13.7148 26.9966 13.7206 26.9953 13.7083 27.0056C13.6976 27.0145 13.6907 27.0173 13.6946 27.0156C13.6977 27.0143 13.7336 26.9988 13.7984 26.9988V28.9988C14.3122 28.9988 14.7316 28.7562 14.9886 28.5421C15.1263 28.4273 15.2571 28.2886 15.3617 28.1317C15.4475 28.003 15.5984 27.7403 15.5984 27.3988H13.5984Z" fill="white"/>
<path d="M20.9984 27.3988L20.0593 27.7424L20.0787 27.7955L20.104 27.846L20.9984 27.3988ZM31.9096 9.41538C32.1391 8.91299 31.9178 8.31976 31.4154 8.09035C30.913 7.86094 30.3198 8.08224 30.0904 8.58462L31.9096 9.41538ZM22.5984 27.3988L21.6888 26.9835L21.6666 27.032L21.6498 27.0826L22.5984 27.3988ZM21.9984 26.9988C21.9627 26.9988 21.9352 26.9895 21.9196 26.9806C21.9124 26.9765 21.9079 26.9727 21.9048 26.9694C21.902 26.9665 21.8977 26.9613 21.8929 26.9516L20.104 27.846C20.4969 28.6317 21.2751 28.9988 21.9984 28.9988V26.9988ZM21.9376 27.0553L15.9391 10.6565L14.0609 11.3435L20.0593 27.7424L21.9376 27.0553ZM30.0904 8.58462L21.6888 26.9835L23.5081 27.8142L31.9096 9.41538L30.0904 8.58462ZM22.5984 27.3988C21.6498 27.0826 21.6498 27.0823 21.6499 27.0821C21.65 27.082 21.6501 27.0817 21.6501 27.0815C21.6502 27.0812 21.6504 27.0808 21.6505 27.0805C21.6507 27.0798 21.6509 27.0791 21.6511 27.0785C21.6515 27.0773 21.6519 27.0762 21.6523 27.0752C21.6529 27.0732 21.6535 27.0717 21.6539 27.0706C21.6547 27.0684 21.6549 27.0678 21.6546 27.0686C21.6539 27.0704 21.6513 27.0769 21.6471 27.0864C21.6374 27.1083 21.626 27.1298 21.6164 27.1441C21.6039 27.1629 21.6147 27.1397 21.6609 27.1051C21.7151 27.0645 21.8329 26.9988 21.9984 26.9988V28.9988C22.7293 28.9988 23.1402 28.4639 23.2805 28.2535C23.3709 28.1179 23.4345 27.9894 23.4747 27.8987C23.4955 27.852 23.5117 27.8116 23.5235 27.7806C23.5295 27.765 23.5344 27.7516 23.5383 27.7406C23.5403 27.7351 23.542 27.7302 23.5434 27.7259C23.5442 27.7238 23.5448 27.7218 23.5455 27.72C23.5458 27.7191 23.5461 27.7182 23.5463 27.7174C23.5465 27.717 23.5466 27.7166 23.5467 27.7162C23.5468 27.716 23.5469 27.7157 23.5469 27.7156C23.547 27.7153 23.5471 27.7151 22.5984 27.3988Z" fill="white"/>
<path d="M7 11L4.6 11H3" stroke="white" stroke-width="2" stroke-linecap="round"/>
<path d="M2 11H3" stroke="white" stroke-width="2"/>
<path d="M17 11H13" stroke="white" stroke-width="2" stroke-linecap="round"/>
<path d="M17 33C8.2 33 1 25.8 1 17C1 8.2 8.2 1 17 1C25.8 1 33 8.2 33 17C33 25.8 25.8 33 17 33Z" stroke="white" stroke-width="2"/>
</svg>
