<svg width="36" height="36" viewBox="0 0 36 36" fill="none" xmlns="http://www.w3.org/2000/svg">
<path d="M7.73938 17.9031L7.12189 17.2896C5.21254 15.3803 4.61942 12.6462 5.34254 10.2291C3.43318 9.79847 2.00726 8.08818 2.00726 6.04883C2.00726 3.68042 3.92474 1.76294 6.29315 1.76294C8.42594 1.76294 10.189 3.31886 10.5222 5.35415C12.8337 4.81384 15.3646 5.44352 17.1683 7.24725L17.4161 7.49506L14.2515 10.6556L14.0077 10.4078C12.9799 9.3841 11.3184 9.3841 10.2906 10.4078C9.25874 11.4397 9.2628 13.1053 10.2865 14.129L10.904 14.7465L14.0687 17.9071L17.4161 21.2505L14.2556 24.4111L10.9081 21.0677L7.73938 17.9031Z" stroke="white" stroke-width="2"/>
<path d="M11.2779 14.3689L14.6254 11.0214L17.79 7.86084L18.4075 7.24741C20.3128 5.34212 23.0224 4.74494 25.4355 5.4518C25.724 3.3637 27.5155 1.75903 29.6808 1.75903C32.0492 1.75903 33.9667 3.67651 33.9667 6.04492C33.9667 8.22239 32.3458 10.018 30.2455 10.2942C30.9361 12.6952 30.3349 15.3886 28.4418 17.2817L28.1939 17.5295L25.0334 14.3648L25.2771 14.1211C26.3049 13.0933 26.3049 11.4277 25.2771 10.4039C24.2534 9.38019 22.5959 9.38019 21.564 10.408L20.9465 11.0255L17.7819 14.1861L14.4344 17.5295L11.2779 14.3689Z" stroke="white" stroke-width="2"/>
<path d="M25.5206 30.326C23.0871 31.0735 20.3328 30.4845 18.4072 28.5589L18.1635 28.3151L21.324 25.1505L21.5678 25.3942C22.5956 26.422 24.2612 26.422 25.2849 25.3942C26.3087 24.3705 26.3087 22.713 25.2809 21.6811L24.6634 21.0637L21.5028 17.899L18.1635 14.5556L21.3281 11.395L24.6634 14.7344L27.824 17.8949L28.4455 18.5165C30.2655 20.3365 30.8911 22.8918 30.3264 25.2195C32.4105 25.512 34.0111 27.2995 34.0111 29.4648C34.0111 31.8332 32.0895 33.7507 29.7252 33.7507C27.6452 33.7588 25.9146 32.2882 25.5206 30.326Z" stroke="white" stroke-width="2"/>
<path d="M24.3081 21.9237L20.9728 25.263L17.8122 28.4277L17.1906 29.0492C15.3666 30.8773 12.791 31.4948 10.451 30.918C10.0164 32.8232 8.31013 34.241 6.27484 34.241C3.90643 34.241 1.98895 32.3236 1.98895 29.9552C1.98895 27.928 3.39456 26.2299 5.28766 25.783C4.69048 23.4349 5.30798 20.839 7.14827 19.0028L7.39201 18.759L10.5567 21.9196L10.3129 22.1634C9.28512 23.1912 9.28918 24.8527 10.3129 25.8805C11.3448 26.9124 13.0104 26.9083 14.0341 25.8846L14.6516 25.263L17.8122 22.1024L21.1515 18.759L24.3081 21.9237Z" stroke="white" stroke-width="2"/>
</svg>
