<svg width="38" height="34" viewBox="0 0 38 34" fill="none" xmlns="http://www.w3.org/2000/svg">
<path d="M10.0438 23.4015L9.33766 23.2267C4.08278 21.895 1.06525 19.642 1.06525 17.0381C1.06525 14.4342 4.0839 12.1811 9.33766 10.8495L10.0438 10.6746M9.01147 12.4838C9.50131 14.043 10.0909 15.5607 10.7803 17.0381C10.092 18.5155 9.50243 20.0332 9.01147 21.5924M27.9562 23.4015L28.6623 23.2267C33.9161 21.895 36.9347 19.642 36.9347 17.0381C36.9347 14.4342 33.9172 12.1811 28.6623 10.8495L27.9562 10.6746M28.9885 21.5924C28.5334 20.115 27.9382 18.5906 27.2197 17.0381C27.908 15.5607 28.4976 14.0362 28.9885 12.4838M8.99914 12.4782L8.80074 11.7776C7.32336 6.56979 7.77285 2.83375 10.0326 1.53124C12.2509 0.252272 15.8065 1.7644 19.5369 5.59458L20.0447 6.11469M10.055 10.6802C11.649 10.3238 13.2598 10.0727 14.8896 9.92695C15.8233 8.59529 17.897 6.25476 19 5.05762C22.7304 1.22743 25.7491 0.252272 27.9674 1.53124C30.2272 2.83263 30.6766 6.56979 29.1993 11.7776L29.0009 12.4782M26.1694 32.9989C26.1638 32.9989 26.1638 32.9989 26.1694 32.9989ZM26.1694 32.9989C24.0385 32.9989 21.3001 31.3993 18.4631 28.4804L17.9553 27.9603M26.1694 32.9989C26.7994 33.0112 27.4181 32.852 27.9674 32.5371C30.2272 31.2357 30.6766 27.5052 29.1993 22.2974L29.0009 21.5969M20.0447 27.9491C21.1477 26.7464 22.1756 25.4809 23.1093 24.1436C24.7324 24.0035 26.3499 23.7524 27.9438 23.3959M27.945 10.6802C26.4384 10.3361 24.8153 10.085 23.1104 9.92695V9.92807M20.0458 6.12702C21.1488 7.32977 22.1711 8.59641 23.1104 9.92807M23.1104 9.92807L22.7596 9.89893C20.261 9.68819 17.7446 9.68819 15.2404 9.89893L14.8896 9.92807L14.6856 10.2195C13.9671 11.253 13.29 12.3212 12.6713 13.3895C12.0413 14.4756 11.4629 15.5854 10.926 16.7175L10.7747 17.0381L10.926 17.3587C11.4629 18.4919 12.0402 19.6005 12.6713 20.6867C13.2956 21.7728 13.9738 22.8288 14.6856 23.8566L14.8896 24.1481L15.2404 24.1772C16.5071 24.2826 17.7681 24.3353 19 24.3353C20.2319 24.3353 21.4985 24.2826 22.7596 24.1772L23.1104 24.1481L23.3144 23.8566C24.7503 21.802 26.0058 19.624 27.074 17.3587L27.2253 17.0381L27.074 16.7175C26.0058 14.4521 24.7447 12.2742 23.3144 10.2195L23.1104 9.92807ZM8.99914 21.598L8.80074 22.2986C7.32336 27.5052 7.77285 31.2368 10.0326 32.5382C10.5808 32.8532 11.2051 33.0101 11.8362 32.9989V33C13.9615 33 16.6999 31.4004 19.5313 28.4816L20.0391 27.9615M10.0562 23.3959C11.6501 23.7524 13.262 24.0024 14.8907 24.1425C15.8244 25.4797 16.8523 26.7464 17.9553 27.9491M19 13.8446C17.2368 13.8446 15.8009 15.2805 15.8009 17.0437C15.8009 18.8069 17.2368 20.2428 19 20.2428C20.7632 20.2428 22.1991 18.8069 22.1991 17.0437C22.1991 15.2805 20.7632 13.8446 19 13.8446Z" stroke="white" stroke-width="2"/>
</svg>
