<svg width="38" height="20" viewBox="0 0 38 20" fill="none" xmlns="http://www.w3.org/2000/svg">
<path d="M1 19V5.22H2.57604V6.84H2.8626C3.12186 6.34667 3.53804 5.90667 4.11115 5.52C4.6979 5.13333 5.5098 4.94 6.54685 4.94C7.40651 4.94 8.19112 5.14667 8.90068 5.56C9.62389 5.96 10.197 6.53333 10.62 7.28C11.0567 8.02667 11.275 8.92667 11.275 9.98V10.24C11.275 11.28 11.0635 12.18 10.6405 12.94C10.2175 13.7 9.64435 14.28 8.92115 14.68C8.21159 15.08 7.42016 15.28 6.54685 15.28C5.85094 15.28 5.25736 15.1867 4.76613 15C4.28854 14.8267 3.89965 14.6 3.59945 14.32C3.29925 14.04 3.06728 13.7533 2.90353 13.46H2.61698V19H1ZM6.11702 13.88C7.15407 13.88 7.99326 13.56 8.63459 12.92C9.28957 12.2667 9.61706 11.36 9.61706 10.2V10.02C9.61706 8.86 9.28957 7.96 8.63459 7.32C7.99326 6.66667 7.15407 6.34 6.11702 6.34C5.09362 6.34 4.2476 6.66667 3.57898 7.32C2.924 7.96 2.59651 8.86 2.59651 10.02V10.2C2.59651 11.36 2.924 12.2667 3.57898 12.92C4.2476 13.56 5.09362 13.88 6.11702 13.88Z" fill="white"/>
<path d="M14.1723 15V1H15.7893V6.78H16.0759C16.2123 6.48667 16.417 6.21333 16.6899 5.96C16.9765 5.69333 17.3381 5.47333 17.7747 5.3C18.225 5.12667 18.7913 5.04 19.4736 5.04C20.2241 5.04 20.8927 5.2 21.4794 5.52C22.0798 5.82667 22.5574 6.28 22.9122 6.88C23.267 7.46667 23.4444 8.2 23.4444 9.08V15H21.8274V9.2C21.8274 8.22667 21.575 7.52 21.0701 7.08C20.5788 6.64 19.9102 6.42 19.0642 6.42C18.0954 6.42 17.3039 6.72667 16.6899 7.34C16.0895 7.95333 15.7893 8.86667 15.7893 10.08V15H14.1723Z" fill="white"/>
<path d="M26.725 19V5.22H28.3011V6.84H28.5876C28.8469 6.34667 29.2631 5.90667 29.8362 5.52C30.4229 5.13333 31.2348 4.94 32.2719 4.94C33.1315 4.94 33.9161 5.14667 34.6257 5.56C35.3489 5.96 35.922 6.53333 36.345 7.28C36.7817 8.02667 37 8.92667 37 9.98V10.24C37 11.28 36.7885 12.18 36.3655 12.94C35.9425 13.7 35.3694 14.28 34.6462 14.68C33.9366 15.08 33.1452 15.28 32.2719 15.28C31.576 15.28 30.9824 15.1867 30.4911 15C30.0136 14.8267 29.6247 14.6 29.3245 14.32C29.0243 14.04 28.7923 13.7533 28.6286 13.46H28.342V19H26.725ZM31.842 13.88C32.8791 13.88 33.7183 13.56 34.3596 12.92C35.0146 12.2667 35.3421 11.36 35.3421 10.2V10.02C35.3421 8.86 35.0146 7.96 34.3596 7.32C33.7183 6.66667 32.8791 6.34 31.842 6.34C30.8186 6.34 29.9726 6.66667 29.304 7.32C28.649 7.96 28.3215 8.86 28.3215 10.02V10.2C28.3215 11.36 28.649 12.2667 29.304 12.92C29.9726 13.56 30.8186 13.88 31.842 13.88Z" fill="white"/>
<path d="M1 19V5.22H2.57604V6.84H2.8626C3.12186 6.34667 3.53804 5.90667 4.11115 5.52C4.6979 5.13333 5.5098 4.94 6.54685 4.94C7.40651 4.94 8.19112 5.14667 8.90068 5.56C9.62389 5.96 10.197 6.53333 10.62 7.28C11.0567 8.02667 11.275 8.92667 11.275 9.98V10.24C11.275 11.28 11.0635 12.18 10.6405 12.94C10.2175 13.7 9.64435 14.28 8.92115 14.68C8.21159 15.08 7.42016 15.28 6.54685 15.28C5.85094 15.28 5.25736 15.1867 4.76613 15C4.28854 14.8267 3.89965 14.6 3.59945 14.32C3.29925 14.04 3.06728 13.7533 2.90353 13.46H2.61698V19H1ZM6.11702 13.88C7.15407 13.88 7.99326 13.56 8.63459 12.92C9.28957 12.2667 9.61706 11.36 9.61706 10.2V10.02C9.61706 8.86 9.28957 7.96 8.63459 7.32C7.99326 6.66667 7.15407 6.34 6.11702 6.34C5.09362 6.34 4.2476 6.66667 3.57898 7.32C2.924 7.96 2.59651 8.86 2.59651 10.02V10.2C2.59651 11.36 2.924 12.2667 3.57898 12.92C4.2476 13.56 5.09362 13.88 6.11702 13.88Z" stroke="white"/>
<path d="M14.1723 15V1H15.7893V6.78H16.0759C16.2123 6.48667 16.417 6.21333 16.6899 5.96C16.9765 5.69333 17.3381 5.47333 17.7747 5.3C18.225 5.12667 18.7913 5.04 19.4736 5.04C20.2241 5.04 20.8927 5.2 21.4794 5.52C22.0798 5.82667 22.5574 6.28 22.9122 6.88C23.267 7.46667 23.4444 8.2 23.4444 9.08V15H21.8274V9.2C21.8274 8.22667 21.575 7.52 21.0701 7.08C20.5788 6.64 19.9102 6.42 19.0642 6.42C18.0954 6.42 17.3039 6.72667 16.6899 7.34C16.0895 7.95333 15.7893 8.86667 15.7893 10.08V15H14.1723Z" stroke="white"/>
<path d="M26.725 19V5.22H28.3011V6.84H28.5876C28.8469 6.34667 29.2631 5.90667 29.8362 5.52C30.4229 5.13333 31.2348 4.94 32.2719 4.94C33.1315 4.94 33.9161 5.14667 34.6257 5.56C35.3489 5.96 35.922 6.53333 36.345 7.28C36.7817 8.02667 37 8.92667 37 9.98V10.24C37 11.28 36.7885 12.18 36.3655 12.94C35.9425 13.7 35.3694 14.28 34.6462 14.68C33.9366 15.08 33.1452 15.28 32.2719 15.28C31.576 15.28 30.9824 15.1867 30.4911 15C30.0136 14.8267 29.6247 14.6 29.3245 14.32C29.0243 14.04 28.7923 13.7533 28.6286 13.46H28.342V19H26.725ZM31.842 13.88C32.8791 13.88 33.7183 13.56 34.3596 12.92C35.0146 12.2667 35.3421 11.36 35.3421 10.2V10.02C35.3421 8.86 35.0146 7.96 34.3596 7.32C33.7183 6.66667 32.8791 6.34 31.842 6.34C30.8186 6.34 29.9726 6.66667 29.304 7.32C28.649 7.96 28.3215 8.86 28.3215 10.02V10.2C28.3215 11.36 28.649 12.2667 29.304 12.92C29.9726 13.56 30.8186 13.88 31.842 13.88Z" stroke="white"/>
</svg>
