<svg width="34" height="34" viewBox="0 0 34 34" fill="none" xmlns="http://www.w3.org/2000/svg">
<path d="M14.9935 18.9804V4.96511C14.9936 4.92098 14.9877 4.87704 14.976 4.83449C14.9722 4.81949 14.9635 4.80636 14.9585 4.79199C14.9497 4.76532 14.9389 4.7394 14.926 4.71449C14.9172 4.69824 14.9028 4.68511 14.8922 4.66949C14.8785 4.64897 14.8634 4.62935 14.8472 4.61074C14.8316 4.5974 14.8153 4.58488 14.7985 4.57324C14.7809 4.55804 14.7626 4.54385 14.7435 4.53074L8.72533 1.06699C8.64932 1.0231 8.56309 1 8.47533 1C8.38756 1 8.30134 1.0231 8.22533 1.06699L2.20845 4.53074C2.18892 4.54351 2.17052 4.55794 2.15345 4.57386C2.13622 4.5853 2.11972 4.59783 2.10408 4.61136C2.08791 4.62965 2.07308 4.64907 2.0597 4.66949C2.04845 4.68511 2.0347 4.69824 2.02533 4.71449C2.01252 4.73937 2.00186 4.7653 1.99345 4.79199C1.98663 4.80559 1.98057 4.81957 1.97533 4.83386C1.96383 4.87667 1.95795 4.92079 1.95783 4.96511V25.5714C1.95759 25.6594 1.98058 25.7459 2.02447 25.8221C2.06837 25.8984 2.13162 25.9617 2.20783 26.0057L14.2391 32.9332C14.2658 32.9467 14.2936 32.958 14.3222 32.967C14.3353 32.972 14.3478 32.9795 14.3616 32.9832C14.4455 33.0057 14.5339 33.0057 14.6178 32.9832C14.6303 32.9801 14.641 32.9732 14.6522 32.9695C14.6824 32.96 14.7117 32.9479 14.7397 32.9332L26.7747 26.0057C26.8509 25.9617 26.9142 25.8984 26.9581 25.8221C27.0019 25.7459 27.0249 25.6594 27.0247 25.5714L27.0228 17.8332M27.0228 17.8332L21.8416 20.7964L13.8 25.7525M27.0228 17.8332L27.0228 12.1251M27.0228 17.8332L32.0422 14.9489L32.0422 9.23699M14.8472 4.83386L7.97345 8.71886M7.97345 8.71886L1.95782 5M7.97345 8.71886V22.1676C7.97472 22.1865 7.97723 22.2053 7.98095 22.2239C7.98245 22.2487 7.98579 22.2733 7.99095 22.2976C7.9973 22.317 8.00525 22.3358 8.0147 22.3539C8.02166 22.3754 8.03044 22.3963 8.04095 22.4164C8.0525 22.4333 8.06502 22.4496 8.07845 22.4651C8.09096 22.4836 8.10474 22.5011 8.1197 22.5176C8.13408 22.5314 8.1522 22.5414 8.16783 22.5539C8.18489 22.5687 8.20284 22.5825 8.22158 22.5951L13.9835 25.8564L14.068 32.8347M8.80872 22.9274L14.7422 19.1351L21.4578 15M21.4578 15L26.9578 17.8332M21.4578 15L21.5103 8.36761M21.5103 8.36761L27.0228 12.1251M21.5103 8.36761L26.5228 5.48261L32.0422 9.23699M27.0228 12.1251L29.9372 10.4495L32.0422 9.23699" stroke="white" stroke-width="2"/>
</svg>
