<svg width="36" height="34" viewBox="0 0 36 34" fill="none" xmlns="http://www.w3.org/2000/svg">
<path d="M34.7295 33C34.499 32.7722 34.2684 32.5683 34.0413 32.3439C33.3737 31.46 32.5444 30.6883 31.6497 30.0492C30.9132 29.5528 29.3027 28.8593 28.9999 28.0264L28.9552 27.9788C29.4576 27.9346 30.0564 27.7545 30.5381 27.6185C31.3193 27.4145 32.0351 27.4587 32.8438 27.2581C33.2085 27.1663 33.5767 27.0541 33.9449 26.9386V26.7346C33.532 26.3266 33.2223 25.7725 32.7956 25.3917C31.6256 24.3889 30.3282 23.4132 28.9965 22.5939C28.2738 22.1383 27.3585 21.846 26.5979 21.4584C26.3226 21.3224 25.8615 21.2545 25.7032 21.0267C25.2903 20.5303 25.0494 19.8708 24.7569 19.2793C24.0962 18.0283 23.4492 16.6446 22.8746 15.3256C22.4616 14.4349 22.2104 13.5476 21.7045 12.7317C19.3301 8.86639 16.7595 6.52408 12.8055 4.23277C11.9556 3.75683 10.937 3.55285 9.85986 3.30128C9.28518 3.27409 8.7105 3.23329 8.13926 3.20949C7.76072 3.04971 7.39596 2.61797 7.07248 2.41059C5.76482 1.59469 2.37866 -0.173087 1.41512 2.16582C0.795701 3.64124 2.33393 5.09626 2.86731 5.84417C3.26305 6.3643 3.76203 6.95923 4.03733 7.54396C4.19906 7.93831 4.2438 8.34286 4.40554 8.75421C4.77031 9.75368 5.11787 10.8687 5.59964 11.8036C5.85085 12.2796 6.12615 12.7793 6.44962 13.2077C6.63545 13.4558 6.95204 13.5714 7.0243 13.9794C6.70083 14.4417 6.68018 15.1148 6.49436 15.6791C5.66846 18.2526 5.99194 21.4346 7.16195 23.3282C7.53016 23.8925 8.40767 25.1436 9.58113 24.6642C10.6135 24.2563 11.4944 24.2665 11.7904 23.1276C12.4993 24.2427 13.7381 25.3985 14.7739 26.1702C15.3245 26.5782 15.7616 27.2853 16.4498 27.5369L19.2055 30.0492" stroke="white" stroke-width="2"/>
<mask id="path-2-inside-1_75_114416" fill="white">
<path d="M10.7278 11.7061C10.9329 11.4983 11.095 11.2521 11.205 10.9816C11.3149 10.7111 11.3706 10.4216 11.3686 10.1297C11.3667 9.83768 11.3073 9.54894 11.1938 9.27993C11.0803 9.01091 10.9149 8.76689 10.7071 8.56179C10.4993 8.3567 10.2531 8.19454 9.98259 8.08458C9.71211 7.97462 9.42261 7.91902 9.13064 7.92094C8.83866 7.92286 8.54993 7.98228 8.28091 8.09579C8.0119 8.2093 7.76788 8.37468 7.56278 8.5825L9.14528 10.1443L10.7278 11.7061Z"/>
</mask>
<path d="M10.7278 11.7061C10.9329 11.4983 11.095 11.2521 11.205 10.9816C11.3149 10.7111 11.3706 10.4216 11.3686 10.1297C11.3667 9.83768 11.3073 9.54894 11.1938 9.27993C11.0803 9.01091 10.9149 8.76689 10.7071 8.56179C10.4993 8.3567 10.2531 8.19454 9.98259 8.08458C9.71211 7.97462 9.42261 7.91902 9.13064 7.92094C8.83866 7.92286 8.54993 7.98228 8.28091 8.09579C8.0119 8.2093 7.76788 8.37468 7.56278 8.5825L9.14528 10.1443L10.7278 11.7061Z" fill="white" stroke="white" stroke-width="2" mask="url(#path-2-inside-1_75_114416)"/>
</svg>
