<svg width="34" height="34" viewBox="0 0 34 34" fill="none" xmlns="http://www.w3.org/2000/svg">
<path fill-rule="evenodd" clip-rule="evenodd" d="M32.6892 1H11.4087V11.6297H22.0597C22.2312 11.6297 22.3705 11.769 22.3705 11.9406V22.6377H33V1.31083C33 1.13918 32.861 1 32.6892 1Z" stroke="white" stroke-width="2"/>
<path opacity="0.7" fill-rule="evenodd" clip-rule="evenodd" d="M11.1288 2.63794L11.41 11.6295H1.15562C1.01714 11.6295 0.947794 11.4621 1.04572 11.3641L11.1288 2.63794Z" stroke="white" stroke-width="2"/>
<path opacity="0.7" fill-rule="evenodd" clip-rule="evenodd" d="M22.636 32.9542C22.5383 33.0522 22.3708 32.9828 22.3708 32.8443V22.5901L31.6287 23.1379L22.636 32.9542Z" stroke="white" stroke-width="2"/>
<path opacity="0.7" d="M11.4126 11.6299H22.219C22.3048 11.6299 22.3744 11.6995 22.3744 11.7853V22.5915H11.7234C11.5517 22.5915 11.4126 22.4522 11.4126 22.2805V11.6299Z" stroke="white" stroke-width="2"/>
</svg>
