<svg width="26" height="37" viewBox="0 0 26 37" fill="none" xmlns="http://www.w3.org/2000/svg">
<path d="M8.06171 10.7585C10.2705 8.52869 12.3881 6.39687 13.0029 4C13.6291 6.39687 15.7294 8.52869 17.9384 10.7585C21.2458 14.1063 24.9972 17.8973 24.9972 23.5898C25.0009 23.7661 25.0009 23.9425 24.9972 24.1187C24.8529 30.825 19.3646 36.1431 12.7388 35.9971C6.11287 35.851 0.858592 30.296 1.0029 23.5898C1.0029 17.8973 4.7543 14.1063 8.06171 10.7585ZM8.06171 10.7585L24.3507 27.8056M1.89942 28.4757L8.1699 23.5206L14.0256 17M13.1395 32.6529C12.3411 32.6483 11.5609 32.4107 10.8926 31.9685C10.2242 31.5263 9.69614 30.8984 9.37163 30.16C9.04712 29.4216 8.93998 28.6041 9.06306 27.8056C9.18614 27.0071 9.53421 26.2615 10.0655 25.6583C10.9424 24.6038 12.0124 23.5667 13.1737 22.2012C14.5512 23.6877 15.4507 24.7074 16.3331 25.8253C16.4022 25.9115 16.4632 26.0041 16.5152 26.1019C16.9979 26.797 17.2563 27.6261 17.2552 28.4757C17.2567 29.0227 17.1518 29.5647 16.9463 30.0707C16.7409 30.5767 16.439 31.0368 16.0579 31.4247C15.6767 31.8126 15.2239 32.1207 14.7251 32.3314C14.2263 32.5422 13.6914 32.6514 13.1509 32.6529H13.1395Z" stroke="white" stroke-width="2"/>
</svg>
