<svg width="18" height="34" viewBox="0 0 18 34" fill="none" xmlns="http://www.w3.org/2000/svg">
<path d="M8.99392 28.9665L8.49455 33C8.49455 33 8.24487 30.7965 8.14501 29.2653L8.03266 29.1906C8.03266 29.1906 -5.36273 19.2688 6.20997 4.56662C7.55826 2.97316 8.71927 1.3548 8.95647 1.01867C8.98143 0.993776 9.01889 0.993776 9.04387 1.01867C9.28105 1.3548 10.4421 2.97316 11.7903 4.56662C23.3631 19.2688 9.96767 29.1906 9.95519 29.1782L9.84284 29.2653C9.74297 30.8089 9.49328 33 9.49328 33L8.99392 28.9665ZM8.99392 28.9665C8.99392 28.9665 8.39469 28.4561 8.23239 28.1948V28.1697L8.14501 20.1391V16.1L8.95647 12.1605C8.95647 12.1107 9.03138 12.1107 9.03138 12.1605L9.84284 16.1L10 20L9.75544 28.1697V28.1948C9.59315 28.4561 8.99392 28.9665 8.99392 28.9665Z" stroke="white" stroke-width="2"/>
</svg>
