<svg width="52" height="52" viewBox="0 0 52 52" fill="none" xmlns="http://www.w3.org/2000/svg">
<path d="M48.7273 26.0001H51M26 3.27285V1.00012M26 51.0001V48.7274M44.1818 44.1819L41.9091 41.9092M44.1818 7.8183L41.9091 10.091M7.81818 44.1819L10.0909 41.9092M7.81818 7.8183L10.0909 10.091M1 26.0001H3.27273M21.3464 20.5972L24.8884 13.0868C25.3432 12.1227 26.6568 12.1227 27.1116 13.0868L30.6536 20.5972L38.5748 21.809C39.5911 21.9644 39.9961 23.2719 39.2605 24.0219L33.5295 29.864L34.882 38.1169C35.0557 39.1769 33.9927 39.9851 33.0834 39.4844L26 35.5858L18.9165 39.4844C18.0072 39.9851 16.9442 39.1769 17.1179 38.1169L18.4703 29.864L12.7397 24.0219C12.0039 23.2719 12.4089 21.9644 13.4253 21.809L21.3464 20.5972Z" stroke="#E43D30" stroke-width="2" stroke-linecap="round"/>
</svg>
