<svg width="46" height="52" viewBox="0 0 46 52" fill="none" xmlns="http://www.w3.org/2000/svg">
<path d="M20.8727 50.7339C21.3342 50.9114 21.8312 51.0001 22.3281 51.0001H22.9316C23.4286 51.0001 23.9167 50.9114 24.3871 50.7339C30.1024 48.5951 34.6995 45.1339 38.0363 40.4392C40.6632 36.7474 42.4914 32.3278 43.4588 27.3047C45.0449 19.0569 43.7787 11.9028 43.7086 11.5063L43.7073 11.4989C43.4499 10.1144 42.5269 8.96072 41.2223 8.41936L24.2362 1.31961C23.7215 1.10662 23.189 1.00012 22.6299 1.00012C22.0708 1.00012 21.5383 1.10662 21.0236 1.31961L4.0374 8.41936C2.7417 8.96072 1.80985 10.1144 1.55249 11.4989C1.49036 11.8006 0.194659 18.9891 1.80098 27.3047C2.76832 32.3278 4.59651 36.7474 7.22341 40.4392C10.5603 45.1339 15.1574 48.5951 20.8727 50.7339Z" stroke="#E43D30" stroke-width="2"/>
<path d="M16.8438 22.6544L16.5775 22.8142C15.5037 23.4531 14.8381 24.6335 14.8381 25.8759V32.7449C14.8381 34.7151 16.4355 36.3126 18.4057 36.3126H18.3968H26.8544C28.8246 36.3126 30.422 34.7151 30.422 32.7449V25.8759C30.422 24.6335 29.7564 23.462 28.6826 22.8142L28.4163 22.6544M16.8438 22.6544V19.9476C16.8438 18.4034 17.4472 16.948 18.5388 15.8564C19.6304 14.7648 21.0859 14.1613 22.6301 14.1613C24.1742 14.1613 25.6297 14.7648 26.7213 15.8564C27.8129 16.948 28.4163 18.4034 28.4163 19.9476V22.6544M16.8438 22.6544H28.4163" stroke="#E43D30" stroke-width="2"/>
</svg>
