<svg width="44" height="40" viewBox="0 0 44 40" fill="none" xmlns="http://www.w3.org/2000/svg">
<path d="M19.1154 19.1248C16.7942 19.1248 14.9121 17.2427 14.9121 14.9215C14.9121 12.6003 16.7942 10.7183 19.1154 10.7183C21.4366 10.7183 23.3186 12.6003 23.3186 14.9215" stroke="#E43D30" stroke-width="1.9593" stroke-linecap="round" stroke-linejoin="round"/>
<path d="M19.1154 19.1255C21.4366 19.1255 23.3186 21.0075 23.3186 23.3288C23.3186 25.65 21.4366 27.532 19.1154 27.532C16.7942 27.532 14.9121 25.65 14.9121 23.3288" stroke="#E43D30" stroke-width="1.9593" stroke-linecap="round" stroke-linejoin="round"/>
<path d="M19.1145 10.7254V8.94092" stroke="#E43D30" stroke-width="1.9593" stroke-linecap="round" stroke-linejoin="round"/>
<path d="M19.1145 29.3094V27.5249" stroke="#E43D30" stroke-width="1.9593" stroke-linecap="round" stroke-linejoin="round"/>
<path d="M36.163 22.75C36.4103 21.5807 36.5405 20.3682 36.5405 19.1252C36.5405 9.50083 28.7384 1.69873 19.114 1.69873C9.4896 1.69873 1.6875 9.50083 1.6875 19.1252C1.6875 28.7496 9.4896 36.5517 19.114 36.5517C21.919 36.5517 24.5692 35.889 26.9166 34.7115" stroke="#E43D30" stroke-width="1.9593" stroke-linecap="round" stroke-linejoin="round"/>
<path d="M30.804 36.3821C30.8547 36.6095 30.9736 36.8159 31.1449 36.9737C31.3162 37.1316 31.5316 37.2333 31.7623 37.2652C31.9931 37.2971 32.228 37.2577 32.4357 37.1522C32.6434 37.0467 32.8139 36.8803 32.9243 36.6752L34.9132 33.7318L39.5829 38.4015C39.6771 38.4958 39.7891 38.5706 39.9123 38.6216C40.0355 38.6726 40.1675 38.6989 40.3009 38.6989C40.4342 38.6989 40.5663 38.6726 40.6894 38.6216C40.8126 38.5706 40.9246 38.4958 41.0189 38.4015L42.0152 37.4051C42.1095 37.3108 42.1843 37.1989 42.2354 37.0757C42.2864 36.9525 42.3126 36.8204 42.3126 36.6871C42.3126 36.5537 42.2864 36.4217 42.2354 36.2985C42.1843 36.1753 42.1095 36.0634 42.0152 35.9691L37.3456 31.2994L40.308 29.3105C40.5131 29.2 40.6795 29.0295 40.7849 28.8217C40.8903 28.614 40.9296 28.379 40.8976 28.1482C40.8656 27.9175 40.7638 27.702 40.6059 27.5308C40.4479 27.3596 40.2414 27.2408 40.0139 27.1903L27.0889 23.4751L30.804 36.3821Z" stroke="#E43D30" stroke-width="1.9593" stroke-linecap="round" stroke-linejoin="round"/>
</svg>
