<svg width="40" height="37" viewBox="0 0 40 37" fill="none" xmlns="http://www.w3.org/2000/svg">
<path d="M12.63 4.38287L9.62466 7.3265M16.3972 8.07284L11.5968 12.7747M30.1243 21.5183L27.119 24.4619M33.5719 24.8951L28.7715 29.597M13.8379 30.1242L4.02469 34.7201L8.71683 25.1082M13.8379 30.1242L8.71683 25.1082M13.8379 30.1242C15.9237 28.0812 17.7665 26.2763 19.4951 24.5831M8.71683 25.1082L14.374 19.5671M28.8534 5.38477L31.8498 2.44984C32.5553 1.75887 33.699 1.75887 34.4045 2.44984L36.9709 4.96362C37.6764 5.65459 37.6764 6.77488 36.9709 7.46585L33.9745 10.4008M28.8534 5.38477L33.9745 10.4008M28.8534 5.38477L21.2531 12.8291M33.9745 10.4008C31.0899 13.2262 28.6701 15.5963 26.3742 17.8451M21.2531 12.8291L9.37912 1.19873L2.5 7.9367L14.374 19.5671M21.2531 12.8291L14.374 19.5671M19.4951 24.5831L30.3331 35.1987L37.2122 28.4608C32.8918 24.229 29.8872 21.2861 26.3742 17.8451M19.4951 24.5831C21.893 22.2344 24.0713 20.1008 26.3742 17.8451" stroke="#E43D30" stroke-width="2" stroke-linecap="round" stroke-linejoin="round"/>
</svg>
