<svg width="32" height="37" viewBox="0 0 32 37" fill="none" xmlns="http://www.w3.org/2000/svg">
<path d="M0.293103 15.9508C-0.0975369 16.3412 -0.0977252 16.9743 0.292683 17.365C0.683091 17.7556 1.31626 17.7558 1.7069 17.3654L0.293103 15.9508ZM12.1752 5.48954L12.8821 4.78223C12.4916 4.39198 11.8588 4.39198 11.4683 4.78223L12.1752 5.48954ZM19.4409 12.7509L18.734 13.4582C19.1245 13.8484 19.7573 13.8484 20.1478 13.4582L19.4409 12.7509ZM32 1.19903C32.0002 0.646747 31.5526 0.198897 31.0003 0.198731L22.0003 0.196024C21.448 0.195858 21.0002 0.643438 21 1.19572C20.9998 1.74801 21.4474 2.19586 21.9997 2.19602L29.9997 2.19843L29.9973 10.1984C29.9971 10.7507 30.4447 11.1986 30.997 11.1987C31.5493 11.1989 31.9971 10.7513 31.9973 10.199L32 1.19903ZM2 22.408C2 21.8557 1.55228 21.408 1 21.408C0.447715 21.408 0 21.8557 0 22.408H2ZM0 35.1987C0 35.751 0.447715 36.1987 1 36.1987C1.55228 36.1987 2 35.751 2 35.1987H0ZM32 15.6858C32 15.1335 31.5523 14.6858 31 14.6858C30.4477 14.6858 30 15.1335 30 15.6858H32ZM30 35.1987C30 35.751 30.4477 36.1987 31 36.1987C31.5523 36.1987 32 35.751 32 35.1987H30ZM10.8663 15.6857C10.8663 15.1334 10.4185 14.6857 9.86626 14.6857C9.31398 14.6857 8.86626 15.1334 8.86626 15.6857H10.8663ZM8.86626 35.1987C8.86626 35.751 9.31398 36.1987 9.86626 36.1987C10.4185 36.1987 10.8663 35.751 10.8663 35.1987H8.86626ZM21.6091 18.6527C21.6091 18.1004 21.1614 17.6527 20.6091 17.6527C20.0568 17.6527 19.6091 18.1004 19.6091 18.6527H21.6091ZM19.6091 35.1987C19.6091 35.751 20.0568 36.1987 20.6091 36.1987C21.1614 36.1987 21.6091 35.751 21.6091 35.1987H19.6091ZM1.7069 17.3654L12.8821 6.19686L11.4683 4.78223L0.293103 15.9508L1.7069 17.3654ZM11.4683 6.19686L18.734 13.4582L20.1478 12.0436L12.8821 4.78223L11.4683 6.19686ZM20.1478 13.4582L31.7069 1.90605L30.2931 0.491411L18.734 12.0436L20.1478 13.4582ZM0 22.408V35.1987H2V22.408H0ZM30 15.6858V35.1987H32V15.6858H30ZM8.86626 15.6857V35.1987H10.8663V15.6857H8.86626ZM19.6091 18.6527V35.1987H21.6091V18.6527H19.6091Z" fill="#E43D30"/>
</svg>
