<svg width="40" height="40" viewBox="0 0 40 40" fill="none" xmlns="http://www.w3.org/2000/svg">
<path d="M22.5516 21.9076H11.4754C9.33986 21.9076 7.60866 23.6347 7.60866 25.7653V33.3218M33.7154 20.1987V4.25045C33.7154 2.84118 32.573 1.69873 31.1637 1.69873H4.37057C2.96129 1.69873 1.81885 2.84118 1.81885 4.25045V31.0436C1.81885 32.4528 2.96129 33.5953 4.37057 33.5953H19.362M33.3987 30.9477L29.5731 34.6767L25.7475 30.9477C25.4952 30.7061 25.2964 30.4156 25.1637 30.0946C25.0311 29.7737 24.9674 29.4291 24.9766 29.0827C24.9859 28.7363 25.0679 28.3956 25.2176 28.0819C25.3673 27.7683 25.5813 27.4885 25.8462 27.2602C26.1111 27.032 26.4212 26.8602 26.7568 26.7557C27.0925 26.6511 27.4466 26.6162 27.7967 26.6529C28.1468 26.6897 28.4854 26.7974 28.7911 26.9692C29.0968 27.1411 29.3631 27.3734 29.5731 27.6515C29.784 27.3754 30.0506 27.1451 30.3561 26.9751C30.6616 26.8051 30.9995 26.6989 31.3487 26.6633C31.6978 26.6277 32.0506 26.6634 32.3851 26.7682C32.7195 26.8729 33.0284 27.0445 33.2924 27.2722C33.5564 27.4998 33.7697 27.7787 33.9192 28.0912C34.0686 28.4038 34.1509 28.7433 34.1609 29.0886C34.1709 29.4339 34.1084 29.7775 33.9772 30.0979C33.846 30.4184 33.6491 30.7087 33.3987 30.9507M17.8155 19.1011C14.9415 19.1011 12.6117 16.7759 12.6117 13.9085C12.6117 11.0412 14.9415 8.71597 17.8155 8.71597C20.6895 8.71597 23.0193 11.0412 23.0193 13.9085C23.0193 16.7759 20.6895 19.1011 17.8155 19.1011ZM29.5688 38.6987C24.8125 38.6987 20.9568 34.8422 20.9568 30.0867C20.9568 25.3311 24.8125 21.4746 29.5688 21.4746C34.3252 21.4746 38.1809 25.3311 38.1809 30.0867C38.1809 34.8422 34.3252 38.6987 29.5688 38.6987Z" stroke="#E43D30" stroke-width="2" stroke-linecap="round" stroke-linejoin="round"/>
</svg>
