<svg width="40" height="38" viewBox="0 0 40 38" fill="none" xmlns="http://www.w3.org/2000/svg">
<path d="M4.56226 23.0542V33.3737C4.56226 34.7612 5.68293 35.8819 7.07043 35.8819C8.45793 35.8819 9.5786 34.7612 9.5786 33.3737V23.0542" stroke="#E43D30" stroke-width="2" stroke-linecap="round" stroke-linejoin="round"/>
<path d="M21.7847 5.99756C18.5161 10.7938 12.0322 10.4669 12.0322 10.4669H4.15412C3.05346 10.4669 2.16626 11.3541 2.16626 12.4548V20.9532C2.16626 22.0539 3.05346 22.9411 4.15412 22.9411H11.9721C11.9721 22.9411 18.0224 22.8877 21.778 27.5705" stroke="#E43D30" stroke-width="2" stroke-linecap="round" stroke-linejoin="round"/>
<path d="M24.6066 30.6722C23.1591 30.6722 21.9917 29.4582 21.9917 27.9506V5.24361C21.9917 3.74271 23.1657 2.52197 24.6066 2.52197C26.0541 2.52197 27.2215 3.73604 27.435 5.18357V27.8905C27.2215 29.4448 26.0541 30.6655 24.6066 30.6655V30.6722Z" stroke="#E43D30" stroke-width="2" stroke-linecap="round" stroke-linejoin="round"/>
<path d="M32.2988 16.731H37.4753" stroke="#E43D30" stroke-width="2" stroke-linecap="round" stroke-linejoin="round"/>
<path d="M31.3706 12.0478L34.4258 8.83252" stroke="#E43D30" stroke-width="2" stroke-linecap="round" stroke-linejoin="round"/>
<path d="M34.4258 24.3622L31.3706 21.147" stroke="#E43D30" stroke-width="2" stroke-linecap="round" stroke-linejoin="round"/>
</svg>
