<svg width="52" height="52" viewBox="0 0 52 52" fill="none" xmlns="http://www.w3.org/2000/svg">
<path d="M6 26C6 31.3043 8.10714 36.3914 11.8579 40.1421C15.6086 43.8929 20.6957 46 26 46M6 26C6 20.6957 8.10714 15.6086 11.8579 11.8579C15.6086 8.10714 20.6957 6 26 6M6 26H1M26 46C31.3043 46 36.3914 43.8929 40.1421 40.1421C43.8929 36.3914 46 31.3043 46 26M26 46V51M46 26C46 20.6957 43.8929 15.6086 40.1421 11.8579C36.3914 8.10714 31.3043 6 26 6M46 26H51M26 6V1M18.5 26C18.5 27.9891 19.2902 29.8968 20.6967 31.3033C22.1032 32.7098 24.0109 33.5 26 33.5C27.9891 33.5 29.8968 32.7098 31.3033 31.3033C32.7098 29.8968 33.5 27.9891 33.5 26C33.5 24.0109 32.7098 22.1032 31.3033 20.6967C29.8968 19.2902 27.9891 18.5 26 18.5C24.0109 18.5 22.1032 19.2902 20.6967 20.6967C19.2902 22.1032 18.5 24.0109 18.5 26Z" stroke="#E43D30" stroke-width="1.96078" stroke-linecap="round" stroke-linejoin="round"/>
</svg>
