<svg width="45" height="52" viewBox="0 0 45 52" fill="none" xmlns="http://www.w3.org/2000/svg">
<path d="M25.2766 38.3912V35.1237C25.9162 34.9312 26.5297 34.671 27.1173 34.3536L28.88 36.1435C29.1504 36.4193 29.5923 36.4193 29.8627 36.1435L32.8109 33.1569C33.0813 32.8811 33.0813 32.4337 32.8109 32.1631L31.0483 30.3732C31.3654 29.7801 31.6202 29.1557 31.8074 28.5053H34.3032C34.688 28.5053 35 28.1879 35 27.8029V23.5779C35 23.1877 34.688 22.8755 34.3032 22.8755H31.8074C31.6202 22.2303 31.3654 21.6008 31.0483 21.0076L32.8109 19.2177C33.0813 18.942 33.0813 18.4945 32.8109 18.2239L29.8627 15.2373C29.5923 14.9616 29.1504 14.9616 28.88 15.2373L27.1173 17.0272C26.5297 16.7046 25.9162 16.4497 25.2766 16.2572V13.7024C25.2766 13.3122 24.9646 13 24.5799 13H20.4149C20.0302 13 19.7182 13.3174 19.7182 13.7024V16.2363C19.0786 16.4289 18.4651 16.689 17.8775 17.0064L16.1148 15.2165C15.8444 14.9408 15.4025 14.9408 15.1321 15.2165L12.1839 18.2031C11.9135 18.4789 11.9135 18.9264 12.1839 19.1969L13.9465 20.9868C13.6294 21.5799 13.3746 22.2043 13.1874 22.8547H10.6968C10.312 22.8547 10 23.1721 10 23.5571V27.7873C10.0104 28.1723 10.3172 28.4793 10.6968 28.4897H13.1926C13.3798 29.1349 13.6346 29.7645 13.9517 30.3576L12.1891 32.1475C11.9187 32.4233 11.9187 32.8707 12.1891 33.1413L15.1373 36.1279C15.4077 36.4036 15.8496 36.4036 16.12 36.1279L17.8827 34.338C18.4703 34.6606 19.0838 34.9156 19.7234 35.1081V38.3756C19.7234 38.719 19.999 39 20.3421 39H24.6631C25.001 39 25.2766 38.719 25.2766 38.3756V38.3912Z" stroke="#E43D30" stroke-width="1.96078" stroke-linecap="round" stroke-linejoin="round"/>
<path d="M19.3191 28.8652C21.0765 30.6218 23.9254 30.6218 25.6829 28.8652C27.4403 27.1087 27.4403 24.2566 25.6829 22.5C23.9254 20.7435 21.0765 20.7435 19.3191 22.5C17.5616 24.2566 17.5616 27.1087 19.3191 28.8652Z" stroke="#E43D30" stroke-width="1.96078" stroke-linecap="round" stroke-linejoin="round"/>
<path d="M19.8556 4.39848C9.21638 5.78551 1 14.8953 1 25.9267C1 36.9581 9.21638 46.0679 19.8556 47.455M25.1444 47.455C35.7836 46.068 44 36.9581 44 25.9267C44 14.8953 35.7836 5.78552 25.1444 4.39849M15.6358 1L20.1558 4.45777L16.5345 9.04012M28.5609 51L24.0409 47.5422L27.6622 42.9599" stroke="#E43D30" stroke-width="2" stroke-linecap="round" stroke-linejoin="round"/>
</svg>
