<svg width="53" height="50" viewBox="0 0 53 50" fill="none" xmlns="http://www.w3.org/2000/svg">
<path d="M5.68726 30.2102V44.1555C5.68726 46.0305 7.19812 47.5449 9.0687 47.5449C10.9393 47.5449 12.4502 46.0305 12.4502 44.1555V30.2102" stroke="#E43D30" stroke-width="2" stroke-linecap="round" stroke-linejoin="round"/>
<path d="M28.9061 7.1604C24.4994 13.6418 15.758 13.2001 15.758 13.2001H5.13701C3.65313 13.2001 2.45703 14.399 2.45703 15.8864V27.3707C2.45703 28.8581 3.65313 30.057 5.13701 30.057H15.6771C15.6771 30.057 23.8339 29.9849 28.8971 36.313" stroke="#E43D30" stroke-width="2" stroke-linecap="round" stroke-linejoin="round"/>
<path d="M32.7106 40.5047C30.7591 40.5047 29.1853 38.8641 29.1853 36.8268V6.14175C29.1853 4.11351 30.7681 2.46387 32.7106 2.46387C34.6622 2.46387 36.236 4.10449 36.5238 6.06062V36.7457C36.236 38.8461 34.6622 40.4957 32.7106 40.4957V40.5047Z" stroke="#E43D30" stroke-width="2" stroke-linecap="round" stroke-linejoin="round"/>
<path d="M43.0806 21.6653H50.0593" stroke="#E43D30" stroke-width="2" stroke-linecap="round" stroke-linejoin="round"/>
<path d="M41.8293 15.3367L45.9482 10.9917" stroke="#E43D30" stroke-width="2" stroke-linecap="round" stroke-linejoin="round"/>
<path d="M45.9482 31.9778L41.8293 27.6328" stroke="#E43D30" stroke-width="2" stroke-linecap="round" stroke-linejoin="round"/>
</svg>
