<svg width="65" height="40" viewBox="0 0 65 40" fill="none" xmlns="http://www.w3.org/2000/svg">
<path d="M1 31.9697C1 26.2743 5.70106 21.6572 11.5 21.6572M11.5 21.6572C14.9795 21.6572 17.8 18.887 17.8 15.4697C17.8 12.0525 14.9795 9.28223 11.5 9.28223C8.02051 9.28223 5.2 12.0525 5.2 15.4697C5.2 18.887 8.02051 21.6572 11.5 21.6572ZM11.5 21.6572C14.9004 21.6572 17.9234 22.9346 19.8423 25.1396M53.5 21.6572C59.2989 21.6572 64 26.2743 64 31.9697V33.001M53.5 21.6572C56.9795 21.6572 59.8 18.887 59.8 15.4697C59.8 12.0525 56.9795 9.28223 53.5 9.28223C50.0205 9.28223 47.2 12.0525 47.2 15.4697C47.2 18.887 50.0205 21.6572 53.5 21.6572ZM53.5 21.6572C50.2108 21.6572 47.2749 23.1426 45.3496 25.4677M17.8 38.8491C17.8 38.8491 17.8 35.1677 17.8 32.4854C17.8 29.8031 18.5448 27.2916 19.8423 25.1396M32.5 18.0479C37.1391 18.0479 40.9 14.3541 40.9 9.79785C40.9 5.2415 37.1391 1.54785 32.5 1.54785C27.8608 1.54785 24.1 5.2415 24.1 9.79785C24.1 14.3541 27.8608 18.0479 32.5 18.0479ZM32.5 18.0479C27.1125 18.0479 22.4019 20.8943 19.8423 25.1396M32.5 18.0479C38.0252 18.0479 42.8384 21.0416 45.3496 25.4677M47.2 38.8491C47.2 38.8491 47.2 35.0325 47.2 32.4854C47.2 29.9382 46.5284 27.5452 45.3496 25.4677" stroke="#E43D30" stroke-width="2" stroke-linecap="round" stroke-linejoin="round"/>
</svg>
