<svg width="53" height="53" viewBox="0 0 53 53" fill="none" xmlns="http://www.w3.org/2000/svg">
<path d="M26.5047 12.3129C23.7583 12.3129 21.0735 13.1275 18.7899 14.6536C16.5063 16.1798 14.7265 18.3489 13.6755 20.8868C12.6245 23.4246 12.3495 26.2172 12.8853 28.9114C13.4211 31.6056 14.7436 34.0803 16.6857 36.0227C18.6277 37.9651 21.102 39.2879 23.7957 39.8238C26.4893 40.3597 29.2814 40.0847 31.8188 39.0335C34.3562 37.9822 36.5249 36.2021 38.0507 33.9181C39.5766 31.634 40.391 28.9488 40.391 26.2018M29.282 1.35461C24.1331 0.776865 18.932 1.81372 14.3981 4.32175C9.86422 6.82978 6.22158 10.685 3.9741 15.3542C1.72662 20.0234 0.98537 25.2757 1.85289 30.3847C2.72041 35.4936 5.15382 40.2067 8.81652 43.8719C12.4792 47.5372 17.1902 49.9734 22.2977 50.8437C27.4053 51.7139 32.657 50.9752 37.3264 48.7296C41.9959 46.4841 45.8522 42.8427 48.3621 38.3092C50.8719 33.7757 51.9112 28.5741 51.3361 23.424M34.8365 17.8685V9.53516L43.1682 1.20183V9.53516H51.5L43.1682 17.8685H34.8365ZM34.8365 17.8685L26.5047 26.2018M23.7275 26.2018C23.7275 26.9385 24.0201 27.6451 24.5409 28.166C25.0617 28.6869 25.7682 28.9796 26.5047 28.9796C27.2413 28.9796 27.9477 28.6869 28.4685 28.166C28.9894 27.6451 29.282 26.9385 29.282 26.2018C29.282 25.4651 28.9894 24.7586 28.4685 24.2376C27.9477 23.7167 27.2413 23.424 26.5047 23.424C25.7682 23.424 25.0617 23.7167 24.5409 24.2376C24.0201 24.7586 23.7275 25.4651 23.7275 26.2018Z" stroke="#E43D30" stroke-width="2" stroke-linecap="round" stroke-linejoin="round"/>
</svg>
