<svg width="53" height="53" viewBox="0 0 53 53" fill="none" xmlns="http://www.w3.org/2000/svg">
<path d="M26.5 33.6987C30.6423 33.6987 34 30.341 34 26.1987C34 22.0565 30.6423 18.6987 26.5 18.6987C22.3577 18.6987 19 22.0565 19 26.1987C19 30.341 22.3577 33.6987 26.5 33.6987Z" stroke="#E43D30" stroke-width="2" stroke-linecap="round" stroke-linejoin="round"/>
<path d="M45.556 22.1872L42.8118 15.5607L46.5 11.1987L41.5 6.19873L37.1617 9.90611L30.3945 7.12308L28.8382 1.19873H23.9525L22.3728 7.20156L15.761 9.98863L11.5 6.19873L6.5 11.1987L10.1334 15.6709L7.43125 22.3145L1.5 23.6987V28.6987L7.50278 30.3375L10.2894 36.948L6.5 41.1987L11.5 46.1987L15.9779 42.5495L22.4925 45.2295L24 51.1987H29L30.5112 45.2317L37.1378 42.4875C38.2423 43.277 41.5 46.1987 41.5 46.1987L46.5 41.1987L42.7897 36.8222L45.5347 30.1937L51.4998 28.6417L51.5 23.6987L45.556 22.1872Z" stroke="#E43D30" stroke-width="2" stroke-linecap="round" stroke-linejoin="round"/>
</svg>
