<svg width="50" height="53" viewBox="0 0 50 53" fill="none" xmlns="http://www.w3.org/2000/svg">
<path d="M17.3034 28.7484L22.4345 33.8477L35.2622 21.0994M23.9905 1.57365C24.5695 1.07376 25.4305 1.07376 26.0095 1.57365L31.008 5.88924C31.323 6.16119 31.7356 6.29441 32.1512 6.25841L38.7477 5.68692C39.5117 5.62071 40.2083 6.12368 40.3812 6.86635L41.8725 13.2776C41.9667 13.6816 42.2215 14.0304 42.5791 14.2441L48.2538 17.635C48.9111 18.0278 49.1771 18.8416 48.8775 19.5433L46.2925 25.6014C46.1295 25.9833 46.1295 26.4142 46.2925 26.7961L48.8775 32.8541C49.1771 33.5558 48.9111 34.3697 48.2538 34.7626L42.5791 38.1534C42.2215 38.367 41.9667 38.7158 41.8725 39.1199L40.3812 45.5311C40.2083 46.2738 39.5117 46.7768 38.7477 46.7106L32.1512 46.1392C31.7356 46.103 31.323 46.2363 31.008 46.5081L26.0095 50.8239C25.4305 51.3237 24.5695 51.3237 23.9905 50.8239L18.9919 46.5081C18.6769 46.2363 18.2644 46.103 17.8487 46.1392L11.2523 46.7106C10.4883 46.7768 9.79168 46.2738 9.61892 45.5311L8.12742 39.1199C8.03344 38.7158 7.77845 38.367 7.42087 38.1534L1.74633 34.7626C1.08898 34.3697 0.822911 33.5558 1.12239 32.8541L3.70768 26.7961C3.87057 26.4142 3.87057 25.9833 3.70768 25.6014L1.12239 19.5433C0.822911 18.8416 1.08898 18.0278 1.74633 17.635L7.42087 14.2441C7.77845 14.0304 8.03344 13.6816 8.12742 13.2776L9.61892 6.86635C9.79168 6.12368 10.4883 5.62071 11.2523 5.68692L17.8487 6.25841C18.2644 6.29441 18.6769 6.16119 18.9919 5.88924L23.9905 1.57365Z" stroke="#E43D30" stroke-width="2" stroke-linecap="round" stroke-linejoin="round"/>
</svg>
