<svg width="51" height="51" viewBox="0 0 51 51" fill="none" xmlns="http://www.w3.org/2000/svg">
<g clip-path="url(#clip0_8001_746)">
<path d="M25.2401 12.3501C18.1301 12.3501 12.3401 18.1301 12.3401 25.2401C12.3401 32.3501 18.1301 38.1401 25.2401 38.1401C32.3501 38.1401 38.1301 32.3501 38.1301 25.2401C38.1301 18.1301 32.3501 12.3501 25.2401 12.3501Z" stroke="#E43D30" stroke-width="2" stroke-linecap="round" stroke-linejoin="round"/>
<path d="M18.9495 25.14L23.0795 29.19L31.3495 21.04" stroke="#E43D30" stroke-width="2" stroke-linecap="round" stroke-linejoin="round"/>
<path d="M27.6092 2.06006L32.0692 7.07006C32.3692 7.41006 32.8092 7.59006 33.2592 7.56006L39.9592 7.17006C41.8492 7.06006 43.4192 8.62006 43.3092 10.5201L42.9192 17.2201C42.8892 17.6701 43.0792 18.1101 43.4092 18.4101L48.4192 22.8701C49.8292 24.1301 49.8292 26.3401 48.4192 27.6001L43.4092 32.0601C43.0692 32.3601 42.8892 32.8001 42.9192 33.2501L43.3092 39.9501C43.4192 41.8401 41.8592 43.4101 39.9592 43.3001L33.2592 42.9101C32.8092 42.8801 32.3692 43.0701 32.0692 43.4001L27.6092 48.4101C26.3492 49.8201 24.1392 49.8201 22.8792 48.4101L18.4192 43.4001C18.1192 43.0601 17.6792 42.8801 17.2292 42.9101L10.5292 43.3001C8.63922 43.4101 7.06922 41.8501 7.17922 39.9501L7.56922 33.2501C7.59922 32.8001 7.40922 32.3601 7.07922 32.0601L2.06922 27.6001C0.659219 26.3401 0.659219 24.1301 2.06922 22.8701L7.07922 18.4101C7.41922 18.1101 7.59922 17.6701 7.56922 17.2201L7.17922 10.5201C7.06922 8.63006 8.62922 7.06006 10.5292 7.17006L17.2292 7.56006C17.6792 7.59006 18.1192 7.40006 18.4192 7.07006L22.8792 2.06006C24.1392 0.650064 26.3492 0.650064 27.6092 2.06006Z" stroke="#E43D30" stroke-width="2" stroke-linecap="round" stroke-linejoin="round"/>
</g>
<defs>
<clipPath id="clip0_8001_746">
<rect width="50.48" height="50.48" fill="white"/>
</clipPath>
</defs>
</svg>
