<svg width="58" height="52" viewBox="0 0 58 52" fill="none" xmlns="http://www.w3.org/2000/svg">
<path d="M5.7666 28.3558L28.7847 51.0001L51.8027 28.3558C58.1629 22.0989 58.1558 11.9474 51.7956 5.69051C45.4432 -0.558675 35.1371 -0.565671 28.7847 5.68351C22.4324 -0.565671 12.1261 -0.558675 5.77372 5.69051C-0.586493 11.9474 -0.593609 22.0989 5.7666 28.3558Z" stroke="#E43D30" stroke-width="2" stroke-linecap="round" stroke-linejoin="round"/>
<path d="M33.0763 28.0267C32.0534 29.2585 30.5104 30.0429 28.7842 30.0429C27.0579 30.0429 25.5149 29.2585 24.492 28.0267M41.2146 24.4664C41.2146 31.3316 35.6493 36.8969 28.7842 36.8969C21.919 36.8969 16.3538 31.3316 16.3538 24.4664C16.3538 17.6013 21.919 12.036 28.7842 12.036C35.6493 12.036 41.2146 17.6013 41.2146 24.4664ZM25.9468 21.4886C25.9468 22.0489 25.4926 22.5031 24.9324 22.5031C24.3721 22.5031 23.918 22.0489 23.918 21.4886C23.918 20.9284 24.3721 20.4742 24.9324 20.4742C25.4926 20.4742 25.9468 20.9284 25.9468 21.4886ZM33.3317 21.4886C33.3317 22.0489 32.8776 22.5031 32.3173 22.5031C31.7571 22.5031 31.3029 22.0489 31.3029 21.4886C31.3029 20.9284 31.7571 20.4742 32.3173 20.4742C32.8776 20.4742 33.3317 20.9284 33.3317 21.4886Z" stroke="#E43D30" stroke-width="2" stroke-linecap="round" stroke-linejoin="round"/>
</svg>
