 <svg
                          width="32"
                          height="30"
                          viewBox="0 0 32 30"
                          fill="none"
                          xmlns="http://www.w3.org/2000/svg"
                        >
                          <g clipPath="url(#clip0_1154_569)">
                            <path
                              d="M31.392 18.39V30H24.66V19.17C24.66 16.452 23.688 14.592 21.252 14.592C19.392 14.592 18.288 15.84 17.802 17.052C17.622 17.484 17.58 18.084 17.58 18.69V29.994H10.848C10.848 29.994 10.938 11.652 10.848 9.75H17.58V12.618C17.58 12.618 17.55 12.66 17.538 12.684H17.58V12.618C18.474 11.244 20.07 9.276 23.646 9.276C28.074 9.276 31.392 12.168 31.392 18.384V18.39ZM3.81 0C1.506 0 0 1.512 0 3.498C0 5.484 1.464 6.996 3.72 6.996H3.762C6.108 6.996 7.566 5.442 7.566 3.498C7.524 1.512 6.108 0 3.804 0H3.81ZM0.402 30H7.128V9.756H0.402V30Z"
                              fill="#E63E31"
                            />
                          </g>
                          <defs>
                            <clipPath id="clip0_1154_569">
                              <rect width="31.392" height="30" fill="white" />
                            </clipPath>
                          </defs>
                        </svg>