<svg width="32" height="32" viewBox="0 0 32 32" fill="none" xmlns="http://www.w3.org/2000/svg">
<path d="M15.9969 8.02344C11.5957 8.02344 8.01172 11.6013 8.01172 16.0024C8.01172 20.4035 11.5957 23.9875 15.9969 23.9875C20.398 23.9875 23.9758 20.4035 23.9758 16.0024C23.9758 11.6013 20.398 8.02344 15.9969 8.02344Z" stroke="white" stroke-width="2" stroke-linecap="round" stroke-linejoin="round"/>
<path d="M12.1035 15.9422L14.66 18.4492L19.7792 13.4043" stroke="white" stroke-width="2" stroke-linecap="round" stroke-linejoin="round"/>
<path d="M17.4639 1.6546L20.2247 4.7558C20.4104 4.96626 20.6828 5.07768 20.9613 5.05911L25.1086 4.8177C26.2785 4.74961 27.2504 5.71526 27.1823 6.89137L26.9409 11.0387C26.9223 11.3172 27.0399 11.5896 27.2442 11.7753L30.3454 14.5361C31.2182 15.316 31.2182 16.684 30.3454 17.4639L27.2442 20.2247C27.0337 20.4104 26.9223 20.6828 26.9409 20.9613L27.1823 25.1086C27.2504 26.2786 26.2847 27.2504 25.1086 27.1823L20.9613 26.9409C20.6828 26.9223 20.4104 27.0399 20.2247 27.2442L17.4639 30.3454C16.684 31.2182 15.316 31.2182 14.5361 30.3454L11.7753 27.2442C11.5896 27.0337 11.3172 26.9223 11.0387 26.9409L6.89136 27.1823C5.72145 27.2504 4.74961 26.2847 4.8177 25.1086L5.05911 20.9613C5.07768 20.6828 4.96007 20.4104 4.7558 20.2247L1.6546 17.4639C0.781801 16.684 0.781801 15.316 1.6546 14.5361L4.7558 11.7753C4.96626 11.5896 5.07768 11.3172 5.05911 11.0387L4.8177 6.89137C4.74961 5.72145 5.71526 4.74961 6.89136 4.8177L11.0387 5.05911C11.3172 5.07768 11.5896 4.96007 11.7753 4.7558L14.5361 1.6546C15.316 0.781801 16.684 0.781801 17.4639 1.6546Z" stroke="white" stroke-width="2" stroke-linecap="round" stroke-linejoin="round"/>
</svg>
