<svg width="28" height="32" viewBox="0 0 28 32" fill="none" xmlns="http://www.w3.org/2000/svg">
<path d="M26.6489 7.29967C26.495 6.46848 25.9374 5.77733 25.1568 5.45146L14.9626 1.19275C14.6564 1.06496 14.3326 1 14.0004 1C13.6681 1 13.3451 1.06496 13.0384 1.19275L2.84419 5.45146C2.06412 5.77733 1.50649 6.46848 1.35207 7.29967C1.31852 7.48071 0.54069 11.7948 1.50287 16.7841C2.08379 19.7973 3.17799 22.449 4.75464 24.6641C6.75833 27.4798 9.5138 29.5586 12.9445 30.8418C13.2251 30.9467 13.5196 31 13.8189 31H14.1816C14.4808 31 14.7751 30.9467 15.0557 30.8418C18.4864 29.5586 21.2421 27.4798 23.2458 24.6641C24.8225 22.449 25.9161 19.7973 26.4976 16.7841C27.4592 11.798 26.6817 7.48124 26.6481 7.29967H26.6489ZM26.1104 16.709C25.5402 19.6669 24.4684 22.2664 22.9247 24.4351C20.9674 27.1854 18.2735 29.2167 14.9184 30.4723C14.6825 30.5607 14.4345 30.6054 14.1821 30.6054H13.8194C13.567 30.6054 13.3195 30.5607 13.0836 30.4723C9.72797 29.2167 7.03414 27.1859 5.07677 24.4351C3.53314 22.2664 2.46132 19.6669 1.89104 16.709C0.943241 11.7948 1.70775 7.54941 1.74076 7.37156C1.87015 6.67189 2.33975 6.08989 2.99628 5.81566L13.1905 1.55696C13.4482 1.4494 13.7208 1.39456 14.0004 1.39456C14.2799 1.39456 14.5525 1.4494 14.8102 1.55696L25.0044 5.81566C25.661 6.08989 26.1306 6.67189 26.2599 7.37156C26.293 7.54994 27.0582 11.7948 26.1104 16.709Z" fill="white" stroke="white" stroke-width="1.5"/>
<path d="M18.1713 12.9536C18.1016 12.9536 18.028 12.9888 17.9636 13.0522L17.6368 13.3764C16.8376 14.1693 16.0112 14.9893 15.2066 15.8018C14.6832 16.3306 14.1725 16.8577 13.6321 17.4158C13.3909 17.665 13.1465 17.9168 12.8978 18.1729L12.5864 18.4935C12.5864 18.4935 12.0053 17.9285 11.9936 17.9168C11.8669 17.7901 11.7402 17.6639 11.6135 17.5372C11.0996 17.0233 10.5678 16.4919 10.0358 15.9829C9.98736 15.9366 9.88926 15.8908 9.80779 15.8769C9.80194 15.8759 9.79675 15.8753 9.7909 15.8753C9.7286 15.8753 9.65447 15.935 9.61826 16.0138C9.573 16.1128 9.59584 16.2092 9.6869 16.3002C10.4451 17.0595 11.2184 17.83 11.966 18.575L12.272 18.8801C12.3775 18.985 12.4744 19.0457 12.5383 19.0457C12.6006 19.0457 12.695 18.9871 12.7972 18.8849L16.0623 15.6288C16.2816 15.4099 16.5009 15.1911 16.7208 14.9728C17.2395 14.4563 17.7758 13.9222 18.3008 13.3956C18.4776 13.2183 18.393 13.1017 18.3648 13.0633C18.3126 12.9914 18.2459 12.9531 18.1719 12.9531L18.1713 12.9536Z" fill="white" stroke="white" stroke-width="1.5"/>
</svg>
