<svg width="32" height="32" viewBox="0 0 32 32" fill="none" xmlns="http://www.w3.org/2000/svg">
<path d="M20.0219 12.1481C20.0219 9.96007 18.2757 8.18597 16.1219 8.18597C13.9682 8.18597 12.222 9.96007 12.222 12.1481C12.222 14.3362 13.9682 16.1103 16.1219 16.1103C18.2757 16.1103 20.0219 17.8848 20.0219 20.0729C20.0219 22.261 18.2757 24.0351 16.1219 24.0351C13.9682 24.0351 12.2219 22.261 12.2219 20.0729M16.1211 8.19256V6.51045M16.1211 25.7105V24.0283M31 16C31 24.2843 24.2843 31 16 31C7.71573 31 1 24.2843 1 16C1 7.71573 7.71573 1 16 1C24.2843 1 31 7.71573 31 16Z" stroke="white" stroke-width="2" stroke-linecap="round" stroke-linejoin="round"/>
</svg>
