<svg width="34" height="32" viewBox="0 0 34 32" fill="none" xmlns="http://www.w3.org/2000/svg">
<path d="M17.3164 28.2975V6.04883" stroke="white" stroke-width="1.5" stroke-linecap="round" stroke-linejoin="round"/>
<path d="M17.3175 6.08816C18.7226 6.08816 19.8616 4.94914 19.8616 3.54408C19.8616 2.13902 18.7226 1 17.3175 1C15.9125 1 14.7734 2.13902 14.7734 3.54408C14.7734 4.94914 15.9125 6.08816 17.3175 6.08816Z" stroke="white" stroke-width="1.5" stroke-linecap="round" stroke-linejoin="round"/>
<path d="M7.50462 16.9208C7.49862 16.6148 7.50462 11.1606 7.50462 8.76057C7.50462 8.14255 8.00864 7.64453 8.62666 7.64453H25.5892C26.2072 7.64453 26.7112 8.14855 26.7112 8.76657V16.9268" stroke="white" stroke-width="1.5" stroke-linecap="round" stroke-linejoin="round"/>
<path d="M12.0491 16.9188C12.0491 19.4269 10.0151 21.461 7.50699 21.461C4.99891 21.461 2.96484 19.4269 2.96484 16.9188L7.50699 10.4746L12.0491 16.9188Z" stroke="white" stroke-width="1.5" stroke-linecap="round" stroke-linejoin="round"/>
<path d="M1.58984 16.9199H13.2422" stroke="white" stroke-width="1.5" stroke-linecap="round" stroke-linejoin="round"/>
<path d="M31.2132 16.9188C31.2132 19.4269 29.1791 21.461 26.6711 21.461C24.163 21.461 22.1289 19.4269 22.1289 16.9188L26.6711 10.4746L31.2132 16.9188Z" stroke="white" stroke-width="1.5" stroke-linecap="round" stroke-linejoin="round"/>
<path d="M20.7559 16.9199H32.4082" stroke="white" stroke-width="1.5" stroke-linecap="round" stroke-linejoin="round"/>
<path d="M12.4375 28.293H22.1878C22.6019 28.293 22.9439 28.629 22.9439 29.049V30.9991H11.6875V29.049C11.6875 28.635 12.0235 28.293 12.4435 28.293H12.4375Z" stroke="white" stroke-width="1.5" stroke-linecap="round" stroke-linejoin="round"/>
</svg>
