<svg width="18" height="18" viewBox="0 0 18 18" fill="none" xmlns="http://www.w3.org/2000/svg">
<g clip-path="url(#clip0_2001_74)">
<g clip-path="url(#clip1_2001_74)">
<path d="M5.20312 3.75075C5.20293 4.14857 5.0447 4.53003 4.76326 4.81119C4.48181 5.09235 4.1002 5.2502 3.70238 5.25C3.30455 5.2498 2.9231 5.09158 2.64193 4.81013C2.36077 4.52868 2.20293 4.14707 2.20313 3.74925C2.20332 3.35143 2.36155 2.96997 2.643 2.68881C2.92444 2.40765 3.30605 2.2498 3.70388 2.25C4.1017 2.2502 4.48315 2.40843 4.76432 2.68987C5.04548 2.97132 5.20332 3.35293 5.20312 3.75075ZM5.24813 6.36075H2.24813V15.7507H5.24813V6.36075ZM9.98812 6.36075H7.00313V15.7507H9.95813V10.8232C9.95813 8.07825 13.5356 7.82325 13.5356 10.8232V15.7507H16.4981V9.80325C16.4981 5.17575 11.2031 5.34825 9.95813 7.62075L9.98812 6.36075Z" fill="black"/>
</g>
</g>
<defs>
<clipPath id="clip0_2001_74">
<rect width="18" height="18" fill="white"/>
</clipPath>
<clipPath id="clip1_2001_74">
<rect width="18" height="18" fill="white"/>
</clipPath>
</defs>
</svg>
