<svg width="32" height="32" viewBox="0 0 32 32" fill="none" xmlns="http://www.w3.org/2000/svg">
<path d="M1.00484 15.5667L1.01555 16.2444C1.07667 20.1934 2.6627 23.8996 5.48186 26.6812C8.30415 29.4659 12.0362 30.9992 15.99 30.9992L15.9907 31C18.3421 31 20.689 30.4382 22.7755 29.375L22.9438 29.2888L30.6484 30.9992C30.6538 30.9992 30.6808 30.9992 30.7004 30.9992C30.7921 30.9992 30.8835 30.9507 30.9391 30.8715C31.0112 30.7728 31.0148 30.6505 30.9529 30.555L27.6902 25.3962L27.9136 25.1047C29.903 22.5097 30.998 19.2768 30.998 16C30.998 7.73688 24.2649 1.00862 15.9892 1C14.676 1 13.3442 1.18331 12.0294 1.54452L10.8174 1.9426L10.4853 2.07497C7.95058 3.08417 5.73271 4.77192 4.07318 6.95486C2.38544 9.1754 1.35604 11.8089 1.09513 14.5724L1.06222 14.9211L1.00661 15.6791" stroke="white" stroke-width="2"/>
<path d="M10.3649 11.1641H22.3789" stroke="white" stroke-width="2"/>
<path d="M10.3649 16.0664H22.3789" stroke="white" stroke-width="2"/>
<path d="M10.3627 20.9678H19.1094" stroke="white" stroke-width="2"/>
</svg>
