<svg width="32" height="32" viewBox="0 0 32 32" fill="none" xmlns="http://www.w3.org/2000/svg">
<path d="M5.03551 1C5.03551 0.447715 4.5878 0 4.03551 0C3.48323 0 3.03551 0.447715 3.03551 1H4.03551H5.03551ZM3.03551 7.07102C3.03551 7.62331 3.48323 8.07102 4.03551 8.07102C4.5878 8.07102 5.03551 7.62331 5.03551 7.07102L4.03551 7.07102L3.03551 7.07102ZM7.07102 5.03551C7.62331 5.03551 8.07102 4.5878 8.07102 4.03551C8.07102 3.48323 7.62331 3.03551 7.07102 3.03551V4.03551V5.03551ZM1 3.03551C0.447715 3.03551 4.06671e-08 3.48323 0 4.03551C-4.0667e-08 4.58779 0.447715 5.03551 1 5.03551L1 4.03551L1 3.03551ZM5.03551 12.9645C5.03551 12.4122 4.5878 11.9645 4.03551 11.9645C3.48323 11.9645 3.03551 12.4122 3.03551 12.9645H4.03551H5.03551ZM3.03551 19.0355C3.03551 19.5878 3.48323 20.0355 4.03551 20.0355C4.5878 20.0355 5.03551 19.5878 5.03551 19.0355L4.03551 19.0355L3.03551 19.0355ZM7.07102 17C7.62331 17 8.07102 16.5523 8.07102 16C8.07102 15.4477 7.62331 15 7.07102 15V16V17ZM1 15C0.447715 15 0 15.4477 0 16C0 16.5523 0.447715 17 1 17V16V15ZM17 1C17 0.447715 16.5523 0 16 0C15.4477 0 15 0.447715 15 1H16H17ZM15 7.07102C15 7.62331 15.4477 8.07102 16 8.07102C16.5523 8.07102 17 7.62331 17 7.07102H16H15ZM19.0355 5.03551C19.5878 5.03551 20.0355 4.5878 20.0355 4.03551C20.0355 3.48323 19.5878 3.03551 19.0355 3.03551V4.03551V5.03551ZM12.9645 3.03551C12.4122 3.03551 11.9645 3.48323 11.9645 4.03551C11.9645 4.58779 12.4122 5.03551 12.9645 5.03551L12.9645 4.03551L12.9645 3.03551ZM28.9645 24.929C28.9645 24.3767 28.5168 23.929 27.9645 23.929C27.4122 23.929 26.9645 24.3767 26.9645 24.929H27.9645H28.9645ZM26.9645 31C26.9645 31.5523 27.4122 32 27.9645 32C28.5168 32 28.9645 31.5523 28.9645 31H27.9645H26.9645ZM31 28.9645C31.5523 28.9645 32 28.5168 32 27.9645C32 27.4122 31.5523 26.9645 31 26.9645V27.9645V28.9645ZM24.929 26.9645C24.3767 26.9645 23.929 27.4122 23.929 27.9645C23.929 28.5168 24.3767 28.9645 24.929 28.9645V27.9645V26.9645ZM15.9999 27.9642V28.9642C16.5521 28.9642 16.9999 28.5165 16.9999 27.9642H15.9999ZM15.9999 15.9997V14.9997C15.4476 14.9997 14.9999 15.4474 14.9999 15.9997H15.9999ZM27.9643 15.9997V16.9997C28.5166 16.9997 28.9643 16.552 28.9643 15.9997H27.9643ZM4.03551 1H3.03551V4.03551H4.03551H5.03551V1H4.03551ZM4.03551 4.03551L3.03551 4.03551L3.03551 7.07102L4.03551 7.07102L5.03551 7.07102L5.03551 4.03551L4.03551 4.03551ZM7.07102 4.03551V3.03551H4.03551V4.03551V5.03551H7.07102V4.03551ZM4.03551 4.03551L4.03551 3.03551L1 3.03551L1 4.03551L1 5.03551L4.03551 5.03551L4.03551 4.03551ZM4.03551 12.9645H3.03551V16H4.03551H5.03551V12.9645H4.03551ZM4.03551 16L3.03551 16L3.03551 19.0355L4.03551 19.0355L5.03551 19.0355L5.03551 16L4.03551 16ZM7.07102 16V15H4.03551V16V17H7.07102V16ZM4.03551 16V15H1V16V17H4.03551V16ZM16 1H15V4.03551H16H17V1H16ZM16 4.03551H15V7.07102H16H17V4.03551H16ZM19.0355 4.03551V3.03551H16V4.03551V5.03551H19.0355V4.03551ZM16 4.03551L16 3.03551L12.9645 3.03551L12.9645 4.03551L12.9645 5.03551L16 5.03551L16 4.03551ZM27.9645 24.929H26.9645V27.9645H27.9645H28.9645V24.929H27.9645ZM27.9645 27.9645H26.9645V31H27.9645H28.9645V27.9645H27.9645ZM31 27.9645V26.9645H27.9645V27.9645V28.9645H31V27.9645ZM27.9645 27.9645V26.9645H24.929V27.9645V28.9645H27.9645V27.9645ZM7.1805 27.9642V28.9642H15.9999V27.9642V26.9642H7.1805V27.9642ZM15.9999 27.9642H16.9999V15.9997H15.9999H14.9999V27.9642H15.9999ZM15.9999 15.9997V16.9997H27.9643V15.9997V14.9997H15.9999V15.9997ZM27.9643 15.9997H28.9643V6.94177H27.9643H26.9643V15.9997H27.9643ZM30.9998 4.03543H29.9998C29.9998 5.15957 29.0885 6.07086 27.9643 6.07086V7.07086V8.07086C30.193 8.07086 31.9998 6.26414 31.9998 4.03543H30.9998ZM27.9643 7.07086V6.07086C26.8402 6.07086 25.9289 5.15957 25.9289 4.03543H24.9289H23.9289C23.9289 6.26414 25.7356 8.07086 27.9643 8.07086V7.07086ZM24.9289 4.03543H25.9289C25.9289 2.91129 26.8402 2 27.9643 2V1V0C25.7356 0 23.9289 1.80672 23.9289 4.03543H24.9289ZM27.9643 1V2C29.0885 2 29.9998 2.91129 29.9998 4.03543H30.9998H31.9998C31.9998 1.80672 30.193 0 27.9643 0V1ZM7.07086 27.9646H6.07086C6.07086 29.0887 5.15957 30 4.03543 30V31V32C6.26414 32 8.07086 30.1933 8.07086 27.9646H7.07086ZM4.03543 31V30C2.91129 30 2 29.0887 2 27.9646H1H0C0 30.1933 1.80672 32 4.03543 32V31ZM1 27.9646H2C2 26.8404 2.91129 25.9291 4.03543 25.9291V24.9291V23.9291C1.80672 23.9291 0 25.7359 0 27.9646H1ZM4.03543 24.9291V25.9291C5.15957 25.9291 6.07086 26.8404 6.07086 27.9646H7.07086H8.07086C8.07086 25.7359 6.26414 23.9291 4.03543 23.9291V24.9291Z" fill="white"/>
</svg>
