<svg width="18" height="18" viewBox="0 0 18 18" fill="none" xmlns="http://www.w3.org/2000/svg">
<g clip-path="url(#clip0_2001_62)">
<g clip-path="url(#clip1_2001_62)">
<path d="M11.1227 12.1785L9.0014 14.2998C8.26777 15.0334 7.38371 15.4002 6.34922 15.4002C5.31472 15.4002 4.43101 15.0334 3.6981 14.2998C2.96447 13.5662 2.59766 12.6821 2.59766 11.6476C2.59766 10.6131 2.96447 9.72942 3.6981 8.99651L5.81942 6.87519L6.88008 7.93585L4.75876 10.0571C4.31681 10.4991 4.09584 11.0294 4.09584 11.6481C4.09584 12.2669 4.31681 12.7972 4.75876 13.2391C5.2007 13.6811 5.73103 13.902 6.34975 13.902C6.96846 13.902 7.4988 13.6811 7.94074 13.2391L10.0621 11.1178L11.1227 12.1785ZM7.41041 11.6481L6.34975 10.5875L10.5924 6.34486L11.6531 7.40552L7.41041 11.6481ZM12.1834 11.1178L11.1227 10.0571L13.2441 7.93585C13.686 7.49391 13.907 6.96358 13.907 6.34486C13.907 5.72614 13.686 5.19581 13.2441 4.75387C12.8021 4.31193 12.2718 4.09095 11.6531 4.09095C11.0344 4.09095 10.504 4.31192 10.0621 4.75387L7.94074 6.87519L6.88008 5.81453L9.0014 3.69321C9.73502 2.95958 10.6191 2.59277 11.6536 2.59277C12.6881 2.59277 13.5718 2.95958 14.3047 3.69321C15.0384 4.42683 15.4052 5.31089 15.4052 6.34539C15.4052 7.37988 15.0384 8.26359 14.3047 8.99651L12.1834 11.1178Z" fill="black"/>
</g>
</g>
<defs>
<clipPath id="clip0_2001_62">
<rect width="18" height="18" fill="white"/>
</clipPath>
<clipPath id="clip1_2001_62">
<rect width="18" height="18" fill="white"/>
</clipPath>
</defs>
</svg>
