<svg width="40" height="40" viewBox="0 0 40 40" fill="none" xmlns="http://www.w3.org/2000/svg">
<g clip-path="url(#clip0_152_7036)">
<mask id="path-1-inside-1_152_7036" fill="white">
<path d="M35.24 0H4.76C2.136 0 0 2.136 0 4.76V35.24C0 37.864 2.136 40 4.76 40H35.24C37.864 40 40 37.864 40 35.24V4.76C40 2.136 37.864 0 35.24 0ZM31.432 17.448C31.216 17.472 30.992 17.48 30.776 17.48C28.368 17.48 26.128 16.264 24.808 14.256V25.24C24.808 29.728 21.176 33.36 16.688 33.36C12.2 33.36 8.568 29.728 8.568 25.24C8.568 20.752 12.2 17.12 16.688 17.12C16.856 17.12 17.024 17.136 17.192 17.144V21.144C17.024 21.128 16.864 21.096 16.688 21.096C14.4 21.096 12.544 22.952 12.544 25.24C12.544 27.528 14.4 29.384 16.688 29.384C18.976 29.384 21 27.584 21 25.288L21.04 6.624H24.872C25.232 10.056 28 12.736 31.448 12.992V17.44"/>
</mask>
<path d="M35.24 0H4.76C2.136 0 0 2.136 0 4.76V35.24C0 37.864 2.136 40 4.76 40H35.24C37.864 40 40 37.864 40 35.24V4.76C40 2.136 37.864 0 35.24 0ZM31.432 17.448C31.216 17.472 30.992 17.48 30.776 17.48C28.368 17.48 26.128 16.264 24.808 14.256V25.24C24.808 29.728 21.176 33.36 16.688 33.36C12.2 33.36 8.568 29.728 8.568 25.24C8.568 20.752 12.2 17.12 16.688 17.12C16.856 17.12 17.024 17.136 17.192 17.144V21.144C17.024 21.128 16.864 21.096 16.688 21.096C14.4 21.096 12.544 22.952 12.544 25.24C12.544 27.528 14.4 29.384 16.688 29.384C18.976 29.384 21 27.584 21 25.288L21.04 6.624H24.872C25.232 10.056 28 12.736 31.448 12.992V17.44" fill="#010101"/>
<path d="M24.808 14.256L25.6436 13.7067L23.808 10.9143V14.256H24.808ZM17.192 17.144H18.192V16.1905L17.2396 16.1451L17.192 17.144ZM17.192 21.144L17.0972 22.1395L18.192 22.2438V21.144H17.192ZM21 25.288L20 25.2859V25.288H21ZM21.04 6.624V5.624H20.0421L20.04 6.62186L21.04 6.624ZM24.872 6.624L25.8665 6.51968L25.7726 5.624H24.872V6.624ZM31.448 12.992H32.448V12.0635L31.522 11.9947L31.448 12.992ZM35.24 0V-1H4.76V0V1H35.24V0ZM4.76 0V-1C1.58371 -1 -1 1.58371 -1 4.76H0H1C1 2.68828 2.68828 1 4.76 1V0ZM0 4.76H-1V35.24H0H1V4.76H0ZM0 35.24H-1C-1 38.4163 1.58372 41 4.76 41V40V39C2.68828 39 1 37.3117 1 35.24H0ZM4.76 40V41H35.24V40V39H4.76V40ZM35.24 40V41C38.4163 41 41 38.4163 41 35.24H40H39C39 37.3117 37.3117 39 35.24 39V40ZM40 35.24H41V4.76H40H39V35.24H40ZM40 4.76H41C41 1.58372 38.4163 -1 35.24 -1V0V1C37.3117 1 39 2.68828 39 4.76H40ZM31.432 17.448L31.3216 16.4541C31.1542 16.4727 30.9695 16.48 30.776 16.48V17.48V18.48C31.0145 18.48 31.2778 18.4713 31.5424 18.4419L31.432 17.448ZM30.776 17.48V16.48C28.7065 16.48 26.7797 15.4349 25.6436 13.7067L24.808 14.256L23.9724 14.8053C25.4763 17.0931 28.0295 18.48 30.776 18.48V17.48ZM24.808 14.256H23.808V25.24H24.808H25.808V14.256H24.808ZM24.808 25.24H23.808C23.808 29.1757 20.6237 32.36 16.688 32.36V33.36V34.36C21.7283 34.36 25.808 30.2803 25.808 25.24H24.808ZM16.688 33.36V32.36C12.7523 32.36 9.568 29.1757 9.568 25.24H8.568H7.568C7.568 30.2803 11.6477 34.36 16.688 34.36V33.36ZM8.568 25.24H9.568C9.568 21.3043 12.7523 18.12 16.688 18.12V17.12V16.12C11.6477 16.12 7.568 20.1997 7.568 25.24H8.568ZM16.688 17.12V18.12C16.8282 18.12 16.9092 18.1317 17.1444 18.1429L17.192 17.144L17.2396 16.1451C17.1388 16.1403 16.8838 16.12 16.688 16.12V17.12ZM17.192 17.144H16.192V21.144H17.192H18.192V17.144H17.192ZM17.192 21.144L17.2868 20.1485C17.2568 20.1456 16.9186 20.096 16.688 20.096V21.096V22.096C16.8094 22.096 16.7912 22.1104 17.0972 22.1395L17.192 21.144ZM16.688 21.096V20.096C13.8477 20.096 11.544 22.3997 11.544 25.24H12.544H13.544C13.544 23.5043 14.9523 22.096 16.688 22.096V21.096ZM12.544 25.24H11.544C11.544 28.0803 13.8477 30.384 16.688 30.384V29.384V28.384C14.9523 28.384 13.544 26.9757 13.544 25.24H12.544ZM16.688 29.384V30.384C19.4593 30.384 22 28.2028 22 25.288H21H20C20 26.9652 18.4927 28.384 16.688 28.384V29.384ZM21 25.288L22 25.2901L22.04 6.62614L21.04 6.624L20.04 6.62186L20 25.2859L21 25.288ZM21.04 6.624V7.624H24.872V6.624V5.624H21.04V6.624ZM24.872 6.624L23.8775 6.72832C24.2881 10.643 27.4451 13.6976 31.374 13.9893L31.448 12.992L31.522 11.9947C28.5549 11.7744 26.1759 9.46903 25.8665 6.51968L24.872 6.624ZM31.448 12.992H30.448V17.44H31.448H32.448V12.992H31.448Z" fill="black" mask="url(#path-1-inside-1_152_7036)"/>
</g>
<defs>
<clipPath id="clip0_152_7036">
<rect width="40" height="40" fill="white"/>
</clipPath>
</defs>
</svg>
