<svg width="146" height="39" viewBox="0 0 146 39" fill="none" xmlns="http://www.w3.org/2000/svg">
<path d="M3.09236 15.4601H17.3615V19.5445L11.9959 19.9641C3.33072 20.6236 0.615723 22.9633 0.615723 29.5087V30.8307C0.615723 35.6315 3.9184 38.5122 8.9901 38.5122C12.9989 38.5122 15.2866 37.5499 18.1306 34.5954H18.5893V37.719H24.3086V9.08373H3.09236V15.4601ZM17.3615 29.2674C15.6119 31.069 12.9404 32.2696 10.7576 32.2696C8.39943 32.2696 7.39948 31.3688 7.45495 29.3888C7.51492 26.6249 8.50437 25.967 13.0514 25.5458L17.354 25.1261L17.3615 29.2674Z" fill="#FF8800"/>
<path d="M137.126 20.6236L132.879 20.1963C130.521 19.958 129.93 19.3554 129.93 17.437C129.93 15.2756 130.756 14.7345 134.057 14.7345C137.006 14.7345 137.832 15.2157 138.255 17.2556H144.86C144.682 10.4103 142.617 8.67329 134.421 8.67329C125.459 8.67329 123.227 10.4119 123.227 17.4385C123.227 23.8487 124.878 25.6011 131.543 26.2606L135.023 26.6172C138.147 26.9201 138.913 27.518 138.913 29.4411C138.913 31.7807 137.968 32.3833 134.138 32.3833C130.777 32.3833 129.891 31.8422 129.717 29.6194H123.032C123.208 36.7029 125.33 38.5045 133.823 38.5045C143.268 38.5045 145.616 36.5845 145.616 28.7786C145.616 22.9663 143.905 21.2862 137.126 20.6267V20.6236Z" fill="#054ADA"/>
<path d="M101.745 21.1647C101.745 11.9045 98.6181 8.6779 89.6561 8.6779C80.694 8.6779 77.3314 12.8776 77.3314 23.323C77.3314 34.7199 80.3987 38.5122 90.3067 38.5122C97.4398 38.5122 100.452 36.294 101.449 30.0468H94.6693C93.9032 31.9698 93.0772 32.391 90.1883 32.391C85.8257 32.391 84.7028 31.1305 84.469 25.7887H101.26C101.551 24.2637 101.711 22.7188 101.745 21.1663V21.1647ZM84.5274 20.1425C84.5874 16.1211 86.178 14.6192 89.9499 14.6192C93.7218 14.6192 95.0216 16.1226 95.1416 20.1425H84.5274Z" fill="#054ADA"/>
<path d="M47.5548 9.0991H36.5284V0.512207H29.5108V37.7328H36.5284V15.5201H46.5504V37.7328H53.568V14.9221H47.5548V9.0991Z" fill="#054ADA"/>
<path d="M105.694 10.3565V37.7328H112.712V15.2095H121.142V9.09756H112.712V8.31358C112.772 6.63187 113.184 6.15533 114.541 6.15533H122.205V0.512207H113.949C108.348 0.512207 105.693 2.25387 105.693 10.3565H105.694Z" fill="#054ADA"/>
<path d="M58.7551 37.7328H65.7728V15.8183H76.2115V9.09756H58.7551V37.7328Z" fill="#054ADA"/>
</svg>
