<svg width="188" height="46" viewBox="0 0 188 46" fill="none" xmlns="http://www.w3.org/2000/svg">
<path fill-rule="evenodd" clip-rule="evenodd" d="M77.5307 37.5455C70.3074 42.7142 59.8415 45.4751 50.8204 45.4751C38.1714 45.4751 26.8067 40.9485 18.1708 33.4041C17.4966 32.8262 18.1066 31.9915 18.9092 32.4731C28.2193 37.706 39.7124 40.8843 51.5587 40.8843C59.5526 40.8843 68.3811 39.2791 76.4713 35.9403C77.7234 35.3945 78.7507 36.6787 77.5307 37.5455Z" fill="#222E3E"/>
<path fill-rule="evenodd" clip-rule="evenodd" d="M78.9433 34.0141C78.1086 32.9225 73.3251 33.5004 71.2063 33.7572C70.5642 33.8214 70.4679 33.2757 71.0458 32.8583C74.834 30.1616 81.0621 30.9321 81.7684 31.831C82.5068 32.762 81.5758 39.0865 78.0123 42.1042C77.4665 42.5537 76.9529 42.329 77.1776 41.719C78.0123 39.6643 79.8101 35.1056 78.9433 34.0141Z" fill="#222E3E"/>
<path fill-rule="evenodd" clip-rule="evenodd" d="M71.3668 10.6746V7.75315C71.3668 7.3037 71.6878 7.01476 72.0731 7.01476H84.6578C85.0751 7.01476 85.3962 7.3358 85.3962 7.75315V10.2572C85.3962 10.6746 85.043 11.2204 84.4331 12.0872L77.916 21.7825C80.3238 21.7183 82.8921 22.1036 85.1072 23.3877C85.5888 23.6766 85.7493 24.094 85.7814 24.5434V27.6575C85.7814 28.0749 85.332 28.5885 84.8504 28.3317C80.9658 26.2128 75.8292 25.9881 71.5273 28.3638C71.0779 28.6206 70.6284 28.107 70.6284 27.6896V24.704C70.6284 24.2224 70.6284 23.4198 71.11 22.6814L78.6865 11.3809H72.1052C71.7199 11.413 71.3989 11.124 71.3668 10.6746Z" fill="#222E3E"/>
<path fill-rule="evenodd" clip-rule="evenodd" d="M25.8757 29.7122H22.1516C21.7985 29.6801 21.5096 29.3911 21.4775 29.038V8.2026C21.4775 7.78525 21.7985 7.46421 22.2158 7.46421H25.7152C26.0683 7.49632 26.3572 7.78525 26.3893 8.1705V10.8993H26.4536C27.3525 8.26681 29.0861 7.04687 31.3975 7.04687C33.7411 7.04687 35.2179 8.26681 36.2452 10.8993C37.1441 8.26681 39.2309 7.04687 41.4139 7.04687C42.987 7.04687 44.6885 7.75315 45.748 9.32623C46.9358 11.0919 46.679 13.6281 46.679 15.8433V28.9738C46.679 29.3911 46.3579 29.7122 45.9727 29.7122H42.2165C41.8313 29.6801 41.5423 29.359 41.5423 28.9738V17.9301C41.5423 17.0633 41.6066 14.8481 41.446 14.0134C41.1571 12.6008 40.3224 12.2156 39.2309 12.2156C38.332 12.2156 37.3689 12.8577 36.9836 13.9171C36.5984 14.9765 36.6305 16.7101 36.6305 17.898V28.9417C36.6305 29.359 36.3094 29.6801 35.9242 29.6801H32.168C31.7828 29.648 31.4939 29.3269 31.4939 28.9417V17.898C31.4939 15.5865 31.847 12.1514 29.1824 12.1514C26.4857 12.1514 26.582 15.4902 26.582 17.898V28.9417C26.6141 29.3911 26.293 29.7122 25.8757 29.7122Z" fill="#222E3E"/>
<path fill-rule="evenodd" clip-rule="evenodd" d="M97.1141 11.1883C94.2568 11.1883 94.0642 15.2012 94.0642 17.6732C94.0642 20.1773 94.0321 25.5066 97.082 25.5066C100.1 25.5066 100.228 21.2046 100.228 18.5721C100.228 16.8385 100.164 14.7839 99.6503 13.1466C99.2329 11.734 98.334 11.1883 97.1141 11.1883ZM97.082 7.01476C102.861 7.01476 105.975 12.0872 105.975 18.54C105.975 24.7682 102.508 29.7122 97.082 29.7122C91.3996 29.7122 88.3176 24.6398 88.3176 18.3153C88.3176 11.9587 91.4317 7.01476 97.082 7.01476Z" fill="#222E3E"/>
<path fill-rule="evenodd" clip-rule="evenodd" d="M114.097 29.7122H110.437C110.052 29.6801 109.763 29.359 109.763 28.9738V8.13839C109.795 7.75315 110.084 7.46421 110.469 7.46421H113.872C114.193 7.49632 114.45 7.72104 114.514 8.04208V11.2204H114.579C115.606 8.36312 117.051 7.01476 119.587 7.01476C121.224 7.01476 122.861 7.68894 123.889 9.45465C124.852 11.1241 124.852 13.9171 124.852 15.9396V29.038C124.82 29.4232 124.499 29.6801 124.145 29.6801H120.454C120.1 29.648 119.844 29.3911 119.811 29.038V17.7374C119.811 15.4581 120.068 12.1193 117.5 12.1193C116.601 12.1193 115.766 12.7613 115.381 13.7887C114.867 15.0728 114.803 16.3249 114.803 17.7374V28.9417C114.803 29.3911 114.482 29.7122 114.097 29.7122Z" fill="#222E3E"/>
<path fill-rule="evenodd" clip-rule="evenodd" d="M66.1339 29.3911C65.877 29.6159 65.4918 29.648 65.2029 29.4874C63.8866 28.3959 63.6619 27.8822 62.9235 26.8549C60.7404 29.0701 59.1995 29.7443 56.4064 29.7443C53.0676 29.7443 50.4672 27.6896 50.4672 23.5482C50.4672 20.3378 52.2008 18.1227 54.6728 17.0633C56.8238 16.1322 59.8094 15.9396 62.1209 15.6828V15.1691C62.1209 14.2381 62.1851 13.1145 61.6393 12.2798C61.1578 11.5414 60.2268 11.2525 59.4242 11.2525C57.9153 11.2525 56.5669 12.023 56.2459 13.6281C56.1817 13.9813 55.9249 14.3344 55.5717 14.3665L51.7514 13.9492C51.4303 13.885 51.0772 13.6281 51.1735 13.1145C52.0403 8.42733 56.2459 7.04687 60.0342 7.04687C61.9604 7.04687 64.4645 7.56053 66.0055 9.0373C67.9317 10.8351 67.7391 13.2429 67.7391 15.8754V22.0715C67.7391 23.9335 68.5096 24.7361 69.2479 25.7634C69.5048 26.1165 69.569 26.566 69.2479 26.8228C68.3811 27.4328 66.9365 28.6848 66.1339 29.3911ZM62.153 19.6958C62.153 21.2368 62.1851 22.5209 61.4146 23.9014C60.7725 25.025 59.7773 25.6992 58.6858 25.6992C57.1769 25.6992 56.278 24.5435 56.278 22.8098C56.278 19.4389 59.2958 18.7969 62.153 18.7969V19.6958Z" fill="#222E3E"/>
<path fill-rule="evenodd" clip-rule="evenodd" d="M15.6667 29.3911C15.4098 29.6159 15.0246 29.648 14.7357 29.4874C13.4194 28.3959 13.1947 27.8822 12.4563 26.8549C10.2732 29.0701 8.73224 29.7443 5.93921 29.7443C2.60041 29.7443 0 27.6896 0 23.5482C0 20.3378 1.73361 18.1227 4.2056 17.0633C6.35656 16.1322 9.34221 15.9396 11.6537 15.6828V15.1691C11.6537 14.2381 11.7179 13.1145 11.1721 12.2798C10.6906 11.5414 9.75956 11.2525 8.95697 11.2525C7.44809 11.2525 6.09973 12.023 5.77869 13.6281C5.71448 13.9813 5.45765 14.3344 5.10451 14.3665L1.28415 13.9492C0.963115 13.885 0.609972 13.6281 0.706284 13.1145C1.57309 8.42733 5.77869 7.01476 9.53484 7.01476C11.4611 7.01476 13.9652 7.52842 15.5061 9.0052C17.4324 10.803 17.2398 13.2108 17.2398 15.8433V22.0393C17.2398 23.9014 18.0102 24.704 18.7486 25.7313C19.0055 26.0844 19.0697 26.5339 18.7486 26.7907C17.9139 27.4328 16.4693 28.6848 15.6667 29.3911ZM11.6858 19.6958C11.6858 21.2368 11.7179 22.5209 10.9474 23.9014C10.3053 25.025 9.31011 25.6992 8.21858 25.6992C6.7097 25.6992 5.81079 24.5435 5.81079 22.8098C5.81079 19.4389 8.82855 18.7969 11.6858 18.7969V19.6958Z" fill="#222E3E"/>
<path fill-rule="evenodd" clip-rule="evenodd" d="M156.41 12.7934C155.318 14.1097 154.805 15.9075 154.805 18.219C154.805 20.5305 155.318 22.3604 156.346 23.7087C157.533 25.2176 159.267 25.9881 161.611 25.9881C163.794 25.9881 165.463 25.2497 166.683 23.7409C167.742 22.3925 168.288 20.6268 168.288 18.4758V18.0906C168.288 15.8433 167.646 14.0134 166.49 12.6329C165.27 11.2204 163.697 10.5462 161.771 10.5462C159.395 10.5462 157.598 11.2846 156.41 12.7934ZM171.563 1.4929V27.2402C171.563 27.6254 171.21 27.9144 170.792 27.9144H169.219C168.77 27.9144 168.417 27.5933 168.417 27.2081V24.7361C166.908 27.2081 164.468 28.428 161.225 28.428C158.047 28.428 155.575 27.3686 153.809 25.346C152.172 23.484 151.37 21.0762 151.37 18.1548C151.37 15.2975 152.172 12.9861 153.809 11.1241C155.575 9.0373 157.951 8.00998 161.065 8.00998C164.179 8.00998 166.555 9.35834 168.224 12.0872V1.36449C168.224 0.97924 168.577 0.658203 169.027 0.658203H170.696C171.178 0.690307 171.563 1.04345 171.563 1.4929Z" fill="#222E3E"/>
<path fill-rule="evenodd" clip-rule="evenodd" d="M145.751 19.8884C145.751 21.4615 145.013 22.8741 143.568 24.094C142.092 25.346 140.422 25.9881 138.528 25.9881C137.276 25.9881 136.281 25.6671 135.51 25.0892C134.74 24.4471 134.387 23.7087 134.387 22.7777C134.387 19.8242 136.634 18.3474 141.128 18.2511L145.751 18.1869V19.8884ZM147.068 9.29413C145.655 7.75315 143.568 7.01476 140.711 7.01476C139.844 7.01476 139.074 7.07897 138.335 7.20739C136.281 7.46422 134.387 8.39523 132.974 9.26203C132.717 9.42255 132.621 9.74359 132.749 10.0004L133.327 11.1883C133.456 11.4772 133.841 11.6056 134.13 11.4451C135.478 10.7067 137.308 10.0646 138.913 9.71148C139.395 9.61517 139.941 9.58307 140.518 9.58307C144.018 9.58307 145.751 11.2846 145.751 14.6876V15.747L140.936 15.8112C137.918 15.8433 135.574 16.2607 133.937 17.3843C132.075 18.5721 131.176 20.4663 131.176 22.7777C131.176 24.415 131.786 25.7955 133.038 26.8549C134.226 27.8822 135.831 28.3959 137.854 28.3959C139.716 28.3959 141.385 27.9786 142.862 27.1439C144.114 26.4376 145.141 25.5387 145.912 24.415V27.0796C145.912 27.497 146.265 27.8501 146.682 27.8501H148.063C148.48 27.8501 148.833 27.497 148.833 27.0796V14.7839C148.865 12.4724 148.255 10.6425 147.068 9.29413Z" fill="#222E3E"/>
<path fill-rule="evenodd" clip-rule="evenodd" d="M174.099 24.6719C174.099 24.2224 174.613 23.9335 174.998 24.1903C176.571 25.1213 178.24 25.5708 180.038 25.5708C182.863 25.5708 184.79 24.6398 184.79 22.8098C184.79 22.0394 184.469 21.3652 183.859 20.8836C183.249 20.37 181.483 19.76 179.589 19.0858C177.309 18.1869 175.833 17.288 175.158 16.3891C174.484 15.4902 174.131 14.4307 174.131 13.1787C174.131 11.3809 174.902 9.77569 176.443 8.68416C177.984 7.59263 179.878 7.04687 182.125 7.04687C183.73 7.04687 185.239 7.46421 186.62 7.97788C186.844 8.07419 187.005 8.26681 187.005 8.52364V10.6104C187.005 11.0598 186.555 11.3167 186.138 11.1241C184.822 10.482 183.377 9.96831 181.772 9.96831C180.616 9.96831 179.332 10.2251 178.594 10.7067C177.855 11.1883 177.342 12.0551 177.342 12.8577C177.342 13.6603 177.598 14.3023 178.144 14.7518C178.658 15.2012 180.327 15.7791 182.125 16.4854C184.404 17.3201 185.977 18.219 186.78 19.1179C187.583 20.0168 188 21.1404 188 22.4888C188 24.3508 187.23 25.8276 185.689 26.887C184.148 27.9465 182.157 28.4922 179.685 28.4922C177.695 28.4922 175.961 28.1391 174.452 27.4649C174.227 27.3686 174.099 27.176 174.099 26.9191V24.6719Z" fill="#222E3E"/>
</svg>
