<svg width="56" height="69" viewBox="0 0 56 69" fill="none" xmlns="http://www.w3.org/2000/svg">
<path d="M1.4854 35.7878L19.763 4.49859C22.084 5.86507 33.7901 12.3437 35.6793 13.5759L17.4036 44.8652C15.4064 47.5052 -1.0486 39.7953 1.4854 35.7878Z" fill="#FBBC04"/>
<path d="M54.0367 35.7878L35.7629 4.49859C34.507 2.42139 32.4903 0.916017 30.1418 0.302588C27.7932 -0.310842 25.298 0.0160582 23.1868 1.21377C22.1329 1.78344 21.206 2.5616 20.4625 3.5009C19.7189 4.44019 19.1743 5.52096 18.8618 6.67743C18.5492 7.8339 18.4752 9.04188 18.6444 10.2278C18.8135 11.4138 19.2222 12.5529 19.8456 13.5759L38.1204 44.8652C39.3763 46.9424 41.393 48.4477 43.7415 49.0612C46.0901 49.6746 48.5853 49.3477 50.6966 48.15C51.7296 47.5597 52.6358 46.7713 53.3632 45.8298C54.0906 44.8884 54.6248 43.8125 54.9353 42.664C55.2457 41.5155 55.3262 40.317 55.1722 39.1373C55.0182 37.9576 54.6326 36.82 54.0377 35.7897L54.0367 35.7878Z" fill="#4285F4"/>
<path d="M9.39522 49.3597C14.4619 49.3597 18.5692 45.3545 18.5692 40.4138C18.5692 35.4731 14.4619 31.4678 9.39522 31.4678C4.32856 31.4678 0.221214 35.4731 0.221214 40.4138C0.221214 45.3545 4.32856 49.3597 9.39522 49.3597Z" fill="#34A853"/>
<path fill-rule="evenodd" clip-rule="evenodd" d="M37.6033 65.4112L40.4977 57.7332H41.6127L44.5079 65.4112H43.4145L42.6742 63.3314H39.4465L38.6958 65.4112H37.6033ZM39.7798 62.4079H42.3317L41.0767 58.9448H41.0346L39.7798 62.4079ZM47.2747 65.582C46.941 65.5828 46.6112 65.5113 46.3078 65.3724C46.0043 65.2336 45.7344 65.0307 45.5168 64.7777C45.0206 64.2342 44.7552 63.519 44.7765 62.7834C44.7552 62.0477 45.0206 61.3325 45.5168 60.789C45.7344 60.5361 46.0043 60.3332 46.3078 60.1944C46.6112 60.0555 46.941 59.984 47.2747 59.9847C47.6501 59.9783 48.0209 60.0668 48.353 60.2418C48.6441 60.3882 48.8905 60.6103 49.0663 60.8847H49.1096L49.0663 60.1555V57.7322H50.0527V65.4102H49.1142V64.681H49.0711C48.8953 64.9557 48.649 65.1781 48.3578 65.3249C48.0243 65.5008 47.6517 65.5887 47.2747 65.582ZM47.4362 64.681C47.6588 64.6841 47.8796 64.6398 48.0838 64.5512C48.2879 64.4625 48.4709 64.3315 48.6206 64.1667C48.9594 63.788 49.1348 63.2908 49.1087 62.7834C49.1347 62.2759 48.9593 61.7787 48.6206 61.4C48.4709 61.2352 48.2879 61.1042 48.0838 61.0155C47.8796 60.9268 47.6588 60.8826 47.4362 60.8856C47.2142 60.8841 46.9942 60.9296 46.791 61.0192C46.5878 61.1088 46.4059 61.2405 46.2574 61.4056C45.9172 61.782 45.7399 62.2776 45.7638 62.7843C45.7399 63.2907 45.9173 63.786 46.2574 64.162C46.4058 64.3274 46.5876 64.4592 46.7908 64.549C46.994 64.6388 47.2141 64.6845 47.4362 64.6829V64.681ZM53.1517 65.582C52.6334 65.6025 52.123 65.4518 51.699 65.1531C51.3246 64.8795 51.0323 64.5085 50.8542 64.0804L51.7336 63.7162C51.8336 64.012 52.0265 64.2677 52.2833 64.4454C52.54 64.623 52.8471 64.7132 53.1592 64.7026C53.426 64.7139 53.6897 64.6428 53.9147 64.499C54.0056 64.4424 54.0805 64.3633 54.1321 64.2695C54.1837 64.1757 54.2105 64.0701 54.2095 63.963C54.2095 63.6195 53.9701 63.3871 53.4915 63.2657L52.4299 63.0086C52.0804 62.9162 51.7551 62.7497 51.4756 62.5205C51.329 62.406 51.2118 62.2583 51.1335 62.0896C51.0552 61.9209 51.018 61.736 51.0251 61.5501C51.0231 61.3246 51.0785 61.1023 51.1864 60.9042C51.2943 60.7061 51.4511 60.5389 51.6417 60.4183C52.0715 60.123 52.5836 59.9709 53.1049 59.9837C53.5405 59.9762 53.9702 60.0854 54.3493 60.3C54.707 60.503 54.9835 60.8232 55.132 61.2067L54.2742 61.5604C54.1753 61.3307 54.0052 61.1389 53.7889 61.0134C53.5725 60.888 53.3213 60.8356 53.0728 60.864C52.8142 60.8553 52.5584 60.9183 52.3334 61.0462C52.243 61.0931 52.1671 61.1639 52.1142 61.2509C52.0612 61.338 52.0331 61.4379 52.033 61.5398C52.033 61.8401 52.2654 62.0438 52.7303 62.1508L53.7703 62.3976C54.189 62.471 54.5725 62.6781 54.8635 62.9879C55.0927 63.2485 55.2188 63.584 55.2175 63.9311C55.2198 64.1592 55.1687 64.3848 55.0683 64.5896C54.9679 64.7944 54.8209 64.9729 54.6392 65.1109C54.2141 65.438 53.6875 65.6042 53.1517 65.582Z" fill="#747474"/>
<path d="M4.44736 65.5688C3.86872 65.5836 3.29299 65.4824 2.75409 65.2711C2.21519 65.0599 1.72401 64.7429 1.30954 64.3388C0.895062 63.9348 0.565684 63.4519 0.340774 62.9185C0.115864 62.3852 0 61.8122 0 61.2334C0 60.6545 0.115864 60.0816 0.340774 59.5482C0.565684 59.0149 0.895062 58.532 1.30954 58.1279C1.72401 57.7239 2.21519 57.4069 2.75409 57.1956C3.29299 56.9844 3.86872 56.8831 4.44736 56.8979C5.00082 56.8877 5.5506 56.99 6.06342 57.1984C6.57624 57.4068 7.04146 57.7171 7.43092 58.1105L6.59185 58.9495C6.21234 58.6078 5.75564 58.3632 5.26083 58.2369C4.76603 58.1106 4.24791 58.1062 3.75103 58.2241C3.25416 58.342 2.79335 58.5788 2.4081 58.914C2.02285 59.2492 1.72465 59.6729 1.53918 60.1487C1.35371 60.6245 1.28647 61.1382 1.34322 61.6458C1.39997 62.1533 1.57902 62.6394 1.86501 63.0625C2.15099 63.4856 2.53539 63.833 2.98517 64.0749C3.43495 64.3167 3.93671 64.4458 4.44736 64.4511C4.85423 64.4644 5.25942 64.3925 5.63683 64.2399C6.01425 64.0874 6.35556 63.8575 6.63882 63.5651C7.01148 63.1506 7.24166 62.6277 7.29574 62.0729H4.45206V60.9072H8.45668C8.49702 61.1538 8.51278 61.4037 8.50365 61.6534C8.53992 62.6838 8.17175 63.6875 7.47784 64.4501C6.64607 65.1938 5.56283 65.5937 4.44736 65.5688ZM14.6575 62.7721C14.6655 63.1377 14.6002 63.5012 14.4654 63.8411C14.3306 64.181 14.129 64.4905 13.8726 64.7512C13.6161 65.0119 13.31 65.2186 12.9724 65.359C12.6347 65.4995 12.2724 65.5708 11.9067 65.5688C11.5399 65.5748 11.1758 65.5061 10.8363 65.3671C10.4969 65.228 10.1892 65.0215 9.93194 64.7599C9.67471 64.4984 9.47332 64.1874 9.33992 63.8457C9.20652 63.5039 9.14388 63.1387 9.15587 62.7721C9.15587 62.0425 9.44574 61.3428 9.96161 60.827C10.4775 60.3111 11.1771 60.0213 11.9067 60.0213C12.6363 60.0213 13.3359 60.3111 13.8518 60.827C14.3677 61.3428 14.6575 62.0425 14.6575 62.7721ZM13.4449 62.7721C13.4611 62.5593 13.4335 62.3455 13.3637 62.1438C13.294 61.9422 13.1836 61.757 13.0395 61.5997C12.8953 61.4424 12.7204 61.3164 12.5255 61.2294C12.3307 61.1424 12.1201 61.0963 11.9067 61.094C11.4943 61.1408 11.1136 61.3378 10.8372 61.6474C10.5608 61.957 10.408 62.3575 10.408 62.7725C10.408 63.1876 10.5608 63.5881 10.8372 63.8977C11.1136 64.2072 11.4943 64.4042 11.9067 64.4511C12.1214 64.4528 12.3341 64.4095 12.531 64.3238C12.7279 64.2382 12.9046 64.1121 13.0497 63.9539C13.1947 63.7956 13.305 63.6086 13.3732 63.405C13.4415 63.2015 13.4663 62.9858 13.4459 62.7721H13.4449ZM20.8592 62.7721C20.8672 63.1377 20.8019 63.5012 20.6671 63.8411C20.5323 64.181 20.3307 64.4905 20.0743 64.7512C19.8178 65.0119 19.5118 65.2186 19.1741 65.359C18.8365 65.4995 18.4741 65.5708 18.1084 65.5688C17.7416 65.5748 17.3775 65.5061 17.038 65.3671C16.6986 65.228 16.3909 65.0215 16.1337 64.7599C15.8765 64.4984 15.675 64.1874 15.5416 63.8457C15.4082 63.5039 15.3456 63.1387 15.3576 62.7721C15.3496 62.4065 15.4149 62.043 15.5498 61.703C15.6846 61.3631 15.8861 61.0536 16.1426 60.7929C16.399 60.5322 16.7051 60.3255 17.0427 60.1851C17.3804 60.0447 17.7427 59.9733 18.1084 59.9753C18.4729 59.9774 18.8334 60.0515 19.1692 60.1933C19.5049 60.3352 19.8093 60.542 20.0648 60.8019C20.3204 61.0619 20.522 61.3697 20.6582 61.7078C20.7944 62.0459 20.8633 62.4076 20.8592 62.7721ZM19.6476 62.7721C19.6638 62.5593 19.6362 62.3455 19.5664 62.1438C19.4967 61.9422 19.3863 61.757 19.2421 61.5997C19.0979 61.4424 18.923 61.3164 18.7281 61.2294C18.5333 61.1424 18.3227 61.0963 18.1094 61.094C17.697 61.1408 17.3163 61.3378 17.0398 61.6474C16.7634 61.957 16.6107 62.3575 16.6107 62.7725C16.6107 63.1876 16.7634 63.5881 17.0398 63.8977C17.3163 64.2072 17.697 64.4042 18.1094 64.4511C18.3227 64.4486 18.5332 64.4024 18.728 64.3153C18.9227 64.2282 19.0975 64.102 19.2416 63.9447C19.3856 63.7873 19.4957 63.602 19.5653 63.4003C19.6348 63.1986 19.6621 62.9848 19.6457 62.7721H19.6476ZM26.8742 60.1611V65.1963C26.8742 67.2479 25.6616 68.1329 24.2172 68.1329C23.6904 68.1346 23.1747 67.9806 22.7351 67.6902C22.2955 67.3998 21.9514 66.986 21.7461 66.5008L22.8179 66.0315C22.924 66.3174 23.1147 66.5641 23.3645 66.739C23.6143 66.9139 23.9114 67.0085 24.2163 67.0104C25.1492 67.0104 25.7085 66.4473 25.7085 65.3783V64.9588H25.6616C25.4748 65.1692 25.2448 65.3368 24.9872 65.4502C24.7297 65.5636 24.4507 65.6201 24.1693 65.6158C23.448 65.5917 22.765 65.285 22.2679 64.7617C21.7708 64.2384 21.4994 63.5406 21.5124 62.819C21.5073 62.0996 21.7814 61.4063 22.2768 60.8847C22.7723 60.3632 23.4507 60.054 24.1693 60.0222C24.4464 60.0153 24.7219 60.0655 24.9787 60.1698C25.2354 60.2742 25.4679 60.4303 25.6616 60.6285H25.7085V60.1592L26.8742 60.1611ZM25.8014 62.8181C25.7714 62.524 25.6563 62.245 25.4704 62.0151C25.2845 61.7853 25.0357 61.6145 24.7544 61.5236C24.4731 61.4327 24.1713 61.4257 23.8861 61.5033C23.6008 61.581 23.3443 61.74 23.1479 61.9609C22.9514 62.1818 22.8235 62.4551 22.7797 62.7475C22.7359 63.0399 22.7782 63.3387 22.9013 63.6074C23.0244 63.8762 23.2231 64.1034 23.4731 64.2612C23.7231 64.419 24.0136 64.5006 24.3092 64.4961C24.7286 64.4691 25.1203 64.2776 25.3993 63.9634C25.6784 63.6493 25.8222 63.2377 25.7996 62.8181H25.8014ZM29.0177 57.1766V65.3821H27.8052V57.1776L29.0177 57.1766ZM33.8661 63.7031L34.7981 64.36C34.5463 64.7486 34.2008 65.0675 33.7934 65.2874C33.386 65.5074 32.9298 65.6212 32.4668 65.6186C32.1 65.6245 31.7359 65.5559 31.3964 65.4168C31.057 65.2778 30.7493 65.0712 30.4921 64.8097C30.2349 64.5482 30.0334 64.2371 29.9 63.8954C29.7666 63.5537 29.704 63.1884 29.716 62.8218C29.6584 62.1942 29.8341 61.5674 30.2096 61.0612C30.5851 60.555 31.134 60.205 31.7513 60.078C32.3687 59.951 33.0111 60.0561 33.5559 60.373C34.1007 60.69 34.5095 61.1966 34.7042 61.796L34.8441 62.1226L31.1144 63.6608C31.2307 63.9192 31.4214 64.1371 31.6621 64.2866C31.9029 64.436 32.1827 64.5103 32.4659 64.4999C32.7469 64.4941 33.0221 64.4183 33.2664 64.2794C33.5108 64.1404 33.7166 63.9426 33.8652 63.704L33.8661 63.7031ZM30.9295 62.6773L33.4466 61.6515C33.3484 61.4655 33.2005 61.3103 33.0194 61.2033C32.8384 61.0962 32.6311 61.0415 32.4208 61.0452C32.2143 61.0506 32.011 61.0976 31.8231 61.1833C31.6352 61.2691 31.4665 61.3918 31.3271 61.5443C31.1877 61.6967 31.0805 61.8757 31.0119 62.0706C30.9432 62.2654 30.9146 62.4721 30.9277 62.6782L30.9295 62.6773Z" fill="#747474"/>
</svg>
