<svg width="161" height="60" viewBox="0 0 161 60" fill="none" xmlns="http://www.w3.org/2000/svg">
<path d="M60.599 36.5388L64.1298 45.8083H57.2935L60.6045 36.5388H60.599ZM59.2746 33.4337L51.552 53.7312H54.4193L56.4045 48.2165H65.0091L66.9943 53.7312H69.8629L62.1404 33.4337H59.2718H59.2746ZM100.963 53.7451H103.62V33.449H100.963V53.7451ZM73.8348 41.8156C74.3327 41.0974 74.9906 40.5046 75.7566 40.0838C76.5226 39.663 77.3758 39.4258 78.249 39.3907C81.7799 39.3907 83.5439 41.8184 83.5439 45.3478V53.9524H80.884V45.7902C80.884 42.9216 79.3397 41.8184 77.3531 41.8184C76.311 41.908 75.3422 42.3917 74.6443 43.1707C73.9464 43.9498 73.5718 44.9657 73.5969 46.0114V53.7339H70.9411V39.6314H73.6025L73.8237 41.8392L73.8348 41.8156ZM85.7504 49.5534C85.7504 46.4483 88.6176 44.6981 91.93 44.6981C93.2449 44.5727 94.5646 44.8826 95.6863 45.5802V45.1364C95.6891 44.6819 95.598 44.2317 95.4187 43.8141C95.2393 43.3965 94.9756 43.0204 94.6441 42.7095C94.3126 42.3987 93.9204 42.1596 93.4921 42.0075C93.0639 41.8553 92.6088 41.7933 92.1554 41.8253C91.4634 41.7563 90.7676 41.9122 90.1712 42.2698C89.5748 42.6274 89.1095 43.1677 88.8444 43.8106L86.4126 42.7157C86.8564 41.3913 88.6204 39.4047 92.1485 39.4047C92.9578 39.3386 93.7719 39.4454 94.5367 39.7181C95.3015 39.9907 95.9996 40.423 96.5846 40.9861C97.1696 41.5493 97.6281 42.2304 97.9297 42.9844C98.2312 43.7383 98.3689 44.5477 98.3337 45.359V53.7437H95.9005V51.7584H95.6793C95.1819 52.5281 94.4939 53.1561 93.6822 53.5814C92.8705 54.0068 91.9626 54.2151 91.0466 54.1861C88.178 54.1861 85.7504 52.4207 85.7504 49.5534ZM95.6807 47.788C94.6978 47.1519 93.5388 46.8432 92.3697 46.906C89.7083 46.906 88.6134 48.4502 88.6134 49.5673C88.6134 51.1115 90.1577 51.7751 91.4807 51.7751C92.5477 51.751 93.5677 51.3312 94.3426 50.5972C95.1174 49.8632 95.5919 48.8675 95.6737 47.8033" fill="#757575"/>
<path fill-rule="evenodd" clip-rule="evenodd" d="M107.376 59.9289L110.482 52.6488L104.967 39.8498H107.628L111.821 49.5576L116.014 39.8498H118.676L110.073 59.9289H107.376ZM146.212 44.4867C145.947 43.6859 145.447 42.9836 144.777 42.4718C144.107 41.9599 143.298 41.6624 142.455 41.618C141.86 41.6585 141.279 41.8166 140.745 42.0831C140.211 42.3497 139.736 42.7194 139.346 43.1709C138.956 43.6224 138.659 44.1468 138.473 44.7136C138.287 45.2805 138.216 45.8786 138.262 46.4733C138.216 47.0681 138.287 47.6662 138.473 48.233C138.659 48.7998 138.956 49.3242 139.346 49.7757C139.736 50.2272 140.211 50.5969 140.745 50.8635C141.279 51.13 141.86 51.2881 142.455 51.3286C143.27 51.2902 144.057 51.0191 144.723 50.5475C145.389 50.0758 145.905 49.4233 146.212 48.6672L148.419 49.9916C147.926 51.1656 147.099 52.1684 146.039 52.8747C144.98 53.5811 143.736 53.9598 142.462 53.9635C140.561 53.8748 138.772 53.0347 137.489 51.6279C136.207 50.2211 135.535 48.3626 135.622 46.4608C135.561 45.5151 135.692 44.567 136.006 43.6729C136.32 42.7788 136.811 41.9571 137.449 41.2569C138.087 40.5567 138.86 39.9922 139.722 39.5973C140.583 39.2023 141.515 38.9849 142.462 38.9581C143.736 38.9598 144.981 39.3377 146.041 40.0443C147.101 40.7509 147.928 41.7548 148.419 42.9299L146.212 44.4742V44.4867Z" fill="#757575"/>
<path d="M155.7 54.1833C159.23 54.1833 160.994 52.1981 160.994 49.7704C160.994 44.4755 153.272 46.4594 153.272 43.3709C153.272 42.2677 154.154 41.6055 155.7 41.6055C156.423 41.5675 157.144 41.7087 157.799 42.0167C158.455 42.3247 159.024 42.7899 159.456 43.3709L161 41.8267C159.571 40.2628 157.593 39.3117 155.48 39.1723C152.169 39.1723 150.405 41.1576 150.405 43.5852C150.405 48.6603 158.348 46.8962 158.348 49.5423C158.348 50.8667 157.466 51.7501 155.687 51.7501C154.961 51.7079 154.256 51.4836 153.639 51.0978C153.022 50.7119 152.512 50.177 152.156 49.5423L150.196 51.1018C151.52 52.4262 153.507 54.2069 155.711 54.2069L155.7 54.1833ZM130.545 53.7423H133.207V39.6272H130.545V53.7423Z" fill="#757575"/>
<path fill-rule="evenodd" clip-rule="evenodd" d="M131.647 32.8007C132.115 32.8007 132.564 32.9867 132.896 33.3177C133.227 33.6488 133.413 34.0979 133.413 34.5661C133.413 35.0343 133.227 35.4833 132.896 35.8144C132.564 36.1455 132.115 36.3315 131.647 36.3315C131.189 36.3003 130.758 36.1042 130.434 35.7796C130.11 35.455 129.914 35.0239 129.883 34.5661C129.914 34.1083 130.11 33.6772 130.434 33.3526C130.758 33.028 131.189 32.8319 131.647 32.8007ZM127.891 51.5567L128.335 53.542H125.673C123.246 53.542 122.143 51.7765 122.143 49.1291V42.2608H119.481V39.6008H122.143V35.4356H124.804V39.6272H127.909V42.2886H124.804V49.5687C124.804 51.5539 126.348 51.5539 127.909 51.5539L127.891 51.5567Z" fill="#757575"/>
<path d="M64.9687 11.0076V14.3242H72.6857C72.5602 15.8089 71.9383 17.2081 70.9202 18.2961C70.1526 19.0937 69.2265 19.7218 68.2015 20.1399C67.1765 20.558 66.0752 20.7569 64.9687 20.7237C63.8507 20.7179 62.745 20.4897 61.7159 20.0525C60.6869 19.6152 59.7551 18.9777 58.9749 18.1769C58.1946 17.3762 57.5813 16.4282 57.1709 15.3882C56.7604 14.3482 56.5609 13.237 56.584 12.1192C56.5747 9.87214 57.4482 7.71131 59.0164 6.10197C60.5847 4.49263 62.7222 3.56351 64.9687 3.51465C67.0886 3.51236 69.1334 4.29942 70.7046 5.72248L72.9124 3.51465C70.7944 1.42218 67.9459 0.234901 64.9687 0.203613C61.8528 0.215409 58.8645 1.44232 56.6392 3.62341C54.414 5.80449 53.1274 8.76766 53.0531 11.8827C53.1285 14.997 54.4155 17.9591 56.6406 20.1393C58.8658 22.3195 61.8535 23.5458 64.9687 23.5576C66.4895 23.6428 68.0103 23.3901 69.4218 22.8176C70.8333 22.2451 72.1005 21.367 73.1322 20.2465C74.0829 19.2479 74.826 18.0705 75.3184 16.7827C75.8109 15.4948 76.0428 14.122 76.0009 12.7438C76.0501 12.0741 75.9751 11.4011 75.7797 10.7586H64.9673L64.9687 11.0076ZM84.604 8.34209C83.6109 8.31641 82.623 8.49325 81.7005 8.86182C80.778 9.2304 79.9401 9.78298 79.2381 10.4859C78.5361 11.1888 77.9846 12.0273 77.6173 12.9503C77.2499 13.8733 77.0743 14.8615 77.1013 15.8545C77.0765 16.8463 77.2536 17.8328 77.6219 18.754C77.9902 19.6752 78.542 20.5119 79.2438 21.2131C79.9456 21.9144 80.7827 22.4656 81.7041 22.8332C82.6256 23.2009 83.6122 23.3773 84.604 23.3517C85.5918 23.3607 86.5715 23.1728 87.4858 22.799C88.4002 22.4252 89.2309 21.8729 89.9295 21.1745C90.6273 20.4766 91.1792 19.6467 91.553 18.7334C91.9268 17.82 92.115 16.8414 92.1067 15.8545C92.1349 14.8612 91.9602 13.8725 91.5932 12.9489C91.2263 12.0254 90.6748 11.1864 89.9726 10.4832C89.2703 9.78005 88.432 9.22751 87.509 8.85936C86.5859 8.49122 85.5974 8.31521 84.604 8.34209ZM84.604 20.4649C83.436 20.4002 82.3407 19.8774 81.5557 19.0101C80.7707 18.1428 80.3594 17.0009 80.411 15.8323C80.3594 14.665 80.7712 13.5247 81.5565 12.6596C82.3419 11.7945 83.4372 11.2748 84.604 11.2135C85.1878 11.228 85.7626 11.3608 86.2935 11.604C86.8244 11.8472 87.3004 12.1957 87.6926 12.6284C88.0848 13.0611 88.3851 13.5689 88.5751 14.121C88.7652 14.6732 88.8412 15.2582 88.7985 15.8406C88.842 16.4234 88.7667 17.0089 88.577 17.5616C88.3874 18.1143 88.0874 18.6227 87.6952 19.056C87.3031 19.4892 86.827 19.8383 86.2958 20.0819C85.7647 20.3256 85.1896 20.4587 84.6054 20.4733L84.604 20.4649ZM120.775 9.89188C120.234 9.32673 119.583 8.87851 118.861 8.57487C118.14 8.27122 117.364 8.11862 116.582 8.12646C114.657 8.20435 112.84 9.03365 111.52 10.4364C110.2 11.8391 109.483 13.7034 109.522 15.6292C109.483 17.5554 110.201 19.4199 111.522 20.8225C112.843 22.225 114.661 23.0537 116.586 23.1305C117.336 23.1404 118.08 22.9878 118.766 22.683C119.451 22.3783 120.063 21.9286 120.558 21.3651H120.779V22.4683C120.779 25.3369 119.235 26.8811 116.807 26.8811C115.991 26.85 115.2 26.5817 114.533 26.1091C113.866 25.6366 113.351 24.9801 113.051 24.2198L110.182 25.323C110.741 26.6197 111.664 27.7267 112.838 28.51C114.013 29.2932 115.39 29.719 116.802 29.7359C120.774 29.7359 124.082 27.528 124.082 21.7921V8.11255H120.977V9.87241L120.775 9.89188ZM117.019 20.483C116.452 20.4446 115.899 20.2937 115.391 20.039C114.883 19.7844 114.431 19.4311 114.061 18.9998C113.691 18.5685 113.411 18.0679 113.237 17.5271C113.063 16.9864 112.998 16.4164 113.047 15.8504C112.998 15.2843 113.063 14.7143 113.237 14.1736C113.411 13.6328 113.691 13.1322 114.061 12.7009C114.431 12.2696 114.883 11.9163 115.391 11.6617C115.899 11.407 116.452 11.2561 117.019 11.2177C117.586 11.2561 118.139 11.407 118.647 11.6617C119.155 11.9163 119.607 12.2696 119.976 12.7009C120.346 13.1322 120.626 13.6328 120.8 14.1736C120.975 14.7143 121.039 15.2843 120.991 15.8504C121.039 16.4155 120.974 16.9846 120.8 17.5245C120.627 18.0644 120.347 18.5643 119.978 18.9952C119.609 19.4261 119.159 19.7793 118.652 20.0342C118.145 20.2892 117.593 20.4408 117.027 20.4803L117.019 20.483ZM100.91 8.36018C99.9192 8.33556 98.9336 8.51257 98.0132 8.88047C97.0927 9.24836 96.2566 9.79947 95.5556 10.5003C94.8546 11.2012 94.3033 12.0372 93.9353 12.9576C93.5672 13.878 93.39 14.8636 93.4144 15.8545C93.3875 16.8477 93.5631 17.836 93.9305 18.7591C94.298 19.6822 94.8496 20.5208 95.5518 21.2237C96.2539 21.9266 97.0919 22.4792 98.0146 22.8477C98.9373 23.2162 99.9253 23.3928 100.919 23.367C101.906 23.376 102.886 23.1881 103.8 22.8143C104.715 22.4405 105.545 21.8882 106.244 21.1898C106.944 20.4901 107.497 19.6578 107.87 18.7416C108.244 17.8255 108.432 16.844 108.421 15.8545C108.466 14.8577 108.302 13.8626 107.941 12.9326C107.579 12.0025 107.028 11.158 106.322 10.4528C105.616 9.74754 104.771 9.19712 103.841 8.8366C102.911 8.47607 101.915 8.31334 100.919 8.35879L100.91 8.36018ZM100.91 20.483C99.7444 20.4161 98.6518 19.893 97.8687 19.0269C97.0856 18.1607 96.6749 17.0211 96.7255 15.8545C96.6739 14.6859 97.0852 13.544 97.8702 12.6767C98.6552 11.8094 99.7505 11.2866 100.919 11.2219C101.503 11.2364 102.078 11.3696 102.609 11.6132C103.14 11.8569 103.616 12.2059 104.008 12.6392C104.4 13.0724 104.7 13.5808 104.89 14.1336C105.08 14.6863 105.155 15.2718 105.112 15.8545C105.154 16.4367 105.078 17.0215 104.888 17.5734C104.698 18.1253 104.398 18.6329 104.006 19.0654C103.614 19.4978 103.138 19.8462 102.607 20.0895C102.077 20.3327 101.502 20.4656 100.919 20.4803L100.91 20.483ZM126.543 0.412292H129.854V23.367H126.543V0.412292ZM138.898 20.4914C138.133 20.4934 137.382 20.29 136.723 19.9023C136.063 19.5147 135.52 18.9571 135.15 18.2877L145.306 14.0947L144.855 13.2113C144.403 11.851 143.549 10.6594 142.407 9.79289C141.265 8.92639 139.888 8.42551 138.456 8.35601C137.492 8.35898 136.539 8.55832 135.654 8.94186C134.77 9.32539 133.973 9.88509 133.312 10.5868C132.652 11.2885 132.141 12.1175 131.811 13.0231C131.481 13.9288 131.339 14.8922 131.394 15.8545C131.385 16.8423 131.573 17.822 131.947 18.7364C132.321 19.6507 132.873 20.4815 133.571 21.18C134.269 21.8806 135.1 22.4348 136.015 22.8103C136.93 23.1859 137.911 23.3751 138.9 23.367C140.15 23.3519 141.381 23.0447 142.492 22.4698C143.603 21.895 144.564 21.0683 145.299 20.0559L142.638 18.2905C142.267 18.9619 141.723 19.5211 141.062 19.9096C140.401 20.2981 139.648 20.5015 138.881 20.4983L138.898 20.4914ZM138.677 11.2219C139.279 11.1884 139.877 11.34 140.391 11.6563C140.904 11.9726 141.309 12.4386 141.55 12.9915L134.705 15.8545C134.705 12.5477 136.913 11.226 138.678 11.226L138.677 11.2219Z" fill="#757575"/>
<path d="M32.2993 7.62841V46.387C32.2318 47.2417 32.3406 48.1011 32.6189 48.9121C32.8972 49.723 33.339 50.4681 33.9171 51.1012C34.4952 51.7343 35.1971 52.242 35.9795 52.5927C36.7618 52.9433 37.6078 53.1296 38.4651 53.1399C41.4019 53.1399 44.6309 51.0851 44.6309 46.387V7.92195C44.6694 7.08818 44.5385 6.25525 44.2461 5.4735C43.9536 4.69175 43.5057 3.97741 42.9294 3.37366C42.3531 2.76991 41.6603 2.28927 40.893 1.96081C40.1257 1.63235 39.2998 1.46288 38.4651 1.46264C36.8374 1.48706 35.2833 2.1445 34.1322 3.29556C32.9812 4.44661 32.3237 6.00076 32.2993 7.62841Z" fill="#F9AB00"/>
<path d="M16.1545 27.3027V46.3884C16.0874 47.2425 16.1964 48.1013 16.4746 48.9116C16.7528 49.7219 17.1944 50.4665 17.772 51.0993C18.3496 51.732 19.0509 52.2395 19.8325 52.5902C20.6142 52.941 21.4595 53.1276 22.3161 53.1385C25.2529 53.1385 28.4819 51.0837 28.4819 46.3857V27.5962C28.5199 26.7628 28.3885 25.9303 28.0958 25.149C27.8031 24.3678 27.3551 23.6539 26.7789 23.0506C26.2026 22.4473 25.5101 21.9671 24.743 21.6389C23.976 21.3107 23.1504 21.1413 22.3161 21.1411C20.6899 21.1665 19.1374 21.8239 17.9874 22.9739C16.8373 24.124 16.18 25.6764 16.1545 27.3027Z" fill="#E37400"/>
<path d="M6.16577 53.1399C9.57103 53.1399 12.3315 50.3794 12.3315 46.9741C12.3315 43.5689 9.57103 40.8084 6.16577 40.8084C2.76051 40.8084 0 43.5689 0 46.9741C0 50.3794 2.76051 53.1399 6.16577 53.1399Z" fill="#E37400"/>
</svg>
