<svg width="168" height="161" viewBox="0 0 168 161" fill="none" xmlns="http://www.w3.org/2000/svg">
<path d="M164.274 159.793H3.726C1.98937 159.793 0.589556 158.384 0.589556 156.657V3.726C0.589556 1.98937 1.99873 0.589556 3.726 0.589556H164.274C166.011 0.589556 167.41 1.99873 167.41 3.726V156.657C167.41 158.394 166.001 159.793 164.274 159.793Z" fill="white" stroke="#77787B" stroke-width="1.17911"/>
<path d="M29.6199 115.541C28.6648 114.987 27.9102 114.232 27.3442 113.266C26.7782 112.299 26.507 111.226 26.507 110.058C26.507 108.891 26.79 107.818 27.3442 106.851C27.8984 105.884 28.6648 105.13 29.6199 104.575C30.575 104.021 31.6244 103.75 32.7563 103.75C33.6407 103.75 34.4778 103.903 35.2561 104.222C36.0343 104.54 36.6828 104.976 37.1898 105.554L36.164 106.58C35.7867 106.108 35.2914 105.743 34.7019 105.495C34.1005 105.248 33.4638 105.118 32.7799 105.118C31.931 105.118 31.1292 105.318 30.3981 105.731C29.6671 106.144 29.0775 106.721 28.6294 107.464C28.1814 108.207 27.9691 109.08 27.9691 110.058C27.9691 111.037 28.1932 111.898 28.6294 112.652C29.0657 113.407 29.6671 113.973 30.4099 114.386C31.1527 114.798 31.9428 114.999 32.7917 114.999C33.6407 114.999 34.2774 114.869 34.8198 114.622C35.3622 114.374 35.8338 114.032 36.2229 113.619C36.5177 113.301 36.7535 112.924 36.9304 112.476C37.1073 112.027 37.2252 111.544 37.2723 111.002H32.8035V109.669H38.6047C38.6637 109.988 38.6873 110.271 38.6873 110.542C38.6873 111.285 38.5694 112.004 38.3335 112.711C38.0977 113.419 37.7204 114.032 37.2016 114.563C36.0932 115.765 34.6075 116.367 32.7681 116.367C31.6362 116.367 30.5868 116.095 29.6317 115.541H29.6199ZM32.7563 116.52C31.6008 116.52 30.516 116.237 29.5492 115.671C28.5705 115.105 27.7923 114.327 27.2145 113.336C26.6367 112.358 26.3538 111.249 26.3538 110.058C26.3538 108.867 26.6485 107.771 27.2145 106.78C27.7805 105.802 28.5705 105.012 29.5492 104.446C30.5278 103.88 31.6008 103.597 32.7563 103.597C33.6643 103.597 34.525 103.762 35.315 104.08C36.1168 104.399 36.7771 104.858 37.2959 105.448L37.3903 105.554L36.1522 106.792L36.0461 106.663C35.6805 106.214 35.2089 105.861 34.6311 105.613C34.0534 105.366 33.4284 105.248 32.7681 105.248C31.9428 105.248 31.1645 105.448 30.4571 105.849C29.7496 106.25 29.1718 106.816 28.7356 107.535C28.3111 108.254 28.0871 109.103 28.0871 110.047C28.0871 110.99 28.2993 111.839 28.7356 112.558C29.16 113.277 29.7496 113.843 30.4571 114.244C31.1763 114.645 31.9545 114.846 32.7681 114.846C33.5817 114.846 34.2184 114.728 34.7373 114.48C35.2679 114.232 35.7159 113.914 36.105 113.513C36.388 113.218 36.612 112.841 36.7889 112.417C36.9422 112.027 37.0483 111.603 37.0955 111.143H32.6384V109.516H38.7109L38.7344 109.634C38.7934 109.952 38.817 110.259 38.817 110.542C38.817 111.296 38.6991 112.039 38.4515 112.759C38.2038 113.478 37.8147 114.115 37.2841 114.657C36.1522 115.883 34.6193 116.508 32.7445 116.508L32.7563 116.52ZM32.7563 103.903C31.648 103.903 30.6221 104.175 29.6906 104.705C28.7591 105.248 28.0163 105.99 27.4621 106.922C26.9197 107.865 26.6367 108.915 26.6367 110.047C26.6367 111.179 26.9079 112.24 27.4621 113.171C28.0045 114.115 28.7591 114.857 29.6906 115.388C30.6221 115.919 31.648 116.19 32.7563 116.19C34.5486 116.19 35.9989 115.6 37.0837 114.433C37.5907 113.914 37.9562 113.313 38.1803 112.641C38.4161 111.957 38.5222 111.249 38.5222 110.518C38.5222 110.294 38.4986 110.047 38.4632 109.787H32.9332V110.825H37.4138V110.99C37.3549 111.544 37.237 112.051 37.0483 112.511C36.8597 112.971 36.612 113.372 36.3173 113.69C35.9164 114.115 35.4211 114.468 34.867 114.728C34.301 114.987 33.5935 115.117 32.7681 115.117C31.9428 115.117 31.082 114.905 30.3156 114.48C29.5492 114.056 28.936 113.454 28.4762 112.688C28.0163 111.921 27.7923 111.025 27.7923 110.023C27.7923 109.021 28.0281 108.125 28.4762 107.358C28.936 106.592 29.5492 105.99 30.3038 105.566C31.0584 105.141 31.8838 104.929 32.7563 104.929C33.452 104.929 34.1241 105.059 34.7373 105.318C35.3032 105.554 35.7749 105.896 36.1522 106.321L36.9658 105.507C36.4941 105 35.8928 104.599 35.1853 104.316C34.4307 104.01 33.6053 103.856 32.7328 103.856L32.7563 103.903ZM42.2246 115.765C41.5525 115.364 41.0219 114.81 40.6446 114.115C40.2673 113.419 40.0786 112.652 40.0786 111.803C40.0786 110.954 40.2673 110.188 40.6446 109.492C41.0219 108.797 41.5525 108.243 42.2246 107.842C42.8967 107.441 43.6631 107.24 44.5003 107.24C45.3375 107.24 46.1039 107.441 46.776 107.842C47.4481 108.243 47.9787 108.797 48.356 109.492C48.7333 110.188 48.922 110.954 48.922 111.803C48.922 112.652 48.7333 113.419 48.356 114.115C47.9787 114.81 47.4481 115.364 46.776 115.765C46.1039 116.166 45.3375 116.367 44.5003 116.367C43.6631 116.367 42.8967 116.166 42.2246 115.765ZM45.9742 114.68C46.434 114.421 46.7996 114.032 47.0708 113.537C47.342 113.042 47.4835 112.464 47.4835 111.803C47.4835 111.143 47.342 110.565 47.0708 110.07C46.7996 109.575 46.434 109.198 45.9742 108.938C45.5143 108.679 45.0309 108.537 44.5003 108.537C43.9697 108.537 43.4745 108.667 43.0146 108.938C42.5548 109.198 42.1892 109.587 41.9063 110.07C41.6351 110.565 41.4936 111.143 41.4936 111.803C41.4936 112.464 41.6351 113.042 41.9063 113.537C42.1775 114.032 42.5548 114.409 43.0146 114.68C43.4745 114.94 43.9697 115.081 44.5003 115.081C45.0309 115.081 45.5261 114.952 45.9742 114.68ZM44.5003 116.52C43.6278 116.52 42.8378 116.308 42.1421 115.895C41.4464 115.482 40.904 114.905 40.5149 114.185C40.1258 113.466 39.9371 112.664 39.9371 111.803C39.9371 110.943 40.1376 110.141 40.5149 109.422C40.8922 108.702 41.4464 108.136 42.1421 107.712C42.8378 107.299 43.6278 107.087 44.5003 107.087C45.3728 107.087 46.1629 107.299 46.8467 107.712C47.5424 108.125 48.0848 108.702 48.4739 109.422C48.863 110.141 49.0517 110.943 49.0517 111.803C49.0517 112.664 48.8512 113.466 48.4739 114.185C48.0848 114.905 47.5424 115.482 46.8467 115.895C46.1511 116.308 45.3611 116.52 44.5003 116.52ZM44.5003 107.382C43.6867 107.382 42.9439 107.582 42.2954 107.971C41.6469 108.36 41.1398 108.903 40.7743 109.563C40.4088 110.235 40.2319 110.99 40.2319 111.803C40.2319 112.617 40.4206 113.372 40.7743 114.044C41.1398 114.716 41.6469 115.246 42.2954 115.636C42.9439 116.025 43.6867 116.225 44.5003 116.225C45.3139 116.225 46.0567 116.025 46.7052 115.636C47.3538 115.246 47.8608 114.716 48.2263 114.044C48.5918 113.372 48.7687 112.617 48.7687 111.803C48.7687 110.99 48.58 110.235 48.2263 109.563C47.8608 108.891 47.3538 108.36 46.7052 107.971C46.0567 107.582 45.3139 107.382 44.5003 107.382ZM44.5003 115.223C43.9461 115.223 43.4273 115.081 42.9439 114.81C42.4604 114.527 42.0713 114.126 41.7883 113.619C41.5054 113.1 41.3521 112.499 41.3521 111.815C41.3521 111.131 41.4936 110.518 41.7883 110.011C42.0713 109.492 42.4722 109.091 42.9439 108.82C43.899 108.266 45.1017 108.266 46.0449 108.82C46.5166 109.091 46.9057 109.492 47.2005 110.011C47.4835 110.53 47.6367 111.131 47.6367 111.815C47.6367 112.499 47.4953 113.112 47.2005 113.619C46.9175 114.138 46.5284 114.539 46.0449 114.81C45.5733 115.081 45.0427 115.223 44.5003 115.223ZM44.5003 108.679C43.9933 108.679 43.5216 108.809 43.0854 109.056C42.6491 109.304 42.2954 109.669 42.036 110.141C41.7766 110.613 41.6469 111.167 41.6469 111.803C41.6469 112.44 41.7766 112.994 42.036 113.466C42.2954 113.938 42.6491 114.303 43.0854 114.551C43.9579 115.046 45.0309 115.046 45.8917 114.551C46.3161 114.303 46.6699 113.938 46.9293 113.466C47.1887 112.994 47.3184 112.44 47.3184 111.803C47.3184 111.167 47.1887 110.613 46.9293 110.141C46.6699 109.669 46.3161 109.304 45.8917 109.056C45.4672 108.809 44.9955 108.679 44.4885 108.679H44.5003ZM52.2589 115.765C51.5868 115.364 51.0562 114.81 50.6789 114.115C50.3015 113.419 50.1129 112.652 50.1129 111.803C50.1129 110.954 50.3015 110.188 50.6789 109.492C51.0562 108.797 51.5868 108.243 52.2589 107.842C52.931 107.441 53.6974 107.24 54.5346 107.24C55.3717 107.24 56.1381 107.441 56.8102 107.842C57.4823 108.243 58.0129 108.797 58.3903 109.492C58.7676 110.188 58.9562 110.954 58.9562 111.803C58.9562 112.652 58.7676 113.419 58.3903 114.115C58.0129 114.81 57.4823 115.364 56.8102 115.765C56.1381 116.166 55.3717 116.367 54.5346 116.367C53.6974 116.367 52.931 116.166 52.2589 115.765ZM56.0084 114.68C56.4683 114.421 56.8338 114.032 57.105 113.537C57.3762 113.042 57.5177 112.464 57.5177 111.803C57.5177 111.143 57.3762 110.565 57.105 110.07C56.8338 109.575 56.4683 109.198 56.0084 108.938C55.5486 108.679 55.0652 108.537 54.5346 108.537C54.004 108.537 53.5087 108.667 53.0489 108.938C52.589 109.198 52.2235 109.587 51.9405 110.07C51.6693 110.565 51.5278 111.143 51.5278 111.803C51.5278 112.464 51.6693 113.042 51.9405 113.537C52.2117 114.032 52.589 114.409 53.0489 114.68C53.5087 114.94 54.004 115.081 54.5346 115.081C55.0652 115.081 55.5604 114.952 56.0084 114.68ZM54.5346 116.52C53.662 116.52 52.872 116.308 52.1763 115.895C51.4806 115.482 50.9383 114.905 50.5492 114.185C50.16 113.466 49.9714 112.664 49.9714 111.803C49.9714 110.943 50.1718 110.141 50.5492 109.422C50.9265 108.702 51.4806 108.136 52.1763 107.712C52.872 107.299 53.662 107.087 54.5346 107.087C55.4071 107.087 56.1971 107.299 56.881 107.712C57.5767 108.125 58.1191 108.702 58.5082 109.422C58.8973 110.141 59.0859 110.943 59.0859 111.803C59.0859 112.664 58.8855 113.466 58.5082 114.185C58.1191 114.905 57.5767 115.482 56.881 115.895C56.1853 116.308 55.3953 116.52 54.5346 116.52ZM54.5346 107.382C53.721 107.382 52.9781 107.582 52.3296 107.971C51.6811 108.36 51.1741 108.903 50.8086 109.563C50.443 110.235 50.2662 110.99 50.2662 111.803C50.2662 112.617 50.4548 113.372 50.8086 114.044C51.1741 114.716 51.6811 115.246 52.3296 115.636C52.9781 116.025 53.721 116.225 54.5346 116.225C55.3481 116.225 56.091 116.025 56.7395 115.636C57.388 115.246 57.895 114.716 58.2605 114.044C58.6261 113.372 58.8029 112.617 58.8029 111.803C58.8029 110.99 58.6143 110.235 58.2605 109.563C57.895 108.891 57.388 108.36 56.7395 107.971C56.091 107.582 55.3481 107.382 54.5346 107.382ZM54.5346 115.223C53.9804 115.223 53.4616 115.081 52.9781 114.81C52.4947 114.527 52.1056 114.126 51.8226 113.619C51.5396 113.1 51.3863 112.499 51.3863 111.815C51.3863 111.131 51.5278 110.518 51.8226 110.011C52.1056 109.492 52.5065 109.091 52.9781 108.82C53.9332 108.266 55.1359 108.266 56.0792 108.82C56.5508 109.091 56.9399 109.492 57.2347 110.011C57.5177 110.53 57.671 111.131 57.671 111.815C57.671 112.499 57.5295 113.112 57.2347 113.619C56.9517 114.138 56.5626 114.539 56.0792 114.81C55.6075 115.081 55.0769 115.223 54.5346 115.223ZM54.5346 108.679C54.0275 108.679 53.5559 108.809 53.1196 109.056C52.6833 109.304 52.3296 109.669 52.0702 110.141C51.8108 110.613 51.6811 111.167 51.6811 111.803C51.6811 112.44 51.8108 112.994 52.0702 113.466C52.3296 113.938 52.6833 114.303 53.1196 114.551C53.9922 115.046 55.0652 115.046 55.9259 114.551C56.3504 114.303 56.7041 113.938 56.9635 113.466C57.2229 112.994 57.3526 112.44 57.3526 111.803C57.3526 111.167 57.2229 110.613 56.9635 110.141C56.7041 109.669 56.3504 109.304 55.9259 109.056C55.5014 108.809 55.0298 108.679 54.5228 108.679H54.5346ZM61.8804 119.303C61.2201 118.831 60.7839 118.265 60.5598 117.605L61.8568 117.051C62.0455 117.546 62.3639 117.947 62.8119 118.253C63.26 118.56 63.7788 118.713 64.3919 118.713C65.2763 118.713 65.9719 118.465 66.4554 117.97C66.9388 117.475 67.1864 116.768 67.1864 115.848V114.893H67.1157C66.8327 115.329 66.4436 115.683 65.9248 115.966C65.4178 116.237 64.8282 116.378 64.1797 116.378C63.4369 116.378 62.7648 116.19 62.1516 115.801C61.5385 115.412 61.055 114.869 60.6895 114.185C60.324 113.49 60.1471 112.7 60.1471 111.815C60.1471 110.931 60.324 110.153 60.6895 109.457C61.055 108.761 61.5385 108.219 62.1516 107.83C62.7648 107.441 63.4369 107.252 64.1797 107.252C64.8282 107.252 65.4178 107.394 65.9248 107.665C66.4318 107.936 66.8327 108.301 67.1157 108.75H67.1864V107.523H68.5542V115.789C68.5542 117.168 68.1769 118.23 67.4105 118.949C66.644 119.668 65.6418 120.034 64.3919 120.034C63.3779 120.034 62.5407 119.798 61.8922 119.326L61.8804 119.303ZM65.7951 114.68C66.2196 114.421 66.5497 114.044 66.8091 113.549C67.0567 113.053 67.1864 112.476 67.1864 111.803C67.1864 111.131 67.0567 110.53 66.8091 110.035C66.5615 109.54 66.2196 109.174 65.7951 108.915C65.3706 108.655 64.899 108.526 64.3919 108.526C63.8849 108.526 63.4015 108.655 62.977 108.915C62.5525 109.174 62.2106 109.551 61.9512 110.047C61.7036 110.542 61.5739 111.12 61.5739 111.792C61.5739 112.464 61.7036 113.053 61.9512 113.549C62.1988 114.044 62.5407 114.421 62.977 114.68C63.4133 114.94 63.8731 115.07 64.3919 115.07C64.9107 115.07 65.3824 114.94 65.7951 114.68ZM64.3919 120.163C63.3543 120.163 62.4818 119.916 61.7979 119.432C61.114 118.949 60.6542 118.348 60.4183 117.652L60.3712 117.522L61.9394 116.85L61.9983 116.992C62.1752 117.451 62.4818 117.841 62.8945 118.123C63.3072 118.418 63.8142 118.56 64.3919 118.56C65.2291 118.56 65.8894 118.324 66.3493 117.864C66.8091 117.404 67.0449 116.72 67.0449 115.848V115.246C66.7737 115.577 66.42 115.86 66.0073 116.084C65.4767 116.367 64.8636 116.508 64.1915 116.508C63.4251 116.508 62.7176 116.308 62.0809 115.907C61.4442 115.506 60.9371 114.94 60.5716 114.232C60.2061 113.525 60.0174 112.7 60.0174 111.792C60.0174 110.884 60.2061 110.082 60.5716 109.363C60.9371 108.643 61.4559 108.077 62.0809 107.677C62.7176 107.276 63.4251 107.075 64.1915 107.075C64.8636 107.075 65.4767 107.217 66.0073 107.511C66.42 107.736 66.7737 108.019 67.0449 108.36V107.346H68.7075V115.753C68.7075 117.168 68.3066 118.265 67.5166 119.02C66.7266 119.762 65.6772 120.152 64.3919 120.152V120.163ZM60.7485 117.687C60.9725 118.265 61.3852 118.772 61.9748 119.185C62.5997 119.633 63.4133 119.869 64.3919 119.869C65.5946 119.869 66.5733 119.515 67.3043 118.819C68.0354 118.123 68.4009 117.098 68.4009 115.765V107.653H67.3279V108.879H67.0331L66.986 108.809C66.7148 108.384 66.3375 108.03 65.854 107.771C65.3706 107.511 64.8046 107.37 64.1797 107.37C63.4722 107.37 62.8119 107.559 62.2224 107.924C61.6328 108.29 61.1612 108.82 60.8192 109.492C60.4773 110.164 60.3004 110.943 60.3004 111.78C60.3004 112.617 60.4773 113.419 60.8192 114.079C61.1612 114.751 61.6328 115.27 62.2224 115.647C62.8119 116.013 63.4604 116.202 64.1797 116.202C64.8046 116.202 65.3706 116.072 65.854 115.812C66.3375 115.553 66.7266 115.211 66.986 114.787L67.0331 114.716H67.3279V115.824C67.3279 116.779 67.0685 117.534 66.5497 118.053C66.0309 118.572 65.2999 118.843 64.3801 118.843C63.7434 118.843 63.1892 118.678 62.7176 118.348C62.2931 118.053 61.9748 117.675 61.7743 117.216L60.7367 117.664L60.7485 117.687ZM64.3919 115.223C63.8495 115.223 63.3543 115.081 62.8945 114.822C62.4464 114.551 62.0809 114.15 61.8215 113.631C61.5621 113.112 61.4206 112.499 61.4206 111.803C61.4206 111.108 61.5503 110.495 61.8215 109.988C62.0809 109.481 62.4464 109.08 62.8945 108.797C63.3425 108.526 63.8495 108.384 64.3919 108.384C64.9343 108.384 65.4296 108.526 65.8776 108.785C66.3257 109.056 66.6794 109.457 66.9388 109.964C67.1982 110.471 67.3397 111.096 67.3397 111.792C67.3397 112.487 67.21 113.1 66.9388 113.607C66.6794 114.115 66.3139 114.515 65.8776 114.798C65.4296 115.07 64.9343 115.211 64.3919 115.211V115.223ZM64.3919 108.679C63.9085 108.679 63.4604 108.809 63.0477 109.056C62.6469 109.304 62.3167 109.669 62.0809 110.129C61.8451 110.601 61.7154 111.167 61.7154 111.803C61.7154 112.44 61.8333 113.018 62.0809 113.49C62.3167 113.961 62.6469 114.315 63.0477 114.563C63.4486 114.81 63.8967 114.928 64.3919 114.928C64.8872 114.928 65.3234 114.798 65.7243 114.551C66.1252 114.303 66.4436 113.938 66.6794 113.478C66.9152 113.006 67.0449 112.44 67.0449 111.803C67.0449 111.167 66.927 110.577 66.6794 110.106C66.4436 109.646 66.1134 109.28 65.7243 109.044C65.3234 108.809 64.8754 108.679 64.3919 108.679ZM70.6648 104.033H72.1033V116.107H70.6648V104.033ZM72.2448 116.249H70.5115V103.88H72.2448V116.249ZM70.8063 115.954H71.9501V104.175H70.8063V115.954ZM75.8411 115.777C75.1926 115.388 74.6856 114.846 74.3201 114.15C73.9545 113.454 73.7777 112.676 73.7777 111.815C73.7777 110.954 73.9545 110.223 74.2965 109.516C74.6384 108.82 75.1219 108.266 75.7586 107.842C76.3835 107.429 77.1146 107.217 77.9517 107.217C78.7889 107.217 79.52 107.405 80.1449 107.783C80.758 108.16 81.2415 108.679 81.5716 109.339C81.9018 109.999 82.0668 110.766 82.0668 111.615C82.0668 111.78 82.055 111.933 82.0197 112.051H75.228C75.2634 112.7 75.4166 113.254 75.6996 113.702C75.9826 114.15 76.3364 114.492 76.7726 114.716C77.2089 114.94 77.657 115.058 78.1286 115.058C79.2252 115.058 80.0741 114.539 80.6755 113.501L81.89 114.091C81.5244 114.787 81.0174 115.341 80.3807 115.742C79.744 116.143 78.9776 116.343 78.0814 116.343C77.2561 116.343 76.525 116.143 75.8765 115.753L75.8411 115.777ZM80.534 110.884C80.5104 110.53 80.4043 110.164 80.2274 109.799C80.0506 109.445 79.7676 109.139 79.3785 108.891C78.9894 108.643 78.5059 108.526 77.9164 108.526C77.2443 108.526 76.6665 108.738 76.2066 109.174C75.735 109.61 75.4284 110.176 75.2869 110.884H80.534ZM78.0579 116.508C77.2089 116.508 76.4425 116.308 75.7704 115.895C75.0983 115.494 74.5677 114.916 74.1904 114.209C73.813 113.501 73.6244 112.688 73.6244 111.803C73.6244 110.919 73.8013 110.164 74.155 109.445C74.5087 108.726 75.0157 108.148 75.6643 107.724C76.3128 107.287 77.0792 107.075 77.9399 107.075C78.8007 107.075 79.5671 107.276 80.2038 107.665C80.8406 108.054 81.3358 108.596 81.6777 109.28C82.0197 109.964 82.1965 110.754 82.1965 111.627C82.1965 111.803 82.173 111.969 82.1376 112.098L82.1022 112.204H75.3577C75.4049 112.759 75.5581 113.242 75.794 113.631C76.0652 114.056 76.3953 114.374 76.808 114.586C77.2207 114.798 77.657 114.905 78.0932 114.905C79.1426 114.905 79.9326 114.421 80.5104 113.431L80.5812 113.313L82.055 114.032L81.9843 114.162C81.607 114.881 81.0764 115.447 80.4279 115.871C79.7676 116.284 78.9776 116.496 78.0461 116.496L78.0579 116.508ZM75.9237 115.647C76.5486 116.025 77.2678 116.213 78.0579 116.213C78.9304 116.213 79.6732 116.013 80.2746 115.624C80.8406 115.258 81.3122 114.775 81.6542 114.162L80.6991 113.702C80.0859 114.704 79.2016 115.211 78.0932 115.211C77.598 115.211 77.1146 115.093 76.6665 114.857C76.2066 114.622 75.8293 114.268 75.5346 113.796C75.2398 113.325 75.0747 112.747 75.0393 112.075V111.921H81.8664C81.8782 111.839 81.89 111.733 81.89 111.627C81.89 110.801 81.7249 110.058 81.4065 109.41C81.0882 108.773 80.6283 108.266 80.0388 107.912C79.4492 107.547 78.7299 107.37 77.9282 107.37C77.1264 107.37 76.4189 107.57 75.8175 107.971C75.2162 108.372 74.7446 108.915 74.4144 109.587C74.0842 110.259 73.9192 111.013 73.9192 111.815C73.9192 112.617 74.096 113.419 74.4498 114.079C74.8035 114.739 75.2987 115.27 75.9237 115.647ZM80.6873 111.025H75.1101L75.1454 110.848C75.2987 110.117 75.6171 109.516 76.1123 109.056C76.6075 108.596 77.2089 108.372 77.9282 108.372C78.5413 108.372 79.0601 108.502 79.461 108.761C79.8737 109.021 80.1685 109.351 80.3689 109.728C80.5576 110.106 80.6637 110.483 80.6873 110.86V111.013V111.025ZM75.4874 110.73H80.3807C80.3453 110.447 80.251 110.153 80.1095 109.87C79.9444 109.54 79.6732 109.245 79.3077 109.021C78.9422 108.797 78.4823 108.679 77.9282 108.679C77.2914 108.679 76.749 108.879 76.3128 109.292C75.9119 109.669 75.6289 110.153 75.4756 110.742L75.4874 110.73ZM87.2549 104.021H91.3229C91.995 104.021 92.6199 104.175 93.1977 104.481C93.7754 104.788 94.2235 105.212 94.5772 105.755C94.9192 106.297 95.096 106.91 95.096 107.606C95.096 108.301 94.9192 108.903 94.5772 109.457C94.2353 109.999 93.7754 110.424 93.1977 110.73C92.6199 111.037 91.995 111.19 91.3229 111.19H88.6699V116.119H87.2549V104.045V104.021ZM91.3582 109.799C91.8063 109.799 92.2072 109.693 92.5491 109.481C92.8911 109.268 93.1623 108.997 93.3509 108.655C93.5396 108.313 93.6339 107.96 93.6339 107.594C93.6339 107.228 93.5396 106.875 93.3509 106.533C93.1623 106.191 92.8911 105.92 92.5491 105.707C92.2072 105.495 91.8063 105.389 91.3582 105.389H88.6817V109.811H91.3582V109.799ZM88.8232 116.237H87.1134V103.868H91.3229C92.0185 103.868 92.6671 104.021 93.2684 104.34C93.858 104.658 94.3414 105.106 94.6951 105.66C95.0489 106.226 95.2375 106.875 95.2375 107.582C95.2375 108.29 95.0607 108.938 94.6951 109.504C94.3414 110.07 93.858 110.518 93.2684 110.825C92.6789 111.143 92.0303 111.296 91.3229 111.296H88.8232V116.225V116.237ZM87.4082 115.942H88.5284V111.013H91.3229C91.9714 111.013 92.5727 110.872 93.1269 110.577C93.6693 110.282 94.1174 109.881 94.4475 109.351C94.7777 108.832 94.9427 108.231 94.9427 107.582C94.9427 106.934 94.7777 106.332 94.4475 105.814C94.1174 105.295 93.6811 104.882 93.1269 104.587C92.5727 104.293 91.9714 104.151 91.3229 104.151H87.4082V115.93V115.942ZM91.3582 109.952H88.5284V105.236H91.3582C91.8299 105.236 92.2544 105.354 92.6199 105.578C92.9854 105.802 93.2684 106.097 93.4689 106.462C93.6693 106.816 93.7754 107.205 93.7754 107.594C93.7754 107.983 93.6693 108.372 93.4689 108.726C93.2684 109.08 92.9854 109.374 92.6199 109.61C92.2544 109.834 91.8299 109.952 91.3582 109.952ZM88.8232 109.657H91.3582C91.7827 109.657 92.1483 109.563 92.4666 109.363C92.785 109.162 93.0444 108.903 93.2212 108.584C93.3981 108.266 93.4924 107.936 93.4924 107.594C93.4924 107.252 93.3981 106.922 93.2212 106.604C93.0444 106.285 92.785 106.026 92.4666 105.825C92.1483 105.625 91.7709 105.531 91.3582 105.531H88.8232V109.657ZM97.9613 115.989C97.466 115.742 97.0887 115.4 96.8175 114.963C96.5463 114.527 96.4166 114.044 96.4166 113.49C96.4166 112.582 96.7586 111.862 97.4425 111.355C98.1264 110.848 98.9989 110.589 100.037 110.589C100.555 110.589 101.039 110.648 101.475 110.754C101.923 110.872 102.265 111.002 102.501 111.143V110.624C102.501 109.988 102.277 109.469 101.829 109.08C101.381 108.691 100.815 108.502 100.131 108.502C99.6474 108.502 99.1993 108.608 98.7985 108.809C98.3976 109.021 98.0792 109.304 97.8434 109.681L96.7586 108.867C97.1005 108.349 97.5604 107.948 98.1499 107.653C98.7395 107.358 99.3998 107.217 100.119 107.217C101.286 107.217 102.206 107.523 102.878 108.136C103.55 108.75 103.88 109.587 103.88 110.636V116.084H102.513V114.857H102.442C102.194 115.27 101.829 115.624 101.334 115.919C100.838 116.213 100.284 116.355 99.6592 116.355C99.0343 116.355 98.4683 116.237 97.9731 115.989H97.9613ZM101.133 114.728C101.546 114.48 101.876 114.15 102.124 113.737C102.371 113.325 102.489 112.865 102.489 112.369C102.218 112.193 101.888 112.039 101.499 111.933C101.11 111.827 100.685 111.768 100.249 111.768C99.4587 111.768 98.8692 111.933 98.4683 112.263C98.0674 112.593 97.867 113.006 97.867 113.525C97.867 113.997 98.0438 114.374 98.4093 114.669C98.7749 114.963 99.2229 115.105 99.7771 115.105C100.261 115.105 100.709 114.987 101.121 114.739L101.133 114.728ZM99.6474 116.508C98.9989 116.508 98.4093 116.378 97.8905 116.119C97.3717 115.86 96.9708 115.506 96.6878 115.046C96.4049 114.598 96.2634 114.067 96.2634 113.49C96.2634 112.535 96.6289 111.78 97.3481 111.237C98.0556 110.707 98.9635 110.447 100.037 110.447C100.567 110.447 101.062 110.506 101.51 110.624C101.852 110.707 102.124 110.801 102.348 110.907V110.636C102.348 110.035 102.147 109.563 101.723 109.209C101.298 108.844 100.768 108.667 100.119 108.667C99.6592 108.667 99.2347 108.761 98.8574 108.962C98.4801 109.15 98.1735 109.433 97.9495 109.775L97.867 109.905L96.5463 108.915L96.6171 108.797C96.9708 108.254 97.4543 107.83 98.0674 107.535C98.6805 107.24 99.3526 107.087 100.095 107.087C101.298 107.087 102.253 107.405 102.949 108.042C103.645 108.679 103.998 109.563 103.998 110.648V116.237H102.336V115.235C102.088 115.541 101.77 115.824 101.381 116.048C100.862 116.355 100.272 116.508 99.6356 116.508H99.6474ZM100.037 110.742C99.0225 110.742 98.1853 110.99 97.525 111.485C96.8765 111.969 96.5581 112.629 96.5581 113.501C96.5581 114.02 96.6878 114.492 96.9355 114.893C97.1949 115.305 97.5604 115.624 98.0202 115.86C98.4919 116.095 99.0343 116.213 99.6356 116.213C100.237 116.213 100.756 116.072 101.227 115.801C101.699 115.518 102.053 115.188 102.289 114.787L102.336 114.716H102.631V115.942H103.704V110.648C103.704 109.646 103.385 108.832 102.748 108.254C102.112 107.665 101.216 107.37 100.095 107.37C99.3998 107.37 98.7631 107.511 98.1971 107.794C97.6783 108.054 97.2538 108.408 96.9472 108.844L97.7844 109.481C98.0202 109.15 98.3386 108.891 98.7159 108.691C99.1404 108.478 99.612 108.36 100.119 108.36C100.838 108.36 101.44 108.573 101.923 108.974C102.407 109.386 102.654 109.952 102.654 110.624V111.414L102.43 111.273C102.206 111.131 101.876 111.013 101.451 110.907C101.015 110.801 100.544 110.742 100.048 110.742H100.037ZM99.7889 115.246C99.2111 115.246 98.7159 115.093 98.3268 114.775C97.9377 114.456 97.7373 114.032 97.7373 113.513C97.7373 112.947 97.9613 112.487 98.3858 112.134C98.8102 111.792 99.4352 111.615 100.261 111.615C100.709 111.615 101.145 111.674 101.546 111.792C101.958 111.91 102.3 112.063 102.583 112.252L102.654 112.299V112.381C102.654 112.9 102.524 113.383 102.265 113.82C102.006 114.256 101.652 114.61 101.216 114.869C100.779 115.129 100.296 115.258 99.7889 115.258V115.246ZM100.261 111.91C99.5059 111.91 98.9399 112.063 98.5744 112.369C98.2089 112.664 98.032 113.042 98.032 113.525C98.032 113.949 98.1853 114.291 98.5155 114.563C98.8456 114.834 99.2701 114.963 99.7889 114.963C100.249 114.963 100.673 114.846 101.062 114.61C101.451 114.374 101.77 114.056 102.006 113.666C102.23 113.301 102.348 112.888 102.359 112.452C102.112 112.299 101.817 112.169 101.475 112.075C101.098 111.969 100.685 111.91 100.272 111.91H100.261ZM105.626 107.629H106.993V108.997H107.064C107.264 108.49 107.606 108.101 108.09 107.818C108.573 107.535 109.104 107.394 109.67 107.394C109.917 107.394 110.13 107.405 110.295 107.441V108.903C110.106 108.856 109.847 108.832 109.517 108.832C108.786 108.832 108.196 109.08 107.736 109.551C107.276 110.035 107.052 110.66 107.052 111.438V116.213H105.614V107.618L105.626 107.629ZM114.351 116.19C114.056 116.072 113.809 115.919 113.596 115.73C113.372 115.518 113.207 115.258 113.089 114.975C112.971 114.692 112.924 114.339 112.924 113.926V108.797H111.427V107.5H112.924V105.071H114.351V107.5H116.438V108.797H114.351V113.584C114.351 114.067 114.445 114.421 114.622 114.657C114.834 114.905 115.141 115.034 115.554 115.034C115.884 115.034 116.19 114.94 116.497 114.751V116.154C116.332 116.237 116.155 116.284 115.978 116.319C115.801 116.355 115.577 116.367 115.318 116.367C114.964 116.367 114.646 116.308 114.351 116.19ZM115.318 116.508C114.952 116.508 114.61 116.449 114.292 116.331C113.974 116.213 113.702 116.048 113.49 115.836C113.254 115.6 113.066 115.329 112.948 115.034C112.83 114.739 112.771 114.362 112.771 113.938V108.95H111.273V107.358H112.771V104.929H114.492V107.358H116.579V108.95H114.492V113.596C114.492 114.044 114.575 114.374 114.728 114.574C114.917 114.787 115.176 114.893 115.542 114.893C115.837 114.893 116.131 114.798 116.403 114.633L116.627 114.492V116.249L116.544 116.284C116.355 116.367 116.179 116.426 115.99 116.461C115.813 116.496 115.577 116.508 115.294 116.508H115.318ZM111.568 108.643H113.066V113.926C113.066 114.315 113.113 114.657 113.219 114.916C113.325 115.176 113.478 115.423 113.691 115.624C113.879 115.801 114.115 115.954 114.386 116.06C114.669 116.166 114.976 116.225 115.306 116.225C115.565 116.225 115.778 116.213 115.943 116.178C116.072 116.154 116.202 116.119 116.344 116.06V115.011C116.084 115.129 115.813 115.199 115.542 115.199C115.094 115.199 114.74 115.058 114.504 114.763C114.304 114.504 114.198 114.126 114.198 113.596V108.655H116.285V107.653H114.198V105.224H113.066V107.653H111.568V108.655V108.643ZM107.206 116.378H105.472V107.488H107.135V108.526C107.347 108.184 107.642 107.912 108.007 107.7C108.514 107.405 109.069 107.252 109.67 107.252C109.917 107.252 110.142 107.276 110.318 107.299L110.436 107.323V109.091L110.259 109.044C110.083 108.997 109.835 108.985 109.517 108.985C108.821 108.985 108.279 109.209 107.842 109.669C107.418 110.117 107.206 110.719 107.206 111.462V116.378ZM105.767 116.084H106.911V111.462C106.911 110.648 107.158 109.988 107.63 109.469C108.113 108.962 108.75 108.702 109.517 108.702C109.764 108.702 109.976 108.714 110.142 108.738V107.57C110 107.547 109.847 107.547 109.67 107.547C109.127 107.547 108.62 107.688 108.161 107.948C107.701 108.219 107.382 108.573 107.194 109.056L107.158 109.15H106.84V107.783H105.767V116.084ZM118.077 107.5H119.445V108.761H119.515C119.751 108.337 120.129 107.971 120.647 107.677C121.166 107.382 121.72 107.228 122.298 107.228C123.336 107.228 124.126 107.523 124.668 108.125C125.211 108.726 125.482 109.54 125.482 110.577V116.095H124.043V110.801C124.043 109.999 123.855 109.422 123.465 109.068C123.088 108.714 122.558 108.526 121.897 108.526C121.437 108.526 121.025 108.655 120.659 108.915C120.294 109.174 120.011 109.516 119.81 109.94C119.61 110.365 119.504 110.801 119.504 111.261V116.095H118.065V107.5H118.077ZM125.623 116.249H123.89V110.801C123.89 110.047 123.713 109.504 123.359 109.174C123.006 108.844 122.51 108.679 121.897 108.679C121.473 108.679 121.084 108.797 120.742 109.044C120.4 109.292 120.129 109.61 119.94 110.011C119.751 110.412 119.645 110.837 119.645 111.273V116.26H117.912V107.37H119.574V108.396C119.822 108.077 120.14 107.806 120.553 107.57C121.095 107.264 121.673 107.099 122.275 107.099C123.348 107.099 124.185 107.417 124.751 108.054C125.317 108.679 125.611 109.54 125.611 110.613V116.272L125.623 116.249ZM124.185 115.954H125.328V110.589C125.328 109.599 125.069 108.809 124.55 108.231C124.043 107.665 123.277 107.382 122.286 107.382C121.732 107.382 121.202 107.523 120.706 107.806C120.211 108.089 119.857 108.431 119.633 108.832L119.586 108.903H119.28V107.641H118.207V115.942H119.35V111.249C119.35 110.766 119.457 110.306 119.669 109.858C119.881 109.422 120.176 109.056 120.565 108.785C120.954 108.514 121.402 108.372 121.885 108.372C122.581 108.372 123.147 108.573 123.56 108.95C123.973 109.339 124.185 109.952 124.185 110.789V115.942V115.954ZM129.149 115.777C128.5 115.388 127.993 114.846 127.628 114.15C127.262 113.454 127.085 112.676 127.085 111.815C127.085 110.954 127.262 110.223 127.604 109.516C127.946 108.82 128.43 108.266 129.066 107.842C129.703 107.417 130.422 107.217 131.259 107.217C132.097 107.217 132.828 107.405 133.453 107.783C134.078 108.16 134.549 108.679 134.879 109.339C135.209 109.999 135.375 110.766 135.375 111.615C135.375 111.78 135.363 111.933 135.327 112.051H128.536C128.571 112.7 128.724 113.254 129.007 113.702C129.29 114.15 129.644 114.492 130.08 114.716C130.517 114.94 130.965 115.058 131.436 115.058C132.533 115.058 133.382 114.539 133.983 113.501L135.198 114.091C134.82 114.787 134.325 115.341 133.688 115.742C133.052 116.143 132.285 116.343 131.389 116.343C130.564 116.343 129.833 116.143 129.184 115.753L129.149 115.777ZM133.842 110.884C133.818 110.53 133.712 110.164 133.535 109.799C133.358 109.445 133.075 109.139 132.686 108.891C132.297 108.643 131.814 108.526 131.224 108.526C130.552 108.526 129.974 108.738 129.514 109.174C129.043 109.61 128.736 110.176 128.595 110.884H133.842ZM131.366 116.508C130.528 116.508 129.75 116.308 129.078 115.895C128.406 115.494 127.875 114.916 127.498 114.209C127.121 113.501 126.932 112.688 126.932 111.803C126.932 110.919 127.109 110.164 127.463 109.445C127.816 108.726 128.323 108.148 128.972 107.724C129.62 107.287 130.387 107.075 131.248 107.075C132.108 107.075 132.875 107.276 133.512 107.665C134.148 108.054 134.643 108.596 134.985 109.28C135.327 109.964 135.504 110.754 135.504 111.627C135.504 111.803 135.481 111.969 135.445 112.098L135.41 112.204H128.665C128.713 112.759 128.866 113.242 129.102 113.631C129.361 114.056 129.703 114.374 130.116 114.586C130.528 114.798 130.953 114.905 131.401 114.905C132.45 114.905 133.252 114.421 133.818 113.431L133.889 113.313L135.363 114.032L135.292 114.162C134.915 114.881 134.384 115.447 133.736 115.871C133.075 116.284 132.273 116.496 131.354 116.496L131.366 116.508ZM129.231 115.647C129.856 116.025 130.576 116.213 131.366 116.213C132.238 116.213 132.981 116.013 133.582 115.624C134.148 115.258 134.62 114.775 134.962 114.162L134.007 113.702C133.394 114.704 132.509 115.211 131.401 115.211C130.906 115.211 130.422 115.093 129.974 114.857C129.514 114.622 129.137 114.268 128.842 113.796C128.547 113.325 128.382 112.747 128.347 112.075V111.921H135.174C135.186 111.839 135.198 111.733 135.198 111.627C135.198 110.801 135.033 110.058 134.714 109.41C134.396 108.773 133.936 108.278 133.346 107.912C132.757 107.547 132.038 107.37 131.236 107.37C130.434 107.37 129.727 107.57 129.125 107.971C128.524 108.372 128.04 108.915 127.722 109.587C127.392 110.259 127.227 111.013 127.227 111.815C127.227 112.617 127.404 113.419 127.757 114.079C128.111 114.739 128.606 115.27 129.231 115.647ZM133.995 111.025H128.418L128.453 110.848C128.606 110.117 128.925 109.516 129.42 109.056C129.915 108.596 130.517 108.372 131.236 108.372C131.849 108.372 132.368 108.502 132.769 108.761C133.181 109.021 133.476 109.351 133.677 109.728C133.865 110.106 133.971 110.483 133.995 110.86V111.013V111.025ZM128.783 110.73H133.677C133.641 110.447 133.547 110.153 133.405 109.87C133.24 109.54 132.969 109.245 132.604 109.021C132.238 108.785 131.778 108.679 131.224 108.679C130.587 108.679 130.045 108.879 129.609 109.292C129.208 109.669 128.925 110.153 128.771 110.742L128.783 110.73ZM137.013 107.488H138.381V108.867H138.452C138.617 108.396 138.947 108.007 139.431 107.688C139.914 107.37 140.421 107.217 140.952 107.217C141.341 107.217 141.683 107.276 141.966 107.405V108.938C141.6 108.761 141.199 108.667 140.751 108.667C140.339 108.667 139.949 108.785 139.608 109.021C139.254 109.257 138.983 109.575 138.77 109.976C138.558 110.377 138.464 110.801 138.464 111.273V116.084H137.025V107.488H137.013ZM138.594 116.237H136.86V107.346H138.523V108.384C138.723 108.077 138.994 107.806 139.336 107.582C139.843 107.252 140.386 107.087 140.94 107.087C141.353 107.087 141.706 107.158 142.013 107.287L142.107 107.323V109.198L141.895 109.091C141.553 108.926 141.164 108.832 140.751 108.832C140.362 108.832 140.008 108.938 139.69 109.162C139.36 109.386 139.101 109.693 138.9 110.058C138.7 110.436 138.605 110.848 138.605 111.285V116.249L138.594 116.237ZM137.155 115.942H138.299V111.273C138.299 110.789 138.405 110.33 138.629 109.917C138.841 109.492 139.148 109.162 139.513 108.903C139.891 108.655 140.303 108.526 140.739 108.526C141.129 108.526 141.482 108.584 141.812 108.714V107.5C141.565 107.405 141.282 107.358 140.952 107.358C140.457 107.358 139.973 107.511 139.513 107.806C139.065 108.101 138.747 108.478 138.594 108.915L138.558 109.009H138.24V107.629H137.167V115.93L137.155 115.942Z" fill="#606469"/>
<path d="M108.773 64.7333C108.773 62.9292 108.49 61.1959 108.196 59.5216H84.4719V69.3554H97.7841C97.1946 72.539 95.6853 75.2391 92.9851 77.055V83.4694H101.227C106.026 79.0359 108.785 72.48 108.785 64.7333H108.773Z" fill="#0081C6"/>
<path d="M84.3893 89.6126C91.2399 89.6126 97.0058 87.3605 101.215 83.4694L92.9732 77.055C90.7093 78.5879 87.7969 79.484 84.3893 79.484C77.7862 79.484 72.1736 75.0152 70.1692 68.9899H61.7031V75.5811C65.8772 83.9057 74.4611 89.6126 84.3893 89.6126Z" fill="#00AE57"/>
<path d="M70.1811 69.0016C69.6741 67.4688 69.3911 65.8416 69.3911 64.1555C69.3911 62.4693 69.6741 60.8422 70.1811 59.3093V52.7181H61.7151C59.9936 56.1611 59.0149 60.0404 59.0149 64.1555C59.0149 68.2706 59.9936 72.1499 61.7151 75.5929L70.1811 69.0016Z" fill="#FBAB18"/>
<path d="M84.3893 48.8153C88.1153 48.8153 91.4639 50.1005 94.1051 52.6238L101.38 45.3251C96.9822 41.21 91.2399 38.6867 84.3893 38.6867C74.4729 38.6867 65.8772 44.3936 61.7031 52.7181L70.1692 59.3094C72.1736 53.2841 77.7744 48.8153 84.3893 48.8153Z" fill="#F04931"/>
</svg>
