<svg width="322" height="35" viewBox="0 0 322 35" fill="none" xmlns="http://www.w3.org/2000/svg">
<path d="M121.307 26.8729C119.601 26.8729 117.947 26.32 116.344 25.2395C114.715 24.1338 113.671 22.6009 113.162 20.6408L115.911 19.5351C116.242 20.7916 116.903 21.8722 117.922 22.7265C118.94 23.6061 120.06 24.0333 121.332 24.0333C122.63 24.0333 123.75 23.7066 124.667 23.0281C125.583 22.3496 126.041 21.445 126.041 20.289C126.041 19.0074 125.583 18.0022 124.667 17.3237C123.75 16.6201 122.274 15.9668 120.289 15.3888C118.227 14.7354 116.649 13.9061 115.605 12.901C114.536 11.8707 114.002 10.5891 114.002 8.9808C114.002 7.32226 114.664 5.88989 115.987 4.65855C117.311 3.42721 119.042 2.82411 121.18 2.82411C123.165 2.82411 124.768 3.30156 125.99 4.28161C127.237 5.26165 128.026 6.31709 128.408 7.47304L125.659 8.60386C125.456 7.87511 124.972 7.19661 124.208 6.56838C123.445 5.94015 122.452 5.63859 121.23 5.63859C120.085 5.63859 119.092 5.96527 118.278 6.59351C117.463 7.22174 117.056 8.02588 117.056 8.95567C117.056 9.81006 117.438 10.5388 118.176 11.1168C118.914 11.6948 120.034 12.2476 121.485 12.6999C122.63 13.0769 123.598 13.4287 124.361 13.7554C125.125 14.1072 125.914 14.5595 126.703 15.1124C127.492 15.6903 128.103 16.394 128.484 17.2232C128.892 18.0776 129.095 19.0577 129.095 20.1634C129.095 21.269 128.866 22.2742 128.383 23.1537C127.924 24.0333 127.288 24.7369 126.525 25.2395C125.761 25.7421 124.921 26.1441 124.03 26.4206C123.139 26.7472 122.223 26.8729 121.307 26.8729Z" fill="#616161"/>
<path d="M138.894 26.8729C136.476 26.8729 134.517 26.0687 133.015 24.4856C131.513 22.9025 130.75 20.8921 130.75 18.4797C130.75 16.1929 131.488 14.2077 132.939 12.5492C134.415 10.8906 136.273 10.0614 138.564 10.0614C140.931 10.0614 142.814 10.8152 144.24 12.3481C145.665 13.881 146.378 15.9165 146.378 18.4546L146.352 19.0074H133.753C133.829 20.5906 134.389 21.847 135.357 22.7768C136.349 23.7066 137.495 24.1589 138.818 24.1589C140.956 24.1589 142.432 23.2543 143.196 21.445L145.868 22.5506C145.359 23.782 144.494 24.7872 143.298 25.6164C142.102 26.4708 140.651 26.8729 138.894 26.8729ZM143.196 16.595C143.12 15.6903 142.712 14.8359 141.949 14.0318C141.185 13.2277 140.04 12.8005 138.513 12.8005C137.393 12.8005 136.451 13.1523 135.637 13.8308C134.822 14.5093 134.262 15.439 133.957 16.595H143.196Z" fill="#616161"/>
<path d="M153.479 26.8729C151.773 26.8729 150.374 26.3954 149.228 25.4154C148.083 24.4605 147.523 23.1789 147.523 21.5957C147.523 19.8869 148.185 18.5299 149.534 17.5499C150.883 16.5699 152.537 16.0924 154.522 16.0924C156.279 16.0924 157.729 16.4191 158.849 17.0473V16.595C158.849 15.439 158.442 14.5093 157.653 13.8056C156.839 13.102 155.871 12.7502 154.701 12.7502C153.835 12.7502 153.046 12.9512 152.333 13.3533C151.621 13.7554 151.137 14.3082 150.883 15.037L148.134 13.881C148.49 12.9261 149.228 12.0717 150.323 11.2676C151.417 10.4634 152.842 10.0614 154.624 10.0614C156.66 10.0614 158.366 10.6393 159.715 11.8204C161.064 13.0015 161.725 14.66 161.725 16.796V26.3703H158.849V24.184H158.722C157.526 25.9934 155.77 26.8729 153.479 26.8729ZM153.962 24.184C155.21 24.184 156.329 23.7317 157.322 22.8271C158.34 21.9224 158.849 20.8418 158.849 19.5854C158.009 18.9069 156.737 18.5551 155.031 18.5551C153.581 18.5551 152.486 18.8566 151.748 19.4849C151.01 20.1131 150.628 20.8418 150.628 21.6711C150.628 22.4501 150.959 23.0532 151.646 23.5056C152.333 23.9579 153.097 24.184 153.962 24.184Z" fill="#616161"/>
<path d="M167.579 26.3703H164.576V10.6142H167.452V13.1774H167.579C167.885 12.323 168.496 11.6194 169.463 11.0665C170.405 10.5137 171.321 10.2373 172.212 10.2373C173.103 10.2373 173.841 10.3629 174.452 10.6142L173.306 13.3784C172.925 13.2277 172.39 13.1523 171.703 13.1523C170.608 13.1523 169.667 13.5795 168.827 14.4339C167.987 15.2883 167.579 16.394 167.579 17.7509V26.3703Z" fill="#616161"/>
<path d="M182.367 26.8729C179.975 26.8729 178.015 26.0688 176.462 24.4856C174.91 22.8773 174.146 20.8921 174.146 18.4797C174.146 16.0673 174.91 14.0821 176.462 12.4738C178.015 10.8655 179.975 10.0865 182.367 10.0865C184.149 10.0865 185.625 10.5137 186.796 11.3681C187.967 12.2225 188.832 13.303 189.367 14.6098L186.618 15.7406C185.804 13.7554 184.302 12.7753 182.164 12.7753C180.84 12.7753 179.669 13.303 178.651 14.3836C177.633 15.4642 177.124 16.8212 177.124 18.4797C177.124 20.1382 177.633 21.4952 178.651 22.5758C179.669 23.6563 180.84 24.184 182.164 24.184C184.404 24.184 185.931 23.204 186.796 21.2188L189.469 22.3496C188.934 23.6312 188.043 24.7118 186.847 25.5913C185.625 26.4457 184.149 26.8729 182.367 26.8729Z" fill="#616161"/>
<path d="M194.279 3.35182V10.6142L194.152 12.8005H194.279C194.712 12.0466 195.399 11.4183 196.341 10.8906C197.283 10.3629 198.275 10.1116 199.344 10.1116C201.33 10.1116 202.831 10.7147 203.875 11.9209C204.918 13.1271 205.427 14.7354 205.427 16.7458V26.3703H202.424V17.173C202.424 14.258 201.1 12.8005 198.479 12.8005C197.232 12.8005 196.239 13.2779 195.45 14.258C194.661 15.238 194.279 16.3688 194.279 17.6504V26.3703H191.276V3.35182H194.279Z" fill="#616161"/>
<path d="M223.397 26.8729C219.961 26.8729 217.085 25.7169 214.768 23.4302C212.452 21.1434 211.281 18.2787 211.281 14.8359C211.281 11.3932 212.452 8.5536 214.768 6.2417C217.085 3.95493 219.961 2.79898 223.397 2.79898C226.909 2.79898 229.76 4.05544 231.974 6.56838L229.887 8.5536C228.309 6.59351 226.146 5.63859 223.397 5.63859C220.852 5.63859 218.714 6.49299 216.957 8.17666C215.201 9.86032 214.336 12.0968 214.336 14.8359C214.336 17.575 215.201 19.8115 216.957 21.4952C218.714 23.1789 220.852 24.0333 223.397 24.0333C226.197 24.0333 228.589 22.9276 230.574 20.6911L232.662 22.7517C231.593 24.0081 230.269 25.0133 228.666 25.7672C227.037 26.5211 225.28 26.8729 223.397 26.8729Z" fill="#616161"/>
<path d="M236.123 12.4989C237.676 10.8906 239.636 10.1116 242.028 10.1116C244.421 10.1116 246.381 10.9158 247.933 12.4989C249.486 14.1072 250.249 16.0924 250.249 18.5048C250.249 20.9172 249.486 22.9025 247.933 24.5107C246.381 26.119 244.421 26.898 242.028 26.898C239.636 26.898 237.676 26.0939 236.123 24.5107C234.571 22.9025 233.807 20.9172 233.807 18.5048C233.807 16.0924 234.571 14.0821 236.123 12.4989ZM238.338 22.626C239.381 23.6563 240.603 24.184 242.003 24.184C243.403 24.184 244.624 23.6563 245.668 22.626C246.711 21.5957 247.22 20.2136 247.22 18.5048C247.22 16.796 246.711 15.4139 245.668 14.3836C244.624 13.3533 243.403 12.8256 242.003 12.8256C240.603 12.8256 239.381 13.3533 238.338 14.3836C237.294 15.4139 236.785 16.796 236.785 18.5048C236.81 20.2136 237.319 21.5706 238.338 22.626Z" fill="#616161"/>
<path d="M255.213 10.6142V12.8005H255.34C255.773 12.0466 256.46 11.4183 257.401 10.8906C258.343 10.3629 259.336 10.1116 260.405 10.1116C262.39 10.1116 263.892 10.7147 264.935 11.9209C265.979 13.1271 266.488 14.7354 266.488 16.7458V26.3703H263.485V17.173C263.485 14.258 262.161 12.8005 259.539 12.8005C258.292 12.8005 257.3 13.2779 256.511 14.258C255.722 15.238 255.34 16.3688 255.34 17.6504V26.3703H252.336V10.6142H255.213Z" fill="#616161"/>
<path d="M275.218 26.8729C273.437 26.8729 271.96 26.4457 270.815 25.5913C269.644 24.7369 268.804 23.6563 268.27 22.3747L270.942 21.269C271.782 23.2543 273.233 24.2343 275.269 24.2343C276.211 24.2343 276.974 24.0333 277.56 23.6312C278.145 23.2291 278.451 22.6763 278.451 22.0229C278.451 20.9926 277.713 20.289 276.262 19.9372L273.029 19.1582C272.011 18.9069 271.044 18.4043 270.128 17.7007C269.211 16.9719 268.753 16.017 268.753 14.7857C268.753 13.4036 269.39 12.2727 270.637 11.3932C271.884 10.5137 273.36 10.0865 275.091 10.0865C276.491 10.0865 277.763 10.4132 278.858 11.0414C279.978 11.6696 280.767 12.5743 281.225 13.7554L278.629 14.8108C278.043 13.4287 276.822 12.7251 274.989 12.7251C274.098 12.7251 273.36 12.901 272.749 13.2779C272.138 13.6549 271.833 14.1323 271.833 14.7605C271.833 15.6652 272.546 16.2683 273.946 16.595L277.102 17.3237C278.603 17.6755 279.698 18.2535 280.436 19.0828C281.149 19.9121 281.505 20.867 281.505 21.9224C281.505 23.3297 280.92 24.5107 279.749 25.4656C278.578 26.4206 277.051 26.8729 275.218 26.8729Z" fill="#616161"/>
<path d="M284.941 12.4989C286.494 10.8906 288.454 10.1116 290.846 10.1116C293.239 10.1116 295.198 10.9158 296.751 12.4989C298.304 14.1072 299.067 16.0924 299.067 18.5048C299.067 20.9172 298.304 22.9025 296.751 24.5107C295.198 26.119 293.239 26.898 290.846 26.898C288.454 26.898 286.494 26.0939 284.941 24.5107C283.388 22.9025 282.625 20.9172 282.625 18.5048C282.625 16.0924 283.388 14.0821 284.941 12.4989ZM287.181 22.626C288.224 23.6563 289.446 24.184 290.846 24.184C292.246 24.184 293.468 23.6563 294.511 22.626C295.555 21.5957 296.064 20.2136 296.064 18.5048C296.064 16.796 295.555 15.4139 294.511 14.3836C293.468 13.3533 292.246 12.8256 290.846 12.8256C289.446 12.8256 288.224 13.3533 287.181 14.3836C286.137 15.4139 285.628 16.796 285.628 18.5048C285.628 20.2136 286.137 21.5706 287.181 22.626Z" fill="#616161"/>
<path d="M304.209 26.3703H301.205V3.35182H304.209V26.3703Z" fill="#616161"/>
<path d="M314.517 26.8729C312.099 26.8729 310.139 26.0687 308.637 24.4856C307.136 22.9025 306.372 20.8921 306.372 18.4797C306.372 16.1929 307.11 14.2077 308.561 12.5492C310.037 10.8906 311.895 10.0614 314.186 10.0614C316.553 10.0614 318.437 10.8152 319.862 12.3481C321.287 13.881 322 15.9165 322 18.4546L321.975 19.0074H309.376C309.452 20.5906 310.012 21.847 310.979 22.7768C311.972 23.7066 313.117 24.1589 314.441 24.1589C316.579 24.1589 318.055 23.2543 318.818 21.445L321.491 22.5506C320.982 23.782 320.117 24.7872 318.92 25.6164C317.724 26.4708 316.248 26.8729 314.517 26.8729ZM318.818 16.595C318.742 15.6903 318.335 14.8359 317.571 14.0318C316.808 13.2277 315.662 12.8005 314.135 12.8005C313.015 12.8005 312.074 13.1523 311.259 13.8308C310.445 14.5093 309.885 15.439 309.579 16.595H318.818Z" fill="#616161"/>
<path d="M0 13.7051C0 6.44273 6.18496 0.512207 13.5662 0.512207C17.6386 0.512207 20.5402 2.09536 22.7291 4.15596L20.1584 6.69403C18.6058 5.23652 16.4678 4.13083 13.5662 4.13083C8.19572 4.13083 3.99605 8.40282 3.99605 13.7051C3.99605 19.0074 8.19572 23.2794 13.5662 23.2794C17.0532 23.2794 19.0385 21.8973 20.3111 20.6408C21.3547 19.6105 22.0419 18.1279 22.2964 16.1175H13.5662V12.524H25.8598C25.987 13.1774 26.0634 13.9313 26.0634 14.7857C26.0634 17.4996 25.3253 20.8418 22.9073 23.204C20.5656 25.6164 17.5622 26.898 13.5917 26.898C6.18497 26.8729 0 20.9675 0 13.7051Z" fill="#4285F4"/>
<path d="M35.9644 9.91058C31.2048 9.91058 27.336 13.4789 27.336 18.4043C27.336 23.3045 31.2048 26.898 35.9644 26.898C40.7241 26.898 44.5928 23.3045 44.5928 18.4043C44.5928 13.4789 40.7241 9.91058 35.9644 9.91058ZM35.9644 23.5307C33.3683 23.5307 31.103 21.4198 31.103 18.3792C31.103 15.3134 33.3428 13.2277 35.9644 13.2277C38.5606 13.2277 40.8259 15.3134 40.8259 18.3792C40.8259 21.4198 38.5606 23.5307 35.9644 23.5307Z" fill="#DB4437"/>
<path d="M54.7993 9.91058C50.0397 9.91058 46.1709 13.4789 46.1709 18.4043C46.1709 23.3045 50.0397 26.898 54.7993 26.898C59.5589 26.898 63.4277 23.3045 63.4277 18.4043C63.4277 13.4789 59.5589 9.91058 54.7993 9.91058ZM54.7993 23.5307C52.2032 23.5307 49.9379 21.4198 49.9379 18.3792C49.9379 15.3134 52.1777 13.2277 54.7993 13.2277C57.4209 13.2277 59.6607 15.3134 59.6607 18.3792C59.6607 21.4198 57.3955 23.5307 54.7993 23.5307Z" fill="#F4B400"/>
<path d="M77.9102 10.4132V11.7953H77.783C76.943 10.7901 75.3141 9.88545 73.2524 9.88545C68.9509 9.88545 65.0058 13.6046 65.0058 18.4043C65.0058 23.1537 68.9509 26.8729 73.2524 26.8729C75.3141 26.8729 76.943 25.9682 77.783 24.9379H77.9102V26.1693C77.9102 29.411 76.154 31.1449 73.3288 31.1449C71.0126 31.1449 69.5872 29.5115 69.0018 28.1294L65.7185 29.4863C66.6602 31.748 69.18 34.5122 73.3542 34.5122C77.783 34.5122 81.5245 31.949 81.5245 25.6667V10.4132H77.9102ZM73.5833 23.5307C70.9871 23.5307 68.7982 21.3696 68.7982 18.4043C68.7982 15.4139 70.9871 13.2277 73.5833 13.2277C76.154 13.2277 78.1647 15.4139 78.1647 18.4043C78.1902 21.3947 76.154 23.5307 73.5833 23.5307Z" fill="#4285F4"/>
<path d="M87.8876 1.41686H84.1206V26.3703H87.8876V1.41686Z" fill="#0F9D58"/>
<path d="M98.2468 23.5307C96.3124 23.5307 94.9634 22.6512 94.0726 20.9675L105.577 16.2683L105.195 15.3134C104.483 13.4036 102.294 9.91058 97.8395 9.91058C93.4108 9.91058 89.7202 13.3533 89.7202 18.4043C89.7202 23.1537 93.3599 26.898 98.2468 26.898C102.192 26.898 104.457 24.5107 105.424 23.1286L102.497 21.1937C101.505 22.6009 100.181 23.5307 98.2468 23.5307ZM97.9668 13.1774C99.4685 13.1774 100.741 13.9061 101.148 14.9867L93.4617 18.1279C93.3599 14.8611 96.0324 13.1774 97.9668 13.1774Z" fill="#DB4437"/>
</svg>
