<svg width="56" height="69" viewBox="0 0 56 69" fill="none" xmlns="http://www.w3.org/2000/svg">
<path d="M1.79448 35.7878L20.0721 4.49859C22.3931 5.86507 34.0992 12.3437 35.9884 13.5759L17.7127 44.8652C15.7155 47.5052 -0.739516 39.7953 1.79448 35.7878Z" fill="#FBBC04"/>
<path d="M54.3458 35.7878L36.0719 4.49859C34.8161 2.42139 32.7994 0.916017 30.4509 0.302588C28.1023 -0.310842 25.6071 0.0160582 23.4958 1.21377C22.442 1.78344 21.5151 2.5616 20.7715 3.5009C20.028 4.44019 19.4834 5.52096 19.1708 6.67743C18.8583 7.8339 18.7843 9.04188 18.9534 10.2278C19.1226 11.4138 19.5313 12.5529 20.1547 13.5759L38.4295 44.8652C39.6854 46.9424 41.702 48.4477 44.0506 49.0612C46.3992 49.6746 48.8944 49.3477 51.0057 48.15C52.0387 47.5597 52.9448 46.7713 53.6722 45.8298C54.3996 44.8884 54.9339 43.8125 55.2444 42.664C55.5548 41.5155 55.6353 40.317 55.4813 39.1373C55.3273 37.9576 54.9417 36.82 54.3468 35.7897L54.3458 35.7878Z" fill="#4285F4"/>
<path d="M9.7043 49.3597C14.771 49.3597 18.8783 45.3545 18.8783 40.4138C18.8783 35.4731 14.771 31.4678 9.7043 31.4678C4.63764 31.4678 0.530296 35.4731 0.530296 40.4138C0.530296 45.3545 4.63764 49.3597 9.7043 49.3597Z" fill="#34A853"/>
<path fill-rule="evenodd" clip-rule="evenodd" d="M37.9124 65.4112L40.8068 57.7332H41.9217L44.817 65.4112H43.7236L42.9833 63.3314H39.7555L39.0049 65.4112H37.9124ZM40.0889 62.4079H42.6407L41.3858 58.9448H41.3436L40.0889 62.4079ZM47.5838 65.582C47.2501 65.5828 46.9203 65.5113 46.6168 65.3724C46.3134 65.2336 46.0435 65.0307 45.8259 64.7777C45.3296 64.2342 45.0643 63.519 45.0856 62.7834C45.0643 62.0477 45.3296 61.3325 45.8259 60.789C46.0435 60.5361 46.3134 60.3332 46.6168 60.1944C46.9203 60.0555 47.2501 59.984 47.5838 59.9847C47.9591 59.9783 48.33 60.0668 48.6621 60.2418C48.9532 60.3882 49.1996 60.6103 49.3753 60.8847H49.4187L49.3753 60.1555V57.7322H50.3618V65.4102H49.4232V64.681H49.3802C49.2044 64.9557 48.958 65.1781 48.6669 65.3249C48.3334 65.5008 47.9608 65.5887 47.5838 65.582ZM47.7453 64.681C47.9679 64.6841 48.1886 64.6398 48.3928 64.5512C48.597 64.4625 48.78 64.3315 48.9297 64.1667C49.2685 63.788 49.4439 63.2908 49.4177 62.7834C49.4438 62.2759 49.2684 61.7787 48.9297 61.4C48.78 61.2352 48.597 61.1042 48.3928 61.0155C48.1886 60.9268 47.9679 60.8826 47.7453 60.8856C47.5232 60.8841 47.3033 60.9296 47.1001 61.0192C46.8969 61.1088 46.715 61.2405 46.5664 61.4056C46.2263 61.782 46.049 62.2776 46.0729 62.7843C46.049 63.2907 46.2264 63.786 46.5664 64.162C46.7149 64.3274 46.8966 64.4592 47.0999 64.549C47.3031 64.6388 47.5232 64.6845 47.7453 64.6829V64.681ZM53.4607 65.582C52.9425 65.6025 52.4321 65.4518 52.0081 65.1531C51.6337 64.8795 51.3414 64.5085 51.1632 64.0804L52.0427 63.7162C52.1427 64.012 52.3356 64.2677 52.5923 64.4454C52.8491 64.623 53.1562 64.7132 53.4683 64.7026C53.7351 64.7139 53.9988 64.6428 54.2237 64.499C54.3147 64.4424 54.3896 64.3633 54.4412 64.2695C54.4928 64.1757 54.5195 64.0701 54.5186 63.963C54.5186 63.6195 54.2792 63.3871 53.8005 63.2657L52.739 63.0086C52.3895 62.9162 52.0642 62.7497 51.7846 62.5205C51.6381 62.406 51.5209 62.2583 51.4426 62.0896C51.3642 61.9209 51.3271 61.736 51.3342 61.5501C51.3321 61.3246 51.3876 61.1023 51.4955 60.9042C51.6034 60.7061 51.7602 60.5389 51.9508 60.4183C52.3806 60.123 52.8927 59.9709 53.414 59.9837C53.8496 59.9762 54.2793 60.0854 54.6584 60.3C55.016 60.503 55.2925 60.8232 55.4411 61.2067L54.5832 61.5604C54.4844 61.3307 54.3143 61.1389 54.0979 61.0134C53.8816 60.888 53.6304 60.8356 53.3819 60.864C53.1233 60.8553 52.8675 60.9183 52.6425 61.0462C52.5521 61.0931 52.4762 61.1639 52.4232 61.2509C52.3703 61.338 52.3422 61.4379 52.3421 61.5398C52.3421 61.8401 52.5745 62.0438 53.0394 62.1508L54.0794 62.3976C54.4981 62.471 54.8815 62.6781 55.1726 62.9879C55.4018 63.2485 55.5279 63.584 55.5266 63.9311C55.5289 64.1592 55.4778 64.3848 55.3774 64.5896C55.277 64.7944 55.13 64.9729 54.9482 65.1109C54.5232 65.438 53.9966 65.6042 53.4607 65.582Z" fill="#747474"/>
<path d="M4.75644 65.5688C4.1778 65.5836 3.60207 65.4824 3.06317 65.2711C2.52427 65.0599 2.03309 64.7429 1.61862 64.3388C1.20414 63.9348 0.874766 63.4519 0.649856 62.9185C0.424946 62.3852 0.309082 61.8122 0.309082 61.2334C0.309082 60.6545 0.424946 60.0816 0.649856 59.5482C0.874766 59.0149 1.20414 58.532 1.61862 58.1279C2.03309 57.7239 2.52427 57.4069 3.06317 57.1956C3.60207 56.9844 4.1778 56.8831 4.75644 56.8979C5.3099 56.8877 5.85968 56.99 6.3725 57.1984C6.88532 57.4068 7.35054 57.7171 7.74001 58.1105L6.90093 58.9495C6.52142 58.6078 6.06472 58.3632 5.56991 58.2369C5.07511 58.1106 4.55699 58.1062 4.06012 58.2241C3.56324 58.342 3.10244 58.5788 2.71718 58.914C2.33193 59.2492 2.03373 59.6729 1.84826 60.1487C1.66279 60.6245 1.59555 61.1382 1.6523 61.6458C1.70905 62.1533 1.8881 62.6394 2.17409 63.0625C2.46007 63.4856 2.84447 63.833 3.29425 64.0749C3.74403 64.3167 4.24579 64.4458 4.75644 64.4511C5.16331 64.4644 5.5685 64.3925 5.94592 64.2399C6.32333 64.0874 6.66464 63.8575 6.9479 63.5651C7.32057 63.1506 7.55074 62.6277 7.60482 62.0729H4.76114V60.9072H8.76576C8.8061 61.1538 8.82187 61.4037 8.81274 61.6534C8.849 62.6838 8.48083 63.6875 7.78692 64.4501C6.95515 65.1938 5.87191 65.5937 4.75644 65.5688ZM14.9665 62.7721C14.9746 63.1377 14.9093 63.5012 14.7745 63.8411C14.6397 64.181 14.4381 64.4905 14.1817 64.7512C13.9252 65.0119 13.6191 65.2186 13.2815 65.359C12.9438 65.4995 12.5815 65.5708 12.2158 65.5688C11.849 65.5748 11.4848 65.5061 11.1454 65.3671C10.8059 65.228 10.4982 65.0215 10.241 64.7599C9.98379 64.4984 9.78241 64.1874 9.649 63.8457C9.5156 63.5039 9.45296 63.1387 9.46496 62.7721C9.46496 62.0425 9.75482 61.3428 10.2707 60.827C10.7866 60.3111 11.4862 60.0213 12.2158 60.0213C12.9453 60.0213 13.645 60.3111 14.1609 60.827C14.6767 61.3428 14.9665 62.0425 14.9665 62.7721ZM13.754 62.7721C13.7702 62.5593 13.7426 62.3455 13.6728 62.1438C13.6031 61.9422 13.4927 61.757 13.3485 61.5997C13.2044 61.4424 13.0294 61.3164 12.8346 61.2294C12.6398 61.1424 12.4291 61.0963 12.2158 61.094C11.8034 61.1408 11.4227 61.3378 11.1463 61.6474C10.8699 61.957 10.7171 62.3575 10.7171 62.7725C10.7171 63.1876 10.8699 63.5881 11.1463 63.8977C11.4227 64.2072 11.8034 64.4042 12.2158 64.4511C12.4305 64.4528 12.6432 64.4095 12.84 64.3238C13.0369 64.2382 13.2136 64.1121 13.3587 63.9539C13.5038 63.7956 13.6141 63.6086 13.6823 63.405C13.7506 63.2015 13.7753 62.9858 13.755 62.7721H13.754ZM21.1683 62.7721C21.1763 63.1377 21.111 63.5012 20.9762 63.8411C20.8414 64.181 20.6398 64.4905 20.3834 64.7512C20.1269 65.0119 19.8209 65.2186 19.4832 65.359C19.1456 65.4995 18.7832 65.5708 18.4175 65.5688C18.0507 65.5748 17.6865 65.5061 17.3471 65.3671C17.0076 65.228 16.7 65.0215 16.4428 64.7599C16.1855 64.4984 15.9841 64.1874 15.8507 63.8457C15.7173 63.5039 15.6547 63.1387 15.6667 62.7721C15.6587 62.4065 15.724 62.043 15.8588 61.703C15.9937 61.3631 16.1952 61.0536 16.4517 60.7929C16.7081 60.5322 17.0141 60.3255 17.3518 60.1851C17.6894 60.0447 18.0518 59.9733 18.4175 59.9753C18.782 59.9774 19.1425 60.0515 19.4782 60.1933C19.814 60.3352 20.1184 60.542 20.3739 60.8019C20.6295 61.0619 20.8311 61.3697 20.9673 61.7078C21.1035 62.0459 21.1724 62.4076 21.1683 62.7721ZM19.9567 62.7721C19.9728 62.5593 19.9452 62.3455 19.8755 62.1438C19.8057 61.9422 19.6953 61.757 19.5512 61.5997C19.407 61.4424 19.2321 61.3164 19.0372 61.2294C18.8424 61.1424 18.6318 61.0963 18.4184 61.094C18.0061 61.1408 17.6253 61.3378 17.3489 61.6474C17.0725 61.957 16.9198 62.3575 16.9198 62.7725C16.9198 63.1876 17.0725 63.5881 17.3489 63.8977C17.6253 64.2072 18.0061 64.4042 18.4184 64.4511C18.6318 64.4486 18.8423 64.4024 19.037 64.3153C19.2318 64.2282 19.4066 64.102 19.5506 63.9447C19.6947 63.7873 19.8048 63.602 19.8743 63.4003C19.9439 63.1986 19.9712 62.9848 19.9548 62.7721H19.9567ZM27.1833 60.1611V65.1963C27.1833 67.2479 25.9707 68.1329 24.5263 68.1329C23.9994 68.1346 23.4838 67.9806 23.0442 67.6902C22.6045 67.3998 22.2605 66.986 22.0552 66.5008L23.127 66.0315C23.2331 66.3174 23.4238 66.5641 23.6736 66.739C23.9233 66.9139 24.2205 67.0085 24.5254 67.0104C25.4583 67.0104 26.0176 66.4473 26.0176 65.3783V64.9588H25.9707C25.7839 65.1692 25.5538 65.3368 25.2963 65.4502C25.0388 65.5636 24.7598 65.6201 24.4784 65.6158C23.7571 65.5917 23.0741 65.285 22.577 64.7617C22.0799 64.2384 21.8085 63.5406 21.8215 62.819C21.8164 62.0996 22.0904 61.4063 22.5859 60.8847C23.0814 60.3632 23.7597 60.054 24.4784 60.0222C24.7555 60.0153 25.031 60.0655 25.2878 60.1698C25.5445 60.2742 25.777 60.4303 25.9707 60.6285H26.0176V60.1592L27.1833 60.1611ZM26.1105 62.8181C26.0804 62.524 25.9654 62.245 25.7795 62.0151C25.5936 61.7853 25.3448 61.6145 25.0635 61.5236C24.7821 61.4327 24.4804 61.4257 24.1952 61.5033C23.9099 61.581 23.6534 61.74 23.457 61.9609C23.2605 62.1818 23.1326 62.4551 23.0888 62.7475C23.045 63.0399 23.0872 63.3387 23.2104 63.6074C23.3335 63.8762 23.5322 64.1034 23.7822 64.2612C24.0322 64.419 24.3227 64.5006 24.6183 64.4961C25.0377 64.4691 25.4294 64.2776 25.7084 63.9634C25.9874 63.6493 26.1313 63.2377 26.1086 62.8181H26.1105ZM29.3268 57.1766V65.3821H28.1143V57.1776L29.3268 57.1766ZM34.1752 63.7031L35.1072 64.36C34.8554 64.7486 34.5099 65.0675 34.1025 65.2874C33.6951 65.5074 33.2388 65.6212 32.7759 65.6186C32.4091 65.6245 32.0449 65.5559 31.7055 65.4168C31.366 65.2778 31.0584 65.0712 30.8012 64.8097C30.5439 64.5482 30.3425 64.2371 30.2091 63.8954C30.0757 63.5537 30.0131 63.1884 30.0251 62.8218C29.9675 62.1942 30.1432 61.5674 30.5187 61.0612C30.8942 60.555 31.4431 60.205 32.0604 60.078C32.6777 59.951 33.3202 60.0561 33.865 60.373C34.4097 60.69 34.8186 61.1966 35.0133 61.796L35.1532 62.1226L31.4235 63.6608C31.5398 63.9192 31.7305 64.1371 31.9712 64.2866C32.212 64.436 32.4918 64.5103 32.775 64.4999C33.056 64.4941 33.3312 64.4183 33.5755 64.2794C33.8199 64.1404 34.0256 63.9426 34.1742 63.704L34.1752 63.7031ZM31.2386 62.6773L33.7557 61.6515C33.6575 61.4655 33.5096 61.3103 33.3285 61.2033C33.1474 61.0962 32.9402 61.0415 32.7299 61.0452C32.5234 61.0506 32.3201 61.0976 32.1322 61.1833C31.9443 61.2691 31.7756 61.3918 31.6362 61.5443C31.4968 61.6967 31.3896 61.8757 31.3209 62.0706C31.2523 62.2654 31.2237 62.4721 31.2367 62.6782L31.2386 62.6773Z" fill="#747474"/>
</svg>
