<svg width="290" height="56" viewBox="0 0 290 56" fill="none" xmlns="http://www.w3.org/2000/svg">
<path d="M32.3871 53.3957L22.8098 44.0565L43.3791 23.0516L53.2956 32.7706L32.3871 53.3957Z" fill="#8AB4F8"/>
<path d="M32.4278 12.1026L22.8806 2.35911L2.01741 23.0284C0.72566 24.3206 0 26.0729 0 27.9001C0 29.7272 0.72566 31.4796 2.01741 32.7718L22.5752 53.4608L32.2884 44.3678L16.6297 27.9007L32.4278 12.1026Z" fill="#4285F4"/>
<path d="M53.1562 23.1886L32.4649 2.49616C31.8243 1.85556 31.0638 1.34741 30.2268 1.00072C29.3899 0.654026 28.4928 0.475586 27.5868 0.475586C26.6809 0.475586 25.7838 0.654026 24.9468 1.00072C24.1098 1.34741 23.3493 1.85556 22.7087 2.49616C22.0681 3.13677 21.56 3.89727 21.2133 4.73426C20.8666 5.57125 20.6881 6.46832 20.6881 7.37427C20.6881 8.28022 20.8666 9.1773 21.2133 10.0143C21.56 10.8513 22.0681 11.6118 22.7087 12.2524L43.4 32.9437C44.6938 34.2374 46.4485 34.9643 48.2781 34.9643C50.1078 34.9643 51.8625 34.2374 53.1562 32.9437C54.45 31.6499 55.1768 29.8952 55.1768 28.0656C55.1768 26.2359 54.45 24.4812 53.1562 23.1875V23.1886Z" fill="#8AB4F8"/>
<path d="M27.4312 55.6571C31.1542 55.6571 34.1723 52.639 34.1723 48.916C34.1723 45.193 31.1542 42.1749 27.4312 42.1749C23.7082 42.1749 20.6901 45.193 20.6901 48.916C20.6901 52.639 23.7082 55.6571 27.4312 55.6571Z" fill="#246FDB"/>
<path d="M79.9719 30.1411C80.0282 31.2805 79.8519 32.4195 79.4537 33.4886C79.0556 34.5577 78.4439 35.5345 77.656 36.3595C76.7761 37.2782 75.7109 37.9993 74.531 38.4748C73.3512 38.9504 72.0837 39.1697 70.8127 39.118C69.5364 39.1438 68.2683 38.9078 67.0867 38.4246C65.9052 37.9414 64.8351 37.2212 63.9427 36.3084C63.0266 35.4077 62.3048 34.329 61.8215 33.1387C61.3383 31.9483 61.1041 30.6716 61.1331 29.3873C61.1039 28.1028 61.3381 26.8259 61.8213 25.6353C62.3045 24.4448 63.0265 23.3659 63.9427 22.465C64.835 21.5524 65.9048 20.8323 67.0862 20.3491C68.2676 19.8659 69.5354 19.6298 70.8115 19.6555C72.1386 19.6471 73.4549 19.8944 74.6884 20.3837C75.8344 20.8225 76.8598 21.5271 77.6804 22.4395L75.9649 24.1573C75.3656 23.4437 74.6025 22.8858 73.7407 22.5312C72.815 22.1396 71.8189 21.942 70.8138 21.9505C69.8568 21.9304 68.9058 22.1066 68.0195 22.4681C67.1332 22.8297 66.3303 23.369 65.6605 24.0528C64.9738 24.757 64.4359 25.5923 64.0788 26.5087C63.7216 27.4252 63.5525 28.4041 63.5815 29.3873C63.5526 30.3703 63.7218 31.349 64.079 32.2653C64.4362 33.1815 64.974 34.0166 65.6605 34.7207C66.3297 35.4054 67.1322 35.9457 68.0183 36.3082C68.9044 36.6708 69.8554 36.8479 70.8127 36.8288C72.4946 36.8881 74.1407 36.3333 75.4434 35.2678C76.0658 34.7284 76.5749 34.0707 76.9412 33.333C77.3074 32.5953 77.5235 31.7923 77.577 30.9704H70.8127V28.7369H79.8418C79.9265 29.2002 79.97 29.6701 79.9719 30.1411ZM81.6107 32.3293C81.5811 31.4363 81.7292 30.5464 82.0465 29.7112C82.3637 28.876 82.8437 28.1121 83.4586 27.4639C84.0664 26.8329 84.7993 26.3357 85.6102 26.0042C86.4212 25.6726 87.2925 25.5139 88.1683 25.5383C89.04 25.5123 89.9073 25.6702 90.714 26.0015C91.5206 26.3329 92.2484 26.8304 92.8501 27.4616C93.4725 28.1062 93.9591 28.8692 94.2811 29.7053C94.6031 30.5415 94.7539 31.4338 94.7247 32.3293C94.7565 33.2244 94.6068 34.1167 94.2847 34.9525C93.9625 35.7882 93.4745 36.5501 92.8501 37.1923C92.2485 37.8241 91.5206 38.3221 90.7137 38.6539C89.9068 38.9857 89.0392 39.1438 88.1671 39.118C87.2913 39.1423 86.4201 38.9837 85.6091 38.6521C84.7981 38.3205 84.0653 37.8233 83.4574 37.1923C82.843 36.5443 82.3634 35.7808 82.0464 34.946C81.7294 34.1112 81.5813 33.2218 81.6107 32.3293ZM84.0045 32.3293C83.9509 33.5538 84.381 34.7502 85.2019 35.6603C85.5766 36.0726 86.0352 36.3998 86.5468 36.6202C87.0585 36.8406 87.6113 36.9489 88.1683 36.9379C88.7253 36.9489 89.2781 36.8406 89.7897 36.6202C90.3014 36.3998 90.7599 36.0726 91.1346 35.6603C91.9551 34.75 92.3848 33.5536 92.3309 32.3293C92.3813 31.1133 91.9511 29.9264 91.1335 29.0249C90.7602 28.6093 90.3025 28.2783 89.7909 28.0539C89.2793 27.8296 88.7257 27.7171 88.1671 27.7241C87.6086 27.7171 87.0549 27.8296 86.5434 28.0539C86.0318 28.2783 85.574 28.6093 85.2008 29.0249C84.3835 29.9265 83.9538 31.1135 84.0045 32.3293ZM96.1812 32.3293C96.1516 31.4363 96.2997 30.5464 96.6169 29.7112C96.9341 28.876 97.4141 28.1121 98.029 27.4639C98.6369 26.8329 99.3697 26.3357 100.181 26.0042C100.992 25.6726 101.863 25.5139 102.739 25.5383C103.611 25.5124 104.478 25.6706 105.285 26.0024C106.092 26.3341 106.82 26.8321 107.422 27.4639C108.044 28.1084 108.53 28.871 108.852 29.7067C109.173 30.5424 109.324 31.4342 109.295 32.3293C109.327 33.2247 109.178 34.1174 108.856 34.9536C108.534 35.7897 108.046 36.5521 107.422 37.1946C106.82 37.8264 106.092 38.3244 105.285 38.6562C104.478 38.988 103.611 39.1461 102.739 39.1203C101.863 39.1447 100.992 38.986 100.181 38.6544C99.3697 38.3228 98.6369 37.8256 98.029 37.1946C97.4141 36.5464 96.9341 35.7826 96.6169 34.9474C96.2997 34.1121 96.1516 33.2222 96.1812 32.3293ZM98.5749 32.3293C98.522 33.553 98.9521 34.7484 99.7724 35.658C100.147 36.0702 100.606 36.3975 101.117 36.6179C101.629 36.8382 102.182 36.9466 102.739 36.9356C103.296 36.9466 103.849 36.8382 104.36 36.6179C104.872 36.3975 105.33 36.0702 105.705 35.658C106.526 34.7486 106.956 33.5531 106.904 32.3293C106.954 31.1133 106.524 29.9264 105.706 29.0249C105.333 28.6093 104.875 28.2783 104.364 28.0539C103.852 27.8296 103.298 27.7171 102.74 27.7241C102.181 27.7171 101.628 27.8296 101.116 28.0539C100.605 28.2783 100.147 28.6093 99.7735 29.0249C98.9555 29.9262 98.5249 31.1131 98.5749 32.3293ZM117.206 36.9321C117.752 36.948 118.295 36.8414 118.795 36.6204C119.295 36.3993 119.739 36.0693 120.094 35.6545C120.898 34.7383 121.318 33.5471 121.265 32.3293C121.31 31.1189 120.891 29.937 120.094 29.0249C119.74 28.6069 119.297 28.2731 118.797 28.0481C118.297 27.823 117.754 27.7124 117.206 27.7241C116.658 27.7159 116.116 27.8281 115.617 28.0529C115.118 28.2777 114.674 28.6096 114.317 29.0249C113.52 29.937 113.101 31.1189 113.147 32.3293C113.095 33.5406 113.515 34.7247 114.317 35.6336C114.674 36.0486 115.118 36.38 115.617 36.6044C116.116 36.8288 116.659 36.9407 117.206 36.9321ZM117.125 44.7383C116.447 44.743 115.772 44.6511 115.121 44.4653C114.519 44.2931 113.945 44.0345 113.417 43.6976C112.92 43.3801 112.477 42.9848 112.106 42.5268C111.742 42.0763 111.46 41.5652 111.273 41.017L113.537 40.0808C113.784 40.809 114.258 41.4385 114.89 41.8764C115.545 42.3302 116.327 42.566 117.125 42.5501C117.686 42.5823 118.248 42.4946 118.773 42.2927C119.298 42.0908 119.774 41.7795 120.169 41.3793C120.938 40.4863 121.33 39.3294 121.262 38.1528V36.9321H121.157C120.699 37.6161 120.069 38.1679 119.331 38.5326C118.552 38.9229 117.691 39.1219 116.82 39.1133C116.005 39.118 115.199 38.946 114.457 38.6091C113.716 38.2723 113.056 37.7786 112.523 37.1621C111.346 35.8314 110.713 34.1056 110.753 32.3293C110.709 30.5584 111.342 28.8374 112.522 27.5162C113.051 26.8938 113.71 26.3945 114.452 26.0534C115.194 25.7124 116.002 25.5377 116.819 25.5417C117.69 25.5331 118.551 25.7322 119.33 26.1225C120.071 26.486 120.704 27.0379 121.164 27.7229H121.269V25.9517H123.558V38.1551C123.608 39.0335 123.48 39.913 123.18 40.7402C122.881 41.5675 122.416 42.3255 121.816 42.9682C121.195 43.5671 120.459 44.033 119.653 44.3374C118.846 44.6418 117.986 44.7782 117.125 44.7383ZM128.855 20.0713V38.7022H126.468V20.0725L128.855 20.0713ZM137.364 39.1191C136.5 39.1449 135.639 38.9866 134.841 38.6545C134.042 38.3225 133.324 37.8245 132.732 37.1934C131.508 35.8758 130.855 34.1268 130.918 32.3293C130.86 30.5432 131.494 28.8037 132.688 27.4744C133.257 26.8416 133.957 26.3404 134.739 26.0056C135.521 25.6708 136.367 25.5106 137.218 25.5359C138.057 25.4976 138.896 25.6417 139.674 25.9583C140.453 26.2749 141.154 26.7565 141.729 27.3699C142.922 28.8068 143.522 30.6449 143.407 32.5093L143.382 32.7695H133.364C133.357 33.3311 133.464 33.8882 133.679 34.4073C133.893 34.9263 134.211 35.3964 134.613 35.7892C134.99 36.1601 135.437 36.4524 135.929 36.6489C136.42 36.8455 136.945 36.9426 137.474 36.9344C138.228 36.9318 138.966 36.7152 139.602 36.31C140.237 35.9048 140.745 35.3275 141.066 34.6452L143.199 35.6905C142.654 36.7337 141.829 37.605 140.818 38.2074C139.775 38.8222 138.582 39.1373 137.371 39.118L137.364 39.1191ZM133.546 30.7915H140.863C140.838 30.3718 140.729 29.9612 140.544 29.5838C140.359 29.2064 140.1 28.8695 139.783 28.5929C139.053 27.9838 138.119 27.6728 137.169 27.7218C136.317 27.704 135.488 28.0004 134.84 28.5546C134.172 29.1354 133.717 29.9226 133.546 30.7915Z" fill="#616367"/>
<path d="M156.21 22.3605V38.701H153.816V22.3605H148.612V20.0713H161.413V22.3605H156.21ZM163.286 34.7985C163.285 35.1029 163.355 35.4033 163.493 35.6748C163.63 35.9463 163.831 36.1811 164.077 36.3595C164.606 36.7758 165.263 36.9965 165.936 36.9844C166.946 36.9829 167.915 36.5807 168.629 35.8659C169.002 35.5372 169.301 35.1328 169.506 34.6796C169.711 34.2265 169.817 33.7349 169.817 33.2375C168.907 32.5978 167.806 32.2858 166.695 32.3525C165.831 32.3193 164.978 32.5635 164.262 33.0494C163.966 33.236 163.722 33.4939 163.551 33.7995C163.381 34.1051 163.29 34.4486 163.286 34.7985ZM166.383 25.5359C167.91 25.4511 169.411 25.9591 170.572 26.9541C171.092 27.4545 171.498 28.0608 171.763 28.7319C172.028 29.403 172.146 30.1233 172.108 30.8438V38.701H169.817V36.9321H169.713C169.3 37.6082 168.718 38.1652 168.025 38.5484C167.331 38.9317 166.55 39.128 165.758 39.118C164.468 39.1593 163.209 38.7136 162.232 37.8694C161.778 37.4872 161.416 37.0087 161.17 36.4686C160.925 35.9285 160.803 35.3405 160.814 34.7474C160.793 34.1412 160.918 33.5388 161.178 32.9909C161.439 32.443 161.827 31.9656 162.31 31.5987C163.47 30.767 164.879 30.3538 166.305 30.4268C167.524 30.3796 168.734 30.6485 169.817 31.2073V30.6614C169.82 30.2567 169.733 29.8564 169.562 29.4895C169.391 29.1227 169.141 28.7985 168.829 28.5406C168.194 27.969 167.367 27.6579 166.513 27.6695C165.883 27.6552 165.26 27.8033 164.704 28.0994C164.149 28.3956 163.678 28.8299 163.339 29.3606L161.231 28.0342C161.805 27.213 162.58 26.5524 163.482 26.1152C164.384 25.6779 165.382 25.4785 166.383 25.5359ZM180.408 36.9321C180.954 36.948 181.497 36.8414 181.996 36.6204C182.496 36.3993 182.94 36.0693 183.296 35.6545C184.1 34.7389 184.519 33.5487 184.467 32.3316C184.512 31.1212 184.093 29.9393 183.296 29.0273C182.942 28.6081 182.499 28.2733 182 28.0472C181.5 27.8212 180.956 27.7096 180.408 27.7206C179.86 27.7124 179.318 27.8246 178.818 28.0494C178.319 28.2742 177.876 28.6061 177.519 29.0215C176.721 29.935 176.302 31.1192 176.348 32.3316C176.297 33.5429 176.717 34.727 177.519 35.6359C177.876 36.0505 178.32 36.3814 178.819 36.6054C179.318 36.8294 179.86 36.9409 180.408 36.9321ZM180.33 44.7383C179.652 44.743 178.978 44.6511 178.326 44.4653C177.724 44.2933 177.149 44.0346 176.621 43.6976C176.123 43.3803 175.68 42.985 175.308 42.5268C174.944 42.0763 174.662 41.5652 174.475 41.017L176.737 40.0808C176.984 40.809 177.458 41.4385 178.09 41.8764C178.747 42.3318 179.53 42.5683 180.329 42.5524C180.89 42.5846 181.452 42.4969 181.977 42.295C182.502 42.0932 182.978 41.7818 183.373 41.3816C184.142 40.4886 184.534 39.3317 184.466 38.1551V36.9321H184.361C183.901 37.6171 183.268 38.1691 182.527 38.5326C181.748 38.9229 180.887 39.1219 180.016 39.1133C179.201 39.118 178.395 38.946 177.653 38.6091C176.911 38.2723 176.251 37.7786 175.719 37.1621C174.542 35.8318 173.911 34.107 173.95 32.3316C173.906 30.5607 174.539 28.8398 175.719 27.5185C176.248 26.8961 176.907 26.3968 177.649 26.0558C178.391 25.7147 179.199 25.5401 180.016 25.5441C180.887 25.5355 181.748 25.7345 182.527 26.1248C183.268 26.4869 183.901 27.0372 184.362 27.7206H184.467V25.9517H186.756V38.1551C186.806 39.0335 186.678 39.913 186.378 40.7403C186.079 41.5675 185.615 42.3255 185.014 42.9682C184.394 43.5662 183.66 44.0317 182.854 44.336C182.049 44.6404 181.19 44.7772 180.33 44.7383Z" fill="#616367"/>
<path d="M194.535 38.701H192.142V20.0713H194.535L201.014 31.4164H201.119L207.597 20.0713H209.991V38.701H207.597V27.6428L207.702 24.5208H207.597L201.769 34.7416H200.364L194.535 24.5208H194.431L194.535 27.6428V38.701ZM214.675 34.7985C214.673 35.1031 214.744 35.4037 214.882 35.6752C215.02 35.9467 215.221 36.1813 215.468 36.3595C215.997 36.7758 216.654 36.9965 217.327 36.9844C218.337 36.9829 219.306 36.5807 220.02 35.8659C220.393 35.537 220.691 35.1325 220.896 34.6793C221.1 34.2262 221.206 33.7347 221.206 33.2375C220.295 32.5978 219.195 32.2858 218.084 32.3525C217.219 32.3193 216.367 32.5635 215.651 33.0494C215.355 33.236 215.11 33.4939 214.94 33.7995C214.769 34.1051 214.678 34.4486 214.675 34.7985ZM217.771 25.5359C219.298 25.4514 220.798 25.9594 221.96 26.9541C222.479 27.4545 222.886 28.0608 223.15 28.7319C223.415 29.403 223.533 30.1233 223.495 30.8438V38.701H221.206V36.9321H221.101C220.688 37.6082 220.107 38.1652 219.413 38.5484C218.72 38.9317 217.939 39.128 217.147 39.118C215.856 39.1593 214.597 38.7136 213.62 37.8694C213.167 37.4872 212.804 37.0087 212.559 36.4686C212.313 35.9285 212.192 35.3405 212.202 34.7474C212.182 34.1412 212.307 33.5388 212.567 32.9909C212.827 32.443 213.215 31.9656 213.698 31.5987C214.859 30.7672 216.267 30.354 217.693 30.4268C218.911 30.3796 220.121 30.6485 221.205 31.2073V30.6614C221.208 30.2567 221.121 29.8564 220.95 29.4895C220.779 29.1227 220.528 28.7985 220.216 28.5406C219.582 27.969 218.755 27.6579 217.9 27.6695C217.271 27.6558 216.649 27.8041 216.094 28.1003C215.539 28.3965 215.069 28.8305 214.73 29.3606L212.619 28.0342C213.194 27.213 213.969 26.5524 214.871 26.1152C215.772 25.6779 216.771 25.4785 217.771 25.5359ZM226.201 25.9517H228.491V27.7206H228.595C229.001 27.0566 229.582 26.5167 230.273 26.1596C230.992 25.7528 231.802 25.5376 232.628 25.5348C233.288 25.4927 233.95 25.5903 234.571 25.8212C235.191 26.0522 235.756 26.4112 236.228 26.8751C237.13 27.9327 237.584 29.3001 237.494 30.687V38.701H235.1V30.8438C235.151 30.4193 235.104 29.9889 234.963 29.5853C234.822 29.1817 234.591 28.8155 234.288 28.5144C233.984 28.2134 233.616 27.9855 233.211 27.8479C232.807 27.7104 232.376 27.6668 231.952 27.7206C231.49 27.7165 231.034 27.8191 230.619 28.0206C230.203 28.2221 229.84 28.517 229.558 28.8821C228.914 29.6598 228.572 30.6438 228.595 31.6533V38.701H226.201V25.9517ZM241.917 34.7985C241.915 35.1031 241.986 35.4037 242.124 35.6752C242.262 35.9467 242.463 36.1813 242.71 36.3595C243.239 36.7758 243.896 36.9965 244.569 36.9844C245.579 36.9829 246.548 36.5807 247.262 35.8659C247.635 35.537 247.933 35.1325 248.138 34.6793C248.342 34.2262 248.448 33.7347 248.448 33.2375C247.537 32.5978 246.437 32.2858 245.326 32.3525C244.461 32.3193 243.609 32.5635 242.893 33.0494C242.597 33.236 242.352 33.4939 242.182 33.7995C242.011 34.1051 241.92 34.4486 241.917 34.7985ZM245.013 25.5359C246.54 25.4511 248.041 25.9591 249.203 26.9541C249.722 27.4548 250.127 28.0613 250.392 28.7324C250.656 29.4035 250.773 30.1235 250.735 30.8438V38.701H248.448V36.9321H248.343C247.93 37.6082 247.349 38.1652 246.655 38.5484C245.962 38.9317 245.181 39.128 244.389 39.118C243.098 39.159 241.839 38.7128 240.862 37.8683C240.409 37.486 240.046 37.0074 239.801 36.4673C239.556 35.9272 239.435 35.3393 239.445 34.7463C239.425 34.14 239.55 33.5377 239.81 32.9898C240.07 32.4419 240.458 31.9644 240.941 31.5976C242.102 30.7665 243.51 30.3537 244.936 30.4268C246.154 30.3796 247.364 30.6485 248.448 31.2073V30.6614C248.451 30.2567 248.364 29.8564 248.193 29.4895C248.022 29.1227 247.771 28.7985 247.459 28.5406C246.825 27.969 245.998 27.6579 245.143 27.6695C244.514 27.6552 243.891 27.8033 243.335 28.0994C242.779 28.3956 242.309 28.8299 241.969 29.3606L239.862 28.0342C240.437 27.2132 241.212 26.5527 242.113 26.1155C243.015 25.6782 244.013 25.4787 245.013 25.5359ZM259.038 36.9321C259.584 36.948 260.127 36.8414 260.627 36.6204C261.127 36.3993 261.571 36.0693 261.927 35.6545C262.73 34.7389 263.149 33.5487 263.097 32.3316C263.142 31.1212 262.724 29.9393 261.927 29.0273C261.572 28.6092 261.129 28.2754 260.629 28.0504C260.13 27.8254 259.586 27.7147 259.038 27.7264C258.491 27.7182 257.948 27.8304 257.449 28.0552C256.95 28.28 256.506 28.6119 256.149 29.0273C255.352 29.9393 254.934 31.1212 254.979 32.3316C254.927 33.5429 255.347 34.727 256.149 35.6359C256.507 36.0505 256.95 36.3814 257.449 36.6054C257.949 36.8294 258.491 36.9409 259.038 36.9321ZM258.96 44.7383C258.283 44.743 257.608 44.6511 256.957 44.4653C256.355 44.2931 255.781 44.0345 255.253 43.6976C254.755 43.3803 254.311 42.985 253.939 42.5268C253.575 42.0763 253.293 41.5652 253.106 41.017L255.37 40.0808C255.617 40.809 256.091 41.4385 256.723 41.8764C257.379 42.3318 258.163 42.5683 258.961 42.5524C259.522 42.584 260.083 42.4959 260.607 42.2941C261.131 42.0922 261.606 41.7812 262.001 41.3816C262.77 40.4886 263.162 39.3317 263.094 38.1551V36.9321H262.989C262.529 37.6171 261.896 38.1691 261.155 38.5326C260.376 38.9229 259.516 39.1219 258.644 39.1133C257.829 39.118 257.023 38.946 256.281 38.6091C255.54 38.2723 254.88 37.7786 254.347 37.1621C253.173 35.8307 252.544 34.106 252.585 32.3316C252.541 30.5607 253.174 28.8398 254.354 27.5185C254.883 26.8961 255.542 26.3968 256.284 26.0558C257.026 25.7147 257.834 25.5401 258.651 25.5441C259.522 25.5355 260.383 25.7345 261.162 26.1248C261.901 26.4875 262.533 27.0378 262.993 27.7206H263.097V25.9517H265.386V38.1551C265.437 39.0335 265.308 39.913 265.009 40.7403C264.709 41.5675 264.245 42.3255 263.644 42.9682C263.025 43.5662 262.29 44.0317 261.485 44.336C260.679 44.6404 259.82 44.7772 258.96 44.7383ZM273.895 39.118C273.031 39.1438 272.171 38.9854 271.372 38.6534C270.574 38.3214 269.855 37.8233 269.263 37.1923C268.037 35.8767 267.383 34.1289 267.442 32.3316C267.384 30.5465 268.018 28.808 269.211 27.479C269.78 26.8462 270.48 26.345 271.262 26.0103C272.044 25.6755 272.89 25.5152 273.741 25.5406C274.581 25.5018 275.42 25.6456 276.199 25.9622C276.979 26.2788 277.68 26.7607 278.255 27.3745C279.447 28.8101 280.047 30.6459 279.933 32.5081L279.907 32.7683H269.888C269.881 33.3299 269.989 33.8871 270.203 34.4061C270.418 34.9251 270.735 35.3953 271.137 35.7881C271.514 36.159 271.962 36.4512 272.453 36.6478C272.944 36.8444 273.47 36.9414 273.999 36.9333C274.753 36.9305 275.49 36.7138 276.126 36.3083C276.762 35.9029 277.269 35.3254 277.59 34.6429L279.723 35.6882C279.179 36.7339 278.355 37.6077 277.342 38.212C276.299 38.8252 275.106 39.1387 273.895 39.118ZM270.071 30.7915H277.388C277.362 30.3718 277.254 29.9612 277.068 29.5838C276.883 29.2064 276.624 28.8695 276.308 28.5929C275.577 27.9838 274.643 27.6728 273.693 27.7218C272.841 27.704 272.012 28.0004 271.364 28.5546C270.696 29.1354 270.241 29.9226 270.071 30.7915ZM284.511 38.701H282.117V25.9517H284.406V28.0342H284.511C284.799 27.3042 285.326 26.6939 286.007 26.3037C286.665 25.8572 287.437 25.6089 288.231 25.5882C288.836 25.572 289.437 25.6783 290 25.9006L289.272 28.2166C288.818 28.0719 288.342 28.0101 287.866 28.0342C287.418 28.0353 286.976 28.1336 286.569 28.3223C286.163 28.511 285.802 28.7856 285.512 29.1271C284.859 29.8163 284.499 30.7327 284.51 31.6823L284.511 38.701Z" fill="#616367"/>
</svg>
