<svg width="131" height="68" viewBox="0 0 131 68" fill="none" xmlns="http://www.w3.org/2000/svg">
<path d="M72.1544 0.299819C68.5799 0.294629 65.1397 1.66126 62.5431 4.11791C59.9466 6.57456 58.3918 9.93391 58.1992 13.5032C54.5528 13.6609 51.1143 15.2445 48.6242 17.9129C46.1341 20.5813 44.7917 24.121 44.8861 27.7696C44.9806 31.4181 46.5043 34.8836 49.1291 37.4196C51.7539 39.9556 55.2698 41.3592 58.9195 41.328H80.496C81.2321 41.331 81.9617 41.1888 82.6428 40.9095C83.324 40.6302 83.9434 40.2194 84.4656 39.7006C84.9878 39.1817 85.4026 38.5649 85.6863 37.8856C85.9699 37.2062 86.1168 36.4776 86.1186 35.7415V14.2235C86.1102 10.5262 84.635 6.98341 82.0169 4.37286C79.3987 1.76231 75.8516 0.297425 72.1544 0.299819ZM57.1458 35.1788C55.7239 34.8103 54.425 34.0718 53.3812 33.0383C52.3375 32.0048 51.5861 30.7133 51.2036 29.2951C51.1346 29.0173 51.0894 28.7342 51.0686 28.4488H57.1458V35.1788ZM58.8249 35.4308V22.25H64.5556V35.4353L58.8249 35.4308ZM72.2444 35.4308H66.5363V11.4189H72.2444V35.4308ZM80.0323 34.2289C80.0347 34.3869 80.0058 34.5438 79.9472 34.6906C79.8887 34.8374 79.8017 34.9711 79.6912 35.0841C79.5807 35.1971 79.449 35.2871 79.3035 35.3489C79.1581 35.4107 79.0019 35.4432 78.8439 35.4443H74.2477V16.0602H80.0323V34.2289Z" fill="#4651FF"/>
<path d="M8.46192 67.5446L3.29137 61.5249V67.5446H0V47.1841H3.29137V58.5151L7.08996 54.283H11.3779L5.98166 60.077L12.627 67.5446H8.46192Z" fill="#4651FF"/>
<path d="M13.0917 49.5974C13.0917 48.4332 14.0861 47.5863 15.2502 47.5863C16.4144 47.5863 17.3797 48.4377 17.3797 49.5974C17.3797 50.757 16.4434 51.6084 15.2502 51.6084C14.057 51.6084 13.0917 50.7325 13.0917 49.5974ZM13.6034 54.2897H16.897V67.5446H13.6012L13.6034 54.2897Z" fill="#4651FF"/>
<path d="M18.7986 63.3974H21.8933C21.8933 64.3068 22.6888 65.1582 24.0808 65.1582C25.388 65.1582 26.2393 64.5616 26.2393 63.7102C26.2393 62.9729 25.6718 62.631 24.6752 62.4031L22.9144 61.9562C19.9337 61.1607 19.165 59.5698 19.165 57.8962C19.165 55.8226 21.2095 54.006 24.1054 54.006C26.4628 54.006 29.133 55.1701 29.1039 58.1509H25.9555C25.9555 57.2146 25.131 56.6449 24.1948 56.6449C23.1714 56.6449 22.4631 57.2124 22.4631 58.0369C22.4631 58.7073 23.1155 59.1162 23.882 59.286L26.0114 59.8535C28.9922 60.62 29.5329 62.4947 29.5329 63.7147C29.5329 66.4117 26.8359 67.8328 24.1367 67.8328C21.4978 67.835 18.8567 66.2374 18.7986 63.3974Z" fill="#4651FF"/>
<path d="M30.668 63.3974H33.7628C33.7628 64.3068 34.5582 65.1582 35.9503 65.1582C37.2575 65.1582 38.1088 64.5616 38.1088 63.7102C38.1088 62.9729 37.5413 62.631 36.5447 62.4031L34.7839 61.9562C31.8031 61.1607 31.0345 59.5698 31.0345 57.8962C31.0345 55.8226 33.079 54.006 35.9749 54.006C38.3322 54.006 41.0024 55.1701 40.9734 58.1509H37.825C37.825 57.2146 37.0005 56.6449 36.0643 56.6449C35.0409 56.6449 34.3326 57.2124 34.3326 58.0369C34.3326 58.7073 34.985 59.1162 35.7514 59.286L37.8809 59.8535C40.8617 60.62 41.4024 62.4947 41.4024 63.7147C41.4024 66.4117 38.7054 67.8328 36.0062 67.8328C33.3673 67.835 30.7261 66.2374 30.668 63.3974Z" fill="#4651FF"/>
<path d="M64.2677 60.1038V67.5446H61.0009V60.3585C61.0009 58.2291 59.8837 57.1789 58.3598 57.1789C56.456 57.1789 55.265 58.5978 55.4058 60.9775L55.3767 60.8635V67.5446H52.0854V60.3585C52.0854 58.2291 50.9682 57.1789 49.5582 57.1789C48.0254 57.1789 46.4903 58.0302 46.4903 60.5574V67.5446H43.1967V54.283H46.4903V56.5555C46.9729 54.8752 48.7918 53.9992 50.4386 53.9992C52.3692 53.9992 53.9601 54.9087 54.7265 56.6113C55.7767 54.5087 57.8548 53.9992 59.1955 53.9992C62.5047 53.9992 64.2677 56.2426 64.2677 60.1038Z" fill="#4651FF"/>
<path d="M79.5782 62.0634H69.3265C69.6952 63.9091 71.1141 64.8476 73.076 64.8476C74.5239 64.8476 75.8869 64.28 76.6824 63.2008L78.8699 64.8766C77.6499 66.8072 75.3194 67.8306 72.9061 67.8306C68.931 67.8306 65.9212 65.0487 65.9212 60.9037C65.9212 56.6717 69.1008 54.0037 72.8793 54.0037C76.6578 54.0037 79.6676 56.6449 79.6676 60.7898C79.6624 61.2157 79.6325 61.641 79.5782 62.0634ZM76.3584 59.7642C76.1595 57.9476 74.7674 56.8951 72.9218 56.8951C71.1342 56.8951 69.7131 57.7464 69.3153 59.7642H76.3584Z" fill="#4651FF"/>
<path d="M88.7217 56.9242H85.9107V67.5446H82.6149V56.9242H80.2307V54.283H82.6149V49.3985H85.9085V54.283H88.7194L88.7217 56.9242Z" fill="#4651FF"/>
<path d="M99.856 54.4528L99.2036 57.5811C98.6087 57.2659 97.9461 57.1003 97.273 57.0984C95.1145 57.0984 93.9213 59.2011 93.9213 62.9192V67.5446H90.5986V54.283H93.8922V57.123C94.6028 54.9087 96.0507 53.9948 97.6908 53.9948C98.4382 53.9789 99.1791 54.1357 99.856 54.4528Z" fill="#4651FF"/>
<path d="M101.069 49.5974C101.069 48.4332 102.064 47.5863 103.228 47.5863C104.392 47.5863 105.357 48.4377 105.357 49.5974C105.357 50.757 104.421 51.6084 103.228 51.6084C102.035 51.6084 101.069 50.7325 101.069 49.5974ZM101.581 54.2897H104.875V67.5446H101.581V54.2897Z" fill="#4651FF"/>
<path d="M106.747 60.9082C106.747 56.7052 110.126 54.0082 113.96 54.0082C114.996 53.9869 116.023 54.2068 116.959 54.6504C117.896 55.094 118.716 55.7493 119.356 56.5644L116.999 58.4101C116.627 57.9856 116.169 57.6462 115.655 57.4148C115.14 57.1835 114.582 57.0657 114.018 57.0694C111.719 57.0694 110.07 58.6603 110.07 60.9037C110.07 63.1471 111.717 64.7381 114.018 64.7381C114.582 64.742 115.14 64.6243 115.655 64.3929C116.169 64.1615 116.628 63.822 116.999 63.3974L119.356 65.2431C118.712 66.0535 117.891 66.7053 116.955 67.1484C116.02 67.5916 114.995 67.8143 113.96 67.7993C110.128 67.7993 106.747 65.1023 106.747 60.9082Z" fill="#4651FF"/>
<path d="M120.266 63.3974H123.36C123.36 64.3068 124.156 65.1582 125.548 65.1582C126.855 65.1582 127.706 64.5616 127.706 63.7102C127.706 62.9729 127.139 62.631 126.142 62.4031L124.382 61.9562C121.401 61.1607 120.632 59.5698 120.632 57.8962C120.632 55.8226 122.677 54.006 125.572 54.006C127.93 54.006 130.598 55.1701 130.571 58.1509H127.423C127.423 57.2146 126.598 56.6449 125.662 56.6449C124.638 56.6449 123.93 57.2124 123.93 58.0369C123.93 58.7073 124.583 59.1162 125.349 59.286L127.478 59.8535C130.459 60.62 131 62.4947 131 63.7147C131 66.4117 128.303 67.8328 125.604 67.8328C122.965 67.835 120.324 66.2374 120.266 63.3974Z" fill="#4651FF"/>
</svg>
