<svg width="311" height="35" viewBox="0 0 311 35" fill="none" xmlns="http://www.w3.org/2000/svg">
<path d="M66.9868 6.92972V27.3209H63.407V11.3384H63.3497L56.949 27.3209H54.5768L48.0186 11.3384H47.9756V27.3209H44.6678V6.92972H49.799L55.7224 22.0438H55.8083L62.0657 6.92972H66.9868ZM69.9795 8.47794C69.9795 7.9068 70.1895 7.43477 70.6047 7.04771C71.02 6.66538 71.5164 6.47185 72.094 6.47185C72.7097 6.47185 73.2157 6.67009 73.6165 7.06187C74.0175 7.45365 74.218 7.92566 74.218 8.47794C74.218 9.0302 74.0128 9.50693 73.6023 9.88455C73.1917 10.2622 72.6859 10.4557 72.094 10.4557C71.5022 10.4557 71.0009 10.2622 70.5905 9.87983C70.1848 9.4975 69.9795 9.0302 69.9795 8.47794ZM73.817 27.3209H70.3374V12.7025H73.817V27.3209ZM84.3704 24.8193C84.8858 24.8193 85.4586 24.7012 86.0839 24.4653C86.7092 24.2292 87.2818 23.9177 87.807 23.5259V26.7262C87.2532 27.0377 86.6232 27.2738 85.9167 27.439C85.2104 27.5994 84.4372 27.6797 83.5924 27.6797C81.4157 27.6797 79.6498 27 78.2847 25.6406C76.9243 24.2811 76.2417 22.5442 76.2417 20.4295C76.2417 18.0788 76.9387 16.1436 78.3276 14.6189C79.7166 13.099 81.6879 12.3343 84.2367 12.3343C84.8906 12.3343 85.5492 12.4193 86.2127 12.5845C86.881 12.7497 87.4108 12.9432 87.8023 13.1604V16.4597C87.2676 16.0727 86.7187 15.7707 86.1554 15.5583C85.5923 15.3458 85.0195 15.2373 84.4372 15.2373C83.0673 15.2373 81.9599 15.6809 81.1151 16.5589C80.2702 17.4417 79.8503 18.631 79.8503 20.1274C79.8503 21.6237 80.256 22.7565 81.0673 23.5826C81.8789 24.4086 82.9766 24.8193 84.3655 24.8193M97.7111 12.4618C97.988 12.4618 98.2409 12.4807 98.4605 12.5184C98.6801 12.5562 98.8709 12.6034 99.0236 12.66V16.1436C98.8424 16.0113 98.5751 15.884 98.2265 15.7659C97.8781 15.6479 97.4533 15.5866 96.9522 15.5866C96.0978 15.5866 95.377 15.9406 94.7899 16.6533C94.1982 17.3661 93.9069 18.4611 93.9069 19.9385V27.3209H90.4273V12.7025H93.9069V15.006H93.9642C94.2792 14.2083 94.7613 13.5852 95.401 13.1368C96.0453 12.6884 96.8138 12.4618 97.7158 12.4618M99.2146 20.2266C99.2146 17.8098 99.902 15.8934 101.286 14.482C102.666 13.0707 104.584 12.3627 107.038 12.3627C109.348 12.3627 111.152 13.0424 112.45 14.4018C113.749 15.7612 114.398 17.5973 114.398 19.9149C114.398 22.2327 113.706 24.1725 112.326 25.5746C110.947 26.9764 109.066 27.6797 106.689 27.6797C104.312 27.6797 102.58 27.0141 101.234 25.6831C99.8876 24.352 99.2146 22.5346 99.2146 20.2313M102.837 20.118C102.837 21.6474 103.186 22.8131 103.887 23.6156C104.584 24.4227 105.587 24.824 106.895 24.824C108.202 24.824 109.124 24.4227 109.782 23.6156C110.446 22.8084 110.775 21.6142 110.775 20.033C110.775 18.4517 110.431 17.2716 109.749 16.4693C109.066 15.6668 108.102 15.2656 106.866 15.2656C105.63 15.2656 104.603 15.6856 103.897 16.5259C103.191 17.3661 102.842 18.5603 102.842 20.118M119.577 16.5494C119.577 17.045 119.734 17.4274 120.049 17.7106C120.364 17.9891 121.066 18.3432 122.149 18.7679C123.538 19.3202 124.517 19.9385 125.075 20.623C125.638 21.3122 125.915 22.1428 125.915 23.1199C125.915 24.4936 125.381 25.5982 124.311 26.4337C123.242 27.2691 121.796 27.6844 119.977 27.6844C119.362 27.6844 118.684 27.6136 117.944 27.4625C117.2 27.3162 116.57 27.1274 116.054 26.9008V23.5165C116.684 23.9507 117.367 24.3001 118.097 24.5549C118.827 24.8098 119.486 24.9373 120.082 24.9373C120.87 24.9373 121.448 24.8287 121.82 24.6116C122.192 24.3944 122.378 24.0263 122.378 23.5165C122.378 23.0445 122.183 22.6432 121.796 22.3128C121.409 21.9872 120.674 21.6095 119.591 21.18C118.307 20.6467 117.395 20.0518 116.861 19.3863C116.326 18.7207 116.054 17.8805 116.054 16.8564C116.054 15.5393 116.584 14.4537 117.644 13.6088C118.703 12.7592 120.078 12.3343 121.763 12.3343C122.278 12.3343 122.86 12.391 123.505 12.5043C124.144 12.6176 124.684 12.7639 125.113 12.948V16.2191C124.655 15.917 124.116 15.6526 123.505 15.4355C122.889 15.2184 122.283 15.1098 121.677 15.1098C121.013 15.1098 120.503 15.2373 120.13 15.4921C119.763 15.7471 119.577 16.101 119.577 16.5447M127.414 20.2266C127.414 17.8098 128.106 15.8934 129.485 14.482C130.865 13.0707 132.784 12.3627 135.237 12.3627C137.547 12.3627 139.351 13.0424 140.65 14.4018C141.948 15.7612 142.597 17.5973 142.597 19.9149C142.597 22.2327 141.905 24.1725 140.526 25.5746C139.146 26.9764 137.266 27.6797 134.889 27.6797C132.512 27.6797 130.779 27.0141 129.433 25.6831C128.087 24.352 127.414 22.5346 127.414 20.2313M131.037 20.118C131.037 21.6474 131.385 22.8131 132.087 23.6156C132.788 24.4227 133.786 24.824 135.094 24.824C136.402 24.824 137.323 24.4227 137.986 23.6156C138.65 22.8084 138.979 21.6142 138.979 20.033C138.979 18.4517 138.635 17.2716 137.953 16.4693C137.266 15.6668 136.306 15.2656 135.07 15.2656C133.834 15.2656 132.807 15.6856 132.101 16.5259C131.395 17.3661 131.046 18.5603 131.046 20.118M154.153 15.5252H148.969V27.3305H145.447V15.5252H142.974V12.712H145.447V10.6776C145.447 9.14349 145.953 7.88319 146.965 6.90138C147.976 5.91959 149.27 5.42869 150.855 5.42869C151.275 5.42869 151.652 5.45229 151.976 5.49476C152.301 5.53724 152.592 5.60333 152.84 5.6883V8.66202C152.726 8.59594 152.525 8.51569 152.234 8.42128C151.948 8.32688 151.618 8.27969 151.241 8.27969C150.511 8.27969 149.952 8.50626 149.561 8.95467C149.17 9.40309 148.974 10.0734 148.974 10.9513V12.7167H154.158V9.43141L157.651 8.37881V12.7167H161.174V15.5299H157.651V22.3696C157.651 23.2711 157.818 23.9036 158.148 24.2764C158.477 24.6446 158.997 24.8334 159.709 24.8334C159.909 24.8334 160.153 24.7862 160.434 24.6918C160.716 24.5975 160.964 24.484 161.174 24.352V27.1982C160.954 27.3209 160.587 27.4342 160.071 27.5381C159.561 27.642 159.055 27.6939 158.554 27.6939C157.088 27.6939 155.986 27.3068 155.255 26.5374C154.52 25.7632 154.158 24.6022 154.158 23.0445V15.5346L154.153 15.5252Z" fill="#737373"/>
<path d="M16.3334 0.132812H0V16.2853H16.3334V0.132812Z" fill="#F25022"/>
<path d="M34.3627 0.132812H18.0293V16.2853H34.3627V0.132812Z" fill="#7FBA00"/>
<path d="M16.3334 17.9622H0V34.1147H16.3334V17.9622Z" fill="#00A4EF"/>
<path d="M34.3627 17.9622H18.0293V34.1147H34.3627V17.9622Z" fill="#FFB900"/>
<path d="M179.328 6.92876L187.094 27.3201H183.155L181.328 22.2553H173.203L171.453 27.3201H167.543L175.309 6.92876H179.338H179.328ZM177.199 10.7096L174.148 19.3003H180.33L177.294 10.7096H177.194H177.199Z" fill="#737373"/>
<path d="M198.434 5.75696H201.913V27.3141H198.434V25.3789H198.376C197.852 26.101 197.183 26.6392 196.386 26.9932C195.585 27.3471 194.649 27.5266 193.575 27.5266C191.714 27.5266 190.233 26.894 189.131 25.6338C188.029 24.3734 187.479 22.6223 187.479 20.3848C187.479 17.9681 188.091 16.0329 189.313 14.5743C190.534 13.1205 192.172 12.3936 194.224 12.3936C195.154 12.3936 195.976 12.5446 196.682 12.8467C197.394 13.1488 197.957 13.5925 198.376 14.1684H198.434V5.75225V5.75696ZM194.755 24.8833C195.81 24.8833 196.692 24.4726 197.399 23.6465C198.109 22.8205 198.463 21.7443 198.463 20.4179V18.8555C198.463 17.8407 198.124 16.9769 197.45 16.2594C196.772 15.5419 195.933 15.1879 194.926 15.1879C193.699 15.1879 192.754 15.6316 192.086 16.5237C191.418 17.4158 191.088 18.6666 191.088 20.2763C191.088 21.7254 191.418 22.8582 192.072 23.6701C192.73 24.4819 193.623 24.888 194.755 24.888V24.8833Z" fill="#737373"/>
<path d="M218.191 12.6975L212.509 27.3161H208.744L203.321 12.6975H207.131L210.768 24.1581H210.825L214.519 12.6975H218.191Z" fill="#737373"/>
<path d="M230.695 23.6345V26.4667C230.119 26.8254 229.368 27.118 228.437 27.3398C227.507 27.5617 226.515 27.675 225.46 27.675C223.206 27.675 221.455 27.0143 220.204 25.6972C218.953 24.3803 218.328 22.5442 218.328 20.1936C218.328 17.8428 218.997 16.0633 220.333 14.6001C221.67 13.1368 223.364 12.4052 225.416 12.4052C227.468 12.4052 229.049 13.0235 230.185 14.2602C231.321 15.4969 231.889 17.2056 231.889 19.3864V21.0478H221.765C221.918 22.5158 222.395 23.5449 223.198 24.1255C223.999 24.7108 225.029 24.9986 226.295 24.9986C227.13 24.9986 227.923 24.8713 228.682 24.6211C229.441 24.3709 230.109 24.0405 230.695 23.6345ZM228.466 18.5273C228.466 17.3897 228.199 16.5212 227.669 15.9264C227.139 15.327 226.385 15.0296 225.421 15.0296C224.586 15.0296 223.842 15.327 223.178 15.917C222.515 16.5117 222.075 17.3803 221.856 18.5273H228.471H228.466Z" fill="#737373"/>
<path d="M241.488 12.4609C241.765 12.4609 242.012 12.4797 242.237 12.5175C242.456 12.5553 242.642 12.6025 242.796 12.6591V16.1426C242.614 16.0105 242.347 15.883 241.998 15.7651C241.65 15.6471 241.224 15.5856 240.724 15.5856C239.87 15.5856 239.148 15.9397 238.561 16.6525C237.975 17.3651 237.679 18.4603 237.679 19.9377V27.3201H234.2V12.7016H237.679V15.0051H237.735C238.051 14.2073 238.533 13.5843 239.172 13.1359C239.816 12.6874 240.585 12.4609 241.488 12.4609Z" fill="#737373"/>
<path d="M251.582 24.8193C251.783 24.8193 252.026 24.7723 252.307 24.6777C252.589 24.5834 252.838 24.4701 253.047 24.3379V27.1842C252.828 27.307 252.461 27.4203 251.95 27.5242C251.438 27.6279 250.933 27.6798 250.432 27.6798C248.966 27.6798 247.864 27.2927 247.134 26.5188C246.399 25.7446 246.035 24.5834 246.035 23.0257V15.5159H243.606V12.6979H246.035V9.41269L249.529 8.36009V12.6979H253.052V15.5159H249.529V22.3555C249.529 23.257 249.697 23.8895 250.026 24.2624C250.356 24.6307 250.875 24.8193 251.587 24.8193H251.582Z" fill="#737373"/>
<path d="M255.016 8.47418C255.016 7.90304 255.226 7.43103 255.641 7.04397C256.057 6.66163 256.553 6.46811 257.129 6.46811C257.741 6.46811 258.253 6.66635 258.652 7.05814C259.053 7.44992 259.254 7.92193 259.254 8.47418C259.254 9.02646 259.049 9.50319 258.639 9.88082C258.228 10.2584 257.722 10.452 257.129 10.452C256.539 10.452 256.037 10.2584 255.626 9.87609C255.222 9.49376 255.016 9.02646 255.016 8.47418ZM258.853 12.6988V27.3172H255.374V12.6988H258.853Z" fill="#737373"/>
<path d="M265.015 16.5394C265.015 17.0302 265.172 17.4172 265.487 17.7004C265.801 17.9789 266.504 18.333 267.586 18.7577C268.976 19.31 269.954 19.9283 270.514 20.6128C271.077 21.302 271.353 22.1328 271.353 23.1099C271.353 24.4834 270.818 25.588 269.75 26.4235C268.68 27.2589 267.233 27.6743 265.415 27.6743C264.8 27.6743 264.122 27.5987 263.382 27.4525C262.638 27.3062 262.007 27.1173 261.492 26.8908V23.5063C262.126 23.9407 262.804 24.2899 263.534 24.5447C264.264 24.7996 264.924 24.9271 265.52 24.9271C266.308 24.9271 266.886 24.8185 267.263 24.6014C267.635 24.3844 267.821 24.0208 267.821 23.5063C267.821 23.0343 267.625 22.6332 267.238 22.3027C266.852 21.9723 266.112 21.5995 265.028 21.1698C263.745 20.6365 262.834 20.0418 262.298 19.3762C261.759 18.7107 261.492 17.8705 261.492 16.8462C261.492 15.5291 262.021 14.4436 263.081 13.5986C264.141 12.749 265.515 12.3242 267.199 12.3242C267.716 12.3242 268.298 12.3808 268.942 12.4941C269.586 12.6074 270.122 12.7537 270.556 12.9331V16.2042C270.098 15.9021 269.559 15.6426 268.942 15.4206C268.327 15.2035 267.721 15.0949 267.114 15.0949C266.45 15.0949 265.936 15.2224 265.568 15.4773C265.201 15.7322 265.015 16.0861 265.015 16.5298V16.5394Z" fill="#737373"/>
<path d="M273.483 8.47418C273.483 7.90304 273.693 7.43103 274.108 7.04397C274.523 6.65692 275.02 6.46811 275.598 6.46811C276.213 6.46811 276.719 6.66635 277.121 7.05814C277.52 7.44992 277.726 7.92193 277.726 8.47418C277.726 9.02646 277.52 9.50319 277.106 9.88082C276.69 10.2584 276.189 10.452 275.598 10.452C275.006 10.452 274.504 10.2584 274.093 9.87609C273.684 9.49376 273.483 9.02646 273.483 8.47418ZM277.32 12.6988V27.3172H273.841V12.6988H277.32Z" fill="#737373"/>
<path d="M293.851 18.3702V27.3149H290.372V19.1537C290.372 17.8179 290.142 16.8221 289.689 16.1659C289.236 15.5097 288.501 15.1841 287.498 15.1841C286.496 15.1841 285.713 15.5476 285.074 16.2792C284.435 17.0107 284.119 17.9265 284.119 19.0358V27.3102H280.64V12.6918H284.119V14.6271H284.176C284.721 13.8766 285.395 13.3149 286.191 12.942C286.988 12.5691 287.904 12.3803 288.95 12.3803C290.519 12.3803 291.733 12.8759 292.582 13.8671C293.432 14.8584 293.856 16.3594 293.856 18.3702H293.851Z" fill="#737373"/>
<path d="M307.213 12.7009H310.693V25.3417C310.693 27.9944 309.967 30.0335 308.517 31.4496C307.065 32.8657 304.984 33.5736 302.284 33.5736C301.371 33.5736 300.474 33.4887 299.586 33.3234C298.698 33.1582 297.982 32.9412 297.439 32.6768V29.3208C298.215 29.9202 299.013 30.3215 299.839 30.5291C300.665 30.7368 301.452 30.8406 302.211 30.8406C303.824 30.8406 305.06 30.4159 305.92 29.5615C306.784 28.7072 307.213 27.4704 307.213 25.8514V25.2661H307.156C306.641 25.96 305.996 26.4981 305.237 26.8851C304.473 27.2722 303.515 27.4704 302.355 27.4704C300.512 27.4704 299.037 26.8521 297.924 25.6155C296.812 24.3787 296.259 22.6794 296.259 20.5175C296.259 18.0347 296.866 16.0617 298.078 14.5937C299.29 13.1258 300.928 12.3989 302.989 12.3989C303.929 12.3989 304.746 12.5452 305.433 12.8378C306.125 13.1305 306.698 13.5789 307.161 14.1736H307.217V12.6962L307.213 12.7009ZM299.863 20.3806C299.863 21.7637 300.193 22.8447 300.847 23.6235C301.505 24.4023 302.382 24.7894 303.486 24.7894C304.588 24.7894 305.491 24.3929 306.192 23.5999C306.889 22.807 307.242 21.7637 307.242 20.4657V18.8891C307.242 17.8554 306.908 16.9821 306.235 16.2648C305.562 15.5472 304.732 15.1932 303.733 15.1932C302.497 15.1932 301.542 15.6369 300.869 16.5243C300.198 17.4117 299.863 18.6956 299.863 20.3855V20.3806Z" fill="#737373"/>
</svg>
