<svg width="312" height="35" viewBox="0 0 312 35" fill="none" xmlns="http://www.w3.org/2000/svg">
<path d="M67.6025 6.87259V27.2638H64.0227V11.2812H63.9654L57.5647 27.2638H55.1926L48.6343 11.2812H48.5913V27.2638H45.2836V6.87259H50.4147L56.3381 21.9867H56.424L62.6814 6.87259H67.6025ZM70.5952 8.42081C70.5952 7.84967 70.8052 7.37764 71.2205 6.99058C71.6357 6.60825 72.1321 6.41472 72.7097 6.41472C73.3254 6.41472 73.8314 6.61296 74.2322 7.00474C74.6332 7.39652 74.8337 7.86854 74.8337 8.42081C74.8337 8.97307 74.6285 9.4498 74.218 9.82743C73.8075 10.205 73.3016 10.3986 72.7097 10.3986C72.1179 10.3986 71.6166 10.205 71.2062 9.8227C70.8005 9.44037 70.5952 8.97307 70.5952 8.42081ZM74.4327 27.2638H70.9531V12.6454H74.4327V27.2638ZM84.9861 24.7622C85.5015 24.7622 86.0743 24.6441 86.6996 24.4082C87.3249 24.1721 87.8976 23.8606 88.4227 23.4688V26.6691C87.8689 26.9806 87.239 27.2167 86.5325 27.3819C85.8261 27.5423 85.0529 27.6225 84.2081 27.6225C82.0315 27.6225 80.2655 26.9429 78.9004 25.5834C77.54 24.224 76.8574 22.487 76.8574 20.3724C76.8574 18.0216 77.5544 16.0864 78.9433 14.5618C80.3324 13.0419 82.3036 12.2772 84.8525 12.2772C85.5064 12.2772 86.165 12.3622 86.8284 12.5274C87.4967 12.6926 88.0265 12.8861 88.418 13.1032V16.4026C87.8833 16.0155 87.3344 15.7136 86.7711 15.5011C86.208 15.2887 85.6352 15.1801 85.0529 15.1801C83.683 15.1801 82.5757 15.6238 81.7308 16.5018C80.8859 17.3845 80.466 18.5739 80.466 20.0703C80.466 21.5666 80.8717 22.6993 81.6831 23.5254C82.4946 24.3515 83.5924 24.7622 84.9813 24.7622M98.3268 12.4047C98.6037 12.4047 98.8566 12.4235 99.0762 12.4613C99.2958 12.4991 99.4866 12.5463 99.6394 12.6029V16.0864C99.4581 15.9542 99.1908 15.8269 98.8422 15.7087C98.4938 15.5908 98.0691 15.5294 97.5679 15.5294C96.7135 15.5294 95.9928 15.8835 95.4057 16.5962C94.8139 17.309 94.5226 18.404 94.5226 19.8814V27.2638H91.043V12.6454H94.5226V14.9488H94.5799C94.895 14.1511 95.377 13.5281 96.0167 13.0796C96.6611 12.6312 97.4296 12.4047 98.3315 12.4047M99.8303 20.1695C99.8303 17.7527 100.518 15.8363 101.902 14.4249C103.281 13.0136 105.2 12.3055 107.653 12.3055C109.964 12.3055 111.768 12.9852 113.066 14.3447C114.364 15.704 115.013 17.5402 115.013 19.8578C115.013 22.1755 114.321 24.1154 112.942 25.5174C111.563 26.9193 109.682 27.6225 107.305 27.6225C104.928 27.6225 103.195 26.957 101.849 25.626C100.503 24.2949 99.8303 22.4775 99.8303 20.1741M103.453 20.0609C103.453 21.5902 103.802 22.756 104.503 23.5584C105.2 24.3656 106.202 24.7669 107.51 24.7669C108.818 24.7669 109.739 24.3656 110.398 23.5584C111.061 22.7513 111.391 21.5571 111.391 19.9759C111.391 18.3946 111.047 17.2145 110.365 16.4122C109.682 15.6097 108.718 15.2085 107.482 15.2085C106.245 15.2085 105.219 15.6285 104.513 16.4688C103.806 17.309 103.458 18.5032 103.458 20.0609M120.192 16.4923C120.192 16.9879 120.35 17.3703 120.665 17.6535C120.98 17.932 121.681 18.286 122.765 18.7108C124.154 19.2631 125.132 19.8814 125.691 20.5659C126.254 21.2551 126.531 22.0857 126.531 23.0628C126.531 24.4365 125.996 25.541 124.927 26.3765C123.858 27.212 122.412 27.6272 120.593 27.6272C119.977 27.6272 119.3 27.5565 118.56 27.4054C117.815 27.2591 117.185 27.0702 116.67 26.8437V23.4594C117.3 23.8936 117.982 24.2429 118.713 24.4978C119.443 24.7527 120.102 24.8802 120.698 24.8802C121.486 24.8802 122.063 24.7716 122.436 24.5544C122.808 24.3373 122.994 23.9691 122.994 23.4594C122.994 22.9874 122.798 22.5861 122.412 22.2556C122.025 21.93 121.29 21.5524 120.207 21.1229C118.923 20.5895 118.011 19.9947 117.476 19.3291C116.942 18.6636 116.67 17.8234 116.67 16.7992C116.67 15.4822 117.2 14.3966 118.259 13.5517C119.319 12.702 120.694 12.2772 122.378 12.2772C122.894 12.2772 123.476 12.3338 124.121 12.4471C124.76 12.5604 125.3 12.7067 125.729 12.8908V16.162C125.271 15.8599 124.732 15.5955 124.121 15.3784C123.505 15.1613 122.899 15.0527 122.292 15.0527C121.629 15.0527 121.118 15.1801 120.746 15.435C120.378 15.69 120.192 16.0439 120.192 16.4876M128.03 20.1695C128.03 17.7527 128.722 15.8363 130.101 14.4249C131.481 13.0136 133.399 12.3055 135.853 12.3055C138.163 12.3055 139.967 12.9852 141.265 14.3447C142.564 15.704 143.213 17.5402 143.213 19.8578C143.213 22.1755 142.521 24.1154 141.141 25.5174C139.762 26.9193 137.881 27.6225 135.504 27.6225C133.127 27.6225 131.395 26.957 130.049 25.626C128.703 24.2949 128.03 22.4775 128.03 20.1741M131.652 20.0609C131.652 21.5902 132.001 22.756 132.702 23.5584C133.404 24.3656 134.402 24.7669 135.71 24.7669C137.017 24.7669 137.939 24.3656 138.602 23.5584C139.266 22.7513 139.595 21.5571 139.595 19.9759C139.595 18.3946 139.251 17.2145 138.569 16.4122C137.881 15.6097 136.922 15.2085 135.686 15.2085C134.449 15.2085 133.423 15.6285 132.717 16.4688C132.01 17.309 131.662 18.5032 131.662 20.0609M154.768 15.4681H149.585V27.2733H146.062V15.4681H143.59V12.6548H146.062V10.6204C146.062 9.08636 146.568 7.82606 147.58 6.84425C148.592 5.86246 149.886 5.37156 151.47 5.37156C151.89 5.37156 152.267 5.39516 152.592 5.43764C152.916 5.48011 153.208 5.5462 153.456 5.63117V8.6049C153.341 8.53881 153.141 8.45856 152.85 8.36416C152.563 8.26975 152.234 8.22256 151.857 8.22256C151.127 8.22256 150.568 8.44913 150.177 8.89755C149.785 9.34596 149.59 10.0162 149.59 10.8942V12.6595H154.773V9.37428L158.267 8.32168V12.6595H161.79V15.4728H158.267V22.3124C158.267 23.2139 158.434 23.8465 158.763 24.2193C159.093 24.5874 159.613 24.7763 160.324 24.7763C160.525 24.7763 160.768 24.729 161.05 24.6347C161.331 24.5404 161.58 24.4269 161.79 24.2949V27.1411C161.57 27.2638 161.203 27.3771 160.687 27.4809C160.176 27.5848 159.67 27.6368 159.169 27.6368C157.704 27.6368 156.601 27.2497 155.871 26.4802C155.136 25.7061 154.773 24.545 154.773 22.9874V15.4775L154.768 15.4681Z" fill="#737373"/>
<path d="M16.9491 0.0756836H0.615723V16.2282H16.9491V0.0756836Z" fill="#F25022"/>
<path d="M34.9784 0.0756836H18.645V16.2282H34.9784V0.0756836Z" fill="#7FBA00"/>
<path d="M16.9491 17.9051H0.615723V34.0576H16.9491V17.9051Z" fill="#00A4EF"/>
<path d="M34.9784 17.9051H18.645V34.0576H34.9784V17.9051Z" fill="#FFB900"/>
<path d="M179.944 6.87163L187.71 27.263H183.771L181.944 22.1982H173.819L172.068 27.263H168.159L175.924 6.87163H179.954H179.944ZM177.814 10.6525L174.764 19.2432H180.946L177.91 10.6525H177.81H177.814Z" fill="#737373"/>
<path d="M199.05 5.69983H202.529V27.257H199.05V25.3218H198.992C198.468 26.0438 197.799 26.582 197.001 26.9361C196.2 27.29 195.265 27.4694 194.191 27.4694C192.33 27.4694 190.849 26.8369 189.747 25.5766C188.645 24.3162 188.095 22.5652 188.095 20.3277C188.095 17.9109 188.707 15.9757 189.928 14.5172C191.15 13.0633 192.788 12.3364 194.84 12.3364C195.77 12.3364 196.592 12.4875 197.298 12.7896C198.01 13.0917 198.573 13.5354 198.992 14.1112H199.05V5.69512V5.69983ZM195.37 24.8261C196.425 24.8261 197.307 24.4154 198.014 23.5893C198.725 22.7634 199.079 21.6872 199.079 20.3607V18.7984C199.079 17.7836 198.739 16.9198 198.066 16.2023C197.388 15.4848 196.548 15.1308 195.542 15.1308C194.315 15.1308 193.37 15.5744 192.702 16.4665C192.034 17.3586 191.703 18.6095 191.703 20.2191C191.703 21.6682 192.034 22.8011 192.687 23.613C193.346 24.4248 194.239 24.8308 195.37 24.8308V24.8261Z" fill="#737373"/>
<path d="M218.807 12.6404L213.125 27.2589H209.36L203.937 12.6404H207.746L211.384 24.101H211.441L215.135 12.6404H218.807Z" fill="#737373"/>
<path d="M231.31 23.5774V26.4095C230.734 26.7683 229.983 27.0609 229.053 27.2827C228.123 27.5046 227.131 27.6178 226.076 27.6178C223.821 27.6178 222.07 26.9571 220.82 25.6401C219.569 24.3232 218.944 22.487 218.944 20.1364C218.944 17.7857 219.612 16.0062 220.949 14.5429C222.286 13.0797 223.98 12.348 226.032 12.348C228.084 12.348 229.665 12.9664 230.801 14.2031C231.937 15.4398 232.505 17.1484 232.505 19.3293V20.9907H222.381C222.533 22.4587 223.011 23.4877 223.813 24.0683C224.614 24.6536 225.645 24.9415 226.91 24.9415C227.745 24.9415 228.538 24.8142 229.297 24.564C230.056 24.3138 230.725 23.9834 231.31 23.5774ZM229.082 18.4702C229.082 17.3326 228.815 16.4641 228.284 15.8693C227.755 15.2699 227.001 14.9725 226.037 14.9725C225.202 14.9725 224.457 15.2698 223.794 15.8599C223.13 16.4546 222.69 17.3232 222.472 18.4702H229.087H229.082Z" fill="#737373"/>
<path d="M242.104 12.4038C242.38 12.4038 242.628 12.4226 242.853 12.4604C243.071 12.4982 243.258 12.5454 243.411 12.602V16.0855C243.23 15.9534 242.963 15.8259 242.613 15.7079C242.266 15.59 241.84 15.5285 241.34 15.5285C240.486 15.5285 239.764 15.8825 239.176 16.5953C238.591 17.308 238.295 18.4032 238.295 19.8806V27.263H234.815V12.6445H238.295V14.9479H238.351C238.667 14.1502 239.149 13.5272 239.788 13.0787C240.432 12.6303 241.201 12.4038 242.104 12.4038Z" fill="#737373"/>
<path d="M252.198 24.7622C252.399 24.7622 252.641 24.7151 252.923 24.6206C253.205 24.5263 253.454 24.413 253.663 24.2808V27.127C253.444 27.2499 253.077 27.3631 252.565 27.467C252.054 27.5707 251.549 27.6227 251.047 27.6227C249.581 27.6227 248.479 27.2356 247.75 26.4616C247.015 25.6875 246.651 24.5263 246.651 22.9686V15.4587H244.222V12.6408H246.651V9.35556L250.145 8.30296V12.6408H253.667V15.4587H250.145V22.2983C250.145 23.1998 250.313 23.8324 250.641 24.2052C250.971 24.5735 251.491 24.7622 252.203 24.7622H252.198Z" fill="#737373"/>
<path d="M255.632 8.41706C255.632 7.84591 255.842 7.3739 256.256 6.98685C256.672 6.6045 257.169 6.41098 257.745 6.41098C258.357 6.41098 258.868 6.60922 259.268 7.00101C259.669 7.39279 259.87 7.8648 259.87 8.41706C259.87 8.96933 259.664 9.44607 259.255 9.82369C258.844 10.2013 258.337 10.3948 257.745 10.3948C257.155 10.3948 256.653 10.2013 256.242 9.81896C255.837 9.43663 255.632 8.96933 255.632 8.41706ZM259.469 12.6416V27.2601H255.989V12.6416H259.469Z" fill="#737373"/>
<path d="M265.631 16.4822C265.631 16.973 265.788 17.3601 266.103 17.6433C266.417 17.9218 267.119 18.2758 268.202 18.7006C269.592 19.2529 270.569 19.8712 271.129 20.5557C271.692 21.2449 271.969 22.0757 271.969 23.0527C271.969 24.4263 271.434 25.5309 270.366 26.3663C269.296 27.2018 267.849 27.6172 266.03 27.6172C265.415 27.6172 264.737 27.5416 263.998 27.3953C263.254 27.2491 262.622 27.0602 262.108 26.8337V23.4492C262.742 23.8835 263.42 24.2327 264.15 24.4876C264.88 24.7425 265.54 24.87 266.136 24.87C266.924 24.87 267.501 24.7614 267.878 24.5442C268.251 24.3272 268.437 23.9636 268.437 23.4492C268.437 22.9772 268.241 22.576 267.854 22.2456C267.467 21.9152 266.728 21.5423 265.644 21.1127C264.36 20.5793 263.449 19.9847 262.914 19.3191C262.375 18.6535 262.108 17.8134 262.108 16.789C262.108 15.472 262.637 14.3864 263.697 13.5415C264.757 12.6919 266.131 12.2671 267.815 12.2671C268.331 12.2671 268.914 12.3237 269.558 12.437C270.202 12.5503 270.738 12.6966 271.171 12.876V16.1471C270.713 15.845 270.175 15.5854 269.558 15.3635C268.943 15.1464 268.336 15.0378 267.729 15.0378C267.066 15.0378 266.551 15.1653 266.184 15.4201C265.817 15.6751 265.631 16.029 265.631 16.4727V16.4822Z" fill="#737373"/>
<path d="M274.099 8.41706C274.099 7.84591 274.309 7.3739 274.723 6.98685C275.139 6.59979 275.636 6.41098 276.214 6.41098C276.829 6.41098 277.335 6.60922 277.736 7.00101C278.136 7.39279 278.342 7.8648 278.342 8.41706C278.342 8.96933 278.136 9.44607 277.722 9.82369C277.306 10.2013 276.804 10.3948 276.214 10.3948C275.621 10.3948 275.12 10.2013 274.709 9.81896C274.299 9.43663 274.099 8.96933 274.099 8.41706ZM277.935 12.6416V27.2601H274.456V12.6416H277.935Z" fill="#737373"/>
<path d="M294.467 18.3131V27.2578H290.988V19.0966C290.988 17.7608 290.758 16.7649 290.305 16.1088C289.852 15.4526 289.117 15.127 288.114 15.127C287.112 15.127 286.329 15.4904 285.69 16.222C285.051 16.9536 284.735 17.8694 284.735 18.9786V27.2531H281.256V12.6347H284.735V14.57H284.792C285.337 13.8195 286.01 13.2578 286.806 12.8849C287.604 12.512 288.52 12.3231 289.565 12.3231C291.135 12.3231 292.349 12.8188 293.198 13.81C294.048 14.8013 294.472 16.3023 294.472 18.3131H294.467Z" fill="#737373"/>
<path d="M307.828 12.6438H311.309V25.2846C311.309 27.9373 310.582 29.9764 309.133 31.3924C307.681 32.8085 305.6 33.5165 302.899 33.5165C301.987 33.5165 301.09 33.4315 300.202 33.2663C299.313 33.1011 298.598 32.8841 298.054 32.6197V29.2637C298.831 29.8631 299.629 30.2644 300.454 30.472C301.281 30.6796 302.068 30.7835 302.826 30.7835C304.44 30.7835 305.676 30.3587 306.535 29.5043C307.4 28.6501 307.828 27.4133 307.828 25.7943V25.209H307.772C307.257 25.9029 306.611 26.4409 305.853 26.828C305.089 27.2151 304.131 27.4133 302.97 27.4133C301.127 27.4133 299.653 26.795 298.54 25.5584C297.428 24.3216 296.875 22.6223 296.875 20.4604C296.875 17.9776 297.482 16.0045 298.694 14.5366C299.906 13.0686 301.543 12.3417 303.605 12.3417C304.545 12.3417 305.362 12.488 306.048 12.7807C306.741 13.0734 307.314 13.5218 307.777 14.1165H307.833V12.6391L307.828 12.6438ZM300.478 20.3235C300.478 21.7066 300.809 22.7875 301.462 23.5664C302.121 24.3452 302.998 24.7323 304.102 24.7323C305.204 24.7323 306.107 24.3358 306.807 23.5427C307.505 22.7498 307.857 21.7066 307.857 20.4086V18.832C307.857 17.7983 307.524 16.925 306.851 16.2076C306.178 15.4901 305.348 15.1361 304.349 15.1361C303.113 15.1361 302.158 15.5798 301.485 16.4672C300.813 17.3546 300.478 18.6385 300.478 20.3284V20.3235Z" fill="#737373"/>
</svg>
