<svg width="40" height="40" viewBox="0 0 40 40" fill="none" xmlns="http://www.w3.org/2000/svg">
<path d="M6.2438 1.83203C6.2438 1.27975 5.79608 0.832031 5.2438 0.832031C4.69151 0.832031 4.2438 1.27975 4.2438 1.83203H6.2438ZM4.2438 9.31962C4.2438 9.87191 4.69151 10.3196 5.2438 10.3196C5.79608 10.3196 6.2438 9.87191 6.2438 9.31962L4.2438 9.31962ZM8.98759 6.57583C9.53988 6.57583 9.98759 6.12811 9.98759 5.57583C9.98759 5.02354 9.53988 4.57583 8.98759 4.57583V6.57583ZM1.5 4.57583C0.947715 4.57583 0.5 5.02354 0.5 5.57583C0.5 6.12811 0.947715 6.57583 1.5 6.57583L1.5 4.57583ZM6.2438 16.5882C6.2438 16.036 5.79608 15.5882 5.2438 15.5882C4.69151 15.5882 4.2438 16.036 4.2438 16.5882H6.2438ZM4.2438 24.0758C4.2438 24.6281 4.69151 25.0758 5.2438 25.0758C5.79608 25.0758 6.2438 24.6281 6.2438 24.0758H4.2438ZM8.98759 21.332C9.53988 21.332 9.98759 20.8843 9.98759 20.332C9.98759 19.7797 9.53988 19.332 8.98759 19.332V21.332ZM1.5 19.332C0.947715 19.332 0.5 19.7797 0.5 20.332C0.5 20.8843 0.947715 21.332 1.5 21.332V19.332ZM21 1.83203C21 1.27975 20.5523 0.832031 20 0.832031C19.4477 0.832031 19 1.27975 19 1.83203H21ZM19 9.31962C19 9.87191 19.4477 10.3196 20 10.3196C20.5523 10.3196 21 9.87191 21 9.31962H19ZM23.7438 6.57583C24.2961 6.57583 24.7438 6.12811 24.7438 5.57583C24.7438 5.02354 24.2961 4.57583 23.7438 4.57583V6.57583ZM16.2562 4.57583C15.7039 4.57583 15.2562 5.02354 15.2562 5.57583C15.2562 6.12811 15.7039 6.57583 16.2562 6.57583V4.57583ZM35.7562 31.3444C35.7562 30.7922 35.3085 30.3444 34.7562 30.3444C34.2039 30.3444 33.7562 30.7922 33.7562 31.3444H35.7562ZM33.7562 38.832C33.7562 39.3843 34.2039 39.832 34.7562 39.832C35.3085 39.832 35.7562 39.3843 35.7562 38.832H33.7562ZM38.5 36.0882C39.0523 36.0882 39.5 35.6405 39.5 35.0882C39.5 34.5359 39.0523 34.0882 38.5 34.0882V36.0882ZM31.0124 34.0882C30.4601 34.0882 30.0124 34.5359 30.0124 35.0882C30.0124 35.6405 30.4601 36.0882 31.0124 36.0882V34.0882ZM19.9998 35.0879V36.0879C20.5521 36.0879 20.9998 35.6401 20.9998 35.0879H19.9998ZM19.9998 20.3316V19.3316C19.4475 19.3316 18.9998 19.7794 18.9998 20.3316H19.9998ZM34.756 20.3316V21.3316C35.3083 21.3316 35.756 20.8839 35.756 20.3316H34.756ZM4.2438 1.83203V5.57583H6.2438V1.83203H4.2438ZM4.2438 5.57583L4.2438 9.31962L6.2438 9.31962V5.57583L4.2438 5.57583ZM8.98759 4.57583H5.2438V6.57583H8.98759V4.57583ZM5.2438 4.57583L1.5 4.57583L1.5 6.57583L5.2438 6.57583L5.2438 4.57583ZM4.2438 16.5882V20.332H6.2438V16.5882H4.2438ZM4.2438 20.332L4.2438 24.0758H6.2438V20.332H4.2438ZM8.98759 19.332H5.2438V21.332H8.98759V19.332ZM5.2438 19.332H1.5V21.332H5.2438V19.332ZM19 1.83203V5.57583H21V1.83203H19ZM19 5.57583V9.31962H21V5.57583H19ZM23.7438 4.57583H20V6.57583H23.7438V4.57583ZM20 4.57583L16.2562 4.57583V6.57583L20 6.57583V4.57583ZM33.7562 31.3444V35.0882H35.7562V31.3444H33.7562ZM33.7562 35.0882V38.832H35.7562V35.0882H33.7562ZM38.5 34.0882H34.7562V36.0882H38.5V34.0882ZM34.7562 34.0882H31.0124V36.0882H34.7562V34.0882ZM9.12261 36.0879H19.9998V34.0879H9.12261V36.0879ZM20.9998 35.0879V20.3316H18.9998V35.0879H20.9998ZM19.9998 21.3316H34.756V19.3316H19.9998V21.3316ZM35.756 20.3316V9.16022H33.756V20.3316H35.756ZM37.4997 5.57573C37.4997 7.09103 36.2713 8.31943 34.756 8.31943V10.3194C37.3759 10.3194 39.4997 8.1956 39.4997 5.57573H37.4997ZM34.756 8.31943C33.2407 8.31943 32.0123 7.09103 32.0123 5.57573H30.0123C30.0123 8.1956 32.1361 10.3194 34.756 10.3194V8.31943ZM32.0123 5.57573C32.0123 4.06043 33.2407 2.83203 34.756 2.83203V0.832031C32.1361 0.832031 30.0123 2.95586 30.0123 5.57573H32.0123ZM34.756 2.83203C36.2713 2.83203 37.4997 4.06043 37.4997 5.57573H39.4997C39.4997 2.95586 37.3759 0.832031 34.756 0.832031V2.83203ZM7.9874 35.0883C7.9874 36.6036 6.759 37.832 5.2437 37.832V39.832C7.86357 39.832 9.9874 37.7082 9.9874 35.0883H7.9874ZM5.2437 37.832C3.7284 37.832 2.5 36.6036 2.5 35.0883H0.5C0.5 37.7082 2.62383 39.832 5.2437 39.832V37.832ZM2.5 35.0883C2.5 33.573 3.7284 32.3446 5.2437 32.3446V30.3446C2.62383 30.3446 0.5 32.4685 0.5 35.0883H2.5ZM5.2437 32.3446C6.759 32.3446 7.9874 33.573 7.9874 35.0883H9.9874C9.9874 32.4685 7.86357 30.3446 5.2437 30.3446V32.3446Z" fill="#E43D30"/>
</svg>
