<svg width="40" height="40" viewBox="0 0 40 40" fill="none" xmlns="http://www.w3.org/2000/svg">
<path d="M22.5516 22.0409H11.4754C9.33986 22.0409 7.60866 23.768 7.60866 25.8986V33.4551M33.7154 20.332V4.38376C33.7154 2.97448 32.573 1.83203 31.1637 1.83203H4.37057C2.96129 1.83203 1.81885 2.97448 1.81885 4.38375V31.1769C1.81885 32.5861 2.96129 33.7286 4.37057 33.7286H19.362M33.3987 31.081L29.5731 34.81L25.7475 31.081C25.4952 30.8394 25.2964 30.5489 25.1637 30.2279C25.0311 29.907 24.9674 29.5624 24.9766 29.216C24.9859 28.8696 25.0679 28.5289 25.2176 28.2152C25.3673 27.9016 25.5813 27.6218 25.8462 27.3935C26.1111 27.1653 26.4212 26.9935 26.7568 26.889C27.0925 26.7844 27.4466 26.7495 27.7967 26.7862C28.1468 26.823 28.4854 26.9307 28.7911 27.1025C29.0968 27.2744 29.3631 27.5067 29.5731 27.7848C29.784 27.5087 30.0506 27.2784 30.3561 27.1084C30.6616 26.9384 30.9995 26.8322 31.3487 26.7966C31.6978 26.761 32.0506 26.7967 32.3851 26.9015C32.7195 27.0062 33.0284 27.1778 33.2924 27.4055C33.5564 27.6331 33.7697 27.912 33.9192 28.2245C34.0686 28.5371 34.1509 28.8766 34.1609 29.2219C34.1709 29.5672 34.1084 29.9108 33.9772 30.2312C33.846 30.5517 33.6491 30.842 33.3987 31.084M17.8155 19.2344C14.9415 19.2344 12.6117 16.9092 12.6117 14.0418C12.6117 11.1745 14.9415 8.84927 17.8155 8.84927C20.6895 8.84927 23.0193 11.1745 23.0193 14.0418C23.0193 16.9092 20.6895 19.2344 17.8155 19.2344ZM29.5688 38.832C24.8125 38.832 20.9568 34.9755 20.9568 30.22C20.9568 25.4644 24.8125 21.6079 29.5688 21.6079C34.3252 21.6079 38.1809 25.4644 38.1809 30.22C38.1809 34.9755 34.3252 38.832 29.5688 38.832Z" stroke="#E43D30" stroke-width="2" stroke-linecap="round" stroke-linejoin="round"/>
</svg>
