<svg width="40" height="38" viewBox="0 0 40 38" fill="none" xmlns="http://www.w3.org/2000/svg">
<g clip-path="url(#clip0_73_269)">
<path d="M23.6262 35.351V31.1241C24.4612 30.8751 25.2624 30.5385 26.0295 30.128L28.331 32.4433C28.6841 32.8001 29.2612 32.8001 29.6142 32.4433L33.4636 28.5799C33.8167 28.2232 33.8167 27.6443 33.4636 27.2943L31.1621 24.9789C31.5763 24.2116 31.9089 23.4039 32.1533 22.5626H35.4121C35.9145 22.5626 36.3219 22.152 36.3219 21.6539V16.1885C36.3219 15.6837 35.9145 15.2799 35.4121 15.2799H32.1533C31.9089 14.4453 31.5763 13.6308 31.1621 12.8635L33.4636 10.5482C33.8167 10.1914 33.8167 9.61258 33.4636 9.26258L29.6142 5.39911C29.2612 5.04238 28.6841 5.04238 28.331 5.39911L26.0295 7.7145C25.2624 7.29719 24.4612 6.96738 23.6262 6.71834V3.41354C23.6262 2.90873 23.2188 2.50488 22.7164 2.50488H17.2783C16.7759 2.50488 16.3686 2.91546 16.3686 3.41354V6.69142C15.5335 6.94046 14.7324 7.277 13.9652 7.68758L11.6637 5.37219C11.3107 5.01546 10.7336 5.01546 10.3806 5.37219L6.53112 9.23565C6.17809 9.59238 6.17809 10.1712 6.53112 10.5212L8.83264 12.8366C8.41851 13.6039 8.08584 14.4116 7.84143 15.253H4.58943C4.08704 15.253 3.67969 15.6635 3.67969 16.1616V21.6337C3.69327 22.1318 4.09382 22.5289 4.58943 22.5424H7.84822C8.09263 23.377 8.42529 24.1914 8.83943 24.9587L6.53791 27.2741C6.18488 27.6308 6.18488 28.2097 6.53791 28.5597L10.3874 32.4232C10.7404 32.7799 11.3175 32.7799 11.6705 32.4232L13.972 30.1078C14.7392 30.5251 15.5403 30.8549 16.3754 31.1039V35.3308C16.3754 35.7751 16.7352 36.1385 17.1833 36.1385H22.8251C23.2663 36.1385 23.6262 35.7751 23.6262 35.3308V35.351Z" stroke="#E43D30" stroke-width="2" stroke-linecap="round" stroke-linejoin="round"/>
<path d="M25.8381 24.777C22.6133 28.0145 17.3857 28.0145 14.1608 24.777C10.936 21.5395 10.936 16.2828 14.1608 13.0453C17.3857 9.80781 22.6133 9.80781 25.8381 13.0453C29.063 16.2828 29.063 21.5395 25.8381 24.777Z" stroke="#E43D30" stroke-width="2" stroke-linecap="round" stroke-linejoin="round"/>
</g>
<defs>
<clipPath id="clip0_73_269">
<rect width="36" height="37" fill="white" transform="translate(2 0.832031)"/>
</clipPath>
</defs>
</svg>
