<svg width="243" height="33" viewBox="0 0 243 33" fill="none" xmlns="http://www.w3.org/2000/svg">
<path d="M167.506 12.7989C167.506 8.81956 165.018 5.95941 160.417 5.95941H145.246V26.6023H150.22V19.5141H156.065L161.785 26.6023H167.381V26.1048L161.785 19.3897C165.392 18.6436 167.506 16.0321 167.506 12.7989ZM159.796 15.286H150.22V10.1875H159.796C161.537 10.1875 162.656 11.1823 162.656 12.7989C162.78 14.4155 161.661 15.286 159.796 15.286Z" fill="black"/>
<path d="M242.616 5.83505H238.015V13.6694H225.455V5.83505H220.481V26.4779H225.455V18.3949H238.015V26.4779H242.616V5.83505Z" fill="black"/>
<path d="M131.94 5.83505L126.469 23.1203H126.22L120.624 5.83505H111.795V26.4779H116.52V9.56569H116.769L122.241 26.4779H129.826L135.422 9.56569H135.671V26.4779H140.521V5.83505H131.94Z" fill="black"/>
<path d="M77.8459 14.2912C76.105 14.1668 72.8718 13.7937 71.0064 13.6694C69.2655 13.545 68.2706 12.9233 68.2706 11.8041C68.2706 10.6849 69.3898 9.8144 73.6179 9.8144C77.3485 9.8144 80.8305 10.6849 83.9393 12.0528V7.45166C80.9548 5.95941 77.5972 5.33764 73.3692 5.33764C67.5245 5.33764 63.4208 7.82473 63.4208 11.9284C63.4208 15.4104 65.7836 17.4 70.6334 17.8974C72.3743 18.1462 75.3589 18.3949 77.3485 18.5192C79.5869 18.6436 80.2087 19.3897 80.2087 20.3845C80.2087 21.7524 78.5921 22.6229 74.7371 22.6229C70.7577 22.6229 66.654 21.255 63.6695 19.5141V24.2395C66.0323 25.8561 70.0116 27.0997 74.6127 27.0997C80.9548 27.0997 85.0585 24.6126 85.0585 20.2602C85.0585 16.9026 82.9445 14.7886 77.8459 14.2912Z" fill="black"/>
<path d="M88.4161 5.83505V26.4779H107.567V22.2499H93.1416V18.0218H107.318V13.7937H93.1416V10.0631H107.567V5.83505H88.4161Z" fill="black"/>
<path d="M210.159 14.2912C208.418 14.1668 205.185 13.7937 203.32 13.6694C201.579 13.545 200.584 12.9233 200.584 11.8041C200.584 10.6849 201.703 9.8144 205.931 9.8144C209.662 9.8144 213.144 10.5605 216.253 12.0528V7.45166C213.268 5.95941 209.91 5.33764 205.682 5.33764C199.838 5.33764 195.734 7.82473 195.734 11.9284C195.734 15.4104 198.097 17.4 202.947 17.8974C204.688 18.1462 207.672 18.3949 209.662 18.5192C211.9 18.6436 212.522 19.3897 212.522 20.3845C212.522 21.7524 210.905 22.6229 207.05 22.6229C203.071 22.6229 198.967 21.255 195.983 19.5141V24.2395C198.346 25.8561 202.325 27.0997 206.926 27.0997C213.268 27.0997 217.372 24.6126 217.372 20.2602C217.372 16.9026 215.133 14.7886 210.159 14.2912Z" fill="black"/>
<path d="M187.402 5.83505V16.4052C187.402 20.3845 184.915 22.6229 181.309 22.6229C177.578 22.6229 175.216 20.5089 175.216 16.4052V5.83505H170.241V15.9078C170.241 23.369 174.967 27.0997 181.309 27.0997C187.527 27.0997 192.252 23.4934 192.252 16.1565V5.83505H187.402Z" fill="black"/>
<path d="M46.5086 16.0321C46.5086 17.027 46.0112 17.1513 44.7676 17.1513C43.3997 17.1513 43.151 16.9026 43.0267 15.9078C42.778 13.2963 41.037 11.0579 38.0525 10.9336C37.182 10.8092 36.9333 10.5605 36.9333 9.31698C36.9333 8.19779 37.0577 7.70037 37.9281 7.70037C42.9023 7.82473 46.5086 11.9284 46.5086 16.0321ZM53.8455 16.0321C53.8455 8.32215 48.6226 0.114746 36.4359 0.114746H12.4355C11.938 0.114746 11.565 0.363455 11.565 0.860873C11.565 1.10958 11.6893 1.35829 11.938 1.48265C12.8085 2.22877 14.0521 2.9749 15.793 3.84538C17.4096 4.71586 18.7775 5.21328 20.0211 5.7107C20.5185 5.95941 20.7672 6.20812 20.7672 6.45683C20.7672 6.82989 20.5185 7.20295 19.8967 7.20295H0.870482C0.248709 7.0786 0 7.45166 0 7.82473C0 8.19779 0.124355 8.4465 0.373064 8.69521C1.86532 10.3118 4.35241 12.3015 7.95869 14.5399C11.0676 16.5295 15.0469 18.6436 18.1558 20.1358C18.6532 20.3845 18.9019 20.6332 18.9019 21.0063C18.9019 21.3794 18.6532 21.6281 18.0314 21.6281H9.20224C8.70482 21.6281 8.45611 21.8768 8.45611 22.2499C8.45611 22.4986 8.58046 22.7473 8.82917 22.996C10.8188 24.8613 14.0521 26.7266 18.2801 28.5919C24.0004 30.9547 29.7207 32.4469 36.1872 32.4469C48.4983 32.4469 53.8455 23.2447 53.8455 16.0321ZM37.8038 27.0997C31.8348 27.0997 26.7362 22.2499 26.7362 16.0321C26.7362 10.0631 31.7104 5.21328 37.8038 5.21328C44.0215 5.21328 48.8713 10.0631 48.8713 16.0321C48.8713 22.1255 44.0215 27.0997 37.8038 27.0997Z" fill="#FF642D"/>
</svg>
