<svg width="240" height="52" viewBox="0 0 240 52" fill="none" xmlns="http://www.w3.org/2000/svg">
<path fill-rule="evenodd" clip-rule="evenodd" d="M83.6168 32.7357C83.6168 34.9537 82.8294 36.6837 81.2399 37.9702C79.6505 39.2419 77.4632 39.8777 74.6342 39.8777C72.0386 39.8777 69.7347 39.3898 67.7369 38.399V33.5785C69.3847 34.3179 70.77 34.8354 71.9074 35.1311C73.0448 35.4269 74.0801 35.5895 75.0279 35.5895C76.1654 35.5895 77.0257 35.3677 77.6381 34.9389C78.2506 34.5101 78.5422 33.8595 78.5422 33.0018C78.5422 32.5286 78.411 32.0998 78.1485 31.7154C77.886 31.3457 77.4923 30.976 76.9674 30.6359C76.4424 30.2958 75.3925 29.7339 73.8176 28.9798C72.3303 28.27 71.2074 27.6046 70.4638 26.954C69.7201 26.3033 69.1222 25.5492 68.6848 24.6916C68.2473 23.8339 68.014 22.8284 68.014 21.6751C68.014 19.5014 68.7431 17.8009 70.2013 16.5588C71.6595 15.3167 73.6864 14.6956 76.2528 14.6956C77.5215 14.6956 78.7318 14.8435 79.8692 15.154C81.0212 15.4498 82.2169 15.8786 83.471 16.4257L81.8086 20.4625C80.5108 19.9302 79.4317 19.5457 78.586 19.3387C77.7402 19.1317 76.8944 19.0134 76.0779 19.0134C75.1009 19.0134 74.3572 19.2352 73.8322 19.6936C73.3073 20.152 73.0448 20.7435 73.0448 21.4828C73.0448 21.9412 73.1469 22.3405 73.3656 22.6806C73.5697 23.0207 73.9197 23.346 74.3718 23.6713C74.8384 23.9966 75.9174 24.5585 77.6381 25.3866C79.9129 26.4808 81.4732 27.575 82.319 28.684C83.1939 29.7931 83.6168 31.1387 83.6168 32.7357ZM88.0206 39.5376V15.0505H102.049V19.3092H93.1972V24.6916H101.436V28.9502H93.1972V35.2642H102.063V39.5376H88.0206Z" fill="#0080F7"/>
<path d="M115.391 26.392H118.176C120.043 26.392 121.399 26.0519 122.23 25.3569C123.061 24.6619 123.484 23.6416 123.484 22.2812C123.484 20.8913 123.032 19.9005 122.128 19.2943C121.224 18.688 119.868 18.3923 118.045 18.3923H115.391V26.392ZM115.391 29.7043V39.4932H111.381V14.9913H118.308C121.472 14.9913 123.805 15.5828 125.322 16.7657C126.838 17.9487 127.596 19.7379 127.596 22.1334C127.596 25.1795 126.007 27.3531 122.843 28.6544L129.769 39.4932H125.205L119.343 29.7043H115.391ZM144.22 39.4932L143.432 36.9055H143.301C142.412 38.0293 141.508 38.7982 140.604 39.2122C139.699 39.6263 138.533 39.8185 137.118 39.8185C135.296 39.8185 133.881 39.3305 132.86 38.3398C131.84 37.3639 131.329 35.9591 131.329 34.1699C131.329 32.2624 132.044 30.8133 133.458 29.8521C134.873 28.8762 137.031 28.3439 139.947 28.2551L143.141 28.1516V27.1609C143.141 25.978 142.864 25.0907 142.31 24.4993C141.756 23.9078 140.895 23.6268 139.743 23.6268C138.795 23.6268 137.877 23.7599 137.016 24.0409C136.141 24.3218 135.31 24.6471 134.508 25.0316L133.24 22.2221C134.246 21.6898 135.339 21.2905 136.535 21.0243C137.731 20.7434 138.854 20.6103 139.918 20.6103C142.28 20.6103 144.059 21.1279 145.255 22.1481C146.451 23.1684 147.063 24.795 147.063 26.9835V39.4636H144.22V39.4932ZM138.358 36.8167C139.787 36.8167 140.939 36.4175 141.799 35.619C142.66 34.8205 143.097 33.6967 143.097 32.2624V30.6506L140.72 30.7541C138.868 30.8281 137.512 31.1238 136.681 31.6857C135.835 32.2328 135.412 33.0905 135.412 34.229C135.412 35.0571 135.66 35.6929 136.156 36.1513C136.637 36.5802 137.381 36.8167 138.358 36.8167ZM168.572 39.4932H164.62V28.0925C164.62 26.6582 164.329 25.5935 163.76 24.8985C163.191 24.1887 162.272 23.8486 161.018 23.8486C159.356 23.8486 158.131 24.3366 157.373 25.3273C156.6 26.3033 156.221 27.9594 156.221 30.2662V39.4932H152.284V20.9652H155.361L155.915 23.3902H156.119C156.673 22.503 157.475 21.8228 158.496 21.3497C159.516 20.8765 160.668 20.6251 161.908 20.6251C166.355 20.6251 168.572 22.8875 168.572 27.4123V39.4932ZM177.584 29.7043L179.815 26.9243L185.414 20.9652H189.949L182.498 28.9206L190.416 39.4932H185.793L179.844 31.3604L177.686 33.1348V39.4784H173.778V13.4239H177.686V26.1406L177.482 29.7043H177.584ZM197.08 39.4932H193.143V20.9652H197.08V39.4932ZM192.909 16.056C192.909 15.3462 193.099 14.8139 193.493 14.4294C193.872 14.0449 194.426 13.8527 195.14 13.8527C195.826 13.8527 196.365 14.0449 196.759 14.4294C197.138 14.8139 197.342 15.3462 197.342 16.056C197.342 16.7214 197.153 17.2537 196.759 17.6381C196.38 18.0226 195.84 18.2148 195.14 18.2148C194.426 18.2148 193.872 18.0226 193.493 17.6381C193.099 17.2537 192.909 16.7214 192.909 16.056ZM218.749 39.4932H214.797V28.0925C214.797 26.6582 214.505 25.5935 213.937 24.8985C213.368 24.1887 212.449 23.8486 211.195 23.8486C209.533 23.8486 208.308 24.3366 207.55 25.3273C206.791 26.3181 206.398 27.9594 206.398 30.2662V39.4932H202.461V20.9652H205.537L206.092 23.3902H206.296C206.85 22.503 207.652 21.8228 208.673 21.3497C209.693 20.8765 210.845 20.6251 212.085 20.6251C216.532 20.6251 218.749 22.8875 218.749 27.4123V39.4932ZM239.616 20.9652V23.1241L236.451 23.7156C236.743 24.1 236.976 24.588 237.166 25.1499C237.356 25.7266 237.458 26.3181 237.458 26.9539C237.458 28.8614 236.801 30.3697 235.474 31.4639C234.162 32.5581 232.339 33.1052 230.035 33.1052C229.437 33.1052 228.912 33.0609 228.431 32.9722C227.586 33.5045 227.163 34.1107 227.163 34.8205C227.163 35.2493 227.367 35.5599 227.761 35.7817C228.154 35.9887 228.883 36.107 229.948 36.107H233.185C235.227 36.107 236.787 36.5358 237.837 37.4082C238.901 38.2807 239.426 39.5375 239.426 41.1789C239.426 43.2786 238.566 44.9052 236.831 46.0438C235.095 47.1824 232.602 47.7591 229.321 47.7591C226.798 47.7591 224.873 47.3154 223.546 46.4134C222.219 45.5114 221.549 44.2398 221.549 42.5984C221.549 41.4598 221.913 40.4987 222.628 39.7298C223.342 38.9461 224.363 38.4137 225.646 38.118C225.121 37.8962 224.684 37.5413 224.348 37.0386C224.013 36.5358 223.838 36.0183 223.838 35.4711C223.838 34.7762 224.028 34.1995 224.421 33.7115C224.815 33.2235 225.398 32.7504 226.156 32.292C225.194 31.8779 224.421 31.2125 223.823 30.2662C223.225 29.3346 222.934 28.2403 222.934 26.9835C222.934 24.9724 223.561 23.4198 224.83 22.3108C226.098 21.2018 227.906 20.6547 230.254 20.6547C230.779 20.6547 231.333 20.6842 231.902 20.7582C232.471 20.8321 232.908 20.9061 233.2 20.98H239.616V20.9652ZM225.048 42.3766C225.048 43.2195 225.427 43.8849 226.2 44.3433C226.958 44.8017 228.038 45.0235 229.423 45.0235C231.566 45.0235 233.17 44.713 234.22 44.1067C235.27 43.4856 235.795 42.6724 235.795 41.6669C235.795 40.8684 235.504 40.2917 234.935 39.9516C234.366 39.6115 233.287 39.434 231.727 39.434H228.738C227.615 39.434 226.711 39.7002 226.054 40.2325C225.384 40.7501 225.048 41.4746 225.048 42.3766ZM226.74 26.9539C226.74 28.1221 227.031 29.0093 227.629 29.6303C228.227 30.2514 229.087 30.5619 230.196 30.5619C232.471 30.5619 233.608 29.3494 233.608 26.9095C233.608 25.697 233.331 24.7802 232.762 24.1148C232.193 23.4642 231.348 23.1389 230.196 23.1389C229.058 23.1389 228.198 23.4642 227.6 24.1148C227.031 24.7802 226.74 25.7266 226.74 26.9539Z" fill="#212732"/>
<path d="M0.615723 4.40391C0.615723 1.97886 2.55514 0.012207 4.96118 0.012207H53.359C55.7505 0.012207 57.7045 1.99364 57.7045 4.40391V46.6205C57.7045 49.0455 55.7651 51.0122 53.359 51.0122H4.96118C2.56972 51.0122 0.615723 49.0308 0.615723 46.6205V4.40391ZM4.55288 6.19313V44.8313C4.55288 46.0142 5.54446 47.0197 6.75477 47.0197H51.5654C52.7903 47.0197 53.7673 46.0438 53.7673 44.8313V6.19313C53.7673 5.01018 52.7758 4.00467 51.5654 4.00467H6.75477C5.52988 3.98988 4.55288 4.9806 4.55288 6.19313ZM6.52146 26.1702C6.52146 24.9577 7.42554 23.967 8.54836 23.967H18.26C19.3828 23.967 20.2869 24.9429 20.2869 26.1702V45.0383H6.50687V26.1702H6.52146ZM22.2701 18.1853C22.2701 16.958 23.1742 15.9673 24.297 15.9673H34.0086C35.1315 15.9673 36.0355 16.9432 36.0355 18.1853V45.0235H22.2555V18.1853H22.2701ZM38.0187 10.2004C38.0187 8.98785 38.9228 7.99713 40.0456 7.99713H49.7573C50.8801 7.99713 51.7842 8.98785 51.7842 10.2004V45.0383H38.0041V10.2004H38.0187Z" fill="#0080F7"/>
</svg>
