<svg width="54" height="56" viewBox="0 0 54 56" fill="none" xmlns="http://www.w3.org/2000/svg">
<path d="M38.4313 40.7317C37.9807 41.1378 37.3286 41.1672 36.8205 40.896C34.558 38.9998 34.1551 38.1192 32.9089 36.3099C29.1696 40.1607 26.5235 41.312 21.6723 41.312C15.9389 41.312 11.4711 37.7417 11.4711 30.5914C11.4711 25.0087 14.4722 21.2061 18.7383 19.3486C22.4392 17.7035 27.6068 17.4133 31.5571 16.9587V16.0684C31.5571 14.4332 31.6815 12.4981 30.7324 11.0855C29.8982 9.81799 28.3068 9.29547 26.9068 9.29547C24.3089 9.29547 21.9886 10.6403 21.4229 13.4269C21.3077 14.0463 20.8573 14.6559 20.2437 14.6849L13.6282 13.969C13.0723 13.8429 12.4587 13.3883 12.6121 12.5271C14.1365 4.43841 21.3748 2 27.856 2C31.1732 2 35.5066 2.89024 38.1242 5.42534C41.4417 8.55044 41.1251 12.7206 41.1251 17.2585V27.9792C41.1251 31.2011 42.4483 32.6137 43.6944 34.3554C44.1355 34.9745 44.2316 35.7199 43.6754 36.184C42.2852 37.3545 39.8114 39.5318 38.4503 40.7509L38.4313 40.7317ZM45.857 44.8061C24.5897 55.0205 11.3911 46.4746 2.94219 41.2837C2.41938 40.9566 1.53078 41.3601 2.30174 42.254C5.1165 45.6982 14.341 54 26.3818 54C38.4307 54 45.5986 47.3651 46.4954 46.2078C47.386 45.0602 46.7572 44.4271 45.857 44.8061ZM51.8297 41.4774C51.2585 40.7267 48.3571 40.5869 46.531 40.8133C44.702 41.033 41.9567 42.1612 42.1953 42.8385C42.3179 43.0922 42.5678 42.9783 43.8243 42.8645C45.0841 42.7376 48.6134 42.288 49.3489 43.2581C50.0878 44.2352 48.2231 48.8889 47.8828 49.6393C47.5538 50.3899 48.0085 50.5833 48.6263 50.0836C49.2358 49.5839 50.3393 48.2899 51.0797 46.4584C51.8153 44.6174 52.2638 42.0488 51.8297 41.4774ZM31.5571 23.9638C31.5571 26.6438 31.6241 28.8788 30.2818 31.2591C29.1985 33.1943 27.4821 34.3843 25.5648 34.3843C22.9473 34.3843 21.4229 32.3716 21.4229 29.4014C21.4229 23.5379 26.6289 22.4737 31.5571 22.4737V23.9638Z" stroke="white" stroke-width="2.81081" stroke-miterlimit="10"/>
</svg>
