<svg width="58" height="52" viewBox="0 0 58 52" fill="none" xmlns="http://www.w3.org/2000/svg">
<path d="M53.9072 35.9262L36.7472 6.92385C35.1345 4.20097 32.3202 2.62566 29.3583 2.46917C29.2635 2.46917 29.1686 2.46917 29.0737 2.45874C28.8945 2.45874 28.7259 2.45874 28.5572 2.45874C28.4624 2.45874 28.3675 2.45874 28.2726 2.46917C26.8918 2.55263 25.511 2.94907 24.2356 3.68977C19.8824 6.21444 18.4172 11.7541 20.968 16.0731L28.8102 29.3328L38.128 45.0755C40.6789 49.3841 46.2759 50.8342 50.6397 48.3095C54.9929 45.7849 56.458 40.2452 53.9072 35.9262Z" stroke="white" stroke-width="2.81081" stroke-miterlimit="10"/>
<path d="M28.8109 29.3331L19.493 45.0757C17.796 47.9551 14.7393 49.5512 11.5982 49.5512C10.0276 49.5512 8.43601 49.1548 6.99196 48.3098C2.63872 45.7851 1.17358 40.2454 3.72439 35.9264L20.8844 6.92407" stroke="white" stroke-width="2.81081" stroke-miterlimit="10"/>
<path d="M11.6087 49.5512C16.6616 49.5512 20.7579 45.497 20.7579 40.4958C20.7579 35.4947 16.6616 31.4404 11.6087 31.4404C6.5557 31.4404 2.45947 35.4947 2.45947 40.4958C2.45947 45.497 6.5557 49.5512 11.6087 49.5512Z" stroke="white" stroke-width="2.81081" stroke-miterlimit="10"/>
</svg>
