<svg width="168" height="62" viewBox="0 0 168 62" fill="none" xmlns="http://www.w3.org/2000/svg">
<g clip-path="url(#clip0_73_590)">
<path d="M82.8936 22.0503C82.8936 20.0218 81.518 19.0534 78.8563 19.0534C76.1945 19.0534 74.7723 20.0218 74.7723 22.0503V22.6946C74.7723 24.1706 75.8273 24.6782 76.4704 24.9535L83.7193 27.5345C86.5637 28.5478 88.6271 30.4397 88.6271 33.5283V36.7556C88.6271 40.2582 86.1965 43.5792 78.7183 43.5792C71.2401 43.5792 68.8096 40.2601 68.8096 36.7556V34.1277C68.8096 33.3897 69.0835 33.0207 69.8179 33.0207H73.3054C74.0398 33.0207 74.3138 33.3429 74.3138 34.1277V36.0176C74.3138 38.0461 75.8739 39.0145 78.7183 39.0145C81.5627 39.0145 83.1229 38.0461 83.1229 36.0176V34.6802C83.1229 32.9739 81.4714 32.2827 79.5887 31.5916L73.1655 29.1472C71.1916 28.4092 69.4041 26.2889 69.4041 23.7528V21.3084C69.4041 17.8039 71.5607 14.4849 78.8543 14.4849C86.1479 14.4849 88.4444 17.8039 88.4444 21.3084V23.0148C88.4444 23.7059 88.1705 24.0749 87.3895 24.0749H83.902C83.2142 24.0749 82.9383 23.7528 82.9383 23.0148V22.0464H82.8917L82.8936 22.0503Z" fill="#333333"/>
<path d="M147.355 14.811C148.045 14.811 148.412 15.0414 148.412 15.8243V18.4522C148.412 19.1902 148.089 19.5124 147.355 19.5124H136.758V26.289H146.667C147.402 26.289 147.722 26.5194 147.722 27.3023V29.9751C147.722 30.7131 147.448 31.0353 146.667 31.0353H136.758V42.1931C136.758 42.9291 136.527 43.2981 135.748 43.2981H132.123C131.39 43.2981 131.114 42.976 131.114 42.1931V15.918C131.114 15.18 131.344 14.811 132.123 14.811H147.355Z" fill="#333333"/>
<path d="M158.87 38.6925C158.824 38.6925 158.183 38.7842 157.953 38.7842C156.211 38.7842 155.705 38.0931 155.705 36.5722V23.4776C155.705 22.7396 155.385 22.4175 154.65 22.4175H151.256C150.568 22.4175 150.248 22.6947 150.248 23.4776V37.9545C150.248 41.2286 152.449 43.5324 156.212 43.5324C157.131 43.5324 157.955 43.4407 158.69 43.2571C158.734 43.2571 158.781 43.2103 158.872 43.2103C158.964 43.2103 159.146 38.6456 158.872 38.6925" fill="#333333"/>
<path d="M166.945 22.4194H163.504C162.77 22.4194 162.494 22.6967 162.494 23.4796V36.9881L162.723 42.197C162.814 42.933 162.999 43.2571 163.778 43.2571H166.99C167.678 43.2571 168 42.9818 168 42.197V23.4776C167.953 22.6947 167.633 22.4175 166.943 22.4175" fill="#333333"/>
<path d="M128.039 22.4194H124.872C124.184 22.4194 123.955 22.7884 123.772 23.4796L117.256 43.7647L115.239 50.5883C115.008 51.2794 115.468 51.6484 116.247 51.6484H118.724C119.457 51.6484 119.733 51.1408 119.871 50.5883L129.047 23.4796C129.276 22.7884 128.773 22.4194 128.039 22.4194Z" fill="#333333"/>
<path d="M100.236 38.6473C99.5481 38.4638 99.2275 38.8777 99.2275 39.6157V42.0581C99.2275 42.7961 99.6861 43.0265 100.236 43.1651V38.6473Z" fill="#333333"/>
<path d="M158.779 38.7391C159.467 38.5556 159.787 38.9695 159.787 39.7075V42.105C159.787 42.843 159.329 43.0734 158.779 43.212V38.7391Z" fill="#333333"/>
<path d="M118.037 30.3949C117.899 29.979 115.789 23.4327 115.789 23.4327C115.559 22.7884 115.375 22.3726 114.642 22.3726H111.202C110.514 22.3726 110.009 22.7416 110.238 23.4327L115.422 38.5089C115.422 38.5089 115.835 39.0166 115.973 38.5089C116.523 36.619 117.854 32.2848 118.037 31.7322C118.219 30.9962 118.175 30.8107 118.037 30.3949Z" fill="#333333"/>
<path d="M103.127 22.0972C99.7327 22.0972 97.6207 23.5712 96.4744 24.4947L96.3831 23.4814C96.3384 22.7434 96.1539 22.4213 95.3748 22.4213H92.1631C91.4287 22.4213 91.1082 22.6985 91.1082 23.4814V50.5901C91.1082 51.3281 91.3821 51.6503 92.1631 51.6503H95.604C96.2918 51.6503 96.5677 51.375 96.5677 50.5901V28.7821C97.44 28.1378 99.2741 26.8473 101.386 26.8473C103.311 26.8473 103.634 27.9523 103.634 29.0144V36.576C103.634 37.683 103.313 38.788 101.386 38.788C100.928 38.788 100.514 38.7412 100.102 38.6494C99.8259 38.6025 99.8259 43.0754 100.102 43.1223C100.974 43.3527 101.936 43.5362 103.084 43.5362C107.213 43.5362 109.094 41.1406 109.094 37.4506V28.1847C109.185 24.4498 107.259 22.0991 103.129 22.0991" fill="#333333"/>
<path d="M37.3365 3.42468C35.0886 2.8253 32.8853 2.45631 30.6374 2.36454L30.8667 4.99244C32.794 5.0842 34.6747 5.4083 36.6021 5.91396C50.7328 9.83433 59.0833 24.4479 55.4579 38.6475C53.8511 44.4558 50.4569 49.3426 46.0523 52.7553L41.0047 46.7166C40.9134 46.6249 40.9134 46.4863 40.9134 46.3476L42.8854 39.9849L32.0577 42.0134C31.9664 42.0134 31.8284 42.0134 31.7371 41.9216C31.6458 41.8298 31.5991 41.7381 31.5991 41.6444L31.6458 39.8462C31.6458 39.7076 31.6905 39.6159 31.7837 39.5709L40.6841 32.9778C40.2703 31.4569 38.069 23.1124 35.5005 19.7934C35.4092 19.7016 35.4092 19.5162 35.4558 19.4244C35.5005 19.3326 35.6384 19.194 35.7764 19.194L48.99 18.5497L30.7287 9.65081C30.6374 9.60395 30.5461 9.46728 30.5461 9.32866L29.7204 0.566406L8.56809 6.5602L10.0369 12.6907C10.0835 12.8293 10.0369 12.9679 9.89897 13.0597L3.01725 18.1319L2.83462 19.0534L12.0556 19.9301C12.1935 19.9301 12.3295 20.0687 12.3762 20.2073L17.2392 40.3539V40.4925L17.3772 41.0001L16.9633 40.8166H16.7807L5.49444 36.5292L6.41148 45.0122C3.19988 39.4343 1.91563 32.6576 3.33588 25.9258C3.4272 25.5099 3.51851 25.1409 3.61177 24.727C3.93235 23.4814 4.71339 21.5447 5.40118 20.0238L2.65004 19.7465C2.1002 20.9453 1.63974 22.2358 1.27253 23.5263L1.18121 23.6181C0.998582 24.2175 0.860636 24.8169 0.722691 25.4162C-2.71817 40.7229 6.41148 56.2599 21.6438 60.5004C37.2879 64.8347 53.5752 55.5687 57.8884 39.8462C62.2017 24.1257 52.9787 7.75896 37.3346 3.42468M22.7007 38.5089L38.8034 33.667L29.8097 39.1082L22.6988 38.5089H22.7007Z" fill="#333333"/>
<path d="M36.9228 57.4584L30.7755 45.2873L23.7559 44.5513L34.0318 58.1047C34.9955 57.966 35.9592 57.7357 36.9228 57.4604" fill="#EC1C27"/>
</g>
<defs>
<clipPath id="clip0_73_590">
<rect width="168" height="61" fill="white" transform="translate(0 0.566406)"/>
</clipPath>
</defs>
</svg>
