<svg width="47" height="53" viewBox="0 0 47 53" fill="none" xmlns="http://www.w3.org/2000/svg">
<path d="M38.7931 39.5234C38.7931 38.2381 37.751 37.196 36.4658 37.196C35.1805 37.196 34.1384 38.2381 34.1384 39.5234C34.1384 40.8087 35.1805 41.8508 36.4658 41.8508C37.751 41.8508 38.7931 42.8929 38.7931 44.1781C38.7931 45.4634 37.751 46.5055 36.4658 46.5055C35.1805 46.5055 34.1384 45.4634 34.1384 44.1781M36.4653 37.1999V36.2118M36.4653 47.4897V46.5017M46.1142 41.8508C46.1142 47.1798 41.7941 51.4999 36.465 51.4999C31.136 51.4999 26.8159 47.1798 26.8159 41.8508C26.8159 37.7463 29.3787 34.2404 32.9914 32.8458C34.0692 32.4298 35.2405 32.2017 36.465 32.2017C41.7941 32.2017 46.1142 36.5217 46.1142 41.8508Z" stroke="#E43D30" stroke-width="1.75439" stroke-linecap="round" stroke-linejoin="round"/>
<path d="M9 11.2466C9 13.8315 10.0269 16.3106 11.8547 18.1385C13.6825 19.9663 16.1616 20.9932 18.7466 20.9932C21.3315 20.9932 23.8106 19.9663 25.6385 18.1385C27.4663 16.3106 28.4932 13.8315 28.4932 11.2466C28.4932 8.66163 27.4663 6.18255 25.6385 4.35471C23.8106 2.52687 21.3315 1.5 18.7466 1.5C16.1616 1.5 13.6825 2.52687 11.8547 4.35471C10.0269 6.18255 9 8.66163 9 11.2466Z" stroke="#E43D30" stroke-width="1.75439" stroke-linecap="round" stroke-linejoin="round"/>
<path d="M1 49.7456V35.3694C1 32.7844 2.02687 30.3054 3.85471 28.4775C5.68255 26.6497 8.16163 25.6228 10.7466 25.6228H29.7887C32.3736 25.6228 34.8527 26.6497 36.6806 28.4775" stroke="#E43D30" stroke-width="1.75439" stroke-linecap="round" stroke-linejoin="round"/>
</svg>
