<svg width="57" height="52" viewBox="0 0 57 52" fill="none" xmlns="http://www.w3.org/2000/svg">
<path d="M24.5509 24.5494C21.4142 24.5494 18.8708 22.0061 18.8708 18.8693C18.8708 15.7325 21.4142 13.1892 24.5509 13.1892C27.6877 13.1892 30.231 15.7325 30.231 18.8693" stroke="#E43D30" stroke-width="1.9593" stroke-linecap="round" stroke-linejoin="round"/>
<path d="M24.5509 24.5493C27.6877 24.5493 30.231 27.0926 30.231 30.2294C30.231 33.3662 27.6877 35.9095 24.5509 35.9095C21.4142 35.9095 18.8708 33.3662 18.8708 30.2294" stroke="#E43D30" stroke-width="1.9593" stroke-linecap="round" stroke-linejoin="round"/>
<path d="M24.5498 13.1986V10.7871" stroke="#E43D30" stroke-width="1.9593" stroke-linecap="round" stroke-linejoin="round"/>
<path d="M24.5498 38.3116V35.9001" stroke="#E43D30" stroke-width="1.9593" stroke-linecap="round" stroke-linejoin="round"/>
<path d="M47.5885 29.4477C47.9228 27.8676 48.0986 26.229 48.0986 24.5493C48.0986 11.5434 37.5552 1 24.5493 1C11.5434 1 1 11.5434 1 24.5493C1 37.5552 11.5434 48.0986 24.5493 48.0986C28.3399 48.0986 31.9213 47.203 35.0934 45.6119" stroke="#E43D30" stroke-width="1.9593" stroke-linecap="round" stroke-linejoin="round"/>
<path d="M40.3464 47.8691C40.4148 48.1764 40.5755 48.4554 40.807 48.6687C41.0385 48.882 41.3296 49.0194 41.6414 49.0625C41.9532 49.1056 42.2708 49.0523 42.5514 48.9098C42.8321 48.7673 43.0624 48.5424 43.2116 48.2652L45.8993 44.2877L52.2097 50.598C52.3371 50.7254 52.4884 50.8265 52.6549 50.8955C52.8213 50.9644 52.9998 50.9999 53.18 50.9999C53.3602 50.9999 53.5386 50.9644 53.7051 50.8955C53.8716 50.8265 54.0228 50.7254 54.1503 50.598L55.4967 49.2516C55.6241 49.1242 55.7252 48.9729 55.7941 48.8064C55.8631 48.6399 55.8986 48.4615 55.8986 48.2813C55.8986 48.1011 55.8631 47.9227 55.7941 47.7562C55.7252 47.5897 55.6241 47.4384 55.4967 47.311L49.1863 41.0007L53.1896 38.3129C53.4668 38.1637 53.6917 37.9332 53.8341 37.6524C53.9765 37.3717 54.0297 37.0541 53.9864 36.7423C53.9432 36.4305 53.8056 36.1393 53.5921 35.9079C53.3787 35.6765 53.0996 35.516 52.7923 35.4478L35.3259 30.4272L40.3464 47.8691Z" stroke="#E43D30" stroke-width="1.9593" stroke-linecap="round" stroke-linejoin="round"/>
</svg>
