<?xml version="1.0" encoding="utf-8"?>
<!-- Generator: Adobe Illustrator 23.0.1, SVG Export Plug-In . SVG Version: 6.00 Build 0)  -->
<svg version="1.1" id="Layer_1" xmlns="http://www.w3.org/2000/svg" xmlns:xlink="http://www.w3.org/1999/xlink" x="0px" y="0px"
	 viewBox="0 0 400 200" style="enable-background:new 0 0 400 200;" xml:space="preserve">
<style type="text/css">
	.st0{fill:#211D70;}
	.st1{fill:#63666B;}
</style>
<g>
	<g>
		<g>
			<path class="st0" d="M260.4,112.7H249c-14.8,0-26.8-12-26.8-26.8s12-26.8,26.8-26.8h11.4v8.4H249c-10.1,0-18.4,8.3-18.4,18.4
				s8.3,18.4,18.4,18.4h11.4V112.7z"/>
		</g>
		<g>
			<polygon class="st0" points="309.5,112.7 271.4,112.7 271.4,59.1 279.9,59.1 279.9,104.3 309.5,104.3 			"/>
		</g>
		<polygon class="st0" points="180.1,112.7 196.5,78.4 212.2,112.7 221.2,112.7 196.6,58.9 171,112.7 		"/>
	</g>
	<g>
		<path class="st0" d="M90,107.1v5.6h12.2c-2.1-0.3-4.1-0.8-6.1-1.6C93.8,110.1,91.7,108.8,90,107.1z"/>
		<path class="st0" d="M102.8,63.2c2.5-1.8,5.1-3.2,7.9-4.3H90v17.8c0.7-1,1.3-2,2.1-3C95.1,69.6,98.7,66.1,102.8,63.2z"/>
		<path class="st0" d="M121.4,97.2c2.2-2.2,4.1-4.6,6-7.1c1.6-2.1,3-4.3,4.4-6.5c0.1-0.1,0.1-0.3,0.1-0.4c-0.5-3-1.2-6-2.1-8.9
			c-0.6-1.8-1.2-3.7-2-5.4c-0.6-1.4-1.4-2.6-2.4-3.8c-0.8-0.9-1.7-1.6-2.9-2c-1.5-0.6-3-0.6-4.6-0.4c-1.9,0.3-3.7,1.1-5.3,2.3
			c-1.8,1.3-3.4,2.8-4.8,4.5c-1.7,2-3.2,4.2-4.6,6.5c-1.7,2.8-3.2,5.6-4.3,8.7c-1.1,2.9-1.8,5.9-2,9c-0.1,1.6-0.1,3.2,0.2,4.8
			c0.2,1.2,0.6,2.5,1.1,3.6c0.7,1.4,1.7,2.6,3.2,3.4c1.2,0.7,2.6,1,4,0.9c1.3,0,2.6-0.2,3.8-0.6c1.8-0.6,3.4-1.5,5-2.5
			C116.8,101.5,119.2,99.4,121.4,97.2z"/>
		<path class="st0" d="M145,85.5L145,85.5c0,0,0,0.5,0.2,1.5c0.6,4,3.2,15.1,12.2,20.9V66.1c-2.2,3.5-4.9,7.7-7.4,11.7L145,85.5z"/>
		<path class="st0" d="M137.1,97.7c-0.2-0.6-0.2-0.9-0.2-0.9l0,0c-2.7,3.2-5.2,5.6-7.2,7.3c-0.9,0.7-1.8,1.5-2.8,2.2
			c-2.7,2-5.6,3.5-8.7,4.6c-2,0.8-4.1,1.3-6.2,1.7c-0.4,0.1-1,0.1-1.6,0.2h41.4c-0.1,0-0.1,0-0.2,0
			C140.6,109.6,137.1,97.7,137.1,97.7z"/>
		<path class="st0" d="M138.8,67.8c0.4,0.9,0.7,1.8,1.1,2.7c0,0.1,0.1,0.2,0.2,0.4c0.1-0.2,0.2-0.4,0.3-0.5c2-3.1,3.9-6.2,5.9-9.3
			c0.7-1.2,2-2,3.3-2.2H131c1.3,0.8,2.6,1.8,3.8,3C136.5,63.6,137.8,65.6,138.8,67.8z"/>
	</g>
	<g>
		<path class="st1" d="M101.3,141h-1.9l-2.1-6.9l-2.1,6.9h-1.9l-3.1-11.4h2.4l1.8,7.2l2.1-7.2h1.7l2.1,7.2l1.8-7.2h2.4L101.3,141z"
			/>
		<path class="st1" d="M110,141v-11.4h7.7v2h-5.4v2.7h4.6v2h-4.6v2.8h5.4v2H110z"/>
		<path class="st1" d="M130.6,141l-0.7-2h-4.1l-0.7,2h-2.4l4.2-11.4h1.8L133,141H130.6z M127.9,133l-1.5,4.2h2.9L127.9,133z"/>
		<path class="st1" d="M138.5,141v-11.4h2.3v9.4h5.3v2H138.5z"/>
		<path class="st1" d="M155.2,131.6v9.4h-2.3v-9.4h-3v-2h8.4v2H155.2z"/>
		<path class="st1" d="M170.4,141v-4.8h-3.9v4.8h-2.3v-11.4h2.3v4.7h3.9v-4.7h2.3V141H170.4z"/>
		<path class="st1" d="M194.6,139.1c-0.2,0.4-0.5,0.8-0.9,1.1c-0.4,0.3-0.8,0.5-1.4,0.7c-0.5,0.2-1.1,0.2-1.7,0.2
			c-0.9,0-1.7-0.1-2.4-0.3c-0.7-0.2-1.3-0.6-1.9-1.2l1.5-1.4c0.4,0.4,0.8,0.6,1.3,0.8c0.5,0.1,1,0.2,1.5,0.2c0.7,0,1.2-0.1,1.5-0.4
			c0.3-0.2,0.5-0.6,0.5-1.1c0-0.4-0.1-0.7-0.4-1c-0.1-0.1-0.3-0.2-0.4-0.2c-0.1-0.1-0.4-0.1-0.6-0.2l-1.4-0.2
			c-1-0.1-1.7-0.5-2.3-0.9c-0.6-0.5-0.8-1.3-0.8-2.2c0-0.5,0.1-1,0.3-1.4c0.2-0.4,0.5-0.8,0.8-1.1c0.3-0.3,0.8-0.5,1.3-0.7
			c0.5-0.2,1.1-0.3,1.7-0.3c0.8,0,1.5,0.1,2.1,0.3c0.6,0.2,1.2,0.5,1.7,1l-1.4,1.4c-0.4-0.3-0.8-0.6-1.2-0.7
			c-0.4-0.1-0.8-0.1-1.2-0.1c-0.6,0-1.1,0.1-1.4,0.4c-0.3,0.3-0.4,0.6-0.4,1c0,0.2,0,0.3,0.1,0.4c0.1,0.1,0.1,0.3,0.3,0.4
			c0.1,0.1,0.3,0.2,0.5,0.3c0.2,0.1,0.4,0.1,0.6,0.2l1.4,0.2c0.5,0.1,1,0.2,1.3,0.3c0.3,0.1,0.6,0.3,0.9,0.6c0.3,0.3,0.5,0.6,0.7,1
			c0.1,0.4,0.2,0.9,0.2,1.4C195,138.2,194.8,138.7,194.6,139.1z"/>
		<path class="st1" d="M201.2,141v-11.4h2.3V141H201.2z"/>
		<path class="st1" d="M218.6,141v-6.7l-2.2,4.3h-1.5l-2.2-4.3v6.7h-2.3v-11.4h2.2l3,6.2l3-6.2h2.2V141H218.6z"/>
		<path class="st1" d="M235.8,134.6c-0.2,0.4-0.4,0.8-0.8,1.1c-0.3,0.3-0.7,0.6-1.2,0.8s-1,0.3-1.6,0.3h-2.2v4.3h-2.3v-11.4h4.5
			c0.6,0,1.1,0.1,1.6,0.3s0.9,0.4,1.2,0.8c0.3,0.3,0.6,0.7,0.8,1.1c0.2,0.4,0.3,0.9,0.3,1.4C236,133.7,236,134.1,235.8,134.6z
			 M233.3,132c-0.3-0.3-0.7-0.4-1.2-0.4h-2.1v3.1h2.1c0.5,0,0.9-0.1,1.2-0.4c0.3-0.3,0.4-0.7,0.4-1.1
			C233.8,132.7,233.6,132.3,233.3,132z"/>
		<path class="st1" d="M242.1,141v-11.4h2.3v9.4h5.3v2H242.1z"/>
		<path class="st1" d="M255.6,141v-11.4h2.3V141H255.6z"/>
		<path class="st1" d="M266.9,131.6v2.8h4.6v2h-4.6v4.6h-2.3v-11.4h7.7v2H266.9z"/>
		<path class="st1" d="M278.4,141v-11.4h2.3V141H278.4z"/>
		<path class="st1" d="M287.5,141v-11.4h7.7v2h-5.4v2.7h4.6v2h-4.6v2.8h5.4v2H287.5z"/>
		<path class="st1" d="M310,136.6c0,0.4,0,0.8-0.1,1.2c-0.1,0.4-0.2,0.8-0.3,1.1c-0.2,0.4-0.4,0.7-0.7,1c-0.4,0.4-0.8,0.6-1.4,0.8
			c-0.5,0.2-1.1,0.3-1.7,0.3h-4.2v-11.4h4.2c0.6,0,1.2,0.1,1.7,0.3c0.5,0.2,1,0.5,1.4,0.8c0.3,0.3,0.6,0.7,0.7,1
			c0.2,0.4,0.3,0.7,0.3,1.1c0.1,0.4,0.1,0.8,0.1,1.2c0,0.4,0,0.8,0,1.3C310,135.7,310,136.1,310,136.6z M307.7,134.2
			c0-0.3,0-0.6-0.1-0.8c0-0.2-0.1-0.4-0.1-0.6c-0.1-0.2-0.2-0.3-0.3-0.4c-0.2-0.2-0.4-0.4-0.7-0.5c-0.3-0.1-0.6-0.2-1-0.2h-1.7v7.4
			h1.7c0.4,0,0.7-0.1,1-0.2c0.3-0.1,0.5-0.3,0.7-0.5c0.2-0.3,0.3-0.6,0.4-1.1c0.1-0.5,0.1-1.1,0.1-2
			C307.7,134.9,307.7,134.5,307.7,134.2z"/>
	</g>
</g>
</svg>
