<?xml version="1.0" encoding="utf-8"?>
<!-- Generator: Adobe Illustrator 23.0.1, SVG Export Plug-In . SVG Version: 6.00 Build 0)  -->
<svg version="1.1" id="Layer_1" xmlns="http://www.w3.org/2000/svg" xmlns:xlink="http://www.w3.org/1999/xlink" x="0px" y="0px"
	 viewBox="0 0 400 200" style="enable-background:new 0 0 400 200;" xml:space="preserve">
<style type="text/css">
	.st0{fill:#5E6165;}
	.st1{fill-rule:evenodd;clip-rule:evenodd;fill:#00ADEE;}
	.st2{fill:none;stroke:#00ADEE;stroke-width:0.216;stroke-miterlimit:2.613;}
	.st3{fill-rule:evenodd;clip-rule:evenodd;fill:#8DD7F7;}
	.st4{fill-rule:evenodd;clip-rule:evenodd;fill:#E1DDDD;}
	.st5{fill:none;stroke:#E9E7E7;stroke-width:0.216;stroke-miterlimit:2.613;}
	.st6{fill-rule:evenodd;clip-rule:evenodd;fill:#C6E9FA;}
	.st7{fill-rule:evenodd;clip-rule:evenodd;fill:#534342;}
	.st8{fill-rule:evenodd;clip-rule:evenodd;fill:#76797C;}
</style>
<g id="XMLID_66_">
	<g id="XMLID_88_">
		<path id="XMLID_154_" class="st0" d="M137.8,133.8h-1.2l-0.8-2.3h-3.6l-0.8,2.3h-1.1l3-8.1h1.5L137.8,133.8z M135.5,130.7l-1.4-4
			l-1.4,4H135.5z"/>
		<path id="XMLID_125_" class="st0" d="M144.3,133.8h-1v-0.6c-0.3,0.3-0.6,0.4-0.9,0.6s-0.7,0.2-1.1,0.2c-0.7,0-1.3-0.3-1.8-0.8
			c-0.4-0.6-0.7-1.3-0.7-2.3c0-0.5,0.1-1,0.2-1.4c0.1-0.4,0.4-0.7,0.6-1c0.3-0.3,0.5-0.5,0.9-0.6c0.3-0.1,0.7-0.2,1-0.2
			c0.3,0,0.6,0,0.9,0.1c0.3,0.1,0.5,0.2,0.8,0.3v-2.6h1V133.8z M143.3,132.3v-3.5c-0.3-0.1-0.5-0.2-0.8-0.3c-0.2,0-0.5-0.1-0.7-0.1
			c-0.6,0-1,0.2-1.4,0.6c-0.3,0.4-0.5,1-0.5,1.7c0,0.7,0.1,1.3,0.4,1.6c0.2,0.4,0.7,0.6,1.2,0.6c0.3,0,0.6-0.1,0.9-0.2
			C142.7,132.7,143,132.5,143.3,132.3"/>
		<polygon id="XMLID_124_" class="st0" points="152,127.8 149.5,133.8 148.5,133.8 146,127.8 147.1,127.8 149,132.6 150.9,127.8 		
			"/>
		<path id="XMLID_121_" class="st0" d="M158.3,133.8h-1v-0.6c-0.1,0.1-0.2,0.1-0.4,0.3c-0.2,0.1-0.3,0.2-0.5,0.3
			c-0.2,0.1-0.4,0.2-0.6,0.2c-0.2,0.1-0.5,0.1-0.8,0.1c-0.6,0-1-0.2-1.4-0.5c-0.4-0.4-0.6-0.8-0.6-1.4c0-0.5,0.1-0.8,0.3-1.1
			c0.2-0.3,0.5-0.5,0.9-0.7c0.4-0.2,0.8-0.3,1.4-0.3c0.5-0.1,1.1-0.1,1.7-0.1v-0.2c0-0.2,0-0.4-0.1-0.6c-0.1-0.1-0.2-0.3-0.4-0.4
			c-0.1-0.1-0.3-0.1-0.5-0.2c-0.2,0-0.4,0-0.6,0c-0.3,0-0.6,0-0.9,0.1c-0.3,0.1-0.7,0.2-1,0.3h-0.1v-1c0.2-0.1,0.5-0.1,0.9-0.2
			c0.4-0.1,0.8-0.1,1.1-0.1c0.4,0,0.8,0,1.1,0.1s0.6,0.2,0.8,0.4c0.2,0.2,0.4,0.4,0.5,0.6c0.1,0.3,0.2,0.6,0.2,1V133.8z
			 M157.3,132.3v-1.7c-0.3,0-0.7,0-1.1,0.1c-0.4,0-0.8,0.1-1,0.2c-0.3,0.1-0.5,0.2-0.7,0.4c-0.2,0.2-0.3,0.4-0.3,0.7
			c0,0.3,0.1,0.6,0.3,0.8c0.2,0.2,0.5,0.3,1,0.3c0.4,0,0.7-0.1,1-0.2C156.7,132.7,157,132.5,157.3,132.3"/>
		<path id="XMLID_120_" class="st0" d="M165.8,133.8h-1v-3.4c0-0.3,0-0.5,0-0.8c0-0.2-0.1-0.4-0.2-0.6c-0.1-0.2-0.2-0.3-0.4-0.3
			c-0.2-0.1-0.4-0.1-0.7-0.1c-0.3,0-0.6,0.1-0.9,0.2c-0.3,0.1-0.6,0.3-0.9,0.5v4.5h-1v-6.1h1v0.7c0.3-0.3,0.7-0.5,1-0.6
			c0.3-0.1,0.7-0.2,1.1-0.2c0.7,0,1.2,0.2,1.5,0.6c0.3,0.4,0.5,1,0.5,1.7V133.8z"/>
		<path id="XMLID_119_" class="st0" d="M172.7,133.4c-0.3,0.2-0.7,0.3-1,0.4c-0.3,0.1-0.6,0.1-1,0.1c-0.4,0-0.9-0.1-1.2-0.2
			c-0.4-0.1-0.7-0.3-1-0.6c-0.3-0.3-0.5-0.6-0.6-1c-0.1-0.4-0.2-0.9-0.2-1.4c0-1,0.3-1.8,0.8-2.3c0.6-0.6,1.3-0.8,2.2-0.8
			c0.4,0,0.7,0,1,0.1c0.3,0.1,0.7,0.2,0.9,0.4v1.1h-0.1c-0.3-0.2-0.6-0.4-1-0.6c-0.3-0.1-0.7-0.2-1-0.2c-0.6,0-1.1,0.2-1.4,0.6
			c-0.3,0.4-0.5,1-0.5,1.7c0,0.7,0.2,1.3,0.5,1.7c0.3,0.4,0.8,0.6,1.4,0.6c0.2,0,0.4,0,0.6-0.1c0.2-0.1,0.4-0.1,0.6-0.2
			c0.1-0.1,0.3-0.2,0.4-0.2c0.1-0.1,0.2-0.2,0.3-0.2h0.1V133.4z"/>
		<path id="XMLID_116_" class="st0" d="M179.5,130.9H175c0,0.4,0.1,0.7,0.2,1c0.1,0.3,0.3,0.5,0.5,0.7c0.2,0.2,0.4,0.3,0.7,0.4
			c0.3,0.1,0.6,0.1,0.9,0.1c0.4,0,0.8-0.1,1.3-0.2c0.4-0.2,0.7-0.3,0.9-0.5h0.1v1.1c-0.4,0.1-0.7,0.3-1.1,0.4
			c-0.4,0.1-0.7,0.1-1.1,0.1c-1,0-1.8-0.3-2.4-0.8c-0.6-0.5-0.9-1.3-0.9-2.3c0-1,0.3-1.8,0.8-2.4c0.6-0.6,1.3-0.9,2.2-0.9
			c0.8,0,1.5,0.2,1.9,0.7c0.5,0.5,0.7,1.2,0.7,2V130.9z M178.5,130.1c0-0.5-0.1-0.9-0.4-1.2c-0.3-0.3-0.7-0.4-1.2-0.4
			c-0.6,0-1,0.2-1.3,0.5c-0.3,0.3-0.5,0.7-0.6,1.2H178.5z"/>
		<path id="XMLID_113_" class="st0" d="M186.4,133.8h-1v-0.6c-0.3,0.3-0.6,0.4-0.9,0.6s-0.7,0.2-1.1,0.2c-0.7,0-1.3-0.3-1.8-0.8
			c-0.4-0.6-0.6-1.3-0.6-2.3c0-0.5,0.1-1,0.2-1.4c0.1-0.4,0.4-0.7,0.6-1c0.3-0.3,0.5-0.5,0.9-0.6c0.3-0.1,0.7-0.2,1-0.2
			c0.3,0,0.6,0,0.9,0.1c0.3,0.1,0.5,0.2,0.8,0.3v-2.6h1V133.8z M185.4,132.3v-3.5c-0.3-0.1-0.5-0.2-0.8-0.3s-0.5-0.1-0.7-0.1
			c-0.6,0-1,0.2-1.4,0.6c-0.3,0.4-0.5,1-0.5,1.7c0,0.7,0.1,1.3,0.4,1.6c0.3,0.4,0.7,0.6,1.2,0.6c0.3,0,0.6-0.1,0.9-0.2
			C184.9,132.7,185.1,132.5,185.4,132.3"/>
		<path id="XMLID_110_" class="st0" d="M199.7,133.8h-1.2l-0.8-2.3h-3.6l-0.8,2.3h-1.1l3-8.1h1.5L199.7,133.8z M197.4,130.7l-1.4-4
			l-1.4,4H197.4z"/>
		<rect id="XMLID_109_" x="201.2" y="125.4" class="st0" width="1" height="8.4"/>
		<path id="XMLID_108_" class="st0" d="M209.8,133.8h-1v-0.7c-0.4,0.3-0.7,0.5-1,0.6c-0.3,0.1-0.7,0.2-1.1,0.2
			c-0.7,0-1.2-0.2-1.5-0.6c-0.4-0.4-0.5-1-0.5-1.7v-3.9h1v3.4c0,0.3,0,0.6,0,0.8c0,0.2,0.1,0.4,0.2,0.6c0.1,0.2,0.2,0.3,0.4,0.3
			c0.2,0.1,0.4,0.1,0.7,0.1c0.3,0,0.6-0.1,0.9-0.2c0.3-0.1,0.6-0.3,0.9-0.5v-4.5h1V133.8z"/>
		<path id="XMLID_107_" class="st0" d="M221.2,133.8h-1v-3.4c0-0.3,0-0.5,0-0.8c0-0.2-0.1-0.4-0.2-0.6c-0.1-0.2-0.2-0.3-0.4-0.4
			s-0.4-0.1-0.7-0.1c-0.3,0-0.6,0.1-0.9,0.2c-0.3,0.1-0.6,0.3-0.9,0.5c0,0.1,0,0.2,0,0.3c0,0.1,0,0.2,0,0.3v3.9h-1v-3.4
			c0-0.3,0-0.5,0-0.8c0-0.2-0.1-0.4-0.2-0.6c-0.1-0.2-0.2-0.3-0.4-0.3c-0.2-0.1-0.4-0.1-0.7-0.1c-0.3,0-0.6,0.1-0.9,0.2
			c-0.3,0.1-0.6,0.3-0.9,0.5v4.5h-1v-6.1h1v0.7c0.3-0.3,0.6-0.5,1-0.6c0.3-0.1,0.7-0.2,1-0.2c0.4,0,0.8,0.1,1.1,0.3
			c0.3,0.2,0.5,0.4,0.7,0.7c0.4-0.3,0.8-0.6,1.2-0.8c0.3-0.2,0.7-0.2,1.1-0.2c0.7,0,1.2,0.2,1.5,0.6c0.3,0.4,0.5,1,0.5,1.7V133.8z"
			/>
		<path id="XMLID_104_" class="st0" d="M224.6,126.8h-1.2v-1.1h1.2V126.8z M224.5,133.8h-1v-6.1h1V133.8z"/>
		<path id="XMLID_103_" class="st0" d="M232.1,133.8h-1v-3.4c0-0.3,0-0.5-0.1-0.8c0-0.2-0.1-0.4-0.2-0.6c-0.1-0.2-0.2-0.3-0.4-0.3
			c-0.2-0.1-0.4-0.1-0.7-0.1c-0.3,0-0.6,0.1-0.9,0.2c-0.3,0.1-0.6,0.3-0.9,0.5v4.5h-1v-6.1h1v0.7c0.3-0.3,0.7-0.5,1-0.6
			c0.3-0.1,0.7-0.2,1.1-0.2c0.7,0,1.2,0.2,1.5,0.6c0.3,0.4,0.5,1,0.5,1.7V133.8z"/>
		<path id="XMLID_100_" class="st0" d="M235.5,126.8h-1.2v-1.1h1.2V126.8z M235.5,133.8h-1v-6.1h1V133.8z"/>
		<path id="XMLID_99_" class="st0" d="M243,133.8h-1v-0.7c-0.3,0.3-0.7,0.5-1,0.6c-0.3,0.1-0.7,0.2-1.1,0.2c-0.6,0-1.2-0.2-1.5-0.6
			c-0.4-0.4-0.5-1-0.5-1.7v-3.9h1v3.4c0,0.3,0,0.6,0,0.8c0,0.2,0.1,0.4,0.2,0.6c0.1,0.2,0.2,0.3,0.4,0.3c0.2,0.1,0.4,0.1,0.7,0.1
			c0.3,0,0.6-0.1,0.9-0.2c0.3-0.1,0.6-0.3,0.9-0.5v-4.5h1V133.8z"/>
		<path id="XMLID_98_" class="st0" d="M254.4,133.8h-1v-3.4c0-0.3,0-0.5,0-0.8c0-0.2-0.1-0.4-0.2-0.6c-0.1-0.2-0.2-0.3-0.4-0.4
			c-0.2-0.1-0.4-0.1-0.7-0.1c-0.3,0-0.6,0.1-0.9,0.2c-0.3,0.1-0.6,0.3-0.9,0.5c0,0.1,0,0.2,0,0.3c0,0.1,0,0.2,0,0.3v3.9h-1v-3.4
			c0-0.3,0-0.5,0-0.8c0-0.2-0.1-0.4-0.1-0.6c-0.1-0.2-0.2-0.3-0.4-0.3c-0.2-0.1-0.4-0.1-0.7-0.1c-0.3,0-0.6,0.1-0.9,0.2
			c-0.3,0.1-0.6,0.3-0.9,0.5v4.5h-1v-6.1h1v0.7c0.3-0.3,0.6-0.5,1-0.6c0.3-0.1,0.7-0.2,1-0.2c0.4,0,0.8,0.1,1.1,0.3
			c0.3,0.2,0.5,0.4,0.7,0.7c0.4-0.3,0.8-0.6,1.1-0.8c0.3-0.2,0.7-0.2,1.1-0.2c0.7,0,1.2,0.2,1.5,0.6c0.3,0.4,0.5,1,0.5,1.7V133.8z"
			/>
		<path id="XMLID_97_" class="st0" d="M267.1,131.5c0,0.3-0.1,0.6-0.2,0.9c-0.2,0.3-0.4,0.6-0.6,0.8c-0.3,0.2-0.6,0.4-1,0.5
			c-0.4,0.1-0.9,0.2-1.4,0.2c-0.6,0-1.1-0.1-1.6-0.2c-0.5-0.1-1-0.3-1.4-0.5V132h0.1c0.4,0.3,0.9,0.6,1.4,0.8
			c0.5,0.2,1.1,0.3,1.5,0.3c0.7,0,1.2-0.1,1.6-0.4s0.6-0.6,0.6-1c0-0.4-0.1-0.6-0.3-0.8c-0.2-0.2-0.4-0.3-0.8-0.4
			c-0.3-0.1-0.6-0.1-0.9-0.2c-0.3,0-0.7-0.1-1-0.2c-0.7-0.1-1.3-0.4-1.6-0.8c-0.4-0.4-0.5-0.8-0.5-1.4c0-0.7,0.3-1.2,0.9-1.7
			c0.6-0.4,1.3-0.6,2.2-0.6c0.6,0,1.1,0.1,1.6,0.2c0.5,0.1,0.9,0.2,1.3,0.4v1.3h-0.1c-0.3-0.3-0.7-0.5-1.2-0.6
			c-0.5-0.2-1-0.3-1.6-0.3c-0.6,0-1.1,0.1-1.4,0.4c-0.4,0.2-0.5,0.5-0.5,0.9c0,0.3,0.1,0.6,0.3,0.8c0.2,0.2,0.5,0.3,0.9,0.4
			c0.2,0,0.6,0.1,1,0.2c0.4,0.1,0.8,0.1,1.1,0.2c0.6,0.2,1.1,0.4,1.4,0.7C266.9,130.5,267.1,130.9,267.1,131.5"/>
		<polygon id="XMLID_96_" class="st0" points="274.3,127.8 270.7,136.1 269.5,136.1 270.7,133.5 268.2,127.8 269.4,127.8 
			271.3,132.3 273.2,127.8 		"/>
		<path id="XMLID_95_" class="st0" d="M280.4,132.1c0,0.6-0.2,1-0.7,1.4c-0.5,0.4-1.1,0.5-1.9,0.5c-0.5,0-0.9-0.1-1.3-0.2
			c-0.4-0.1-0.7-0.2-1-0.4v-1.1h0.1c0.3,0.2,0.7,0.4,1.1,0.6s0.8,0.2,1.2,0.2c0.5,0,0.8-0.1,1.1-0.2c0.3-0.1,0.4-0.4,0.4-0.7
			c0-0.2-0.1-0.4-0.2-0.5c-0.1-0.1-0.4-0.2-0.8-0.3c-0.1,0-0.3-0.1-0.6-0.1c-0.2,0-0.5-0.1-0.7-0.1c-0.5-0.1-0.9-0.3-1.2-0.6
			c-0.2-0.3-0.3-0.6-0.3-1c0-0.3,0.1-0.5,0.2-0.7c0.1-0.2,0.3-0.4,0.5-0.6c0.2-0.2,0.5-0.3,0.8-0.4c0.3-0.1,0.7-0.1,1.1-0.1
			c0.4,0,0.7,0,1.1,0.1c0.4,0.1,0.7,0.2,0.9,0.3v1.1h-0.1c-0.3-0.2-0.6-0.4-1-0.5c-0.4-0.1-0.8-0.2-1.1-0.2c-0.4,0-0.7,0.1-1,0.2
			c-0.3,0.1-0.4,0.4-0.4,0.6c0,0.2,0.1,0.4,0.2,0.6c0.2,0.1,0.4,0.2,0.8,0.3c0.2,0,0.4,0.1,0.6,0.1c0.2,0,0.4,0.1,0.6,0.1
			c0.5,0.1,0.9,0.3,1.1,0.6C280.2,131.3,280.4,131.6,280.4,132.1"/>
		<path id="XMLID_94_" class="st0" d="M285.4,133.8c-0.2,0-0.4,0.1-0.6,0.1c-0.2,0-0.4,0-0.6,0c-0.6,0-1.1-0.2-1.4-0.5
			c-0.3-0.3-0.5-0.9-0.5-1.6v-3.2h-0.7v-0.9h0.7V126h1v1.7h2.1v0.9h-2.1v2.8c0,0.3,0,0.6,0,0.7c0,0.2,0.1,0.3,0.2,0.5
			c0.1,0.1,0.2,0.3,0.3,0.3c0.1,0.1,0.4,0.1,0.6,0.1c0.2,0,0.3,0,0.5-0.1c0.2,0,0.3-0.1,0.4-0.1h0.1V133.8z"/>
		<path id="XMLID_91_" class="st0" d="M292.2,130.9h-4.6c0,0.4,0.1,0.7,0.2,1c0.1,0.3,0.3,0.5,0.5,0.7c0.2,0.2,0.4,0.3,0.7,0.4
			c0.3,0.1,0.6,0.1,0.9,0.1c0.4,0,0.8-0.1,1.3-0.2c0.4-0.2,0.7-0.3,0.9-0.5h0.1v1.1c-0.4,0.1-0.7,0.3-1.1,0.4
			c-0.4,0.1-0.7,0.1-1.2,0.1c-1,0-1.8-0.3-2.4-0.8c-0.6-0.5-0.9-1.3-0.9-2.3c0-1,0.3-1.8,0.8-2.4c0.6-0.6,1.3-0.9,2.2-0.9
			c0.8,0,1.5,0.2,1.9,0.7c0.5,0.5,0.7,1.2,0.7,2V130.9z M291.1,130.1c0-0.5-0.1-0.9-0.4-1.2c-0.3-0.3-0.7-0.4-1.2-0.4
			c-0.6,0-1,0.2-1.3,0.5c-0.3,0.3-0.5,0.7-0.6,1.2H291.1z"/>
		<path id="XMLID_90_" class="st0" d="M303.1,133.8h-1v-3.4c0-0.3,0-0.5,0-0.8c0-0.2-0.1-0.4-0.2-0.6c-0.1-0.2-0.2-0.3-0.4-0.4
			c-0.2-0.1-0.4-0.1-0.7-0.1c-0.3,0-0.6,0.1-0.9,0.2c-0.3,0.1-0.6,0.3-0.9,0.5c0,0.1,0,0.2,0,0.3c0,0.1,0,0.2,0,0.3v3.9h-1v-3.4
			c0-0.3,0-0.5,0-0.8c0-0.2-0.1-0.4-0.1-0.6c-0.1-0.2-0.2-0.3-0.4-0.3c-0.2-0.1-0.4-0.1-0.7-0.1c-0.3,0-0.6,0.1-0.9,0.2
			c-0.3,0.1-0.6,0.3-0.9,0.5v4.5h-1v-6.1h1v0.7c0.3-0.3,0.6-0.5,1-0.6s0.7-0.2,1-0.2c0.4,0,0.8,0.1,1.1,0.3c0.3,0.2,0.5,0.4,0.7,0.7
			c0.4-0.3,0.8-0.6,1.1-0.8c0.3-0.2,0.7-0.2,1.1-0.2c0.7,0,1.2,0.2,1.5,0.6c0.3,0.4,0.5,1,0.5,1.7V133.8z"/>
		<path id="XMLID_89_" class="st0" d="M309.8,132.1c0,0.6-0.2,1-0.7,1.4c-0.5,0.4-1.1,0.5-1.9,0.5c-0.5,0-0.9-0.1-1.3-0.2
			c-0.4-0.1-0.7-0.2-1-0.4v-1.1h0.1c0.3,0.2,0.7,0.4,1.1,0.6c0.4,0.1,0.8,0.2,1.2,0.2c0.5,0,0.8-0.1,1.1-0.2
			c0.3-0.1,0.4-0.4,0.4-0.7c0-0.2-0.1-0.4-0.2-0.5c-0.1-0.1-0.4-0.2-0.8-0.3c-0.1,0-0.3-0.1-0.6-0.1c-0.2,0-0.5-0.1-0.7-0.1
			c-0.5-0.1-0.9-0.3-1.2-0.6c-0.2-0.3-0.3-0.6-0.3-1c0-0.3,0.1-0.5,0.2-0.7c0.1-0.2,0.3-0.4,0.5-0.6c0.2-0.2,0.5-0.3,0.8-0.4
			c0.3-0.1,0.7-0.1,1.1-0.1c0.4,0,0.7,0,1.1,0.1c0.4,0.1,0.7,0.2,0.9,0.3v1.1h-0.1c-0.3-0.2-0.6-0.4-1-0.5c-0.4-0.1-0.7-0.2-1.1-0.2
			c-0.4,0-0.7,0.1-1,0.2c-0.3,0.1-0.4,0.4-0.4,0.6c0,0.2,0.1,0.4,0.2,0.6c0.2,0.1,0.4,0.2,0.8,0.3c0.2,0,0.4,0.1,0.6,0.1
			c0.2,0,0.4,0.1,0.6,0.1c0.5,0.1,0.9,0.3,1.1,0.6C309.7,131.3,309.8,131.6,309.8,132.1"/>
	</g>
	<g id="XMLID_78_">
		<polygon id="XMLID_87_" class="st1" points="125.2,67.6 121.5,71.4 121.5,85.3 131.9,101 125.2,102.5 121.4,106.5 121.1,120.6 
			125.2,116.4 125.2,102.5 137.6,99.8 125.1,81 		"/>
		<polygon id="XMLID_86_" class="st2" points="125.2,67.6 121.5,71.4 121.5,85.3 131.9,101 125.2,102.5 121.4,106.5 121.1,120.6 
			125.2,116.4 125.2,102.5 137.6,99.8 125.1,81 		"/>
		<polygon id="XMLID_85_" class="st3" points="125.2,67.4 152.2,111.2 125.2,116.4 125.2,102.5 137.6,99.8 125.2,81 		"/>
		<path id="XMLID_84_" class="st4" d="M89.9,128.9l3.3,4.5l27.9,5.6l-3.1-4.8C118,134.1,89.7,128.8,89.9,128.9"/>
		<path id="XMLID_83_" class="st5" d="M89.9,128.9l3.3,4.5l27.9,5.6l-3.1-4.8C118,134.1,89.7,128.8,89.9,128.9z"/>
		<polygon id="XMLID_82_" class="st6" points="125.2,116.4 121,120.6 149.2,115.5 152.2,111.2 		"/>
		<polygon id="XMLID_81_" class="st7" points="118,85.4 121.5,89.7 121.5,103.3 110.8,118.9 117.9,120.9 121.4,125 121.4,139 
			117.8,134 118,120.9 105.4,117.6 117.8,99.2 		"/>
		<polygon id="XMLID_80_" class="st0" points="118,85.4 121.5,89.7 121.5,103.3 110.8,118.9 117.9,120.9 121.4,125 121.4,139 
			117.8,134 118,120.9 105.4,117.6 117.8,99.2 		"/>
		<polygon id="XMLID_79_" class="st8" points="117.9,85.3 117.8,99.3 105.4,117.6 117.9,120.7 117.9,134.1 89.8,128.9 		"/>
	</g>
	<g id="XMLID_67_">
		<path id="XMLID_75_" class="st0" d="M188.4,114.6h-4.5l-3.1-9.8h-13.6l-3.1,9.8h-4.3l11.5-35.3h5.6L188.4,114.6z M179.6,100.8
			L174,83.5l-5.5,17.3H179.6z"/>
		<path id="XMLID_72_" class="st0" d="M219.8,97c0,3.2-0.6,6.1-1.9,8.7c-1.3,2.6-2.9,4.6-5,6.1c-1.4,1-3,1.7-4.8,2.2
			c-1.8,0.4-4.1,0.7-7,0.7h-8V79.4h7.9c3.1,0,5.5,0.3,7.3,0.7c1.8,0.5,3.3,1.2,4.6,2c2.2,1.5,3.8,3.5,5,6
			C219.2,90.7,219.8,93.6,219.8,97 M215.4,97c0-2.8-0.4-5.1-1.3-7c-0.9-1.9-2.1-3.4-3.9-4.5c-1.2-0.8-2.6-1.3-4-1.6
			c-1.4-0.3-3.1-0.5-5-0.5h-3.9v27.2h3.9c2,0,3.8-0.2,5.3-0.5c1.5-0.3,2.9-0.9,4.1-1.8c1.6-1.1,2.7-2.6,3.5-4.4
			C215.1,102,215.4,99.7,215.4,97"/>
		<path id="XMLID_69_" class="st0" d="M251.5,114.6H247l-3.1-9.8h-13.6l-3.1,9.8h-4.3l11.5-35.3h5.6L251.5,114.6z M242.6,100.8
			l-5.5-17.3l-5.5,17.3H242.6z"/>
		<polygon id="XMLID_68_" class="st0" points="276.2,114.6 256.3,114.6 256.3,79.4 260.5,79.4 260.5,110.5 276.2,110.5 		"/>
	</g>
</g>
</svg>
