<?xml version="1.0" encoding="utf-8"?>
<!-- Generator: Adobe Illustrator 23.0.1, SVG Export Plug-In . SVG Version: 6.00 Build 0)  -->
<svg version="1.1" id="Layer_1" xmlns="http://www.w3.org/2000/svg" xmlns:xlink="http://www.w3.org/1999/xlink" x="0px" y="0px"
	 viewBox="0 0 400 200" style="enable-background:new 0 0 400 200;" xml:space="preserve">
<style type="text/css">
	.st0{fill:#6F7271;}
	.st1{fill:#004987;}
	.st2{fill:#0071CE;}
</style>
<g>
	<g>
		<path class="st0" d="M148.15,175.01c-9.08,0-13.26-3.57-13.26-14.58v-1.24c0-10.78,2.79-15.13,13.81-15.13
			c1.86,0,4.03,0.39,5.66,0.85v-8.46c0-1.24,0.85-2.17,2.02-2.17h2.48c1.24,0,2.02,1.01,2.02,2.17v36.15c0,1.16-0.78,2.02-1.86,2.02
			h-2.33c-1.09,0-1.78-0.7-1.86-1.63C153.03,174,150.86,175.01,148.15,175.01z M141.4,158.49v2.33c0,5.66,1.32,8.07,6.28,8.07
			c4.42,0,6.59-2.4,6.59-3.41v-13.96c-1.63-0.62-3.8-1.09-5.74-1.09C143.03,150.5,141.4,153.13,141.4,158.49z"/>
		<path class="st0" d="M198.33,171.13c0-0.16,0.08-0.62,1.01-2.71c0.39-1.01,1.16-1.4,1.94-1.4c0.39,0,0.54,0,0.85,0.08
			c2.33,1.01,5.43,1.78,8.38,1.78c3.18,0,5.66-0.85,5.66-3.18c0-4.65-18.07,0.08-18.07-12.64c0-7.76,6.98-9.08,11.71-9.08h0.31
			c2.79,0.08,6.67,0.47,9.7,1.24l1.32,0.39c0.93,0.23,1.24,0.85,1.24,1.47c0,0.23,0,0.62-0.78,2.79c-0.16,0.93-1.01,1.71-1.78,1.78
			c-0.23,0-0.7,0-0.93-0.08c-3.18-0.85-7.29-1.24-9.15-1.24c-2.25,0-5.04,0.54-5.04,2.87c0,6.36,18.23,0.16,18.23,12.41
			c0,8.14-7.45,9.31-12.26,9.31c-3.65,0-8.14-1.09-11.17-2.25C198.64,172.37,198.33,171.98,198.33,171.13z"/>
		<path class="st0" d="M237.74,144.45h6.59c1.24,0,2.17,0.85,2.17,2.09v2.09c0,1.32-1.01,2.09-2.17,2.09h-6.59v13.65
			c0,3.03,0,4.5,1.78,4.5c1.09,0,1.86-0.08,3.8-0.47c1.16,0,1.94,0.31,2.17,1.16l0.54,2.33c0,1.24-0.39,1.86-1.63,2.25
			c-1.71,0.54-3.88,0.85-4.89,0.85c-8.3,0-8.3-4.96-8.3-10.7v-13.5h-3.96c-1.16,0-2.17-0.85-2.17-2.09v-2.09
			c0-1.24,1.01-2.09,2.17-2.09h3.96v-7.99c0-1.24,0.85-2.17,2.02-2.17h2.48c1.24,0,2.02,1.01,2.02,2.17V144.45z"/>
		<path class="st0" d="M251.39,146.62c0-1.24,0.85-2.17,2.02-2.17h2.48c1.09,0,1.86,0.7,2.02,1.71c2.09-0.93,5.66-1.63,8.38-1.94
			c1.24,0,2.09,0.85,2.09,2.02v2.25c0,1.24-0.93,2.02-2.09,2.02c-2.87,0.31-6.9,1.09-8.38,1.94v19.94c0,1.24-0.85,2.17-2.02,2.17
			h-2.48c-1.16,0-2.02-1.01-2.02-2.17V146.62z"/>
		<path class="st0" d="M114.79,144.06c-2.79,0-6.36,0.78-8.53,1.32c-1.01,0.39-1.55,1.01-1.55,2.09l0.23,1.71
			c0.16,1.47,1.16,2.25,2.33,2.25c2.87-0.85,5.2-1.01,7.45-1.01c3.72,0,7.45,1.24,7.45,4.81v0.16l0,0v8.14l0,0v3.03
			c-2.33,1.86-6.67,2.25-7.14,2.25c-2.79,0-5.51-0.85-5.51-3.57c0-2.48,1.01-4.19,4.03-4.19c1.71,0,3.72,0.23,5.74,0.54v-5.12l0,0
			l0,0c0-0.78-0.54-1.4-1.24-1.55c-0.08,0-0.23,0-0.31,0l0,0c-1.24-0.16-2.56-0.23-4.03-0.23c-7.21,0.16-10.7,3.72-10.7,10.39
			c0,9,7.21,9.93,11.79,9.93c0.78,0,4.73-0.62,7.83-2.02c0.16,0.93,0.93,1.63,1.86,1.63h2.4c1.09,0,1.86-1.01,1.86-2.02v-17.45
			C128.83,147.24,122.94,144.06,114.79,144.06z"/>
		<path class="st0" d="M178.71,144.06c-2.79,0-6.36,0.78-8.53,1.32c-1.01,0.39-1.55,1.01-1.55,2.09l0.23,1.71
			c0.23,1.32,1.16,2.17,2.4,2.17c2.87-0.85,5.2-1.01,7.45-1.01c3.72,0,7.45,1.24,7.45,4.81v0.16l0,0v8.14l0,0v3.03
			c-2.33,1.86-6.67,2.25-7.14,2.25c-2.79,0-5.51-0.85-5.51-3.57c0-2.48,1.01-4.19,4.03-4.19c1.71,0,3.72,0.23,5.74,0.54v-5.12l0,0
			l0,0c0-0.78-0.54-1.4-1.24-1.55c-0.08,0-0.23,0-0.31,0l0,0c-1.24-0.16-2.56-0.23-4.03-0.23c-7.14,0-10.63,3.57-10.63,10.24
			c0,9,7.21,9.93,11.79,9.93c0.78,0,4.73-0.62,7.83-2.02c0.16,0.93,0.93,1.63,1.94,1.63h2.4c1.09,0,1.86-1.01,1.86-2.02v-17.45
			C192.75,147.24,186.85,144.06,178.71,144.06z"/>
		<path class="st0" d="M282.88,144.06c-2.79,0-6.36,0.78-8.53,1.32c-1.01,0.39-1.55,1.01-1.55,2.09l0.23,1.71
			c0.23,1.32,1.24,2.17,2.4,2.17c2.87-0.85,5.2-1.01,7.45-1.01c3.72,0,7.45,1.24,7.45,4.81v0.16l0,0v8.14l0,0v3.03
			c-2.33,1.86-6.67,2.25-7.14,2.25c-2.79,0-5.51-0.85-5.51-3.57c0-2.48,1.01-4.19,4.03-4.19c1.71,0,3.72,0.23,5.74,0.54v-5.12l0,0
			l0,0c0-0.78-0.54-1.4-1.24-1.55c-0.08,0-0.23,0-0.31,0l0,0c-1.24-0.16-2.48-0.23-4.03-0.23c-7.21,0-10.63,3.57-10.63,10.24
			c0,9,7.29,9.93,11.79,9.93c0.78,0,4.73-0.62,7.83-2.02c0.16,0.93,0.93,1.63,1.86,1.63h2.4c1.09,0,1.86-1.01,1.86-2.02v-17.45
			C296.92,147.24,291.03,144.06,282.88,144.06z"/>
	</g>
	<path class="st1" d="M235.57,117.07l5.27,1.01V97.98h-2.79c-0.47-0.31-0.93-0.54-1.47-0.78c-10.86-6.05-23.35-9.54-36.69-9.54
		s-25.83,3.49-36.69,9.54c-0.47,0.23-0.93,0.54-1.47,0.78h-2.79v20.25l5.35-1.24v0.08c10.63-5.66,22.73-8.92,35.6-8.92
		C212.84,108.14,225.02,111.4,235.57,117.07L235.57,117.07z"/>
	<g>
		<path class="st2" d="M241.07,118.62c-3.88,0-7.6-2.02-9.62-5.58l-31.49-54.61l-31.42,54.53c-3.1,5.35-9.85,7.14-15.2,4.11
			c-5.35-3.1-7.14-9.85-4.11-15.2l41.11-71.29c1.94-3.49,5.58-5.58,9.62-5.58c3.96,0,7.68,2.09,9.62,5.58l41.11,71.29
			c3.1,5.35,1.24,12.1-4.11,15.2C244.87,118.07,242.93,118.62,241.07,118.62z"/>
	</g>
</g>
</svg>
