<?xml version="1.0" encoding="utf-8"?>
<!-- Generator: Adobe Illustrator 23.0.1, SVG Export Plug-In . SVG Version: 6.00 Build 0)  -->
<svg version="1.1" id="Layer_1" xmlns="http://www.w3.org/2000/svg" xmlns:xlink="http://www.w3.org/1999/xlink" x="0px" y="0px"
	 viewBox="0 0 400 200" style="enable-background:new 0 0 400 200;" xml:space="preserve">
<style type="text/css">
	.st0{fill:#231F20;}
	.st1{fill:#1F8441;}
</style>
<g id="XMLID_133_">
	<g id="XMLID_106_">
		<path id="XMLID_113_" class="st0" d="M153.6,160.5c0.4-0.2,0.6-0.4,0.6-0.7c0-0.1-0.1-0.6-0.4-1.3l-1-2.7h-4.6l-1,2.7
			c-0.2,0.5-0.3,1-0.3,1.2c0,0.4,0.1,0.6,0.5,0.7h-3.1c0.4-0.2,0.7-0.6,1-1c0.1-0.2,0.4-0.8,0.7-1.8l3.1-7.9
			c0.2-0.5,0.3-0.9,0.3-1.1c0-0.4-0.1-0.6-0.4-0.7l2.7-0.1l3.8,9.8c0.4,1.1,0.7,1.7,0.7,1.8c0.2,0.4,0.6,0.7,1,1H153.6z
			 M150.4,149.5l-1.8,4.9h3.7L150.4,149.5z"/>
		<path id="XMLID_116_" class="st0" d="M169.4,160.5H162c0.5-0.3,0.7-1,0.7-2.2v-8.1c0-1.2-0.2-1.9-0.7-2.1h3.3
			c-0.4,0.3-0.7,1-0.7,2.1v8.8l2.5,0.2c1.2,0.1,2.2-0.3,3.2-1.1L169.4,160.5z"/>
		<path id="XMLID_118_" class="st0" d="M180.5,160.4c-0.4,0.1-1.2,0.1-2.4,0.1h-2.9c0.5-0.3,0.7-1,0.7-2.2v-8.2c0-1.1-0.2-1.8-0.7-2
			l4.2-0.1c1,0,1.9,0.1,2.6,0.6c0.8,0.5,1.2,1.2,1.2,2.2c0,1.1-0.7,1.9-1.9,2.5c0.9,0.2,1.6,0.6,2.1,1.1c0.6,0.6,0.9,1.3,0.9,2.3
			c0,0.7-0.2,1.3-0.6,1.9C183.1,159.5,182,160.2,180.5,160.4z M181.3,151c0-0.4-0.1-0.7-0.1-0.9s-0.2-0.4-0.4-0.6
			c-0.2-0.1-0.4-0.2-0.6-0.3c-0.2-0.1-0.4-0.1-0.8-0.1s-0.6,0-0.7,0s-0.4,0.1-0.8,0.1v3.8h0.7c0.8,0,1.4-0.1,1.9-0.4
			C181,152.3,181.3,151.7,181.3,151z M181.5,154.8c-0.7-0.5-1.5-0.7-2.3-0.7l-1.3,0.1v4.8c1.2,0.1,1.9,0.2,2,0.2
			c0.8,0,1.5-0.2,1.9-0.7c0.5-0.4,0.7-1,0.7-1.8C182.4,155.9,182.1,155.3,181.5,154.8z"/>
		<path id="XMLID_122_" class="st0" d="M198.4,160.5c0.4-0.2,0.6-0.4,0.6-0.7c0-0.1-0.1-0.6-0.4-1.3l-1-2.7h-4.7l-1,2.7
			c-0.2,0.5-0.3,1-0.3,1.2c0,0.4,0.1,0.6,0.5,0.7H189c0.4-0.2,0.7-0.6,1-1c0.1-0.2,0.4-0.8,0.7-1.8l3.1-7.9c0.2-0.5,0.3-0.9,0.3-1.1
			c0-0.4-0.1-0.6-0.4-0.7l2.7-0.1l3.8,9.8c0.4,1.1,0.7,1.7,0.7,1.8c0.2,0.4,0.6,0.7,1,1H198.4z M195.2,149.5l-1.8,4.9h3.7
			L195.2,149.5z"/>
		<path id="XMLID_125_" class="st0" d="M214.2,150c-0.2-0.4-0.8-0.7-1.6-0.7h-1.7v8.8c0,0.7,0.1,1.2,0.1,1.5
			c0.1,0.4,0.4,0.7,0.7,0.9h-3.4c0.4-0.3,0.7-1,0.7-2.1v-9h-1.6c-0.9,0-1.6,0.2-2.1,0.7l0.6-2.1c0,0,0.1,0,0.3,0.1
			c0.1,0,0.3,0.1,0.4,0.1h7.3c0.3,0,0.6-0.1,0.8-0.1L214.2,150z"/>
		<path id="XMLID_127_" class="st0" d="M226.5,160.5H219c0.5-0.3,0.7-1,0.7-2.2v-8.1c0-1.2-0.2-1.9-0.7-2.1l6.1-0.1
			c0.2,0,0.4,0,0.5-0.1l0.1,2.1c-0.4-0.5-1.2-0.7-2.2-0.7c-0.7,0-1.3,0.1-1.9,0.1v3.6h2.2c0.4,0,0.6,0,0.8-0.1l0.1,1.9
			c-0.2-0.3-0.8-0.4-1.7-0.4h-1.4v4.5c1.5,0.1,2.4,0.3,2.8,0.3c1.2,0,2.1-0.4,2.9-1.1L226.5,160.5z"/>
		<path id="XMLID_129_" class="st0" d="M239.9,160.5h-7.5c0.5-0.3,0.7-1,0.7-2.2v-8.1c0-1.2-0.2-1.9-0.7-2.1l6.1-0.1
			c0.2,0,0.4,0,0.5-0.1l0.1,2.1c-0.4-0.5-1.2-0.7-2.2-0.7c-0.7,0-1.3,0.1-1.9,0.1v3.6h2.2c0.4,0,0.6,0,0.8-0.1l0.1,1.9
			c-0.2-0.3-0.8-0.4-1.7-0.4h-1.4v4.5c1.5,0.1,2.4,0.3,2.8,0.3c1.2,0,2.1-0.4,2.9-1.1L239.9,160.5z"/>
		<path id="XMLID_131_" class="st0" d="M253.1,160.5h-7.4c0.5-0.3,0.7-1,0.7-2.2v-8.1c0-1.2-0.2-1.9-0.7-2.1h3.3
			c-0.4,0.3-0.7,1-0.7,2.1v8.8l2.5,0.2c1.2,0.1,2.2-0.3,3.2-1.1L253.1,160.5z"/>
	</g>
	<g id="XMLID_35_">
		<path id="XMLID_42_" class="st0" d="M148.5,170.8c-0.4,0-0.7-0.1-1-0.4l-1-1.3l-0.7-1.2c1-0.1,1.5-0.6,1.5-1.2
			c0-0.3-0.1-0.5-0.3-0.7c-0.2-0.1-0.4-0.2-0.7-0.2c-0.1,0-0.3,0-0.6,0.1v4.1c0,0.5,0.1,0.9,0.3,1h-1.5c0.2-0.1,0.3-0.4,0.3-1v-3.7
			c0-0.5-0.1-0.8-0.3-0.9h1.9c0.4,0,0.9,0.1,1.2,0.3c0.4,0.2,0.5,0.6,0.5,1c0,0.4-0.1,0.7-0.4,1s-0.6,0.4-1,0.5l1.2,1.5
			c0.3,0.4,0.7,0.8,1.3,1.2L148.5,170.8L148.5,170.8z"/>
		<path id="XMLID_44_" class="st0" d="M153.4,170.8H150c0.2-0.1,0.3-0.4,0.3-1v-3.7c0-0.5-0.1-0.9-0.3-1h2.8c0.1,0,0.1,0,0.2,0v1
			c-0.2-0.2-0.5-0.3-1-0.3c-0.3,0-0.6,0-0.9,0.1v1.6h1c0.1,0,0.3,0,0.4-0.1v0.9c-0.1-0.1-0.4-0.2-0.7-0.2h-0.6v2.1
			c0.7,0.1,1.1,0.1,1.2,0.1c0.5,0,1-0.1,1.3-0.5L153.4,170.8z"/>
		<path id="XMLID_46_" class="st0" d="M159.3,170.8c0.1-0.1,0.3-0.2,0.3-0.3s-0.1-0.3-0.2-0.6l-0.4-1.2h-2.1l-0.4,1.2
			c-0.1,0.2-0.1,0.4-0.1,0.6s0.1,0.3,0.2,0.4h-1.4c0.1-0.1,0.3-0.3,0.4-0.4c0.1-0.1,0.1-0.4,0.4-0.8l1.4-3.6
			c0.1-0.2,0.1-0.4,0.1-0.5s-0.1-0.2-0.2-0.3h1.2l1.8,4.4c0.2,0.5,0.3,0.7,0.4,0.8c0.1,0.1,0.2,0.3,0.4,0.4L159.3,170.8L159.3,170.8
			z M157.9,165.8l-0.8,2.2h1.6L157.9,165.8z"/>
		<path id="XMLID_74_" class="st0" d="M165.9,170.8h-3.4c0.2-0.1,0.3-0.4,0.3-1v-3.7c0-0.5-0.1-0.9-0.3-1h1.5
			c-0.2,0.1-0.3,0.4-0.3,1v4l1.1,0.1c0.5,0.1,1-0.1,1.5-0.5L165.9,170.8z"/>
		<path id="XMLID_76_" class="st0" d="M174.7,170.8h-3.4c0.2-0.1,0.3-0.4,0.3-1v-3.7c0-0.5-0.1-0.9-0.3-1h2.8c0.1,0,0.1,0,0.2,0v1
			c-0.2-0.2-0.5-0.3-1-0.3c-0.3,0-0.6,0-0.9,0.1v1.6h1c0.1,0,0.3,0,0.4-0.1v0.9c-0.1-0.1-0.4-0.2-0.7-0.2h-0.6v2.1
			c0.7,0.1,1.1,0.1,1.2,0.1c0.5,0,1-0.1,1.3-0.5L174.7,170.8z"/>
		<path id="XMLID_78_" class="st0" d="M178.2,170.9c-0.5,0-1-0.1-1.5-0.2l-0.2-1c0.5,0.4,1.1,0.7,1.8,0.7c0.3,0,0.6-0.1,0.8-0.2
			c0.3-0.1,0.4-0.4,0.4-0.7c0-0.3-0.2-0.6-0.7-1c-0.1-0.1-0.5-0.3-1.4-0.7c-0.5-0.4-0.7-0.7-0.7-1.2c0-0.5,0.2-0.9,0.7-1.2
			c0.4-0.2,0.8-0.3,1.4-0.3c0.4,0,0.9,0.1,1.2,0.2v1c-0.4-0.4-0.8-0.5-1.3-0.5c-0.7,0-1.1,0.3-1.1,0.8c0,0.3,0.2,0.6,0.7,0.9
			c0.1,0.1,0.6,0.3,1.4,0.7c0.5,0.3,0.7,0.7,0.7,1.2c0,0.5-0.2,1-0.7,1.3C179.3,170.7,178.8,170.9,178.2,170.9z"/>
		<path id="XMLID_80_" class="st0" d="M185.6,166c-0.1-0.2-0.4-0.3-0.7-0.3h-0.7v4c0,0.4,0,0.6,0.1,0.7c0.1,0.1,0.1,0.3,0.4,0.4
			h-1.6c0.2-0.1,0.3-0.4,0.3-1v-4h-0.7c-0.4,0-0.7,0.1-1,0.3l0.2-1c0,0,0.1,0,0.1,0s0.1,0,0.2,0.1h3.3c0.1,0,0.3,0,0.4-0.1
			L185.6,166z"/>
		<path id="XMLID_82_" class="st0" d="M191.1,170.8c0.1-0.1,0.3-0.2,0.3-0.3s-0.1-0.3-0.2-0.6l-0.4-1.2h-2.1l-0.4,1.2
			c-0.1,0.2-0.1,0.4-0.1,0.6s0.1,0.3,0.2,0.4h-1.4c0.1-0.1,0.3-0.3,0.4-0.4c0.1-0.1,0.1-0.4,0.4-0.8l1.4-3.6
			c0.1-0.2,0.1-0.4,0.1-0.5s-0.1-0.2-0.2-0.3h1.2l1.8,4.4c0.2,0.5,0.3,0.7,0.4,0.8c0.1,0.1,0.2,0.3,0.4,0.4L191.1,170.8L191.1,170.8
			z M189.6,165.8l-0.8,2.2h1.7L189.6,165.8z"/>
		<path id="XMLID_85_" class="st0" d="M197.6,166c-0.1-0.2-0.4-0.3-0.7-0.3h-0.7v4c0,0.4,0,0.6,0.1,0.7c0.1,0.1,0.1,0.3,0.4,0.4H195
			c0.2-0.1,0.3-0.4,0.3-1v-4h-0.7c-0.4,0-0.7,0.1-1,0.3l0.2-1c0,0,0.1,0,0.1,0c0.1,0,0.1,0,0.2,0.1h3.3c0.1,0,0.3,0,0.4-0.1
			L197.6,166z"/>
		<path id="XMLID_87_" class="st0" d="M202.5,170.8h-3.4c0.2-0.1,0.3-0.4,0.3-1v-3.7c0-0.5-0.1-0.9-0.3-1h2.8c0.1,0,0.1,0,0.2,0v1
			c-0.2-0.2-0.5-0.3-1-0.3c-0.3,0-0.6,0-0.9,0.1v1.6h1c0.1,0,0.3,0,0.4-0.1v0.9c-0.1-0.1-0.4-0.2-0.7-0.2h-0.6v2.1
			c0.7,0.1,1.1,0.1,1.2,0.1c0.5,0,1-0.1,1.3-0.5L202.5,170.8z"/>
		<path id="XMLID_89_" class="st0" d="M212.6,169.7l-0.4,1c-0.4,0.1-0.8,0.2-1.2,0.2c-1,0-1.7-0.2-2.3-0.7c-0.6-0.5-0.9-1.2-0.9-2.2
			c0-0.9,0.3-1.6,0.8-2.1c0.5-0.5,1.2-0.8,2.1-0.8c0.4,0,1,0.1,1.5,0.2v1c-0.5-0.3-1-0.5-1.5-0.5c-0.6,0-1.1,0.2-1.5,0.7
			c-0.4,0.4-0.5,0.9-0.5,1.5c0,0.7,0.2,1.2,0.6,1.7c0.4,0.5,1,0.7,1.5,0.7C211.4,170.2,212,170.1,212.6,169.7z"/>
		<path id="XMLID_91_" class="st0" d="M216.9,170.9c-0.9,0-1.6-0.3-2.1-0.8c-0.6-0.6-0.9-1.2-0.9-2.1c0-0.9,0.3-1.5,0.9-2.1
			c0.6-0.6,1.3-0.8,2.2-0.8c0.8,0,1.5,0.3,2.1,0.8s0.9,1.2,0.9,2.1c0,0.9-0.3,1.5-0.9,2.1C218.5,170.7,217.8,170.9,216.9,170.9z
			 M217,165.6c-0.7,0-1.2,0.2-1.5,0.7s-0.6,1-0.6,1.6c0,0.7,0.2,1.2,0.6,1.7c0.4,0.5,1,0.8,1.5,0.8c0.7,0,1.2-0.2,1.5-0.7
			c0.4-0.4,0.5-1,0.5-1.6c0-0.7-0.1-1.2-0.5-1.7C218.1,165.9,217.6,165.6,217,165.6z"/>
		<path id="XMLID_94_" class="st0" d="M227.2,170.8c0.2-0.1,0.3-0.3,0.3-0.7l-0.4-4.2l-1.8,5c-0.2-0.1-0.4-0.3-0.4-0.4
			c-0.1-0.1-0.1-0.3-0.3-0.6l-1.6-3.9l-0.5,3.7c0,0.3-0.1,0.4-0.1,0.5c0,0.2,0.1,0.4,0.3,0.5h-1.2c0.1-0.1,0.3-0.4,0.3-0.6
			c0-0.1,0.1-0.3,0.1-0.7l0.4-3.6c0-0.1,0-0.3,0-0.3c0-0.2-0.1-0.4-0.2-0.4h1.4c0,0.1,0.1,0.2,0.1,0.4l1.5,3.8l1.4-3.7
			c0.1-0.2,0.1-0.4,0.1-0.5h1.4c-0.1,0.1-0.2,0.3-0.2,0.5l0.5,4.3c0.1,0.3,0.1,0.4,0.1,0.5c0.1,0.1,0.1,0.3,0.3,0.4L227.2,170.8
			L227.2,170.8z"/>
		<path id="XMLID_96_" class="st0" d="M232.4,168.2c-0.2,0-0.4,0-0.6-0.1c0.4,0,0.7-0.1,1-0.4s0.4-0.6,0.4-1s-0.1-0.6-0.3-0.8
			c-0.2-0.1-0.5-0.3-0.9-0.3c-0.2,0-0.4,0-0.6,0.1v3.9c0,0.3,0,0.5,0.1,0.6c0.1,0.2,0.1,0.4,0.4,0.4h-1.5c0.2-0.1,0.3-0.4,0.3-1V166
			c0-0.5-0.1-0.9-0.3-1h2c0.5,0,1,0.1,1.3,0.4c0.4,0.3,0.6,0.7,0.6,1.2s-0.2,0.9-0.6,1.2C233.3,168.1,232.8,168.2,232.4,168.2z"/>
		<path id="XMLID_98_" class="st0" d="M239.6,170.8c0.1-0.1,0.3-0.2,0.3-0.3s-0.1-0.3-0.2-0.6l-0.4-1.2h-2.1l-0.4,1.2
			c-0.1,0.2-0.1,0.4-0.1,0.6s0.1,0.3,0.2,0.4h-1.4c0.1-0.1,0.3-0.3,0.4-0.4c0.1-0.1,0.1-0.4,0.4-0.8l1.4-3.6
			c0.1-0.2,0.1-0.4,0.1-0.5s-0.1-0.2-0.2-0.3h1.2l1.8,4.4c0.2,0.5,0.3,0.7,0.4,0.8c0.1,0.1,0.2,0.3,0.4,0.4L239.6,170.8L239.6,170.8
			z M238.2,165.8l-0.8,2.2h1.7L238.2,165.8z"/>
		<path id="XMLID_102_" class="st0" d="M247.8,166.3v4.8c-0.3-0.1-0.5-0.2-0.7-0.4c-0.1-0.1-0.3-0.3-0.5-0.6l-2.9-3.7v3.4
			c0,0.3,0,0.5,0.1,0.7c0.1,0.2,0.1,0.4,0.4,0.4h-1.4c0.1-0.1,0.3-0.3,0.4-0.5c0-0.1,0.1-0.3,0.1-0.6v-3.4c0-0.4,0-0.6-0.1-0.7
			s-0.1-0.3-0.4-0.4h1.2c0,0.1,0.1,0.1,0.1,0.2l0.1,0.1l3.1,4v-3.3c0-0.3,0-0.5-0.1-0.7c-0.1-0.2-0.1-0.4-0.4-0.4h1.4
			c-0.1,0.1-0.3,0.3-0.4,0.5C247.8,165.8,247.8,166,247.8,166.3z"/>
		<path id="XMLID_104_" class="st0" d="M252.2,168.3v1.4c0,0.3,0,0.5,0.1,0.7s0.1,0.3,0.4,0.4h-1.5c0.2-0.1,0.3-0.4,0.3-1v-1.5
			L250,166c-0.3-0.4-0.5-0.7-0.7-0.9h0.7c0.3,0,0.5,0.1,0.6,0.2l1.3,2.3l1-1.6c0.1-0.1,0.1-0.3,0.1-0.4c0-0.2-0.1-0.4-0.2-0.4h1.4
			L252.2,168.3z"/>
	</g>
	<path id="XMLID_7902_" class="st1" d="M151,31v95.3h96V31H151z M162.3,66.7h11.6c0,0,9.2,0.1,9.2,8.9c0,10.5-8.9,10.5-8.9,10.5
		h-11.9V66.7z M178.3,114.9l-15.8,0.1l0,0V93.8h13c0,0,12.4-0.1,12.9,9.9C188.8,113.8,178.3,114.9,178.3,114.9z M235.7,115h-41.4
		c3.8-4.7,3.5-10.8,3.5-10.8c0-10.1-10.3-14.4-13.7-15.5c-0.4-0.1-0.4-0.6-0.1-0.8c8.6-4.3,7.6-13.8,7.6-13.8
		c-0.8-14.3-15.1-14.8-15.1-14.8h-14.2V42.2h73.4V115z"/>
</g>
</svg>
