<?xml version="1.0" encoding="utf-8"?>
<!-- Generator: Adobe Illustrator 23.0.1, SVG Export Plug-In . SVG Version: 6.00 Build 0)  -->
<svg version="1.1" id="Layer_1" xmlns="http://www.w3.org/2000/svg" xmlns:xlink="http://www.w3.org/1999/xlink" x="0px" y="0px"
	 viewBox="0 0 400 200" style="enable-background:new 0 0 400 200;" xml:space="preserve">
<style type="text/css">
	.st0{clip-path:url(#SVGID_2_);fill:#2B2A7F;}
	.st1{clip-path:url(#SVGID_4_);fill:#2B2A7F;}
	.st2{clip-path:url(#SVGID_6_);fill:#2B2A7F;}
	.st3{clip-path:url(#SVGID_8_);fill:#2B2A7F;}
	.st4{clip-path:url(#SVGID_10_);fill:#2B2A7F;}
	.st5{clip-path:url(#SVGID_12_);fill:#2B2A7F;}
	.st6{clip-path:url(#SVGID_14_);fill:#2B2A7F;}
	.st7{clip-path:url(#SVGID_16_);fill:#2B2A7F;}
	.st8{clip-path:url(#SVGID_18_);fill:#2B2A7F;}
	.st9{clip-path:url(#SVGID_20_);fill:#2B2A7F;}
	.st10{clip-path:url(#SVGID_22_);fill:#2B2A7F;}
	.st11{clip-path:url(#SVGID_24_);fill:#2B2A7F;}
	.st12{clip-path:url(#SVGID_26_);fill:#2B2A7F;}
	.st13{clip-path:url(#SVGID_28_);fill:#2B2A7F;}
	.st14{clip-path:url(#SVGID_30_);fill:#2B2A7F;}
	.st15{clip-path:url(#SVGID_32_);fill:#2B2A7F;}
	.st16{clip-path:url(#SVGID_34_);fill:#2B2A7F;}
	.st17{clip-path:url(#SVGID_36_);fill:#2B2A7F;}
	.st18{clip-path:url(#SVGID_38_);fill:#2B2A7F;}
	.st19{clip-path:url(#SVGID_40_);fill:#2B2A7F;}
	.st20{clip-path:url(#SVGID_42_);fill:#2B2A7F;}
	.st21{clip-path:url(#SVGID_44_);fill:#2B2A7F;}
	.st22{clip-path:url(#SVGID_46_);fill:#2B2A7F;}
	.st23{clip-path:url(#SVGID_48_);fill:#2B2A7F;}
	.st24{clip-path:url(#SVGID_50_);fill:#2B2A7F;}
	.st25{clip-path:url(#SVGID_52_);fill:#2B2A7F;}
	.st26{clip-path:url(#SVGID_54_);fill:#2B2A7F;}
	.st27{clip-path:url(#SVGID_56_);fill:#2B2A7F;}
	.st28{clip-path:url(#SVGID_58_);fill:#2B2A7F;}
	.st29{clip-path:url(#SVGID_60_);fill:#2B2A7F;}
	.st30{clip-path:url(#SVGID_62_);fill:#2B2A7F;}
	.st31{clip-path:url(#SVGID_64_);fill:#F7323F;}
	.st32{clip-path:url(#SVGID_66_);fill:#2B2A7F;}
	.st33{clip-path:url(#SVGID_68_);fill:#E63329;}
	.st34{clip-path:url(#SVGID_70_);fill:#2B2A7F;}
	.st35{clip-path:url(#SVGID_72_);fill:#0070BA;}
	.st36{clip-path:url(#SVGID_74_);fill:#2B2A7F;}
	.st37{clip-path:url(#SVGID_76_);fill:#B20E10;}
	.st38{clip-path:url(#SVGID_78_);fill:#E42313;}
</style>
<g>
	<g>
		<defs>
			<rect id="SVGID_1_" x="90" y="47.6" width="220" height="104.9"/>
		</defs>
		<clipPath id="SVGID_2_">
			<use xlink:href="#SVGID_1_"  style="overflow:visible;"/>
		</clipPath>
		<path class="st0" d="M198.6,64.1c-0.4,0-0.8-0.1-1.2-0.1c-0.4,0-0.8,0-1.2,0.1c-0.7-1.9-1.5-4.1-2.4-6.2h-5.8
			c-0.8,2-1.6,4-2.3,6.2c-0.3,0-0.6-0.1-0.8-0.1c-0.3,0-0.5,0-0.8,0.1l7.1-15.9h0.5L198.6,64.1z M191,51.2l-2.5,5.8h5L191,51.2z"/>
	</g>
	<g>
		<defs>
			<rect id="SVGID_3_" x="90" y="47.6" width="220" height="104.9"/>
		</defs>
		<clipPath id="SVGID_4_">
			<use xlink:href="#SVGID_3_"  style="overflow:visible;"/>
		</clipPath>
		<path class="st1" d="M216.3,48.6c0.6,5.6,1.2,11.2,1.9,15.6c-0.4,0-0.7-0.1-1.1-0.1c-0.4,0-0.7,0-1.1,0.1
			c-0.4-4.6-0.8-9.5-1.2-11.8c-2.6,4.7-4.6,8.4-6,11.5h-0.3l-1.2-2.6c-1.5-3-3.1-6-4.6-8.9c-0.5,4.4-1.1,9-1.1,11.8
			c-0.3,0-0.5-0.1-0.8-0.1c-0.3,0-0.5,0-0.8,0.1c0.6-3.7,2-13.2,2.2-15.6h0.6c1.8,3.6,4,7.9,6.4,11.9c2.2-3.9,4.3-7.9,6.6-11.9
			H216.3z"/>
	</g>
	<g>
		<defs>
			<rect id="SVGID_5_" x="90" y="47.6" width="220" height="104.9"/>
		</defs>
		<clipPath id="SVGID_6_">
			<use xlink:href="#SVGID_5_"  style="overflow:visible;"/>
		</clipPath>
		<path class="st2" d="M223.3,55.3h3.5c0.7,0,1.4-0.1,2-0.1c0,0.2-0.1,0.4-0.1,0.6c0,0.2,0,0.4,0.1,0.6c-0.7,0-1.3-0.1-2-0.1h-3.5
			V63c1.4,0,2.8,0,4.1-0.1c0.7,0,1.4-0.1,2.1-0.2c0,0.2-0.1,0.5-0.1,0.7c0,0.2,0,0.5,0.1,0.7h-8.2V48.6h8.1c0,0.2-0.1,0.5-0.1,0.7
			c0,0.2,0,0.4,0.1,0.7c-0.7-0.1-1.4-0.2-2-0.2l-2.3,0h-1.8V55.3z"/>
	</g>
	<g>
		<defs>
			<rect id="SVGID_7_" x="90" y="47.6" width="220" height="104.9"/>
		</defs>
		<clipPath id="SVGID_8_">
			<use xlink:href="#SVGID_7_"  style="overflow:visible;"/>
		</clipPath>
		<path class="st3" d="M232.7,48.6h4.8c3.5,0,5,1.2,5,3.5c0,2.6-2.4,3.9-4.7,4.3l4.7,5.9l1.1,1.3l0.4,0.6c-0.5,0-0.9-0.1-1.3-0.1
			c-0.4,0-0.9,0-1.3,0.1c-0.5-0.7-1-1.3-1.4-2l-2.7-3.5l-1.8-2.1h-0.9v7.6c-0.4,0-0.7-0.1-1-0.1c-0.3,0-0.7,0-1,0.1L232.7,48.6
			L232.7,48.6z M234.7,55.7c0.3,0,1.8,0.1,2.9-0.1c1.7-0.3,2.9-1.5,2.9-3.3c0-1.6-0.8-2.6-2.5-2.9c-0.8-0.1-2.4-0.1-3.3,0V55.7z"/>
	</g>
	<g>
		<defs>
			<rect id="SVGID_9_" x="90" y="47.6" width="220" height="104.9"/>
		</defs>
		<clipPath id="SVGID_10_">
			<use xlink:href="#SVGID_9_"  style="overflow:visible;"/>
		</clipPath>
		<path class="st4" d="M246.7,48.6c0.3,0,0.7,0.1,1,0.1c0.3,0,0.6,0,1-0.1v15.6c-0.4,0-0.7-0.1-1-0.1c-0.3,0-0.7,0-1,0.1V48.6z"/>
	</g>
	<g>
		<defs>
			<rect id="SVGID_11_" x="90" y="47.6" width="220" height="104.9"/>
		</defs>
		<clipPath id="SVGID_12_">
			<use xlink:href="#SVGID_11_"  style="overflow:visible;"/>
		</clipPath>
		<path class="st5" d="M264.8,63.1c-1.4,1-3.3,1.3-5,1.3c-5,0-8-3.2-8-8.2c0-5.1,3.8-8,8.6-8c1.7,0,3.4,0.4,4.9,1
			c-0.2,0.6-0.4,1.2-0.5,1.8l-0.2,0c-0.3-0.4-2-2-4.4-2c-4.2,0-6.3,3.4-6.3,7.3c0,4.4,2.5,7.2,6.1,7.2c2.5,0,4.4-1.5,4.8-1.8
			L264.8,63.1z"/>
	</g>
	<g>
		<defs>
			<rect id="SVGID_13_" x="90" y="47.6" width="220" height="104.9"/>
		</defs>
		<clipPath id="SVGID_14_">
			<use xlink:href="#SVGID_13_"  style="overflow:visible;"/>
		</clipPath>
		<path class="st6" d="M279.9,64.1c-0.4,0-0.8-0.1-1.2-0.1c-0.4,0-0.8,0-1.2,0.1c-0.7-1.9-1.5-4.1-2.4-6.2h-5.8
			c-0.8,2-1.6,4-2.3,6.2c-0.3,0-0.6-0.1-0.8-0.1c-0.3,0-0.5,0-0.8,0.1l7.1-15.9h0.5L279.9,64.1z M272.2,51.2l-2.5,5.8h5L272.2,51.2z
			"/>
	</g>
	<g>
		<defs>
			<rect id="SVGID_15_" x="90" y="47.6" width="220" height="104.9"/>
		</defs>
		<clipPath id="SVGID_16_">
			<use xlink:href="#SVGID_15_"  style="overflow:visible;"/>
		</clipPath>
		<path class="st7" d="M295.7,64.1H295c-0.2-0.3-0.7-0.9-1.2-1.4L284,51.9h-0.2v12.3c-0.2,0-0.4-0.1-0.6-0.1c-0.2,0-0.4,0-0.6,0.1
			V48.6h0.9l10.8,11.7h0.2V48.6c0.2,0,0.4,0.1,0.6,0.1c0.2,0,0.4,0,0.6-0.1V64.1z"/>
	</g>
	<g>
		<defs>
			<rect id="SVGID_17_" x="90" y="47.6" width="220" height="104.9"/>
		</defs>
		<clipPath id="SVGID_18_">
			<use xlink:href="#SVGID_17_"  style="overflow:visible;"/>
		</clipPath>
		<path class="st8" d="M184.8,82.7c0.9,1.5,1.9,2.4,3.7,2.4c1.8,0,3.2-1.5,3.2-3.3c0-4.2-7.1-2.4-7.1-7.5c0-2.9,2.3-4.4,5.1-4.4
			c1.1,0,2.4,0.3,3.3,1.1c-0.3,0.6-0.4,1.2-0.6,1.9H192c-0.5-1.2-1.5-2-2.8-2c-1.6,0-2.9,1-2.9,2.7c0,4.2,7.2,2.5,7.2,7.4
			c0,3.3-2.5,5.2-5.6,5.2c-1.1,0-2.9-0.5-3.7-1.3c0.2-0.7,0.3-1.3,0.4-2H184.8z"/>
	</g>
	<g>
		<defs>
			<rect id="SVGID_19_" x="90" y="47.6" width="220" height="104.9"/>
		</defs>
		<clipPath id="SVGID_20_">
			<use xlink:href="#SVGID_19_"  style="overflow:visible;"/>
		</clipPath>
		<path class="st9" d="M208.5,84.8c-1.4,1-3.3,1.3-5,1.3c-5,0-8-3.2-8-8.2c0-5.1,3.8-8,8.6-8c1.7,0,3.4,0.4,4.9,1
			c-0.2,0.6-0.4,1.2-0.5,1.8l-0.2,0c-0.3-0.4-2-2-4.4-2c-4.2,0-6.3,3.4-6.3,7.3c0,4.4,2.5,7.2,6.1,7.2c2.5,0,4.4-1.5,4.8-1.8
			L208.5,84.8z"/>
	</g>
	<g>
		<defs>
			<rect id="SVGID_21_" x="90" y="47.6" width="220" height="104.9"/>
		</defs>
		<clipPath id="SVGID_22_">
			<use xlink:href="#SVGID_21_"  style="overflow:visible;"/>
		</clipPath>
		<path class="st10" d="M223.4,70.2c0.3,0,0.7,0.1,1,0.1c0.3,0,0.6,0,1-0.1v15.6c-0.4,0-0.7-0.1-1-0.1c-0.3,0-0.7,0-1,0.1V78
			c-1.6,0-3.2-0.1-4.8-0.1c-1.6,0-3.2,0.1-4.8,0.1v7.8c-0.4,0-0.7-0.1-1-0.1c-0.3,0-0.7,0-1,0.1V70.2c0.3,0,0.7,0.1,1,0.1
			c0.3,0,0.6,0,1-0.1v6.5c1.6,0,3.2,0.1,4.8,0.1c1.6,0,3.2-0.1,4.8-0.1L223.4,70.2L223.4,70.2z"/>
	</g>
	<g>
		<defs>
			<rect id="SVGID_23_" x="90" y="47.6" width="220" height="104.9"/>
		</defs>
		<clipPath id="SVGID_24_">
			<use xlink:href="#SVGID_23_"  style="overflow:visible;"/>
		</clipPath>
		<path class="st11" d="M228.4,78c0-5,3.7-8.1,8.4-8.1c4.3,0,8.6,2.3,8.6,7.8c0,5.1-3.6,8.4-8.7,8.4C231.7,86.1,228.4,82.9,228.4,78
			 M241.8,72.8c-1.1-1.4-2.9-2.2-4.7-2.2c-4,0-6.4,3-6.4,7.6c0,4.6,2.8,7,6.2,7c4.8,0,6.5-5,6.4-7.5C243.2,75.9,243,74.3,241.8,72.8
			"/>
	</g>
	<g>
		<defs>
			<rect id="SVGID_25_" x="90" y="47.6" width="220" height="104.9"/>
		</defs>
		<clipPath id="SVGID_26_">
			<use xlink:href="#SVGID_25_"  style="overflow:visible;"/>
		</clipPath>
		<path class="st12" d="M247.4,78c0-5,3.7-8.1,8.4-8.1c4.3,0,8.6,2.3,8.6,7.8c0,5.1-3.6,8.4-8.7,8.4C250.7,86.1,247.4,82.9,247.4,78
			 M260.7,72.8c-1.1-1.4-2.9-2.2-4.7-2.2c-4,0-6.4,3-6.4,7.6c0,4.6,2.8,7,6.2,7c4.8,0,6.5-5,6.4-7.5
			C262.2,75.9,261.9,74.3,260.7,72.8"/>
	</g>
	<g>
		<defs>
			<rect id="SVGID_27_" x="90" y="47.6" width="220" height="104.9"/>
		</defs>
		<clipPath id="SVGID_28_">
			<use xlink:href="#SVGID_27_"  style="overflow:visible;"/>
		</clipPath>
		<path class="st13" d="M269.4,84.6c1.4,0,2.8,0,4.1-0.1c0.7,0,1.4-0.1,2.2-0.2c0,0.2-0.1,0.5-0.1,0.7c0,0.2,0,0.5,0.1,0.7h-8.3
			V70.2c0.3,0,0.7,0.1,1,0.1c0.3,0,0.6,0,1-0.1L269.4,84.6L269.4,84.6z"/>
	</g>
	<g>
		<defs>
			<rect id="SVGID_29_" x="90" y="47.6" width="220" height="104.9"/>
		</defs>
		<clipPath id="SVGID_30_">
			<use xlink:href="#SVGID_29_"  style="overflow:visible;"/>
		</clipPath>
		<path class="st14" d="M281.9,78c0-5,3.7-8.1,8.4-8.1c4.3,0,8.6,2.3,8.6,7.8c0,5.1-3.6,8.4-8.7,8.4C285.2,86.1,281.9,82.9,281.9,78
			 M295.3,72.8c-1.1-1.4-2.9-2.2-4.7-2.2c-4,0-6.4,3-6.4,7.6c0,4.6,2.8,7,6.2,7c4.8,0,6.5-5,6.4-7.5
			C296.7,75.9,296.5,74.3,295.3,72.8"/>
	</g>
	<g>
		<defs>
			<rect id="SVGID_31_" x="90" y="47.6" width="220" height="104.9"/>
		</defs>
		<clipPath id="SVGID_32_">
			<use xlink:href="#SVGID_31_"  style="overflow:visible;"/>
		</clipPath>
		<path class="st15" d="M301.9,70.2h8.1c0,0.2-0.1,0.5-0.1,0.7c0,0.2,0,0.5,0.1,0.7c-0.7-0.1-1.4-0.2-2-0.2l-2.3-0.1h-1.7V77h3.5
			c0.7,0,1.3-0.1,2-0.1c0,0.2-0.1,0.4-0.1,0.6c0,0.2,0,0.4,0.1,0.6c-0.7,0-1.3-0.1-2-0.1h-3.5v7.8c-0.4,0-0.7-0.1-1-0.1
			c-0.3,0-0.7,0-1,0.1V70.2z"/>
	</g>
	<g>
		<defs>
			<rect id="SVGID_33_" x="90" y="47.6" width="220" height="104.9"/>
		</defs>
		<clipPath id="SVGID_34_">
			<use xlink:href="#SVGID_33_"  style="overflow:visible;"/>
		</clipPath>
		<path class="st16" d="M197.2,106.3c-1.4,1-3.3,1.3-5,1.3c-5,0-8-3.2-8-8.2c0-5.1,3.8-8,8.6-8c1.7,0,3.4,0.4,4.9,1
			c-0.2,0.6-0.4,1.2-0.5,1.8l-0.2,0c-0.3-0.4-2-2-4.4-2c-4.2,0-6.3,3.4-6.3,7.3c0,4.4,2.5,7.2,6.1,7.2c2.5,0,4.4-1.5,4.8-1.8
			L197.2,106.3z"/>
	</g>
	<g>
		<defs>
			<rect id="SVGID_35_" x="90" y="47.6" width="220" height="104.9"/>
		</defs>
		<clipPath id="SVGID_36_">
			<use xlink:href="#SVGID_35_"  style="overflow:visible;"/>
		</clipPath>
		<path class="st17" d="M200.6,91.7h4.8c3.5,0,5.1,1.2,5.1,3.5c0,2.6-2.4,3.9-4.7,4.3l4.7,6l1.1,1.3l0.4,0.6c-0.5,0-0.9-0.1-1.3-0.1
			c-0.4,0-0.9,0-1.3,0.1c-0.5-0.7-1-1.4-1.4-2l-2.7-3.5l-1.8-2.1h-0.9v7.6c-0.4,0-0.7-0.1-1-0.1c-0.3,0-0.7,0-1,0.1V91.7z
			 M202.6,98.8c0.3,0,1.8,0.1,2.9-0.1c1.7-0.3,2.9-1.5,2.9-3.3c0-1.6-0.8-2.6-2.5-2.9c-0.8-0.1-2.4-0.1-3.3,0V98.8z"/>
	</g>
	<g>
		<defs>
			<rect id="SVGID_37_" x="90" y="47.6" width="220" height="104.9"/>
		</defs>
		<clipPath id="SVGID_38_">
			<use xlink:href="#SVGID_37_"  style="overflow:visible;"/>
		</clipPath>
		<path class="st18" d="M216.4,98.5h3.5c0.7,0,1.3-0.1,2-0.1c0,0.2-0.1,0.4-0.1,0.6c0,0.2,0,0.4,0.1,0.6c-0.7,0-1.3-0.1-2-0.1h-3.5
			v6.7c1.4,0,2.8,0,4.1-0.1c0.7,0,1.4-0.1,2.1-0.2c0,0.2-0.1,0.5-0.1,0.7c0,0.2,0,0.5,0.1,0.7h-8.2V91.7h8.1c0,0.2-0.1,0.5-0.1,0.7
			c0,0.2,0,0.5,0.1,0.7c-0.7-0.1-1.4-0.2-2-0.2l-2.3-0.1h-1.8V98.5L216.4,98.5z"/>
	</g>
	<g>
		<defs>
			<rect id="SVGID_39_" x="90" y="47.6" width="220" height="104.9"/>
		</defs>
		<clipPath id="SVGID_40_">
			<use xlink:href="#SVGID_39_"  style="overflow:visible;"/>
		</clipPath>
		<path class="st19" d="M238.6,107.3c-0.4,0-0.8-0.1-1.2-0.1c-0.4,0-0.8,0-1.2,0.1c-0.7-1.9-1.5-4.1-2.4-6.1h-5.8
			c-0.8,2-1.6,4-2.3,6.1c-0.3,0-0.6-0.1-0.8-0.1c-0.3,0-0.5,0-0.8,0.1l7.1-15.9h0.5L238.6,107.3z M231,94.4l-2.5,5.8h5L231,94.4z"/>
	</g>
	<g>
		<defs>
			<rect id="SVGID_41_" x="90" y="47.6" width="220" height="104.9"/>
		</defs>
		<clipPath id="SVGID_42_">
			<use xlink:href="#SVGID_41_"  style="overflow:visible;"/>
		</clipPath>
		<path class="st20" d="M244.8,107.3c-0.4,0-0.7-0.1-1-0.1c-0.3,0-0.7,0.1-1,0.1V92.8c-2.3,0-3.7,0.1-5,0.3c0-0.2,0.1-0.5,0.1-0.7
			c0-0.2,0-0.4-0.1-0.7h11.8c0,0.2-0.1,0.5-0.1,0.7c0,0.2,0,0.5,0.1,0.7c-1.1-0.1-2.7-0.3-4.8-0.3V107.3z"/>
	</g>
	<g>
		<defs>
			<rect id="SVGID_43_" x="90" y="47.6" width="220" height="104.9"/>
		</defs>
		<clipPath id="SVGID_44_">
			<use xlink:href="#SVGID_43_"  style="overflow:visible;"/>
		</clipPath>
		<path class="st21" d="M252.1,91.7c0.3,0,0.7,0.1,1,0.1c0.3,0,0.6,0,1-0.1v15.6c-0.4,0-0.7-0.1-1-0.1c-0.3,0-0.7,0-1,0.1V91.7z"/>
	</g>
	<g>
		<defs>
			<rect id="SVGID_45_" x="90" y="47.6" width="220" height="104.9"/>
		</defs>
		<clipPath id="SVGID_46_">
			<use xlink:href="#SVGID_45_"  style="overflow:visible;"/>
		</clipPath>
		<path class="st22" d="M268.1,95.9l1.4-3.8l0.2-0.4c0.3,0,0.5,0.1,0.8,0.1c0.2,0,0.5,0,0.8-0.1c-0.7,1.4-5.8,13.1-6.6,15.6
			c-0.2,0-0.3-0.1-0.5-0.1c-0.2,0-0.3,0-0.5,0.1c-2.6-5.3-5.9-13.6-6.9-15.6c0.3,0,0.7,0.1,1.1,0.1c0.4,0,0.7,0,1.1-0.1
			c0.3,0.7,0.6,1.5,0.8,2.2l1.5,4l2.8,6.9h0.2c0.4-0.9,0.9-1.8,1.3-2.7L268.1,95.9z"/>
	</g>
	<g>
		<defs>
			<rect id="SVGID_47_" x="90" y="47.6" width="220" height="104.9"/>
		</defs>
		<clipPath id="SVGID_48_">
			<use xlink:href="#SVGID_47_"  style="overflow:visible;"/>
		</clipPath>
		<path class="st23" d="M275.5,98.5h3.5c0.7,0,1.3-0.1,2-0.1c0,0.2-0.1,0.4-0.1,0.6c0,0.2,0,0.4,0.1,0.6c-0.7,0-1.3-0.1-2-0.1h-3.5
			v6.6c1.4,0,2.8,0,4.1-0.1c0.7,0,1.4-0.1,2.1-0.2c0,0.2-0.1,0.5-0.1,0.7c0,0.2,0,0.5,0.1,0.7h-8.2V91.7h8.1c0,0.2-0.1,0.5-0.1,0.7
			c0,0.2,0,0.5,0.1,0.7c-0.7-0.1-1.4-0.2-2-0.2l-2.3-0.1h-1.8V98.5z"/>
	</g>
	<g>
		<defs>
			<rect id="SVGID_49_" x="90" y="47.6" width="220" height="104.9"/>
		</defs>
		<clipPath id="SVGID_50_">
			<use xlink:href="#SVGID_49_"  style="overflow:visible;"/>
		</clipPath>
		<path class="st24" d="M184.9,124.9c0.9,1.5,1.9,2.4,3.7,2.4c1.8,0,3.2-1.5,3.2-3.3c0-4.2-7.1-2.4-7.1-7.5c0-2.9,2.3-4.4,5.1-4.4
			c1.1,0,2.4,0.3,3.2,1.1c-0.3,0.6-0.4,1.2-0.6,1.9H192c-0.5-1.2-1.5-2-2.8-2c-1.6,0-2.9,1-2.9,2.7c0,4.2,7.2,2.5,7.2,7.3
			c0,3.3-2.5,5.2-5.6,5.2c-1.1,0-2.9-0.5-3.7-1.3c0.2-0.7,0.3-1.4,0.4-2H184.9z"/>
	</g>
	<g>
		<defs>
			<rect id="SVGID_51_" x="90" y="47.6" width="220" height="104.9"/>
		</defs>
		<clipPath id="SVGID_52_">
			<use xlink:href="#SVGID_51_"  style="overflow:visible;"/>
		</clipPath>
		<path class="st25" d="M208.5,126.9c-1.4,1-3.3,1.3-5,1.3c-5,0-8-3.2-8-8.2c0-5.1,3.8-8,8.6-8c1.7,0,3.4,0.4,4.9,1
			c-0.2,0.6-0.4,1.2-0.5,1.8l-0.2,0c-0.3-0.4-2-2-4.4-2c-4.2,0-6.3,3.4-6.3,7.3c0,4.4,2.5,7.2,6.1,7.2c2.5,0,4.4-1.5,4.8-1.8
			L208.5,126.9z"/>
	</g>
	<g>
		<defs>
			<rect id="SVGID_53_" x="90" y="47.6" width="220" height="104.9"/>
		</defs>
		<clipPath id="SVGID_54_">
			<use xlink:href="#SVGID_53_"  style="overflow:visible;"/>
		</clipPath>
		<path class="st26" d="M211.9,112.4c0.3,0,0.7,0.1,1,0.1c0.3,0,0.6,0,1-0.1V128c-0.4,0-0.7-0.1-1-0.1c-0.3,0-0.7,0-1,0.1V112.4z"/>
	</g>
	<g>
		<defs>
			<rect id="SVGID_55_" x="90" y="47.6" width="220" height="104.9"/>
		</defs>
		<clipPath id="SVGID_56_">
			<use xlink:href="#SVGID_55_"  style="overflow:visible;"/>
		</clipPath>
		<path class="st27" d="M220.1,119.2h3.5c0.7,0,1.3-0.1,2-0.1c0,0.2-0.1,0.4-0.1,0.6c0,0.2,0,0.4,0.1,0.6c-0.7,0-1.3-0.1-2-0.1h-3.5
			v6.6c1.4,0,2.8,0,4.1-0.1c0.7,0,1.4-0.1,2.1-0.2c0,0.2-0.1,0.5-0.1,0.7c0,0.2,0,0.5,0.1,0.7h-8.2v-15.5h8.1c0,0.2-0.1,0.5-0.1,0.7
			c0,0.2,0,0.5,0.1,0.7c-0.7-0.1-1.4-0.2-2.1-0.2l-2.3-0.1h-1.8V119.2z"/>
	</g>
	<g>
		<defs>
			<rect id="SVGID_57_" x="90" y="47.6" width="220" height="104.9"/>
		</defs>
		<clipPath id="SVGID_58_">
			<use xlink:href="#SVGID_57_"  style="overflow:visible;"/>
		</clipPath>
		<path class="st28" d="M242.9,128h-0.7c-0.3-0.3-0.7-0.9-1.2-1.4l-9.8-10.9H231V128c-0.2,0-0.4-0.1-0.6-0.1c-0.2,0-0.4,0-0.6,0.1
			v-15.6h0.9l10.8,11.7h0.2v-11.7c0.2,0,0.4,0.1,0.6,0.1c0.2,0,0.4,0,0.6-0.1V128z"/>
	</g>
	<g>
		<defs>
			<rect id="SVGID_59_" x="90" y="47.6" width="220" height="104.9"/>
		</defs>
		<clipPath id="SVGID_60_">
			<use xlink:href="#SVGID_59_"  style="overflow:visible;"/>
		</clipPath>
		<path class="st29" d="M259.1,126.9c-1.4,1-3.3,1.3-5,1.3c-5,0-8-3.2-8-8.2c0-5.1,3.8-8,8.6-8c1.7,0,3.4,0.4,4.9,1
			c-0.2,0.6-0.4,1.2-0.5,1.8l-0.2,0c-0.3-0.4-2-2-4.3-2c-4.2,0-6.3,3.4-6.3,7.3c0,4.4,2.5,7.2,6.1,7.2c2.5,0,4.4-1.5,4.8-1.8
			L259.1,126.9z"/>
	</g>
	<g>
		<defs>
			<rect id="SVGID_61_" x="90" y="47.6" width="220" height="104.9"/>
		</defs>
		<clipPath id="SVGID_62_">
			<use xlink:href="#SVGID_61_"  style="overflow:visible;"/>
		</clipPath>
		<path class="st30" d="M264.4,119.2h3.5c0.7,0,1.3-0.1,2-0.1c0,0.2-0.1,0.4-0.1,0.6c0,0.2,0,0.4,0.1,0.6c-0.7,0-1.3-0.1-2-0.1h-3.5
			v6.6c1.4,0,2.8,0,4.1-0.1c0.7,0,1.4-0.1,2.1-0.2c0,0.2-0.1,0.5-0.1,0.7c0,0.2,0,0.5,0.1,0.7h-8.2v-15.5h8.1c0,0.2-0.1,0.5-0.1,0.7
			c0,0.2,0.1,0.5,0.1,0.7c-0.7-0.1-1.4-0.2-2-0.2l-2.3-0.1h-1.8V119.2z"/>
	</g>
	<g>
		<defs>
			<rect id="SVGID_63_" x="90" y="47.6" width="220" height="104.9"/>
		</defs>
		<clipPath id="SVGID_64_">
			<use xlink:href="#SVGID_63_"  style="overflow:visible;"/>
		</clipPath>
		<path class="st31" d="M120.9,145.9c10.3-1.2,20.6-8.8,26.6-20.4c-1,0.6-2.1,1.1-3.2,1.6c-18,7.2-41.4-9.1-52.3-36.5
			c-0.7-1.7-1.3-3.4-1.8-5.1c1,19.5,6.9,36.4,21.1,51.4c3.2,3.4,6.8,6.7,10.6,9.7C121.6,146.4,121.2,146.1,120.9,145.9"/>
	</g>
	<g>
		<defs>
			<rect id="SVGID_65_" x="90" y="47.6" width="220" height="104.9"/>
		</defs>
		<clipPath id="SVGID_66_">
			<use xlink:href="#SVGID_65_"  style="overflow:visible;"/>
		</clipPath>
		<path class="st32" d="M129.7,47.6l-16.3,0c6.3,3.1,13.6,7.3,20.8,12.9c16.6,12.8,27.3,28.1,32,44.7c2.3-8.3,3.2-17.1,3.2-26.5
			V47.6H129.7z"/>
	</g>
	<g>
		<defs>
			<rect id="SVGID_67_" x="90" y="47.6" width="220" height="104.9"/>
		</defs>
		<clipPath id="SVGID_68_">
			<use xlink:href="#SVGID_67_"  style="overflow:visible;"/>
		</clipPath>
		<path class="st33" d="M136.2,62c-0.1,0.1-0.2,0.1-0.3,0.2c-9.1,6-17.1,13.2-23.9,21.4c6.8,4.3,14,9.8,20.3,16.6
			c6.1-9.3,13-16.7,19.6-22.4C147.5,72.1,142.3,66.9,136.2,62"/>
	</g>
	<g>
		<defs>
			<rect id="SVGID_69_" x="90" y="47.6" width="220" height="104.9"/>
		</defs>
		<clipPath id="SVGID_70_">
			<use xlink:href="#SVGID_69_"  style="overflow:visible;"/>
		</clipPath>
		<path class="st34" d="M147.5,125.5c-6,11.6-16.3,19.2-26.6,20.4c2.8,2.3,5.8,4.5,8.8,6.4c6.6-4.2,13.1-9.7,18.5-15.3
			c0.5-0.6,1.1-1.1,1.6-1.7C149.3,131.8,148.5,128.6,147.5,125.5"/>
	</g>
	<g>
		<defs>
			<rect id="SVGID_71_" x="90" y="47.6" width="220" height="104.9"/>
		</defs>
		<clipPath id="SVGID_72_">
			<use xlink:href="#SVGID_71_"  style="overflow:visible;"/>
		</clipPath>
		<path class="st35" d="M169.5,47.6L169.5,47.6c-6.7,1.5-19.5,5.3-33.3,14.4c6.1,4.9,11.3,10.1,15.7,15.7c6.8-6,13.2-10.2,17.6-12.8
			V47.6z"/>
	</g>
	<g>
		<defs>
			<rect id="SVGID_73_" x="90" y="47.6" width="220" height="104.9"/>
		</defs>
		<clipPath id="SVGID_74_">
			<use xlink:href="#SVGID_73_"  style="overflow:visible;"/>
		</clipPath>
		<path class="st36" d="M112,83.5c-7,8.4-12.6,18-16.7,28.3c3.4,9,8.5,17.3,15.9,25.1c1.6,1.7,3.4,3.4,5.1,5
			c2.5-16.9,8.6-30.8,15.9-41.9C126.1,93.3,118.9,87.8,112,83.5"/>
	</g>
	<g>
		<defs>
			<rect id="SVGID_75_" x="90" y="47.6" width="220" height="104.9"/>
		</defs>
		<clipPath id="SVGID_76_">
			<use xlink:href="#SVGID_75_"  style="overflow:visible;"/>
		</clipPath>
		<path class="st37" d="M132.3,100.1c8.5,9.2,15.3,20.8,17.5,35.1c8.3-9.2,13.5-19.1,16.5-30c-2.7-9.7-7.5-19-14.4-27.6
			C145.4,83.4,138.4,90.8,132.3,100.1"/>
	</g>
	<g>
		<defs>
			<rect id="SVGID_77_" x="90" y="47.6" width="220" height="104.9"/>
		</defs>
		<clipPath id="SVGID_78_">
			<use xlink:href="#SVGID_77_"  style="overflow:visible;"/>
		</clipPath>
		<path class="st38" d="M135.9,62.1c0.1-0.1,0.2-0.1,0.3-0.2c-0.6-0.5-1.2-1-1.9-1.5c-7.3-5.6-14.6-9.8-20.8-12.9H90v24.9
			c4.8,1.8,13.1,5.4,22,11C118.8,75.3,126.8,68.2,135.9,62.1"/>
	</g>
	<g>
		<defs>
			<rect id="SVGID_79_" x="90" y="47.6" width="220" height="104.9"/>
		</defs>
		<clipPath id="SVGID_80_">
			<use xlink:href="#SVGID_79_"  style="overflow:visible;"/>
		</clipPath>
	</g>
	<g>
		<defs>
			<rect id="SVGID_81_" x="90" y="47.6" width="220" height="104.9"/>
		</defs>
		<clipPath id="SVGID_82_">
			<use xlink:href="#SVGID_81_"  style="overflow:visible;"/>
		</clipPath>
	</g>
	<g>
		<defs>
			<rect id="SVGID_83_" x="90" y="47.6" width="220" height="104.9"/>
		</defs>
		<clipPath id="SVGID_84_">
			<use xlink:href="#SVGID_83_"  style="overflow:visible;"/>
		</clipPath>
	</g>
	<g>
		<defs>
			<rect id="SVGID_85_" x="90" y="47.6" width="220" height="104.9"/>
		</defs>
		<clipPath id="SVGID_86_">
			<use xlink:href="#SVGID_85_"  style="overflow:visible;"/>
		</clipPath>
	</g>
	<g>
		<defs>
			<rect id="SVGID_87_" x="90" y="47.6" width="220" height="104.9"/>
		</defs>
		<clipPath id="SVGID_88_">
			<use xlink:href="#SVGID_87_"  style="overflow:visible;"/>
		</clipPath>
	</g>
	<g>
		<defs>
			<rect id="SVGID_89_" x="90" y="47.6" width="220" height="104.9"/>
		</defs>
		<clipPath id="SVGID_90_">
			<use xlink:href="#SVGID_89_"  style="overflow:visible;"/>
		</clipPath>
	</g>
</g>
</svg>
