<?xml version="1.0" encoding="utf-8"?>
<!-- Generator: Adobe Illustrator 23.0.1, SVG Export Plug-In . SVG Version: 6.00 Build 0)  -->
<svg version="1.1" id="Layer_1" xmlns="http://www.w3.org/2000/svg" xmlns:xlink="http://www.w3.org/1999/xlink" x="0px" y="0px"
	 viewBox="0 0 400 200" style="enable-background:new 0 0 400 200;" xml:space="preserve">
<style type="text/css">
	.st0{fill:#FFFFFF;}
	.st1{fill:#5CA645;}
	.st2{fill:#17365F;}
	.st3{fill:none;}
</style>
<g>
	<path class="st0" d="M118.57,100.66L118.57,100.66C118.57,100.73,118.57,100.73,118.57,100.66"/>
	<path class="st1" d="M126.82,95.49L93.76,83.61L83.48,95.84c-2.03,2.45-2.1,5.17,0,5.87l10.2,3.7l34.46-6.5
		C128.64,97.38,128.15,95.98,126.82,95.49"/>
	<path class="st2" d="M100.82,78.51c-1.82,0.35-3.7,1.47-5.17,3.08l25.51,8.88l2.59-0.49c3.63-0.7,7.48-3.01,10.14-6.15l12.58-15.03
		L100.82,78.51z M82.99,110.03c-3.63,0.7-7.48,3.01-10.14,6.15l-12.58,15.03l47.32-8.88c1.89-0.35,3.98-1.61,5.38-3.36l13.98-17.26
		v-0.07l-30.75,5.8L82.99,110.03z"/>
	<path class="st0" d="M93.69,83.61"/>
	<path class="st0" d="M93.69,83.61"/>
	<path class="st2" d="M166.31,79.69l-29.43,45.36h13.7l7.2-11.74h17.4l1.26,11.74H190l-7.06-45.36
		C182.95,79.69,166.31,79.69,166.31,79.69z M161.56,105.91l6.01-9.79c1.61-2.66,3.29-6.15,4.82-8.88h0.21
		c0.28,2.73,0.63,6.36,0.91,8.88l1.19,9.79H161.56z M311.42,90.81c3.7-2.31,8.6-3.49,13.84-3.49s9.16,0.84,10.97,1.47l3.49-7.9
		c-1.68-0.84-6.64-1.96-13.21-1.96c-8.53,0-15.94,1.54-22.23,4.82c-9.16,4.54-15.24,12.51-15.24,22.65
		c0,11.95,10.76,19.22,26.7,19.22c7.27,0,12.72-0.91,15.94-1.96l-1.05-7.83c-3.08,0.91-7.27,1.47-11.46,1.47
		c-10.69,0-16.08-4.82-16.08-12.02C303.1,99.13,306.31,93.88,311.42,90.81 M263.54,106.95h9.3l-2.45,9.58
		c-1.47,0.49-3.56,0.84-6.57,0.84c-9.51,0-15.52-3.84-15.52-11.46c0-6.22,3.49-11.6,8.67-14.68c4.05-2.38,9.44-3.63,15.45-3.63
		c5.38,0,10.07,0.91,12.79,1.89l3.84-8.18c-2.31-0.91-8.18-2.03-16.08-2.03c-10.48,0-19.85,2.38-26.63,6.57
		c-7.69,4.89-12.37,12.23-12.37,20.76c0,5.8,2.8,10.76,7.62,13.98c5.03,3.36,11.81,4.96,20.2,4.96c7.62,0,14.89-1.4,19.57-2.59
		l6.01-23.77h-21.95L263.54,106.95z M219.85,98.5c-5.1-2.17-8.81-3.77-8.81-6.36c0-2.52,3.15-4.75,9.16-4.75
		c5.03-0.07,9.3,1.19,11.32,2.03l4.05-8.11c-2.59-1.05-6.92-2.31-14.26-2.31c-13.21,0-23.83,5.59-23.83,14.75
		c0,5.94,6.08,9.44,12.58,12.02c5.59,2.17,8.18,3.84,8.18,6.36c0,3.56-4.54,5.31-9.58,5.31c-5.59,0-10.69-1.26-14.26-2.87
		l-4.33,7.97c2.87,1.61,8.88,3.22,17.33,3.22c13.42,0,24.6-5.17,24.6-15.31C231.87,105.07,227.19,101.36,219.85,98.5"/>
	<rect x="60.28" y="68.79" class="st3" width="279.45" height="62.42"/>
</g>
</svg>
