<?xml version="1.0" encoding="utf-8"?>
<!-- Generator: Adobe Illustrator 23.0.1, SVG Export Plug-In . SVG Version: 6.00 Build 0)  -->
<svg version="1.1" id="Layer_1" xmlns="http://www.w3.org/2000/svg" xmlns:xlink="http://www.w3.org/1999/xlink" x="0px" y="0px"
	 viewBox="0 0 400 200" style="enable-background:new 0 0 400 200;" xml:space="preserve">
<style type="text/css">
	.st0{fill:#5BA646;}
	.st1{fill:#18355F;}
</style>
<g>
	<path class="st0" d="M149.9,117.4c0.1,0.3,0.2,0.7,0.2,1.1c0,0.6-0.1,1.1-0.4,1.6c-0.2,0.5-0.6,0.9-1,1.2c-0.4,0.3-0.9,0.6-1.4,0.7
		c-0.5,0.2-1.1,0.3-1.7,0.3c-2.2,0-3.9-0.7-4.9-2.1l-0.1-0.1l2-1.7l0.1,0.1c0.4,0.5,0.9,0.8,1.4,1.1c0.5,0.2,1,0.4,1.7,0.4
		c0.5,0,0.9-0.1,1.2-0.3c0.3-0.2,0.4-0.4,0.4-0.7c0-0.1,0-0.2-0.1-0.3c0-0.1-0.1-0.2-0.3-0.3c-0.1-0.1-0.3-0.2-0.6-0.3
		c-0.2-0.1-0.5-0.3-0.9-0.4c-0.4-0.1-0.7-0.3-1-0.5c-0.3-0.2-0.6-0.4-0.9-0.6c-0.3-0.2-0.5-0.5-0.6-0.9c-0.2-0.3-0.2-0.7-0.2-1.1
		c0-0.6,0.1-1.1,0.4-1.6c0.2-0.5,0.6-0.9,1-1.2c0.4-0.3,0.9-0.6,1.4-0.8c0.5-0.2,1.1-0.3,1.7-0.3c1,0,1.8,0.2,2.5,0.5
		c0.7,0.3,1.3,0.7,1.8,1.2l0.1,0.1l-1.9,1.9l-0.1-0.1c-0.4-0.4-0.8-0.7-1.2-0.9c-0.4-0.2-0.9-0.3-1.4-0.3c-0.5,0-0.9,0.1-1.1,0.3
		c-0.3,0.2-0.4,0.4-0.4,0.7c0,0.1,0,0.2,0.1,0.3c0.1,0.1,0.1,0.2,0.3,0.3c0.1,0.1,0.3,0.2,0.6,0.3c0.2,0.1,0.6,0.2,0.9,0.4
		c0.4,0.2,0.7,0.3,1.1,0.5c0.3,0.2,0.6,0.4,0.9,0.6C149.6,116.8,149.8,117,149.9,117.4"/>
	<polygon class="st0" points="162.5,110.8 161.8,113.3 158.5,113.3 156.1,122.2 153.4,122.2 155.8,113.3 152.4,113.3 153,110.8 	"/>
	<polygon class="st0" points="166,113.2 165.4,115.2 170.6,115.2 170,117.6 164.8,117.6 164.2,119.7 170.2,119.7 169.5,122.2 
		160.9,122.2 160.9,122 163.9,110.8 172.5,110.8 171.9,113.2 	"/>
	<polygon class="st0" points="176.6,113.2 176,115.2 181.2,115.2 180.5,117.6 175.4,117.6 174.8,119.7 180.8,119.7 180.1,122.2 
		171.5,122.2 171.5,122 174.5,110.8 183.1,110.8 182.4,113.2 	"/>
	<polygon class="st0" points="191,119.7 190.3,122.2 182,122.2 182.1,122 185.1,110.8 187.8,110.8 185.4,119.7 	"/>
	<polygon class="st0" points="202.6,110.8 202.6,110.9 199.6,122.2 196.9,122.2 196.9,122 199.9,110.8 	"/>
	<polygon class="st0" points="215.3,110.8 215.2,110.9 212.2,122.2 209.9,122.2 209.9,122.1 206.7,115.1 204.8,122.2 202.1,122.2 
		202.2,122 205.2,110.8 207.6,110.8 207.6,110.9 210.7,117.6 212.6,110.8 	"/>
	<path class="st0" d="M225.4,112.2c-0.4-0.4-1-0.8-1.7-1.1c-0.7-0.3-1.6-0.4-2.7-0.4h-3.3l-3,11.2l0,0.2h4.3c1.3,0,2.5-0.2,3.4-0.5
		c1-0.4,1.8-0.9,2.5-1.6c0.6-0.6,1.1-1.3,1.4-2.1c0.3-0.8,0.5-1.6,0.5-2.4C226.7,114.2,226.3,113.1,225.4,112.2 M219.2,119.7H218
		l1.7-6.5h1.1c0.6,0,1.1,0.1,1.5,0.2c0.4,0.1,0.7,0.3,0.9,0.6c0.4,0.4,0.6,1,0.6,1.7c0,0.5-0.1,1-0.3,1.5c-0.2,0.5-0.5,0.9-0.8,1.2
		c-0.4,0.4-1,0.8-1.6,1C220.6,119.6,219.9,119.7,219.2,119.7"/>
	<path class="st0" d="M239.8,110.8l-1.8,6.8c-0.4,1.5-1,2.6-1.8,3.4c-0.5,0.5-1,0.8-1.7,1.1c-0.6,0.2-1.4,0.3-2.2,0.3
		c-0.7,0-1.3-0.1-1.8-0.3c-0.5-0.2-1-0.4-1.4-0.8c-0.4-0.3-0.7-0.7-0.9-1.2s-0.3-1-0.3-1.6c0-0.3,0-0.6,0.1-0.9
		c0-0.3,0.1-0.6,0.2-0.9l1.6-5.9h2.7l-1.6,6.2c-0.1,0.2-0.1,0.4-0.1,0.6c0,0.2,0,0.4,0,0.6c0,0.5,0.2,0.9,0.5,1.3
		c0.3,0.3,0.8,0.5,1.4,0.5c0.7,0,1.3-0.2,1.7-0.7c0.5-0.5,0.8-1.1,1-2l1.7-6.4L239.8,110.8L239.8,110.8z"/>
	<path class="st0" d="M248.1,117.4c0.1,0.3,0.2,0.7,0.2,1.1c0,0.6-0.1,1.1-0.4,1.6c-0.2,0.5-0.6,0.9-1,1.2c-0.4,0.3-0.9,0.6-1.4,0.7
		c-0.5,0.2-1.1,0.3-1.7,0.3c-2.2,0-3.9-0.7-4.9-2.1l-0.1-0.1l2-1.7l0.1,0.1c0.4,0.5,0.9,0.8,1.4,1.1c0.5,0.2,1,0.4,1.6,0.4
		c0.5,0,0.9-0.1,1.2-0.3c0.3-0.2,0.4-0.4,0.4-0.7c0-0.1,0-0.2-0.1-0.3c0-0.1-0.1-0.2-0.3-0.3c-0.1-0.1-0.3-0.2-0.6-0.3
		c-0.2-0.1-0.5-0.3-0.9-0.4c-0.4-0.1-0.7-0.3-1-0.5c-0.3-0.2-0.6-0.4-0.9-0.6c-0.3-0.2-0.5-0.5-0.6-0.9c-0.2-0.3-0.2-0.7-0.2-1.1
		c0-0.6,0.1-1.1,0.4-1.6c0.2-0.5,0.6-0.9,1-1.2c0.4-0.3,0.9-0.6,1.4-0.8c0.5-0.2,1.1-0.3,1.7-0.3c1,0,1.8,0.2,2.5,0.5
		c0.7,0.3,1.3,0.7,1.8,1.2l0.1,0.1l-1.9,1.9l-0.1-0.1c-0.4-0.4-0.8-0.7-1.2-0.9c-0.4-0.2-0.9-0.3-1.4-0.3c-0.5,0-0.9,0.1-1.1,0.3
		c-0.3,0.2-0.4,0.4-0.4,0.7c0,0.1,0,0.2,0.1,0.3c0.1,0.1,0.1,0.2,0.3,0.3c0.1,0.1,0.3,0.2,0.6,0.3c0.2,0.1,0.6,0.2,0.9,0.4
		c0.4,0.2,0.7,0.3,1.1,0.5c0.3,0.2,0.6,0.4,0.9,0.6C247.8,116.8,248,117,248.1,117.4"/>
	<polygon class="st0" points="260.7,110.8 260.1,113.3 256.7,113.3 254.3,122.2 251.6,122.2 254,113.3 250.6,113.3 251.2,110.8 	"/>
	<path class="st0" d="M269.9,111.9c-0.4-0.4-0.9-0.7-1.5-0.9c-0.6-0.2-1.3-0.3-2.1-0.3h-4.1l-3,11.2l0,0.2h2.7l1-3.6h1.7l1.7,3.6
		h3.1l-1.9-3.8c1.1-0.3,2-0.8,2.6-1.4c0.6-0.7,0.9-1.6,0.9-2.6C270.8,113.3,270.5,112.5,269.9,111.9 M265.4,116.2h-2l0.8-2.9h2
		c0.7,0,1.3,0.1,1.5,0.4c0.2,0.2,0.3,0.5,0.3,0.8c0,0.3-0.1,0.5-0.2,0.7c-0.1,0.2-0.3,0.4-0.5,0.5c-0.2,0.1-0.5,0.3-0.8,0.3
		C266.2,116.1,265.8,116.2,265.4,116.2"/>
	<polygon class="st0" points="276.5,110.8 276.5,110.9 273.5,122.2 270.8,122.2 270.8,122 273.8,110.8 	"/>
	<polygon class="st0" points="281.1,113.2 280.6,115.2 285.7,115.2 285.1,117.6 279.9,117.6 279.3,119.7 285.3,119.7 284.7,122.2 
		276,122.2 276,122 279.1,110.8 287.6,110.8 287,113.2 	"/>
	<path class="st0" d="M295.6,117.4c0.1,0.3,0.2,0.7,0.2,1.1c0,0.6-0.1,1.1-0.4,1.6c-0.2,0.5-0.6,0.9-1,1.2c-0.4,0.3-0.9,0.6-1.4,0.7
		c-0.5,0.2-1.1,0.3-1.7,0.3c-2.2,0-3.9-0.7-4.9-2.1l-0.1-0.1l2-1.7l0.1,0.1c0.4,0.5,0.9,0.8,1.4,1.1c0.5,0.2,1,0.4,1.6,0.4
		c0.5,0,0.9-0.1,1.2-0.3c0.3-0.2,0.4-0.4,0.4-0.7c0-0.1,0-0.2-0.1-0.3c0-0.1-0.1-0.2-0.3-0.3c-0.1-0.1-0.3-0.2-0.6-0.3
		c-0.2-0.1-0.5-0.3-0.9-0.4c-0.4-0.1-0.7-0.3-1-0.5c-0.3-0.2-0.6-0.4-0.9-0.6c-0.3-0.2-0.5-0.5-0.6-0.9c-0.2-0.3-0.2-0.7-0.2-1.1
		c0-0.6,0.1-1.1,0.4-1.6c0.2-0.5,0.6-0.9,1-1.2c0.4-0.3,0.9-0.6,1.4-0.8c0.5-0.2,1.1-0.3,1.7-0.3c1,0,1.8,0.2,2.5,0.5
		c0.7,0.3,1.3,0.7,1.8,1.2l0.1,0.1l-1.9,1.9l-0.1-0.1c-0.4-0.4-0.8-0.7-1.2-0.9c-0.4-0.2-0.9-0.3-1.4-0.3c-0.5,0-0.9,0.1-1.1,0.3
		c-0.3,0.2-0.4,0.4-0.4,0.7c0,0.1,0,0.2,0.1,0.3c0.1,0.1,0.1,0.2,0.3,0.3c0.1,0.1,0.3,0.2,0.6,0.3c0.2,0.1,0.6,0.2,0.9,0.4
		c0.4,0.2,0.7,0.3,1.1,0.5c0.3,0.2,0.6,0.4,0.9,0.6C295.2,116.8,295.4,117,295.6,117.4"/>
	<path class="st0" d="M138.3,96.8l-24-8.6l-7.4,8.9c-1.5,1.8-1.5,3.7,0,4.3l7.4,2.7l25-4.7C139.6,98.1,139.3,97.1,138.3,96.8"/>
	<path class="st1" d="M119.4,84.4c-1.3,0.2-2.7,1.1-3.7,2.2l18.5,6.5l1.9-0.4c2.7-0.5,5.4-2.2,7.4-4.5l9.1-10.9L119.4,84.4z
		 M106.5,107.3c-2.7,0.5-5.4,2.2-7.3,4.5L90,122.7l34.4-6.5c1.4-0.3,2.9-1.1,3.9-2.4l10.2-12.5c0,0,0,0,0,0l-22.3,4.2L106.5,107.3z"
		/>
	<path class="st1" d="M164.1,78.8l-16.8,25.9h7.8l4.1-6.7h10l0.7,6.7h7.7l-4-25.9C173.6,78.8,164.1,78.8,164.1,78.8z M161.4,93.8
		l3.4-5.6c0.9-1.5,1.9-3.5,2.8-5.1h0.1c0.2,1.6,0.4,3.7,0.5,5.1l0.7,5.6H161.4z M194.7,89.5c-2.9-1.2-5-2.2-5-3.6
		c0-1.4,1.8-2.7,5.2-2.7c2.9,0,5.3,0.7,6.5,1.1l2.3-4.6c-1.5-0.6-4-1.3-8.2-1.3c-7.5,0-13.6,3.2-13.6,8.4c0,3.4,3.5,5.4,7.2,6.9
		c3.2,1.2,4.7,2.2,4.7,3.7c0,2-2.6,3-5.5,3c-3.2,0-6.1-0.7-8.2-1.7l-2.5,4.5c1.6,0.9,5.1,1.8,9.9,1.8c7.7,0,14-3,14-8.7
		C201.6,93.3,198.9,91.2,194.7,89.5 M273.4,88.2c-1,3.8-1.4,6.6-1.6,9.3h-0.2c-0.8-2.8-1.8-5.5-3.1-8.8l-4.6-9.9h-8.7l-6.6,25.9h6.9
		l2.3-9.1c1-4.1,1.8-7.8,2.3-10.3l0.1,0c0.9,3.2,1.8,5.5,3.4,9l4.8,10.4h7.6l6.5-25.9h-6.9L273.4,88.2z M284.3,78.8l-1.3,4.9h9.1
		l-5.3,21.1h7.4l5.3-21.1h9.2l1.2-4.9C310,78.8,284.3,78.8,284.3,78.8z M217.7,89.5c-2.9-1.2-5-2.2-5-3.6c0-1.4,1.8-2.7,5.2-2.7
		c2.9,0,5.3,0.7,6.5,1.1l2.3-4.6c-1.5-0.6-3.9-1.3-8.2-1.3c-7.5,0-13.6,3.2-13.6,8.4c0,3.4,3.5,5.4,7.2,6.9c3.2,1.2,4.7,2.2,4.7,3.7
		c0,2-2.6,3-5.5,3c-3.2,0-6.1-0.7-8.2-1.7l-2.5,4.5c1.6,0.9,5.1,1.8,9.9,1.8c7.7,0,14.1-3,14.1-8.7
		C224.6,93.3,221.9,91.2,217.7,89.5 M237.6,83.5h13l1.2-4.7h-20.5l-6.6,25.9H246l1.2-4.7h-13.8l1.6-6.3h12.3l1.2-4.6h-12.3
		L237.6,83.5z"/>
</g>
</svg>
