<?xml version="1.0" encoding="utf-8"?>
<!-- Generator: Adobe Illustrator 23.0.1, SVG Export Plug-In . SVG Version: 6.00 Build 0)  -->
<svg version="1.1" id="Layer_1" xmlns="http://www.w3.org/2000/svg" xmlns:xlink="http://www.w3.org/1999/xlink" x="0px" y="0px"
	 viewBox="0 0 400 200" style="enable-background:new 0 0 400 200;" xml:space="preserve">
<style type="text/css">
	.st0{fill:#0A1F8F;}
	.st1{fill:#A2A9AD;}
</style>
<g>
	<path class="st0" d="M247.7,130.9c-2.5,0.6-5.2,1.2-8.1,1.8c-1.5,0.3-3.1,0.5-5,0.7c-1.8,0.1-3.9,0.2-6.1,0.2
		c-4.3,0-8.7-0.6-13.1-1.8c-4.3-1.2-8.3-3.1-11.9-5.7c-3.5-2.5-6.4-6-8.7-10.3c-2.2-4.3-3.3-9.5-3.3-15.6c0-5.7,0.9-10.6,2.8-14.8
		c1.9-4.2,4.4-7.8,7.7-10.6s7.2-4.9,11.7-6.3c4.5-1.4,9.5-2.1,14.8-2.1c3.4,0,6.6,0.3,9.7,1c3.1,0.7,6.3,1.4,9.4,2.4l-1.4,14
		c-2.8-1.5-5.6-2.7-8.3-3.4c-2.7-0.7-5.6-1.1-8.5-1.1c-3.1,0-5.9,0.5-8.3,1.6c-2.5,1-4.6,2.5-6.4,4.4c-1.8,1.9-3.1,4.1-4.1,6.7
		c-0.9,2.6-1.4,5.4-1.4,8.4c0,3.2,0.5,6.1,1.6,8.6s2.6,4.7,4.5,6.4c1.9,1.8,4.2,3.1,6.8,4s5.5,1.4,8.7,1.4c2.8,0,5.6-0.3,8.4-1
		c2.8-0.6,5.4-1.4,7.7-2.4L247.7,130.9z"/>
	<path class="st0" d="M154,79.1h26.9c0.8,0,1.4-0.7,1.4-1.5v-9.7c0-0.8-0.6-1.5-1.4-1.5h-42.7c-0.8,0-1.4,0.7-1.4,1.5v9.8
		c0,0.8,0.6,1.5,1.4,1.5L154,79.1L154,79.1z"/>
	<path class="st0" d="M154,119.4v-12.3c0-0.8,0.6-1.5,1.4-1.5h23.9c0.8,0,1.4-0.7,1.4-1.5v-9.7c0-0.8-0.6-1.5-1.4-1.5h-23.9
		c-0.8,0-1.4-0.7-1.4-1.5v-6.3c0-1.1-1.2-1.9-2.1-1.3l-15.1,9l0,0v39.1c0,0.8,0.6,1.5,1.4,1.5h42.7c0.8,0,1.4-0.7,1.4-1.5v-9.7
		c0-0.8-0.6-1.5-1.4-1.5h-25.5C154.6,120.9,154,120.2,154,119.4"/>
	<path class="st0" d="M114.3,99.3v-0.2c1.8-0.7,3.4-1.4,4.8-2.4c1.4-0.9,2.6-2,3.6-3.3c1-1.3,1.7-2.7,2.2-4.4
		c0.5-1.6,0.7-3.5,0.7-5.7c0-2.9-0.5-5.4-1.6-7.5s-2.5-3.9-4.4-5.3s-4.1-2.5-6.6-3.2c-2.4-0.5-5.3-0.9-8.3-0.9H76.3
		c-0.7,0-1.3,0.6-1.3,1.3v10.1c0,0.7,0.6,1.3,1.3,1.3h16.1l0,0h4.8c1.4,0,2.8,0.1,4.2,0.2s2.6,0.4,3.6,0.9c1.1,0.5,1.9,1.1,2.5,2
		c0.6,0.9,1,2.1,1,3.6c0,1.4-0.3,2.6-1,3.5c-0.7,0.9-1.5,1.7-2.6,2.2s-2.3,0.9-3.7,1.1c-1.4,0.2-2.8,0.3-4.2,0.3h-3.5
		c-0.7,0-1.3-0.6-1.3-1.3v-6.7c0-1-1.1-1.7-1.9-1.2L75,93l0,0l0,0l0,0l0,0v39.3c0,0.7,0.6,1.3,1.3,1.3h25.9c1.4,0,2.9-0.1,4.4-0.2
		c1.5-0.1,2.9-0.3,4.5-0.6c3-0.5,5.7-1.5,8.1-3c2.4-1.5,4.4-3.4,5.9-5.9s2.3-5.7,2.3-9.8C127.4,106.1,123,101.1,114.3,99.3
		 M109,117.2c-0.8,1-1.7,1.8-3,2.3c-1.2,0.5-2.6,0.9-4.1,1.1s-3.1,0.3-4.7,0.3h-3.8c-0.7,0-1.3-0.6-1.3-1.3v-13.2
		c0-0.7,0.6-1.3,1.3-1.3h4c1.5,0,3,0.1,4.5,0.2c1.5,0.1,2.9,0.5,4.1,1s2.2,1.4,3,2.4c0.8,1.1,1.2,2.5,1.2,4.3
		C110.2,114.8,109.8,116.2,109,117.2"/>
	<path class="st1" d="M264.9,120.8h1.9l5.2,12.6h-2l-1.3-3.2h-6.1l-1.3,3.2h-1.9L264.9,120.8z M265.7,122.5l-2.5,6.3h5L265.7,122.5z
		"/>
	<path class="st1" d="M273.8,120.8h3.1c0.3,0,0.6,0,0.9,0c0.3,0,0.6,0,0.9,0.1c0.3,0,0.6,0.1,0.8,0.2c0.3,0.1,0.5,0.2,0.7,0.3
		c0.2,0.1,0.4,0.3,0.6,0.4c0.2,0.2,0.3,0.4,0.5,0.6c0.1,0.2,0.2,0.5,0.3,0.8c0.1,0.3,0.1,0.6,0.1,1s-0.1,0.7-0.2,1.1
		c-0.1,0.3-0.3,0.6-0.5,0.9c-0.2,0.2-0.5,0.5-0.8,0.6c-0.3,0.2-0.7,0.3-1,0.3l0,0c0.1,0.1,0.3,0.1,0.4,0.2s0.2,0.1,0.3,0.2
		c0.2,0.2,0.4,0.5,0.6,0.8l2.4,5h-2.1l-1.9-4.4c-0.1-0.3-0.3-0.5-0.4-0.7c-0.1-0.2-0.3-0.3-0.5-0.4c-0.2-0.1-0.3-0.1-0.5-0.1
		c-0.2,0-0.4,0-0.7,0h-1.1v5.7h-1.8v-12.6H273.8z M275.6,126.2h1.5c0.9,0,1.5-0.2,2-0.5c0.5-0.3,0.7-0.8,0.7-1.4
		c0-0.6-0.2-1-0.6-1.4c-0.4-0.3-1.1-0.5-1.9-0.5h-1.7V126.2z"/>
	<path class="st1" d="M288.8,120.8h1.9l5.3,12.6h-2l-1.3-3.2h-6.1l-1.3,3.2h-1.9L288.8,120.8z M289.7,122.5l-2.5,6.3h5L289.7,122.5z
		"/>
	<path class="st1" d="M297.7,120.8h3.4c0.6,0,1.2,0.1,1.8,0.2c0.5,0.1,1,0.3,1.4,0.6c0.4,0.3,0.7,0.6,0.9,1s0.3,0.9,0.3,1.5
		c0,0.9-0.2,1.5-0.7,2s-1.1,0.8-1.9,1l0,0c0.4,0,0.8,0.1,1.2,0.3c0.4,0.2,0.7,0.4,0.9,0.6c0.3,0.3,0.5,0.6,0.6,0.9
		c0.1,0.4,0.2,0.8,0.2,1.2c0,0.7-0.1,1.2-0.4,1.7c-0.3,0.4-0.6,0.8-1,1c-0.4,0.3-0.9,0.4-1.5,0.5c-0.6,0.1-1.2,0.1-1.8,0.1h-3.3
		v-12.6H297.7z M299.5,126.2h1c0.4,0,0.8,0,1.2-0.1c0.4,0,0.7-0.1,1-0.3c0.3-0.1,0.5-0.3,0.7-0.6c0.2-0.3,0.3-0.6,0.3-1.1
		c0-0.4-0.1-0.7-0.2-0.9c-0.1-0.2-0.3-0.4-0.6-0.6c-0.2-0.1-0.5-0.2-0.7-0.3c-0.3-0.1-0.5-0.1-0.8-0.1h-1.9V126.2z M299.5,131.9h1.3
		c0.4,0,0.8,0,1.2-0.1c0.4-0.1,0.7-0.2,1-0.3s0.5-0.4,0.7-0.6c0.2-0.3,0.3-0.6,0.3-1c0-0.5-0.1-0.9-0.3-1.2
		c-0.2-0.3-0.4-0.5-0.8-0.7c-0.3-0.2-0.7-0.3-1-0.3c-0.4,0-0.8-0.1-1.2-0.1h-1.2V131.9z"/>
	<rect x="308.8" y="120.8" class="st1" width="1.8" height="12.6"/>
	<path class="st1" d="M317.8,120.8h1.9l5.3,12.6h-2l-1.3-3.2h-6.1l-1.3,3.2h-1.9L317.8,120.8z M318.7,122.5l-2.5,6.3h5L318.7,122.5z
		"/>
	<path class="st1" d="M268.6,108.8c0,0.2,0,0.5,0,0.6c0,0.2,0.1,0.3,0.2,0.4c0.1,0.1,0.2,0.2,0.4,0.2c0.2,0,0.4,0.1,0.6,0.1h5.9
		c0.2,0,0.4,0,0.5,0.1c0.1,0.1,0.2,0.2,0.2,0.4v0.6c0,0.1,0,0.2-0.1,0.3c0,0.1-0.1,0.1-0.1,0.2c-0.1,0-0.1,0.1-0.2,0.1
		c-0.1,0-0.2,0-0.3,0h-6.3c-0.4,0-0.8,0-1-0.1c-0.3-0.1-0.5-0.2-0.7-0.3s-0.3-0.3-0.4-0.4c-0.1-0.2-0.2-0.3-0.2-0.5
		c-0.5,0.3-0.9,0.5-1.3,0.6c-0.4,0.1-0.8,0.2-1.3,0.2c-0.4,0-0.7-0.1-1.1-0.2c-0.4-0.1-0.7-0.3-1-0.5c-0.3-0.2-0.6-0.5-0.7-0.9
		c-0.2-0.4-0.3-0.8-0.3-1.3s0.1-0.9,0.3-1.2c0.2-0.4,0.4-0.7,0.7-1c0.3-0.3,0.7-0.5,1.1-0.8c0.4-0.2,0.8-0.4,1.2-0.6
		s0.8-0.3,1.2-0.4c0.4-0.1,0.8-0.2,1.1-0.3v-1h1.7v5.7H268.6z M267,105.5c-0.6,0.1-1.2,0.3-1.7,0.4c-0.5,0.2-0.9,0.3-1.3,0.6
		c-0.4,0.2-0.6,0.5-0.8,0.7c-0.2,0.3-0.3,0.6-0.3,0.9s0.1,0.5,0.2,0.7c0.1,0.2,0.3,0.3,0.4,0.4c0.2,0.1,0.4,0.2,0.6,0.2
		s0.5,0.1,0.7,0.1c0.4,0,0.8-0.1,1.2-0.2c0.4-0.1,0.7-0.3,1-0.5V105.5L267,105.5z M264,100.8c0-0.1,0-0.3,0.1-0.4s0.1-0.2,0.2-0.3
		c0.1-0.1,0.2-0.2,0.3-0.2c0.1-0.1,0.2-0.1,0.4-0.1c0.1,0,0.3,0,0.4,0.1s0.2,0.1,0.3,0.2c0.1,0.1,0.2,0.2,0.2,0.3
		c0.1,0.1,0.1,0.2,0.1,0.4c0,0.1,0,0.3-0.1,0.4c-0.1,0.1-0.1,0.2-0.2,0.3c-0.1,0.1-0.2,0.2-0.3,0.2c-0.1,0.1-0.2,0.1-0.4,0.1
		c-0.3,0-0.5-0.1-0.7-0.3C264.1,101.3,264,101.1,264,100.8 M266.6,100.8c0-0.1,0-0.3,0.1-0.4s0.1-0.2,0.2-0.3
		c0.1-0.1,0.2-0.2,0.3-0.2c0.1-0.1,0.2-0.1,0.4-0.1c0.1,0,0.3,0,0.4,0.1c0.1,0.1,0.2,0.1,0.3,0.2c0.1,0.1,0.2,0.2,0.2,0.3
		c0.1,0.1,0.1,0.2,0.1,0.4c0,0.1,0,0.3-0.1,0.4c-0.1,0.1-0.1,0.2-0.2,0.3c-0.1,0.1-0.2,0.2-0.3,0.2c-0.1,0.1-0.2,0.1-0.4,0.1
		c-0.3,0-0.5-0.1-0.7-0.3C266.7,101.3,266.6,101.1,266.6,100.8"/>
	<path class="st1" d="M279.8,109.5c0.3,0.2,0.6,0.3,1,0.4c0.4,0.1,0.8,0.1,1.3,0.1h0.1c0.2,0,0.4,0,0.5,0.1s0.2,0.2,0.2,0.4v0.6
		c0,0.1,0,0.2-0.1,0.3c0,0.1-0.1,0.1-0.1,0.2c-0.1,0-0.1,0.1-0.2,0.1c-0.1,0-0.2,0-0.3,0h-0.1c-0.6,0-1.2-0.1-1.6-0.2
		c-0.4-0.2-0.8-0.4-1.1-0.6c-0.2,0.2-0.4,0.5-0.6,0.6c-0.3,0.2-0.6,0.3-1,0.3h-2.2c-0.2,0-5.6,0-5.7-0.1c-0.1-0.1-0.2-0.2-0.2-0.4
		v-0.6c0-0.1,0-0.2,0.1-0.3c0-0.1,0.1-0.1,0.1-0.2c0.1,0,5.4-0.1,5.4-0.1c0.1,0,0.2,0,0.3,0h1.9c0.2,0,0.4-0.1,0.5-0.3
		c0.1-0.2,0.2-0.4,0.2-0.8v-4.4h1.7v4.9H279.8z M276.6,114.5c0-0.1,0-0.3,0.1-0.4s0.1-0.2,0.2-0.3c0.1-0.1,0.2-0.2,0.3-0.2
		c0.1-0.1,0.2-0.1,0.4-0.1c0.1,0,0.3,0,0.4,0.1c0.1,0.1,0.2,0.1,0.3,0.2c0.1,0.1,0.2,0.2,0.2,0.3c0.1,0.1,0.1,0.2,0.1,0.4
		c0,0.1,0,0.3-0.1,0.4c-0.1,0.1-0.1,0.2-0.2,0.3c-0.1,0.1-0.2,0.2-0.3,0.2c-0.1,0.1-0.2,0.1-0.4,0.1c-0.3,0-0.5-0.1-0.7-0.3
		C276.7,115,276.6,114.8,276.6,114.5 M279.2,114.5c0-0.1,0-0.3,0.1-0.4c0.1-0.1,0.1-0.2,0.2-0.3s0.2-0.2,0.3-0.2
		c0.1-0.1,0.2-0.1,0.4-0.1c0.1,0,0.3,0,0.4,0.1c0.1,0.1,0.2,0.1,0.3,0.2s0.2,0.2,0.2,0.3c0.1,0.1,0.1,0.2,0.1,0.4
		c0,0.1,0,0.3-0.1,0.4c-0.1,0.1-0.1,0.2-0.2,0.3s-0.2,0.2-0.3,0.2c-0.1,0.1-0.2,0.1-0.4,0.1c-0.3,0-0.5-0.1-0.7-0.3
		C279.3,115,279.2,114.8,279.2,114.5"/>
	<path class="st1" d="M282.3,111.7c-0.2,0-0.4,0-0.5-0.1c-0.1-0.1-0.2-0.2-0.2-0.4v-0.6c0-0.1,0-0.2,0.1-0.3c0-0.1,0.1-0.1,0.1-0.2
		c0.1,0,0.1-0.1,0.2-0.1c0.1,0,0.2,0,0.3,0h8.3v-5.5h1.7v7.1h-10V111.7z M290.4,114.5c0-0.1,0-0.3,0.1-0.4s0.1-0.2,0.2-0.3
		c0.1-0.1,0.2-0.2,0.3-0.2c0.1-0.1,0.2-0.1,0.4-0.1c0.1,0,0.3,0,0.4,0.1c0.1,0.1,0.2,0.1,0.3,0.2c0.1,0.1,0.2,0.2,0.2,0.3
		c0.1,0.1,0.1,0.2,0.1,0.4c0,0.1,0,0.3-0.1,0.4c-0.1,0.1-0.1,0.2-0.2,0.3c-0.1,0.1-0.2,0.2-0.3,0.2c-0.1,0.1-0.2,0.1-0.4,0.1
		c-0.3,0-0.5-0.1-0.7-0.3C290.5,115,290.4,114.8,290.4,114.5"/>
	<path class="st1" d="M293.6,114c0.7-0.1,1.2-0.2,1.6-0.4c0.4-0.2,0.7-0.4,0.9-0.7c0.2-0.3,0.3-0.6,0.4-1c0.1-0.4,0.1-0.8,0.1-1.3
		v-6.1h1.7v5.5h2.2c0.2,0,0.4,0,0.5,0.1s0.2,0.2,0.2,0.4v0.6c0,0.1,0,0.2-0.1,0.3c0,0.1-0.1,0.1-0.1,0.2c-0.1,0-0.1,0.1-0.2,0.1
		c-0.1,0-0.2,0-0.3,0h-2.3c-0.1,0.6-0.2,1.2-0.5,1.6c-0.2,0.4-0.5,0.8-0.9,1.1c-0.4,0.3-0.8,0.5-1.3,0.7c-0.5,0.2-1.1,0.3-1.7,0.4
		L293.6,114z"/>
	<path class="st1" d="M304.3,109.6c-0.3-0.2-0.5-0.4-0.8-0.7c-0.3-0.3-0.5-0.6-0.7-0.9c-0.2-0.3-0.4-0.6-0.6-0.8
		c-0.2-0.3-0.3-0.4-0.4-0.6c0-0.1,0.1-0.3,0.1-0.4c0-0.2,0.1-0.3,0.2-0.5c0.1-0.2,0.1-0.3,0.2-0.4c0.1-0.1,0.1-0.2,0.2-0.2
		c0.2-0.1,0.4-0.2,0.7-0.3c0.3-0.1,0.6-0.2,0.9-0.3c0.3-0.1,0.7-0.2,1.1-0.2c0.4-0.1,0.8-0.1,1.3-0.1c0.3,0,0.7,0,1,0.1
		s0.6,0.2,0.9,0.3c0.3,0.1,0.5,0.3,0.7,0.5c0.2,0.2,0.3,0.4,0.3,0.7c0,0.2,0,0.4-0.1,0.7c0,0.3-0.1,0.6-0.3,0.9
		c-0.1,0.3-0.4,0.7-0.6,1.1c-0.3,0.4-0.6,0.8-1.1,1.3c0.1,0.1,0.3,0.1,0.5,0.2c0.2,0.1,0.4,0.1,0.7,0.1s0.5,0.1,0.8,0.1
		c0.3,0,0.6,0,0.9,0h0.8c0.2,0,0.4,0,0.5,0.1s0.2,0.2,0.2,0.4v0.6c0,0.1,0,0.2-0.1,0.3c0,0.1-0.1,0.1-0.1,0.2
		c-0.1,0-0.1,0.1-0.2,0.1s-0.2,0-0.3,0h-1.2c-0.5,0-1,0-1.4-0.1s-0.8-0.2-1.2-0.3c-0.3-0.1-0.6-0.2-0.9-0.4
		c-0.3-0.1-0.4-0.2-0.6-0.3c-0.3,0.1-0.5,0.3-0.8,0.4c-0.3,0.1-0.6,0.2-0.9,0.3c-0.3,0.1-0.7,0.2-1.1,0.2c-0.4,0.1-0.8,0.1-1.2,0.1
		h-1.2c-0.2,0-0.4,0-0.5-0.1s-0.2-0.2-0.2-0.4v-0.6c0-0.1,0-0.2,0-0.3s0.1-0.1,0.1-0.2c0.1,0,0.1-0.1,0.2-0.1c0.1,0,0.2,0,0.3,0h1.3
		c0.3,0,0.7,0,0.9,0c0.3,0,0.6-0.1,0.8-0.1c0.2,0,0.4-0.1,0.6-0.1C304.1,109.8,304.3,109.7,304.3,109.6 M307.6,106.6
		c0-0.1,0-0.3-0.1-0.4c-0.1-0.1-0.2-0.2-0.4-0.3s-0.4-0.2-0.6-0.2c-0.2-0.1-0.5-0.1-0.8-0.1c-0.3,0-0.7,0-1.1,0.1
		c-0.4,0.1-0.9,0.2-1.3,0.5c0.1,0.2,0.2,0.4,0.4,0.6c0.2,0.3,0.4,0.5,0.6,0.8c0.2,0.3,0.5,0.5,0.7,0.8c0.3,0.3,0.5,0.5,0.8,0.6
		c0.3-0.2,0.5-0.4,0.8-0.6c0.2-0.2,0.4-0.4,0.6-0.7c0.2-0.2,0.3-0.4,0.4-0.6C307.6,106.9,307.6,106.7,307.6,106.6"/>
	<path class="st1" d="M310.8,111.7c-0.2,0-0.4,0-0.5-0.1c-0.1-0.1-0.2-0.2-0.2-0.4v-0.6c0-0.1,0-0.2,0.1-0.3c0-0.1,0.1-0.1,0.1-0.2
		c0.1,0,0.1-0.1,0.2-0.1c0.1,0,0.2,0,0.3,0h7.7V98.5h1.7v13.3h-9.4V111.7z"/>
	<rect x="323.3" y="98.5" class="st1" width="1.7" height="13.3"/>
</g>
</svg>
