<?xml version="1.0" encoding="utf-8"?>
<!-- Generator: Adobe Illustrator 23.0.1, SVG Export Plug-In . SVG Version: 6.00 Build 0)  -->
<svg version="1.1" id="Layer_1" xmlns="http://www.w3.org/2000/svg" xmlns:xlink="http://www.w3.org/1999/xlink" x="0px" y="0px"
	 viewBox="0 0 400 200" style="enable-background:new 0 0 400 200;" xml:space="preserve">
<g>
	<g>
		<g>
			<path d="M101,114.8H88.6c-2,0-3.6-1.6-3.6-3.5V88.9c0-1.9,1.6-3.5,3.6-3.5h11.6c4.8,0,9.9,3.3,9.9,9.3c0,2-0.5,3.8-1.6,5.2
				c1.4,1.6,2.2,3.6,2.2,5.9C110.7,111.6,105.7,114.8,101,114.8z M88.6,88c-0.5,0-0.9,0.4-0.9,0.9v22.3c0,0.5,0.4,0.9,0.9,0.9H101
				c3.5,0,7-2.1,7-6.2c0-2-0.8-3.6-2.2-4.7l-1.2-0.9l1.1-1.1c1.1-1.1,1.7-2.6,1.7-4.4c0-4.4-3.6-6.7-7.2-6.7H88.6z M101,110.3H89.4
				v-9H101c2.6,0,5.3,1.4,5.3,4.5C106.2,108.9,103.5,110.3,101,110.3z M92.1,107.7h8.9c0.4,0,2.6-0.1,2.6-1.8c0-1.7-1.8-1.9-2.6-1.9
				h-8.9V107.7z M100.1,99.6H89.4v-9.7h10.7c2.7,0,5.4,1.5,5.4,4.9C105.6,98.1,102.8,99.6,100.1,99.6z M92.1,96.9h8
				c0.8,0,2.8-0.2,2.8-2.2c0-2-1.9-2.2-2.8-2.2h-8V96.9z"/>
		</g>
		<g>
			<path d="M120,114.8c-1.9,0-3.5-1.6-3.5-3.5v-9.9c0-2.2,1.4-3.6,3.6-3.6h11.7c1.9,0,2.2-1.7,2.2-2.7c0-1.7-0.8-2.6-2.2-2.6H120
				c-2.2,0-3.6-1.4-3.6-3.6c0-1.9,1.6-3.5,3.5-3.5h11.7c4.6,0,9.2,3.3,9.2,9.7c0,3.7-1.6,6.7-4.4,8.4l3.2,6.1
				c0.4,0.8,0.5,1.8,0.2,2.7c-0.3,0.9-0.9,1.6-1.7,2.1c-0.8,0.4-1.8,0.5-2.7,0.2c-0.9-0.3-1.6-0.9-2.1-1.8l-4.1-7.9h-5.8v6.3
				C123.5,113.2,121.9,114.8,120,114.8z M120,100.4c-0.7,0-0.9,0.2-0.9,0.9v9.9c0,0.5,0.4,0.9,0.9,0.9c0.5,0,0.9-0.4,0.9-0.9v-9h10
				l4.8,9.4c0.1,0.3,0.4,0.4,0.5,0.4c0.2,0.1,0.5,0.1,0.7-0.1c0.2-0.1,0.4-0.3,0.4-0.5c0-0.1,0.1-0.4,0-0.7l-4.4-8.5l1.3-0.6
				c1.5-0.6,4.1-2.3,4.1-6.6c0-4.8-3.4-7-6.6-7H120c-0.5,0-0.9,0.4-0.9,0.9c0,0.7,0.2,0.9,0.9,0.9h11.7c2.4,0,4.8,1.6,4.8,5.3
				c0,3.2-1.9,5.4-4.8,5.4H120z"/>
		</g>
		<g>
			<path d="M150.3,114.8c-1.9,0-3.5-1.6-3.5-3.5V88.9c0-1.9,1.6-3.5,3.5-3.5c2,0,3.6,1.6,3.6,3.5v22.3
				C153.8,113.2,152.2,114.8,150.3,114.8z M150.3,88c-0.5,0-0.9,0.4-0.9,0.9v22.3c0,0.5,0.4,0.9,0.9,0.9c0.5,0,0.9-0.4,0.9-0.9V88.9
				C151.2,88.5,150.7,88,150.3,88z"/>
		</g>
		<g>
			<path d="M173.4,115.3c-8.6,0-15.6-6.9-15.6-15.3c0-8.5,7-15.3,15.6-15.3c3.1,0,6.1,0.9,8.7,2.6c1.7,1.1,2.1,3.3,1,4.9
				c-0.5,0.8-1.3,1.3-2.2,1.5c-0.9,0.2-1.9,0-2.6-0.5c-1.5-0.9-3.1-1.4-4.8-1.4c-4.7,0-8.5,3.7-8.5,8.2c0,4.5,3.8,8.2,8.5,8.2
				c3.1,0,5.2-1.6,6.3-3.5h-4.3c-1.9,0-3.5-1.6-3.5-3.5c0-1.9,1.6-3.5,3.5-3.5h8.6c1.9,0,3.5,1.5,3.5,3.4c0.2,3.7-1.2,7.2-3.8,9.9
				C181.1,113.8,177.4,115.3,173.4,115.3z M173.4,87.3c-7.1,0-12.9,5.7-12.9,12.7c0,7,5.8,12.7,12.9,12.7c3.3,0,6.3-1.2,8.5-3.5
				c2.1-2.2,3.1-5,3-8c0-0.5-0.4-0.9-0.9-0.9h-8.6c-0.5,0-0.9,0.4-0.9,0.9c0,0.5,0.4,0.9,0.9,0.9h7.8l-0.4,1.6
				c-0.9,4.2-4.8,7.2-9.5,7.2c-6.2,0-11.2-4.9-11.2-10.9c0-6,5-10.9,11.2-10.9c2.2,0,4.4,0.6,6.3,1.9l0,0c0.2,0.1,0.4,0.2,0.6,0.1
				c0.2,0,0.4-0.2,0.5-0.4l0,0c0.3-0.4,0.2-0.9-0.3-1.2C178.4,88.1,175.9,87.3,173.4,87.3z"/>
		</g>
		<g>
			<path d="M213,114.8c-2,0-3.6-1.6-3.6-3.5v-6.3h-10.1v6.3c0,1.9-1.6,3.5-3.5,3.5c-2,0-3.6-1.6-3.6-3.5V88.9c0-1.9,1.6-3.5,3.6-3.5
				c1.9,0,3.5,1.6,3.5,3.5v8.9h10.1v-8.9c0-1.9,1.6-3.5,3.6-3.5c1.9,0,3.5,1.6,3.5,3.5v22.3C216.5,113.2,214.9,114.8,213,114.8z
				 M196.6,102.2h15.5v9c0,0.5,0.4,0.9,0.9,0.9c0.5,0,0.9-0.4,0.9-0.9V88.9c0-0.5-0.4-0.9-0.9-0.9c-0.5,0-0.9,0.4-0.9,0.9v11.5
				h-15.5V88.9c0-0.5-0.4-0.9-0.9-0.9c-0.5,0-0.9,0.4-0.9,0.9v22.3c0,0.5,0.4,0.9,0.9,0.9c0.5,0,0.9-0.4,0.9-0.9V102.2z"/>
		</g>
		<g>
			<path d="M234.4,114.8c-1.9,0-3.5-1.6-3.5-3.5V92.5h-7.7c-1.9,0-3.5-1.6-3.5-3.6c0-1.9,1.6-3.5,3.5-3.5h22.5c2,0,3.6,1.6,3.6,3.5
				c0,2-1.6,3.6-3.6,3.6H238v18.7C238,113.2,236.4,114.8,234.4,114.8z M223.1,88c-0.5,0-0.9,0.4-0.9,0.9c0,0.5,0.4,0.9,0.9,0.9h10.4
				v21.4c0,0.5,0.4,0.9,0.9,0.9c0.5,0,0.9-0.4,0.9-0.9V89.8h10.4c0.5,0,0.9-0.4,0.9-0.9c0-0.5-0.4-0.9-0.9-0.9H223.1z"/>
		</g>
	</g>
	<path d="M290.2,111.2V89c0-1,0.6-1.8,1.5-2.1c0.9-0.4,1.9-0.1,2.5,0.6l16.3,17.8V89c0-1.3,1-2.3,2.3-2.3c1.3,0,2.3,1,2.3,2.3v22.2
		c0,1-0.6,1.8-1.5,2.1c-0.8,0.3-1.9,0.1-2.5-0.6l-16.3-17.9v16.4c0,1.2-1,2.3-2.3,2.3C291.2,113.4,290.2,112.4,290.2,111.2z"/>
	<path d="M276,88.4c0,0-0.1,0-0.1-0.1c-0.1,0-0.1-0.1-0.2-0.1c0,0,0,0,0,0c-0.3-0.2-0.6-0.3-1-0.3c-1.2,0-2.2,1-2.2,2.2
		c0,0.9,0.5,1.7,1.3,2c0,0,0,0,0,0.1c2.5,1.7,4.1,4.5,4.1,7.8c0,5.4-4.4,9.6-9.8,9.6c-5.4,0-9.8-4.2-9.8-9.6c0-3.5,1.9-6.5,4.7-8.1
		c0,0,0,0,0-0.1c0.5-0.4,0.8-1,0.8-1.7c0-1.2-1-2.2-2.2-2.2c-0.6,0-1.1,0.2-1.5,0.6c-3.7,2.5-6.1,6.7-6.1,11.4c0,7.8,6.5,14,14.3,14
		c7.9,0,14.3-6.2,14.3-14C282.3,95.1,279.8,90.9,276,88.4z"/>
	<path d="M268,101.2c-1,0-1.9-0.8-1.9-1.9V87.1c0-1,0.8-1.9,1.9-1.9s1.9,0.8,1.9,1.9v12.3C269.9,100.3,269,101.2,268,101.2z"/>
</g>
</svg>
