<?xml version="1.0" encoding="utf-8"?>
<!-- Generator: Adobe Illustrator 23.0.1, SVG Export Plug-In . SVG Version: 6.00 Build 0)  -->
<svg version="1.1" id="Layer_1" xmlns="http://www.w3.org/2000/svg" xmlns:xlink="http://www.w3.org/1999/xlink" x="0px" y="0px"
	 viewBox="0 0 400 200" style="enable-background:new 0 0 400 200;" xml:space="preserve">
<style type="text/css">
	.st0{fill:#002E6D;}
</style>
<g>
	<path class="st0" d="M203.9,50.8c-0.3-2.4-1.7-4.5-3.8-5.7l-11.9-6.5c-3.5-1.9-7.7-1.7-11,0.5l-15.4,10.5l28.3,18l11.6-10.3
		C203.3,55.6,204.2,53.3,203.9,50.8 M177.8,40.1c1.3-0.9,2.7-1.4,4.2-1.6v22.7l-18.2-11.6L177.8,40.1z"/>
	<path class="st0" d="M235,63.3l-16.6-8.9c-2.5-1.4-5.7-1-7.9,1L194,70.2l29.8,18.9l0.4,0.2l12.7-12c2.1-2,3.1-4.7,2.7-7.5
		C239.2,67,237.5,64.6,235,63.3 M211.3,56.2c0.7-0.6,1.5-1,2.4-1.3v26.5l-17.8-11.3L211.3,56.2z"/>
	<path class="st0" d="M159.9,76.8l64.5,44.5l0.7,0.5l0.5-0.5l17.4-19.2l4.7-5.4V71.1v-0.5c0-0.2,0-0.5,0-0.7c0-0.3,0-0.5-0.1-0.8
		c-0.6-4.1-3-7.6-6.6-9.6l-20.4-11c-0.1-0.1-1.6-0.9-3.6-1.1c-1.5-0.2-3.5,0-5.5,1.3c0.3-1.2,0.3-2.3-0.1-3.4c-0.7-2-2.5-2.9-2.8-3
		L192.8,34c-5.4-2.9-11.9-2.5-16.9,0.9l-22.8,15.6l-0.6,0.4l0.1,0.6L159.9,76.8z M246.4,96.2l-4.4,5.1l-16.5,18.3V97.1L239.4,84
		l2.3-2.1l1.9-1.8c1.2-1.2,2.2-2.5,2.9-4V96.2z M154.1,51.1l22.4-15.3c4.7-3.2,10.7-3.5,15.8-0.9l15.6,8.4l0,0c0,0,1.6,0.7,2.2,2.4
		c0.4,1.2,0.3,2.6-0.5,4.1c-0.1,0.3,0,0.6,0.2,0.8c0.3,0.2,0.6,0.1,0.8-0.1c4-3.9,8.9-1.2,9.1-1.1l20.4,11c3.3,1.8,5.5,5,6,8.7
		c0.1,0.5,0.1,0.9,0.1,1.4v0.4c-0.1,3.1-1.3,6-3.7,8.2l-17.9,16.9L154.1,51.1z"/>
	<path class="st0" d="M135,141c-0.4-0.5-0.9-0.9-1.5-1.2c-0.6-0.3-1.2-0.5-1.9-0.6v-0.1c1.1-0.4,2.1-0.9,2.8-1.7
		c0.7-0.8,1.1-1.8,1.1-3.1c0-1-0.2-1.8-0.6-2.6c-0.4-0.7-0.9-1.3-1.5-1.7c-0.6-0.4-1.4-0.8-2.2-1c-0.8-0.2-1.6-0.3-2.5-0.3H120v22.1
		h7.9c1,0,2.1-0.1,3.1-0.3c1-0.2,1.9-0.6,2.7-1c0.8-0.5,1.4-1.1,1.9-1.9c0.5-0.8,0.7-1.8,0.7-3c0-0.7-0.1-1.4-0.4-2
		C135.7,142,135.4,141.4,135,141 M123.9,132.2h3.2c1.5,0,2.6,0.2,3.3,0.7c0.7,0.5,1,1.2,1,2.1c0,0.8-0.3,1.5-1,2
		c-0.7,0.5-1.6,0.8-2.9,0.8h-3.6V132.2z M131.9,146c-0.3,0.4-0.7,0.8-1.2,1c-0.5,0.2-1,0.4-1.6,0.4c-0.6,0.1-1.1,0.1-1.6,0.1h-3.6
		v-6.4h3.8c1.6,0,2.8,0.2,3.5,0.7c0.8,0.5,1.1,1.3,1.1,2.4C132.4,145,132.2,145.6,131.9,146"/>
	<path class="st0" d="M157.2,146.4c0.5-1.1,0.7-2.3,0.7-3.6v-14h-3.9v13.8c0,0.5-0.1,1.1-0.2,1.7c-0.2,0.6-0.4,1.1-0.8,1.6
		c-0.4,0.5-0.9,0.9-1.5,1.2c-0.6,0.3-1.4,0.5-2.4,0.5c-0.9,0-1.7-0.2-2.4-0.5c-0.6-0.3-1.1-0.7-1.5-1.2c-0.4-0.5-0.7-1-0.8-1.6
		c-0.2-0.6-0.2-1.2-0.2-1.7v-13.8h-3.9v14c0,1.3,0.2,2.5,0.7,3.6c0.4,1.1,1.1,2,1.9,2.7c0.8,0.7,1.7,1.3,2.8,1.7
		c1.1,0.4,2.3,0.6,3.5,0.6c1.3,0,2.4-0.2,3.5-0.6c1.1-0.4,2-1,2.8-1.7C156.1,148.3,156.7,147.4,157.2,146.4"/>
	<path class="st0" d="M175.8,147.2c-0.8,0.4-1.7,0.6-2.6,0.6c-1.1,0-2.2-0.2-3.1-0.6c-0.9-0.4-1.7-1-2.4-1.7
		c-0.7-0.7-1.2-1.6-1.5-2.6c-0.4-1-0.5-2.1-0.5-3.3c0-1.1,0.2-2.1,0.5-3.1c0.4-1,0.9-1.8,1.5-2.5c0.7-0.7,1.5-1.3,2.4-1.7
		c0.9-0.4,2-0.6,3.1-0.6c0.8,0,1.5,0.1,2.3,0.4c0.8,0.3,1.5,0.9,2.4,1.7l3.1-2.2c-1.1-1.3-2.3-2.2-3.6-2.7c-1.3-0.5-2.7-0.8-4.2-0.8
		c-1.7,0-3.3,0.3-4.7,0.8c-1.4,0.6-2.6,1.3-3.7,2.4c-1,1-1.8,2.2-2.4,3.7c-0.6,1.4-0.9,3-0.9,4.8c0,1.7,0.3,3.3,0.9,4.7
		c0.6,1.4,1.4,2.6,2.4,3.6c1,1,2.3,1.8,3.7,2.3c1.4,0.6,3,0.8,4.7,0.8c1.6,0,3.1-0.3,4.6-0.9c1.4-0.6,2.6-1.6,3.6-3l-3.2-2.3
		C177.4,146.1,176.6,146.8,175.8,147.2"/>
	<path class="st0" d="M206.2,139.8c0-1.8-0.3-3.4-0.9-4.8c-0.6-1.4-1.4-2.7-2.4-3.7c-1-1-2.3-1.8-3.7-2.3c-1.4-0.5-3-0.8-4.7-0.8
		c-1.7,0-3.3,0.3-4.7,0.8c-1.4,0.6-2.6,1.3-3.7,2.4c-1,1-1.8,2.2-2.4,3.7c-0.6,1.4-0.9,3-0.9,4.8c0,1.7,0.3,3.3,0.9,4.7
		c0.6,1.4,1.4,2.6,2.4,3.6c1,1,2.3,1.8,3.7,2.3c1.4,0.6,3,0.8,4.7,0.8c1.7,0,3.3-0.3,4.7-0.9c1.4-0.6,2.7-1.4,3.7-2.4
		c1-1,1.8-2.2,2.4-3.6C205.9,143.1,206.2,141.5,206.2,139.8 M201.6,143c-0.4,1-0.9,1.9-1.5,2.6c-0.7,0.7-1.5,1.3-2.4,1.7
		c-0.9,0.4-2,0.6-3.1,0.6c-1.1,0-2.2-0.2-3.1-0.6c-0.9-0.4-1.7-1-2.4-1.7c-0.7-0.7-1.2-1.6-1.5-2.6c-0.4-1-0.5-2.1-0.5-3.3
		c0-1.1,0.2-2.1,0.5-3.1c0.4-1,0.9-1.8,1.5-2.5c0.7-0.7,1.5-1.3,2.4-1.7c0.9-0.4,2-0.6,3.1-0.6c1.1,0,2.2,0.2,3.1,0.6
		c0.9,0.4,1.7,1,2.4,1.7c0.7,0.7,1.2,1.6,1.5,2.5c0.4,1,0.5,2,0.5,3.1C202.1,140.9,201.9,142,201.6,143"/>
	<polygon class="st0" points="233.8,150.9 233.8,128.8 227.9,128.8 221.9,144.3 216,128.8 210.1,128.8 210.1,150.9 213.8,150.9 
		213.8,132.5 213.9,132.5 220.6,150.9 223.3,150.9 230,132.5 230.1,132.5 230.1,150.9 	"/>
	<path class="st0" d="M246,128.8l-9.6,22.1h4.4l2-5h9.6l2.1,5h4.5l-9.5-22.1H246z M244.1,142.5l3.5-9l3.4,9H244.1z"/>
	<path class="st0" d="M276.8,145.2c-0.7,0.9-1.5,1.6-2.4,2c-0.8,0.4-1.7,0.6-2.6,0.6c-1.1,0-2.2-0.2-3.1-0.6c-0.9-0.4-1.7-1-2.4-1.7
		c-0.7-0.7-1.2-1.6-1.5-2.6c-0.4-1-0.5-2.1-0.5-3.3c0-1.1,0.2-2.1,0.5-3.1c0.4-1,0.9-1.8,1.5-2.5c0.7-0.7,1.5-1.3,2.4-1.7
		c0.9-0.4,2-0.6,3.1-0.6c0.8,0,1.5,0.1,2.3,0.4c0.8,0.3,1.5,0.9,2.4,1.7l3.1-2.2c-1.1-1.3-2.3-2.2-3.6-2.7c-1.3-0.5-2.7-0.8-4.2-0.8
		c-1.7,0-3.3,0.3-4.7,0.8c-1.4,0.6-2.6,1.3-3.7,2.4c-1,1-1.8,2.2-2.4,3.7c-0.6,1.4-0.9,3-0.9,4.8c0,1.7,0.3,3.3,0.9,4.7
		c0.6,1.4,1.4,2.6,2.4,3.6c1,1,2.3,1.8,3.7,2.3c1.4,0.6,3,0.8,4.7,0.8c1.6,0,3.1-0.3,4.6-0.9c1.4-0.6,2.6-1.6,3.6-3L276.8,145.2z"/>
	<path class="st0" d="M147.9,163.2c-0.2-0.2-0.4-0.4-0.7-0.5c-0.3-0.1-0.6-0.2-0.9-0.2v0c0.6-0.1,1-0.4,1.3-0.8
		c0.3-0.4,0.5-0.8,0.5-1.3c0-0.6-0.1-1-0.3-1.4c-0.2-0.3-0.4-0.6-0.8-0.8c-0.3-0.2-0.7-0.3-1-0.4c-0.4-0.1-0.8-0.1-1.1-0.1H142v10
		h3.2c0.3,0,0.7,0,1.1-0.1c0.4-0.1,0.8-0.2,1.1-0.4c0.3-0.2,0.6-0.5,0.8-0.9c0.2-0.4,0.3-0.8,0.3-1.4c0-0.3-0.1-0.7-0.2-1
		C148.2,163.6,148.1,163.4,147.9,163.2 M142.9,158.5h2.1c0.3,0,0.6,0,0.8,0.1c0.3,0.1,0.5,0.2,0.7,0.3c0.2,0.1,0.4,0.3,0.5,0.6
		c0.1,0.2,0.2,0.5,0.2,0.9c0,0.2,0,0.3-0.1,0.5c-0.1,0.2-0.2,0.4-0.3,0.5c-0.2,0.2-0.4,0.3-0.7,0.4c-0.3,0.1-0.7,0.2-1.2,0.2h-1.9
		V158.5z M147.5,165.5c-0.1,0.2-0.2,0.4-0.4,0.6c-0.2,0.2-0.4,0.4-0.8,0.5c-0.3,0.1-0.8,0.2-1.3,0.2h-2.1v-4h2.3
		c0.3,0,0.6,0,0.9,0.1c0.3,0.1,0.5,0.2,0.8,0.4c0.2,0.2,0.4,0.4,0.6,0.6c0.1,0.3,0.2,0.6,0.2,0.9
		C147.6,165.1,147.6,165.3,147.5,165.5"/>
	<rect x="150.8" y="157" class="st0" width="0.8" height="10.7"/>
	<path class="st0" d="M159.6,161.9c-0.3-0.3-0.7-0.5-1.1-0.7c-0.4-0.2-0.9-0.3-1.4-0.3c-0.5,0-1,0.1-1.4,0.3
		c-0.4,0.2-0.8,0.4-1.1,0.7c-0.3,0.3-0.5,0.7-0.7,1.1c-0.2,0.4-0.3,0.9-0.3,1.4c0,0.5,0.1,1,0.3,1.4c0.2,0.4,0.4,0.8,0.7,1.1
		c0.3,0.3,0.7,0.5,1.1,0.7c0.4,0.2,0.9,0.3,1.4,0.3c0.5,0,1-0.1,1.4-0.3c0.4-0.2,0.8-0.4,1.1-0.7s0.5-0.7,0.7-1.1
		c0.2-0.4,0.3-0.9,0.3-1.4c0-0.5-0.1-1-0.3-1.4C160.1,162.6,159.9,162.2,159.6,161.9 M159.5,165.5c-0.1,0.3-0.3,0.6-0.5,0.8
		c-0.2,0.2-0.5,0.4-0.8,0.6s-0.7,0.2-1.1,0.2s-0.8-0.1-1.1-0.2c-0.3-0.1-0.6-0.3-0.8-0.6c-0.2-0.2-0.4-0.5-0.5-0.8
		c-0.1-0.3-0.2-0.7-0.2-1c0-0.4,0.1-0.7,0.2-1c0.1-0.3,0.3-0.6,0.5-0.8c0.2-0.2,0.5-0.4,0.8-0.6c0.3-0.1,0.7-0.2,1.1-0.2
		s0.8,0.1,1.1,0.2s0.6,0.3,0.8,0.6c0.2,0.2,0.4,0.5,0.5,0.8c0.1,0.3,0.2,0.7,0.2,1C159.7,164.8,159.7,165.1,159.5,165.5"/>
	<path class="st0" d="M163.6,162.5c0.2-0.2,0.5-0.4,0.8-0.6s0.7-0.2,1.1-0.2c0.3,0,0.7,0.1,0.9,0.2c0.3,0.2,0.6,0.4,0.8,0.6l0.7-0.5
		c-0.3-0.4-0.7-0.6-1.1-0.8c-0.4-0.2-0.9-0.3-1.3-0.3c-0.5,0-1,0.1-1.4,0.3c-0.4,0.2-0.8,0.4-1.1,0.7c-0.3,0.3-0.5,0.7-0.7,1.1
		c-0.2,0.4-0.3,0.9-0.3,1.4c0,0.5,0.1,1,0.3,1.4c0.2,0.4,0.4,0.8,0.7,1.1c0.3,0.3,0.7,0.5,1.1,0.7c0.4,0.2,0.9,0.3,1.4,0.3
		c0.5,0,0.9-0.1,1.3-0.3c0.4-0.2,0.8-0.5,1.1-0.9l-0.7-0.5c-0.2,0.3-0.5,0.5-0.8,0.7s-0.6,0.2-1,0.2c-0.4,0-0.8-0.1-1.1-0.2
		s-0.6-0.3-0.8-0.6c-0.2-0.2-0.4-0.5-0.5-0.8c-0.1-0.3-0.2-0.7-0.2-1c0-0.4,0.1-0.7,0.2-1C163.2,163,163.4,162.8,163.6,162.5"/>
	<polygon class="st0" points="174.6,161.2 173.4,161.2 170.1,164.1 170.1,157 169.3,157 169.3,167.7 170.1,167.7 170.1,164.2 
		173.7,167.7 175,167.7 171.2,164.1 	"/>
	<path class="st0" d="M179.3,164.2c-0.3-0.1-0.6-0.2-0.9-0.3s-0.7-0.1-0.9-0.2c-0.3-0.1-0.5-0.2-0.7-0.3c-0.2-0.1-0.3-0.4-0.3-0.7
		c0-0.2,0-0.3,0.1-0.5c0.1-0.1,0.2-0.2,0.3-0.3c0.1-0.1,0.3-0.2,0.4-0.2c0.2,0,0.3-0.1,0.5-0.1c0.4,0,0.7,0.1,0.9,0.2
		c0.2,0.2,0.4,0.4,0.6,0.7l0.8-0.5c-0.2-0.4-0.5-0.7-0.9-0.9c-0.4-0.2-0.9-0.3-1.4-0.3c-0.3,0-0.5,0-0.8,0.1
		c-0.3,0.1-0.5,0.2-0.7,0.3c-0.2,0.2-0.4,0.4-0.5,0.6c-0.1,0.2-0.2,0.5-0.2,0.8c0,0.4,0.1,0.7,0.3,1c0.2,0.2,0.4,0.4,0.7,0.5
		c0.3,0.1,0.6,0.2,0.9,0.3c0.3,0.1,0.7,0.1,0.9,0.2c0.3,0.1,0.5,0.2,0.7,0.4c0.2,0.2,0.3,0.4,0.3,0.7c0,0.2,0,0.4-0.1,0.5
		c-0.1,0.1-0.2,0.3-0.3,0.4c-0.1,0.1-0.3,0.2-0.5,0.2c-0.2,0.1-0.4,0.1-0.5,0.1c-0.4,0-0.8-0.1-1.1-0.3c-0.3-0.2-0.6-0.5-0.8-0.8
		l-0.8,0.5c0.3,0.5,0.6,0.8,1.1,1c0.5,0.2,1,0.3,1.6,0.3c0.3,0,0.6,0,0.9-0.1c0.3-0.1,0.5-0.2,0.8-0.4c0.2-0.2,0.4-0.4,0.5-0.6
		c0.1-0.2,0.2-0.5,0.2-0.9c0-0.4-0.1-0.8-0.3-1C179.9,164.6,179.6,164.4,179.3,164.2"/>
	<path class="st0" d="M194,162.2h-1l-1.4,2.6l-2.4-2.6c0.3-0.2,0.6-0.3,0.8-0.5c0.3-0.2,0.5-0.3,0.7-0.6c0.2-0.2,0.4-0.4,0.5-0.7
		c0.1-0.3,0.2-0.6,0.2-0.9c0-0.3-0.1-0.6-0.2-0.9s-0.3-0.5-0.5-0.7c-0.2-0.2-0.5-0.3-0.7-0.4c-0.3-0.1-0.6-0.2-0.8-0.2
		c-0.3,0-0.6,0.1-1,0.2c-0.3,0.1-0.6,0.3-0.8,0.4c-0.2,0.2-0.4,0.4-0.6,0.7c-0.1,0.3-0.2,0.6-0.2,1c0,0.2,0,0.4,0.1,0.7
		c0.1,0.2,0.2,0.4,0.3,0.6c0.1,0.2,0.2,0.4,0.4,0.6c0.1,0.2,0.3,0.4,0.4,0.5c-0.3,0.2-0.6,0.4-0.8,0.5s-0.5,0.4-0.7,0.6
		c-0.2,0.2-0.4,0.5-0.5,0.8c-0.1,0.3-0.2,0.6-0.2,1c0,0.4,0.1,0.8,0.2,1.2c0.2,0.4,0.4,0.7,0.7,0.9c0.3,0.3,0.6,0.5,1,0.6
		c0.4,0.1,0.8,0.2,1.2,0.2c0.7,0,1.3-0.2,1.8-0.5c0.5-0.3,0.9-0.8,1.3-1.3l1.5,1.6h1.3l-2.3-2.4L194,162.2z M187.6,160.2
		c-0.1-0.2-0.1-0.4-0.1-0.5c0-0.4,0.1-0.8,0.4-1c0.3-0.3,0.7-0.4,1.1-0.4c0.4,0,0.7,0.1,1,0.4c0.3,0.3,0.4,0.6,0.4,1
		c0,0.3-0.1,0.5-0.2,0.7c-0.1,0.2-0.3,0.4-0.4,0.5c-0.2,0.2-0.4,0.3-0.6,0.4c-0.2,0.1-0.4,0.2-0.6,0.3c-0.1-0.1-0.2-0.3-0.3-0.4
		c-0.1-0.2-0.2-0.3-0.4-0.5C187.8,160.5,187.7,160.4,187.6,160.2 M190.6,166.1c-0.2,0.2-0.4,0.3-0.6,0.5c-0.2,0.1-0.4,0.3-0.6,0.3
		c-0.2,0.1-0.5,0.1-0.7,0.1c-0.3,0-0.6,0-0.9-0.1c-0.3-0.1-0.5-0.2-0.7-0.4c-0.2-0.2-0.4-0.4-0.5-0.7c-0.1-0.3-0.2-0.5-0.2-0.9
		c0-0.3,0.1-0.6,0.2-0.8c0.1-0.2,0.3-0.4,0.4-0.6c0.2-0.2,0.4-0.4,0.6-0.5c0.2-0.2,0.4-0.3,0.7-0.4l2.8,2.9
		C191,165.8,190.8,165.9,190.6,166.1"/>
	<rect x="199.7" y="157.7" class="st0" width="0.9" height="10"/>
	<path class="st0" d="M208.3,161.8c-0.2-0.3-0.4-0.5-0.8-0.6c-0.3-0.2-0.7-0.2-1.2-0.2c-0.5,0-1,0.1-1.4,0.4
		c-0.4,0.3-0.7,0.6-0.9,0.9h0c0-0.1,0-0.2,0-0.4c0-0.2,0-0.5,0-0.7h-0.8c0,0.1,0,0.2,0,0.4c0,0.2,0,0.3,0,0.5c0,0.2,0,0.4,0,0.5
		c0,0.2,0,0.3,0,0.4v4.7h0.9v-3.3c0-0.5,0.1-0.8,0.2-1.2c0.1-0.3,0.3-0.6,0.5-0.8c0.2-0.2,0.4-0.4,0.7-0.5c0.3-0.1,0.6-0.2,0.9-0.2
		c0.3,0,0.6,0.1,0.8,0.2c0.2,0.1,0.4,0.3,0.5,0.5c0.1,0.2,0.2,0.4,0.2,0.7c0,0.3,0.1,0.5,0.1,0.8v3.9h0.8v-3.9c0-0.4,0-0.7-0.1-1
		C208.6,162.4,208.5,162.1,208.3,161.8"/>
	<path class="st0" d="M213.7,167c-0.2,0-0.3,0.1-0.5,0.1c-0.3,0-0.5-0.1-0.7-0.2c-0.2-0.2-0.2-0.4-0.2-0.7v-4.3h1.9v-0.8h-1.9v-1.9
		h-0.8v1.9h-1.4v0.8h1.4v4.3c0,0.2,0,0.5,0.1,0.7c0.1,0.2,0.2,0.4,0.3,0.5c0.1,0.2,0.3,0.3,0.5,0.4c0.2,0.1,0.5,0.1,0.8,0.1
		c0.2,0,0.3,0,0.6-0.1c0.2,0,0.4-0.1,0.6-0.2l-0.1-0.8C214.1,166.9,213.9,167,213.7,167"/>
	<path class="st0" d="M220.9,161.9c-0.3-0.3-0.6-0.5-1-0.7c-0.4-0.2-0.8-0.3-1.3-0.3c-0.5,0-0.9,0.1-1.3,0.3c-0.4,0.2-0.7,0.4-1,0.7
		c-0.3,0.3-0.5,0.7-0.7,1.1c-0.2,0.4-0.2,0.9-0.2,1.4c0,0.5,0.1,1,0.2,1.4c0.2,0.4,0.4,0.8,0.7,1.1c0.3,0.3,0.6,0.5,1,0.7
		c0.4,0.2,0.9,0.3,1.4,0.3c0.6,0,1.1-0.1,1.6-0.3c0.5-0.2,0.9-0.6,1.2-1.1l-0.6-0.5c-0.2,0.4-0.5,0.6-0.9,0.8
		c-0.4,0.2-0.8,0.3-1.3,0.3c-0.5,0-0.9-0.1-1.2-0.3c-0.3-0.2-0.6-0.4-0.8-0.7c-0.2-0.3-0.3-0.5-0.4-0.8c-0.1-0.3-0.1-0.5-0.1-0.7
		h5.5V164c0-0.4-0.1-0.8-0.2-1.1C221.4,162.5,221.2,162.2,220.9,161.9 M216.2,163.9c0-0.1,0-0.2,0.1-0.5c0.1-0.2,0.2-0.5,0.4-0.7
		c0.2-0.2,0.4-0.5,0.7-0.7c0.3-0.2,0.7-0.3,1.2-0.3c0.3,0,0.6,0.1,0.9,0.2c0.3,0.1,0.5,0.3,0.7,0.5c0.2,0.2,0.4,0.4,0.5,0.7
		c0.1,0.3,0.2,0.5,0.2,0.8H216.2z"/>
	<path class="st0" d="M226.5,161c-0.5,0-0.9,0.1-1.2,0.4c-0.3,0.2-0.6,0.6-0.8,0.9c0-0.1,0-0.2,0-0.4c0-0.2,0-0.5,0-0.7h-0.9
		c0,0.1,0,0.2,0,0.4c0,0.2,0,0.3,0,0.5c0,0.2,0,0.4,0,0.5c0,0.2,0,0.3,0,0.4v4.7h0.8v-3.6c0-0.3,0-0.6,0.1-0.9
		c0.1-0.3,0.2-0.5,0.4-0.7c0.2-0.2,0.4-0.4,0.7-0.5c0.3-0.1,0.6-0.2,1-0.2c0.1,0,0.2,0,0.3,0.1l0.1-0.8c-0.1,0-0.2,0-0.2,0
		C226.7,161,226.6,161,226.5,161"/>
	<rect x="228.5" y="157" class="st0" width="0.8" height="10.7"/>
	<path class="st0" d="M237.3,161.9c-0.3-0.3-0.7-0.5-1.1-0.7c-0.4-0.2-0.9-0.3-1.4-0.3c-0.5,0-1,0.1-1.4,0.3
		c-0.4,0.2-0.8,0.4-1.1,0.7c-0.3,0.3-0.5,0.7-0.7,1.1c-0.2,0.4-0.3,0.9-0.3,1.4c0,0.5,0.1,1,0.3,1.4c0.2,0.4,0.4,0.8,0.7,1.1
		c0.3,0.3,0.7,0.5,1.1,0.7c0.4,0.2,0.9,0.3,1.4,0.3c0.5,0,1-0.1,1.4-0.3c0.4-0.2,0.8-0.4,1.1-0.7c0.3-0.3,0.5-0.7,0.7-1.1
		c0.2-0.4,0.3-0.9,0.3-1.4c0-0.5-0.1-1-0.3-1.4C237.8,162.6,237.6,162.2,237.3,161.9 M237.2,165.5c-0.1,0.3-0.3,0.6-0.5,0.8
		c-0.2,0.2-0.5,0.4-0.8,0.6c-0.3,0.1-0.7,0.2-1.1,0.2c-0.4,0-0.8-0.1-1.1-0.2c-0.3-0.1-0.6-0.3-0.8-0.6c-0.2-0.2-0.4-0.5-0.5-0.8
		c-0.1-0.3-0.2-0.7-0.2-1c0-0.4,0.1-0.7,0.2-1c0.1-0.3,0.3-0.6,0.5-0.8c0.2-0.2,0.5-0.4,0.8-0.6c0.3-0.1,0.7-0.2,1.1-0.2
		c0.4,0,0.8,0.1,1.1,0.2c0.3,0.1,0.6,0.3,0.8,0.6c0.2,0.2,0.4,0.5,0.5,0.8c0.1,0.3,0.2,0.7,0.2,1
		C237.4,164.8,237.3,165.1,237.2,165.5"/>
	<path class="st0" d="M241.3,162.5c0.2-0.2,0.5-0.4,0.8-0.6c0.3-0.1,0.7-0.2,1.1-0.2c0.3,0,0.7,0.1,0.9,0.2c0.3,0.2,0.6,0.4,0.8,0.6
		l0.7-0.5c-0.3-0.4-0.7-0.6-1.1-0.8c-0.4-0.2-0.9-0.3-1.3-0.3c-0.5,0-1,0.1-1.4,0.3c-0.4,0.2-0.8,0.4-1.1,0.7
		c-0.3,0.3-0.5,0.7-0.7,1.1c-0.2,0.4-0.3,0.9-0.3,1.4c0,0.5,0.1,1,0.3,1.4c0.2,0.4,0.4,0.8,0.7,1.1c0.3,0.3,0.7,0.5,1.1,0.7
		c0.4,0.2,0.9,0.3,1.4,0.3c0.5,0,0.9-0.1,1.3-0.3c0.4-0.2,0.8-0.5,1.1-0.9l-0.7-0.5c-0.2,0.3-0.5,0.5-0.8,0.7s-0.6,0.2-1,0.2
		c-0.4,0-0.8-0.1-1.1-0.2c-0.3-0.1-0.6-0.3-0.8-0.6c-0.2-0.2-0.4-0.5-0.5-0.8c-0.1-0.3-0.2-0.7-0.2-1c0-0.4,0.1-0.7,0.2-1
		C240.9,163,241.1,162.8,241.3,162.5"/>
	<polygon class="st0" points="252.3,161.2 251,161.2 247.8,164.1 247.8,157 247,157 247,167.7 247.8,167.7 247.8,164.2 251.4,167.7 
		252.7,167.7 248.9,164.1 	"/>
	<path class="st0" d="M257,164.2c-0.3-0.1-0.6-0.2-0.9-0.3c-0.3-0.1-0.7-0.1-0.9-0.2c-0.3-0.1-0.5-0.2-0.7-0.3
		c-0.2-0.1-0.3-0.4-0.3-0.7c0-0.2,0-0.3,0.1-0.5c0.1-0.1,0.2-0.2,0.3-0.3c0.1-0.1,0.3-0.2,0.4-0.2c0.2,0,0.3-0.1,0.5-0.1
		c0.4,0,0.7,0.1,0.9,0.2c0.2,0.2,0.4,0.4,0.6,0.7l0.8-0.5c-0.2-0.4-0.5-0.7-0.9-0.9c-0.4-0.2-0.9-0.3-1.4-0.3c-0.3,0-0.5,0-0.8,0.1
		c-0.3,0.1-0.5,0.2-0.7,0.3c-0.2,0.2-0.4,0.4-0.5,0.6c-0.1,0.2-0.2,0.5-0.2,0.8c0,0.4,0.1,0.7,0.3,1c0.2,0.2,0.4,0.4,0.7,0.5
		c0.3,0.1,0.6,0.2,0.9,0.3c0.3,0.1,0.7,0.1,0.9,0.2c0.3,0.1,0.5,0.2,0.7,0.4c0.2,0.2,0.3,0.4,0.3,0.7c0,0.2,0,0.4-0.1,0.5
		c-0.1,0.1-0.2,0.3-0.3,0.4c-0.1,0.1-0.3,0.2-0.5,0.2c-0.2,0.1-0.4,0.1-0.5,0.1c-0.4,0-0.8-0.1-1.1-0.3c-0.3-0.2-0.6-0.5-0.8-0.8
		l-0.8,0.5c0.3,0.5,0.6,0.8,1.1,1c0.5,0.2,1,0.3,1.6,0.3c0.3,0,0.6,0,0.9-0.1c0.3-0.1,0.5-0.2,0.8-0.4c0.2-0.2,0.4-0.4,0.5-0.6
		c0.1-0.2,0.2-0.5,0.2-0.9c0-0.4-0.1-0.8-0.3-1C257.6,164.6,257.3,164.4,257,164.2"/>
</g>
</svg>
