<?xml version="1.0" encoding="utf-8"?>
<!-- Generator: Adobe Illustrator 23.0.1, SVG Export Plug-In . SVG Version: 6.00 Build 0)  -->
<svg version="1.1" id="Layer_1" xmlns="http://www.w3.org/2000/svg" xmlns:xlink="http://www.w3.org/1999/xlink" x="0px" y="0px"
	 viewBox="0 0 400 200" style="enable-background:new 0 0 400 200;" xml:space="preserve">
<style type="text/css">
	.st0{fill-rule:evenodd;clip-rule:evenodd;fill:#313080;}
	.st1{fill-rule:evenodd;clip-rule:evenodd;fill:#B6B2B2;}
</style>
<g>
	<g>
		<polygon class="st0" points="257.8,75.1 256.2,77.1 258.3,78.8 259.7,77.1 261.8,78.8 263.4,76.8 261.4,75.1 259.9,76.8 
			257.8,75.1 257.8,75.1 		"/>
		<polygon class="st0" points="213,75.8 211.3,77.8 213.3,79.4 215,77.4 213,75.8 213,75.8 		"/>
		<path class="st0" d="M283.3,90.2l0.1,0.2l0.2,0.3l0.3,0.3l0.3,0.2l0.4,0.1l0.4,0.1h0.9v-1.2h6.6v0l-0.2,0.3l-0.2,0.2l-0.3,0.2
			l-0.2,0.2l-0.5,0.3l-0.3,0l-0.2,0h-2.2l-0.1,0.2l-0.1,0.3l-0.1,0.3l-0.1,0.4l-0.2,0.4l-0.2,0.5l-0.2,0.5l-0.2,0.5l-0.5,0.6
			l-0.2,0.3l-0.1,0.1l-0.1,0.2l-0.5,0.5l0,0v-3.5l0.4-0.6l0.4-0.5l0.1-0.2l0.1-0.2l-1.1,0v-1.2L283.3,90.2L283.3,90.2 M292.8,90.2
			L292.8,90.2l0.3,0.1l0.3,0.1l0.3,0.1l0.3,0.2l2.2,0.9v-1.4h14.3l-0.5,0.3l-0.4,0.2l-0.4,0.2l-0.2,0.1H309l-0.1,0.1l-0.5,0.1
			l-0.3,0l-0.3,0l-0.6,0.1h-0.4h-0.2h-0.1l0,0h-0.4H306h-0.1l-0.1,0h-3.8l-0.6-0.1l-0.6-0.2l-0.6-0.3l-0.5-0.3l-1.2,2l-2.4-0.9l0,0
			v-1.4H292.8L292.8,90.2 M312.5,90.2L312.5,90.2l0.2,0.5l0.2,0.3l0.2,0.3l0.2,0.1l0.3,0.1h7.5l0.1,0h0.1l0.1,0h0.1l0.2,0l0.3,0
			l0.2-0.1l0.2-0.1l0.1-0.1l0.1-0.1l0.1-0.1l0.3-0.5H312.5L312.5,90.2 M324.4,90.2l2,0.7v-0.7h3.8l0,0l-0.3,0.3l-0.3,0.4l-0.4,0.4
			l-0.4,0.5l-2.4-0.9l0,0v-0.7H324.4L324.4,90.2 M285.9,92.9L285.9,92.9l-0.3,0.3l-0.3,0.3l-0.7,0.6l-0.6,0.5l-0.6,0.4l-0.5,0.4
			l-0.5,0.3l-0.5,0.2l-0.5,0.1L281,96l-0.9-0.1l-0.8-0.1l-0.7-0.3l-0.7-0.3l-0.1,0.3l2.2,1.2l0.5,0.2l0.5,0.2l0.5,0.2l0.2,0.1
			l0.3,0.1h0.2l0.2,0.1l0.4,0h0.1l0.2,0h0.3l0.6-0.1l0.5-0.2l0.3-0.2l0.1-0.1l0.2,0l0.5-0.3l0.5-0.4V92.9L285.9,92.9L285.9,92.9z"/>
		<polygon class="st0" points="285.9,90.2 285.9,88.7 285.8,88.6 285.4,88.5 285.1,88.5 284.9,88.3 284.7,88.2 284.6,88 284.5,87.9 
			284.5,87.7 284.6,87.6 284.7,87.2 285.1,87 285.5,86.8 285.9,86.8 285.9,84.5 285.9,84.5 285.9,84.5 285.8,84.5 285.5,84.6 
			285.2,84.8 284.9,85 284.7,85.2 284.2,85.9 283.7,86.7 283.5,87.1 283.4,87.5 283.3,88.2 283.2,88.6 283.2,89 283.2,89.6 
			283.3,90 283.3,90.2 285.9,90.2 285.9,88.7 286.3,88.7 286.5,88.7 286.7,88.7 287.1,88.7 287.1,88.7 287.2,88.7 287.4,88.7 
			287.4,88.4 287.3,88.2 287.3,88.1 287.1,87.9 286.9,87.6 286.7,87.2 286.5,87 286.2,86.9 286,86.8 285.9,86.8 285.9,84.5 
			286.5,84.4 286.7,84.4 287,84.5 287.2,84.6 287.5,84.8 287.7,85 288,85.3 288.1,85.6 288.4,86.1 288.5,86.7 288.7,87.3 288.9,88 
			289,88.7 289,88.7 290.9,88.7 291.1,88.7 291.3,88.7 291.5,88.6 291.5,88.6 291.5,88.6 291.6,88.6 291.7,88.6 291.7,88.5 
			291.7,88.5 291.8,88.5 291.8,88.5 291.9,88.5 291.9,88.4 291.9,88.4 292,88.4 292.1,88.3 292.3,88.2 294.2,85.7 294.6,85.3 
			295,84.9 295.7,84.5 296.3,84.2 296.3,86.3 295.9,86.3 295.6,86.4 295.4,86.6 295.1,86.8 294.8,87.1 294.2,87.8 296.3,88.5 
			296.3,90.2 310.6,90.2 312.2,89 312.3,89.4 312.3,89.8 312.5,90.2 323,90.2 323.3,89.7 324.4,90.2 326.4,90.2 326.4,88 
			328.5,88.7 328.5,88.1 328.4,87.7 328.2,87.2 328.1,86.7 327.7,86.2 327.6,86 327.4,85.8 327.2,85.7 327,85.6 326.8,85.5 
			326.6,85.5 326.4,85.6 326.4,83.7 326.8,83.5 327.5,83.4 327.9,83.4 328,83.4 328.2,83.5 328.6,83.7 328.8,83.9 328.9,84 
			329.2,84.6 329.4,84.8 329.6,85.2 329.9,85.8 330.1,86.6 330.2,87 330.3,87.3 330.5,88.1 330.6,88.5 330.6,88.8 330.6,89.2 
			330.6,89.3 330.6,89.4 330.7,89.6 330.6,89.6 330.6,89.7 330.4,89.9 330.2,90.2 326.4,90.2 326.4,88 324.3,87.3 324.6,86.8 
			324.9,86.5 325.2,86.2 325.5,86 326,85.6 326.4,85.6 326.4,83.7 326,83.8 325.4,84.3 324.6,85 324.4,85.2 324.2,85.5 324,85.9 
			323.8,86.3 323.4,86.7 323.1,87.3 322.8,87.8 322.5,88.4 321.3,88.7 314.2,88.7 314,88.7 313.8,88.7 313.6,88.6 313.5,88.5 
			313.5,88.4 313.9,88.1 314.3,87.9 314.7,87.8 315.3,87.7 315.8,87.6 316.4,87.6 317.1,87.5 317.8,87.6 318.8,85 318,84.9 
			317.9,84.9 317.8,84.9 317.6,84.9 317.3,84.9 315.8,84.8 315,84.7 314.3,84.6 312.7,84.2 310.1,83.4 309.4,83.2 308.9,83.1 
			308.5,83 308.3,83 307.6,83 307,83.3 306.5,83.6 305.9,84.2 305.5,84.7 305.2,85.4 305,86 304.9,86.7 305.1,86.4 305.3,86.3 
			305.6,86.1 305.9,85.9 306.2,85.8 306.6,85.7 307.4,85.7 307.9,85.7 308.6,85.8 309.2,86 310,86.2 312.4,86.9 311.9,87.3 
			311.3,87.7 310.8,88 310.3,88.2 309.8,88.4 309.3,88.6 308.8,88.7 308.4,88.7 302.5,88.7 301,88.5 300.6,88.3 300.3,88.1 
			300.1,87.8 299.9,87.4 299.7,86.9 299.5,86.4 299.3,85.9 299.2,85.6 299,85.2 298.9,85 298.8,84.8 298.7,84.7 298.4,84.4 
			298.1,84.2 297.8,84.1 297.7,84.1 297.2,84 296.5,84.1 296.3,84.2 296.3,86.3 296.5,86.2 296.7,86.2 296.9,86.3 297.2,86.5 
			297.5,86.8 297.8,87.4 298,87.9 298.1,88.1 298.1,88.2 298.1,88.4 298.2,88.8 298.3,89.3 296.3,88.5 296.3,90.2 292.8,90.2 
			292.7,90.1 292.6,90.1 292.5,90.1 292.5,90.2 285.9,90.2 		"/>
		<path class="st0" d="M275,85.8L275,85.8L275,85.8L275,85.8l0-0.2v-0.1l-0.2-0.4l-0.1-0.4l-0.2-0.3l-0.2-0.3l-0.3-0.3l-0.2-0.3
			l-0.5-0.5l-0.3-0.3l-0.3-0.2l-0.3-0.2l-0.3-0.1l-0.3-0.2l-0.4,0l-0.4-0.1h-0.4h-0.3l-0.3,0.1l-0.3,0l-0.3,0.1l-0.6,0.2l-0.3,0.2
			l-0.3,0.2l-0.6,0.4l-0.5,0.5l-0.4,0.4l-0.3,0.5l-0.3,0.5l-0.2,0.6l-0.1,0.5l0,0.6l0,0.5l0.1,0.5l0.2,0.5l0.3,0.6h-2.8l-0.3-0.1
			l-0.3-0.1l-0.3-0.1l-0.2-0.2l-0.2-0.3l-0.2-0.3l-0.1-0.4l-0.1-0.5l-1.2-7.9l-1.4,2.6l0.2,1.2l-0.2,0.1l-0.1,0.2l-0.3,0.2l-0.3,0.3
			l-0.4,0.2l-0.4,0.3l-0.2,0.1v1.6l0.5-0.1l0.2-0.2l0.2-0.2l0.3-0.3l0.2-0.3l0.4-1l0.5,3.3l0,0.2l0,0.1l0,0.1l-0.1,0.1l0,0l-0.1,0
			l-0.2,0.1l-0.3,0h-0.2h-0.1l0,0l-0.1,0h-0.1h-0.2l-0.4,0l-0.4,0v2.9h0l0.3,0h0.1h0.1h0.2l0.3-0.1l0.3,0l0.9-1.7l0.3-0.8l0.1,0.8
			l0.1,0.4l0.1,0.4l0.1,0.3l0.1,0.3l0.2,0.5l0.2,0.3l0.2,0.2l0.2,0.2l0.3,0.2l0.3,0.1l0.4,0.1l0.3,0l0.4,0h12.3l1.6-2.7l-5.7-0.1
			l-0.3-0.1l-0.3-0.1l-0.6-0.2l-0.3-0.2l-0.3-0.2l-0.3-0.3l-0.3-0.3l-0.5-0.5l-0.3-0.2l-0.1-0.2l-0.3-0.4l-0.1-0.3l0.1-0.3l0.1-0.2
			l0.2-0.1l0.2-0.2l0.3-0.1l0.8-0.3l0.4-0.2l0.4-0.1l0.3-0.1l0.4,0l0.3-0.1l0.2,0h0.5h0.6l0.5,0.1l0.5,0.1l0.5,0.2l0.4,0.2l0.3,0.3
			l0.3,0.3L275,85.8L275,85.8L275,85.8 M257.9,84l-0.3,0.2l-0.5,0.3l-0.6,0.3l-0.5,0.5l-0.5,0.5l-0.4,0.7l-0.4,0.7l-0.3,0.9L254,89
			l-0.2,0.9l0.7,0l0.7,0.1h0.6l0.6,0l0.4,0l0.3,0.1h0.1h0.2l0.3,0v-2.9l-0.4-0.1h-0.7l-0.7,0l-0.6,0l0.1-0.2l0.2-0.2l0.3-0.3
			l0.3-0.2l0.4-0.3l0.4-0.2l0.5-0.2l0.1,0V84L257.9,84L257.9,84z"/>
		<path class="st0" d="M242.1,91.4l0.1-0.6l0.1-0.6l0.1-0.6l0.1-0.5l0-0.5l0-0.4l0.1-0.4l0-0.4l0-0.7l-0.1-0.6l-0.1-0.6l-0.2-0.6
			l-0.2-0.6l-0.3-0.6l-0.3-0.6l-0.3-0.5l-1.3,2.4l0,0.1l0,0l0.1,0.1l0.2,0.3l0.3,0.6l0.2,0.5l0.2,0.5l0.2,0.4l0.1,0.4l0.1,0.3
			l0.1,0.3h-7.7l-0.1-0.7l-0.1-0.7l-0.2-0.6l-0.2-0.6l-0.2-0.4l-0.2-0.3l-0.2-0.3l-0.2-0.2l-0.3-0.2l-0.3-0.1l-0.3-0.1h-0.2
			l-0.5,0.1v2.4h0.1l0.2,0l0.2,0.1l0.2,0.2l0.2,0.3l0.2,0.2l0.2,0.3l0.1,0.3l0,0.3h-0.2h-0.1h0h-0.4h-0.2h-0.2l-0.3,0v2.7l1.1,0
			l-0.4,0.5l-0.4,0.6l-0.3,0.4v3.5l0.4-0.5l0.1-0.2l0.1-0.1l0.3-0.3l0.5-0.6l1.2-3.2H242.1L242.1,91.4L242.1,91.4 M230.5,84.5h-0.1
			l-0.3,0.1l-0.2,0.2l-0.3,0.2l-0.3,0.2l-0.5,0.7l-0.5,0.8l-0.2,0.4l-0.1,0.4l-0.2,0.8l0,0.4V89v0.5l0.1,0.4l0.1,0.4l0.2,0.3
			l0.3,0.3l0.3,0.2l0.4,0.1l0.4,0.1h0.9v-2.7l-0.1,0l-0.4-0.1l-0.4-0.1l-0.3-0.1l-0.2-0.1l-0.1-0.2l0-0.1v-0.2l0.1-0.2v-0.2l0.2-0.2
			l0.4-0.2l0.4-0.2h0.4V84.5L230.5,84.5L230.5,84.5L230.5,84.5 M230.5,92.8l-0.1,0.1l-0.5,0.6l-0.7,0.6l-0.6,0.5l-0.6,0.4l-0.5,0.4
			l-0.5,0.3l-0.5,0.2l-0.5,0.1l-0.4,0.1l-0.9-0.1l-0.8-0.1l-0.8-0.3l-0.7-0.3l-0.1,0.3l0.6,0.4l0.1,0.1l0.1,0l0.1,0.1l0.3,0.2
			l0.5,0.3l0.5,0.2l0.3,0.1l0.3,0.1l0.3,0.1l0.3,0.1l0.5,0.2l0.2,0.1l0.2,0.1h0.2l0.2,0.1l0.4,0h0.1l0.2,0h0.2h0.2l0.2-0.1l0.3-0.1
			l0.5-0.2l0.2-0.2l0.1-0.1l0.2,0l0.5-0.3l0.2-0.2l0.2-0.2h0V92.8L230.5,92.8L230.5,92.8z"/>
		<polygon class="st0" points="242.4,94.8 240.2,93.2 238.5,95.1 240.6,96.8 242.4,94.8 242.4,94.8 		"/>
		<polygon class="st0" points="310,94.8 307.9,93.2 306.2,95.1 308.2,96.8 310,94.8 310,94.8 		"/>
		<path class="st0" d="M170,85.7l-0.6,1.5l2.1,3.2l-0.1,0.3l-0.1,0.3l-0.1,0.4l-0.2,0.4l-0.3,0.4l-0.3,0.4l-0.4,0.5l-0.4,0.5
			l-0.6,0.5l-0.6,0.5l-0.6,0.4l-0.5,0.3l-0.6,0.3l-0.5,0.2l-0.5,0.1l-0.5,0.1h-0.9l-0.8-0.1l-0.8-0.2l-0.4-0.1l-0.4-0.2l0.2,0.4
			l0.4,0.2l0.5,0.3h0h0l0.1,0.1l0.2,0.1l0.5,0.2l0.2,0l0,0l0.1,0l0.1,0l0.4,0.2l0.3,0.1l0.4,0.2l0.3,0.1l0.4,0.1l0.3,0.1l0.3,0.1
			l0.3,0l0.3,0h0.3l0.2,0l0.2-0.1l0.2,0l0.5-0.1l0.2-0.1l0.3-0.1l0.5-0.3l0.4-0.4l0.1-0.1l0.1-0.1l0.3-0.2l0.4-0.5l0.2-0.3l0.3-0.3
			l0.3-0.5l0.3-0.5l0.2-0.5l0.1-0.3l0.1-0.2l0.1-0.3l0.1-0.3l0.2-0.5l0.3-1.1l0.4,0.2l0.5,0.1l0.5,0.1l0.5,0H187v-2.7h-5l0.2-0.1
			l0.3-0.1l0.3-0.2l0.4-0.2l0.3-0.3l0.4-0.3l0.4-0.3l0.6-0.4l0.5-0.4l0.5-0.3l0.4-0.3l0.3-0.1h-2.4l-0.2,0.1l-0.7,0.5l-0.3,0.2
			l-0.3,0.2l-0.3,0.2l-0.2,0.2l-0.5,0.3l-0.3,0.2l-0.2,0l-0.1,0l-0.1,0v0l0.1-0.3l0.1-0.2l0.1-0.2v-0.3l0.1-0.2l0.1-0.6l0-0.4h-1.1
			l0,0.2l0.1,0.6v0.5v0.5l0,0v0v0l0,0.1l-0.1,0.1l-0.1,0.1l-0.1,0l0,0l0,0l-0.3,0.2h-0.1h0h0v0l-0.2,0l-0.4,0.1l-0.5,0.1h-0.3
			l-0.3,0.1h-3l-0.3,0l-0.3-0.1l-0.3-0.2l-0.3-0.1l-0.3-0.3l-0.3-0.3l-0.3-0.3l-0.3-0.3l-0.9-1.4H170L170,85.7 M189.9,85.7l0.1,0.1
			l0.6,0.4l0.3,0.3l0.3,0.3l0.2,0.2l0.1,0.1l0.1,0.2l0.1,0.1l0.1,0.1l0.1,0.2l0.1,0.2l0.1,0.2l0,0.1l0,0.1h0l0,0v0.1h0h0l0,0l0,0.1
			l-0.2,0.1l-0.3,0.1l-0.3,0h-0.2l-0.2,0h-0.3h-0.1h-0.1l0,0v0H187v2.7l0,0h4.7l0.4-0.5l0.4-0.4l0.6-0.8l0.3-0.4l0.2-0.3l0.2-0.3
			l0.2-0.2l0.4-0.8v-0.3l0-0.2v-0.2l-0.1-0.3l-0.1-0.2l0-0.1l-0.3-0.4l-0.1-0.1H189.9L189.9,85.7z"/>
		<path class="st0" d="M171.7,85.7l-1.1-1.6l-0.6,1.6H171.7L171.7,85.7 M181.6,85.7l0-0.3l0-0.7v-0.5l0-0.4v-0.5v-0.3V83v0l0,0
			l-0.3-4.3l0.3,0.2l1.4-2.7l-0.6-0.3l-0.5-0.3l-0.4-0.2l-0.3-0.2l-0.3-0.2l-0.2-0.2l-0.1-0.2l0-0.1l0,0l0.2-0.8l0-0.2l-0.1-0.1
			l-0.1,0.1l-0.1,0.1l-0.1,0.1l-0.1,0.2l-0.2,0.2l-0.2,0.3l-0.2,0.3l-0.2,0.3l-0.4,0.6l-0.1,0.3l-0.1,0.3l-0.1,0.2l-0.1,0.1v0.3v0.2
			l0,0.1l0.1,0.1l0.2,0.2l0.3,0.3l0.7,5.2l0.1,0.7v0.1v0.2l0.1,0.3l0.1,1.3l0,0.4H181.6L181.6,85.7 M186.6,85.7l0.1-0.1l0.3-0.2
			v-1.6h0l-0.4,0.2l-0.3,0.3l-0.7,0.5l-0.4,0.2l-0.4,0.4l-0.6,0.4H186.6L186.6,85.7 M193.9,85.7L193.9,85.7l-0.1-0.1l-0.1-0.2
			l-0.4-0.4l-0.1-0.1l-0.1-0.1l0,0l-0.2-0.2l-0.5-0.5l-0.4-0.3l-0.4-0.3l-0.4-0.2l-0.8-0.3l-0.7-0.1h-0.4l-0.5,0.1l-0.3,0.1
			l-0.3,0.1l-0.6,0.3l-0.7,0.3v1.6l0,0l0.4-0.1l0.3-0.1h0.4l0.6,0.1l0.6,0.2l0.5,0.2H193.9L193.9,85.7z"/>
		<polygon class="st0" points="199.2,73.9 197.4,76.2 197.5,76.9 197.7,77.6 197.7,78.3 197.8,79 197.9,79.8 198,80.7 198.2,82.3 
			198.2,83.2 198.3,84.2 198.4,86.1 198.4,88.1 198.5,90.4 198.5,90.8 198.7,91.1 198.8,91.2 198.9,91.3 199.1,91.4 199.3,91.4 
			211.9,91.4 212.4,91.4 212.6,91.3 212.9,91.3 213.3,91.3 213.8,91.2 214.2,91.1 214.6,91 214.6,90.9 214.6,90.9 214.6,90.9 
			214.7,90.9 214.9,90.8 214.9,90.8 214.9,90.8 215,90.8 215,90.8 215.2,90.7 218.2,88.5 218.6,88.3 219,88.1 219.4,87.9 220,87.8 
			220.5,87.7 221.1,87.7 221.8,87.6 222.6,87.7 222.9,86.9 223.1,86.3 223.3,85.7 223.6,85.1 221.9,85 220.4,84.9 219.6,84.8 
			218.9,84.7 217.5,84.3 216.6,84 215.8,83.8 215.1,83.5 214.5,83.4 213.9,83.3 213.6,83.2 213.2,83.1 213,83.1 212.3,83.2 
			211.7,83.4 211.1,83.7 210.7,84.2 210.2,84.8 209.9,85.4 209.7,86.1 209.6,86.9 210.1,86.4 210.4,86.2 210.7,86.1 211,85.9 
			211.4,85.8 211.7,85.8 212.2,85.8 212.7,85.8 213.3,85.9 214,86.1 214.7,86.3 215.1,86.4 215.3,86.5 215.3,86.5 215.4,86.5 
			215.5,86.6 215.9,86.7 216.2,86.8 216.5,86.8 216.5,86.9 216.7,86.9 216.9,87 217.2,87 216.7,87.4 216.2,87.8 215.7,88 
			215.3,88.3 214.9,88.4 214.5,88.6 214.1,88.7 213.8,88.7 200.6,88.7 200.5,88.7 200.4,88.6 200.2,88.5 200.1,88.3 200.1,88 
			199.7,80.5 199.6,79.2 199.6,78.1 199.5,77.1 199.4,76.2 199.3,75.5 199.3,74.8 199.2,74.3 199.2,73.9 199.2,73.9 		"/>
		<path class="st0" d="M162.4,125.6v-17.9h6.8c1.4,0,2.5,0.2,3.3,0.5c0.8,0.4,1.5,0.9,2,1.7c0.5,0.8,0.7,1.5,0.7,2.4
			c0,0.8-0.2,1.5-0.6,2.2c-0.4,0.7-1.1,1.2-1.9,1.6c1.1,0.3,1.9,0.9,2.5,1.6c0.6,0.8,0.9,1.7,0.9,2.7c0,0.8-0.2,1.6-0.5,2.3
			c-0.3,0.7-0.8,1.3-1.3,1.7c-0.5,0.4-1.2,0.7-2,0.9c-0.8,0.2-1.8,0.3-2.9,0.3H162.4 M164.9,115.2h3.9c1.1,0,1.8-0.1,2.3-0.2
			c0.6-0.2,1.1-0.5,1.4-0.9c0.3-0.4,0.5-0.9,0.5-1.6c0-0.6-0.1-1.1-0.4-1.6c-0.3-0.5-0.7-0.8-1.2-0.9c-0.5-0.2-1.5-0.2-2.8-0.2h-3.6
			V115.2 M164.9,123.5h4.5c0.8,0,1.3,0,1.6-0.1c0.6-0.1,1-0.3,1.4-0.5c0.4-0.2,0.7-0.6,0.9-1c0.2-0.4,0.4-0.9,0.4-1.5
			c0-0.7-0.2-1.2-0.5-1.7c-0.4-0.5-0.8-0.8-1.5-1c-0.6-0.2-1.5-0.3-2.6-0.3h-4.2V123.5z"/>
		<path class="st0" d="M187.8,125.6v-1.9c-1,1.5-2.4,2.2-4.2,2.2c-0.8,0-1.5-0.1-2.2-0.4c-0.7-0.3-1.2-0.7-1.5-1.1
			c-0.3-0.4-0.6-1-0.7-1.6c-0.1-0.4-0.1-1.1-0.1-2v-8h2.2v7.2c0,1.1,0,1.9,0.1,2.3c0.1,0.6,0.4,1,0.9,1.4c0.4,0.3,1,0.5,1.7,0.5
			c0.7,0,1.3-0.2,1.9-0.5c0.6-0.3,1-0.8,1.2-1.4c0.2-0.6,0.4-1.4,0.4-2.5v-6.9h2.2v12.9H187.8z"/>
		<polygon class="st0" points="193.4,125.6 193.4,107.7 195.6,107.7 195.6,117.9 200.9,112.6 203.7,112.6 198.7,117.4 204.2,125.6 
			201.5,125.6 197.1,119 195.6,120.5 195.6,125.6 		"/>
		<path class="st0" d="M206.1,125.6v-17.9h2.2v6.4c1-1.2,2.3-1.8,3.9-1.8c1,0,1.8,0.2,2.5,0.6c0.7,0.4,1.2,0.9,1.5,1.6
			c0.3,0.7,0.5,1.6,0.5,2.9v8.2h-2.2v-8.2c0-1.1-0.2-1.9-0.7-2.4c-0.5-0.5-1.2-0.7-2-0.7c-0.7,0-1.3,0.2-1.9,0.5
			c-0.6,0.3-1,0.8-1.2,1.4c-0.2,0.6-0.4,1.4-0.4,2.4v7.1H206.1z"/>
		<path class="st0" d="M228.8,124c-0.8,0.7-1.6,1.2-2.3,1.5c-0.8,0.3-1.6,0.4-2.5,0.4c-1.4,0-2.6-0.3-3.3-1
			c-0.8-0.7-1.2-1.6-1.2-2.7c0-0.6,0.1-1.2,0.4-1.7c0.3-0.5,0.7-0.9,1.2-1.3c0.5-0.3,1-0.6,1.6-0.7c0.4-0.1,1.1-0.2,2-0.3
			c1.8-0.2,3.1-0.5,4-0.8c0-0.3,0-0.5,0-0.6c0-0.9-0.2-1.5-0.6-1.9c-0.6-0.5-1.4-0.7-2.6-0.7c-1,0-1.8,0.2-2.3,0.5
			c-0.5,0.4-0.9,1-1.1,1.9l-2.2-0.3c0.2-0.9,0.5-1.7,1-2.2c0.4-0.6,1.1-1,2-1.3c0.9-0.3,1.8-0.5,3-0.5c1.1,0,2,0.1,2.7,0.4
			c0.7,0.3,1.2,0.6,1.5,1c0.3,0.4,0.6,0.9,0.7,1.5c0.1,0.4,0.1,1.1,0.1,2v2.9c0,2,0.1,3.3,0.1,3.9c0.1,0.5,0.3,1.1,0.5,1.5h-2.3
			C229,125.1,228.9,124.6,228.8,124 M228.7,119.1c-0.8,0.3-2,0.6-3.7,0.8c-0.9,0.1-1.6,0.3-2,0.4c-0.4,0.2-0.7,0.4-0.9,0.7
			c-0.2,0.3-0.3,0.7-0.3,1c0,0.6,0.2,1.1,0.7,1.5c0.4,0.4,1.1,0.6,2,0.6c0.9,0,1.6-0.2,2.3-0.5c0.7-0.4,1.2-0.9,1.5-1.5
			c0.2-0.5,0.4-1.2,0.4-2.2L228.7,119.1z"/>
		<path class="st0" d="M239.3,123.6l0.3,1.9c-0.6,0.1-1.2,0.2-1.7,0.2c-0.8,0-1.4-0.1-1.9-0.4c-0.4-0.2-0.8-0.6-0.9-1
			c-0.2-0.4-0.3-1.3-0.3-2.6v-7.4h-1.6v-1.7h1.6v-3.2l2.2-1.3v4.5h2.3v1.7H237v7.5c0,0.6,0,1,0.1,1.2c0.1,0.2,0.2,0.3,0.4,0.4
			c0.2,0.1,0.4,0.2,0.8,0.2C238.5,123.7,238.8,123.6,239.3,123.6z"/>
		<path class="st0" d="M241.5,110.2v-2.5l2.2,0v2.5H241.5 M241.5,125.6v-12.9h2.2v12.9H241.5z"/>
		<path class="st0" d="M247.2,125.6v-12.9h2v2c0.5-0.9,1-1.5,1.4-1.8c0.4-0.3,0.9-0.4,1.4-0.4c0.7,0,1.5,0.3,2.3,0.7l-0.8,2
			c-0.5-0.3-1.1-0.4-1.6-0.4c-0.5,0-0.9,0.1-1.3,0.4c-0.4,0.3-0.7,0.7-0.8,1.2c-0.2,0.8-0.4,1.6-0.4,2.6v6.8H247.2z"/>
		<path class="st0" d="M271.6,118.5v-2.1h7.6v6.6c-1.2,0.9-2.4,1.6-3.6,2.1c-1.2,0.5-2.5,0.7-3.9,0.7c-1.8,0-3.4-0.4-4.8-1.1
			c-1.5-0.8-2.5-1.8-3.3-3.3c-0.7-1.4-1.1-3-1.1-4.8c0-1.7,0.4-3.4,1.1-4.9c0.7-1.5,1.8-2.6,3.2-3.4c1.4-0.7,3-1.1,4.8-1.1
			c1.3,0,2.5,0.2,3.6,0.6c1.1,0.4,1.9,1,2.5,1.7c0.6,0.8,1.1,1.7,1.4,2.9l-2.2,0.6c-0.3-0.9-0.6-1.6-1-2.1c-0.4-0.5-1-0.9-1.7-1.3
			c-0.7-0.3-1.6-0.5-2.5-0.5c-1.1,0-2,0.2-2.8,0.5c-0.8,0.3-1.4,0.8-1.9,1.3c-0.5,0.5-0.9,1.1-1.2,1.8c-0.4,1.1-0.7,2.3-0.7,3.6
			c0,1.6,0.3,2.9,0.8,4c0.5,1.1,1.4,1.9,2.4,2.4c1.1,0.5,2.2,0.8,3.4,0.8c1,0,2-0.2,3-0.6c1-0.4,1.7-0.8,2.2-1.3v-3.4H271.6z"/>
		<path class="st0" d="M282.6,125.6v-12.9h2v2c0.5-0.9,1-1.5,1.4-1.8c0.4-0.3,0.9-0.4,1.4-0.4c0.7,0,1.5,0.3,2.3,0.7l-0.8,2
			c-0.6-0.3-1.1-0.5-1.6-0.5c-0.5,0-0.9,0.1-1.3,0.4c-0.4,0.3-0.7,0.7-0.8,1.2c-0.3,0.8-0.4,1.6-0.4,2.6v6.8H282.6z"/>
		<path class="st0" d="M290.3,119.1c0-2.4,0.7-4.2,2-5.3c1.1-1,2.5-1.4,4.1-1.4c1.8,0,3.3,0.6,4.4,1.8c1.1,1.2,1.7,2.8,1.7,4.8
			c0,1.7-0.3,3-0.8,3.9c-0.5,0.9-1.2,1.7-2.2,2.2c-1,0.5-2,0.8-3.2,0.8c-1.8,0-3.3-0.6-4.5-1.7C290.9,122.9,290.3,121.3,290.3,119.1
			 M292.6,119.1c0,1.7,0.4,2.9,1.1,3.7c0.7,0.8,1.6,1.2,2.8,1.2c1.1,0,2-0.4,2.7-1.2c0.7-0.8,1.1-2.1,1.1-3.8c0-1.6-0.4-2.8-1.1-3.6
			c-0.7-0.8-1.6-1.2-2.7-1.2c-1.1,0-2,0.4-2.8,1.2C293,116.2,292.6,117.4,292.6,119.1z"/>
		<path class="st0" d="M313.9,125.6v-1.9c-1,1.5-2.4,2.2-4.2,2.2c-0.8,0-1.5-0.1-2.2-0.4c-0.7-0.3-1.2-0.7-1.5-1.1
			c-0.3-0.5-0.6-1-0.7-1.6c-0.1-0.4-0.1-1.1-0.1-2v-8h2.2v7.2c0,1.1,0,1.9,0.1,2.3c0.1,0.6,0.4,1,0.9,1.4c0.5,0.3,1,0.5,1.7,0.5
			c0.7,0,1.3-0.2,1.9-0.5c0.6-0.3,1-0.8,1.2-1.4c0.2-0.6,0.4-1.4,0.4-2.5v-6.9h2.2v12.9H313.9z"/>
		<path class="st0" d="M319.4,130.5v-17.9h2v1.7c0.5-0.7,1-1.2,1.6-1.5c0.6-0.3,1.3-0.5,2.2-0.5c1.1,0,2.1,0.3,3,0.9
			c0.9,0.6,1.5,1.4,2,2.4c0.5,1,0.6,2.2,0.6,3.4c0,1.3-0.2,2.5-0.7,3.6c-0.5,1.1-1.2,1.9-2.1,2.4c-0.9,0.6-1.9,0.8-2.9,0.8
			c-0.8,0-1.4-0.1-2-0.5c-0.6-0.3-1.1-0.7-1.5-1.2v6.3H319.4 M321.4,119.2c0,1.7,0.4,2.9,1,3.7c0.7,0.8,1.5,1.2,2.5,1.2
			c1,0,1.9-0.4,2.6-1.2c0.7-0.8,1.1-2.1,1.1-3.8c0-1.7-0.3-2.9-1-3.7c-0.7-0.8-1.5-1.2-2.5-1.2c-1,0-1.8,0.4-2.5,1.3
			C321.7,116.2,321.4,117.5,321.4,119.2z"/>
	</g>
	<g>
		<path class="st0" d="M116.1,118.4c-0.9,0.9-0.9,2.3,0,3.2l9.5,9.5c0.9,0.9,2.3,0.9,3.2,0l19.1-19c0,0,0,0,0,0l9.5-9.5
			c0.9-0.9,0.9-2.3,0-3.2l0,0l-9.5-9.5l-19.1-19.1c-0.9-0.9-2.3-0.9-3.2,0l-9.5,9.5c-0.9,0.9-0.9,2.3,0,3.2l17.5,17.5L116.1,118.4z"
			/>
		<path class="st1" d="M94.4,100.9l17.5-17.5c0.9-0.9,0.9-2.3,0-3.2l-9.5-9.5c-0.9-0.9-2.3-0.9-3.2,0L80.1,89.8l-9.5,9.5l0,0
			c-0.9,0.9-0.9,2.3,0,3.2l9.5,9.5c0,0,0,0,0,0l19.1,19c0.9,0.9,2.3,0.9,3.2,0l9.5-9.5c0.9-0.9,0.9-2.3,0-3.2L94.4,100.9z"/>
	</g>
</g>
</svg>
