<?xml version="1.0" encoding="utf-8"?>
<!-- Generator: Adobe Illustrator 23.0.1, SVG Export Plug-In . SVG Version: 6.00 Build 0)  -->
<svg version="1.1" id="Layer_1" xmlns="http://www.w3.org/2000/svg" xmlns:xlink="http://www.w3.org/1999/xlink" x="0px" y="0px"
	 viewBox="0 0 400 200" style="enable-background:new 0 0 400 200;" xml:space="preserve">
<style type="text/css">
	.st0{fill:#0000F6;}
	.st1{fill:#DC0000;}
</style>
<g>
	<g>
		<path class="st0" d="M163.1,40.9c0.1,0,0.1,0.1,0.2,0.1c0.2,0.1,0.3,0.3,0.4,0.6c0,0.2,0.1,0.5,0.1,0.7c0,0.4,0,0.9,0,1.3
			c0,12.6,0,25.3,0,37.9c0,0.4,0,0.7,0,1.1c0,0.2,0,0.4,0.1,0.6c0.1,0.3,0.2,0.4,0.5,0.4c0.1,0,0.2,0,0.4-0.1c1-0.3,2-0.4,3-0.5
			c0.5,0,1-0.1,1.5-0.1c0.2,0,0.4,0,0.6,0c2.4,0,4.8,0.3,7.1,1c1.4,0.4,2.7,1.1,3.9,1.8c2.8,1.7,5.1,3.9,6.9,6.6
			c1.4,2.1,2.3,4.4,2.8,6.8c0.4,1.6,0.5,3.2,0.5,4.8c0,8.5,0,17,0,25.5c0,0.6-0.1,1.1-0.1,1.7c0,0.4-0.3,0.7-0.7,0.7
			c-0.8,0-1.7,0.1-2.5,0.1c-0.4,0-0.7,0-1.1-0.1c-0.1,0-0.2,0-0.3,0c-0.3-0.1-0.5-0.2-0.5-0.6c0-0.2-0.1-0.5-0.1-0.7
			c0-0.6,0-1.2,0-1.9c0-7.6,0-15.1,0-22.7c0-1.2,0-2.4-0.2-3.7c-0.2-1.5-0.4-3-1-4.4c-1-2.5-2.5-4.6-4.6-6.3
			c-1.2-0.9-2.4-1.7-3.7-2.3c-0.9-0.4-1.9-0.7-2.9-0.8c-1.3-0.2-2.6-0.2-3.9-0.2c-0.1,0-0.2,0-0.3,0c-1.2-0.1-2.4,0.2-3.5,0.6
			c-1,0.3-1.9,0.8-2.9,1.3c-0.5,0.3-1,0.6-1.4,1c-0.6,0.5-1.1,1-1.7,1.5c-0.2,0.2-0.4,0.3-0.6,0.4c-0.2,0.1-0.4,0-0.4-0.2
			c0-0.2-0.1-0.3-0.1-0.5c0-0.4,0-0.7,0-1.1c0-15.9,0-31.8,0-47.7c0-0.5,0-1,0-1.5c0-0.2,0-0.4,0-0.6c0-0.3,0.1-0.5,0.4-0.6
			c0.1,0,0.1-0.1,0.2-0.1C160.5,40.9,161.8,40.9,163.1,40.9z"/>
		<path class="st0" d="M181.9,116.7c0,4.3,0,8.6,0,12.9c0,0.4,0,0.9,0,1.3c0,0.2,0,0.3-0.1,0.5c-0.1,0.3-0.3,0.5-0.6,0.6
			c-0.1,0-0.2,0-0.4,0c-1.1,0-2.1,0-3.2,0c-0.6,0-1-0.3-1-1c0-0.6,0-1.3,0-1.9c0-7.8,0-15.6,0-23.4c0-0.7,0-1.4-0.1-2.1
			c-0.1-1-0.4-1.9-0.8-2.8c-0.4-0.7-0.9-1.3-1.5-1.8c-0.3-0.2-0.6-0.4-0.9-0.7c-0.6-0.4-1.2-0.7-1.8-0.8c-0.6-0.1-2.4-0.1-3,0
			c-0.3,0.1-0.6,0.2-0.9,0.3c-2,1-3.3,2.5-3.8,4.8c-0.1,0.6-0.2,1.1-0.2,1.7c0,0.5,0,1,0,1.5c0,7.8,0,15.6,0,23.5c0,0.7,0,1.3-0.1,2
			c0,0.1,0,0.2,0,0.2c0,0.3-0.3,0.5-0.6,0.6c-0.1,0-0.2,0-0.3,0c-1.2,0-2.3,0-3.5,0c-0.1,0-0.2,0-0.2,0c-0.4,0-0.6-0.2-0.7-0.6
			c0-0.5-0.1-1-0.1-1.5c0-1.3,0-2.6,0-3.9c0-7,0-13.9,0-20.9c0-1.7,0.2-3.4,0.7-5c0.6-1.9,1.6-3.5,3.2-4.8c0.6-0.5,1.3-1,1.9-1.5
			c1-0.8,2.2-1.2,3.4-1.5c0.6-0.1,1.2-0.2,1.8-0.2c0.5,0,1,0,1.5,0c0.7,0,1.5,0.1,2.2,0.3c1.7,0.4,3.2,1.1,4.4,2.3
			c0.8,0.8,1.6,1.5,2.3,2.4c1.1,1.5,1.9,3.2,2.1,5.1c0.1,0.8,0.1,1.7,0.1,2.5C181.9,108.6,181.9,112.6,181.9,116.7
			C181.9,116.7,181.9,116.7,181.9,116.7z"/>
		<path class="st1" d="M134.7,132.3c-4.5,0-9,0-13.4,0c-0.6,0-1.2,0-1.9-0.1c-1.4-0.1-2.8-0.4-4.2-0.8c-2.2-0.6-4.2-1.5-6.1-2.8
			c-2.5-1.6-4.6-3.8-6.1-6.4c-0.9-1.5-1.6-3-2.1-4.7c-0.3-1.2-0.6-2.5-0.7-3.8c-0.1-1.2-0.2-2.4-0.1-3.6c0-0.6,0-1.2,0-1.9
			c0-0.3,0.2-0.6,0.6-0.7c0.1,0,0.1,0,0.2,0c0.1,0,0.1,0,0.2,0c1.2,0,2.3,0,3.5,0c0.1,0,0.2,0,0.3,0c0.3,0,0.5,0.2,0.6,0.5
			c0,0.1,0,0.2,0,0.4c0,0.5,0,1-0.1,1.5c-0.2,1.3-0.1,2.6,0.2,3.9c0.3,1.6,0.8,3.2,1.6,4.7c1.1,2,2.5,3.7,4.3,5c1,0.8,2.2,1.4,3.3,2
			c1,0.5,2.1,0.7,3.2,0.9c1.3,0.2,2.7,0.3,4.1,0.3c8.5,0,16.9,0,25.4,0c0.8,0,1.5,0,2.3,0.1c0.1,0,0.1,0,0.2,0
			c0.3,0,0.4,0.2,0.5,0.4c0,0.1,0,0.3,0,0.4c0,1.2,0,2.3,0,3.5c0,0.1,0,0.2,0,0.2c0,0.5-0.3,0.7-0.6,0.7c-0.1,0-0.2,0-0.3,0
			c-0.5,0-0.9,0-1.4,0C143.6,132.3,139.1,132.3,134.7,132.3z"/>
		<path class="st0" d="M283.9,82.5c4.5,0,9.1,0,13.6,0c0.4,0,0.8,0,1.2,0c0.1,0,0.3,0,0.4,0c0.5,0.1,0.7,0.3,0.7,0.7
			c0,0.2,0,0.4,0,0.6c0,1,0,2,0,3.1c0,0.5-0.3,0.8-0.8,0.8c-0.3,0-0.7,0-1,0c-2.4,0-4.7,0-7.1,0c-6.6,0-13.1,0-19.7,0
			c-1.9,0-3.8,0.3-5.6,0.7c-1.6,0.4-3,1.2-4.4,2.1c-1.2,0.9-2.2,1.9-3.2,3c-1.4,1.6-2.3,3.4-2.8,5.4c-0.3,1.1-0.5,2.3-0.6,3.5
			c-0.1,0.7,0,1.3,0,2c0,0.5,0.1,1.1,0.1,1.6c0,0.1,0,0.3,0,0.4c-0.1,0.3-0.3,0.5-0.6,0.6c-0.1,0-0.2,0-0.3,0c-1.2,0-2.3,0-3.5,0
			c0,0-0.1,0-0.1,0c-0.6,0-0.8-0.2-0.9-0.8c0,0,0-0.1,0-0.1c0-1.3-0.1-2.6-0.1-3.9c0-1.8,0.4-3.5,0.9-5.1c0.8-2.6,2.1-5,3.8-7.1
			c1-1.3,2.2-2.4,3.5-3.3c2.7-2,5.6-3.3,8.9-3.9c1.3-0.3,2.6-0.4,3.9-0.4C274.9,82.5,279.4,82.5,283.9,82.5
			C283.9,82.5,283.9,82.5,283.9,82.5z"/>
		<path class="st0" d="M265.2,132.3c-4.4,0-8.8,0-13.1,0c-0.6,0-1.1,0-1.7,0c-0.2,0-0.3,0-0.5-0.1c-0.2-0.1-0.4-0.3-0.4-0.5
			c0-0.1,0-0.2,0-0.4c0-1.1,0-2.3,0-3.4c0-0.6,0.3-0.9,0.9-0.9c0.8,0,1.5,0,2.3,0c8.5,0,16.9,0,25.4,0c1.9,0,3.7-0.2,5.5-0.7
			c2-0.5,3.7-1.5,5.2-2.8c0.7-0.6,1.4-1.2,2-1.9c1.3-1.4,2.2-3.1,2.8-4.9c0.6-1.7,0.9-3.4,0.9-5.1c0-0.3,0-0.6,0-0.8
			c0-0.7,0-1.5,0-2.2c0,0,0-0.1,0-0.1c0-0.5,0.2-0.7,0.7-0.8c0.1,0,0.2,0,0.2,0c1.1-0.1,2.2-0.1,3.3,0c0.2,0,0.3,0,0.5,0.1
			c0.3,0.1,0.5,0.3,0.5,0.6c0,0.2,0.1,0.5,0.1,0.7c0.1,0.8,0.1,1.5,0.1,2.3c0,0.6,0,1.1,0,1.7c-0.2,3-1.1,5.7-2.5,8.3
			c-0.5,1-1.2,2-2,2.9c-0.8,0.9-1.6,1.8-2.5,2.8c-0.1,0.1-0.2,0.2-0.3,0.3c-1.2,1-2.5,1.9-3.9,2.6c-1.3,0.7-2.6,1.2-4,1.6
			c-1.2,0.3-2.4,0.6-3.7,0.8c-0.7,0.1-1.4,0.1-2.1,0.1C274.4,132.3,269.8,132.3,265.2,132.3C265.2,132.3,265.2,132.3,265.2,132.3z"
			/>
		<path class="st0" d="M210.7,132.3c-4.4,0-8.8,0-13.2,0c-0.5,0-1.1,0-1.6,0c-0.2,0-0.3,0-0.5-0.1c-0.3-0.1-0.4-0.3-0.4-0.6
			c0-0.1,0-0.2,0-0.3c0-1.1,0-2.2,0-3.3c0-0.1,0-0.2,0-0.3c0-0.4,0.2-0.6,0.6-0.7c0.1,0,0.2,0,0.3,0c0.8,0,1.6,0,2.4,0
			c8.4,0,16.8,0,25.2,0c1.9,0,3.7-0.2,5.5-0.7c1.7-0.5,3.3-1.3,4.7-2.4c0.9-0.7,1.8-1.5,2.6-2.4c1.4-1.5,2.3-3.3,2.9-5.3
			c0.6-1.9,0.8-3.8,0.8-5.8c0-0.7,0-1.3,0-2c0-0.1,0-0.3,0.1-0.4c0.1-0.2,0.3-0.3,0.6-0.4c0.2,0,0.5-0.1,0.7-0.1c0.9,0,1.7,0,2.6,0
			c0.3,0,0.6,0.1,0.8,0.1c0.3,0,0.4,0.2,0.5,0.5c0,0.1,0.1,0.2,0.1,0.4c0.1,0.8,0.1,1.6,0.2,2.4c0.1,0.9,0,1.8-0.1,2.7
			c-0.1,0.5-0.1,1-0.2,1.5c-0.2,1.3-0.7,2.5-1.1,3.7c-0.8,2-1.8,3.9-3.2,5.5c-0.8,0.9-1.5,1.7-2.3,2.6c-0.1,0.1-0.2,0.2-0.3,0.3
			c-1.3,1-2.7,2-4.2,2.8c-1.3,0.7-2.8,1.2-4.2,1.6c-1.9,0.5-3.8,0.8-5.8,0.8C219.6,132.3,215.1,132.3,210.7,132.3
			C210.7,132.3,210.7,132.3,210.7,132.3z"/>
		<path class="st0" d="M229.7,82.5c4.4,0,8.8,0,13.1,0c0.6,0,1.1,0,1.7,0c0.1,0,0.2,0,0.3,0c0.5,0.1,0.7,0.3,0.7,0.8
			c0,1.1,0,2.1,0,3.2c0,0.2,0,0.4,0,0.6c0,0.4-0.2,0.6-0.6,0.7c-0.1,0-0.2,0-0.3,0c-0.7,0-1.4,0-2.1,0c-8.5,0-17.1,0-25.6,0
			c-1.9,0-3.7,0.3-5.5,0.8c-2.3,0.6-4.2,1.9-5.9,3.5c-0.2,0.2-0.4,0.4-0.7,0.6c-1.2,1.2-2.2,2.6-2.9,4.2c-1,2.3-1.5,4.7-1.4,7.2
			c0,0.7,0.1,1.4,0,2.1c0,0.1,0,0.2,0,0.3c0,0.3-0.2,0.5-0.5,0.6c-0.3,0.1-0.5,0.1-0.8,0.1c-0.9,0-1.8,0-2.7,0c-0.1,0-0.2,0-0.4,0
			c-0.2,0-0.3-0.1-0.5-0.1c-0.2-0.1-0.4-0.2-0.4-0.4c0-0.2-0.1-0.4-0.1-0.6c-0.1-0.8-0.1-1.7-0.2-2.5c0-0.4,0-0.8,0-1.3
			c0.1-0.8,0.1-1.6,0.3-2.4c0.1-0.6,0.2-1.2,0.4-1.7c0.3-1.1,0.7-2.1,1.1-3.2c0.6-1.5,1.5-2.8,2.5-4.1c0.9-1.1,1.8-2.1,2.7-3.1
			c0.1-0.1,0.2-0.2,0.3-0.3c1.2-1,2.5-1.9,3.9-2.6c1.2-0.6,2.4-1.1,3.6-1.5c1.5-0.4,3-0.8,4.6-0.9c0.6-0.1,1.2-0.1,1.9-0.1
			C220.8,82.5,225.3,82.5,229.7,82.5C229.7,82.5,229.7,82.5,229.7,82.5z"/>
		<path class="st1" d="M134.6,82.4c4.3,0,8.7,0,13,0c0.6,0,1.2,0,1.8,0.1c0.1,0,0.2,0,0.3,0c0.4,0.1,0.6,0.3,0.6,0.7
			c0,0.1,0,0.2,0,0.3c0,1.1,0,2.2,0,3.3c0,0.2,0,0.3,0,0.5c-0.1,0.3-0.3,0.5-0.6,0.6c-0.4,0-0.7,0.1-1.1,0.1c-2.2,0-4.5,0-6.7,0
			c-6.6,0-13.2,0-19.8,0c-1.3,0-2.6,0.1-3.9,0.3c-1.8,0.3-3.5,1-5.1,2c-0.6,0.4-1.2,0.8-1.7,1.2c-1.1,0.9-2,1.8-2.9,2.9
			c-1.1,1.3-1.8,2.7-2.2,4.3c-0.3,1-0.6,1.9-0.7,2.9c0,0.3-0.1,0.6-0.1,0.9c0,0.1-0.1,0.2-0.1,0.3c-0.1,0.2-0.3,0.4-0.6,0.4
			c-0.1,0-0.2,0-0.3,0c-1.2,0-2.3,0-3.5,0c-0.6,0-0.8-0.3-0.8-0.8c0.1-0.7,0.1-1.4,0.2-2c0-0.4,0.1-0.8,0.2-1.2
			c0.2-0.8,0.4-1.5,0.6-2.2c0.1-0.4,0.2-0.7,0.4-1.1c0.8-1.7,1.7-3.4,2.8-4.9c0.2-0.3,0.5-0.7,0.8-1c2.2-2.4,4.8-4.3,7.8-5.8
			c0.5-0.2,1-0.4,1.4-0.5c1.4-0.4,2.9-0.8,4.4-1c1-0.1,1.9-0.2,2.9-0.2C125.9,82.4,130.2,82.4,134.6,82.4
			C134.6,82.4,134.6,82.4,134.6,82.4z"/>
		<path class="st1" d="M135.5,123.3c-4.3,0-8.7,0-13,0c-0.2,0-0.4,0-0.6,0c-0.9,0.1-1.8,0-2.6-0.2c-1.4-0.3-2.7-0.8-3.9-1.4
			c-1.1-0.6-2-1.3-2.8-2.2c-0.8-0.9-1.5-1.9-2.1-2.9c-0.1-0.2-0.2-0.5-0.3-0.7c-0.6-1.4-0.9-2.9-1-4.5c0-1,0-1.9,0-2.9
			c0-0.1,0-0.2,0-0.3c0.1-0.3,0.2-0.5,0.6-0.6c0.1,0,0.2,0,0.3,0c1.1,0,2.3,0,3.4,0c0.1,0,0.2,0,0.3,0c0.4,0,0.6,0.2,0.7,0.6
			c0,0.4,0.1,0.7,0.1,1.1c0,0.4,0,0.9,0,1.3c0,0.9,0.2,1.7,0.5,2.5c0.5,1.4,1.4,2.5,2.6,3.4c0.2,0.1,0.4,0.3,0.6,0.4
			c1.3,0.6,2.6,1,4,1c0.4,0,0.7,0,1.1,0c8.1,0,16.1,0,24.2,0c0.6,0,1.3,0,1.9,0c0.2,0,0.3,0,0.5,0c0.4,0.1,0.6,0.3,0.6,0.7
			c0,0.1,0,0.2,0,0.3c0,1.1,0,2.1,0,3.2c0,0.2,0,0.3-0.1,0.5c-0.1,0.3-0.3,0.4-0.6,0.5c-0.5,0-1.1,0.1-1.6,0.1
			C143.9,123.3,139.7,123.3,135.5,123.3C135.5,123.3,135.5,123.3,135.5,123.3z"/>
		<path class="st0" d="M265.1,123.4c-4.3,0-8.7,0-13,0c-0.7,0-1.3,0-2-0.1c-0.4,0-0.6-0.2-0.6-0.6c0-0.2,0-0.3,0-0.5
			c0-1,0-2.1,0-3.1c0,0,0-0.1,0-0.1c0.1-0.5,0.2-0.8,0.8-0.8c0.5,0,1,0,1.5,0c5.1,0,10.3,0,15.4,0c3.4,0,6.7,0,10.1,0
			c1,0,1.9-0.1,2.8-0.3c2.5-0.7,4.3-2.3,5.2-4.8c0.2-0.6,0.3-1.1,0.3-1.7c0-0.7,0-1.5,0-2.2c0-0.2,0-0.5,0-0.7
			c0.1-0.6,0.3-0.8,0.9-0.8c0.1,0,0.1,0,0.2,0c1,0,2.1,0,3.1,0c0.2,0,0.3,0,0.5,0c0.4,0.1,0.6,0.3,0.7,0.6c0,0.3,0.1,0.6,0.1,1
			c0.1,1,0.1,2,0,3c-0.1,1-0.3,1.9-0.7,2.8c-0.4,1-0.9,2-1.5,3c-0.1,0.2-0.3,0.4-0.4,0.6c-0.9,1.1-2,2.1-3.3,2.9
			c-1.2,0.7-2.4,1.2-3.7,1.6c-1,0.3-2,0.4-3,0.4c-0.5,0-1.1,0-1.6,0C272.9,123.4,269,123.4,265.1,123.4
			C265.1,123.4,265.1,123.4,265.1,123.4z"/>
		<path class="st0" d="M230,91.4c4.3,0,8.6,0,12.9,0c0.7,0,1.3,0,2,0.1c0.4,0,0.6,0.2,0.6,0.6c0,0.2,0.1,0.5,0.1,0.7
			c0,0.9,0,1.7,0,2.6c0,0.2,0,0.4-0.1,0.6c-0.1,0.3-0.3,0.5-0.6,0.6c-0.1,0-0.3,0-0.4,0c-0.4,0-0.9,0-1.3,0c-8.5,0-16.9,0-25.4,0
			c-1.3,0-2.6,0.2-3.8,0.7c-1.7,0.7-3,1.8-3.8,3.4c-0.2,0.4-0.4,0.8-0.5,1.2c-0.2,0.7-0.3,1.4-0.3,2.1c0,0.6,0,1.3,0.1,1.9
			c0,0.2,0,0.3,0,0.5c-0.1,0.4-0.3,0.6-0.7,0.7c-0.1,0-0.2,0-0.2,0c-1.1,0-2.2,0-3.3,0c0,0-0.1,0-0.1,0c-0.6,0-0.9-0.3-0.9-0.9
			c0-0.3-0.1-0.7-0.1-1c0-0.9-0.1-1.8,0-2.7c0.1-1,0.3-1.9,0.7-2.8c0.4-1,0.9-2,1.5-2.9c0.1-0.2,0.3-0.5,0.5-0.7
			c1-1.2,2.1-2.2,3.4-2.9c1.2-0.7,2.5-1.2,3.8-1.5c0.9-0.2,1.8-0.3,2.7-0.3c0.5,0,1,0,1.4,0C222.1,91.4,226,91.4,230,91.4
			C230,91.4,230,91.4,230,91.4z"/>
	</g>
	<g>
		<path class="st0" d="M265.7,153.1c0.7-0.1,1.4-0.1,2-0.2c0,0.1,0.1,0.2,0.1,0.3c0.1,0.4,0.2,0.8,0.3,1.1c0.2,0.7,0.7,1.3,1.3,1.7
			c0.6,0.4,1.3,0.7,2,0.8c1.1,0.2,2.2,0.2,3.3,0c0.5-0.1,0.9-0.3,1.4-0.6c0.7-0.5,1.1-1.1,1.2-2c0.1-0.8-0.2-1.5-0.8-2
			c-0.4-0.3-0.8-0.5-1.3-0.7c-0.5-0.2-1-0.3-1.5-0.5c-0.9-0.3-1.8-0.5-2.7-0.7c-0.6-0.2-1.1-0.4-1.7-0.6c-0.7-0.3-1.3-0.7-1.8-1.2
			c-0.7-0.7-1.1-1.6-1.1-2.6c0-1.9,0.8-3.3,2.5-4.1c0.7-0.4,1.5-0.6,2.3-0.7c1.2-0.1,2.3-0.1,3.5,0.2c0.7,0.2,1.4,0.4,2.1,0.8
			c1.2,0.8,1.9,1.9,2.2,3.2c0.1,0.3,0.1,0.6,0.1,0.9c0,0-0.1,0-0.1,0.1c-0.1,0-0.2,0-0.4,0c-0.5,0-1.1,0.1-1.6,0.1
			c0-0.1-0.1-0.2-0.1-0.3c-0.1-0.3-0.1-0.6-0.2-0.9c-0.3-0.9-1-1.6-1.9-1.9c-0.5-0.2-1.1-0.3-1.7-0.3c-0.8-0.1-1.5,0-2.3,0.2
			c-0.6,0.1-1.1,0.4-1.6,0.9c-0.5,0.6-0.7,1.2-0.6,2c0.1,0.6,0.4,1,0.9,1.3c0.3,0.2,0.6,0.3,0.9,0.4c0.8,0.3,1.6,0.5,2.5,0.7
			c1,0.2,2,0.5,2.9,0.8c0.8,0.3,1.4,0.6,2.1,1.1c0.8,0.7,1.4,1.6,1.5,2.6c0.2,1.9-0.4,3.4-1.9,4.5c-0.8,0.6-1.8,1-2.8,1.2
			c-1.7,0.3-3.4,0.2-5.1-0.4c-1.5-0.5-2.6-1.4-3.3-2.7c-0.4-0.8-0.6-1.7-0.7-2.6C265.7,153.2,265.7,153.2,265.7,153.1z"/>
		<path class="st0" d="M298.1,146.3c-0.3,0.1-1.8,0.2-2.1,0.1c0-0.1-0.1-0.3-0.1-0.4c-0.1-0.2-0.1-0.4-0.2-0.6c-0.3-0.9-1-1.6-1.9-2
			c-0.5-0.2-1.1-0.3-1.6-0.3c-0.8-0.1-1.5,0-2.3,0.2c-0.6,0.1-1.2,0.4-1.6,0.9c-0.5,0.6-0.7,1.2-0.5,2c0.1,0.6,0.4,1,0.9,1.3
			c0.3,0.2,0.7,0.3,1.1,0.5c0.9,0.3,1.7,0.5,2.6,0.7c0.8,0.2,1.7,0.5,2.5,0.7c0.7,0.2,1.3,0.6,1.9,1c1.3,1.1,1.9,2.5,1.6,4.1
			c-0.2,1.4-0.9,2.5-2.1,3.3c-0.8,0.5-1.7,0.9-2.6,1c-1.6,0.3-3.2,0.2-4.7-0.3c-0.5-0.1-1-0.3-1.5-0.6c-1.5-0.9-2.4-2.2-2.7-3.9
			c0-0.3-0.1-0.5-0.1-0.8c0-0.1,0-0.2,0-0.2c0.1,0,0.1-0.1,0.1-0.1c0.1,0,0.2,0,0.2,0c0.6,0,1.1-0.1,1.7-0.1c0,0.1,0.1,0.2,0.1,0.3
			c0,0.1,0,0.3,0.1,0.4c0.3,1.3,1,2.2,2.2,2.8c1,0.5,2,0.6,3.1,0.6c0.7,0,1.4-0.1,2.1-0.4c0.4-0.1,0.7-0.3,1-0.6
			c0.8-0.7,1.1-1.6,0.8-2.6c-0.1-0.5-0.5-0.9-0.9-1.3c-0.4-0.3-0.8-0.5-1.3-0.7c-0.7-0.2-1.5-0.4-2.2-0.6c-0.9-0.2-1.7-0.5-2.6-0.7
			c-0.4-0.1-0.8-0.3-1.1-0.4c-0.6-0.3-1-0.6-1.5-1c-0.9-0.9-1.2-2-1.1-3.3c0.2-1.7,1.1-2.9,2.6-3.6c0.8-0.4,1.6-0.6,2.4-0.6
			c1.1-0.1,2.2,0,3.2,0.2c0.7,0.2,1.4,0.4,2,0.8c1.5,0.9,2.2,2.3,2.4,4C298.2,146.2,298.1,146.3,298.1,146.3z"/>
		<path class="st0" d="M248.6,141.4c0,1.2,0,2.4,0,3.6c0,1.2-0.1,2.3-0.1,3.5c0.1,0,0.2,0.1,0.3,0.1c0.4,0,0.8,0,1.3,0
			c2,0,4,0.1,6.1,0.1c0.3,0,0.7,0,1,0c0.1,0,0.2,0,0.4,0c0.1-0.5,0-0.9,0.1-1.4c0-0.5,0-0.9,0-1.4c0-0.5,0-1,0-1.4
			c0-0.5,0-0.9,0-1.4c0-0.5,0-0.9,0-1.4c0.1,0,0.1-0.1,0.1-0.1c0.7,0,1.4,0,2,0c0.1,0.1,0.1,0.3,0.1,0.4c0,0.4,0,0.9,0,1.3
			c0,1.3,0,2.7-0.1,4c0,1.8-0.1,3.6-0.1,5.4c0,1.8-0.1,3.5-0.1,5.3c0,0.3,0,0.6-0.1,0.9c-0.1,0-0.2,0-0.2,0c-0.6,0-1.3,0-1.9,0
			c0-0.1,0-0.3,0-0.4c0-1.1,0-2.2,0.1-3.3c0-1,0-1.9,0-2.9c0-0.4,0-0.7,0-1.1c0-0.2,0-0.3,0-0.5c-0.2-0.1-0.4-0.1-0.6-0.1
			c-1.3,0-2.6,0-3.9-0.1c-1.3,0-2.5,0-3.8-0.1c-0.2,0-0.4,0-0.7,0c-0.1,0.3-0.1,0.6-0.1,0.8c0,1.5,0,3-0.1,4.5c0,0.9,0,1.7-0.1,2.5
			c0,0,0,0.1,0,0.2c0,0-0.1,0.1-0.2,0.1c-0.6,0-1.3,0-1.9,0c0,0-0.1,0-0.1,0c-0.1-0.1-0.1-0.3-0.1-0.4c0-0.7,0-1.3,0-2
			c0-0.7,0-1.4,0-2.1c0-1.5,0.1-3.1,0.1-4.6c0-2,0.1-4.1,0.1-6.1c0-0.5,0-1.1,0-1.6c0-0.1,0-0.2,0-0.3c0.4-0.1,0.7-0.1,1.1,0
			C247.8,141.3,248.2,141.3,248.6,141.4z"/>
		<path class="st1" d="M113.8,152.8c0.1,0,0.2,0,0.3,0c0.6,0.2,1.3,0.3,1.9,0.5c0,0.1,0,0.2-0.1,0.3c-0.3,0.9-0.6,1.7-1.1,2.4
			c-1.1,1.6-2.6,2.5-4.5,2.8c-1.5,0.2-2.9,0.1-4.3-0.3c-1.5-0.4-2.7-1.3-3.6-2.6c-0.6-0.9-1-1.9-1.3-3c-0.4-1.4-0.5-2.8-0.3-4.3
			c0.1-0.9,0.3-1.8,0.6-2.6c0.9-2.5,2.7-4.1,5.3-4.8c1.4-0.4,2.8-0.4,4.2-0.1c2.3,0.5,3.8,1.9,4.7,4c0.1,0.3,0.2,0.6,0.3,0.9
			c0,0-0.1,0.1-0.1,0.1c-0.6,0.1-1.2,0.3-1.9,0.4c-0.1,0-0.2,0-0.2,0c-0.1-0.1-0.1-0.3-0.2-0.4c-0.2-0.4-0.3-0.7-0.5-1.1
			c-0.7-1.3-1.8-2-3.3-2.2c-0.8-0.1-1.6-0.1-2.3,0.1c-1.7,0.4-2.9,1.4-3.5,3.1c-0.4,1-0.6,2-0.7,3.1c-0.1,1.2,0,2.3,0.3,3.5
			c0.1,0.3,0.2,0.7,0.3,1c0.5,1.4,1.6,2.4,3,3c1.1,0.4,2.3,0.5,3.4,0.2c1.2-0.3,2.1-1,2.8-2c0.3-0.5,0.6-1.1,0.7-1.6
			C113.7,153.2,113.7,153,113.8,152.8z"/>
		<path class="st1" d="M214.1,158.8c-0.1,0-0.1,0-0.2,0c-0.6,0-1.3,0-1.9,0c-0.2-0.3-0.3-0.6-0.3-1c0-0.2-0.1-0.3-0.1-0.5
			c-0.1,0.1-0.2,0.1-0.3,0.1c-0.3,0.2-0.7,0.5-1,0.7c-1.3,0.7-2.7,1-4.1,0.8c-0.4-0.1-0.9-0.1-1.3-0.3c-1.3-0.5-2.1-1.5-2.2-2.8
			c-0.1-1.4,0.4-2.6,1.6-3.4c0.7-0.5,1.5-0.7,2.4-0.8c0.8-0.1,1.5-0.2,2.3-0.3c0.7-0.1,1.4-0.2,2-0.4c0.2,0,0.3-0.1,0.5-0.2
			c0.1-0.6,0.1-1.1-0.1-1.6c-0.1-0.4-0.3-0.7-0.7-0.9c-0.3-0.1-0.5-0.3-0.8-0.4c-0.9-0.3-1.9-0.3-2.8,0c-0.6,0.2-1.1,0.5-1.4,1.1
			c-0.2,0.3-0.3,0.7-0.5,1c-0.3,0.1-0.7-0.1-1-0.1c-0.3-0.1-0.7,0-1-0.2c0.2-0.7,0.4-1.4,0.8-1.9c0.3-0.5,0.8-0.8,1.3-1.1
			c0.6-0.3,1.3-0.5,2-0.6c1.1-0.2,2.2-0.1,3.4,0.1c0.5,0.1,1,0.3,1.4,0.5c0.9,0.5,1.4,1.3,1.6,2.3c0.1,0.8,0.1,1.5,0.1,2.3
			c0,1.7-0.1,3.5-0.1,5.2c0,0.8,0.1,1.6,0.5,2.3C214.1,158.7,214.1,158.8,214.1,158.8z M211.4,152.6
			C211.4,152.6,211.4,152.6,211.4,152.6c-0.2,0-0.4,0.1-0.6,0.1c-1,0.3-2.1,0.4-3.1,0.6c-0.6,0.1-1.1,0.1-1.6,0.4
			c-0.7,0.3-1.1,0.8-1.2,1.6c-0.1,0.8,0.3,1.3,0.9,1.8c0.2,0.2,0.5,0.2,0.8,0.3c0.4,0.1,0.8,0.1,1.2,0.1c0.9-0.1,1.7-0.3,2.4-0.9
			c0.5-0.4,0.9-1,1.1-1.7c0.1-0.5,0.2-1.1,0.2-1.6C211.5,153,211.5,152.8,211.4,152.6z"/>
		<path class="st1" d="M132.4,152.4c0,0.8-0.1,1.5-0.2,2.3c-0.5,2.2-1.8,3.5-4,4.1c-1.3,0.4-2.6,0.3-3.8-0.1c-1.8-0.6-3-1.9-3.5-3.8
			c-0.3-1.1-0.3-2.3-0.2-3.4c0.1-0.6,0.2-1.3,0.4-1.9c0.7-2.1,2.2-3.3,4.3-3.6c1-0.2,2-0.1,2.9,0.1c2.1,0.6,3.3,2,3.9,4.1
			C132.4,150.9,132.5,151.6,132.4,152.4z M122.9,152.5c0,0.3,0,0.6,0,0.8c0.1,0.7,0.2,1.4,0.6,2.1c1.2,2.2,4.2,2.4,5.7,0.7
			c0.4-0.5,0.7-1.1,0.9-1.7c0.3-1.1,0.3-2.3,0.2-3.4c-0.1-0.6-0.3-1.1-0.5-1.6c-1.3-2.2-4.3-2.3-5.7-0.6c-0.4,0.4-0.6,0.9-0.8,1.4
			C122.9,151,122.8,151.8,122.9,152.5z"/>
		<path class="st1" d="M163.4,149.4c-0.4,0.1-1.5,0.3-2,0.3c0-0.1-0.1-0.3-0.1-0.4c-0.2-0.8-0.7-1.3-1.4-1.5c-0.9-0.3-1.9-0.3-2.8,0
			c-0.4,0.1-0.7,0.3-0.9,0.6c-0.4,0.5-0.4,1.2,0.1,1.7c0.2,0.2,0.5,0.4,0.8,0.5c0.6,0.2,1.2,0.4,1.8,0.6c0.8,0.2,1.6,0.5,2.3,0.7
			c0.3,0.1,0.6,0.2,0.9,0.4c1.3,0.6,1.8,1.8,1.7,3.2c-0.2,1.2-0.8,2.2-1.9,2.8c-0.7,0.4-1.5,0.6-2.4,0.7c-0.9,0.1-1.7,0-2.6-0.2
			c-1.9-0.4-3-1.6-3.5-3.4c0-0.2-0.1-0.3-0.1-0.5c0.3-0.1,0.7-0.1,1-0.2c0.3,0,0.7-0.1,1-0.1c0,0.1,0.1,0.2,0.1,0.3
			c0,0.1,0,0.2,0.1,0.3c0.3,1.1,1,1.8,2.1,2c0.7,0.2,1.5,0.2,2.2,0c0.5-0.1,1-0.3,1.3-0.7c0.2-0.2,0.3-0.5,0.4-0.7
			c0.2-0.7-0.1-1.3-0.7-1.6c-0.2-0.1-0.4-0.2-0.7-0.3c-0.7-0.2-1.5-0.4-2.2-0.7c-0.6-0.2-1.3-0.4-1.9-0.6c-0.3-0.1-0.6-0.3-0.9-0.4
			c-0.9-0.6-1.3-1.4-1.4-2.4c-0.1-1.7,1-2.8,2-3.3c0.6-0.3,1.3-0.4,1.9-0.5c1.1-0.1,2.1,0,3.1,0.3c0.1,0,0.3,0.1,0.4,0.2
			C162.6,147,163.2,148,163.4,149.4z"/>
		<path class="st1" d="M220,146.1c0.4-0.1,1.5,0,1.8,0c0.1,0.2,0,0.5,0,0.8c0,0.2,0,0.5,0,0.8c0.1,0,0.1-0.1,0.2-0.1
			c0,0,0.1-0.1,0.1-0.1c1.1-1.3,2.6-1.7,4.2-1.6c0.6,0.1,1.2,0.2,1.8,0.5c0.8,0.4,1.3,1,1.6,1.8c0.2,0.6,0.3,1.3,0.3,1.9
			c0,1,0,1.9,0,2.9c0,1.1,0,2.2-0.1,3.3c0,0.7,0,1.4,0,2c0,0.1,0,0.2,0,0.4c-0.4,0.1-1.6,0.1-2.1,0c0,0,0-0.1,0-0.2
			c0-1,0-1.9,0.1-2.9c0-1,0-1.9,0-2.9c0-0.7,0-1.4,0-2.1c0-0.4,0-0.7-0.1-1.1c-0.2-1-0.8-1.6-1.8-1.8c-1-0.2-1.9,0-2.8,0.5
			c-0.5,0.3-0.8,0.7-1,1.3c-0.2,0.6-0.3,1.3-0.4,2c0,0.9,0,1.9,0,2.8c0,1.3,0,2.7-0.1,4c0,0.1,0,0.2,0,0.2c0,0-0.1,0.1-0.1,0.1
			c-0.1,0-0.2,0-0.3,0c-0.6,0-1.1,0-1.7-0.1c0-0.1,0-0.3,0-0.4c0-1.1,0-2.2,0-3.2c0-1.6,0.1-3.2,0.1-4.7c0-1.3,0.1-2.7,0.1-4
			C219.9,146.2,219.9,146.2,220,146.1z"/>
		<path class="st1" d="M139.8,158.7c-0.7,0-1.4,0-2,0c0-0.1,0-0.2,0-0.3c0-1.2,0-2.3,0.1-3.5c0-0.5,0-1,0-1.5c0-1.1,0-2.1,0-3.2
			c0-1.3,0-2.6,0.1-3.8c0-0.1,0-0.1,0-0.2c0.3-0.1,0.6,0,1,0c0.3,0,0.6,0,0.9,0.1c0,0.5,0,1,0,1.5c0.1,0.1,0.1,0,0.2,0
			c0.1-0.1,0.1-0.1,0.2-0.2c0.8-1,1.9-1.4,3.1-1.5c0.9-0.1,1.8,0.1,2.6,0.4c1.2,0.5,1.9,1.5,2.1,2.8c0.1,0.4,0.1,0.8,0.1,1.2
			c0,1.4,0,2.8-0.1,4.2c0,1.2,0,2.3-0.1,3.5c0,0.3,0,0.6,0,0.9c-0.4,0.1-1.6,0.1-2.1,0c0-0.1,0-0.1,0-0.2c0-0.9,0-1.7,0.1-2.6
			c0-1.1,0-2.2,0.1-3.2c0-0.5,0-1.1,0-1.6c0-0.4,0-0.8-0.1-1.2c-0.1-1.5-1.1-2.1-2.2-2.2c-0.9-0.1-1.7,0.1-2.4,0.6
			c-0.5,0.3-0.8,0.7-1,1.2c-0.2,0.4-0.3,0.9-0.3,1.3c0,0.5-0.1,1.1-0.1,1.6c0,1.1,0,2.1,0,3.2c0,0.9,0,1.9-0.1,2.8
			C139.9,158.5,139.8,158.6,139.8,158.7z"/>
		<path class="st1" d="M177.4,146.3c0.4-0.1,1.6,0,2.1,0c0,0.1,0,0.2,0,0.3c0,1.4-0.1,2.7-0.1,4.1c0,1,0,2,0,3
			c0,1.6-0.1,3.2-0.1,4.8c0,0.1,0,0.3,0,0.4c-0.3,0.1-1,0.1-1.8,0c0-0.1-0.1-0.2-0.1-0.2c0-0.3,0-0.7,0-1c0-0.1,0-0.2,0-0.4
			c-0.1,0.1-0.1,0.1-0.2,0.1c0,0,0,0-0.1,0.1c-1,1.3-2.4,1.8-4,1.7c-0.8,0-1.6-0.3-2.3-0.7c-0.9-0.5-1.3-1.3-1.5-2.2
			c-0.1-0.6-0.2-1.2-0.2-1.8c0-1.2,0-2.3,0.1-3.5c0-0.6,0-1.3,0-1.9c0-0.9,0-1.8,0.1-2.6c0-0.1,0-0.1,0-0.2c0.4-0.1,1.6,0,2.1,0
			c0,0.1,0,0.2,0,0.3c0,1.1-0.1,2.1-0.1,3.2c0,1.6,0,3.2,0,4.9c0,0.2,0,0.5,0.1,0.7c0.2,1,0.9,1.8,2,1.9c0.8,0.1,1.6,0,2.3-0.5
			c0.6-0.4,1.1-0.9,1.3-1.6c0.2-0.6,0.2-1.2,0.3-1.8c0-0.6,0-1.2,0-1.8c0-1.6,0.1-3.2,0.1-4.8C177.3,146.5,177.4,146.4,177.4,146.3z
			"/>
		<path class="st1" d="M198.4,157c0.1,0.6,0.2,1.2,0.3,1.7c0,0-0.1,0.1-0.1,0.1c-0.9,0.2-1.7,0.2-2.6,0c-0.3-0.1-0.5-0.2-0.8-0.3
			c-0.5-0.3-0.9-0.7-0.9-1.4c-0.1-0.7-0.1-1.4-0.1-2c0-0.6,0-1.3,0-1.9c0-1.7,0.1-3.3,0.1-5c0-0.1,0-0.2,0-0.4c-0.1,0-0.2,0-0.3,0
			c-0.3,0-0.6,0-0.9,0c-0.1,0-0.2,0-0.4,0c0-0.4,0-1.2,0-1.6c0.5-0.1,1,0,1.5-0.1c0.1-0.5,0.1-1,0.1-1.5c0-0.5,0-1,0.1-1.5
			c0.3-0.3,1.7-1.1,2.1-1.2c0.1,0.2,0,0.5,0,0.7c0,0.2,0,0.5,0,0.7c0,0.2,0,0.5,0,0.7c0,0.2,0,0.5,0,0.7c0,0.2,0,0.5,0,0.7
			c0,0.2,0,0.5,0,0.7c0.7,0.1,1.4,0,2,0.1c0.1,0.3,0.1,0.9,0,1.6c-0.3,0.1-0.7,0-1,0c-0.3,0-0.7,0-1,0c0,0.1,0,0.2,0,0.3
			c0,1.2-0.1,2.4-0.1,3.6c0,1.2,0,2.3,0,3.5c0,0.3,0,0.5,0,0.8c0,0.5,0.3,0.8,0.8,0.9c0.2,0,0.5,0.1,0.7,0
			C198,156.9,198.2,156.9,198.4,157z"/>
		<path class="st1" d="M236.6,147.8c-0.5-0.1-1,0-1.5-0.1c0-0.1,0-0.1,0-0.1c0-0.5,0-0.9,0-1.4c0.1,0,0.2,0,0.3,0c0.3,0,0.6,0,0.9,0
			c0.1,0,0.2,0,0.3,0c0.1-0.5,0-1,0.1-1.5c0-0.5,0-1,0-1.5c0.2-0.2,0.4-0.3,0.7-0.4c0.2-0.1,0.5-0.3,0.7-0.4
			c0.2-0.1,0.4-0.3,0.7-0.4c0.1,0.4,0,0.7,0,1.1c0,0.4,0,0.7,0,1.1c0,0.4,0,0.7,0,1.1c0,0.4,0,0.7,0,1.1c0.7,0.1,1.4,0,2,0.1
			c0.1,0.3,0.1,1.1,0,1.6c-0.7,0.1-1.4-0.1-2,0c-0.1,0.2-0.1,0.3-0.1,0.5c0,0.6,0,1.2,0,1.9c0,1.7-0.1,3.5-0.1,5.2
			c0,0.2,0,0.4,0,0.6c0.1,0.5,0.3,0.8,0.8,0.9c0.3,0,0.5,0,0.8,0c0.1,0,0.3,0,0.4,0c0.1,0.3,0.3,1.3,0.3,1.8c-0.1,0-0.3,0.1-0.4,0.1
			c-0.8,0.1-1.5,0.1-2.3,0c-0.3-0.1-0.6-0.2-0.8-0.4c-0.5-0.3-0.8-0.8-0.9-1.4c-0.1-0.7-0.1-1.4-0.1-2.1c0-2.3,0.1-4.6,0.1-6.9
			C236.7,148,236.6,148,236.6,147.8z"/>
		<path class="st1" d="M185.8,141.3c0.7,0,1.4,0,2,0.1c0,0.1,0.1,0.1,0.1,0.1c0,1.7,0,3.5-0.1,5.2c-0.1,4-0.1,8-0.2,12
			c-0.4,0.1-1.5,0.1-2.1,0c0-0.1,0-0.2,0-0.3c0-0.7,0-1.5,0-2.2c0-0.5,0-1.1,0-1.6c0-1.1,0-2.1,0-3.2c0-1.8,0.1-3.6,0.1-5.3
			c0-1.4,0-2.8,0.1-4.1C185.7,141.8,185.7,141.6,185.8,141.3z"/>
	</g>
</g>
</svg>
