<svg width="228" height="114" viewBox="0 0 228 114" fill="none" xmlns="http://www.w3.org/2000/svg">
<path fill-rule="evenodd" clip-rule="evenodd" d="M66.3839 74.34C67.1561 75.1095 67.9282 75.8775 68.6928 76.6515L68.744 76.7025L68.8029 76.7625C68.9476 76.9065 69.017 76.9755 69.014 77.0415C69.0125 77.1015 68.9491 77.1585 68.83 77.2695C68.779 77.3159 68.7288 77.3628 68.6792 77.4105C66.0416 79.9425 63.2396 82.2615 60.0048 84.0165C57.2948 85.482 54.3993 86.367 51.3425 86.736C47.2451 87.231 43.1899 87.0615 39.2131 85.9365C32.2247 83.9655 27.0761 79.7055 23.7026 73.329C21.8236 69.78 20.777 65.9745 20.3095 62.001C19.8971 58.6133 19.9001 55.1882 20.3185 51.801C21.0183 46.236 22.7751 41.0685 26.2904 36.6045C29.9008 32.0235 34.6074 29.1045 40.305 27.8385C45.5576 26.673 50.8117 26.661 56.0115 28.2015C59.4287 29.214 62.4449 30.9915 65.277 33.1095C65.7445 33.4575 66.1999 33.8235 66.6554 34.1895C66.9811 34.452 67.3069 34.7145 67.6356 34.9695C67.8513 35.1345 67.8377 35.232 67.6507 35.415C66.2105 36.828 64.7824 38.2515 63.3648 39.687C63.1446 39.906 63.0255 39.8565 62.8143 39.687C60.5899 37.902 58.2705 36.261 55.6148 35.16C52.3876 33.8235 49.0321 33.39 45.5591 33.6975C41.7618 34.0335 38.3641 35.3355 35.4279 37.776C32.5263 40.188 30.5899 43.2525 29.3201 46.764C28.1243 50.07 27.6537 53.4945 27.6688 56.784C27.6537 61.074 28.2977 65.028 29.9475 68.787C31.6984 72.7785 34.3284 76.017 38.1786 78.195C40.4482 79.4745 42.9003 80.16 45.4972 80.355C48.6943 80.595 51.8009 80.244 54.7613 78.96C57.0234 77.979 59.0095 76.554 60.9368 75.0465C61.9995 74.2146 63.0292 73.3421 64.0238 72.4305C64.1957 72.27 64.2907 72.2505 64.4717 72.4305C65.1051 73.0695 65.7445 73.7055 66.3839 74.34ZM201.128 65.9415C204.268 67.7535 205.703 70.5105 205.794 74.0565C205.866 77.0715 205.046 79.7655 202.974 82.0185C201.324 83.8035 199.293 85.0005 196.999 85.773C194.286 86.688 191.484 86.904 188.646 86.8125C185.444 86.7075 182.351 86.1375 179.419 84.8205C176.937 83.7075 174.726 82.17 172.624 80.466C172.431 80.31 172.419 80.217 172.601 80.0385C173.936 78.7275 175.26 77.409 176.577 76.0785C176.779 75.8745 176.892 75.9465 177.073 76.0845C178.867 77.4585 180.706 78.774 182.803 79.6545C186.521 81.204 190.344 81.5985 194.244 80.4165C195.85 79.9275 197.245 79.0665 198.18 77.6175C199.359 75.7815 199.208 73.17 197.833 71.6115C197.189 70.8795 196.34 70.4565 195.456 70.092C192.99 69.072 190.409 68.442 187.815 67.8585C184.894 67.203 181.981 66.516 179.204 65.3745C178.148 64.9514 177.157 64.3833 176.26 63.687C174.64 62.4105 173.717 60.738 173.408 58.7175C173.069 56.5155 173.191 54.36 174.121 52.302C175.326 49.6395 177.4 47.841 180 46.602C182.449 45.432 185.055 44.9115 187.757 44.832C190.77 44.739 193.744 44.9805 196.64 45.8715C199.106 46.6275 201.325 47.8635 203.563 49.4265C203.508 49.4565 203.456 49.482 203.407 49.506C203.321 49.5422 203.239 49.5918 203.168 49.653C201.883 50.9186 200.608 52.1916 199.338 53.472C199.122 53.6895 198.986 53.6835 198.745 53.5245C196.767 52.2225 194.67 51.183 192.303 50.7915C189.718 50.364 187.139 50.2815 184.598 51.066C183.349 51.45 182.245 52.0785 181.341 53.031C180.179 54.2535 179.781 55.701 180.104 57.3405C180.273 58.1895 180.775 58.8315 181.478 59.3325C182.595 60.1305 183.879 60.537 185.18 60.9075C186.592 61.311 188.023 61.6365 189.454 61.9635C190.745 62.2575 192.034 62.5515 193.312 62.9025C196.022 63.645 198.677 64.527 201.128 65.9415ZM81.3002 44.9955C79.5735 45.0105 77.8467 45.0135 76.1215 44.9955C75.7445 44.991 75.663 45.1035 75.6645 45.4605C75.6751 52.0545 75.6781 58.6485 75.6721 65.2425C75.6661 71.838 75.663 78.4305 75.6645 85.023C75.6645 85.3635 75.7324 85.473 76.0989 85.47C77.8512 85.449 79.6051 85.452 81.3575 85.47C81.6606 85.47 81.7375 85.3905 81.7375 85.0905C81.73 71.862 81.73 58.6335 81.7375 45.405C81.739 45.051 81.6169 44.994 81.3002 44.9955ZM76.0265 39.0465C75.746 39.0465 75.6661 38.964 75.6661 38.685C75.6796 36.915 75.6796 35.1435 75.6661 33.3705C75.663 33.075 75.7731 33.0225 76.0386 33.0225C77.8181 33.033 79.5961 33.033 81.3741 33.0225C81.6561 33.021 81.7421 33.1035 81.736 33.3825C81.7255 34.023 81.727 34.6635 81.73 35.3025C81.7316 35.8 81.7316 36.2975 81.73 36.795V36.801C81.727 37.419 81.724 38.037 81.736 38.655C81.7421 38.943 81.6757 39.045 81.362 39.045C79.5825 39.0345 77.806 39.0345 76.0265 39.045V39.0465ZM124.238 54.228C122.163 50.298 119.118 47.43 114.859 45.972C111.382 44.778 107.841 44.832 104.303 45.693C100.664 46.5795 97.6114 48.396 95.4096 51.4875C95.3795 51.5295 95.3433 51.5715 95.2724 51.5355V51.3C95.2724 45.345 95.2739 39.3885 95.2784 33.432C95.2784 33.1185 95.2272 32.997 94.8713 33C93.1189 33.0195 91.365 33.015 89.6111 33C89.3186 33 89.2281 33.063 89.2296 33.372C89.2371 50.6115 89.2371 67.8525 89.2296 85.0935C89.2296 85.398 89.3095 85.4685 89.6081 85.4655C90.8839 85.455 92.1583 85.4565 93.4341 85.458H94.7084C94.9859 85.458 95.1261 85.458 95.197 85.389C95.2694 85.317 95.2694 85.173 95.2694 84.8835V80.004C95.3976 80.0565 95.4473 80.1495 95.4956 80.238C95.5092 80.265 95.5227 80.2905 95.5393 80.316C97.0097 82.581 98.9747 84.2775 101.443 85.38C104.662 86.82 108.043 87.213 111.519 86.8125C115.334 86.373 118.549 84.7005 121.204 81.957C123.547 79.5345 125.045 76.632 125.936 73.4115C126.844 70.128 127.029 66.7815 126.764 63.3975C126.513 60.183 125.752 57.0975 124.238 54.228ZM118.474 73.4925C117.516 75.9135 116.064 77.9715 113.846 79.4115C111.938 80.649 109.818 81.0495 107.569 80.931C105.583 80.826 103.713 80.3295 102.036 79.251C99.2854 77.4915 97.6054 74.9505 96.7126 71.862C96.1682 69.9765 95.9737 68.301 95.9706 66.024C95.9586 63.186 96.3371 60.417 97.5948 57.837C99.1376 54.672 101.487 52.3665 104.972 51.4395C107.957 50.6445 110.891 50.781 113.613 52.404C115.906 53.769 117.379 55.833 118.387 58.2495C119.261 60.351 119.625 62.5605 119.723 64.824C119.846 67.7955 119.575 70.7055 118.474 73.4925ZM160.605 33.384C160.78 33.0885 160.962 33.0015 161.295 33.0015C162.743 33.0105 164.191 33.012 165.637 33.012L167.963 33.0135H168.463C168.407 33.1507 168.352 33.2882 168.297 33.426C168.183 33.7155 168.071 33.9915 167.946 34.2615C165.295 39.9705 160.813 43.3815 154.654 44.5935C150.496 45.408 146.364 45.216 142.363 43.7565C137.263 41.895 133.76 38.3715 131.751 33.3615C131.648 33.1065 131.633 33.003 131.977 33.003C134.292 33.0135 136.607 33.0135 138.923 33.003C139.171 33.003 139.297 33.0885 139.421 33.2985C140.626 35.3535 142.188 37.0455 144.393 38.073C145.983 38.8125 147.666 39.126 149.407 39.18C151.57 39.246 153.678 39.0045 155.666 38.0835C157.845 37.0725 159.41 35.4135 160.605 33.384ZM163.298 82.3785C162.22 83.3718 161.101 84.3207 159.944 85.2225C159.926 85.2375 159.905 85.2495 159.884 85.2615C159.815 85.299 159.742 85.3395 159.753 85.452H166.685L166.765 85.341C165.726 84.3315 164.689 83.3205 163.651 82.308C163.5 82.164 163.422 82.248 163.342 82.3335C163.327 82.349 163.314 82.364 163.298 82.3785ZM146.325 52.8255C149.477 52.416 152.609 52.548 155.661 53.4435C161.267 55.0875 164.812 58.833 166.583 64.3035C167.566 67.3485 167.767 70.488 167.572 73.662C167.563 73.8375 167.548 74.0145 167.533 74.19C167.518 74.385 167.501 74.58 167.492 74.775C167.482 74.955 167.402 75.006 167.24 74.9925C167.169 74.9892 167.097 74.9892 167.026 74.9925H166.919C157.135 74.9985 147.352 74.9955 137.568 74.9835C137.175 74.9835 137.073 75.072 137.103 75.4635C137.396 79.2045 138.587 82.578 141.232 85.461H137.892C136.357 85.458 134.82 85.458 133.283 85.4685C132.982 85.47 132.807 85.389 132.66 85.11C131.488 82.8921 130.712 80.4884 130.368 78.006C129.961 75.2483 129.961 72.4463 130.368 69.6885C131.086 64.8735 132.962 60.6225 136.614 57.2745C139.364 54.7545 142.629 53.304 146.325 52.8255ZM151.482 68.9775C154.399 68.976 157.314 68.9745 160.229 68.985C160.57 68.985 160.658 68.913 160.606 68.565C160.576 68.364 160.557 68.16 160.534 67.959C160.499 67.632 160.465 67.3065 160.401 66.984C159.748 63.627 157.898 61.116 154.915 59.46C153.015 58.4055 150.917 58.1715 148.777 58.2345C146.158 58.3095 143.778 59.0535 141.754 60.765C139.362 62.784 137.916 65.334 137.415 68.418C137.37 68.697 137.346 68.838 137.405 68.907C137.465 68.9775 137.608 68.9775 137.898 68.9775H151.482Z" fill="black"/>
</svg>
