<svg width="228" height="114" viewBox="0 0 228 114" fill="none" xmlns="http://www.w3.org/2000/svg">
<g clip-path="url(#clip0_4002_150)">
<path fill-rule="evenodd" clip-rule="evenodd" d="M79.7339 69.7163C80.2955 70.2806 80.857 70.8438 81.4131 71.4114L81.4504 71.4488L81.4932 71.4928C81.5985 71.5984 81.6489 71.649 81.6467 71.6974C81.6456 71.7414 81.5996 71.7832 81.5129 71.8646C81.4758 71.8986 81.4393 71.933 81.4032 71.968C79.485 73.8248 77.4472 75.5254 75.0946 76.8124C73.1237 77.8871 71.0179 78.5361 68.7947 78.8067C65.8148 79.1697 62.8656 79.0454 59.9734 78.2204C54.8909 76.775 51.1465 73.651 48.693 68.9749C47.3264 66.3723 46.5652 63.5816 46.2252 60.6677C45.9253 58.1833 45.9275 55.6716 46.2318 53.1877C46.7407 49.1067 48.0185 45.3172 50.575 42.0436C53.2007 38.6842 56.6238 36.5436 60.7674 35.6152C64.5875 34.7605 68.4087 34.7517 72.1903 35.8814C74.6756 36.6239 76.8692 37.9274 78.9289 39.4806C79.2689 39.7358 79.6001 40.0042 79.9314 40.2726C80.1683 40.4651 80.4052 40.6576 80.6443 40.8446C80.8011 40.9656 80.7912 41.0371 80.6552 41.1713C79.6078 42.2075 78.5692 43.2514 77.5382 44.3041C77.3781 44.4647 77.2914 44.4284 77.1379 44.3041C75.5201 42.9951 73.8333 41.7917 71.9019 40.9843C69.5548 40.0042 67.1145 39.6863 64.5886 39.9118C61.8269 40.1582 59.3559 41.113 57.2205 42.9027C55.1102 44.6715 53.7019 46.9188 52.7785 49.4939C51.9087 51.9183 51.5665 54.4296 51.5775 56.8419C51.5665 59.9879 52.0349 62.8875 53.2347 65.6441C54.5081 68.5712 56.4209 70.9461 59.221 72.5433C60.8716 73.4816 62.655 73.9843 64.5436 74.1273C66.8688 74.3033 69.1281 74.0459 71.2811 73.1043C72.9263 72.3849 74.3707 71.3399 75.7724 70.2344C76.5453 69.6243 77.2942 68.9844 78.0175 68.316C78.1425 68.1983 78.2116 68.184 78.3432 68.316C78.8039 68.7846 79.2689 69.251 79.7339 69.7163ZM177.73 63.5574C180.013 64.8862 181.057 66.908 181.123 69.5084C181.176 71.7194 180.579 73.695 179.072 75.3472C177.872 76.6562 176.395 77.534 174.727 78.1005C172.753 78.7715 170.716 78.9299 168.652 78.8628C166.323 78.7858 164.074 78.3678 161.941 77.402C160.136 76.5858 158.528 75.4583 156.999 74.2087C156.859 74.0943 156.85 74.0261 156.983 73.8952C157.954 72.9338 158.917 71.9669 159.874 70.9912C160.021 70.8416 160.103 70.8944 160.235 70.9956C161.54 72.0032 162.877 72.9679 164.403 73.6136C167.106 74.7499 169.886 75.0392 172.723 74.1724C173.891 73.8138 174.905 73.1824 175.585 72.1198C176.443 70.7734 176.333 68.8583 175.333 67.7154C174.865 67.1786 174.247 66.8684 173.605 66.6011C171.811 65.8531 169.934 65.3911 168.047 64.9632C165.923 64.4825 163.805 63.9787 161.785 63.1416C161.017 62.8313 160.296 62.4147 159.644 61.9041C158.466 60.968 157.795 59.7415 157.57 58.2598C157.323 56.645 157.412 55.0643 158.088 53.5551C158.965 51.6026 160.473 50.2837 162.364 49.3751C164.145 48.5171 166.04 48.1354 168.006 48.0771C170.197 48.0089 172.36 48.186 174.466 48.8394C176.259 49.3938 177.873 50.3002 179.501 51.4464C179.46 51.4684 179.423 51.4871 179.387 51.5047C179.324 51.5312 179.265 51.5676 179.213 51.6125C178.279 52.5405 177.351 53.4741 176.428 54.4131C176.271 54.5726 176.172 54.5682 175.997 54.4516C174.558 53.4968 173.033 52.7345 171.311 52.4474C169.431 52.1339 167.556 52.0734 165.708 52.6487C164.8 52.9303 163.997 53.3912 163.339 54.0897C162.494 54.9862 162.205 56.0477 162.439 57.25C162.562 57.8726 162.927 58.3434 163.439 58.7108C164.251 59.296 165.185 59.5941 166.131 59.8658C167.158 60.1617 168.199 60.4004 169.239 60.6402C170.178 60.8558 171.116 61.0714 172.045 61.3288C174.016 61.8733 175.947 62.5201 177.73 63.5574ZM90.5821 48.197C89.3263 48.208 88.0705 48.2102 86.8158 48.197C86.5416 48.1937 86.4824 48.2762 86.4835 48.538C86.4912 53.3736 86.4934 58.2092 86.489 63.0448C86.4846 67.8815 86.4824 72.716 86.4835 77.5505C86.4835 77.8002 86.5328 77.8805 86.7994 77.8783C88.0738 77.8629 89.3494 77.8651 90.6238 77.8783C90.8443 77.8783 90.9002 77.82 90.9002 77.6C90.8947 67.8991 90.8947 58.1982 90.9002 48.4973C90.9013 48.2377 90.8125 48.1959 90.5821 48.197ZM86.7467 43.8344C86.5427 43.8344 86.4846 43.7739 86.4846 43.5693C86.4945 42.2713 86.4945 40.9722 86.4846 39.672C86.4824 39.4553 86.5625 39.4168 86.7555 39.4168C88.0497 39.4245 89.3428 39.4245 90.6359 39.4168C90.841 39.4157 90.9035 39.4762 90.8991 39.6808C90.8914 40.1505 90.8925 40.6202 90.8947 41.0888C90.8959 41.4536 90.8959 41.8184 90.8947 42.1833V42.1877C90.8925 42.6409 90.8903 43.0941 90.8991 43.5473C90.9035 43.7585 90.8552 43.8333 90.6271 43.8333C89.3329 43.8256 88.0409 43.8256 86.7467 43.8333V43.8344ZM121.809 54.9675C120.3 52.0855 118.086 49.9823 114.989 48.9131C112.459 48.0375 109.884 48.0771 107.311 48.7085C104.665 49.3586 102.445 50.6907 100.844 52.9578C100.822 52.9886 100.795 53.0194 100.744 52.993V52.8203C100.744 48.4533 100.745 44.0852 100.748 39.7171C100.748 39.4872 100.711 39.3981 100.452 39.4003C99.1776 39.4146 97.902 39.4113 96.6265 39.4003C96.4137 39.4003 96.3479 39.4465 96.349 39.6731C96.3545 52.3154 96.3545 64.9588 96.349 77.6022C96.349 77.8255 96.4071 77.8772 96.6243 77.875C97.5521 77.8673 98.4789 77.8684 99.4068 77.8695H100.334C100.535 77.8695 100.637 77.8695 100.689 77.8189C100.742 77.7661 100.742 77.6605 100.742 77.4482V73.8699C100.835 73.9084 100.871 73.9766 100.906 74.0415C100.916 74.0613 100.926 74.08 100.938 74.0987C102.007 75.7597 103.436 77.0038 105.232 77.8123C107.572 78.8683 110.031 79.1565 112.559 78.8628C115.334 78.5405 117.672 77.314 119.603 75.3021C121.307 73.5256 122.396 71.3971 123.044 69.0354C123.705 66.6275 123.84 64.1734 123.647 61.6918C123.465 59.3345 122.911 57.0718 121.809 54.9675ZM117.618 69.0948C116.921 70.8702 115.865 72.3794 114.252 73.4354C112.864 74.3429 111.322 74.6366 109.687 74.5497C108.242 74.4727 106.882 74.1086 105.663 73.3177C103.662 72.0274 102.44 70.164 101.791 67.8991C101.395 66.5164 101.254 65.2877 101.252 63.6179C101.243 61.5367 101.518 59.5061 102.433 57.6141C103.555 55.2931 105.264 53.6024 107.798 52.9226C109.969 52.3396 112.103 52.4397 114.083 53.6299C115.75 54.6309 116.821 56.1445 117.554 57.9166C118.19 59.4577 118.454 61.078 118.526 62.7379C118.616 64.917 118.418 67.051 117.618 69.0948ZM148.258 39.6819C148.385 39.4652 148.518 39.4014 148.761 39.4014C149.813 39.408 150.866 39.4091 151.918 39.4091L153.609 39.4102H153.973C153.933 39.5108 153.892 39.6116 153.853 39.7127C153.769 39.925 153.688 40.1274 153.597 40.3254C151.669 44.512 148.41 47.0134 143.93 47.9022C140.907 48.4995 137.901 48.3587 134.992 47.2884C131.282 45.9233 128.735 43.3394 127.274 39.6654C127.199 39.4784 127.188 39.4025 127.438 39.4025C129.122 39.4102 130.805 39.4102 132.49 39.4025C132.67 39.4025 132.762 39.4652 132.852 39.6192C133.728 41.1262 134.864 42.367 136.468 43.1205C137.624 43.6628 138.848 43.8927 140.115 43.9323C141.687 43.9807 143.221 43.8036 144.666 43.1282C146.251 42.3868 147.39 41.1702 148.258 39.6819ZM150.217 75.6112C149.433 76.3396 148.619 77.0354 147.778 77.6968C147.765 77.7078 147.749 77.7166 147.734 77.7254C147.683 77.7529 147.631 77.7826 147.639 77.8651H152.68L152.739 77.7837C151.983 77.0434 151.228 76.302 150.474 75.5595C150.364 75.4539 150.307 75.5155 150.249 75.5782C150.238 75.5895 150.228 75.6005 150.217 75.6112ZM137.873 53.939C140.165 53.6387 142.443 53.7355 144.663 54.3922C148.74 55.5978 151.318 58.3445 152.606 62.3562C153.321 64.5892 153.467 66.8915 153.325 69.2191C153.319 69.3478 153.308 69.4776 153.297 69.6063C153.286 69.7493 153.274 69.8923 153.267 70.0353C153.259 70.1673 153.201 70.2047 153.084 70.1948C153.032 70.1923 152.98 70.1923 152.928 70.1948H152.85C145.735 70.1992 138.62 70.197 131.504 70.1882C131.219 70.1882 131.144 70.2531 131.166 70.5402C131.379 73.2836 132.245 75.7575 134.169 77.8717H131.74C130.623 77.8695 129.505 77.8695 128.388 77.8772C128.169 77.8783 128.041 77.8189 127.935 77.6143C127.082 75.9878 126.518 74.2251 126.268 72.4047C125.972 70.3823 125.972 68.3275 126.268 66.3052C126.79 62.7742 128.154 59.6568 130.811 57.2016C132.81 55.3536 135.185 54.2899 137.873 53.939ZM141.624 65.7838C143.745 65.7827 145.865 65.7816 147.985 65.7893C148.233 65.7893 148.297 65.7365 148.259 65.4813C148.237 65.3339 148.223 65.1843 148.207 65.0369C148.181 64.7971 148.156 64.5584 148.11 64.3219C147.635 61.8601 146.289 60.0187 144.12 58.8043C142.738 58.031 141.213 57.8594 139.656 57.9056C137.751 57.9606 136.02 58.5062 134.549 59.7613C132.809 61.2419 131.757 63.1119 131.393 65.3735C131.36 65.5781 131.343 65.6815 131.385 65.7321C131.429 65.7838 131.533 65.7838 131.744 65.7838H141.624Z" fill="black"/>
</g>
<defs>
<clipPath id="clip0_4002_150">
<rect width="136" height="44" fill="white" transform="translate(46 35)"/>
</clipPath>
</defs>
</svg>
