<?xml version="1.0" encoding="utf-8"?>
<!-- Generator: Adobe Illustrator 23.0.1, SVG Export Plug-In . SVG Version: 6.00 Build 0)  -->
<svg version="1.1" id="Layer_1" xmlns="http://www.w3.org/2000/svg" xmlns:xlink="http://www.w3.org/1999/xlink" x="0px" y="0px"
	 viewBox="0 0 400 200" style="enable-background:new 0 0 400 200;" xml:space="preserve">
<style type="text/css">
	.st0{fill:#592D81;}
</style>
<g>
	<g>
		<g>
			<path d="M196.1,89.8c0-5.1,2.7-7.7,6.9-7.7c3.9,0,5.9,2,5.9,4.9l-1.8,0.3c-0.6,0.1-1.1-0.3-1.2-0.9c-0.4-1.2-1.3-1.7-2.9-1.7
				c-2.3,0-3.8,1.5-3.8,5c0,3.4,1.8,5.1,4.7,5.1c1.2,0,2.2-0.2,3-0.6c0.7-0.3,1.4,0.1,1.6,0.8l0.3,1.1c-1,0.7-2.7,1.3-5.2,1.3
				C198.8,97.4,196.1,94.6,196.1,89.8z"/>
			<path d="M221.8,96v1.1h-9.7c-0.1,0-0.2-0.1-0.2-0.2V82.3h1.4c0.8,0,1.5,0.7,1.5,1.5v10.7h5.5C221.2,94.5,221.8,95.2,221.8,96z"/>
			<path d="M222.7,89.7c0-4.8,2.6-7.7,7.2-7.7c4.5,0,7.2,2.9,7.2,7.7c0,4.8-2.6,7.7-7.2,7.7C225.4,97.4,222.7,94.5,222.7,89.7z
				 M234.2,89.7c0-3.1-1.4-5.1-4.3-5.1c-2.8,0-4.2,2-4.2,5.1c0,3.1,1.4,5.1,4.2,5.1C232.7,94.8,234.2,92.8,234.2,89.7z"/>
			<path d="M240.5,91.4v-9.1h1.4c0.8,0,1.5,0.7,1.5,1.5v7.4c0,2.6,1.1,3.7,3.2,3.7c2.1,0,3.3-1,3.3-3.6v-7.5c0-0.8,0.7-1.5,1.5-1.5
				h1.4v9.1c0,3.8-2.2,6-6.1,6C242.5,97.4,240.5,95.4,240.5,91.4z"/>
			<path d="M269.5,89.6c0,4.8-3.1,7.5-8,7.5h-4.4c-0.1,0-0.2-0.1-0.2-0.2V82.5c0-0.1,0.1-0.2,0.2-0.2h4.4
				C266.6,82.3,269.5,85,269.5,89.6z M266.6,89.6c0-3-1.8-4.8-5.1-4.8h-1.8v9.7h1.8C264.9,94.6,266.6,92.8,266.6,89.6z"/>
		</g>
		<g>
			<path d="M208.7,111.5c0,4.8-3.1,7.5-8,7.5h-4.4c-0.1,0-0.2-0.1-0.2-0.2v-14.4c0-0.1,0.1-0.2,0.2-0.2h4.4
				C205.8,104.2,208.7,106.8,208.7,111.5z M205.8,111.5c0-3-1.8-4.8-5.1-4.8h-1.8v9.7h1.8C204,116.4,205.8,114.7,205.8,111.5z"/>
			<path d="M222.5,104.5l-5.2,8.8v5.5c0,0.1-0.1,0.2-0.2,0.2h-2.4c-0.1,0-0.2-0.1-0.2-0.2v-5.5l-5.2-8.8c-0.1-0.2,0-0.3,0.2-0.3h1.7
				c0.7,0,1.3,0.4,1.6,0.9l3.2,5.6l3.2-5.6c0.3-0.6,0.9-0.9,1.6-0.9h1.6C222.5,104.2,222.6,104.3,222.5,104.5z"/>
			<path d="M237.2,104.2v14.6c0,0.1-0.1,0.2-0.2,0.2h-2.4c-0.1,0-0.1,0-0.2-0.1l-7.3-10.2v8.8c0,0.8-0.7,1.5-1.5,1.5h-1.4v-14.6
				c0-0.1,0.1-0.2,0.2-0.2h2.6c0.1,0,0.1,0,0.2,0.1l7.1,10v-8.6c0-0.8,0.7-1.5,1.5-1.5H237.2z"/>
			<path d="M249.4,115.6h-5.9l-0.9,2.5c-0.2,0.6-0.8,1-1.4,1h-1.6c-0.2,0-0.3-0.2-0.2-0.3l5.5-14.4c0-0.1,0.1-0.1,0.2-0.1h2.8
				c0.1,0,0.2,0.1,0.2,0.1l5.5,14.4c0.1,0.1-0.1,0.3-0.2,0.3h-1.6c-0.6,0-1.2-0.4-1.4-1L249.4,115.6z M248.5,113.2l-2.1-6l-2.1,6
				H248.5z"/>
			<path d="M268.5,117.5v-8.9l-3.8,8.3c0,0.1-0.1,0.1-0.2,0.1h-2c-0.1,0-0.2-0.1-0.2-0.1l-3.8-8.4v9c0,0.8-0.7,1.5-1.5,1.5h-1
				c-0.1,0-0.2-0.1-0.2-0.2l0-14.4c0-0.1,0.1-0.2,0.2-0.2h3.3c0.1,0,0.2,0.1,0.2,0.1l4.1,9l4.1-9c0-0.1,0.1-0.1,0.2-0.1h3.1
				c0.1,0,0.2,0.1,0.2,0.2v14.4c0,0.1-0.1,0.2-0.2,0.2h-1C269.2,119,268.5,118.3,268.5,117.5z"/>
			<path d="M279.4,106.7v9.8h1.4c0.1,0,0.2,0.1,0.2,0.2v2.1c0,0.1-0.1,0.2-0.2,0.2h-5.7c-0.1,0-0.2-0.1-0.2-0.2v-2.1
				c0-0.1,0.1-0.2,0.2-0.2h1.4v-9.8h-1.4c-0.1,0-0.2-0.1-0.2-0.2v-2.1c0-0.1,0.1-0.2,0.2-0.2h5.7c0.1,0,0.2,0.1,0.2,0.2v2.1
				c0,0.1-0.1,0.2-0.2,0.2H279.4z"/>
			<path d="M283.6,111.6c0-5.1,2.7-7.7,6.9-7.7c3.9,0,5.9,2,5.9,4.9l-1.5,0.2c-0.7,0.1-1.4-0.3-1.7-1c-0.4-1.1-1.4-1.6-2.9-1.6
				c-2.3,0-3.8,1.5-3.8,5c0,3.4,1.8,5.1,4.7,5.1c1.2,0,2.2-0.3,3.1-0.6c0.7-0.3,1.4,0.1,1.6,0.8l0.3,1.1c-1,0.7-2.7,1.3-5.2,1.3
				C286.3,119.3,283.6,116.5,283.6,111.6z"/>
			<path d="M299.1,118l0.1-0.8c0.1-0.8,1-1.4,1.8-1.1c0.9,0.4,2,0.6,3.2,0.6c2,0,3-0.6,3-1.8c0-3.5-8.4-0.9-8.4-6.6
				c0-2.9,1.9-4.4,5.5-4.4c3.4,0,5.1,1.3,5.2,3.7l-1.7,0.3c-0.5,0.1-1.1-0.1-1.3-0.6c-0.4-0.8-1.1-1-2.3-1c-1.7,0-2.6,0.7-2.6,1.9
				c0,3.6,8.3,0.8,8.3,6.7c0,3.1-2.1,4.4-5.8,4.4C301.6,119.3,300.1,118.6,299.1,118z"/>
		</g>
	</g>
	<g>
		<path class="st0" d="M150.6,121.1h-31.3c-11.3,0-20.4-9.2-20.4-20.4s9.2-20.4,20.4-20.4c2.5,0,4.4-2,4.4-4.4c0-2.4-2-4.4-4.4-4.4
			c-16.1,0-29.3,13.1-29.3,29.3c0,16.1,13.1,29.3,29.3,29.3h31.3c2.5,0,4.4-2,4.4-4.4S153,121.1,150.6,121.1z"/>
		<path class="st0" d="M175.4,71.4c-2.5,0-4.4,2-4.4,4.4v3.9c-5.3-5.1-12.5-8.3-20.4-8.3c-16.1,0-29.3,13.1-29.3,29.3
			c0,16.1,13.1,29.3,29.3,29.3c16,0,28.9-12.8,29.2-28.7c0,0,0-0.1,0-0.1V75.8C179.8,73.4,177.9,71.4,175.4,71.4z M150.6,121.1
			c-11.3,0-20.4-9.2-20.4-20.4s9.2-20.4,20.4-20.4c11.3,0,20.4,9.2,20.4,20.4S161.8,121.1,150.6,121.1z"/>
	</g>
</g>
</svg>
