<?xml version="1.0" encoding="utf-8"?>
<!-- Generator: Adobe Illustrator 23.0.1, SVG Export Plug-In . SVG Version: 6.00 Build 0)  -->
<svg version="1.1" id="Layer_1" xmlns="http://www.w3.org/2000/svg" xmlns:xlink="http://www.w3.org/1999/xlink" x="0px" y="0px"
	 viewBox="0 0 400 200" style="enable-background:new 0 0 400 200;" xml:space="preserve">
<style type="text/css">
	.st0{fill:#E1251B;}
</style>
<g>
	<path class="st0" d="M140.3,110.1c-3.5,0-6.3-1.4-7.9-3.9c-1-1.6-1.6-3.7-1.6-6.2c0-2.5,0.6-4.6,1.6-6.2c1.6-2.5,4.4-3.9,7.9-3.9
		c3.9,0,7.4,1.8,9.6,3.9l3-4.8c-2.8-2.7-7.6-5.1-12.8-5.1c-0.6,0-1.1,0-1.7,0.1c-8.4,0.7-14.4,6.5-14.4,16c0,0,0,0,0,0c0,0,0,0,0,0
		c0,9.4,6,15.3,14.4,16c0.6,0,1.1,0.1,1.7,0.1c5.2,0,10-2.4,12.8-5.1l-3-4.8C147.7,108.3,144.2,110.1,140.3,110.1"/>
	<path class="st0" d="M171.3,83.9c9.2,0,16.1,6.9,16.1,16.1c0,9.1-6.9,16-16.1,16c-9.1,0-16-6.9-16-16
		C155.3,90.8,162.2,83.9,171.3,83.9 M171.4,110.1c5.7,0,9.7-4.4,9.7-10c0-5.7-4-10-9.7-10c-5.7,0-9.7,4.3-9.7,10
		C161.6,105.7,165.7,110.1,171.4,110.1"/>
	<polygon class="st0" points="198.3,94.6 198.3,115.6 191.9,115.6 191.9,84.4 197.5,84.4 215.1,105.4 215.1,84.4 221.5,84.4 
		221.5,115.6 215.9,115.6 	"/>
	<polygon class="st0" points="255.8,84.4 244.1,98.3 232.5,84.4 226.7,84.4 226.7,115.6 233.1,115.6 233.1,94.5 244.1,107.8 
		255.2,94.5 255.2,115.6 261.6,115.6 261.6,84.4 	"/>
	<rect x="266.8" y="84.4" class="st0" width="6.4" height="31.2"/>
	<polygon class="st0" points="310,84.4 302.3,84.4 294,95.2 285.8,84.4 278.1,84.4 289.5,99.7 278,115.6 285.9,115.6 294,104.3 
		302.2,115.6 310,115.6 298.5,99.7 	"/>
	<path class="st0" d="M113.9,123.9V76.1L90,100L113.9,123.9z M97.1,100l11.7-11.7v23.5L97.1,100z"/>
	<path class="st0" d="M164.2,126.3h-47.9l23.9,23.9L164.2,126.3z M140.3,143.2l-11.7-11.7H152L140.3,143.2z"/>
	<path class="st0" d="M116.3,73.7h47.9l-23.9-23.9L116.3,73.7z M140.3,56.8L152,68.5h-23.5L140.3,56.8z"/>
</g>
</svg>
