<svg width="228" height="114" viewBox="0 0 228 114" fill="none" xmlns="http://www.w3.org/2000/svg">
<g clip-path="url(#clip0_4002_78)">
<path d="M5 68.709V44.2588H17.1259C24.9544 44.2588 29.6515 48.9483 29.6515 56.5162C29.6515 64.0841 24.8212 68.709 16.9926 68.709H5ZM9.3973 65.1514H16.8261C22.0562 65.1514 25.2875 62.176 25.2875 56.5162C25.2875 50.8565 21.9562 47.8487 16.7594 47.8487H9.3973V65.1514Z" fill="#1C1C1C"/>
<path d="M48.7396 62.6611H37.5132L35.5144 68.709H30.9839L39.5453 44.2588H47.2073L55.3689 68.709H50.7384L48.7396 62.6611ZM47.9401 60.1061L43.4096 46.555H42.9099L38.346 60.1061H47.9401Z" fill="#1C1C1C"/>
<path d="M59.2002 68.709V44.2588H63.6308V65.1514H77.0226V68.709H59.2002Z" fill="#1C1C1C"/>
<path d="M81.4199 44.2588H87.8826L95.5446 61.3998L103.973 44.2588H109.802V68.709H105.538V52.0531L105.905 48.2368L97.9431 64.7633H93.0794L85.3175 47.6223L85.7173 52.0531V68.709H81.4199V44.2588Z" fill="#1C1C1C"/>
<path d="M127.824 44C135.286 44 141.349 47.4929 141.349 56.5162C141.349 65.5395 135.286 69 127.824 69C120.362 69 114.166 65.216 114.166 56.5162C114.166 47.8163 120.362 44 127.824 44ZM136.952 56.5162C136.952 49.8862 133.021 47.6546 127.824 47.6546C122.627 47.6546 118.597 49.8538 118.597 56.5162C118.597 63.1785 122.594 65.3454 127.824 65.3454C133.054 65.3454 136.952 62.8551 136.952 56.5162Z" fill="#1C1C1C"/>
<path d="M159.472 61.4321C159.039 60.2032 158.705 59.1359 156.174 59.1359H150.111V68.709H145.713V44.2588H157.739C162.736 44.2588 166.534 46.361 166.534 51.9884C166.534 57.6158 164.369 57.8099 159.738 57.8099V58.0039C161.137 58.2303 163.236 58.4567 164.169 61.044L167.034 68.709H162.237L159.472 61.4321ZM156.373 56.4515C159.671 56.4515 162.203 55.5136 162.203 51.9237C162.203 48.3338 160.038 47.881 156.873 47.881H150.077V56.4515H156.34H156.373Z" fill="#1C1C1C"/>
<path d="M171.364 68.709V44.2588H189.686V47.8487H175.762V54.9315H188.72V58.0686H175.762V65.1514H190.153V68.709H171.364Z" fill="#1C1C1C"/>
<path d="M194.85 68.709V44.2588H199.247V65.1514H212.639V68.709H194.85Z" fill="#1C1C1C"/>
<path d="M219.235 63.6309C220.834 63.6309 222 64.7628 222 66.2505C222 67.7382 220.767 68.9025 219.235 68.9025C217.703 68.9025 216.403 67.7706 216.403 66.2505C216.403 64.7305 217.703 63.6309 219.235 63.6309Z" fill="#1C1C1C"/>
</g>
<defs>
<clipPath id="clip0_4002_78">
<rect width="217" height="25" fill="white" transform="translate(5 44)"/>
</clipPath>
</defs>
</svg>
