<?xml version="1.0" encoding="utf-8"?>
<!-- Generator: Adobe Illustrator 23.0.1, SVG Export Plug-In . SVG Version: 6.00 Build 0)  -->
<svg version="1.1" id="Layer_1" xmlns="http://www.w3.org/2000/svg" xmlns:xlink="http://www.w3.org/1999/xlink" x="0px" y="0px"
	 viewBox="0 0 400 200" style="enable-background:new 0 0 400 200;" xml:space="preserve">
<style type="text/css">
	.st0{fill:#808184;}
</style>
<g>
	<path class="st0" d="M101.8,87.1c-10.4,0-15,6-15,18.8c0,13.2,4.5,18.8,16.5,18.8c4.6,0,8.6-0.9,11.4-2.3c-0.7-1.7-2.5-2.6-4.2-2.1
		c-1.8,0.5-3.8,0.8-6.3,0.8c-7.5,0-11-3.5-11.2-14.4h23.4C116.3,92.2,112.3,87.1,101.8,87.1 M93,103.5C93.3,94,96.1,90,101.8,90
		c6,0,8.4,4,8.4,13.5H93z"/>
	<path class="st0" d="M146.8,72.1v16.2c-3-0.7-5.9-1.1-8.1-1.1c-10.9,0-15.8,5.4-15.8,18.8c0,13.5,4.8,18.8,16,18.8
		c5,0,9.6-0.7,14-2.3V78.1C152.8,74.7,150.1,72.1,146.8,72.1 M146.8,120.4c-2,0.7-4.9,1.1-7.2,1.1c-7.6,0-10.6-4-10.6-15.6
		c0-11.6,3-15.5,10.6-15.5c2.3,0,5.2,0.4,7.2,1V120.4z"/>
	<path class="st0" d="M172.9,124.7c5.5,0,10.7-1.1,15.5-2.6v-28c0-3.4-2.7-6.1-6.1-6.1v32.4c-2.7,0.6-5.6,1.1-8.4,1.1
		c-6.4,0-8.6-2.7-8.6-8.8V94.1c0-3.3-2.7-6-6-6v24.6C159.3,120.8,163.2,124.7,172.9,124.7"/>
	<path class="st0" d="M210.4,124.7c3.4,0,6.6-0.8,8.4-1.8l0-0.1c-0.5-1.6-2.2-2.5-3.9-2.2c-1,0.2-2.2,0.3-3.5,0.3
		c-8.2,0-10.6-4.7-10.6-15c0-10.8,2.8-15.2,10.6-15.2c1.2,0,2.4,0.1,3.4,0.4c1.7,0.4,3.4-0.6,4-2.3c-1.9-0.9-5-1.8-8.4-1.8
		c-11.3,0-15.8,5.8-15.8,18.8C194.6,119.3,199.3,124.7,210.4,124.7"/>
	<path class="st0" d="M238.8,102.4c-11,0-15.4,3.4-15.4,11.2s3.5,11,13.5,11c3.7,0,7.3-0.5,10.3-1.2c1.9-0.5,3.2-2.2,3.2-4.1V98.7
		c0-7.6-4-11.5-13.4-11.5c-4.3,0-8.7,1-11.8,2.3c0.6,1.7,2.3,2.6,4,2.2c1.9-0.5,3.9-0.8,5.8-0.8c7,0,9.4,2.3,9.4,8.3v3.3H238.8z
		 M244.5,120.6c-1.7,0.5-4.6,1-7,1c-5.7,0-8.1-2.1-8.1-8.1c0-5.9,3.1-8.1,9.7-8.1h5.5V120.6z"/>
	<path class="st0" d="M257.2,139.8c3.4,0,6.1-2.7,6.1-6.1v-8.9c-2,1.4-4,2.8-6.1,4.2V139.8z"/>
	<path class="st0" d="M280.8,110.5c-0.8,8.1-4,11-10.4,11c-0.8,0-1.6,0-2.5-0.1c-1.1,0.8-2.2,1.7-3.4,2.5c2.5,0.5,4.9,0.8,6.8,0.8
		c10.9,0,15.8-5.3,15.8-18.8c0-0.6,0-1.2,0-1.7C285.1,106.3,283,108.4,280.8,110.5"/>
	<path class="st0" d="M304.4,50.5c-3.3-6.5-9.8-11.3-19.1-14c6.9,3.4,12.3,8.4,15.2,14.2c2.6,5.3,2.7,11.7,0.3,19.1
		c-2.4,7.1-7,14.8-13.7,22.8c-0.6,0.7-1.2,1.4-1.8,2.1c-2.3-5.3-6.9-7.5-14.2-7.5c-5,0-9.5,0.8-14,2.3v29.9
		c-9.5,6.7-20,13-31.3,18.7c-21.8,10.9-46.3,20.4-68.1,26.3c21.5-1.9,46.3-9.4,70.4-21.5C282.2,115.9,316.4,74.5,304.4,50.5
		 M263.3,114.9V91.4c2-0.6,4.8-1,7.1-1c6,0,9.2,2.5,10.2,9.3C275.5,104.9,269.6,110,263.3,114.9"/>
</g>
</svg>
