<svg width="228" height="114" viewBox="0 0 228 114" fill="none" xmlns="http://www.w3.org/2000/svg">
<mask id="mask0_4002_136" style="mask-type:luminance" maskUnits="userSpaceOnUse" x="58" y="16" width="112" height="82">
<path d="M170 16H58V97.2394H170V16Z" fill="white"/>
</mask>
<g mask="url(#mask0_4002_136)">
<path d="M170 85.79H58V97.2306H170V85.79Z" fill="#9A9A9A"/>
<path d="M170 16H58V84.6598H170V16Z" fill="#00AEEF"/>
<path d="M67.854 75.7788V25.3281H105.362V34.4079H77.1593V46.0135H94.0549V55.0933H77.1593V66.699H94.8099V75.7788H67.854Z" fill="white"/>
<path d="M103.233 75.7788V25.3281H137.722V34.4079H112.53V46.0135H129.434V55.0933H112.53V66.699H130.181V75.7788H103.233Z" fill="white"/>
<path d="M143.702 75.7788V34.4079H134.471V25.3281H162.37V34.4079H153.007V75.7788H143.702Z" fill="white"/>
<path d="M62.3413 88.4316H64.2368C64.5486 88.4316 64.8194 88.4647 65.0656 88.5142C65.3118 88.572 65.5333 88.6463 65.7221 88.7453C65.919 88.8361 66.0913 88.9517 66.239 89.0838C66.3867 89.2158 66.518 89.3562 66.6247 89.513C66.8381 89.8102 66.994 90.132 67.0842 90.4622C67.1827 90.7924 67.2319 91.1144 67.2319 91.395C67.2319 91.593 67.2155 91.7994 67.1745 91.9975C67.1335 92.2039 67.0842 92.3855 67.0268 92.5754C66.9611 92.7569 66.8873 92.9303 66.797 93.0871C66.715 93.2439 66.6083 93.376 66.4934 93.4834C66.157 93.8135 65.7959 94.0446 65.4103 94.1602C65.0246 94.2757 64.6225 94.3335 64.204 94.3335H62.3413V88.4399V88.4316ZM63.1947 93.5411H64.2122C64.4748 93.5411 64.7292 93.508 64.9836 93.4337C65.2379 93.3595 65.4677 93.2439 65.6728 93.0789C65.878 92.9138 66.0503 92.6992 66.1734 92.4185C66.3047 92.1461 66.3621 91.8077 66.3621 91.395C66.3621 91.1721 66.3293 90.9327 66.2472 90.6768C66.1734 90.4209 66.0585 90.1898 65.8862 89.9752C65.7139 89.7607 65.5005 89.579 65.2215 89.4387C64.9507 89.2983 64.6143 89.224 64.2122 89.224H63.1783V93.5328L63.1947 93.5411Z" fill="white"/>
<path d="M68.125 94.3252V88.4316H71.2842V89.224H68.9783V90.9658H71.2842V91.75H68.9783V93.5411H71.2842V94.3252H68.125Z" fill="white"/>
<path d="M72.7199 92.5839C72.7199 92.6334 72.7282 92.716 72.7446 92.8316C72.761 92.9554 72.8021 93.0709 72.8677 93.1947C72.9252 93.3103 73.0236 93.4176 73.1549 93.5085C73.2861 93.6074 73.4503 93.6487 73.6636 93.6487C73.9345 93.6487 74.156 93.558 74.3365 93.3846C74.5171 93.2113 74.6073 92.9636 74.6073 92.65C74.6073 92.4848 74.5745 92.3528 74.5171 92.2455C74.4596 92.1382 74.3858 92.0557 74.2873 91.9814C74.1971 91.9153 74.0985 91.8576 73.9836 91.8162C73.8687 91.775 73.7621 91.7255 73.6636 91.6924C73.4749 91.6182 73.3108 91.5521 73.1795 91.5026C73.0483 91.4449 72.9415 91.3953 72.8513 91.3458C72.7692 91.2963 72.6872 91.2549 72.6215 91.1972C72.5559 91.1477 72.4902 91.0981 72.4246 91.0238C72.2851 90.8918 72.1866 90.7267 72.121 90.5286C72.0635 90.3305 72.0307 90.1241 72.0307 89.9178C72.0307 89.7526 72.0635 89.5711 72.1292 89.3813C72.1948 89.1913 72.2933 89.0181 72.4328 88.8612C72.5723 88.7043 72.7446 88.5723 72.9415 88.4732C73.1467 88.3659 73.3847 88.3164 73.6636 88.3164C73.9098 88.3164 74.1314 88.3494 74.3365 88.432C74.5417 88.5063 74.7222 88.6218 74.8699 88.7622C75.0175 88.9025 75.1324 89.0758 75.2228 89.274C75.3048 89.4803 75.3459 89.7031 75.3459 89.9508H74.4924C74.4924 89.7857 74.4678 89.6537 74.4104 89.5463C74.3529 89.439 74.2873 89.3483 74.2052 89.2904C74.1231 89.2244 74.0329 89.1749 73.9345 89.1501C73.8442 89.1254 73.7457 89.1088 73.6636 89.1088C73.5405 89.1088 73.4257 89.1336 73.3272 89.1831C73.2287 89.2327 73.1467 89.2987 73.081 89.373C73.0154 89.4555 72.9661 89.5381 72.9334 89.6371C72.9005 89.7362 72.8841 89.8187 72.8841 89.9096C72.8841 90.0498 72.9087 90.1737 72.9661 90.2644C73.0236 90.3552 73.0974 90.4295 73.1795 90.4873C73.2616 90.5452 73.3436 90.5946 73.4339 90.6277C73.5241 90.6689 73.598 90.6936 73.6636 90.7184C73.8442 90.7845 74.0493 90.8588 74.2627 90.9413C74.4678 91.0156 74.6648 91.1229 74.8453 91.2633C75.0175 91.3953 75.1653 91.5769 75.2884 91.7915C75.4115 92.0061 75.469 92.295 75.469 92.65C75.469 92.9058 75.4197 93.1452 75.3377 93.3599C75.2473 93.5828 75.1243 93.7643 74.9684 93.9212C74.8124 94.078 74.6237 94.2018 74.4022 94.2925C74.1806 94.3834 73.9345 94.4247 73.6636 94.4247C73.4667 94.4247 73.2616 94.3916 73.0483 94.3256C72.8348 94.2596 72.6379 94.1523 72.4657 93.9955C72.2933 93.8469 72.1455 93.6487 72.0307 93.4176C71.924 93.1783 71.8584 92.9058 71.8584 92.5757H72.7117L72.7199 92.5839Z" fill="white"/>
<path d="M76.8532 94.3252V89.224H75.729V88.4316H78.8308V89.224H77.7066V94.3252H76.8532Z" fill="white"/>
<path d="M80.3368 88.4404H79.4834V94.3341H80.3368V88.4404Z" fill="white"/>
<path d="M85.2874 94.3252L82.3908 89.7771H82.3825V94.3252H81.521V88.4316H82.4565L85.3038 92.922H85.3202V88.4316H86.1736V94.3252H85.2874Z" fill="white"/>
<path d="M91.1791 94.3252L90.5308 92.5918H88.422L87.7737 94.3252H86.8711L89.0949 88.4316H89.8662L92.09 94.3252H91.1791ZM90.2437 91.8077L89.4969 89.5542H89.4805L88.7256 91.8077H90.2355H90.2437Z" fill="white"/>
<path d="M93.1911 94.3252V89.224H92.0669V88.4316H95.1687V89.224H94.0445V94.3252H93.1911Z" fill="white"/>
<path d="M96.6825 88.4404H95.8291V94.3341H96.6825V88.4404Z" fill="white"/>
<path d="M103.659 91.3943C103.659 91.7988 103.586 92.1867 103.43 92.55C103.282 92.9132 103.06 93.235 102.79 93.5158C102.511 93.7963 102.191 94.0192 101.821 94.1844C101.452 94.3494 101.05 94.4319 100.615 94.4319C100.18 94.4319 99.7698 94.3494 99.4007 94.1844C99.0232 94.0192 98.7032 93.7963 98.4323 93.5158C98.1615 93.235 97.9482 92.9132 97.8006 92.5417C97.6528 92.1703 97.5708 91.7906 97.5708 91.3861C97.5708 90.9816 97.6446 90.6019 97.8006 90.2305C97.9482 89.859 98.1615 89.5372 98.4241 89.2564C98.695 88.9759 99.015 88.7447 99.3842 88.5796C99.7535 88.4146 100.164 88.332 100.615 88.332C101.066 88.332 101.452 88.4063 101.821 88.5714C102.191 88.7364 102.511 88.9511 102.79 89.2318C103.06 89.5124 103.282 89.8343 103.43 90.214C103.586 90.5855 103.659 90.9816 103.659 91.4026M102.806 91.4026C102.806 91.1384 102.757 90.8743 102.666 90.6102C102.576 90.3378 102.437 90.0901 102.256 89.8674C102.076 89.6445 101.846 89.4629 101.575 89.3225C101.296 89.1822 100.984 89.1079 100.615 89.1079C100.246 89.1079 99.9094 89.1822 99.6304 89.3307C99.3514 89.4793 99.1298 89.6692 98.9494 89.892C98.7688 90.1149 98.6375 90.3626 98.5472 90.6267C98.457 90.8909 98.4159 91.1384 98.4159 91.3779C98.4159 91.6172 98.457 91.8649 98.5472 92.1372C98.6293 92.4014 98.7688 92.6491 98.9494 92.8719C99.1298 93.0948 99.3596 93.2763 99.6304 93.4249C99.9094 93.5735 100.238 93.6478 100.607 93.6478C100.976 93.6478 101.313 93.5818 101.592 93.4249C101.862 93.2846 102.092 93.0948 102.273 92.8719C102.453 92.6491 102.584 92.4014 102.666 92.1372C102.757 91.8731 102.798 91.6338 102.798 91.3943" fill="white"/>
<path d="M108.308 94.3252L105.412 89.7771H105.404V94.3252H104.542V88.4316H105.477L108.325 92.922H108.341V88.4316H109.195V94.3252H108.308Z" fill="white"/>
<path d="M117.933 94.3252V89.3562H117.908L115.931 94.3252H115.422L113.444 89.3562H113.428V94.3252H112.575V88.4316H113.92L115.676 92.9551L117.441 88.4316H118.786V94.3252H117.933Z" fill="white"/>
<path d="M123.783 94.3252L123.135 92.5918H121.026L120.378 94.3252H119.475L121.699 88.4316H122.462L124.686 94.3252H123.775H123.783ZM122.839 91.8077L122.101 89.5542H122.084L121.338 91.8077H122.848H122.839Z" fill="white"/>
<path d="M129.146 94.3252L126.249 89.7771H126.233V94.3252H125.371V88.4316H126.306L129.162 92.922H129.17V88.4316H130.032V94.3252H129.146Z" fill="white"/>
<path d="M135.033 94.3252L134.385 92.5918H132.276L131.628 94.3252H130.725L132.949 88.4316H133.72L135.944 94.3252H135.033ZM134.089 91.8077L133.351 89.5542H133.334L132.58 91.8077H134.089Z" fill="white"/>
<path d="M140.691 89.9168C140.625 89.8508 140.551 89.7683 140.453 89.6775C140.363 89.5866 140.248 89.4959 140.116 89.4133C139.985 89.3307 139.829 89.2564 139.665 89.1987C139.493 89.1409 139.304 89.1079 139.091 89.1079C138.787 89.1079 138.5 89.1739 138.237 89.2977C137.975 89.4216 137.745 89.5866 137.556 89.7931C137.359 89.9994 137.203 90.247 137.097 90.5194C136.99 90.7918 136.933 91.0889 136.933 91.3943C136.933 91.7163 136.99 92.0135 137.121 92.2941C137.244 92.5665 137.409 92.8059 137.605 93.0122C137.802 93.2104 138.04 93.3672 138.303 93.4827C138.566 93.5983 138.836 93.6561 139.115 93.6561C139.14 93.6561 139.197 93.6561 139.28 93.6478C139.362 93.6478 139.468 93.6231 139.583 93.5983C139.698 93.5652 139.829 93.524 139.969 93.4663C140.108 93.4002 140.248 93.3259 140.395 93.2186C140.535 93.103 140.666 92.9709 140.797 92.8059C140.921 92.6408 141.035 92.4344 141.134 92.1951H138.401V91.4026H142.11C142.102 91.8979 142.004 92.3353 141.823 92.7151C141.634 93.0948 141.405 93.4084 141.126 93.6643C140.839 93.9202 140.519 94.1183 140.157 94.2421C139.805 94.3742 139.444 94.4402 139.091 94.4402C138.664 94.4402 138.262 94.3576 137.901 94.2008C137.532 94.044 137.22 93.8211 136.949 93.5406C136.686 93.2598 136.473 92.9379 136.317 92.5748C136.161 92.2115 136.087 91.8153 136.087 91.4026C136.087 90.9898 136.161 90.5772 136.317 90.2058C136.465 89.8343 136.686 89.5041 136.949 89.2318C137.22 88.9511 137.532 88.7282 137.901 88.5714C138.27 88.4063 138.664 88.332 139.082 88.332C139.329 88.332 139.583 88.3651 139.829 88.431C140.084 88.4971 140.322 88.5962 140.551 88.7282C140.781 88.8603 140.994 89.0336 141.191 89.2234C141.388 89.4216 141.561 89.6527 141.7 89.9168H140.699H140.691Z" fill="white"/>
<path d="M142.846 94.3252V88.4316H146.005V89.224H143.707V90.9658H146.005V91.75H143.707V93.5411H146.005V94.3252H142.846Z" fill="white"/>
<path d="M152.405 94.3252V89.3562H152.38L150.411 94.3252H149.902L147.916 89.3562H147.9V94.3252H147.055V88.4316H148.4L150.156 92.9551L151.921 88.4316H153.266V94.3252H152.405Z" fill="white"/>
<path d="M154.371 94.3252V88.4316H157.53V89.224H155.232V90.9658H157.53V91.75H155.232V93.5411H157.53V94.3252H154.371Z" fill="white"/>
<path d="M162.333 94.3252L159.437 89.7771H159.42V94.3252H158.567V88.4316H159.502L162.35 92.922H162.366V88.4316H163.22V94.3252H162.333Z" fill="white"/>
<path d="M164.995 94.3252V89.224H163.871V88.4316H166.981V89.224H165.849V94.3252H164.995Z" fill="white"/>
</g>
</svg>
