<?xml version="1.0" encoding="utf-8"?>
<!-- Generator: Adobe Illustrator 23.0.1, SVG Export Plug-In . SVG Version: 6.00 Build 0)  -->
<svg version="1.1" id="Layer_1" xmlns="http://www.w3.org/2000/svg" xmlns:xlink="http://www.w3.org/1999/xlink" x="0px" y="0px"
	 viewBox="0 0 400 200" style="enable-background:new 0 0 400 200;" xml:space="preserve">
<style type="text/css">
	.st0{fill:#003A70;}
	.st1{fill:#2B5597;}
	.st2{fill:#BB8C4B;}
	.st3{fill:none;stroke:#BB8C4B;stroke-miterlimit:10;}
	.st4{fill:#636466;}
</style>
<g>
	<path class="st0" d="M138.1,135.3h-37.7c-0.3,0-0.5-0.2-0.5-0.5c0-0.4,0.2-0.5,0.5-0.5c1,0,1.9-0.4,2.6-1.1
		c0.7-0.7,1.1-1.6,1.1-2.6V64.3c0-1-0.4-1.9-1.1-2.6c-0.7-0.7-1.6-1.1-2.6-1.1c-0.3,0-0.5-0.2-0.5-0.5c0-0.1,0-0.3,0.1-0.4
		c0.1-0.1,0.2-0.2,0.3-0.2H136l2.9,10.6c0,0.2,0,0.3-0.1,0.4c-0.1,0.1-0.2,0.1-0.4,0.1c-0.2,0-0.4-0.1-0.5-0.4
		c-0.4-1.3-1.1-2.7-2.1-4c-1.1-1.3-2.4-2.4-4.1-3.3c-1.6-0.9-3.5-1.3-5.6-1.3h-16.7v32.6h19.4c1,0,1.9-0.4,2.6-1.1
		c0.7-0.7,1.1-1.6,1.1-2.6c0-0.1,0.1-0.3,0.2-0.4c0.1-0.1,0.2-0.2,0.4-0.2c0.2,0,0.3,0.1,0.4,0.2c0.1,0.1,0.1,0.2,0.1,0.4v9.5
		c0,0.3-0.2,0.5-0.5,0.5c-0.1,0-0.3-0.1-0.4-0.2c-0.1-0.1-0.2-0.2-0.2-0.4c0-1-0.4-1.9-1.1-2.6c-0.7-0.7-1.6-1.1-2.6-1.1h-19.4v36.8
		h18.8c2.1,0,3.9-0.4,5.6-1.3c1.7-0.9,3-2,4.1-3.3c1.1-1.3,1.8-2.7,2.1-4c0.1-0.2,0.2-0.4,0.4-0.4c0.2,0,0.3,0.1,0.4,0.1
		c0.1,0.1,0.1,0.2,0.1,0.5l-1.3,4.5L138.1,135.3z"/>
	<path class="st0" d="M205,135.3h-60c-0.3,0-0.5-0.2-0.5-0.5c0-0.1,0.1-0.3,0.2-0.4c0.1-0.1,0.2-0.2,0.4-0.2c1,0,1.9-0.4,2.6-1.1
		c0.7-0.7,1.1-1.6,1.1-2.6V64.3c0-1-0.4-1.9-1.1-2.6c-0.7-0.7-1.6-1.1-2.6-1.1c-0.1,0-0.3,0-0.4-0.1c-0.1-0.1-0.2-0.2-0.2-0.3
		c0-0.3,0.2-0.5,0.5-0.5h12.6c0.3,0,0.5,0.2,0.5,0.5c0,0.3-0.2,0.5-0.5,0.5c-1,0-1.9,0.4-2.6,1.1c-0.7,0.7-1.1,1.6-1.1,2.6v68.8
		h41.2c2.1,0,3.9-0.4,5.6-1.3c1.6-0.9,3-2,4.1-3.3c1.1-1.3,1.8-2.7,2.1-4c0.1-0.2,0.3-0.3,0.5-0.3c0.4,0,0.5,0.1,0.5,0.3l-1.5,5.7
		C206.2,131.1,205.8,132.7,205,135.3"/>
	<path class="st0" d="M231.6,135.3h-2.3l-20.2-69.5c-0.4-1.1-0.9-2.3-1.6-3.4c-0.7-1.2-1.6-1.7-2.5-1.7c-0.4,0-0.5-0.2-0.5-0.5
		c0-0.2,0.1-0.3,0.2-0.4c0.1-0.1,2.4-0.1,6.8-0.1c4.4,0,6.7,0,6.8,0.1c0.1,0.1,0.2,0.2,0.2,0.4c0,0.3-0.2,0.5-0.5,0.5
		c-0.9,0-1.7,0.2-2.6,0.7c-0.8,0.5-1.2,1.2-1.2,2.1c0,0.2,6,21,18,62.4c12-41.3,18-62.1,18-62.3c0-1-0.4-1.8-1.2-2.2
		c-0.8-0.4-1.7-0.7-2.6-0.7c-0.3,0-0.5-0.2-0.5-0.5c0-0.2,0-0.3,0.1-0.4c0.1-0.1,1.8-0.1,5.2-0.1c3.3,0,5.1,0,5.2,0.1
		c0.1,0.1,0.2,0.2,0.2,0.4c0,0.4-0.2,0.5-0.5,0.5c-1.8,0-3.1,1.4-3.9,4.3L231.6,135.3z"/>
	<path class="st1" d="M196.4,122.8h-32c-0.3,0-0.5-0.2-0.5-0.5c0-0.1,0.1-0.3,0.2-0.4c0.1-0.1,0.2-0.2,0.4-0.2c1,0,1.9-0.4,2.6-1.1
		c0.7-0.7,1.1-1.6,1.1-2.6V64.5c0-1-0.4-1.9-1.1-2.6c-0.7-0.7-1.6-1.1-2.6-1.1c-0.1,0-0.3,0-0.4-0.1c-0.1-0.1-0.2-0.2-0.2-0.3
		c0-0.3,0.2-0.5,0.5-0.5h30.2c0.3,1.4,0.6,2.4,0.7,3.1c0.2,0.7,0.4,1.6,0.7,2.6l1.3,4.8c0,0.4-0.2,0.6-0.5,0.6
		c-0.2,0-0.4-0.1-0.5-0.4c-0.4-1.3-1.1-2.7-2.1-4c-1.1-1.3-2.4-2.4-4.1-3.3c-1.6-0.9-3.5-1.3-5.6-1.3h-11.3v26.5h14.5
		c1,0,1.9-0.4,2.6-1.1c0.7-0.7,1.1-1.6,1.1-2.6c0-0.3,0.2-0.5,0.5-0.5c0.3,0,0.5,0.2,0.5,0.5v9.4c0,0.1,0,0.3-0.1,0.4
		c-0.1,0.1-0.2,0.2-0.3,0.2c-0.1,0-0.3-0.1-0.4-0.2c-0.1-0.1-0.2-0.3-0.2-0.4c0-1-0.4-1.9-1.1-2.6c-0.7-0.7-1.6-1.1-2.6-1.1h-14.5
		v30.3h13c2.1,0,3.9-0.4,5.6-1.3c1.6-0.9,3-2,4.1-3.4c1.1-1.3,1.8-2.7,2.1-4c0.1-0.2,0.2-0.3,0.5-0.3c0.4,0,0.5,0.1,0.5,0.4
		l-1.2,4.5C197.5,118,197,120,196.4,122.8"/>
	<path class="st2" d="M277.5,114c-4.5,0-8.5-0.9-11.9-2.7c-3.4-1.8-6-4.2-7.8-7.2c-1.9-3-2.8-6.3-2.8-10c0-4.5,1.4-8.6,4.3-12
		c2.9-3.5,6.8-5.8,11.8-7c-3-1.1-5.3-2.9-7-5.3c-1.7-2.4-2.5-5.1-2.5-8c0-2.6,0.6-4.9,1.9-7.1c1.3-2.2,3.1-3.9,5.5-5.3
		c2.4-1.3,5.2-2,8.4-2c3.2,0,6,0.7,8.4,2c2.4,1.3,4.2,3.1,5.5,5.3c1.3,2.2,1.9,4.6,1.9,7.1c0,2.9-0.8,5.6-2.5,8
		c-1.7,2.4-4,4.2-7,5.3c5,1.2,9,3.6,11.8,7c2.9,3.5,4.3,7.5,4.3,12c0,3.6-0.9,7-2.8,10c-1.9,3-4.5,5.4-7.8,7.2
		C286,113.1,282.1,114,277.5,114 M277.5,112.2c3.6,0,6.6-0.8,9.3-2.3c2.6-1.6,4.7-3.7,6.1-6.4c1.5-2.7,2.2-5.8,2.2-9.2
		c0-3.4-0.7-6.5-2.2-9.2c-1.5-2.7-3.5-4.8-6.1-6.4c-2.6-1.6-5.7-2.3-9.3-2.3c-3.6,0-6.7,0.8-9.3,2.3c-2.6,1.6-4.7,3.7-6.1,6.4
		s-2.2,5.8-2.2,9.2c0,3.4,0.7,6.5,2.2,9.2c1.4,2.7,3.5,4.8,6.1,6.4C270.9,111.4,274,112.2,277.5,112.2 M277.5,74.5
		c2.5,0,4.6-0.5,6.3-1.6c1.7-1.1,2.9-2.6,3.8-4.5c0.8-1.9,1.3-4.1,1.3-6.5c0-2.4-0.4-4.6-1.3-6.5c-0.8-1.9-2.1-3.4-3.8-4.5
		c-1.7-1.1-3.8-1.6-6.3-1.6s-4.6,0.5-6.3,1.6c-1.7,1.1-3,2.6-3.8,4.5c-0.8,1.9-1.3,4.1-1.3,6.5c0,2.4,0.4,4.6,1.3,6.5
		c0.8,1.9,2.1,3.4,3.8,4.5C272.9,74,275,74.5,277.5,74.5"/>
	<path class="st3" d="M277.5,114c-4.5,0-8.5-0.9-11.9-2.7c-3.4-1.8-6-4.2-7.8-7.2c-1.9-3-2.8-6.3-2.8-10c0-4.5,1.4-8.6,4.3-12
		c2.9-3.5,6.8-5.8,11.8-7c-3-1.1-5.3-2.9-7-5.3c-1.7-2.4-2.5-5.1-2.5-8c0-2.6,0.6-4.9,1.9-7.1c1.3-2.2,3.1-3.9,5.5-5.3
		c2.4-1.3,5.2-2,8.4-2c3.2,0,6,0.7,8.4,2c2.4,1.3,4.2,3.1,5.5,5.3c1.3,2.2,1.9,4.6,1.9,7.1c0,2.9-0.8,5.6-2.5,8
		c-1.7,2.4-4,4.2-7,5.3c5,1.2,9,3.6,11.8,7c2.9,3.5,4.3,7.5,4.3,12c0,3.6-0.9,7-2.8,10c-1.9,3-4.5,5.4-7.8,7.2
		C286,113.1,282.1,114,277.5,114z M277.5,112.2c3.6,0,6.6-0.8,9.3-2.3c2.6-1.6,4.7-3.7,6.1-6.4c1.5-2.7,2.2-5.8,2.2-9.2
		c0-3.4-0.7-6.5-2.2-9.2c-1.5-2.7-3.5-4.8-6.1-6.4c-2.6-1.6-5.7-2.3-9.3-2.3c-3.6,0-6.7,0.8-9.3,2.3c-2.6,1.6-4.7,3.7-6.1,6.4
		s-2.2,5.8-2.2,9.2c0,3.4,0.7,6.5,2.2,9.2c1.4,2.7,3.5,4.8,6.1,6.4C270.9,111.4,274,112.2,277.5,112.2z M277.5,74.5
		c2.5,0,4.6-0.5,6.3-1.6c1.7-1.1,2.9-2.6,3.8-4.5c0.8-1.9,1.3-4.1,1.3-6.5c0-2.4-0.4-4.6-1.3-6.5c-0.8-1.9-2.1-3.4-3.8-4.5
		c-1.7-1.1-3.8-1.6-6.3-1.6s-4.6,0.5-6.3,1.6c-1.7,1.1-3,2.6-3.8,4.5c-0.8,1.9-1.3,4.1-1.3,6.5c0,2.4,0.4,4.6,1.3,6.5
		c0.8,1.9,2.1,3.4,3.8,4.5C272.9,74,275,74.5,277.5,74.5z"/>
	<rect x="102.4" y="144.7" class="st4" width="0.6" height="7.6"/>
	<polygon class="st4" points="110.2,144.7 110.7,144.7 116,151.3 116,144.7 116.5,144.7 116.5,152.3 116.1,152.3 110.7,145.6 
		110.7,152.3 110.2,152.3 	"/>
	<polygon class="st4" points="125.8,145.2 123.1,145.2 123.1,144.7 129,144.7 129,145.2 126.4,145.2 126.4,152.3 125.8,152.3 	"/>
	<polygon class="st4" points="135.6,144.7 141.1,144.7 141.1,145.2 136.2,145.2 136.2,148.2 140.6,148.2 140.6,148.8 136.2,148.8 
		136.2,151.8 141.1,151.8 141.1,152.3 135.6,152.3 	"/>
	<path class="st4" d="M147.8,144.7h3.2c0.5,0,0.9,0.1,1.3,0.2c0.4,0.1,0.7,0.3,0.9,0.5c0.2,0.2,0.3,0.4,0.4,0.6
		c0.1,0.2,0.2,0.5,0.2,0.8v0c0,0.3-0.1,0.6-0.2,0.9c-0.1,0.3-0.3,0.5-0.5,0.6c-0.2,0.2-0.4,0.3-0.7,0.4c-0.3,0.1-0.6,0.2-0.9,0.2
		l2.5,3.3h-0.7l-2.4-3.2h0h-2.5v3.2h-0.6V144.7z M151,148.7c0.3,0,0.6,0,0.9-0.1c0.3-0.1,0.5-0.2,0.7-0.3c0.2-0.1,0.4-0.3,0.5-0.5
		c0.1-0.2,0.2-0.5,0.2-0.7v0c0-0.5-0.2-0.9-0.6-1.2c-0.4-0.3-0.9-0.4-1.6-0.4h-2.6v3.4H151z"/>
	<polygon class="st4" points="160.6,144.7 161.1,144.7 166.4,151.3 166.4,144.7 166.9,144.7 166.9,152.3 166.5,152.3 161.1,145.6 
		161.1,152.3 160.6,152.3 	"/>
	<path class="st4" d="M177,144.7h0.5l3.5,7.7h-0.6l-1-2.1H175l-1,2.1h-0.6L177,144.7z M179.3,149.7l-2-4.4l-2,4.4H179.3z"/>
	<polygon class="st4" points="189.7,145.2 187,145.2 187,144.7 192.9,144.7 192.9,145.2 190.3,145.2 190.3,152.3 189.7,152.3 	"/>
	<rect x="199.6" y="144.7" class="st4" width="0.6" height="7.6"/>
	<path class="st4" d="M210.9,152.5c-0.6,0-1.1-0.1-1.6-0.3c-0.5-0.2-0.9-0.5-1.2-0.9c-0.3-0.4-0.6-0.8-0.8-1.2
		c-0.2-0.5-0.3-1-0.3-1.5v0c0-0.5,0.1-1,0.3-1.5c0.2-0.5,0.4-0.9,0.8-1.3c0.3-0.4,0.7-0.7,1.2-0.9c0.5-0.2,1-0.3,1.6-0.3
		c0.6,0,1.1,0.1,1.6,0.3c0.5,0.2,0.9,0.5,1.2,0.9c0.3,0.4,0.6,0.8,0.8,1.2c0.2,0.5,0.3,1,0.3,1.5c0,0,0,0,0,0c0,0.5-0.1,1-0.3,1.5
		s-0.4,0.9-0.8,1.3c-0.3,0.4-0.7,0.7-1.2,0.9C212,152.4,211.5,152.5,210.9,152.5 M210.9,152c0.5,0,0.9-0.1,1.3-0.3s0.7-0.4,1-0.7
		c0.3-0.3,0.5-0.7,0.7-1.1c0.2-0.4,0.2-0.9,0.2-1.3v0c0-0.5-0.1-0.9-0.2-1.3c-0.2-0.4-0.4-0.8-0.7-1.1c-0.3-0.3-0.6-0.6-1-0.7
		c-0.4-0.2-0.8-0.3-1.3-0.3s-0.9,0.1-1.3,0.3c-0.4,0.2-0.7,0.4-1,0.7c-0.3,0.3-0.5,0.7-0.7,1.1c-0.2,0.4-0.2,0.9-0.2,1.3v0
		c0,0.5,0.1,0.9,0.2,1.3c0.2,0.4,0.4,0.8,0.7,1.1c0.3,0.3,0.6,0.6,1,0.7C210,151.9,210.5,152,210.9,152"/>
	<polygon class="st4" points="221.6,144.7 222.1,144.7 227.4,151.3 227.4,144.7 227.9,144.7 227.9,152.3 227.5,152.3 222.1,145.6 
		222.1,152.3 221.6,152.3 	"/>
	<path class="st4" d="M238,144.7h0.5l3.5,7.7h-0.6l-1-2.1H236l-1,2.1h-0.6L238,144.7z M240.2,149.7l-2-4.4l-2,4.4H240.2z"/>
	<polygon class="st4" points="248.6,144.7 249.1,144.7 249.1,151.8 253.6,151.8 253.6,152.3 248.6,152.3 	"/>
	<polygon class="st4" points="268.4,144.7 273.7,144.7 273.7,145.2 268.9,145.2 268.9,148.4 273.2,148.4 273.2,148.9 268.9,148.9 
		268.9,152.3 268.4,152.3 	"/>
	<polygon class="st4" points="280,152 285.2,145.2 280.2,145.2 280.2,144.7 286,144.7 286,145 280.8,151.8 286,151.8 286,152.3 
		280,152.3 	"/>
	<polygon class="st4" points="292.8,144.7 298.2,144.7 298.2,145.2 293.4,145.2 293.4,148.2 297.7,148.2 297.7,148.8 293.4,148.8 
		293.4,151.8 298.3,151.8 298.3,152.3 292.8,152.3 	"/>
	<polygon class="st1" points="256.4,135.4 277.1,119.6 297.7,135.4 	"/>
</g>
</svg>
