<?xml version="1.0" encoding="utf-8"?>
<!-- Generator: Adobe Illustrator 23.0.1, SVG Export Plug-In . SVG Version: 6.00 Build 0)  -->
<svg version="1.1" id="Layer_1" xmlns="http://www.w3.org/2000/svg" xmlns:xlink="http://www.w3.org/1999/xlink" x="0px" y="0px"
	 viewBox="0 0 400 200" style="enable-background:new 0 0 400 200;" xml:space="preserve">
<style type="text/css">
	.st0{fill:#003F5F;}
	.st1{fill:#009CE0;}
	.st2{fill:#90C862;}
	.st3{fill:#30B353;}
</style>
<g>
	<path class="st0" d="M92.5,152.5c-1.5,0-2.5-0.9-2.5-2.4v-25.6c0-0.7,0.3-1.3,0.8-1.8c0.5-0.4,1.1-0.6,1.8-0.6h23.2
		c1.8,0,2.5,1.1,2.5,2.2c0,1.1-0.7,2.2-2.5,2.2H95v9h17.3c1.8,0,2.5,1.1,2.5,2.2c0,1.1-0.7,2.2-2.5,2.2H95v10.3
		C95,151.6,94,152.5,92.5,152.5"/>
	<path class="st0" d="M152.3,152.5c-0.8,0-1.5-0.3-2-0.9l-10.1-10.7h-10.2v9.2c0,1.5-0.9,2.4-2.5,2.4c-1.5,0-2.5-0.9-2.5-2.4v-25.6
		c0-0.7,0.3-1.3,0.8-1.8c0.5-0.4,1.1-0.6,1.8-0.6H143c3.6,0,6.5,0.8,8.5,2.3c2.1,1.6,3.1,3.9,3.1,6.9c0,2.9-1,5.2-2.8,6.8
		c-1.4,1.1-3.2,1.9-5.5,2.3l7.8,8.1c0.5,0.6,0.7,1.1,0.7,1.7c0,0.7-0.3,1.2-0.7,1.7C153.8,152.1,153.2,152.5,152.3,152.5
		 M142.8,136.5c6,0,6.7-2.9,6.7-5c0-2.2-0.7-5-6.7-5h-12.8v10H142.8z"/>
	<path class="st0" d="M165.5,152.2c-0.7,0-1.3-0.2-1.8-0.6c-0.5-0.4-0.8-1.1-0.8-1.8v-25.3c0-0.7,0.3-1.3,0.8-1.8
		c0.5-0.4,1.1-0.6,1.8-0.6h23.7c1.8,0,2.5,1.1,2.5,2.2c0,1.1-0.7,2.2-2.5,2.2h-21.3v8.4h17.8c1.8,0,2.5,1.1,2.5,2.2
		c0,1.1-0.6,2.2-2.5,2.2h-17.8v8.6h21.3c1.8,0,2.5,1.1,2.5,2.2c0,1.1-0.7,2.2-2.5,2.2H165.5z"/>
	<path class="st0" d="M213.4,152.7c-3.5,0-6.6-0.4-9.2-1.3c-2.6-0.9-4.6-2.2-5.9-3.8c-0.3-0.4-0.5-0.9-0.5-1.4
		c0-0.6,0.3-1.2,0.8-1.6c0.5-0.4,1-0.6,1.7-0.6c0.8,0,1.4,0.3,1.9,0.9c0.9,1.1,2.3,2,4.2,2.6c2,0.6,4.4,1,7.2,1
		c3.2,0,5.6-0.5,7.4-1.5c1.6-0.9,2.4-2.1,2.4-3.7c0-0.7-0.1-1.2-0.4-1.7c-0.3-0.4-0.8-0.8-1.5-1.1c-0.8-0.4-1.9-0.7-3.2-0.8
		c-1.4-0.2-3.2-0.3-5.3-0.3c-2.5,0-4.7-0.2-6.5-0.4c-1.9-0.3-3.3-0.7-4.5-1.3c-1.2-0.7-2.2-1.5-2.8-2.6c-0.6-1-0.8-2.2-0.8-3.6
		c0-1.5,0.4-2.9,1.1-4.1c0.7-1.2,1.8-2.2,3.1-3c1.3-0.8,2.8-1.4,4.6-1.8c1.7-0.4,3.7-0.6,5.8-0.6c2.9,0,5.5,0.4,7.8,1.1
		c2.3,0.7,4.2,1.8,5.5,3.2c0.4,0.4,0.6,1,0.6,1.7c0,0.6-0.2,1.2-0.7,1.6c-0.4,0.4-1,0.6-1.6,0.6c-1,0-1.6-0.4-1.9-0.8
		c-0.9-0.9-2.2-1.7-3.9-2.2c-1.7-0.5-3.7-0.8-5.9-0.8c-1.5,0-2.9,0.1-4.1,0.4c-1.2,0.3-2.2,0.7-3,1.2c-0.8,0.5-1.4,1-1.8,1.6
		c-0.4,0.6-0.6,1.3-0.6,2c0,0.6,0.1,1.1,0.4,1.4c0.2,0.4,0.7,0.7,1.3,1c0.7,0.3,1.8,0.6,3.1,0.7c1.3,0.2,3.1,0.3,5.1,0.3
		c2.7,0,5,0.2,6.8,0.5c1.9,0.3,3.5,0.8,4.7,1.5c1.3,0.7,2.2,1.6,2.8,2.8c0.6,1.1,0.9,2.4,0.9,3.8c0,1.5-0.4,2.9-1.1,4.1
		c-0.7,1.2-1.8,2.2-3.1,3c-1.3,0.8-2.8,1.4-4.6,1.8C217.7,152.5,215.7,152.7,213.4,152.7"/>
	<path class="st0" d="M252.8,152.7c-2.6,0-5-0.4-7.2-1.1c-2.2-0.7-4.1-1.8-5.7-3.2c-1.6-1.4-2.8-3-3.7-5c-0.9-1.9-1.3-4-1.3-6.3
		c0-2.3,0.4-4.4,1.3-6.3c0.9-1.9,2.1-3.6,3.7-4.9c1.6-1.3,3.5-2.4,5.6-3.2c2.2-0.7,4.6-1.1,7.2-1.1c3,0,5.7,0.5,8.1,1.4
		c2.4,1,4.4,2.3,6,4.1c0.4,0.4,0.6,1,0.6,1.5c0,0.6-0.3,1.2-0.7,1.6c-0.5,0.4-1,0.6-1.7,0.6c-0.8,0-1.5-0.3-2-0.9
		c-1.1-1.3-2.5-2.3-4.3-3c-1.8-0.7-3.8-1.1-6.1-1.1c-1.9,0-3.7,0.3-5.3,0.8c-1.6,0.5-2.9,1.3-4,2.3c-1.1,1-2,2.2-2.6,3.5
		c-0.6,1.4-0.9,2.9-0.9,4.5c0,1.7,0.3,3.2,0.9,4.5c0.6,1.4,1.5,2.5,2.6,3.5c1.1,1,2.5,1.8,4,2.3c1.6,0.6,3.4,0.8,5.3,0.8
		c2.3,0,4.4-0.4,6.2-1.1c1.8-0.7,3.2-1.8,4.4-3.2c0.5-0.6,1.2-1,2-1c0.9,0,1.4,0.4,1.7,0.7c0.4,0.4,0.7,1,0.7,1.6
		c0,0.5-0.1,0.9-0.4,1.3c0,0,0,0-0.1,0.1c-1.5,1.9-3.5,3.4-6,4.4C258.9,152.2,256,152.7,252.8,152.7"/>
	<path class="st0" d="M292.1,152.7c-2.6,0-5-0.4-7.2-1.1c-2.2-0.7-4.1-1.8-5.7-3.2c-1.6-1.4-2.8-3-3.7-5c-0.9-1.9-1.3-4-1.3-6.3
		c0-2.3,0.4-4.4,1.3-6.3c0.9-1.9,2.1-3.6,3.7-4.9c1.6-1.3,3.5-2.4,5.6-3.2c2.2-0.7,4.6-1.1,7.2-1.1c2.6,0,5,0.4,7.2,1.1
		c2.2,0.7,4.1,1.8,5.7,3.2c1.6,1.4,2.8,3,3.7,4.9c0.9,1.9,1.3,4,1.3,6.3c0,2.3-0.4,4.4-1.3,6.3c-0.9,1.9-2.1,3.6-3.7,5
		c-1.6,1.4-3.5,2.4-5.7,3.2C297.1,152.4,294.7,152.7,292.1,152.7 M292.1,126c-1.9,0-3.7,0.3-5.3,0.8c-1.6,0.5-2.9,1.3-4,2.3
		c-1.1,1-2,2.2-2.6,3.5c-0.6,1.4-0.9,2.9-0.9,4.5c0,1.7,0.3,3.2,0.9,4.5c0.6,1.4,1.5,2.5,2.6,3.5c1.1,1,2.5,1.8,4,2.3
		c1.6,0.6,3.4,0.8,5.3,0.8c1.9,0,3.7-0.3,5.3-0.8c1.6-0.5,2.9-1.3,4-2.3c1.1-1,2-2.2,2.6-3.5c0.6-1.4,0.9-2.9,0.9-4.5
		c0-1.7-0.3-3.2-0.9-4.5c-0.6-1.4-1.5-2.5-2.6-3.5c-1.1-1-2.5-1.8-4-2.3C295.9,126.3,294.1,126,292.1,126"/>
	<path class="st1" d="M190,101.5c-1.9,3.4-3.6,5-5.1,6.4h33.2l5.1-8.9h-32C190.9,99.8,190.5,100.6,190,101.5"/>
	<path class="st1" d="M194.2,89.1c-0.5,1.4-0.7,2.5-1,3.7c-0.3,1.3-0.5,2.7-1.1,4.3h32.2l4.6-8H194.2z"/>
	<path class="st1" d="M226.8,77.3c-4.1,0-6.2,0.7-8.3,1.4c-2.2,0.7-4.5,1.5-9.1,1.5c-4.1,0-6.4-0.6-8.4-1.3c-1.5,1.3-3,2.8-4.9,6
		c-0.5,0.8-0.9,1.6-1.2,2.3H230l5-8.6C232.9,78,230.9,77.3,226.8,77.3"/>
	<path class="st2" d="M182.6,106.8c1.7-1.5,3.3-2.9,5.4-6.5c2.1-3.6,2.5-5.7,2.9-7.9c0.5-2.3,0.9-4.7,3.2-8.6
		c0.1-0.2,0.3-0.4,0.4-0.6c0-0.1,0.1-0.1,0.1-0.2c0.1-0.2,0.2-0.3,0.3-0.5c0,0,0.1-0.1,0.1-0.1c0.1-0.2,0.2-0.4,0.4-0.5
		c0,0,0.1-0.1,0.1-0.1c0.1-0.1,0.2-0.3,0.3-0.4c0-0.1,0.1-0.1,0.1-0.2c0.1-0.1,0.2-0.3,0.3-0.4c0,0,0.1-0.1,0.1-0.1
		c0.1-0.1,0.2-0.2,0.3-0.3c0-0.1,0.1-0.1,0.1-0.2c0.1-0.1,0.1-0.2,0.2-0.2c0-0.1,0.1-0.1,0.1-0.2c0.1-0.1,0.2-0.2,0.3-0.3
		c0.1-0.1,0.1-0.1,0.2-0.2c0,0,0.1-0.1,0.1-0.1c0.1-0.1,0.1-0.1,0.2-0.2c0,0,0.1-0.1,0.1-0.1c0.1-0.2,0.3-0.3,0.4-0.4c0,0,0,0,0,0
		c0.1-0.1,0.2-0.2,0.2-0.2c-1.6-0.4-3.5-0.8-6.4-0.8c-4.1,0-6.2,0.7-8.3,1.4c-2.2,0.7-4.5,1.5-9.1,1.5c-4,0-6.3-0.6-8.3-1.3
		L182.6,106.8C182.5,106.8,182.6,106.8,182.6,106.8"/>
	<path class="st3" d="M207.4,71.4c-1.6,2.8-3,4.4-4.3,5.7c1.6,0.4,3.5,0.8,6.4,0.8c2.1,0,3.6-0.2,4.9-0.4l-5.3-9.2
		C208.6,69.2,208.1,70.2,207.4,71.4"/>
	<path class="st3" d="M210.6,62.8c-0.2,1-0.4,2-0.8,3.2l6.4,11c0.5-0.2,1-0.3,1.5-0.5c1.4-0.5,2.9-1,4.9-1.3l-10.4-17.9
		C211.3,59.5,210.9,61.1,210.6,62.8"/>
	<path class="st3" d="M218.8,48.5c-1.7,1.5-3.2,2.9-5.3,6.4c-0.1,0.1-0.2,0.3-0.2,0.4L224.7,75c0.6,0,1.3-0.1,2.1-0.1
		c3.8,0,6,0.5,8,1.2L218.8,48.5z"/>
	<path class="st0" d="M211.5,53.7c1.9-3.4,3.6-5,5.1-6.4h-33.5l-4.4,7.6h32.1C211,54.5,211.3,54.1,211.5,53.7"/>
	<path class="st0" d="M208.3,62.3c0.3-1.6,0.7-3.3,1.7-5.6h-32.3l-4.7,8.1h34.7C207.9,64,208.1,63.1,208.3,62.3"/>
	<path class="st0" d="M192.1,74.9c4.1,0,6.4,0.6,8.4,1.3c1.5-1.3,3-2.8,4.9-6c0.8-1.3,1.3-2.5,1.7-3.5h-35.1l-5.6,9.7
		c0,0,0.1,0,0.1,0c2.1,0.7,4.2,1.4,8.3,1.4c4.1,0,6.2-0.7,8.3-1.4C185.2,75.7,187.5,74.9,192.1,74.9"/>
</g>
</svg>
