<?xml version="1.0" encoding="utf-8"?>
<!-- Generator: Adobe Illustrator 23.0.1, SVG Export Plug-In . SVG Version: 6.00 Build 0)  -->
<svg version="1.1" id="Layer_1" xmlns="http://www.w3.org/2000/svg" xmlns:xlink="http://www.w3.org/1999/xlink" x="0px" y="0px"
	 viewBox="0 0 400 200" style="enable-background:new 0 0 400 200;" xml:space="preserve">
<style type="text/css">
	.st0{fill:#866132;}
	.st1{fill:url(#SVGID_1_);}
	.st2{fill-rule:evenodd;clip-rule:evenodd;fill:url(#SVGID_2_);}
	.st3{fill-rule:evenodd;clip-rule:evenodd;fill:url(#SVGID_3_);}
	.st4{fill-rule:evenodd;clip-rule:evenodd;fill:#895D3B;}
	.st5{fill-rule:evenodd;clip-rule:evenodd;fill:url(#SVGID_4_);}
	.st6{fill-rule:evenodd;clip-rule:evenodd;fill:url(#SVGID_5_);}
	.st7{fill-rule:evenodd;clip-rule:evenodd;fill:#603917;}
	.st8{fill-rule:evenodd;clip-rule:evenodd;fill:url(#SVGID_6_);}
	.st9{fill-rule:evenodd;clip-rule:evenodd;fill:url(#SVGID_7_);}
	.st10{fill-rule:evenodd;clip-rule:evenodd;fill:url(#SVGID_8_);}
	.st11{fill-rule:evenodd;clip-rule:evenodd;fill:url(#SVGID_9_);}
</style>
<g>
	<rect x="118.5" y="130.9" class="st0" width="163.1" height="0.7"/>
	<g>
		<path class="st0" d="M182.1,145c-0.1,0.4-0.1,0.9-0.1,1.4c0,0.5,0,1,0.1,1.7c-0.7,0.3-1.5,0.5-2.4,0.7c-0.9,0.2-1.8,0.3-2.6,0.3
			c-1.3,0-2.4-0.2-3.3-0.7c-1-0.5-1.7-1.2-2.2-2.1s-0.8-1.9-0.8-3c0-1.2,0.3-2.2,0.8-3.1c0.6-0.9,1.3-1.6,2.3-2.1s2.2-0.8,3.7-0.8
			c0.6,0,1.2,0,1.7,0.1c0.5,0.1,1.2,0.2,2,0.5l0.7,0.2c-0.1,0.6-0.3,1.4-0.3,2.4h-0.5v-0.5c0-0.5,0-0.8-0.1-0.9
			c-0.2-0.2-0.6-0.4-1.3-0.6c-0.7-0.3-1.5-0.4-2.4-0.4c-1.6,0-2.8,0.4-3.6,1.3c-0.9,0.9-1.4,2.1-1.4,3.7c0,1.5,0.4,2.7,1.2,3.7
			c1,1.2,2.3,1.8,3.9,1.8c0.9,0,1.8-0.2,2.8-0.6c0-0.5,0-0.9,0-1.4c0-0.7,0-1,0-1.1s-0.1-0.2-0.1-0.2s-0.3-0.1-0.8-0.1l-0.9-0.1
			v-0.5c1.2,0.1,2.1,0.1,2.7,0.1c0.5,0,1,0,1.3-0.1v0.4L182.1,145z"/>
		<path class="st0" d="M189.5,143c0.5,0.8,1.2,1.6,2,2.6l1.5,2c0.3,0.3,0.5,0.5,0.5,0.6c0.1,0,0.2,0.1,0.3,0.1h0.2v0.5
			c-0.4,0-0.8-0.1-1.2-0.1c-0.3,0-0.6,0-1,0.1L189,145c-0.5-0.7-1.1-1.4-1.7-2.1l0.1-0.3c0.3,0,0.5,0,0.7,0c0.9,0,1.6-0.2,2.1-0.7
			c0.5-0.5,0.8-1.1,0.8-1.8c0-0.7-0.2-1.2-0.6-1.6c-0.4-0.4-1-0.6-1.9-0.6c-0.6,0-1.1,0.1-1.7,0.3c-0.1,0.9-0.1,1.8-0.1,2.7v3.9
			c0,1.9,0,2.9,0.1,3.1c0.1,0.2,0.4,0.3,0.9,0.3h0.6v0.5c-0.9,0-1.6-0.1-2.2-0.1c-0.5,0-1.3,0-2.5,0.1v-0.5h0.6
			c0.5,0,0.7-0.1,0.8-0.3c0.1-0.2,0.1-1.3,0.1-3.2V141c0-1.7,0-2.6-0.1-2.8s-0.4-0.3-1-0.3h-0.4v-0.5c1,0,1.8,0.1,2.3,0.1
			c0.4,0,0.9,0,1.5,0c0.8,0,1.3,0,1.7,0c0.9,0,1.6,0.1,2.1,0.3c0.5,0.2,0.8,0.5,1.1,0.8c0.2,0.4,0.4,0.8,0.4,1.3
			c0,0.8-0.3,1.4-0.8,2S190.5,142.8,189.5,143z"/>
		<path class="st0" d="M194.5,143.1c0-1.8,0.6-3.2,1.7-4.3c1.1-1.1,2.6-1.6,4.5-1.6c1.9,0,3.3,0.5,4.4,1.5c1.1,1,1.6,2.3,1.6,4
			c0,1.8-0.6,3.3-1.8,4.5c-1.2,1.2-2.8,1.8-4.6,1.8c-1.2,0-2.2-0.2-3-0.7c-0.8-0.5-1.5-1.2-2-2.1
			C194.8,145.3,194.5,144.3,194.5,143.1z M196.1,142.5c0,1.2,0.2,2.3,0.6,3.2c0.4,0.9,1,1.6,1.7,2s1.5,0.7,2.4,0.7
			c0.8,0,1.6-0.2,2.2-0.6c0.6-0.4,1.1-0.9,1.5-1.7s0.5-1.7,0.5-2.8c0-1.1-0.2-2.1-0.6-2.9c-0.4-0.8-0.9-1.4-1.6-1.8
			c-0.7-0.4-1.5-0.6-2.4-0.6c-0.9,0-1.6,0.2-2.2,0.5c-0.6,0.4-1.1,0.9-1.5,1.6C196.3,140.7,196.1,141.6,196.1,142.5z"/>
		<path class="st0" d="M207.4,137.9v-0.5c1.1,0,1.9,0.1,2.4,0.1c0.5,0,1.3,0,2.3-0.1v0.5h-0.6c-0.5,0-0.8,0.1-0.9,0.3
			c-0.1,0.2-0.2,1.1-0.2,2.6v3.1c0,1.2,0.1,2,0.2,2.4c0.1,0.5,0.5,0.8,1,1.1c0.5,0.3,1.2,0.5,2.1,0.5c0.9,0,1.7-0.2,2.3-0.5
			c0.4-0.2,0.7-0.6,0.9-1.1c0.2-0.5,0.3-1.4,0.3-2.8v-3c0-1.4-0.1-2.2-0.2-2.4s-0.5-0.3-1-0.3h-0.4v-0.5c1.1,0,1.8,0.1,2.1,0.1
			c0.5,0,1.1,0,1.8-0.1v0.5H219c-0.4,0-0.7,0.1-0.8,0.3s-0.2,1-0.2,2.4v3c0,1.4-0.1,2.3-0.2,2.8c-0.1,0.5-0.4,0.9-0.7,1.3
			s-0.8,0.7-1.4,0.9c-0.6,0.2-1.3,0.3-2.1,0.3c-0.8,0-1.6-0.1-2.2-0.3c-0.6-0.2-1.1-0.4-1.4-0.7c-0.3-0.3-0.5-0.7-0.7-1.1
			c-0.1-0.4-0.2-1.1-0.2-2.2l0-1.5v-2.4c0-1.5,0-2.4-0.1-2.5c-0.1-0.2-0.4-0.3-0.8-0.3H207.4z"/>
		<path class="st0" d="M223.4,138.3c0,0.8-0.1,1.6-0.1,2.5v4.6c0,1.6,0,2.5,0.1,2.7c0.1,0.2,0.4,0.3,0.9,0.3h0.6v0.5
			c-0.9,0-1.7-0.1-2.2-0.1c-0.5,0-1.3,0-2.6,0.1v-0.5h0.7c0.3,0,0.6,0,0.7-0.1c0.1-0.1,0.2-0.3,0.2-0.5c0-0.3,0.1-1,0.1-2.3v-4.3
			l0-1.7c0-0.7-0.1-1.1-0.2-1.3c-0.1-0.2-0.5-0.2-1-0.2h-0.4v-0.5c0.7,0,1.5,0,2.5,0c0.6,0,1.3,0,2,0c0.5,0,0.9,0,1.1,0
			c1.3,0,2.2,0.2,2.8,0.7c0.6,0.5,0.9,1.1,0.9,1.9c0,0.6-0.2,1.1-0.5,1.7c-0.3,0.5-0.8,1-1.4,1.3c-0.6,0.3-1.3,0.5-2,0.5
			c-0.3,0-0.7-0.1-1.2-0.2l-0.2-0.6c0.5,0.1,0.9,0.2,1.2,0.2c0.7,0,1.3-0.2,1.8-0.7s0.7-1.1,0.7-1.8c0-0.8-0.2-1.3-0.7-1.8
			c-0.5-0.4-1.2-0.6-2.1-0.6C224.6,138,224.1,138.1,223.4,138.3z"/>
	</g>
	<g>
		
			<radialGradient id="SVGID_1_" cx="188.3603" cy="56.4334" r="19.9977" gradientTransform="matrix(1 -6.067006e-03 6.067006e-03 1 -0.297 11.8554)" gradientUnits="userSpaceOnUse">
			<stop  offset="0" style="stop-color:#DAB287"/>
			<stop  offset="1" style="stop-color:#784920"/>
		</radialGradient>
		<path class="st1" d="M195.2,53c2.4-1.2,4.8-2.1,7.4-2.8c2.3-0.6,6.7-1.2,7.1-1.6c0.1-0.2-1.5-0.1-2.2,0c-1,0.1-2.1,0.3-3.1,0.5
			c-2.1,0.4-4.2,1-6.3,1.6c-11.6,3.8-21.7,12.1-27.4,22.9c-0.7,1.2-3.4,5.9-3.6,9.1c-0.1,1.5,0.3,2.7,1.9,2.9c2.3,0.4,2.6-2,2.9-3.6
			c0.6-2.9,1.6-6,2.8-8.7C178.6,64.4,186.6,57.3,195.2,53z"/>
		
			<radialGradient id="SVGID_2_" cx="207.2625" cy="56.4168" r="28.6508" gradientTransform="matrix(1 -6.067006e-03 6.067006e-03 1 -0.297 11.8554)" gradientUnits="userSpaceOnUse">
			<stop  offset="0" style="stop-color:#DAB287"/>
			<stop  offset="1" style="stop-color:#784920"/>
		</radialGradient>
		<path class="st2" d="M232.9,77.8c-0.2-1.2-8.5-16.4-10.4-19.6c-0.4-0.7,1.1,0.1,2,0.3c1.1,0.3,1.8-0.3,1.8-0.3
			c-4.3-2.2-2.8-6.3-7.8-4.2c1.9-2.8,3.4-3.2,3.6-8c-7.2,7.2-23.3,3.2-23.6,13.9c0,1.6,0.6,5.6-2.4,9.1c-0.5,0.6,2.9-9.7-1.3-6.2
			c-2.6,2.2-7.5,4.8-7.2,8.8c0.1,1.9,3.7,5,1.7,10.4c-0.2,0.6-0.7-6.4-3.7-4.7c-4.8,2.7-5.2,16.2-0.9,14.8c10.4-3.4,15,4.5,25.4,5
			c5.4,0.2,9.9-2.5,9.9-2.5c-12.7-3.1-16.3-16.8-12.6-23.6l1,1.3c3.7,5.2,9.5,1.9,11.5,1.2c-1.2,1.8-3,1.3-3.8,2.7
			c1.2,1,3.9,2.5,5.2,3.2c3,1.7,1.5,2.9,3.5,4.1c1.1,0.7,2.1,0.5,3.3,0.5c0.6,0-2.1-3.1-2.1-3.3c0.2-1,2.7,3.2,3.3,3
			C231.7,82.9,233.5,80.6,232.9,77.8z M222,64.8c-1.8-0.3-1.9-0.5-2.6-2.1C221.3,63.2,222.1,62.9,222,64.8z M230.2,79.3
			c-0.1,0.1-0.5,0.2-0.7-0.1c-0.3-0.5-0.3-1.3-0.1-2.2C229.2,79.3,230.7,78.5,230.2,79.3z"/>
		
			<linearGradient id="SVGID_3_" gradientUnits="userSpaceOnUse" x1="193.8214" y1="66.2381" x2="218.5424" y2="57.0895" gradientTransform="matrix(1 -6.067006e-03 6.067006e-03 1 -0.297 11.8554)">
			<stop  offset="0" style="stop-color:#C1976B"/>
			<stop  offset="1" style="stop-color:#603917"/>
		</linearGradient>
		<path class="st3" d="M195.9,76.7c3.4,2.4,6.9,4.6,10.5,6.8c-1.6-4.5-1.5-9.4,0.4-12.8l0.6-1.1l1.8,2.3c1.2,1.7,2.8,2.6,4.7,2.6
			c1.9,0,3.7-0.8,4.9-1.3c0.3-0.1,0.6-0.3,0.9-0.4L222,72l-1.3,2.1c-0.8,1.2-1.7,1.6-2.5,1.9c-0.3,0.1-0.6,0.2-0.8,0.3
			c1,0.7,2.5,1.6,3.6,2.2c0.3,0.2,0.6,0.3,0.8,0.4c1.9,1.1,2.3,2.1,2.5,2.9c0.2,0.5,0.3,0.9,1,1.3c0.5,0.3,1,0.4,1.6,0.4
			c-0.3-0.3-0.5-0.7-0.7-0.9c-0.8-1.1-1-1.3-0.9-1.7c0.1-0.6,0.5-0.8,0.9-0.8c0.6,0,1.1,0.5,2.1,1.8c0.3,0.4,0.8,0.9,1.1,1.2
			c1.7-0.9,3.2-2.7,2.7-4.9c-0.3-1.2-8.1-15.8-10.3-19.3c-0.3-0.5-0.2-0.8-0.1-1.1c0.1-0.1,0.3-0.5,0.9-0.5c0.3,0,0.7,0.1,1.2,0.3
			c-0.6-0.6-1-1.2-1.3-1.7c-0.7-1-1-1.4-1.7-1.4c-0.5,0-1.1,0.2-2,0.5l-2.6,1.1l1.6-2.3c0.5-0.7,0.9-1.2,1.3-1.7c1-1.2,1.7-2,2-3.9
			c-3.1,2.2-7,3.1-10.8,3.9c-5.8,1.3-10.8,2.5-10.9,8c0,0.2,0,0.5,0,0.8c0.1,2,0.2,5.6-2.6,8.8c-0.2,0.3-0.5,0.3-0.7,0.3l-0.4,0
			l-0.2-0.3c-0.3-0.4-0.2-0.6,0.1-1.9c0.6-2.5,0.8-4.1,0.6-4.7c-0.1,0.1-0.4,0.2-0.7,0.5c-0.5,0.4-1.1,0.9-1.7,1.3
			c-2.5,1.8-5.3,3.9-5.2,6.6C190.9,73.2,193.4,75,195.9,76.7z M228.5,76.8l1.6,0.2c-0.1,0.8,0.1,1,0.3,1.1c0.2,0.1,0.5,0.3,0.6,0.8
			c0.1,0.5-0.2,0.8-0.3,1c-0.2,0.3-0.6,0.4-0.9,0.4c-0.5,0-0.9-0.2-1.1-0.7C228.4,78.9,228.3,78,228.5,76.8z M219.7,61.9
			c0.4,0.1,0.7,0.2,1,0.2c1.1,0.2,2.3,0.5,2.2,2.7l0,0.9l-0.9-0.2c-2.1-0.4-2.4-0.7-3.2-2.5l-0.7-1.6L219.7,61.9z"/>
		<path class="st4" d="M206,77.4c0,0.1,0,0.2,0,0.3C206,77.6,206,77.5,206,77.4z"/>
		
			<radialGradient id="SVGID_4_" cx="231.9617" cy="65.0323" r="18.2259" gradientTransform="matrix(1 -6.067006e-03 6.067006e-03 1 -0.297 11.8554)" gradientUnits="userSpaceOnUse">
			<stop  offset="0" style="stop-color:#DA9F6B"/>
			<stop  offset="1" style="stop-color:#603917"/>
		</radialGradient>
		<path class="st5" d="M231.6,76.7c0.4,0,1,2.2,1.3,1.1c0.1-0.3-4.7-9.2-4.7-9.2C230.1,73.6,230.5,76.8,231.6,76.7z"/>
		
			<radialGradient id="SVGID_5_" cx="226.7206" cy="44.6297" r="4.2558" gradientTransform="matrix(1 -6.067006e-03 6.067006e-03 1 -0.297 11.8554)" gradientUnits="userSpaceOnUse">
			<stop  offset="0" style="stop-color:#DA9F6B"/>
			<stop  offset="1" style="stop-color:#603917"/>
		</radialGradient>
		<path class="st6" d="M225.1,57.7c-0.7-0.2-1.4-0.7-2.1-0.7c-0.5,0-0.7,0.5-0.5,0.9c0.3,0,1.4,0.4,2,0.6c1.1,0.3,1.8-0.3,1.8-0.3
			c-0.3-0.2-0.6-0.3-0.8-0.5C225.4,57.8,225.2,57.8,225.1,57.7z"/>
		<path class="st7" d="M222,46.3c-0.2,2.8-1,3.9-2.2,5.3c-0.4,0.5-0.8,1-1.3,1.7l-0.8,1.2l1.3-0.6c0.1,0,0.2-0.1,0.3-0.1
			c-0.3,0.1-0.6,0.2-0.9,0.3c1.9-2.8,3.4-3.2,3.6-8c-0.4,0.4-0.8,0.8-1.3,1.1C221.2,46.9,221.6,46.6,222,46.3z"/>
		
			<radialGradient id="SVGID_6_" cx="216.557" cy="83.4458" r="32.2462" gradientTransform="matrix(1 -6.067006e-03 6.067006e-03 1 -0.297 11.8554)" gradientUnits="userSpaceOnUse">
			<stop  offset="0" style="stop-color:#DA9F6B"/>
			<stop  offset="1" style="stop-color:#603917"/>
		</radialGradient>
		<path class="st8" d="M206.1,78.1c0.1,2.3,0.6,4.6,1.6,6.8c2.1,5,6,8.7,11.1,10.4c0.8-0.4,1.3-0.7,1.3-0.7
			C210.9,92.4,206.5,84.7,206.1,78.1z"/>
		
			<radialGradient id="SVGID_7_" cx="183.5783" cy="74.5779" r="3.5529" gradientTransform="matrix(1 -6.067006e-03 6.067006e-03 1 -0.297 11.8554)" gradientUnits="userSpaceOnUse">
			<stop  offset="0" style="stop-color:#DA9F6B"/>
			<stop  offset="1" style="stop-color:#603917"/>
		</radialGradient>
		<path class="st9" d="M183.6,91.7c-0.7-0.3-1.2-1.3-1.5-2.8c-0.5-3.4,0.5-9.5,3.5-11.2c0.3-0.2,0.6-0.2,0.8-0.2
			c0.6,0,1.1,0.5,1.4,1.1c-0.3-0.4-0.6-0.7-1-0.7c-0.2,0-0.5,0.1-0.7,0.2c-3,1.8-4.1,8.6-3.2,12.1C183,90.7,183.3,91.3,183.6,91.7z"
			/>
		
			<radialGradient id="SVGID_8_" cx="190.3399" cy="62.8118" r="5.0202" gradientTransform="matrix(1 -6.067006e-03 6.067006e-03 1 -0.297 11.8554)" gradientUnits="userSpaceOnUse">
			<stop  offset="0" style="stop-color:#DA9F6B"/>
			<stop  offset="1" style="stop-color:#603917"/>
		</radialGradient>
		<path class="st10" d="M189.9,82.5c-0.2,0-0.3-0.1-0.4-0.6l0,0c0,0,0.1,0,0.1-0.1c1.4-3.7,0.1-6.3-0.9-8.2c-0.4-0.8-0.7-1.4-0.8-2
			c-0.2-3.1,2.9-5.4,5.3-7.2c0.6-0.5,1.2-0.9,1.7-1.3c0.5-0.4,1-0.7,1.3-0.7c0,0,0.1,0,0.1,0c-0.2,0.1-0.5,0.2-0.8,0.6
			c-0.5,0.4-1.1,0.9-1.7,1.3c-2.5,1.9-5.5,4.2-5.3,7.3c0,0.5,0.4,1.2,0.7,1.9c0.9,1.9,2.4,4.8,0.9,8.7
			C190.2,82.4,190,82.5,189.9,82.5z"/>
		
			<radialGradient id="SVGID_9_" cx="199.9151" cy="50.5257" r="6.4201" gradientTransform="matrix(1 -6.067006e-03 6.067006e-03 1 -0.297 11.8554)" gradientUnits="userSpaceOnUse">
			<stop  offset="0" style="stop-color:#C1976B"/>
			<stop  offset="1" style="stop-color:#603917"/>
		</radialGradient>
		<path class="st11" d="M196.1,69C196.1,69.1,196.1,69.1,196.1,69c0,0.1,0,0.1,0,0.2l0.1,0.2l0.2,0c0.1,0,0.2,0,0.3-0.2
			c2.6-3.2,2.5-6.8,2.5-8.8c0-0.3,0-0.6,0-0.8c0.1-3.5,1.8-5.4,4.5-6.6c-3,1.2-5.2,3.2-5.3,7C198.4,61.6,199.1,65.6,196.1,69z"/>
	</g>
	<g>
		<path class="st0" d="M108.3,118.8c-0.1,0.7-0.2,1.4-0.2,2.2c0,0.8,0.1,1.7,0.2,2.6c-1.1,0.4-2.4,0.8-3.8,1.1
			c-1.4,0.3-2.8,0.4-4.1,0.4c-2,0-3.8-0.4-5.3-1.1c-1.5-0.8-2.7-1.9-3.5-3.2c-0.8-1.4-1.2-3-1.2-4.7c0-1.8,0.4-3.5,1.3-4.9
			c0.9-1.4,2.1-2.5,3.6-3.3c1.6-0.8,3.5-1.2,5.9-1.2c1,0,1.9,0.1,2.7,0.2s1.9,0.4,3.2,0.7l1.1,0.3c-0.2,0.9-0.4,2.2-0.5,3.8l-0.8,0
			l0-0.8c0-0.8-0.1-1.3-0.2-1.5c-0.3-0.3-0.9-0.6-2-1c-1.1-0.4-2.3-0.6-3.7-0.6c-2.5,0-4.4,0.7-5.7,2c-1.4,1.5-2.1,3.4-2.1,5.8
			c0,2.3,0.7,4.2,2,5.8c1.5,1.9,3.6,2.8,6.2,2.8c1.4,0,2.9-0.3,4.4-0.9c0-0.7,0.1-1.5,0.1-2.3c0-1,0-1.6-0.1-1.8
			c0-0.2-0.1-0.3-0.2-0.3c-0.1,0-0.5-0.1-1.3-0.2l-1.5-0.1l0-0.8c1.9,0.1,3.4,0.1,4.3,0.1c0.8,0,1.5-0.1,2.1-0.1l0,0.6L108.3,118.8z
			"/>
		<path class="st0" d="M123.2,118.6l-7.3,0l-0.8,2c-0.6,1.4-0.8,2.2-0.8,2.5c0,0.2,0.1,0.3,0.2,0.4c0.1,0.1,0.4,0.2,0.8,0.2l1.2,0.1
			l0,0.8c-0.8-0.1-1.7-0.1-2.7-0.1c-1.2,0-2.3,0-3.2,0.1l0-0.8l0.4,0c0.6,0,1-0.1,1.1-0.2s0.4-0.4,0.5-0.8c0.6-1.2,1.2-2.5,1.8-4
			l3.4-7.9c0.9-2.1,1.5-3.6,1.9-4.6l0.9,0l6.5,14.9c0.4,1,0.7,1.6,0.9,1.8s0.3,0.4,0.5,0.4s0.6,0.1,1.3,0.2l0,0.8
			c-1.1-0.1-2.1-0.1-3.1-0.1c-0.9,0-2.2,0-3.7,0.1l0-0.8l1.3-0.1c0.4,0,0.7-0.1,0.8-0.1c0.1-0.1,0.2-0.2,0.2-0.4
			c0-0.2-0.1-0.5-0.4-1.2L123.2,118.6z M116.4,117.6l6.4,0l-3.2-7.6L116.4,117.6z"/>
		<path class="st0" d="M131,123.9l0.8,0c0.8,0,1.3-0.2,1.4-0.6c0.2-0.4,0.2-2.2,0.2-5.5l0-4.3c0-3.4-0.1-5.2-0.2-5.6
			c-0.1-0.3-0.5-0.5-1.2-0.5l-1,0l0-0.8c1.4,0.1,2.8,0.1,4.2,0.1c1.1,0,2.2,0,3.1-0.1l0,0.8l-1,0c-0.6,0-1,0.1-1.1,0.2
			c-0.2,0.1-0.2,0.5-0.3,1.1c0,0.9,0,2.5,0,4.8l0,4.4c0,3.3,0.1,5.1,0.2,5.4s0.6,0.5,1.4,0.5l0.8,0l0,0.8c-1-0.1-2.2-0.1-3.4-0.1
			c-1.4,0-2.7,0-3.9,0.1L131,123.9z"/>
		<path class="st0" d="M143,109.4l0.1,8.8c0,2,0.1,3.4,0.1,4.2c0.1,0.6,0.2,1,0.3,1.1c0.1,0.1,0.5,0.2,1.2,0.3l0.8,0.1l0,0.8
			c-0.9-0.1-1.8-0.1-2.5-0.1c-0.5,0-1.7,0-3.6,0.1l0-0.8l0.9,0c0.5,0,0.9-0.1,1.1-0.2c0.2-0.2,0.3-0.5,0.3-0.9
			c0.1-0.9,0.1-2.2,0.1-3.8l0-6.3c0-1.2,0-2.4-0.1-3.5c0-0.5-0.1-0.8-0.2-1c-0.1-0.2-0.3-0.3-0.5-0.5c-0.2-0.1-0.5-0.2-0.9-0.2
			l-0.8,0l0-0.8c1.1,0.1,1.9,0.1,2.5,0.1c0.6,0,1.3,0,2-0.1c0.8,1,1.6,2,2.4,3c0.7,1,1.5,1.9,2.3,2.9l4.4,5.3c1.6,1.9,2.7,3.2,3.4,4
			l0-8.1c0-3.4-0.1-5.3-0.2-5.6c-0.1-0.3-0.6-0.5-1.5-0.6l-1-0.1l0-0.8c1.4,0.1,2.4,0.1,3.2,0.1c0.8,0,1.8,0,3-0.1l0,0.8l-1,0
			c-0.8,0-1.2,0.3-1.4,0.8c-0.1,0.3-0.1,2.2-0.1,5.6l0,5.7c0,1.5,0.1,3.4,0.2,5.5c-1.2-0.2-1.8-0.3-2-0.4c-0.2-0.1-0.4-0.2-0.5-0.4
			c-0.9-1-1.9-2.2-3-3.4L143,109.4z"/>
		<path class="st0" d="M172.6,107.2c-0.2,0.9-0.4,2-0.4,3.5l-0.9,0l0-1c0-0.7-0.1-1.1-0.3-1.3c-0.2-0.2-0.6-0.5-1.4-0.7
			c-0.8-0.3-1.5-0.4-2.4-0.4c-1.4,0-2.4,0.4-3.2,1c-0.8,0.7-1.2,1.6-1.1,2.6c0,0.7,0.2,1.3,0.5,1.7c0.3,0.5,0.7,0.8,1.3,1
			c0.5,0.2,1.7,0.4,3.4,0.5c1.7,0.2,2.9,0.4,3.5,0.7c0.6,0.3,1.1,0.7,1.5,1.3c0.4,0.6,0.6,1.3,0.6,2.2c0,1.7-0.7,3.2-2.1,4.4
			c-1.4,1.2-3.3,1.9-5.7,1.9c-0.8,0-1.6-0.1-2.5-0.2c-0.8-0.2-1.7-0.4-2.5-0.7c0.1-1,0.2-2.3,0.2-3.9l0.9,0l0,0.6
			c0,0.8,0,1.3,0.1,1.5c0.1,0.2,0.3,0.4,0.6,0.6c0.5,0.3,1,0.6,1.7,0.7c0.6,0.2,1.3,0.3,2.1,0.2c1.6,0,2.8-0.4,3.7-1.2
			c0.9-0.8,1.3-1.7,1.3-2.9c0-0.7-0.2-1.2-0.5-1.7c-0.3-0.5-0.7-0.8-1.3-1c-0.5-0.2-1.5-0.4-3-0.5c-1.9-0.1-3.2-0.4-3.9-0.7
			c-0.7-0.3-1.2-0.8-1.6-1.4c-0.4-0.7-0.6-1.5-0.6-2.4c0-1.6,0.6-3,1.8-4.1c1.2-1.1,2.8-1.6,4.9-1.6c0.8,0,1.7,0.1,2.5,0.3
			C170.9,106.6,171.8,106.8,172.6,107.2z"/>
		<path class="st0" d="M183.9,114.1c1.8,0.1,3.1,0.5,3.9,1.2c0.8,0.7,1.2,1.7,1.2,3c0,1.6-0.7,3-2,4.2c-1.3,1.2-3.1,1.8-5.1,1.8
			l-1,0c-0.8,0-1.6-0.1-2.1,0c-0.4,0-0.9,0-1.6,0.1l-1.1,0l0-0.6c0.5-0.3,0.8-0.5,0.9-0.6c0.1-0.1,0.2-0.4,0.2-0.7
			c0.1-1,0.1-2.2,0.1-3.4l0-7.9c0-2.1-0.1-3.3-0.3-3.6c-0.2-0.3-0.6-0.5-1.4-0.5l-0.9,0l0-0.8l1.1,0l1.2,0c0.6,0,1.1,0,1.4,0
			c0.5,0,1.6,0,3.2-0.1l1.9-0.1c1.5,0,2.5,0.2,3.3,0.7c0.9,0.6,1.4,1.6,1.4,2.7c0,1-0.3,1.8-0.9,2.6S185.4,113.6,183.9,114.1z
			 M179.7,113.8c0.4,0,0.8,0,1.2,0c1.7,0,2.9-0.3,3.6-0.9c0.7-0.6,1.1-1.5,1.1-2.6c0-1-0.3-1.7-0.9-2.2c-0.6-0.5-1.6-0.8-2.9-0.8
			c-0.6,0-1.2,0.1-1.9,0.2c-0.1,1-0.1,2.6-0.1,4.7L179.7,113.8z M179.7,123.1c0.8,0.1,1.4,0.2,2,0.2c1.5,0,2.7-0.4,3.5-1.2
			c0.8-0.8,1.2-1.9,1.2-3.3c0-0.9-0.2-1.7-0.6-2.3c-0.4-0.6-0.9-1-1.5-1.3c-0.7-0.3-1.7-0.4-3.1-0.4c-0.4,0-0.9,0-1.5,0l0,4.5l0,1.6
			c0,0.6,0,1,0,1.3C179.8,122.5,179.8,122.8,179.7,123.1z"/>
		<path class="st0" d="M190.6,115.3c0-2.8,0.9-5,2.7-6.7c1.8-1.7,4.2-2.6,7.2-2.6c2.9,0,5.2,0.8,6.9,2.3c1.7,1.6,2.5,3.7,2.5,6.3
			c0,2.8-0.9,5.2-2.9,7.1c-1.9,1.9-4.3,2.9-7.3,2.9c-1.8,0-3.4-0.4-4.8-1.1c-1.3-0.7-2.4-1.8-3.2-3.2
			C191,118.7,190.6,117.1,190.6,115.3z M193.2,114.2c0,1.9,0.4,3.6,1,5c0.7,1.4,1.5,2.5,2.7,3.2c1.1,0.7,2.4,1,3.8,1
			c1.3,0,2.5-0.3,3.4-0.9s1.7-1.5,2.3-2.7c0.6-1.2,0.8-2.6,0.8-4.4c0-1.8-0.3-3.3-1-4.6c-0.6-1.3-1.5-2.2-2.6-2.9
			c-1.1-0.6-2.4-1-3.9-0.9c-1.4,0-2.5,0.3-3.5,0.9c-1,0.6-1.7,1.4-2.3,2.5C193.4,111.5,193.1,112.8,193.2,114.2z"/>
		<path class="st0" d="M220.4,115c0.8,1.2,1.9,2.6,3.1,4.1l2.5,3.1c0.4,0.5,0.7,0.8,0.9,0.9c0.1,0.1,0.3,0.1,0.4,0.1l0.3,0l0,0.8
			c-0.7-0.1-1.3-0.1-1.8-0.1c-0.5,0-1,0-1.5,0.1l-4.5-6c-0.8-1.1-1.7-2.2-2.7-3.3l0.1-0.4c0.5,0,0.9,0.1,1.1,0.1
			c1.4,0,2.5-0.4,3.3-1.1c0.8-0.7,1.2-1.7,1.2-2.9c0-1.1-0.3-1.9-1-2.6c-0.7-0.6-1.7-0.9-2.9-0.9c-0.9,0-1.8,0.2-2.7,0.5
			c-0.1,1.3-0.1,2.8-0.1,4.3l0,6.1c0,3,0.1,4.6,0.2,5c0.1,0.3,0.6,0.5,1.4,0.5l1,0l0,0.8c-1.4-0.1-2.6-0.1-3.5-0.1
			c-0.7,0-2,0-3.9,0.1l0-0.8l1,0c0.7,0,1.2-0.2,1.3-0.5c0.1-0.3,0.2-2,0.2-5l0-6.1c0-2.6-0.1-4.1-0.3-4.4c-0.2-0.3-0.7-0.5-1.5-0.5
			l-0.7,0l0-0.8c1.6,0.1,2.8,0.1,3.6,0.1c0.6,0,1.4,0,2.4-0.1c1.2,0,2.1-0.1,2.6-0.1c1.5,0,2.6,0.1,3.3,0.4c0.8,0.3,1.3,0.7,1.7,1.3
			c0.4,0.6,0.6,1.3,0.6,2.1c0,1.2-0.4,2.2-1.3,3.2C223.3,114,222.1,114.6,220.4,115z"/>
		<path class="st0" d="M228.4,115c0-2.8,0.9-5,2.7-6.7c1.8-1.7,4.2-2.6,7.2-2.6c2.9,0,5.2,0.8,6.9,2.3c1.7,1.6,2.5,3.7,2.5,6.3
			c0,2.8-0.9,5.2-2.9,7.1c-1.9,1.9-4.3,2.9-7.3,2.9c-1.8,0-3.4-0.4-4.8-1.1c-1.3-0.7-2.4-1.8-3.2-3.2S228.4,116.9,228.4,115z
			 M230.9,114c0,1.9,0.3,3.6,1,5c0.7,1.4,1.5,2.5,2.7,3.2c1.1,0.7,2.4,1,3.8,1c1.3,0,2.5-0.3,3.4-0.9s1.7-1.5,2.3-2.7
			c0.6-1.2,0.8-2.6,0.8-4.4c0-1.8-0.3-3.3-1-4.6c-0.6-1.3-1.5-2.2-2.6-2.9c-1.1-0.6-2.4-1-3.9-0.9c-1.4,0-2.5,0.3-3.5,0.9
			c-1,0.6-1.7,1.4-2.3,2.5C231.2,111.3,230.9,112.5,230.9,114z"/>
		<path class="st0" d="M248.7,106.7l0-0.8c1.7,0,3,0.1,3.8,0.1c0.8,0,2,0,3.7-0.1l0,0.8l-0.9,0c-0.8,0-1.3,0.2-1.4,0.5
			c-0.2,0.3-0.2,1.7-0.2,4.1l0,5c0,1.8,0.1,3.1,0.3,3.8c0.2,0.7,0.7,1.3,1.6,1.8c0.8,0.5,1.9,0.7,3.3,0.7c1.4,0,2.6-0.3,3.6-0.8
			c0.7-0.4,1.2-0.9,1.5-1.7s0.5-2.2,0.4-4.4l0-4.8c0-2.2-0.1-3.5-0.3-3.8s-0.8-0.5-1.6-0.5l-0.7,0l0-0.8c1.8,0,2.9,0.1,3.3,0.1
			c0.8,0,1.7,0,2.9-0.1l0,0.8l-0.9,0c-0.7,0-1.1,0.2-1.3,0.5c-0.2,0.4-0.3,1.6-0.3,3.8l0,4.8c0,2.2-0.1,3.6-0.3,4.4
			c-0.2,0.8-0.6,1.4-1.2,2.1c-0.6,0.6-1.3,1.1-2.3,1.5c-1,0.4-2.1,0.5-3.4,0.6c-1.3,0-2.5-0.1-3.5-0.5c-1-0.3-1.8-0.7-2.3-1.2
			c-0.5-0.5-0.9-1-1.1-1.7c-0.2-0.7-0.3-1.8-0.4-3.4l0-2.4l0-3.9c0-2.4-0.1-3.7-0.2-4c-0.1-0.3-0.6-0.4-1.3-0.4L248.7,106.7z"/>
		<path class="st0" d="M286.6,117.7c-0.1,0.7-0.2,1.4-0.2,2.2c0,0.8,0.1,1.7,0.2,2.6c-1.1,0.4-2.4,0.8-3.8,1.1
			c-1.4,0.3-2.8,0.4-4.1,0.4c-2,0-3.8-0.4-5.3-1.1c-1.5-0.8-2.7-1.9-3.5-3.2s-1.2-3-1.2-4.7c0-1.8,0.4-3.5,1.3-4.9
			c0.9-1.4,2.1-2.5,3.6-3.3s3.5-1.2,5.9-1.2c1,0,1.9,0.1,2.7,0.2c0.8,0.1,1.9,0.4,3.2,0.7l1.1,0.3c-0.2,0.9-0.4,2.2-0.5,3.8l-0.8,0
			l0-0.8c0-0.8-0.1-1.3-0.2-1.5c-0.3-0.3-0.9-0.6-2-1c-1.1-0.4-2.3-0.6-3.7-0.6c-2.5,0-4.4,0.7-5.7,2c-1.4,1.5-2.1,3.4-2.1,5.8
			c0,2.3,0.7,4.2,2,5.8c1.5,1.9,3.6,2.8,6.2,2.8c1.4,0,2.9-0.3,4.5-0.9c0-0.7,0.1-1.5,0.1-2.3c0-1,0-1.6-0.1-1.8
			c0-0.2-0.1-0.3-0.2-0.3c-0.1,0-0.5-0.1-1.3-0.2l-1.5-0.1l0-0.8c1.9,0.1,3.4,0.1,4.3,0.1c0.8,0,1.5-0.1,2.1-0.1l0,0.6L286.6,117.7z
			"/>
		<path class="st0" d="M293.8,114.7l0,3.5c0,0.6,0,1.3,0.1,2.1c0.1,1.2,0.1,1.8,0.1,1.9c0,0.1,0.2,0.2,0.4,0.4
			c0.2,0.1,0.6,0.2,1,0.2l0.9,0l0,0.8c-1.1-0.1-2.2-0.1-3.2-0.1c-1,0-2.4,0-4.3,0.1l0-0.8l0.8,0c0.9,0,1.4-0.2,1.6-0.5
			c0.2-0.3,0.2-1.7,0.2-4.1l0-7.7c0-2.2-0.1-3.5-0.3-3.8c-0.2-0.3-0.6-0.4-1.4-0.4l-0.9,0l0-0.8c1.4,0.1,2.7,0.1,3.9,0.1
			c1.2,0,2.4,0,3.5-0.1l0,0.8l-0.5,0c-0.8,0-1.3,0.1-1.5,0.2c-0.2,0.1-0.3,0.3-0.3,0.6c-0.1,0.5-0.1,1.6-0.1,3.4l0,2.9
			c1.5,0,3.4,0.1,5.7,0.1c2,0,3.6-0.1,4.8-0.1l0-2.5c0-1.4-0.1-2.7-0.2-3.6c0-0.3-0.2-0.6-0.3-0.7c-0.2-0.2-0.6-0.2-1.2-0.2l-0.9,0
			l0-0.8c1.3,0.1,2.5,0.1,3.7,0.1c1.3,0,2.6,0,3.9-0.1l0,0.8l-1,0c-0.7,0-1.1,0.1-1.2,0.2c-0.2,0.1-0.3,0.4-0.3,0.8
			c0,0.4,0,1.6,0,3.6l0,7c0,2.6,0.1,4,0.2,4.3c0.1,0.3,0.6,0.4,1.4,0.4l1,0l0,0.8c-1.2-0.1-2.4-0.1-3.6-0.1c-1.4,0-2.7,0-4,0.1
			l0-0.8l0.9,0c0.6,0,1.1-0.1,1.2-0.2c0.2-0.1,0.3-0.4,0.3-0.8c0.1-0.9,0.1-2.1,0.1-3.8l0-3.3c-1.2-0.1-2.7-0.1-4.6-0.1
			C297.2,114.6,295.2,114.6,293.8,114.7z"/>
	</g>
</g>
</svg>
