<?xml version="1.0" encoding="utf-8"?>
<!-- Generator: Adobe Illustrator 23.0.1, SVG Export Plug-In . SVG Version: 6.00 Build 0)  -->
<svg version="1.1" id="Layer_1" xmlns="http://www.w3.org/2000/svg" xmlns:xlink="http://www.w3.org/1999/xlink" x="0px" y="0px"
	 viewBox="0 0 400 200" style="enable-background:new 0 0 400 200;" xml:space="preserve">
<style type="text/css">
	.st0{fill:#30323E;}
</style>
<g>
	<path class="st0" d="M175.3,123.6c0.5,0,1.3,0,2.4,0c1.1,0,1.9,0,2.4,0c0.2,0,0.3,0.1,0.4,0.2c0.1,0.1,0,0.1-0.1,0.1c0,0,0,0,0,0
		c-0.6,0-1.4,0-2.4,0c-1.1,0-1.9,0-2.4,0c-0.2,0-0.3,0-0.4-0.1C175.1,123.7,175.2,123.6,175.3,123.6 M178.1,124.2c0,1.6,0,3.7,0,6.2
		c0,0.1-0.1,0.1-0.2,0.2c-0.1,0.1-0.3,0.1-0.4,0.1c-0.1,0-0.2,0-0.2-0.1c0-2.8,0-4.9,0-6.1c0-0.1,0.1-0.2,0.3-0.3
		C177.9,124,178.1,124,178.1,124.2C178.1,124.1,178.1,124.1,178.1,124.2"/>
	<path class="st0" d="M182.2,123.9c0,0.8,0,1.8,0,2.9c1,0,2.4,0,4.3,0c0-1.3,0-2.1,0-2.6c0-0.2,0.1-0.3,0.4-0.4
		c0.2-0.1,0.4-0.1,0.5,0c0,0,0,0.1,0,0.1c0,1.4,0,3.5,0,6.1c0,0.2-0.1,0.3-0.4,0.4c-0.2,0.1-0.4,0.1-0.5,0c0,0,0-0.1,0-0.1
		c0-1.3,0-2.4,0-3.3c-2.1,0-3.5,0-4.2,0c0,0-0.1,0-0.1,0c0,0.9,0,1.9,0,3c0,0.2-0.1,0.3-0.4,0.4c-0.2,0.1-0.4,0.1-0.5,0
		c0,0,0-0.1,0-0.1c0-3.3,0-5.3,0-6.2c0-0.2,0.1-0.3,0.4-0.4c0.2-0.1,0.4-0.1,0.5,0C182.2,123.8,182.2,123.9,182.2,123.9"/>
	<path class="st0" d="M189.2,126.9c0.9,0,2.2,0,3.9,0c0.1,0,0.1,0,0.2,0.1c0.1,0.1,0,0.1-0.1,0.1c-2,0-3.2,0-3.9,0
		c-0.1,0-0.1,0-0.2-0.1c0,0.9,0,1.9,0,3c0,0.1-0.1,0.2-0.2,0.3h0h2.1h2.1c0.2,0,0.3,0.1,0.4,0.2c0.1,0.1,0,0.1-0.1,0.1h0
		c-0.5,0-1.2,0-2.1,0c-0.9,0-1.6,0-2.1,0c-0.2,0-0.3-0.1-0.4-0.2c0,0,0,0,0,0c0,0,0,0,0,0c-0.2,0.1-0.4,0.1-0.5,0c0,0,0-0.1,0-0.1
		c0-3.4,0-5.4,0-6.3c0-0.2,0.1-0.3,0.4-0.4c0.1,0,0.2-0.1,0.2-0.1l0,0c-0.1-0.1,0-0.1,0.1-0.1h0c0.5,0,1.2,0,2.1,0
		c0.9,0,1.6,0,2.1,0c0.2,0,0.3,0.1,0.4,0.2c0.1,0.1,0,0.1-0.1,0.1h0h-2.1h-2.1c0,0-0.1,0-0.1,0v0.1
		C189.1,124.7,189.1,125.7,189.2,126.9L189.2,126.9z"/>
	<path class="st0" d="M177.5,161.2c-0.7-1-1.3-1.6-2.1-1.8c-0.5-0.1-0.9-0.2-1.4-0.2c-0.5,0-1,0.1-1.4,0.3c-0.8,0.4-1.4,1-2,1.9
		c-0.5,0.8-0.7,1.6-0.7,2.5c0,1,0.2,2,0.5,2.9c0.3,0.9,0.8,1.6,1.4,2.1c0.4,0.3,0.8,0.6,1.3,0.7c0.5,0.1,1,0.2,1.5,0.1
		c0.5-0.1,0.9-0.2,1.3-0.5c0.4-0.3,0.8-0.6,1-1c0.4-0.5,0.8-0.9,1.3-1.2c0.4-0.2,0.6-0.1,0.6,0.1c0,0.1,0,0.3-0.1,0.5
		c-0.3,0.5-0.6,1-1,1.4c-0.4,0.4-0.9,0.7-1.3,0.9c-1,0.4-2.1,0.5-3.2,0.2c-1.1-0.2-2-0.7-2.8-1.5c-0.9-0.9-1.4-1.8-1.6-2.8
		c-0.1-1.2,0-2.4,0.3-3.5c0.4-1.1,0.9-1.9,1.7-2.6c0.8-0.6,1.9-1,3.3-0.9c1.3,0,2.3,0.4,3.2,1c0.5,0.4,0.7,0.8,0.7,1.3
		c0,0.3-0.1,0.4-0.2,0.4C177.7,161.5,177.6,161.4,177.5,161.2"/>
	<path class="st0" d="M187,159.7c-1.6-0.6-2.8-0.6-3.6-0.2c-0.5,0.3-1,0.6-1.4,1.1c-0.4,0.5-0.7,1-0.9,1.7c-0.4,1.2-0.5,2.3-0.3,3.6
		c0.3,1.3,0.9,2.3,1.8,3.1c0.4,0.3,1,0.5,1.6,0.6c0.7,0.1,1.3,0,2-0.2c0.5-0.1,1-0.4,1.4-0.8c0.4-0.4,0.8-0.8,1.1-1.3
		c0.4-0.7,0.6-1.7,0.6-2.9c0-1.3-0.2-2.3-0.7-3.2c-0.3-0.5-0.4-0.9-0.3-1.2c0-0.2,0.2-0.2,0.3,0c1.1,1.1,1.8,2.5,2,4.2
		c0.1,0.6,0,1.2-0.1,1.8c-0.1,0.6-0.3,1.1-0.6,1.6c-0.3,0.6-0.8,1-1.3,1.4c-0.5,0.4-1.1,0.6-1.6,0.8c-1.3,0.4-2.5,0.4-3.7,0
		c-0.5-0.2-1.1-0.5-1.7-0.9s-1.1-1-1.4-1.6c-0.3-0.6-0.6-1.2-0.7-1.9c-0.1-0.7-0.1-1.4,0-2c0.1-0.7,0.4-1.4,0.7-2
		c0.4-0.6,0.8-1.2,1.3-1.6c0.5-0.4,1.2-0.7,1.9-0.8c0.7-0.2,1.4-0.2,2.1,0c0.9,0.2,1.5,0.5,1.9,0.9c0.2,0.2,0.2,0.2,0.1,0.3
		C187.5,159.9,187.3,159.9,187,159.7"/>
	<path class="st0" d="M201,159.5v9.1c0,0.3-0.2,0.5-0.5,0.7c-0.3,0.2-0.6,0.2-0.7,0v0c-0.1,0.2-0.2,0.3-0.4,0.2c0,0,0-0.1-0.1-0.1
		c-2.1-3.1-4.1-6-6-8.7v8.1c0,0.3-0.2,0.5-0.5,0.7c-0.3,0.2-0.6,0.2-0.7,0c0-0.1,0-0.1,0-0.2v-9.2c0-0.2,0.2-0.5,0.5-0.6
		c0.4-0.2,0.6-0.2,0.7,0c0,0,0,0,0,0.1c0.1-0.1,0.2,0,0.3,0c0,0,0,0,0.1,0.1c2,2.8,4,5.8,6.1,8.8c0-1.5,0-4.4,0-8.5
		c0-0.3,0.2-0.5,0.5-0.6c0.4-0.2,0.6-0.2,0.7,0C201,159.4,201,159.4,201,159.5"/>
	<path class="st0" d="M210.5,161.2c-0.7-1-1.3-1.6-2.1-1.8c-0.5-0.1-0.9-0.2-1.4-0.2c-0.5,0-1,0.1-1.4,0.3c-0.8,0.4-1.4,1-2,1.9
		c-0.5,0.8-0.7,1.6-0.7,2.5c0,1,0.2,2,0.5,2.9c0.3,0.9,0.8,1.6,1.4,2.1c0.4,0.3,0.8,0.6,1.3,0.7c0.5,0.1,1,0.2,1.5,0.1
		c0.5-0.1,0.9-0.2,1.3-0.5c0.4-0.3,0.8-0.6,1-1c0.4-0.5,0.8-0.9,1.3-1.2c0.4-0.2,0.6-0.1,0.6,0.1c0,0.1,0,0.3-0.1,0.5
		c-0.3,0.5-0.6,1-1,1.4c-0.4,0.4-0.9,0.7-1.3,0.9c-1,0.4-2.1,0.5-3.2,0.2c-1.1-0.2-2-0.7-2.8-1.5c-0.9-0.9-1.4-1.8-1.6-2.8
		c-0.1-1.2,0-2.4,0.3-3.5c0.4-1.1,0.9-1.9,1.7-2.6c0.8-0.6,1.9-1,3.3-0.9c1.3,0,2.3,0.4,3.2,1c0.5,0.4,0.7,0.8,0.7,1.3
		c0,0.3-0.1,0.4-0.2,0.4C210.7,161.5,210.6,161.4,210.5,161.2"/>
	<path class="st0" d="M214.4,164.1c1.3,0,3.2,0,5.8,0c0.1,0,0.2,0.1,0.3,0.2c0.1,0.1,0,0.2-0.1,0.2c-2.9,0-4.8,0-5.7,0
		c-0.1,0-0.2,0-0.2-0.1c0,1.3,0,2.9,0,4.5c0,0.2-0.1,0.3-0.3,0.5h0h3.1h3.1c0.2,0,0.4,0.1,0.5,0.2c0.1,0.1,0,0.2-0.2,0.2h0
		c-0.7,0-1.7,0-3.1,0c-1.4,0-2.4,0-3.1,0c-0.2,0-0.4-0.1-0.5-0.2c0,0,0,0,0,0c0,0,0,0-0.1,0c-0.4,0.2-0.6,0.2-0.7,0c0,0,0-0.1,0-0.2
		c0-5,0-8.1,0-9.4c0-0.2,0.2-0.4,0.5-0.6c0.1-0.1,0.3-0.1,0.4-0.1l0,0c-0.1-0.1,0-0.2,0.2-0.2h0c0.7,0,1.7,0,3.1,0
		c1.4,0,2.4,0,3.1,0c0.2,0,0.4,0.1,0.5,0.2c0.1,0.1,0,0.2-0.1,0.2h0h-3.1h-3.1c-0.1,0-0.1,0-0.1,0v0.1
		C214.3,160.8,214.3,162.3,214.4,164.1L214.4,164.1z"/>
	<path class="st0" d="M223.8,164.6c0.2,0,0.5,0,0.9,0c0.4,0,0.7,0,1,0c0.2,0,0.5,0,0.8,0c0.3,0,0.6,0,0.8-0.1
		c0.6-0.1,1.2-0.3,1.6-0.7c0.4-0.4,0.7-0.8,0.8-1.4c0.1-0.6,0.1-1.2-0.1-1.7c-0.1-0.3-0.3-0.5-0.5-0.7c-0.2-0.2-0.5-0.4-0.9-0.4
		c-0.5-0.1-1.2-0.2-1.9-0.2c-0.7,0-1.4,0-2,0.1c-0.5,0-0.9,0-1.2-0.2c-0.1-0.1-0.1-0.2,0.2-0.2c0,0,0.1,0,0.1,0c0.2,0,0.5,0,0.8-0.1
		c0.4,0,0.7,0,0.9-0.1c0.2,0,0.5,0,0.8,0c0.3,0,0.6,0,0.9,0c2.1,0.2,3.4,0.8,3.8,1.9c0.2,0.6,0.2,1.1,0.1,1.7
		c-0.1,0.5-0.4,1-0.8,1.4c-0.4,0.4-0.8,0.7-1.3,0.8c-0.5,0.1-1.1,0.2-1.9,0.2c-0.8,0-1.5,0-2.2,0c-0.7,0-1.2-0.1-1.4-0.3v3.8
		c0,0.3-0.2,0.6-0.5,0.8c-0.3,0.2-0.6,0.2-0.7,0c0-0.1,0-0.1,0-0.2c0-2.4,0-5.4,0-9.1c0-0.2,0.2-0.5,0.5-0.6c0.4-0.2,0.6-0.2,0.7,0
		c0,0,0,0.1,0,0.2v5c0,0,0.1,0,0.1,0H223.8z"/>
	<path class="st0" d="M232,159.2c0.8,0,2,0,3.5,0c1.6,0,2.8,0,3.6,0c0.3,0,0.5,0.1,0.6,0.2c0.1,0.1,0,0.2-0.2,0.2c0,0,0,0,0,0
		c-0.8,0-2,0-3.6,0c-1.6,0-2.8,0-3.5,0c-0.3,0-0.4-0.1-0.6-0.2C231.7,159.2,231.8,159.2,232,159.2 M236.2,160c0,2.4,0,5.5,0,9.2
		c0,0.1-0.1,0.2-0.3,0.3c-0.2,0.1-0.4,0.2-0.6,0.2c-0.2,0-0.3-0.1-0.3-0.2c0-4.2,0-7.3,0-9.1c0-0.2,0.2-0.3,0.5-0.5
		C235.8,159.7,236.1,159.7,236.2,160C236.2,159.9,236.2,160,236.2,160"/>
	<path class="st0" d="M163.5,140v10.9c-0.6,0.4-1.3,0.7-2.1,1c-0.7,0.2-1.4,0.5-2.3,0.7c-0.9,0.2-1.9,0.3-3.1,0.3
		c-2,0-3.7-0.3-5.2-0.9c-1.5-0.6-2.7-1.4-3.7-2.4c-1-1-1.7-2.3-2.2-3.8c-0.5-1.5-0.7-3.2-0.7-5c0-1.9,0.2-3.6,0.7-5.1
		c0.5-1.5,1.2-2.8,2.2-3.8c1-1,2.2-1.8,3.7-2.4c1.5-0.6,3.2-0.8,5.1-0.8c0.9,0,1.8,0.1,2.5,0.2c0.7,0.1,1.3,0.3,1.9,0.4
		c0.6,0.2,1.1,0.4,1.5,0.6l-0.3,1.6c-0.4-0.2-0.8-0.3-1.4-0.4c-0.5-0.1-1-0.2-1.7-0.3c-0.7-0.1-1.5-0.1-2.4-0.1
		c-1.3,0-2.4,0.2-3.5,0.7c-1,0.5-1.9,1.1-2.7,2c-0.7,0.9-1.3,1.9-1.7,3.2c-0.4,1.2-0.6,2.6-0.6,4.2c0,1.6,0.2,3,0.6,4.2
		c0.4,1.2,1,2.3,1.7,3.2c0.7,0.9,1.6,1.5,2.7,2c1,0.5,2.2,0.7,3.5,0.7c0.9,0,1.7-0.1,2.5-0.2c0.8-0.1,1.4-0.2,2-0.4l0.3-8.7H156
		v-1.2L163.5,140z"/>
	<path class="st0" d="M178.8,152.5c-0.5-0.5-0.8-1.2-0.9-2.2c-0.9,1.7-2.5,2.5-4.7,2.5c-1.4,0-2.6-0.2-3.5-0.5
		c-0.9-0.3-1.6-0.8-2.2-1.3c-0.5-0.6-0.9-1.2-1.1-1.9c-0.2-0.7-0.3-1.4-0.3-2.2c0-1.7,0.6-3,1.8-3.8c1.2-0.8,3-1.2,5.5-1.2
		c0.4,0,0.8,0,1.3,0c0.5,0,0.9,0,1.3,0.1c0.4,0,0.8,0,1.2,0.1c0.3,0,0.6,0,0.8,0V142c0-0.7-0.1-1.4-0.3-2c-0.2-0.7-0.5-1.2-0.9-1.7
		c-0.4-0.5-0.9-0.9-1.4-1.2c-0.6-0.3-1.2-0.5-2-0.5c-0.7,0-1.3,0-1.8,0.1c-0.5,0.1-0.9,0.1-1.3,0.2c-0.4,0.1-0.7,0.2-1,0.2L169,136
		c0.3-0.2,0.7-0.3,1.1-0.4c0.4-0.1,0.8-0.2,1.4-0.3c0.5-0.1,1.1-0.2,1.8-0.2c1.4,0,2.5,0.2,3.5,0.5c1,0.3,1.8,0.8,2.4,1.4
		c0.6,0.6,1,1.3,1.3,2.2c0.3,0.8,0.4,1.8,0.4,2.8c0,1.2,0,2.4-0.1,3.5c-0.1,1.1-0.1,2.2-0.1,3.1c0,0.9,0,1.7,0.1,2.4
		c0.1,0.7,0.3,1.2,0.6,1.5H178.8z M173.2,151.4c0.6,0,1.2-0.1,1.8-0.3c0.6-0.2,1.1-0.4,1.5-0.8c0.4-0.3,0.8-0.7,1-1.2
		c0.2-0.5,0.4-1,0.4-1.5c0-0.6,0-1.3,0.1-2c0-0.7,0-1.4,0.1-2.2h-4.6c-0.5,0-1.1,0.1-1.6,0.2c-0.5,0.1-0.9,0.3-1.3,0.6
		c-0.4,0.3-0.7,0.6-0.9,1.1c-0.2,0.4-0.3,1-0.3,1.7c0,0.6,0.1,1.2,0.2,1.7c0.1,0.5,0.3,1,0.6,1.4c0.3,0.4,0.7,0.7,1.2,1
		C171.8,151.3,172.4,151.4,173.2,151.4"/>
	<path class="st0" d="M193.3,135.1c0.2,0,0.5,0,0.7,0.1c0.2,0.1,0.5,0.1,0.6,0.2c0.2,0.1,0.4,0.2,0.6,0.3v1.8
		c-0.2,0-0.4-0.1-0.6-0.2c-0.2,0-0.4-0.1-0.6-0.1c-0.2,0-0.5-0.1-0.7-0.1c-0.9,0-1.7,0.1-2.3,0.4c-0.6,0.3-1.1,0.6-1.5,1.1
		c-0.4,0.4-0.7,0.9-0.8,1.5c-0.2,0.5-0.2,1.1-0.2,1.6v5.8c0,1.5,0,3.1,0,4.9h-2.9v-6.5c0-1.2,0-2.4-0.1-3.6c0-1.2-0.1-2.2-0.2-3.2
		c-0.1-1-0.2-1.8-0.4-2.4c-0.2-0.7-0.4-1.1-0.6-1.4h2.6c0.6,0.6,1,1.6,1.2,3.2c0.4-1.3,1.1-2.2,2-2.8
		C191.2,135.3,192.2,135.1,193.3,135.1"/>
	<path class="st0" d="M196.5,144.1c0-1.8,0.2-3.3,0.6-4.5c0.4-1.2,0.9-2.1,1.6-2.8c0.7-0.7,1.5-1.1,2.5-1.4c1-0.3,2.1-0.4,3.4-0.4
		c1.3,0,2.4,0.2,3.1,0.6c0.7,0.4,1.3,1,1.7,1.7v-10.1h3V142c0,1.2,0,2.4,0.1,3.6c0,1.2,0.1,2.2,0.2,3.2c0.1,1,0.2,1.8,0.4,2.4
		c0.2,0.7,0.4,1.1,0.6,1.4H211c-0.6-0.6-1-1.6-1.2-3.2c-0.4,1.3-1.1,2.2-2,2.8c-0.9,0.5-1.9,0.8-3.1,0.8c-1.5,0-2.8-0.2-3.8-0.5
		c-1-0.3-1.9-0.9-2.5-1.6c-0.6-0.7-1.1-1.6-1.3-2.7C196.7,146.9,196.5,145.6,196.5,144.1 M199.7,144.1c0,1.2,0.1,2.3,0.2,3.2
		c0.1,0.9,0.4,1.7,0.7,2.3c0.4,0.6,0.9,1.1,1.5,1.4c0.6,0.3,1.5,0.5,2.5,0.5c0.9,0,1.7-0.1,2.3-0.4c0.6-0.3,1.1-0.7,1.5-1.2
		c0.4-0.5,0.6-1,0.8-1.7c0.2-0.6,0.3-1.3,0.3-1.9c0-0.3,0-0.8,0-1.4v-1.9c0-0.7,0-1.5,0-2.3c-0.1-1.5-0.6-2.5-1.4-3.1
		c-0.8-0.6-1.9-0.9-3.4-0.9c-0.8,0-1.5,0.1-2.1,0.4c-0.6,0.3-1.1,0.7-1.6,1.3c-0.4,0.6-0.7,1.4-0.9,2.3
		C199.8,141.5,199.7,142.7,199.7,144.1"/>
	<path class="st0" d="M219.7,143.5v0.5c0,2.3,0.4,4.1,1.3,5.4c0.9,1.3,2.2,2,4,2c0.8,0,1.6-0.1,2.3-0.2c0.7-0.1,1.4-0.3,2-0.5
		c0.7-0.2,1.3-0.4,1.9-0.7l0.3,1.4c-0.4,0.3-0.9,0.5-1.6,0.7c-0.5,0.2-1.2,0.3-2,0.5c-0.8,0.1-1.8,0.2-2.9,0.2c-1.6,0-3-0.2-4.1-0.7
		c-1.1-0.5-1.9-1.1-2.5-1.9c-0.6-0.8-1.1-1.7-1.3-2.8c-0.3-1.1-0.4-2.2-0.4-3.4s0.1-2.4,0.4-3.4c0.3-1.1,0.7-2,1.3-2.8
		c0.6-0.8,1.5-1.4,2.6-1.9c1.1-0.5,2.4-0.7,4-0.7c1.5,0,2.7,0.2,3.7,0.7c1,0.4,1.8,1,2.4,1.7c0.6,0.7,1,1.4,1.3,2.2
		c0.3,0.8,0.4,1.6,0.4,2.2v1.5H219.7z M225,136.6c-1.6,0-2.8,0.5-3.6,1.5c-0.9,1-1.4,2.4-1.6,4.1c0.4,0,1.1,0,2-0.1c1,0,2-0.1,3-0.1
		c1.1,0,2.1,0,3.1-0.1c1,0,1.7,0,2.2,0c0-0.7-0.1-1.4-0.3-2c-0.2-0.7-0.5-1.2-1-1.7c-0.4-0.5-1-0.9-1.6-1.2
		C226.6,136.7,225.9,136.6,225,136.6"/>
	<path class="st0" d="M243.1,135.1c1.3,0,2.4,0.1,3.3,0.4c1,0.3,1.8,0.7,2.4,1.4c0.7,0.7,1.1,1.6,1.5,2.8c0.3,1.2,0.5,2.7,0.5,4.5
		v8.4h-3.2v-8.4c0-1.4-0.1-2.6-0.3-3.5c-0.2-1-0.5-1.7-0.8-2.3c-0.4-0.6-0.8-1-1.4-1.3c-0.6-0.3-1.3-0.4-2.1-0.4
		c-1.1,0-2,0.3-2.7,0.9c-0.8,0.6-1.2,1.7-1.4,3.1v11.9h-3v-17.1h3v2.1c0.4-0.7,0.9-1.3,1.5-1.7C241.2,135.3,242,135.1,243.1,135.1"
		/>
	<path class="st0" d="M267.1,68.1c-1.4,1.6-3,3-4.6,4.4c-6,4.9-12.7,8.5-20.2,10.4c-3.7,1-7.5,1.4-11.3,1.3
		c-5.9-0.2-11.4-1.8-16.3-5.2c-0.3-0.2-0.6-0.2-0.9-0.1c-2.2,0.8-4.5,1.5-6.6,2.5c-1.4,0.7-2.7,1.4-3.8,2.6
		c-1.1,1.1-1.6,2.4-1.6,3.9c0,3.9,0,7.7,0,11.6v0.5c0.1,0,0.2-0.1,0.2-0.1c2.1-1.5,4.4-2.4,6.8-3.1c3.3-0.9,6.7-1.4,10.2-1.5
		c3.6-0.1,7.2,0.2,10.7,1.1c1.6,0.4,3.2,0.8,4.6,1.5c1.6,0.7,3.3,1.1,5,1.3c1.8,0.3,3.7,0.3,5.5,0c3.4-0.6,6-2.4,8.1-5
		c0.2-0.2,0.3-0.4,0.5-0.7c0.1-0.2,0.3-0.4,0.5-0.6c0,0.2,0,0.4,0,0.6c-0.2,0.9-0.5,1.8-1.1,2.6c-0.9,1.4-2.1,2.6-3.4,3.7
		c-0.4,0.4-0.9,0.7-1.3,1c-0.1,0.1-0.2,0.1-0.3,0.3c0.7,0.1,1.3,0.1,1.9,0.1c5.7,0.2,11.4-0.4,16.9-2.1c2.8-0.8,5.5-1.9,8-3.5
		c0.3-0.2,0.5-0.3,0.8-0.5c0,0,0.1,0.1,0.1,0.1c-5.1,4.9-11.2,7.7-18.1,8.9c-3.1,0.5-6.3,0.7-9.5,0.5c-4.9-0.3-9.7-1.5-14.2-3.5
		c-2.7-1.2-5.6-1.9-8.6-2.3c-0.2,0-0.3,0-0.5,0c0,0-0.1,0-0.1,0.1c0,0.1,0,0.2,0.1,0.2c1.3,2.9,3,5.6,5.4,7.7c2,1.8,4.3,3.1,7,3.8
		c0.1,0,0.2,0.1,0.3,0.2c-0.1,0-0.3,0-0.4,0.1c-2.4,0.1-4.6-0.5-6.7-1.6c-4.3-2.3-7.3-5.7-9-10.2c-0.2-0.5-0.2-0.5-0.6-0.5
		c-3.8,0-7.5,0.4-11.2,1.4c-1.8,0.5-3.6,1.2-5.1,2.2c-0.6,0.4-1.1,0.8-1.5,1.3c-0.7,0.7-1,1.4-1,2.4c0,8.4,0,16.8,0,25.2v0.7h-3.3
		v-0.7c0-8.4,0-16.7,0-25.1c0-1.1-0.4-1.9-1.1-2.6c-0.8-0.8-1.7-1.4-2.7-1.9c-2-1-4-1.6-6.2-2.1c-2.9-0.6-5.8-0.9-8.8-0.8
		c-0.1,0-0.2,0-0.4,0c-0.1,0.2-0.1,0.4-0.2,0.6c-2,4.9-5.4,8.6-10.3,10.7c-1.7,0.7-3.4,1.1-5.2,1c-0.2,0-0.3,0-0.5-0.1
		c6.3-1.7,10.2-6.1,12.7-11.9c-0.3,0-0.5,0-0.7,0.1c-3,0.4-6,1.2-8.8,2.4c-4.3,1.9-8.7,2.9-13.4,3.3c-5.2,0.4-10.3-0.1-15.2-1.7
		c-4.5-1.4-8.5-3.6-12-6.8c-0.2-0.2-0.5-0.4-0.7-0.7l0.1-0.1c0.5,0.3,1,0.6,1.4,0.9c2.5,1.4,5.1,2.4,7.9,3.2c3.6,1,7.4,1.6,11.1,1.8
		c2.1,0.1,4.1,0.1,6.2,0c0.2,0,0.4,0,0.7-0.1c-0.2-0.2-0.3-0.3-0.5-0.4c-1.4-1-2.6-2.1-3.7-3.4c-0.9-1-1.6-2.2-1.9-3.5
		c0-0.2-0.1-0.4-0.1-0.6c0-0.1,0-0.2,0-0.4c0.2,0.2,0.3,0.4,0.4,0.5c1.1,1.7,2.5,3.1,4.2,4.2c1.8,1.1,3.7,1.7,5.8,1.9
		c2.5,0.2,4.9-0.2,7.3-0.8c0.4-0.1,0.7-0.3,1.1-0.4c3.3-1.5,6.7-2.3,10.2-2.7c3.3-0.4,6.6-0.4,9.9,0c3.3,0.4,6.5,1.1,9.5,2.3
		c1.2,0.5,2.3,1.1,3.4,1.8c0.1,0.1,0.2,0.1,0.4,0.3v-0.7c0-3.7,0-7.5,0-11.2c0-1.9-0.7-3.4-2.1-4.6c-0.9-0.8-1.9-1.4-3-1.9
		c-2.1-1.1-4.3-1.8-6.6-2.6c-0.7-0.3-1.2-0.2-1.8,0.2c-3.6,2.4-7.6,3.8-11.8,4.5c-4.7,0.7-9.4,0.5-14-0.6
		c-9.3-2.1-17.4-6.6-24.3-13.1c-0.7-0.7-1.4-1.4-2.2-2.2c0.2,0.1,0.3,0.1,0.4,0.1c1.3,0.9,2.6,1.7,3.9,2.6c3.8,2.6,7.8,5,12,6.9
		c0.8,0.4,1.6,0.7,2.4,1c0.2,0.1,0.3,0.1,0.5,0.2c0-0.1,0.1-0.2,0.1-0.3c0-4-0.4-8-1.8-11.8c-0.4-1.1-0.9-2.2-1.5-3.2
		c-0.2-0.3-0.3-0.5-0.5-0.8c0-0.1,0.1-0.1,0.1-0.2c0.5,0.5,1,1,1.5,1.6c1.9,2.2,3,4.8,3.7,7.6c0.5,2.1,0.8,4.2,1.1,6.3
		c0.1,0.4,0.1,0.8,0.2,1.2c0,0.3,0.2,0.5,0.5,0.6c0.8,0.2,1.6,0.4,2.4,0.6c1.6,0.3,3.2,0.7,4.9,0.9c4.2,0.6,8.3,0.2,12.3-1
		c2.3-0.6,4.5-1.5,6.5-2.6c0.1-0.1,0.2-0.1,0.3-0.2c0,0,0-0.1,0.1-0.1c-0.2-0.1-0.3-0.1-0.5-0.2c-2-0.7-4-1.6-5.8-2.8
		c-1.3-0.9-2.5-1.8-3.5-3.1c-0.9-1.1-1.6-2.4-1.7-3.9c0-0.1,0-0.2,0-0.3c0,0,0-0.1,0.1-0.1c0.1,0.1,0.1,0.1,0.2,0.2
		c1.2,1.9,2.9,3.3,4.8,4.5c2,1.2,4.2,2.1,6.5,2.8c2.6,0.8,5.2,1.5,7.9,2.3c1.8,0.5,3.5,1.1,5.2,1.8c1.2,0.5,2.3,1.1,3.3,1.9
		c0.1,0,0.1,0.1,0.3,0.2c0-0.2,0.1-0.3,0.1-0.4c0-4.3,0-8.7,0-13c0-0.2,0-0.3-0.1-0.5c-0.8-3.2-2.2-6-4.6-8.4
		c-1.8-1.8-3.9-3.1-6.2-4.1c-2.4-1-4.9-1.6-7.4-2.3c-2-0.5-3.9-1-5.9-1.6c-1.2-0.3-2.3-0.9-3.3-1.6c-0.9-0.6-1.6-1.4-2-2.5
		c0.2,0,0.3,0,0.4,0.1c3.2,1.5,6.6,2.5,10.1,3c0.5,0.1,1.1,0.2,1.6,0.2c1.3,0.1,2.5,0.4,3.7,0.7c0.1,0,0.3,0.1,0.5,0.1
		c0,0,0.1,0,0.1-0.1c-0.1-0.2-0.2-0.4-0.3-0.5c-0.8-1.7-1.2-3.4-1.1-5.2c0.1-0.9,0.2-1.8,0.4-2.6c0.9-3.2,0.5-6.2-1-9
		c-0.1-0.2-0.3-0.5-0.4-0.7c0,0,0.1-0.1,0.1-0.1c1.7,1.5,2.9,3.4,3.3,5.7c0.2,0.9,0.2,1.8,0,2.7c-0.3,1.7-0.5,3.5-0.4,5.3
		c0.1,2.1,0.7,3.9,2.1,5.5c0.3,0.3,0.6,0.6,1,0.8c2.8,1.2,5.3,2.8,7.5,4.9c1.1,1,2.1,2.2,2.9,3.5c0.1,0.1,0.2,0.3,0.3,0.4
		c0.1-0.1,0.1-0.1,0.2-0.2c1.6-2.7,3.9-4.8,6.6-6.5c1.3-0.8,2.7-1.6,4.1-2.2c0.3-0.1,0.5-0.3,0.7-0.5c1.4-1.4,2-3.2,2.2-5.1
		c0.2-1.8,0.1-3.6-0.2-5.4c-0.6-3.3,0.4-6,2.7-8.4c0.2-0.2,0.4-0.4,0.6-0.6c0,0,0.1,0,0.1,0.1c-0.1,0.3-0.2,0.5-0.4,0.8
		c-0.7,1.3-1.2,2.7-1.4,4.2c-0.2,1.6-0.1,3.2,0.3,4.8c0.3,0.9,0.4,1.8,0.5,2.8c0.1,1.7-0.2,3.4-1,5c-0.1,0.3-0.2,0.5-0.3,0.8
		c0,0,0,0.1,0,0.1c0.1,0,0.1,0,0.2,0c1.7-0.5,3.5-0.7,5.3-1c3.6-0.5,7-1.5,10.3-3c0.2-0.1,0.3-0.1,0.5-0.2c0,0,0.1,0,0.2,0
		c-0.1,0.2-0.1,0.4-0.2,0.5c-0.6,1.1-1.6,1.9-2.7,2.6c-1.3,0.7-2.7,1.2-4.1,1.5c-2,0.5-3.9,1-5.9,1.5c-2.2,0.6-4.4,1.2-6.4,2.2
		c-2.8,1.3-5.1,3-6.9,5.5c-1.5,2-2.5,4.3-3.1,6.7c0,0.2-0.1,0.4-0.1,0.6c0,4.3,0,8.6,0,12.9c0,0.1,0,0.3,0,0.4c0.1,0,0.1,0,0.2,0
		c1.7-1.3,3.6-2.1,5.6-2.8c2.4-0.8,4.8-1.4,7.2-2.1c2.5-0.7,5-1.4,7.4-2.5c2-0.9,4-2,5.6-3.5c0.7-0.7,1.4-1.4,2-2.3
		c0.1-0.1,0.2-0.2,0.3-0.4c0.1,0.3,0.1,0.5,0,0.7c-0.1,1.2-0.7,2.3-1.4,3.3c-1,1.4-2.4,2.5-3.8,3.4c-1.8,1.2-3.7,2.1-5.7,2.8
		c-0.2,0.1-0.3,0.1-0.6,0.2c0.2,0.1,0.3,0.2,0.4,0.3c3.3,1.8,6.9,3,10.6,3.6c2.2,0.3,4.4,0.4,6.6,0.3c1.9-0.1,3.7-0.4,5.5-0.9
		c1.1-0.3,2.2-0.5,3.4-0.8c0.4-0.1,0.6-0.3,0.7-0.8c0.3-2.6,0.6-5.1,1.3-7.6c0.8-3,2.1-5.8,4.2-8.1c0.3-0.3,0.6-0.6,0.8-0.8
		c0,0,0.1,0.1,0.1,0.1c-1.8,2.7-2.8,5.7-3.3,8.9c-0.4,2.2-0.6,4.4-0.5,6.6c0,0.2,0,0.3,0,0.5c0.2-0.1,0.4-0.1,0.6-0.2
		c3.2-1.3,6.2-2.9,9.2-4.6c2.8-1.6,5.4-3.4,8-5.2c0.4-0.2,0.7-0.5,1.1-0.7L267.1,68.1z"/>
	<path class="st0" d="M260.6,59.5c-0.1,3.5-3.4,7.2-6.6,7.4c0.3-1.2,0.9-2.1,1.6-3.1c0.7-0.9,1.5-1.8,2.4-2.5
		c-0.2,0-0.3,0.1-0.5,0.1c-1.1,0.4-2.1,1.1-2.7,2.1c-0.5,0.7-0.8,1.5-1.2,2.3c-0.1,0.1-0.1,0.3-0.3,0.4c-0.1-2.1,0.5-3.8,2.2-5.1
		c1-0.8,2.2-1.2,3.5-1.4C259.6,59.7,260.1,59.6,260.6,59.5"/>
	<path class="st0" d="M143.7,94.5c-3.6-2-4.9-5.8-4.1-9c0.1,0,0.1,0,0.2,0c1.3,0.6,2.5,1.3,3.5,2.3c1.6,1.7,2,3.7,1.3,6
		c0,0,0,0.1-0.1,0.1c0,0,0,0-0.1,0.1c0-0.2-0.1-0.4-0.1-0.5c-0.1-0.9-0.2-1.8-0.5-2.7c-0.3-1-0.9-1.8-1.6-2.4
		c-0.2-0.1-0.4-0.2-0.6-0.4c0.4,0.8,0.8,1.4,1.1,2.1c0.3,0.7,0.5,1.4,0.7,2.1C143.6,92.9,143.7,93.6,143.7,94.5"/>
	<path class="st0" d="M277.1,106.9c-1.9,0.4-3.7,0.4-5.5-0.4c-1.5-0.7-2.7-1.8-3.7-3.3c1.3-0.1,2.4,0.1,3.5,0.5
		c1.1,0.3,2.2,0.8,3.2,1.4c-0.1-0.1-0.1-0.2-0.2-0.3c-1-1.3-2.4-1.9-4-2.2c-0.4-0.1-0.9-0.1-1.3-0.1c-0.2,0-0.5,0-0.7-0.2
		c0.1,0,0.1-0.1,0.2-0.1c2.3-0.8,4.4-0.5,6.2,1.2c1,0.9,1.7,2.1,2.4,3.4C277.1,106.8,277.1,106.9,277.1,106.9"/>
	<path class="st0" d="M233.7,103.9c0.6,0,1.2-0.1,1.8-0.1c1.5,0.1,2.8,0.9,3.7,2.1c1,1.2,1.5,2.6,1.9,4c0,0,0,0.1,0,0.2
		c-1.7,0.1-3.3-0.2-4.8-1.1c-1.7-1-2.8-2.4-3.6-4.3c0.3,0,0.4,0,0.6,0.1c2,0.5,3.7,1.3,5.2,2.7c0.1,0.1,0.2,0.2,0.3,0.2
		c0,0,0,0,0.1,0.1c-0.1-0.2-0.1-0.3-0.1-0.4c-0.6-1.1-1.4-1.9-2.6-2.4c-0.9-0.4-1.8-0.6-2.7-0.9C233.7,104,233.7,103.9,233.7,103.9"
		/>
	<path class="st0" d="M187.8,36.6c0-2.4,0.8-4.3,3-5.5c1.2-0.7,2.4-1,3.8-1.2c0.2,0,0.4,0,0.5,0c-0.1,3.5-3.3,7-6.5,7.3
		c0-1.2,1.8-3.8,4-5.6c-0.2,0-0.3,0-0.4,0.1c-1.2,0.4-2.1,1.1-2.8,2.1c-0.5,0.8-0.9,1.6-1.3,2.4c-0.1,0.1-0.1,0.3-0.2,0.4
		C187.8,36.6,187.8,36.6,187.8,36.6"/>
	<path class="st0" d="M148.7,75.4c-1.6-0.2-3-0.8-4.2-1.9c-1.6-1.4-2.3-3.1-2.7-5.2c0.1,0,0.2-0.1,0.3-0.1c1.4,0.1,2.8,0.4,4,1
		c2.1,1.1,3.1,2.8,3.2,5.1c0,0.1,0,0.2,0,0.4c-0.1-0.2-0.2-0.3-0.2-0.4c-0.4-0.7-0.8-1.5-1.2-2.1c-0.8-1.2-1.8-1.9-3.2-2.2
		c0,0-0.1,0-0.2,0c0,0,0,0-0.1,0C146.5,71.4,147.9,73.1,148.7,75.4"/>
	<path class="st0" d="M149.6,115c-0.3-1.2-0.4-2.3-0.3-3.4c0-0.3,0-0.5,0.1-0.8c0.4-2.5,1.9-4.1,4.2-4.8c0,0,0.1,0,0.2,0
		c-0.1,0.1-0.2,0.2-0.2,0.3c-0.6,0.6-1.2,1.1-1.8,1.7c-0.9,1-1.4,2.2-1.4,3.6c0,0.1,0,0.2,0.1,0.3c0.8-2.2,2.1-4.1,4.1-5.6
		c0.1,1.7-0.1,3.3-0.8,4.7C152.9,112.9,151.5,114.1,149.6,115"/>
	<path class="st0" d="M161.5,43c1.9,0.7,3.4,1.9,4.6,3.4c0.2,0.3,0.4,0.6,0.7,0.9c-3.5,0.4-7-1.8-8.2-5.4c0.1,0,0.2-0.1,0.3-0.1
		c1.3-0.2,2.6-0.2,3.9,0.1c2.4,0.6,3.8,2.1,4.4,4.4c0,0,0,0.1,0,0.2c0,0,0,0-0.1,0.1c-0.1-0.2-0.3-0.3-0.4-0.5
		c-0.5-0.6-1-1.2-1.6-1.8c-0.9-0.9-2.1-1.4-3.4-1.4C161.7,42.9,161.6,42.9,161.5,43C161.5,42.9,161.5,42.9,161.5,43"/>
	<path class="st0" d="M208.2,70c-0.9,0.4-1.6,0.9-2.2,1.7c-0.6,0.8-0.9,1.6-1.2,2.5c-0.1,0.3-0.2,0.7-0.4,1c0-0.1-0.1-0.3-0.1-0.4
		c-0.1-1.4,0.1-2.7,0.9-3.8c0.4-0.5,0.8-1,1.4-1.4c1.1-0.8,3-1.6,4.4-1.7c-0.1,1.7-0.5,3.2-1.4,4.6c-1.1,1.7-2.7,2.7-4.5,3.3
		c0-1.4,1.6-4.2,3.3-5.8c0.1-0.1,0.2-0.1,0.3-0.2c0,0,0-0.1-0.1-0.1C208.5,69.9,208.4,70,208.2,70"/>
	<path class="st0" d="M231.6,95.4c-0.1-1.2,0.2-2.3,0.6-3.4c0.4-1.1,0.9-2.1,1.6-3c0,0-0.1,0-0.1-0.1c-0.2,0.1-0.3,0.2-0.5,0.3
		c-1.2,0.9-1.8,2.2-2.1,3.6c-0.1,0.5-0.2,1-0.2,1.5c0,0.2-0.1,0.4-0.1,0.6c-0.3-0.6-0.4-1.2-0.5-1.9c-0.1-1.3,0.3-2.6,1.1-3.6
		c1.1-1.4,2.6-2.3,4.2-3c0.4,1,0.3,3.5-0.3,4.9C234.6,93.1,232.9,95,231.6,95.4"/>
	<path class="st0" d="M177.5,62.6c-0.1,0-0.3,0.1-0.4,0.1c-1.3,0.4-2.2,1.2-2.9,2.3c-0.4,0.6-0.7,1.3-1,2c-0.1,0.2-0.2,0.3-0.3,0.5
		c0-0.1,0-0.2,0-0.2c0-2.4,1-4.2,3.1-5.3c1.2-0.7,2.6-1,3.9-1.1c0,0,0.1,0,0.1,0c0.2,1-0.8,3.5-1.9,4.7c-1.2,1.3-3.4,2.6-4.7,2.6
		c0.3-1.1,0.9-2.1,1.6-3.1C175.8,64.1,176.6,63.3,177.5,62.6"/>
	<path class="st0" d="M255.8,80.8c2.3-0.5,4.6-0.3,6.8,0.5c-0.1-0.1-0.1-0.2-0.2-0.2c-1.3-1.1-2.9-1.4-4.6-1.2
		c-0.6,0.1-1.2,0.1-1.9,0.2c0.1-0.1,0.1-0.1,0.2-0.2c1.9-1.2,3.9-1.5,6-0.4c1.4,0.7,2.4,1.8,3.4,3c0,0,0,0.1,0.1,0.2
		c-1.8,0.8-3.6,1.1-5.5,0.7C258.5,83,256.4,81.8,255.8,80.8"/>
	<path class="st0" d="M227.5,54.4c1.6,1.4,3,2.9,3.4,5c0.4,1.7-0.2,3.3-1.2,4.7c0-0.1,0-0.2,0-0.3c0.1-0.7,0.2-1.5,0.3-2.2
		c0.1-1.4-0.2-2.7-1.1-3.9c-0.1-0.1-0.2-0.2-0.3-0.3c0.7,2.3,0.8,4.5,0.2,6.8c-1.1-1.2-1.9-2.5-2.3-4.1
		C226.2,58.2,226.6,56.3,227.5,54.4"/>
	<path class="st0" d="M224.3,33.6c-0.3,2.1-1,3.8-2.4,5.3c-1.1,1.1-3.2,2.1-4.2,2.1c0.8-2.3,2.2-4.1,4.1-5.6
		c-1.1,0.3-2.1,0.8-2.8,1.7c-0.6,0.7-1,1.5-1.4,2.3c-0.1,0.3-0.3,0.6-0.5,0.9c0-0.1,0-0.3,0-0.4c0.1-2.5,1.1-4.3,3.4-5.4
		C221.6,34,222.8,33.7,224.3,33.6"/>
	<path class="st0" d="M133,107.9c1.7-1.4,3.7-2.2,5.9-2.4c0.1,0,0.2,0,0.3,0c0,0,0.1,0,0.2,0.1c-0.8,1.4-1.7,2.5-3.1,3.4
		c-1.8,1.1-3.7,1.3-5.7,1.1c0-0.1,0-0.2,0-0.2c0.5-1.3,1.2-2.6,2.1-3.6c1.7-1.8,3.7-2.2,6-1.6c0.1,0,0.1,0.1,0.2,0.1
		c-0.7,0.1-1.3,0.2-1.9,0.4c-0.6,0.2-1.2,0.3-1.8,0.6c-1,0.4-1.7,1.1-2.3,2.1c-0.1,0.1-0.1,0.2-0.2,0.2c0,0,0,0,0.1,0.1
		C132.8,108,132.9,107.9,133,107.9"/>
	<path class="st0" d="M245.6,55.2c1.1,0.9,2,1.9,2.7,3.1c0.4,0.7,0.7,1.4,0.8,2.2c0.2,1.6-0.3,3-1.2,4.3c0,0-0.1,0-0.1,0
		c0-0.2,0-0.3,0.1-0.5c0.2-0.9,0.3-1.9,0.3-2.9c0-1.1-0.4-2.1-1.1-3c-0.1-0.1-0.1-0.2-0.2-0.3c0.7,2.3,0.8,4.6,0.2,7
		c-1.2-1.3-1.9-2.6-2.3-4.2C244.3,58.9,244.7,57.1,245.6,55.2"/>
	<path class="st0" d="M193,84.1c-2.8,2.8-6.7,3-9.8,1.2c0,0,0-0.1,0-0.1c1.2-1.4,2.5-2.5,4.2-3.1c2-0.7,3.7-0.2,5.3,1
		c0,0,0,0.1,0,0.1c-0.6-0.1-1.3-0.2-1.9-0.3c-0.9-0.1-1.7-0.2-2.6,0.1c-0.8,0.2-1.4,0.5-2.1,1c-0.1,0-0.2,0.1-0.2,0.2
		C188.3,83.5,190.6,83.4,193,84.1"/>
	<path class="st0" d="M253.3,53.6c0.3,2.4,0,4.6-1.1,6.8c-0.7-0.7-1.5-3.1-1.5-4.6c0-1.8,0.9-4.2,2-5.2c0,0,0.1,0,0.1,0.1
		c1,1.2,1.8,2.5,2.2,4.1c0.5,2.2-0.2,4-1.8,5.6c0,0-0.1,0-0.2,0.1c0.1-0.4,0.3-0.7,0.4-1c0.4-1.1,0.7-2.2,0.7-3.5
		C254,55,253.7,54.3,253.3,53.6"/>
	<path class="st0" d="M227.1,67.5c-0.1-0.3-0.3-0.6-0.4-0.9c-0.4-0.8-0.8-1.5-1.3-2.2c-0.6-0.8-1.5-1.4-2.4-1.7c-0.1,0-0.2,0-0.4,0
		c1.8,1.5,3.2,3.2,3.9,5.5c-0.8,0.1-2.9-0.9-4-1.9c-1.6-1.4-2.3-3.3-2.6-5.4c0.1,0,0.2,0,0.2,0c1.6,0.2,3.1,0.5,4.5,1.4
		c1.9,1.2,2.6,3.1,2.6,5.3C227.2,67.5,227.2,67.5,227.1,67.5"/>
	<path class="st0" d="M173.5,77.6c-0.1-0.1-0.2-0.2-0.3-0.4c-0.6-0.6-1.2-1.2-1.8-1.8c-1-0.9-2.2-1.3-3.6-1.3c0,0-0.1,0-0.3,0.1
		c2.3,0.8,4.2,2.1,5.6,4.2c-1.6,0.1-3.1-0.1-4.4-0.7c-1.8-0.8-3.4-2.6-4.1-4.3c0,0,0.1-0.1,0.2-0.1c1.6-0.3,3.1-0.4,4.7,0
		c2.1,0.6,3.4,2.1,4,4.1C173.5,77.5,173.5,77.5,173.5,77.6C173.5,77.6,173.5,77.6,173.5,77.6"/>
	<path class="st0" d="M232.4,74.2c-0.6,0-1.2,0-1.8,0.2c-0.7,0.2-1.4,0.5-2,1.1c-0.6,0.6-1.2,1.2-1.7,1.7c-0.1,0.1-0.2,0.3-0.4,0.4
		c0.5-1.9,1.5-3.3,3.3-4c1.3-0.5,2.7-0.6,4.1-0.5c0.5,0.1,1,0.1,1.5,0.2c-0.7,1.5-1.6,2.8-3,3.7c-1.6,1.2-3.5,1.5-5.5,1.4
		c0-0.2,0.1-0.4,0.2-0.5c1.3-1.6,2.9-2.8,4.8-3.5c0.1,0,0.1,0,0.2-0.1c0.1,0,0.1,0,0.2-0.1C232.4,74.3,232.4,74.3,232.4,74.2"/>
	<path class="st0" d="M172.5,54.5c1.8,3.2,1.3,7.1-1.3,9.8c-0.4-1.2-0.5-2.3-0.4-3.5c0-1.2,0.3-2.3,0.7-3.4c-0.8,0.9-1.3,1.9-1.4,3
		c-0.1,1.1,0.1,2.1,0.2,3.2c0,0.2,0,0.3,0.1,0.5c0,0-0.1,0-0.1,0c-0.1-0.2-0.3-0.4-0.4-0.6c-1.1-1.9-1.1-3.9-0.1-5.8
		c0.7-1.2,1.6-2.1,2.6-3C172.4,54.6,172.4,54.5,172.5,54.5"/>
	<path class="st0" d="M131.3,77.8c1.9-1.3,3.9-2.1,6.2-2.2c-0.2,1-1.9,2.8-3.1,3.4c-1.8,1-3.7,1.2-5.7,0.9c0-0.1,0-0.1,0-0.2
		c0.6-1.6,1.5-3,2.8-4.1c1.6-1.3,3.5-1.5,5.4-0.9c0,0,0.1,0.1,0.2,0.1c-0.5,0.1-1,0.1-1.5,0.2c-0.6,0.1-1.2,0.3-1.8,0.4
		c-1.2,0.4-2,1.1-2.7,2.1c-0.1,0.1-0.1,0.2-0.2,0.3c0,0,0.1,0,0.1,0.1C131.2,77.9,131.3,77.9,131.3,77.8"/>
	<path class="st0" d="M157.1,97.9c-0.3-1.3,0.6-4,2.2-6.5c-0.2,0.1-0.3,0.1-0.3,0.2c-1.3,0.9-2,2.2-2.3,3.7c-0.1,0.7-0.2,1.3-0.3,2
		c0,0.1,0,0.2-0.1,0.3c-0.1-0.1-0.1-0.2-0.1-0.2c-0.7-2.2-0.3-4.2,1.3-6c1-1,2.2-1.8,3.6-2.3c0,0,0.1,0,0.1,0
		C162.2,91.9,159.9,96.9,157.1,97.9"/>
	<path class="st0" d="M122.9,106.9c0.9-1.8,1.9-3.3,3.6-4.3c1.6-1,3.3-0.9,5-0.3c0.1,0,0.1,0.1,0.2,0.2c-0.4,0-0.7,0.1-1,0.1
		c-0.8,0.1-1.6,0.2-2.4,0.4c-1.2,0.3-2.2,1.1-2.8,2.2c1-0.6,2-1.1,3.2-1.5c1.1-0.3,2.2-0.6,3.5-0.5c-1,1.5-2.2,2.6-3.7,3.3
		C126.7,107.3,124.8,107.3,122.9,106.9"/>
	<path class="st0" d="M207.1,60.6c2.3-0.7,4.5-0.6,6.8,0c-0.1-0.1-0.2-0.2-0.3-0.3c-1.1-0.8-2.4-1.1-3.7-1c-0.7,0.1-1.4,0.2-2.1,0.3
		c-0.1,0-0.3,0-0.5,0c0.1-0.1,0.1-0.1,0.2-0.2c1.9-1.3,3.9-1.5,6-0.5c1.3,0.7,2.4,1.6,3.4,2.8c-1.5,0.8-3.1,1.3-4.8,1.1
		C210.1,62.8,208.5,61.9,207.1,60.6"/>
	<path class="st0" d="M171.2,50.7c-0.5-0.1-1.1-0.2-1.6-0.3c-0.7-0.1-1.5-0.2-2.3-0.1c-1,0.1-2.1,0.6-2.8,1.4
		c1.2-0.4,2.3-0.6,3.5-0.6c1.2,0,2.3,0.1,3.4,0.4c-0.3,0.7-2.2,1.8-3.6,2.1c-2.2,0.6-4.2,0.1-6.2-0.9c0.1-0.1,0.1-0.2,0.2-0.3
		c0.9-1,1.8-1.8,3-2.4c2.1-1.1,4.2-0.9,6.2,0.4c0.1,0,0.1,0.1,0.2,0.2C171.2,50.6,171.2,50.6,171.2,50.7"/>
	<path class="st0" d="M226.5,88.2c-0.2,0-0.3,0.1-0.4,0.1c-1.2,0.4-2.1,1.1-2.8,2.1c-0.4,0.7-0.8,1.4-1.2,2.2
		c-0.1,0.2-0.2,0.3-0.3,0.5c0-0.2,0-0.3,0-0.5c0.1-2.6,1.3-4.3,3.7-5.4c1-0.4,2.1-0.7,3.2-0.8c0.1,0,0.2,0,0.3,0
		c0.2,0.9-0.7,3.3-1.7,4.5c-1.1,1.4-3.4,2.8-4.8,2.8c0.2-0.8,0.5-1.5,0.9-2.1c0.4-0.6,0.8-1.3,1.3-1.8
		C225.3,89.3,225.9,88.8,226.5,88.2"/>
	<path class="st0" d="M160.4,57.1c0.5,0.1,1,0.1,1.4,0.2c1.1,0.2,2.2,0.6,3.2,1.2c1.9,1.2,2.7,3,2.7,5.2c0,0,0,0.1-0.1,0.1
		c-0.1-0.1-0.1-0.2-0.2-0.3c-0.4-0.7-0.7-1.5-1.1-2.2c-0.7-1.2-1.8-2-3.1-2.4c-0.1,0-0.1,0-0.2,0c1.9,1.5,3.3,3.3,4.1,5.5
		c-0.9,0.1-2.9-0.9-4-1.9C161.5,61.1,160.7,59.3,160.4,57.1"/>
	<path class="st0" d="M228.7,51.6c2.3-0.7,4.5-0.6,6.9,0.1c-0.2-0.2-0.2-0.2-0.3-0.3c-1.1-0.8-2.3-1.2-3.7-1.1
		c-0.8,0.1-1.5,0.2-2.2,0.3c-0.2,0-0.4,0.1-0.5,0.1l0-0.1c0.4-0.2,0.7-0.5,1.1-0.7c1.6-0.8,3.3-0.9,5-0.1c1.4,0.7,2.6,1.7,3.7,2.9
		c-1.6,0.8-3.2,1.3-5,1.1C231.6,53.7,230,52.8,228.7,51.6"/>
	<path class="st0" d="M182.6,88.9c1.7,1.5,2.8,3.4,3.4,5.8c-1.8-0.6-3.2-1.5-4.2-2.8c-1.2-1.5-1.7-3.2-1.8-5.2
		c0.6,0.2,1.1,0.3,1.7,0.4c1.1,0.3,2.1,0.8,3,1.5c1.7,1.4,2.2,3.2,1.9,5.4c-0.1-0.2-0.1-0.3-0.2-0.5c-0.2-0.6-0.5-1.3-0.7-1.9
		c-0.6-1.3-1.5-2.3-2.9-2.9c-0.1-0.1-0.3-0.1-0.4-0.2l-0.1,0.1C182.4,88.8,182.5,88.9,182.6,88.9"/>
	<path class="st0" d="M192.9,59.8c-0.4-0.1-0.8-0.1-1.1-0.2c-1-0.2-2-0.3-3-0.2c-0.9,0.1-1.7,0.5-2.5,1.1c0,0-0.1,0.1-0.2,0.2
		c1.2-0.4,2.3-0.6,3.5-0.6c1.1,0,2.3,0.1,3.5,0.5c-1.2,1.1-2.6,1.9-4.2,2.2c-2,0.4-3.9,0-5.7-1c0-0.1,0-0.1,0-0.2
		c0.9-1.1,2-2,3.3-2.7c2.2-1.1,4.2-0.8,6.1,0.6C192.7,59.6,192.7,59.6,192.9,59.8"/>
	<path class="st0" d="M211.4,45c-3.2-0.2-6.6-4.1-6.6-7.3c0.1,0,0.1,0,0.2,0c1.3,0.2,2.6,0.4,3.8,1.1c2.2,1.1,3.2,2.9,3.2,5.3
		c0,0.1,0,0.2,0,0.3c-0.2-0.2-0.2-0.3-0.3-0.5c-0.4-0.7-0.7-1.5-1.2-2.2c-0.7-1.1-1.7-1.9-3-2.3c-0.1,0-0.2,0-0.3,0
		c1.6,1.3,2.9,2.8,3.7,4.7C211.2,44.4,211.3,44.7,211.4,45"/>
	<path class="st0" d="M195.6,75.2c-0.1-0.1-0.1-0.3-0.2-0.4c-0.3-0.7-0.5-1.4-0.8-2.1c-0.6-1.2-1.5-2.2-2.8-2.7
		c-0.1,0-0.2-0.1-0.3-0.1c0,0-0.1,0-0.1,0c1.8,1.6,3,3.5,3.5,5.9c-1.5-0.4-2.8-1.2-3.8-2.3c-1.4-1.6-2-3.4-2.1-5.5
		c0.1,0,0.2,0,0.3,0c1.4,0.3,2.7,0.7,3.9,1.5c1.9,1.3,2.7,3.1,2.6,5.3C195.7,74.9,195.7,75.1,195.6,75.2
		C195.7,75.2,195.6,75.2,195.6,75.2"/>
	<path class="st0" d="M158.7,64.9c-0.9,0.2-1.7,0.6-2.4,1.2c-0.5,0.5-1,1.1-1.3,1.8c-0.3,0.6-0.6,1.2-0.9,1.9c0-0.2-0.1-0.2-0.1-0.3
		c0-2.4,1-4.2,3.1-5.3c1.2-0.6,2.5-0.9,3.8-1.1c0,0,0.1,0,0.2,0c0,0,0.1,0,0.2,0.1c-0.2,1.7-0.8,3.3-1.9,4.6
		c-1.2,1.5-2.8,2.3-4.7,2.8c0.3-1.2,0.9-2.2,1.6-3.2C157,66.5,157.8,65.6,158.7,64.9"/>
	<path class="st0" d="M254.1,106.1c1.8,0.1,3.4,0.8,4.5,2.3c0.8,1.2,1.2,2.5,1.3,4c0.1,0.5,0.1,1,0.1,1.6c-1.8-0.4-3.3-1.2-4.6-2.4
		c-1.3-1.3-1.9-3-2.2-4.9c1.2,0.5,2.1,1.2,3,1.9c0.9,0.8,1.6,1.6,2.2,2.6c0-0.1,0-0.2,0-0.4c-0.3-1.3-1-2.4-2.1-3.2
		c-0.6-0.4-1.1-0.8-1.7-1.1c-0.2-0.1-0.4-0.2-0.6-0.3C254,106.2,254.1,106.2,254.1,106.1"/>
	<path class="st0" d="M147.4,50.5c2.4,3,2.6,6.8,0.5,9.9c-0.6-1-0.9-2.2-1.1-3.3c-0.2-1.2-0.2-2.3,0-3.5c-0.4,0.5-0.6,1.1-0.7,1.8
		c-0.2,0.9-0.1,1.8,0.2,2.7c0.2,0.6,0.4,1.2,0.6,1.8c0.1,0.2,0.1,0.3,0.1,0.5c-0.1-0.1-0.3-0.3-0.4-0.4c-1.6-1.7-2-3.7-1.3-5.9
		C145.6,52.9,146.5,51.4,147.4,50.5"/>
	<path class="st0" d="M219.9,102.5c-0.1,0.3-0.2,0.5-0.3,0.7c-0.4,1-0.7,2-0.8,3.1c-0.1,1.1,0.2,2.1,0.8,3c-0.3-2.4,0-4.6,1.1-6.9
		c0.9,1.4,1.4,2.8,1.5,4.3c0.1,1.9-0.7,4.1-1.9,5.6c0,0-0.1,0-0.1-0.1c-1-1.2-1.8-2.6-2.2-4.2c-0.5-2.1,0.2-3.9,1.7-5.4
		C219.6,102.6,219.7,102.6,219.9,102.5"/>
	<path class="st0" d="M268.9,77.9c-0.7-1.3-1.8-2.1-3.2-2.5c-0.7-0.2-1.4-0.3-2.1-0.4c-0.2,0-0.5-0.1-0.8-0.2c0.1,0,0.1-0.1,0.2-0.1
		c2.3-0.7,4.3-0.2,6,1.5c1,1,1.7,2.2,2.2,3.5c0,0,0,0.1,0,0.2c-1.7,0.3-3.3,0.2-4.9-0.5c-1.8-0.7-3-2-4-3.7c0.6-0.2,1.9,0,3.4,0.6
		C267,76.7,268,77.2,268.9,77.9"/>
	<path class="st0" d="M239.6,57.2c-0.3,1.9-0.9,3.7-2.3,5.1c-1.1,1.2-3.2,2.2-4.3,2.2c0.8-2.3,2.2-4.1,4.1-5.6
		c-1.1,0.2-2,0.8-2.7,1.6c-0.6,0.7-1,1.5-1.4,2.4c-0.1,0.3-0.3,0.6-0.5,0.9c0-0.1,0-0.2,0-0.2c0-2.4,1-4.2,3.1-5.3
		c1.2-0.7,2.6-1,4-1.1C239.5,57.2,239.5,57.2,239.6,57.2"/>
	<path class="st0" d="M182.5,41c-1.9-0.5-3.5-1.3-4.7-2.7c-1.2-1.4-1.7-3-2-4.8c0.5,0.1,0.8,0.1,1.2,0.2c1.1,0.2,2.1,0.5,3,1
		c1.9,1,3.2,2.9,3,5.6c-0.1-0.1-0.2-0.2-0.2-0.3c-0.4-0.8-0.8-1.6-1.2-2.4c-0.7-1.2-1.9-2-3.3-2.3c0.9,0.7,1.8,1.5,2.5,2.5
		C181.5,38.8,182.1,39.8,182.5,41"/>
	<path class="st0" d="M209.2,50.6c-0.2-0.5-0.4-0.9-0.6-1.4c-0.3-0.7-0.7-1.4-1.3-2c-0.7-0.8-1.8-1.4-2.8-1.6c1,0.7,1.8,1.5,2.5,2.5
		c0.7,0.9,1.3,1.9,1.6,3.1c-3.2-0.2-6.5-4-6.6-7.4c0.3,0,0.5,0.1,0.8,0.1c1.3,0.2,2.6,0.6,3.7,1.3c1.9,1.2,2.7,3,2.7,5.2
		C209.3,50.5,209.3,50.5,209.2,50.6"/>
	<path class="st0" d="M228.5,35.3c0.9,0.8,1.6,1.5,2.2,2.4c0.6,0.8,1,1.7,1.1,2.7c0.2,1.7-0.3,3.2-1.3,4.5c0,0,0,0-0.1,0
		c0.1-0.3,0.1-0.6,0.2-0.9c0.2-0.9,0.3-1.8,0.3-2.8c-0.1-1.1-0.5-2.1-1.1-2.9c0,0-0.1-0.1-0.1-0.1c0,0,0,0-0.1,0
		c0.7,2.3,0.8,4.5,0.1,7c-1.1-1.3-1.9-2.7-2.2-4.3C227.1,39,227.5,37.1,228.5,35.3"/>
	<path class="st0" d="M185.8,73.3c0-0.2,0-0.4,0-0.5c-0.1-0.8-0.1-1.6-0.2-2.4c-0.2-1.2-0.8-2.2-1.8-3.1c-0.1-0.1-0.2-0.2-0.4-0.2
		c1.2,2.1,1.8,4.2,1.6,6.7c-1.4-0.9-2.3-2-3-3.4c-0.9-1.9-0.9-3.9-0.4-5.9c0.1,0,0.1,0,0.2,0c1.3,0.7,2.5,1.6,3.5,2.8
		c1.4,1.8,1.5,3.8,0.7,5.9c0,0-0.1,0.1-0.1,0.1C185.9,73.4,185.8,73.4,185.8,73.3"/>
	<path class="st0" d="M218.3,64.5c1.1,3.5-0.1,7.2-3.3,9.3c-0.2-1.2,0-2.3,0.3-3.5c0.3-1.1,0.7-2.2,1.3-3.2c-0.8,0.5-1.3,1.2-1.7,2
		c-0.3,0.8-0.5,1.6-0.6,2.4c0,0.5-0.1,1-0.1,1.5c0,0.1,0,0.2,0,0.5c-0.1-0.2-0.2-0.3-0.2-0.4c-0.9-2.3-0.6-4.4,1.1-6.3
		C216,65.8,217.1,65.1,218.3,64.5"/>
	<path class="st0" d="M163.9,78.8c-0.1-0.1-0.2-0.3-0.2-0.4c-0.4-0.7-0.7-1.4-1.2-2.1c-0.8-1.2-1.8-1.9-3.2-2.2c-0.1,0-0.1,0-0.3,0
		c2.1,1.4,3.5,3.2,4.4,5.4c-1,0.1-3.1-0.9-4.2-1.9c-1.5-1.4-2.3-3.1-2.7-5.1c0.1,0,0.2-0.1,0.3-0.1c1.2,0.1,2.4,0.3,3.6,0.8
		c2.3,1,3.5,2.8,3.7,5.3c0,0.1,0,0.2,0,0.2C164,78.8,163.9,78.8,163.9,78.8"/>
	<path class="st0" d="M130.7,95.5c0-0.4-0.1-0.8-0.1-1.3c-0.1-0.7-0.2-1.4-0.4-2.1c-0.4-1.2-1.1-2.1-2.2-2.8c1.3,2,2,4.1,2,6.7
		c-1.5-0.9-2.6-2-3.3-3.4c-0.9-1.8-1-3.7-0.7-5.6c0.1,0,0.1,0,0.1,0c1.5,0.7,2.9,1.5,3.9,2.9c1.3,1.7,1.5,3.6,0.8,5.6
		C130.9,95.5,130.9,95.5,130.7,95.5C130.8,95.5,130.8,95.5,130.7,95.5"/>
	<path class="st0" d="M251.3,75.4c0.9-2.2,2.3-4,4.3-5.4c-1.1,0.2-2,0.7-2.8,1.5c-0.7,0.7-1.1,1.5-1.6,2.4c-0.1,0.3-0.3,0.5-0.5,0.8
		c0-0.1,0-0.2,0-0.3c0.1-2.4,1.2-4.1,3.4-5.1c1.2-0.6,2.5-0.8,3.9-0.9c0.1,0,0.1,0,0.2,0c0.1,1-0.9,3.4-2,4.6
		C254.9,74.2,252.5,75.4,251.3,75.4"/>
	<path class="st0" d="M213.8,84.1c-0.8-0.7-1.7-1-2.7-1.1c-1.1-0.1-2.2,0.1-3.2,0.3c-0.2,0-0.3,0.1-0.5,0.1c0,0-0.1,0-0.1-0.1
		c0,0,0.1-0.1,0.1-0.1c1.7-1.2,3.6-1.6,5.6-0.8c1.6,0.6,2.8,1.7,3.9,3c-1.6,0.8-3.2,1.3-4.9,1.1c-1.9-0.2-3.5-1-4.9-2.2
		c0.1-0.2,0.3-0.2,0.5-0.3c1.2-0.3,2.5-0.4,3.8-0.3c0.7,0.1,1.4,0.2,2.1,0.4c0.1,0,0.1,0,0.2,0l0.3,0.1c0,0,0-0.1,0-0.1
		C214,84.2,213.9,84.1,213.8,84.1"/>
	<path class="st0" d="M171.6,35.4c1.9,3.2,1.5,7.1-1.1,9.8c-0.4-1.1-0.5-2.3-0.5-3.4c0-1.2,0.2-2.3,0.5-3.4
		c-0.1,0.1-0.2,0.2-0.3,0.3c-0.8,1.1-1.1,2.4-1,3.8c0.1,0.9,0.2,1.7,0.4,2.6c-0.1-0.1-0.2-0.1-0.2-0.2c-0.7-0.9-1.1-1.9-1.2-3.1
		c-0.1-0.9,0.1-1.7,0.4-2.5c0.6-1.5,1.7-2.8,2.9-3.8C171.5,35.4,171.6,35.4,171.6,35.4"/>
	<path class="st0" d="M149.4,94.1c0-0.1-0.1-0.2-0.1-0.4c-0.7-2.4-0.1-4.5,1.7-6.2c1-0.9,2.1-1.5,3.3-2c0.4,0.8,0.3,3-0.2,4.5
		c-0.7,2-2,3.4-3.9,4.6c0-0.2,0-0.4,0-0.6c0.1-1,0.3-1.9,0.6-2.8c0.4-1.1,0.8-2.1,1.5-3c0-0.1,0.1-0.1,0.2-0.3
		c-0.2,0.1-0.3,0.2-0.4,0.2c-1.3,0.9-2,2.2-2.3,3.8c-0.1,0.5-0.2,1-0.2,1.5C149.5,93.7,149.5,93.9,149.4,94.1
		C149.4,94.1,149.4,94.1,149.4,94.1"/>
	<path class="st0" d="M190.8,50.5c0-1.9,0.5-3.6,2.1-4.9c1.1-0.9,2.4-1.3,3.8-1.6c0.5-0.1,0.9-0.1,1.4-0.2c0.2,1-0.7,3.3-1.7,4.6
		c-1.2,1.5-2.8,2.4-4.8,2.9c0.4-1.2,0.9-2.2,1.6-3.2c0.7-0.9,1.5-1.8,2.4-2.5c-0.1,0-0.2,0-0.4,0.1c-1.2,0.4-2.2,1.1-2.8,2.2
		c-0.4,0.6-0.7,1.3-1,1.9c-0.1,0.2-0.2,0.5-0.3,0.7C190.8,50.6,190.8,50.6,190.8,50.5"/>
	<path class="st0" d="M259.5,98.7c1-2.2,2.5-3.9,4.7-5.2c-0.8,0.1-1.4,0.3-1.9,0.6c-0.7,0.4-1.3,0.9-1.8,1.6
		c-0.4,0.6-0.8,1.2-1.2,1.9c-0.1,0.2-0.2,0.3-0.4,0.4c0-0.1,0-0.2,0-0.3c0.3-2.6,1.7-4.3,4.2-5.1c1.1-0.4,2.3-0.5,3.5-0.5
		c0.1,0,0.1,0,0.2,0c0,0.9-1,3-2,4.1C263.3,97.8,261.5,98.5,259.5,98.7"/>
	<path class="st0" d="M207.6,31.6c1.9,1.5,3.3,3.3,4.1,5.6c-1.1,0-3.2-1.1-4.3-2.2c-1.4-1.4-2-3.1-2.3-5.1c0.2,0,0.3,0,0.5,0
		c1.5,0.2,3,0.6,4.3,1.4c1.9,1.2,2.6,3,2.5,5.3c-0.1-0.1-0.1-0.2-0.2-0.3c-0.4-0.8-0.8-1.6-1.2-2.4c-0.7-1.1-1.6-1.8-2.8-2.2
		C207.9,31.7,207.7,31.7,207.6,31.6"/>
	<path class="st0" d="M167.1,104.7c-0.6,3-4.9,5.8-8.3,5.3c0-0.1,0-0.3,0.1-0.4c0.3-1.1,0.7-2.1,1.3-3c0.8-1.3,2-2.3,3.5-2.7
		c0.8-0.2,1.6-0.2,2.4-0.1c0.1,0,0.2,0.1,0.4,0.1c-0.2,0.1-0.4,0.1-0.5,0.2c-0.8,0.3-1.6,0.5-2.4,0.8c-1.3,0.5-2.2,1.5-2.7,2.8
		c0.1-0.1,0.2-0.1,0.3-0.2c1.5-1.4,3.3-2.3,5.3-2.8c0.1,0,0.3,0,0.4-0.1C167,104.7,167.1,104.7,167.1,104.7"/>
	<path class="st0" d="M188.7,45c0.7-2.3,2.1-4.1,4.1-5.6c-0.2,0-0.3,0-0.4,0.1c-1.2,0.4-2.1,1-2.8,2c-0.5,0.7-0.8,1.5-1.3,2.3
		c-0.1,0.2-0.2,0.3-0.3,0.6c0-0.2-0.1-0.3-0.1-0.4c0-2.5,1.1-4.3,3.4-5.4c1.1-0.6,2.4-0.8,3.6-1c0.1,0,0.1,0,0.2,0
		c0.1,0.9-0.6,3.1-1.6,4.3C192.4,43.7,190.7,44.6,188.7,45"/>
	<path class="st0" d="M223.1,43.1c-1.3,0-2.4,0.3-3.4,1c-0.8,0.6-1.4,1.3-2,2c-0.1,0.2-0.3,0.4-0.4,0.6c0,0-0.1,0-0.1,0
		c0.1-0.2,0.1-0.5,0.2-0.7c0.7-2.1,2.1-3.5,4.3-4c1.4-0.3,2.8-0.3,4.1,0c-0.1,0.9-1.4,2.8-2.5,3.7c-1.5,1.3-3.7,1.9-5.6,1.8
		c-0.1-0.3,0.1-0.4,0.3-0.6c1-1.3,2.2-2.4,3.6-3.2c0.4-0.2,0.8-0.4,1.2-0.6C222.9,43.2,223,43.2,223.1,43.1"/>
	<path class="st0" d="M205,96.6c0.5-2.4,1.7-4.3,3.5-5.9c-0.1,0-0.2,0.1-0.4,0.1c-1.1,0.5-2.1,1.3-2.6,2.4c-0.4,0.7-0.6,1.5-1,2.2
		c-0.1,0.2-0.1,0.3-0.2,0.5c0,0-0.1,0-0.1,0c0-0.1-0.1-0.2-0.1-0.3c-0.1-2.5,0.9-4.3,3-5.6c1.1-0.6,2.6-1.1,3.6-1.2
		c0.3,0.7-0.4,3.4-1.4,4.8C208.3,95.1,206.8,96.1,205,96.6"/>
	<path class="st0" d="M270.1,96c0-2.4,0.7-4.6,2-6.6c-0.1,0.1-0.2,0.1-0.3,0.2c-1.3,0.9-1.9,2.2-2.2,3.7c-0.1,0.6-0.2,1.2-0.2,1.7
		c0,0.2-0.1,0.4-0.1,0.6c-0.3-0.5-0.4-1.1-0.5-1.7c-0.2-1.6,0.3-3.1,1.4-4.3c1-1.2,2.3-2,3.7-2.6c0.4,0.8,0.4,3.3-0.1,4.7
		C273.1,93.5,271.8,94.9,270.1,96"/>
	<path class="st0" d="M214.3,109.9c-2-0.1-3.8-0.7-5.4-2c-1.2-1.1-2-2.4-2.6-4c1.3,0.2,2.3,0.7,3.3,1.3c1,0.6,1.9,1.3,2.7,2.2
		c-0.3-0.9-0.7-1.6-1.4-2.2c-0.6-0.6-1.4-1-2.2-1.3c-0.4-0.2-0.9-0.3-1.3-0.5c-0.2-0.1-0.3-0.1-0.5-0.2c0.5-0.2,1-0.1,1.5-0.1
		c1.9,0.1,3.3,1,4.4,2.6c0.8,1.2,1.2,2.5,1.5,3.9C214.3,109.7,214.3,109.8,214.3,109.9"/>
	<path class="st0" d="M245.3,70.5c-1.8-0.4-3.4-1.2-4.6-2.6c-1.1-1.3-1.7-2.9-2-4.7c0.4,0.1,0.7,0.1,1,0.1c1.1,0.2,2.2,0.5,3.2,1
		c2.1,1.2,3.1,3,3.1,5.4c0,0,0,0.1,0,0.2c-0.1-0.1-0.2-0.2-0.2-0.3c-0.3-0.7-0.7-1.4-1-2.1c-0.7-1.2-1.7-2.1-3.1-2.5
		c-0.1,0-0.2,0-0.3,0C243.2,66.4,244.6,68.2,245.3,70.5"/>
	<path class="st0" d="M232.8,46.5c0.5-2.1,1.6-3.6,3.7-4.4c1.6-0.6,3.2-0.5,4.9-0.3c0,0,0.1,0,0.1,0.1c-0.7,1.6-1.6,3-3.1,4
		c-1.5,1.1-3.2,1.5-5.1,1.4c0.4-1.3,2.8-3.3,5.3-4.4c-0.2,0-0.3,0-0.4,0c-1.6,0.1-2.8,0.8-3.9,1.9c-0.4,0.4-0.8,0.9-1.2,1.4
		C233.1,46.3,233,46.4,232.8,46.5C232.9,46.5,232.9,46.5,232.8,46.5"/>
	<path class="st0" d="M215.1,56c1.2-0.4,2.3-0.5,3.5-0.5c1.2,0,2.3,0.2,3.5,0.6c-0.1-0.1-0.1-0.2-0.2-0.2c-1-0.8-2.2-1.2-3.5-1.1
		c-0.9,0.1-1.7,0.2-2.5,0.3c-0.1,0-0.3,0-0.4,0.1c0,0,0-0.1,0-0.1c0.3-0.2,0.6-0.4,0.9-0.5c1.7-1,3.5-1,5.3-0.2
		c1.4,0.7,2.5,1.7,3.6,2.9c-1.5,0.8-3.1,1.3-4.8,1.1C218.3,58.1,216.6,57.3,215.1,56"/>
	<path class="st0" d="M175,57.1c1.5-1.7,3.1-3.1,5.3-3.4c1.2-0.2,2.4,0.1,3.4,0.7c0.3,0.2,0.6,0.4,0.9,0.6c0,0,0,0.1,0,0.1
		c-0.5-0.1-1-0.2-1.5-0.3c-0.9-0.1-1.8-0.2-2.7,0c-0.9,0.2-1.8,0.6-2.5,1.3c2.3-0.7,4.6-0.8,7-0.1c-1.3,1.1-2.7,1.9-4.2,2.2
		C178.7,58.5,176.9,58.1,175,57.1"/>
	<path class="st0" d="M144.2,80.9c-1.1,1.1-2.4,1.9-4,2.3c-2,0.5-3.8,0.1-5.7-0.7c0.1-0.1,0.2-0.3,0.2-0.4c0.9-1.1,1.9-2,3.1-2.7
		c2.1-1.1,4.1-0.9,6.1,0.3c0,0,0.1,0.1,0.1,0.2c-0.7-0.1-1.2-0.1-1.8-0.2c-0.9-0.1-1.7-0.1-2.6,0.2c-0.8,0.2-1.6,0.6-2.2,1.3
		c0.5-0.2,1.1-0.4,1.6-0.5c0.6-0.1,1.1-0.2,1.7-0.2c0.6,0,1.2-0.1,1.7,0c0.6,0,1.1,0.1,1.7,0.2L144.2,80.9z"/>
	<path class="st0" d="M225.4,110c0.2,0.9,0.4,1.8,0.7,2.7c0.4,1.2,1.2,2.1,2.3,2.8c0.1,0.1,0.2,0.1,0.3,0.1
		c-1.5-1.8-2.5-3.9-2.8-6.4c1.6,0.7,2.8,1.7,3.7,3.1c1.1,1.7,1.4,3.6,1.3,5.5c-0.1,0-0.1,0-0.1,0c-1.5-0.5-2.9-1.1-4-2.2
		c-1.5-1.5-2-3.2-1.7-5.3c0-0.1,0-0.2,0.1-0.4C225.2,110,225.3,110,225.4,110"/>
	<path class="st0" d="M250.6,94.1c-0.1-0.8-0.2-1.6-0.4-2.4c-0.3-1.5-1-2.6-2.3-3.5c-0.1-0.1-0.2-0.1-0.3-0.1c0.7,1,1.2,2,1.6,3.1
		c0.4,1.1,0.7,2.2,0.6,3.4c-3-1.1-5.1-5.9-4.1-8.9c0.1,0,0.2,0,0.2,0.1c1.2,0.5,2.3,1.2,3.3,2.1c1.8,1.7,2.2,3.8,1.5,6.1
		C250.7,93.9,250.7,94,250.6,94.1C250.7,94.1,250.7,94.1,250.6,94.1"/>
	<path class="st0" d="M179.9,112.4c-2.4-2.9-2.7-6.8-0.5-9.9c1.1,2.2,1.4,4.5,1,6.9c0.1-0.1,0.2-0.2,0.2-0.3
		c0.7-1.4,0.8-2.8,0.4-4.2c-0.2-0.6-0.4-1.2-0.6-1.9c0-0.1-0.1-0.3-0.2-0.5c0.1,0.1,0.2,0.1,0.2,0.1c1.6,1.7,2.3,3.6,1.6,5.9
		C181.6,109.9,180.8,111.2,179.9,112.4"/>
	<path class="st0" d="M187.9,107.4c1.4-1.7,4.4-3.4,5.7-3.4c-0.6,3.2-4.6,6.2-7.9,5.8c0-0.1,0-0.1,0-0.2c0.3-1.5,0.8-2.9,1.6-4.1
		c1.3-1.9,3.2-2.6,5.4-2.4c0.1,0,0.1,0,0.3,0.1c-0.2,0.1-0.3,0.1-0.4,0.2c-0.6,0.2-1.3,0.5-1.9,0.7c-1.4,0.6-2.4,1.6-3,3
		c-0.1,0.1-0.1,0.3-0.2,0.4c0,0,0.1,0,0.1,0.1C187.8,107.5,187.9,107.5,187.9,107.4"/>
	<path class="st0" d="M141.2,98.1c-0.1-0.2-0.2-0.4-0.3-0.5c-0.4-0.7-0.8-1.3-1.3-2c-0.8-1.1-2-1.7-3.3-2c0,0-0.1,0-0.2,0
		c0,0,0,0-0.1,0c1.1,0.6,2,1.3,2.8,2.2c0.8,0.9,1.5,1.8,1.9,2.9c-3.7-0.3-6.6-3-7.3-6.6c0.7-0.1,1.4,0,2,0.1
		c1.2,0.2,2.4,0.5,3.5,1.3c1.5,1.1,2.2,2.6,2.4,4.4C141.2,97.9,141.2,97.9,141.2,98.1"/>
	<path class="st0" d="M177.6,93.8c-3.3-0.4-6.7-4.2-6.6-7.4c0.4,0,0.7,0.1,1.1,0.1c1.1,0.2,2.2,0.5,3.3,1.1c2,1.1,3.1,3.3,2.9,5.6
		c-0.1-0.2-0.2-0.3-0.2-0.4c-0.4-0.8-0.7-1.5-1.2-2.3c-0.7-1.1-1.6-1.8-2.8-2.2c-0.1,0-0.2-0.1-0.2-0.1c0,0-0.1,0-0.2,0
		c0.9,0.7,1.7,1.5,2.4,2.4C176.6,91.6,177.2,92.6,177.6,93.8"/>
	<path class="st0" d="M146.6,66.2c-0.3-0.6-0.5-1.1-0.8-1.6c-0.3-0.7-0.7-1.3-1.2-1.8c-0.7-0.7-1.7-1.3-2.7-1.5
		c2,1.5,3.3,3.3,4.2,5.7c-1.7-0.4-3.2-1.1-4.3-2.3c-1.4-1.4-2-3.1-2.3-5.1c0.1,0,0.2-0.1,0.3,0c1.4,0.2,2.7,0.5,3.9,1.1
		c2.1,1.2,3.1,3,3.1,5.3C146.7,66.1,146.7,66.1,146.6,66.2C146.7,66.2,146.7,66.2,146.6,66.2"/>
	<path class="st0" d="M141.6,111.4c1.3-2.2,3-3.7,5.2-4.7c-0.2,1.6-0.7,3.1-1.7,4.4c-1.3,1.6-2.9,2.4-4.9,2.9c0-0.4,0-0.7,0-1
		c0.1-1.2,0.3-2.5,0.8-3.6c1-2.1,2.7-3.1,4.9-3.3c0.1,0,0.1,0,0.3,0c-0.2,0.1-0.3,0.2-0.4,0.3c-0.6,0.4-1.3,0.8-1.9,1.2
		c-1.3,0.9-2,2.1-2.3,3.6C141.6,111.3,141.6,111.3,141.6,111.4"/>
	<path class="st0" d="M214.1,94.7c0.2-1.2,0.7-2.3,1.3-3.3c0.6-1,1.3-1.9,2.2-2.7c-0.2,0.1-0.3,0.1-0.5,0.2
		c-1.3,0.6-2.2,1.6-2.8,2.9c-0.3,0.6-0.5,1.2-0.7,1.8c-0.1,0.2-0.1,0.3-0.2,0.5c-0.2-0.6-0.1-1.1-0.1-1.7c0.2-1.7,1.1-3.1,2.5-4.1
		c1.2-0.8,2.5-1.2,3.9-1.5c0,0,0.1,0,0.2,0c0,1.6-0.4,3-1.2,4.4C217.8,92.8,216,94.2,214.1,94.7"/>
	<path class="st0" d="M236.7,79.5c0.9-2.3,2.4-4,4.3-5.5c-0.2,0.1-0.4,0.1-0.6,0.2c-1.2,0.4-2.1,1.1-2.8,2.1
		c-0.4,0.7-0.8,1.4-1.2,2.1c-0.1,0.1-0.2,0.3-0.3,0.4c0-0.1,0-0.2,0-0.3c0.1-2.4,1.3-4.2,3.5-5.2c1.2-0.5,2.4-0.7,3.7-0.8
		c0.1,0,0.2,0,0.2,0C243.1,76.1,240.5,79,236.7,79.5"/>
	<path class="st0" d="M258.2,88.1c-1.1,0.8-1.8,1.9-2.1,3.2c-0.2,0.8-0.3,1.6-0.4,2.4c0,0.1,0,0.2-0.1,0.4c-0.1-0.2-0.2-0.3-0.2-0.4
		c-0.7-2.5-0.1-4.6,1.9-6.4c0.9-0.8,1.8-1.3,2.9-1.8c0.1,0,0.2-0.1,0.2-0.1c0.9,3.5-0.7,7.2-4,9c0-0.2,0-0.4,0-0.6
		c0.2-2.1,0.8-4,2-5.7c0.1-0.1,0.2-0.2,0.2-0.5C258.5,87.9,258.3,88,258.2,88.1"/>
	<path class="st0" d="M166.3,88.9c1.2,1.6,1.8,3.3,2.2,5.2c0.1,0.4,0.1,0.8,0.1,1.3c-3.3-1.7-4.9-5.3-4.1-8.9c0.1,0,0.2,0,0.3,0.1
		c1.2,0.5,2.3,1.2,3.2,2c1.8,1.7,2.3,3.8,1.5,6.2c0,0,0,0.1-0.1,0.2c0-0.2-0.1-0.3-0.1-0.4c-0.1-0.8-0.2-1.7-0.4-2.5
		C168.4,90.7,167.5,89.6,166.3,88.9"/>
	<path class="st0" d="M177,43.1c1.8,0.7,3.2,1.8,4.5,3.2c0.3,0.4,0.6,0.8,0.9,1.2c-1,0.3-3.4-0.2-4.7-1c-1.7-1-2.8-2.5-3.6-4.4
		c0.8-0.2,1.5-0.2,2.2-0.2c0.9,0,1.7,0.1,2.5,0.3c2.2,0.7,3.4,2.2,4,4.4c0,0,0,0.1,0,0.1c0,0,0,0-0.1,0.1c-0.1-0.2-0.3-0.3-0.4-0.5
		c-0.5-0.6-1.1-1.2-1.6-1.8C179.7,43.5,178.4,43.1,177,43.1"/>
	<path class="st0" d="M171.5,115.6c1.5-0.8,2.3-2,2.7-3.6c0.2-0.6,0.3-1.2,0.4-1.7c0-0.1,0.1-0.3,0.2-0.4c0.2,0.4,0.2,0.8,0.3,1.2
		c0.2,2-0.6,3.6-2.1,4.9c-1.1,0.9-2.4,1.5-3.8,2c-0.2-1.8,0.1-3.5,1-5.1c0.8-1.5,2.8-3.2,3.9-3.5c0.1,1.5-1.1,4.4-2.7,6.1
		c-0.1,0.1-0.1,0.1-0.2,0.2c0,0,0,0,0.1,0.1C171.3,115.6,171.4,115.6,171.5,115.6"/>
	<path class="st0" d="M246.3,106c1.3,0.4,2.4,1,3.3,2.2c0.7,0.9,1,2,1.1,3.2c0.1,1.1,0,2.3-0.2,3.4c0,0.1,0,0.1-0.1,0.3
		c-1.5-0.7-2.7-1.6-3.7-3c-1.1-1.6-1.5-3.5-1.4-5.5c0.3,0,0.4,0.1,0.5,0.2c1.6,1.3,2.8,2.9,3.5,4.9c0,0.1,0.1,0.2,0.2,0.3
		c0.1-0.9-0.1-1.7-0.4-2.5c-0.3-0.7-0.8-1.3-1.3-1.9c-0.4-0.4-0.8-0.7-1.2-1.1C246.5,106.4,246.4,106.2,246.3,106
		C246.3,106.1,246.3,106.1,246.3,106"/>
	<path class="st0" d="M243.8,97.5c-0.1-0.4-0.1-0.8-0.2-1.2c-0.1-0.6-0.2-1.3-0.4-1.9c-0.4-1.2-1.1-2.2-2.2-2.9
		c-0.1,0-0.1-0.1-0.2-0.1c0,0,0,0-0.1,0c1.4,1.9,2.2,4.1,2.3,6.5c-0.9-0.2-2.5-1.7-3.3-3.1c-1.1-1.8-1.2-3.8-0.9-5.8
		c0.1,0,0.2,0,0.2,0c1.4,0.6,2.7,1.4,3.8,2.5c1.5,1.7,1.8,3.6,1.1,5.7c0,0,0,0.1-0.1,0.1C243.9,97.4,243.9,97.5,243.8,97.5"/>
	<path class="st0" d="M191.7,91c1.7,1.5,2.8,3.4,3.4,5.6c-1,0-2.9-1.3-3.8-2.2c-1.5-1.6-2.1-3.5-2.2-5.7c0.1,0,0.2,0,0.2,0
		c1.3,0.3,2.6,0.7,3.7,1.4c2.1,1.3,2.9,3.1,2.8,5.5c0,0.1,0,0.2,0,0.3c0,0,0,0.1-0.1,0.2c-0.1-0.2-0.2-0.4-0.2-0.6
		c-0.3-0.8-0.6-1.6-1-2.3c-0.6-1.1-1.4-1.8-2.5-2.3c-0.2-0.1-0.3-0.2-0.6-0.1C191.5,90.9,191.6,90.9,191.7,91"/>
	<path class="st0" d="M153.2,58.2c-0.1,0.1-0.2,0.2-0.3,0.3c-0.8,1-1.1,2.2-1.1,3.4c0,0.9,0.2,1.8,0.3,2.7c0,0.1,0,0.2,0,0.4
		c-0.1-0.1-0.2-0.1-0.2-0.2c-1.2-1.8-1.6-3.7-0.7-5.7c0.7-1.5,1.8-2.7,3.1-3.8c0.8,1.6,1.2,3.3,1,5c-0.2,1.9-1.1,3.4-2.4,4.8
		c-0.4-1.2-0.5-2.4-0.4-3.5C152.7,60.4,152.9,59.3,153.2,58.2"/>
	<path class="st0" d="M267.1,107.7c-0.8-1.3-2-2.1-3.5-2.5c-0.7-0.2-1.3-0.3-2-0.4c-0.1,0-0.2,0-0.3-0.1c0.2-0.1,0.3-0.1,0.4-0.1
		c2.4-0.6,4.4,0,6.1,1.8c0.9,1,1.4,2.1,1.9,3.3c0,0.1,0,0.1,0,0.3c-1.7,0.2-3.4,0.1-4.9-0.7c-1.7-0.8-2.9-2.1-3.9-3.8
		c1.3-0.3,4.4,0.8,6.2,2.2c0.1,0.1,0.2,0.2,0.3,0.3c0,0,0.1-0.1,0.1-0.1C267.3,107.9,267.2,107.8,267.1,107.7"/>
	<path class="st0" d="M148.1,62.4c0,0.1-0.1,0.1-0.1,0.2c-0.2-0.2-0.3-0.4-0.5-0.6C147.8,62.1,148,62.2,148.1,62.4"/>
	<path class="st0" d="M252,62.6c0,0-0.1-0.1-0.1-0.1c0.2-0.2,0.3-0.4,0.5-0.5c0,0,0.1,0.1,0.1,0.1C252.3,62.2,252.1,62.4,252,62.6"
		/>
	<path class="st0" d="M125,95.4l-0.1,0.1c-0.2-0.2-0.4-0.3-0.5-0.5c0,0,0-0.1,0.1-0.1C124.6,95.1,124.8,95.2,125,95.4"/>
	<path class="st0" d="M275.5,95.3c0,0-0.1-0.1-0.1-0.1c0.2-0.1,0.3-0.3,0.5-0.4C275.8,95,275.7,95.2,275.5,95.3"/>
	<path class="st0" d="M267.1,68.1c0,0-0.1-0.1-0.1-0.1c0.1-0.1,0.3-0.2,0.4-0.3c0,0,0.1,0.1,0.1,0.1C267.4,67.9,267.3,68,267.1,68.1
		"/>
	<path class="st0" d="M191.7,91c-0.1-0.1-0.2-0.1-0.4-0.3c0.3-0.1,0.4,0,0.6,0.1C191.9,90.9,191.8,91,191.7,91"/>
	<path class="st0" d="M183.2,32.1c0,0-0.1,0.1-0.1,0.1c-0.1-0.1-0.2-0.2-0.3-0.4c0,0,0.1-0.1,0.1-0.1C183,31.9,183.1,32,183.2,32.1"
		/>
	<path class="st0" d="M258.2,88.1c0.1-0.1,0.2-0.2,0.4-0.3c0,0.3-0.1,0.4-0.2,0.5C258.3,88.2,258.3,88.1,258.2,88.1"/>
	<path class="st0" d="M267.1,107.7c0.1,0.1,0.2,0.2,0.2,0.3c0,0-0.1,0.1-0.1,0.1c-0.1-0.1-0.2-0.2-0.3-0.3
		C267.1,107.8,267.1,107.7,267.1,107.7"/>
	<path class="st0" d="M182.6,88.9c-0.1-0.1-0.2-0.1-0.3-0.2l0.1-0.1c0.1,0.1,0.3,0.1,0.4,0.2L182.6,88.9z"/>
	<path class="st0" d="M208.2,70c0.1-0.1,0.3-0.1,0.4-0.2c0,0,0,0.1,0.1,0.1c-0.1,0.1-0.2,0.1-0.3,0.2
		C208.4,70.1,208.3,70.1,208.2,70"/>
	<path class="st0" d="M131.3,77.8c-0.1,0.1-0.2,0.2-0.2,0.2c0,0-0.1,0-0.1-0.1c0.1-0.1,0.1-0.2,0.2-0.3
		C131.3,77.7,131.3,77.7,131.3,77.8"/>
	<path class="st0" d="M187.9,107.4c-0.1,0.1-0.1,0.2-0.2,0.2c0,0-0.1,0-0.1-0.1c0.1-0.1,0.1-0.3,0.2-0.4L187.9,107.4z"/>
	<path class="st0" d="M233.7,103.9c0,0.1-0.1,0.1-0.1,0.2c-0.1,0-0.2,0-0.2,0c0,0,0-0.1,0-0.1C233.5,103.9,233.6,103.9,233.7,103.9"
		/>
	<path class="st0" d="M133,107.9c-0.1,0.1-0.1,0.1-0.2,0.2c0,0,0,0-0.1-0.1c0.1-0.1,0.1-0.2,0.2-0.2
		C132.9,107.8,132.9,107.8,133,107.9"/>
	<path class="st0" d="M171.5,115.6c-0.1,0-0.2,0.1-0.2,0.1c0,0,0,0-0.1-0.1c0.1-0.1,0.1-0.1,0.2-0.2
		C171.4,115.5,171.4,115.5,171.5,115.6"/>
	<path class="st0" d="M225.4,110c-0.1,0-0.1,0-0.2,0c0-0.1,0.1-0.2,0.1-0.2C225.3,109.8,225.3,109.9,225.4,110"/>
	<path class="st0" d="M213.8,84.1c0.1,0.1,0.2,0.1,0.3,0.2c0,0,0,0.1,0,0.1l-0.3-0.1L213.8,84.1z"/>
</g>
</svg>
