<?xml version="1.0" encoding="utf-8"?>
<!-- Generator: Adobe Illustrator 23.0.1, SVG Export Plug-In . SVG Version: 6.00 Build 0)  -->
<svg version="1.1" id="Layer_1" xmlns="http://www.w3.org/2000/svg" xmlns:xlink="http://www.w3.org/1999/xlink" x="0px" y="0px"
	 viewBox="0 0 400 200" style="enable-background:new 0 0 400 200;" xml:space="preserve">
<style type="text/css">
	.st0{fill:#909496;}
	.st1{fill:#365888;}
</style>
<g>
	<path class="st0" d="M224.9,60.9v-3c0-0.4-0.1-0.8-0.4-1.1c-0.3-0.3-0.7-0.5-1.2-0.5c-0.5,0-1,0.3-1.3,0.8
		c-0.3,0.4-0.5,0.9-0.5,1.5c0,0.6,0.1,1.1,0.4,1.5c0.3,0.5,0.8,0.8,1.3,0.8L224.9,60.9z M227.7,61.9h-2c-0.3,1.5-1.3,2.2-2.9,2.3v-1
		h0.1c0.9,0,1.5-0.5,1.7-1.4h-1.6c-0.8,0-1.5-0.3-2-0.9c-0.5-0.6-0.8-1.4-0.8-2.3c0-0.9,0.3-1.7,0.8-2.3c0.6-0.6,1.2-0.9,2.1-0.9
		c1.6,0,2.6,1,2.6,2.9v2.7h1.9V61.9z"/>
	<path class="st0" d="M230.9,64.1h-1v-1.2h1V64.1z M229,64.1h-1v-1.2h1V64.1z M230.9,55.4v4c0,1.7-0.7,2.5-2.1,2.5h-1.3v-1h0.9
		c0.6,0,1-0.2,1.2-0.6c0.1-0.3,0.2-0.7,0.2-1.4v-3.5H230.9z"/>
	<rect x="233.2" y="52.7" class="st0" width="1" height="9.2"/>
	<path class="st0" d="M240.7,61.9h-2.5c-0.3,1.5-1.2,2.2-2.9,2.3v-1c1.3,0,2-0.7,2-2.4v-5.4h1v5.5h2.4V61.9z"/>
	<path class="st0" d="M249.9,60.5v1.4H240v-1h8.7c0-0.2,0-0.3,0-0.5c0-1.1-0.3-2-0.8-2.6c-0.6-0.8-1.5-1.2-2.7-1.2h-2.9
		c0.5-0.9,1.2-2.2,2.2-3.9h1.2l-1.7,2.9h1.3c1.4,0,2.6,0.4,3.5,1.3C249.5,57.8,249.9,59,249.9,60.5"/>
	<path class="st0" d="M263.7,53.1h-1v-1.2h1V53.1z M263.3,60c1.2-0.5,2-1.5,2-2.7c0-1.2-0.8-2-2-2c-1.2,0-2,0.9-2,1.9
		C261.3,58.4,262.1,59.4,263.3,60 M268.1,61.9h-1.4c-2,0-2.2-0.1-3.3-0.8c-1.1,0.7-1.4,0.8-3.4,0.8h-2.3c-2.7,0-4.1-1.4-4.1-4.2
		v-2.1h1v2.1c0,2.1,1,3.2,3,3.2h3.3c0.5,0,1-0.1,1.5-0.3c-1.2-0.6-2-1.8-2-3.1c0-1.7,1.3-3,3.1-3c1.8,0,3.1,1.2,3.1,3
		c0,1.4-0.8,2.5-2,3.1c0.4,0.2,0.9,0.3,1.5,0.3h2.3V61.9z"/>
	<path class="st0" d="M271.1,52.7v6.7c0,1.7-0.7,2.5-2.1,2.5h-1.2v-1h0.9c0.6,0,1-0.2,1.2-0.6c0.1-0.3,0.2-0.7,0.2-1.4v-6.3H271.1z"
		/>
	<path class="st0" d="M276.1,61.9H275c-0.5,0-0.9-0.2-1.3-0.5c-0.4-0.4-0.6-1-0.6-1.7v-7h1V59c0,0.7,0.1,1.1,0.3,1.4
		c0.2,0.2,0.4,0.4,0.8,0.4c0.1,0,0.2,0,0.9,0V61.9z"/>
	<path class="st0" d="M281.7,64.1h-1v-1.2h1V64.1z M285.7,60.5v1.4h-9.9v-1h8.7c0-0.2,0-0.4,0-0.5c0-2.4-1.3-3.8-3.5-3.8
		c-1.2,0-2.1,0.5-2.7,1.4c-0.1-0.2-0.4-0.4-0.9-0.9c0.8-1,2-1.5,3.5-1.5C283.8,55.6,285.7,57.5,285.7,60.5"/>
	<path class="st1" d="M225.5,135.5h-5v-27.2h5V135.5z M238.8,113.3c-8.5,0-11.5,5.4-11.5,5.4c0-10.1,11.5-10.4,11.5-10.4V113.3z"/>
	<path class="st0" d="M216.8,77.9h-9.9c0,0,4.5,2.1,4.9,5.7v7.5c0,2.6-1.6,3.9-3.4,4.6c-0.8,0.3-1.7,0.4-2.5,0.5
		c1.9,0.3,3.9,0.8,6,1.6c3.1-1.9,4.5-4.2,4.9-4.8L216.8,77.9z M202.2,65.9c6,0,10.3,1.4,14.6,6.6v-5.8c-4.3-3.5-10-4.7-14.6-4.7
		c-5.6,0-10.2,1.8-13.8,5.5c-3.5,3.6-5.3,8.3-5.3,13.9c0,5.1,1.7,9.5,5.1,13.1c1.4,1.4,2.9,2.6,4.6,3.5c1.8-0.8,4.4-1.7,7.6-2
		c-6.1-1.2-12.1-7.3-12.1-14.9C188.3,72.7,195,65.9,202.2,65.9"/>
	<path class="st0" d="M230.7,96.4c-3.4-0.8-5.2-3.3-5.2-6.9V73h-5v18.1c0,3.2,1.7,7.1,6,8.6c5,1.7,9.9-1.2,10.8-4
		c0.4-1.2,0.3-1.8,0.3-1.8S235.4,97.6,230.7,96.4 M239.8,100.2h5V73h-5V100.2z"/>
	<path class="st1" d="M242.4,108.3h6.1l11,20.3l8-20.3h5.6L259,143c-0.5,1.3-3.5,8-10.4,6.4c-3-0.7-4.6-3.2-4.6-3.2s3.9,1.4,7.2-1.1
		c3.2-2.2,5.9-10.9,5.9-10.9L242.4,108.3z"/>
	<path class="st1" d="M216.8,107.9c-4.3-5.2-8.6-6.6-14.6-6.6c-7.2,0-13.9,6.8-13.9,15.2c0,8.4,7.3,14.9,13.9,15.2
		c3.9,0.1,8-0.6,14.6-3.2c-0.7,1-4.2,7.2-14.5,7.2c-5.7,0-10.4-1.9-14-5.8c-3.4-3.6-5.1-8-5.1-13.1c0-5.6,1.8-10.3,5.3-13.9
		c3.6-3.7,8.2-5.5,13.8-5.5c4.6,0,10.2,1.2,14.6,4.7V107.9z"/>
	<path class="st1" d="M295.8,112c2.6,2.6,3.9,5.8,3.9,9.9c0,4-1.3,7.3-3.9,9.9c-2.6,2.5-5.8,3.7-9.6,3.7c-4.1,0-7.4-1.4-10-4.1
		c-2.4-2.6-3.6-5.7-3.6-9.3c0-4,1.3-7.3,3.8-9.9c2.5-2.6,5.8-3.9,9.8-3.9C290,108.3,293.2,109.5,295.8,112 M277.6,121.8
		c0,6,3.8,10.8,8.5,10.8c4.7,0,8.5-4.8,8.5-10.8c0-6-3.8-10.8-8.5-10.8C281.4,111.1,277.6,115.9,277.6,121.8"/>
	<path class="st0" d="M248.5,91.1V64.8h5l0,24.7c0,3.6,1.8,6.1,5.2,6.9c4.7,1.2,6.9-2.5,6.9-2.5s0.1,0.6-0.3,1.8
		c-0.9,2.8-5.8,5.7-10.8,4C250.2,98.2,248.5,94.3,248.5,91.1"/>
	<path class="st0" d="M269.4,73.9c0-3.2,1.7-7.1,6-8.6c5-1.7,9.9,1.2,10.8,4c0.4,1.2,0.3,1.8,0.3,1.8s-2.2-3.7-6.9-2.5
		c-3.4,0.8-5.2,3.3-5.2,6.9v2.9h9v2.3h-9v19.5h-5V80.8h-3.8v-2.3h3.8V73.9z"/>
	<path class="st1" d="M99.7,61.9h73.6v73.6h-26.6c13.2-5.9,22.2-18.6,22.2-33.2c0-20.3-17.4-36.8-38.9-36.8
		c-12.3,0-23.3,5.4-30.4,13.8V61.9z M116.9,135.6H99.7v-10.9c5.1,5.2,12.7,7,22.2,5.2c-9.4-4-16.1-14.8-16.1-27.5
		c0-16.1,10.9-29.2,24.3-29.2s24.3,13.1,24.3,29.2c0,10.3-4.5,19.4-11.2,24.6C141.7,128.3,134.4,134.4,116.9,135.6"/>
</g>
</svg>
