<?xml version="1.0" encoding="utf-8"?>
<!-- Generator: Adobe Illustrator 23.0.1, SVG Export Plug-In . SVG Version: 6.00 Build 0)  -->
<svg version="1.1" id="Layer_1" xmlns="http://www.w3.org/2000/svg" xmlns:xlink="http://www.w3.org/1999/xlink" x="0px" y="0px"
	 viewBox="0 0 400 200" style="enable-background:new 0 0 400 200;" xml:space="preserve">
<style type="text/css">
	.st0{fill:#DF1766;}
	.st1{fill:#231F20;}
	.st2{fill:#808184;}
</style>
<g>
	<rect x="90.1" y="68.8" class="st0" width="8" height="8"/>
	<rect x="90.1" y="80.5" class="st1" width="8" height="25.2"/>
	<path class="st1" d="M110,87.5v-0.1c0-10.4,7.9-19,19.1-19c6.9,0,11.1,2.3,14.5,5.7l-5.1,5.9c-2.8-2.6-5.7-4.1-9.4-4.1
		c-6.2,0-10.6,5.1-10.6,11.4v0.1c0,6.3,4.3,11.5,10.6,11.5c4.2,0,6.8-1.7,9.6-4.3l5.1,5.2c-3.8,4-8,6.5-15,6.5
		C118,106.4,110,98,110,87.5"/>
	<path class="st1" d="M168.1,68.8h7.4l15.7,36.9h-8.4l-3.4-8.2h-15.5l-3.4,8.2h-8.2L168.1,68.8z M176.6,90.4l-4.9-11.9l-4.9,11.9
		H176.6z"/>
	<polygon class="st1" points="206,76.5 194.8,76.5 194.8,69.1 225.2,69.1 225.2,76.5 214,76.5 214,105.8 206,105.8 	"/>
	<path class="st1" d="M233.5,87.5v-0.1c0-10.4,7.9-19,19.1-19c6.9,0,11.1,2.3,14.5,5.7l-5.1,5.9c-2.8-2.6-5.7-4.1-9.4-4.1
		c-6.2,0-10.6,5.1-10.6,11.4v0.1c0,6.3,4.3,11.5,10.6,11.5c4.2,0,6.8-1.7,9.6-4.3l5.1,5.2c-3.8,4-8,6.5-15,6.5
		C241.5,106.4,233.5,98,233.5,87.5"/>
	<polygon class="st1" points="279,69.1 287.1,69.1 287.1,83.6 301.9,83.6 301.9,69.1 310,69.1 310,105.8 301.9,105.8 301.9,91 
		287.1,91 287.1,105.8 279,105.8 	"/>
	<polygon class="st2" points="90,120.2 91.3,120.2 95.3,126.3 99.4,120.2 100.7,120.2 100.7,131.4 99.4,131.4 99.4,122.3 
		95.4,128.3 95.3,128.3 91.2,122.3 91.2,131.4 90,131.4 	"/>
	<path class="st2" d="M108.5,120.1h1.2l5.1,11.2h-1.4l-1.3-3H106l-1.3,3h-1.3L108.5,120.1z M111.6,127.3l-2.5-5.7l-2.5,5.7H111.6z"
		/>
	<polygon class="st2" points="117.5,120.2 118.8,120.2 118.8,126.9 125.2,120.2 126.8,120.2 122,125.1 127,131.4 125.4,131.4 
		121.2,125.9 118.8,128.4 118.8,131.4 117.5,131.4 	"/>
	<rect x="129.6" y="120.2" class="st2" width="1.3" height="11.2"/>
	<polygon class="st2" points="134.7,120.2 135.9,120.2 142.9,129.1 142.9,120.2 144.2,120.2 144.2,131.4 143.2,131.4 136,122.2 
		136,131.4 134.7,131.4 	"/>
	<path class="st2" d="M147.4,125.8L147.4,125.8c0-3.1,2.2-5.8,5.6-5.8c1.9,0,3,0.5,4.2,1.5l-0.8,1c-0.9-0.7-1.8-1.3-3.4-1.3
		c-2.5,0-4.2,2.1-4.2,4.6v0c0,2.7,1.7,4.6,4.4,4.6c1.3,0,2.5-0.5,3.2-1.1v-2.8h-3.4v-1.1h4.6v4.4c-1,0.9-2.6,1.7-4.5,1.7
		C149.5,131.5,147.4,129,147.4,125.8"/>
	<path class="st2" d="M166.3,120.2h4.7c1.3,0,2.3,0.4,2.9,1c0.5,0.5,0.7,1.1,0.7,1.8v0c0,1.5-0.9,2.2-1.8,2.6
		c1.3,0.4,2.4,1.2,2.4,2.7v0c0,1.9-1.6,3-4,3h-5V120.2z M170.8,125.2c1.5,0,2.6-0.7,2.6-2v0c0-1.1-0.9-1.8-2.5-1.8h-3.4v3.8H170.8z
		 M171.2,130.2c1.7,0,2.7-0.7,2.7-2v0c0-1.2-1-1.9-3-1.9h-3.5v3.9H171.2z"/>
	<path class="st2" d="M178.3,120.2h4.8c1.4,0,2.5,0.4,3.2,1.1c0.5,0.5,0.9,1.3,0.9,2.2v0c0,1.8-1.3,2.9-3,3.3l3.4,4.6H186l-3.2-4.3
		h-3.2v4.3h-1.3V120.2z M183,125.9c1.7,0,2.9-0.9,2.9-2.3v0c0-1.4-1.1-2.2-2.9-2.2h-3.4v4.5H183z"/>
	<path class="st2" d="M194.5,120.1h1.2l5.1,11.2h-1.4l-1.3-3H192l-1.3,3h-1.3L194.5,120.1z M197.6,127.3l-2.5-5.7l-2.5,5.7H197.6z"
		/>
	<polygon class="st2" points="203.5,120.2 204.7,120.2 211.7,129.1 211.7,120.2 213,120.2 213,131.4 212,131.4 204.8,122.2 
		204.8,131.4 203.5,131.4 	"/>
	<path class="st2" d="M216.7,120.2h3.9c3.5,0,5.9,2.4,5.9,5.5v0c0,3.1-2.4,5.6-5.9,5.6h-3.9V120.2z M220.5,130.2
		c2.8,0,4.6-1.9,4.6-4.4v0c0-2.5-1.8-4.4-4.6-4.4h-2.6v8.8H220.5z"/>
	<path class="st2" d="M228.8,129.7l0.8-0.9c1.2,1.1,2.3,1.6,3.8,1.6c1.5,0,2.5-0.8,2.5-1.9v0c0-1-0.6-1.6-2.9-2.1
		c-2.6-0.6-3.7-1.4-3.7-3.2v0c0-1.8,1.6-3,3.7-3c1.6,0,2.8,0.5,3.9,1.4l-0.7,1c-1-0.8-2.1-1.2-3.2-1.2c-1.5,0-2.4,0.8-2.4,1.8v0
		c0,1.1,0.6,1.6,3,2.2c2.5,0.5,3.6,1.5,3.6,3.2v0c0,1.9-1.6,3.2-3.8,3.2C231.6,131.5,230.1,130.9,228.8,129.7"/>
	<polygon class="st2" points="244.7,120.2 246.1,120.2 250,129.8 254,120.2 255.4,120.2 250.6,131.4 249.5,131.4 	"/>
	<rect x="258.2" y="120.2" class="st2" width="1.3" height="11.2"/>
	<path class="st2" d="M262.6,129.7l0.8-0.9c1.2,1.1,2.3,1.6,3.8,1.6c1.5,0,2.5-0.8,2.5-1.9v0c0-1-0.6-1.6-2.9-2.1
		c-2.6-0.6-3.7-1.4-3.7-3.2v0c0-1.8,1.5-3,3.7-3c1.6,0,2.8,0.5,3.9,1.4l-0.7,1c-1-0.8-2.1-1.2-3.2-1.2c-1.5,0-2.4,0.8-2.4,1.8v0
		c0,1.1,0.6,1.6,3,2.2c2.5,0.5,3.6,1.5,3.6,3.2v0c0,1.9-1.6,3.2-3.8,3.2C265.4,131.5,263.9,130.9,262.6,129.7"/>
	<rect x="274.2" y="120.2" class="st2" width="1.3" height="11.2"/>
	<path class="st2" d="M279.3,120.2h4.7c1.3,0,2.3,0.4,2.9,1c0.5,0.5,0.7,1.1,0.7,1.8v0c0,1.5-0.9,2.2-1.8,2.6
		c1.3,0.4,2.4,1.2,2.4,2.7v0c0,1.9-1.6,3-4,3h-5V120.2z M283.8,125.2c1.5,0,2.6-0.7,2.6-2v0c0-1.1-0.9-1.8-2.5-1.8h-3.4v3.8H283.8z
		 M284.2,130.2c1.7,0,2.7-0.7,2.7-2v0c0-1.2-1-1.9-3-1.9h-3.5v3.9H284.2z"/>
	<polygon class="st2" points="291.3,120.2 292.6,120.2 292.6,130.2 298.9,130.2 298.9,131.4 291.3,131.4 	"/>
	<polygon class="st2" points="301.7,120.2 309.8,120.2 309.8,121.3 303,121.3 303,125.2 309.1,125.2 309.1,126.3 303,126.3 
		303,130.2 309.9,130.2 309.9,131.4 301.7,131.4 	"/>
</g>
</svg>
