<svg width="250" height="125" viewBox="0 0 250 125" fill="none" xmlns="http://www.w3.org/2000/svg">
<g clip-path="url(#clip0_1_11)">
<path d="M134.094 52.4056C142.754 52.4056 149.663 59.3629 149.663 68.023C149.663 76.6831 142.754 83.5917 134.094 83.5917C125.434 83.5917 118.525 76.6831 118.525 68.023C118.525 59.3629 125.434 52.4056 134.094 52.4056ZM134.094 77.948C139.543 77.948 144.068 73.4721 144.068 68.023C144.068 62.574 139.543 58.0007 134.094 58.0007C128.645 58.0007 124.169 62.5253 124.169 68.023C124.169 73.4721 128.645 77.948 134.094 77.948Z" fill="#122023"/>
<path d="M150.295 53.9625C150.052 53.3787 150.392 52.8435 151.024 52.8435H155.452C155.841 52.8435 156.085 53.0868 156.181 53.33L164.501 71.9638H164.793L173.112 53.33C173.21 53.1354 173.453 52.8435 173.843 52.8435H178.269C178.902 52.8435 179.243 53.4273 178.999 53.9625L165.572 83.1052C165.426 83.3484 165.231 83.5917 164.841 83.5917H164.404C164.015 83.5917 163.819 83.3971 163.674 83.1052L150.295 53.9625Z" fill="#122023"/>
<path d="M195.152 52.4056C203.812 52.4056 210.721 59.3629 210.721 68.023C210.721 76.6831 203.812 83.5917 195.152 83.5917C186.493 83.5917 179.584 76.6831 179.584 68.023C179.632 59.3629 186.493 52.4056 195.152 52.4056ZM195.152 77.948C200.602 77.948 205.126 73.4721 205.126 68.023C205.126 62.574 200.602 58.0007 195.152 58.0007C189.704 58.0007 185.228 62.5253 185.228 68.023C185.276 73.4721 189.704 77.948 195.152 77.948Z" fill="#122023"/>
<path d="M75.662 83.2998C75.2241 83.2998 74.8349 82.9593 74.8349 82.4727V66.0283C74.8349 61.0657 71.7697 57.8547 67.0019 57.8547C62.2826 57.8547 59.2175 61.0657 59.2175 66.0283V82.4727C59.2175 82.9106 58.8283 83.2998 58.3904 83.2998H54.3037C53.8657 83.2998 53.4766 82.9593 53.4766 82.4727V66.0283C53.4766 57.2709 58.2931 52.4543 67.0505 52.4543C75.8079 52.4543 80.6245 57.3196 80.6245 66.0283V82.4727C80.6245 82.9106 80.2352 83.2998 79.7974 83.2998H75.662Z" fill="#122023"/>
<path d="M108.843 83.2998C108.405 83.2998 108.015 82.9593 108.015 82.4727V66.0283C108.015 61.0657 104.95 57.8547 100.182 57.8547C95.4632 57.8547 92.3982 61.0657 92.3982 66.0283V82.4727C92.3982 82.9106 92.0089 83.2998 91.5711 83.2998H87.4843C87.0464 83.2998 86.6572 82.9593 86.6572 82.4727V66.0283C86.6572 57.2709 91.4738 52.4543 100.231 52.4543C108.989 52.4543 113.805 57.2709 113.805 66.0283V82.4727C113.805 82.9106 113.416 83.2998 112.978 83.2998H108.843Z" fill="#122023"/>
<path d="M43.8435 56.6384C45.9356 56.6384 47.687 54.9356 47.687 52.7949C47.687 50.7028 45.9842 48.9514 43.8435 48.9514C41.7028 49 40 50.7028 40 52.8435C40 54.9356 41.7028 56.6384 43.8435 56.6384Z" fill="#122023"/>
<path d="M40.9727 60.6765C40.9727 60.2387 41.3619 59.8495 41.7998 59.8495H45.8379C46.2757 59.8495 46.665 60.2387 46.665 60.6765V82.4728C46.665 82.9106 46.2757 83.2998 45.8379 83.2998H41.7998C41.3619 83.2998 40.9727 82.9106 40.9727 82.4728V60.6765Z" fill="#122023"/>
</g>
<defs>
<clipPath id="clip0_1_11">
<rect width="171" height="35" fill="white" transform="translate(40 49)"/>
</clipPath>
</defs>
</svg>
