<?xml version="1.0" encoding="utf-8"?>
<!-- Generator: Adobe Illustrator 23.0.1, SVG Export Plug-In . SVG Version: 6.00 Build 0)  -->
<svg version="1.1" id="Layer_1" xmlns="http://www.w3.org/2000/svg" xmlns:xlink="http://www.w3.org/1999/xlink" x="0px" y="0px"
	 viewBox="0 0 400 200" style="enable-background:new 0 0 400 200;" xml:space="preserve">
<style type="text/css">
	.st0{fill:#00A94F;}
	.st1{fill:#27318B;}
	.st2{fill:#7AC143;}
	.st3{fill:#00703C;}
</style>
<g>
	<path class="st0" d="M120.9,138.5c8.7-1,17.3-7.4,22.3-17.1c-0.9,0.5-1.7,0.9-2.7,1.3c-15,6-34.6-7.6-43.8-30.5
		c-0.6-1.4-1.1-2.8-1.5-4.2c0.9,16.3,5.7,30.5,17.7,43c2.7,2.8,5.7,5.6,8.9,8.1C121.4,138.9,121.2,138.7,120.9,138.5"/>
	<path class="st1" d="M128.3,56.2h-13.6c5.3,2.6,11.4,6.1,17.5,10.8c13.9,10.7,22.8,23.6,26.8,37.5c1.9-7,2.7-14.3,2.7-22.2V56.2
		H128.3z"/>
	<path class="st0" d="M133.7,68.2c-0.1,0-0.1,0.1-0.2,0.1c-7.6,5-14.3,11-20,17.9c5.7,3.6,11.7,8.2,17,13.9
		c5.1-7.8,10.9-14,16.4-18.8C143.2,76.7,138.8,72.3,133.7,68.2"/>
	<path class="st1" d="M143.2,121.4c-5,9.7-13.6,16-22.3,17.1c2.4,1.9,4.9,3.8,7.4,5.4c5.5-3.5,11-8.1,15.5-12.8
		c0.5-0.5,0.9-1,1.3-1.4C144.7,126.7,144,124,143.2,121.4"/>
	<path class="st2" d="M161.6,56.2L161.6,56.2c-5.6,1.3-16.3,4.5-27.9,12.1c5.1,4.1,9.5,8.5,13.2,13.1c5.7-5,11.1-8.5,14.7-10.7V56.2
		z"/>
	<path class="st1" d="M113.5,86.3c-5.8,7.1-10.5,15-14,23.7c2.8,7.5,7.1,14.5,13.3,21c1.4,1.4,2.8,2.8,4.3,4.2
		c2.1-14.1,7.2-25.7,13.3-35.1c-2.6-2.8-5.5-5.4-8.3-7.7C119.2,90.1,116.3,88.1,113.5,86.3"/>
	<path class="st3" d="M130.5,100.1c7.1,7.7,12.9,17.4,14.6,29.4c6.9-7.7,11.3-16,13.8-25.1c-2.3-8.1-6.3-15.9-12-23.1
		C141.4,86.2,135.6,92.4,130.5,100.1"/>
	<path class="st2" d="M133.4,68.4c0.1,0,0.1-0.1,0.2-0.1c-0.5-0.4-1-0.8-1.6-1.2c-6.1-4.7-12.2-8.2-17.5-10.8H95V77
		c4,1.5,11,4.5,18.5,9.2C119.1,79.4,125.8,73.4,133.4,68.4"/>
	<path class="st1" d="M174.8,58c0.2,0,0.5,0.1,0.8,0.1c0.2,0,0.5,0,0.8-0.1v11.8c-0.3,0-0.5-0.1-0.8-0.1c-0.3,0-0.5,0-0.8,0.1V58z"
		/>
	<path class="st1" d="M189.7,69.9h-0.5c-0.2-0.2-0.5-0.7-0.9-1.1l-7.5-8.3h-0.2v9.3c-0.2,0-0.3-0.1-0.5-0.1c-0.2,0-0.3,0-0.5,0.1V58
		h0.7l8.2,8.9h0.2V58c0.2,0,0.3,0.1,0.5,0.1c0.2,0,0.3,0,0.5-0.1V69.9z"/>
	<path class="st1" d="M197.1,69.9c-0.3,0-0.5-0.1-0.8-0.1c-0.3,0-0.5,0-0.8,0.1v-11c-1.7,0-2.8,0.1-3.8,0.2c0-0.2,0.1-0.3,0.1-0.5
		c0-0.2,0-0.3-0.1-0.5h8.9c0,0.2-0.1,0.3-0.1,0.5c0,0.2,0,0.3,0.1,0.5c-0.9-0.1-2.1-0.2-3.6-0.2L197.1,69.9L197.1,69.9z"/>
	<path class="st1" d="M204.1,63.2h2.7c0.5,0,1-0.1,1.5-0.1c0,0.1-0.1,0.3-0.1,0.4c0,0.1,0,0.3,0.1,0.5c-0.5,0-1-0.1-1.5-0.1h-2.7V69
		c1.1,0,2.1,0,3.1-0.1c0.5,0,1.1-0.1,1.6-0.2c0,0.2-0.1,0.3-0.1,0.5c0,0.2,0,0.3,0.1,0.5h-6.2V58h6.1c0,0.2-0.1,0.3-0.1,0.5
		c0,0.2,0,0.3,0.1,0.5c-0.5-0.1-1-0.2-1.6-0.2l-1.7,0h-1.3V63.2L204.1,63.2z"/>
	<path class="st1" d="M211.3,58h3.7c2.7,0,3.8,0.9,3.8,2.6c0,2-1.8,3-3.5,3.3l3.6,4.5l0.8,1l0.3,0.4c-0.4,0-0.7-0.1-1-0.1
		c-0.3,0-0.7,0-1,0.1c-0.4-0.5-0.7-1-1.1-1.5l-2-2.6l-1.4-1.6h-0.7v5.8c-0.3,0-0.5-0.1-0.8-0.1c-0.3,0-0.5,0-0.8,0.1L211.3,58
		L211.3,58z M212.8,63.4c0.2,0,1.4,0.1,2.2-0.1c1.3-0.3,2.2-1.1,2.2-2.5c0-1.2-0.6-2-1.9-2.2c-0.6-0.1-1.8-0.1-2.5,0V63.4z"/>
	<path class="st1" d="M232,69.9h-0.5c-0.2-0.2-0.5-0.7-0.9-1.1l-7.5-8.3H223v9.3c-0.2,0-0.3-0.1-0.5-0.1c-0.2,0-0.3,0-0.5,0.1V58
		h0.7l8.2,8.9h0.2V58c0.2,0,0.3,0.1,0.5,0.1c0.2,0,0.3,0,0.5-0.1V69.9z"/>
	<path class="st1" d="M244.7,69.9c-0.3,0-0.6-0.1-0.9-0.1c-0.3,0-0.6,0-0.9,0.1c-0.5-1.4-1.1-3.1-1.8-4.7h-4.4
		c-0.6,1.5-1.2,3-1.7,4.7c-0.2,0-0.4-0.1-0.6-0.1c-0.2,0-0.4,0-0.6,0.1l5.4-12.1h0.4L244.7,69.9z M238.9,60l-1.9,4.4h3.8L238.9,60z"
		/>
	<path class="st1" d="M249.3,69.9c-0.3,0-0.5-0.1-0.8-0.1c-0.3,0-0.5,0-0.8,0.1v-11c-1.7,0-2.8,0.1-3.8,0.2c0-0.2,0.1-0.3,0.1-0.5
		c0-0.2,0-0.3-0.1-0.5h8.9c0,0.2-0.1,0.3-0.1,0.5c0,0.2,0,0.3,0.1,0.5c-0.9-0.1-2.1-0.2-3.6-0.2V69.9z"/>
	<path class="st1" d="M254.9,58c0.2,0,0.5,0.1,0.8,0.1c0.2,0,0.5,0,0.8-0.1v11.8c-0.3,0-0.5-0.1-0.8-0.1c-0.3,0-0.5,0-0.8,0.1V58z"
		/>
	<path class="st1" d="M258.8,63.9c0-3.8,2.8-6.2,6.4-6.2c3.3,0,6.6,1.8,6.6,5.9c0,3.9-2.7,6.4-6.6,6.4
		C261.4,70.1,258.8,67.6,258.8,63.9 M269,60c-0.9-1.1-2.2-1.7-3.6-1.7c-3,0-4.9,2.3-4.9,5.8c0,3.5,2.1,5.3,4.7,5.3
		c3.6,0,5-3.8,4.8-5.7C270.1,62.4,269.9,61.2,269,60"/>
	<path class="st1" d="M284.2,69.9h-0.5c-0.2-0.2-0.5-0.7-0.9-1.1l-7.5-8.3h-0.2v9.3c-0.2,0-0.3-0.1-0.5-0.1c-0.2,0-0.3,0-0.5,0.1V58
		h0.7l8.2,8.9h0.2V58c0.2,0,0.3,0.1,0.5,0.1c0.2,0,0.3,0,0.5-0.1L284.2,69.9L284.2,69.9z"/>
	<path class="st1" d="M296.9,69.9c-0.3,0-0.6-0.1-0.9-0.1c-0.3,0-0.6,0-0.9,0.1c-0.5-1.4-1.1-3.1-1.8-4.7h-4.4
		c-0.6,1.5-1.2,3-1.7,4.7c-0.2,0-0.4-0.1-0.6-0.1c-0.2,0-0.4,0-0.6,0.1l5.4-12.1h0.4L296.9,69.9z M291.1,60l-1.9,4.4h3.8L291.1,60z"
		/>
	<path class="st1" d="M300.2,69c1.1,0,2.1,0,3.1-0.1c0.6,0,1.1-0.1,1.6-0.2c0,0.2-0.1,0.3-0.1,0.5c0,0.2,0,0.3,0.1,0.5h-6.3V58
		c0.2,0,0.5,0.1,0.8,0.1c0.2,0,0.5,0,0.8-0.1V69z"/>
	<path class="st1" d="M175.4,86c0.7,1.2,1.6,1.9,3,1.9c1.5,0,2.6-1.3,2.6-2.7c0-3.5-5.9-1.9-5.9-6.2c0-2.4,1.9-3.6,4.2-3.6
		c0.9,0,2,0.3,2.7,0.9c-0.2,0.5-0.4,1-0.5,1.5h-0.2c-0.4-1-1.2-1.6-2.3-1.6c-1.3,0-2.4,0.9-2.4,2.2c0,3.4,5.9,2.1,5.9,6
		c0,2.7-2.1,4.3-4.6,4.3c-0.9,0-2.4-0.4-3.1-1.1c0.2-0.5,0.3-1.1,0.3-1.7H175.4z"/>
	<path class="st1" d="M194.8,87.6c-1.2,0.8-2.7,1.1-4.1,1.1c-4.1,0-6.6-2.6-6.6-6.7c0-4.2,3.1-6.6,7.1-6.6c1.4,0,2.8,0.3,4,0.9
		c-0.2,0.5-0.3,1-0.4,1.4l-0.1,0c-0.3-0.3-1.7-1.6-3.6-1.6c-3.4,0-5.1,2.8-5.1,6c0,3.6,2.1,5.9,5,5.9c2,0,3.6-1.2,4-1.5L194.8,87.6z
		"/>
	<path class="st1" d="M207,75.7c0.3,0,0.5,0.1,0.8,0.1c0.3,0,0.5,0,0.8-0.1v12.8c-0.3,0-0.6-0.1-0.8-0.1c-0.3,0-0.6,0-0.8,0.1V82
		c-1.3,0-2.6-0.1-3.9-0.1c-1.3,0-2.6,0.1-3.9,0.1v6.4c-0.3,0-0.6-0.1-0.8-0.1c-0.3,0-0.6,0-0.8,0.1V75.7c0.3,0,0.5,0.1,0.8,0.1
		c0.3,0,0.5,0,0.8-0.1V81c1.3,0,2.7,0.1,3.9,0.1c1.3,0,2.6-0.1,3.9-0.1L207,75.7L207,75.7z"/>
	<path class="st1" d="M211.2,82.1c0-4.1,3-6.7,6.9-6.7c3.5,0,7.1,1.9,7.1,6.4c0,4.2-3,6.9-7.1,6.9C213.9,88.7,211.2,86.1,211.2,82.1
		 M222.2,77.8c-0.9-1.2-2.4-1.8-3.9-1.8c-3.3,0-5.3,2.5-5.3,6.3c0,3.8,2.3,5.8,5.1,5.8c3.9,0,5.4-4.1,5.2-6.1
		C223.4,80.4,223.2,79.1,222.2,77.8"/>
	<path class="st1" d="M226.8,82.1c0-4.1,3.1-6.7,6.9-6.7c3.5,0,7.1,1.9,7.1,6.4c0,4.2-3,6.9-7.1,6.9
		C229.5,88.7,226.8,86.1,226.8,82.1 M237.8,77.8c-0.9-1.2-2.4-1.8-3.9-1.8c-3.3,0-5.3,2.5-5.3,6.3c0,3.8,2.3,5.8,5.1,5.8
		c4,0,5.4-4.1,5.2-6.1C239,80.4,238.8,79.1,237.8,77.8"/>
	<path class="st1" d="M244.9,87.5c1.1,0,2.3,0,3.4-0.1c0.6,0,1.2-0.1,1.8-0.2c0,0.2-0.1,0.4-0.1,0.6c0,0.2,0,0.4,0.1,0.6h-6.8V75.7
		c0.3,0,0.5,0.1,0.8,0.1c0.3,0,0.5,0,0.8-0.1L244.9,87.5L244.9,87.5z"/>
	<path class="st1" d="M255.2,82.1c0-4.1,3.1-6.7,6.9-6.7c3.5,0,7.1,1.9,7.1,6.4c0,4.2-3,6.9-7.1,6.9
		C257.9,88.7,255.2,86.1,255.2,82.1 M266.2,77.8c-0.9-1.2-2.4-1.8-3.9-1.8c-3.3,0-5.3,2.5-5.3,6.3c0,3.8,2.3,5.8,5.1,5.8
		c4,0,5.4-4.1,5.2-6.1C267.3,80.4,267.1,79.1,266.2,77.8"/>
	<path class="st1" d="M271.6,75.7h6.6c0,0.2-0.1,0.4-0.1,0.6c0,0.2,0,0.4,0.1,0.6c-0.6-0.1-1.1-0.2-1.7-0.2l-1.9,0h-1.4v4.7h2.9
		c0.6,0,1.1-0.1,1.7-0.1c0,0.2-0.1,0.3-0.1,0.5c0,0.1,0,0.3,0.1,0.5c-0.6,0-1.1-0.1-1.7-0.1h-2.9v6.4c-0.3,0-0.6-0.1-0.8-0.1
		c-0.3,0-0.6,0-0.8,0.1V75.7L271.6,75.7z"/>
	<path class="st1" d="M185.5,105.3c-1.2,0.8-2.7,1.1-4.1,1.1c-4.1,0-6.6-2.6-6.6-6.7c0-4.2,3.1-6.6,7.1-6.6c1.4,0,2.8,0.3,4,0.9
		c-0.2,0.5-0.3,1-0.4,1.4l-0.1,0c-0.3-0.3-1.7-1.6-3.6-1.6c-3.4,0-5.2,2.8-5.2,6c0,3.6,2.1,5.9,5,5.9c2,0,3.6-1.2,4-1.5L185.5,105.3
		z"/>
	<path class="st1" d="M188.3,93.4h4c2.9,0,4.2,0.9,4.2,2.8c0,2.2-1.9,3.2-3.8,3.6l3.9,4.9l0.9,1l0.4,0.5c-0.4,0-0.7-0.1-1.1-0.1
		c-0.4,0-0.7,0-1.1,0.1c-0.4-0.6-0.8-1.1-1.2-1.6l-2.2-2.9l-1.5-1.8h-0.7v6.2c-0.3,0-0.6-0.1-0.8-0.1c-0.3,0-0.6,0-0.8,0.1
		L188.3,93.4L188.3,93.4z M189.9,99.2c0.3,0,1.5,0.1,2.4-0.1c1.4-0.3,2.4-1.2,2.4-2.7c0-1.3-0.7-2.1-2.1-2.4c-0.7-0.1-2-0.1-2.8,0
		V99.2z"/>
	<path class="st1" d="M201.3,98.9h2.9c0.6,0,1.1-0.1,1.7-0.1c0,0.2-0.1,0.3-0.1,0.5c0,0.1,0,0.3,0.1,0.5c-0.6,0-1.1-0.1-1.7-0.1
		h-2.9v5.5c1.1,0,2.3,0,3.4-0.1c0.6,0,1.1-0.1,1.7-0.2c0,0.2-0.1,0.4-0.1,0.6c0,0.2,0,0.4,0.1,0.6h-6.8V93.4h6.7
		c0,0.2-0.1,0.4-0.1,0.6c0,0.2,0,0.4,0.1,0.6c-0.6-0.1-1.1-0.2-1.7-0.2l-1.9,0h-1.5L201.3,98.9L201.3,98.9z"/>
	<path class="st1" d="M219.6,106.2c-0.4,0-0.7-0.1-1-0.1c-0.4,0-0.7,0-1,0.1c-0.5-1.6-1.2-3.4-2-5.1h-4.8c-0.7,1.6-1.3,3.3-1.9,5.1
		c-0.3,0-0.5-0.1-0.7-0.1c-0.2,0-0.5,0-0.7,0.1l5.8-13.1h0.4L219.6,106.2z M213.3,95.5l-2,4.8h4.1L213.3,95.5z"/>
	<path class="st1" d="M224.6,106.2c-0.3,0-0.6-0.1-0.8-0.1c-0.3,0-0.6,0-0.8,0.1v-12c-1.9,0-3,0.1-4.1,0.2c0-0.2,0.1-0.4,0.1-0.6
		c0-0.2,0-0.4-0.1-0.6h9.7c0,0.2-0.1,0.4-0.1,0.6c0,0.2,0,0.4,0.1,0.6c-0.9-0.1-2.3-0.2-3.9-0.2L224.6,106.2L224.6,106.2z"/>
	<path class="st1" d="M230.7,93.4c0.3,0,0.5,0,0.8,0c0.3,0,0.5,0,0.8,0v12.8c-0.3,0-0.6-0.1-0.8-0.1c-0.3,0-0.6,0-0.8,0.1V93.4z"/>
	<path class="st1" d="M243.8,96.8l1.1-3.1l0.1-0.3c0.2,0,0.5,0,0.7,0c0.2,0,0.4,0,0.7,0c-0.6,1.1-4.7,10.7-5.4,12.8
		c-0.1,0-0.3-0.1-0.4-0.1c-0.1,0-0.3,0-0.4,0.1c-2.1-4.4-4.9-11.2-5.7-12.8c0.3,0,0.6,0,0.9,0c0.3,0,0.6,0,0.9,0
		c0.2,0.6,0.5,1.2,0.7,1.8l1.3,3.3l2.3,5.7h0.2c0.4-0.8,0.8-1.5,1-2.3L243.8,96.8z"/>
	<path class="st1" d="M249.9,98.9h2.9c0.6,0,1.1-0.1,1.7-0.1c0,0.2-0.1,0.3-0.1,0.5c0,0.1,0,0.3,0.1,0.5c-0.6,0-1.1-0.1-1.7-0.1
		h-2.9v5.5c1.1,0,2.3,0,3.4-0.1c0.6,0,1.1-0.1,1.7-0.2c0,0.2-0.1,0.4-0.1,0.6c0,0.2,0,0.4,0.1,0.6h-6.8V93.4h6.6
		c0,0.2-0.1,0.4-0.1,0.6c0,0.2,0,0.4,0.1,0.6c-0.6-0.1-1.1-0.2-1.7-0.2l-1.9,0h-1.4L249.9,98.9L249.9,98.9z"/>
	<path class="st1" d="M175.4,120.6c0.7,1.2,1.6,2,3,2c1.5,0,2.6-1.3,2.6-2.7c0-3.5-5.9-1.9-5.9-6.2c0-2.4,1.9-3.6,4.2-3.6
		c0.9,0,2,0.3,2.7,0.9c-0.2,0.5-0.4,1-0.5,1.5h-0.2c-0.4-1-1.2-1.6-2.3-1.6c-1.3,0-2.4,0.9-2.4,2.2c0,3.4,5.9,2,5.9,6
		c0,2.7-2.1,4.3-4.6,4.3c-0.9,0-2.4-0.4-3.1-1.1c0.2-0.6,0.3-1.1,0.4-1.7H175.4z"/>
	<path class="st1" d="M194.8,122.3c-1.2,0.8-2.7,1.1-4.1,1.1c-4.1,0-6.6-2.6-6.6-6.7c0-4.2,3.1-6.6,7.1-6.6c1.4,0,2.8,0.3,4,0.9
		c-0.2,0.5-0.3,1-0.4,1.4l-0.1,0c-0.3-0.3-1.7-1.6-3.6-1.6c-3.4,0-5.1,2.8-5.1,6c0,3.6,2.1,5.9,5,5.9c2,0,3.6-1.2,4-1.5L194.8,122.3
		z"/>
	<path class="st1" d="M197.6,110.3c0.3,0,0.5,0,0.8,0c0.3,0,0.5,0,0.8,0v12.8c-0.3,0-0.6-0.1-0.8-0.1c-0.3,0-0.6,0-0.8,0.1V110.3z"
		/>
	<path class="st1" d="M204.3,115.9h2.9c0.6,0,1.1-0.1,1.7-0.1c0,0.2-0.1,0.3-0.1,0.5c0,0.1,0,0.3,0.1,0.5c-0.6,0-1.1-0.1-1.7-0.1
		h-2.9v5.5c1.1,0,2.3,0,3.4-0.1c0.6,0,1.1-0.1,1.7-0.2c0,0.2-0.1,0.4-0.1,0.6c0,0.2,0,0.4,0.1,0.6h-6.8v-12.7h6.6
		c0,0.2-0.1,0.4-0.1,0.6c0,0.2,0,0.4,0.1,0.6c-0.6-0.1-1.1-0.2-1.7-0.2l-1.9,0h-1.4V115.9z"/>
	<path class="st1" d="M223.1,123.2h-0.6c-0.2-0.3-0.6-0.7-1-1.1l-8.1-8.9h-0.2v10.1c-0.2,0-0.4-0.1-0.5-0.1c-0.2,0-0.4,0-0.5,0.1
		v-12.8h0.7l8.9,9.6h0.2v-9.6c0.2,0,0.3,0,0.5,0c0.2,0,0.3,0,0.5,0V123.2z"/>
	<path class="st1" d="M236.4,122.3c-1.2,0.8-2.7,1.1-4.1,1.1c-4.1,0-6.6-2.6-6.6-6.7c0-4.2,3.1-6.6,7.1-6.6c1.4,0,2.8,0.3,4,0.9
		c-0.2,0.5-0.3,1-0.4,1.4l-0.1,0c-0.3-0.3-1.6-1.6-3.6-1.6c-3.4,0-5.2,2.8-5.2,6c0,3.6,2.1,5.9,5,5.9c2,0,3.6-1.2,4-1.5L236.4,122.3
		z"/>
	<path class="st1" d="M240.8,115.9h2.9c0.6,0,1.1-0.1,1.7-0.1c0,0.2-0.1,0.3-0.1,0.5c0,0.1,0,0.3,0.1,0.5c-0.6,0-1.1-0.1-1.7-0.1
		h-2.9v5.5c1.1,0,2.3,0,3.4-0.1c0.6,0,1.1-0.1,1.7-0.2c0,0.2-0.1,0.4-0.1,0.6c0,0.2,0,0.4,0.1,0.6h-6.8v-12.7h6.6
		c0,0.2-0.1,0.4-0.1,0.6c0,0.2,0,0.4,0.1,0.6c-0.6-0.1-1.1-0.2-1.7-0.2l-1.9,0h-1.4V115.9z"/>
</g>
</svg>
