<?xml version="1.0" encoding="utf-8"?>
<!-- Generator: Adobe Illustrator 23.0.1, SVG Export Plug-In . SVG Version: 6.00 Build 0)  -->
<svg version="1.1" id="Layer_1" xmlns="http://www.w3.org/2000/svg" xmlns:xlink="http://www.w3.org/1999/xlink" x="0px" y="0px"
	 viewBox="0 0 400 200" style="enable-background:new 0 0 400 200;" xml:space="preserve">
<style type="text/css">
	.st0{fill:#231F20;}
</style>
<g>
	<polygon id="XMLID_9_" class="st0" points="90,115.3 90,87.3 93.6,87.3 93.6,113.6 112.2,113.6 112.2,115.3 	"/>
	<polygon id="XMLID_8_" class="st0" points="165.7,115.3 165.7,89 154.9,89 154.9,87.3 180.1,87.3 180.1,89 169.3,89 169.3,115.3 	
		"/>
	<rect id="XMLID_7_" x="191.4" y="87.3" class="st0" width="3.6" height="28"/>
	<polygon id="XMLID_6_" class="st0" points="230.2,115.3 208.1,91.9 208.1,115.3 206.3,115.3 206.3,87.3 209.4,87.3 229.9,108.8 
		229.9,87.3 231.7,87.3 231.7,115.3 	"/>
	<polygon id="XMLID_5_" class="st0" points="306.4,115.3 306.4,91.5 294.8,113.4 293.9,115.3 281.2,91.9 281.2,115.3 279.4,115.3 
		279.4,87.3 283,87.3 294.9,109.2 306.4,87.3 310,87.3 310,115.3 	"/>
	<polygon id="XMLID_4_" class="st0" points="128,109.6 128,109.6 137,91 148.3,113.6 148.2,113.6 149.1,115.3 152.9,115.3 
		138.2,84.7 137,87.3 123.5,115.3 125.3,115.3 	"/>
	<rect id="XMLID_3_" x="243.1" y="112.1" class="st0" width="24.5" height="3.2"/>
	<rect id="XMLID_2_" x="243.1" y="87.3" class="st0" width="24.5" height="3.2"/>
	<rect id="XMLID_1_" x="243.1" y="99.7" class="st0" width="24.5" height="3.2"/>
</g>
</svg>
