<svg width="228" height="114" viewBox="0 0 228 114" fill="none" xmlns="http://www.w3.org/2000/svg">
<g clip-path="url(#clip0_4002_103)">
<mask id="mask0_4002_103" style="mask-type:luminance" maskUnits="userSpaceOnUse" x="4" y="28" width="220" height="58">
<path d="M224 28H4V85.9845H224V28Z" fill="white"/>
</mask>
<g mask="url(#mask0_4002_103)">
<path d="M41.8856 60.9611H45.9128C46.1083 60.9611 46.2692 61.1192 46.2692 61.3176V63.2553C46.2692 63.3789 46.4216 63.4364 46.5021 63.3415C47.146 62.6113 48.9914 60.6621 51.8084 60.6621C53.8982 60.6621 55.7551 61.4326 56.8215 63.2064C56.9509 63.422 57.2498 63.445 57.4079 63.2495C58.5175 61.8868 60.2911 60.711 62.5849 60.711C66.4569 60.711 69.2279 62.4791 69.2279 67.125V78.7138C69.2279 78.9093 69.0698 79.0703 68.8714 79.0703H64.5769C64.3815 79.0703 64.2205 78.9122 64.2205 78.7138V68.9563C64.2205 66.5672 64.0193 64.6036 61.1822 64.6036C58.345 64.6036 57.8104 66.8605 57.8104 69.1202V78.7138C57.8104 78.9093 57.6523 79.0703 57.4539 79.0703H53.1594C52.964 79.0703 52.803 78.9122 52.803 78.7138V69.054C52.803 66.9582 52.9697 64.6036 49.7991 64.6036C48.7988 64.6036 46.5308 65.2246 46.5308 68.6947V78.7138C46.5308 78.9093 46.3727 79.0703 46.1744 79.0703H41.8799C41.6844 79.0703 41.5234 78.9122 41.5234 78.7138V61.3176C41.5234 61.1221 41.6815 60.9611 41.8799 60.9611H41.8856Z" fill="#231916"/>
<path d="M77.6698 58.3275H73.5967C73.4012 58.3275 73.2402 58.1694 73.2402 57.9711V54.6016C73.2402 54.4061 73.3983 54.2451 73.5967 54.2451H77.6698C77.8653 54.2451 78.0263 54.4033 78.0263 54.6016V57.9711C78.0263 58.1665 77.8682 58.3275 77.6698 58.3275ZM73.5967 61.0932H77.6698C77.8653 61.0932 78.0263 61.2513 78.0263 61.4497V78.7166C78.0263 78.9121 77.8682 79.073 77.6698 79.073H73.5967C73.4012 79.073 73.2402 78.9149 73.2402 78.7166V61.4497C73.2402 61.2542 73.3983 61.0932 73.5967 61.0932Z" fill="#231916"/>
<path d="M149.935 58.3275H145.862C145.667 58.3275 145.506 58.1694 145.506 57.9711V54.6016C145.506 54.4061 145.664 54.2451 145.862 54.2451H149.935C150.131 54.2451 150.292 54.4033 150.292 54.6016V57.9711C150.292 58.1665 150.134 58.3275 149.935 58.3275ZM145.862 61.0932H149.935C150.131 61.0932 150.292 61.2513 150.292 61.4497V78.7166C150.292 78.9121 150.134 79.073 149.935 79.073H145.862C145.667 79.073 145.506 78.9149 145.506 78.7166V61.4497C145.506 61.2542 145.664 61.0932 145.862 61.0932Z" fill="#231916"/>
<path d="M94.5787 67.4155C94.4148 67.4155 94.2682 67.3034 94.2338 67.1395C93.8342 65.2967 92.5723 64.3048 90.6176 64.3048C87.4442 64.3048 86.3892 67.5133 86.3892 70.1927C86.3892 72.8721 87.4126 75.8822 90.5199 75.8822C92.7016 75.8822 94.0038 74.5195 94.4033 72.4926C94.435 72.3288 94.5844 72.2109 94.7512 72.2109H98.8301C99.0514 72.2109 99.2181 72.4122 99.1808 72.6306C98.4161 77.1587 95.1392 79.6196 90.5544 79.6196C85.1015 79.6196 81.4336 75.7816 81.4336 70.3594C81.4336 64.9373 84.7709 60.5674 90.6521 60.5674C94.7885 60.5674 98.5829 62.6863 99.0744 67.013C99.0974 67.2258 98.9336 67.4155 98.7208 67.4155H94.5816H94.5787Z" fill="#231916"/>
<path d="M102.439 61.0619H106.392C106.587 61.0619 106.748 61.22 106.748 61.4184L106.714 63.7011C106.714 63.8592 106.921 63.9139 106.995 63.7759C108.059 61.8468 110.33 60.5674 112.486 60.5674C112.73 60.5674 113.032 60.6048 113.305 60.6796C113.457 60.7227 113.561 60.8635 113.561 61.0217V64.9258C113.561 65.1414 113.371 65.3082 113.156 65.2794C112.739 65.2219 112.233 65.1846 111.799 65.1846C108.211 65.1846 106.972 67.7893 106.972 70.9574V78.714C106.972 78.9095 106.814 79.0705 106.616 79.0705H102.436C102.241 79.0705 102.08 78.9124 102.08 78.714V61.4184C102.08 61.2229 102.238 61.0619 102.436 61.0619H102.439Z" fill="#231916"/>
<path d="M123.771 60.6309C129.497 60.6309 133.191 64.3884 133.191 70.1584C133.191 75.9284 129.497 79.6198 123.771 79.6198C118.045 79.6198 114.383 75.8623 114.383 70.1584C114.383 64.4545 118.077 60.6309 123.771 60.6309ZM123.771 75.8939C127.166 75.8939 128.198 72.9931 128.198 70.1584C128.198 67.3237 127.166 64.3568 123.771 64.3568C120.376 64.3568 119.376 67.2576 119.376 70.1584C119.376 73.0592 120.408 75.8939 123.771 75.8939Z" fill="#231916"/>
<path d="M136.687 54.3574H140.76C140.955 54.3574 141.116 54.5155 141.116 54.7139V78.7138C141.116 78.9093 140.958 79.0703 140.76 79.0703H136.687C136.491 79.0703 136.33 78.9122 136.33 78.7138V54.7139C136.33 54.5184 136.488 54.3574 136.687 54.3574Z" fill="#231916"/>
<path d="M171.423 77.9954C171.423 80.9653 170.374 85.9849 162.152 85.9849C158.735 85.9849 154.547 84.2226 154.078 80.4219C154.052 80.2091 154.219 80.0194 154.432 80.0194H158.651C158.804 80.0194 158.916 80.1258 158.988 80.2609C159.847 81.8881 161.213 82.5666 162.868 82.5752C165.021 82.5867 166.769 80.8043 166.734 78.1967L166.709 76.2734C166.709 76.1497 166.55 76.1037 166.479 76.2044C165.34 77.846 163.317 78.6251 161.296 78.6251C155.958 78.6251 153.664 74.5312 153.664 69.5776C153.664 64.8886 156.317 60.6309 161.362 60.6309C163.515 60.6309 165.248 61.3381 166.427 63.0918C166.51 63.2183 166.706 63.1637 166.709 63.0113L166.732 61.4818C166.732 61.2863 166.89 61.1254 167.088 61.1254H171.061C171.256 61.1254 171.417 61.2835 171.417 61.4818V77.9954H171.423ZM166.74 69.9083C166.74 67.0017 165.757 64.3625 162.549 64.3625C159.798 64.3625 158.585 66.8062 158.585 69.5115C158.585 72.2168 159.568 74.8934 162.549 74.8934C165.366 74.8934 166.74 72.4842 166.74 69.9083Z" fill="#231916"/>
<path d="M175.737 54.3574H179.997C180.193 54.3574 180.354 54.5155 180.354 54.7139L180.414 63.1345C180.414 63.2812 180.601 63.3415 180.69 63.2237C181.981 61.5016 184.024 60.6506 185.755 60.6506C191.024 60.6506 192.349 63.5859 192.349 67.9874V78.5873C192.349 78.7828 192.191 78.9438 191.993 78.9438H187.735C187.54 78.9438 187.379 78.7857 187.379 78.5873V68.8988C187.379 65.9635 186.517 64.5289 184.197 64.5289C181.512 64.5289 180.354 65.9951 180.354 69.6146V78.5844C180.354 78.7799 180.196 78.9409 179.997 78.9409H175.737C175.542 78.9409 175.381 78.7828 175.381 78.5844V54.7081C175.381 54.5126 175.539 54.3516 175.737 54.3516V54.3574Z" fill="#231916"/>
<path d="M202.654 61.1481H205.586C205.782 61.1481 205.943 61.3063 205.943 61.5047V64.0749C205.943 64.2704 205.785 64.4312 205.586 64.4312H202.654C202.459 64.4312 202.298 64.5895 202.298 64.7878V73.3293C202.298 74.9708 202.729 75.3962 204.385 75.3962C204.781 75.3962 205.158 75.379 205.543 75.3272C205.756 75.2985 205.943 75.4653 205.943 75.681V78.7973C205.943 78.9784 205.808 79.1308 205.629 79.1509C204.85 79.2458 203.902 79.2717 203.028 79.2717C199.981 79.2717 197.328 78.5818 197.328 75.0053V64.7907C197.328 64.5952 197.17 64.4341 196.971 64.4341H194.669C194.473 64.4341 194.312 64.2761 194.312 64.0777V61.5075C194.312 61.312 194.471 61.1511 194.669 61.1511H196.971C197.167 61.1511 197.328 60.9928 197.328 60.7945V56.1544C197.328 55.9589 197.486 55.7979 197.684 55.7979H201.941C202.137 55.7979 202.298 55.9561 202.298 56.1544V60.7945C202.298 60.99 202.456 61.1511 202.654 61.1511V61.1481Z" fill="#231916"/>
<path d="M211.741 73.2574C211.922 73.2574 212.074 73.3954 212.095 73.5765C212.293 75.4912 214.021 76.2646 215.866 76.2646C217.315 76.2646 219.062 75.7356 219.062 73.9847C219.062 72.4639 217.053 71.9694 213.494 71.1759C210.66 70.5492 207.794 69.5573 207.794 66.3834C207.794 61.7548 211.781 60.5674 215.636 60.5674C219.491 60.5674 222.952 61.8382 223.529 65.9407C223.561 66.1563 223.394 66.3518 223.176 66.3518H219.18C219.005 66.3518 218.855 66.2224 218.83 66.0499C218.568 64.3796 217.154 63.9081 215.504 63.9081C214.383 63.9081 212.736 64.1065 212.736 65.5612C212.736 67.3465 215.535 67.611 218.335 68.2722C221.236 68.9335 224.001 69.957 224.001 73.3293C224.001 78.0556 219.948 79.6081 215.831 79.6081C211.715 79.6081 207.823 78.1103 207.424 73.657C207.403 73.4471 207.567 73.2631 207.777 73.2631H211.741V73.2574Z" fill="#231916"/>
<path d="M4.21335 30.1389V53.8628C4.21335 53.8628 3.73331 54.7569 4.21335 55.03C4.69339 55.3032 5.80583 55.9356 6.8464 56.0363C7.05336 56.0564 8.5251 56.2893 8.98215 56.6084C9.4392 56.9275 10.0285 56.7924 10.0515 56.1743C10.0745 55.5561 10.0515 31.079 10.0515 30.6219C10.0515 30.1648 9.99398 29.3512 8.95341 29.1787C7.99045 29.0205 7.09935 28.7905 6.15939 28.4686C5.21943 28.1466 4.73364 27.8159 4.26222 28.1207C3.90003 28.3536 4.061 29.1269 4.15299 29.5466C4.19611 29.7421 4.21335 29.9376 4.21335 30.1389Z" fill="#231916"/>
<path d="M22.6411 35.294C22.8941 35.524 23.1442 36.3692 22.9832 36.7142C22.8366 37.0276 22.7734 50.4276 22.7647 52.8771C22.7647 53.1157 22.9027 53.3284 23.1212 53.4204C23.6098 53.6303 24.5124 53.9868 25.2886 54.1133C26.4182 54.2973 27.295 54.7084 27.6629 54.8924C28.0308 55.0764 28.6316 55.1224 28.6316 54.0213V37.3294C28.6316 36.3002 27.7923 33.9169 25.4352 33.7358C23.0781 33.5546 22.4141 33.9916 22.3221 34.3309C22.1611 34.926 22.6411 35.2911 22.6411 35.2911V35.294Z" fill="#231916"/>
<path d="M41.0567 33.6862C41.3097 33.9162 41.4476 33.9651 41.3557 34.9052C41.3212 35.2473 41.1918 48.7135 41.1659 51.3182C41.1659 51.5827 41.324 51.8184 41.5741 51.9075C42.0772 52.0915 42.9539 52.3876 43.707 52.5084C44.8367 52.6924 45.8744 53.0891 46.2394 53.2702C46.6045 53.4514 47.0472 53.5146 47.0472 52.4164V35.417C47.0472 34.773 46.8028 34.221 46.2021 33.4476C45.6933 32.7893 44.9315 32.2114 43.8478 32.128C41.4908 31.944 40.8584 32.3034 40.7693 32.6426C40.6083 33.2378 41.0567 33.6862 41.0567 33.6862Z" fill="#231916"/>
</g>
</g>
<defs>
<clipPath id="clip0_4002_103">
<rect width="220" height="58" fill="white" transform="translate(4 28)"/>
</clipPath>
</defs>
</svg>
