<?xml version="1.0" encoding="utf-8"?>
<!-- Generator: Adobe Illustrator 23.0.1, SVG Export Plug-In . SVG Version: 6.00 Build 0)  -->
<svg version="1.1" id="Layer_1" xmlns="http://www.w3.org/2000/svg" xmlns:xlink="http://www.w3.org/1999/xlink" x="0px" y="0px"
	 viewBox="0 0 400 200" style="enable-background:new 0 0 400 200;" xml:space="preserve">
<style type="text/css">
	.st0{fill:#12284C;}
	.st1{fill:url(#XMLID_2_);}
	.st2{fill:url(#XMLID_3_);}
	.st3{fill:url(#XMLID_4_);}
	.st4{fill:url(#XMLID_5_);}
</style>
<g>
	<g id="XMLID_141_">
		<rect id="XMLID_177_" x="154.9" y="155.7" class="st0" width="0.6" height="8.2"/>
		<path id="XMLID_176_" class="st0" d="M159.1,158.7c-0.8,0-1.3,0.3-1.7,0.8v-0.7h-0.6v5h0.6V161c0-0.5,0.2-0.9,0.5-1.2
			c0.4-0.3,0.7-0.5,1.2-0.5c0.5,0,0.8,0.2,1.2,0.5c0.3,0.3,0.5,0.7,0.5,1.2v2.9h0.6V161c0-0.6-0.2-1.2-0.6-1.6
			C160.2,159,159.7,158.7,159.1,158.7z"/>
		<path id="XMLID_175_" class="st0" d="M163.2,163c-0.3-0.3-0.4-0.6-0.4-1v-2.6h1.5v-0.5h-1.5v-1.9h-0.6v5.1c0,0.6,0.2,1,0.6,1.4
			c0.4,0.4,0.8,0.5,1.4,0.5h0.1v-0.5h-0.1C163.8,163.4,163.5,163.3,163.2,163z"/>
		<path id="XMLID_172_" class="st0" d="M169.5,159.8L169.5,159.8c-0.6-0.7-1.3-1-2.1-1c-0.8,0-1.4,0.3-1.9,0.8
			c-0.5,0.5-0.8,1.1-0.8,1.8c0,0.7,0.3,1.3,0.8,1.9c0.5,0.5,1.1,0.8,1.9,0.8h0.1c0.8,0,1.4-0.3,1.9-0.9l0,0v-1l-0.2,0.3
			c-0.2,0.3-0.5,0.6-0.8,0.7c-0.3,0.2-0.7,0.3-1.1,0.3c-0.4,0-0.7-0.2-1.1-0.4L169.5,159.8L169.5,159.8z M165.7,162.6
			c-0.3-0.4-0.5-0.8-0.5-1.3c0-0.5,0.2-1,0.6-1.4c0.4-0.4,0.9-0.6,1.4-0.6c0.5,0,0.9,0.2,1.3,0.5L165.7,162.6z"/>
		<path id="XMLID_171_" class="st0" d="M172.2,158.7c-0.4,0-0.7,0.1-1,0.3c-0.2,0.1-0.3,0.2-0.4,0.3v-0.5h-0.6v5h0.6v-3.3
			c0-0.3,0.1-0.6,0.4-0.9c0.3-0.3,0.6-0.4,0.9-0.4c0.3,0,0.7,0.1,0.9,0.4l0.2,0.2v-0.8l0,0C172.9,158.9,172.5,158.7,172.2,158.7z"/>
		<path id="XMLID_170_" class="st0" d="M176.2,158.7c-0.8,0-1.3,0.3-1.7,0.8v-0.7h-0.6v5h0.6V161c0-0.5,0.2-0.9,0.5-1.2
			c0.4-0.3,0.7-0.5,1.2-0.5c0.5,0,0.8,0.2,1.2,0.5c0.3,0.3,0.5,0.7,0.5,1.2v2.9h0.6V161c0-0.6-0.2-1.2-0.6-1.6
			C177.4,159,176.9,158.7,176.2,158.7z"/>
		<path id="XMLID_167_" class="st0" d="M183.9,159.7c-0.2-0.2-0.4-0.4-0.7-0.6c-0.4-0.3-0.9-0.4-1.4-0.4c-0.7,0-1.4,0.3-1.9,0.8
			c-0.5,0.5-0.8,1.1-0.8,1.9c0,0.7,0.3,1.3,0.8,1.9c0.5,0.5,1.2,0.8,1.9,0.8c0.5,0,0.9-0.1,1.3-0.4c0.3-0.2,0.5-0.4,0.7-0.6v0.9h0.6
			v-5h-0.6V159.7z M183.4,162.9c-0.4,0.4-0.9,0.6-1.5,0.6c-0.6,0-1.1-0.2-1.5-0.6c-0.4-0.4-0.6-0.9-0.6-1.5s0.2-1.1,0.6-1.5
			c0.4-0.4,0.9-0.6,1.5-0.6c0.6,0,1,0.2,1.5,0.6c0.4,0.4,0.6,0.9,0.6,1.5C184,162,183.8,162.4,183.4,162.9z"/>
		<path id="XMLID_166_" class="st0" d="M186.4,163c-0.3-0.3-0.4-0.6-0.4-1v-2.6h1.5v-0.5H186v-1.9h-0.6v5.1c0,0.6,0.2,1,0.6,1.4
			c0.4,0.4,0.8,0.5,1.4,0.5h0.1v-0.5h-0.1C187,163.4,186.7,163.3,186.4,163z"/>
		<path id="XMLID_165_" class="st0" d="M188.6,157.1c-0.3,0-0.4,0.2-0.4,0.4s0.2,0.4,0.4,0.4c0.3,0,0.4-0.2,0.4-0.4
			S188.8,157.1,188.6,157.1z"/>
		<rect id="XMLID_164_" x="188.3" y="158.9" class="st0" width="0.6" height="5"/>
		<path id="XMLID_161_" class="st0" d="M192.4,158.7c-0.7,0-1.4,0.3-1.9,0.8c-0.5,0.5-0.8,1.1-0.8,1.8c0,0.7,0.3,1.3,0.8,1.9
			c0.5,0.5,1.1,0.8,1.8,0.8h0.1c0.7,0,1.3-0.3,1.8-0.8c0.5-0.5,0.8-1.2,0.8-1.9c0-0.7-0.3-1.3-0.8-1.8
			C193.8,159,193.2,158.7,192.4,158.7z M193.9,162.9c-0.4,0.4-0.9,0.6-1.5,0.6c-0.6,0-1.1-0.2-1.5-0.6c-0.4-0.4-0.6-0.9-0.6-1.5
			s0.2-1.1,0.6-1.5c0.4-0.4,0.9-0.6,1.5-0.6c0.6,0,1.1,0.2,1.5,0.6c0.4,0.4,0.6,0.9,0.6,1.5C194.5,162,194.3,162.4,193.9,162.9z"/>
		<path id="XMLID_160_" class="st0" d="M198.2,158.7c-0.8,0-1.3,0.3-1.7,0.8v-0.7h-0.6v5h0.6V161c0-0.5,0.2-0.9,0.5-1.2
			c0.4-0.3,0.7-0.5,1.2-0.5c0.5,0,0.8,0.2,1.2,0.5c0.3,0.3,0.5,0.7,0.5,1.2v2.9h0.6V161c0-0.6-0.2-1.2-0.6-1.6
			C199.3,159,198.8,158.7,198.2,158.7z"/>
		<path id="XMLID_157_" class="st0" d="M205.9,159.7c-0.2-0.2-0.4-0.4-0.7-0.6c-0.4-0.3-0.9-0.4-1.4-0.4c-0.7,0-1.4,0.3-1.9,0.8
			c-0.5,0.5-0.8,1.1-0.8,1.9c0,0.7,0.3,1.3,0.8,1.9c0.5,0.5,1.2,0.8,1.9,0.8c0.5,0,0.9-0.1,1.3-0.4c0.3-0.2,0.5-0.4,0.7-0.6v0.9h0.6
			v-5h-0.6V159.7z M205.3,162.9c-0.4,0.4-0.9,0.6-1.5,0.6c-0.6,0-1.1-0.2-1.5-0.6c-0.4-0.4-0.6-0.9-0.6-1.5s0.2-1.1,0.6-1.5
			c0.4-0.4,0.9-0.6,1.5-0.6c0.6,0,1,0.2,1.5,0.6c0.4,0.4,0.6,0.9,0.6,1.5C205.9,162,205.7,162.4,205.3,162.9z"/>
		<path id="XMLID_156_" class="st0" d="M208.5,163.1c-0.3-0.3-0.4-0.6-0.4-1v-6.4h-0.6v6.4c0,0.6,0.2,1,0.6,1.4
			c0.4,0.4,0.8,0.5,1.4,0.5h0.1v-0.5h-0.1C209.1,163.5,208.8,163.3,208.5,163.1z"/>
		<path id="XMLID_155_" class="st0" d="M214.8,163c-0.3-0.3-0.4-0.6-0.4-1v-2.6h1.5v-0.5h-1.5v-1.9h-0.6v5.1c0,0.6,0.2,1,0.6,1.4
			c0.4,0.4,0.8,0.5,1.4,0.5h0.1v-0.5h-0.1C215.4,163.4,215.1,163.3,214.8,163z"/>
		<path id="XMLID_154_" class="st0" d="M218.5,158.7c-0.4,0-0.7,0.1-1,0.3c-0.2,0.1-0.3,0.2-0.4,0.3v-0.5h-0.6v5h0.6v-3.3
			c0-0.3,0.1-0.6,0.4-0.9c0.3-0.3,0.6-0.4,0.9-0.4c0.3,0,0.7,0.1,0.9,0.4l0.2,0.2v-0.8l0,0C219.2,158.9,218.8,158.7,218.5,158.7z"/>
		<path id="XMLID_151_" class="st0" d="M224.7,159.7c-0.2-0.2-0.4-0.4-0.7-0.6c-0.4-0.3-0.9-0.4-1.4-0.4c-0.7,0-1.4,0.3-1.9,0.8
			c-0.5,0.5-0.8,1.1-0.8,1.9c0,0.7,0.3,1.3,0.8,1.9c0.5,0.5,1.2,0.8,1.9,0.8c0.5,0,0.9-0.1,1.3-0.4c0.3-0.2,0.5-0.4,0.7-0.6v0.9h0.6
			v-5h-0.6V159.7z M224.1,162.9c-0.4,0.4-0.9,0.6-1.5,0.6c-0.6,0-1.1-0.2-1.5-0.6c-0.4-0.4-0.6-0.9-0.6-1.5s0.2-1.1,0.6-1.5
			c0.4-0.4,0.9-0.6,1.5-0.6c0.6,0,1,0.2,1.5,0.6c0.4,0.4,0.6,0.9,0.6,1.5C224.7,162,224.5,162.4,224.1,162.9z"/>
		<path id="XMLID_148_" class="st0" d="M230.7,159.7c-0.2-0.2-0.4-0.5-0.7-0.6c-0.4-0.2-0.9-0.4-1.3-0.4c-0.7,0-1.4,0.3-1.9,0.8
			c-0.5,0.5-0.8,1.1-0.8,1.9c0,0.7,0.3,1.3,0.8,1.9c0.5,0.5,1.1,0.8,1.9,0.8c0.4,0,0.9-0.1,1.3-0.4c0.3-0.2,0.5-0.4,0.7-0.6v0.9h0.6
			v-8.2h-0.6V159.7z M230.1,162.9c-0.4,0.4-0.9,0.6-1.5,0.6c-0.6,0-1.1-0.2-1.5-0.6c-0.4-0.4-0.6-0.9-0.6-1.5c0-0.6,0.2-1.1,0.6-1.5
			c0.4-0.4,0.9-0.6,1.5-0.6s1,0.2,1.5,0.6c0.4,0.4,0.6,0.9,0.6,1.5S230.6,162.4,230.1,162.9z"/>
		<rect id="XMLID_147_" x="232.5" y="158.9" class="st0" width="0.6" height="5"/>
		<path id="XMLID_146_" class="st0" d="M232.8,157.1c-0.3,0-0.4,0.2-0.4,0.4c0,0.3,0.2,0.4,0.4,0.4c0.3,0,0.4-0.2,0.4-0.4
			S233.1,157.1,232.8,157.1z"/>
		<path id="XMLID_145_" class="st0" d="M236.6,158.7c-0.8,0-1.3,0.3-1.7,0.8v-0.7h-0.6v5h0.6V161c0-0.5,0.2-0.9,0.5-1.2
			c0.4-0.3,0.7-0.5,1.2-0.5c0.5,0,0.8,0.2,1.2,0.5c0.3,0.3,0.5,0.7,0.5,1.2v2.9h0.6V161c0-0.6-0.2-1.2-0.6-1.6
			C237.7,159,237.2,158.7,236.6,158.7z"/>
		<path id="XMLID_142_" class="st0" d="M244.3,158.9v0.9c-0.2-0.2-0.4-0.5-0.7-0.6c-0.4-0.2-0.9-0.4-1.4-0.4c-0.7,0-1.4,0.3-1.9,0.8
			c-0.5,0.5-0.8,1.1-0.8,1.9c0,0.7,0.3,1.3,0.8,1.9c0.5,0.5,1.2,0.8,1.9,0.8c0.5,0,0.9-0.1,1.3-0.4c0.3-0.2,0.5-0.4,0.7-0.6v0.3
			c0,0.7-0.2,1.3-0.6,1.7c-0.4,0.4-0.9,0.6-1.4,0.6c-0.4,0-0.8-0.1-1.2-0.3c-0.4-0.2-0.6-0.5-0.8-0.8l-0.2-0.4v1l0,0
			c0.2,0.3,0.5,0.6,0.9,0.8c0.4,0.2,0.8,0.3,1.2,0.3c0.8,0,1.4-0.3,1.9-0.8c0.5-0.5,0.7-1.2,0.7-2v-4.5H244.3z M243.7,162.9
			c-0.4,0.4-0.9,0.6-1.5,0.6c-0.6,0-1.1-0.2-1.5-0.6c-0.4-0.4-0.6-0.9-0.6-1.5s0.2-1.1,0.6-1.5c0.4-0.4,0.9-0.6,1.5-0.6
			c0.6,0,1.1,0.2,1.5,0.6c0.4,0.4,0.6,0.9,0.6,1.5C244.3,162,244.1,162.5,243.7,162.9z"/>
	</g>
	<linearGradient id="XMLID_2_" gradientUnits="userSpaceOnUse" x1="177.1381" y1="78.7778" x2="222.5269" y2="78.7778">
		<stop  offset="0" style="stop-color:#CAA977"/>
		<stop  offset="1" style="stop-color:#12284C"/>
	</linearGradient>
	<path id="XMLID_138_" class="st1" d="M222.5,78.1V56.8h-22.8c-12.4,0-22.6,10.1-22.6,22.6v21.3l22.8,0
		C212.4,100.7,222.5,90.6,222.5,78.1z M179.7,79.3c0-10.9,8.9-19.8,19.8-19.8h20.3v18.8c0,10.9-8.9,19.8-19.8,19.8l-20.3,0V79.3z"/>
	<linearGradient id="XMLID_3_" gradientUnits="userSpaceOnUse" x1="154.9014" y1="78.7898" x2="244.9014" y2="78.7898">
		<stop  offset="0" style="stop-color:#12284C"/>
		<stop  offset="1" style="stop-color:#CAA977"/>
	</linearGradient>
	<path id="XMLID_135_" class="st2" d="M225.1,78.3v-24h-25.6c-13.9,0-25.1,11.2-25.1,25.1v24h6.6v0l19,0
		C213.9,103.3,225.1,92.1,225.1,78.3z M177.2,100.7V79.4c0-12.4,10.1-22.6,22.6-22.6h22.7v21.3c0,12.4-10.1,22.6-22.6,22.6
		L177.2,100.7z"/>
	<linearGradient id="XMLID_4_" gradientUnits="userSpaceOnUse" x1="154.9014" y1="78.8891" x2="244.9014" y2="78.8891">
		<stop  offset="0" style="stop-color:#12284C"/>
		<stop  offset="1" style="stop-color:#CAA977"/>
	</linearGradient>
	<path id="XMLID_134_" class="st3" d="M237.7,33.9h-75.6c-4,0-7.2,3.2-7.2,7.2l0,62.3l19.6,0v-2.6l-17,0V43.3c0-3.8,2.4-6.8,6.8-6.8
		h71.2c4.6,0,6.8,3,6.8,6.8v71.1c0,3.8-1.9,6.8-6.8,6.8l-58.3,0v-17.9l-2.7,0v4.5v16.1l63.2,0c4,0,7.2-3.2,7.2-7.2V41.1
		C244.9,37.1,241.7,33.9,237.7,33.9z"/>
	<linearGradient id="XMLID_5_" gradientUnits="userSpaceOnUse" x1="157.4321" y1="78.8898" x2="242.3054" y2="78.8898">
		<stop  offset="0" style="stop-color:#CAA977"/>
		<stop  offset="1" style="stop-color:#12284C"/>
	</linearGradient>
	<path id="XMLID_133_" class="st4" d="M235.4,121.3c5.1,0,6.9-3,6.9-6.8V43.3c0-3.8-2.1-6.8-6.8-6.8h-71.2c-4.5,0-6.9,3-6.9,6.8
		v57.4l17,0v-2.6l-5.9,0l-8.4,0l0-55.3c0-2,1.6-3.6,3.6-3.6H236c2,0,3.6,1.6,3.6,3.6V115c0,2-1.6,3.6-3.6,3.6l-56.3,0v-10.8v-4.5
		l-2.6,0v17.9L235.4,121.3z"/>
	<g id="XMLID_119_">
		<path id="XMLID_130_" class="st0" d="M156.3,150.3h-1.1c-0.2,0-0.3-0.1-0.3-0.3V135c0-0.2,0.1-0.3,0.3-0.3h5.7c1.1,0,2,0.3,2.6,1
			c0.6,0.6,0.9,1.5,0.9,2.6v2.7c0,1.1-0.3,2-0.9,2.6c-0.6,0.6-1.5,0.9-2.6,0.9h-4c-0.2,0-0.2,0.1-0.2,0.2v5.2
			C156.7,150.1,156.6,150.3,156.3,150.3z M156.9,143h3.8c1.4,0,2-0.7,2-2.1v-2.5c0-1.4-0.7-2.1-2-2.1h-3.8c-0.2,0-0.2,0.1-0.2,0.2
			v6.3C156.7,142.9,156.8,143,156.9,143z"/>
		<path id="XMLID_128_" class="st0" d="M201.9,150.3h-7.8c-0.2,0-0.3-0.1-0.3-0.3V135c0-0.2,0.1-0.3,0.3-0.3h1.1
			c0.2,0,0.3,0.1,0.3,0.3v13.4c0,0.1,0.1,0.2,0.2,0.2h6.1c0.2,0,0.3,0.1,0.3,0.4v0.9C202.2,150.1,202.1,150.3,201.9,150.3z"/>
		<path id="XMLID_126_" class="st0" d="M215.5,150.3h-7.6c-0.2,0-0.3-0.1-0.3-0.3V135c0-0.2,0.1-0.3,0.3-0.3h7.6
			c0.2,0,0.3,0.1,0.3,0.3v0.9c0,0.2-0.1,0.3-0.3,0.3h-5.9c-0.2,0-0.2,0.1-0.2,0.2v4.9c0,0.1,0.1,0.2,0.2,0.2h5.9
			c0.2,0,0.3,0.1,0.3,0.3v0.9c0,0.2-0.1,0.3-0.3,0.3h-5.9c-0.2,0-0.2,0.1-0.2,0.2v5.2c0,0.1,0.1,0.2,0.2,0.2h5.9
			c0.2,0,0.3,0.1,0.3,0.3v0.9C215.8,150.1,215.7,150.3,215.5,150.3z"/>
		<path id="XMLID_124_" class="st0" d="M229,150.3h-7.6c-0.2,0-0.3-0.1-0.3-0.3V135c0-0.2,0.1-0.3,0.3-0.3h7.6
			c0.2,0,0.3,0.1,0.3,0.3v0.9c0,0.2-0.1,0.3-0.3,0.3h-5.9c-0.2,0-0.2,0.1-0.2,0.2v4.9c0,0.1,0.1,0.2,0.2,0.2h5.9
			c0.2,0,0.3,0.1,0.3,0.3v0.9c0,0.2-0.1,0.3-0.3,0.3h-5.9c-0.2,0-0.2,0.1-0.2,0.2v5.2c0,0.1,0.1,0.2,0.2,0.2h5.9
			c0.2,0,0.3,0.1,0.3,0.3v0.9C229.4,150.1,229.2,150.3,229,150.3z"/>
		<path id="XMLID_122_" class="st0" d="M236.1,150.3H235c-0.2,0-0.3-0.1-0.3-0.3V135c0-0.2,0.1-0.3,0.3-0.3h1c0.2,0,0.3,0.1,0.4,0.2
			l6.7,11.8h0.1V135c0-0.2,0.1-0.3,0.3-0.3h1.1c0.2,0,0.3,0.1,0.3,0.3v14.9c0,0.2-0.1,0.3-0.3,0.3h-0.9c-0.2,0-0.3-0.1-0.5-0.3
			l-6.7-11.6h-0.1v11.6C236.4,150.1,236.3,150.3,236.1,150.3z"/>
		<path id="XMLID_121_" class="st0" d="M188.4,149.9l-3.2-6.8v-0.1c0.8-0.2,1.4-0.6,1.8-1.2c0.4-0.6,0.7-1.3,0.7-2.2v-1.3
			c0-1.1-0.3-2-1-2.6c-0.6-0.6-1.5-1-2.6-1h-3.5c-0.2,0-0.3,0.1-0.3,0.3v1c0,0.2,0.1,0.3,0.3,0.3h3.4c1.4,0,2.1,0.7,2.1,2.1v1.1
			c0,1.2-0.9,2.1-2.1,2.1h-7.1c-0.2,0-0.3,0.1-0.3,0.3v1c0,0.2,0.1,0.3,0.3,0.3h6.5l3.1,6.8c0.1,0.2,0.3,0.3,0.6,0.3h1.1
			C188.5,150.3,188.5,150.1,188.4,149.9z"/>
		<path id="XMLID_120_" class="st0" d="M178,135.9V135c0-0.2-0.1-0.3-0.3-0.3H170c-0.2,0-0.3,0.1-0.3,0.3v14.9
			c0,0.2,0.1,0.3,0.3,0.3h7.6c0.2,0,0.3-0.1,0.3-0.3V149c0-0.2-0.1-0.3-0.3-0.3h-5.9c-0.2,0-0.2-0.1-0.2-0.2v-12
			c0-0.1,0.1-0.2,0.2-0.2h5.9C177.9,136.2,178,136.1,178,135.9z"/>
	</g>
</g>
</svg>
