<?xml version="1.0" encoding="utf-8"?>
<!-- Generator: Adobe Illustrator 23.0.1, SVG Export Plug-In . SVG Version: 6.00 Build 0)  -->
<svg version="1.1" id="Layer_1" xmlns="http://www.w3.org/2000/svg" xmlns:xlink="http://www.w3.org/1999/xlink" x="0px" y="0px"
	 viewBox="0 0 400 200" style="enable-background:new 0 0 400 200;" xml:space="preserve">
<style type="text/css">
	.st0{fill:#4DC7EE;}
	.st1{fill:url(#SVGID_1_);}
	.st2{fill:#E73C93;}
	.st3{fill:url(#SVGID_2_);}
	.st4{fill:#2F88C4;}
	.st5{fill:url(#SVGID_3_);}
	.st6{fill:url(#SVGID_4_);}
	.st7{fill:#231F20;}
	.st8{fill:#6D6E70;}
</style>
<g>
	<g>
		<g>
			<path class="st0" d="M143.5,120.7l-14.3-14.6c0,0,0,0,0,0l0,0c0,0,0,0,0,0l-5.9-6l0,0l0,0l5-5.1l5-5.1l10.4,10.6
				C149,106,149,115.1,143.5,120.7z"/>
			
				<linearGradient id="SVGID_1_" gradientUnits="userSpaceOnUse" x1="-2288.8557" y1="956.809" x2="-2286.3032" y2="947.0243" gradientTransform="matrix(0.7071 0.7071 -0.7071 0.7071 2422.332 1054.7003)">
				<stop  offset="0" style="stop-color:#231F20;stop-opacity:0.1"/>
				<stop  offset="1" style="stop-color:#231F20;stop-opacity:0.35"/>
			</linearGradient>
			<path class="st1" d="M143.5,120.7l-14.3-14.6c0,0,0,0,0,0l0,0c0,0,0,0,0,0l-5.9-6l0,0l0,0l5-5.1l10.2,10.3
				C138.3,105.3,145.8,112.3,143.5,120.7z"/>
		</g>
		<g>
			<path class="st2" d="M98.9,124.6l14.3-14.6c0,0,0,0,0,0l0,0c0,0,0,0,0,0l5.9-6l0,0l0,0l5,5.1l5,5.1l-10.4,10.6
				C113.4,130.2,104.4,130.2,98.9,124.6z"/>
			
				<linearGradient id="SVGID_2_" gradientUnits="userSpaceOnUse" x1="-2235.3484" y1="5890.7095" x2="-2232.7188" y2="5880.6294" gradientTransform="matrix(-0.7071 0.7071 -0.7071 -0.7071 2691.1882 5853.9644)">
				<stop  offset="0" style="stop-color:#231F20;stop-opacity:0.1"/>
				<stop  offset="1" style="stop-color:#231F20;stop-opacity:0.35"/>
			</linearGradient>
			<path class="st3" d="M98.9,124.6l14.3-14.6c0,0,0,0,0,0l0,0c0,0,0,0,0,0l5.9-6l0,0l0,0l5,5.1l-10.2,10.3
				C114.1,119.3,107.2,127,98.9,124.6z"/>
		</g>
		<g>
			<path class="st4" d="M95.1,79.3l14.3,14.6c0,0,0,0,0,0l0,0c0,0,0,0,0,0l5.9,6l0,0l0,0l-5,5.1l-5,5.1L95.1,99.6
				C89.6,94,89.6,84.9,95.1,79.3z"/>
			
				<linearGradient id="SVGID_3_" gradientUnits="userSpaceOnUse" x1="2340.543" y1="5764.5142" x2="2343.0957" y2="5754.7295" gradientTransform="matrix(-0.7071 -0.7071 0.7071 -0.7071 -2309.8113 5818.3398)">
				<stop  offset="0" style="stop-color:#231F20;stop-opacity:0.1"/>
				<stop  offset="1" style="stop-color:#231F20;stop-opacity:0.35"/>
			</linearGradient>
			<path class="st5" d="M95.1,79.3l14.3,14.6c0,0,0,0,0,0l0,0c0,0,0,0,0,0l5.9,6l0,0l0,0l-5,5.1l-10.2-10.3
				C100.3,94.7,92.8,87.7,95.1,79.3z"/>
		</g>
		<g>
			<path class="st2" d="M139.7,75.4L125.3,90c0,0,0,0,0,0l0,0c0,0,0,0,0,0l-5.9,6l0,0l0,0l-5-5.1l-5-5.1l10.4-10.6
				C125.2,69.8,134.2,69.8,139.7,75.4z"/>
			
				<linearGradient id="SVGID_4_" gradientUnits="userSpaceOnUse" x1="2572.3564" y1="1261.3108" x2="2574.9861" y2="1251.2306" gradientTransform="matrix(0.7071 -0.7071 0.7071 0.7071 -2578.6675 1019.0758)">
				<stop  offset="0" style="stop-color:#231F20;stop-opacity:0.1"/>
				<stop  offset="1" style="stop-color:#231F20;stop-opacity:0.35"/>
			</linearGradient>
			<path class="st6" d="M139.7,75.4L125.3,90c0,0,0,0,0,0l0,0c0,0,0,0,0,0l-5.9,6l0,0l0,0l-5-5.1l10.2-10.3
				C124.5,80.7,131.4,73,139.7,75.4z"/>
		</g>
	</g>
	<g>
		<g>
			<path class="st7" d="M167.4,85.8c0-1.4-0.2-2.4-0.5-3c-0.4-0.6-1.1-1-2.2-1h-0.8v-0.8h10.2c2.5,0,4.8,0.5,6.8,1.6
				c2,1.1,3,3.2,3,6.3c0,2.1-0.5,3.7-1.6,4.8c-1,1.1-2.2,1.9-3.5,2.2c-1.3,0.4-2.5,0.6-3.5,0.6H171v10.8h-3.5V85.8z M176.6,94.5
				c0.9-0.4,1.7-1.1,2.4-2.1c0.7-1,1-2.2,1-3.6c0-1.5-0.3-2.7-1-3.6c-0.7-1-1.5-1.7-2.4-2.1c-0.9-0.4-1.8-0.7-2.7-0.7
				c-0.9,0-1.9,0.1-2.9,0.4v11.9c1,0.3,2,0.4,2.9,0.4C174.7,95.2,175.6,95,176.6,94.5z"/>
			<path class="st7" d="M188.3,93.4c0-1.4-0.2-2.4-0.5-3c-0.4-0.6-1.1-1-2.2-1h-0.8v-0.8h3.5c1,0,1.7,0.1,2.2,0.4
				c0.5,0.3,0.8,0.7,1,1.4c0.2,0.7,0.3,1.7,0.3,3v13.9h-3.5V93.4z M188.3,85.5c-0.4-0.5-0.6-1.1-0.6-1.8c0-0.6,0.2-1,0.5-1.3
				c0.3-0.3,0.8-0.5,1.3-0.5c0.6,0,1.1,0.3,1.5,0.8c0.4,0.5,0.6,1.1,0.6,1.8c0,0.6-0.2,1-0.5,1.3c-0.3,0.3-0.8,0.5-1.3,0.5
				C189.2,86.2,188.7,86,188.3,85.5z"/>
			<path class="st7" d="M198,93.4c0-1.4-0.2-2.4-0.5-3c-0.4-0.6-1.1-1-2.2-1h-0.8v-0.8h3.5c1,0,1.7,0.1,2.2,0.4
				c0.5,0.3,0.9,0.7,1.1,1.2h0.2c0.5-0.6,1.3-1,2.1-1.4c0.9-0.4,1.9-0.6,3-0.6c2,0,3.6,0.5,4.8,1.6c1.2,1.1,1.9,2.9,1.9,5.6v11.9
				h-3.5V95.4c0-1.9-0.4-3.2-1.2-4.1c-0.8-0.9-1.8-1.3-3.1-1.3c-1.4,0-2.7,0.7-3.9,2.1v15.2H198V93.4z"/>
			<path class="st7" d="M219.4,93.2c-0.6-1.5-1.2-2.5-1.8-3.1c-0.6-0.6-1.4-0.9-2.3-1v-0.8c0.1,0,0.3,0,0.6,0c0.3,0,0.5,0,0.8,0
				c1.4,0,2.7,0.4,3.7,1.1c1.1,0.7,2,2,2.7,3.9l3.3,8.4l3.3-8.6c-0.6-1.4-1.2-2.4-1.8-3c-0.6-0.6-1.3-0.9-2.1-0.9v-0.8
				c0.1,0,0.3,0,0.6,0c0.3,0,0.5,0,0.8,0c1.4,0,2.7,0.4,3.7,1.1c1.1,0.7,2,2,2.7,3.9l3.3,8.4l5.1-12.9h2l-7.6,19.1h-0.8l-4.9-12.3
				l-4.9,12.3h-0.8L219.4,93.2z"/>
			<path class="st7" d="M247.7,85.8c0-1.4-0.2-2.4-0.5-3c-0.4-0.6-1.1-1-2.2-1h-0.8v-0.8h3.5c1,0,1.7,0.1,2.2,0.4
				c0.5,0.3,0.8,0.7,1,1.4c0.2,0.7,0.3,1.7,0.3,3v4.4c0.5-0.6,1.3-1,2.1-1.4c0.9-0.4,1.9-0.6,3-0.6c2,0,3.6,0.5,4.8,1.6
				c1.2,1.1,1.9,2.9,1.9,5.6v11.9h-3.5V95.4c0-1.9-0.4-3.2-1.2-4.1c-0.8-0.9-1.8-1.3-3.1-1.3c-1.4,0-2.7,0.7-3.9,2.1v15.2h-3.5V85.8
				z"/>
			<path class="st7" d="M271.1,106.5c-1.2-0.9-2.2-2-2.8-3.5c-0.6-1.5-0.9-3.1-0.9-5c0-1.8,0.3-3.5,0.9-4.9c0.6-1.5,1.5-2.7,2.7-3.5
				c1.2-0.9,2.6-1.3,4.2-1.3c2.6,0,4.6,0.8,5.9,2.2c1.3,1.5,1.9,3.7,1.9,6.5l-0.1,1.6h-11.9c0,2.2,0.5,4,1.4,5.5
				c0.9,1.4,2.2,2.1,3.9,2.1c1.2,0,2.3-0.3,3.1-0.8c0.8-0.5,1.6-1.3,2.4-2.4l0.8,0.6c-0.9,1.5-1.9,2.5-3,3.2c-1.2,0.7-2.5,1-4,1
				C273.8,107.7,272.3,107.3,271.1,106.5z M279.3,97c0-2.3-0.3-4.1-1-5.3c-0.7-1.2-1.7-1.8-3.1-1.8c-0.8,0-1.5,0.3-2.1,0.9
				c-0.6,0.6-1.1,1.5-1.5,2.6c-0.4,1.1-0.5,2.3-0.5,3.7H279.3z"/>
			<path class="st7" d="M290.2,106.5c-1.2-0.9-2.2-2-2.8-3.5c-0.6-1.5-0.9-3.1-0.9-5c0-1.8,0.3-3.5,0.9-4.9c0.6-1.5,1.5-2.7,2.7-3.5
				c1.2-0.9,2.6-1.3,4.2-1.3c2.6,0,4.6,0.8,5.9,2.2c1.3,1.5,1.9,3.7,1.9,6.5l-0.1,1.6h-11.9c0,2.2,0.5,4,1.4,5.5
				c0.9,1.4,2.2,2.1,3.9,2.1c1.2,0,2.3-0.3,3.1-0.8c0.8-0.5,1.6-1.3,2.4-2.4l0.8,0.6c-0.9,1.5-1.9,2.5-3,3.2c-1.2,0.7-2.5,1-4,1
				C292.9,107.7,291.4,107.3,290.2,106.5z M298.4,97c0-2.3-0.3-4.1-1-5.3c-0.7-1.2-1.7-1.8-3.1-1.8c-0.8,0-1.5,0.3-2.1,0.9
				c-0.6,0.6-1.1,1.5-1.5,2.6c-0.4,1.1-0.5,2.3-0.5,3.7H298.4z"/>
			<path class="st7" d="M306.8,85.8c0-1.4-0.2-2.4-0.5-3c-0.4-0.6-1.1-1-2.2-1h-0.8v-0.8h3.5c1,0,1.7,0.1,2.2,0.4
				c0.5,0.3,0.8,0.7,1,1.4c0.2,0.7,0.3,1.7,0.3,3v21.5h-3.5V85.8z"/>
		</g>
	</g>
	<g>
		<g>
			<path class="st8" d="M170.3,117.1v0.4H169v4.2h-0.5v-4.2h-1.3v-0.4H170.3z"/>
			<path class="st8" d="M175.8,121.8l-1.1-1.9h-0.8v1.9h-0.5v-4.6h1.4c0.5,0,0.9,0.1,1.2,0.4c0.3,0.2,0.4,0.6,0.4,1
				c0,0.3-0.1,0.6-0.3,0.9s-0.5,0.4-0.8,0.5l1.2,2H175.8z M173.8,119.5h0.9c0.4,0,0.6-0.1,0.8-0.3c0.2-0.2,0.3-0.4,0.3-0.7
				c0-0.3-0.1-0.5-0.3-0.7c-0.2-0.2-0.4-0.2-0.8-0.2h-0.9V119.5z"/>
			<path class="st8" d="M182.2,120.7h-2.1l-0.4,1.1h-0.5l1.7-4.6h0.5l1.7,4.6h-0.5L182.2,120.7z M182,120.3l-0.9-2.5l-0.9,2.5H182z"
				/>
			<path class="st8" d="M188.8,117.4c0.4,0.2,0.6,0.5,0.8,0.8c0.2,0.3,0.3,0.8,0.3,1.2c0,0.5-0.1,0.9-0.3,1.2
				c-0.2,0.3-0.5,0.6-0.8,0.8c-0.4,0.2-0.8,0.3-1.3,0.3h-1.3v-4.6h1.3C188,117.1,188.4,117.2,188.8,117.4z M188.9,120.9
				c0.3-0.3,0.5-0.8,0.5-1.4c0-0.6-0.2-1.1-0.5-1.4c-0.3-0.3-0.8-0.5-1.4-0.5h-0.9v3.9h0.9C188.1,121.4,188.6,121.2,188.9,120.9z"/>
			<path class="st8" d="M193.5,117.1v4.6h-0.5v-4.6H193.5z"/>
			<path class="st8" d="M200.3,121.8h-0.5l-2.5-3.9v3.9h-0.5v-4.6h0.5l2.5,3.9v-3.9h0.5V121.8z"/>
			<path class="st8" d="M207.3,118.5c-0.1-0.3-0.3-0.5-0.6-0.7c-0.3-0.2-0.6-0.3-0.9-0.3c-0.3,0-0.6,0.1-0.9,0.2
				c-0.3,0.2-0.5,0.4-0.6,0.7c-0.2,0.3-0.2,0.6-0.2,1c0,0.4,0.1,0.7,0.2,1c0.2,0.3,0.4,0.5,0.6,0.7c0.3,0.2,0.6,0.2,0.9,0.2
				c0.3,0,0.6-0.1,0.9-0.2c0.3-0.1,0.5-0.3,0.6-0.6c0.2-0.3,0.2-0.6,0.3-0.9h-1.9v-0.4h2.4v0.3c0,0.4-0.1,0.8-0.3,1.1
				c-0.2,0.3-0.5,0.6-0.8,0.8c-0.3,0.2-0.7,0.3-1.1,0.3c-0.4,0-0.8-0.1-1.1-0.3c-0.3-0.2-0.6-0.5-0.8-0.8c-0.2-0.4-0.3-0.8-0.3-1.2
				s0.1-0.9,0.3-1.2c0.2-0.4,0.5-0.6,0.8-0.8c0.3-0.2,0.7-0.3,1.1-0.3c0.5,0,0.9,0.1,1.3,0.4c0.4,0.2,0.6,0.6,0.8,1H207.3z"/>
			<path class="st8" d="M218.7,121.8l-0.6-0.6c-0.2,0.2-0.5,0.4-0.7,0.5c-0.3,0.1-0.5,0.2-0.9,0.2c-0.3,0-0.6-0.1-0.8-0.2
				c-0.2-0.1-0.4-0.3-0.5-0.5c-0.1-0.2-0.2-0.5-0.2-0.7c0-0.3,0.1-0.6,0.3-0.9c0.2-0.2,0.4-0.4,0.8-0.6c-0.2-0.2-0.3-0.3-0.3-0.5
				c-0.1-0.1-0.1-0.3-0.1-0.5c0-0.3,0.1-0.5,0.3-0.7c0.2-0.2,0.5-0.3,0.8-0.3c0.3,0,0.6,0.1,0.8,0.3c0.2,0.2,0.3,0.4,0.3,0.7h-0.5
				c0-0.2-0.1-0.4-0.2-0.5c-0.1-0.1-0.3-0.2-0.5-0.2c-0.2,0-0.4,0.1-0.5,0.2c-0.1,0.1-0.2,0.3-0.2,0.4c0,0.1,0,0.3,0.1,0.4
				s0.2,0.3,0.4,0.5l1.5,1.5c0.1-0.1,0.1-0.2,0.2-0.4l0.4-0.7h0.5l-0.5,0.9c-0.1,0.2-0.2,0.4-0.4,0.6l1,1H218.7z M217.2,121.3
				c0.2-0.1,0.4-0.3,0.6-0.5l-1.5-1.5c-0.6,0.2-0.9,0.6-0.9,1.1c0,0.2,0,0.4,0.1,0.5c0.1,0.2,0.2,0.3,0.4,0.4
				c0.2,0.1,0.4,0.1,0.6,0.1C216.8,121.4,217,121.4,217.2,121.3z"/>
			<path class="st8" d="M226.9,117.1v4.6h-0.5v-4.6H226.9z"/>
			<path class="st8" d="M233.7,121.8h-0.5l-2.5-3.9v3.9h-0.5v-4.6h0.5l2.5,3.9v-3.9h0.5V121.8z"/>
			<path class="st8" d="M240.7,117.1l-1.7,4.6h-0.5l-1.7-4.6h0.5l1.5,4.1l1.5-4.1H240.7z"/>
			<path class="st8" d="M244.1,117.5v1.7h1.7v0.4h-1.7v1.8h1.9v0.4h-2.4v-4.6h2.4v0.4H244.1z"/>
			<path class="st8" d="M249.9,121.6c-0.2-0.1-0.4-0.3-0.5-0.4c-0.1-0.2-0.2-0.4-0.2-0.6h0.5c0,0.2,0.1,0.4,0.3,0.6
				c0.2,0.2,0.4,0.3,0.8,0.3c0.3,0,0.6-0.1,0.7-0.2c0.2-0.2,0.3-0.4,0.3-0.6c0-0.2,0-0.4-0.1-0.5c-0.1-0.1-0.2-0.2-0.4-0.3
				c-0.1-0.1-0.4-0.1-0.6-0.2c-0.3-0.1-0.5-0.2-0.7-0.2c-0.2-0.1-0.3-0.2-0.5-0.4c-0.1-0.2-0.2-0.4-0.2-0.7c0-0.2,0.1-0.5,0.2-0.6
				c0.1-0.2,0.3-0.3,0.5-0.4c0.2-0.1,0.5-0.2,0.8-0.2c0.4,0,0.8,0.1,1,0.3c0.3,0.2,0.4,0.5,0.4,0.8h-0.5c0-0.2-0.1-0.4-0.3-0.5
				c-0.2-0.1-0.4-0.2-0.7-0.2c-0.3,0-0.5,0.1-0.7,0.2c-0.2,0.1-0.3,0.3-0.3,0.6c0,0.2,0,0.4,0.1,0.5c0.1,0.1,0.2,0.2,0.4,0.3
				c0.1,0.1,0.4,0.1,0.6,0.2c0.3,0.1,0.5,0.2,0.7,0.2c0.2,0.1,0.3,0.2,0.5,0.4c0.1,0.2,0.2,0.4,0.2,0.7c0,0.2-0.1,0.4-0.2,0.6
				c-0.1,0.2-0.3,0.4-0.5,0.5c-0.2,0.1-0.5,0.2-0.8,0.2C250.4,121.8,250.1,121.8,249.9,121.6z"/>
			<path class="st8" d="M258,117.1v0.4h-1.3v4.2h-0.5v-4.2h-1.3v-0.4H258z"/>
			<path class="st8" d="M265.6,117.2v4.6h-0.5v-3.6l-1.6,3.6h-0.3l-1.6-3.6v3.6h-0.5v-4.6h0.5l1.7,4l1.7-4H265.6z"/>
			<path class="st8" d="M269.4,117.5v1.7h1.7v0.4h-1.7v1.8h1.9v0.4h-2.4v-4.6h2.4v0.4H269.4z"/>
			<path class="st8" d="M278,121.8h-0.5l-2.5-3.9v3.9h-0.5v-4.6h0.5l2.5,3.9v-3.9h0.5V121.8z"/>
			<path class="st8" d="M284,117.1v0.4h-1.3v4.2h-0.5v-4.2H281v-0.4H284z"/>
			<path class="st8" d="M287.7,121.6c-0.2-0.1-0.4-0.3-0.5-0.4c-0.1-0.2-0.2-0.4-0.2-0.6h0.5c0,0.2,0.1,0.4,0.3,0.6
				c0.2,0.2,0.4,0.3,0.8,0.3c0.3,0,0.6-0.1,0.7-0.2c0.2-0.2,0.3-0.4,0.3-0.6c0-0.2,0-0.4-0.1-0.5c-0.1-0.1-0.2-0.2-0.4-0.3
				c-0.1-0.1-0.4-0.1-0.6-0.2c-0.3-0.1-0.5-0.2-0.7-0.2c-0.2-0.1-0.3-0.2-0.5-0.4s-0.2-0.4-0.2-0.7c0-0.2,0.1-0.5,0.2-0.6
				c0.1-0.2,0.3-0.3,0.5-0.4c0.2-0.1,0.5-0.2,0.8-0.2c0.4,0,0.8,0.1,1,0.3c0.3,0.2,0.4,0.5,0.4,0.8h-0.5c0-0.2-0.1-0.4-0.3-0.5
				c-0.2-0.1-0.4-0.2-0.7-0.2c-0.3,0-0.5,0.1-0.7,0.2c-0.2,0.1-0.3,0.3-0.3,0.6c0,0.2,0,0.4,0.1,0.5c0.1,0.1,0.2,0.2,0.4,0.3
				c0.1,0.1,0.4,0.1,0.6,0.2c0.3,0.1,0.5,0.2,0.7,0.2c0.2,0.1,0.3,0.2,0.5,0.4c0.1,0.2,0.2,0.4,0.2,0.7c0,0.2-0.1,0.4-0.2,0.6
				c-0.1,0.2-0.3,0.4-0.5,0.5c-0.2,0.1-0.5,0.2-0.8,0.2C288.2,121.8,287.9,121.8,287.7,121.6z"/>
			<path class="st8" d="M299.7,117.1v0.4h-2v1.7h1.7v0.4h-1.7v2.1h-0.5v-4.6H299.7z"/>
			<path class="st8" d="M303.1,121.4h2.3v0.4h-2.9v-0.4l2.3-3.8h-2.3v-0.4h2.8v0.4L303.1,121.4z"/>
			<path class="st8" d="M309.1,117.5v1.7h1.7v0.4h-1.7v1.8h1.9v0.4h-2.4v-4.6h2.4v0.4H309.1z"/>
		</g>
	</g>
</g>
</svg>
