<?xml version="1.0" encoding="utf-8"?>
<!-- Generator: Adobe Illustrator 23.0.1, SVG Export Plug-In . SVG Version: 6.00 Build 0)  -->
<svg version="1.1" id="Layer_1" xmlns="http://www.w3.org/2000/svg" xmlns:xlink="http://www.w3.org/1999/xlink" x="0px" y="0px"
	 viewBox="0 0 400 200" style="enable-background:new 0 0 400 200;" xml:space="preserve">
<g>
	<g>
		<g>
			<g>
				<g>
					<path d="M143.7,107.8H155c2.6,0,4.5,0.6,5.9,1.7c1.3,1.2,2,2.7,2,4.5c0,1.9-0.6,3.3-1.9,4.3c-1.7,1.4-3.8,2-6.3,2h-4.1v7.8
						c0,0.5,0.1,0.8,0.3,1c0.3,0.2,0.7,0.4,1.2,0.4h2.6v1.2h-11v-1.2h2.3c0.5,0,0.8-0.1,1-0.3c0.2-0.2,0.3-0.4,0.3-0.7v-18.3
						c0-0.5-0.1-0.8-0.4-1c-0.3-0.2-0.8-0.3-1.5-0.3h-1.7V107.8z M150.6,119.2h3.1c2,0,3.4-0.4,4.3-1.2c0.9-0.8,1.3-2.2,1.3-4.1
						c0-1.3-0.2-2.3-0.6-3.1c-0.4-0.7-1-1.2-1.7-1.6c-0.8-0.3-2-0.5-3.7-0.5c-1.1,0-1.9,0.1-2.2,0.3c-0.3,0.2-0.5,0.6-0.5,1.1V119.2
						z"/>
					<path d="M164.5,107.8h11.9c2.3,0,4.1,0.5,5.3,1.6c1.3,1.1,1.9,2.4,1.9,4.1c0,1-0.3,1.9-0.8,2.7c-0.5,0.8-1.2,1.4-2.2,1.9
						c-0.9,0.5-2.4,0.8-4.5,1c1.5,0.4,2.5,0.8,3,1.2c0.6,0.4,1,0.9,1.3,1.5c0.3,0.6,0.7,1.9,1.2,3.8c0.3,1.4,0.6,2.3,1,2.8
						c0.3,0.4,0.6,0.6,0.9,0.6c0.3,0,0.6-0.2,0.9-0.7c0.3-0.5,0.4-1.3,0.5-2.5h1.1c-0.2,3.5-1.5,5.3-3.9,5.3c-0.8,0-1.4-0.2-2-0.6
						c-0.6-0.4-1-1-1.2-1.7c-0.2-0.6-0.5-2-0.7-4.4c-0.2-1.4-0.4-2.4-0.7-2.9c-0.3-0.6-0.9-1.1-1.6-1.4c-0.7-0.4-1.6-0.5-2.6-0.5
						h-1.9v9c0,0.4,0.1,0.6,0.3,0.8c0.3,0.2,0.6,0.3,1.2,0.3h2.2v1.2h-10.7v-1.2h2.3c0.5,0,0.9-0.1,1.1-0.3c0.2-0.2,0.4-0.5,0.4-0.8
						v-18.4c0-0.4-0.1-0.7-0.4-0.9c-0.2-0.2-0.6-0.3-1.1-0.3h-2.3V107.8z M171.5,118.3h2.7c1.8,0,3.2-0.3,4.3-1
						c1-0.7,1.5-1.9,1.5-3.7c0-1.2-0.2-2.2-0.6-2.9c-0.4-0.7-0.9-1.2-1.5-1.4c-0.6-0.3-1.9-0.4-3.7-0.4c-1.2,0-2,0.1-2.3,0.3
						c-0.3,0.2-0.4,0.5-0.4,0.9V118.3z"/>
					<path d="M188.7,107.8h18.2l0.4,7.8h-1c-0.4-2.5-1.1-4.2-2-5.1c-0.9-1-2.1-1.5-3.5-1.5h-4.5c-0.4,0-0.6,0.1-0.8,0.3
						c-0.2,0.2-0.3,0.5-0.3,0.9v8.2h2c1.1,0,1.9-0.4,2.6-1.1c0.7-0.8,1-1.9,1.1-3.5h1.1v10.6h-1.1c-0.1-1.8-0.4-3-1.1-3.8
						c-0.7-0.8-1.6-1.1-2.7-1.1h-1.8v9.1c0,0.3,0.1,0.6,0.3,0.8c0.2,0.2,0.6,0.3,1.1,0.3h3.5c3.8,0,6.1-2.5,6.7-7.4h1.1l-0.4,8.5
						h-19v-1.2h1.6c0.6,0,1-0.1,1.3-0.3c0.2-0.2,0.4-0.5,0.4-0.9v-18.2c0-0.4-0.1-0.7-0.3-0.9c-0.2-0.2-0.6-0.3-1-0.3h-1.9V107.8z"
						/>
					<path d="M224.3,109.5l1.4-2h1.1l0.1,8.4h-1c-0.6-2.6-1.6-4.4-2.9-5.6c-1.3-1.2-2.7-1.8-4.3-1.8c-1.4,0-2.5,0.4-3.3,1.2
						c-0.9,0.8-1.3,1.8-1.3,3c0,0.7,0.2,1.4,0.5,1.9c0.3,0.6,0.8,1,1.5,1.3c0.6,0.4,1.9,0.7,3.7,1.1c2.6,0.6,4.3,1.1,5.4,1.7
						c1,0.6,1.8,1.3,2.3,2.1c0.5,0.9,0.8,1.9,0.8,3c0,2.1-0.7,3.8-2.1,5.2c-1.4,1.4-3.2,2-5.4,2c-2.4,0-4.4-0.8-6.2-2.3l-1.7,2.1
						h-1.1v-8.9h1.1c0.4,2.5,1.4,4.4,2.9,5.8c1.5,1.4,3.2,2.1,5.1,2.1c1.5,0,2.8-0.4,3.8-1.4c1-0.9,1.4-2,1.4-3.3
						c0-0.7-0.2-1.4-0.5-1.9c-0.4-0.6-0.9-1-1.7-1.4c-0.8-0.4-2.3-0.8-4.7-1.4c-2.5-0.6-4.3-1.3-5.2-2c-1.3-1-1.9-2.5-1.9-4.5
						c0-2,0.6-3.7,1.9-5c1.3-1.3,2.9-1.9,4.9-1.9c1,0,1.9,0.2,2.8,0.5C222.5,108.1,223.4,108.7,224.3,109.5z"/>
					<path d="M231.1,107.8h18.7l0.4,8.7h-1.1c-0.7-5.1-2.5-7.6-5.5-7.6c-0.6,0-1,0.1-1.2,0.3c-0.2,0.2-0.3,0.6-0.3,1v18.4
						c0,0.4,0.1,0.6,0.3,0.8c0.2,0.2,0.6,0.3,1.1,0.3h2.3v1.2H235v-1.2h2.6c0.4,0,0.6-0.1,0.8-0.3c0.2-0.2,0.3-0.4,0.3-0.7V110
						c0-0.4-0.1-0.7-0.4-0.9c-0.2-0.2-0.6-0.3-1.1-0.3c-1.5,0-2.7,0.7-3.8,2.1c-0.8,1.2-1.4,3-1.8,5.5h-1.1L231.1,107.8z"/>
					<path d="M252.1,107.8h10.6v1.2h-1.8c-0.8,0-1.3,0.1-1.5,0.3c-0.2,0.2-0.3,0.6-0.3,1.3v17.4c0,0.7,0.1,1.1,0.3,1.3
						c0.3,0.2,0.7,0.4,1.3,0.4h2v1.2h-10.6v-1.2h2c0.7,0,1.2-0.1,1.4-0.3c0.2-0.2,0.3-0.7,0.3-1.4v-17.4c0-0.7-0.1-1.1-0.3-1.2
						c-0.3-0.2-0.8-0.3-1.6-0.3h-1.8V107.8z"/>
					<path d="M281.7,109.6l1.3-2.3h1.1l0.6,9.2h-1c-0.8-2.6-1.7-4.5-2.7-5.7c-1.4-1.5-2.9-2.2-4.6-2.2c-1.3,0-2.5,0.4-3.6,1.1
						c-1.1,0.8-1.9,1.9-2.4,3.4c-0.6,1.5-0.8,3.6-0.8,6.4c0,2.7,0.3,4.7,0.8,6.2c0.6,1.5,1.4,2.6,2.3,3.3c1,0.7,2.2,1.1,3.5,1.1
						c1.8,0,3.2-0.5,4.2-1.5c1-1,1.5-2.3,1.5-3.9v-2.2c0-0.3-0.1-0.6-0.4-0.8c-0.3-0.2-0.7-0.3-1.3-0.3h-2v-1.1h9.6v1.1h-1.3
						c-0.6,0-1,0.1-1.2,0.3c-0.2,0.2-0.4,0.5-0.4,0.9v8.8h-1c-0.4-1.4-0.8-2.7-1.2-3.9c-0.8,1.3-1.7,2.2-2.8,2.9
						c-1.1,0.6-2.3,1-3.6,1c-2,0-3.7-0.5-5.4-1.5c-1.7-1-3-2.4-3.9-4.2c-1-1.8-1.4-3.9-1.4-6.1c0-2.3,0.5-4.3,1.4-6.1
						c1-1.8,2.3-3.2,4-4.3c1.7-1.1,3.4-1.6,5.1-1.6c1,0,1.9,0.2,2.8,0.5C279.6,108.1,280.6,108.7,281.7,109.6z"/>
					<path d="M290.7,107.8h18.2l0.4,7.8h-1c-0.4-2.5-1.1-4.2-2-5.1c-0.9-1-2.1-1.5-3.5-1.5h-4.5c-0.4,0-0.6,0.1-0.8,0.3
						c-0.2,0.2-0.3,0.5-0.3,0.9v8.2h2c1.1,0,1.9-0.4,2.6-1.1c0.7-0.8,1-1.9,1.1-3.5h1.1v10.6h-1.1c-0.1-1.8-0.4-3-1.1-3.8
						c-0.7-0.8-1.6-1.1-2.7-1.1h-1.8v9.1c0,0.3,0.1,0.6,0.3,0.8c0.2,0.2,0.6,0.3,1.1,0.3h3.6c3.8,0,6.1-2.5,6.7-7.4h1.1l-0.4,8.5
						h-18.9v-1.2h1.6c0.6,0,1.1-0.1,1.3-0.3c0.3-0.2,0.4-0.5,0.4-0.9v-18.2c0-0.4-0.1-0.7-0.3-0.9c-0.2-0.2-0.5-0.3-1-0.3h-1.9
						V107.8z"/>
				</g>
				<g>
					<path d="M220.4,70.1c0,0.9-0.7,1.6-1.6,1.6c-0.9,0-1.6-0.7-1.6-1.6c0-0.9,0.7-1.6,1.6-1.6C219.7,68.5,220.4,69.2,220.4,70.1z"
						/>
					<path d="M225.6,70.1c0,0.9-0.7,1.6-1.6,1.6c-0.9,0-1.6-0.7-1.6-1.6c0-0.9,0.7-1.6,1.6-1.6C224.9,68.5,225.6,69.2,225.6,70.1z"
						/>
				</g>
				<path d="M297.3,98.5c0,0.9-0.7,1.6-1.6,1.6c-0.9,0-1.6-0.7-1.6-1.6c0-0.9,0.7-1.6,1.6-1.6C296.6,96.9,297.3,97.6,297.3,98.5z"/>
				<g>
					<path d="M193.3,98.5c0,0.9-0.7,1.6-1.6,1.6c-0.9,0-1.6-0.7-1.6-1.6c0-0.9,0.7-1.6,1.6-1.6C192.6,96.9,193.3,97.6,193.3,98.5z"
						/>
					<path d="M198.5,98.5c0,0.9-0.7,1.6-1.6,1.6c-0.9,0-1.6-0.7-1.6-1.6c0-0.9,0.7-1.6,1.6-1.6C197.8,96.9,198.5,97.6,198.5,98.5z"
						/>
				</g>
				<path d="M165.9,90.6c0,0.8-0.7,1.5-1.5,1.5c-0.8,0-1.4-0.7-1.4-1.5c0-0.8,0.6-1.5,1.4-1.5C165.3,89.2,165.9,89.8,165.9,90.6z"/>
				<g>
					<path d="M262.3,75.8l-2.4,0.8v10.8c-0.1,2.7-2.4,2.5-2.5,2.5H251V77.5l-2.4,0.8V90h-7.9V78.8l-2.4,0.8V90l-12.7,0
						c-1.2,0-2-0.3-2.5-0.8c-0.5-0.5-0.5-1.1-0.5-1.1V75.8l-2.4,0.8v11.6c0,1.6-1.3,1.8-2,1.8c-0.2,0-0.4,0-0.4,0h-17.2
						c-2.6,0-2.7-1.9-2.7-1.9V75.8l-2.4,0.8v10.8c0,2.6-3,2.6-3.2,2.6H177c-5.8-0.3-6.6-6.9-6.6-6.9c-1.2-6.6-5.9-6.9-6.8-6.9
						c-0.1,0-0.1,0-0.1,0c-5.2-0.2-7,3-7.1,3.1l0,0v0c0,0.1,0,0.1,1.4,1.2l0.1,0.1l0.1-0.1c0.1-0.1,1.5-2.4,5.3-2.1
						c3.4,0.2,4.5,3.3,4.7,4.1c-5-0.7-8.7,0.1-10.8,2.5c-2.3,2.5-2.1,5.9-2.1,5.9c0.4,6.8,4.8,8.2,8.5,8.2c2.3,0,4.2-0.6,4.6-0.7
						l0.1,0v-2.2l-0.7,0.3c-3.9,1.2-6.8,0.9-8.5-0.8c-1.8-1.9-1.8-4.8-1.8-4.8c0.1-5.4,4.1-6.5,7.4-6.5c1.9,0,3.5,0.4,3.8,0.5
						c1.5,7.1,7.6,7.4,7.7,7.4h16.4c2.6,0,3.7-1.2,4-1.6c0.6,1.3,2.9,1.6,3.6,1.6c0.3,0,0.5,0,0.5,0h16.9c2.6,0,3.8-1,4.1-1.6
						c0.6,1.4,3.1,1.6,3.8,1.6c0.2,0,0.3,0,0.3,0h30.8c2.2,0,3.8-0.6,4.8-1.6c1.1-1.3,0.9-2.9,0.9-2.9V75.8z"/>
					<path d="M299.6,87.7V75.9l-2.6,0.9v10.4c0,3-2.8,2.9-2.9,2.9h-19.5V75.8l-2.5,0.9v16c0,5-4.2,4.7-4.4,4.7
						c-2.3,0-3.6-1.1-3.6-1.1c-0.1-0.1-0.3-0.3-0.4-0.4l-0.3-0.3l0.4,2.8l0.1,0c1.4,1.1,3.5,1.2,3.9,1.2h0.1c2,0,3.6-0.6,4.7-1.8
						c1.9-2,1.9-4.9,1.9-5.5h19.8c1.9,0,3.3-0.5,4.2-1.5C299.8,89.4,299.6,87.8,299.6,87.7z"/>
				</g>
			</g>
			<path d="M113.9,69.5c-0.1,0-0.7-0.1-1.4-0.2c-0.3,0-0.5,0-0.8-0.1v0c-0.1,0-0.2,0-0.2,0H94.6c-0.1,0-0.1,0-0.2,0
				c-2.3,0-4.1,1.9-4.1,4.1c0,2.2,1.8,4.1,4,4.1h0.2H105h4.7c1.1,0,4,0.1,6.3,1.2c4.6,2,7.8,6.6,7.8,12c0,5.2-3,9.6-7.3,11.8
				c-0.1,0.1-0.2,0.1-0.3,0.1c-0.1,0-0.2,0.1-0.3,0.1c-2.1,0.9-4.7,1.1-6.1,1.1h-4.3H95.5h-0.9c-1.2-0.1-2.2,0.4-2.8,0.9
				c-0.4,0.3-0.8,0.7-1.1,1.3c-0.4,0.8-0.6,1.8-0.6,3.2v13.5v4.6v0.4c0.1,2.1,1.9,3.9,4,3.9c2.2,0,4-1.8,4-4l0,0v-15.4h13.7v0
				c11.3-0.6,20.3-9.9,20.3-21.4C132.2,80,124.3,71.1,113.9,69.5z"/>
			<path d="M101.7,90.7C101.7,90.6,101.7,90.6,101.7,90.7C101.7,90.6,101.7,90.6,101.7,90.7C101.7,90.6,101.7,90.6,101.7,90.7
				c0-0.3,0-0.5-0.1-0.6c0,0,0,0,0,0c0,0,0-0.1,0-0.1h0c0-0.1,0-0.1-0.1-0.2h0c0,0,0,0,0,0c0,0,0-0.1,0-0.1c0-0.1-0.1-0.1-0.1-0.1
				c-0.1-0.1-0.1-0.2-0.2-0.2c0,0-0.1-0.1-0.1-0.2l0,0l0,0c0,0-0.1-0.1-0.1-0.1c0,0-0.1,0-0.1-0.1c-0.6-0.7-1.5-1.4-2.4-2
				c-0.7-0.5-1.4-0.9-2-1.2c-0.1,0-0.1-0.1-0.1-0.1l0,0c-2.1-1.1-3.5-1.3-3.5-1.3v0c-0.4-0.1-0.7,0-0.9,0c-0.6,0.2-1,0.5-1.3,0.9
				c-0.1,0.1-0.3,0.4-0.4,0.8c0,0.1-0.2,0.9-0.2,1.6v2.9v0.1v0v2.9c0,0.7,0.2,1.5,0.2,1.6c0.1,0.4,0.3,0.7,0.4,0.8
				c0.3,0.4,0.7,0.7,1.3,0.9c0.2,0.1,0.5,0.1,0.9,0l0,0c0,0,1.5-0.2,3.5-1.3l0,0c0,0,0,0,0.1-0.1c0.6-0.3,1.3-0.7,2-1.2
				c0.9-0.6,1.8-1.3,2.4-1.9c0.1-0.1,0.1-0.1,0.1-0.1c0,0,0.1-0.1,0.1-0.1c0,0,0,0,0,0l0,0c0,0,0.1-0.1,0.1-0.1
				c0.1-0.1,0.1-0.2,0.2-0.2c0-0.1,0.1-0.1,0.1-0.1c0,0,0-0.1,0-0.1c0,0,0,0,0,0h0c0-0.1,0-0.1,0.1-0.2h0c0,0,0,0,0-0.1c0,0,0,0,0,0
				C101.7,91.1,101.7,91,101.7,90.7C101.7,90.7,101.7,90.7,101.7,90.7L101.7,90.7C101.7,90.7,101.7,90.7,101.7,90.7z"/>
		</g>
	</g>
</g>
</svg>
