<?xml version="1.0" encoding="utf-8"?>
<!-- Generator: Adobe Illustrator 23.0.1, SVG Export Plug-In . SVG Version: 6.00 Build 0)  -->
<svg version="1.1" id="Layer_1" xmlns="http://www.w3.org/2000/svg" xmlns:xlink="http://www.w3.org/1999/xlink" x="0px" y="0px"
	 viewBox="0 0 400 200" style="enable-background:new 0 0 400 200;" xml:space="preserve">
<style type="text/css">
	.st0{fill:#EC2028;}
</style>
<g>
	<path class="st0" d="M90.1,90.8H74.6v18.2h6.7v-6.1h8.8c1.5,0,2.7-1.2,2.7-2.7v-6.6C92.8,92,91.6,90.8,90.1,90.8z M86.3,98.2h-5
		v-1.6h5V98.2z"/>
	<path class="st0" d="M129.7,90.8h-12.5c-1.5,0-2.7,1.2-2.7,2.7V106c0,1.5,1.2,2.7,2.7,2.7h12.5c1.5,0,2.7-1.2,2.7-2.7V93.4
		C132.4,92,131.2,90.8,129.7,90.8z M126.4,101.3c0,0.8-0.6,1.4-1.4,1.4h-3.2c-0.8,0-1.4-0.6-1.4-1.4v-3.2c0-0.8,0.6-1.4,1.4-1.4h3.2
		c0.8,0,1.4,0.6,1.4,1.4V101.3z"/>
	<path class="st0" d="M140.3,108.9h-5.9V90.8h5.2c0.3,0,0.5,0.1,0.7,0.3l4.1,4.7l4.2-4.7c0.2-0.2,0.4-0.3,0.7-0.3h5v18.1h-5.7
		c-0.3,0-0.5-0.2-0.5-0.5V101l-3.7,3.6l-3.4-3.2v7C140.8,108.7,140.6,108.9,140.3,108.9z"/>
	<path class="st0" d="M112.7,96.9v-4.4c0-1-0.8-1.8-1.8-1.8H94.6v18.2h5.8v-5.7h3.9c0.8,0,1.4,0.6,1.4,1.4v4.3h6.6v-7
		c0-1-0.4-1.9-1.1-2.6l-0.5-0.5C111.8,98.8,112.7,98,112.7,96.9z M106.1,98.2h-5v-1.6h5V98.2z"/>
	<path class="st0" d="M169.2,90.7c-0.1-0.3-0.3-0.4-0.6-0.4h-7.3c-0.3,0-0.5,0.2-0.6,0.4l-5.9,17.9h5.3c0.2,0,0.4-0.1,0.5-0.3
		l1.4-3.6h5.4l0.9,3.6c0.1,0.2,0.3,0.4,0.5,0.4h6.3L169.2,90.7z M163.4,99.8l1.5-3.9l1.5,3.9H163.4z"/>
	<path class="st0" d="M278.6,90.7c-0.1-0.3-0.3-0.4-0.6-0.4h-7.3c-0.3,0-0.5,0.2-0.6,0.4l-5.9,17.9h5.3c0.2,0,0.4-0.1,0.5-0.3
		l1.4-3.6h5.4l0.9,3.6c0.1,0.2,0.3,0.4,0.5,0.4h6.3L278.6,90.7z M272.8,99.8l1.5-3.9l1.5,3.9H272.8z"/>
	<path class="st0" d="M185.5,108.6h-8.2v-3.8l0.6-0.8c0.1-0.2,0.1-0.3,0.1-0.5l-0.7-6.5c0-0.1-0.1-0.2-0.2-0.2h-4.9v-6.4h18.2v6.3
		h-4.4c-0.1,0-0.2,0.1-0.2,0.2l-0.8,6.5c0,0.2,0,0.4,0.1,0.5l0.5,0.8V108.6z"/>
	<path class="st0" d="M215.9,97.5v-5.3c0-1-0.8-1.9-1.9-1.9h-15.8v18.3H214c1,0,1.9-0.8,1.9-1.9v-6.3c0-0.8-0.7-1.5-1.5-1.5h0.1
		C215.2,99,215.9,98.3,215.9,97.5z M208.8,104.6h-4.3v-2.1h4.3V104.6z M208.8,98.5h-4.3v-2.1h4.3V98.5z"/>
	<path class="st0" d="M304.4,97.5v-5.3c0-1-0.8-1.9-1.9-1.9h-15.8v18.3h15.8c1,0,1.9-0.8,1.9-1.9v-6.3c0-0.8-0.7-1.5-1.5-1.5h0.1
		C303.7,99,304.4,98.3,304.4,97.5z M297.3,104.6H293v-2.1h4.3V104.6z M297.3,98.5H293v-2.1h4.3V98.5z"/>
	<path class="st0" d="M233.7,90.3h-15.1v18.6h15.1c1.6,0,2.9-1.3,2.9-2.9V93.2C236.6,91.6,235.3,90.3,233.7,90.3z M229.3,103.5
		c0,0.6-0.5,1.1-1.1,1.1h-2.9v-9.8h2.9c0.6,0,1.1,0.5,1.1,1.1V103.5z"/>
	<path class="st0" d="M250.4,90.3h-6.5V107c0,0.8,0.6,1.4,1.4,1.4c4.3,0.1,17.4,0.4,17.4,0c0-0.5,0-5.4,0-5.4h-12.2V90.3z"/>
	<path class="st0" d="M324.8,90.3H308c-0.9,0-1.7,0.7-1.7,1.7v8.4c0,0.9,0.7,1.7,1.7,1.7h11.7v1.5h-13.4v5.1h17.1
		c0.8,0,1.4-0.6,1.4-1.4v-8.4c0-0.8-0.6-1.4-1.4-1.4h-11.9V96h13.4V90.3z"/>
</g>
</svg>
