<?xml version="1.0" encoding="utf-8"?>
<!-- Generator: Adobe Illustrator 23.0.1, SVG Export Plug-In . SVG Version: 6.00 Build 0)  -->
<svg version="1.1" id="Layer_1" xmlns="http://www.w3.org/2000/svg" xmlns:xlink="http://www.w3.org/1999/xlink" x="0px" y="0px"
	 viewBox="0 0 400 200" style="enable-background:new 0 0 400 200;" xml:space="preserve">
<style type="text/css">
	.st0{fill:#29B15D;}
	.st1{fill:#D43157;}
	.st2{fill:#5997CF;}
	.st3{fill:#2BAAD6;}
	.st4{fill:#96D6ED;}
</style>
<g>
	<g>
		<path class="st0" d="M89.7,92.5c0,0.1,0,0.1,0,0.2c-0.1,0.4-0.1,0.8-0.2,1.2c0,0,0,0,0,0c-0.1,0.4-0.1,0.8-0.2,1.3
			c0,0,0,0.1,0,0.1c0,0.4-0.1,0.9-0.1,1.3c0,0,0,0,0,0c0,1,0.1,2.2,0.3,3.3c1.9,11.3,16.8,13.5,25.7,3.9c0.1-0.1,0.1-0.1,0.2-0.2
			c6.5-7.2,18.6-23,36.8-22.9c0,0,0,0,0,0c-0.3-0.5-0.6-1-1-1.4c0,0,0,0,0,0c-2.6-2.8-9.5-8.2-20.5-3c-14.3,6.7-24.9,24.2-34.3,22.2
			c0,0-5-0.3-6.5-6.9c0,0,0,0,0,0C89.8,91.7,89.7,92.1,89.7,92.5z"/>
		<path class="st1" d="M157.5,99.1c0-9.4-10-15.4-18.4-11.3c-7.7,3.8-13.1,10.3-19.7,17.6c-10.1,11.2-25.1,5-25.1,5
			c10,6.8,26.6,9.4,44.8-4.8c10.4-8.2,16.9-2.8,18.1-1.7c0.2-1.5,0.3-3.1,0.3-4.6C157.5,99.3,157.5,99.2,157.5,99.1z"/>
		<path class="st2" d="M155.8,106.3c-1-0.7-1.7,0.3-2.3,0.8c-0.2,0.1-0.3,0.3-0.5,0.5c0,0,0,0,0,0c-0.2,0.3-0.5,0.6-0.7,0.8
			c-1.3,1.6-2.5,3.2-3.9,4.7c-1.5,1.7-3,3.3-4.7,4.7c-1.4,1.2-2.9,2.3-4.6,3.3c-2.2,1.3-4.5,2.2-7,2.6c-0.5,0.1-1,0.1-1.6,0.2
			c-0.6,0-1.4,0.2-1.7-0.4c-0.3-0.7,0.5-1.1,1-1.4c0.9-0.7,4.5-2.1,5.4-2.8c1.3-1,2.7-1.9,3.5-3.4c0.4-0.7,0.9-1.5,0.4-2.4
			c-0.5-0.8-1.4-0.5-2.1-0.5c-3.2,0.4-8.6,2.3-11.5,3.6c-8.7,4-17.4,3.7-26.1,0c-0.9-0.4-1.7-0.8-2.5-1.2c-1.9-1-3.8-2.1-5.7-3.2
			c5.8,13.3,19.7,22.1,35,20.8c14.4-1.3,26-11.2,30.1-24.2c0.1-0.3,0.2-0.6,0.1-0.9C156.6,107.2,156.3,106.7,155.8,106.3z"/>
		<path class="st3" d="M155.8,106.3c-1-0.7-1.7,0.3-2.3,0.8c-0.2,0.1-0.3,0.3-0.5,0.5c0,0,0,0,0,0c-0.2,0.3-0.5,0.6-0.7,0.8
			c-1.3,1.6-2.5,3.2-3.9,4.7c-1.5,1.7-3,3.3-4.7,4.7c-1.4,1.2-2.9,2.3-4.6,3.3c-2.2,1.3-4.5,2.2-7,2.6c-0.5,0.1-1,0.1-1.6,0.2
			c-0.6,0-1.4,0.2-1.7-0.4c-0.3-0.7,0.5-1.1,1-1.4c0.9-0.7,4.5-2.1,5.4-2.8c1.3-1,2.7-1.9,3.5-3.4c0.4-0.7,0.9-1.5,0.4-2.4
			c-0.5-0.8-1.4-0.5-2.1-0.5c-3.2,0.4-8.6,2.3-11.5,3.6c-8.7,4-17.4,3.7-26.1,0c-0.9-0.4-1.7-0.8-2.5-1.2c-1.9-1-3.8-2.1-5.7-3.2
			c5.8,13.3,19.7,22.1,35,20.8c14.4-1.3,26-11.2,30.1-24.2c0.1-0.3,0.2-0.6,0.1-0.9C156.6,107.2,156.3,106.7,155.8,106.3z"/>
		<g>
			<path class="st4" d="M123.3,64.8c-14.8,0-27.4,9.4-32.2,22.6c2,0.1,13.6,0.4,23.6-6c10-6.4,14.7-13.9,26.8-11.2c0,0,0.1,0,0.1,0
				C136.3,66.7,130,64.8,123.3,64.8z"/>
		</g>
		<g>
			<path d="M184,85.2h3.4v15.7H184V85.2z"/>
			<path d="M202.6,85.2v2.7h-5.4c-1.2,0-2.1,0.3-2.7,0.9c-0.6,0.6-1,1.5-1,2.7h9.1v2.7h-9.1c0,1.4,0.3,2.4,0.9,3
				c0.6,0.6,1.5,0.9,2.8,0.9h5.4v2.7H197c-2.5,0-4.3-0.7-5.5-2c-1.2-1.3-1.8-3.1-1.8-5.5c0-2.6,0.5-4.5,1.6-5.9
				c1.2-1.5,3.1-2.3,5.8-2.3H202.6z"/>
			<path d="M217.3,85.2v2.7h-5.4c-1.3,0-2.2,0.4-2.8,1.1c-0.7,0.9-1.1,2.4-1.1,4.5c0,1.3,0.2,2.4,0.5,3.1c0.3,0.6,0.8,1,1.4,1.3
				c0.4,0.2,1.1,0.2,2,0.2h5.4v2.7h-5.5c-2.5,0-4.3-0.7-5.5-2c-1.2-1.3-1.8-3.1-1.8-5.5c0-2.6,0.5-4.5,1.6-5.9
				c1.2-1.5,3.1-2.3,5.8-2.3H217.3z"/>
			<path d="M226.5,84.9c1.6,0,2.9,0.2,3.9,0.6c1.3,0.5,2.2,1.3,2.9,2.5c0.7,1.3,1.1,3,1.1,5.1c0,2.6-0.6,4.6-1.7,5.9
				c-1.3,1.5-3.3,2.3-6.1,2.3c-2.7,0-4.6-0.7-5.9-2c-1.3-1.4-1.9-3.4-1.9-6.2c0-2,0.3-3.7,1-4.9c0.6-1.1,1.6-2,2.8-2.5
				C223.6,85.1,224.9,84.9,226.5,84.9z M222.3,93c0,1.7,0.3,3,0.9,3.9c0.7,1.1,1.8,1.6,3.3,1.6c1.5,0,2.6-0.5,3.3-1.5
				c0.7-0.9,1-2.2,1-3.9c0-1-0.1-1.8-0.3-2.4c-0.2-0.9-0.6-1.6-1.2-2.1c-0.7-0.6-1.6-0.9-2.8-0.9c-1.4,0-2.5,0.5-3.2,1.4
				C222.6,89.9,222.3,91.2,222.3,93z"/>
			<path d="M247.1,85.2h8.6V88h-8.1c-1.7,0-2.6,0.7-2.6,2.1c0,0.5,0.1,0.9,0.4,1.2c0.4,0.4,0.9,0.5,1.6,0.5h4.3c1.9,0,3.2,0.4,4,1.1
				c0.7,0.7,1.1,1.8,1.1,3.3c0,1.6-0.4,2.7-1.2,3.4c-0.9,0.8-2.3,1.2-4.3,1.2h-8.8V98h8.2c1,0,1.7-0.2,2.1-0.5
				c0.3-0.3,0.5-0.8,0.5-1.5c0-0.5-0.1-0.8-0.4-1c-0.4-0.3-1-0.5-2-0.5h-3.9c-1.8,0-3.1-0.4-4-1.1c-0.8-0.7-1.3-1.9-1.3-3.4
				c0-1.6,0.4-2.7,1.2-3.5C243.7,85.6,245.1,85.2,247.1,85.2z"/>
			<path d="M261.7,100.8h-3V89.3h11.6c1.6,0,2.8,0.3,3.5,0.9c0.8,0.7,1.2,1.8,1.2,3.3v7.3h-3v-6.9c0-0.8-0.1-1.3-0.3-1.6
				c-0.3-0.4-0.8-0.5-1.6-0.5c-0.2,0-0.5,0-0.7,0h-0.6c-0.1,0-0.2,0-0.2,0s-0.1,0-0.2,0v9h-3.1v-9h-3.6V100.8z"/>
			<path d="M283.1,91.7H278v-2.4h6.2c3.2,0,4.7,1.4,4.7,4.3v7.2h-8.1c-1.1,0-2-0.3-2.6-0.9c-0.6-0.6-1-1.4-1-2.5
				c0-1.4,0.5-2.4,1.4-2.9c0.7-0.4,1.8-0.6,3.2-0.6h4c0-0.8-0.2-1.4-0.6-1.7C284.9,91.9,284.1,91.7,283.1,91.7z M282,98.5h3.8v-2.4
				h-3.6c-0.6,0-1,0.1-1.2,0.2c-0.4,0.2-0.6,0.5-0.6,1c0,0.5,0.1,0.8,0.4,1C281.1,98.5,281.5,98.5,282,98.5z"/>
			<path d="M294.6,100.8h-3V89.3h5.1c1.4,0,2.3,0.3,2.7,0.8c0.3,0.5,0.5,1.6,0.5,3.3v0.7H297v-0.9c0-0.8-0.1-1.3-0.3-1.5
				c-0.2-0.1-0.9-0.2-2.1-0.2V100.8z"/>
			<path d="M302.8,91.6h-2.1v-2.3h2.1v-4.2h3v4.2h3.3v2.3h-3.3v4.6c0,0.9,0.2,1.6,0.6,1.8c0.4,0.3,1.2,0.4,2.3,0.4h0.3v2.3h-2.8
				c-1.1,0-2-0.3-2.6-0.9c-0.6-0.6-0.9-1.5-0.9-2.6V91.6z"/>
			<g>
				<path d="M174.7,98.4c-0.2,0-0.4,0.1-0.7,0.1c-1.5,0-2.6-0.5-3.3-1.6c-0.6-0.9-0.9-2.2-0.9-3.9c0-1.7,0.3-3,1-4
					c0.7-1,1.8-1.4,3.2-1.4c1.2,0,2.1,0.3,2.8,0.9c0.6,0.5,1,1.2,1.2,2.1c0.2,0.7,0.3,1.5,0.3,2.4c0,0.5,0,0.9-0.1,1.3l2.4,3.9
					c0.8-1.3,1.3-3,1.3-5.2c0-2.1-0.4-3.8-1.1-5.1c-0.7-1.1-1.6-2-2.9-2.5c-1-0.4-2.3-0.6-3.9-0.6c-1.6,0-2.9,0.2-4,0.7
					c-1.2,0.5-2.2,1.4-2.8,2.5c-0.7,1.2-1,2.9-1,4.9c0,2.7,0.6,4.8,1.9,6.2c1.3,1.4,3.3,2,5.9,2c0.9,0,1.6-0.1,2.3-0.2L174.7,98.4z"
					/>
			</g>
			<polygon points="181.7,101.3 177.8,95.5 176.7,97.5 173.2,94.8 174.2,96.7 177.1,100.6 178.5,98.9 			"/>
		</g>
		<g>
			<path d="M175.6,110.7h-2.4l-0.5,0.8h-1l3.6-5.7h0.2l1.4,5.7h-0.9L175.6,110.7z M175.4,110l-0.5-2.2l-1.3,2.2H175.4z"/>
			<path d="M178.6,109.4l0.7-3.4h0.9l-0.7,3.4c-0.2,0.8,0.2,1.4,0.9,1.4c0.6,0,1.2-0.5,1.3-1.4l0.7-3.4h0.9l-0.7,3.4
				c-0.3,1.5-1.3,2.3-2.4,2.3C179,111.7,178.3,110.6,178.6,109.4z"/>
			<path d="M188.9,106.8h-1.4l-0.9,4.7h-0.9l0.9-4.7h-1.4l0.2-0.9h3.7L188.9,106.8z"/>
			<path d="M190.2,108.8c0.2-1.7,1.6-3,3.2-2.9c1.5,0.1,2.4,1.3,2.1,2.9c-0.3,1.7-1.7,2.9-3.2,2.8
				C190.8,111.6,189.9,110.4,190.2,108.8z M194.6,108.8c0.2-1.1-0.4-2-1.4-2c-1,0-1.9,0.9-2.1,2c-0.2,1.1,0.4,2,1.4,2
				C193.4,110.8,194.4,109.9,194.6,108.8z"/>
			<path d="M203.5,105.8l-1.1,5.7h-0.9l0.6-3l-2.3,2.9h0l-1.1-2.9l-0.6,3h-0.9l1.1-5.7h0.1l1.6,4l3.4-4H203.5z"/>
			<path d="M208.5,110.7H206l-0.5,0.8h-1l3.6-5.7h0.2l1.4,5.7h-0.9L208.5,110.7z M208.3,110l-0.5-2.2l-1.3,2.2H208.3z"/>
			<path d="M215.2,106.8h-1.4l-0.9,4.7H212l0.9-4.7h-1.4l0.2-0.9h3.7L215.2,106.8z"/>
			<path d="M217.5,106h0.9l-1.1,5.6h-0.9L217.5,106z"/>
			<path d="M220.1,108.8c0.2-1.7,1.6-3,3.2-2.9c1.5,0.1,2.4,1.3,2.1,2.9c-0.3,1.7-1.7,2.9-3.2,2.8
				C220.8,111.6,219.9,110.4,220.1,108.8z M224.5,108.8c0.2-1.1-0.4-2-1.4-2c-1,0-1.9,0.9-2.1,2c-0.2,1.1,0.4,2,1.4,2
				C223.4,110.8,224.3,109.9,224.5,108.8z"/>
			<path d="M232.5,106l-1.1,5.7h-0.1l-2.6-3.7l-0.7,3.6h-0.9l1.1-5.7h0.1l2.6,3.7l0.7-3.6H232.5z"/>
			<path d="M234.7,108.8c0.1-0.5,0.6-1,1.1-1c0.5,0,0.8,0.4,0.7,1c-0.1,0.6-0.6,0.9-1.1,0.9C234.9,109.8,234.6,109.4,234.7,108.8z"
				/>
			<path d="M243.8,108.8c-0.3,2.5-2.6,2.8-3.3,2.8h-1.5l1.1-5.6h1.5C242.7,106,244.1,106.7,243.8,108.8z M241.3,106.8h-0.6l-0.7,3.8
				h0.6c1.2,0,2.1-0.8,2.3-1.9C243.1,107.5,242.3,106.8,241.3,106.8z"/>
			<path d="M248.5,110.7h-2.4l-0.5,0.8h-1l3.6-5.7h0.2l1.4,5.7h-0.9L248.5,110.7z M248.4,110l-0.5-2.2l-1.3,2.2H248.4z"/>
			<path d="M255.3,106.8h-1.4l-0.9,4.7H252l0.9-4.7h-1.4l0.2-0.9h3.7L255.3,106.8z"/>
			<path d="M259.3,110.7h-2.4l-0.5,0.8h-1l3.6-5.7h0.2l1.4,5.7h-0.9L259.3,110.7z M259.2,110l-0.5-2.2l-1.3,2.2H259.2z"/>
			<path d="M263.2,108.8c0.1-0.5,0.6-1,1.1-1c0.5,0,0.8,0.4,0.7,1c-0.1,0.6-0.6,0.9-1.1,0.9C263.4,109.8,263.1,109.4,263.2,108.8z"
				/>
			<path d="M269.3,106.8l-0.3,1.4h2l-0.2,0.9h-2l-0.3,1.5h2.3l-0.2,0.9h-3.2l1.1-5.6h3.2l-0.2,0.9H269.3z"/>
			<path d="M278.4,106l-1.1,5.7h-0.1l-2.6-3.7l-0.7,3.6H273l1.1-5.7h0.1l2.6,3.7l0.7-3.6H278.4z"/>
			<path d="M281.6,106.8l-0.3,1.4h2l-0.2,0.9h-2l-0.3,1.5h2.3l-0.2,0.9h-3.2l1.1-5.6h3.2l-0.2,0.9H281.6z"/>
			<path d="M288.2,109.3l1.2,2.2h-1l-1.1-2.2h-0.7l-0.4,2.2h-0.9l1.1-5.6h1.6c0.9,0,1.8,0.7,1.6,1.8
				C289.5,108.5,289,109.1,288.2,109.3z M287.9,106.8h-0.7l-0.4,1.8h0.7c0.7,0,1.1-0.4,1.2-0.9C288.8,107.2,288.4,106.8,287.9,106.8
				z"/>
			<path d="M296.8,108.5c0,0.2,0,0.4-0.1,0.4c-0.3,1.6-1.5,2.7-3,2.7c-1.6,0-2.5-1.2-2.3-2.9c0.3-1.8,1.7-2.9,3.3-2.9
				c0.7,0,1.3,0.4,1.7,0.9l-0.6,0.7c-0.3-0.5-0.7-0.8-1.3-0.8c-0.9,0-2,0.8-2.2,2c-0.2,1.2,0.5,2,1.5,2c1,0,1.7-0.9,1.9-1.4
				c0,0,0,0,0,0h-1.6l0.2-0.8H296.8z"/>
			<path d="M299.7,109.2l-1.1-3.2h0.9l0.8,2.2l1.6-2.2h1.1l-2.4,3.2l-0.5,2.4h-0.9L299.7,109.2z"/>
		</g>
	</g>
	<path d="M166.6,117.6c11.7-0.2,23.4-0.3,35.1-0.4l35.1-0.1l35.1,0.1c11.7,0.1,23.4,0.2,35.1,0.4c-11.7,0.2-23.4,0.3-35.1,0.4
		l-35.1,0.1l-35.1-0.1C189.9,117.9,178.3,117.8,166.6,117.6z"/>
</g>
</svg>
