<svg width="228" height="114" viewBox="0 0 228 114" fill="none" xmlns="http://www.w3.org/2000/svg">
<g clip-path="url(#clip0_4002_150)">
<path d="M78.8894 78.0754L77.7034 76.0998H76.4514V78.0754H75.7476V72.9131H77.8681C78.3233 72.9131 78.7097 73.0678 79.0332 73.38C79.3569 73.6922 79.5182 74.0687 79.5182 74.5123C79.5182 74.8479 79.4168 75.1513 79.2129 75.4257C79.0092 75.7 78.7457 75.8955 78.4222 76.0093L79.6712 78.0754H78.8924H78.8894ZM76.4514 73.5551V75.4811H77.8681C78.1317 75.4811 78.3533 75.3877 78.539 75.198C78.7247 75.0084 78.8146 74.7808 78.8146 74.5152C78.8146 74.2496 78.7217 74.0249 78.539 73.8382C78.3533 73.6514 78.1317 73.558 77.8681 73.558H76.4514V73.5551Z" fill="black"/>
<path d="M82.0912 76.5264C82.1576 76.8561 82.313 77.1129 82.5556 77.2939C82.8011 77.4748 83.1006 77.5682 83.46 77.5682C83.9605 77.5682 84.3229 77.3872 84.5506 77.0283L85.1105 77.3376C84.7422 77.8921 84.1883 78.1723 83.4452 78.1723C82.8432 78.1723 82.3551 77.9884 81.9809 77.6236C81.6031 77.2588 81.4175 76.7949 81.4175 76.2345C81.4175 75.6742 81.6031 75.2161 81.9714 74.8484C82.3403 74.4807 82.8165 74.2939 83.403 74.2939C83.9576 74.2939 84.4124 74.4836 84.7629 74.8659C85.1134 75.2482 85.2902 75.7063 85.2902 76.2404C85.2902 76.3338 85.2813 76.4301 85.2664 76.5293H82.0942L82.0912 76.5264ZM83.4001 74.898C83.0466 74.898 82.7536 74.9943 82.5229 75.1898C82.2893 75.3853 82.1452 75.6421 82.0912 75.969H84.6194C84.5625 75.6217 84.4219 75.3562 84.1942 75.1723C83.9665 74.9914 83.7025 74.898 83.4001 74.898Z" fill="black"/>
<path d="M88.216 72.6914H87.5571V78.0756H88.216V72.6914Z" fill="black"/>
<path d="M91.0676 73.7193C90.9418 73.7193 90.8339 73.6785 90.7503 73.5938C90.6631 73.5092 90.6216 73.41 90.6216 73.2932C90.6216 73.1765 90.6631 73.0744 90.7503 72.9868C90.8369 72.9022 90.9418 72.8584 91.0676 72.8584C91.1933 72.8584 91.2923 72.9022 91.3789 72.9868C91.4661 73.0714 91.5076 73.1736 91.5076 73.2932C91.5076 73.4129 91.4661 73.5121 91.3789 73.5938C91.2923 73.6785 91.1903 73.7193 91.0676 73.7193ZM90.7349 74.3876H91.3943V78.0762H90.7349V74.3876Z" fill="black"/>
<path d="M97.0486 74.3873H97.7075V78.0759H97.0486V77.4427C96.7194 77.93 96.2432 78.1723 95.6169 78.1723C95.0873 78.1723 94.6348 77.9855 94.2636 77.609C93.8888 77.2326 93.7031 76.7744 93.7031 76.2316C93.7031 75.6888 93.8888 75.2336 94.2636 74.8571C94.6378 74.4807 95.0873 74.2939 95.6169 74.2939C96.2432 74.2939 96.7194 74.5391 97.0486 75.0234V74.3902V74.3873ZM95.7011 77.5536C96.0843 77.5536 96.4051 77.4281 96.6625 77.1742C96.9199 76.9203 97.0486 76.6081 97.0486 76.2345C97.0486 75.861 96.9199 75.5488 96.6625 75.2949C96.4051 75.041 96.0843 74.9155 95.7011 74.9155C95.3174 74.9155 95.0031 75.041 94.7487 75.2949C94.4913 75.5488 94.362 75.861 94.362 76.2345C94.362 76.6081 94.4913 76.9203 94.7487 77.1742C95.0061 77.4281 95.324 77.5536 95.7011 77.5536Z" fill="black"/>
<path d="M102.311 74.2934C102.841 74.2934 103.293 74.4802 103.665 74.8566C104.039 75.2331 104.225 75.6913 104.225 76.2311C104.225 76.771 104.039 77.2321 103.665 77.6085C103.29 77.985 102.841 78.1718 102.311 78.1718C101.685 78.1718 101.209 77.9266 100.88 77.4422V78.0754H100.221V72.9131H100.88V75.0229C101.209 74.5356 101.685 74.2934 102.311 74.2934ZM102.227 77.5531C102.605 77.5531 102.925 77.4276 103.179 77.1737C103.437 76.9198 103.566 76.6076 103.566 76.234C103.566 75.8605 103.437 75.5482 103.179 75.2944C102.922 75.0405 102.605 74.915 102.227 74.915C101.85 74.915 101.523 75.0405 101.266 75.2944C101.008 75.5482 100.88 75.8605 100.88 76.234C100.88 76.6076 101.008 76.9198 101.266 77.1737C101.523 77.4276 101.844 77.5531 102.227 77.5531Z" fill="black"/>
<path d="M107.184 72.6914H106.525V78.0756H107.184V72.6914Z" fill="black"/>
<path d="M110.167 76.5264C110.233 76.8561 110.389 77.1129 110.631 77.2939C110.877 77.4748 111.176 77.5682 111.536 77.5682C112.036 77.5682 112.399 77.3872 112.626 77.0283L113.186 77.3376C112.818 77.8921 112.264 78.1723 111.521 78.1723C110.919 78.1723 110.431 77.9884 110.057 77.6236C109.679 77.2588 109.493 76.7949 109.493 76.2345C109.493 75.6742 109.679 75.2161 110.048 74.8484C110.416 74.4807 110.892 74.2939 111.479 74.2939C112.033 74.2939 112.488 74.4836 112.839 74.8659C113.189 75.2482 113.366 75.7063 113.366 76.2404C113.366 76.3338 113.357 76.4301 113.342 76.5293H110.17L110.167 76.5264ZM111.476 74.898C111.123 74.898 110.829 74.9943 110.599 75.1898C110.365 75.3853 110.221 75.6421 110.167 75.969H112.695C112.638 75.6217 112.498 75.3562 112.27 75.1723C112.042 74.9914 111.779 74.898 111.476 74.898Z" fill="black"/>
<path d="M122.597 78.0754L122.166 76.9169H119.785L119.354 78.0754H118.604L120.581 72.9131H121.375L123.352 78.0754H122.603H122.597ZM120.021 76.2778H121.926L120.974 73.7273L120.021 76.2778Z" fill="black"/>
<path d="M127.108 78.1723C126.538 78.1723 126.062 77.9855 125.685 77.6149C125.308 77.2442 125.116 76.7832 125.116 76.2316C125.116 75.6801 125.305 75.219 125.685 74.8484C126.062 74.4778 126.538 74.291 127.108 74.291C127.482 74.291 127.818 74.3786 128.114 74.5537C128.411 74.7288 128.635 74.9622 128.779 75.257L128.225 75.5663C128.129 75.3708 127.983 75.2132 127.782 75.0935C127.581 74.9768 127.356 74.9155 127.105 74.9155C126.727 74.9155 126.41 75.041 126.155 75.2919C125.901 75.5429 125.772 75.8552 125.772 76.2287C125.772 76.6022 125.901 76.9087 126.155 77.1567C126.41 77.4077 126.727 77.5332 127.105 77.5332C127.356 77.5332 127.584 77.4748 127.784 77.361C127.986 77.2472 128.141 77.0896 128.246 76.8941L128.806 77.2122C128.644 77.504 128.414 77.7345 128.108 77.9096C127.806 78.0847 127.47 78.1723 127.102 78.1723" fill="black"/>
<path d="M132.703 78.1723C132.133 78.1723 131.657 77.9855 131.28 77.6149C130.903 77.2442 130.71 76.7832 130.71 76.2316C130.71 75.6801 130.899 75.219 131.28 74.8484C131.657 74.4778 132.133 74.291 132.703 74.291C133.077 74.291 133.412 74.3786 133.709 74.5537C134.005 74.7288 134.23 74.9622 134.374 75.257L133.819 75.5663C133.724 75.3708 133.577 75.2132 133.376 75.0935C133.176 74.9768 132.951 74.9155 132.7 74.9155C132.322 74.9155 132.005 75.041 131.75 75.2919C131.495 75.5429 131.366 75.8552 131.366 76.2287C131.366 76.6022 131.495 76.9087 131.75 77.1567C132.005 77.4077 132.322 77.5332 132.7 77.5332C132.951 77.5332 133.179 77.4748 133.379 77.361C133.58 77.2472 133.736 77.0896 133.841 76.8941L134.4 77.2122C134.239 77.504 134.008 77.7345 133.703 77.9096C133.4 78.0847 133.065 78.1723 132.697 78.1723" fill="black"/>
<path d="M136.979 76.5264C137.046 76.8561 137.201 77.1129 137.444 77.2939C137.689 77.4748 137.989 77.5682 138.348 77.5682C138.849 77.5682 139.211 77.3872 139.439 77.0283L139.999 77.3376C139.63 77.8921 139.076 78.1723 138.333 78.1723C137.731 78.1723 137.243 77.9884 136.869 77.6236C136.491 77.2588 136.306 76.7949 136.306 76.2345C136.306 75.6742 136.491 75.2161 136.86 74.8484C137.228 74.4807 137.705 74.2939 138.291 74.2939C138.846 74.2939 139.301 74.4836 139.651 74.8659C140.002 75.2482 140.178 75.7063 140.178 76.2404C140.178 76.3338 140.169 76.4301 140.158 76.5293H136.986L136.979 76.5264ZM138.291 74.898C137.938 74.898 137.645 74.9943 137.414 75.1898C137.18 75.3853 137.036 75.6421 136.983 75.969H139.511C139.457 75.6217 139.313 75.3562 139.088 75.1723C138.861 74.9914 138.597 74.898 138.291 74.898Z" fill="black"/>
<path d="M142.862 75.3737C142.862 75.5138 142.937 75.6247 143.084 75.7093C143.233 75.7939 143.41 75.864 143.614 75.9253C143.82 75.9836 144.027 76.042 144.234 76.1033C144.444 76.1645 144.618 76.2754 144.761 76.4389C144.905 76.6022 144.977 76.8124 144.977 77.0692C144.977 77.4048 144.845 77.6704 144.578 77.8717C144.315 78.0731 143.973 78.1752 143.56 78.1752C143.192 78.1752 142.877 78.0964 142.614 77.9388C142.35 77.7812 142.164 77.5712 142.054 77.3114L142.619 76.9933C142.679 77.1713 142.793 77.3114 142.961 77.4135C143.126 77.5157 143.326 77.5682 143.56 77.5682C143.776 77.5682 143.956 77.5273 144.096 77.4486C144.237 77.3668 144.309 77.2414 144.309 77.0692C144.309 76.9262 144.234 76.8124 144.09 76.7278C143.943 76.6431 143.766 76.5702 143.56 76.5089C143.353 76.4476 143.147 76.3892 142.94 76.3279C142.733 76.2667 142.554 76.1587 142.41 76.0011C142.263 75.8435 142.191 75.6422 142.191 75.3971C142.191 75.0761 142.32 74.8134 142.571 74.6091C142.826 74.4019 143.147 74.2998 143.53 74.2998C143.839 74.2998 144.111 74.3669 144.351 74.5041C144.59 74.6383 144.77 74.828 144.893 75.0673L144.339 75.3708C144.204 75.0556 143.934 74.898 143.53 74.898C143.344 74.898 143.183 74.9389 143.054 75.0235C142.922 75.1081 142.856 75.2278 142.856 75.3795" fill="black"/>
<path d="M147.609 75.3737C147.609 75.5138 147.684 75.6247 147.831 75.7093C147.98 75.7939 148.157 75.864 148.361 75.9253C148.568 75.9836 148.774 76.042 148.981 76.1033C149.19 76.1645 149.364 76.2754 149.508 76.4389C149.652 76.6022 149.723 76.8124 149.723 77.0692C149.723 77.4048 149.592 77.6704 149.326 77.8717C149.062 78.0731 148.72 78.1752 148.307 78.1752C147.938 78.1752 147.624 78.0964 147.361 77.9388C147.097 77.7812 146.911 77.5712 146.8 77.3114L147.367 76.9933C147.427 77.1713 147.54 77.3114 147.708 77.4135C147.873 77.5157 148.074 77.5682 148.307 77.5682C148.523 77.5682 148.702 77.5273 148.843 77.4486C148.984 77.3668 149.056 77.2414 149.056 77.0692C149.056 76.9262 148.981 76.8124 148.837 76.7278C148.69 76.6431 148.514 76.5702 148.307 76.5089C148.1 76.4476 147.894 76.3892 147.687 76.3279C147.481 76.2667 147.301 76.1587 147.157 76.0011C147.01 75.8435 146.938 75.6422 146.938 75.3971C146.938 75.0761 147.067 74.8134 147.319 74.6091C147.573 74.4019 147.894 74.2998 148.277 74.2998C148.585 74.2998 148.858 74.3669 149.098 74.5041C149.337 74.6383 149.517 74.828 149.64 75.0673L149.086 75.3708C148.951 75.0556 148.681 74.898 148.277 74.898C148.091 74.898 147.929 74.9389 147.801 75.0235C147.669 75.1081 147.603 75.2278 147.603 75.3795" fill="black"/>
<path d="M157.209 78.1724C156.715 78.1724 156.292 78.0586 155.942 77.8338C155.591 77.6062 155.346 77.2969 155.205 76.903L155.81 76.5644C156.016 77.1889 156.49 77.5012 157.226 77.5012C157.589 77.5012 157.867 77.4282 158.059 77.2852C158.251 77.1393 158.347 76.9467 158.347 76.7045C158.347 76.4623 158.251 76.2755 158.059 76.15C157.867 76.0274 157.547 75.8961 157.098 75.759C156.879 75.686 156.709 75.6277 156.592 75.5897C156.475 75.5518 156.328 75.4876 156.154 75.403C155.98 75.3183 155.849 75.2279 155.765 75.1374C155.678 75.0469 155.603 74.9273 155.534 74.7785C155.466 74.6296 155.432 74.4633 155.432 74.2765C155.432 73.83 155.594 73.474 155.917 73.2113C156.241 72.9487 156.633 72.8174 157.098 72.8174C157.517 72.8174 157.882 72.9195 158.191 73.1267C158.503 73.3339 158.736 73.6054 158.892 73.9467L158.302 74.2795C158.074 73.7483 157.673 73.4828 157.098 73.4828C156.81 73.4828 156.576 73.5528 156.4 73.69C156.223 73.8271 156.136 74.0139 156.136 74.2503C156.136 74.4866 156.22 74.6472 156.385 74.7668C156.553 74.8835 156.84 75.009 157.248 75.1345C157.391 75.1841 157.493 75.2191 157.556 75.2425C157.619 75.2629 157.714 75.2979 157.844 75.3417C157.972 75.3854 158.068 75.4234 158.128 75.4526C158.188 75.4818 158.272 75.5226 158.373 75.5781C158.475 75.6335 158.553 75.6831 158.604 75.7327C158.655 75.7823 158.715 75.8407 158.781 75.9136C158.85 75.9866 158.898 76.0566 158.928 76.1325C158.957 76.2055 158.985 76.2901 159.008 76.3864C159.033 76.4827 159.042 76.5848 159.042 76.6928C159.042 77.1451 158.874 77.5041 158.535 77.7726C158.197 78.041 157.757 78.1753 157.212 78.1753" fill="black"/>
<path d="M164.604 77.6119C164.214 77.9855 163.744 78.1723 163.187 78.1723C162.63 78.1723 162.163 77.9855 161.776 77.6119C161.39 77.2384 161.198 76.7773 161.198 76.2316C161.198 75.6859 161.39 75.2248 161.776 74.8513C162.163 74.4778 162.633 74.291 163.187 74.291C163.741 74.291 164.214 74.4778 164.604 74.8513C164.993 75.2248 165.188 75.6859 165.188 76.2316C165.188 76.7773 164.993 77.2384 164.604 77.6119ZM163.187 77.5449C163.565 77.5449 163.885 77.4193 164.139 77.1684C164.397 76.9174 164.526 76.6052 164.526 76.2316C164.526 75.8581 164.397 75.5458 164.139 75.2949C163.882 75.0439 163.565 74.9184 163.187 74.9184C162.81 74.9184 162.498 75.0439 162.24 75.2949C161.983 75.5458 161.854 75.8581 161.854 76.2316C161.854 76.6052 161.983 76.9174 162.24 77.1684C162.498 77.4193 162.813 77.5449 163.187 77.5449Z" fill="black"/>
<path d="M168.137 72.6914H167.479V78.0756H168.137V72.6914Z" fill="black"/>
<path d="M173.271 74.3867H173.931V78.0753H173.271V77.5443C173.005 77.9615 172.594 78.1717 172.046 78.1717C171.603 78.1717 171.246 78.0345 170.98 77.7631C170.714 77.4888 170.579 77.1211 170.579 76.6542V74.3896H171.237V76.6162C171.237 76.9168 171.322 77.1474 171.49 77.3137C171.654 77.4771 171.885 77.5617 172.178 77.5617C172.508 77.5617 172.771 77.4625 172.972 77.2641C173.176 77.0656 173.275 76.7592 173.275 76.3448V74.3896L173.271 74.3867Z" fill="black"/>
<path d="M178.501 75.0092H177.494V77.0081C177.494 77.1891 177.53 77.3204 177.605 77.3963C177.677 77.4721 177.791 77.513 177.941 77.513C178.093 77.513 178.279 77.513 178.501 77.5013V78.0762C177.926 78.1491 177.503 78.1054 177.237 77.9391C176.971 77.7756 176.835 77.4634 176.835 77.0052V75.0062H176.087V74.3876H176.835V73.5471L177.494 73.3545V74.3876H178.501V75.0062V75.0092Z" fill="black"/>
<path d="M181.127 73.7193C181.001 73.7193 180.893 73.6785 180.81 73.5938C180.723 73.5092 180.681 73.41 180.681 73.2932C180.681 73.1765 180.723 73.0744 180.81 72.9868C180.896 72.9022 181.001 72.8584 181.127 72.8584C181.253 72.8584 181.352 72.9022 181.436 72.9868C181.523 73.0714 181.565 73.1736 181.565 73.2932C181.565 73.4129 181.523 73.5121 181.436 73.5938C181.349 73.6785 181.247 73.7193 181.127 73.7193ZM180.795 74.3876H181.454V78.0762H180.795V74.3876Z" fill="black"/>
<path d="M187.169 77.6119C186.779 77.9855 186.309 78.1723 185.752 78.1723C185.195 78.1723 184.727 77.9855 184.341 77.6119C183.955 77.2384 183.763 76.7773 183.763 76.2316C183.763 75.6859 183.955 75.2248 184.341 74.8513C184.727 74.4778 185.198 74.291 185.752 74.291C186.306 74.291 186.779 74.4778 187.169 74.8513C187.558 75.2248 187.752 75.6859 187.752 76.2316C187.752 76.7773 187.558 77.2384 187.169 77.6119ZM185.755 77.5449C186.132 77.5449 186.453 77.4193 186.707 77.1684C186.965 76.9174 187.093 76.6052 187.093 76.2316C187.093 75.8581 186.965 75.5458 186.707 75.2949C186.45 75.0439 186.132 74.9184 185.755 74.9184C185.377 74.9184 185.066 75.0439 184.808 75.2949C184.551 75.5458 184.422 75.8581 184.422 76.2316C184.422 76.6052 184.551 76.9174 184.808 77.1684C185.066 77.4193 185.38 77.5449 185.755 77.5449Z" fill="black"/>
<path d="M191.931 74.2939C192.374 74.2939 192.73 74.4311 192.997 74.7024C193.264 74.9768 193.398 75.3445 193.398 75.8114V78.0759H192.739V75.8493C192.739 75.5488 192.656 75.3182 192.491 75.1519C192.326 74.9855 192.095 74.9038 191.802 74.9038C191.473 74.9038 191.209 75.0031 191.008 75.2044C190.808 75.4029 190.706 75.7093 190.706 76.1237V78.0789H190.047V74.3902H190.706V74.9214C190.972 74.504 191.382 74.2939 191.931 74.2939Z" fill="black"/>
<path d="M196.396 75.3737C196.396 75.5138 196.472 75.6247 196.618 75.7093C196.768 75.7939 196.945 75.864 197.148 75.9253C197.355 75.9836 197.562 76.042 197.768 76.1033C197.975 76.1645 198.152 76.2754 198.295 76.4389C198.439 76.6022 198.511 76.8124 198.511 77.0692C198.511 77.4048 198.379 77.6704 198.113 77.8717C197.849 78.0731 197.508 78.1752 197.094 78.1752C196.726 78.1752 196.412 78.0964 196.148 77.9388C195.884 77.7812 195.699 77.5712 195.588 77.3114L196.157 76.9933C196.217 77.1713 196.33 77.3114 196.498 77.4135C196.663 77.5157 196.864 77.5682 197.097 77.5682C197.313 77.5682 197.493 77.5273 197.633 77.4486C197.774 77.3668 197.846 77.2414 197.846 77.0692C197.846 76.9262 197.772 76.8124 197.627 76.7278C197.481 76.6431 197.304 76.5702 197.1 76.5089C196.894 76.4476 196.687 76.3892 196.48 76.3279C196.27 76.2667 196.094 76.1587 195.95 76.0011C195.804 75.8435 195.731 75.6422 195.731 75.3971C195.731 75.0761 195.861 74.8134 196.115 74.6091C196.37 74.4019 196.69 74.2998 197.073 74.2998C197.382 74.2998 197.655 74.3669 197.894 74.5041C198.134 74.6383 198.314 74.828 198.436 75.0673L197.882 75.3708C197.747 75.0556 197.475 74.898 197.073 74.898C196.888 74.898 196.729 74.9389 196.597 75.0235C196.466 75.1081 196.4 75.2278 196.4 75.3795" fill="black"/>
<path d="M124.044 64.7175V65.3996C124.044 66.7608 123.583 67.8751 122.661 68.7396C121.739 69.6041 120.535 70.0391 119.049 70.0391C117.476 70.0391 116.177 69.5424 115.154 68.5487C114.129 67.5552 113.619 66.3342 113.619 64.8887C113.619 63.4432 114.131 62.2335 115.154 61.2343C116.179 60.2379 117.447 59.7383 118.962 59.7383C119.913 59.7383 120.783 59.9516 121.569 60.3754C122.356 60.802 122.966 61.3746 123.404 62.0932L121.964 62.9015C121.693 62.4271 121.29 62.0483 120.754 61.7592C120.221 61.4701 119.622 61.3269 118.962 61.3269C117.893 61.3269 117.015 61.6666 116.327 62.3486C115.638 63.0306 115.292 63.8811 115.292 64.9028C115.292 65.9244 115.638 66.7721 116.332 67.4429C117.026 68.1137 117.937 68.4505 119.063 68.4505C119.967 68.4505 120.702 68.2456 121.27 67.833C121.837 67.4205 122.2 66.8703 122.356 66.1798H118.948V64.7175H124.044Z" fill="#474747"/>
<path d="M127.043 63.9511C127.44 63.0725 128.189 62.6318 129.284 62.6318V64.2907C128.682 64.2542 128.157 64.3917 127.711 64.7089C127.264 65.0261 127.043 65.5481 127.043 66.2751V69.8509H125.47V62.7582H127.043V63.9511Z" fill="#474747"/>
<path d="M133.553 70.0395C132.484 70.0395 131.577 69.6802 130.831 68.9617C130.082 68.2432 129.71 67.359 129.71 66.3093C129.71 65.2595 130.085 64.3754 130.831 63.6569C131.577 62.9384 132.484 62.5791 133.553 62.5791C134.622 62.5791 135.54 62.9384 136.284 63.6569C137.027 64.3754 137.398 65.2595 137.398 66.3093C137.398 67.359 137.027 68.2432 136.284 68.9617C135.54 69.6802 134.63 70.0395 133.553 70.0395ZM131.937 67.912C132.375 68.3386 132.913 68.5491 133.553 68.5491C134.192 68.5491 134.731 68.3358 135.169 67.912C135.607 67.4853 135.823 66.9521 135.823 66.3093C135.823 65.6665 135.604 65.1304 135.169 64.7066C134.731 64.28 134.192 64.0695 133.553 64.0695C132.913 64.0695 132.375 64.2828 131.937 64.7066C131.499 65.1333 131.283 65.6665 131.283 66.3093C131.283 66.9521 131.502 67.4882 131.937 67.912Z" fill="#474747"/>
<path d="M143.731 62.7616H145.303V69.8543H143.731V68.9449C143.255 69.6718 142.504 70.0368 141.472 70.0368C140.637 70.0368 139.962 69.7757 139.447 69.2564C138.931 68.7372 138.675 68.0215 138.675 67.1149V62.7588H140.248V66.9577C140.248 67.4882 140.395 67.8952 140.686 68.1787C140.976 68.4621 141.374 68.6053 141.881 68.6053C142.434 68.6053 142.881 68.4369 143.221 68.1029C143.56 67.7661 143.731 67.2552 143.731 66.5648V62.7616Z" fill="#474747"/>
<path d="M151.261 62.5762C152.26 62.5762 153.116 62.9383 153.824 63.6624C154.533 64.3866 154.887 65.2679 154.887 66.3092C154.887 67.3505 154.533 68.243 153.824 68.9616C153.116 69.6801 152.26 70.0394 151.261 70.0394C150.154 70.0394 149.305 69.6408 148.711 68.8465V72.6918H147.138V62.7614H148.711V63.7831C149.302 62.9804 150.152 62.5762 151.261 62.5762ZM149.365 67.9315C149.803 68.3609 150.35 68.5771 151.01 68.5771C151.67 68.5771 152.22 68.3609 152.655 67.9315C153.093 67.5021 153.309 66.9604 153.309 66.3064C153.309 65.6524 153.09 65.1135 152.655 64.6813C152.217 64.2518 151.67 64.0357 151.01 64.0357C150.35 64.0357 149.803 64.2518 149.365 64.6813C148.927 65.1107 148.711 65.6524 148.711 66.3064C148.711 66.9604 148.93 67.4992 149.365 67.9315Z" fill="#474747"/>
<path d="M72.7961 55.3531C70.6241 55.3531 68.8326 54.6437 67.3197 53.1843C65.8097 51.7277 65.0728 49.9763 65.0728 47.8309C65.0728 45.6854 65.8067 43.9369 67.3197 42.4774C68.8326 41.0179 70.6241 40.3086 72.7961 40.3086C74.9681 40.3086 76.7597 41.0179 78.2726 42.4774C79.7824 43.9369 80.5166 45.6883 80.5166 47.8309C80.5166 49.6143 79.9473 51.2052 78.8239 52.5596C78.8089 52.5771 77.7183 53.9111 76.2983 54.5562C75.1869 55.0875 74.0095 55.3531 72.7961 55.3531ZM72.7961 42.6788C71.3311 42.6788 70.0849 43.1634 69.0932 44.1208C68.1016 45.0782 67.5983 46.3276 67.5983 47.8309C67.5983 49.3341 68.1016 50.5834 69.0962 51.5409C70.0878 52.4983 71.3342 52.9828 72.8021 52.9828C73.1646 52.9828 73.569 52.9478 74.0065 52.8778C74.0874 52.8661 76.2534 52.5421 77.278 50.5864C77.7483 49.7545 77.991 48.8204 77.991 47.8309C77.991 46.3276 77.4877 45.0782 76.496 44.1208C75.5044 43.1634 74.2581 42.6788 72.7931 42.6788" fill="#231F20"/>
<path d="M89.1472 55.3524C87.5027 55.3524 86.1398 54.9116 85.0972 54.0418C84.0665 53.1836 83.563 52.0481 83.563 50.577V40.667C84.9952 40.9238 86.0859 42.1498 86.0859 43.6181V50.2675C86.0859 52.0189 87.1729 52.9851 89.1472 52.9851C91.1215 52.9851 92.2092 52.0189 92.2092 50.2675V43.6181C92.2092 42.1498 93.2998 40.9238 94.7315 40.667V50.577C94.7315 52.0481 94.2315 53.1807 93.1978 54.0418C92.1552 54.9116 90.7924 55.3524 89.1472 55.3524Z" fill="#231F20"/>
<path d="M110.397 55.0439C109.1 55.0439 107.947 54.2411 107.528 53.0443L107.375 52.6065H100.442L100.319 52.9859C99.918 54.2177 98.7556 55.0439 97.4283 55.0439H96.853L101.269 42.3929C101.637 41.3333 102.659 40.6211 103.81 40.6211C104.96 40.6211 105.978 41.3333 106.347 42.39L110.772 55.0439H110.397ZM101.191 50.3705H106.596L103.804 42.3958L101.191 50.3705Z" fill="#231F20"/>
<path d="M113.477 55.0439V46.281C113.477 43.1606 116.084 40.6211 119.286 40.6211C121.348 40.6211 123.019 41.2954 124.4 42.6819C125.787 44.0743 126.462 45.7585 126.462 47.831C126.462 49.9035 125.787 51.5907 124.4 52.9801C123.019 54.3666 121.345 55.0409 119.286 55.0409H113.477V55.0439ZM119.286 42.9446C117.474 42.9446 116 44.3807 116 46.1467V52.7174H119.286C120.697 52.7174 121.859 52.262 122.747 51.3659C123.627 50.4756 124.073 49.2847 124.073 47.831C124.073 46.3774 123.627 45.1864 122.747 44.2961C121.859 43.397 120.694 42.9446 119.286 42.9446Z" fill="#231F20"/>
<path d="M135.311 55.0439V46.281C135.311 43.1606 137.918 40.6211 141.12 40.6211C143.181 40.6211 144.853 41.2954 146.234 42.6819C147.621 44.0743 148.295 45.7585 148.295 47.831C148.295 49.9035 147.621 51.5907 146.234 52.9801C144.853 54.3666 143.178 55.0409 141.12 55.0409H135.311V55.0439ZM141.12 42.9446C139.308 42.9446 137.833 44.3807 137.833 46.1467V52.7174H141.12C142.531 52.7174 143.693 52.262 144.58 51.3659C145.461 50.4756 145.907 49.2847 145.907 47.831C145.907 46.3774 145.461 45.1864 144.58 44.2961C143.693 43.397 142.528 42.9446 141.12 42.9446Z" fill="#231F20"/>
<path d="M162.199 55.0439C160.59 55.0439 159.095 54.2003 158.292 52.8429L156.585 49.9473H153.978V55.0439H151.456V40.6182H157.265C158.64 40.6182 159.776 41.0735 160.737 42.0105C161.699 42.9475 162.166 44.0538 162.166 45.3936C162.166 46.2402 161.932 47.002 161.45 47.723C160.968 48.444 160.323 49.0103 159.536 49.4102L159.015 49.6729L162.211 55.0439H162.199ZM153.981 47.9332H157.268C157.93 47.9332 158.502 47.6792 158.967 47.1772C159.416 46.6926 159.644 46.0913 159.644 45.3936C159.644 44.696 159.416 44.0976 158.967 43.6101C158.502 43.1081 157.93 42.8541 157.268 42.8541H153.981V47.9303V47.9332Z" fill="#231F20"/>
<path d="M165.447 55.0439V40.6211H174.183C173.955 41.9376 172.775 42.9446 171.357 42.9446H167.966V46.6021H173.635C173.479 47.8835 172.355 48.8818 170.998 48.8818H167.966V52.7174H174.336V55.0409H165.444L165.447 55.0439Z" fill="#231F20"/>
<path d="M189.911 55.0439C188.736 55.0439 187.691 54.317 187.314 53.234L187.095 52.6065H180.162L179.974 53.1815C179.611 54.2966 178.559 55.0439 177.358 55.0439H176.573L180.989 42.3929C181.357 41.3333 182.379 40.6211 183.527 40.6211C184.674 40.6211 185.696 41.3333 186.064 42.39L190.489 55.0439H189.911ZM180.909 50.3705H186.313L183.521 42.3958L180.909 50.3705Z" fill="#231F20"/>
<path d="M208 54.9942C206.568 54.7373 205.478 53.5114 205.478 52.0431V44.6318L200.598 52.4343L195.717 44.6318V52.0431C195.717 53.5114 194.627 54.7373 193.194 54.9942V40.6182H194.324C195.334 40.6182 196.289 41.1407 196.813 41.9784L200.594 48.0091L204.375 41.9784C204.903 41.1378 205.855 40.6182 206.864 40.6182H207.994V54.9942H208Z" fill="#231F20"/>
<path d="M83.3682 54.0074C82.035 54.9969 80.636 55.7908 79.0152 55.8901C77.9037 55.9631 76.9271 55.569 76.1721 54.5532C75.528 53.6862 74.8389 52.8456 73.9971 52.1771C73.0204 51.3598 71.9539 50.7906 70.7316 50.6417C70.2432 50.5921 69.7549 50.6417 69.2666 50.6417C69.2216 50.6417 69.1557 50.6417 69.0898 50.6155C69.3325 50.4928 69.5782 50.344 69.8238 50.2447C70.9353 49.7252 72.0887 49.3545 73.311 49.2786C74.5334 49.2027 75.6418 49.55 76.5316 50.5659C77.3525 51.4824 78.1764 52.3727 79.1081 53.1171C79.731 53.587 80.3964 53.984 81.1271 54.1328C81.8613 54.2817 82.5712 54.2321 83.2811 54.0336C83.3024 54.0336 83.3261 54.0102 83.3712 54.0102" fill="#231F20"/>
<path d="M78.7579 55.3528C77.8831 55.3528 77.1851 54.985 76.6248 54.2319C76.0196 53.4175 75.2767 52.4892 74.3479 51.7537C73.3863 50.9509 72.4156 50.4372 71.397 50.2037C72.0741 49.9847 72.7182 49.8592 73.3413 49.8213C73.4342 49.8154 73.5271 49.8125 73.6199 49.8125C74.6385 49.8125 75.4504 50.1745 76.1005 50.9188C76.9453 51.8616 77.7812 52.7666 78.7489 53.5372C79.576 54.1618 80.2918 54.518 81.0076 54.6639C81.0859 54.6785 81.1606 54.6931 81.2383 54.7048C80.4507 55.0988 79.7254 55.3002 78.9766 55.344C78.8987 55.3498 78.8268 55.3528 78.7549 55.3528" fill="#231F20"/>
<path d="M51.188 75.0472C52.3167 74.0317 53.2711 72.9368 54.0077 71.7582C54.1384 71.4339 54.2669 71.0669 54.3977 70.7427C54.2234 70.6204 54.0948 70.4593 53.9205 70.3369C53.1818 71.8805 52.1838 73.3405 50.8394 74.6007C50.9701 74.7638 51.0986 74.884 51.1858 75.0472" fill="black"/>
<path d="M53.9224 70.3369C53.1832 71.8805 52.1868 73.3405 50.8394 74.6007C50.9702 74.7638 51.0988 74.884 51.1861 75.0472C52.3155 74.0317 53.2705 72.9368 54.0074 71.7582C54.1383 71.4339 54.2669 71.0669 54.3977 70.7427C54.2233 70.6204 54.0947 70.4593 53.9202 70.3369" fill="black"/>
<path d="M53.4849 70.1875C53.6581 70.3146 53.7858 70.4818 53.959 70.6088C54.3465 69.345 54.563 68.0367 54.6063 66.7305C54.3898 67.9097 54.0023 69.0909 53.4849 70.1875ZM59.131 56.5307C58.7868 55.1398 58.2694 53.749 57.5788 52.3581C56.1131 49.407 53.2684 46.1616 49.0013 42.5775C44.6909 38.9955 42.1471 36.508 41.3721 35.1595C40.5537 33.811 40.1207 32.545 40.1207 31.3658C40.1207 30.5656 40.2073 29.8903 40.3784 29.2573C40.6793 28.076 41.24 27.1488 42.0605 26.4332C42.448 26.0543 42.6213 25.7579 42.6213 25.506C42.6213 25.1694 42.448 25 42.1471 25C41.9306 25 41.6297 25.1694 41.2422 25.4636C40.6815 25.9272 39.9497 26.7698 39.0015 27.9511C37.9233 29.2996 37.2349 30.7752 36.8885 32.3778C36.7153 33.0954 36.6309 33.8533 36.6309 34.6535C36.6309 37.1834 37.0617 39.1649 37.8389 40.6405C38.6573 42.0737 39.9952 43.4645 41.3309 45.2344C41.8051 45.825 42.8832 46.9619 44.1757 48.2701C46.7628 50.8423 50.1682 54.0454 50.8566 54.888C51.3308 55.3939 51.7616 55.9422 52.108 56.5307C52.5821 57.1637 52.9696 57.8793 53.3138 58.5546C53.4004 58.724 53.487 58.8488 53.5715 58.9759C53.959 59.7338 54.3054 60.4515 54.563 61.2093C55.2103 63.0215 55.4679 64.876 55.4247 66.7305C55.3814 68.2484 55.0804 69.7239 54.6063 71.1572C54.2188 72.2961 53.6581 73.3483 53.0107 74.3602C52.6232 74.9508 52.1924 75.4992 51.7183 76.0453C51.2442 76.5936 50.7267 77.1419 50.1227 77.6056C49.6053 78.0269 49.0879 78.4481 48.5705 78.7869C48.053 79.1235 47.1481 79.6718 46.9749 79.7564C45.7258 80.5567 44.4311 81.1473 43.0521 81.5686C41.9739 81.9052 40.8958 82.1169 39.7765 82.2418C39.0015 82.3265 38.2243 82.3689 37.4492 82.3265C37.1483 82.3265 36.8452 82.3265 36.5443 82.2841L36.5876 82.3265C37.406 83.0018 38.3108 83.675 39.3024 84.2659L39.56 84.4349L40.2073 84.8565C40.0342 85.1927 39.8631 85.5318 39.7332 85.8262C39.2158 86.7953 38.9993 87.3441 38.9993 87.5531C38.9993 87.8051 39.1292 87.9323 39.4301 87.9747C39.5167 88.0171 39.8177 88.0171 39.9043 87.8899C39.9909 87.8051 40.5516 86.584 40.7659 86.2048C41.7574 84.5197 43.4396 83.0018 45.8535 81.611C48.4839 80.093 50.7679 78.4503 52.6211 76.6783C54.0434 75.3721 55.2514 73.9813 56.243 72.5057C58.356 69.4275 59.5186 66.0149 59.735 62.3038V61.1247C59.735 59.6067 59.5618 58.0465 59.131 56.5307ZM53.4849 70.1875C53.6581 70.3146 53.7858 70.4818 53.959 70.6088C54.3465 69.345 54.563 68.0367 54.6063 66.7305C54.3898 67.9097 54.0023 69.0909 53.4849 70.1875ZM40.5949 54.3375C43.2252 54.3375 45.6392 55.1377 47.5789 56.5286C50.6834 58.6774 52.751 62.2192 52.751 66.2245C52.751 67.2364 52.6211 68.206 52.3635 69.1333C51.8893 70.9454 51.0277 72.548 49.8196 73.9389C47.5789 76.4687 44.3012 78.0692 40.5949 78.0692C33.9139 78.0692 28.4821 72.7576 28.4821 66.2245C28.4821 62.2192 30.5085 58.6795 33.6108 56.5286C35.5939 55.1377 38.0078 54.3375 40.5949 54.3375ZM52.7077 58.9759C52.6211 58.8488 52.5344 58.724 52.45 58.5546C52.1058 57.8793 51.7161 57.1637 51.2853 56.5307C50.8978 55.9401 50.467 55.3918 50.0361 54.888C48.8302 53.4971 47.4491 52.4005 45.9834 51.4732C44.9918 50.8826 43.9137 50.3766 42.8356 49.9976C42.4913 49.8706 42.145 49.786 41.8008 49.661C36.4988 48.1855 30.5063 49.1974 25.9816 52.9911C24.7324 54.0454 23.6543 55.2245 22.7905 56.5307C21.498 58.4699 20.6342 60.6187 20.2467 62.8542C19.4284 67.5328 20.6342 72.5502 24.0397 76.4687C27.1009 80.0105 31.3247 81.9496 35.7216 82.2863C36.0225 82.3286 36.2823 82.3286 36.5833 82.3286H37.4449C38.1766 82.3286 38.9105 82.2439 39.6423 82.1593C41.0214 81.9475 42.3571 81.5686 43.6951 81.0203C44.6 80.6414 45.505 80.1778 46.3255 79.6294C46.4553 79.5871 47.317 79.0388 47.921 78.6598C48.3951 78.3232 48.8259 77.9845 49.3001 77.6056C49.6876 77.269 50.0751 76.8879 50.4648 76.509C50.7224 76.2147 51.0255 75.9183 51.2831 75.624C52.2314 74.4025 53.0086 73.0519 53.5671 71.661C53.697 71.3244 53.8248 70.9433 53.9546 70.6067C54.3422 69.3429 54.5587 68.0346 54.602 66.7284C54.6886 64.0737 54.0412 61.4168 52.7055 58.9717" fill="#EC1C24"/>
<path d="M65.0725 76.3994C62.4709 78.1577 59.7408 79.567 56.5752 79.7415C54.4068 79.8741 52.4996 79.1694 51.0257 77.3669C49.7673 75.8272 48.4241 74.3318 46.7781 73.1456C44.871 71.6943 42.7896 70.6826 40.4056 70.4175C39.4521 70.3292 38.4985 70.4175 37.5449 70.4175C37.4578 70.4175 37.3272 70.4175 37.1987 70.3734C37.6756 70.1525 38.1523 69.8896 38.6291 69.7129C40.7975 68.7895 43.0509 68.129 45.4348 67.9987C47.8188 67.8662 49.9872 68.4825 51.7202 70.285C53.3247 71.913 54.9271 73.4968 56.7494 74.8156C57.9621 75.6505 59.2639 76.3552 60.6943 76.6181C62.1247 76.8809 63.5116 76.7948 64.8984 76.4413C64.9419 76.4413 64.9855 76.3972 65.0725 76.3972" fill="#231F20"/>
</g>
<defs>
<clipPath id="clip0_4002_150">
<rect width="188" height="63" fill="white" transform="translate(20 25)"/>
</clipPath>
</defs>
</svg>
