<?xml version="1.0" encoding="utf-8"?>
<!-- Generator: Adobe Illustrator 23.0.1, SVG Export Plug-In . SVG Version: 6.00 Build 0)  -->
<svg version="1.1" id="Layer_1" xmlns="http://www.w3.org/2000/svg" xmlns:xlink="http://www.w3.org/1999/xlink" x="0px" y="0px"
	 viewBox="0 0 400 200" style="enable-background:new 0 0 400 200;" xml:space="preserve">
<style type="text/css">
	.st0{fill:#114C90;}
	.st1{fill:#9EA0A3;}
</style>
<g>
	<g>
		<path class="st0" d="M126.8,74.8c1.2,1.3,2.5,2.7,3.8,4.1c-1.4,1.5-2.7,3-4,4.4c-1,1.1-2,2.1-3,3.2c-0.2,0.2-0.3,0.6-0.3,1
			c0,4.5,0,9,0,13.5c0,0.6-0.2,1-0.6,1.4c-2.5,2.3-4.9,4.7-7.4,7c-0.4,0.4-0.6,0.8-0.5,1.4c0,2.5,0,4.9,0,7.6
			c-5.3-5.4-10.5-10.7-15.6-15.9C108.5,93.2,117.6,84,126.8,74.8z"/>
		<path class="st0" d="M87.1,110.6c1.6,1.7,3.2,3.5,4.8,5.3c4,4.2,8.4,7.8,13.3,10.9c5.6,3.6,11.5,6.3,17.9,8
			c4.9,1.3,9.9,1.9,15,1.2c3.9-0.5,7.4-1.7,10.3-4.5c2.5-2.5,3.7-5.6,3.8-9.1c0.1-3.8-0.9-7.4-2.3-11c0-0.1-0.1-0.2,0-0.5
			c0.3,0.5,0.6,0.9,0.9,1.4c2.2,3.4,4.1,7.1,4.9,11.1c1.3,6.7-1.3,11.9-7.6,14.7c-4.5,2-9.3,2.4-14.2,2c-5.5-0.4-10.9-1.6-16-3.7
			c-11.1-4.4-20.4-11.3-27.6-21c-1-1.3-1.8-2.6-2.7-3.9C87.5,111.3,87.3,110.9,87.1,110.6C87.1,110.6,87.1,110.6,87.1,110.6z"/>
		<path class="st0" d="M168.7,90.1c-0.8-0.9-1.5-1.8-2.3-2.7c-7.1-8-15.5-14.3-25.4-18.7c-4.5-2-9.3-3.4-14.2-4.1
			c-4.5-0.6-9.1-0.6-13.4,0.9c-5.1,1.7-8.6,5-9.6,10.5c-0.6,3.5,0,6.9,1,10.1c0.4,1.1,0.8,2.2,1.1,3.4c-0.3-0.4-0.6-0.8-0.9-1.3
			c-2.1-3.2-3.9-6.6-4.8-10.3c-0.9-3.7-0.8-7.3,1.3-10.6c1.7-2.7,4.2-4.3,7.1-5.4c4.2-1.6,8.4-1.9,12.8-1.6c9.1,0.6,17.5,3.4,25.3,8
			C156.1,73.7,163.4,80.9,168.7,90.1z"/>
		<path class="st0" d="M143,91.3c3.9,3.8,7.7,7.5,11.4,11.2c-3.9,3.8-7.7,7.6-11.4,11.3C143,106.5,143,99,143,91.3z"/>
		<path class="st0" d="M302.7,103.9c-0.1,0.7-0.1,1.3-0.2,2c0.9,0.4,1.6,0.1,2.4-0.3c0.9-0.6,1.8-1.2,2.7-1.9c1.5-1,3.6-0.4,4.4,1.2
			c0.5,1-0.4,2.6-1.4,2.6c-2.7,0-5.4,0-8.2,0c-0.5,0-0.9,0-1.4,0c-0.5,0-1,0.1-1.4,0.1c-12.9,0-25.9,0-38.8,0c-0.2,0-0.4,0-0.6,0
			c-1.1,0-1.5-0.3-1.5-1.4c-0.2-1.7-0.4-3.4-0.4-5.1c0-0.4,0.6-0.9,1-1.3c0.1,0,0.2,0.1,0.2,0.1c0,0.3,0.1,0.6,0.1,0.9
			c0.1,1.4,0.2,2.8,0.2,4.2c0,0.7,0.3,1,1,0.9c0.1,0,0.2,0,0.4,0c13,0,25.9,0,38.9,0c0.2,0,0.5,0,0.7,0c0.7,0,1.1-0.1,1-1
			c0-0.4,0.5-0.8,0.8-1.2C302.5,103.8,302.6,103.9,302.7,103.9z M311.1,106c-1.1-1.6-3.8-1.8-5.2,0.1
			C307.7,106.1,309.3,106.3,311.1,106z"/>
		<path class="st0" d="M179.5,100.1c0.1,1.8,0.2,3.6,0.3,5.4c0,1.1,0.2,1.2,1.3,1.2c11.1,0,22.1,0,33.1,0c0.3,0,0.6,0,1-0.1
			c0.5,0,0.8-0.1,0.7-0.7c0-0.3,0.4-0.6,0.6-0.9c0.1,0,0.1,0,0.2,0.1c0,0.3,0,0.7-0.1,1c-0.1,0.4,0,0.6,0.5,0.6c0.4,0,0.8,0,1.2,0
			c0.5,0,0.7-0.2,0.7-0.7c0-0.3,0.4-0.7,0.6-1c0.1,0,0.2,0.1,0.2,0.1c0,0.5-0.1,1-0.2,1.6c0.6,0,1.1,0.1,1.6,0
			c0.8-0.2,0.1-0.7,0.2-1.2c0.2-0.2,0.5-0.4,0.8-0.7c0.1,0.7,0.2,1.3,0.3,2c1.1,0,2.2,0,3.3,0c0-0.8-1.2-1.5-0.1-2.3
			c0.6,0.6,0.9,1.3,1,2.2c0.1,0.7-0.2,1.1-0.9,1.2c-1.2,0-2.3,0-3.5,0c-1.5,0-2.9,0-4.4,0c-0.2,0-0.5,0-0.7,0c-1.2-0.3-2.4,0-3.6,0
			c-11.1,0-22.1,0-33.1,0c-1.2,0-1.5-0.2-1.7-1.4c-0.2-1.7-0.3-3.4-0.4-5.1c0-0.4,0.4-0.7,0.6-1.1
			C179.3,100,179.4,100.1,179.5,100.1z"/>
		<path class="st0" d="M204.7,115.4c0,2.8,0,5.5,0,8.3c-0.9,0-1.7,0-2.5,0c0-1.1,0-2.2,0-3.3c-1,0-1.9,0-2.9,0c0,0.9,0,1.8,0,2.7
			c0,0.5-0.2,0.7-0.7,0.7c-0.6,0-1.2,0-1.8,0c0-2.8,0-5.6,0-8.4c0.8,0,1.6,0,2.5,0c0,0.7,0,1.5,0,2.3c0,0.5,0.1,0.7,0.6,0.7
			c0.7,0,1.5,0,2.2,0c0-1,0-2,0-3C203,115.4,203.8,115.4,204.7,115.4z"/>
		<path class="st0" d="M246.1,104.6c-0.7,0.2-1.5,0.4-2.2,0.6c0.1-0.9,1.2-1.9,2.3-1.9c0.5,0,1,0.1,1.5,0.1c1.2,0.1,2.3,0.2,3.5,0.2
			c-0.2,1-0.2,1.1-1.2,1.3c-0.2,0-0.5,0.2-0.7,0.4c0.2,0.2,0.5,0.6,0.7,0.6c1.7,0.1,3.5,0.1,5.3,0.1c0.1,0,0.4-0.4,0.3-0.5
			c-0.1-1.2-0.1-2.3-0.4-3.5c-0.2-1.1,0.2-1.6,1.2-2.1c0,0.2,0.1,0.5,0.1,0.7c0.1,2,0.2,4.1,0.2,6.1c0,0.5-0.1,1-0.7,0.9
			c-2,0-4.1,0-6.1-0.2c-1,0-1.2-0.4-1.2-1.4c0-0.3,0-0.7,0-1.1c-1.3,0-2.2,0.6-2.9,1.6c-0.6,0.9-0.8,1.9-0.3,2.9
			c0.5,1,1.5,1.3,2.6,1.3c0.7,0,1.5,0,2.2-0.1c0.7-0.1,1.4-0.2,2.1-0.4c0,0.1,0,0.2,0,0.2c-1.4,1.3-3,2.2-5,1.8
			c-2.2-0.4-3.4-2.2-2.8-4.4c0.3-0.9,0.9-1.8,1.3-2.7c0.1-0.2,0.2-0.3,0.3-0.5C246.2,104.8,246.1,104.7,246.1,104.6z"/>
		<path class="st0" d="M188.3,115.4c2.2,0,4.4,0,6.7,0c0,0.5,0,1,0,1.7c-1,0-2.1,0-3.1,0c-1.3,0-1.3,0-1.1,1.4c1.3,0,2.6,0,3.9,0
			c0,0.6,0,1.1,0,1.7c-1.3,0-2.6,0-3.9,0c-0.1,0.2-0.1,0.2-0.1,0.3c-0.1,1.5-0.1,1.5,1.4,1.5c1,0,2,0,3,0c0,0.6,0,1.2,0,1.9
			c-1,0-2.1,0-3.1,0c-1.1,0-2.2,0-3.2,0c-0.4,0-0.6,0-0.6-0.5c0-2.5,0-5.1,0-7.6C188.2,115.6,188.2,115.6,188.3,115.4z"/>
		<path class="st0" d="M173.4,115.4c0.8,0,1.6,0,2.4,0c0.2,0,0.4,0.1,0.5,0.2c1,2.7,2,5.3,3.1,8.1c-0.9,0-1.7,0-2.4,0
			c-0.2,0-0.4-0.4-0.5-0.7c-0.1-0.5-0.4-0.8-1-0.7c-0.3,0-0.7,0-1,0c-0.8-0.1-1.4,0-1.5,1c0,0.2-0.3,0.4-0.5,0.4c-0.7,0-1.4,0-2.2,0
			C171.4,120.9,172.4,118.2,173.4,115.4z M174.9,117.8c-0.1,0-0.1,0-0.2,0c-0.3,0.9-0.5,1.8-0.8,2.8c0.7,0,1.2,0,1.9,0
			C175.5,119.6,175.2,118.7,174.9,117.8z"/>
		<path class="st0" d="M169.4,117.7c-0.5,0-0.9,0.1-1.3,0.1c-0.5,0.1-1,0.1-1.3-0.6c-0.3-0.6-1-0.5-1.5-0.3
			c-0.2,0.1-0.4,0.4-0.4,0.5c0,0.2,0.3,0.5,0.5,0.5c0.6,0.2,1.2,0.3,1.9,0.5c0.8,0.2,1.6,0.5,2.1,1.3c0.9,1.4,0.1,3.3-1.5,3.9
			c-1.2,0.4-2.5,0.4-3.7,0c-1.2-0.4-1.8-1.2-2-2.6c0.7-0.1,1.5-0.1,2.3-0.2c0.2,1,0.8,1.6,1.8,1.4c0.3-0.1,0.8-0.4,0.9-0.7
			c0-0.3-0.3-0.8-0.6-0.9c-0.7-0.3-1.5-0.4-2.2-0.7c-1.2-0.4-1.9-1.2-1.9-2.2c0-1.1,0.7-2.1,2-2.3c1-0.1,2.1-0.1,3.2,0
			C168.7,115.7,169.2,116.4,169.4,117.7z"/>
		<path class="st0" d="M180.3,115.4c0.9,0,1.7,0,2.5,0c0,1.1,0,2.2,0,3.3c0,0.8,0,1.6,0,2.4c0,0.5,0.1,0.7,0.7,0.7
			c0.9,0,1.8,0,2.8,0c0.5,0,0.7,0.1,0.7,0.6c0,1.4,0.1,1.4-1.3,1.4c-1.5,0-3.1,0-4.7,0c-0.3,0-0.7,0-0.7-0.5
			C180.3,120.8,180.3,118.1,180.3,115.4z"/>
		<path class="st0" d="M232.9,106.1c0.6-0.6,1-1.3,1.1-2.2c0-0.8,0-1.7-0.1-2.5c-0.1-0.7,0.1-1.2,0.7-1.5c0,0.5,0.1,0.8,0.1,1.2
			c0.1,1.4,0.1,2.7,0.2,4.1c0,1.1,0.3,1.4,1.4,1.4c0.9,0,1.7,0,2.7,0c-0.2-1.5-0.4-3-0.6-4.4c-0.1-0.9-0.3-1.8,0.9-2.3
			c0,0.6,0.1,1.2,0.2,1.9c0.1,1.7,0.1,3.3,0.2,5c0,0.6-0.2,0.8-0.7,0.8c-1,0-1.9,0-2.8,0c-1-0.1-1.5-0.5-1.7-1.6
			c0-0.2,0-0.5-0.1-0.7c-0.8,0.9-1.4,2.1-2.4,2.6c-1,0.5-2.3,0.3-3.5,0.5c0-0.1,0-0.1,0-0.2c0.8-0.2,1.6-0.5,2.4-0.7
			c1.6-0.6,1.9-1,1.3-2.7c-0.3-0.8-0.9-1.5-1.4-2.2c-0.1-0.1-0.4-0.2-0.4-0.2c-0.5,0.3-0.7,0.1-0.9-0.2c-0.2-0.5-0.5-1-0.5-1.4
			c0-0.4,0.4-0.7,0.8-0.4c1.2,1,2.4,2.1,2.9,3.6C233,104.6,232.9,105.4,232.9,106.1z"/>
		<path class="st0" d="M251.9,115.4c1.6,0,3.1-0.1,4.6,0c1.2,0.1,1.9,0.9,2,2c0.1,1.2-0.5,2-1.7,2.4c-0.1,0-0.2,0.1-0.3,0.1
			c0.9,1.2,1.7,2.5,2.7,3.8c-0.9,0.2-1.5,0.2-1.8-0.6c-0.3-0.6-0.7-1.2-1.1-1.7c-0.9-1.3-1.7-1.6-3.4-1.2c0,0.9,0,1.8,0,2.7
			c0,1,0,1-1,0.8C251.9,121,251.9,118.3,251.9,115.4z M252.9,119.2c1.2,0,2.3,0,3.4-0.2c0.7-0.1,1-0.6,1-1.3c0-0.6-0.3-1.2-0.9-1.2
			c-1.2-0.2-2.4-0.2-3.6-0.2C252.9,117.3,252.9,118.2,252.9,119.2z"/>
		<path class="st0" d="M233.8,122c0-2.3,0-4.4,0-6.6c0.4,0,0.6,0,1,0c0,0.3,0,0.5,0,0.8c0,2.2,0,4.4,0,6.7c0,0.3-0.1,0.8-0.3,0.9
			c-0.4,0.2-0.8,0-1.1-0.5c-1.2-1.8-2.4-3.6-3.6-5.4c-0.1-0.2-0.2-0.3-0.5-0.4c0,0.3,0,0.7,0,1c0,1.5,0,3,0,4.6c0,0.8-0.1,0.8-1,0.7
			c0-2.7,0-5.4,0-8.2c0.6-0.2,1.1-0.1,1.5,0.5c1.2,1.8,2.4,3.6,3.6,5.4C233.4,121.5,233.5,121.7,233.8,122z"/>
		<path class="st0" d="M298,117.5c0,1,0,2.1,0,3.1s0,2,0,3.1c-0.4,0-0.7,0-1,0c0-2.8,0-5.5,0-8.2c0.7-0.2,1.1,0,1.5,0.5
			c1.1,1.7,2.3,3.5,3.5,5.2c0.1,0.2,0.2,0.4,0.4,0.6c0,0,0.1,0,0.2,0c0-2.1,0-4.2,0-6.3c0.4,0,0.6,0,1,0c0,0.2,0,0.5,0,0.7
			c0,2.3,0,4.6,0,6.9c0,0.2-0.1,0.7-0.3,0.8c-0.4,0.2-0.7,0-1-0.3c-1.2-1.8-2.4-3.6-3.6-5.3c-0.1-0.2-0.3-0.4-0.5-0.6
			C298.2,117.5,298.1,117.5,298,117.5z"/>
		<path class="st0" d="M287.6,119.6c0-2.9,2.1-4.7,4.7-4.2c2.4,0.5,3.3,2.5,3.2,4.5c-0.1,1.6-0.6,3-2.2,3.7
			C290.4,124.8,287.4,123,287.6,119.6z M294.6,119.6c-0.1-0.5-0.2-1.1-0.4-1.5c-0.4-1.3-1.5-2-2.8-1.9c-1.3,0-2.4,0.9-2.6,2.2
			c-0.1,0.8-0.1,1.6,0,2.5c0.2,1.2,1.2,2.1,2.4,2.2c1.4,0.1,2.5-0.4,3-1.7C294.3,120.8,294.4,120.2,294.6,119.6z"/>
		<path class="st0" d="M226.6,119.5c0,3.3-2.5,5.2-5.4,4.2c-1-0.3-1.6-1-2.1-1.8c-1-1.8-0.6-4.4,0.9-5.7c1.2-1.1,2.7-1.2,4.2-0.6
			c1.5,0.6,2.2,1.8,2.3,3.4C226.6,119.2,226.6,119.4,226.6,119.5z M222.7,123c1.4,0,2.5-0.8,2.8-2.1c0.2-1,0.2-1.9-0.1-2.9
			c-0.6-1.7-2.7-2.4-4.2-1.4c-1.5,1-1.5,2.5-1.2,4.1C220.1,122.1,221.2,123,222.7,123z"/>
		<path class="st0" d="M242.7,117.6c-0.6,0.3-0.9,0.2-1.2-0.4c-0.5-1.1-2.6-1.4-3.5-0.5c-0.6,0.6-0.4,1.5,0.4,1.7s1.6,0.5,2.5,0.7
			c1.3,0.4,2.1,1.1,2.1,2.2c0,1-0.5,1.9-1.5,2.3c-1.2,0.5-2.5,0.5-3.7-0.1c-0.5-0.3-1-0.9-1.2-1.4c-0.4-0.7-0.2-1,0.7-1
			c0.8,1.7,2.1,2.3,3.6,1.7c0.6-0.2,1-0.5,1.1-1.2c0-0.7-0.4-1.1-1-1.3c-1-0.3-2-0.5-2.9-0.9c-1.5-0.6-1.8-2.3-0.6-3.4
			c1.3-1.3,4.3-0.9,5.1,0.7C242.6,117,242.6,117.3,242.7,117.6z"/>
		<path class="st0" d="M306.1,121.1c0.6,1.7,2.2,2.4,3.8,1.6c0.5-0.2,0.8-0.6,0.8-1.2c0-0.6-0.3-1-0.8-1.1c-0.7-0.2-1.3-0.4-2-0.6
			c-0.4-0.1-0.8-0.2-1.2-0.4c-0.7-0.3-1.2-0.8-1.2-1.7c-0.1-0.9,0.3-1.5,1-2c1.1-0.7,3-0.7,4,0.1c0.6,0.5,1,1,0.9,1.8
			c-0.6,0.2-1,0.2-1.2-0.5c-0.4-1.3-3-1.1-3.6-0.4c-0.5,0.7-0.3,1.4,0.5,1.7c0.7,0.2,1.5,0.4,2.3,0.6c0.9,0.3,1.8,0.6,2.2,1.7
			c0.4,1.1-0.2,2.4-1.4,2.8c-1.2,0.5-2.4,0.5-3.5,0c-0.6-0.3-1.1-0.9-1.4-1.4C304.9,121.3,305.2,121.1,306.1,121.1z"/>
		<path class="st0" d="M265.9,115.4c0.4,0,0.6,0,0.9,0c0,0.2,0.1,0.4,0.1,0.6c0,1.6,0,3.2,0,4.9c0,2.1-1.3,3.2-3.4,3.1
			c-2.1-0.1-3.1-1.1-3.1-3.2c0-1.7,0-3.5,0-5.2c1-0.2,1.1-0.2,1.1,0.8c0,1.5,0,3,0,4.4c0,2,1.7,2.9,3.4,2c0.9-0.5,1-1.4,1-2.2
			c0-1.4,0-2.8,0-4.2C265.9,116.1,265.9,115.8,265.9,115.4z"/>
		<path class="st0" d="M217.5,117.6c-0.5,0.1-0.8,0.2-1.1,0.3c-0.9-1.9-2.4-2.1-3.9-1.3c-1.2,0.6-1.3,1.9-1.3,3.1
			c0,0.5,0.1,1.1,0.3,1.6c0.3,1.1,1.2,1.7,2.2,1.7c1.2,0,2-0.4,2.5-1.5c0.1-0.2,0.2-0.4,0.2-0.6c0.3,0.1,0.6,0.2,0.9,0.2
			c0,1.2-1.2,2.5-2.5,2.7c-2.6,0.5-4.4-0.9-4.7-3.5c-0.1-0.7,0-1.5,0.1-2.2c0.6-2.7,4.1-3.8,6.1-2
			C216.9,116.5,217.1,117,217.5,117.6z"/>
		<path class="st0" d="M275.7,117.6c-0.6,0.4-1,0.3-1.3-0.3c-0.4-0.9-1.2-1.1-2.2-1.1c-1,0-1.8,0.5-2.2,1.4c-0.6,1.3-0.6,2.7,0,4
			c0.5,1.1,1.3,1.5,2.5,1.5c1.1,0,1.8-0.5,2.2-1.5c0.1-0.2,0.2-0.4,0.2-0.6c0.3,0.1,0.6,0.2,0.9,0.2c0,1.2-1.2,2.5-2.6,2.7
			c-2.7,0.4-4.5-1-4.7-3.8c-0.1-1.7,0.2-3.2,1.7-4.2c1.9-1.3,4.5-0.7,5.4,1.2C275.7,117.3,275.7,117.5,275.7,117.6z"/>
		<path class="st0" d="M283.3,116.4c-0.9,0-1.8,0-2.7,0c0,2.2,0,4.4,0,6.5c0,1,0,1-1.1,0.8c0-2.4,0-4.8,0-7.4c-1,0-1.8,0-2.7,0
			c0-0.3,0-0.6,0-1c2.2,0,4.4,0,6.5,0C283.3,115.7,283.3,116,283.3,116.4z"/>
		<path class="st0" d="M250.5,115.4c0,0.2,0,0.3,0,0.4c0,0.2,0,0.3,0,0.5c-0.9,0-1.7,0-2.7,0c0,2.5,0,4.9,0,7.4c-0.4,0-0.7,0-1.1,0
			c0-2.5,0-4.9,0-7.4c-0.9,0-1.8,0-2.7,0c0-0.4,0-0.7,0-1C246.2,115.4,248.3,115.4,250.5,115.4z"/>
		<path class="st0" d="M170.9,106.8c-0.3-0.4-0.5-0.7-0.6-1c-0.1-0.3,0.1-0.6,0.2-1c0.7,0.5,1.1,1.8,0.8,2.5
			c-0.1,0.2-0.5,0.5-0.7,0.6c-2.1,0.5-4.2,0.8-6.3,0.3c-1.5-0.3-2-1.7-1-2.8c0,0,0.1,0.1,0.1,0.1c-0.1,1.4,0,1.5,1.5,1.7
			C166.8,107.5,168.7,107.1,170.9,106.8z"/>
		<path class="st0" d="M284.8,123.8c0-2.8,0-5.5,0-8.3c0.3,0,0.6,0,1,0c0,0.3,0,0.7,0,1c0,2.2,0,4.4,0,6.6
			C285.8,123.9,285.7,123.9,284.8,123.8z"/>
		<path class="st0" d="M173.8,99.9c0.1,2.3,0.2,4.4,0.3,6.5c0,0.4-0.3,0.9-0.5,1.3c-0.1,0-0.1,0-0.2-0.1c-0.1-1.2-0.2-2.5-0.2-3.7
			c0-0.7-0.1-1.4-0.2-2.1C172.7,101,173,100.5,173.8,99.9z"/>
		<path class="st0" d="M166.4,104.6c-0.5-0.2-0.9-0.5-1.3-0.7c0.2-0.3,0.4-0.5,0.5-0.7c0.6,0,1.2,1,1.8,0c0.4,0.2,0.8,0.4,1.3,0.7
			c-0.2,0.6-0.4,1-1.1,0.5C167.2,104,166.8,104.1,166.4,104.6z"/>
		<path class="st0" d="M221.2,103.1c-0.2,0.3-0.3,0.5-0.5,0.7c-0.6,0-1.2-1-1.8,0c-0.5-0.2-0.9-0.5-1.4-0.7c0.2-0.3,0.3-0.5,0.5-0.8
			c0.5,0.2,0.9,0.4,1.3,0.5c0.2-0.2,0.3-0.3,0.5-0.5C220.3,102.6,220.7,102.8,221.2,103.1z"/>
		<path class="st0" d="M232.5,108.6c0.6,1.2,1.4,0.7,2.1,0.5c-0.1,0.7-0.7,0.6-1.1,0.7c-0.4,0.2-0.8,0.4-1.2,0.5
			c0-0.4-0.1-0.8-0.2-1.2c-0.1-0.7,0.8-1.4,1.5-1.1c0.1,0,0.2,0.3,0.3,0.5C233.4,108.6,233,108.6,232.5,108.6z"/>
		<path class="st0" d="M175.3,106.8c0.2-0.1,0.5-0.3,0.7-0.4c-0.1-0.3-0.3-0.6-0.2-0.8c0.2-0.5,1-0.7,1.8-0.5
			c-0.3,0.1-0.5,0.2-0.7,0.2c-0.2,0.1-0.4,0.1-0.6,0.3c0.2,0,0.3,0.1,0.5,0.2s0.4,0.2,0.4,0.3c0,0.2-0.2,0.4-0.3,0.5
			c-0.5,0.2-0.9,0.3-1.4,0.5C175.4,107,175.4,107,175.3,106.8z"/>
		<path class="st0" d="M225.8,102c-0.2,0.3-0.3,0.5-0.4,0.8c-0.5-0.2-0.9-0.5-1.3-0.6C224.3,101.1,224.5,101.1,225.8,102z"/>
		<path class="st0" d="M217.9,101.6c0.2-0.2,0.3-0.4,0.5-0.7c0.4,0.2,0.8,0.4,1.2,0.6C219.3,102.4,219.1,102.4,217.9,101.6z"/>
	</g>
	<polygon class="st1" points="121.6,108.9 129.4,101.2 129.4,129 121.3,121 	"/>
	<path class="st1" d="M139,71.1l5.7,4.4l-0.2,37.1l-5.2,5.2C139.3,117.9,139.3,70.8,139,71.1z"/>
</g>
</svg>
