<?xml version="1.0" encoding="utf-8"?>
<!-- Generator: Adobe Illustrator 23.0.1, SVG Export Plug-In . SVG Version: 6.00 Build 0)  -->
<svg version="1.1" id="Layer_1" xmlns="http://www.w3.org/2000/svg" xmlns:xlink="http://www.w3.org/1999/xlink" x="0px" y="0px"
	 viewBox="0 0 400 200" style="enable-background:new 0 0 400 200;" xml:space="preserve">
<style type="text/css">
	.st0{fill:#004A99;}
	.st1{fill:#009DA0;}
	.st2{fill:#868686;}
</style>
<g>
	<path class="st0" d="M118.1,84c-5.5,2.5-15.2,7.8-16.2,12.5c-0.2,1.2,0.1,2.3,1.1,3.3c1.4,1.4,1.9,3,1.5,4.7c-1,4.6-8.6,9-14,11.6
		h27.5V84z"/>
	<path class="st1" d="M101,104.2c0.2-1.1-0.1-2.1-1.1-3.1c-1.4-1.5-1.9-3.1-1.6-4.9c1-4.9,8.9-9.7,14.3-12.4H85v32.1
		C90.6,113.5,100,108.6,101,104.2"/>
	<path class="st1" d="M125.3,96.3c0.9,0.4,2.3,0.8,3.7,0.8c1.5,0,2.4-0.6,2.4-1.4c0-0.8-0.7-1.3-2.5-1.8c-2.5-0.8-4.1-2-4.1-3.9
		c0-2.2,2.1-3.9,5.6-3.9c1.7,0,2.9,0.3,3.8,0.7l-0.8,2.3c-0.6-0.3-1.7-0.6-3.1-0.6c-1.5,0-2.2,0.6-2.2,1.3c0,0.8,0.8,1.2,2.8,1.8
		c2.6,0.8,3.8,2,3.8,3.9c0,2.2-1.9,4-6,4c-1.7,0-3.4-0.4-4.2-0.8L125.3,96.3z"/>
	<rect x="137.2" y="86.3" class="st1" width="3.4" height="13"/>
	<path class="st1" d="M156,94.3c-0.1-1.6-0.1-3.4-0.1-5.3h0c-0.5,1.7-1.1,3.5-1.7,5l-1.8,5.1h-2.6l-1.6-5c-0.5-1.5-1-3.4-1.3-5.1h0
		c-0.1,1.8-0.2,3.8-0.2,5.4l-0.3,4.9h-3.1l1-13h4.5l1.5,4.3c0.5,1.5,0.9,3.1,1.3,4.6h0.1c0.4-1.5,0.9-3.2,1.4-4.7l1.6-4.3h4.4
		l0.8,13h-3.3L156,94.3z"/>
	<path class="st1" d="M162.1,86.5c1-0.2,2.5-0.3,4.5-0.3c2.1,0,3.6,0.3,4.6,1.1c1,0.6,1.6,1.7,1.6,3c0,1.3-0.5,2.4-1.3,3.1
		c-1.1,0.9-2.9,1.4-4.9,1.4c-0.4,0-0.8,0-1.1-0.1v4.7h-3.3V86.5z M165.5,92.4c0.3,0.1,0.6,0.1,1.1,0.1c1.8,0,2.9-0.8,2.9-2.1
		c0-1.2-0.9-1.9-2.6-1.9c-0.7,0-1.1,0-1.4,0.1V92.4z"/>
	<polygon class="st1" points="175,86.3 178.3,86.3 178.3,96.8 184.3,96.8 184.3,99.3 175,99.3 	"/>
	<polygon class="st1" points="195.1,93.8 189.6,93.8 189.6,96.9 195.7,96.9 195.7,99.3 186.3,99.3 186.3,86.3 195.4,86.3 
		195.4,88.7 189.6,88.7 189.6,91.4 195.1,91.4 	"/>
	<path class="st1" d="M202.6,96.3c0.9,0.4,2.3,0.8,3.7,0.8c1.5,0,2.4-0.6,2.4-1.4c0-0.8-0.7-1.3-2.5-1.8c-2.5-0.8-4.1-2-4.1-3.9
		c0-2.2,2.1-3.9,5.6-3.9c1.7,0,2.9,0.3,3.8,0.7l-0.8,2.3c-0.6-0.3-1.7-0.6-3.1-0.6c-1.5,0-2.2,0.6-2.2,1.3c0,0.8,0.8,1.2,2.8,1.8
		c2.6,0.8,3.8,2,3.8,3.9c0,2.2-1.9,4-6,4c-1.7,0-3.4-0.4-4.2-0.8L202.6,96.3z"/>
	<path class="st1" d="M220.7,99.5c-4.4,0-7-2.9-7-6.6c0-3.9,2.9-6.8,7.2-6.8c4.6,0,7.1,3,7.1,6.6C228,96.9,225.1,99.5,220.7,99.5
		L220.7,99.5z M220.9,97.2c2.3,0,3.6-1.9,3.6-4.4c0-2.3-1.3-4.3-3.6-4.3c-2.3,0-3.6,2-3.6,4.4C217.3,95.3,218.6,97.2,220.9,97.2
		L220.9,97.2z"/>
	<polygon class="st1" points="230.3,86.3 233.6,86.3 233.6,96.8 239.5,96.8 239.5,99.3 230.3,99.3 	"/>
	<path class="st1" d="M244.2,86.3v7.4c0,2.2,1,3.4,2.7,3.4c1.8,0,2.7-1.1,2.7-3.4v-7.4h3.4v7.3c0,4-2.3,5.9-6.2,5.9
		c-3.8,0-5.9-1.8-5.9-5.9v-7.2H244.2z"/>
	<polygon class="st1" points="258.8,88.8 254.8,88.8 254.8,86.3 266.2,86.3 266.2,88.8 262.2,88.8 262.2,99.3 258.8,99.3 	"/>
	<rect x="268" y="86.3" class="st1" width="3.4" height="13"/>
	<path class="st1" d="M280.6,99.5c-4.4,0-7-2.9-7-6.6c0-3.9,2.9-6.8,7.2-6.8c4.6,0,7.1,3,7.1,6.6C287.9,96.9,285,99.5,280.6,99.5
		L280.6,99.5z M280.8,97.2c2.3,0,3.6-1.9,3.6-4.4c0-2.3-1.3-4.3-3.6-4.3c-2.3,0-3.6,2-3.6,4.4C277.2,95.3,278.5,97.2,280.8,97.2
		L280.8,97.2z"/>
	<path class="st1" d="M290.1,99.3v-13h3.9l3.1,4.7c0.9,1.4,1.7,3,2.4,4.4h0c-0.2-1.7-0.3-3.5-0.3-5.4v-3.8h3.1v13h-3.5l-3.2-5
		c-0.9-1.4-1.9-3.1-2.6-4.6h-0.1c0.1,1.7,0.2,3.6,0.2,5.7v3.9H290.1z"/>
	<path class="st1" d="M305.5,96.3c0.9,0.4,2.3,0.8,3.7,0.8c1.5,0,2.4-0.6,2.4-1.4c0-0.8-0.7-1.3-2.5-1.8c-2.5-0.8-4.1-2-4.1-3.9
		c0-2.2,2.1-3.9,5.6-3.9c1.7,0,2.9,0.3,3.8,0.7l-0.7,2.3c-0.6-0.3-1.7-0.6-3.1-0.6c-1.5,0-2.2,0.6-2.2,1.3c0,0.8,0.8,1.2,2.8,1.8
		c2.6,0.8,3.8,2,3.8,3.9c0,2.2-1.9,4-6,4c-1.7,0-3.4-0.4-4.2-0.8L305.5,96.3z"/>
	<polygon class="st2" points="132.5,109.3 126.6,109.3 126.6,113.3 133.1,113.3 133.1,114.5 124.7,114.5 124.7,103.5 132.8,103.5 
		132.8,104.7 126.6,104.7 126.6,108.2 132.5,108.2 	"/>
	<path class="st2" d="M144.3,114.5l-1.9-2.4c-0.7-0.9-1.3-1.6-1.7-2.2h0c-0.4,0.6-0.9,1.3-1.6,2.2l-1.8,2.4h-2.2l4.6-5.6l-4.4-5.5
		h2.2l2,2.6c0.5,0.7,1,1.3,1.4,1.9h0.1c0.4-0.6,0.8-1.2,1.4-1.9l2-2.6h2.3l-4.7,5.4l4.8,5.7H144.3z"/>
	<polygon class="st2" points="151.1,103.5 151.1,108.1 158.4,108.1 158.4,103.5 160.4,103.5 160.4,114.5 158.4,114.5 158.4,109.3 
		151.1,109.3 151.1,114.5 149.2,114.5 149.2,103.5 	"/>
	<rect x="164.2" y="103.5" class="st2" width="2" height="11.1"/>
	<path class="st2" d="M169.8,103.6c0.9-0.1,2.1-0.2,3.5-0.2c1.9,0,3.3,0.3,4.1,0.8c0.8,0.4,1.3,1.1,1.3,2c0,1.1-0.9,2-2.5,2.4v0
		c0.8,0.1,1.5,0.4,2.2,0.8c0.7,0.5,1,1.1,1,1.9c0,0.9-0.5,1.7-1.3,2.2c-1,0.7-2.8,1-5.2,1c-1.4,0-2.4-0.1-3-0.1V103.6z M171.7,108.2
		h1.8c1,0,1.8-0.2,2.4-0.6c0.6-0.3,0.9-0.8,0.9-1.3c0-0.6-0.3-1.1-0.9-1.4c-0.6-0.3-1.4-0.4-2.4-0.4c-0.9,0-1.4,0-1.7,0.1V108.2z
		 M171.7,113.5c0.4,0,0.9,0.1,1.6,0.1c1.1,0,2-0.2,2.7-0.5c0.8-0.3,1.2-0.9,1.2-1.7c0-0.8-0.4-1.3-1.1-1.6c-0.7-0.3-1.7-0.5-2.8-0.5
		h-1.6V113.5z"/>
	<rect x="182.2" y="103.5" class="st2" width="2" height="11.1"/>
	<polygon class="st2" points="190.6,104.7 186,104.7 186,103.5 197.2,103.5 197.2,104.7 192.6,104.7 192.6,114.5 190.6,114.5 	"/>
	<rect x="199.2" y="103.5" class="st2" width="2" height="11.1"/>
	<path class="st2" d="M210.6,114.7c-2,0-3.6-0.5-4.9-1.6c-1.3-1-1.9-2.4-1.9-4.1c0-1.8,0.7-3.2,2-4.2c1.3-1,2.9-1.6,5-1.6
		c2.1,0,3.7,0.5,5,1.6c1.2,1,1.8,2.4,1.8,4c0,1.9-0.7,3.3-2,4.3C214.3,114.2,212.6,114.7,210.6,114.7L210.6,114.7z M210.7,113.6
		c1.6,0,2.7-0.5,3.6-1.4c0.8-0.9,1.3-2,1.3-3.2c0-1.2-0.4-2.2-1.2-3.1c-0.8-0.9-2-1.4-3.6-1.4c-1.6,0-2.8,0.5-3.6,1.4
		c-0.8,0.9-1.2,2-1.2,3.2c0,1.2,0.4,2.2,1.3,3.1C208,113.1,209.1,113.5,210.7,113.6L210.7,113.6z"/>
	<path class="st2" d="M220.6,114.5v-11.1h2.1l4.8,5.6c0.5,0.6,1,1.2,1.5,1.8c0.4,0.6,0.8,1.2,1.2,1.8l0.1,0
		c-0.2-1.4-0.2-2.9-0.2-4.5v-4.6h1.8v11.1h-2l-4.8-5.6c-1.1-1.3-2-2.5-2.8-3.7l-0.1,0c0.1,1.3,0.1,2.8,0.1,4.6v4.7H220.6z"/>
	<polygon class="st2" points="240.7,103.5 248.8,103.5 248.8,104.7 242.6,104.7 242.6,108.3 248.3,108.3 248.3,109.5 242.6,109.5 
		242.6,114.5 240.7,114.5 	"/>
	<rect x="251.9" y="103.5" class="st2" width="2" height="11.1"/>
	<polygon class="st2" points="260.3,104.7 255.7,104.7 255.7,103.5 266.9,103.5 266.9,104.7 262.3,104.7 262.3,114.5 260.3,114.5 	
		"/>
	<polygon class="st2" points="272.7,104.7 268.1,104.7 268.1,103.5 279.2,103.5 279.2,104.7 274.6,104.7 274.6,114.5 272.7,114.5 	
		"/>
	<rect x="281.2" y="103.5" class="st2" width="2" height="11.1"/>
	<path class="st2" d="M286.8,114.5v-11.1h2.1l4.8,5.6c0.5,0.6,1,1.2,1.5,1.8c0.4,0.6,0.8,1.2,1.2,1.8l0.1,0
		c-0.2-1.4-0.2-2.9-0.2-4.5v-4.6h1.8v11.1h-2l-4.8-5.6c-1.1-1.3-2-2.5-2.8-3.7l-0.1,0c0.1,1.3,0.1,2.8,0.1,4.6v4.7H286.8z"/>
	<path class="st2" d="M313.4,114c-0.4,0.1-1.1,0.2-1.9,0.4c-0.8,0.1-1.7,0.2-2.8,0.2c-2.3,0-4.1-0.5-5.6-1.5c-1.4-1-2.1-2.3-2.2-4.1
		c0-1.7,0.7-3,2.2-4.1c1.4-1.1,3.4-1.6,6-1.6c1.8,0,3.1,0.2,3.8,0.5l-0.5,1.2c-0.4-0.2-0.8-0.3-1.4-0.4c-0.5-0.1-1.2-0.1-1.9-0.1
		c-3.9,0.1-6,1.5-6,4.5c0.1,2.9,2,4.4,5.8,4.5c1.3,0,2.1-0.1,2.6-0.3v-3.3h-3v-1.1h4.9V114z"/>
</g>
</svg>
