<svg width="250" height="125" viewBox="0 0 250 125" fill="none" xmlns="http://www.w3.org/2000/svg">
<g clip-path="url(#clip0_1_11)">
<path d="M125.249 50.5992C128.455 49.4452 130.592 47.2261 130.592 43.5867C130.592 38.0833 125.516 35.6866 119.105 35.6866H111.802V70.0389H121.331C128.544 70.0389 134.867 67.1096 134.867 60.541C134.956 55.3037 131.037 51.6643 125.249 50.5992ZM120.975 68.0861H116.967V51.4869V49.534V37.6394H119.639C124.359 37.6394 125.961 39.9473 125.961 43.4092C125.961 43.9418 126.318 49.6228 121.687 50.688C122.845 50.9543 125.071 51.7531 126.852 53.351C128.722 54.86 129.613 57.2566 129.613 60.0084C129.613 64.8016 126.941 68.0861 120.975 68.0861Z" fill="#DABC67"/>
<path d="M39.4044 68.8848C41.7197 70.1277 44.7474 70.6602 47.3299 70.6602C51.7825 70.6602 59.619 69.0625 59.619 61.251C59.619 55.8363 55.7007 52.7295 49.111 48.38C46.0832 46.2497 41.9869 44.1193 41.9869 40.5686C42.0759 37.6394 44.7474 35.8641 48.4876 35.8641C52.2277 35.8641 55.1664 37.6394 55.8788 38.0832L54.0088 34.8877C52.7621 34.1775 50.0015 34 48.4876 34C43.5007 34 37.7124 36.1304 37.7124 41.9889C37.7124 46.6935 41.3635 49.2677 47.508 53.7059C50.3577 55.7475 54.8102 58.9432 54.8102 62.8488C54.8102 66.4881 51.9606 68.7961 47.3299 68.7961C41.8978 68.7074 37.9796 65.5119 37 64.6242L39.4044 68.8848Z" fill="#DABC67"/>
<path d="M84.197 70.6602C75.0248 70.6602 67.8117 63.2926 67.8117 52.9072C67.8117 42.699 74.9358 35.154 84.197 35.154C93.4583 35.154 100.493 42.699 100.493 52.9072C100.582 63.2926 93.4583 70.6602 84.197 70.6602ZM95.5065 52.9072C95.5065 43.5867 90.9649 37.1068 84.197 37.1068C77.4292 37.1068 72.8876 43.6755 72.8876 52.9072C72.9766 62.2275 77.4292 68.7074 84.197 68.7074C90.9649 68.7074 95.5065 62.2275 95.5065 52.9072Z" fill="#DABC67"/>
<path d="M204.327 59.9195H191.059L186.962 70.0387H185.003L199.341 34.9764L213.767 70.0387H208.424L204.327 59.9195ZM191.771 58.0555H203.526L197.648 43.7642L191.771 58.0555Z" fill="#DABC67"/>
<path d="M170.131 35.6866V49.8003H151.698V35.6866H146.622V70.0389H151.698V51.7531H170.131V70.0389H175.118V35.6866H170.131Z" fill="#DABC67"/>
<path d="M56.9465 90.7213V91.165H54.9874V90.8988C54.9874 89.9223 54.1859 88.9459 52.7611 88.9459C50.9801 88.9459 50.0005 90.2774 50.0005 91.9639V93.2955C50.0005 94.982 50.891 96.3135 52.7611 96.3135C54.1859 96.3135 54.9874 95.4258 54.9874 94.3606V94.0055H56.9465V94.4494C56.9465 96.3135 55.5216 98 52.6721 98C49.6443 98 47.9523 96.0471 47.9523 93.2955V92.0527C47.9523 89.301 49.7334 87.3482 52.7611 87.3482C55.6107 87.2594 56.9465 88.8572 56.9465 90.7213Z" fill="#DABC67"/>
<path d="M70.1271 92.0527V93.1178C70.1271 96.2248 68.257 97.9113 65.3183 97.9113C62.3796 97.9113 60.5096 96.2248 60.5096 93.1178V92.0527C60.5096 88.9459 62.3796 87.1707 65.3183 87.1707C68.257 87.2594 70.1271 88.9459 70.1271 92.0527ZM62.5578 92.0527V93.2067C62.5578 95.2483 63.5373 96.3135 65.3183 96.3135C67.0994 96.3135 68.0788 95.3371 68.0788 93.2067V92.0527C68.0788 90.0111 67.0994 88.9459 65.3183 88.9459C63.5373 88.9459 62.5578 89.9223 62.5578 92.0527Z" fill="#DABC67"/>
<path d="M76.1816 87.5256L81.2575 94.6269V87.5256H83.1276V97.7336H81.1684L76.0925 90.5437V97.7336H74.2224V87.5256H76.1816Z" fill="#DABC67"/>
<path d="M95.7732 90.4549V90.7213H93.725V90.4549C93.725 89.5672 93.1017 88.8572 91.4988 88.8572C90.252 88.8572 89.4507 89.3898 89.4507 90.1887C89.4507 91.0762 90.074 91.2539 92.0331 91.7865C94.9718 92.4078 95.9512 93.1178 95.9512 94.8932C95.9512 96.8461 94.1703 98 91.6769 98C88.7381 98 87.3133 96.6685 87.3133 94.7158V94.3606H89.3615V94.5381C89.3615 95.6033 90.163 96.3135 91.7659 96.3135C93.1017 96.3135 93.9031 95.7809 93.9031 94.982C93.9031 94.0943 93.3688 93.8281 91.2316 93.2955C88.4711 92.674 87.4025 91.9639 87.4025 90.2774C87.4025 88.5021 89.0054 87.2594 91.5878 87.2594C94.4374 87.2594 95.7732 88.6797 95.7732 90.4549Z" fill="#DABC67"/>
<path d="M107.795 87.5256V89.2123H104.322V97.7336H102.274V89.2123H98.8013V87.5256H107.795Z" fill="#DABC67"/>
<path d="M113.495 97.7336H111.447V87.5256H116.344C118.66 87.5256 119.817 88.6795 119.817 90.4549V90.9875C119.817 92.3191 119.016 93.3842 117.591 93.7393L120.263 97.8225H118.036L115.543 94.0055H113.406L113.495 97.7336ZM113.495 92.319H115.988C117.324 92.319 117.947 91.7865 117.947 90.8988V90.4549C117.947 89.5672 117.413 89.0346 116.077 89.0346H113.495V92.319Z" fill="#DABC67"/>
<path d="M125.873 87.5256V93.8281C125.873 95.4258 126.763 96.3135 128.277 96.3135C129.791 96.3135 130.682 95.4258 130.682 93.8281V87.5256H132.641V93.7393C132.641 96.4023 131.127 98 128.277 98C125.428 98 123.914 96.491 123.914 93.7393V87.5256H125.873Z" fill="#DABC67"/>
<path d="M145.465 90.7213V91.165H143.506V90.8988C143.506 89.9223 142.705 88.9459 141.191 88.9459C139.41 88.9459 138.43 90.2774 138.43 91.9639V93.2955C138.43 94.982 139.321 96.3135 141.191 96.3135C142.705 96.3135 143.506 95.4258 143.506 94.3606V94.0055H145.465V94.4494C145.465 96.3135 144.04 98 141.191 98C138.163 98 136.471 96.0471 136.471 93.2955V92.0527C136.471 89.301 138.252 87.3482 141.28 87.3482C144.129 87.2594 145.465 88.8572 145.465 90.7213Z" fill="#DABC67"/>
<path d="M157.487 87.5256V89.2123H153.925V97.7336H151.966V89.2123H148.493V87.5256H157.487Z" fill="#DABC67"/>
<path d="M163.274 87.5256H161.226V97.8225H163.274V87.5256Z" fill="#DABC67"/>
<path d="M177.078 92.0527V93.1178C177.078 96.2248 175.208 97.9113 172.269 97.9113C169.331 97.9113 167.461 96.2248 167.461 93.1178V92.0527C167.461 88.9459 169.331 87.1707 172.269 87.1707C175.208 87.2594 177.078 88.9459 177.078 92.0527ZM169.509 92.0527V93.2067C169.509 95.2483 170.488 96.3135 172.269 96.3135C174.05 96.3135 175.03 95.3371 175.03 93.2067V92.0527C175.03 90.0111 174.05 88.9459 172.269 88.9459C170.488 88.9459 169.509 89.9223 169.509 92.0527Z" fill="#DABC67"/>
<path d="M183.133 87.5256L188.209 94.6269V87.5256H190.079V97.7336H188.119L183.044 90.5437H182.955V97.7336H181.173V87.5256H183.133Z" fill="#DABC67"/>
<path d="M202.724 90.4549V90.7213H200.675V90.4549C200.675 89.5672 200.052 88.8572 198.36 88.8572C197.113 88.8572 196.312 89.3898 196.312 90.1887C196.312 91.0762 196.935 91.2539 198.894 91.7865C201.833 92.4078 202.813 93.1178 202.813 94.8932C202.813 96.8461 201.031 98 198.538 98C195.51 98 194.175 96.6685 194.175 94.7158V94.3606H196.223V94.5381C196.223 95.6033 197.024 96.3135 198.627 96.3135C199.963 96.3135 200.764 95.7809 200.764 94.982C200.764 94.0943 200.23 93.8281 198.093 93.2955C195.332 92.674 194.264 91.9639 194.264 90.2774C194.264 88.5021 195.867 87.2594 198.36 87.2594C201.388 87.2594 202.724 88.6797 202.724 90.4549Z" fill="#DABC67"/>
</g>
<defs>
<clipPath id="clip0_1_11">
<rect width="177" height="64" fill="white" transform="translate(37 34)"/>
</clipPath>
</defs>
</svg>
