<?xml version="1.0" encoding="utf-8"?>
<!-- Generator: Adobe Illustrator 23.0.1, SVG Export Plug-In . SVG Version: 6.00 Build 0)  -->
<svg version="1.1" id="Layer_1" xmlns="http://www.w3.org/2000/svg" xmlns:xlink="http://www.w3.org/1999/xlink" x="0px" y="0px"
	 viewBox="0 0 400 200" style="enable-background:new 0 0 400 200;" xml:space="preserve">
<g id="Group_1" transform="translate(-243.025 -702.854)">
	<path id="Path_1" d="M385.7,787.6v-10.9H333v38.7h38.9v-10.9H344v-16.8H385.7z"/>
	<rect id="Rectangle_1" x="333" y="818.3" width="38.9" height="10.9"/>
	<path id="Path_2" d="M385.7,829.2h-10.9v-27.8h-27.9v-10.9h38.9L385.7,829.2z"/>
	<path id="Path_3" d="M518,824.6v-5.1h1.8v5c0,1.1,0.8,2,1.9,2c1.1,0,2-0.8,2-1.9c0,0,0-0.1,0-0.1v-5h1.8v5.1c0,2.1-1.2,3.5-3.8,3.5
		C519.2,828.2,518,826.7,518,824.6"/>
	<path id="Path_4" d="M536.2,828l-2.6-3.4l-0.7,0.8v2.6h-1.8v-8.5h1.8v3.8l3-3.8h2.2l-3.4,4l3.6,4.5L536.2,828z"/>
	<path id="Path_5" d="M410.8,776.6c5.2,0,9.1,1.5,11.7,4.4c1.9,2.1,2.9,4.8,3,7.6h-9.4c-0.1-1-0.6-1.8-1.3-2.5c-0.7-0.5-2-0.8-4-0.8
		c-3,0-4.7,0.7-5.1,2c0,0.1-0.1,0.3-0.1,0.4c0,1.6,1.9,2.7,5.6,3.4c5.2,1.2,8.6,2.4,10.3,3.6c3.3,1.6,5.4,5.1,5.3,8.8
		c0,5-2.7,8.6-8,10.7c-2.4,0.8-4.9,1.2-7.4,1.2c-3.7,0.1-7.4-0.9-10.6-3c-2.7-2-4.4-4.2-4.9-6.6c-0.3-1.2-0.4-2.5-0.4-3.7h8.9
		c0.7,1.8,1.5,3,2.4,3.5c1.3,0.6,2.6,0.8,4,0.7h1.3c3.2-0.2,4.8-1.1,4.8-2.5c0-1.7-2.6-2.9-7.9-3.7c-4.6-1.1-7.7-2.2-9.5-3.4
		c-2.6-1.8-4.1-4.9-4-8c0-5,2.5-8.6,7.6-10.7C405.5,777.1,408.2,776.7,410.8,776.6"/>
	<path id="Path_6" d="M445.7,786.2c5.5,0,10,2.4,13.4,7.2c1.2,2.1,1.9,4.5,2,6.9v1.5c0,3.8-1.7,7.3-5.2,10.5
		c-3,2.4-6.7,3.8-10.6,3.7c-5.4,0.1-10.4-2.5-13.3-7c-1.5-2.3-2.2-4.9-2.2-7.6v-0.4c0-5.4,2.6-9.6,7.8-12.8
		C440.2,786.8,443,786.1,445.7,786.2 M441.2,800.4v1.4c0,3.2,1,5.1,3.1,5.5l1.5,0.1c1.9,0,3.1-0.7,3.6-2.2c0.4-1.4,0.7-2.8,0.6-4.2
		c0-4.2-1.4-6.3-4.3-6.3h-0.3c-1.6-0.1-3,0.9-3.5,2.3C441.4,798.1,441.2,799.3,441.2,800.4"/>
	<rect id="Rectangle_2" x="464.2" y="777.5" width="10.6" height="37"/>
	<path id="Path_7" d="M477.9,777.5h10.6v7.4h-10.6V777.5z M488.5,814.6h-10.6v-27h10.6V814.6z"/>
	<path id="Path_8" d="M519.7,814.6h-9.9v-14.1c0-2.6-0.9-4.3-2.8-4.9c-0.3-0.1-0.6-0.1-1-0.1h-0.6c-1.9,0-3.1,1.1-3.7,3.3
		c-0.1,0.3-0.1,0.6-0.1,1v14.8h-10.1v-27h10.1v3.4c2.4-2.9,5.1-4.3,8.1-4.3h0.7c4.4,0,7.3,2.2,8.8,6.6c0.3,1.2,0.4,2.4,0.4,3.6
		L519.7,814.6z"/>
	<path id="Path_9" d="M535.2,786.9c2.6,0,5.1,0.9,7.1,2.5h0.1v-1.9H553l0,22.4v18.9h-10.6v-18.1c-1.8,1.6-4,2.5-6.4,2.5h-1.4
		c-4.2,0-7.6-2-10.2-5.9c-1.2-2.2-1.8-4.6-1.8-7.1V800c0-5.6,2.5-9.7,7.4-12.2C531.7,787.2,533.5,786.9,535.2,786.9 M533.9,799.3
		v0.8c0,2.6,0.7,4.4,2.1,5.3c0.6,0.2,1.3,0.3,1.9,0.3h0.6c2.3-0.2,3.4-0.8,3.4-1.7c0.4-0.4,0.7-1.9,0.7-4.6c0-2.8-1.1-4.3-3.4-4.8
		c-0.4,0-0.7,0-1.1-0.1c-1.9,0-3.2,0.7-3.8,2.2C534.1,797.6,533.9,798.4,533.9,799.3"/>
</g>
</svg>
