<?xml version="1.0" encoding="utf-8"?>
<!-- Generator: Adobe Illustrator 23.0.1, SVG Export Plug-In . SVG Version: 6.00 Build 0)  -->
<svg version="1.1" id="Layer_1" xmlns="http://www.w3.org/2000/svg" xmlns:xlink="http://www.w3.org/1999/xlink" x="0px" y="0px"
	 viewBox="0 0 400 200" style="enable-background:new 0 0 400 200;" xml:space="preserve">
<style type="text/css">
	.st0{fill:#05112B;}
</style>
<g>
	<path class="st0" d="M162.4,159.8c0.4-0.1,0.6-0.3,0.8-0.5c0.2-0.2,0.3-0.5,0.3-0.8c0-0.4-0.2-0.8-0.6-1c-0.4-0.3-0.9-0.4-1.5-0.4
		h-2.4v5.8h2.6c0.7,0,1.2-0.1,1.6-0.4c0.4-0.3,0.6-0.7,0.6-1.2c0-0.4-0.1-0.7-0.4-0.9C163.2,160.1,162.9,159.9,162.4,159.8
		 M159.7,157.4h1.7c0.5,0,0.8,0.1,1.1,0.3c0.3,0.2,0.4,0.5,0.4,0.8c0,0.4-0.1,0.6-0.4,0.8c-0.3,0.2-0.6,0.3-1.1,0.3h-1.7V157.4z
		 M162.8,162.2c-0.3,0.2-0.7,0.4-1.2,0.4h-1.9V160h1.9c0.5,0,0.9,0.1,1.2,0.4c0.3,0.2,0.4,0.6,0.4,0.9
		C163.2,161.7,163.1,162,162.8,162.2 M172.7,157.1h0.4l-2.4,3.5v2.3h-0.6v-2.2l-2.5-3.6h0.7l2.2,3.1L172.7,157.1z M183.9,162.6h3.6
		v0.3h-4.2v-5.8h0.6L183.9,162.6L183.9,162.6z M194.1,157.1l-2.7,5.8h0.4l0.8-1.7h3.1l0.8,1.7h0.7l-2.7-5.8H194.1z M192.7,160.9
		l1.4-3.1l1.4,3.1H192.7z M200.2,157.1h5.3v0.3h-2.3v5.5h-0.6v-5.5h-2.3V157.1z M209.9,157.1h0.6v5.8h-0.6V157.1z M220.3,157.1h0.3
		v5.8h-0.3l-4.4-5v5h-0.3v-5.8h0.3l4.4,5V157.1z M225.5,157.1h4.3v0.3h-3.7v2.4h3.2v0.3h-3.2v2.5h3.7v0.3h-4.3V157.1z M240.2,157.1
		h0.8v5.8h-0.6v-5.3l-2.6,5.3h-0.4l-2.6-5.3v5.3h-0.3v-5.8h0.8l2.5,5.1L240.2,157.1z M194.9,102.3h-13.2v0h-0.1l0,35.5
		c0,0.1,0,0.3,0,0.4v3.1h-6V138c0-0.1,0-0.1,0-0.2l0-35.5h0v0h-13.3v-1.1h32.5V102.3z M198.3,141.6l0.4-0.2h1.2l1.2-2.7
		c0-0.2,0.1-0.3,0.2-0.5l1.8-4.2h20.5l1.6,4c0.1,0.2,0.1,0.3,0.2,0.5l1.3,3h6.4l-17.3-39.8L198.3,141.6z M220.7,127.1L220.7,127.1
		l2.5,6.2h-19.9l2.6-6.2h0l0.5-1.1h0l7-16.1l7,16.1L220.7,127.1z M268.7,101.3l-14.2,26.3v10.6v3.5h-6v-14.6v0v-0.1l-12.9-22.2
		c0,0,0-0.1-0.1-0.1l-2-3.4h6.2l1.9,3.4c0,0,0,0,0,0l12.1,20.2l12.7-23.6L268.7,101.3L268.7,101.3z M248.5,127.1L248.5,127.1
		L248.5,127.1z M157.4,127.9c0.2,1.3,0.2,2.6,0,3.9c-0.3,1.9-1.1,3.7-2.4,5.2c-0.8,1-1.8,1.9-2.9,2.6c-0.9,0.5-1.9,1.1-3,1.4
		c-1.1,0.4-2.2,0.7-3.3,0.8c-1.2,0.2-2.5,0.2-3.7,0.1c-1.5-0.1-2.9-0.3-4.3-0.8c-1.2-0.4-2.4-0.9-3.4-1.6c-0.9-0.6-1.7-1.3-2.4-2.1
		l-0.5-2.3c0.3,0.4,1.1,1.4,1.4,1.8c0.3,0.4,0.7,0.8,1.1,1.1c0.9,0.7,1.7,1.3,2.7,1.7c1,0.4,1.9,0.8,3,0.9s2.1,0.3,3.1,0.4
		c0.5,0,1.1,0,1.6-0.1c1.3-0.2,2.5-0.5,3.7-1.1c1.2-0.6,2.2-1.3,3.1-2.3c0.7-0.8,1.2-1.7,1.5-2.7c0.3-0.9,0.5-1.8,0.5-2.7
		c0-1.2-0.3-2.2-0.9-3.3c-0.7-1.2-1.7-2.2-2.8-3c-0.8-0.6-1.6-1.1-2.4-1.6c-1.2-0.8-2.5-1.5-3.7-2.2c-1.3-0.8-2.6-1.5-3.8-2.2
		c-0.7-0.4-1.3-0.8-2-1.3c-0.9-0.7-1.9-1.5-2.7-2.3c-0.8-0.8-1.4-1.7-1.8-2.8c-0.5-1.1-0.7-2.3-0.6-3.5c0-1,0.3-1.9,0.6-2.8
		c0.5-1.3,1.3-2.5,2.4-3.4c0.3-0.3,0.6-0.5,1-0.8c1.1-0.8,2.4-1.2,3.7-1.6c0.7-0.2,1.5-0.3,2.2-0.4c1-0.1,1.9,0,2.9,0
		c0.6,0,1.7,0.2,2.4,0.3c0.9,0.2,2.8,0.7,3.5,1l0.5,0.9c-0.1,0-0.2-0.1-0.3-0.2c-2.2-1-4.7-1.4-6-1.5c-0.7-0.1-1.3-0.1-2,0
		c-0.9,0.1-1.8,0.3-2.7,0.6c-0.8,0.3-1.5,0.7-2.1,1.2c-1,0.8-1.8,1.8-2.2,3c0,0.1-0.1,0.3-0.1,0.4c-0.2,1.4-0.1,2.8,0.8,4.1
		c0.3,0.5,0.7,1,1.1,1.3c0.9,0.9,2,1.7,3.1,2.2c1.2,0.6,2.4,1.2,3.5,1.8c1.2,0.6,2.4,1.1,3.5,1.7c1.2,0.7,2.5,1.3,3.6,2.1
		c0.9,0.6,1.8,1.3,2.6,2.1c0.8,0.8,1.5,1.7,2,2.8C156.8,125.7,157.2,126.8,157.4,127.9 M199.7,73.2c0-5.9-8.8-11.5-17.7-4.3
		c0,0-8.4-2.6-11.7-9c6-4,14.6-2.2,14.6-2.2c1.6,5.7,7.3,7.4,8.3,7.6c2.8,0.7,5.7,3,6.3,5.4c-1.8-8.7-9.2-13.2-14.7-13
		c0,0-5-7.2-3.7-14.3c7.2,0.6,12.9,7.3,12.9,7.3c-1.6,7.1,2.7,12.7,3.4,13.7c0.9,1.4,1.7,3.1,2.2,4.9c0,0,0.9-13.4-5.6-18.7
		c0,0,0.5-8.8,5.8-13.6c0,0,0,0,0,0c0,0,0,0,0,0c5.4,4.8,5.8,13.7,5.8,13.7c-6.5,5.2-5.6,18.6-5.6,18.6c0.6-1.9,1.4-3.5,2.2-4.9
		c0.7-1.1,4.9-6.6,3.4-13.7c0,0,5.7-6.8,12.8-7.3c1.4,7.1-3.7,14.3-3.7,14.3c-5.4-0.2-12.8,4.3-14.7,13c0.7-2.4,3.5-4.7,6.3-5.4
		c1-0.3,6.7-1.9,8.3-7.6c0,0,8.7-1.8,14.7,2.2c-3.3,6.4-11.7,9-11.7,9c-8.9-7.2-17.7-1.6-17.7,4.3v11h-0.1h-0.3h-0.1L199.7,73.2
		L199.7,73.2z"/>
</g>
</svg>
