<?xml version="1.0" encoding="utf-8"?>
<!-- Generator: Adobe Illustrator 23.0.1, SVG Export Plug-In . SVG Version: 6.00 Build 0)  -->
<svg version="1.1" id="Layer_1" xmlns="http://www.w3.org/2000/svg" xmlns:xlink="http://www.w3.org/1999/xlink" x="0px" y="0px"
	 viewBox="0 0 400 200" style="enable-background:new 0 0 400 200;" xml:space="preserve">
<style type="text/css">
	.st0{fill:#F0BF6B;}
	.st1{fill:#6C8B35;}
	.st2{fill:#1E1E1C;}
</style>
<g>
	<rect x="90" y="125.1" class="st0" width="220" height="4.1"/>
	<rect x="90" y="70.7" class="st1" width="220" height="4.1"/>
	<polygon class="st2" points="171.6,93.8 171.6,88.1 152.2,88.1 144.6,88.1 144.6,93.8 144.6,98 144.6,103.1 144.6,107.2 144.6,113 
		144.6,113 152.2,113 152.2,113 171.6,113 171.6,107.2 152.2,107.2 152.2,103.1 170.5,103.1 170.5,98 152.2,98 152.2,93.8 	"/>
	<polygon class="st2" points="197.6,107 197.6,88.1 189.8,88.1 189.8,107 189.8,112.9 197.6,112.9 214.3,112.9 214.3,107 	"/>
	<path class="st2" d="M254.8,88.2h-10.1l-13.6,24.6l8.5,0.1l2.3-4.3h15.1l2.6,4.3h8.3L254.8,88.2z M244.9,103.4l4.5-8.9l4.9,8.9
		H244.9z"/>
	<polygon class="st2" points="293.1,106.9 293.1,88.2 285.3,88.2 285.3,106.9 285.3,112.9 293.1,112.9 309.8,112.9 309.8,106.9 	"/>
	<rect x="90.2" y="79.1" class="st1" width="42.9" height="42.9"/>
	<polygon class="st0" points="126.5,88.3 97.4,88.3 97.4,93.8 108.1,93.8 108.1,112.9 115.8,112.9 115.8,93.8 126.5,93.8 	"/>
</g>
</svg>
