<?xml version="1.0" encoding="utf-8"?>
<!-- Generator: Adobe Illustrator 23.0.1, SVG Export Plug-In . SVG Version: 6.00 Build 0)  -->
<svg version="1.1" id="Layer_1" xmlns="http://www.w3.org/2000/svg" xmlns:xlink="http://www.w3.org/1999/xlink" x="0px" y="0px"
	 viewBox="0 0 400 200" style="enable-background:new 0 0 400 200;" xml:space="preserve">
<g>
	<path d="M89.8,85.6c0-2.4,0-4.7,0-7.1c24.8,0,49.5,0,74.3,0c0,2.3,0,4.6,0,7.1C139.4,85.6,114.7,85.6,89.8,85.6z"/>
	<path d="M235.8,85.7c0-2.4,0-4.7,0-7.1c24.7,0,49.2,0,73.9,0c0,2.3,0,4.6,0,7.1C285.2,85.7,260.6,85.7,235.8,85.7z"/>
	<path d="M200.4,100c2.5-0.6,4.4-0.2,6,2.1c3.6,5,7.7,9.7,11.5,14.6c0.4,0.4,0.8,0.9,1.5,1.7c0-6.4,0-12.3,0-18.4c1.9,0,3.6,0,5.4,0
		c0,9.4,0,18.7,0,28c-2.7,0.6-4.6,0.2-6.4-2.2c-3.4-4.7-7.1-9-10.7-13.5c-0.5-0.6-1.1-1.2-2-2.2c0,6.3,0,12.1,0,18
		c-1.9,0-3.6,0-5.4,0C200.4,118.8,200.4,109.5,200.4,100z"/>
	<path d="M261.5,128.2c0-9.6,0-18.8,0-28.1c4.7,0,9.4-0.5,13.9,0.1c6.1,0.8,10,5.9,10.3,12.1c0.2,3.6-0.1,7-2.1,10.1
		c-2.3,3.6-5.8,5.4-9.9,5.8C269.8,128.5,265.7,128.2,261.5,128.2z M266.9,104.5c0,6.5,0,12.7,0,19.1c4.4,0.2,8.8,0.8,11.7-3.4
		c2.6-3.8,2.6-7.9,0.4-11.9C276.4,103.4,271.6,104.5,266.9,104.5z"/>
	<path d="M122.5,118.9c0,3,0,6,0,9.2c-1.8,0-3.4,0-5.4,0c0-4.6,0-9.3,0-14c0-4.6,0-9.3,0-14.3c4.2,0,8.3-0.1,12.3,0.1
		c1.7,0.1,3.6,0.5,5,1.4c6,4,5.7,11.8-0.8,16.3c2,3.4,4.1,6.8,6.3,10.6c-2,0-3.7,0.1-5.3,0c-0.5,0-1-0.6-1.3-1
		c-1.1-1.7-2.2-3.6-3.3-5.3C128,118.3,127.1,117.9,122.5,118.9z M122.6,104.4c0,3.3,0,6.3,0,9.4c2.2,0,4.3,0,6.4,0
		c2.5,0,4.2-1.7,4.3-4.4c0.1-2.4-1.7-4.8-3.9-5C127.2,104.3,125,104.4,122.6,104.4z"/>
	<path d="M230.6,100c2.1,0,3.7,0,5.6,0c0,4,0,7.9,0,11.9c0,1.6,0,3.1,0.1,4.7c0.2,4.2,3.1,7.2,6.8,7.2c3.9,0,6.9-2.8,7.1-7.1
		c0.2-4.6,0.1-9.1,0.2-13.7c0-1,0-1.9,0-3c1.8,0,3.4,0,5.6,0c-0.4,6.8-0.3,13.7-1.4,20.3c-1,6-5.7,8.4-12.8,8.1
		c-5.2-0.2-9.8-3.8-10.4-9.1C230.7,112.9,230.8,106.5,230.6,100z"/>
	<path d="M144.1,99.9c1.5,0,3.1,0,5,0c0,5.1,0,10.1,0,15.1c0,1.4,0.2,2.8,0.6,4.2c1,3.1,4.1,5,7.4,4.6c3.1-0.4,5.8-3.3,5.9-6.9
		c0.2-4.6,0.1-9.3,0.2-13.9c0-0.9,0-1.8,0-2.9c1.8,0,3.4,0,5.2,0c0,0.7,0.1,1.4,0.1,2.1c-0.1,5.5,0.2,11.1-0.5,16.6
		c-0.8,6.5-5.3,9.7-12.1,9.6c-6.4-0.1-11-3.5-11.5-9.8C143.6,112.5,144.1,106.3,144.1,99.9z"/>
	<path d="M179.7,115.8c0,2.8,0,5.1,0,7.7c4.7,0,9.4,0,14.2,0c0,1.7,0,3.1,0,4.6c-6.4,0-12.8,0-19.4,0c0-9.3,0-18.6,0-28.1
		c6.3,0,12.6,0,19,0c0,1.4,0,2.8,0,4.4c-4.5,0-9,0-13.6,0c0,2.4,0,4.7,0,7.2c3.9,0,7.8,0,11.8,0c0,1.4,0,2.7,0,4.2
		C187.7,115.8,183.8,115.8,179.7,115.8z"/>
	<path d="M290.7,128.1c0-9.3,0-18.6,0-28c6.3,0,12.6,0,19.1,0c0,1.3,0,2.7,0,4.3c-4.5,0-9,0-13.7,0c0,2.5,0,4.8,0,7.2
		c3.9,0,7.8,0,11.8,0c0,1.4,0,2.7,0,4.1c-3.9,0-7.7,0-12,0c0,2.4-0.1,4.7,0.1,6.9c0,0.4,1.1,1,1.7,1c3.4,0.1,6.9,0.1,10.3,0.1
		c0.6,0,1.2,0.1,1.8,0.1c0,1.4,0,2.8,0,4.3C303.6,128.1,297.2,128.1,290.7,128.1z"/>
	<path d="M98.8,104.4c-3.2,0-6.1,0-9,0c0-1.5,0-2.9,0-4.4c7.7,0,15.4,0,23.2,0c0,1.4,0,2.8,0,4.4c-2.9,0-5.7,0-8.9,0
		c0,8,0,15.8,0,23.8c-1.9,0-3.5,0-5.4,0C98.8,120.3,98.8,112.5,98.8,104.4z"/>
	<path d="M191.9,71.3c1.2,0,2.3,0,3.6,0c0,2.9,0,5.7,0,8.7c3.5,0,6.7,0,10,0c0-2.9,0-5.6,0-8.5c1.3,0,2.5,0,3.8,0c0,7,0,14,0,21.1
		c-1.2,0-2.2,0-3.7,0c0-2.9,0-5.9,0-9.1c-3.4,0-6.6,0-10,0c0,2.9,0,5.9,0,9.1c-1.5,0-2.6,0-3.8,0C191.9,85.5,191.9,78.4,191.9,71.3z
		"/>
	<path d="M215.7,92.6c0-2.4,0-4.7,0-7c0-4.1,0-8.2,0-12.4c0-1.4,0.3-2,1.9-2c4.1,0.1,8.2,0,12.5,0c0,1.2,0,2.2,0,3.4
		c-3.4,0-6.7,0-10.2,0c0,1.8,0,3.4,0,5.3c2.8,0,5.7,0,8.7,0c0,1.2,0,2.1,0,3.2c-2.8,0-5.7,0-8.7,0c0,2,0,3.8,0,5.8
		c3.4,0,6.8,0,10.4,0c0,1.3,0,2.3,0,3.5C225.5,92.6,220.7,92.6,215.7,92.6z"/>
	<path d="M187.1,71.4c0,1.1,0,2.1,0,3.3c-2.1,0-4.3,0-6.6,0c0,6,0,11.8,0,17.8c-1.4,0-2.6,0-4,0c0-5.8,0-11.6,0-17.7
		c-2.3,0-4.4,0-6.7,0c0-1.3,0-2.3,0-3.4C175.5,71.4,181.2,71.4,187.1,71.4z"/>
</g>
</svg>
