<?xml version="1.0" encoding="utf-8"?>
<!-- Generator: Adobe Illustrator 23.0.1, SVG Export Plug-In . SVG Version: 6.00 Build 0)  -->
<svg version="1.1" id="Layer_1" xmlns="http://www.w3.org/2000/svg" xmlns:xlink="http://www.w3.org/1999/xlink" x="0px" y="0px"
	 viewBox="0 0 400 200" style="enable-background:new 0 0 400 200;" xml:space="preserve">
<style type="text/css">
	.st0{fill:#39AADC;}
	.st1{fill:#84BC5F;}
</style>
<g>
	<path class="st0" d="M228.5,77.1c-2.4-4.5-5.5-7.9-9.3-10c-3.8-2.1-8.1-3.1-12.7-3.1v0c0,0,0,0-0.1,0c0,0,0,0-0.1,0v0
		c-4.7,0-8.9,1.1-12.7,3.1c-3.9,2.1-7,5.4-9.3,10c-2.4,4.6-3.5,10.2-3.5,16.8V106c-0.2,13.9-6.2,21-17.8,21.3
		c-6.4-0.2-11.1-2.1-13.8-5.7c-2.9-3.9-4.3-9.4-4.3-16.6V67.8h-8.2v32.4v4.5c0,3.2-0.2,5.9-0.6,8c-0.4,2.1-1.3,4.4-2.7,6.7
		c-1.4,2.3-3.6,4.3-6.6,5.8c-3,1.5-6.3,2.2-9.8,2.2c-12.5,0-18.8-7.4-18.8-22.1V67.8H90v38.4c0,6.6,1.2,12.2,3.5,16.8
		c2.4,4.6,5.5,7.9,9.3,10c3.9,2.1,8.1,3.2,12.9,3.2c4.7,0,9.2-1.1,13.5-3.2c4.3-2.2,7.8-5.1,10.4-8.8c1.5,2.6,3.4,4.7,5.7,6.3
		c2.3,1.7,4.6,2.9,6.7,3.6c1,0.3,1.9,0.6,2.7,0.8c2.7,0.8,5.5,1.3,8.4,1.3c4.7,0,9-1.1,12.9-3.2c3.9-2.1,7-5.4,9.3-10
		c2.4-4.6,3.5-10.2,3.5-16.8V94c0.2-13.7,6-20.8,17.4-21.3c11.6,0.5,17.5,7.8,17.5,22v13.6h8.2V93.8
		C232.1,87.2,230.9,81.6,228.5,77.1"/>
	<polygon class="st1" points="208,110.9 209.6,110.9 213.6,123.9 217.9,110.9 220.2,110.9 214.4,128.3 212.9,128.3 208.8,115.1 
		204.8,128.3 203.3,128.3 197.4,110.9 199.7,110.9 204,124 	"/>
	<path class="st1" d="M234.7,128.3h-1.9l0.1-2.5c-0.7,1-1.5,1.7-2.5,2.2c-1,0.5-2.1,0.7-3.3,0.7c-1,0-1.8-0.1-2.6-0.4
		c-0.7-0.3-1.3-0.5-1.7-0.8c-0.4-0.2-0.9-0.6-1.5-1.1c-0.6-0.5-1.1-1.3-1.6-2.3c-0.5-1-0.7-2.2-0.7-3.4c0-1.2,0.2-2.3,0.7-3.3
		c0.5-1.1,1.1-1.9,1.9-2.7c0.8-0.7,1.6-1.2,2.6-1.6c0.9-0.4,1.9-0.5,3-0.5c0.8,0,1.5,0.1,2.2,0.3c0.7,0.2,1.3,0.5,1.9,0.9
		c0.6,0.4,1.2,0.9,1.6,1.6V113h1.9L234.7,128.3L234.7,128.3z M232.8,120.6c0-1-0.3-2.1-0.8-3c-0.6-1-1.3-1.7-2.2-2.3
		c-0.9-0.5-1.8-0.8-2.9-0.8h-0.5c-0.8,0.1-1.5,0.3-2.2,0.7c-0.6,0.3-1.2,0.8-1.7,1.4c-0.5,0.6-0.9,1.3-1.1,2
		c-0.2,0.7-0.4,1.5-0.4,2.2v0.5c0,0.5,0.1,0.9,0.2,1.4c0.1,0.4,0.4,1,0.8,1.7c0.4,0.7,1.1,1.2,1.9,1.8c0.9,0.5,1.8,0.8,2.9,0.8
		c1.1,0,2.1-0.3,3-0.9c0.9-0.6,1.6-1.4,2.1-2.4C232.6,122.6,232.8,121.6,232.8,120.6"/>
	<polygon class="st1" points="241.2,114.9 241.2,128.3 239.2,128.3 239.2,114.9 236.3,114.9 236.3,113 239.2,113 239.2,108 
		241.2,108 241.2,113 244.1,113 244.1,114.9 	"/>
	<polygon class="st1" points="249.1,114.9 249.1,128.3 247.1,128.3 247.1,114.9 244.1,114.9 244.1,113 247.1,113 247.1,108 
		249.1,108 249.1,113 252,113 252,114.9 	"/>
	<path class="st1" d="M252.6,123.5h2c0,0.8,0.1,1.4,0.4,2c0.3,0.5,0.7,0.9,1.2,1.2c0.5,0.2,0.9,0.3,1.2,0.3c0.5,0,0.9-0.1,1.4-0.4
		c0.4-0.2,0.8-0.6,1-0.9c0.2-0.4,0.3-0.8,0.3-1.3c0-0.6-0.2-1.2-0.6-1.7c-0.4-0.5-0.9-0.9-1.6-1.2l-1.9-0.7
		c-0.6-0.2-1.2-0.5-1.6-0.9c-0.4-0.4-0.7-0.8-0.9-1.4c-0.2-0.6-0.3-1.1-0.3-1.5c0-0.3,0-0.6,0.1-0.8c0-0.2,0.2-0.6,0.4-1
		c0.2-0.4,0.6-1,1.3-1.6c0.7-0.6,1.6-0.9,2.8-0.9c0.6,0,1.3,0.2,2,0.5c0.8,0.3,1.3,0.8,1.7,1.4c0.4,0.7,0.6,1.5,0.6,2.4H260
		c-0.2-1.2-0.6-1.9-1.5-2.2l-0.8-0.1c-0.6,0-1.2,0.2-1.6,0.6c-0.5,0.4-0.7,1-0.7,1.7c0,0.3,0.1,0.7,0.2,1c0.1,0.3,0.4,0.6,0.7,0.8
		c0.4,0.3,0.8,0.5,1.3,0.6l1.4,0.5c0.3,0.1,0.5,0.2,0.6,0.2c0.1,0,0.4,0.2,0.9,0.4c0.5,0.2,1,0.7,1.4,1.4c0.4,0.7,0.6,1.5,0.6,2.3
		c0,0.8-0.2,1.5-0.6,2.2c-0.4,0.7-1,1.3-1.7,1.7c-0.8,0.4-1.6,0.6-2.6,0.6c-0.9,0-1.7-0.2-2.4-0.5c-0.6-0.4-1.1-0.7-1.4-1.1
		c-0.3-0.4-0.5-0.7-0.6-0.9c-0.1-0.2-0.2-0.5-0.3-0.9c-0.1-0.4-0.2-0.7-0.2-1C252.6,124,252.6,123.7,252.6,123.5"/>
	<path class="st0" d="M283,119v9.3H281V113h1.8v1.8c0.5-0.7,1-1.2,1.6-1.5c0.6-0.3,1.2-0.5,1.9-0.5v2.1c-0.9,0-1.8,0.4-2.6,1.1
		c-0.4,0.4-0.6,0.9-0.7,1.4C283,117.8,283,118.4,283,119"/>
	<polygon class="st0" points="292.4,114.9 292.4,128.3 290.4,128.3 290.4,114.9 287.5,114.9 287.5,113 290.4,113 290.4,108 
		292.4,108 292.4,113 295.3,113 295.3,114.9 	"/>
	<polygon class="st0" points="299.6,133.3 301.7,128.3 295.7,113 298,113 302.8,125.4 307.7,113 310,113 301.7,133.3 	"/>
	<path class="st0" d="M272,110.9l8.2,17.5h-1.9l-2.8-5.8H268l-2.7,5.8h-2l8.3-17.5C271.6,110.9,272,110.9,272,110.9z M271.8,114.6
		l-3,6.3h6L271.8,114.6z"/>
</g>
</svg>
