<svg width="165" height="48" viewBox="0 0 165 48" fill="none" xmlns="http://www.w3.org/2000/svg">
<path d="M15.68 47V10.99L16.005 8.325L15.225 8.065L13.73 10.275L4.175 19.83L0.86 16.515L16.395 1.045H19.905L35.44 16.515L32.125 19.83L22.57 10.275L21.075 8.065L20.295 8.325L20.62 10.99V47H15.68ZM48.1876 47V45.375C48.1876 43.8583 48.3176 42.58 48.5776 41.54C48.8376 40.5 49.336 39.265 50.0726 37.835L67.4276 6.96V6.245H40.3876V1.5H72.9526V7.74L54.8176 40.24C54.2976 41.15 53.9293 41.9733 53.7126 42.71C53.5393 43.4467 53.4526 44.3783 53.4526 45.505V47H48.1876ZM95.2893 47.91C90.1326 47.91 86.0159 46.3933 82.9393 43.36C79.9059 40.2833 78.3893 35.69 78.3893 29.58V18.92C78.3893 12.8533 79.9059 8.28167 82.9393 5.205C86.0159 2.12833 90.1326 0.589997 95.2893 0.589997C100.489 0.589997 104.606 2.12833 107.639 5.205C110.716 8.28167 112.254 12.8533 112.254 18.92V29.58C112.254 35.69 110.716 40.2833 107.639 43.36C104.606 46.3933 100.489 47.91 95.2893 47.91ZM95.2893 43.165C99.1893 43.165 102.114 41.995 104.064 39.655C106.014 37.315 106.989 34.0433 106.989 29.84V18.595C106.989 14.3917 105.993 11.1417 103.999 8.845C102.006 6.505 99.1026 5.335 95.2893 5.335C91.4759 5.335 88.5726 6.505 86.5793 8.845C84.6293 11.185 83.6543 14.435 83.6543 18.595V29.84C83.6543 34.0867 84.6293 37.38 86.5793 39.72C88.5293 42.0167 91.4326 43.165 95.2893 43.165ZM124.905 47.91L121.395 45.115L157.6 0.589997L161.045 3.385L124.905 47.91ZM153.765 47.845C150.602 47.845 148.067 46.935 146.16 45.115C144.297 43.2517 143.365 40.7383 143.365 37.575V37.185C143.365 34.0217 144.297 31.53 146.16 29.71C148.067 27.8467 150.602 26.915 153.765 26.915C156.842 26.915 159.333 27.8467 161.24 29.71C163.147 31.53 164.1 34.0217 164.1 37.185V37.575C164.1 40.7383 163.147 43.2517 161.24 45.115C159.377 46.935 156.885 47.845 153.765 47.845ZM153.765 44.075C155.585 44.075 157.015 43.49 158.055 42.32C159.138 41.15 159.68 39.6333 159.68 37.77V36.99C159.68 35.0833 159.138 33.5667 158.055 32.44C157.015 31.27 155.585 30.685 153.765 30.685C151.902 30.685 150.428 31.27 149.345 32.44C148.305 33.5667 147.785 35.0833 147.785 36.99V37.77C147.785 39.6333 148.305 41.15 149.345 42.32C150.428 43.49 151.902 44.075 153.765 44.075ZM128.74 21.585C125.577 21.585 123.063 20.6533 121.2 18.79C119.337 16.9267 118.405 14.435 118.405 11.315V10.925C118.405 7.76167 119.337 5.27 121.2 3.45C123.063 1.58666 125.577 0.654996 128.74 0.654996C131.86 0.654996 134.352 1.58666 136.215 3.45C138.122 5.27 139.075 7.76167 139.075 10.925V11.315C139.075 14.435 138.122 16.9267 136.215 18.79C134.352 20.6533 131.86 21.585 128.74 21.585ZM128.74 17.815C130.56 17.815 132.012 17.23 133.095 16.06C134.178 14.89 134.72 13.3733 134.72 11.51V10.73C134.72 8.82333 134.178 7.30666 133.095 6.18C132.012 5.01 130.56 4.425 128.74 4.425C126.877 4.425 125.403 5.01 124.32 6.18C123.28 7.30666 122.76 8.82333 122.76 10.73V11.51C122.76 13.3733 123.28 14.89 124.32 16.06C125.403 17.23 126.877 17.815 128.74 17.815Z" fill="white"/>
</svg>
