<svg width="168" height="48" viewBox="0 0 168 48" fill="none" xmlns="http://www.w3.org/2000/svg">
<path d="M16.395 47.455L0.86 31.985L4.175 28.67L13.73 38.225L15.225 40.435L16.005 40.175L15.68 37.51V1.5H20.62V37.51L20.295 40.175L21.075 40.435L22.57 38.225L32.125 28.67L35.44 31.985L19.905 47.455H16.395ZM57.7426 47.91C54.406 47.91 51.546 47.325 49.1626 46.155C46.8226 44.9417 45.046 43.295 43.8326 41.215C42.6193 39.135 42.0126 36.7733 42.0126 34.13H47.2776C47.2776 36.8167 48.166 39.005 49.9426 40.695C51.7193 42.3417 54.3193 43.165 57.7426 43.165C61.3393 43.165 64.091 42.2117 65.9976 40.305C67.9476 38.355 68.9226 35.69 68.9226 32.31V26.005H68.0776C67.2543 27.305 65.9326 28.5183 64.1126 29.645C62.336 30.7283 59.8226 31.27 56.5726 31.27C53.8426 31.27 51.3293 30.6633 49.0326 29.45C46.7793 28.2367 44.981 26.525 43.6376 24.315C42.2943 22.105 41.6226 19.4833 41.6226 16.45V15.67C41.6226 12.55 42.3376 9.885 43.7676 7.675C45.1976 5.42167 47.126 3.68833 49.5526 2.475C52.0226 1.21833 54.8176 0.589997 57.9376 0.589997C61.101 0.589997 63.896 1.21833 66.3226 2.475C68.7926 3.68833 70.721 5.44333 72.1076 7.74C73.4943 9.99333 74.1876 12.7233 74.1876 15.93V31.79C74.1876 35.17 73.516 38.0733 72.1726 40.5C70.8726 42.8833 68.9876 44.725 66.5176 46.025C64.0476 47.2817 61.1226 47.91 57.7426 47.91ZM57.9376 26.85C60.1043 26.85 62.011 26.4167 63.6576 25.55C65.3043 24.64 66.5826 23.405 67.4926 21.845C68.446 20.2417 68.9226 18.3783 68.9226 16.255V15.735C68.9226 12.485 67.9043 9.95 65.8676 8.13C63.8743 6.26666 61.231 5.335 57.9376 5.335C54.6443 5.335 51.9793 6.26666 49.9426 8.13C47.906 9.95 46.8876 12.485 46.8876 15.735V16.255C46.8876 18.3783 47.3426 20.2417 48.2526 21.845C49.206 23.405 50.506 24.64 52.1526 25.55C53.8426 26.4167 55.771 26.85 57.9376 26.85ZM98.9074 47.91C93.7508 47.91 89.6341 46.3933 86.5574 43.36C83.5241 40.2833 82.0074 35.69 82.0074 29.58V18.92C82.0074 12.8533 83.5241 8.28167 86.5574 5.205C89.6341 2.12833 93.7508 0.589997 98.9074 0.589997C104.107 0.589997 108.224 2.12833 111.257 5.205C114.334 8.28167 115.872 12.8533 115.872 18.92V29.58C115.872 35.69 114.334 40.2833 111.257 43.36C108.224 46.3933 104.107 47.91 98.9074 47.91ZM98.9074 43.165C102.807 43.165 105.732 41.995 107.682 39.655C109.632 37.315 110.607 34.0433 110.607 29.84V18.595C110.607 14.3917 109.611 11.1417 107.617 8.845C105.624 6.505 102.721 5.335 98.9074 5.335C95.0941 5.335 92.1908 6.505 90.1974 8.845C88.2474 11.185 87.2724 14.435 87.2724 18.595V29.84C87.2724 34.0867 88.2474 37.38 90.1974 39.72C92.1474 42.0167 95.0508 43.165 98.9074 43.165ZM128.523 47.91L125.013 45.115L161.218 0.589997L164.663 3.385L128.523 47.91ZM157.383 47.845C154.22 47.845 151.685 46.935 149.778 45.115C147.915 43.2517 146.983 40.7383 146.983 37.575V37.185C146.983 34.0217 147.915 31.53 149.778 29.71C151.685 27.8467 154.22 26.915 157.383 26.915C160.46 26.915 162.951 27.8467 164.858 29.71C166.765 31.53 167.718 34.0217 167.718 37.185V37.575C167.718 40.7383 166.765 43.2517 164.858 45.115C162.995 46.935 160.503 47.845 157.383 47.845ZM157.383 44.075C159.203 44.075 160.633 43.49 161.673 42.32C162.756 41.15 163.298 39.6333 163.298 37.77V36.99C163.298 35.0833 162.756 33.5667 161.673 32.44C160.633 31.27 159.203 30.685 157.383 30.685C155.52 30.685 154.046 31.27 152.963 32.44C151.923 33.5667 151.403 35.0833 151.403 36.99V37.77C151.403 39.6333 151.923 41.15 152.963 42.32C154.046 43.49 155.52 44.075 157.383 44.075ZM132.358 21.585C129.195 21.585 126.681 20.6533 124.818 18.79C122.955 16.9267 122.023 14.435 122.023 11.315V10.925C122.023 7.76167 122.955 5.27 124.818 3.45C126.681 1.58666 129.195 0.654996 132.358 0.654996C135.478 0.654996 137.97 1.58666 139.833 3.45C141.74 5.27 142.693 7.76167 142.693 10.925V11.315C142.693 14.435 141.74 16.9267 139.833 18.79C137.97 20.6533 135.478 21.585 132.358 21.585ZM132.358 17.815C134.178 17.815 135.63 17.23 136.713 16.06C137.796 14.89 138.338 13.3733 138.338 11.51V10.73C138.338 8.82333 137.796 7.30666 136.713 6.18C135.63 5.01 134.178 4.425 132.358 4.425C130.495 4.425 129.021 5.01 127.938 6.18C126.898 7.30666 126.378 8.82333 126.378 10.73V11.51C126.378 13.3733 126.898 14.89 127.938 16.06C129.021 17.23 130.495 17.815 132.358 17.815Z" fill="white"/>
</svg>
