<svg width="154" height="48" viewBox="0 0 154 48" fill="none" xmlns="http://www.w3.org/2000/svg">
<path d="M15.68 47V10.99L16.005 8.325L15.225 8.065L13.73 10.275L4.175 19.83L0.86 16.515L16.395 1.045H19.905L35.44 16.515L32.125 19.83L22.57 10.275L21.075 8.065L20.295 8.325L20.62 10.99V47H15.68ZM57.7426 47.91C54.406 47.91 51.546 47.325 49.1626 46.155C46.8226 44.9417 45.046 43.295 43.8326 41.215C42.6193 39.135 42.0126 36.7733 42.0126 34.13H47.2776C47.2776 36.8167 48.166 39.005 49.9426 40.695C51.7193 42.3417 54.3193 43.165 57.7426 43.165C61.3393 43.165 64.091 42.2117 65.9976 40.305C67.9476 38.355 68.9226 35.69 68.9226 32.31V26.005H68.0776C67.2543 27.305 65.9326 28.5183 64.1126 29.645C62.336 30.7283 59.8226 31.27 56.5726 31.27C53.8426 31.27 51.3293 30.6633 49.0326 29.45C46.7793 28.2367 44.981 26.525 43.6376 24.315C42.2943 22.105 41.6226 19.4833 41.6226 16.45V15.67C41.6226 12.55 42.3376 9.885 43.7676 7.675C45.1976 5.42167 47.126 3.68833 49.5526 2.475C52.0226 1.21833 54.8176 0.589997 57.9376 0.589997C61.101 0.589997 63.896 1.21833 66.3226 2.475C68.7926 3.68833 70.721 5.44333 72.1076 7.74C73.4943 9.99333 74.1876 12.7233 74.1876 15.93V31.79C74.1876 35.17 73.516 38.0733 72.1726 40.5C70.8726 42.8833 68.9876 44.725 66.5176 46.025C64.0476 47.2817 61.1226 47.91 57.7426 47.91ZM57.9376 26.85C60.1043 26.85 62.011 26.4167 63.6576 25.55C65.3043 24.64 66.5826 23.405 67.4926 21.845C68.446 20.2417 68.9226 18.3783 68.9226 16.255V15.735C68.9226 12.485 67.9043 9.95 65.8676 8.13C63.8743 6.26666 61.231 5.335 57.9376 5.335C54.6443 5.335 51.9793 6.26666 49.9426 8.13C47.906 9.95 46.8876 12.485 46.8876 15.735V16.255C46.8876 18.3783 47.3426 20.2417 48.2526 21.845C49.206 23.405 50.506 24.64 52.1526 25.55C53.8426 26.4167 55.771 26.85 57.9376 26.85ZM94.8124 47V5.01H93.8374L84.9974 21.195H79.2774L90.1324 1.5H100.077V47H94.8124ZM114.05 47.91L110.54 45.115L146.745 0.589997L150.19 3.385L114.05 47.91ZM142.91 47.845C139.747 47.845 137.212 46.935 135.305 45.115C133.442 43.2517 132.51 40.7383 132.51 37.575V37.185C132.51 34.0217 133.442 31.53 135.305 29.71C137.212 27.8467 139.747 26.915 142.91 26.915C145.987 26.915 148.479 27.8467 150.385 29.71C152.292 31.53 153.245 34.0217 153.245 37.185V37.575C153.245 40.7383 152.292 43.2517 150.385 45.115C148.522 46.935 146.03 47.845 142.91 47.845ZM142.91 44.075C144.73 44.075 146.16 43.49 147.2 42.32C148.284 41.15 148.825 39.6333 148.825 37.77V36.99C148.825 35.0833 148.284 33.5667 147.2 32.44C146.16 31.27 144.73 30.685 142.91 30.685C141.047 30.685 139.574 31.27 138.49 32.44C137.45 33.5667 136.93 35.0833 136.93 36.99V37.77C136.93 39.6333 137.45 41.15 138.49 42.32C139.574 43.49 141.047 44.075 142.91 44.075ZM117.885 21.585C114.722 21.585 112.209 20.6533 110.345 18.79C108.482 16.9267 107.55 14.435 107.55 11.315V10.925C107.55 7.76167 108.482 5.27 110.345 3.45C112.209 1.58666 114.722 0.654996 117.885 0.654996C121.005 0.654996 123.497 1.58666 125.36 3.45C127.267 5.27 128.22 7.76167 128.22 10.925V11.315C128.22 14.435 127.267 16.9267 125.36 18.79C123.497 20.6533 121.005 21.585 117.885 21.585ZM117.885 17.815C119.705 17.815 121.157 17.23 122.24 16.06C123.324 14.89 123.865 13.3733 123.865 11.51V10.73C123.865 8.82333 123.324 7.30666 122.24 6.18C121.157 5.01 119.705 4.425 117.885 4.425C116.022 4.425 114.549 5.01 113.465 6.18C112.425 7.30666 111.905 8.82333 111.905 10.73V11.51C111.905 13.3733 112.425 14.89 113.465 16.06C114.549 17.23 116.022 17.815 117.885 17.815Z" fill="white"/>
</svg>
