<svg width="35" height="35" viewBox="0 0 35 35" fill="none" xmlns="http://www.w3.org/2000/svg">
<g clip-path="url(#clip0_2240_2046)">
<path d="M21.6778 28.2718H13.1147C12.2991 28.2718 11.6875 27.5922 11.6875 26.8447C11.6875 26.0291 12.3671 25.4175 13.1147 25.4175H21.7458C22.5613 25.4175 23.1729 26.0971 23.1729 26.8447C23.1729 27.5922 22.4933 28.2718 21.6778 28.2718Z" stroke="black" stroke-width="1.5" stroke-miterlimit="10" stroke-linecap="round" stroke-linejoin="round"/>
<path d="M12.8438 28.2719V34.5243" stroke="black" stroke-width="1.5" stroke-miterlimit="10" stroke-linecap="round" stroke-linejoin="round"/>
<path d="M21.8828 28.2719V34.5243" stroke="black" stroke-width="1.5" stroke-miterlimit="10" stroke-linecap="round" stroke-linejoin="round"/>
<path d="M14.4051 25.3495C14.4051 25.3495 14.1333 21.9515 11.2109 19.233L17.3954 7.88351L23.5799 19.1651C23.5799 19.1651 20.4537 22.1554 20.3857 25.4175" stroke="black" stroke-width="1.5" stroke-miterlimit="10" stroke-linecap="round" stroke-linejoin="round"/>
<path d="M17.3959 19.7767C18.3718 19.7767 19.1629 18.9856 19.1629 18.0097C19.1629 17.0338 18.3718 16.2427 17.3959 16.2427C16.42 16.2427 15.6289 17.0338 15.6289 18.0097C15.6289 18.9856 16.42 19.7767 17.3959 19.7767Z" stroke="black" stroke-width="1.5" stroke-miterlimit="10" stroke-linecap="round" stroke-linejoin="round"/>
<path d="M19.6406 2.92233C26.6406 4.00971 32.0775 10.0583 32.0775 17.3981" stroke="black" stroke-width="1.5" stroke-miterlimit="10" stroke-linecap="round" stroke-linejoin="round"/>
<path d="M2.71875 17.3981C2.71875 10.0583 8.15564 4.00971 15.1556 2.92233" stroke="black" stroke-width="1.5" stroke-miterlimit="10" stroke-linecap="round" stroke-linejoin="round"/>
<path d="M17.3984 16.2427V7.88351" stroke="black" stroke-width="1.5" stroke-miterlimit="10" stroke-linecap="round" stroke-linejoin="round"/>
<path d="M5.02841 17.3981H0.542969V21.8835H5.02841V17.3981Z" stroke="black" stroke-width="1.5" stroke-miterlimit="10" stroke-linecap="round" stroke-linejoin="round"/>
<path d="M34.3214 17.3981H29.8359V21.8835H34.3214V17.3981Z" stroke="black" stroke-width="1.5" stroke-miterlimit="10" stroke-linecap="round" stroke-linejoin="round"/>
<path d="M4.96094 2.71844H15.1551" stroke="black" stroke-width="1.5" stroke-miterlimit="10" stroke-linecap="round" stroke-linejoin="round"/>
<path d="M19.6406 2.71844H29.8348" stroke="black" stroke-width="1.5" stroke-miterlimit="10" stroke-linecap="round" stroke-linejoin="round"/>
<path d="M19.6417 0.543701H15.1562V5.02914H19.6417V0.543701Z" stroke="url(#paint0_linear_2240_2046)" stroke-width="1.5" stroke-miterlimit="10" stroke-linecap="round" stroke-linejoin="round"/>
<path d="M5.02841 0.543701H0.542969V5.02914H5.02841V0.543701Z" stroke="black" stroke-width="1.5" stroke-miterlimit="10" stroke-linecap="round" stroke-linejoin="round"/>
<path d="M34.3214 0.543701H29.8359V5.02914H34.3214V0.543701Z" stroke="black" stroke-width="1.5" stroke-miterlimit="10" stroke-linecap="round" stroke-linejoin="round"/>
</g>
<defs>
<linearGradient id="paint0_linear_2240_2046" x1="14.6548" y1="2.74381" x2="20.1424" y2="2.74381" gradientUnits="userSpaceOnUse">
<stop stop-color="#00A7E1"/>
<stop offset="1" stop-color="#CB007B"/>
</linearGradient>
<clipPath id="clip0_2240_2046">
<rect width="34.7961" height="35" fill="white"/>
</clipPath>
</defs>
</svg>
