<svg width="35" height="32" viewBox="0 0 35 32" fill="none" xmlns="http://www.w3.org/2000/svg">
<path d="M26 25V29C26 30.1046 25.1046 31 24 31H3C1.89543 31 1 30.1046 1 29V3C1 1.89543 1.89543 1 3 1H24C25.1046 1 26 1.89543 26 3V14" stroke="#110000"/>
<path d="M30 23L34.5 27.5M32 19.5C32 22.5376 29.5376 25 26.5 25C23.4624 25 21 22.5376 21 19.5C21 16.4624 23.4624 14 26.5 14C29.5376 14 32 16.4624 32 19.5Z" stroke="#110000"/>
<path d="M22 1V4C22 4.55228 22.4477 5 23 5H26" stroke="#110000"/>
<path d="M4 16H19" stroke="#110000"/>
<path d="M4 10H20" stroke="#110000"/>
<path d="M4 22H18" stroke="#110000"/>
</svg>
