<svg width="220" height="49" viewBox="0 0 220 49" fill="none" xmlns="http://www.w3.org/2000/svg">
<g clip-path="url(#clip0_5_560)">
<path d="M53.4799 36.7057H44.6865C40.1361 36.7057 36.4328 32.9861 36.4328 28.4157V27.6854H42.7374V28.4157C42.7374 29.5 43.6145 30.3809 44.6865 30.3809H53.4799C55.309 30.3809 56.8008 28.8826 56.8008 27.0454V24.9296C56.8008 23.0924 55.309 21.594 53.4799 21.594H45.3837C40.0761 21.594 35.7656 17.2571 35.7656 11.9337V9.81042C35.7581 4.47955 40.0761 0.142578 45.3762 0.142578H54.0871C58.6375 0.142578 62.3408 3.86214 62.3408 8.44006L62.3258 9.23065L56.0212 9.11018L56.0362 8.40241C56.0362 7.36334 55.1591 6.48239 54.0796 6.48239H45.3687C43.5395 6.48239 42.0477 7.98076 42.0477 9.81795V11.9413C42.0477 13.7785 43.5395 15.2768 45.3687 15.2768H53.4649C58.7724 15.2768 63.0829 19.6138 63.0829 24.9371V27.0529C63.0829 32.3838 58.7649 36.7132 53.4649 36.7132L53.4799 36.7057Z" fill="white"/>
<path d="M96.1126 0H84.3281V36.661H96.1126C101.158 36.661 105.476 34.9066 108.954 31.4355C112.425 27.9946 114.187 23.5748 114.187 18.2816C114.187 12.9883 112.425 8.5836 108.954 5.15769C105.483 1.73931 101.165 0 96.1126 0ZM106.638 29.4402C103.639 32.3316 99.9134 33.7923 95.5654 33.7923H87.3417V2.84614H95.5654C99.8984 2.84614 103.617 4.30686 106.638 7.19065C109.651 10.0669 111.181 13.8015 111.181 18.2816C111.181 22.7616 109.651 26.5489 106.638 29.4402Z" fill="#77787B"/>
<path d="M123.01 9.26855H119.996V36.6532H123.01V9.26855Z" fill="#77787B"/>
<path d="M149.225 12.8978C147.014 10.4883 144.248 9.26855 140.987 9.26855C137.726 9.26855 134.75 10.4959 132.418 12.9128C130.087 15.3524 128.902 18.4394 128.902 22.0912C128.902 25.743 130.087 28.8226 132.418 31.232C134.742 33.6415 137.628 34.8688 140.994 34.8688C144.36 34.8688 147.021 33.649 149.233 31.2471C149.743 30.6899 150.147 30.1101 150.485 29.5981L151.692 27.7534V37.2631C151.692 39.6424 150.732 41.6227 148.836 43.1436C146.991 44.642 144.653 45.4025 141.901 45.4025C139.727 45.4025 137.733 44.8001 135.979 43.6029C134.42 42.5413 133.19 41.1333 132.328 39.4241L129.704 40.8923C130.791 43.1361 132.388 44.9507 134.465 46.2985C136.706 47.7442 139.255 48.4745 142.021 48.4745C145.642 48.4745 148.708 47.4129 151.137 45.3197C153.506 43.2566 154.713 40.5384 154.713 37.2556V9.26855H151.699V16.3839L150.492 14.5392C150.14 14.0046 149.743 13.4324 149.24 12.8978H149.225ZM148.821 29.2066C146.886 31.0588 144.593 31.9624 141.804 31.9624C139.015 31.9624 136.669 31.0363 134.787 29.1991C132.868 27.3468 131.901 24.9675 131.901 22.1289C131.901 19.2903 132.868 16.9034 134.787 15.0512C136.669 13.2215 139.03 12.2954 141.804 12.2954C144.578 12.2954 146.886 13.1914 148.821 15.0512C150.725 16.8959 151.684 19.2752 151.684 22.1289C151.684 24.9826 150.717 27.3694 148.821 29.2066Z" fill="#77787B"/>
<path d="M164.646 9.26855H161.633V36.6532H164.646V9.26855Z" fill="#77787B"/>
<path d="M178.043 2.04785H175.029V9.26861H170.066V11.9642H175.029V29.8768C175.029 31.9474 175.719 33.6114 177.083 34.8161C178.455 36.0359 180.404 36.6608 182.863 36.6608H186.251V33.8448H183.455C179.917 33.8448 178.043 32.1356 178.043 28.9055V11.9717H186.251V9.27614H178.043V2.04785Z" fill="#77787B"/>
<path d="M200.239 9.26855C197.885 9.26855 195.741 9.93868 193.875 11.2639C192.158 12.4912 190.996 13.9895 190.321 15.8343L193.065 16.7303C193.552 15.4352 194.422 14.3434 195.644 13.5001C197.061 12.5138 198.687 12.0168 200.494 12.0168C202.533 12.0168 204.287 12.6945 205.704 14.0498C207.143 15.4126 207.871 17.039 207.871 18.8762V20.9317L207.503 20.9694L198.635 21.9858C196.004 22.287 193.942 23.1152 192.51 24.4404C191.071 25.7355 190.351 27.3769 190.299 29.4701C190.299 31.5859 191.048 33.28 192.593 34.6278C194.13 35.9756 196.124 36.6683 198.507 36.6683C201.311 36.6683 203.695 35.6443 205.592 33.6189C205.959 33.2273 206.296 32.7831 206.664 32.2184L207.871 30.3511V36.6683H210.862V18.4394C210.862 15.9848 209.812 13.8239 207.751 12.0243C205.637 10.2022 203.11 9.28361 200.239 9.28361V9.26855ZM207.871 25.8635C207.871 28.2654 207.098 30.2532 205.584 31.7741C204.092 33.2574 202.076 34.0104 199.594 34.0104C197.765 34.0104 196.266 33.5963 195.149 32.7831C193.965 31.9097 193.365 30.7351 193.365 29.2819C193.365 26.5637 195.396 24.9374 199.407 24.4404L207.878 23.4465V25.8635H207.871Z" fill="#77787B"/>
<path d="M220.001 2.04785H216.875V36.6533H220.001V2.04785Z" fill="#77787B"/>
<path d="M76.8021 30.4941H70.625V36.6984H76.8021V30.4941Z" fill="#E43D30"/>
<path d="M25.5406 36.6991H18.2465C8.18619 36.6991 0 28.4769 0 18.3648C0 8.25274 8.18619 0.0380859 18.254 0.0380859H26.4177V6.37037H18.254C11.6646 6.37037 6.30456 11.7539 6.30456 18.3723C6.30456 24.9908 11.6646 30.3743 18.254 30.3743H25.5481V36.7066L25.5406 36.6991Z" fill="white"/>
<path d="M31.8531 30.3667H25.5485V21.8508H17.0625V15.5186H31.8531V30.3667Z" fill="white"/>
</g>
<defs>
<clipPath id="clip0_5_560">
<rect width="220" height="48.4898" fill="white"/>
</clipPath>
</defs>
</svg>
