<svg width="200" height="44" viewBox="0 0 200 44" fill="none" xmlns="http://www.w3.org/2000/svg">
<g clip-path="url(#clip0_5_344)">
<path d="M48.6195 33.2231H40.6255C36.4888 33.2231 33.1222 29.8565 33.1222 25.7197V25.0587H38.8536V25.7197C38.8536 26.7011 39.6509 27.4985 40.6255 27.4985H48.6195C50.2824 27.4985 51.6385 26.1423 51.6385 24.4794V22.5644C51.6385 20.9015 50.2824 19.5453 48.6195 19.5453H41.2593C36.4343 19.5453 32.5156 15.6199 32.5156 10.8017V8.87986C32.5088 4.05484 36.4343 0.129395 41.2525 0.129395H49.1715C53.3082 0.129395 56.6748 3.49601 56.6748 7.63953L56.6612 8.35511L50.9298 8.24607L50.9434 7.60546C50.9434 6.66499 50.1461 5.86763 49.1647 5.86763H41.2457C39.5828 5.86763 38.2266 7.22382 38.2266 8.88668V10.8085C38.2266 12.4714 39.5828 13.8276 41.2457 13.8276H48.6059C53.4309 13.8276 57.3495 17.753 57.3495 22.5712V24.4862C57.3495 29.3113 53.4241 33.2299 48.6059 33.2299L48.6195 33.2231Z" fill="black"/>
<path d="M87.3753 0H76.6621V33.1823H87.3753C91.9618 33.1823 95.8872 31.5944 99.0494 28.4527C102.205 25.3382 103.806 21.3378 103.806 16.5468C103.806 11.7559 102.205 7.76911 99.0494 4.66828C95.8941 1.57427 91.9686 0 87.3753 0ZM96.9436 26.6467C94.2176 29.2636 90.8305 30.5858 86.8778 30.5858H79.4017V2.57607H86.8778C90.8169 2.57607 94.1971 3.89818 96.9436 6.50833C99.6832 9.11166 101.073 12.4919 101.073 16.5468C101.073 20.6018 99.6832 24.0297 96.9436 26.6467Z" fill="#77787B"/>
<path d="M111.828 8.38916H109.088V33.1753H111.828V8.38916Z" fill="#77787B"/>
<path d="M135.659 11.674C133.649 9.49319 131.134 8.38916 128.169 8.38916C125.205 8.38916 122.499 9.50001 120.38 11.6876C118.26 13.8957 117.184 16.6898 117.184 19.9951C117.184 23.3004 118.26 26.0877 120.38 28.2685C122.492 30.4493 125.116 31.5602 128.176 31.5602C131.236 31.5602 133.655 30.4562 135.666 28.2822C136.129 27.7779 136.497 27.2531 136.804 26.7897L137.901 25.12V33.7274C137.901 35.8809 137.029 37.6732 135.305 39.0499C133.628 40.4061 131.502 41.0944 129.001 41.0944C127.024 41.0944 125.212 40.5492 123.617 39.4656C122.199 38.5047 121.082 37.2303 120.298 35.6833L117.913 37.0122C118.901 39.0431 120.353 40.6855 122.24 41.9054C124.278 43.2138 126.595 43.8749 129.11 43.8749C132.402 43.8749 135.189 42.914 137.397 41.0194C139.55 39.1521 140.648 36.6919 140.648 33.7205V8.38916H137.908V14.8293L136.811 13.1597C136.491 12.6758 136.129 12.1579 135.673 11.674H135.659ZM135.291 26.4353C133.533 28.1118 131.447 28.9296 128.912 28.9296C126.377 28.9296 124.244 28.0913 122.533 26.4285C120.789 24.752 119.91 22.5984 119.91 20.0292C119.91 17.4599 120.789 15.2996 122.533 13.6231C124.244 11.967 126.391 11.1288 128.912 11.1288C131.434 11.1288 133.533 11.9398 135.291 13.6231C137.022 15.2928 137.894 17.4463 137.894 20.0292C137.894 22.6121 137.015 24.7724 135.291 26.4353Z" fill="#77787B"/>
<path d="M149.679 8.38916H146.939V33.1753H149.679V8.38916Z" fill="#77787B"/>
<path d="M161.857 1.85352H159.117V8.38911H154.605V10.8289H159.117V27.0418C159.117 28.9159 159.744 30.422 160.984 31.5124C162.231 32.6165 164.003 33.1821 166.239 33.1821H169.319V30.6333H166.777C163.56 30.6333 161.857 29.0863 161.857 26.1626V10.8357H169.319V8.39592H161.857V1.85352Z" fill="#77787B"/>
<path d="M182.036 8.38916C179.897 8.38916 177.947 8.9957 176.251 10.1951C174.69 11.306 173.634 12.6622 173.02 14.3318L175.514 15.1428C175.957 13.9706 176.748 12.9825 177.859 12.2192C179.147 11.3264 180.626 10.8766 182.268 10.8766C184.122 10.8766 185.717 11.49 187.005 12.7167C188.313 13.9502 188.974 15.4222 188.974 17.0851V18.9456L188.64 18.9797L180.578 19.8997C178.186 20.1723 176.312 20.922 175.01 22.1214C173.702 23.2936 173.047 24.7792 173 26.6738C173 28.5888 173.681 30.1222 175.085 31.3421C176.482 32.562 178.295 33.189 180.462 33.189C183.011 33.189 185.178 32.2621 186.902 30.4289C187.236 30.0745 187.543 29.6724 187.877 29.1613L188.974 27.4712V33.189H191.693V16.6898C191.693 14.4681 190.739 12.5122 188.865 10.8835C186.943 9.23422 184.647 8.40279 182.036 8.40279V8.38916ZM188.974 23.4094C188.974 25.5834 188.272 27.3826 186.896 28.7592C185.539 30.1018 183.706 30.7833 181.45 30.7833C179.787 30.7833 178.425 30.4084 177.409 29.6724C176.332 28.8819 175.787 27.8187 175.787 26.5034C175.787 24.0432 177.634 22.5712 181.28 22.1214L188.981 21.2218V23.4094H188.974Z" fill="#77787B"/>
<path d="M200 1.85352H197.158V33.1753H200V1.85352Z" fill="#77787B"/>
<path d="M69.8206 27.6006H64.2051V33.2162H69.8206V27.6006Z" fill="#E43D30"/>
<path d="M23.2187 33.2164H16.5877C7.44199 33.2164 0 25.7745 0 16.6219C0 7.46935 7.44199 0.0341797 16.5945 0.0341797H24.0161V5.7656H16.5945C10.6042 5.7656 5.73142 10.6383 5.73142 16.6287C5.73142 22.6191 10.6042 27.4918 16.5945 27.4918H23.2255V33.2233L23.2187 33.2164Z" fill="black"/>
<path d="M28.9577 27.4851H23.2263V19.7773H15.5117V14.0459H28.9577V27.4851Z" fill="black"/>
</g>
<defs>
<clipPath id="clip0_5_344">
<rect width="200" height="43.8886" fill="white"/>
</clipPath>
</defs>
</svg>
