<?xml version="1.0" encoding="utf-8"?>
<!-- Generator: Adobe Illustrator 28.2.0, SVG Export Plug-In . SVG Version: 6.00 Build 0)  -->
<svg version="1.1" id="Layer_1" xmlns="http://www.w3.org/2000/svg" xmlns:xlink="http://www.w3.org/1999/xlink" x="0px" y="0px"
	 viewBox="0 0 479.3 105.2" style="enable-background:new 0 0 479.3 105.2;" xml:space="preserve">
<style type="text/css">
	.st0{clip-path:url(#SVGID_00000047046156556154182610000008172856757544473485_);fill:#FFFFFF;}
	.st1{clip-path:url(#SVGID_00000047046156556154182610000008172856757544473485_);fill:#77787B;}
	.st2{clip-path:url(#SVGID_00000047046156556154182610000008172856757544473485_);fill:#E43D30;}
</style>
<g>
	<defs>
		<rect id="SVGID_1_" width="479.3" height="105.2"/>
	</defs>
	<clipPath id="SVGID_00000003096856200065955520000014469916958533876401_">
		<use xlink:href="#SVGID_1_"  style="overflow:visible;"/>
	</clipPath>
	<path style="clip-path:url(#SVGID_00000003096856200065955520000014469916958533876401_);fill:#FFFFFF;" d="M116.5,79.6H97.4
		c-9.9,0-18-8.1-18-18v-1.6h13.7v1.6c0,2.4,1.9,4.3,4.2,4.3h19.2c4,0,7.2-3.3,7.2-7.2v-4.6c0-4-3.3-7.2-7.2-7.2H98.9
		c-11.6,0-21-9.4-21-21v-4.6c0-11.6,9.4-21,20.9-21h19c9.9,0,18,8.1,18,18l0,1.7l-13.7-0.3l0-1.5c0-2.3-1.9-4.2-4.3-4.2h-19
		c-4,0-7.2,3.3-7.2,7.2v4.6c0,4,3.3,7.2,7.2,7.2h17.6c11.6,0,21,9.4,21,21v4.6C137.5,70.3,128,79.6,116.5,79.6L116.5,79.6z"/>
	<path style="clip-path:url(#SVGID_00000003096856200065955520000014469916958533876401_);fill:#77787B;" d="M209.4,0h-25.7v79.5
		h25.7c11,0,20.4-3.8,28-11.3c7.6-7.5,11.4-17.1,11.4-28.5c0-11.5-3.8-21-11.4-28.5C229.8,3.8,220.4,0,209.4,0z M232.3,63.9
		c-6.5,6.3-14.7,9.4-24.1,9.4h-17.9V6.2h17.9c9.4,0,17.5,3.2,24.1,9.4c6.6,6.2,9.9,14.3,9.9,24.1C242.2,49.4,238.9,57.6,232.3,63.9z
		"/>
	<path style="clip-path:url(#SVGID_00000003096856200065955520000014469916958533876401_);fill:#77787B;" d="M268,20.1h-6.6v59.4
		h6.6V20.1z"/>
	<path style="clip-path:url(#SVGID_00000003096856200065955520000014469916958533876401_);fill:#77787B;" d="M325.1,28
		c-4.8-5.2-10.8-7.9-18-7.9c-7.1,0-13.6,2.7-18.7,7.9c-5.1,5.3-7.7,12-7.7,19.9s2.6,14.6,7.7,19.8c5.1,5.2,11.4,7.9,18.7,7.9
		c7.3,0,13.1-2.6,18-7.9c1.1-1.2,2-2.5,2.7-3.6l2.6-4v20.6c0,5.2-2.1,9.5-6.2,12.8c-4,3.3-9.1,4.9-15.1,4.9c-4.7,0-9.1-1.3-12.9-3.9
		c-3.4-2.3-6.1-5.4-8-9.1l-5.7,3.2c2.4,4.9,5.8,8.8,10.4,11.7c4.9,3.1,10.4,4.7,16.5,4.7c7.9,0,14.6-2.3,19.9-6.8
		c5.2-4.5,7.8-10.4,7.8-17.5V20.1h-6.6v15.4l-2.6-4C327.1,30.4,326.3,29.1,325.1,28L325.1,28z M324.3,63.4c-4.2,4-9.2,6-15.3,6
		s-11.2-2-15.3-6c-4.2-4-6.3-9.2-6.3-15.3c0-6.2,2.1-11.3,6.3-15.4c4.1-4,9.2-6,15.3-6c6,0,11.1,1.9,15.3,6c4.1,4,6.2,9.2,6.2,15.4
		S328.4,59.4,324.3,63.4z"/>
	<path style="clip-path:url(#SVGID_00000003096856200065955520000014469916958533876401_);fill:#77787B;" d="M358.7,20.1h-6.6v59.4
		h6.6V20.1z"/>
	<path style="clip-path:url(#SVGID_00000003096856200065955520000014469916958533876401_);fill:#77787B;" d="M387.9,4.4h-6.6v15.7
		h-10.8V26h10.8v38.9c0,4.5,1.5,8.1,4.5,10.7c3,2.6,7.2,4,12.6,4h7.4v-6.1h-6.1c-7.7,0-11.8-3.7-11.8-10.7V26h17.9v-5.8h-17.9V4.4z"
		/>
	<path style="clip-path:url(#SVGID_00000003096856200065955520000014469916958533876401_);fill:#77787B;" d="M436.3,20.1
		c-5.1,0-9.8,1.5-13.9,4.3c-3.7,2.7-6.3,5.9-7.7,9.9l6,1.9c1.1-2.8,3-5.2,5.6-7c3.1-2.1,6.6-3.2,10.6-3.2c4.4,0,8.3,1.5,11.4,4.4
		c3.1,3,4.7,6.5,4.7,10.5v4.5l-0.8,0.1l-19.3,2.2c-5.7,0.7-10.2,2.5-13.3,5.3c-3.1,2.8-4.7,6.4-4.8,10.9c0,4.6,1.6,8.3,5,11.2
		c3.3,2.9,7.7,4.4,12.9,4.4c6.1,0,11.3-2.2,15.4-6.6c0.8-0.8,1.5-1.8,2.3-3l2.6-4.1v13.7h6.5V40c0-5.3-2.3-10-6.8-13.9
		C448.1,22.1,442.5,20.1,436.3,20.1L436.3,20.1z M452.9,56.1c0,5.2-1.7,9.5-5,12.8c-3.2,3.2-7.6,4.9-13.1,4.9c-4,0-7.3-0.9-9.7-2.7
		c-2.6-1.9-3.9-4.4-3.9-7.6c0-5.9,4.4-9.4,13.2-10.5l18.5-2.2L452.9,56.1L452.9,56.1z"/>
	<path style="clip-path:url(#SVGID_00000003096856200065955520000014469916958533876401_);fill:#77787B;" d="M479.3,4.4h-6.8v75.1
		h6.8V4.4z"/>
	<path style="clip-path:url(#SVGID_00000003096856200065955520000014469916958533876401_);fill:#E43D30;" d="M167.3,66.2h-13.5v13.5
		h13.5V66.2z"/>
	<path style="clip-path:url(#SVGID_00000003096856200065955520000014469916958533876401_);fill:#FFFFFF;" d="M55.6,79.6H39.8
		C17.8,79.6,0,61.8,0,39.8C0,17.9,17.8,0.1,39.8,0.1h17.8v13.7H39.8c-14.4,0-26,11.7-26,26s11.7,26,26,26h15.9L55.6,79.6L55.6,79.6z
		"/>
	<path style="clip-path:url(#SVGID_00000003096856200065955520000014469916958533876401_);fill:#FFFFFF;" d="M69.4,65.9H55.7V47.4
		H37.2V33.7h32.2V65.9z"/>
</g>
</svg>
