<svg width="36" height="35" viewBox="0 0 36 35" fill="none" xmlns="http://www.w3.org/2000/svg">
<g clip-path="url(#clip0_2240_1996)">
<path d="M10.5341 0.543701H24.5341C25.7574 0.543701 26.7089 1.49516 26.7089 2.71846V32.3495C26.7089 33.5728 25.7574 34.5243 24.5341 34.5243H10.5341C9.31083 34.5243 8.35938 33.5728 8.35938 32.3495V2.6505C8.35938 1.49516 9.31083 0.543701 10.5341 0.543701Z" stroke="#110000" stroke-width="1.5" stroke-miterlimit="10" stroke-linecap="round" stroke-linejoin="round"/>
<path d="M14.6099 15.699L12.0273 18.2816L14.6778 20.932" stroke="#110000" stroke-width="1.5" stroke-miterlimit="10" stroke-linecap="round" stroke-linejoin="round"/>
<path d="M20.3883 15.699L22.9708 18.2816L20.3203 20.932" stroke="#110000" stroke-width="1.5" stroke-miterlimit="10" stroke-linecap="round" stroke-linejoin="round"/>
<path d="M16.9219 20.932L18.2131 15.699" stroke="#110000" stroke-width="1.5" stroke-miterlimit="10" stroke-linecap="round" stroke-linejoin="round"/>
<path d="M8.15462 5.09711H6.86336C6.65947 5.09711 6.45559 5.30099 6.45559 5.50487V7.06798C6.04782 7.2039 5.70802 7.33983 5.30025 7.54371L4.28083 6.45633C4.07695 6.25245 3.8051 6.25245 3.66918 6.45633L1.83423 8.29128C1.69831 8.4272 1.69831 8.76701 1.83423 8.90293L2.92161 9.99031C2.71773 10.3301 2.5818 10.7379 2.44588 11.1457H0.950736C0.746852 11.1457 0.542969 11.3495 0.542969 11.5534V14.1359C0.542969 14.3398 0.746852 14.5437 0.950736 14.5437H2.51384C2.64976 14.9515 2.78569 15.2913 2.98957 15.699L1.90219 16.7864C1.76627 16.9223 1.76627 17.2622 1.90219 17.3981L3.73714 19.233C3.87307 19.369 4.14491 19.369 4.34879 19.233L5.43617 18.1457C5.77598 18.3495 6.18374 18.4855 6.59151 18.6214V20.6602C6.59151 20.8641 6.72743 21.068 6.99928 21.068H8.3585" stroke="#110000" stroke-width="1.5" stroke-miterlimit="10" stroke-linecap="round" stroke-linejoin="round"/>
<path d="M8.15413 16.1748C7.33859 16.1748 6.4551 15.835 5.84345 15.2233C4.55218 13.9321 4.55218 11.8253 5.84345 10.534C6.4551 9.85439 7.33859 9.58255 8.15413 9.58255" stroke="#110000" stroke-width="1.5" stroke-miterlimit="10" stroke-linecap="round" stroke-linejoin="round"/>
<path d="M26.8453 13.932H28.1366C28.3405 13.932 28.5443 14.1359 28.5443 14.3398V15.9029C28.9521 16.0388 29.2919 16.1748 29.6997 16.3786L30.7871 15.2913C30.923 15.1553 31.1948 15.1553 31.3987 15.2913L33.2337 17.1262C33.3696 17.2621 33.3696 17.6019 33.2337 17.7379L32.1463 18.8252C32.3502 19.165 32.4861 19.5728 32.622 19.9806H34.1851C34.389 19.9806 34.5929 20.1845 34.5929 20.3883V22.9709C34.5929 23.1748 34.389 23.3786 34.1851 23.3786H32.622C32.4861 23.7864 32.3502 24.1262 32.1463 24.534L33.2337 25.6214C33.3696 25.7573 33.3696 26.0971 33.2337 26.233L31.3987 28.068C31.2628 28.2039 30.9909 28.2039 30.7871 28.068L29.6997 26.9806C29.3599 27.1845 28.9521 27.3204 28.5443 27.4563V29.4951C28.5443 29.699 28.4084 29.9029 28.1366 29.9029H26.7773" stroke="#110000" stroke-width="1.5" stroke-miterlimit="10" stroke-linecap="round" stroke-linejoin="round"/>
<path d="M26.8438 25.0097C27.6593 25.0097 28.5428 24.6699 29.1544 24.0583C30.4457 22.767 30.4457 20.6602 29.1544 19.3689C28.5428 18.6893 27.6593 18.4175 26.8438 18.4175" stroke="#110000" stroke-width="1.5" stroke-miterlimit="10" stroke-linecap="round" stroke-linejoin="round"/>
<path d="M15.5625 3.39807H19.6402" stroke="#110000" stroke-width="1.5" stroke-miterlimit="10" stroke-linecap="round" stroke-linejoin="round"/>
</g>
<defs>
<clipPath id="clip0_2240_1996">
<rect width="35.068" height="35" fill="white"/>
</clipPath>
</defs>
</svg>
