<svg width="50" height="50" viewBox="0 0 50 50" fill="none" xmlns="http://www.w3.org/2000/svg">
<g clip-path="url(#clip0_5_502)">
<path d="M25 45.1333V48.8095" stroke="white" stroke-width="2.5" stroke-linecap="round" stroke-linejoin="round"/>
<path d="M25 1.94287V5.61906" stroke="white" stroke-width="2.5" stroke-linecap="round" stroke-linejoin="round"/>
<path d="M48.6957 25H45.0195" stroke="white" stroke-width="2.5" stroke-linecap="round" stroke-linejoin="round"/>
<path d="M5.24821 25H1.5625" stroke="white" stroke-width="2.5" stroke-linecap="round" stroke-linejoin="round"/>
<path d="M25.0009 48.8095C38.1506 48.8095 48.8105 38.1496 48.8105 25C48.8105 11.8503 38.1506 1.19043 25.0009 1.19043C11.8513 1.19043 1.19141 11.8503 1.19141 25C1.19141 38.1496 11.8513 48.8095 25.0009 48.8095Z" stroke="white" stroke-width="2.5" stroke-linecap="round" stroke-linejoin="round"/>
<path d="M22.97 23.4573L17.7891 18.2764" stroke="white" stroke-width="2.5" stroke-linecap="round" stroke-linejoin="round"/>
<path d="M27.666 25H39.8755" stroke="white" stroke-width="2.5" stroke-linecap="round" stroke-linejoin="round"/>
<path d="M24.9993 26.9526C26.0775 26.9526 26.9516 26.0785 26.9516 25.0002C26.9516 23.922 26.0775 23.0479 24.9993 23.0479C23.921 23.0479 23.0469 23.922 23.0469 25.0002C23.0469 26.0785 23.921 26.9526 24.9993 26.9526Z" stroke="white" stroke-width="2.5" stroke-linecap="round" stroke-linejoin="round"/>
</g>
<defs>
<clipPath id="clip0_5_502">
<rect width="50" height="50" fill="white"/>
</clipPath>
</defs>
</svg>
