<svg width="37" height="37" viewBox="0 0 37 37" fill="none" xmlns="http://www.w3.org/2000/svg">
<g clip-path="url(#clip0_2240_2063)">
<path d="M18.6041 26.6893C25.5478 26.6893 31.1769 21.0603 31.1769 14.1165C31.1769 7.17274 25.5478 1.5437 18.6041 1.5437C11.6603 1.5437 6.03125 7.17274 6.03125 14.1165C6.03125 21.0603 11.6603 26.6893 18.6041 26.6893Z" stroke="#110000" stroke-width="1.5" stroke-miterlimit="10" stroke-linecap="round" stroke-linejoin="round"/>
<path d="M18.6016 8.13593L19.8249 11.8738C19.9609 12.3495 20.4366 12.6893 20.9803 12.6893H24.922L21.7279 15C21.3201 15.3398 21.1162 15.8835 21.2521 16.3592L22.4754 20.0971L19.3492 17.7864C18.9414 17.4466 18.3298 17.4466 17.922 17.7864L14.7279 20.0971L15.9512 16.3592C16.0871 15.8835 15.9512 15.2718 15.4754 15L12.2812 12.6893H16.223C16.7667 12.6893 17.2424 12.3495 17.3783 11.8738L18.6016 8.13593Z" stroke="#110000" stroke-width="1.5" stroke-miterlimit="10" stroke-linecap="round" stroke-linejoin="round"/>
<path d="M7.93522 20.7767L1.54688 29.4757L8.54688 28.2524L9.77018 35.5243L16.0906 26.4854" stroke="#110000" stroke-width="1.5" stroke-miterlimit="10" stroke-linecap="round" stroke-linejoin="round"/>
<path d="M29.3405 20.7767L35.7288 29.4757L28.7288 28.2524L27.5055 35.5243L21.1172 26.4854" stroke="#110000" stroke-width="1.5" stroke-miterlimit="10" stroke-linecap="round" stroke-linejoin="round"/>
</g>
<defs>
<clipPath id="clip0_2240_2063">
<rect width="37" height="37" fill="white"/>
</clipPath>
</defs>
</svg>
