<svg width="39" height="33" viewBox="0 0 39 33" fill="none" xmlns="http://www.w3.org/2000/svg">
<path d="M13.0228 28.5087H4.57382C3.41055 28.5087 2.49219 27.6058 2.49219 26.4621V3.58835C2.49219 2.44466 3.41055 1.54175 4.57382 1.54175H35.431C36.5942 1.54175 37.5126 2.44466 37.5126 3.58835V26.4621C37.5126 27.6058 36.5942 28.5087 35.431 28.5087H26.982" stroke="#110000" stroke-width="1.5" stroke-miterlimit="10" stroke-linecap="round" stroke-linejoin="round"/>
<path d="M2.49219 9.66797H37.5738" stroke="#110000" stroke-width="1.5" stroke-miterlimit="10" stroke-linecap="round" stroke-linejoin="round"/>
<path d="M6.53555 6.41747C7.04276 6.41747 7.45392 6.01323 7.45392 5.51456C7.45392 5.0159 7.04276 4.61165 6.53555 4.61165C6.02835 4.61165 5.61719 5.0159 5.61719 5.51456C5.61719 6.01323 6.02835 6.41747 6.53555 6.41747Z" fill="#110000"/>
<path d="M23.25 5.51456H33.6582" stroke="#110000" stroke-width="1.5" stroke-miterlimit="10" stroke-linecap="round" stroke-linejoin="round"/>
<path d="M20.0002 31.5786C25.1736 31.5786 29.3675 27.4553 29.3675 22.3689C29.3675 17.2826 25.1736 13.1592 20.0002 13.1592C14.8267 13.1592 10.6328 17.2826 10.6328 22.3689C10.6328 27.4553 14.8267 31.5786 20.0002 31.5786Z" stroke="#110000" stroke-width="1.5" stroke-miterlimit="10" stroke-linecap="round" stroke-linejoin="round"/>
<path d="M14.6797 25.0777L18.1695 21.6466C18.3532 21.466 18.5981 21.466 18.7817 21.6466L20.9246 23.7534C21.1083 23.934 21.3532 23.934 21.5368 23.7534L24.9654 20.3825" stroke="#110000" stroke-width="1.5" stroke-miterlimit="10" stroke-linecap="round" stroke-linejoin="round"/>
<path d="M22.6953 20.3825H24.9606V22.4893" stroke="#110000" stroke-width="1.5" stroke-miterlimit="10" stroke-linecap="round" stroke-linejoin="round"/>
</svg>
