<svg width="35" height="35" viewBox="0 0 35 35" fill="none" xmlns="http://www.w3.org/2000/svg">
<g clip-path="url(#clip0_2240_2020)">
<path d="M21.9053 24.9895C28.4027 24.9895 33.6699 19.7223 33.6699 13.2249C33.6699 6.72747 28.4027 1.46027 21.9053 1.46027C15.4078 1.46027 10.1406 6.72747 10.1406 13.2249C10.1406 19.7223 15.4078 24.9895 21.9053 24.9895Z" stroke="black" stroke-width="1.5" stroke-miterlimit="10" stroke-linecap="round" stroke-linejoin="round"/>
<path d="M2.23629 32.7683C1.20769 31.7397 1.20769 30.0683 2.23629 29.0396L9.62937 21.6466L13.358 25.3753L5.96497 32.7683C4.93637 33.8612 3.2649 33.8612 2.23629 32.7683Z" stroke="black" stroke-width="1.5" stroke-miterlimit="10" stroke-linecap="round" stroke-linejoin="round"/>
<path d="M11.3672 23.5109L13.4887 21.3894" stroke="black" stroke-width="1.5" stroke-miterlimit="10" stroke-linecap="round" stroke-linejoin="round"/>
<path d="M15.2852 18.8822V15.3464" stroke="black" stroke-width="1.5" stroke-miterlimit="10" stroke-linecap="round" stroke-linejoin="round"/>
<path d="M23.8359 18.8822V15.3464" stroke="black" stroke-width="1.5" stroke-miterlimit="10" stroke-linecap="round" stroke-linejoin="round"/>
<path d="M19.5273 18.8822V12.5177" stroke="black" stroke-width="1.5" stroke-miterlimit="10" stroke-linecap="round" stroke-linejoin="round"/>
<path d="M28.4688 18.8822V12.5177" stroke="black" stroke-width="1.5" stroke-miterlimit="10" stroke-linecap="round" stroke-linejoin="round"/>
<path d="M15.2852 12.5177L19.5924 8.21046L23.7068 12.3249L28.657 7.37473" stroke="black" stroke-width="1.5" stroke-miterlimit="10" stroke-linecap="round" stroke-linejoin="round"/>
</g>
<defs>
<clipPath id="clip0_2240_2020">
<rect width="35" height="35" fill="white"/>
</clipPath>
</defs>
</svg>
