<svg width="39" height="35" viewBox="0 0 39 35" fill="none" xmlns="http://www.w3.org/2000/svg">
<g clip-path="url(#clip0_2240_2069)">
<path d="M29.0195 10.3301C30.5826 10.3301 31.8739 11.6214 31.8739 13.1845C31.8739 14.7476 30.5826 16.0389 29.0195 16.0389" stroke="black" stroke-width="1.5" stroke-miterlimit="10" stroke-linecap="round" stroke-linejoin="round"/>
<path d="M34.5234 13.1165H37.8535" stroke="black" stroke-width="1.5" stroke-miterlimit="10" stroke-linecap="round" stroke-linejoin="round"/>
<path d="M33.2344 9.71846L35.4091 7.5437" stroke="black" stroke-width="1.5" stroke-miterlimit="10" stroke-linecap="round" stroke-linejoin="round"/>
<path d="M32.9609 16.5146L35.4075 18.9612" stroke="black" stroke-width="1.5" stroke-miterlimit="10" stroke-linecap="round" stroke-linejoin="round"/>
<path d="M15.087 19.7767H5.64036C4.28114 19.7767 3.26172 18.6893 3.26172 17.3981V8.90294C3.26172 7.54371 4.3491 6.52429 5.64036 6.52429H15.087L27.1841 0.611673C27.9996 0.203906 29.019 0.815557 29.019 1.76701V24.3981C29.019 25.3495 28.0675 25.9612 27.1841 25.5534L15.087 19.7767Z" stroke="black" stroke-width="1.5" stroke-miterlimit="10" stroke-linecap="round" stroke-linejoin="round"/>
<path d="M15.0898 6.45636V19.7088" stroke="black" stroke-width="1.5" stroke-miterlimit="10" stroke-linecap="round" stroke-linejoin="round"/>
<path d="M25.2148 24.6019V1.56311" stroke="black" stroke-width="1.5" stroke-miterlimit="10" stroke-linecap="round" stroke-linejoin="round"/>
<path d="M3.19501 10.3301H1.2921C0.88433 10.3301 0.476562 10.6699 0.476562 11.1457V15.2233C0.476562 15.6311 0.816368 16.0389 1.2921 16.0389H3.19501" stroke="black" stroke-width="1.5" stroke-miterlimit="10" stroke-linecap="round" stroke-linejoin="round"/>
<path d="M7.61328 19.7767V32.4175C7.61328 33.5729 8.49678 34.4563 9.65212 34.4563C10.8075 34.4563 11.691 33.5729 11.691 32.4175V19.7767" stroke="black" stroke-width="1.5" stroke-miterlimit="10" stroke-linecap="round" stroke-linejoin="round"/>
</g>
<defs>
<clipPath id="clip0_2240_2069">
<rect width="38.3981" height="35" fill="white"/>
</clipPath>
</defs>
</svg>
