<svg width="34" height="32" viewBox="0 0 34 32" fill="none" xmlns="http://www.w3.org/2000/svg">
<g clip-path="url(#clip0_383_322)">
<path d="M3.64844 19.3346V28.2596C3.64844 29.4596 4.61767 30.4288 5.81767 30.4288C7.01767 30.4288 7.9869 29.4596 7.9869 28.2596V19.3346" stroke="#E63E31" strokeWidth="2" strokeLinecap="round" strokeLinejoin="round"/>
<path d="M18.5435 4.58264C15.7166 8.73072 10.1089 8.44803 10.1089 8.44803H3.2954C2.34348 8.44803 1.57617 9.21533 1.57617 10.1673V17.5173C1.57617 18.4692 2.34348 19.2365 3.2954 19.2365H10.0569C10.0569 19.2365 15.2896 19.1903 18.5377 23.2403" stroke="#E63E31" strokeWidth="2" strokeLinecap="round" strokeLinejoin="round"/>
<path d="M20.9842 25.9231C19.7323 25.9231 18.7227 24.8731 18.7227 23.5692V3.93075C18.7227 2.63267 19.738 1.5769 20.9842 1.5769C22.2361 1.5769 23.2457 2.6269 23.4303 3.87883V23.5173C23.2457 24.8615 22.2361 25.9173 20.9842 25.9173V25.9231Z" stroke="#E63E31" strokeWidth="2" strokeLinecap="round" strokeLinejoin="round"/>
<path d="M27.6367 13.8655H32.1136" stroke="#E63E31" strokeWidth="2" strokeLinecap="round" strokeLinejoin="round"/>
<path d="M26.834 9.81544L29.4763 7.03467" stroke="#E63E31" strokeWidth="2" strokeLinecap="round" strokeLinejoin="round"/>
<path d="M29.4763 20.4655L26.834 17.6847" stroke="#E63E31" strokeWidth="2" strokeLinecap="round" strokeLinejoin="round"/>
</g>
<defs>
<clipPath id="clip0_383_322">
<rect width="34" height="32" fill="white"/>
</clipPath>
</defs>
</svg>
