<svg width="36" height="35" viewBox="0 0 36 35" fill="none" xmlns="http://www.w3.org/2000/svg">
<g clip-path="url(#clip0_2240_1991)">
<path d="M4.14844 31.0583V29.6311C4.14844 28.5437 5.30378 27.6602 6.73096 27.6602H28.5465C29.9737 27.6602 31.129 28.5437 31.129 29.6311V31.0583" stroke="#110000" stroke-width="1.5" stroke-miterlimit="10" stroke-linecap="round" stroke-linejoin="round"/>
<path d="M21.0691 12.3689V12.5049C21.0691 14.068 19.9137 15.4272 18.3506 15.699L11.4186 16.9903C10.1273 17.1942 8.83605 16.6505 8.2244 15.4952C7.54479 14.2719 7.74867 12.7767 8.70013 11.7573L17.1273 3.39807V0.543701C23.0399 0.543701 27.8652 5.30098 27.8652 11.2136V23.1748C27.8652 25.6893 25.8263 27.6602 23.3797 27.6602H9.78751C9.78751 27.6602 9.24382 21.6796 15.4962 18.3495C17.8069 17.3301 17.671 15.767 17.671 15.767" stroke="#110000" stroke-width="1.5" stroke-miterlimit="10" stroke-linecap="round" stroke-linejoin="round"/>
<path d="M3.94316 31.0583H31.4674C33.3703 31.0583 34.8655 32.6214 34.8655 34.4563H0.545104C0.477143 32.6214 2.04025 31.0583 3.94316 31.0583Z" stroke="#110000" stroke-width="1.5" stroke-miterlimit="10" stroke-linecap="round" stroke-linejoin="round"/>
</g>
<defs>
<clipPath id="clip0_2240_1991">
<rect width="35.3398" height="35" fill="white"/>
</clipPath>
</defs>
</svg>
