<svg width="36" height="37" viewBox="0 0 36 37" fill="none" xmlns="http://www.w3.org/2000/svg">
<g clip-path="url(#clip0_2240_2039)">
<path d="M31.4478 25.7204H4.62565C2.34897 25.7204 0.570312 23.8524 0.570312 21.6253V4.66991C0.570312 2.37088 2.42011 0.574768 4.62565 0.574768H31.4478C33.7245 0.574768 35.5031 2.44273 35.5031 4.66991V21.6253C35.5031 23.8524 33.6533 25.7204 31.4478 25.7204Z" stroke="#110000" stroke-width="1.5" stroke-miterlimit="10" stroke-linecap="round" stroke-linejoin="round"/>
<path d="M0.570312 32.6893H21.4162" stroke="#110000" stroke-width="1.5" stroke-miterlimit="10" stroke-linecap="round" stroke-linejoin="round"/>
<path d="M28.8164 32.6893H35.5042" stroke="#110000" stroke-width="1.5" stroke-miterlimit="10" stroke-linecap="round" stroke-linejoin="round"/>
<path d="M25.1176 36.4252C27.1608 36.4252 28.8172 34.7526 28.8172 32.6893C28.8172 30.626 27.1608 28.9534 25.1176 28.9534C23.0743 28.9534 21.418 30.626 21.418 32.6893C21.418 34.7526 23.0743 36.4252 25.1176 36.4252Z" stroke="#110000" stroke-width="1.5" stroke-miterlimit="10" stroke-linecap="round" stroke-linejoin="round"/>
<path d="M14.1602 19.6136V6.68155L24.4764 13.1476L14.1602 19.6136Z" stroke="#110000" stroke-width="1.5" stroke-miterlimit="10" stroke-linecap="round" stroke-linejoin="round"/>
</g>
<defs>
<clipPath id="clip0_2240_2039">
<rect width="36" height="37" fill="white"/>
</clipPath>
</defs>
</svg>
