<svg width="33" height="31" viewBox="0 0 33 31" fill="none" xmlns="http://www.w3.org/2000/svg">
<g clip-path="url(#clip0_2240_2009)">
<path d="M3.28294 1.4505H29.71C30.7203 1.4505 31.5711 2.35147 31.5711 3.42137V27.635C31.5711 28.7049 30.7203 29.6058 29.71 29.6058H3.28294C2.27265 29.6058 1.42188 28.7049 1.42188 27.635V3.42137C1.42188 2.29516 2.21947 1.4505 3.28294 1.4505Z" stroke="black" stroke-width="1.5" stroke-miterlimit="10" stroke-linecap="round" stroke-linejoin="round"/>
<path d="M1.42188 9.10876H31.5711" stroke="black" stroke-width="1.5" stroke-miterlimit="10" stroke-linecap="round" stroke-linejoin="round"/>
<path d="M19.875 15.5282L23.2249 18.569L19.875 21.7787" stroke="black" stroke-width="1.5" stroke-miterlimit="10" stroke-linecap="round" stroke-linejoin="round"/>
<path d="M13.0687 15.5282L9.71875 18.569L13.0687 21.7787" stroke="black" stroke-width="1.5" stroke-miterlimit="10" stroke-linecap="round" stroke-linejoin="round"/>
<path d="M18.8652 13.0505L14.1328 23.9747" stroke="black" stroke-width="1.5" stroke-miterlimit="10" stroke-linecap="round" stroke-linejoin="round"/>
<path d="M4.662 6.57478C5.30807 6.57478 5.83181 6.02013 5.83181 5.33594C5.83181 4.65175 5.30807 4.09711 4.662 4.09711C4.01593 4.09711 3.49219 4.65175 3.49219 5.33594C3.49219 6.02013 4.01593 6.57478 4.662 6.57478Z" stroke="black" stroke-width="1.5" stroke-miterlimit="10" stroke-linecap="round" stroke-linejoin="round"/>
<path d="M8.49012 6.57478C9.13619 6.57478 9.65993 6.02013 9.65993 5.33594C9.65993 4.65175 9.13619 4.09711 8.49012 4.09711C7.84406 4.09711 7.32031 4.65175 7.32031 5.33594C7.32031 6.02013 7.84406 6.57478 8.49012 6.57478Z" stroke="black" stroke-width="1.5" stroke-miterlimit="10" stroke-linecap="round" stroke-linejoin="round"/>
<path d="M12.3729 6.57478C13.019 6.57478 13.5427 6.02013 13.5427 5.33594C13.5427 4.65175 13.019 4.09711 12.3729 4.09711C11.7269 4.09711 11.2031 4.65175 11.2031 5.33594C11.2031 6.02013 11.7269 6.57478 12.3729 6.57478Z" stroke="black" stroke-width="1.5" stroke-miterlimit="10" stroke-linecap="round" stroke-linejoin="round"/>
<path d="M21.2578 5.33594H28.8616" stroke="black" stroke-width="1.5" stroke-miterlimit="10" stroke-linecap="round" stroke-linejoin="round"/>
</g>
<defs>
<clipPath id="clip0_2240_2009">
<rect width="33" height="31" fill="white"/>
</clipPath>
</defs>
</svg>
