<svg width="32" height="32" viewBox="0 0 32 32" fill="none" xmlns="http://www.w3.org/2000/svg">
<path d="M7.66667 11.0167L7.68333 10.9981M14.3333 11.0167L14.35 10.9981M7.66667 17.6833L7.68333 17.6648M14.3333 17.6833L14.35 17.6648M7.66667 24.35L7.68333 24.3315M14.3333 24.35C14.3398 24.3428 14.35 24.3315 14.35 24.3315M21 31H2C1.44772 31 1 30.5523 1 30V5.33333C1 4.78105 1.44772 4.33333 2 4.33333H11V2C11 1.44772 11.4477 1 12 1H20C20.5523 1 21 1.44772 21 2V11M21 31H30C30.5523 31 31 30.5523 31 30V12C31 11.4477 30.5523 11 30 11H21M21 31V24.3333M21 11V17.6667M21 24.3333V17.6667M21 24.3333H24.3333M21 17.6667H24.3333" stroke="white" stroke-width="2" stroke-linecap="round" stroke-linejoin="round"/>
</svg>
