<svg width="34" height="33" viewBox="0 0 34 33" fill="none" xmlns="http://www.w3.org/2000/svg">
<path d="M3.64844 19.8345V28.7595C3.64844 29.9595 4.61767 30.9287 5.81767 30.9287C7.01767 30.9287 7.9869 29.9595 7.9869 28.7595V19.8345" stroke="#E63E31" stroke-width="2" stroke-linecap="round" stroke-linejoin="round"/>
<path d="M18.5435 5.08252C15.7166 9.2306 10.1089 8.9479 10.1089 8.9479H3.2954C2.34348 8.9479 1.57617 9.71521 1.57617 10.6671V18.0171C1.57617 18.9691 2.34348 19.7364 3.2954 19.7364H10.0569C10.0569 19.7364 15.2896 19.6902 18.5377 23.7402" stroke="#E63E31" stroke-width="2" stroke-linecap="round" stroke-linejoin="round"/>
<path d="M20.9842 26.4231C19.7323 26.4231 18.7227 25.3731 18.7227 24.0692V4.43075C18.7227 3.13267 19.738 2.0769 20.9842 2.0769C22.2361 2.0769 23.2457 3.1269 23.4303 4.37883V24.0173C23.2457 25.3615 22.2361 26.4173 20.9842 26.4173V26.4231Z" stroke="#E63E31" stroke-width="2" stroke-linecap="round" stroke-linejoin="round"/>
<path d="M27.6367 14.3657H32.1136" stroke="#E63E31" stroke-width="2" stroke-linecap="round" stroke-linejoin="round"/>
<path d="M26.834 10.3154L29.4763 7.53467" stroke="#E63E31" stroke-width="2" stroke-linecap="round" stroke-linejoin="round"/>
<path d="M29.4763 20.9658L26.834 18.1851" stroke="#E63E31" stroke-width="2" stroke-linecap="round" stroke-linejoin="round"/>
</svg>
