<svg width="32" height="29" viewBox="0 0 32 29" fill="none" xmlns="http://www.w3.org/2000/svg">
<path d="M4.95243 18.9584L6.51094 15.5891C6.71101 15.1566 7.28899 15.1566 7.48906 15.5891L9.04758 18.9584L12.5329 19.5021C12.9801 19.5719 13.1583 20.1584 12.8346 20.495L10.3131 23.1158L10.9081 26.8184C10.9846 27.2939 10.5168 27.6563 10.1167 27.4318L7 25.6828L3.88329 27.4318C3.48316 27.6563 3.01545 27.2939 3.09187 26.8184L3.68695 23.1158L1.16545 20.495C0.841704 20.1584 1.01993 19.5719 1.46711 19.5021L4.95243 18.9584Z" stroke="#E63E31" stroke-width="2" stroke-linecap="round" stroke-linejoin="round"/>
<path d="M22.9524 18.9584L24.511 15.5891C24.711 15.1566 25.2891 15.1566 25.489 15.5891L27.0477 18.9584L30.5329 19.5021C30.9801 19.5719 31.1583 20.1584 30.8346 20.495L28.3131 23.1158L28.9081 26.8184C28.9846 27.2939 28.5169 27.6563 28.1167 27.4318L25 25.6828L21.8833 27.4318C21.4831 27.6563 21.0154 27.2939 21.0919 26.8184L21.687 23.1158L19.1655 20.495C18.8418 20.1584 19.02 19.5719 19.4671 19.5021L22.9524 18.9584Z" stroke="#E63E31" stroke-width="2" stroke-linecap="round" stroke-linejoin="round"/>
<path d="M13.9524 5.19376L15.511 1.8244C15.711 1.39187 16.2891 1.39187 16.489 1.8244L18.0477 5.19376L21.5329 5.73739C21.9801 5.80713 22.1583 6.39372 21.8346 6.73022L19.3131 9.35104L19.9081 13.0536C19.9846 13.5291 19.5169 13.8916 19.1167 13.6671L16 11.918L12.8833 13.6671C12.4832 13.8916 12.0155 13.5291 12.0919 13.0536L12.687 9.35104L10.1655 6.73022C9.84171 6.39372 10.0199 5.80713 10.4671 5.73739L13.9524 5.19376Z" stroke="#E63E31" stroke-width="2" stroke-linecap="round" stroke-linejoin="round"/>
</svg>
