<svg width="28" height="29" viewBox="0 0 28 29" fill="none" xmlns="http://www.w3.org/2000/svg">
<path d="M14.5104 28.0599C11.8304 28.0599 9.46035 27.5399 7.40035 26.4999C5.36035 25.4599 3.76035 23.9599 2.60035 21.9999C1.44035 20.0199 0.860352 17.6199 0.860352 14.7999V14.1699C0.860352 11.3699 1.41035 8.98994 2.51035 7.02994C3.61035 5.04994 5.14035 3.53994 7.10035 2.49994C9.08035 1.45994 11.3704 0.939941 13.9704 0.939941H14.6004C17.0804 0.939941 19.2604 1.44994 21.1404 2.46994C23.0204 3.46994 24.4904 4.89994 25.5504 6.75994C26.6104 8.61994 27.1404 10.8499 27.1404 13.4499V14.4699C27.1404 17.0099 26.6704 18.9099 25.7304 20.1699C24.8104 21.4299 23.5004 22.0599 21.8004 22.0599H20.8104C19.9904 22.0599 19.3704 21.8799 18.9504 21.5199C18.5304 21.1399 18.3204 20.6399 18.3204 20.0199V19.7199H17.9004C17.7404 20.1399 17.4804 20.5599 17.1204 20.9799C16.7804 21.3799 16.3104 21.7199 15.7104 21.9999C15.1304 22.2799 14.3804 22.4199 13.4604 22.4199C12.2804 22.4199 11.2204 22.0999 10.2804 21.4599C9.34035 20.8199 8.60035 19.9399 8.06035 18.8199C7.54035 17.6999 7.28035 16.4499 7.28035 15.0699V14.5299C7.28035 13.1099 7.54035 11.8499 8.06035 10.7499C8.58035 9.64994 9.30035 8.77994 10.2204 8.13994C11.1404 7.49994 12.1904 7.17994 13.3704 7.17994C14.2704 7.17994 15.0104 7.30994 15.5904 7.56994C16.1704 7.80994 16.6304 8.11994 16.9704 8.49994C17.3104 8.87994 17.5804 9.25994 17.7804 9.63994H18.2004V7.53994H20.5104V19.1799C20.5104 19.4799 20.5604 19.6899 20.6604 19.8099C20.7804 19.9299 20.9804 19.9899 21.2604 19.9899H21.6204C22.7404 19.9899 23.5404 19.5599 24.0204 18.6999C24.5204 17.8199 24.7704 16.3699 24.7704 14.3499V13.5099C24.7704 11.2899 24.3604 9.40994 23.5404 7.86994C22.7204 6.30994 21.5504 5.11994 20.0304 4.29994C18.5104 3.47994 16.6904 3.06994 14.5704 3.06994H14.0604C11.8804 3.06994 9.98035 3.48994 8.36035 4.32994C6.74035 5.16994 5.48035 6.41994 4.58035 8.07994C3.68035 9.73994 3.23035 11.7999 3.23035 14.2599V14.7399C3.23035 17.1799 3.70035 19.2399 4.64035 20.9199C5.60035 22.5799 6.94035 23.8299 8.66035 24.6699C10.3804 25.5099 12.3704 25.9299 14.6304 25.9299H20.5104V28.0599H14.5104ZM13.9104 20.2899C15.1704 20.2899 16.2004 19.8199 17.0004 18.8799C17.8004 17.9399 18.2004 16.6299 18.2004 14.9499V14.6499C18.2004 12.9699 17.8004 11.6599 17.0004 10.7199C16.2004 9.75994 15.1704 9.27994 13.9104 9.27994C12.6504 9.27994 11.6204 9.75994 10.8204 10.7199C10.0204 11.6799 9.62035 12.9799 9.62035 14.6199V14.9799C9.62035 16.5999 10.0204 17.8899 10.8204 18.8499C11.6204 19.8099 12.6504 20.2899 13.9104 20.2899Z" fill="#E63E31"/>
</svg>
