<svg width="27" height="37" viewBox="0 0 27 37" fill="none" xmlns="http://www.w3.org/2000/svg">
<g clip-path="url(#clip0_1888_25)">
<path d="M14.6833 18.9173C17.3362 18.1634 19.2786 15.7336 19.2786 12.8596C19.2786 9.37976 16.4429 6.55957 12.944 6.55957C9.44505 6.55957 6.60938 9.37976 6.60938 12.8596C6.60938 15.6865 8.48404 18.0826 11.0625 18.8769" stroke="#E43D30" stroke-width="2" stroke-linecap="round" stroke-linejoin="round"/>
<path d="M14.6836 23.9245C20.0775 23.0899 24.2058 18.4524 24.2058 12.8524C24.2058 10.3149 23.3598 7.97261 21.9251 6.09473" stroke="#E43D30" stroke-width="2" stroke-linecap="round" stroke-linejoin="round"/>
<path d="M12.2808 1.67285C6.36582 2.00939 1.67578 6.8892 1.67578 12.8527C1.67578 15.4104 2.53528 17.7661 3.99035 19.6507" stroke="#E43D30" stroke-width="2" stroke-linecap="round" stroke-linejoin="round"/>
<path d="M25.3237 35.3268V27.1489C25.3237 26.1729 24.5319 25.3854 23.5506 25.3854C22.5693 25.3854 21.7774 26.1729 21.7774 27.1489V25.7489C21.7774 24.7729 20.9856 23.9854 20.0043 23.9854C19.023 23.9854 18.2311 24.7729 18.2311 25.7489C18.2311 24.7729 17.4393 23.9854 16.458 23.9854C15.4767 23.9854 14.6849 24.7729 14.6849 25.7489V16.1912C14.6849 15.2152 13.893 14.4277 12.9117 14.4277C11.9304 14.4277 11.1386 15.2152 11.1386 16.1912V31.8941L8.99996 28.4008C8.47207 27.5393 7.3554 27.2566 6.48236 27.7614C5.63639 28.246 5.31154 29.296 5.73791 30.171L8.30288 35.3268" stroke="#E43D30" stroke-width="2" stroke-linecap="round" stroke-linejoin="round"/>
<path d="M14.6836 25.749V29.1884" stroke="#E43D30" stroke-width="2" stroke-linecap="round" stroke-linejoin="round"/>
<path d="M18.2305 25.749V29.4375" stroke="#E43D30" stroke-width="2" stroke-linecap="round" stroke-linejoin="round"/>
<path d="M21.7773 27.1489V29.4845" stroke="#E43D30" stroke-width="2" stroke-linecap="round" stroke-linejoin="round"/>
</g>
<defs>
<clipPath id="clip0_1888_25">
<rect width="27" height="37" fill="white"/>
</clipPath>
</defs>
</svg>
