<svg width="39" height="37" viewBox="0 0 39 37" fill="none" xmlns="http://www.w3.org/2000/svg">
<g clip-path="url(#clip0_1885_9)">
<path d="M4.08984 22.3906V32.8031C4.08984 34.2031 5.22147 35.3339 6.62252 35.3339C8.02358 35.3339 9.1552 34.2031 9.1552 32.8031V22.3906" stroke="#E43D30" stroke-width="2" stroke-linecap="round" stroke-linejoin="round"/>
<path d="M21.482 5.17969C18.1814 10.0191 11.6342 9.6893 11.6342 9.6893H3.67916C2.56774 9.6893 1.67188 10.5845 1.67188 11.6951V20.2701C1.67188 21.3806 2.56774 22.2758 3.67916 22.2758H11.5736C11.5736 22.2758 17.683 22.222 21.4753 26.947" stroke="#E43D30" stroke-width="2" stroke-linecap="round" stroke-linejoin="round"/>
<path d="M24.3319 30.0767C22.8702 30.0767 21.6914 28.8517 21.6914 27.3305V4.41901C21.6914 2.90458 22.8769 1.67285 24.3319 1.67285C25.7935 1.67285 26.9723 2.89785 27.1879 4.35843V27.27C26.9723 28.8382 25.7935 30.07 24.3319 30.07V30.0767Z" stroke="#E43D30" stroke-width="2" stroke-linecap="round" stroke-linejoin="round"/>
<path d="M32.1016 16.0098H37.3286" stroke="#E43D30" stroke-width="2" stroke-linecap="round" stroke-linejoin="round"/>
<path d="M31.1641 11.2848L34.2491 8.04053" stroke="#E43D30" stroke-width="2" stroke-linecap="round" stroke-linejoin="round"/>
<path d="M34.2491 23.7096L31.1641 20.4653" stroke="#E43D30" stroke-width="2" stroke-linecap="round" stroke-linejoin="round"/>
</g>
<defs>
<clipPath id="clip0_1885_9">
<rect width="39" height="37" fill="white"/>
</clipPath>
</defs>
</svg>
