<svg width="37" height="37" viewBox="0 0 37 37" fill="none" xmlns="http://www.w3.org/2000/svg">
<g clip-path="url(#clip0_1885_18)">
<path d="M18.5 1.67285C27.7952 1.67285 35.3269 9.20458 35.3269 18.4998C35.3269 25.2911 31.3019 31.1469 25.5067 33.8055" stroke="#E43D30" stroke-width="2" stroke-linecap="round" stroke-linejoin="round"/>
<path d="M18.4988 35.3267C9.20361 35.3267 1.67188 27.795 1.67188 18.4998C1.67188 11.769 5.62284 5.96037 11.3373 3.26807" stroke="#E43D30" stroke-width="2" stroke-linecap="round" stroke-linejoin="round"/>
<path d="M7.84375 2.06348L12.0639 2.72309L11.4447 6.67405" stroke="#E43D30" stroke-width="2" stroke-linecap="round" stroke-linejoin="round"/>
<path d="M28.8921 35.1116L24.6719 34.4519L25.2911 30.501" stroke="#E43D30" stroke-width="2" stroke-linecap="round" stroke-linejoin="round"/>
<path d="M18.5015 27.0616C23.0738 27.0616 26.7803 23.355 26.7803 18.7828C26.7803 14.2105 23.0738 10.5039 18.5015 10.5039C13.9292 10.5039 10.2227 14.2105 10.2227 18.7828C10.2227 23.355 13.9292 27.0616 18.5015 27.0616Z" stroke="#E43D30" stroke-width="2" stroke-linecap="round" stroke-linejoin="round"/>
</g>
<defs>
<clipPath id="clip0_1885_18">
<rect width="37" height="37" fill="white"/>
</clipPath>
</defs>
</svg>
