<svg width="46" height="37" viewBox="0 0 46 37" fill="none" xmlns="http://www.w3.org/2000/svg">
<g clip-path="url(#clip0_1808_46)">
<path d="M27.8568 29.7188C33.8011 29.7188 38.6199 24.8915 38.6199 18.9366C38.6199 12.9817 33.8011 8.1543 27.8568 8.1543C21.9125 8.1543 17.0938 12.9817 17.0938 18.9366C17.0938 24.8915 21.9125 29.7188 27.8568 29.7188Z" stroke="#E43D30" stroke-width="2" stroke-linecap="round" stroke-linejoin="round"/>
<path d="M35.5234 26.5063L44.1542 35.1525" stroke="#E43D30" stroke-width="2" stroke-linecap="round" stroke-linejoin="round"/>
<path d="M20.6661 10.8837H6.35766C3.86996 10.8837 1.84766 8.85783 1.84766 6.3657C1.84766 3.87357 3.86996 1.84766 6.35766 1.84766H27.0038C29.4915 1.84766 31.5138 3.87357 31.5138 6.3657C31.5138 7.17946 31.3023 7.94235 30.9215 8.60353" stroke="#E43D30" stroke-width="2" stroke-linecap="round" stroke-linejoin="round"/>
<path d="M7.21875 6.36572H20.6641" stroke="#E43D30" stroke-width="2" stroke-linecap="round" stroke-linejoin="round"/>
</g>
<defs>
<clipPath id="clip0_1808_46">
<rect width="46" height="37" fill="white"/>
</clipPath>
</defs>
</svg>
