<svg width="36" height="37" viewBox="0 0 36 37" fill="none" xmlns="http://www.w3.org/2000/svg">
<g clip-path="url(#clip0_1817_71)">
<path d="M21.6262 34.519V30.2921C22.4612 30.043 23.2624 29.7065 24.0295 29.2959L26.331 31.6113C26.6841 31.968 27.2612 31.968 27.6142 31.6113L31.4636 27.7479C31.8167 27.3911 31.8167 26.8123 31.4636 26.4623L29.1621 24.1469C29.5763 23.3796 29.9089 22.5719 30.1533 21.7305H33.4121C33.9145 21.7305 34.3219 21.32 34.3219 20.8219V15.3565C34.3219 14.8517 33.9145 14.4479 33.4121 14.4479H30.1533C29.9089 13.6132 29.5763 12.7988 29.1621 12.0315L31.4636 9.71612C31.8167 9.35939 31.8167 8.78054 31.4636 8.43054L27.6142 4.56708C27.2612 4.21035 26.6841 4.21035 26.331 4.56708L24.0295 6.88247C23.2624 6.46516 22.4612 6.13535 21.6262 5.88631V2.58151C21.6262 2.0767 21.2188 1.67285 20.7164 1.67285H15.2783C14.7759 1.67285 14.3686 2.08343 14.3686 2.58151V5.85939C13.5335 6.10843 12.7324 6.44497 11.9652 6.85554L9.66371 4.54016C9.31068 4.18343 8.7336 4.18343 8.38057 4.54016L4.53112 8.40362C4.17809 8.76035 4.17809 9.3392 4.53112 9.6892L6.83264 12.0046C6.41851 12.7719 6.08584 13.5796 5.84143 14.4209H2.58943C2.08704 14.4209 1.67969 14.8315 1.67969 15.3296V20.8017C1.69327 21.2998 2.09382 21.6969 2.58943 21.7104H5.84822C6.09263 22.545 6.42529 23.3594 6.83943 24.1267L4.53791 26.4421C4.18488 26.7988 4.18488 27.3777 4.53791 27.7277L8.38736 31.5911C8.74039 31.9479 9.31747 31.9479 9.6705 31.5911L11.972 29.2757C12.7392 29.693 13.5403 30.0229 14.3754 30.2719V34.4988C14.3754 34.943 14.7352 35.3065 15.1833 35.3065H20.8251C21.2663 35.3065 21.6262 34.943 21.6262 34.4988V34.519Z" stroke="#E43D30" stroke-width="2" stroke-linecap="round" stroke-linejoin="round"/>
<path d="M23.8381 23.945C20.6133 27.1825 15.3857 27.1825 12.1608 23.945C8.93598 20.7075 8.93598 15.4508 12.1608 12.2133C15.3857 8.97578 20.6133 8.97578 23.8381 12.2133C27.063 15.4508 27.063 20.7075 23.8381 23.945Z" stroke="#E43D30" stroke-width="2" stroke-linecap="round" stroke-linejoin="round"/>
</g>
<defs>
<clipPath id="clip0_1817_71">
<rect width="36" height="37" fill="white"/>
</clipPath>
</defs>
</svg>
