<svg width="52" height="52" viewBox="0 0 52 52" fill="none" xmlns="http://www.w3.org/2000/svg">
<g clip-path="url(#clip0_1808_10)">
<path d="M50.9983 37.99C48.4083 43.32 42.9383 47 36.6183 47C30.2983 47 24.8283 43.32 22.2383 37.99C24.8283 32.66 30.2983 28.98 36.6183 28.98C42.9383 28.98 48.4083 32.66 50.9983 37.99Z" stroke="#E43D30" stroke-width="2" stroke-linecap="round" stroke-linejoin="round"/>
<path d="M37.3886 33.74L38.2286 35.15C38.4586 35.53 38.8286 35.81 39.2686 35.91L40.8686 36.27C41.5286 36.42 41.7986 37.22 41.3486 37.73L40.2586 38.96C39.9586 39.29 39.8186 39.74 39.8586 40.18L40.0186 41.81C40.0786 42.49 39.3986 42.99 38.7686 42.71L37.2586 42.06C36.8486 41.88 36.3786 41.88 35.9786 42.06L34.4686 42.71C33.8486 42.98 33.1586 42.48 33.2186 41.81L33.3786 40.18C33.4186 39.74 33.2786 39.29 32.9786 38.96L31.8886 37.73C31.4386 37.22 31.6986 36.41 32.3686 36.27L33.9686 35.91C34.4086 35.81 34.7786 35.54 35.0086 35.15L35.8486 33.74C36.1986 33.15 37.0386 33.15 37.3886 33.74Z" stroke="#E43D30" stroke-width="2" stroke-linecap="round" stroke-linejoin="round"/>
<path d="M24.08 51H7.92C4.1 51 1 47.9 1 44.08V7.92C1 4.1 4.1 1 7.92 1H44.08C47.9 1 51 4.1 51 7.92V24.08" stroke="#E43D30" stroke-width="2" stroke-linecap="round" stroke-linejoin="round"/>
<path d="M1 13.8101H51" stroke="#E43D30" stroke-width="2" stroke-linecap="round" stroke-linejoin="round"/>
</g>
<defs>
<clipPath id="clip0_1808_10">
<rect width="52" height="52" fill="white"/>
</clipPath>
</defs>
</svg>
