<svg width="61" height="52" viewBox="0 0 61 52" fill="none" xmlns="http://www.w3.org/2000/svg">
<path d="M6.67066 33.0816C-0.890221 24.2225 -0.890221 9.85917 6.67066 1.00012M10.7201 28.3369C5.39561 22.0983 5.39561 11.9834 10.7201 5.74479M14.8501 23.4977C11.8066 19.9317 11.8066 14.15 14.8501 10.584M54.1886 33.0816C61.7495 24.2225 61.7495 9.85917 54.1886 1.00012M50.1392 28.3369C55.4637 22.0983 55.4637 11.9834 50.1392 5.74479M46.0092 23.4977C49.0527 19.9317 49.0527 14.15 46.0092 10.584M11.8679 51.0001L18.482 35.2639C19.1057 33.7798 20.5586 32.8144 22.1685 32.8144H38.6909C40.3007 32.8144 41.7536 33.7798 42.3774 35.2639L48.9915 51.0001M19.4879 50.9997L22.4594 41.6316M41.3715 50.9997L38.4 41.6316M39.1429 17.5527C39.1429 22.3649 35.2419 26.2659 30.4297 26.2659C25.6175 26.2659 21.7165 22.3649 21.7165 17.5527C21.7165 12.7406 25.6175 8.83953 30.4297 8.83953C35.2419 8.83953 39.1429 12.7406 39.1429 17.5527Z" stroke="#E43D30" stroke-width="2" stroke-linecap="round" stroke-linejoin="round"/>
</svg>
