<svg width="52" height="52" viewBox="0 0 52 52" fill="none" xmlns="http://www.w3.org/2000/svg">
<path d="M1 51.0001V39.6112C1 36.6644 2.17063 33.8382 4.25437 31.7545C6.33811 29.6708 9.16426 28.5001 12.1111 28.5001H23.2222C26.1691 28.5001 28.9952 29.6708 31.079 31.7545C33.1627 33.8382 34.3333 36.6644 34.3333 39.6112V51.0001M37.1111 1.36123C39.5012 1.97318 41.6195 3.36318 43.1323 5.3121C44.6451 7.26101 45.4662 9.65798 45.4662 12.1251C45.4662 14.5923 44.6451 16.9892 43.1323 18.9381C41.6195 20.8871 39.5012 22.2771 37.1111 22.889M51 51.0001V39.6112C50.9859 37.1589 50.1609 34.7801 48.6535 32.8457C47.1462 30.9112 45.0412 29.5298 42.6667 28.9168M6.55556 12.1112C6.55556 15.0581 7.72619 17.8842 9.80992 19.968C11.8937 22.0517 14.7198 23.2223 17.6667 23.2223C20.6135 23.2223 23.4397 22.0517 25.5234 19.968C27.6071 17.8842 28.7778 15.0581 28.7778 12.1112C28.7778 9.16438 27.6071 6.33823 25.5234 4.25449C23.4397 2.17075 20.6135 1.00012 17.6667 1.00012C14.7198 1.00012 11.8937 2.17075 9.80992 4.25449C7.72619 6.33823 6.55556 9.16438 6.55556 12.1112Z" stroke="#E43D30" stroke-width="2" stroke-linecap="round" stroke-linejoin="round"/>
</svg>
