<svg width="52" height="52" viewBox="0 0 52 52" fill="none" xmlns="http://www.w3.org/2000/svg">
<path d="M10.5023 32.1521C7.26006 33.9825 4.63838 36.7395 2.9733 40.0696C1.30823 43.3998 0.675647 47.1513 1.15665 50.8433C4.84867 51.3244 8.60021 50.6918 11.9304 49.0267C15.2605 47.3616 18.0175 44.7399 19.8479 41.4977M1.15665 29.0369C6.71136 29.697 11.8825 32.2067 15.8379 36.1621C19.7933 40.1175 22.303 45.2886 22.9631 50.8433C25.7167 49.2559 28.02 46.9924 29.6553 44.2669C31.2906 41.5415 32.2038 38.444 32.3087 35.2673C37.5395 33.4272 42.1072 30.0773 45.4342 25.6413C48.7612 21.2053 50.6981 15.8824 51 10.3456C51 7.86701 50.0154 5.48992 48.2627 3.73727C46.5101 1.98463 44.133 1 41.6544 1C36.1176 1.30189 30.7947 3.23879 26.3587 6.56579C21.9227 9.8928 18.5728 14.4605 16.7327 19.6913C13.556 19.7962 10.4585 20.7094 7.73306 22.3447C5.00758 23.98 2.74413 26.2833 1.15665 29.0369ZM32.3087 16.576C32.3087 17.4023 32.637 18.1946 33.2212 18.7788C33.8054 19.363 34.5977 19.6913 35.424 19.6913C36.2502 19.6913 37.0425 19.363 37.6267 18.7788C38.211 18.1946 38.5392 17.4023 38.5392 16.576C38.5392 15.7498 38.211 14.9575 37.6267 14.3733C37.0425 13.789 36.2502 13.4608 35.424 13.4608C34.5977 13.4608 33.8054 13.789 33.2212 14.3733C32.637 14.9575 32.3087 15.7498 32.3087 16.576Z" stroke="#E43D30" stroke-width="2" stroke-linecap="round" stroke-linejoin="round"/>
</svg>
