<svg width="46" height="52" viewBox="0 0 46 52" fill="none" xmlns="http://www.w3.org/2000/svg">
<path d="M0.29216 23.028C-0.097959 23.4189 -0.097302 24.0521 0.293628 24.4422C0.684557 24.8323 1.31772 24.8317 1.70784 24.4407L0.29216 23.028ZM17.3903 7.31002L18.0981 6.60365C17.9105 6.41566 17.6558 6.31002 17.3903 6.31002C17.1247 6.31002 16.87 6.41566 16.6824 6.60365L17.3903 7.31002ZM28.0466 17.9885L27.3388 18.6948C27.5264 18.8828 27.7811 18.9885 28.0466 18.9885C28.3122 18.9885 28.5669 18.8828 28.7545 18.6948L28.0466 17.9885ZM46 0.998966C45.9994 0.446681 45.5513 -0.000570655 44.999 5.36442e-07L35.999 0.00930935C35.4467 0.0098806 34.9994 0.458059 35 1.01034C35.0006 1.56263 35.4488 2.00988 36.001 2.00931L44.001 2.00103L44.0093 10.001C44.0099 10.5533 44.4581 11.0006 45.0103 11C45.5626 10.9994 46.0099 10.5512 46.0093 9.99896L46 0.998966ZM2 32.1901C2 31.6378 1.55228 31.1901 1 31.1901C0.447715 31.1901 0 31.6378 0 32.1901H2ZM0 51C0 51.5523 0.447715 52 1 52C1.55228 52 2 51.5523 2 51H0ZM46 22.3045C46 21.7522 45.5523 21.3045 45 21.3045C44.4477 21.3045 44 21.7522 44 22.3045H46ZM44 51C44 51.5523 44.4477 52 45 52C45.5523 52 46 51.5523 46 51H44ZM15.0038 22.3044C15.0038 21.7521 14.5561 21.3044 14.0038 21.3044C13.4516 21.3044 13.0038 21.7521 13.0038 22.3044H15.0038ZM13.0038 51C13.0038 51.5523 13.4516 52 14.0038 52C14.5561 52 15.0038 51.5523 15.0038 51H13.0038ZM30.76 26.6676C30.76 26.1153 30.3123 25.6676 29.76 25.6676C29.2077 25.6676 28.76 26.1153 28.76 26.6676H30.76ZM28.76 51C28.76 51.5523 29.2077 52 29.76 52C30.3123 52 30.76 51.5523 30.76 51H28.76ZM1.70784 24.4407L18.0981 8.01639L16.6824 6.60365L0.29216 23.028L1.70784 24.4407ZM16.6824 8.0164L27.3388 18.6948L28.7545 17.2821L18.0981 6.60365L16.6824 8.0164ZM28.7545 18.6948L45.7078 1.70638L44.2922 0.293625L27.3388 17.2821L28.7545 18.6948ZM0 32.1901V51H2V32.1901H0ZM44 22.3045V51H46V22.3045H44ZM13.0038 22.3044V51H15.0038V22.3044H13.0038ZM28.76 26.6676V51H30.76V26.6676H28.76Z" fill="#E43D30"/>
</svg>
