<svg width="38" height="39" viewBox="0 0 38 39" fill="none" xmlns="http://www.w3.org/2000/svg">
<path d="M23.0634 9.48824L19.9179 12.5543L16.7724 9.48824C16.5649 9.28954 16.4015 9.05072 16.2924 8.7868C16.1833 8.52289 16.1309 8.23961 16.1385 7.95479C16.1462 7.66998 16.2136 7.3898 16.3367 7.1319C16.4597 6.87401 16.6357 6.64398 16.8535 6.4563C17.0713 6.26863 17.3263 6.12737 17.6023 6.04143C17.8783 5.95549 18.1694 5.92673 18.4572 5.95695C18.7451 5.98717 19.0235 6.07573 19.2749 6.21704C19.5262 6.35835 19.7452 6.54935 19.9179 6.77802C20.0913 6.55101 20.3105 6.36167 20.5617 6.22186C20.8129 6.08205 21.0907 5.99478 21.3778 5.9655C21.6648 5.93622 21.9549 5.96557 22.2299 6.05172C22.5049 6.13786 22.7589 6.27894 22.9759 6.46612C23.193 6.65331 23.3684 6.88257 23.4913 7.13956C23.6142 7.39655 23.6819 7.67574 23.6901 7.95965C23.6983 8.24356 23.6468 8.52608 23.539 8.78953C23.4312 9.05298 23.2692 9.29169 23.0634 9.49072M19.9144 15.8613C16.0036 15.8613 12.8333 12.6904 12.8333 8.78025C12.8333 4.87012 16.0036 1.69922 19.9144 1.69922C23.8251 1.69922 26.9954 4.87012 26.9954 8.78025C26.9954 12.6904 23.8251 15.8613 19.9144 15.8613Z" stroke="#E63E31" stroke-width="1.64444" stroke-linecap="round" stroke-linejoin="round"/>
<path d="M12.2369 34.4228L9.8996 36.76C9.50722 37.1524 8.87598 37.1524 8.4836 36.76L1.61683 29.8933C1.52347 29.8005 1.44937 29.6902 1.39881 29.5687C1.34825 29.4472 1.32222 29.3169 1.32222 29.1853C1.32222 29.0536 1.34825 28.9233 1.39881 28.8018C1.44937 28.6803 1.52347 28.57 1.61683 28.4773L3.95409 26.14C4.34648 25.7476 4.97771 25.7476 5.3701 26.14L12.2369 33.0068C12.6292 33.3906 12.6292 34.0304 12.2369 34.4228Z" stroke="#E63E31" stroke-width="1.64444" stroke-linecap="round" stroke-linejoin="round"/>
<path d="M5.54092 26.3023L11.7338 20.1094H23.0618C24.4011 20.1094 25.4929 21.1927 25.4929 22.5405C25.4929 23.8797 24.4096 24.9716 23.0618 24.9716H16.9031" stroke="#E63E31" stroke-width="1.64444" stroke-linecap="round" stroke-linejoin="round"/>
<path d="M12.0665 32.8283L25.1773 31.0796L36.2751 19.9478C36.7585 19.4632 37.0299 18.8067 37.0299 18.1223C37.0299 17.4379 36.7585 16.7814 36.2751 16.2969C35.7905 15.8135 35.134 15.542 34.4496 15.542C33.7652 15.542 33.1087 15.8135 32.6242 16.2969L28.5382 20.3828" stroke="#E63E31" stroke-width="1.64444" stroke-linecap="round" stroke-linejoin="round"/>
</svg>
