<svg width="40" height="38" viewBox="0 0 40 38" fill="none" xmlns="http://www.w3.org/2000/svg">
<path d="M4.56226 23.0547V33.3742C4.56226 34.7617 5.68293 35.8824 7.07043 35.8824C8.45793 35.8824 9.5786 34.7617 9.5786 33.3742V23.0547" stroke="#E63E31" stroke-width="2" stroke-linecap="round" stroke-linejoin="round"/>
<path d="M21.7846 5.99805C18.516 10.7943 12.0321 10.4674 12.0321 10.4674H4.15406C3.0534 10.4674 2.1662 11.3546 2.1662 12.4553V20.9537C2.1662 22.0544 3.0534 22.9416 4.15406 22.9416H11.9721C11.9721 22.9416 18.0224 22.8882 21.778 27.571" stroke="#E63E31" stroke-width="2" stroke-linecap="round" stroke-linejoin="round"/>
<path d="M24.6067 30.6727C23.1592 30.6727 21.9918 29.4586 21.9918 27.9511V5.2441C21.9918 3.74319 23.1659 2.52246 24.6067 2.52246C26.0543 2.52246 27.2216 3.73652 27.4351 5.18406V27.891C27.2216 29.4453 26.0543 30.666 24.6067 30.666V30.6727Z" stroke="#E63E31" stroke-width="2" stroke-linecap="round" stroke-linejoin="round"/>
<path d="M32.2987 16.7314H37.4752" stroke="#E63E31" stroke-width="2" stroke-linecap="round" stroke-linejoin="round"/>
<path d="M31.3705 12.0483L34.4257 8.83301" stroke="#E63E31" stroke-width="2" stroke-linecap="round" stroke-linejoin="round"/>
<path d="M34.4257 24.3627L31.3705 21.1475" stroke="#E63E31" stroke-width="2" stroke-linecap="round" stroke-linejoin="round"/>
</svg>
