<svg width="40" height="40" viewBox="0 0 40 40" fill="none" xmlns="http://www.w3.org/2000/svg">
<path d="M22.5517 21.908H11.4755C9.33998 21.908 7.60879 23.6352 7.60879 25.7658V33.3223M33.7155 20.1992V4.25094C33.7155 2.84166 32.5731 1.69922 31.1638 1.69922H4.37069C2.96142 1.69922 1.81897 2.84166 1.81897 4.25094V31.044C1.81897 32.4533 2.96142 33.5958 4.37069 33.5958H19.3621M33.3988 30.9482L29.5732 34.6772L25.7476 30.9482C25.4953 30.7066 25.2965 30.4161 25.1639 30.0951C25.0312 29.7741 24.9675 29.4296 24.9768 29.0832C24.986 28.7368 25.0681 28.3961 25.2177 28.0824C25.3674 27.7687 25.5814 27.489 25.8463 27.2607C26.1112 27.0325 26.4213 26.8607 26.757 26.7562C27.0927 26.6516 27.4467 26.6166 27.7968 26.6534C28.1469 26.6902 28.4855 26.7979 28.7912 26.9697C29.0969 27.1416 29.3632 27.3739 29.5732 27.652C29.7842 27.3759 30.0507 27.1456 30.3562 26.9756C30.6618 26.8056 30.9997 26.6994 31.3488 26.6638C31.6979 26.6282 32.0507 26.6639 32.3852 26.7687C32.7196 26.8734 33.0285 27.045 33.2925 27.2727C33.5565 27.5003 33.7699 27.7792 33.9193 28.0917C34.0688 28.4043 34.1511 28.7438 34.161 29.0891C34.171 29.4344 34.1085 29.778 33.9773 30.0984C33.8462 30.4189 33.6492 30.7092 33.3988 30.9512M17.8156 19.1016C14.9417 19.1016 12.6118 16.7763 12.6118 13.909C12.6118 11.0417 14.9417 8.71646 17.8156 8.71646C20.6896 8.71646 23.0194 11.0417 23.0194 13.909C23.0194 16.7763 20.6896 19.1016 17.8156 19.1016ZM29.569 38.6992C24.8127 38.6992 20.9569 34.8427 20.9569 30.0872C20.9569 25.3316 24.8127 21.4751 29.569 21.4751C34.3253 21.4751 38.181 25.3316 38.181 30.0872C38.181 34.8427 34.3253 38.6992 29.569 38.6992Z" stroke="#E63E31" stroke-width="2" stroke-linecap="round" stroke-linejoin="round"/>
</svg>
