<svg width="36" height="38" viewBox="0 0 36 38" fill="none" xmlns="http://www.w3.org/2000/svg">
<path d="M21.9465 34.8462V30.6192C22.7815 30.3702 23.5827 30.0337 24.3498 29.6231L26.6514 31.9385C27.0044 32.2952 27.5815 32.2952 27.9345 31.9385L31.7839 28.075C32.137 27.7183 32.137 27.1394 31.7839 26.7894L29.4824 24.474C29.8966 23.7067 30.2292 22.899 30.4736 22.0577H33.7324C34.2348 22.0577 34.6422 21.6471 34.6422 21.149V15.6837C34.6422 15.1788 34.2348 14.775 33.7324 14.775H30.4736C30.2292 13.9404 29.8966 13.126 29.4824 12.3587L31.7839 10.0433C32.137 9.68654 32.137 9.10769 31.7839 8.75769L27.9345 4.89423C27.5815 4.5375 27.0044 4.5375 26.6514 4.89423L24.3498 7.20962C23.5827 6.79231 22.7815 6.4625 21.9465 6.21346V2.90865C21.9465 2.40385 21.5391 2 21.0367 2H15.5986C15.0962 2 14.6889 2.41058 14.6889 2.90865V6.18654C13.8538 6.43558 13.0527 6.77212 12.2855 7.18269L9.98403 4.86731C9.63099 4.51058 9.05391 4.51058 8.70088 4.86731L4.85144 8.73077C4.4984 9.0875 4.4984 9.66635 4.85144 10.0163L7.15296 12.3317C6.73882 13.099 6.40615 13.9067 6.16174 14.7481H2.90974C2.40735 14.7481 2 15.1587 2 15.6567V21.1288C2.01358 21.6269 2.41414 22.024 2.90974 22.0375H6.16853C6.41294 22.8721 6.74561 23.6865 7.15974 24.4538L4.85823 26.7692C4.50519 27.126 4.50519 27.7048 4.85823 28.0548L8.70767 31.9183C9.0607 32.275 9.63778 32.275 9.99081 31.9183L12.2923 29.6029C13.0595 30.0202 13.8606 30.35 14.6957 30.599V34.826C14.6957 35.2702 15.0555 35.6337 15.5036 35.6337H21.1454C21.5867 35.6337 21.9465 35.2702 21.9465 34.826V34.8462Z" stroke="#E63E31" stroke-width="2" stroke-linecap="round" stroke-linejoin="round"/>
<path d="M23.8381 24.6442C20.6133 27.8817 15.3857 27.8817 12.1608 24.6442C8.93598 21.4067 8.93598 16.15 12.1608 12.9125C15.3857 9.675 20.6133 9.675 23.8381 12.9125C27.063 16.15 27.063 21.4067 23.8381 24.6442Z" stroke="#E63E31" stroke-width="2" stroke-linecap="round" stroke-linejoin="round"/>
</svg>
