<svg width="47" height="52" viewBox="0 0 47 52" fill="none" xmlns="http://www.w3.org/2000/svg">
<path d="M0.79216 23.028C0.402041 23.4189 0.402698 24.0521 0.793628 24.4422C1.18456 24.8323 1.81772 24.8317 2.20784 24.4407L0.79216 23.028ZM17.8903 7.31002L18.5981 6.60365C18.4105 6.41566 18.1558 6.31002 17.8903 6.31002C17.6247 6.31002 17.37 6.41566 17.1824 6.60365L17.8903 7.31002ZM28.5466 17.9885L27.8388 18.6948C28.0264 18.8828 28.2811 18.9885 28.5466 18.9885C28.8122 18.9885 29.0669 18.8828 29.2545 18.6948L28.5466 17.9885ZM46.5 0.998966C46.4994 0.446681 46.0513 -0.000570655 45.499 5.36442e-07L36.499 0.00930935C35.9467 0.0098806 35.4994 0.458059 35.5 1.01034C35.5006 1.56263 35.9488 2.00988 36.501 2.00931L44.501 2.00103L44.5093 10.001C44.5099 10.5533 44.9581 11.0006 45.5103 11C46.0626 10.9994 46.5099 10.5512 46.5093 9.99896L46.5 0.998966ZM2.5 32.1901C2.5 31.6378 2.05228 31.1901 1.5 31.1901C0.947715 31.1901 0.5 31.6378 0.5 32.1901H2.5ZM0.5 51C0.5 51.5523 0.947715 52 1.5 52C2.05228 52 2.5 51.5523 2.5 51H0.5ZM46.5 22.3045C46.5 21.7522 46.0523 21.3045 45.5 21.3045C44.9477 21.3045 44.5 21.7522 44.5 22.3045H46.5ZM44.5 51C44.5 51.5523 44.9477 52 45.5 52C46.0523 52 46.5 51.5523 46.5 51H44.5ZM15.5038 22.3044C15.5038 21.7521 15.0561 21.3044 14.5038 21.3044C13.9516 21.3044 13.5038 21.7521 13.5038 22.3044H15.5038ZM13.5038 51C13.5038 51.5523 13.9516 52 14.5038 52C15.0561 52 15.5038 51.5523 15.5038 51H13.5038ZM31.26 26.6676C31.26 26.1153 30.8123 25.6676 30.26 25.6676C29.7077 25.6676 29.26 26.1153 29.26 26.6676H31.26ZM29.26 51C29.26 51.5523 29.7077 52 30.26 52C30.8123 52 31.26 51.5523 31.26 51H29.26ZM1.5 23.7343L2.20784 24.4407L18.5981 8.01639L17.8903 7.31002L17.1824 6.60365L0.79216 23.028L1.5 23.7343ZM17.8903 7.31002L17.1824 8.0164L27.8388 18.6948L28.5466 17.9885L29.2545 17.2821L18.5981 6.60365L17.8903 7.31002ZM28.5466 17.9885L29.2545 18.6948L46.2078 1.70638L45.5 1L44.7922 0.293625L27.8388 17.2821L28.5466 17.9885ZM1.5 32.1901H0.5V51H1.5H2.5V32.1901H1.5ZM45.5 22.3045H44.5V51H45.5H46.5V22.3045H45.5ZM14.5038 22.3044H13.5038V51H14.5038H15.5038V22.3044H14.5038ZM30.26 26.6676H29.26V51H30.26H31.26V26.6676H30.26Z" fill="#E43D30"/>
</svg>
