<svg width="36" height="34" viewBox="0 0 36 34" fill="none" xmlns="http://www.w3.org/2000/svg">
<path d="M18.0002 1V4.96394M18.0002 33V29.0361M28.9179 3.73307L27.2968 7.35038M28.9179 30.2669L27.2968 26.6496M7.08236 3.73307L8.70345 7.35038M7.08236 30.2669L8.70345 26.6496M14.587 17C14.587 15.1149 16.1151 13.5868 18.0002 13.5868M24.1745 16.9999C24.1745 20.4099 21.4102 23.1742 18.0002 23.1742C14.5903 23.1742 11.8259 20.4099 11.8259 16.9999C11.8259 13.5899 14.5903 10.8256 18.0002 10.8256C21.4102 10.8256 24.1745 13.5899 24.1745 16.9999ZM1.73438 17.0155C5.72358 11.4932 11.5327 8.01558 18.0003 8.01558C24.4678 8.01558 30.277 11.4932 34.2662 17.0155C30.277 22.5377 24.4678 25.9841 18.0003 25.9841C11.5327 25.9841 5.72358 22.5377 1.73438 17.0155Z" stroke="#E43D30" stroke-width="2" stroke-linecap="round"/>
</svg>
