<svg width="32" height="34" viewBox="0 0 32 34" fill="none" xmlns="http://www.w3.org/2000/svg">
<path d="M25.588 25.3926L24.1765 21.0786L22.765 25.3926H18.1973L21.8926 28.0588L20.4811 32.3727L24.1765 29.7066L27.8719 32.3727L26.4604 28.0588L30.1557 25.3926H25.588Z" stroke="#E43D30" stroke-width="2" stroke-linecap="round" stroke-linejoin="round"/>
<path d="M6.90234 8.05691C6.90234 9.67885 7.54665 11.2343 8.69353 12.3812C9.84041 13.5281 11.3959 14.1724 13.0179 14.1724C14.6398 14.1724 16.1953 13.5281 17.3422 12.3812C18.489 11.2343 19.1334 9.67885 19.1334 8.05691C19.1334 6.43498 18.489 4.87948 17.3422 3.7326C16.1953 2.58572 14.6398 1.94141 13.0179 1.94141C11.3959 1.94141 9.84041 2.58572 8.69353 3.7326C7.54665 4.87948 6.90234 6.43498 6.90234 8.05691Z" stroke="#E43D30" stroke-width="2" stroke-linecap="round" stroke-linejoin="round"/>
<path d="M1.88281 32.213V23.1927C1.88281 21.5707 2.52712 20.0152 3.674 18.8683C4.82088 17.7215 6.37639 17.0771 7.99832 17.0771H19.9463C21.5682 17.0771 23.1237 17.7215 24.2706 18.8683" stroke="#E43D30" stroke-width="2" stroke-linecap="round" stroke-linejoin="round"/>
</svg>
