<svg width="32" height="34" viewBox="0 0 32 34" fill="none" xmlns="http://www.w3.org/2000/svg">
<path d="M1.21208 14.8436C0.821963 15.2345 0.82262 15.8677 1.21355 16.2578C1.60448 16.6479 2.23764 16.6473 2.62776 16.2564L1.21208 14.8436ZM12.4097 5.03841L13.1175 4.33204C12.9299 4.14405 12.6753 4.03841 12.4097 4.03841C12.1441 4.03841 11.8894 4.14406 11.7019 4.33204L12.4097 5.03841ZM19.2298 11.8726L18.5219 12.579C18.7095 12.767 18.9642 12.8726 19.2298 12.8726C19.4953 12.8726 19.75 12.767 19.9376 12.579L19.2298 11.8726ZM31.0799 0.998966C31.0793 0.446681 30.6312 -0.000570723 30.0789 5.34944e-07L21.0789 0.00930972C20.5266 0.00988098 20.0794 0.458059 20.0799 1.01034C20.0805 1.56263 20.5287 2.00988 21.081 2.00931L29.081 2.00103L29.0892 10.001C29.0898 10.5533 29.538 11.0006 30.0903 11C30.6425 10.9994 31.0898 10.5512 31.0892 9.99896L31.0799 0.998966ZM2.91992 20.9617C2.91992 20.4094 2.47221 19.9617 1.91992 19.9617C1.36764 19.9617 0.919922 20.4094 0.919922 20.9617H2.91992ZM0.919922 33C0.919922 33.5523 1.36764 34 1.91992 34C2.47221 34 2.91992 33.5523 2.91992 33H0.919922ZM31.0799 14.6349C31.0799 14.0826 30.6322 13.6349 30.0799 13.6349C29.5276 13.6349 29.0799 14.0826 29.0799 14.6349H31.0799ZM29.0799 33C29.0799 33.5523 29.5276 34 30.0799 34C30.6322 34 31.0799 33.5523 31.0799 33H29.0799ZM11.2424 14.6348C11.2424 14.0825 10.7947 13.6348 10.2424 13.6348C9.6901 13.6348 9.24238 14.0825 9.24238 14.6348H11.2424ZM9.24238 33C9.24238 33.5523 9.6901 34 10.2424 34C10.7947 34 11.2424 33.5523 11.2424 33H9.24238ZM21.3263 17.4273C21.3263 16.875 20.8786 16.4273 20.3263 16.4273C19.7741 16.4273 19.3263 16.875 19.3263 17.4273H21.3263ZM19.3263 33C19.3263 33.5523 19.7741 34 20.3263 34C20.8786 34 21.3263 33.5523 21.3263 33H19.3263ZM2.62776 16.2564L13.1175 5.74479L11.7019 4.33204L1.21208 14.8436L2.62776 16.2564ZM11.7019 5.74479L18.5219 12.579L19.9376 11.1662L13.1175 4.33204L11.7019 5.74479ZM19.9376 12.579L30.7878 1.70638L29.3721 0.293625L18.5219 11.1662L19.9376 12.579ZM0.919922 20.9617V33H2.91992V20.9617H0.919922ZM29.0799 14.6349V33H31.0799V14.6349H29.0799ZM9.24238 14.6348V33H11.2424V14.6348H9.24238ZM19.3263 17.4273V33H21.3263V17.4273H19.3263Z" fill="#E43D30"/>
</svg>
