<svg width="42" height="34" viewBox="0 0 42 34" fill="none" xmlns="http://www.w3.org/2000/svg">
<path d="M29.5859 11.9385H36.1965C38.3372 11.9385 40.0725 13.6738 40.0725 15.8144L40.0727 26.8837C40.0727 27.8351 39.3014 28.6063 38.35 28.6063H32.4148M12.4124 11.9385H5.80172C3.6611 11.9385 1.92578 13.6738 1.92578 15.8144L1.92599 26.8837C1.92599 27.8351 2.69724 28.6063 3.64863 28.6063H9.58388M20.9992 10.4229C18.3976 10.4229 16.2885 8.31309 16.2885 5.71144C16.2885 3.10979 18.3976 1 20.9992 1C23.6009 1 25.7099 3.10979 25.7099 5.71144C25.7099 8.31309 23.6009 10.4229 20.9992 10.4229ZM32.8913 10.0504C30.9111 10.0504 29.3058 8.44453 29.3058 6.46431C29.3058 4.4841 30.9111 2.87825 32.8913 2.87825C34.8715 2.87825 36.4768 4.4841 36.4768 6.46431C36.4768 8.44453 34.8715 10.0504 32.8913 10.0504ZM9.10696 10.0504C11.0872 10.0504 12.6925 8.44453 12.6925 6.46431C12.6925 4.4841 11.0872 2.87825 9.10696 2.87825C7.12675 2.87825 5.52146 4.4841 5.52146 6.46431C5.52146 8.44453 7.12675 10.0504 9.10696 10.0504ZM13.2872 33H28.7116C29.663 33 30.4343 32.2287 30.4343 31.2774L30.4341 16.7794C30.4341 14.6388 28.6987 12.9035 26.5581 12.9035H15.4402C13.2996 12.9035 11.5643 14.6388 11.5643 16.7794L11.5645 31.2774C11.5645 32.2287 12.3358 33 13.2872 33Z" stroke="#E43D30" stroke-width="2" stroke-linecap="round" stroke-linejoin="round"/>
</svg>
