<svg width="40" height="40" viewBox="0 0 40 40" fill="none" xmlns="http://www.w3.org/2000/svg">
<path d="M32.1222 18.9907V8.148C32.1222 7.87201 32.013 7.60732 31.8188 7.41214L26.3831 1.95129C26.1889 1.75612 25.9255 1.64648 25.6508 1.64648H5.53583C4.96376 1.64648 4.5 2.1124 4.5 2.68714V35.2942C4.5 35.869 4.96376 36.3349 5.53583 36.3349H16.5847M11.4055 15.5218H25.2166M11.4055 8.58416H18.3111M11.4055 22.4595H16.5847M25.2166 1.64648V7.54351C25.2166 8.11824 25.6803 8.58416 26.2524 8.58416H32.1222M23.5227 31.1669L25.9182 33.5624L31.5076 27.973M27.5152 38.7525C31.925 38.7525 35.5 35.1776 35.5 30.7677C35.5 26.3578 31.925 22.7828 27.5152 22.7828C23.1052 22.7828 19.5303 26.3578 19.5303 30.7677C19.5303 35.1776 23.1052 38.7525 27.5152 38.7525Z" stroke="#E43D30" stroke-width="2" stroke-linecap="round" stroke-linejoin="round"/>
</svg>
