<svg width="44" height="40" viewBox="0 0 44 40" fill="none" xmlns="http://www.w3.org/2000/svg">
<path d="M19.1154 19.1253C16.7942 19.1253 14.9121 17.2432 14.9121 14.922C14.9121 12.6008 16.7942 10.7188 19.1154 10.7188C21.4366 10.7188 23.3186 12.6008 23.3186 14.922" stroke="#E43D30" stroke-width="1.9593" stroke-linecap="round" stroke-linejoin="round"/>
<path d="M19.1154 19.126C21.4366 19.126 23.3186 21.008 23.3186 23.3292C23.3186 25.6505 21.4366 27.5325 19.1154 27.5325C16.7942 27.5325 14.9121 25.6505 14.9121 23.3292" stroke="#E43D30" stroke-width="1.9593" stroke-linecap="round" stroke-linejoin="round"/>
<path d="M19.1152 10.7259V8.94141" stroke="#E43D30" stroke-width="1.9593" stroke-linecap="round" stroke-linejoin="round"/>
<path d="M19.1152 29.3099V27.5254" stroke="#E43D30" stroke-width="1.9593" stroke-linecap="round" stroke-linejoin="round"/>
<path d="M36.163 22.7505C36.4103 21.5812 36.5405 20.3687 36.5405 19.1257C36.5405 9.50132 28.7384 1.69922 19.114 1.69922C9.4896 1.69922 1.6875 9.50132 1.6875 19.1257C1.6875 28.7501 9.4896 36.5522 19.114 36.5522C21.919 36.5522 24.5692 35.8895 26.9166 34.712" stroke="#E43D30" stroke-width="1.9593" stroke-linecap="round" stroke-linejoin="round"/>
<path d="M30.8031 36.3826C30.8537 36.6099 30.9726 36.8164 31.1439 36.9742C31.3152 37.1321 31.5306 37.2338 31.7614 37.2657C31.9921 37.2976 32.2271 37.2581 32.4348 37.1527C32.6424 37.0472 32.8129 36.8808 32.9233 36.6757L34.9122 33.7323L39.5819 38.4019C39.6762 38.4962 39.7881 38.571 39.9113 38.6221C40.0345 38.6731 40.1665 38.6994 40.2999 38.6994C40.4332 38.6994 40.5653 38.6731 40.6885 38.6221C40.8117 38.571 40.9236 38.4962 41.0179 38.4019L42.0143 37.4056C42.1085 37.3113 42.1833 37.1994 42.2344 37.0762C42.2854 36.953 42.3117 36.8209 42.3117 36.6876C42.3117 36.5542 42.2854 36.4222 42.2344 36.299C42.1833 36.1758 42.1085 36.0639 42.0143 35.9696L37.3446 31.2999L40.307 29.311C40.5121 29.2005 40.6785 29.03 40.7839 28.8222C40.8893 28.6145 40.9287 28.3795 40.8967 28.1487C40.8647 27.918 40.7628 27.7025 40.6049 27.5313C40.4469 27.3601 40.2404 27.2412 40.013 27.1908L27.0879 23.4756L30.8031 36.3826Z" stroke="#E43D30" stroke-width="1.9593" stroke-linecap="round" stroke-linejoin="round"/>
</svg>
