<svg width="36" height="40" viewBox="0 0 36 40" fill="none" xmlns="http://www.w3.org/2000/svg">
<path d="M7.15714 5.41248H3.38571C2.34426 5.41248 1.5 6.24372 1.5 7.26911V16.5523C1.5 17.5777 2.34426 18.4089 3.38571 18.4089H18.4714C19.5129 18.4089 20.3571 17.5777 20.3571 16.5523V7.26911C20.3571 6.24372 19.5129 5.41248 18.4714 5.41248H14.7M7.15714 5.41248V2.25621C7.15714 1.94859 7.41042 1.69922 7.72286 1.69922H14.1343C14.4467 1.69922 14.7 1.94859 14.7 2.25621V5.41248M7.15714 5.41248H14.7M32.4048 16.0218L32.4048 8.86051H25.5M32.4048 16.0218L34.5 14.3167M32.4048 16.0218L30.3095 14.3167M28.8429 25.7028H32.6143C33.6557 25.7028 34.5 26.534 34.5 27.5594V36.8426C34.5 37.868 33.6557 38.6992 32.6143 38.6992H17.5286C16.4871 38.6992 15.6429 37.868 15.6429 36.8426V27.5594C15.6429 26.534 16.4871 25.7028 17.5286 25.7028H21.3M28.8429 25.7028V22.5465C28.8429 22.2389 28.5896 21.9895 28.2771 21.9895H21.8657C21.5533 21.9895 21.3 22.2389 21.3 22.5465V25.7028M28.8429 25.7028H21.3M3.59524 25.5702L3.59524 32.7315H10.3214M3.59524 25.5702L1.5 27.2753M3.59524 25.5702L5.69048 27.2753" stroke="#E43D30" stroke-width="2" stroke-linecap="round" stroke-linejoin="round"/>
</svg>
