<svg width="40" height="34" viewBox="0 0 40 34" fill="none" xmlns="http://www.w3.org/2000/svg">
<path d="M1.5 1.72754H7.72192L9.55471 6.62215M9.55471 6.62215L14.7735 20.5594M9.55471 6.62215H30.9507M14.7735 20.5594H26.056M14.7735 20.5594L11.4551 26.5325H33.6054M30.9507 6.62215H38.5L33.6054 20.5594H26.056M30.9507 6.62215L26.056 20.5594M20.5391 29.6018C20.5391 31.297 19.1649 32.6712 17.4697 32.6712C15.7745 32.6712 14.4003 31.297 14.4003 29.6018C14.4003 27.9066 15.7745 26.5324 17.4697 26.5324C19.1649 26.5324 20.5391 27.9066 20.5391 29.6018ZM31.2363 29.6018C31.2363 31.297 29.8621 32.6712 28.1669 32.6712C26.4717 32.6712 25.0975 31.297 25.0975 29.6018C25.0975 27.9066 26.4717 26.5324 28.1669 26.5324C29.8621 26.5324 31.2363 27.9066 31.2363 29.6018Z" stroke="#E63E31" stroke-width="2" stroke-linecap="round" stroke-linejoin="round"/>
</svg>
