<svg width="40" height="40" viewBox="0 0 40 40" fill="none" xmlns="http://www.w3.org/2000/svg">
<path d="M22.5511 21.908H11.4749C9.33937 21.908 7.60818 23.6352 7.60818 25.7658V33.3223M33.7149 20.1992V4.25094C33.7149 2.84166 32.5725 1.69922 31.1632 1.69922H4.37008C2.96081 1.69922 1.81836 2.84166 1.81836 4.25094V31.044C1.81836 32.4533 2.9608 33.5958 4.37008 33.5958H19.3615M33.3982 30.9482L29.5726 34.6772L25.747 30.9482C25.4947 30.7066 25.2959 30.4161 25.1632 30.0951C25.0306 29.7741 24.9669 29.4296 24.9761 29.0832C24.9854 28.7368 25.0675 28.3961 25.2171 28.0824C25.3668 27.7687 25.5808 27.489 25.8457 27.2607C26.1106 27.0325 26.4207 26.8607 26.7564 26.7562C27.092 26.6516 27.4461 26.6166 27.7962 26.6534C28.1463 26.6902 28.4849 26.7979 28.7906 26.9697C29.0963 27.1416 29.3626 27.3739 29.5726 27.652C29.7835 27.3759 30.0501 27.1456 30.3556 26.9756C30.6612 26.8056 30.999 26.6994 31.3482 26.6638C31.6973 26.6282 32.0501 26.6639 32.3846 26.7687C32.719 26.8734 33.0279 27.045 33.2919 27.2727C33.5559 27.5003 33.7693 27.7792 33.9187 28.0917C34.0682 28.4043 34.1505 28.7438 34.1604 29.0891C34.1704 29.4344 34.1079 29.778 33.9767 30.0984C33.8456 30.4189 33.6486 30.7092 33.3982 30.9512M17.815 19.1016C14.941 19.1016 12.6112 16.7763 12.6112 13.909C12.6112 11.0417 14.941 8.71646 17.815 8.71646C20.689 8.71646 23.0188 11.0417 23.0188 13.909C23.0188 16.7763 20.689 19.1016 17.815 19.1016ZM29.5684 38.6992C24.812 38.6992 20.9563 34.8427 20.9563 30.0872C20.9563 25.3316 24.812 21.4751 29.5684 21.4751C34.3247 21.4751 38.1804 25.3316 38.1804 30.0872C38.1804 34.8427 34.3247 38.6992 29.5684 38.6992Z" stroke="#E43D30" stroke-width="2" stroke-linecap="round" stroke-linejoin="round"/>
</svg>
