<svg width="61" height="53" viewBox="0 0 61 53" fill="none" xmlns="http://www.w3.org/2000/svg">
<path d="M8.77311 34.7731L11.8382 28.2937C12.2317 27.4619 13.3684 27.4619 13.7618 28.2937L16.8269 34.7731L23.6814 35.8187C24.5608 35.9528 24.9112 37.0807 24.2746 37.7281L19.3157 42.7681L20.486 49.8884C20.6363 50.8028 19.7165 51.4999 18.9296 51.0681L12.8 47.7046L6.67046 51.0681C5.88355 51.4999 4.96371 50.8028 5.11401 49.8884L6.28434 42.7681L1.32538 37.7281C0.688684 37.0807 1.0392 35.9528 1.91866 35.8187L8.77311 34.7731Z" stroke="#E43D30" stroke-width="2" stroke-linecap="round" stroke-linejoin="round"/>
<path d="M44.173 34.7731L47.2383 28.2937C47.6316 27.4619 48.7685 27.4619 49.1617 28.2937L52.2271 34.7731L59.0814 35.8187C59.9608 35.9528 60.3113 37.0807 59.6747 37.7281L54.7157 42.7681L55.886 49.8884C56.0364 50.8028 55.1166 51.4999 54.3296 51.0681L48.2 47.7046L42.0705 51.0681C41.2835 51.4999 40.3636 50.8028 40.5141 49.8884L41.6844 42.7681L36.7254 37.7281C36.0888 37.0807 36.4393 35.9528 37.3187 35.8187L44.173 34.7731Z" stroke="#E43D30" stroke-width="2" stroke-linecap="round" stroke-linejoin="round"/>
<path d="M26.473 8.3026L29.5383 1.82307C29.9316 0.99127 31.0685 0.99127 31.4617 1.82307L34.5271 8.3026L41.3814 9.34805C42.2608 9.48216 42.6113 10.6102 41.9746 11.2573L37.0157 16.2974L38.186 23.4178C38.3364 24.3322 37.4166 25.0292 36.6295 24.5975L30.5 21.2339L24.3705 24.5975C23.5836 25.0292 22.6637 24.3322 22.814 23.4178L23.9844 16.2974L19.0254 11.2573C18.3887 10.6102 18.7392 9.48216 19.6187 9.34805L26.473 8.3026Z" stroke="#E43D30" stroke-width="2" stroke-linecap="round" stroke-linejoin="round"/>
</svg>
