<svg width="53" height="53" viewBox="0 0 53 53" fill="none" xmlns="http://www.w3.org/2000/svg">
<path d="M26.5 33.6992C30.6423 33.6992 34 30.3415 34 26.1992C34 22.057 30.6423 18.6992 26.5 18.6992C22.3577 18.6992 19 22.057 19 26.1992C19 30.3415 22.3577 33.6992 26.5 33.6992Z" stroke="#E43D30" stroke-width="2" stroke-linecap="round" stroke-linejoin="round"/>
<path d="M45.556 22.1877L42.8118 15.5612L46.5 11.1992L41.5 6.19922L37.1617 9.90659L30.3945 7.12357L28.8382 1.19922H23.9525L22.3728 7.20204L15.761 9.98912L11.5 6.19922L6.5 11.1992L10.1334 15.6713L7.43125 22.315L1.5 23.6992V28.6992L7.50278 30.338L10.2894 36.9485L6.5 41.1992L11.5 46.1992L15.9779 42.55L22.4925 45.23L24 51.1992H29L30.5112 45.2322L37.1378 42.488C38.2423 43.2775 41.5 46.1992 41.5 46.1992L46.5 41.1992L42.7897 36.8227L45.5347 30.1942L51.4998 28.6422L51.5 23.6992L45.556 22.1877Z" stroke="#E43D30" stroke-width="2" stroke-linecap="round" stroke-linejoin="round"/>
</svg>
