<svg width="48" height="53" viewBox="0 0 48 53" fill="none" xmlns="http://www.w3.org/2000/svg">
<path d="M17.3876 36.7536L27.531 36.7599C28.707 36.7606 29.6597 35.8154 29.659 34.6487C29.6588 34.4154 29.6205 34.191 29.55 33.9812M29.55 33.9812C29.2677 33.1417 28.4688 32.5359 27.5284 32.5349L14.9709 32.5272C13.7899 32.5265 12.6575 32.9912 11.8229 33.8193L1.32558 44.2337C0.89109 44.6648 0.89153 45.3641 1.32656 45.7957L6.44655 50.8752C6.88158 51.3068 7.58646 51.3073 8.02095 50.8762L13.9213 45.0224C14.6769 44.2728 15.7021 43.852 16.7713 43.8527L28.2138 43.8597C29.3948 43.8604 30.5272 43.3956 31.3618 42.5676L46.186 27.8604C47.2723 26.7827 47.2712 25.0344 46.1836 23.9554C45.096 22.8764 43.3338 22.8754 42.2476 23.953L33.4974 32.6987C32.6758 33.5198 31.5615 33.9812 30.3996 33.9812H29.55ZM20.8374 7.08879L23.3695 1.71646C23.6943 1.0268 24.6334 1.0268 24.9582 1.71646L27.4903 7.08879L33.1522 7.95559C33.8786 8.06679 34.1681 9.00209 33.6423 9.53863L29.546 13.7174L30.5127 19.6211C30.637 20.3793 29.8772 20.9572 29.227 20.5992L24.1638 17.8104L19.1006 20.5992C18.4506 20.9572 17.6908 20.3793 17.815 19.6211L18.7817 13.7174L14.6854 9.53863C14.1595 9.00209 14.449 8.06679 15.1755 7.95559L20.8374 7.08879Z" stroke="#E43D30" stroke-width="2" stroke-linecap="round" stroke-linejoin="round"/>
</svg>
