<svg width="47" height="53" viewBox="0 0 47 53" fill="none" xmlns="http://www.w3.org/2000/svg">
<path d="M0.79216 23.2272C0.402041 23.6181 0.402698 24.2513 0.793628 24.6414C1.18456 25.0315 1.81772 25.0309 2.20784 24.6399L0.79216 23.2272ZM17.8903 7.50924L18.5981 6.80286C18.4105 6.61488 18.1558 6.50924 17.8903 6.50924C17.6247 6.50924 17.37 6.61488 17.1824 6.80287L17.8903 7.50924ZM28.5466 18.1877L27.8388 18.8941C28.0264 19.082 28.2811 19.1877 28.5466 19.1877C28.8122 19.1877 29.0669 19.082 29.2545 18.8941L28.5466 18.1877ZM46.5 1.19818C46.4994 0.6459 46.0513 0.198648 45.499 0.199219L36.499 0.208528C35.9467 0.209099 35.4994 0.657277 35.5 1.20956C35.5006 1.76185 35.9488 2.2091 36.501 2.20853L44.501 2.20025L44.5093 10.2002C44.5099 10.7525 44.9581 11.1998 45.5103 11.1992C46.0626 11.1986 46.5099 10.7505 46.5093 10.1982L46.5 1.19818ZM2.5 32.3893C2.5 31.837 2.05228 31.3893 1.5 31.3893C0.947715 31.3893 0.5 31.837 0.5 32.3893H2.5ZM0.5 51.1992C0.5 51.7515 0.947715 52.1992 1.5 52.1992C2.05228 52.1992 2.5 51.7515 2.5 51.1992H0.5ZM46.5 22.5037C46.5 21.9514 46.0523 21.5037 45.5 21.5037C44.9477 21.5037 44.5 21.9514 44.5 22.5037H46.5ZM44.5 51.1992C44.5 51.7515 44.9477 52.1992 45.5 52.1992C46.0523 52.1992 46.5 51.7515 46.5 51.1992H44.5ZM15.5038 22.5036C15.5038 21.9513 15.0561 21.5036 14.5038 21.5036C13.9516 21.5036 13.5038 21.9513 13.5038 22.5036H15.5038ZM13.5038 51.1992C13.5038 51.7515 13.9516 52.1992 14.5038 52.1992C15.0561 52.1992 15.5038 51.7515 15.5038 51.1992H13.5038ZM31.26 26.8668C31.26 26.3146 30.8123 25.8668 30.26 25.8668C29.7077 25.8668 29.26 26.3146 29.26 26.8668H31.26ZM29.26 51.1992C29.26 51.7515 29.7077 52.1992 30.26 52.1992C30.8123 52.1992 31.26 51.7515 31.26 51.1992H29.26ZM2.20784 24.6399L18.5981 8.21561L17.1824 6.80287L0.79216 23.2272L2.20784 24.6399ZM17.1824 8.21561L27.8388 18.8941L29.2545 17.4813L18.5981 6.80286L17.1824 8.21561ZM29.2545 18.8941L46.2078 1.90559L44.7922 0.492844L27.8388 17.4813L29.2545 18.8941ZM0.5 32.3893V51.1992H2.5V32.3893H0.5ZM44.5 22.5037V51.1992H46.5V22.5037H44.5ZM13.5038 22.5036V51.1992H15.5038V22.5036H13.5038ZM29.26 26.8668V51.1992H31.26V26.8668H29.26Z" fill="#E43D30"/>
</svg>
