<svg width="52" height="52" viewBox="0 0 52 52" fill="none" xmlns="http://www.w3.org/2000/svg">
<path d="M8.57611 16.7297C10.4905 13.3423 13.3643 10.5687 16.8284 8.7779M35.1716 8.7779C38.6357 10.5687 41.5094 13.3423 43.4239 16.7297M16.8284 44.3335C13.0499 42.3802 9.97386 39.2576 8.07893 35.4446M43.9211 35.4446C42.0261 39.2576 38.9501 42.3802 35.1716 44.3335M32.6667 7.66679C32.6667 11.3487 29.6819 14.3335 26 14.3335C22.3181 14.3335 19.3333 11.3487 19.3333 7.66679C19.3333 3.98489 22.3181 1.00012 26 1.00012C29.6819 1.00012 32.6667 3.98489 32.6667 7.66679ZM7.66667 19.3335C11.3486 19.3335 14.3333 22.3182 14.3333 26.0001C14.3333 29.682 11.3486 32.6668 7.66667 32.6668C3.98477 32.6668 1 29.682 1 26.0001C1 22.3182 3.98477 19.3335 7.66667 19.3335ZM32.6667 44.3335C32.6667 48.0154 29.6819 51.0001 26 51.0001C22.3181 51.0001 19.3333 48.0154 19.3333 44.3335C19.3333 40.6516 22.3181 37.6668 26 37.6668C29.6819 37.6668 32.6667 40.6516 32.6667 44.3335ZM44.3333 19.3335C48.0152 19.3335 51 22.3182 51 26.0001C51 29.682 48.0152 32.6668 44.3333 32.6668C40.6514 32.6668 37.6667 29.682 37.6667 26.0001C37.6667 22.3182 40.6514 19.3335 44.3333 19.3335Z" stroke="#E43D30" stroke-width="2" stroke-linecap="round" stroke-linejoin="round"/>
</svg>
