<svg width="44" height="52" viewBox="0 0 44 52" fill="none" xmlns="http://www.w3.org/2000/svg">
<path d="M22 1.00012C27.4581 6.74061 34.5817 9.72947 41.8617 9.33346C42.9216 13.6196 43.2459 18.1153 42.8154 22.5534C42.3848 26.9915 41.2082 31.2814 39.3554 35.1683C37.5026 39.0551 35.0115 42.4595 32.0301 45.1792C29.0486 47.8989 25.6377 49.8785 22 51.0001C18.3623 49.8785 14.9514 47.8989 11.9699 45.1792C8.9885 42.4595 6.49737 39.0551 4.64459 35.1683C2.79181 31.2814 1.61518 26.9915 1.18463 22.5534C0.754079 18.1153 1.07839 13.6196 2.13828 9.33346C9.41825 9.72947 16.5419 6.74061 22 1.00012Z" stroke="#E43D30" stroke-width="2" stroke-linecap="round" stroke-linejoin="round"/>
<path d="M21.9872 14.0001L24.6813 22.2919H33.3998L26.3464 27.4165L29.0406 35.7083L21.9872 30.5837L14.9337 35.7083L17.6279 27.4165L10.5745 22.2919H19.293L21.9872 14.0001Z" stroke="#E43D30" stroke-width="2" stroke-linecap="round" stroke-linejoin="round"/>
</svg>
