<svg width="52" height="52" viewBox="0 0 52 52" fill="none" xmlns="http://www.w3.org/2000/svg">
<path d="M50.785 1.2151L51.7828 1.14858C51.7495 0.648713 51.3514 0.250641 50.8516 0.217314L50.785 1.2151ZM0.293011 50.2929C-0.0975785 50.6834 -0.0976837 51.3165 0.292776 51.7071C0.683235 52.0977 1.3164 52.0978 1.70699 51.7073L0.293011 50.2929ZM10.3038 32.2822C9.90737 32.6667 9.89763 33.2998 10.2821 33.6963C10.6666 34.0928 11.2997 34.1025 11.6962 33.718L10.3038 32.2822ZM22.1752 22.1634L22.8713 21.4455C22.4834 21.0694 21.8669 21.0694 21.479 21.4455L22.1752 22.1634ZM29.4409 29.209L28.7447 29.9269C29.1326 30.3031 29.7492 30.3031 30.137 29.9269L29.4409 29.209ZM41.9999 18.0155C42.0084 17.4633 41.5676 17.0087 41.0154 17.0002L32.0164 16.8618C31.4642 16.8533 31.0097 17.2941 31.0012 17.8463C30.9927 18.3985 31.4335 18.8531 31.9857 18.8616L39.9847 18.9846L39.8617 26.9837C39.8532 27.5359 40.294 27.9904 40.8462 27.9989C41.3984 28.0074 41.853 27.5667 41.8615 27.0144L41.9999 18.0155ZM7.0604 45.2849C13.547 49.177 19.7842 50.843 25.4726 50.4692C31.1725 50.0947 36.2413 47.6766 40.372 43.5456C48.6021 35.315 53.0633 20.3572 51.7828 1.14858L49.7872 1.28161C51.0485 20.2012 46.6136 34.4752 38.9577 42.1315C35.1454 45.944 30.5236 48.1331 25.3415 48.4735C20.148 48.8148 14.3118 47.3035 8.08942 43.5699L7.0604 45.2849ZM50.8516 0.217314C31.6441 -1.06328 16.6874 3.39833 8.45727 11.629C4.32663 15.76 1.90861 20.829 1.53403 26.529C1.16019 32.2177 2.82587 38.4551 6.71738 44.9418L8.43243 43.913C4.69945 37.6905 3.18841 31.854 3.52972 26.6602C3.87028 21.4778 6.05926 16.8558 9.87154 13.0432C17.5273 5.38688 31.8002 0.951564 50.7185 2.21288L50.8516 0.217314ZM6.86792 43.7202L0.293011 50.2929L1.70699 51.7073L8.2819 45.1346L6.86792 43.7202ZM11.6962 33.718L22.8713 22.8813L21.479 21.4455L10.3038 32.2822L11.6962 33.718ZM21.479 22.8813L28.7447 29.9269L30.137 28.4911L22.8713 21.4455L21.479 22.8813ZM30.137 29.9269L41.6961 18.718L40.3039 17.2822L28.7447 28.4911L30.137 29.9269Z" fill="#E43D30"/>
</svg>
