<svg width="708" height="600" viewBox="0 0 708 600" fill="none" xmlns="http://www.w3.org/2000/svg">
<rect x="264" width="181" height="502" fill="#E63E31"/>
<path d="M139.361 498V447.95H11.6111V414.35L114.511 253H167.711V422.4H209.711V447.95H167.711V498H139.361ZM39.9611 422.4H139.361V270.15H134.461L39.9611 418.2V422.4ZM627.789 498V447.95H500.039V414.35L602.939 253H656.139V422.4H698.139V447.95H656.139V498H627.789ZM528.389 422.4H627.789V270.15H622.889L528.389 418.2V422.4Z" fill="black"/>
<path d="M354.391 502.9C326.624 502.9 304.457 494.733 287.891 478.4C271.557 461.833 263.391 437.1 263.391 404.2V346.8C263.391 314.133 271.557 289.517 287.891 272.95C304.457 256.383 326.624 248.1 354.391 248.1C382.391 248.1 404.557 256.383 420.891 272.95C437.457 289.517 445.741 314.133 445.741 346.8V404.2C445.741 437.1 437.457 461.833 420.891 478.4C404.557 494.733 382.391 502.9 354.391 502.9ZM354.391 477.35C375.391 477.35 391.141 471.05 401.641 458.45C412.141 445.85 417.391 428.233 417.391 405.6V345.05C417.391 322.417 412.024 304.917 401.291 292.55C390.557 279.95 374.924 273.65 354.391 273.65C333.857 273.65 318.224 279.95 307.491 292.55C296.991 305.15 291.741 322.65 291.741 345.05V405.6C291.741 428.467 296.991 446.2 307.491 458.8C317.991 471.167 333.624 477.35 354.391 477.35Z" fill="#F2F2F2"/>
</svg>
