<svg width="200" height="80" viewBox="0 0 200 80" fill="none" xmlns="http://www.w3.org/2000/svg">
<path fill-rule="evenodd" clip-rule="evenodd" d="M137.032 32.6149C137.566 32.6149 137.678 32.9351 137.678 33.2043V34.1954H136.658C136.148 34.1954 136.04 33.8906 136.04 33.6348V32.6158H137.032V32.6149ZM136.945 35.8622C137.368 35.8622 137.592 36.0753 137.592 36.4798V44.7991H136.673V44.7666C136.343 44.737 136.127 44.4979 136.127 44.1527V35.8622H136.945ZM88.2604 42.3488C88.5754 42.6347 88.6658 42.7538 88.669 42.7589L88.7057 42.8075L88.6639 42.8515C87.2451 44.3375 85.8203 44.9714 83.8991 44.9714C80.4508 44.9714 77.8499 42.2969 77.8499 38.7503C77.8499 35.2454 80.5198 32.5 83.9279 32.5C86.2669 32.5 87.5574 33.4212 88.6037 34.4165L88.6547 34.4647L88.6074 34.5166C88.6051 34.5193 88.3447 34.8085 88.088 35.0652C87.7961 35.39 87.3994 35.3103 87.1566 35.0976C86.1659 34.2663 85.1308 33.879 83.8991 33.879C81.3186 33.879 79.373 35.9488 79.373 38.6924C79.373 41.4235 81.3613 43.5633 83.8991 43.5633C85.178 43.5633 86.1391 43.2018 87.2155 42.3154C87.4805 42.08 87.9258 42.0142 88.2604 42.3488ZM110.106 35.6323C112.171 35.6323 113.454 37.0141 113.454 39.2387V44.7416H112.692C112.097 44.7416 112.017 44.3709 112.017 44.0086V39.526C112.017 37.8912 111.215 36.9543 109.819 36.9543C108.638 36.9543 107.447 37.7759 107.447 39.6122V44.7416H106.657C106.24 44.7416 106.011 44.5118 106.011 44.0947V39.4973C106.011 37.9047 105.189 36.9543 103.813 36.9543C102.439 36.9543 101.442 38.084 101.442 39.6409V44.0947C101.442 44.6114 101.216 44.7129 100.824 44.7129H100.005V35.776H100.795C101.224 35.776 101.47 36.0216 101.47 36.4511V37.0827C102.022 36.3088 102.8 35.5753 104.244 35.5753C105.921 35.5753 106.722 36.5827 107.07 37.2587C107.847 36.1652 108.842 35.6323 110.106 35.6323ZM120.48 35.6611C122.548 35.6611 124.747 37.2875 124.747 40.3016C124.747 43.3163 122.548 44.9427 120.479 44.9427C119.146 44.9427 118.068 44.3797 117.189 43.2227V47.4717H116.371C115.966 47.4717 115.752 47.2479 115.752 46.8249V35.8334H116.457C116.936 35.8334 117.189 36.0767 117.189 36.5373V37.4594C118.069 36.2495 119.147 35.6611 120.48 35.6611ZM123.252 40.3016C123.252 38.1039 121.727 36.9543 120.221 36.9543C118.688 36.9543 117.103 38.1957 117.103 40.2729C117.103 42.3682 118.688 43.6207 120.221 43.6207C122.006 43.6207 123.252 42.2561 123.252 40.3016ZM147.075 36.4803C147.075 36.0447 147.474 35.8047 147.75 35.8047H148.54V43.1467C148.54 45.9134 146.89 47.5 144.014 47.5C142.507 47.5 141.15 47.0797 139.978 46.2512L139.928 46.2156L139.956 46.1604C139.959 46.1535 140.046 45.9811 140.275 45.609C140.397 45.4098 140.554 45.3171 140.729 45.3194C140.873 45.3231 141.033 45.3857 141.264 45.5279C142.096 45.9922 143.033 46.236 143.985 46.2359C145.967 46.2359 147.103 45.1202 147.103 43.1754V42.3465C146.162 43.4933 145.055 44.0517 143.727 44.0517C141.686 44.0517 139.517 42.5758 139.517 39.8415C139.517 38.622 139.98 37.5187 140.822 36.7356C141.596 36.016 142.655 35.6031 143.727 35.6031C145.416 35.6031 146.466 36.4548 147.075 37.2388V36.4803ZM147.132 39.8994C147.132 37.9862 145.511 36.9538 143.986 36.9538C142.262 36.9538 141.011 38.1808 141.011 39.8707C141.011 41.55 142.29 42.8159 143.986 42.8159C145.533 42.8159 147.132 41.7251 147.132 39.8994ZM155.308 35.6611C157.393 35.6611 158.741 37.0651 158.741 39.2382V44.7699H157.865C157.463 44.7699 157.276 44.5743 157.276 44.1527V39.5547C157.276 37.9441 156.39 36.983 154.905 36.983C153.391 36.983 152.333 38.0877 152.333 39.6696L152.363 44.7699H150.896V35.8334H151.687C152.023 35.8334 152.362 36.0243 152.362 36.4511V37.2119C153.064 36.1823 154.053 35.6611 155.308 35.6611ZM130.135 35.7185C132.58 35.7185 133.942 36.9881 133.972 39.2952V44.7416H133.181C132.759 44.7416 132.563 44.5544 132.563 44.1527V43.548C131.776 44.4617 130.702 44.9427 129.445 44.9427C127.145 44.9427 126.097 43.4752 126.097 42.112C126.097 40.3132 127.496 39.2818 129.934 39.2818H131.413V39.7845C131.413 40.2002 131.202 40.4022 130.767 40.4022H130.049C128.445 40.4022 127.563 40.9995 127.563 42.0833C127.563 43.2384 128.672 43.7644 129.703 43.7644C131.36 43.7644 132.562 42.7913 132.562 41.4513V39.3244C132.562 37.8324 131.66 37.0113 130.02 37.0113C129.281 37.0113 128.615 37.1429 127.862 37.4376C127.588 37.5289 127.255 37.521 127.137 37.2249C127.047 36.9955 126.96 36.7647 126.877 36.5327L126.855 36.4706L126.915 36.4428C128.018 35.9419 129.011 35.7185 130.135 35.7185ZM93.9561 35.7185C96.4008 35.7185 97.7636 36.9881 97.7927 39.2952V44.7416H97.0022C96.5806 44.7416 96.3841 44.5544 96.3841 44.1527V43.548C95.5973 44.4617 94.5237 44.9427 93.2666 44.9427C90.9664 44.9427 89.9188 43.4752 89.9188 42.112C89.9188 40.3132 91.3172 39.2818 93.7554 39.2818H95.2243V39.7845C95.2243 40.2002 95.0125 40.4022 94.5779 40.4022H93.8699C92.2666 40.4022 91.3844 40.9995 91.3844 42.0833C91.3844 43.2384 92.4941 43.7644 93.5251 43.7644C95.1821 43.7644 96.3841 42.7913 96.3841 41.4513V39.3244C96.3841 37.8324 95.481 37.0113 93.8411 37.0113C93.1021 37.0113 92.4367 37.1429 91.6832 37.4376C91.408 37.5298 91.0762 37.521 90.9585 37.2249C90.8683 36.9956 90.7818 36.7648 90.6991 36.5327L90.6759 36.4696L90.7375 36.4428C91.5906 36.0665 92.5706 35.7185 93.9561 35.7185ZM173.512 39.0371C173.835 39.2642 174 39.545 174 39.8707V40.0324C173.996 40.284 173.906 40.6381 173.512 40.9341L173.51 40.9351C173.32 41.0708 171.387 42.4104 169.339 43.8292C167.337 45.217 165.08 46.7809 164.804 46.9759V47.2016L164.671 46.9764C164.664 46.9648 164.658 46.9551 164.665 46.9393H164.661V45.7615C164.661 45.3597 164.705 45.1665 165.152 44.8686C165.526 44.6285 171.438 40.5292 172.222 39.9861C171.444 39.4454 165.608 35.3942 165.208 35.1013L165.161 35.067C164.865 34.853 164.633 34.6843 164.633 34.2385V32.8364L164.745 32.9152C165.094 33.158 173.283 38.8661 173.512 39.0371ZM168.393 40.6228C168.19 40.6228 167.99 40.5523 167.778 40.4119C167.267 40.0704 164.643 38.2457 164.616 38.2272L164.586 38.2059V37.306C164.586 37.0993 164.675 36.9358 164.831 36.8565C164.998 36.7713 165.207 36.7991 165.39 36.9316C165.785 37.1855 169.603 39.835 169.641 39.8624L169.728 39.9222L169.64 39.981C169.64 39.981 169.382 40.1529 169.095 40.3531C168.85 40.5329 168.621 40.6228 168.393 40.6228ZM46.5068 42.7218C46.7871 43.0021 46.9308 43.118 46.9322 43.1194L46.9901 43.1657L46.9419 43.2222C46.2436 44.0364 45.2019 44.9714 43.3239 44.9714C40.7967 44.9714 38.7403 42.8895 38.7403 40.3304C38.7403 37.7119 40.7536 35.6611 43.3239 35.6611C44.7682 35.6611 45.8659 36.1467 46.8826 37.2356L46.9271 37.2838L46.883 37.3324C46.7232 37.5094 46.5596 37.6832 46.3919 37.8528C46.1101 38.1336 45.8145 38.1174 45.4327 37.7995C44.9174 37.3815 44.259 36.9538 43.2952 36.9538C41.5793 36.9538 40.2346 38.4246 40.2346 40.3016C40.2346 42.1792 41.6169 43.6499 43.3809 43.6499C44.195 43.6499 44.9425 43.3464 45.6032 42.7487C45.7974 42.593 46.201 42.416 46.5068 42.7223V42.7218ZM56.054 32.6154C56.4469 32.6154 56.7004 32.8804 56.7004 33.291V34.1959H55.6805C55.1699 34.1959 55.0624 33.891 55.0624 33.6352V32.6158H56.054V32.6154ZM55.9391 35.8626C56.3621 35.8626 56.5855 36.0758 56.5855 36.4803V44.7995H55.6662V44.7671C55.3363 44.7374 55.1199 44.4983 55.1199 44.1531V35.8622L55.9391 35.8626ZM65.3844 36.3366C65.5257 35.9975 65.7824 35.833 66.1689 35.833H67.1697L67.1257 35.9335C67.0905 36.0141 63.618 43.9835 63.4758 44.2963C63.3252 44.6281 63.1078 44.7699 62.7497 44.7699H62.5768C62.2071 44.7699 61.9772 44.699 61.8211 44.3236C61.6797 44.0123 58.2068 35.9854 58.1721 35.9043L58.1285 35.8038H59.1572C59.5496 35.8038 59.8235 35.9836 59.9709 36.3366C60.0751 36.6494 62.2525 41.9322 62.663 42.9289C63.0745 41.9327 65.2551 36.6471 65.3844 36.3366ZM74.3876 39.7702C74.471 39.7702 74.5326 39.7479 74.5683 39.7039C74.6184 39.6451 74.6304 39.538 74.604 39.3944C74.4854 37.9144 73.4168 36.9247 71.9447 36.9247C70.4842 36.9247 69.3438 38.1271 69.1715 39.8485C69.171 39.8536 69.1432 40.0519 69.1432 40.3299C69.1432 40.5801 69.171 40.778 69.171 40.7798C69.3545 42.5314 70.5727 43.7064 72.2033 43.7064C73.1499 43.7064 73.9238 43.4215 74.5688 42.8344C74.7402 42.6629 75.066 42.5568 75.4093 42.8312C75.641 43.0341 75.8421 43.2065 75.8421 43.2065L75.8986 43.2547L75.8486 43.3093C74.8009 44.4585 73.668 44.971 72.1746 44.971C69.6274 44.971 67.7063 42.9632 67.7063 40.3016C67.7063 37.6392 69.5533 35.6319 72.0022 35.6319C74.2379 35.6319 75.8833 37.1471 76.097 39.4037C76.1326 39.886 76.0237 40.278 75.7819 40.5384C75.5474 40.791 75.1943 40.9193 74.7323 40.9193C73.9465 40.9193 72.0494 40.9221 70.4156 40.948L70.3429 40.949V40.3874C70.3429 40.0009 70.5736 39.7697 70.9605 39.7697L74.3876 39.7702ZM33.0728 33.0584C33.2434 33.4281 38.2524 44.5563 38.3033 44.6684L38.3487 44.7699H37.4906C37.308 44.7699 36.7529 44.7699 36.5342 44.2968C36.3757 43.9525 32.7114 35.6356 32.1739 34.4155L29.555 40.2873H33.4315V40.9341C33.4315 41.3553 33.1257 41.638 32.6702 41.638H28.9734C28.834 41.9457 27.9726 43.8394 27.8141 44.1823C27.5917 44.5956 27.3322 44.7703 26.9443 44.7703H26L26.0454 44.6684C26.0964 44.5553 31.1619 33.2868 31.2754 33.031C31.433 32.7465 31.6864 32.5862 31.9733 32.5862H32.318C32.7059 32.5862 32.8958 32.7053 33.0719 33.057L33.0728 33.0584ZM52.9884 43.5049C53.0695 43.5651 53.1658 43.6865 53.1658 43.9219C53.1658 44.2384 53.138 44.4937 53.1371 44.5048L53.1325 44.5433L53.0977 44.5609C52.6418 44.7893 51.9129 44.9422 51.2836 44.9422C49.6438 44.9422 48.7407 44.0387 48.7407 42.3988V32.6436H49.445C49.8898 32.6436 50.1771 32.9087 50.1771 33.3192V35.8622H52.2034C52.5699 35.8622 52.9647 36.0735 52.9647 36.5373V37.1549H50.1776L50.2063 42.1982C50.2063 43.1231 50.6752 43.592 51.5997 43.592C51.9032 43.592 52.1209 43.5387 52.443 43.4511C52.6561 43.3872 52.8554 43.4062 52.9884 43.5049Z" fill="#356AE6"/>
</svg>
