<svg width="200" height="80" viewBox="0 0 200 80" fill="none" xmlns="http://www.w3.org/2000/svg">
<path d="M51.708 37.2275H61.5488V40.0221L57.8484 40.3092C51.8724 40.7604 50 42.3612 50 46.8397V47.7443C50 51.029 52.2777 53 55.7754 53C58.5401 53 60.1179 52.3416 62.0792 50.3201H62.3956V52.4573H66.3399V32.8647H51.708V37.2275ZM61.5488 46.6746C60.3422 47.9073 58.4998 48.7287 56.9944 48.7287C55.3681 48.7287 54.6785 48.1124 54.7167 46.7577C54.7581 44.8666 55.4404 44.4164 58.5763 44.1282L61.5436 43.8411L61.5488 46.6746Z" fill="#FF8800"/>
<path d="M144.145 40.7604L141.216 40.468C139.59 40.305 139.182 39.8927 139.182 38.5801C139.182 37.1013 139.752 36.7311 142.029 36.7311C144.062 36.7311 144.632 37.0603 144.923 38.456H149.479C149.356 33.7724 147.932 32.5839 142.28 32.5839C136.099 32.5839 134.56 33.7735 134.56 38.5811C134.56 42.9671 135.698 44.1661 140.295 44.6173L142.694 44.8613C144.849 45.0685 145.377 45.4777 145.377 46.7934C145.377 48.3943 144.726 48.8066 142.084 48.8066C139.766 48.8066 139.155 48.4363 139.035 46.9155H134.425C134.546 51.7621 136.01 52.9947 141.867 52.9947C148.381 52.9947 150 51.6811 150 46.3401C150 42.3633 148.82 41.2138 144.145 40.7625V40.7604Z" fill="#054ADA"/>
<path d="M119.745 41.1307C119.745 34.7947 117.588 32.5871 111.407 32.5871C105.226 32.5871 102.907 35.4605 102.907 42.6074C102.907 50.4053 105.023 53 111.856 53C116.775 53 118.852 51.4823 119.54 47.2078H114.865C114.336 48.5236 113.767 48.8118 111.774 48.8118C108.766 48.8118 107.991 47.9494 107.83 44.2944H119.41C119.61 43.2511 119.721 42.194 119.745 41.1317V41.1307ZM107.87 40.4312C107.911 37.6798 109.008 36.6522 111.61 36.6522C114.211 36.6522 115.108 37.6808 115.19 40.4312H107.87Z" fill="#054ADA"/>
<path d="M82.3718 32.8752H74.7674V27H69.9276V52.4667H74.7674V37.2685H81.6791V52.4667H86.5188V36.8594H82.3718V32.8752Z" fill="#054ADA"/>
<path d="M122.468 33.7356V52.4667H127.308V37.0561H133.121V32.8742H127.308V32.3378C127.349 31.1871 127.633 30.8611 128.569 30.8611H133.854V27H128.161C124.298 27 122.467 28.1917 122.467 33.7356H122.468Z" fill="#054ADA"/>
<path d="M90.0962 52.4667H94.9359V37.4726H102.135V32.8742H90.0962V52.4667Z" fill="#054ADA"/>
</svg>
