<svg width="200" height="80" viewBox="0 0 200 80" fill="none" xmlns="http://www.w3.org/2000/svg">
<path fill-rule="evenodd" clip-rule="evenodd" d="M89.1373 49.692C84.3729 53.1519 77.4699 55 71.5198 55C63.1769 55 55.681 51.9699 49.985 46.9198C49.5403 46.533 49.9426 45.9742 50.472 46.2966C56.6127 49.7994 64.1933 51.9269 72.0068 51.9269C77.2794 51.9269 83.1025 50.8524 88.4385 48.6175C89.2643 48.2522 89.9419 49.1117 89.1373 49.692Z" fill="#222E3E"/>
<path fill-rule="evenodd" clip-rule="evenodd" d="M90.069 47.3281C89.5184 46.5974 86.3634 46.9842 84.9658 47.1562C84.5423 47.1991 84.4788 46.8338 84.86 46.5544C87.3586 44.7493 91.4665 45.265 91.9324 45.8668C92.4194 46.49 91.8053 50.7235 89.4549 52.7436C89.0949 53.0444 88.7561 52.894 88.9044 52.4857C89.4549 51.1103 90.6407 48.0587 90.069 47.3281Z" fill="#222E3E"/>
<path fill-rule="evenodd" clip-rule="evenodd" d="M85.0717 31.7049V29.7493C85.0717 29.4484 85.2835 29.255 85.5376 29.255H93.8381C94.1134 29.255 94.3251 29.4699 94.3251 29.7493V31.4255C94.3251 31.7049 94.0922 32.0702 93.6899 32.6504L89.3914 39.1404C90.9795 39.0974 92.6735 39.3553 94.1346 40.2149C94.4522 40.4083 94.5581 40.6877 94.5792 40.9885V43.0731C94.5792 43.3524 94.2828 43.6963 93.9652 43.5244C91.403 42.106 88.015 41.9556 85.1776 43.5458C84.8811 43.7178 84.5847 43.3739 84.5847 43.0946V41.096C84.5847 40.7736 84.5847 40.2364 84.9023 39.7421L89.8996 32.1777H85.5587C85.3046 32.1991 85.0929 32.0057 85.0717 31.7049Z" fill="#222E3E"/>
<path fill-rule="evenodd" clip-rule="evenodd" d="M55.0669 44.4484H52.6107C52.3777 44.4269 52.1872 44.2335 52.166 43.9971V30.0501C52.166 29.7708 52.3777 29.5559 52.653 29.5559H54.9611C55.194 29.5774 55.3846 29.7708 55.4057 30.0287V31.8553H55.4481C56.041 30.0931 57.1844 29.2765 58.709 29.2765C60.2548 29.2765 61.2288 30.0931 61.9064 31.8553C62.4993 30.0931 63.8757 29.2765 65.3156 29.2765C66.3531 29.2765 67.4754 29.7493 68.1742 30.8023C68.9576 31.9842 68.7882 33.682 68.7882 35.1648V43.9542C68.7882 44.2335 68.5765 44.4484 68.3224 44.4484H65.8449C65.5908 44.4269 65.4003 44.212 65.4003 43.9542V36.5616C65.4003 35.9814 65.4426 34.4986 65.3367 33.9398C65.1462 32.9943 64.5956 32.7364 63.8757 32.7364C63.2828 32.7364 62.6475 33.1662 62.3934 33.8754C62.1393 34.5845 62.1605 35.745 62.1605 36.5401V43.9327C62.1605 44.212 61.9488 44.4269 61.6947 44.4269H59.2172C58.9631 44.4054 58.7725 44.1905 58.7725 43.9327V36.5401C58.7725 34.9928 59.0055 32.6934 57.2479 32.6934C55.4693 32.6934 55.5328 34.9284 55.5328 36.5401V43.9327C55.554 44.2335 55.3422 44.4484 55.0669 44.4484Z" fill="#222E3E"/>
<path fill-rule="evenodd" clip-rule="evenodd" d="M102.054 32.0487C100.169 32.0487 100.042 34.735 100.042 36.3897C100.042 38.0659 100.021 41.6332 102.033 41.6332C104.023 41.6332 104.108 38.7536 104.108 36.9914C104.108 35.8309 104.066 34.4556 103.727 33.3596C103.451 32.414 102.859 32.0487 102.054 32.0487ZM102.033 29.255C105.844 29.255 107.898 32.6504 107.898 36.9699C107.898 41.139 105.611 44.4484 102.033 44.4484C98.2848 44.4484 96.252 41.053 96.252 36.8195C96.252 32.5645 98.306 29.255 102.033 29.255Z" fill="#222E3E"/>
<path fill-rule="evenodd" clip-rule="evenodd" d="M113.255 44.4484H110.842C110.587 44.4269 110.397 44.212 110.397 43.9542V30.0072C110.418 29.7493 110.609 29.5559 110.863 29.5559H113.107C113.319 29.5774 113.488 29.7278 113.531 29.9427V32.0702H113.573C114.251 30.1576 115.204 29.255 116.876 29.255C117.956 29.255 119.036 29.7063 119.714 30.8883C120.349 32.0057 120.349 33.8754 120.349 35.2292V43.9971C120.328 44.255 120.116 44.4269 119.883 44.4269H117.448C117.215 44.4054 117.046 44.2335 117.025 43.9971V36.4327C117.025 34.9069 117.194 32.6719 115.5 32.6719C114.907 32.6719 114.357 33.1017 114.102 33.7894C113.764 34.649 113.721 35.4871 113.721 36.4327V43.9327C113.721 44.2335 113.51 44.4484 113.255 44.4484Z" fill="#222E3E"/>
<path fill-rule="evenodd" clip-rule="evenodd" d="M81.6202 44.2335C81.4508 44.384 81.1967 44.4054 81.0061 44.298C80.138 43.5673 79.9897 43.2235 79.5027 42.5358C78.0628 44.0186 77.0464 44.4699 75.2042 44.4699C73.002 44.4699 71.2869 43.0946 71.2869 40.3224C71.2869 38.1734 72.4303 36.6905 74.0608 35.9814C75.4795 35.3582 77.4488 35.2292 78.9734 35.0573V34.7135C78.9734 34.0903 79.0157 33.3381 78.6557 32.7794C78.3381 32.2851 77.724 32.0917 77.1947 32.0917C76.1994 32.0917 75.3101 32.6075 75.0984 33.682C75.056 33.9183 74.8866 34.1547 74.6537 34.1762L72.1339 33.8969C71.9221 33.8539 71.6892 33.682 71.7527 33.3381C72.3244 30.2006 75.0984 29.2765 77.597 29.2765C78.8675 29.2765 80.5191 29.6203 81.5355 30.6089C82.806 31.8123 82.679 33.4241 82.679 35.1862V39.3338C82.679 40.5802 83.1872 41.1175 83.6742 41.8052C83.8436 42.0415 83.8859 42.3424 83.6742 42.5143C83.1025 42.9226 82.1496 43.7608 81.6202 44.2335ZM78.9945 37.7436C78.9945 38.7751 79.0157 39.6347 78.5075 40.5587C78.084 41.3109 77.4276 41.7622 76.7076 41.7622C75.7124 41.7622 75.1195 40.9885 75.1195 39.8281C75.1195 37.5716 77.11 37.1418 78.9945 37.1418V37.7436Z" fill="#222E3E"/>
<path fill-rule="evenodd" clip-rule="evenodd" d="M48.3333 44.2335C48.1639 44.384 47.9098 44.4054 47.7193 44.298C46.8511 43.5673 46.7029 43.2235 46.2158 42.5358C44.776 44.0186 43.7596 44.4699 41.9173 44.4699C39.7152 44.4699 38 43.0946 38 40.3224C38 38.1734 39.1434 36.6905 40.7739 35.9814C42.1926 35.3582 44.1619 35.2292 45.6865 35.0573V34.7135C45.6865 34.0903 45.7288 33.3381 45.3689 32.7794C45.0512 32.2851 44.4372 32.0917 43.9078 32.0917C42.9126 32.0917 42.0232 32.6075 41.8115 33.682C41.7691 33.9183 41.5997 34.1547 41.3668 34.1762L38.847 33.8969C38.6352 33.8539 38.4023 33.682 38.4658 33.3381C39.0376 30.2006 41.8115 29.255 44.2889 29.255C45.5594 29.255 47.2111 29.5989 48.2275 30.5874C49.498 31.7908 49.3709 33.4026 49.3709 35.1648V39.3123C49.3709 40.5587 49.8791 41.096 50.3661 41.7837C50.5355 42.0201 50.5779 42.3209 50.3661 42.4928C49.8156 42.9226 48.8627 43.7608 48.3333 44.2335ZM45.7076 37.7436C45.7076 38.7751 45.7288 39.6347 45.2206 40.5587C44.7971 41.3109 44.1407 41.7622 43.4208 41.7622C42.4255 41.7622 41.8326 40.9885 41.8326 39.8281C41.8326 37.5716 43.8231 37.1418 45.7076 37.1418V37.7436Z" fill="#222E3E"/>
<path fill-rule="evenodd" clip-rule="evenodd" d="M141.164 33.1232C140.444 34.0043 140.105 35.2077 140.105 36.755C140.105 38.3023 140.444 39.5272 141.122 40.4298C141.905 41.4398 143.048 41.9556 144.594 41.9556C146.034 41.9556 147.135 41.4613 147.94 40.4513C148.639 39.5487 148.999 38.3668 148.999 36.9269V36.6691C148.999 35.1648 148.575 33.9398 147.813 33.0158C147.008 32.0702 145.971 31.6189 144.7 31.6189C143.133 31.6189 141.947 32.1132 141.164 33.1232ZM151.158 25.5587V42.7937C151.158 43.0516 150.926 43.245 150.65 43.245H149.613C149.316 43.245 149.083 43.0301 149.083 42.7722V41.1175C148.088 42.7722 146.479 43.5888 144.34 43.5888C142.244 43.5888 140.613 42.8797 139.449 41.5258C138.369 40.2794 137.839 38.6676 137.839 36.712C137.839 34.7994 138.369 33.2522 139.449 32.0057C140.613 30.6089 142.18 29.9212 144.234 29.9212C146.288 29.9212 147.855 30.8238 148.956 32.6504V25.4728C148.956 25.2149 149.189 25 149.486 25H150.587C150.904 25.0215 151.158 25.2579 151.158 25.5587Z" fill="#222E3E"/>
<path fill-rule="evenodd" clip-rule="evenodd" d="M134.134 37.8725C134.134 38.9255 133.647 39.8711 132.694 40.6877C131.72 41.5258 130.619 41.9556 129.37 41.9556C128.544 41.9556 127.887 41.7407 127.379 41.3539C126.871 40.9241 126.638 40.4298 126.638 39.8066C126.638 37.8295 128.12 36.841 131.085 36.7765L134.134 36.7335V37.8725ZM135.002 30.7808C134.07 29.7493 132.694 29.255 130.809 29.255C130.238 29.255 129.729 29.298 129.242 29.384C127.887 29.5559 126.638 30.1791 125.706 30.7593C125.537 30.8668 125.473 31.0817 125.558 31.2536L125.939 32.0487C126.024 32.2421 126.278 32.3281 126.469 32.2206C127.358 31.7264 128.565 31.2966 129.624 31.0602C129.941 30.9957 130.301 30.9742 130.682 30.9742C132.99 30.9742 134.134 32.1132 134.134 34.3911V35.1003L130.958 35.1433C128.967 35.1648 127.421 35.4441 126.342 36.1963C125.113 36.9914 124.52 38.2593 124.52 39.8066C124.52 40.9026 124.923 41.8266 125.749 42.5358C126.532 43.2235 127.591 43.5673 128.925 43.5673C130.153 43.5673 131.254 43.288 132.228 42.7292C133.054 42.2565 133.732 41.6547 134.24 40.9026V42.6863C134.24 42.9656 134.473 43.202 134.748 43.202H135.658C135.934 43.202 136.167 42.9656 136.167 42.6863V34.4556C136.188 32.9083 135.786 31.6834 135.002 30.7808Z" fill="#222E3E"/>
<path fill-rule="evenodd" clip-rule="evenodd" d="M152.831 41.0745C152.831 40.7736 153.17 40.5802 153.424 40.7522C154.462 41.3754 155.563 41.6762 156.749 41.6762C158.612 41.6762 159.883 41.053 159.883 39.8281C159.883 39.3123 159.671 38.861 159.268 38.5387C158.866 38.1948 157.701 37.7865 156.452 37.3352C154.949 36.7335 153.975 36.1318 153.53 35.5301C153.085 34.9284 152.852 34.2192 152.852 33.3811C152.852 32.1777 153.361 31.1032 154.377 30.3725C155.393 29.6418 156.643 29.2765 158.125 29.2765C159.184 29.2765 160.179 29.5559 161.089 29.8997C161.238 29.9642 161.344 30.0931 161.344 30.265V31.6619C161.344 31.9628 161.047 32.1347 160.772 32.0057C159.904 31.5759 158.951 31.2321 157.892 31.2321C157.13 31.2321 156.283 31.404 155.796 31.7264C155.309 32.0487 154.97 32.6289 154.97 33.1662C154.97 33.7034 155.139 34.1332 155.499 34.4341C155.838 34.735 156.939 35.1218 158.125 35.5946C159.628 36.1533 160.666 36.755 161.195 37.3567C161.725 37.9585 162 38.7106 162 39.6132C162 40.8596 161.492 41.8481 160.475 42.5573C159.459 43.2665 158.146 43.6318 156.516 43.6318C155.203 43.6318 154.059 43.3954 153.064 42.9441C152.916 42.8797 152.831 42.7507 152.831 42.5788V41.0745Z" fill="#222E3E"/>
</svg>
