<svg width="102" height="38" viewBox="0 0 102 38" fill="none" xmlns="http://www.w3.org/2000/svg">
<path d="M38.3919 23.1181L40.6288 29.0158H36.2977L38.3954 23.1181H38.3919ZM37.5528 21.1425L32.6603 34.0567H34.4768L35.7345 30.548H41.1859L42.4436 34.0567H44.261L39.3685 21.1425H37.5511H37.5528ZM63.9642 34.0655H65.6476V21.1522H63.9642V34.0655ZM46.7773 26.4755C47.0928 26.0185 47.5096 25.6413 47.9949 25.3736C48.4802 25.1059 49.0207 24.9549 49.5739 24.9327C51.8109 24.9327 52.9285 26.4772 52.9285 28.7228V34.1974H51.2433V29.0043C51.2433 27.1791 50.2649 26.4772 49.0063 26.4772C48.3461 26.5343 47.7323 26.842 47.2902 27.3377C46.848 27.8334 46.6107 28.4797 46.6266 29.145V34.0585H44.9441V25.0858H46.6301L46.7703 26.4905L46.7773 26.4755ZM54.3263 31.3986C54.3263 29.423 56.1428 28.3095 58.2414 28.3095C59.0744 28.2296 59.9105 28.4268 60.6211 28.8707V28.5883C60.6229 28.2991 60.5652 28.0127 60.4516 27.747C60.338 27.4813 60.1709 27.242 59.9609 27.0442C59.7508 26.8464 59.5024 26.6944 59.231 26.5975C58.9597 26.5007 58.6714 26.4613 58.3842 26.4817C57.9458 26.4378 57.505 26.5369 57.1271 26.7645C56.7493 26.992 56.4545 27.3357 56.2865 27.7448L54.7458 27.0481C55.027 26.2055 56.1446 24.9415 58.3798 24.9415C58.8925 24.8995 59.4083 24.9674 59.8928 25.1409C60.3774 25.3144 60.8196 25.5894 61.1903 25.9477C61.5609 26.306 61.8513 26.7394 62.0424 27.2191C62.2334 27.6988 62.3207 28.2138 62.2984 28.7299V34.0647H60.7568V32.8016H60.6167C60.3016 33.2913 59.8657 33.6908 59.3515 33.9614C58.8372 34.2321 58.262 34.3646 57.6817 34.3461C55.8643 34.3461 54.3263 33.2229 54.3263 31.3986ZM60.6176 30.2754C59.9949 29.8707 59.2606 29.6742 58.5199 29.7142C56.8338 29.7142 56.1402 30.6967 56.1402 31.4075C56.1402 32.39 57.1185 32.8122 57.9567 32.8122C58.6327 32.7968 59.2789 32.5297 59.7698 32.0627C60.2607 31.5957 60.5613 30.9622 60.6132 30.2851" fill="#757575"/>
<path fill-rule="evenodd" clip-rule="evenodd" d="M68.0273 38L69.9946 33.3681L66.5008 25.2248H68.1868L70.8433 31.4013L73.4998 25.2248H75.1859L69.7354 38H68.0273ZM92.631 28.1749C92.4634 27.6654 92.1466 27.2186 91.722 26.893C91.2974 26.5673 90.7848 26.378 90.2512 26.3498C89.8742 26.3755 89.5059 26.4761 89.1678 26.6457C88.8296 26.8153 88.5283 27.0505 88.2813 27.3378C88.0342 27.6251 87.8464 27.9587 87.7285 28.3193C87.6107 28.68 87.5652 29.0605 87.5948 29.4389C87.5652 29.8173 87.6107 30.1979 87.7285 30.5585C87.8464 30.9192 88.0342 31.2528 88.2813 31.54C88.5283 31.8273 88.8296 32.0625 89.1678 32.2321C89.5059 32.4017 89.8742 32.5023 90.2512 32.5281C90.7675 32.5036 91.2661 32.3312 91.6878 32.0311C92.1095 31.731 92.4368 31.3159 92.631 30.8348L94.0297 31.6774C93.7174 32.4244 93.1928 33.0624 92.5217 33.5118C91.8505 33.9612 91.0623 34.2022 90.2557 34.2045C89.0508 34.1481 87.9176 33.6136 87.105 32.7185C86.2924 31.8234 85.8669 30.641 85.9219 29.4309C85.8836 28.8293 85.9663 28.226 86.1652 27.6572C86.364 27.0883 86.675 26.5655 87.0795 26.12C87.4839 25.6745 87.9736 25.3154 88.5193 25.0641C89.065 24.8128 89.6556 24.6745 90.2557 24.6574C91.0626 24.6585 91.8513 24.8989 92.5227 25.3485C93.1942 25.798 93.7184 26.4368 94.0297 27.1845L92.631 28.167V28.1749Z" fill="#757575"/>
<path d="M98.642 34.3444C100.879 34.3444 101.996 33.0813 101.996 31.5367C101.996 28.1678 97.1039 29.4301 97.1039 27.465C97.1039 26.7631 97.6627 26.3418 98.642 26.3418C99.1001 26.3176 99.557 26.4075 99.9722 26.6034C100.387 26.7994 100.748 27.0954 101.022 27.465L102 26.4825C101.095 25.4875 99.8418 24.8823 98.5027 24.7937C96.405 24.7937 95.2874 26.0568 95.2874 27.6014C95.2874 30.8304 100.32 29.708 100.32 31.3915C100.32 32.2342 99.7613 32.7963 98.634 32.7963C98.1737 32.7694 97.7276 32.6267 97.3367 32.3812C96.9457 32.1357 96.6226 31.7954 96.3971 31.3915L95.1552 32.3838C95.9943 33.2264 97.2529 34.3594 98.649 34.3594L98.642 34.3444ZM82.7058 34.0638H84.3918V25.0831H82.7058V34.0638Z" fill="#757575"/>
<path fill-rule="evenodd" clip-rule="evenodd" d="M83.4038 20.7397C83.7005 20.7397 83.9849 20.8581 84.1947 21.0687C84.4044 21.2794 84.5223 21.5651 84.5223 21.863C84.5223 22.1609 84.4044 22.4466 84.1947 22.6572C83.9849 22.8679 83.7005 22.9862 83.4038 22.9862C83.1138 22.9663 82.8408 22.8416 82.6353 22.6351C82.4298 22.4286 82.3058 22.1543 82.2862 21.863C82.3058 21.5717 82.4298 21.2974 82.6353 21.0909C82.8408 20.8844 83.1138 20.7596 83.4038 20.7397ZM81.0241 32.6732L81.3053 33.9363H79.6192C78.0812 33.9363 77.3823 32.8131 77.3823 31.1286V26.7587H75.6962V25.0663H77.3823V22.4162H79.0683V25.0831H81.0356V26.7764H79.0683V31.4084C79.0683 32.6715 80.0467 32.6714 81.0356 32.6714L81.0241 32.6732Z" fill="#757575"/>
<path d="M41.1603 6.87401V8.98418H46.0493C45.9698 9.92882 45.5758 10.819 44.9308 11.5113C44.4445 12.0188 43.8578 12.4184 43.2084 12.6844C42.559 12.9504 41.8613 13.077 41.1603 13.0558C40.452 13.0521 39.7515 12.9069 39.0995 12.6287C38.4476 12.3506 37.8573 11.9449 37.363 11.4355C36.8686 10.926 36.4801 10.3228 36.2201 9.66116C35.96 8.99947 35.8336 8.29244 35.8482 7.58124C35.8424 6.15156 36.3958 4.77674 37.3893 3.75281C38.3828 2.72887 39.737 2.13772 41.1603 2.10664C42.5033 2.10518 43.7988 2.60594 44.7942 3.51136L46.193 2.10664C44.8511 0.775306 43.0465 0.0199064 41.1603 0C39.1863 0.00750527 37.293 0.788125 35.8832 2.17583C34.4734 3.56354 33.6584 5.44884 33.6113 7.43076C33.659 9.41222 34.4744 11.2968 35.8841 12.684C37.2938 14.0711 39.1867 14.8514 41.1603 14.8589C42.1238 14.9131 43.0873 14.7523 43.9815 14.3881C44.8758 14.0238 45.6786 13.4651 46.3322 12.7522C46.9345 12.1169 47.4053 11.3678 47.7173 10.5484C48.0292 9.72895 48.1762 8.85552 48.1496 7.97866C48.1808 7.55256 48.1333 7.12433 48.0095 6.71557H41.1594L41.1603 6.87401ZM53.6001 5.17808C52.9709 5.16174 52.345 5.27425 51.7606 5.50875C51.1761 5.74326 50.6453 6.09484 50.2006 6.54206C49.7558 6.98929 49.4064 7.52279 49.1737 8.11005C48.9409 8.6973 48.8297 9.32601 48.8468 9.95784C48.831 10.5889 48.9433 11.2165 49.1766 11.8026C49.41 12.3887 49.7596 12.9211 50.2042 13.3672C50.6488 13.8134 51.1791 14.1641 51.7629 14.398C52.3467 14.6319 52.9717 14.7441 53.6001 14.7279C54.2259 14.7336 54.8465 14.6141 55.4258 14.3762C56.0051 14.1384 56.5314 13.787 56.974 13.3426C57.416 12.8986 57.7657 12.3706 58.0025 11.7895C58.2393 11.2084 58.3586 10.5857 58.3533 9.95784C58.3712 9.32581 58.2605 8.69676 58.028 8.10916C57.7955 7.52155 57.4462 6.98774 57.0013 6.54036C56.5564 6.09297 56.0253 5.74142 55.4405 5.50719C54.8557 5.27296 54.2294 5.16097 53.6001 5.17808ZM53.6001 12.8912C52.8601 12.85 52.1661 12.5174 51.6688 11.9656C51.1715 11.4137 50.9109 10.6872 50.9436 9.94368C50.911 9.20101 51.1718 8.47548 51.6694 7.92508C52.1669 7.37467 52.8609 7.04398 53.6001 7.00501C53.9699 7.0142 54.3341 7.09873 54.6704 7.25347C55.0068 7.40821 55.3083 7.62995 55.5568 7.90523C55.8053 8.1805 55.9955 8.5036 56.1159 8.85491C56.2364 9.20622 56.2845 9.57844 56.2574 9.94899C56.285 10.3198 56.2373 10.6923 56.1171 11.0439C55.997 11.3956 55.8069 11.7191 55.5585 11.9948C55.31 12.2704 55.0084 12.4925 54.6719 12.6475C54.3354 12.8025 53.971 12.8872 53.6009 12.8965L53.6001 12.8912ZM76.5159 6.16412C76.173 5.80455 75.7604 5.51937 75.3035 5.32618C74.8466 5.13299 74.3551 5.03589 73.8594 5.04088C72.6401 5.09044 71.4887 5.61808 70.6525 6.51055C69.8162 7.40303 69.3616 8.5892 69.3864 9.81445C69.3619 11.04 69.8169 12.2263 70.6537 13.1187C71.4905 14.011 72.6424 14.5382 73.862 14.5871C74.3373 14.5935 74.8084 14.4963 75.2428 14.3024C75.6772 14.1085 76.0646 13.8225 76.3784 13.4639H76.5185V14.1658C76.5185 15.991 75.5402 16.9735 74.0022 16.9735C73.4847 16.9536 72.9841 16.783 72.5615 16.4823C72.139 16.1816 71.8127 15.7639 71.6225 15.2802L69.8051 15.9821C70.159 16.8072 70.7434 17.5115 71.4877 18.0098C72.232 18.5081 73.1042 18.779 73.9986 18.7898C76.515 18.7898 78.6109 17.3851 78.6109 13.7356V5.03203H76.6437V6.15173L76.5159 6.16412ZM74.1361 12.9027C73.7771 12.8783 73.4264 12.7822 73.1047 12.6202C72.783 12.4582 72.4966 12.2334 72.2624 11.959C72.0281 11.6846 71.8506 11.3661 71.7403 11.022C71.63 10.678 71.589 10.3153 71.6198 9.95518C71.589 9.59506 71.63 9.23239 71.7403 8.88834C71.8506 8.54429 72.0281 8.22576 72.2624 7.95136C72.4966 7.67696 72.783 7.45218 73.1047 7.29015C73.4264 7.12812 73.7771 7.03209 74.1361 7.00766C74.4952 7.03209 74.8459 7.12812 75.1676 7.29015C75.4893 7.45218 75.7757 7.67696 76.0099 7.95136C76.2442 8.22576 76.4217 8.54429 76.532 8.88834C76.6423 9.23239 76.6833 9.59506 76.6525 9.95518C76.683 10.3147 76.6421 10.6768 76.532 11.0203C76.4219 11.3639 76.2448 11.6819 76.0111 11.9561C75.7774 12.2302 75.4918 12.4549 75.1708 12.6171C74.8498 12.7794 74.4999 12.8758 74.1414 12.9009L74.1361 12.9027ZM63.9307 5.18958C63.3029 5.17392 62.6784 5.28654 62.0953 5.52062C61.5121 5.75469 60.9824 6.10533 60.5383 6.55125C60.0942 6.99717 59.745 7.52907 59.5118 8.11467C59.2786 8.70027 59.1663 9.32734 59.1818 9.95784C59.1647 10.5897 59.276 11.2185 59.5088 11.8058C59.7416 12.3932 60.0911 12.9267 60.5359 13.3739C60.9807 13.8212 61.5116 14.1727 62.0962 14.4072C62.6807 14.6416 63.3067 14.7541 63.936 14.7376C64.5618 14.7433 65.1824 14.6238 65.7617 14.386C66.341 14.1481 66.8673 13.7967 67.3099 13.3524C67.7531 12.9072 68.1034 12.3776 68.3403 11.7947C68.5771 11.2119 68.6958 10.5874 68.6892 9.95784C68.7174 9.32363 68.6138 8.69048 68.3848 8.09874C68.1559 7.50701 67.8066 6.96967 67.3595 6.52098C66.9123 6.07228 66.3769 5.72209 65.7874 5.4927C65.198 5.26332 64.5675 5.15979 63.936 5.1887L63.9307 5.18958ZM63.9307 12.9027C63.1921 12.8601 62.4999 12.5273 62.0038 11.9762C61.5077 11.4251 61.2475 10.7001 61.2795 9.95784C61.2468 9.21428 61.5074 8.48777 62.0047 7.93596C62.502 7.38414 63.196 7.05154 63.936 7.01032C64.3061 7.0196 64.6704 7.10432 65.0069 7.25933C65.3434 7.41435 65.6451 7.63642 65.8935 7.91207C66.1419 8.18773 66.332 8.51121 66.4521 8.86288C66.5723 9.21455 66.62 9.58708 66.5924 9.95784C66.6194 10.3282 66.5712 10.7003 66.4508 11.0514C66.3303 11.4026 66.1402 11.7255 65.8918 12.0007C65.6434 12.2759 65.342 12.4975 65.0058 12.6523C64.6696 12.807 64.3057 12.8916 63.936 12.9009L63.9307 12.9027ZM80.1701 0.132771H82.2677V14.7376H80.1701V0.132771ZM87.9976 12.908C87.513 12.9093 87.037 12.7799 86.6193 12.5332C86.2016 12.2866 85.8576 11.9318 85.6231 11.506L92.0572 8.83814L91.7716 8.27607C91.4849 7.4106 90.9442 6.65245 90.2207 6.10114C89.4971 5.54983 88.6245 5.23115 87.7173 5.18693C87.1066 5.18882 86.5028 5.31565 85.9425 5.55967C85.3823 5.8037 84.8775 6.1598 84.4588 6.60625C84.0402 7.0527 83.7165 7.58014 83.5075 8.15638C83.2985 8.73261 83.2087 9.34557 83.2434 9.95784C83.2377 10.5863 83.3567 11.2096 83.5936 11.7914C83.8304 12.3732 84.1803 12.9017 84.6228 13.3462C85.065 13.7919 85.5914 14.1445 86.171 14.3834C86.7506 14.6224 87.3719 14.7428 87.9985 14.7376C88.791 14.728 89.5703 14.5326 90.2742 14.1668C90.9781 13.801 91.5872 13.2751 92.0528 12.631L90.3667 11.5077C90.1322 11.9349 89.7874 12.2907 89.3687 12.5379C88.95 12.785 88.4727 12.9144 87.987 12.9124L87.9976 12.908ZM87.8574 7.01032C88.239 6.98901 88.6178 7.08547 88.9432 7.28673C89.2685 7.488 89.5248 7.78443 89.6775 8.13622L85.3411 9.95784C85.3411 7.85386 86.7398 7.01297 87.8583 7.01297L87.8574 7.01032Z" fill="#757575"/>
<path d="M20.4629 4.724V29.384C20.4202 29.9278 20.4891 30.4746 20.6654 30.9906C20.8417 31.5065 21.1216 31.9806 21.4879 32.3834C21.8541 32.7862 22.2988 33.1092 22.7945 33.3323C23.2901 33.5555 23.8261 33.674 24.3692 33.6805C26.2298 33.6805 28.2755 32.3732 28.2755 29.384V4.91076C28.2999 4.38028 28.2169 3.85033 28.0317 3.35295C27.8464 2.85556 27.5626 2.40107 27.1975 2.01693C26.8324 1.63279 26.3935 1.32699 25.9074 1.11801C25.4213 0.909029 24.898 0.801204 24.3692 0.801053C23.338 0.816587 22.3534 1.23488 21.6242 1.96724C20.8949 2.69959 20.4784 3.68841 20.4629 4.724Z" fill="#F9AB00"/>
<path d="M10.2345 17.2417V29.3849C10.192 29.9283 10.2611 30.4747 10.4373 30.9903C10.6136 31.5058 10.8933 31.9796 11.2593 32.3822C11.6252 32.7847 12.0695 33.1076 12.5647 33.3308C13.0599 33.554 13.5954 33.6727 14.1382 33.6796C15.9988 33.6796 18.0444 32.3723 18.0444 29.3832V17.4284C18.0685 16.8982 17.9853 16.3685 17.7998 15.8714C17.6144 15.3744 17.3306 14.9202 16.9655 14.5363C16.6004 14.1525 16.1616 13.8469 15.6757 13.6381C15.1898 13.4293 14.6667 13.3215 14.1382 13.3214C13.1079 13.3376 12.1243 13.7558 11.3957 14.4875C10.6671 15.2192 10.2507 16.207 10.2345 17.2417Z" fill="#E37400"/>
<path d="M3.90626 33.6805C6.06363 33.6805 7.81253 31.9241 7.81253 29.7576C7.81253 27.591 6.06363 25.8346 3.90626 25.8346C1.74889 25.8346 0 27.591 0 29.7576C0 31.9241 1.74889 33.6805 3.90626 33.6805Z" fill="#E37400"/>
</svg>
