<svg width="200" height="80" viewBox="0 0 200 80" fill="none" xmlns="http://www.w3.org/2000/svg">
<path d="M87.3919 44.1181L89.6288 50.0158H85.2977L87.3954 44.1181H87.3919ZM86.5528 42.1425L81.6603 55.0567H83.4768L84.7345 51.548H90.1859L91.4436 55.0567H93.261L88.3685 42.1425H86.5511H86.5528ZM112.964 55.0655H114.648V42.1522H112.964V55.0655ZM95.7773 47.4755C96.0928 47.0185 96.5096 46.6413 96.9949 46.3736C97.4802 46.1059 98.0207 45.9549 98.5739 45.9327C100.811 45.9327 101.928 47.4772 101.928 49.7228V55.1974H100.243V50.0043C100.243 48.1791 99.2649 47.4772 98.0063 47.4772C97.3461 47.5343 96.7323 47.842 96.2902 48.3377C95.848 48.8334 95.6107 49.4797 95.6266 50.145V55.0585H93.9441V46.0858H95.6301L95.7703 47.4905L95.7773 47.4755ZM103.326 52.3986C103.326 50.423 105.143 49.3095 107.241 49.3095C108.074 49.2296 108.911 49.4268 109.621 49.8707V49.5883C109.623 49.2991 109.565 49.0127 109.452 48.747C109.338 48.4813 109.171 48.242 108.961 48.0442C108.751 47.8464 108.502 47.6944 108.231 47.5975C107.96 47.5007 107.671 47.4613 107.384 47.4817C106.946 47.4378 106.505 47.5369 106.127 47.7645C105.749 47.992 105.454 48.3357 105.286 48.7448L103.746 48.0481C104.027 47.2055 105.145 45.9415 107.38 45.9415C107.892 45.8995 108.408 45.9674 108.893 46.1409C109.377 46.3144 109.82 46.5894 110.19 46.9477C110.561 47.306 110.851 47.7394 111.042 48.2191C111.233 48.6988 111.321 49.2138 111.298 49.7299V55.0647H109.757V53.8016H109.617C109.302 54.2913 108.866 54.6908 108.351 54.9614C107.837 55.2321 107.262 55.3646 106.682 55.3461C104.864 55.3461 103.326 54.2229 103.326 52.3986ZM109.618 51.2754C108.995 50.8707 108.261 50.6742 107.52 50.7142C105.834 50.7142 105.14 51.6967 105.14 52.4075C105.14 53.39 106.119 53.8122 106.957 53.8122C107.633 53.7968 108.279 53.5297 108.77 53.0627C109.261 52.5957 109.561 51.9622 109.613 51.2851" fill="#757575"/>
<path fill-rule="evenodd" clip-rule="evenodd" d="M117.027 59L118.995 54.3681L115.501 46.2248H117.187L119.843 52.4013L122.5 46.2248H124.186L118.735 59H117.027ZM141.631 49.1749C141.463 48.6654 141.147 48.2186 140.722 47.893C140.297 47.5673 139.785 47.378 139.251 47.3498C138.874 47.3755 138.506 47.4761 138.168 47.6457C137.83 47.8153 137.528 48.0505 137.281 48.3378C137.034 48.6251 136.846 48.9587 136.729 49.3193C136.611 49.68 136.565 50.0605 136.595 50.4389C136.565 50.8173 136.611 51.1979 136.729 51.5585C136.846 51.9192 137.034 52.2528 137.281 52.54C137.528 52.8273 137.83 53.0625 138.168 53.2321C138.506 53.4017 138.874 53.5023 139.251 53.5281C139.768 53.5036 140.266 53.3312 140.688 53.0311C141.11 52.731 141.437 52.3159 141.631 51.8348L143.03 52.6774C142.717 53.4244 142.193 54.0624 141.522 54.5118C140.85 54.9612 140.062 55.2022 139.256 55.2045C138.051 55.1481 136.918 54.6136 136.105 53.7185C135.292 52.8234 134.867 51.641 134.922 50.4309C134.884 49.8293 134.966 49.226 135.165 48.6572C135.364 48.0883 135.675 47.5655 136.079 47.12C136.484 46.6745 136.974 46.3154 137.519 46.0641C138.065 45.8128 138.656 45.6745 139.256 45.6574C140.063 45.6585 140.851 45.8989 141.523 46.3485C142.194 46.798 142.718 47.4368 143.03 48.1845L141.631 49.167V49.1749Z" fill="#757575"/>
<path d="M147.642 55.3444C149.879 55.3444 150.996 54.0813 150.996 52.5367C150.996 49.1678 146.104 50.4301 146.104 48.465C146.104 47.7631 146.663 47.3418 147.642 47.3418C148.1 47.3176 148.557 47.4075 148.972 47.6034C149.387 47.7994 149.748 48.0954 150.022 48.465L151 47.4825C150.095 46.4875 148.842 45.8823 147.503 45.7937C145.405 45.7937 144.287 47.0568 144.287 48.6014C144.287 51.8304 149.32 50.708 149.32 52.3915C149.32 53.2342 148.761 53.7963 147.634 53.7963C147.174 53.7694 146.728 53.6267 146.337 53.3812C145.946 53.1357 145.623 52.7954 145.397 52.3915L144.155 53.3838C144.994 54.2264 146.253 55.3594 147.649 55.3594L147.642 55.3444ZM131.706 55.0638H133.392V46.0831H131.706V55.0638Z" fill="#757575"/>
<path fill-rule="evenodd" clip-rule="evenodd" d="M132.404 41.7397C132.7 41.7397 132.985 41.8581 133.195 42.0687C133.404 42.2794 133.522 42.5651 133.522 42.863C133.522 43.1609 133.404 43.4466 133.195 43.6572C132.985 43.8679 132.7 43.9862 132.404 43.9862C132.114 43.9663 131.841 43.8416 131.635 43.6351C131.43 43.4286 131.306 43.1543 131.286 42.863C131.306 42.5717 131.43 42.2974 131.635 42.0909C131.841 41.8844 132.114 41.7596 132.404 41.7397ZM130.024 53.6732L130.305 54.9363H128.619C127.081 54.9363 126.382 53.8131 126.382 52.1286V47.7587H124.696V46.0663H126.382V43.4162H128.068V46.0831H130.036V47.7764H128.068V52.4084C128.068 53.6715 129.047 53.6714 130.036 53.6714L130.024 53.6732Z" fill="#757575"/>
<path d="M90.1603 27.874V29.9842H95.0493C94.9698 30.9288 94.5758 31.819 93.9308 32.5113C93.4445 33.0188 92.8578 33.4184 92.2084 33.6844C91.559 33.9504 90.8613 34.077 90.1603 34.0558C89.452 34.0521 88.7515 33.9069 88.0995 33.6287C87.4476 33.3506 86.8573 32.9449 86.363 32.4355C85.8686 31.926 85.4801 31.3228 85.2201 30.6612C84.96 29.9995 84.8336 29.2924 84.8482 28.5812C84.8424 27.1516 85.3958 25.7767 86.3893 24.7528C87.3828 23.7289 88.737 23.1377 90.1603 23.1066C91.5033 23.1052 92.7988 23.6059 93.7942 24.5114L95.193 23.1066C93.8511 21.7753 92.0465 21.0199 90.1603 21C88.1863 21.0075 86.293 21.7881 84.8832 23.1758C83.4734 24.5635 82.6584 26.4488 82.6113 28.4308C82.659 30.4122 83.4744 32.2968 84.8841 33.684C86.2938 35.0711 88.1867 35.8514 90.1603 35.8589C91.1238 35.9131 92.0873 35.7523 92.9815 35.3881C93.8758 35.0238 94.6786 34.4651 95.3322 33.7522C95.9345 33.1169 96.4053 32.3678 96.7173 31.5484C97.0292 30.7289 97.1762 29.8555 97.1496 28.9787C97.1808 28.5526 97.1333 28.1243 97.0095 27.7156H90.1594L90.1603 27.874ZM102.6 26.1781C101.971 26.1617 101.345 26.2743 100.761 26.5088C100.176 26.7433 99.6453 27.0948 99.2006 27.5421C98.7558 27.9893 98.4064 28.5228 98.1737 29.11C97.9409 29.6973 97.8297 30.326 97.8468 30.9578C97.831 31.5889 97.9433 32.2165 98.1766 32.8026C98.41 33.3887 98.7596 33.9211 99.2042 34.3672C99.6488 34.8134 100.179 35.1641 100.763 35.398C101.347 35.6319 101.972 35.7441 102.6 35.7279C103.226 35.7336 103.847 35.6141 104.426 35.3762C105.005 35.1384 105.531 34.787 105.974 34.3426C106.416 33.8986 106.766 33.3706 107.002 32.7895C107.239 32.2084 107.359 31.5857 107.353 30.9578C107.371 30.3258 107.26 29.6968 107.028 29.1092C106.796 28.5216 106.446 27.9877 106.001 27.5404C105.556 27.093 105.025 26.7414 104.44 26.5072C103.856 26.273 103.229 26.161 102.6 26.1781ZM102.6 33.8912C101.86 33.85 101.166 33.5174 100.669 32.9656C100.171 32.4137 99.9109 31.6872 99.9436 30.9437C99.911 30.201 100.172 29.4755 100.669 28.9251C101.167 28.3747 101.861 28.044 102.6 28.005C102.97 28.0142 103.334 28.0987 103.67 28.2535C104.007 28.4082 104.308 28.6299 104.557 28.9052C104.805 29.1805 104.996 29.5036 105.116 29.8549C105.236 30.2062 105.284 30.5784 105.257 30.949C105.285 31.3198 105.237 31.6923 105.117 32.0439C104.997 32.3956 104.807 32.7191 104.558 32.9948C104.31 33.2704 104.008 33.4925 103.672 33.6475C103.335 33.8025 102.971 33.8872 102.601 33.8965L102.6 33.8912ZM125.516 27.1641C125.173 26.8046 124.76 26.5194 124.303 26.3262C123.847 26.133 123.355 26.0359 122.859 26.0409C121.64 26.0904 120.489 26.6181 119.652 27.5106C118.816 28.403 118.362 29.5892 118.386 30.8144C118.362 32.04 118.817 33.2263 119.654 34.1187C120.491 35.011 121.642 35.5382 122.862 35.5871C123.337 35.5935 123.808 35.4963 124.243 35.3024C124.677 35.1085 125.065 34.8225 125.378 34.4639H125.519V35.1658C125.519 36.991 124.54 37.9735 123.002 37.9735C122.485 37.9536 121.984 37.783 121.562 37.4823C121.139 37.1816 120.813 36.7639 120.622 36.2802L118.805 36.9821C119.159 37.8072 119.743 38.5115 120.488 39.0098C121.232 39.5081 122.104 39.779 122.999 39.7898C125.515 39.7898 127.611 38.3851 127.611 34.7356V26.032H125.644V27.1517L125.516 27.1641ZM123.136 33.9027C122.777 33.8783 122.426 33.7822 122.105 33.6202C121.783 33.4582 121.497 33.2334 121.262 32.959C121.028 32.6846 120.851 32.3661 120.74 32.022C120.63 31.678 120.589 31.3153 120.62 30.9552C120.589 30.5951 120.63 30.2324 120.74 29.8883C120.851 29.5443 121.028 29.2258 121.262 28.9514C121.497 28.677 121.783 28.4522 122.105 28.2901C122.426 28.1281 122.777 28.0321 123.136 28.0077C123.495 28.0321 123.846 28.1281 124.168 28.2901C124.489 28.4522 124.776 28.677 125.01 28.9514C125.244 29.2258 125.422 29.5443 125.532 29.8883C125.642 30.2324 125.683 30.5951 125.652 30.9552C125.683 31.3147 125.642 31.6768 125.532 32.0203C125.422 32.3639 125.245 32.6819 125.011 32.9561C124.777 33.2302 124.492 33.4549 124.171 33.6171C123.85 33.7794 123.5 33.8758 123.141 33.9009L123.136 33.9027ZM112.931 26.1896C112.303 26.1739 111.678 26.2865 111.095 26.5206C110.512 26.7547 109.982 27.1053 109.538 27.5512C109.094 27.9972 108.745 28.5291 108.512 29.1147C108.279 29.7003 108.166 30.3273 108.182 30.9578C108.165 31.5897 108.276 32.2185 108.509 32.8058C108.742 33.3932 109.091 33.9267 109.536 34.3739C109.981 34.8212 110.512 35.1727 111.096 35.4072C111.681 35.6416 112.307 35.7541 112.936 35.7376C113.562 35.7433 114.182 35.6238 114.762 35.386C115.341 35.1481 115.867 34.7967 116.31 34.3524C116.753 33.9072 117.103 33.3776 117.34 32.7947C117.577 32.2119 117.696 31.5874 117.689 30.9578C117.717 30.3236 117.614 29.6905 117.385 29.0987C117.156 28.507 116.807 27.9697 116.359 27.521C115.912 27.0723 115.377 26.7221 114.787 26.4927C114.198 26.2633 113.567 26.1598 112.936 26.1887L112.931 26.1896ZM112.931 33.9027C112.192 33.8601 111.5 33.5273 111.004 32.9762C110.508 32.4251 110.247 31.7001 110.279 30.9578C110.247 30.2143 110.507 29.4878 111.005 28.936C111.502 28.3841 112.196 28.0515 112.936 28.0103C113.306 28.0196 113.67 28.1043 114.007 28.2593C114.343 28.4143 114.645 28.6364 114.893 28.9121C115.142 29.1877 115.332 29.5112 115.452 29.8629C115.572 30.2146 115.62 30.5871 115.592 30.9578C115.619 31.3282 115.571 31.7003 115.451 32.0514C115.33 32.4026 115.14 32.7255 114.892 33.0007C114.643 33.2759 114.342 33.4975 114.006 33.6523C113.67 33.807 113.306 33.8916 112.936 33.9009L112.931 33.9027ZM129.17 21.1328H131.268V35.7376H129.17V21.1328ZM136.998 33.908C136.513 33.9093 136.037 33.7799 135.619 33.5332C135.202 33.2866 134.858 32.9318 134.623 32.506L141.057 29.8381L140.772 29.2761C140.485 28.4106 139.944 27.6524 139.221 27.1011C138.497 26.5498 137.624 26.2311 136.717 26.1869C136.107 26.1888 135.503 26.3156 134.943 26.5597C134.382 26.8037 133.877 27.1598 133.459 27.6063C133.04 28.0527 132.716 28.5801 132.508 29.1564C132.299 29.7326 132.209 30.3456 132.243 30.9578C132.238 31.5863 132.357 32.2096 132.594 32.7914C132.83 33.3732 133.18 33.9017 133.623 34.3462C134.065 34.7919 134.591 35.1445 135.171 35.3834C135.751 35.6224 136.372 35.7428 136.998 35.7376C137.791 35.728 138.57 35.5326 139.274 35.1668C139.978 34.801 140.587 34.2751 141.053 33.631L139.367 32.5077C139.132 32.9349 138.787 33.2907 138.369 33.5379C137.95 33.785 137.473 33.9144 136.987 33.9124L136.998 33.908ZM136.857 28.0103C137.239 27.989 137.618 28.0855 137.943 28.2867C138.269 28.488 138.525 28.7844 138.677 29.1362L134.341 30.9578C134.341 28.8539 135.74 28.013 136.858 28.013L136.857 28.0103Z" fill="#757575"/>
<path d="M69.4629 25.724V50.384C69.4202 50.9278 69.4891 51.4746 69.6654 51.9906C69.8417 52.5065 70.1216 52.9806 70.4879 53.3834C70.8541 53.7862 71.2988 54.1092 71.7945 54.3323C72.2901 54.5555 72.8261 54.674 73.3692 54.6805C75.2298 54.6805 77.2755 53.3732 77.2755 50.384V25.9108C77.2999 25.3803 77.2169 24.8503 77.0317 24.3529C76.8464 23.8556 76.5626 23.4011 76.1975 23.0169C75.8324 22.6328 75.3935 22.327 74.9074 22.118C74.4213 21.909 73.898 21.8012 73.3692 21.8011C72.338 21.8166 71.3534 22.2349 70.6242 22.9672C69.8949 23.6996 69.4784 24.6884 69.4629 25.724Z" fill="#F9AB00"/>
<path d="M59.2345 38.2417V50.3849C59.192 50.9283 59.2611 51.4747 59.4373 51.9903C59.6136 52.5058 59.8933 52.9796 60.2593 53.3822C60.6252 53.7847 61.0695 54.1076 61.5647 54.3308C62.0599 54.554 62.5954 54.6727 63.1382 54.6796C64.9988 54.6796 67.0444 53.3723 67.0444 50.3832V38.4284C67.0685 37.8982 66.9853 37.3685 66.7998 36.8714C66.6144 36.3744 66.3306 35.9202 65.9655 35.5363C65.6004 35.1525 65.1616 34.8469 64.6757 34.6381C64.1898 34.4293 63.6667 34.3215 63.1382 34.3214C62.1079 34.3376 61.1243 34.7558 60.3957 35.4875C59.6671 36.2192 59.2507 37.207 59.2345 38.2417Z" fill="#E37400"/>
<path d="M52.9063 54.6805C55.0636 54.6805 56.8125 52.9241 56.8125 50.7576C56.8125 48.591 55.0636 46.8346 52.9063 46.8346C50.7489 46.8346 49 48.591 49 50.7576C49 52.9241 50.7489 54.6805 52.9063 54.6805Z" fill="#E37400"/>
</svg>
