<svg width="200" height="80" viewBox="0 0 200 80" fill="none" xmlns="http://www.w3.org/2000/svg">
<path d="M25.6331 48.118L38.9936 25.2464C40.6901 26.2452 49.247 30.9809 50.628 31.8817L37.2689 54.7534C35.809 56.6832 23.7808 51.0474 25.6331 48.118Z" fill="#FBBC04"/>
<path d="M64.0469 48.118L50.6891 25.2464C49.7711 23.728 48.2969 22.6276 46.5802 22.1792C44.8635 21.7308 43.0395 21.9697 41.4963 22.8452C40.7259 23.2617 40.0484 23.8305 39.5049 24.5171C38.9613 25.2037 38.5632 25.9937 38.3348 26.839C38.1063 27.6844 38.0522 28.5674 38.1759 29.4343C38.2995 30.3012 38.5983 31.1339 39.054 31.8817L52.4124 54.7534C53.3304 56.2718 54.8046 57.3721 56.5213 57.8205C58.238 58.2689 60.062 58.03 61.6053 57.1545C62.3604 56.723 63.0228 56.1467 63.5545 55.4585C64.0862 54.7703 64.4767 53.9839 64.7037 53.1444C64.9306 52.3049 64.9894 51.4288 64.8768 50.5665C64.7643 49.7041 64.4824 48.8725 64.0476 48.1194L64.0469 48.118Z" fill="#4285F4"/>
<path d="M31.415 58.0388C35.1186 58.0388 38.1209 55.1111 38.1209 51.4995C38.1209 47.888 35.1186 44.9602 31.415 44.9602C27.7114 44.9602 24.709 47.888 24.709 51.4995C24.709 55.1111 27.7114 58.0388 31.415 58.0388Z" fill="#34A853"/>
<path fill-rule="evenodd" clip-rule="evenodd" d="M142.878 47.7014L148.204 33.7157H150.256L155.583 47.7014H153.571L152.209 43.9131H146.27L144.888 47.7014H142.878ZM146.883 42.2309H151.579L149.27 35.9227H149.192L146.883 42.2309ZM160.674 48.0125C160.06 48.0139 159.454 47.8836 158.895 47.6307C158.337 47.3778 157.84 47.0083 157.44 46.5475C156.527 45.5574 156.038 44.2548 156.077 42.9147C156.038 41.5747 156.527 40.272 157.44 39.282C157.84 38.8212 158.337 38.4517 158.895 38.1988C159.454 37.9459 160.06 37.8157 160.674 37.8169C161.365 37.8053 162.047 37.9664 162.659 38.2853C163.194 38.5519 163.648 38.9564 163.971 39.4563H164.051L163.971 38.128V33.714H165.786V47.6996H164.059V46.3713H163.98C163.657 46.8717 163.203 47.2767 162.667 47.5441C162.054 47.8646 161.368 48.0246 160.674 48.0125ZM160.972 46.3713C161.381 46.377 161.787 46.2963 162.163 46.1348C162.539 45.9733 162.876 45.7347 163.151 45.4346C163.774 44.7448 164.097 43.8391 164.049 42.9147C164.097 41.9904 163.774 41.0848 163.151 40.3949C162.876 40.0948 162.539 39.8561 162.163 39.6945C161.787 39.533 161.381 39.4524 160.972 39.458C160.563 39.4551 160.158 39.5381 159.784 39.7013C159.41 39.8646 159.076 40.1045 158.802 40.4051C158.177 41.0907 157.85 41.9934 157.894 42.9164C157.85 43.8389 158.177 44.7411 158.802 45.426C159.076 45.7271 159.41 45.9674 159.784 46.1309C160.158 46.2945 160.563 46.3777 160.972 46.3748V46.3713ZM171.489 48.0125C170.535 48.0499 169.596 47.7753 168.816 47.2312C168.127 46.7329 167.589 46.0571 167.261 45.2772L168.879 44.6139C169.063 45.1527 169.418 45.6185 169.891 45.9421C170.363 46.2657 170.928 46.43 171.503 46.4107C171.993 46.4312 172.479 46.3017 172.893 46.0397C173.06 45.9367 173.198 45.7927 173.293 45.6217C173.388 45.4508 173.437 45.2586 173.435 45.0635C173.435 44.4378 172.995 44.0145 172.114 43.7934L170.161 43.325C169.517 43.1566 168.919 42.8535 168.404 42.436C168.135 42.2273 167.919 41.9583 167.775 41.651C167.631 41.3437 167.562 41.0069 167.576 40.6684C167.572 40.2575 167.674 39.8526 167.872 39.4918C168.071 39.131 168.359 38.8263 168.71 38.6067C169.501 38.0688 170.443 37.7917 171.403 37.8152C172.204 37.8014 172.995 38.0004 173.692 38.3913C174.35 38.7609 174.859 39.3443 175.133 40.0427L173.554 40.6871C173.372 40.2686 173.059 39.9193 172.661 39.6908C172.263 39.4623 171.801 39.3669 171.344 39.4187C170.868 39.4027 170.397 39.5176 169.983 39.7504C169.817 39.8358 169.677 39.9648 169.579 40.1234C169.482 40.2819 169.43 40.464 169.43 40.6496C169.43 41.1966 169.858 41.5676 170.713 41.7625L172.627 42.2121C173.397 42.3457 174.103 42.7229 174.639 43.2873C175.06 43.762 175.292 44.3732 175.29 45.0054C175.294 45.4209 175.2 45.8317 175.015 46.2048C174.831 46.5779 174.56 46.9031 174.226 47.1543C173.444 47.7502 172.475 48.0529 171.489 48.0125Z" fill="#747474"/>
<path d="M81.868 47.9885C80.8032 48.0154 79.7438 47.831 78.7522 47.4462C77.7605 47.0614 76.8567 46.484 76.0941 45.748C75.3314 45.0121 74.7253 44.1324 74.3114 43.1609C73.8976 42.1894 73.6844 41.1457 73.6844 40.0914C73.6844 39.0371 73.8976 37.9934 74.3114 37.0219C74.7253 36.0504 75.3314 35.1707 76.0941 34.4347C76.8567 33.6988 77.7605 33.1214 78.7522 32.7366C79.7438 32.3518 80.8032 32.1674 81.868 32.1942C82.8864 32.1758 83.898 32.362 84.8417 32.7416C85.7853 33.1212 86.6414 33.6864 87.358 34.403L85.814 35.9313C85.1157 35.3088 84.2753 34.8634 83.3648 34.6333C82.4543 34.4031 81.501 34.3951 80.5867 34.6099C79.6724 34.8247 78.8244 35.256 78.1155 35.8666C77.4066 36.4772 76.8579 37.249 76.5166 38.1157C76.1753 38.9824 76.0516 39.9181 76.156 40.8426C76.2605 41.767 76.5899 42.6526 77.1162 43.4233C77.6424 44.1939 78.3497 44.8267 79.1774 45.2672C80.005 45.7078 80.9283 45.9429 81.868 45.9525C82.6166 45.9768 83.3622 45.8459 84.0567 45.5679C84.7512 45.29 85.3792 44.8713 85.9005 44.3387C86.5862 43.5836 87.0097 42.6311 87.1093 41.6206H81.8766V39.4973H89.2455C89.3197 39.9464 89.3487 40.4017 89.3319 40.8564C89.3987 42.7333 88.7212 44.5617 87.4443 45.9508C85.9138 47.3054 83.9205 48.0338 81.868 47.9885ZM100.656 42.8942C100.67 43.5601 100.55 44.2222 100.302 44.8414C100.054 45.4606 99.6831 46.0243 99.2113 46.4992C98.7394 46.9741 98.1761 47.3506 97.5548 47.6064C96.9335 47.8622 96.2668 47.9921 95.5939 47.9885C94.919 47.9993 94.2489 47.8743 93.6243 47.621C92.9996 47.3677 92.4334 46.9915 91.9601 46.5151C91.4868 46.0387 91.1162 45.4721 90.8708 44.8497C90.6253 44.2273 90.51 43.562 90.5321 42.8942C90.5321 41.5653 91.0655 40.2908 92.0147 39.3511C92.964 38.4114 94.2514 37.8835 95.5939 37.8835C96.9363 37.8835 98.2238 38.4114 99.173 39.3511C100.122 40.2908 100.656 41.5653 100.656 42.8942ZM98.4243 42.8942C98.4541 42.5066 98.4033 42.1172 98.275 41.7498C98.1466 41.3825 97.9436 41.0452 97.6783 40.7587C97.413 40.4722 97.0911 40.2426 96.7326 40.0842C96.374 39.9257 95.9865 39.8418 95.5939 39.8375C94.8351 39.9228 94.1346 40.2817 93.626 40.8456C93.1173 41.4095 92.8361 42.139 92.8361 42.895C92.8361 43.651 93.1173 44.3805 93.626 44.9444C94.1346 45.5083 94.8351 45.8672 95.5939 45.9525C95.989 45.9557 96.3803 45.8768 96.7426 45.7207C97.1049 45.5647 97.43 45.3351 97.697 45.0468C97.964 44.7585 98.1669 44.4179 98.2925 44.0471C98.418 43.6763 98.4618 43.2835 98.4243 42.8942ZM112.067 42.8942C112.082 43.5601 111.962 44.2222 111.714 44.8414C111.466 45.4606 111.095 46.0243 110.623 46.4992C110.151 46.9741 109.588 47.3506 108.967 47.6064C108.345 47.8622 107.678 47.9921 107.006 47.9885C106.331 47.9993 105.661 47.8743 105.036 47.621C104.411 47.3677 103.845 46.9915 103.372 46.5151C102.899 46.0387 102.528 45.4721 102.282 44.8497C102.037 44.2273 101.922 43.562 101.944 42.8942C101.929 42.2282 102.049 41.5661 102.297 40.9469C102.546 40.3277 102.916 39.764 103.388 39.2891C103.86 38.8142 104.423 38.4377 105.045 38.1819C105.666 37.9261 106.333 37.7962 107.006 37.7998C107.676 37.8036 108.34 37.9385 108.957 38.197C109.575 38.4554 110.135 38.8321 110.606 39.3055C111.076 39.779 111.447 40.3397 111.698 40.9556C111.948 41.5715 112.075 42.2303 112.067 42.8942ZM109.838 42.8942C109.868 42.5066 109.817 42.1172 109.688 41.7498C109.56 41.3825 109.357 41.0452 109.092 40.7587C108.826 40.4722 108.504 40.2426 108.146 40.0842C107.787 39.9257 107.4 39.8418 107.007 39.8375C106.249 39.9228 105.548 40.2817 105.039 40.8456C104.531 41.4095 104.25 42.139 104.25 42.895C104.25 43.651 104.531 44.3805 105.039 44.9444C105.548 45.5083 106.249 45.8672 107.007 45.9525C107.4 45.948 107.787 45.8639 108.146 45.7052C108.504 45.5465 108.826 45.3167 109.091 45.03C109.356 44.7434 109.558 44.4059 109.686 44.0385C109.814 43.6711 109.865 43.2816 109.834 42.8942H109.838ZM123.135 38.1383V47.3099C123.135 51.0469 120.904 52.659 118.246 52.659C117.277 52.6621 116.328 52.3815 115.519 51.8526C114.71 51.3237 114.077 50.57 113.699 49.6861L115.672 48.8313C115.867 49.352 116.218 49.8015 116.677 50.12C117.137 50.4385 117.684 50.6109 118.245 50.6144C119.961 50.6144 120.991 49.5887 120.991 47.6415V46.8774H120.904C120.56 47.2606 120.137 47.5659 119.663 47.7724C119.189 47.979 118.676 48.0818 118.158 48.074C116.831 48.0303 115.574 47.4715 114.66 46.5183C113.745 45.5652 113.245 44.2941 113.269 42.9796C113.26 41.6693 113.764 40.4064 114.676 39.4563C115.588 38.5063 116.836 37.9432 118.158 37.8852C118.668 37.8726 119.175 37.9642 119.648 38.1542C120.12 38.3442 120.548 38.6286 120.904 38.9896H120.991V38.1348L123.135 38.1383ZM121.162 42.9779C121.106 42.4422 120.895 41.934 120.552 41.5154C120.21 41.0967 119.753 40.7856 119.235 40.6201C118.717 40.4546 118.162 40.4417 117.637 40.5832C117.112 40.7246 116.64 41.0142 116.279 41.4166C115.917 41.819 115.682 42.3168 115.601 42.8494C115.521 43.3819 115.598 43.9262 115.825 44.4158C116.052 44.9054 116.417 45.3191 116.877 45.6066C117.337 45.894 117.872 46.0427 118.416 46.0346C119.187 45.9852 119.908 45.6366 120.422 45.0643C120.935 44.492 121.2 43.7423 121.158 42.9779H121.162ZM127.08 32.702V47.6484H124.849V32.7037L127.08 32.702ZM136.001 44.59L137.716 45.7867C137.253 46.4944 136.617 47.0753 135.868 47.4759C135.118 47.8765 134.278 48.084 133.426 48.0792C132.752 48.0899 132.081 47.9649 131.457 47.7116C130.832 47.4583 130.266 47.0821 129.793 46.6057C129.319 46.1293 128.949 45.5628 128.703 44.9403C128.458 44.3179 128.343 43.6526 128.365 42.9848C128.259 41.8415 128.582 40.6998 129.273 39.7777C129.964 38.8557 130.974 38.2181 132.11 37.9869C133.246 37.7556 134.428 37.947 135.43 38.5243C136.433 39.1016 137.185 40.0244 137.544 41.1163L137.801 41.7112L130.938 44.5131C131.152 44.9838 131.503 45.3806 131.946 45.6528C132.389 45.9251 132.904 46.0603 133.425 46.0414C133.942 46.0309 134.448 45.8928 134.898 45.6397C135.348 45.3866 135.726 45.0264 136 44.5917L136.001 44.59ZM130.598 42.7215L135.229 40.853C135.049 40.5141 134.777 40.2315 134.443 40.0366C134.11 39.8416 133.729 39.7419 133.342 39.7486C132.962 39.7585 132.588 39.844 132.242 40.0002C131.896 40.1564 131.586 40.3801 131.329 40.6577C131.073 40.9354 130.876 41.2615 130.749 41.6164C130.623 41.9712 130.57 42.3477 130.594 42.7232L130.598 42.7215Z" fill="#747474"/>
</svg>
