<svg width="200" height="80" viewBox="0 0 200 80" fill="none" xmlns="http://www.w3.org/2000/svg">
<path d="M69.5137 48.7415V23H73.4096V33.142C74.63 31.2585 76.4605 30.3409 78.9013 30.3409C80.9666 30.3409 82.6094 30.9688 83.7359 32.2244C84.8624 33.4801 85.4257 35.267 85.4257 37.5369V48.7415H81.5298V38.1165C81.5298 35.1705 80.2625 33.7216 77.7279 33.7216C76.4605 33.7216 75.4279 34.108 74.583 34.929C73.7851 35.7017 73.3626 36.8125 73.3626 38.2614V48.7898L69.5137 48.7415Z" fill="#323232"/>
<path d="M103.825 46.5199C102.089 48.3068 99.9295 49.1761 97.301 49.1761C94.6725 49.1761 92.5133 48.3068 90.7766 46.5199C89.0399 44.733 88.1481 42.4631 88.1481 39.7585C88.1481 37.0057 89.0399 34.7841 90.7766 32.9972C92.5133 31.2102 94.6725 30.3409 97.301 30.3409C99.9295 30.3409 102.089 31.2102 103.825 32.9972C105.562 34.7841 106.407 37.0057 106.407 39.7585C106.407 42.5114 105.562 44.7813 103.825 46.5199ZM93.6398 44.2983C94.5786 45.4091 95.799 45.9886 97.3479 45.9886C98.8969 45.9886 100.117 45.4091 101.056 44.2983C101.995 43.1875 102.464 41.6903 102.464 39.7585C102.464 37.875 101.995 36.3778 101.056 35.267C100.117 34.1562 98.8969 33.5767 97.3949 33.5767C95.8459 33.5767 94.6255 34.108 93.6868 35.2188C92.748 36.3296 92.2786 37.8267 92.2786 39.7102C92.2317 41.642 92.7011 43.1875 93.6398 44.2983Z" fill="#323232"/>
<path d="M115.419 49.2244C111.852 49.2244 110.068 47.2443 110.068 43.2841V34.1563H107.346V30.7756H110.162L111.054 25.4631H113.964V30.7756H120.911V34.1563H113.964V43.1392C113.964 44.7813 114.574 45.6023 115.748 45.6023C116.874 45.6023 117.86 44.5881 118.752 42.5114L121.756 44.1051C120.254 47.5341 118.141 49.2244 115.419 49.2244Z" fill="#323232"/>
<path d="M122.976 57C121.239 57 119.831 56.517 118.705 55.5028L120.16 52.3636C120.864 53.1847 121.615 53.6193 122.413 53.6193C123.492 53.6193 124.056 52.8949 124.056 51.4943V30.7756H127.951V51.4943C127.951 53.4261 127.482 54.8267 126.543 55.6477C125.605 56.5653 124.431 57 122.976 57ZM125.98 27.733C125.323 27.733 124.713 27.4915 124.243 27.0568C124.009 26.8153 123.821 26.5739 123.727 26.2841C123.586 25.9943 123.539 25.6562 123.586 25.3665C123.586 25.0284 123.633 24.7386 123.774 24.4489C123.915 24.1591 124.056 23.8693 124.29 23.6761C124.76 23.2415 125.37 23 126.027 23C126.684 23 127.294 23.2415 127.764 23.6761C127.998 23.9176 128.186 24.1591 128.28 24.4489C128.421 24.7386 128.468 25.0767 128.468 25.3665C128.468 25.7045 128.421 25.9943 128.28 26.2841C128.139 26.5739 127.998 26.8153 127.764 27.0568C127.529 27.2983 127.247 27.4432 126.966 27.5881C126.637 27.6847 126.309 27.7813 125.98 27.733Z" fill="#323232"/>
<path d="M137.574 49.2244C135.602 49.2244 133.96 48.6932 132.739 47.679C131.519 46.6648 130.909 45.2642 130.909 43.5739C130.909 41.9801 131.566 40.6761 132.833 39.5654C134.1 38.4546 135.743 37.9233 137.668 37.9233C139.639 37.9233 141.329 38.5994 142.69 39.9034V37.7301C142.69 36.4261 142.362 35.4602 141.751 34.7358C141.094 34.0114 140.202 33.6733 139.029 33.6733C136.635 33.6733 135.18 34.929 134.617 37.3921L131.049 36.6193C131.519 34.6875 132.458 33.1904 133.913 32.0796C135.321 30.9688 137.104 30.3892 139.217 30.3892C141.517 30.3892 143.347 31.0171 144.662 32.2727C145.976 33.5284 146.68 35.3636 146.68 37.7301V48.7898H142.878V46.5199C141.564 48.3068 139.827 49.2244 137.574 49.2244ZM138.325 46.2301C140.062 46.2301 141.517 45.3608 142.737 43.5739V42.9943C141.517 41.4972 140.062 40.7727 138.325 40.7727C137.339 40.7727 136.494 41.0142 135.884 41.5455C135.602 41.7869 135.368 42.0767 135.18 42.4148C135.039 42.7528 134.945 43.1392 134.945 43.5256C134.945 43.9119 134.992 44.2983 135.18 44.6364C135.321 44.9744 135.555 45.2642 135.884 45.5057C136.447 45.9886 137.292 46.2301 138.325 46.2301Z" fill="#323232"/>
<path d="M150.388 48.7415V30.7756H154.19V33.8665C155.129 31.5966 156.818 30.4375 159.165 30.4375C160.574 30.4375 161.7 30.9205 162.639 31.8381C163.578 32.7557 164 34.0597 164 35.6051C164 36.571 163.812 37.4886 163.531 38.4062L159.963 38.0199C160.057 37.5369 160.104 37.054 160.104 36.5227C160.104 34.6875 159.353 33.7216 157.851 33.7216C156.865 33.7216 155.974 34.2528 155.316 35.3636C154.612 36.4744 154.284 37.9233 154.284 39.7102V48.6449H150.388V48.7415Z" fill="#323232"/>
<path d="M45.2468 33.5284C48.1569 31.8864 52.0997 29.6165 52.0997 23H47.2651C47.2651 26.6705 45.5284 27.6847 42.8529 29.1818C39.9428 30.8239 36 33.0938 36 39.7102H40.7877C40.8346 36.0398 42.5713 35.0739 45.2468 33.5284Z" fill="#FF3C00"/>
<path d="M53.5548 32.0313C53.5548 35.7017 51.8181 36.7159 49.1426 38.2131C46.2325 39.8551 42.2897 42.125 42.2897 48.7415H47.0774C47.0774 45.071 48.8141 44.0568 51.4895 42.5597C54.3997 40.9176 58.3425 38.6477 58.3425 32.0313H53.5548Z" fill="#FF3C00"/>
</svg>
