<svg width="200" height="80" viewBox="0 0 200 80" fill="none" xmlns="http://www.w3.org/2000/svg">
<path d="M62.6796 39.1213C62.9132 39.0933 63.1369 39.0921 63.3425 39.1213C63.4616 38.8484 63.482 38.3778 63.375 37.8655C63.2159 37.1039 63.0005 36.643 62.5555 36.7147C62.1105 36.7865 62.0941 37.3382 62.2531 38.0998C62.3426 38.5281 62.502 38.8944 62.6796 39.1213Z" fill="#000008"/>
<path d="M58.8619 39.7245C59.1803 39.8642 59.376 39.9568 59.4526 39.8758C59.5018 39.8253 59.4871 39.7291 59.4111 39.6049C59.254 39.3484 58.9307 39.0882 58.5878 38.9421C57.8862 38.6403 57.0499 38.7406 56.4046 39.2042C56.1916 39.3604 55.9895 39.5766 56.0185 39.7078C56.0278 39.7504 56.0598 39.7823 56.1345 39.7927C56.3101 39.8128 56.9239 39.5025 57.6308 39.4593C58.1301 39.4287 58.5435 39.5848 58.8619 39.7245Z" fill="#000008"/>
<path d="M58.2213 40.0892C57.8067 40.1547 57.5778 40.2914 57.431 40.4186C57.3056 40.5282 57.2282 40.6491 57.2288 40.7344C57.2292 40.7748 57.2467 40.7981 57.2605 40.8098C57.2795 40.8265 57.3019 40.8357 57.3288 40.8357C57.4224 40.8357 57.6323 40.7516 57.6323 40.7516C58.2094 40.5451 58.5901 40.5701 58.9675 40.613C59.1759 40.6364 59.2743 40.6494 59.3201 40.5779C59.3336 40.5574 59.3501 40.513 59.3083 40.4454C59.2112 40.2878 58.7924 40.0214 58.2213 40.0892Z" fill="#000008"/>
<path d="M61.3926 41.4311C61.6742 41.5695 61.9842 41.5151 62.0851 41.3098C62.186 41.1045 62.0396 40.8259 61.758 40.6875C61.4763 40.5491 61.1663 40.6034 61.0654 40.8087C60.9645 41.0141 61.111 41.2928 61.3926 41.4311Z" fill="#000008"/>
<path d="M63.2019 39.8491C62.9732 39.8453 62.7833 40.0964 62.7781 40.4101C62.7728 40.7238 62.9539 40.9812 63.1826 40.9851C63.4115 40.9889 63.6012 40.7378 63.6065 40.4242C63.6118 40.1104 63.4307 39.853 63.2019 39.8491Z" fill="#000008"/>
<path d="M47.5958 45.4772C47.5326 45.4919 47.461 45.5087 47.3825 45.5072C47.2142 45.5041 47.0717 45.4322 46.9917 45.3092C46.8875 45.1492 46.8935 44.9107 47.0085 44.6374C47.0241 44.6006 47.0423 44.5598 47.0622 44.5152C47.2457 44.1035 47.5528 43.4147 47.208 42.7581C46.9485 42.2641 46.5253 41.9564 46.0166 41.8917C45.528 41.8299 45.0251 42.0109 44.7044 42.3649C44.1983 42.9231 44.1192 43.6828 44.2171 43.9512C44.253 44.0495 44.309 44.0767 44.3498 44.0824C44.4359 44.094 44.5632 44.0313 44.6429 43.8167C44.6487 43.8013 44.6563 43.7773 44.6659 43.747C44.7014 43.6335 44.7674 43.4224 44.8759 43.253C45.0066 43.0488 45.2101 42.9082 45.4491 42.8571C45.6926 42.805 45.9413 42.8513 46.1495 42.9877C46.504 43.2197 46.6406 43.6542 46.4892 44.0686C46.411 44.2829 46.2839 44.6928 46.3119 45.0294C46.3686 45.7112 46.7879 45.9849 47.1645 46.0139C47.5308 46.0277 47.7868 45.8223 47.8514 45.6719C47.8898 45.583 47.8575 45.5289 47.8368 45.5058C47.7798 45.4344 47.6863 45.4562 47.5958 45.4772Z" fill="#000008"/>
<path d="M57.2668 46.3599L57.2673 46.3606L57.2679 46.3621L57.2668 46.3599ZM69.0283 46.4903C68.7944 47.9078 68.1919 49.0582 67.1792 50.1165C66.5629 50.78 65.8145 51.3569 64.9582 51.7764C64.5035 52.0152 64.0194 52.2218 63.5079 52.3888C59.6906 53.6355 55.7831 52.2649 54.5232 49.3215C54.4228 49.1002 54.3379 48.8685 54.2709 48.6262C53.7341 46.6866 54.1898 44.3595 55.6142 42.8948L55.6141 42.894C55.702 42.8007 55.7915 42.6909 55.7915 42.5526C55.7915 42.437 55.7181 42.3151 55.6544 42.2287C55.1561 41.5057 53.4298 40.2741 53.7763 37.8903C54.0251 36.1779 55.5228 34.972 56.9192 35.0435C57.0371 35.0495 57.1553 35.0568 57.2731 35.0638C57.8781 35.0996 58.4061 35.1771 58.9042 35.198C59.7379 35.234 60.4877 35.1128 61.3756 34.373C61.6752 34.1234 61.9152 33.907 62.3216 33.8382C62.3642 33.8309 62.4707 33.7929 62.683 33.8028C62.8997 33.8144 63.106 33.8739 63.2915 33.9973C64.0035 34.4711 64.1045 35.6182 64.1413 36.4575C64.1623 36.9365 64.2202 38.0956 64.24 38.4283C64.2853 39.1892 64.4853 39.2965 64.89 39.4297C65.1175 39.5045 65.3287 39.5604 65.64 39.6477C66.5823 39.9124 67.1411 40.1808 67.4933 40.5256C67.7032 40.7409 67.8009 40.9699 67.8311 41.1882C67.9423 41.9988 67.2017 43.0001 65.2415 43.9099C63.0989 44.9044 60.4995 45.1562 58.7035 44.9562C58.5658 44.9408 58.0759 44.8853 58.0742 44.8851C56.6377 44.6916 55.8181 46.5482 56.6803 47.82C57.236 48.6398 58.7496 49.1733 60.264 49.1735C63.7362 49.1742 66.405 47.6914 67.3976 46.4108C67.4274 46.3725 67.4303 46.3684 67.4771 46.2977C67.5259 46.224 67.4857 46.1836 67.4248 46.2251C66.6137 46.78 63.0111 48.9833 59.1577 48.3204C59.1577 48.3204 58.6895 48.2436 58.262 48.0772C57.9223 47.9451 57.2115 47.6182 57.125 46.8888C60.2349 47.8504 62.1929 46.9414 62.1929 46.9414C62.2283 46.9265 62.2527 46.8859 62.2486 46.8459C62.2436 46.7965 62.1996 46.7607 62.1503 46.7657C62.1503 46.7657 59.6011 47.143 57.1929 46.2614C57.4552 45.4089 58.1526 45.7168 59.2069 45.8018C61.1071 45.9151 62.8102 45.6375 64.0687 45.2763C65.1594 44.9632 66.5919 44.3462 67.7045 43.4681C68.0798 44.2924 68.2124 45.1996 68.2124 45.1996C68.2124 45.1996 68.5028 45.1476 68.7455 45.2971C68.975 45.4381 69.1432 45.7316 69.0283 46.4903ZM51.3176 32.9866C52.5121 31.6063 53.9828 30.4062 55.2999 29.7324C55.3455 29.7091 55.3938 29.7586 55.3691 29.8034C55.2645 29.9928 55.0631 30.3982 54.9993 30.706C54.9894 30.7539 55.0416 30.79 55.082 30.7625C55.9015 30.2038 57.327 29.6053 58.5775 29.5284C58.6313 29.5251 58.6572 29.594 58.6145 29.6267C58.4244 29.7725 58.2164 29.9745 58.0644 30.1785C58.0386 30.2133 58.063 30.2634 58.1062 30.2637C58.9843 30.2699 60.2221 30.5772 61.0288 31.0295C61.0834 31.0603 61.0445 31.1659 60.9835 31.152C59.7628 30.8722 57.7647 30.66 55.6892 31.1662C53.8363 31.6181 52.422 32.3159 51.3901 33.0663C51.3381 33.1042 51.2754 33.0353 51.3176 32.9866ZM45.1118 39.551C44.0303 39.7613 43.0771 40.3742 42.4942 41.2209C42.1458 40.9304 41.4966 40.3678 41.382 40.1487C40.4514 38.3817 42.3976 34.9463 43.7573 33.0062C47.1173 28.2114 52.3799 24.5822 54.8161 25.2406C55.212 25.3526 56.5238 26.8736 56.5238 26.8736C56.5238 26.8736 54.0885 28.2246 51.8304 30.1079C48.7874 32.4507 46.4888 35.8559 45.1118 39.551ZM46.9292 47.6594C46.7655 47.6873 46.5985 47.6984 46.4301 47.6944C44.8027 47.6507 43.045 46.1858 42.8704 44.4484C42.6773 42.5281 43.6585 41.0501 45.3959 40.6998C45.6036 40.6579 45.8546 40.6338 46.1252 40.6479C47.0987 40.7012 48.533 41.4487 48.8609 43.569C49.151 45.447 48.69 47.3592 46.9292 47.6594ZM68.9733 44.259C68.9594 44.2098 68.8685 43.8777 68.7437 43.4777C68.6189 43.0778 68.4897 42.7962 68.4897 42.7962C68.9903 42.0468 68.9991 41.3767 68.9326 40.9974C68.8616 40.5268 68.6658 40.1259 68.2709 39.7115C67.8763 39.2971 67.0689 38.8727 65.9342 38.5542C65.8045 38.5177 65.3765 38.4003 65.3389 38.3889C65.336 38.3643 65.3076 36.9853 65.2817 36.3935C65.263 35.9655 65.2262 35.2975 65.0189 34.6394C64.7718 33.7489 64.3414 32.9695 63.8043 32.4709C65.2869 30.9341 66.2123 29.2411 66.2101 27.7888C66.206 24.9957 62.7757 24.1506 58.5484 25.9009C58.5439 25.9029 57.659 26.2781 57.6527 26.2813C57.6487 26.2774 56.0334 24.6926 56.0092 24.6714C51.1894 20.4677 36.1203 37.2168 40.938 41.2847L41.9911 42.1766C41.7179 42.8841 41.6106 43.6947 41.6983 44.5662C41.8107 45.6859 42.3883 46.759 43.3243 47.5883C44.2129 48.3755 45.3812 48.8737 46.515 48.8728C48.3898 53.1931 52.6736 55.8436 57.6965 55.9928C63.0844 56.1529 67.6072 53.6248 69.5023 49.0834C69.6262 48.7647 70.1522 47.3287 70.1522 46.061C70.1522 44.787 69.432 44.259 68.9733 44.259Z" fill="#000008"/>
<path d="M87.4619 41.7407C84.9269 41.7407 84.8825 44.5074 84.2836 44.5074C84.1585 44.5074 84.0591 44.3967 84.0591 44.2457C84.0591 44.0434 84.1115 43.868 84.1115 43.5417C84.1115 42.5486 83.4126 41.7407 81.9464 41.7407C80.7022 41.7407 79.7916 42.3639 79.2355 43.5166C78.9537 44.101 78.9778 44.5074 78.6933 44.5074C78.588 44.5074 78.5067 44.4076 78.5067 44.2643C78.5067 43.8413 78.8805 43.4535 78.8805 42.5445C78.8805 42.308 78.8618 42.1084 78.8243 41.9462H76.4128V51.2936H79.6841V46.222C79.6841 45.2222 80.1124 44.5823 80.8434 44.5823C81.3278 44.5823 81.7598 45.0055 81.7598 45.7811V51.2936H85.0311V46.222C85.0311 45.0996 85.5509 44.5823 86.1904 44.5823C86.7261 44.5823 87.1063 45.0783 87.1063 45.7811V51.2936H90.3407V45.5543C90.3407 43.0461 89.3451 41.7407 87.4619 41.7407Z" fill="#000008"/>
<path d="M109.839 39.329H106.604V51.2936H109.839V39.329Z" fill="#000008"/>
<path d="M110.905 46.5077C110.905 49.6879 112.963 51.5178 115.635 51.5178C117.167 51.5178 118.338 50.9119 119.056 50.3214V47.2368C118.33 47.7342 117.211 48.3024 116.009 48.3024C114.511 48.3024 113.728 47.68 113.728 46.6013C113.728 45.5723 114.63 44.9188 115.953 44.9188C117.151 44.9188 118.249 45.3953 119.056 45.9469V42.6753C118.374 42.167 117.167 41.7218 115.635 41.7218C112.768 41.7218 110.905 43.515 110.905 46.5077Z" fill="#000008"/>
<path d="M126.179 41.7588C124.864 41.7588 124.102 42.3681 123.543 43.4974C123.297 43.9953 123.278 44.4882 123.001 44.4882C122.896 44.4882 122.814 44.3917 122.814 44.2452C122.814 43.7273 123.431 42.9542 123.431 40.6744C123.431 40.1014 123.375 39.6588 123.263 39.3472H120.44V51.293H123.711V46.2624C123.711 45.3201 124.207 44.6004 124.964 44.6004C125.527 44.6004 125.917 45.0583 125.917 45.7992V51.293H129.189V45.4417C129.189 42.9997 128.124 41.7588 126.179 41.7588Z" fill="#000008"/>
<path d="M155.326 49.3307C154.666 49.3307 153.943 48.6462 153.943 46.919C153.943 45.4147 154.534 44.526 155.326 44.526C156.238 44.526 156.747 45.4038 156.747 46.919C156.747 48.6022 156.161 49.3307 155.326 49.3307ZM156.205 41.7218C154.759 41.7218 154.02 42.5455 153.607 43.3074C153.28 43.9102 153.233 44.4887 152.952 44.4887C152.815 44.4887 152.746 44.4078 152.746 44.2457C152.746 43.9594 153.12 43.4734 153.12 42.6753C153.12 42.3515 153.095 42.1083 153.045 41.9462H150.596V53.6865H153.887V49.9991C154.304 50.8909 155.178 51.4805 156.373 51.4805C158.528 51.4805 160 49.7029 160 46.6013C160 43.7398 158.635 41.7218 156.205 41.7218Z" fill="#000008"/>
<path d="M95.0883 49.1901C94.4815 49.1901 94.1548 48.9245 94.1548 48.462C94.1548 47.859 94.7215 47.3978 96.1898 47.3978C96.5133 47.3978 96.8063 47.4088 97.0715 47.4305C96.9422 48.2908 96.192 49.1901 95.0883 49.1901ZM96.1898 41.7218C94.4996 41.7218 92.9527 42.1397 91.8769 42.6741V45.3814C93.1287 44.7053 94.4119 44.205 95.5364 44.205C96.7416 44.205 97.2517 44.8405 97.1801 45.6767C96.6935 45.6262 96.154 45.6054 95.499 45.6054C92.9404 45.6054 91.3358 46.6043 91.3358 48.7794C91.3358 50.5659 92.7266 51.4866 94.2483 51.4866C95.7326 51.4866 96.7545 50.7769 97.3464 49.7065C97.6832 49.097 97.6544 48.7233 97.8741 48.7233C97.9816 48.7233 98.057 48.8002 98.057 48.9201C98.057 49.3103 97.9452 49.5387 97.9452 50.0677C97.9452 50.5624 98.0099 50.9791 98.1131 51.2812H100.466V46.2775C100.466 43.4351 99.166 41.7218 96.1898 41.7218Z" fill="#000008"/>
<path d="M107.855 33.136V27.8916H105.603V32.8675C105.603 34.1001 104.778 34.925 103.694 34.925C102.606 34.925 101.785 34.1001 101.785 32.8675V27.8916H99.5365L99.5488 33.136C99.5488 35.4199 101.377 37.0893 103.7 37.0893C106.023 37.0893 107.855 35.4232 107.855 33.136Z" fill="#000008"/>
<path d="M116.549 36.9081H118.797V29.9978H121.479V27.8916H113.863V29.9978H116.549V36.9081Z" fill="#000008"/>
<path d="M112.412 27.8953H110.164V36.912H112.412V27.8953Z" fill="#000008"/>
<path d="M93.149 36.9081H95.3974V29.9978H98.0795V27.8916H90.4632V29.9978H93.149V36.9081Z" fill="#000008"/>
<path d="M78.6612 27.8953H76.4128V36.912H78.6612V27.8953Z" fill="#000008"/>
<path d="M83.218 31.9326C83.218 30.7 84.043 29.875 85.1269 29.875C86.2107 29.875 87.0357 30.7 87.0357 31.9326V36.9082H89.2842L89.2777 31.664C89.2777 29.3799 87.4464 27.7105 85.1236 27.7105C82.8004 27.7105 80.969 29.3767 80.969 31.664V36.9082H83.218V31.9326Z" fill="#000008"/>
<path d="M146.351 41.7407C143.817 41.7407 143.772 44.5074 143.173 44.5074C143.048 44.5074 142.949 44.3967 142.949 44.2457C142.949 44.0434 143.001 43.868 143.001 43.5417C143.001 42.5486 142.302 41.7407 140.836 41.7407C139.592 41.7407 138.681 42.3639 138.125 43.5166C137.844 44.101 137.868 44.5074 137.583 44.5074C137.478 44.5074 137.396 44.4076 137.396 44.2643C137.396 43.8413 137.77 43.4535 137.77 42.5445C137.77 42.308 137.752 42.1084 137.714 41.9462H135.302V51.2936H138.574V46.222C138.574 45.2222 139.002 44.5823 139.733 44.5823C140.218 44.5823 140.649 45.0055 140.649 45.7811V51.2936H143.921V46.222C143.921 45.0996 144.441 44.5823 145.08 44.5823C145.616 44.5823 145.996 45.0783 145.996 45.7811V51.2936H149.231V45.5543C149.231 43.0461 148.235 41.7407 146.351 41.7407Z" fill="#000008"/>
<path d="M132.202 42.6006C131.516 42.6006 130.974 42.501 130.575 42.3014V51.2936H133.81V42.3014C133.39 42.4857 132.89 42.6006 132.202 42.6006Z" fill="#000008"/>
<path d="M132.182 39.2726C130.845 39.2726 130.144 39.8639 130.144 40.5438C130.144 41.2759 130.973 41.8151 132.182 41.8151C133.391 41.8151 134.22 41.2759 134.22 40.5438C134.22 39.8639 133.519 39.2726 132.182 39.2726Z" fill="#000008"/>
<path d="M103.549 42.6006C102.863 42.6006 102.321 42.501 101.922 42.3014V51.2936H105.157V42.3014C104.737 42.4857 104.237 42.6006 103.549 42.6006Z" fill="#000008"/>
<path d="M103.529 39.2726C102.192 39.2726 101.491 39.8639 101.491 40.5438C101.491 41.2759 102.32 41.8151 103.529 41.8151C104.739 41.8151 105.567 41.2759 105.567 40.5438C105.567 39.8639 104.866 39.2726 103.529 39.2726Z" fill="#000008"/>
</svg>
