<svg width="200" height="80" viewBox="0 0 200 80" fill="none" xmlns="http://www.w3.org/2000/svg">
<g clip-path="url(#clip0_184_144)">
<path fill-rule="evenodd" clip-rule="evenodd" d="M84.9335 59.0054H115.066C117.443 59.0054 119.371 57.1145 119.371 54.782V25.218C119.371 22.8855 117.443 20.9946 115.066 20.9946H84.9335C82.5562 20.9946 80.6289 22.8855 80.6289 25.218V54.782C80.6289 57.1145 82.5562 59.0054 84.9335 59.0054Z" fill="#007EBB"/>
<path fill-rule="evenodd" clip-rule="evenodd" d="M113.988 53.7261H108.239V44.119C108.239 41.485 107.219 40.013 105.094 40.013C102.782 40.013 101.574 41.5448 101.574 44.119V53.7261H96.034V35.4247H101.574V37.8899C101.574 37.8899 103.24 34.8655 107.199 34.8655C111.155 34.8655 113.988 37.2361 113.988 42.1388V53.7261ZM89.4243 33.0282C87.5371 33.0282 86.0078 31.5161 86.0078 29.6511C86.0078 27.7861 87.5371 26.2739 89.4243 26.2739C91.3115 26.2739 92.8398 27.7861 92.8398 29.6511C92.8398 31.5161 91.3115 33.0282 89.4243 33.0282ZM86.5634 53.7261H92.3407V35.4247H86.5634V53.7261Z" fill="white"/>
</g>
<defs>
<clipPath id="clip0_184_144">
<rect width="38.7417" height="38.0108" fill="white" transform="translate(80.6289 20.9946)"/>
</clipPath>
</defs>
</svg>
