<svg width="200" height="80" viewBox="0 0 200 80" fill="none" xmlns="http://www.w3.org/2000/svg">
<g clip-path="url(#clip0_184_138)">
<path d="M37.3903 44.1464C37.3903 45.641 37.731 46.7886 38.1762 47.4828C38.76 48.3921 39.6307 48.7774 40.5184 48.7774C41.6634 48.7774 42.7108 48.5038 44.7292 45.8153C46.3463 43.6604 48.2517 40.6357 49.5337 38.7395L51.7049 35.5269C53.2131 33.2958 54.9588 30.8156 56.9603 29.1345C58.5943 27.7623 60.3569 27 62.1309 27C65.1091 27 67.946 28.6621 70.1171 31.7794C72.4932 35.1934 73.6467 39.4936 73.6467 43.9313C73.6467 46.5694 73.1067 48.5079 72.1879 50.0393C71.3003 51.5203 69.5701 53 66.6597 53V48.7774C69.1517 48.7774 69.7737 46.5721 69.7737 44.0484C69.7737 40.4519 68.903 36.4607 66.9848 33.6089C65.6236 31.5861 63.8596 30.3501 61.9188 30.3501C59.8198 30.3501 58.1307 31.8747 56.2323 34.5931C55.2231 36.0374 54.187 37.7975 53.0237 39.7836L51.743 41.9684C49.1705 46.3612 48.5188 47.3617 47.2326 49.0129C44.978 51.9042 43.0528 53 40.5184 53C37.5119 53 35.6107 51.7463 34.4333 49.8569C33.4721 48.3173 33 46.2972 33 43.9953L37.3903 44.1464Z" fill="#0081FB"/>
<path d="M36.4609 32.0775C38.4738 29.0895 41.3785 27 44.7101 27C46.6396 27 48.5577 27.5499 50.5606 29.1249C52.7516 30.8469 55.0867 33.6824 57.9999 38.3556L59.0445 40.0327C61.5661 44.0783 63.0009 46.1597 63.8405 47.1412C64.9204 48.4017 65.6766 48.7774 66.659 48.7774C69.151 48.7774 69.7729 46.5721 69.7729 44.0484L73.6459 43.9313C73.6459 46.5694 73.106 48.5079 72.1872 50.0393C71.2995 51.5203 69.5694 53 66.659 53C64.8497 53 63.2468 52.6216 61.4743 51.0112C60.1117 49.7752 58.5186 47.5795 57.2931 45.6057L53.6477 39.7414C51.8186 36.7983 50.1408 34.604 49.1697 33.6103C48.1252 32.5417 46.7823 31.2512 44.6395 31.2512C42.9051 31.2512 41.4322 32.4232 40.1997 34.216L36.4609 32.0775Z" fill="url(#paint0_linear_184_138)"/>
<path d="M44.6402 31.2512C42.9058 31.2512 41.433 32.4232 40.2004 34.216C38.4575 36.7493 37.3903 40.5227 37.3903 44.1464C37.3903 45.641 37.731 46.7886 38.1762 47.4828L34.4333 49.8569C33.4721 48.3173 33 46.2972 33 43.9953C33 39.8094 34.193 35.4466 36.4617 32.0775C38.4745 29.0895 41.3792 27 44.7109 27L44.6402 31.2512Z" fill="url(#paint1_linear_184_138)"/>
<path d="M82.1797 27.8223H87.2584L95.8935 42.8669L104.53 27.8223H109.498V52.5427H105.355V33.5967L97.7819 46.7165H93.8948L86.3227 33.5967V52.5427H82.1797V27.8223ZM122.48 37.0393C119.509 37.0393 117.719 39.1928 117.291 41.8595H127.375C127.167 39.1125 125.522 37.0393 122.48 37.0393ZM113.183 43.3787C113.183 37.7676 116.949 33.6838 122.552 33.6838C128.063 33.6838 131.354 37.7159 131.354 43.6782V44.774H117.291C117.79 47.6748 119.789 49.6296 123.012 49.6296C125.583 49.6296 127.19 48.8741 128.714 47.4924L130.914 50.0883C128.841 51.9247 126.203 52.9837 122.865 52.9837C116.799 52.9837 113.183 48.7244 113.183 43.3787ZM136.378 37.3933H132.564V34.1262H136.378V28.7234H140.375V34.1262H146.169V37.3933H140.375V45.6738C140.375 48.5011 141.314 49.5057 143.62 49.5057C144.673 49.5057 145.277 49.4186 146.169 49.2757V52.5073C145.058 52.8095 143.998 52.9483 142.85 52.9483C138.535 52.9483 136.378 50.6778 136.378 46.1325V37.3933ZM163.001 40.5704C162.198 38.6184 160.407 37.1809 157.775 37.1809C154.355 37.1809 152.165 39.5182 152.165 43.3256C152.165 47.0378 154.181 49.488 157.611 49.488C160.308 49.488 162.233 47.977 163.001 46.0971V40.5704ZM166.998 52.5427H163.074V49.9645C161.978 51.4823 159.982 52.9837 156.749 52.9837C151.55 52.9837 148.076 48.7924 148.076 43.3256C148.076 37.8071 151.634 33.6838 156.97 33.6838C159.607 33.6838 161.676 34.6993 163.074 36.4921V34.1262H166.998V52.5427Z" fill="#192830"/>
</g>
<defs>
<linearGradient id="paint0_linear_184_138" x1="41.6216" y1="42.9267" x2="69.6034" y2="44.3942" gradientUnits="userSpaceOnUse">
<stop stop-color="#0064E1"/>
<stop offset="0.4" stop-color="#0064E1"/>
<stop offset="0.83" stop-color="#0073EE"/>
<stop offset="1" stop-color="#0082FB"/>
</linearGradient>
<linearGradient id="paint1_linear_184_138" x1="39.3608" y1="45.9215" x2="39.3608" y2="35.9843" gradientUnits="userSpaceOnUse">
<stop stop-color="#0082FB"/>
<stop offset="1" stop-color="#0064E0"/>
</linearGradient>
<clipPath id="clip0_184_138">
<rect width="134" height="26" fill="white" transform="translate(33 27)"/>
</clipPath>
</defs>
</svg>
