<svg width="200" height="80" viewBox="0 0 200 80" fill="none" xmlns="http://www.w3.org/2000/svg">
<path d="M55.0655 34.8159V45.1856H53.245V37.0579H53.2159L49.9608 45.1856H48.7545L45.4194 37.0579H45.3975V45.1856H43.7154V34.8159H46.3248L49.3371 42.502H49.3808L52.5629 34.8159H55.0655ZM56.5874 35.6032C56.5874 35.3128 56.6942 35.0727 56.9053 34.8759C57.1165 34.6814 57.369 34.583 57.6627 34.583C57.9758 34.583 58.2331 34.6838 58.437 34.8831C58.6409 35.0823 58.7428 35.3224 58.7428 35.6032C58.7428 35.8841 58.6385 36.1265 58.4297 36.3185C58.2209 36.5106 57.9637 36.609 57.6627 36.609C57.3617 36.609 57.1068 36.5106 56.8981 36.3161C56.6918 36.1217 56.5874 35.8841 56.5874 35.6032ZM58.5389 45.1856H56.7694V37.7516H58.5389V45.1856ZM63.9057 43.9135C64.1678 43.9135 64.4591 43.8534 64.7771 43.7334C65.0951 43.6133 65.3863 43.4549 65.6534 43.2557V44.8832C65.3717 45.0416 65.0514 45.1617 64.6921 45.2457C64.3329 45.3272 63.9397 45.368 63.5101 45.368C62.4032 45.368 61.5051 45.0224 60.8109 44.3311C60.1191 43.6398 59.772 42.7564 59.772 41.6811C59.772 40.4856 60.1264 39.5015 60.8327 38.7261C61.5391 37.9532 62.5416 37.5643 63.8377 37.5643C64.1703 37.5643 64.5052 37.6075 64.8426 37.6916C65.1825 37.7756 65.4519 37.874 65.651 37.9844V39.6623C65.3791 39.4654 65.0999 39.3119 64.8135 39.2038C64.5271 39.0958 64.2358 39.0406 63.9397 39.0406C63.243 39.0406 62.6799 39.2662 62.2503 39.7127C61.8206 40.1616 61.6071 40.7665 61.6071 41.5274C61.6071 42.2884 61.8134 42.8644 62.226 43.2845C62.6387 43.7046 63.1969 43.9135 63.9033 43.9135M70.69 37.6292C70.8308 37.6292 70.9594 37.6387 71.0711 37.658C71.1828 37.6772 71.2798 37.7012 71.3575 37.73V39.5015C71.2653 39.4342 71.1294 39.3695 70.9521 39.3094C70.7749 39.2494 70.5589 39.2182 70.3041 39.2182C69.8696 39.2182 69.503 39.3983 69.2045 39.7607C68.9035 40.1232 68.7554 40.6801 68.7554 41.4314V45.1856H66.9859V37.7516H68.7554V38.923H68.7845C68.9448 38.5173 69.1899 38.2004 69.5152 37.9724C69.8429 37.7444 70.2337 37.6292 70.6924 37.6292M71.4546 41.5779C71.4546 40.3488 71.8042 39.3743 72.5081 38.6565C73.2095 37.9388 74.1854 37.5787 75.433 37.5787C76.6078 37.5787 77.5253 37.9244 78.1856 38.6157C78.8458 39.307 79.1758 40.2408 79.1758 41.4194C79.1758 42.598 78.8239 43.5845 78.1224 44.2975C77.4209 45.0104 76.4646 45.368 75.2557 45.368C74.0469 45.368 73.1658 45.0296 72.4813 44.3527C71.7968 43.6758 71.4546 42.7516 71.4546 41.5802M73.2969 41.5226C73.2969 42.3004 73.4741 42.8932 73.8309 43.3013C74.1854 43.7118 74.6951 43.9158 75.3601 43.9158C76.0252 43.9158 76.4937 43.7118 76.8286 43.3013C77.166 42.8908 77.3335 42.2835 77.3335 41.4794C77.3335 40.6753 77.1588 40.0751 76.8117 39.6671C76.4646 39.259 75.9742 39.055 75.3456 39.055C74.7169 39.055 74.1951 39.2686 73.8358 39.6959C73.4766 40.1232 73.2993 40.7305 73.2993 41.5226M81.8095 39.7079C81.8095 39.9599 81.8896 40.1544 82.0498 40.2984C82.2099 40.44 82.5668 40.6201 83.1178 40.8361C83.8242 41.1169 84.3217 41.4314 84.6057 41.7795C84.8922 42.13 85.033 42.5524 85.033 43.0492C85.033 43.7478 84.7611 44.3095 84.2174 44.7344C83.6737 45.1593 82.9381 45.3704 82.0133 45.3704C81.7002 45.3704 81.3556 45.3345 80.9794 45.2576C80.6006 45.1832 80.2803 45.0872 80.0181 44.972V43.2509C80.3385 43.4717 80.6857 43.6494 81.057 43.779C81.4284 43.9086 81.7633 43.9735 82.0668 43.9735C82.4673 43.9735 82.761 43.9182 82.9503 43.8078C83.1397 43.6974 83.2343 43.5102 83.2343 43.2509C83.2343 43.0109 83.1348 42.8068 82.9381 42.6388C82.7415 42.4732 82.3678 42.2811 81.8168 42.0627C81.1639 41.7915 80.7002 41.489 80.4283 41.1505C80.1565 40.8121 80.0181 40.3848 80.0181 39.864C80.0181 39.1942 80.2875 38.6421 80.8265 38.2125C81.3653 37.7804 82.0644 37.5643 82.9212 37.5643C83.1833 37.5643 83.4795 37.5931 83.8071 37.6508C84.1324 37.7084 84.4067 37.7828 84.6251 37.8764V39.5399C84.3922 39.3863 84.1179 39.2518 83.8071 39.1414C83.494 39.031 83.1858 38.9758 82.8775 38.9758C82.5401 38.9758 82.2804 39.0406 82.091 39.1702C81.9041 39.2999 81.8095 39.4798 81.8095 39.7055M85.7951 41.5779C85.7951 40.3488 86.1471 39.3743 86.8486 38.6565C87.55 37.9388 88.5258 37.5787 89.7735 37.5787C90.9482 37.5787 91.8658 37.9244 92.526 38.6157C93.1862 39.307 93.5163 40.2408 93.5163 41.4194C93.5163 42.598 93.1644 43.5845 92.4629 44.2975C91.7615 45.0104 90.8051 45.368 89.5963 45.368C88.3875 45.368 87.5063 45.0296 86.8218 44.3527C86.1374 43.6758 85.7951 42.7516 85.7951 41.5802M87.6374 41.5226C87.6374 42.3004 87.8146 42.8932 88.1714 43.3013C88.5282 43.7118 89.0355 43.9158 89.7006 43.9158C90.3657 43.9158 90.8342 43.7118 91.1716 43.3013C91.509 42.8908 91.6764 42.2835 91.6764 41.4794C91.6764 40.6753 91.5017 40.0751 91.1545 39.6671C90.8051 39.259 90.3171 39.055 89.6885 39.055C89.0598 39.055 88.5379 39.2686 88.1787 39.6959C87.8194 40.1232 87.6423 40.7305 87.6423 41.5226M99.3929 39.187H96.7568V45.1905H94.9655V39.187H93.7081V37.7564H94.9655V36.7218C94.9655 35.9417 95.2227 35.3008 95.7374 34.8015C96.2519 34.3022 96.9097 34.0525 97.7156 34.0525C97.9292 34.0525 98.1209 34.0645 98.286 34.0861C98.451 34.1077 98.5992 34.1414 98.7253 34.1846V35.6968C98.6671 35.6632 98.5652 35.6224 98.417 35.5744C98.2715 35.5264 98.1039 35.5024 97.9122 35.5024C97.5408 35.5024 97.2568 35.6176 97.0578 35.8456C96.8588 36.0737 96.7592 36.4145 96.7592 36.861V37.7588H99.3953V36.0881L101.172 35.5528V37.7588H102.963V39.1894H101.172V42.6676C101.172 43.1261 101.257 43.4478 101.424 43.6374C101.592 43.8246 101.857 43.9206 102.218 43.9206C102.32 43.9206 102.444 43.8966 102.587 43.8486C102.73 43.8006 102.857 43.743 102.963 43.6758V45.1232C102.852 45.1856 102.665 45.2432 102.403 45.296C102.143 45.3489 101.886 45.3753 101.631 45.3753C100.886 45.3753 100.325 45.1785 99.9536 44.7872C99.5797 44.3935 99.3953 43.803 99.3953 43.0109V39.1918L99.3929 39.187Z" fill="#737373"/>
<path d="M29.3062 31.3594H21V39.5736H29.3062V31.3594Z" fill="#F25022"/>
<path d="M38.4748 31.3594H30.1686V39.5736H38.4748V31.3594Z" fill="#7FBA00"/>
<path d="M29.3062 40.4264H21V48.6405H29.3062V40.4264Z" fill="#00A4EF"/>
<path d="M38.4748 40.4264H30.1686V48.6405H38.4748V40.4264Z" fill="#FFB900"/>
<path d="M112.196 34.8154L116.145 45.1852H114.142L113.213 42.6096H109.081L108.19 45.1852H106.202L110.152 34.8154H112.201H112.196ZM111.113 36.7381L109.561 41.1068H112.705L111.161 36.7381H111.11H111.113Z" fill="#737373"/>
<path d="M121.912 34.2195H123.681V45.1822H121.912V44.198H121.882C121.616 44.5652 121.276 44.8389 120.87 45.019C120.463 45.1989 119.987 45.2902 119.441 45.2902C118.494 45.2902 117.741 44.9685 117.181 44.3276C116.62 43.6867 116.341 42.7962 116.341 41.6583C116.341 40.4293 116.652 39.4452 117.273 38.7034C117.894 37.9641 118.727 37.5945 119.771 37.5945C120.244 37.5945 120.662 37.6713 121.021 37.8249C121.383 37.9785 121.669 38.2042 121.882 38.497H121.912V34.2171V34.2195ZM120.04 43.946C120.577 43.946 121.026 43.7371 121.385 43.317C121.746 42.897 121.927 42.3497 121.927 41.6751V40.8806C121.927 40.3646 121.754 39.9253 121.411 39.5604C121.067 39.1955 120.64 39.0155 120.128 39.0155C119.504 39.0155 119.023 39.2411 118.684 39.6948C118.344 40.1485 118.176 40.7846 118.176 41.6031C118.176 42.34 118.344 42.9162 118.676 43.329C119.011 43.7419 119.465 43.9484 120.04 43.9484V43.946Z" fill="#737373"/>
<path d="M131.959 37.749L129.07 45.1831H127.155L124.397 37.749H126.334L128.184 43.5772H128.213L130.092 37.749H131.959Z" fill="#737373"/>
<path d="M138.317 43.3109V44.7512C138.025 44.9336 137.643 45.0824 137.17 45.1952C136.696 45.3081 136.192 45.3657 135.655 45.3657C134.509 45.3657 133.619 45.0297 132.983 44.3599C132.346 43.6902 132.029 42.7564 132.029 41.5611C132.029 40.3656 132.369 39.4607 133.048 38.7166C133.728 37.9724 134.59 37.6004 135.633 37.6004C136.677 37.6004 137.481 37.9148 138.058 38.5437C138.636 39.1726 138.925 40.0416 138.925 41.1506V41.9955H133.777C133.854 42.742 134.097 43.2653 134.505 43.5606C134.912 43.8582 135.436 44.0046 136.08 44.0046C136.505 44.0046 136.908 43.9399 137.294 43.8127C137.68 43.6854 138.02 43.5174 138.317 43.3109ZM137.184 40.7137C137.184 40.1352 137.049 39.6935 136.779 39.391C136.51 39.0862 136.126 38.935 135.636 38.935C135.211 38.935 134.832 39.0862 134.495 39.3863C134.158 39.6887 133.934 40.1304 133.823 40.7137H137.187H137.184Z" fill="#737373"/>
<path d="M143.806 37.6287C143.947 37.6287 144.073 37.6383 144.187 37.6575C144.298 37.6767 144.393 37.7007 144.471 37.7295V39.501C144.379 39.4338 144.243 39.369 144.066 39.309C143.889 39.249 143.672 39.2177 143.418 39.2177C142.983 39.2177 142.616 39.3978 142.318 39.7603C142.02 40.1227 141.869 40.6796 141.869 41.431V45.1852H140.1V37.7511H141.869V38.9225H141.898C142.058 38.5168 142.304 38.2 142.629 37.9719C142.956 37.7439 143.347 37.6287 143.806 37.6287Z" fill="#737373"/>
<path d="M148.94 43.9135C149.042 43.9135 149.165 43.8895 149.308 43.8415C149.452 43.7935 149.578 43.7359 149.684 43.6686V45.1161C149.573 45.1785 149.387 45.2361 149.126 45.289C148.866 45.3417 148.61 45.3681 148.355 45.3681C147.609 45.3681 147.049 45.1713 146.677 44.7777C146.304 44.384 146.119 43.7935 146.119 43.0013V39.1823H144.884V37.7492H146.119V36.0786L147.895 35.5433V37.7492H149.687V39.1823H147.895V42.6605C147.895 43.1189 147.981 43.4406 148.148 43.6302C148.316 43.8175 148.58 43.9135 148.942 43.9135H148.94Z" fill="#737373"/>
<path d="M150.686 35.6013C150.686 35.3108 150.793 35.0708 151.004 34.874C151.215 34.6795 151.468 34.5811 151.761 34.5811C152.072 34.5811 152.332 34.6819 152.535 34.8812C152.739 35.0804 152.841 35.3205 152.841 35.6013C152.841 35.8821 152.737 36.1246 152.528 36.3166C152.319 36.5087 152.062 36.6071 151.761 36.6071C151.46 36.6071 151.205 36.5087 150.996 36.3142C150.79 36.1198 150.686 35.8821 150.686 35.6013ZM152.637 37.7497V45.1837H150.868V37.7497H152.637Z" fill="#737373"/>
<path d="M155.771 39.7028C155.771 39.9524 155.851 40.1492 156.011 40.2932C156.171 40.4348 156.528 40.6149 157.078 40.8309C157.785 41.1118 158.282 41.4262 158.567 41.7743C158.853 42.1248 158.994 42.5473 158.994 43.0441C158.994 43.7426 158.722 44.3043 158.179 44.7292C157.635 45.1541 156.899 45.3653 155.974 45.3653C155.661 45.3653 155.316 45.3269 154.94 45.2525C154.562 45.1781 154.241 45.0821 153.979 44.9669V43.2457C154.302 43.4666 154.647 43.6442 155.018 43.7738C155.389 43.9034 155.725 43.9683 156.027 43.9683C156.428 43.9683 156.722 43.9131 156.914 43.8026C157.103 43.6923 157.198 43.5074 157.198 43.2457C157.198 43.0057 157.098 42.8017 156.901 42.6337C156.705 42.4656 156.329 42.276 155.777 42.0575C155.125 41.7863 154.661 41.4839 154.389 41.1454C154.115 40.807 153.979 40.3797 153.979 39.8588C153.979 39.189 154.248 38.637 154.787 38.2073C155.326 37.7752 156.025 37.5592 156.882 37.5592C157.144 37.5592 157.44 37.588 157.768 37.6456C158.095 37.7032 158.368 37.7776 158.588 37.8688V39.5323C158.355 39.3787 158.081 39.2467 157.768 39.1338C157.455 39.0234 157.147 38.9682 156.838 38.9682C156.501 38.9682 156.239 39.033 156.052 39.1626C155.865 39.2923 155.771 39.4723 155.771 39.6979V39.7028Z" fill="#737373"/>
<path d="M160.077 35.6013C160.077 35.3108 160.184 35.0708 160.395 34.874C160.606 34.6771 160.859 34.5811 161.153 34.5811C161.465 34.5811 161.723 34.6819 161.927 34.8812C162.13 35.0804 162.235 35.3205 162.235 35.6013C162.235 35.8821 162.13 36.1246 161.92 36.3166C161.708 36.5087 161.453 36.6071 161.153 36.6071C160.851 36.6071 160.596 36.5087 160.387 36.3142C160.179 36.1198 160.077 35.8821 160.077 35.6013ZM162.028 37.7497V45.1837H160.259V37.7497H162.028Z" fill="#737373"/>
<path d="M170.435 40.6338V45.1826H168.666V41.0323C168.666 40.3529 168.549 39.8465 168.319 39.5128C168.088 39.1791 167.715 39.0136 167.204 39.0136C166.695 39.0136 166.297 39.1984 165.972 39.5704C165.647 39.9425 165.486 40.4082 165.486 40.9723V45.1802H163.717V37.7461H165.486V38.7303H165.515C165.792 38.3486 166.135 38.063 166.539 37.8734C166.945 37.6837 167.411 37.5877 167.942 37.5877C168.741 37.5877 169.358 37.8397 169.79 38.3438C170.222 38.8479 170.438 39.6113 170.438 40.6338H170.435Z" fill="#737373"/>
<path d="M177.23 37.7508H179V44.1791C179 45.5281 178.631 46.5651 177.893 47.2852C177.155 48.0053 176.097 48.3654 174.723 48.3654C174.259 48.3654 173.803 48.3222 173.352 48.2381C172.9 48.1541 172.536 48.0438 172.259 47.9093V46.2027C172.654 46.5075 173.06 46.7115 173.48 46.8171C173.9 46.9227 174.3 46.9755 174.686 46.9755C175.507 46.9755 176.135 46.7595 176.572 46.325C177.012 45.8906 177.23 45.2616 177.23 44.4383V44.1407H177.201C176.939 44.4935 176.611 44.7672 176.225 44.964C175.837 45.1608 175.35 45.2616 174.76 45.2616C173.822 45.2616 173.073 44.9472 172.506 44.3183C171.941 43.6894 171.66 42.8252 171.66 41.7258C171.66 40.4632 171.968 39.4598 172.585 38.7133C173.201 37.9668 174.034 37.5971 175.082 37.5971C175.56 37.5971 175.976 37.6716 176.325 37.8204C176.677 37.9692 176.968 38.1973 177.204 38.4997H177.232V37.7484L177.23 37.7508ZM173.492 41.6562C173.492 42.3595 173.66 42.9093 173.993 43.3053C174.327 43.7014 174.774 43.8982 175.335 43.8982C175.895 43.8982 176.354 43.6966 176.711 43.2933C177.065 42.8901 177.245 42.3595 177.245 41.6995V40.8977C177.245 40.372 177.075 39.9279 176.733 39.5631C176.391 39.1982 175.968 39.0182 175.461 39.0182C174.832 39.0182 174.346 39.2438 174.004 39.6951C173.663 40.1464 173.492 40.7993 173.492 41.6587V41.6562Z" fill="#737373"/>
</svg>
