<svg width="200" height="80" viewBox="0 0 200 80" fill="none" xmlns="http://www.w3.org/2000/svg">
<g clip-path="url(#clip0_184_171)">
<path d="M86.2109 35.534H90.3171V48.5251H86.2109V35.534Z" fill="#E60023"/>
<mask id="mask0_184_171" style="mask-type:luminance" maskUnits="userSpaceOnUse" x="35" y="23" width="130" height="33">
<path d="M35 23.9998H165V55.9998H35V23.9998Z" fill="white"/>
</mask>
<g mask="url(#mask0_184_171)">
<path d="M91.1758 35.5345H95.1307V37.3107H95.2062C96.1634 35.9151 97.3977 35.154 99.1863 35.154C102.008 35.154 103.67 37.1838 103.67 40.0764V48.5256H99.5641V40.9137C99.5641 39.5435 98.884 38.6046 97.549 38.6046C96.1887 38.6046 95.2818 39.7465 95.2818 41.345V48.5256H91.1758V35.5345Z" fill="#E60023"/>
<path d="M90.7268 32.0585C90.7268 30.6883 89.624 29.5776 88.2638 29.5776C86.9036 29.5776 85.8008 30.6883 85.8008 32.0585C85.8008 33.4287 86.9036 34.5393 88.2638 34.5393C89.624 34.5393 90.7268 33.4287 90.7268 32.0585Z" fill="#E60023"/>
<path d="M132.546 35.3465C132.429 35.3359 132.295 35.3312 132.137 35.3312C130.576 35.3312 129.518 36.0162 128.611 37.564H128.535V35.5342H124.605V48.5251H128.711V42.6894C128.711 39.9854 130.198 38.7324 132.546 38.951V35.3465Z" fill="#E60023"/>
<path d="M152.698 40.3298C151.06 40.0254 149.599 39.8986 149.599 38.9852C149.599 38.1731 150.38 37.7926 151.388 37.7926C152.521 37.7926 153.302 38.1478 153.453 39.315H157.232C157.031 36.7523 155.066 35.1537 151.413 35.1537C148.365 35.1537 145.846 36.5747 145.846 39.315C145.846 42.3596 148.239 42.9686 150.481 43.3493C152.194 43.6538 153.756 43.7807 153.756 44.9478C153.756 45.7852 152.975 46.2419 151.741 46.2419C150.502 46.2419 149.683 45.7141 149.432 44.6434H145.52C145.807 47.314 148.135 48.9314 151.766 48.9314C155.141 48.9314 157.635 47.4598 157.635 44.6181C157.635 41.294 154.965 40.7105 152.698 40.3298Z" fill="#E60023"/>
<path d="M138.915 38.0969C140.251 38.0969 141.208 39.0865 141.359 40.6344H136.271C136.548 39.0865 137.354 38.0969 138.915 38.0969ZM139.142 45.9372C137.454 45.9372 136.497 44.8462 136.245 43.0954H145.515C145.541 40.4567 144.785 38.1984 143.248 36.7776C142.14 35.7627 140.679 35.1537 138.84 35.1537C134.91 35.1537 132.215 38.1223 132.215 42.0045C132.215 45.9372 134.835 48.906 139.092 48.906C140.729 48.906 142.039 48.4746 143.122 47.7134C144.256 46.9269 145.012 45.8105 145.289 44.6434H141.283C140.931 45.4553 140.225 45.9372 139.142 45.9372Z" fill="#E60023"/>
<path d="M164.866 45.4619C164.676 45.4694 164.421 45.4806 164.186 45.4806C163.304 45.4806 162.75 45.2267 162.75 44.2118V38.1222H164.866V35.5342H162.75V31.4237H158.745V35.5342H157.484V38.1222H158.745V45.0999C158.745 47.8911 160.458 48.6775 162.851 48.6775C163.764 48.6775 164.454 48.6086 164.866 48.5276V45.4619Z" fill="#E60023"/>
<path d="M111.001 45.4678C110.838 45.4742 110.649 45.4806 110.472 45.4806C109.59 45.4806 109.036 45.2267 109.036 44.2118V38.1222H111.001V35.5342H109.036V31.4237H105.031V35.5342H103.695V38.1222H105.031V45.0999C105.031 47.8911 106.744 48.6775 109.137 48.6775C109.947 48.6775 110.581 48.6232 111.001 48.5545V45.4678Z" fill="#E60023"/>
<path d="M119.945 40.6344C119.794 39.0866 118.836 38.0969 117.501 38.0969C115.94 38.0969 115.133 39.0866 114.856 40.6344H119.945ZM110.801 42.0045C110.801 38.1224 113.496 35.1538 117.426 35.1538C119.265 35.1538 120.726 35.7627 121.834 36.7776C123.371 38.1985 124.126 40.4567 124.101 43.0956H114.831C115.083 44.8462 116.04 45.9373 117.728 45.9373C118.811 45.9373 119.517 45.4553 119.869 44.6433H123.874C123.597 45.8105 122.842 46.9269 121.708 47.7136C120.625 48.4746 119.315 48.906 117.678 48.906C113.42 48.906 110.801 45.9373 110.801 42.0045Z" fill="#E60023"/>
<path d="M79.0794 38.9088C80.6916 38.9088 81.5984 37.9445 81.5984 36.4981C81.5984 35.052 80.6663 34.1639 79.0794 34.1639H75.9304V38.9088H79.0794ZM71.7734 30.3833H78.9037C81.0952 30.3833 82.7074 30.9922 83.8158 32.0579C84.9746 33.1489 85.6296 34.6968 85.6296 36.5236C85.6296 39.9997 83.2364 42.461 79.5334 42.461H75.9304V48.5251H71.7734V30.3833Z" fill="#E60023"/>
<path d="M66.1376 40C66.1376 48.6239 59.1969 55.615 50.6352 55.615C42.0735 55.615 35.1328 48.6239 35.1328 40C35.1328 31.376 42.0735 24.385 50.6352 24.385C59.1969 24.385 66.1376 31.376 66.1376 40Z" fill="white"/>
<path d="M50.6352 24.3848C42.0735 24.3848 35.1328 31.3759 35.1328 39.9998C35.1328 46.6151 39.219 52.2702 44.9857 54.5454C44.8503 53.31 44.7278 51.4099 45.0395 50.0612C45.3212 48.8425 46.8573 42.2995 46.8573 42.2995C46.8573 42.2995 46.3936 41.3641 46.3936 39.9812C46.3936 37.8099 47.6431 36.189 49.1987 36.189C50.5214 36.189 51.1602 37.1891 51.1602 38.3885C51.1602 39.7283 50.3133 41.7314 49.8763 43.5876C49.5111 45.1418 50.6501 46.4092 52.172 46.4092C54.9272 46.4092 57.0452 43.4829 57.0452 39.2588C57.0452 35.52 54.3781 32.906 50.5698 32.906C46.1588 32.906 43.5697 36.2385 43.5697 39.6825C43.5697 41.0245 44.083 42.4636 44.7235 43.246C44.8502 43.4006 44.8687 43.536 44.831 43.6939C44.7133 44.187 44.4518 45.2476 44.4004 45.4647C44.3328 45.7506 44.1758 45.8112 43.882 45.6735C41.9458 44.7657 40.7353 41.9144 40.7353 39.6242C40.7353 34.6985 44.2883 30.1749 50.9783 30.1749C56.3561 30.1749 60.5353 34.0348 60.5353 39.1934C60.5353 44.5749 57.1666 48.9059 52.4909 48.9059C50.92 48.9059 49.4432 48.0839 48.9377 47.1129C48.9377 47.1129 48.1604 50.0942 47.9719 50.8249C47.622 52.1811 46.6771 53.8812 46.0452 54.9184C47.4956 55.3708 49.0371 55.6147 50.6352 55.6147C59.197 55.6147 66.1377 48.6236 66.1377 39.9998C66.1377 31.3759 59.197 24.3848 50.6352 24.3848Z" fill="#E60023"/>
</g>
</g>
<defs>
<clipPath id="clip0_184_171">
<rect width="130" height="32" fill="white" transform="translate(35 24)"/>
</clipPath>
</defs>
</svg>
