<svg width="200" height="80" viewBox="0 0 200 80" fill="none" xmlns="http://www.w3.org/2000/svg">
<path fill-rule="evenodd" clip-rule="evenodd" d="M78.9253 44.2491C78.9253 45.5538 78.4706 46.5715 77.5529 47.3282C76.6351 48.0763 75.3722 48.4503 73.7387 48.4503C72.24 48.4503 70.9097 48.1633 69.7562 47.5805V44.7449C70.7076 45.1798 71.5075 45.4842 72.1642 45.6582C72.821 45.8322 73.4188 45.9278 73.9661 45.9278C74.6228 45.9278 75.1196 45.7974 75.4732 45.5451C75.8268 45.2929 75.9952 44.9101 75.9952 44.4057C75.9952 44.1273 75.9194 43.8751 75.7679 43.6489C75.6163 43.4315 75.389 43.214 75.0859 43.0139C74.7828 42.8139 74.1765 42.4834 73.2672 42.0397C72.4084 41.6222 71.7601 41.2308 71.3307 40.8481C70.9013 40.4654 70.5561 40.0218 70.3035 39.5173C70.0509 39.0128 69.9161 38.4213 69.9161 37.7429C69.9161 36.4642 70.3371 35.4639 71.1791 34.7333C72.0211 34.0026 73.1914 33.6373 74.6733 33.6373C75.4058 33.6373 76.1047 33.7243 76.7614 33.907C77.4266 34.0809 78.117 34.3332 78.8411 34.655L77.8813 37.0296C77.1319 36.7165 76.5088 36.4903 76.0205 36.3685C75.5321 36.2468 75.0438 36.1772 74.5723 36.1772C74.0082 36.1772 73.5787 36.3077 73.2756 36.5773C72.9725 36.8469 72.821 37.1949 72.821 37.6298C72.821 37.8994 72.8799 38.1343 73.0062 38.3343C73.1241 38.5344 73.3262 38.7257 73.5872 38.9171C73.8566 39.1085 74.4797 39.439 75.4732 39.9261C76.7867 40.5698 77.6876 41.2134 78.1759 41.8658C78.6811 42.5181 78.9253 43.3097 78.9253 44.2491ZM81.4681 48.2502V33.8461H89.5679V36.3511H84.4571V39.5173H89.2143V42.0224H84.4571V45.7365H89.5763V48.2502H81.4681Z" fill="#0080F7"/>
<path d="M97.272 40.5175H98.8802C99.9579 40.5175 100.741 40.3175 101.221 39.9086C101.701 39.4998 101.945 38.8997 101.945 38.0994C101.945 37.2818 101.684 36.699 101.162 36.3424C100.64 35.9858 99.8569 35.8118 98.8044 35.8118H97.272V40.5175ZM97.272 42.4659V48.2241H94.9566V33.8112H98.956C100.783 33.8112 102.13 34.1592 103.006 34.855C103.882 35.5509 104.319 36.6033 104.319 38.0124C104.319 39.8043 103.402 41.0829 101.575 41.8483L105.574 48.2241H102.939L99.5538 42.4659H97.272ZM113.918 48.2241L113.463 46.7019H113.387C112.874 47.363 112.352 47.8153 111.83 48.0588C111.308 48.3024 110.634 48.4155 109.817 48.4155C108.765 48.4155 107.948 48.1284 107.359 47.5456C106.77 46.9716 106.475 46.1452 106.475 45.0928C106.475 43.9707 106.887 43.1183 107.704 42.5529C108.521 41.9788 109.767 41.6657 111.451 41.6135L113.295 41.5526V40.9698C113.295 40.274 113.135 39.7521 112.815 39.4042C112.495 39.0562 111.998 38.891 111.333 38.891C110.786 38.891 110.255 38.9692 109.759 39.1345C109.253 39.2998 108.773 39.4911 108.31 39.7173L107.578 38.0646C108.159 37.7515 108.79 37.5166 109.481 37.3601C110.171 37.1948 110.819 37.1165 111.434 37.1165C112.798 37.1165 113.825 37.421 114.516 38.0211C115.206 38.6213 115.56 39.5781 115.56 40.8654V48.2067H113.918V48.2241ZM110.533 46.6497C111.358 46.6497 112.023 46.4149 112.52 45.9452C113.017 45.4755 113.27 44.8144 113.27 43.9707V43.0226L111.897 43.0835C110.828 43.127 110.045 43.3009 109.565 43.6315C109.077 43.9533 108.832 44.4578 108.832 45.1276C108.832 45.6146 108.975 45.9887 109.262 46.2583C109.54 46.5106 109.969 46.6497 110.533 46.6497ZM127.979 48.2241H125.697V41.5178C125.697 40.6741 125.529 40.0478 125.2 39.639C124.872 39.2215 124.342 39.0214 123.617 39.0214C122.658 39.0214 121.95 39.3085 121.513 39.8912C121.066 40.4653 120.847 41.4395 120.847 42.7964V48.2241H118.574V37.3253H120.351L120.671 38.7518H120.788C121.108 38.2299 121.571 37.8298 122.161 37.5514C122.75 37.2731 123.415 37.1252 124.131 37.1252C126.699 37.1252 127.979 38.4561 127.979 41.1177V48.2241ZM133.182 42.4659L134.471 40.8307L137.704 37.3253H140.322L136.02 42.0049L140.592 48.2241H137.923L134.487 43.4401L133.241 44.4839V48.2154H130.985V32.8892H133.241V40.3696L133.123 42.4659H133.182ZM144.44 48.2241H142.166V37.3253H144.44V48.2241ZM142.031 34.4375C142.031 34.02 142.141 33.7069 142.368 33.4807C142.587 33.2545 142.907 33.1415 143.32 33.1415C143.715 33.1415 144.027 33.2545 144.254 33.4807C144.473 33.7069 144.591 34.02 144.591 34.4375C144.591 34.8289 144.482 35.142 144.254 35.3682C144.035 35.5944 143.724 35.7074 143.32 35.7074C142.907 35.7074 142.587 35.5944 142.368 35.3682C142.141 35.142 142.031 34.8289 142.031 34.4375ZM156.951 48.2241H154.67V41.5178C154.67 40.6741 154.501 40.0478 154.173 39.639C153.844 39.2215 153.314 39.0214 152.59 39.0214C151.63 39.0214 150.923 39.3085 150.485 39.8912C150.047 40.474 149.82 41.4395 149.82 42.7964V48.2241H147.546V37.3253H149.323L149.643 38.7518H149.761C150.081 38.2299 150.544 37.8298 151.133 37.5514C151.723 37.2731 152.388 37.1252 153.103 37.1252C155.672 37.1252 156.951 38.4561 156.951 41.1177V48.2241ZM169 37.3253V38.5952L167.173 38.9432C167.341 39.1693 167.476 39.4563 167.585 39.7869C167.695 40.1261 167.754 40.474 167.754 40.848C167.754 41.9701 167.375 42.8573 166.609 43.501C165.851 44.1447 164.799 44.4665 163.468 44.4665C163.123 44.4665 162.82 44.4404 162.542 44.3882C162.054 44.7013 161.81 45.058 161.81 45.4755C161.81 45.7277 161.927 45.9104 162.155 46.0409C162.382 46.1626 162.803 46.2322 163.418 46.2322H165.287C166.466 46.2322 167.367 46.4845 167.973 46.9977C168.587 47.5109 168.891 48.2502 168.891 49.2157C168.891 50.4508 168.394 51.4076 167.392 52.0774C166.39 52.7472 164.95 53.0864 163.056 53.0864C161.599 53.0864 160.488 52.8254 159.721 52.2948C158.955 51.7643 158.568 51.0162 158.568 50.0507C158.568 49.381 158.778 48.8156 159.191 48.3633C159.604 47.9023 160.193 47.5891 160.934 47.4152C160.631 47.2847 160.378 47.0759 160.185 46.7802C159.991 46.4845 159.89 46.18 159.89 45.8582C159.89 45.4494 159.999 45.1102 160.227 44.8231C160.454 44.5361 160.791 44.2577 161.229 43.9881C160.673 43.7445 160.227 43.3531 159.881 42.7964C159.536 42.2485 159.368 41.6048 159.368 40.8654C159.368 39.6825 159.73 38.7692 160.462 38.1168C161.195 37.4645 162.239 37.1426 163.595 37.1426C163.898 37.1426 164.218 37.16 164.546 37.2035C164.874 37.247 165.127 37.2905 165.295 37.334H169V37.3253ZM160.589 49.9202C160.589 50.416 160.808 50.8075 161.254 51.0771C161.692 51.3467 162.315 51.4772 163.115 51.4772C164.352 51.4772 165.278 51.2946 165.885 50.9379C166.491 50.5726 166.794 50.0942 166.794 49.5027C166.794 49.033 166.626 48.6938 166.297 48.4937C165.969 48.2937 165.346 48.1893 164.445 48.1893H162.719C162.071 48.1893 161.549 48.3459 161.17 48.659C160.782 48.9634 160.589 49.3897 160.589 49.9202ZM161.565 40.848C161.565 41.5352 161.734 42.0571 162.079 42.4224C162.424 42.7877 162.921 42.9704 163.561 42.9704C164.874 42.9704 165.531 42.2572 165.531 40.822C165.531 40.1087 165.371 39.5694 165.043 39.178C164.714 38.7953 164.226 38.6039 163.561 38.6039C162.904 38.6039 162.407 38.7953 162.062 39.178C161.734 39.5694 161.565 40.1261 161.565 40.848Z" fill="#212732"/>
<path d="M31 27.5834C31 26.1569 32.1198 25 33.5091 25H61.4543C62.8351 25 63.9634 26.1656 63.9634 27.5834V52.4166C63.9634 53.8431 62.8436 55 61.4543 55H33.5091C32.1282 55 31 53.8344 31 52.4166V27.5834ZM33.2733 28.6358V51.3642C33.2733 52.06 33.8459 52.6515 34.5447 52.6515H60.4187C61.1259 52.6515 61.6901 52.0774 61.6901 51.3642V28.6358C61.6901 27.94 61.1175 27.3485 60.4187 27.3485H34.5447C33.8375 27.3398 33.2733 27.9226 33.2733 28.6358ZM34.41 40.3871C34.41 39.6738 34.932 39.091 35.5804 39.091H41.1879C41.8362 39.091 42.3583 39.6651 42.3583 40.3871V51.4859H34.4016V40.3871H34.41ZM43.5034 35.6901C43.5034 34.9681 44.0254 34.3853 44.6737 34.3853H50.2813C50.9296 34.3853 51.4516 34.9594 51.4516 35.6901V51.4772H43.4949V35.6901H43.5034ZM52.5967 30.993C52.5967 30.2798 53.1187 29.697 53.7671 29.697H59.3746C60.0229 29.697 60.545 30.2798 60.545 30.993V51.4859H52.5883V30.993H52.5967Z" fill="#0080F7"/>
</svg>
