<svg width="200" height="80" viewBox="0 0 200 80" fill="none" xmlns="http://www.w3.org/2000/svg">
<path d="M127.42 37.9335C127.42 35.5716 125.944 33.874 123.213 33.874H114.208V46.1262H117.16V41.9191H120.629L124.025 46.1262H127.346V45.831L124.025 41.8453C126.165 41.4025 127.42 39.8525 127.42 37.9335ZM122.844 39.4096H117.16V36.3835H122.844C123.877 36.3835 124.541 36.974 124.541 37.9335C124.615 38.893 123.951 39.4096 122.844 39.4096Z" fill="black"/>
<path d="M172 33.8002H169.269V38.4501H161.814V33.8002H158.862V46.0524H161.814V41.2549H169.269V46.0524H172V33.8002Z" fill="black"/>
<path d="M106.311 33.8002L103.063 44.0596H102.915L99.594 33.8002H94.3537V46.0524H97.1584V36.0145H97.306L100.554 46.0524H105.056L108.377 36.0145H108.525V46.0524H111.403V33.8002H106.311Z" fill="black"/>
<path d="M74.204 38.8192C73.1707 38.7454 71.2517 38.5239 70.1445 38.4501C69.1112 38.3763 68.5208 38.0073 68.5208 37.343C68.5208 36.6787 69.185 36.1621 71.6945 36.1621C73.9088 36.1621 75.9754 36.6787 77.8206 37.4906V34.7597C76.0492 33.874 74.0564 33.505 71.5469 33.505C68.0779 33.505 65.6422 34.9811 65.6422 37.4168C65.6422 39.4835 67.0446 40.6644 69.9231 40.9596C70.9564 41.1072 72.7278 41.2549 73.9088 41.3287C75.2373 41.4025 75.6064 41.8453 75.6064 42.4358C75.6064 43.2477 74.6468 43.7643 72.3588 43.7643C69.9969 43.7643 67.5612 42.9524 65.7898 41.9191V44.7238C67.1922 45.6833 69.5541 46.4214 72.285 46.4214C76.0492 46.4214 78.4849 44.9453 78.4849 42.362C78.4849 40.3692 77.2301 39.1144 74.204 38.8192Z" fill="black"/>
<path d="M80.4777 33.8002V46.0524H91.8442V43.5429H83.2824V41.0334H91.6966V38.5239H83.2824V36.3097H91.8442V33.8002H80.4777Z" fill="black"/>
<path d="M152.736 38.8192C151.703 38.7454 149.784 38.5239 148.677 38.4501C147.643 38.3763 147.053 38.0073 147.053 37.343C147.053 36.6787 147.717 36.1621 150.227 36.1621C152.441 36.1621 154.507 36.6049 156.353 37.4906V34.7597C154.581 33.874 152.588 33.505 150.079 33.505C146.61 33.505 144.174 34.9811 144.174 37.4168C144.174 39.4835 145.577 40.6644 148.455 40.9596C149.488 41.1072 151.26 41.2549 152.441 41.3287C153.769 41.4025 154.138 41.8453 154.138 42.4358C154.138 43.2477 153.179 43.7643 150.891 43.7643C148.529 43.7643 146.093 42.9524 144.322 41.9191V44.7238C145.724 45.6833 148.086 46.4214 150.817 46.4214C154.581 46.4214 157.017 44.9453 157.017 42.362C157.017 40.3692 155.688 39.1144 152.736 38.8192Z" fill="black"/>
<path d="M139.229 33.8002V40.0739C139.229 42.4358 137.753 43.7643 135.613 43.7643C133.398 43.7643 131.996 42.5096 131.996 40.0739V33.8002H129.044V39.7787C129.044 44.2072 131.848 46.4214 135.613 46.4214C139.303 46.4214 142.108 44.281 142.108 39.9263V33.8002H139.229Z" fill="black"/>
<path d="M55.6043 39.8525C55.6043 40.443 55.3091 40.5168 54.571 40.5168C53.7591 40.5168 53.6115 40.3692 53.5377 39.7787C53.3901 38.2287 52.3567 36.9002 50.5853 36.8264C50.0687 36.7525 49.9211 36.6049 49.9211 35.8668C49.9211 35.2026 49.9949 34.9073 50.5115 34.9073C53.4639 34.9811 55.6043 37.4168 55.6043 39.8525ZM59.959 39.8525C59.959 35.2764 56.859 30.405 49.6258 30.405H35.3808C35.0856 30.405 34.8642 30.5526 34.8642 30.8479C34.8642 30.9955 34.938 31.1431 35.0856 31.2169C35.6023 31.6598 36.3403 32.1026 37.3737 32.6193C38.3332 33.1359 39.1451 33.4312 39.8831 33.7264C40.1784 33.874 40.326 34.0216 40.326 34.1693C40.326 34.3907 40.1784 34.6121 39.8093 34.6121H28.5167C28.1476 34.5383 28 34.7597 28 34.9811C28 35.2026 28.0738 35.3502 28.2214 35.4978C29.1071 36.4573 30.5833 37.6382 32.7237 38.9668C34.5689 40.1477 36.9308 41.4025 38.776 42.2882C39.0712 42.4358 39.2189 42.5834 39.2189 42.8048C39.2189 43.0262 39.0712 43.1739 38.7022 43.1739H33.4618C33.1666 43.1739 33.019 43.3215 33.019 43.5429C33.019 43.6905 33.0928 43.8381 33.2404 43.9858C34.4213 45.0929 36.3403 46.2 38.8498 47.3071C42.245 48.7095 45.6402 49.5952 49.4782 49.5952C56.7852 49.5952 59.959 44.1334 59.959 39.8525ZM50.4377 46.4214C46.8949 46.4214 43.8688 43.5429 43.8688 39.8525C43.8688 36.3097 46.8211 33.4312 50.4377 33.4312C54.1281 33.4312 57.0067 36.3097 57.0067 39.8525C57.0067 43.4691 54.1281 46.4214 50.4377 46.4214Z" fill="#FF642D"/>
</svg>
