<svg width="200" height="80" viewBox="0 0 200 80" fill="none" xmlns="http://www.w3.org/2000/svg">
<g clip-path="url(#clip0_184_161)">
<path d="M112.702 17.3398H87.298C81.7967 17.3398 77.3398 21.7967 77.3398 27.298V52.7022C77.3398 58.2036 81.7967 62.6604 87.298 62.6604H112.702C118.204 62.6604 122.66 58.2036 122.66 52.7022V27.298C122.66 21.7967 118.204 17.3398 112.702 17.3398Z" fill="#FFFC00"/>
<path d="M115.272 47.767C115.139 47.3244 114.498 47.0146 114.498 47.0146C114.44 46.9792 114.383 46.9526 114.338 46.9305C113.272 46.4171 112.329 45.7975 111.537 45.0937C110.9 44.5272 110.351 43.9076 109.913 43.2437C109.377 42.4382 109.125 41.7611 109.019 41.3982C108.957 41.1592 108.97 41.0662 109.019 40.9423C109.063 40.8405 109.182 40.7387 109.244 40.6945C109.603 40.4422 110.183 40.066 110.537 39.8359C110.842 39.6367 111.108 39.4641 111.262 39.3579C111.763 39.0082 112.103 38.6542 112.307 38.2691C112.568 37.7734 112.599 37.2246 112.395 36.6891C112.121 35.9633 111.444 35.5295 110.585 35.5295C110.395 35.5295 110.196 35.5517 110.001 35.5915C109.51 35.6977 109.041 35.8747 108.651 36.0252C108.625 36.0385 108.594 36.0164 108.594 35.9854C108.634 35.0161 108.682 33.7149 108.576 32.4757C108.479 31.356 108.248 30.4133 107.872 29.5901C107.492 28.7624 107.005 28.1517 106.615 27.7135C106.248 27.2931 105.606 26.6734 104.633 26.1158C103.265 25.3324 101.707 24.9341 100.003 24.9341C98.3036 24.9341 96.7501 25.3324 95.3781 26.1114C94.3513 26.7 93.6919 27.3639 93.3909 27.7091C93.0059 28.1517 92.5146 28.7624 92.134 29.5856C91.7578 30.4088 91.5277 31.3515 91.4303 32.4713C91.3241 33.7105 91.3683 34.9099 91.4126 35.981C91.4126 36.0119 91.3816 36.0341 91.3551 36.0208C90.9656 35.8703 90.4964 35.6933 90.0052 35.5871C89.8104 35.5428 89.6157 35.5251 89.421 35.5251C88.5624 35.5251 87.8852 35.9588 87.6108 36.6847C87.4072 37.2246 87.4382 37.769 87.6993 38.2647C87.9029 38.6497 88.2437 39.0038 88.7438 39.3534C88.8987 39.4597 89.1643 39.6323 89.4697 39.8314C89.8193 40.0572 90.3814 40.4201 90.7399 40.6768C90.7841 40.7077 90.9346 40.8228 90.9833 40.9423C91.0364 41.0707 91.0452 41.1636 90.9789 41.4159C90.8682 41.7832 90.6159 42.4515 90.0893 43.2437C89.6511 43.9076 89.1023 44.5272 88.465 45.0937C87.6683 45.7975 86.7256 46.4171 85.6634 46.9305C85.6148 46.9526 85.5528 46.9836 85.4864 47.0234C85.4864 47.0234 84.8491 47.3465 84.7296 47.767C84.5526 48.3866 85.0217 48.9664 85.5085 49.2806C86.2963 49.7896 87.2567 50.064 87.8144 50.21C87.9693 50.2498 88.1109 50.2897 88.2393 50.3295C88.3189 50.3561 88.5181 50.4313 88.6066 50.5419C88.7128 50.6791 88.7261 50.8518 88.7659 51.0465C88.8279 51.374 88.9651 51.7768 89.3679 52.0556C89.8104 52.361 90.3769 52.3831 91.0895 52.4097C91.8375 52.4362 92.7669 52.476 93.8291 52.8257C94.3204 52.9894 94.7674 53.2638 95.2852 53.5825C96.3651 54.2464 97.7106 55.074 100.008 55.074C102.305 55.074 103.659 54.2419 104.748 53.5781C105.261 53.2638 105.704 52.9894 106.186 52.8301C107.248 52.4805 108.178 52.4451 108.926 52.4141C109.638 52.3875 110.205 52.3654 110.647 52.06C111.081 51.7635 111.205 51.3165 111.262 50.9801C111.293 50.8163 111.316 50.6659 111.409 50.5419C111.488 50.4357 111.674 50.3649 111.763 50.3339C111.895 50.2941 112.037 50.2543 112.201 50.21C112.758 50.0595 113.453 49.8869 114.303 49.4045C115.308 48.8292 115.378 48.1166 115.272 47.767Z" fill="white"/>
<path d="M116.153 47.4221C115.927 46.807 115.498 46.4794 115.006 46.205C114.913 46.1519 114.829 46.1077 114.759 46.0723C114.612 45.997 114.462 45.9218 114.312 45.8466C112.78 45.0366 111.59 44.0143 110.762 42.8016C110.483 42.3944 110.288 42.0226 110.151 41.7217C110.08 41.5181 110.085 41.403 110.134 41.3012C110.173 41.2216 110.275 41.1375 110.328 41.0976C110.589 40.925 110.864 40.748 111.045 40.6285C111.373 40.4161 111.634 40.2479 111.798 40.1328C112.426 39.6946 112.864 39.2299 113.139 38.7077C113.524 37.973 113.572 37.1365 113.276 36.3443C112.86 35.2511 111.829 34.5695 110.572 34.5695C110.311 34.5695 110.049 34.6005 109.784 34.6536C109.713 34.6669 109.647 34.6846 109.58 34.7023C109.594 33.9588 109.576 33.1621 109.509 32.3876C109.275 29.6524 108.319 28.2229 107.319 27.081C106.903 26.603 106.177 25.9082 105.093 25.2841C103.579 24.4167 101.862 23.9785 99.9895 23.9785C98.1218 23.9785 96.409 24.4167 94.891 25.2841C93.7978 25.9082 93.0764 26.6075 92.6604 27.081C91.6601 28.2229 90.7041 29.6569 90.4696 32.3876C90.4032 33.1665 90.3855 33.9588 90.3988 34.7023C90.3324 34.6846 90.2616 34.6713 90.1952 34.6536C89.934 34.5961 89.6685 34.5695 89.4074 34.5695C88.1549 34.5695 87.1192 35.2511 86.7032 36.3443C86.4067 37.1321 86.4553 37.973 86.8404 38.7077C87.1148 39.2299 87.5529 39.6946 88.1814 40.1328C88.3496 40.2479 88.6063 40.4161 88.9338 40.6285C89.1108 40.7436 89.372 40.9118 89.6242 41.0799C89.6641 41.1065 89.8013 41.2083 89.8455 41.3012C89.8986 41.4119 89.8986 41.5269 89.8234 41.7438C89.6906 42.0403 89.4959 42.4033 89.2259 42.8016C88.416 43.9877 87.2564 44.9924 85.7782 45.7934C84.9948 46.2095 84.1805 46.4883 83.8352 47.4221C83.5741 48.1303 83.7467 48.9314 84.4062 49.6085C84.623 49.8431 84.8974 50.0467 85.2382 50.237C86.0437 50.684 86.7342 50.9009 87.2741 51.0513C87.3671 51.0779 87.5884 51.1487 87.6857 51.2328C87.9247 51.4408 87.8893 51.7595 88.2124 52.2242C88.4071 52.5119 88.6284 52.711 88.8143 52.8349C89.487 53.2997 90.2394 53.3262 91.0405 53.3572C91.7619 53.3837 92.5807 53.4147 93.519 53.7245C93.9084 53.8529 94.3112 54.1007 94.7759 54.3884C95.9001 55.0788 97.4314 56.0215 99.9984 56.0215C102.565 56.0215 104.11 55.0744 105.234 54.384C105.699 54.1007 106.097 53.8529 106.473 53.729C107.407 53.4192 108.226 53.3882 108.952 53.3616C109.753 53.3306 110.505 53.3041 111.178 52.8394C111.39 52.6933 111.652 52.4543 111.864 52.0914C112.094 51.7019 112.09 51.4231 112.307 51.2372C112.395 51.162 112.59 51.0912 112.692 51.0602C113.236 50.9097 113.931 50.6928 114.754 50.237C115.117 50.0378 115.405 49.8165 115.626 49.5643C115.63 49.5598 115.63 49.5598 115.635 49.5554C116.254 48.8915 116.409 48.1082 116.153 47.4221ZM113.873 48.6437C112.484 49.4093 111.559 49.3297 110.837 49.7944C110.226 50.1883 110.589 51.0336 110.142 51.3434C109.598 51.7196 107.983 51.3169 105.902 52.0029C104.185 52.5694 103.088 54.2025 99.9984 54.2025C96.9003 54.2025 95.8337 52.5782 94.0943 52.0029C92.0142 51.3169 90.3988 51.7196 89.8544 51.3434C89.4118 51.0381 89.7703 50.1883 89.1595 49.7944C88.4425 49.3297 87.5131 49.4138 86.1234 48.6437C85.2382 48.1524 85.7384 47.8515 86.0349 47.7098C91.0759 45.2712 91.877 41.5048 91.9124 41.2216C91.9566 40.8852 92.0053 40.6152 91.6291 40.2744C91.2706 39.9425 89.6729 38.9511 89.2303 38.6457C88.4956 38.1323 88.1726 37.6234 88.4116 36.9949C88.5753 36.5612 88.9825 36.3974 89.4118 36.3974C89.5446 36.3974 89.6818 36.4151 89.8101 36.4417C90.6156 36.6187 91.399 37.0214 91.8504 37.1277C91.9124 37.1409 91.9655 37.1498 92.0186 37.1498C92.2576 37.1498 92.3461 37.0303 92.3284 36.7515C92.2753 35.8707 92.1514 34.1535 92.2886 32.5514C92.4789 30.3473 93.1915 29.2497 94.0368 28.2849C94.444 27.8201 96.3471 25.8064 99.994 25.8064C103.65 25.8064 105.548 27.8201 105.951 28.2849C106.796 29.2541 107.509 30.3473 107.699 32.5514C107.837 34.1535 107.717 35.8707 107.659 36.7515C107.642 37.0436 107.73 37.1498 107.969 37.1498C108.018 37.1498 108.076 37.1409 108.137 37.1277C108.589 37.017 109.372 36.6143 110.178 36.4417C110.311 36.4151 110.443 36.3974 110.576 36.3974C111.005 36.3974 111.413 36.5612 111.576 36.9949C111.815 37.6234 111.492 38.1368 110.758 38.6457C110.315 38.9555 108.717 39.9425 108.359 40.2744C107.987 40.6196 108.036 40.8852 108.076 41.2216C108.111 41.5048 108.916 45.2712 113.953 47.7098C114.258 47.8515 114.759 48.1524 113.873 48.6437Z" fill="black"/>
</g>
<defs>
<clipPath id="clip0_184_161">
<rect width="45.3205" height="45.3205" fill="white" transform="translate(77.3398 17.3398)"/>
</clipPath>
</defs>
</svg>
