<svg width="200" height="80" viewBox="0 0 200 80" fill="none" xmlns="http://www.w3.org/2000/svg">
<path d="M36.1347 25C30.5606 25 26 29.6384 26 35.3075V54.3077C26 54.9261 26.7432 55.2353 27.1148 54.7887L32.6213 49.1883H39.6142C45.1883 49.1883 49.7489 44.5499 49.7489 38.8808V25H36.1347Z" fill="#68B65A"/>
<path d="M32.6551 49.1883H27.5878L30.7633 51.1123L32.6551 49.1883Z" fill="#12A750"/>
<path d="M49.7827 25H36.1347V38.8808L49.7827 25Z" fill="#40AD57"/>
<path d="M36.1347 25C30.5606 25 26 29.6384 26 35.3075V49.1883L36.1347 38.8808V25Z" fill="#12A750"/>
<path d="M49.7827 25L36.1347 38.8808H49.7827V25Z" fill="#81BE62"/>
<path d="M62.1808 44.7217C61.843 44.5155 61.5727 44.1376 61.5727 43.6566C61.5727 42.9351 62.0794 42.4197 62.7889 42.4197C62.9916 42.4197 63.228 42.454 63.3969 42.5915C64.4442 43.2443 65.4914 43.5535 66.336 43.5535C67.2481 43.5535 67.6197 43.2443 67.6197 42.7289V42.6946C67.6197 42.0417 66.5725 41.7669 65.3563 41.4233C63.8361 40.9766 62.1132 40.2207 62.1132 38.1249V38.0905C62.1132 35.8572 63.9037 34.5516 66.0995 34.5516C67.2143 34.5516 68.3967 34.8608 69.4777 35.3762C69.9169 35.5824 70.221 36.029 70.221 36.5788C70.221 37.3003 69.6467 37.8157 68.971 37.8157C68.7683 37.8157 68.6332 37.7813 68.3967 37.6782C67.5184 37.2316 66.7076 36.9567 66.0657 36.9567C65.3225 36.9567 64.9509 37.3003 64.9509 37.7126V37.7469C64.9509 38.3654 65.9982 38.6746 67.1468 39.0526C68.667 39.5679 70.4236 40.3238 70.4236 42.3166V42.351C70.4236 44.8248 68.5994 45.9242 66.2684 45.9242C64.9509 45.993 63.4983 45.615 62.1808 44.7217ZM80.1529 40.2895C80.1529 38.3998 78.9368 37.1972 77.5179 37.1972C76.0991 37.1972 74.8829 38.4341 74.8829 40.2551V40.2895C74.8829 42.1448 76.0991 43.3474 77.5179 43.3474C78.9368 43.3817 80.1529 42.1448 80.1529 40.2895ZM71.8425 36.1665C71.8425 35.2731 72.5519 34.586 73.3965 34.586C74.241 34.586 74.9505 35.3075 74.9505 36.1665V36.3039C75.6937 35.2731 76.7409 34.4829 78.3287 34.4829C80.8961 34.4829 83.2609 36.51 83.2609 40.2207V40.2551C83.2609 43.9658 80.8624 45.993 78.3287 45.993C76.6734 45.993 75.6937 45.2371 74.9505 44.3781V47.6765C74.9505 48.5698 74.241 49.257 73.3965 49.257C72.5519 49.257 71.8425 48.5355 71.8425 47.6765V36.1665ZM100.828 40.3238C100.828 38.6403 99.6453 37.2316 97.9562 37.2316C96.1657 37.2316 95.1522 38.6059 95.1522 40.2207V40.2551C95.1522 41.8699 96.3346 43.313 98.0237 43.313C99.7466 43.3817 100.828 41.9387 100.828 40.3238ZM92.0781 40.3238C92.0781 37.0941 94.5779 34.5173 97.9562 34.5173C101.334 34.5173 103.8 37.0598 103.8 40.2551V40.2895C103.8 43.4504 101.301 46.0617 97.9224 46.0617C94.5779 46.0617 92.0781 43.4848 92.0781 40.3238ZM115.185 44.3781C115.185 45.2714 114.476 45.9586 113.631 45.9586C112.787 45.9586 112.077 45.2371 112.077 44.3781V44.2407C111.368 45.1684 110.489 45.993 108.868 45.993C106.537 45.993 105.186 44.4125 105.186 41.9043V36.1665C105.186 35.2731 105.895 34.586 106.74 34.586C107.584 34.586 108.294 35.3075 108.294 36.1665V40.8736C108.294 42.3853 109.003 43.1069 110.152 43.1069C111.3 43.1069 112.111 42.351 112.111 40.8736V36.1665C112.111 35.2731 112.82 34.586 113.665 34.586C114.509 34.586 115.219 35.3075 115.219 36.1665V44.3781C115.253 44.3781 115.185 44.3781 115.185 44.3781ZM116.773 42.6602V33.3491C116.773 32.4558 117.482 31.7686 118.327 31.7686C119.171 31.7686 119.881 32.4901 119.881 33.3491V34.7234H121.232C121.975 34.7234 122.516 35.3419 122.516 36.029C122.516 36.7849 121.908 37.3346 121.232 37.3346H119.881V42.0417C119.881 42.7633 120.185 43.1069 120.894 43.1069H121.232C121.942 43.1069 122.516 43.6909 122.516 44.4125C122.516 44.9966 122.178 45.4432 121.739 45.615C121.165 45.8212 120.658 45.9242 119.948 45.9242C118.057 45.993 116.773 45.2027 116.773 42.6602ZM128.934 45.993C127.414 45.993 125.759 45.3745 124.61 44.4125L125.387 43.2786C126.502 44.172 127.786 44.653 129.036 44.653C130.286 44.653 131.198 44.0002 131.198 42.9694V42.9351C131.198 41.8699 129.948 41.4233 128.597 41.0453C126.941 40.5643 125.117 39.9802 125.117 38.0562V38.0218C125.117 36.1665 126.637 34.9639 128.664 34.9639C129.948 34.9639 131.367 35.4106 132.448 36.1665L131.738 37.369C130.793 36.7162 129.644 36.3383 128.63 36.3383C127.381 36.3383 126.604 36.9911 126.604 37.8844V37.9187C126.604 38.9495 127.887 39.3274 129.306 39.7741C130.894 40.2551 132.684 40.9079 132.684 42.832V42.8663C132.651 44.8248 131.029 45.993 128.934 45.993ZM139.373 36.3039C137.076 36.3039 135.522 38.1592 135.522 40.4613C135.522 42.7976 137.177 44.653 139.373 44.653C141.637 44.653 143.224 42.7976 143.224 40.4956C143.224 38.1592 141.603 36.3039 139.373 36.3039ZM139.373 46.0617C136.198 46.0617 133.9 43.5535 133.9 40.4956C133.9 37.4377 136.198 34.8952 139.407 34.8952C142.583 34.8952 144.88 37.4034 144.88 40.4613C144.88 43.4848 142.549 46.0617 139.373 46.0617ZM151.366 46.0617C148.292 46.0617 145.995 43.5191 145.995 40.4956C145.995 37.4377 148.292 34.8952 151.366 34.8952C153.359 34.8952 154.609 35.7198 155.555 36.7849L154.508 37.8844C153.697 36.9911 152.717 36.2695 151.298 36.2695C149.17 36.2695 147.515 38.1249 147.515 40.4269C147.515 42.7633 149.17 44.6186 151.366 44.6186C152.717 44.6186 153.764 43.9658 154.575 43.0381L155.589 44.0002C154.643 45.1683 153.359 46.0617 151.366 46.0617ZM157.413 45.7868V35.1357H158.967V45.7868H157.413ZM157.278 32.7993V31.0471H159.068V32.7993H157.278ZM162.345 42.6258C162.345 44.0002 163.561 44.7904 164.98 44.7904C166.939 44.7904 168.493 43.5879 168.493 41.8699V40.8392C167.716 40.633 166.669 40.3925 165.419 40.3925C163.46 40.4269 162.345 41.2515 162.345 42.6258ZM162.176 37.1629L161.703 35.8572C162.886 35.3419 164 34.9639 165.521 34.9639C168.392 34.9639 169.98 36.4757 169.98 39.2244V45.7524H168.46V44.1376C167.716 45.0996 166.5 45.993 164.642 45.993C162.683 45.993 160.757 44.8935 160.757 42.6602C160.757 40.3582 162.582 39.19 165.25 39.19C166.602 39.19 167.548 39.3618 168.493 39.6367V39.2931C168.493 37.369 167.311 36.3726 165.386 36.3726C164.136 36.407 163.156 36.7162 162.176 37.1629ZM172.446 45.7868V30.7035H174V45.7868H172.446ZM93.1929 33.6583C93.1929 33.6583 91.8416 34.2768 90.693 34.2424C89.5782 34.208 89.0039 34.8265 89.0039 34.8265C88.5309 35.1701 88.1255 35.7885 87.8215 36.4413V36.1321C87.8215 35.2388 87.1121 34.5516 86.2675 34.5516C85.423 34.5516 84.7135 35.2731 84.7135 36.1321V44.3781C84.7135 45.2714 85.423 45.9586 86.2675 45.9586C87.1121 45.9586 87.8215 45.2371 87.8215 44.3781V40.4956C88.0242 38.8121 88.8688 37.8844 90.22 37.5752C90.3214 37.5752 90.3552 37.5408 90.4227 37.4721C93.5307 36.5788 93.1929 33.6583 93.1929 33.6583Z" fill="#010202"/>
</svg>
