<svg width="200" height="80" viewBox="0 0 200 80" fill="none" xmlns="http://www.w3.org/2000/svg">
<g clip-path="url(#clip0_184_149)">
<path d="M61.6965 34.9952C64.0294 36.656 66.8874 37.6332 69.9741 37.6332V31.7179C69.3899 31.7181 68.8072 31.6574 68.2357 31.5368V36.1929C65.1492 36.1929 62.2917 35.2158 59.9581 33.5551V45.6264C59.9581 51.665 55.0425 56.56 48.9791 56.56C46.7168 56.56 44.614 55.8788 42.8672 54.7107C44.8609 56.7407 47.6412 58.0001 50.7171 58.0001C56.7809 58.0001 61.6967 53.1051 61.6967 47.0662V34.9952H61.6965ZM63.8409 29.0275C62.6487 27.7304 61.8658 26.054 61.6965 24.2008V23.4399H60.0491C60.4638 25.7954 61.8781 27.8078 63.8409 29.0275ZM46.7023 50.0768C46.0361 49.207 45.6762 48.143 45.6778 47.0489C45.6778 44.2871 47.9261 42.0477 50.7 42.0477C51.217 42.0476 51.7308 42.1264 52.2235 42.2821V36.2347C51.6478 36.1561 51.0667 36.1228 50.4859 36.135V40.842C49.9928 40.6863 49.4787 40.6073 48.9617 40.6078C46.1878 40.6078 43.9395 42.8469 43.9395 45.6091C43.9395 47.5622 45.0634 49.2531 46.7023 50.0768Z" fill="#FF004F"/>
<path d="M59.9583 33.555C62.2919 35.2157 65.1495 36.1928 68.236 36.1928V31.5367C66.5131 31.1712 64.9879 30.2746 63.8412 29.0275C61.8782 27.8077 60.464 25.7953 60.0494 23.4399H55.7223V47.066C55.7125 49.8203 53.4679 52.0505 50.7 52.0505C49.0689 52.0505 47.6198 51.2762 46.7021 50.0768C45.0633 49.2531 43.9395 47.562 43.9395 45.6092C43.9395 42.8472 46.1878 40.6079 48.9616 40.6079C49.4931 40.6079 50.0054 40.6903 50.4859 40.8421V36.1351C44.529 36.2577 39.7383 41.1048 39.7383 47.0661C39.7383 50.042 40.9313 52.7397 42.8675 54.7108C44.6143 55.8788 46.7171 56.5601 48.9795 56.5601C55.043 56.5601 59.9585 51.6649 59.9585 45.6264V33.555H59.9583Z" fill="black"/>
<path d="M68.2359 31.5367V30.2778C66.6823 30.2801 65.1592 29.8468 63.8411 29.0274C65.0079 30.2996 66.5444 31.1768 68.2359 31.5367ZM60.0493 23.44C60.0098 23.2149 59.9794 22.9883 59.9583 22.7608V22H53.9837V45.6263C53.9742 48.3802 51.7298 50.6104 48.9616 50.6104C48.1489 50.6104 47.3816 50.4183 46.7021 50.077C47.6198 51.2763 49.0689 52.0504 50.7 52.0504C53.4676 52.0504 55.7125 49.8205 55.7222 47.0662V23.44H60.0493ZM50.4861 36.1352V34.7949C49.9868 34.7269 49.4835 34.6928 48.9796 34.6931C42.9156 34.693 38 39.5881 38 45.6263C38 49.4119 39.9319 52.7481 42.8676 54.7106C40.9314 52.7396 39.7384 50.0417 39.7384 47.066C39.7384 41.1048 44.529 36.2577 50.4861 36.1352Z" fill="#00F2EA"/>
<path d="M137.465 51.6099C141.803 51.6099 145.321 48.1336 145.321 43.8459C145.321 39.5584 141.803 36.0815 137.465 36.0815H136.281C140.62 36.0815 144.137 39.5583 144.137 43.8459C144.137 48.1336 140.62 51.6099 136.281 51.6099H137.465Z" fill="#FF004F"/>
<path d="M136.173 36.0818H134.989C130.651 36.0818 127.133 39.5585 127.133 43.8462C127.133 48.1339 130.651 51.6101 134.989 51.6101H136.173C131.834 51.6101 128.316 48.1339 128.316 43.8462C128.316 39.5586 131.834 36.0818 136.173 36.0818Z" fill="#00F2EA"/>
<path d="M76.4492 32.5723V36.5077H81.0758V51.5035H85.7042V36.614H89.4703L90.7617 32.5724L76.4492 32.5723ZM114.329 32.5723V36.5077H118.956V51.5035H123.584V36.614H127.35L128.641 32.5724L114.329 32.5723ZM91.6233 34.8056C91.6233 33.5724 92.6335 32.5723 93.8814 32.5723C95.1304 32.5723 96.1417 33.5724 96.1417 34.8056C96.1417 36.0388 95.1311 37.039 93.8814 37.039C92.6335 37.0384 91.6233 36.0388 91.6233 34.8056ZM91.6233 38.6348H96.1417V51.5035H91.6233V38.6348ZM98.079 32.5723V51.5034H102.599V46.6115L103.998 45.3342L108.41 51.6097H113.252L106.902 42.4632L112.606 36.9321H107.118L102.599 41.3988V32.5723H98.079ZM146.827 32.5723V51.5034H151.347V46.6115L152.746 45.3342L157.159 51.6097H162.002L155.652 42.4632L161.355 36.9321H155.868L151.347 41.3988V32.5723H146.827Z" fill="black"/>
<path d="M136.28 51.6101C140.618 51.6101 144.136 48.1339 144.136 43.8462C144.136 39.5586 140.618 36.0818 136.28 36.0818H136.172C131.834 36.0818 128.316 39.5585 128.316 43.8462C128.316 48.1339 131.834 51.6101 136.172 51.6101H136.28ZM132.406 43.8462C132.406 41.7605 134.117 40.0711 136.227 40.0711C138.336 40.0711 140.047 41.7605 140.047 43.8462C140.047 45.9318 138.336 47.6223 136.227 47.6223C134.117 47.6219 132.406 45.9318 132.406 43.8462Z" fill="black"/>
</g>
<defs>
<clipPath id="clip0_184_149">
<rect width="124" height="36" fill="white" transform="translate(38 22)"/>
</clipPath>
</defs>
</svg>
