<svg width="200" height="80" viewBox="0 0 200 80" fill="none" xmlns="http://www.w3.org/2000/svg">
<path d="M118.26 55C117.72 54.9106 117.171 54.8532 116.638 54.7255C114.166 54.133 112.441 52.6128 111.485 50.3234C109.9 46.5245 109.891 42.7351 112.131 39.1703C114.213 35.8554 118.767 34.7756 122.084 36.7235C122.789 37.1373 123.371 37.7596 124 38.2777V29.4033H129.055V54.4436H124.29V52.2404C124.171 52.3372 124.113 52.3649 124.083 52.4106C123.006 54.0457 121.399 54.7213 119.517 54.9043C119.382 54.917 119.252 54.967 119.119 54.9989H118.26V55ZM124.291 45.4894C124.16 44.5373 124.106 43.7202 123.93 42.9298C123.491 40.9575 122.07 39.7096 120.212 39.5905C118.189 39.4617 116.657 40.4256 115.971 42.3873C115.244 44.4671 115.261 46.5681 116.127 48.616C116.87 50.3734 118.338 51.2638 120.228 51.1755C121.947 51.0958 123.225 50.1053 123.767 48.2777C124.045 47.3362 124.137 46.3394 124.29 45.4883L124.291 45.4894Z" fill="black"/>
<path d="M79.536 25.0001C78.489 26.232 77.4496 27.4714 76.3919 28.6937C73.9257 31.5447 71.4564 34.3915 68.9731 37.2277C68.6717 37.5724 68.6577 37.8149 68.9205 38.1937C72.6835 43.6022 76.4316 49.0213 80.1764 54.4426C80.2868 54.6021 80.3233 54.8128 80.393 55H71.8114C71.6774 54.8372 71.5304 54.684 71.4103 54.5117C70.0136 52.5011 68.6212 50.4883 67.2278 48.4766C66.0586 46.7883 64.8893 45.1 63.6847 43.3607C63.3736 43.7139 63.0936 44.0288 62.8169 44.3479C59.8744 47.7426 56.931 51.1351 53.9971 54.5372C53.7418 54.833 53.4801 54.9702 53.0821 54.9543C52.5683 54.934 52.0512 54.9819 51.5363 55C51.3572 54.9649 51.1791 54.9287 51 54.8936C53.9489 51.5011 56.8988 48.1096 59.8476 44.717C60.7315 43.7 61.6111 42.6798 62.495 41.6596C62.376 41.4798 62.2805 41.3309 62.1797 41.1851C59.6127 37.4788 57.0479 33.7713 54.4766 30.0682C53.3278 28.4097 52.1617 26.7607 51.0021 25.1065C51.1448 25.0714 51.2886 25.0054 51.4312 25.0043C54.2202 24.999 57.0093 25.0001 59.7983 25.0001C62.3213 28.6448 64.8443 32.2905 67.3951 35.9756C67.5614 35.799 67.6848 35.6777 67.7974 35.5469C70.8525 32.032 73.9075 28.516 76.9615 25.0001C77.8196 25.0001 78.6778 25.0001 79.536 25.0001ZM54.6129 27.0054C54.837 27.3309 54.9947 27.5618 55.1556 27.7905C60.7605 35.7469 66.3889 43.6873 71.9423 51.6787C72.6739 52.7319 73.3947 53.2809 74.6938 53.0862C75.3803 52.983 76.0958 53.0681 76.8939 53.0681C76.7062 52.7904 76.5914 52.6149 76.4702 52.4436C73.3411 48.0011 70.211 43.5585 67.0808 39.1149C64.3294 35.2096 61.5811 31.3022 58.82 27.4033C58.6955 27.2267 58.452 27.0277 58.259 27.0224C57.0811 26.9873 55.9022 27.0043 54.6118 27.0043L54.6129 27.0054Z" fill="black"/>
<path d="M140.143 55C139.176 54.8596 138.199 54.767 137.244 54.567C135.668 54.2362 134.292 53.5223 133.254 52.2553C132.387 51.1968 132.005 49.9787 131.986 48.5947H136.768C136.802 49.6266 137.224 50.4755 138.127 50.9745C139.665 51.8245 141.26 51.8575 142.842 51.0681C143.356 50.8117 143.709 50.3872 143.854 49.8224C144.075 48.9564 143.766 48.2032 142.833 47.85C141.604 47.3851 140.322 47.0617 139.056 46.699C137.892 46.366 136.71 46.0915 135.554 45.7309C135.07 45.5798 134.606 45.3128 134.181 45.0277C132.566 43.9405 132.009 42.1617 132.588 39.9713C133.089 38.0777 134.418 36.9564 136.223 36.4011C138.953 35.5607 141.721 35.5309 144.446 36.4118C146.873 37.1958 148.294 39.0862 148.446 41.5724H143.683C143.646 41.3862 143.616 41.1958 143.568 41.0086C143.404 40.3745 143.054 39.8788 142.437 39.6107C141.212 39.0798 139.945 39.0203 138.666 39.3681C138.046 39.5373 137.575 39.9139 137.472 40.5926C137.363 41.3139 137.673 41.9054 138.321 42.1554C139.395 42.5681 140.511 42.8777 141.622 43.1873C142.856 43.533 144.132 43.7564 145.339 44.1745C146.129 44.449 146.923 44.8713 147.556 45.4107C149.183 46.7979 149.458 49.5724 148.265 51.617C147.2 53.4447 145.493 54.3128 143.479 54.6766C142.694 54.8181 141.898 54.8947 141.108 55H140.142H140.143Z" fill="black"/>
<path d="M84.8029 54.4617C85.3575 52.9989 85.8949 51.5777 86.4356 50.1575C88.9972 43.4405 91.5652 36.7256 94.1107 30.0022C94.2931 29.5203 94.5001 29.3309 95.0483 29.3458C96.726 29.3916 98.4047 29.3628 100.097 29.3628C103.253 37.7341 106.401 46.0788 109.569 54.4862C107.67 54.4862 105.849 54.4947 104.028 54.4692C103.891 54.467 103.689 54.2479 103.632 54.0894C103.076 52.5213 102.534 50.9468 102.014 49.366C101.901 49.0192 101.741 48.9075 101.372 48.9096C98.5485 48.9266 95.7241 48.9266 92.9007 48.9096C92.5124 48.9075 92.3418 49.0298 92.2185 49.3926C91.6939 50.9341 91.1254 52.4606 90.5998 54.0021C90.4807 54.3521 90.3391 54.5043 89.9368 54.4979C88.4007 54.4713 86.8636 54.4872 85.3264 54.4862C85.1698 54.4862 85.0142 54.4723 84.8008 54.4617H84.8029ZM97.1808 35.5181C96.0523 38.6724 94.9721 41.6926 93.8822 44.7383H100.374C99.3144 41.6777 98.2706 38.6649 97.1808 35.5181Z" fill="black"/>
</svg>
