<svg width="200" height="80" viewBox="0 0 200 80" fill="none" xmlns="http://www.w3.org/2000/svg">
<path d="M77.0979 30.3718C76.6523 28.6536 75.3338 27.2982 73.6564 26.8336C70.6234 26 58.4544 26 58.4544 26C58.4544 26 46.2915 26 43.2524 26.8336C41.5811 27.2918 40.2627 28.6473 39.8109 30.3718C39 33.49 39 40 39 40C39 40 39 46.51 39.8109 49.6282C40.2565 51.3464 41.5749 52.7018 43.2524 53.1664C46.2915 54 58.4544 54 58.4544 54C58.4544 54 70.6234 54 73.6564 53.1664C75.3276 52.7082 76.6461 51.3527 77.0979 49.6282C77.9088 46.51 77.9088 40 77.9088 40C77.9088 40 77.9088 33.49 77.0979 30.3718Z" fill="#FF0000"/>
<path d="M54.5672 46.0009L64.6751 40L54.5672 33.9991V46.0009Z" fill="white"/>
<path d="M95.4753 51.4736C94.7078 50.9391 94.1569 50.1118 93.835 48.9855C93.5131 47.8591 93.346 46.3636 93.346 44.4927V41.9473C93.346 40.0573 93.5317 38.5427 93.9031 37.3973C94.2745 36.2518 94.8563 35.4182 95.6424 34.8964C96.4285 34.3745 97.4622 34.1073 98.7435 34.1073C100.006 34.1073 101.015 34.3745 101.776 34.9091C102.538 35.4436 103.095 36.2773 103.448 37.41C103.801 38.5427 103.974 40.0573 103.974 41.9409V44.4864C103.974 46.3573 103.8 47.8591 103.46 48.9918C103.12 50.1245 102.563 50.9582 101.789 51.48C101.021 52.0018 99.9752 52.2691 98.6568 52.2691C97.3075 52.2755 96.2428 52.0082 95.4753 51.4736ZM99.7896 48.7245C100 48.1518 100.111 47.2164 100.111 45.9245V40.4582C100.111 39.1982 100.006 38.2818 99.7896 37.6964C99.5791 37.1173 99.2015 36.8245 98.663 36.8245C98.1431 36.8245 97.7779 37.1173 97.5612 37.6964C97.3508 38.2755 97.2394 39.1982 97.2394 40.4582V45.9245C97.2394 47.2227 97.3384 48.1582 97.5427 48.7245C97.7469 49.2973 98.1183 49.5836 98.6568 49.5836C99.2015 49.5836 99.5729 49.2973 99.7896 48.7245Z" fill="#282828"/>
<path d="M154.569 45.4218C154.569 46.5482 154.6 47.3882 154.668 47.9545C154.73 48.5145 154.866 48.9282 155.07 49.1827C155.274 49.4373 155.59 49.5709 156.017 49.5709C156.593 49.5709 156.989 49.3418 157.199 48.8836C157.41 48.4255 157.528 47.6618 157.546 46.5927L160.858 46.79C160.876 46.9427 160.882 47.1527 160.882 47.42C160.882 49.0427 160.449 50.2518 159.589 51.0536C158.728 51.8555 157.509 52.2564 155.931 52.2564C154.037 52.2564 152.712 51.6455 151.951 50.4236C151.189 49.2018 150.812 47.3182 150.812 44.76V41.6991C150.812 39.0645 151.208 37.1491 151.994 35.9336C152.78 34.7245 154.129 34.12 156.042 34.12C157.36 34.12 158.369 34.3682 159.075 34.8645C159.781 35.3609 160.276 36.1309 160.567 37.1809C160.851 38.2309 161 39.6818 161 41.5273V44.5309H154.569V45.4218ZM155.058 37.1555C154.866 37.4036 154.736 37.8109 154.668 38.3709C154.6 38.9309 154.569 39.79 154.569 40.9291V42.1891H157.379V40.9291C157.379 39.8027 157.342 38.95 157.268 38.3709C157.193 37.7918 157.057 37.3782 156.865 37.1427C156.673 36.9073 156.37 36.7864 155.962 36.7864C155.553 36.78 155.25 36.9073 155.058 37.1555Z" fill="#282828"/>
<path d="M86.1288 44.2064L81.7588 27.9855H85.5717L87.1006 35.3355C87.4905 37.1491 87.7752 38.6891 87.9609 39.9682H88.0724C88.2023 39.0518 88.4871 37.5182 88.9327 35.3609L90.5173 27.9791H94.3302L89.9107 44.2064V51.9891H86.1288V44.2064Z" fill="#282828"/>
<path d="M116.372 34.4509V51.9827H113.37L113.036 49.8382H112.955C112.138 51.4609 110.913 52.2691 109.285 52.2691C108.152 52.2691 107.316 51.8873 106.778 51.1236C106.239 50.36 105.973 49.17 105.973 47.5473V34.4509H109.811V47.3245C109.811 48.1073 109.891 48.6673 110.058 48.9982C110.225 49.3291 110.504 49.5009 110.894 49.5009C111.228 49.5009 111.55 49.3991 111.853 49.1891C112.157 48.9791 112.386 48.7118 112.534 48.3873V34.4509H116.372Z" fill="#282828"/>
<path d="M136.068 34.4509V51.9827H133.066L132.731 49.8382H132.651C131.834 51.4609 130.608 52.2691 128.98 52.2691C127.848 52.2691 127.012 51.8873 126.474 51.1236C125.935 50.36 125.669 49.17 125.669 47.5473V34.4509H129.507V47.3245C129.507 48.1073 129.587 48.6673 129.754 48.9982C129.921 49.3291 130.2 49.5009 130.59 49.5009C130.924 49.5009 131.246 49.3991 131.549 49.1891C131.852 48.9791 132.081 48.7118 132.23 48.3873V34.4509H136.068Z" fill="#282828"/>
<path d="M126.808 31.1609H122.995V51.9827H119.238V31.1609H115.425V27.9855H126.802V31.1609H126.808Z" fill="#282828"/>
<path d="M148.775 37.2573C148.54 36.15 148.169 35.3482 147.649 34.8518C147.129 34.3555 146.417 34.1073 145.507 34.1073C144.801 34.1073 144.145 34.3109 143.533 34.7245C142.92 35.1318 142.449 35.6727 142.115 36.3409H142.084V27.1009H138.383V51.9891H141.552L141.942 50.3282H142.022C142.319 50.92 142.765 51.3845 143.359 51.7282C143.953 52.0718 144.61 52.2436 145.334 52.2436C146.634 52.2436 147.587 51.6264 148.2 50.3982C148.812 49.17 149.116 47.2482 149.116 44.6327V41.8582C149.122 39.8982 149.004 38.3645 148.775 37.2573ZM145.253 44.41C145.253 45.6891 145.204 46.6882 145.099 47.4136C144.999 48.1391 144.826 48.6545 144.585 48.96C144.343 49.2655 144.022 49.4182 143.613 49.4182C143.297 49.4182 143.006 49.3418 142.734 49.1891C142.468 49.0364 142.245 48.8073 142.078 48.5018V38.5427C142.208 38.0655 142.431 37.6773 142.746 37.3718C143.062 37.0664 143.403 36.9136 143.774 36.9136C144.164 36.9136 144.467 37.0727 144.678 37.3845C144.888 37.6964 145.037 38.2309 145.123 38.9691C145.204 39.7136 145.247 40.77 145.247 42.1445V44.41H145.253Z" fill="#282828"/>
</svg>
