<svg width="200" height="80" viewBox="0 0 200 80" fill="none" xmlns="http://www.w3.org/2000/svg">
<path d="M95.2988 51.2123C94.6276 51.2123 93.9477 51.0722 93.294 50.7831L79.347 44.5372C76.8539 43.4247 75.7295 40.4725 76.8365 37.9672L83.0516 23.9511C84.1587 21.4457 87.0963 20.3157 89.5893 21.4282L103.536 27.6741C106.029 28.7867 107.154 31.7388 106.047 34.2442L99.8316 48.2602C99.0035 50.1173 97.1904 51.2123 95.2988 51.2123ZM94.4533 48.1551C95.508 48.6281 96.7458 48.1463 97.2166 47.0951L103.432 33.0791C103.902 32.0191 103.423 30.7752 102.377 30.3021L88.4212 24.0562C87.3665 23.5832 86.1287 24.065 85.658 25.1162L79.4429 39.1323C78.9721 40.1922 79.4516 41.4361 80.4976 41.9092L94.4533 48.1551Z" fill="#089949"/>
<path d="M139.049 51.2211H123.777C121.048 51.2211 118.826 48.9873 118.826 46.2454V30.8978C118.826 28.1559 121.048 25.9221 123.777 25.9221H139.049C141.777 25.9221 144 28.1559 144 30.8978V46.2454C144 48.9873 141.777 51.2211 139.049 51.2211ZM123.777 28.7954C122.626 28.7954 121.685 29.7415 121.685 30.8978V46.2454C121.685 47.4017 122.626 48.3478 123.777 48.3478H139.049C140.199 48.3478 141.141 47.4017 141.141 46.2454V30.8978C141.141 29.7415 140.199 28.7954 139.049 28.7954H123.777Z" fill="#F9B21D"/>
<path d="M81.8574 33.7098L79.8002 38.3351C79.7741 38.3876 79.7479 38.4314 79.7218 38.4752L80.5237 43.4509C80.7068 44.5985 79.931 45.676 78.7978 45.86L63.7176 48.3128C63.1684 48.4004 62.6106 48.269 62.1573 47.9448C61.704 47.6207 61.4076 47.1302 61.3205 46.5783L58.8797 31.4234C58.7926 30.8715 58.9233 30.3109 59.2459 29.8554C59.5684 29.3999 60.0565 29.102 60.6057 29.0144L75.6859 26.5616C75.7992 26.5441 75.9125 26.5353 76.0171 26.5353C77.0196 26.5353 77.9174 27.2712 78.083 28.3049L78.8937 33.3156L81.0206 28.5239L80.9073 27.8493C80.4714 25.1425 77.9261 23.2941 75.2326 23.7321L60.1524 26.1849C58.8536 26.3864 57.703 27.096 56.9359 28.1735C56.1601 29.2509 55.855 30.5649 56.0642 31.8789L58.5049 47.0338C58.7141 48.3478 59.4202 49.4954 60.4924 50.275C61.3379 50.897 62.3403 51.2123 63.3777 51.2123C63.6392 51.2123 63.9094 51.1948 64.1796 51.151L79.2598 48.6982C81.9533 48.2602 83.7926 45.7023 83.3567 42.9954L81.8574 33.7098Z" fill="#E42527"/>
<path d="M99.9449 40.9456L102.159 35.9611L101.531 31.3271C101.453 30.7752 101.601 30.2233 101.941 29.7765C102.281 29.3298 102.769 29.0407 103.327 28.9706L118.46 26.9032C118.555 26.8945 118.651 26.8857 118.747 26.8857C119.201 26.8857 119.636 27.0346 120.011 27.315C120.081 27.3675 120.142 27.4288 120.203 27.4814C120.874 26.7718 121.755 26.2638 122.74 26.0448C122.461 25.6593 122.129 25.3177 121.737 25.0198C120.682 24.2139 119.384 23.8723 118.076 24.0475L102.926 26.1148C101.619 26.29 100.451 26.9733 99.6573 28.0333C98.8553 29.0933 98.5154 30.3985 98.6897 31.7125L99.9449 40.9456Z" fill="#226DB4"/>
<path d="M125.695 43.5123L123.707 28.7954C122.591 28.8305 121.694 29.759 121.694 30.8891V35.2078L122.87 43.8977C122.949 44.4496 122.801 45.0015 122.461 45.4482C122.121 45.895 121.633 46.1841 121.075 46.2542L105.942 48.3215C105.393 48.4004 104.844 48.2514 104.399 47.9098C103.955 47.5682 103.667 47.0776 103.597 46.517L102.9 41.3573L100.686 46.3418L100.764 46.9024C100.939 48.2164 101.619 49.3902 102.673 50.1874C103.545 50.8532 104.582 51.2036 105.663 51.2036C105.89 51.2036 106.116 51.1861 106.343 51.1598L121.458 49.1099C122.766 48.9347 123.934 48.2514 124.727 47.1915C125.529 46.1315 125.869 44.8263 125.695 43.5123Z" fill="#226DB4"/>
<path d="M112.497 56.6961C112.497 55.3821 113.456 54.436 114.764 54.436C116.115 54.436 117.03 55.3646 117.03 56.7049C117.03 58.0627 116.097 59 114.746 59C113.386 59 112.497 58.0627 112.497 56.6961ZM115.984 56.7136C115.984 55.9165 115.6 55.2332 114.737 55.2332C113.866 55.2332 113.535 55.9428 113.535 56.7487C113.535 57.5108 113.944 58.2116 114.781 58.2116C115.644 58.2028 115.984 57.4582 115.984 56.7136ZM102.83 54.5061H103.475C103.571 54.5061 103.65 54.5849 103.65 54.6813V56.3107H105.48V54.6813C105.48 54.5849 105.559 54.5061 105.654 54.5061H106.3C106.395 54.5061 106.474 54.5849 106.474 54.6813V58.7547C106.474 58.8511 106.395 58.9299 106.3 58.9299H105.663C105.567 58.9299 105.489 58.8511 105.489 58.7547V57.1078H103.658V58.7547C103.658 58.8511 103.58 58.9299 103.484 58.9299H102.839C102.743 58.9299 102.665 58.8511 102.665 58.7547V54.6813C102.656 54.5849 102.734 54.5061 102.83 54.5061ZM92.0997 56.6961C92.0997 55.3821 93.0586 54.436 94.3661 54.436C95.7172 54.436 96.6325 55.3646 96.6325 56.7049C96.6325 58.0627 95.6998 59 94.3487 59C92.9889 59 92.0997 58.0627 92.0997 56.6961ZM95.5952 56.7136C95.5952 55.9165 95.2117 55.2332 94.3487 55.2332C93.477 55.2332 93.1458 55.9428 93.1458 56.7487C93.1458 57.5108 93.5555 58.2116 94.3923 58.2116C95.2553 58.2028 95.5952 57.4582 95.5952 56.7136ZM82.9993 58.5007L85.1611 55.2945H83.3829C83.287 55.2945 83.2085 55.2157 83.2085 55.1193V54.6901C83.2085 54.5937 83.287 54.5149 83.3829 54.5149H86.303C86.3989 54.5149 86.4774 54.5937 86.4774 54.6901V54.8565C86.4774 54.8915 86.4686 54.9266 86.4512 54.9529L84.333 58.159H86.2333C86.3292 58.159 86.4076 58.2379 86.4076 58.3342V58.7635C86.4076 58.8598 86.3292 58.9387 86.2333 58.9387H83.1475C83.0516 58.9387 82.9732 58.8598 82.9732 58.7635V58.6058C82.9645 58.562 82.9819 58.527 82.9993 58.5007Z" fill="black"/>
</svg>
