<svg width="32" height="32" viewBox="0 0 32 32" fill="none" xmlns="http://www.w3.org/2000/svg">
<path d="M17.7647 4.16548L24.8235 11.0905M27.4706 20.6124L23.9412 25.8062H31L27.4706 31M1 27.5375H8.05882L26.5882 9.35926C27.0517 8.90456 27.4194 8.36474 27.6702 7.77064C27.9211 7.17654 28.0502 6.53979 28.0502 5.89674C28.0502 5.25369 27.9211 4.61694 27.6702 4.02284C27.4194 3.42874 27.0517 2.88893 26.5882 2.43422C26.1247 1.97952 25.5745 1.61883 24.9689 1.37274C24.3633 1.12666 23.7143 1 23.0588 1C22.4034 1 21.7543 1.12666 21.1487 1.37274C20.5431 1.61883 19.9929 1.97952 19.5294 2.43422L1 20.6124V27.5375Z" stroke="#E63E31" stroke-width="2" stroke-linecap="round" stroke-linejoin="round"/>
</svg>