<svg width="40" height="40" viewBox="0 0 40 40" fill="none" xmlns="http://www.w3.org/2000/svg">
<path d="M2.25757 38.1103L15.1356 25.2322M15.1356 25.2322C13.9502 24.047 13.9505 22.125 15.1359 20.9396C16.3213 19.7542 18.2433 19.7542 19.4287 20.9396C20.6139 22.125 20.6139 24.047 19.4287 25.2322C18.2433 26.4176 16.3209 26.4176 15.1356 25.2322ZM31.591 18.7934L37.3147 13.0698C38.8951 11.4892 38.8951 8.92672 37.3147 7.3462L33.0221 3.05354C31.4414 1.47304 28.879 1.47304 27.2984 3.05354L21.5749 8.77709M31.3536 19.5053L27.4981 31.0717C27.3728 31.4474 27.0721 31.7386 26.6923 31.8515L3.06211 38.8766C2.12055 39.1565 1.25363 38.2608 1.56425 37.329L9.23644 14.3124C9.34802 13.9776 9.59971 13.708 9.92599 13.5736L20.8262 9.08529C21.2794 8.89867 21.8005 9.00286 22.1471 9.34944L31.0602 18.2628C31.3854 18.588 31.4991 19.069 31.3536 19.5053Z" stroke="#E43D30" stroke-width="2" stroke-linecap="round" stroke-linejoin="round"/>
</svg>
