<svg width="32" height="40" viewBox="0 0 32 40" fill="none" xmlns="http://www.w3.org/2000/svg">
<path d="M20.1429 1.89844V10.1207C20.1429 10.6658 20.3611 11.1887 20.7496 11.5742C21.138 11.9596 21.6649 12.1762 22.2143 12.1762H30.5M20.1429 1.89844H5.64286C4.5441 1.89844 3.49035 2.33157 2.71341 3.10255C1.93648 3.87354 1.5 4.91921 1.5 6.00955V34.7873C1.5 35.8777 1.93648 36.9233 2.71341 37.6943C3.49035 38.4653 4.5441 38.8984 5.64286 38.8984H26.3571C27.4559 38.8984 28.5096 38.4653 29.2866 37.6943C30.0635 36.9233 30.5 35.8777 30.5 34.7873V12.1762M20.1429 1.89844L30.5 12.1762M11.8571 32.7318L22.2143 22.454C22.7637 21.9088 23.0723 21.1694 23.0723 20.3984C23.0723 19.6275 22.7637 18.888 22.2143 18.3429C21.6649 17.7977 20.9198 17.4914 20.1429 17.4914C19.3659 17.4914 18.6208 17.7977 18.0714 18.3429L7.71429 28.6207V32.7318H11.8571Z" stroke="#E43D30" stroke-width="2" stroke-linecap="round" stroke-linejoin="round"/>
</svg>
