<svg width="40" height="40" viewBox="0 0 40 40" fill="none" xmlns="http://www.w3.org/2000/svg">
<path d="M36.8182 20.3984H38.5M20 3.58026V1.89844M20 38.8984V37.2166M33.4545 33.853L31.7727 32.1712M33.4545 6.94389L31.7727 8.62571M6.54545 33.853L8.22727 32.1712M6.54545 6.94389L8.22727 8.62571M1.5 20.3984H3.18182M16.5563 16.4003L19.1774 10.8426C19.514 10.1292 20.486 10.1292 20.8226 10.8426L23.4437 16.4003L29.3053 17.297C30.0574 17.412 30.3571 18.3796 29.8127 18.9346L25.5719 23.2577L26.5727 29.3649C26.7012 30.1493 25.9146 30.7473 25.2417 30.3768L20 27.4918L14.7582 30.3768C14.0853 30.7473 13.2987 30.1493 13.4272 29.3649L14.4281 23.2577L10.1873 18.9346C9.64286 18.3796 9.94261 17.412 10.6947 17.297L16.5563 16.4003Z" stroke="#E43D30" stroke-width="2" stroke-linecap="round" stroke-linejoin="round"/>
</svg>
