<svg width="40" height="25" viewBox="0 0 40 25" fill="none" xmlns="http://www.w3.org/2000/svg">
<path d="M16.3 5.98177C13.839 6.38781 11.5878 7.6036 9.90963 9.43301C8.23141 11.2624 7.22403 13.5988 7.05 16.0651M23.7 5.98177C26.161 6.38781 28.4122 7.6036 30.0904 9.43301C31.7686 11.2624 32.776 13.5988 32.95 16.0651M16.3 5.0651H5.2M5.2 5.0651C5.2 5.55133 5.00509 6.01765 4.65815 6.36147C4.31121 6.70528 3.84065 6.89844 3.35 6.89844C2.85935 6.89844 2.38879 6.70528 2.04185 6.36147C1.69491 6.01765 1.5 5.55133 1.5 5.0651C1.5 4.57887 1.69491 4.11256 2.04185 3.76874C2.38879 3.42493 2.85935 3.23177 3.35 3.23177C3.84065 3.23177 4.31121 3.42493 4.65815 3.76874C5.00509 4.11256 5.2 4.57887 5.2 5.0651ZM34.8 5.0651H23.7M34.8 5.0651C34.8 5.55133 34.9949 6.01765 35.3419 6.36147C35.6888 6.70528 36.1593 6.89844 36.65 6.89844C37.1407 6.89844 37.6112 6.70528 37.9581 6.36147C38.3051 6.01765 38.5 5.55133 38.5 5.0651C38.5 4.57887 38.3051 4.11256 37.9581 3.76874C37.6112 3.42493 37.1407 3.23177 36.65 3.23177C36.1593 3.23177 35.6888 3.42493 35.3419 3.76874C34.9949 4.11256 34.8 4.57887 34.8 5.0651ZM3.35 17.8984C3.35 17.4122 3.54491 16.9459 3.89185 16.6021C4.23879 16.2583 4.70935 16.0651 5.2 16.0651H8.9C9.39065 16.0651 9.86121 16.2583 10.2081 16.6021C10.5551 16.9459 10.75 17.4122 10.75 17.8984V21.5651C10.75 22.0513 10.5551 22.5177 10.2081 22.8615C9.86121 23.2053 9.39065 23.3984 8.9 23.3984H5.2C4.70935 23.3984 4.23879 23.2053 3.89185 22.8615C3.54491 22.5177 3.35 22.0513 3.35 21.5651V17.8984ZM29.25 17.8984C29.25 17.4122 29.4449 16.9459 29.7919 16.6021C30.1388 16.2583 30.6093 16.0651 31.1 16.0651H34.8C35.2907 16.0651 35.7612 16.2583 36.1081 16.6021C36.4551 16.9459 36.65 17.4122 36.65 17.8984V21.5651C36.65 22.0513 36.4551 22.5177 36.1081 22.8615C35.7612 23.2053 35.2907 23.3984 34.8 23.3984H31.1C30.6093 23.3984 30.1388 23.2053 29.7919 22.8615C29.4449 22.5177 29.25 22.0513 29.25 21.5651V17.8984ZM16.3 3.23177C16.3 2.74554 16.4949 2.27923 16.8419 1.93541C17.1888 1.59159 17.6593 1.39844 18.15 1.39844H21.85C22.3407 1.39844 22.8112 1.59159 23.1581 1.93541C23.5051 2.27923 23.7 2.74554 23.7 3.23177V6.89844C23.7 7.38467 23.5051 7.85098 23.1581 8.1948C22.8112 8.53862 22.3407 8.73177 21.85 8.73177H18.15C17.6593 8.73177 17.1888 8.53862 16.8419 8.1948C16.4949 7.85098 16.3 7.38467 16.3 6.89844V3.23177Z" stroke="#E43D30" stroke-width="2" stroke-linecap="round" stroke-linejoin="round"/>
</svg>
