<svg width="28" height="28" viewBox="0 0 28 28" fill="none" xmlns="http://www.w3.org/2000/svg">
<path d="M17.1139 4.10137L23.8986 10.8861M27 27H15M1 27H7.78478L25.5948 9.18995C26.0403 8.74446 26.3937 8.21558 26.6348 7.63351C26.8759 7.05144 27 6.42759 27 5.79756C27 5.16754 26.8759 4.54368 26.6348 3.96162C26.3937 3.37955 26.0403 2.85067 25.5948 2.40517C25.1493 1.95968 24.6205 1.60629 24.0384 1.36519C23.4563 1.12409 22.8325 1 22.2024 1C21.5724 1 20.9486 1.12409 20.3665 1.36519C19.7844 1.60629 19.2555 1.95968 18.81 2.40517L1 20.2152V27Z" stroke="white" stroke-width="2" stroke-linecap="round" stroke-linejoin="round"/>
</svg>
