<svg width="32" height="28" viewBox="0 0 32 28" fill="none" xmlns="http://www.w3.org/2000/svg">
<path d="M20.7871 7.44577C21.7852 8.20891 22.5953 9.19846 23.1532 10.3361C23.7111 11.4737 24.0016 12.7281 24.0016 14C24.0016 15.2719 23.7111 16.5263 23.1532 17.6639C22.5953 18.8015 21.7852 19.7911 20.7871 20.5542M25.1267 2.5301C26.8046 3.91247 28.158 5.65995 29.0877 7.64456C30.0175 9.62918 30.5 11.8007 30.5 14C30.5 16.1993 30.0175 18.3708 29.0877 20.3554C28.158 22.34 26.8046 24.0875 25.1267 25.4699M6.32178 18.9157H3.10726C2.68099 18.9157 2.27217 18.743 1.97076 18.4357C1.66934 18.1285 1.5 17.7117 1.5 17.2771V10.7229C1.5 10.2883 1.66934 9.87154 1.97076 9.56425C2.27217 9.25696 2.68099 9.08433 3.10726 9.08433H6.32178L11.9472 1.71082C12.0877 1.43265 12.3211 1.21487 12.6053 1.09684C12.8896 0.978817 13.2058 0.968328 13.497 1.06727C13.7881 1.16621 14.035 1.36806 14.1929 1.63633C14.3508 1.90461 14.4094 2.22163 14.3581 2.5301V25.4699C14.4094 25.7784 14.3508 26.0954 14.1929 26.3637C14.035 26.6319 13.7881 26.8338 13.497 26.9327C13.2058 27.0317 12.8896 27.0212 12.6053 26.9032C12.3211 26.7851 12.0877 26.5674 11.9472 26.2892L6.32178 18.9157Z" stroke="white" stroke-width="2" stroke-linecap="round" stroke-linejoin="round"/>
</svg>
