<svg width="30" height="26" viewBox="0 0 30 26" fill="none" xmlns="http://www.w3.org/2000/svg">
<path d="M4.5 5.5H6C6.79565 5.5 7.55871 5.18393 8.12132 4.62132C8.68393 4.05871 9 3.29565 9 2.5C9 2.10218 9.15804 1.72064 9.43934 1.43934C9.72064 1.15804 10.1022 1 10.5 1H19.5C19.8978 1 20.2794 1.15804 20.5607 1.43934C20.842 1.72064 21 2.10218 21 2.5C21 3.29565 21.3161 4.05871 21.8787 4.62132C22.4413 5.18393 23.2044 5.5 24 5.5H25.5C26.2956 5.5 27.0587 5.81607 27.6213 6.37868C28.1839 6.94129 28.5 7.70435 28.5 8.5V22C28.5 22.7956 28.1839 23.5587 27.6213 24.1213C27.0587 24.6839 26.2956 25 25.5 25H4.5C3.70435 25 2.94129 24.6839 2.37868 24.1213C1.81607 23.5587 1.5 22.7956 1.5 22V8.5C1.5 7.70435 1.81607 6.94129 2.37868 6.37868C2.94129 5.81607 3.70435 5.5 4.5 5.5Z" stroke="white" stroke-width="2" stroke-linecap="round" stroke-linejoin="round"/>
<path d="M10.5 14.5C10.5 15.6935 10.9741 16.8381 11.818 17.682C12.6619 18.5259 13.8065 19 15 19C16.1935 19 17.3381 18.5259 18.182 17.682C19.0259 16.8381 19.5 15.6935 19.5 14.5C19.5 13.3065 19.0259 12.1619 18.182 11.318C17.3381 10.4741 16.1935 10 15 10C13.8065 10 12.6619 10.4741 11.818 11.318C10.9741 12.1619 10.5 13.3065 10.5 14.5Z" stroke="white" stroke-width="2" stroke-linecap="round" stroke-linejoin="round"/>
</svg>
