<svg width="109" height="33" viewBox="0 0 109 33" fill="none" xmlns="http://www.w3.org/2000/svg">
<path d="M89.4093 20.4325C89.4093 15.4371 92.4977 11.924 96.8884 11.924C101.279 11.924 104.417 15.4357 104.417 20.4325C104.417 25.4306 101.281 28.7444 96.8884 28.7444C92.4977 28.7444 89.4093 25.2794 89.4093 20.4325ZM84.8252 20.4325C84.8252 27.8052 89.8444 33 96.8884 33C103.932 33 109 27.8052 109 20.4325C109 13.0625 103.981 7.66975 96.8884 7.66975C89.7961 7.66975 84.8252 12.9635 84.8252 20.4325ZM61.4239 7.96538L70.8808 32.7016H75.3213L84.7782 7.96538H80.0021L73.1501 27.0641H73.0534L66.2013 7.96538H61.4239ZM43.039 19.5429C43.3277 14.9889 46.2723 11.924 50.2764 11.924C53.7501 11.924 56.3563 14.1996 56.7431 17.6138H48.7322C45.8856 17.6138 44.3415 17.9602 43.184 19.5442L43.039 19.5429ZM38.4562 20.284C38.4562 27.6554 43.5224 32.9972 50.5181 32.9972C55.2472 32.9972 59.395 30.525 61.1795 26.6145L57.3218 24.6345C55.971 27.2085 53.3647 28.7416 50.5181 28.7416C47.0914 28.7416 44.0031 26.07 44.0031 23.4974C44.0031 22.1623 44.8718 21.5669 46.126 21.5669H61.4212V20.2331C61.4212 12.8109 56.7887 7.66562 50.1314 7.66562C43.474 7.66562 38.4549 12.9594 38.4549 20.2826M25.3309 32.6989H29.6747V17.5134C29.6747 14.2491 31.6512 11.9226 34.4038 11.9226C35.5613 11.9226 36.767 12.3186 37.3471 12.8617C37.7822 11.6737 38.4576 10.4885 39.4686 9.3005C38.3112 8.3105 36.3347 7.667 34.4038 7.667C29.0959 7.667 25.3309 11.7232 25.3309 17.512V32.6989ZM4.34378 16.3267V4.25425H11.4845C13.8961 4.25425 15.4886 5.68837 15.4886 7.865C15.4886 10.3386 13.4154 12.2183 9.16826 13.6538C6.2733 14.5915 4.97218 15.3835 4.4888 16.3254L4.34378 16.3267ZM4.34378 28.4488V23.4025C4.34378 21.175 6.17663 18.9998 8.73456 18.1583C11.0038 17.3663 12.8836 16.5742 14.4761 15.7341C16.599 17.0211 17.9001 19.2459 17.9001 21.5724C17.9001 25.5296 14.2344 28.4474 9.2636 28.4474L4.34378 28.4488ZM0 32.7016H9.65031C16.9857 32.7016 22.4843 28.0032 22.4843 21.769C22.4843 18.3549 20.7964 15.2886 17.8048 13.3086C19.349 11.7246 20.0727 9.8945 20.0727 7.66838C20.0727 3.06625 16.838 0 11.9665 0H0V32.7016Z" fill="#0B996E"/>
</svg>
