<svg width="48" height="52" viewBox="0 0 48 52" fill="none" xmlns="http://www.w3.org/2000/svg">
<path d="M1 50.7377V35.9169C1 33.252 2.04832 30.6962 3.91434 28.8119C5.78036 26.9275 8.31122 25.8689 10.9502 25.8689H30.39C33.029 25.8689 35.5598 26.9275 37.4258 28.8119M37.2715 32.4433L39.5681 39.5313H47L40.9875 43.912L43.2841 51L37.2715 46.6194L31.259 51L33.5556 43.912L27.5431 39.5313H34.975L37.2715 32.4433ZM9.1671 11.048C9.1671 13.7129 10.2154 16.2687 12.0814 18.1531C13.9475 20.0374 16.4783 21.0961 19.1173 21.0961C21.7562 21.0961 24.2871 20.0374 26.1531 18.1531C28.0191 16.2687 29.0674 13.7129 29.0674 11.048C29.0674 8.38313 28.0191 5.82737 26.1531 3.943C24.2871 2.05863 21.7562 1 19.1173 1C16.4783 1 13.9475 2.05863 12.0814 3.943C10.2154 5.82737 9.1671 8.38313 9.1671 11.048Z" stroke="#E43D30" stroke-width="1.71999" stroke-linecap="round" stroke-linejoin="round"/>
</svg>
