<svg width="44" height="52" viewBox="0 0 44 52" fill="none" xmlns="http://www.w3.org/2000/svg">
<path d="M22 1V4.88023M43 22.2766H39.1702M4.82979 22.2766H1M34.1413 9.97548L36.8493 7.23174M7.15085 7.23196L9.85892 9.97569M28.7308 46.7447H15.2692M27.3846 51H16.6154M22 42.4894H28.7308V39.5399C28.7308 35.753 31.074 32.4171 33.1963 29.2634C34.6271 27.1372 35.4615 24.5807 35.4615 21.8305C35.4615 14.4389 29.4346 8.44681 22 8.44681C14.5654 8.44681 8.53846 14.4389 8.53846 21.8305C8.53846 24.5807 9.37285 27.1372 10.8037 29.2634C12.926 32.4171 15.2692 35.753 15.2692 39.5399V42.4894H22ZM22 42.4894V26M22 26H17.2273M22 26H26.7727" stroke="#E43D30" stroke-width="2" stroke-linecap="round" stroke-linejoin="round"/>
</svg>
