<svg width="258" height="61" viewBox="0 0 258 61" fill="none" xmlns="http://www.w3.org/2000/svg">
<path d="M20.5379 33.4878V40.8327C31.9154 40.8327 41.1595 31.6619 41.1595 20.3333H33.7977C33.7558 27.5952 27.858 33.4463 20.5379 33.4878Z" fill="#3BE081"/>
<path d="M20.5379 53.6966C13.2597 53.6966 7.4037 47.8456 7.4037 40.6667C7.4037 33.4878 13.2597 27.5952 20.5379 27.5952V20.3333C9.20233 20.2918 0.0418288 29.3796 0 40.6252C0 51.8708 9.1605 60.9585 20.4543 61H20.5379V53.6966Z" fill="#0037FF"/>
<path d="M20.5379 53.6966V61C31.8735 61 41.034 51.9122 41.034 40.6667H33.6722C33.6722 47.8456 27.7743 53.6966 20.5379 53.6966Z" fill="#00CCFF"/>
<path d="M20.5379 13.0299V20.3333C31.8735 20.3333 41.034 11.2456 41.034 0H33.6722C33.6722 7.17891 27.7743 13.0299 20.5379 13.0299Z" fill="#861DFF"/>
<path d="M41.1595 13.0299V20.3333C52.4951 20.3333 61.6556 11.2456 61.6556 0H54.2938C54.2938 7.17891 48.3959 13.0299 41.1595 13.0299Z" fill="#FC7F10"/>
<path d="M95.8716 30.417H99.6362L100.515 32.4088C100.975 31.9939 101.518 31.6204 102.062 31.2884C102.648 30.998 103.275 30.749 103.903 30.5415C104.697 30.2925 105.492 30.168 106.329 30.2095C107.584 30.2095 108.839 30.4585 109.968 30.9565C111.139 31.4544 112.143 32.2014 113.021 33.1143C113.9 34.0687 114.611 35.1891 115.113 36.3925C116.159 39.0483 116.159 42.0361 115.113 44.6918C114.611 45.8952 113.9 47.0156 113.021 47.9701C112.143 48.883 111.139 49.6299 109.968 50.1279C108.839 50.6259 107.584 50.9163 106.329 50.9163C105.576 50.9163 104.823 50.8333 104.07 50.6259C103.484 50.4599 102.941 50.2109 102.397 49.9619C101.895 49.6714 101.393 49.3395 100.975 48.966V57.8048H95.8716V30.417ZM105.66 46.1027C107.04 46.1442 108.378 45.6048 109.299 44.6088C110.303 43.6129 110.763 42.285 110.763 40.5837C110.846 39.0898 110.303 37.6374 109.299 36.5585C107.291 34.5667 104.028 34.5667 102.02 36.5585C101.058 37.5544 100.556 38.9238 100.556 40.5837C100.556 42.2435 101.058 43.6129 102.02 44.6088C102.982 45.6048 104.321 46.1442 105.66 46.1027Z" fill="black"/>
<path d="M128.163 50.9578C127.201 50.9578 126.281 50.7918 125.361 50.4599C124.524 50.1279 123.771 49.6299 123.186 48.966C122.558 48.302 122.098 47.5136 121.764 46.6837C121.387 45.7293 121.22 44.6918 121.262 43.6959V35.0646H118.125V30.8735H119.463C121.094 30.8735 121.931 30.0435 121.931 28.4252V25.5619H126.365V30.417H130.799V35.0646H126.365V43.4884C126.239 44.9408 127.369 46.2272 128.833 46.3517C128.958 46.3517 129.125 46.3517 129.251 46.3517C129.46 46.3517 129.627 46.3517 129.837 46.3517C129.962 46.3517 130.129 46.3102 130.255 46.2687C130.38 46.2272 130.506 46.1857 130.631 46.1442V50.5429C130.422 50.6259 130.171 50.7088 129.92 50.7503C129.335 50.9163 128.749 50.9993 128.163 50.9578Z" fill="black"/>
<path d="M137.742 28.0102C136.111 28.0517 134.731 26.7653 134.689 25.1469C134.647 23.5286 135.944 22.1592 137.575 22.1177C139.206 22.0762 140.587 23.3626 140.628 24.981C140.628 25.7694 140.336 26.5578 139.75 27.1388C139.248 27.6782 138.495 28.0102 137.742 28.0102ZM135.065 30.417H140.168V50.7503H135.065V30.417Z" fill="black"/>
<path d="M145.062 30.417H148.827L149.705 32.4088C150.124 31.9939 150.584 31.6204 151.086 31.2884C151.588 30.998 152.089 30.749 152.591 30.5415C153.219 30.2925 153.93 30.168 154.599 30.2095C155.519 30.168 156.398 30.334 157.276 30.6245C157.904 30.8735 158.531 31.1639 159.117 31.5374C159.619 31.9109 160.079 32.3258 160.413 32.8653C160.915 32.3673 161.459 31.9109 162.045 31.5374C162.672 31.1639 163.3 30.8735 163.969 30.6245C164.764 30.334 165.6 30.2095 166.437 30.2095C168.654 30.2095 170.452 30.915 171.791 32.3258C173.129 33.7367 173.799 35.8116 173.799 38.5918V50.7503H168.654V39.0483C168.696 37.9694 168.361 36.932 167.65 36.1435C166.52 34.8571 164.596 34.7327 163.3 35.8116C163.174 35.8946 163.09 36.019 162.965 36.1435C162.254 36.932 161.919 37.9694 161.961 39.0483V50.7503H156.9V39.0483C156.942 37.9694 156.607 36.932 155.896 36.1435C154.767 34.8571 152.842 34.7327 151.546 35.8116C151.42 35.8946 151.337 36.019 151.211 36.1435C150.5 36.932 150.165 37.9694 150.207 39.0483V50.7503H145.104V30.417H145.062Z" fill="black"/>
<path d="M181.161 28.0102C179.529 28.0517 178.149 26.7653 178.107 25.1469C178.065 23.5286 179.362 22.1592 180.993 22.1177C182.625 22.0762 184.005 23.3626 184.047 24.981C184.089 25.8109 183.754 26.5578 183.168 27.1388C182.666 27.6782 181.913 28.0102 181.161 28.0102ZM178.483 30.417H183.628V50.7503H178.483V30.417Z" fill="black"/>
<path d="M187.393 46.5592L196.303 35.3136H187.393V30.417H202.744V34.6082L193.835 45.8952H203.162V50.7503H187.351V46.5592H187.393Z" fill="black"/>
<path d="M216.129 50.9578C214.791 50.9578 213.41 50.6673 212.197 50.1279C210.984 49.5884 209.897 48.8415 208.935 47.8871C207.973 46.9327 207.22 45.8122 206.718 44.6088C205.63 42.0361 205.63 39.0898 206.718 36.517C207.262 35.3136 208.015 34.1932 208.935 33.2388C209.855 32.2844 210.984 31.5374 212.197 30.998C214.665 29.919 217.426 29.919 219.936 30.915C221.107 31.4129 222.153 32.1184 223.073 33.0313C223.993 33.9857 224.704 35.1061 225.206 36.3095C225.75 37.6374 226.001 39.0898 226.001 40.5422C226.001 40.7912 226.001 40.9986 225.959 41.2061C225.917 41.4136 225.875 41.6626 225.875 41.8701C225.875 42.0775 225.834 42.3265 225.792 42.534H211.528C211.737 43.5299 212.281 44.4014 213.034 45.0653C213.912 45.7708 215.042 46.1442 216.213 46.0612C216.799 46.0612 217.384 46.0197 217.928 45.8537C218.346 45.7293 218.723 45.5633 219.099 45.3143C219.434 45.1068 219.727 44.8163 219.978 44.5259H225.332C225.039 45.3558 224.621 46.1027 224.119 46.8082C223.575 47.5966 222.864 48.302 222.111 48.883C221.316 49.5054 220.396 50.0034 219.434 50.3769C218.304 50.7918 217.217 50.9993 216.129 50.9578ZM221.023 39.0483C220.521 36.351 217.928 34.6082 215.209 35.1061C213.201 35.4796 211.612 37.0565 211.235 39.0483H221.023Z" fill="black"/>
<path d="M229.682 22.9061H234.785V50.7503H229.682V22.9061Z" fill="black"/>
<path d="M242.607 58.0537C242.356 58.0537 242.147 58.0537 241.896 58.0122C241.729 58.0122 241.519 57.9708 241.352 57.9293C241.185 57.8878 240.976 57.8463 240.808 57.8048V53.6136C241.729 53.6551 242.649 53.4061 243.402 52.8667C244.029 52.3687 244.489 51.7048 244.824 50.9578L245.284 49.8374L237.504 30.417H242.858L247.961 43.6544L252.646 30.417H258C256.536 34.1102 255.239 37.4714 254.026 40.5007C253.524 41.7871 253.022 43.0735 252.52 44.2769C252.018 45.4803 251.6 46.6422 251.224 47.6381C250.847 48.634 250.513 49.5054 250.262 50.1694C250.011 50.8333 249.843 51.2483 249.76 51.3728C249.341 52.4102 248.839 53.4476 248.254 54.4435C247.836 55.1905 247.292 55.8959 246.664 56.4769C246.162 56.9748 245.535 57.3898 244.824 57.6388C244.113 57.9293 243.36 58.0537 242.607 58.0537Z" fill="black"/>
<path d="M76.9232 20.3333C68.3901 20.3333 61.4883 27.1803 61.4883 35.6456C61.4883 44.1109 68.3901 50.9578 76.9232 50.9578C85.4562 50.9578 92.358 44.1109 92.358 35.6456C92.358 27.1803 85.4562 20.3333 76.9232 20.3333ZM76.9232 45.6463C71.3599 45.7293 66.8006 41.2891 66.7169 35.7701C66.6333 30.251 71.1089 25.7279 76.6722 25.6449C82.2354 25.5619 86.7948 30.002 86.8784 35.5211V35.5626C86.8784 35.6041 86.8784 35.6456 86.8784 35.6871C86.8784 41.1646 82.4446 45.6048 76.9232 45.6463Z" fill="black"/>
</svg>
