<svg width="59" height="71" viewBox="0 0 59 71" fill="none" xmlns="http://www.w3.org/2000/svg">
<path d="M13.9563 11.3204L0 34.2477L13.9563 57.1787L14.1996 56.9996L14.021 11.3675L13.9563 11.3204Z" fill="#876929"/>
<path d="M29.5431 53.0576L13.9563 57.1787V11.3204L29.5431 15.4406V53.0576Z" fill="#D9A741"/>
<path d="M58.9952 17.0913L51.4819 18.3733L34.2334 0L25.6583 3.87447L26.7895 6.05119L20.7205 8.55443V66.4451L29.5429 71L29.6897 70.8813L29.5539 11.3718L48.2546 40.6154L58.9952 17.0913Z" fill="#876929"/>
<path d="M34.2334 0L57.2063 11.852L48.1219 28.8605L34.2334 0Z" fill="#D9A741"/>
<path d="M58.9942 17.0913L59 55.7903L29.5429 71L29.5392 4.91872L48.1219 39.7088L58.9942 17.0913Z" fill="#D9A741"/>
</svg>
