<svg width="260" height="53" viewBox="0 0 260 53" fill="none" xmlns="http://www.w3.org/2000/svg">
<path d="M28.4157 0.146758C31.1405 -0.036666 33.8926 -0.0687656 36.6128 0.169686C43.6918 1.57288 49.5886 7.4287 51.3138 14.4355C51.9619 16.8154 51.9756 19.31 51.7474 21.7495C54.6365 21.3919 57.6443 21.9192 60.0769 23.5792C63.4818 25.7941 65.5584 29.9119 65.2344 33.9885C65.1568 39.8815 59.7848 45.2095 53.8789 44.9711C41.8524 44.9619 29.826 44.9665 17.7996 44.9665C15.4217 44.9619 12.9662 45.1086 10.6978 44.2649C6.26605 42.7929 2.58282 39.2482 0.907786 34.874C-0.265191 32.113 -0.0324209 29.0223 0.150144 26.0967C1.22727 19.3329 7.23365 13.9494 13.9383 13.147C16.0652 6.68125 21.7156 1.41239 28.4157 0.146758ZM18.3473 13.3716C22.7425 14.142 26.4851 16.7467 30.4376 18.6589C29.7941 19.8786 29.1505 21.0984 28.4841 22.3044C26.2523 21.0021 23.8881 19.9566 21.6106 18.7414C18.9588 17.3611 15.837 16.7742 12.916 17.5445C7.52119 18.8056 3.48651 24.2579 3.92923 29.8202C4.19851 35.8278 9.5796 40.9999 15.5631 40.9999C28.192 41.0137 40.8164 40.9953 53.4407 41.0091C56.5534 41.0921 59.5338 39.0556 60.6931 36.1717C61.8661 33.2961 61.04 29.7698 58.7123 27.7292C56.5854 25.6565 53.1943 25.2484 50.5288 26.4085C49.6845 28.4078 48.6119 30.32 47.1879 31.9571C46.1701 31.0537 45.1386 30.1595 44.1025 29.2741C46.0103 26.9767 47.3202 24.1616 47.6899 21.1809C48.6849 14.275 44.3581 7.12147 37.8269 4.78281C30.4558 1.78382 21.0264 5.79164 18.3473 13.3716Z" fill="#409DE4"/>
<path d="M177.909 19.6539C180.373 16.4027 184.522 14.6877 188.548 14.9216C192.181 14.7794 196.138 16.0776 198.205 19.2596C199.059 20.6857 200.086 22.1668 200.2 23.8727C197.689 24.5605 195.353 25.7344 192.897 26.5828C192.226 25.1475 191.683 23.4554 190.213 22.6254C188.456 21.6624 185.978 22.1485 184.869 23.8864C183.522 25.8858 183.349 28.4262 183.39 30.774C183.536 32.8605 183.851 35.112 185.239 36.767C186.667 38.5008 189.525 38.537 191.154 37.0792C192.14 36.1988 192.761 35.0111 193.454 33.9009C195.782 35.1808 198.146 36.3868 200.479 37.6566C198.876 41.1008 195.951 44.0122 192.203 44.9156C188.238 45.796 183.737 45.5484 180.369 43.0497C177.019 40.6922 175.271 36.639 174.887 32.645C174.426 28.1648 175.083 23.2949 177.909 19.6539Z" fill="#409DE4"/>
<path d="M230.4 15.4122C232.934 15.3893 235.471 15.3939 238.009 15.4031C240.492 20.7957 243.089 26.1426 245.234 31.6866C247.347 26.138 249.976 20.8095 252.409 15.4031C254.928 15.3939 257.447 15.3939 259.967 15.4031C259.995 25.2346 260.008 35.062 259.995 44.8885C257.393 44.8789 254.796 44.8931 252.204 44.8748C252.217 40.0736 252.113 35.2633 252.25 30.4617C250.246 35.804 247.59 40.8715 245.18 46.0303C242.766 40.9261 240.337 35.8274 238.055 30.6635C238.316 35.3959 238.138 40.142 238.183 44.8839C235.591 44.8789 232.999 44.8972 230.406 44.8702C230.387 35.0473 230.414 25.23 230.4 15.4122Z" fill="#409DE4"/>
<path d="M202.564 15.4031C207.315 15.3939 212.066 15.3985 216.818 15.3985C219.852 15.4719 223.157 16.2468 225.229 18.6451C227.329 21.0617 227.489 24.5468 226.987 27.5687C226.48 30.3063 224.504 32.5624 221.998 33.6813C223.997 37.3961 225.891 41.1604 227.89 44.8748C224.782 44.8885 221.669 44.8931 218.557 44.8748C216.969 41.6006 215.416 38.3128 213.801 35.0524C212.765 35.057 211.729 35.062 210.697 35.062C210.715 38.3311 210.702 41.6057 210.706 44.8793C207.991 44.8844 205.275 44.8977 202.564 44.8702C202.546 35.0473 202.569 25.2254 202.564 15.4031ZM210.67 22.121C210.702 24.2166 210.698 26.3168 210.675 28.4124C212.811 28.4812 214.983 28.6325 217.092 28.1786C219.762 27.454 219.639 22.7171 216.827 22.2907C214.791 21.9788 212.719 22.1668 210.67 22.121Z" fill="#409DE4"/>
<path d="M127.936 13.9082C130.433 13.0369 134.061 14.4263 134.011 17.4482C134.107 21.8275 127.042 22.6437 125.43 18.9615C124.531 16.9301 125.736 14.3621 127.936 13.9082Z" fill="#121313"/>
<path d="M136.288 17.1181C138.808 16.1597 141.278 15.0642 143.801 14.1008C143.906 24.3588 143.811 34.6213 143.856 44.8793C141.323 44.8793 138.794 44.8844 136.266 44.8748C136.257 35.6205 136.266 26.3718 136.288 17.1181Z" fill="#121313"/>
<path d="M84.0248 15.3893C86.7998 15.4077 89.5702 15.3939 92.3452 15.3985C95.9007 25.2254 99.4561 35.0524 103.012 44.8793C100.022 44.8748 97.028 44.889 94.0385 44.8702C93.5045 43.1597 92.9796 41.4447 92.4319 39.7389C89.5611 39.7205 86.6903 39.7343 83.8194 39.7297C83.29 41.4447 82.7377 43.1552 82.2448 44.8789C79.2736 44.8743 76.3024 44.8885 73.3311 44.8697C76.9139 35.0474 80.4146 25.1979 84.0248 15.3893ZM88.0915 24.6568C87.416 27.5137 86.5442 30.32 85.8094 33.1631C87.3658 33.1769 88.9176 33.1769 90.4739 33.1723C89.6752 30.3338 88.9449 27.477 88.0915 24.6568Z" fill="#121313"/>
<path d="M105.225 24.5422C107.658 21.5203 112.441 21.612 115.284 24.0057C115.28 23.6847 115.275 23.0519 115.275 22.735C117.859 22.735 120.446 22.735 123.034 22.735C123.053 29.0769 123.066 35.4234 123.057 41.7653C123.016 44.618 122.441 47.7632 120.223 49.7534C117.836 51.9183 114.522 52.5414 111.441 53C110.501 51.4913 109.534 50.001 108.612 48.4878C110.588 48.0659 112.774 47.9054 114.408 46.5847C115.312 45.7547 115.266 44.4254 115.289 43.2969C112.865 45.3425 109.127 45.8652 106.439 44.0397C103.737 42.0592 103.075 38.4545 102.879 35.3087C102.797 31.6448 102.87 27.5595 105.225 24.5422ZM111.651 28.7885C110.415 29.7886 110.483 31.5948 110.36 33.0485C110.451 34.8827 110.278 36.9875 111.46 38.5099C112.656 39.3812 114.207 38.7621 115.275 37.978C115.248 35.1579 115.28 32.3377 115.284 29.5176C114.258 28.7472 112.893 28.2519 111.651 28.7885Z" fill="#121313"/>
<path d="M147.439 26.5965C150.757 20.915 160.345 20.6536 163.769 26.3443C165.581 29.2241 165.695 32.7642 165.608 36.0612C161.29 36.0658 156.973 36.0516 152.655 36.0704C152.979 37.3498 153.568 38.8172 154.983 39.184C157.402 39.8352 159.917 38.9135 162.067 37.8134C163.094 39.4596 164.056 41.1471 165.074 42.8021C161.523 44.9303 157.233 45.8974 153.144 45.0719C149.711 44.3112 146.987 41.3989 146.188 37.9922C145.262 34.2316 145.44 29.9899 147.439 26.5965ZM152.619 31.1455C154.696 31.2835 156.781 31.2234 158.867 31.2188C158.675 29.3479 157.219 27.454 155.143 27.986C153.5 28.0914 152.993 29.8294 152.619 31.1455Z" fill="#121313"/>
<path d="M125.659 22.7355C128.21 22.7355 130.762 22.7355 133.313 22.7355C133.391 30.1091 133.326 37.4828 133.354 44.8564C130.785 44.8931 128.22 44.8844 125.65 44.8702C125.618 37.4915 125.681 30.1137 125.659 22.7355Z" fill="#121313"/>
</svg>
