<svg width="174" height="59" viewBox="0 0 174 59" fill="none" xmlns="http://www.w3.org/2000/svg">
<path d="M145.354 0.5C144.285 0.5 143.003 0.5 141.934 0.71501L135.735 11.6706C138.514 9.95166 141.934 9.09279 145.354 9.09279C156.469 9.09279 165.661 18.3294 165.661 29.5C165.661 40.6706 156.469 49.9072 145.354 49.9072C134.239 49.9072 125.261 40.885 125.047 29.715L118.635 40.6706C122.91 51.1961 133.384 58.5 145.14 58.5C160.958 58.5 173.997 45.3961 173.997 29.5C174.212 13.6039 161.172 0.5 145.354 0.5Z" fill="#BF3078"/>
<path d="M58.1421 30.7889L63.058 22.1961L74.1735 41.315L86.9984 19.1889L99.8233 41.315L121.841 3.72222C122.91 1.78889 125.047 0.5 127.398 0.5H133.597L99.8239 58.5L86.999 36.3739L74.1735 58.5L58.1421 30.7889Z" fill="#802050"/>
<path d="M67.3334 0.5L33.5599 58.5L0 0.5H6.19892C8.55013 0.5 10.6878 1.78889 11.7567 3.72222L33.5599 41.5294L55.5767 3.72222C56.6456 1.78889 58.7827 0.5 61.1345 0.5H67.3334Z" fill="#26134D"/>
</svg>
