<svg width="170" height="53" viewBox="0 0 170 53" fill="none" xmlns="http://www.w3.org/2000/svg">
<path d="M19.2849 38.0001C22.0159 38.0001 24.2296 35.7615 24.2296 33C24.2296 30.2385 22.0159 28.0001 19.2849 28.0001C16.5539 28.0001 14.34 30.2385 14.34 33C14.34 35.7615 16.5539 38.0001 19.2849 38.0001ZM19.2849 25.0001C22.0159 25.0001 24.2296 22.7615 24.2296 20C24.2296 17.2385 22.0159 14.9999 19.2849 14.9999C16.5539 14.9999 14.34 17.2385 14.34 20C14.34 22.7615 16.5539 25.0001 19.2849 25.0001ZM32.1415 38.0001C34.8724 38.0001 37.0864 35.7615 37.0864 33C37.0864 30.2385 34.8724 28.0001 32.1415 28.0001C29.4105 28.0001 27.1966 30.2385 27.1966 33C27.1966 35.7615 29.4105 38.0001 32.1415 38.0001ZM32.1415 25.0001C34.8724 25.0001 37.0864 22.7615 37.0864 20C37.0864 17.2385 34.8724 14.9999 32.1415 14.9999C29.4105 14.9999 27.1966 17.2385 27.1966 20C27.1966 22.7615 29.4105 25.0001 32.1415 25.0001ZM25.7132 0.5C39.6411 0.5 51.4263 12.4167 51.4263 26.5C51.4263 40.5833 39.6411 52.5 25.7132 52.5C11.7852 52.5 0 40.5833 0 26.5C0 12.4168 11.7853 0.5 25.7132 0.5ZM25.7132 7.49999C15.3652 7.49999 6.92278 15.7409 6.92278 26.1509C6.92278 36.561 15.3652 45.5 25.7132 45.5C36.0612 45.5 44.5036 36.561 44.5036 26.1509C44.5036 15.7409 36.0612 7.49999 25.7132 7.49999ZM80.5912 42H88.6709C88.9618 42 89.0863 41.8741 89.1694 41.58L91.8451 31.5916L94.4408 41.58C94.5239 41.8741 94.6485 42 94.9393 42H103.016C103.348 42 103.556 41.8741 103.639 41.58L109.282 20.4V41.496C109.282 41.7899 109.49 42 109.781 42H118.67C118.96 42 119.168 41.7899 119.168 41.496V19.504C119.168 19.21 118.96 19 118.67 19L101.349 19.0017C101.059 19.0017 100.892 19.1278 100.809 19.4637L98.8476 29.6299L96.872 19.4637C96.8305 19.1698 96.6229 19.0017 96.332 19.0017H87.5406C87.2498 19.0017 87.0421 19.1698 87.0006 19.4637L85.0769 29.6299L83.1593 19.4637C83.0763 19.1278 82.9102 19.0017 82.6193 19.0017L69.4947 19V11.5081C69.4947 11.1301 69.2373 10.9621 68.8221 11.0881L60.5703 13.7795C60.2795 13.8635 60.1134 14.1156 60.1134 14.4095L60.1037 17.9401C60.1037 18.8222 59.6468 19.2001 58.7745 19.2001H56.6413C56.3505 19.2001 56.1428 19.4101 56.1428 19.7041V25.9981C56.1428 26.2921 56.3505 26.5021 56.6413 26.5021H59.8326V34.146C59.8326 39.564 61.9411 42.626 68.3791 42.626C70.8714 42.626 72.9086 42.3021 73.9887 41.7981C74.3209 41.6302 74.4396 41.4201 74.4396 41.0842V35.1337C74.4396 34.7976 74.1133 34.6297 73.6979 34.8396C73.1579 35.0917 72.5328 35.1337 71.9098 35.1337C70.2484 35.1337 69.7182 34.5037 69.7182 32.4037V26.5021H73.5885C73.8793 26.5021 74.0731 26.3073 74.0731 26.0134V20.4L79.9682 41.58C80.0512 41.8741 80.2589 42 80.5912 42ZM109.282 16.4969C109.282 16.7909 109.49 17.001 109.781 17.001H118.67C118.96 17.001 119.168 16.7909 119.168 16.4969V11.5081C119.168 11.2141 118.96 11.0041 118.67 11.0041H109.781C109.49 11.0041 109.282 11.2141 109.282 11.5081V16.4969ZM121.147 41.496C121.147 41.7899 121.355 42 121.646 42H130.544C130.835 42 131.042 41.7899 131.042 41.496V11.5081C131.042 11.2141 130.835 11.0041 130.544 11.0041H121.646C121.355 11.0041 121.147 11.2141 121.147 11.5081V41.496ZM133.021 41.496C133.021 41.7899 133.229 42 133.519 42H142.393C142.685 42 142.892 41.7899 142.892 41.496L142.887 19.504C142.887 19.21 142.68 19 142.389 19H133.514C133.224 19 133.017 19.21 133.017 19.504L133.021 41.496ZM133.017 16.4969C133.017 16.7909 133.224 17.001 133.514 17.001H142.393C142.685 17.001 142.892 16.7909 142.892 16.4969L142.887 11.5081C142.887 11.2141 142.68 11.0041 142.389 11.0041H133.514C133.224 11.0041 133.017 11.2141 133.017 11.5081V16.4969ZM144.446 30.702C144.446 37.548 149.644 42.6999 157.246 42.6999C164.847 42.6999 170 37.548 170 30.702V30.156C170 23.3101 164.847 18.3 157.246 18.3C149.644 18.3 144.446 23.3101 144.446 30.156V30.702ZM153.982 30.7201V30.3099C153.982 27.16 155.418 25.928 157.246 25.928C159.073 25.928 160.517 27.16 160.517 30.3099V30.7201C160.517 33.8281 159.073 35.128 157.246 35.128C155.418 35.128 153.982 33.8281 153.982 30.7201Z" fill="#F22F46"/>
</svg>
