<svg width="159" height="43" viewBox="0 0 159 43" fill="none" xmlns="http://www.w3.org/2000/svg">
<path d="M37.3332 29.465L37.3108 29.3941L51.448 16.4777V10.2543H28.7673V16.4777H42.3145L42.3369 16.5373L28.3378 29.465V35.6884H51.6758V29.465H37.3332Z" fill="#201515"/>
<path d="M65.5999 9.66177C62.9838 9.66177 60.8516 10.0555 59.2037 10.8431C57.6685 11.5294 56.3754 12.6603 55.492 14.089C54.6469 15.527 54.1162 17.1272 53.9349 18.7845L60.8168 19.7497C61.0657 18.2863 61.5636 17.2491 62.3104 16.6379C63.1593 15.9987 64.2055 15.6758 65.2678 15.725C66.6646 15.725 67.6778 16.0976 68.3071 16.8429C68.9312 17.5882 69.2485 18.6205 69.2485 19.9807V20.659H62.6315C59.2634 20.659 56.8437 21.4043 55.3725 22.895C53.9013 24.3856 53.1669 26.3533 53.1694 28.7979C53.1694 31.3022 53.9037 33.1655 55.3725 34.3878C56.8412 35.6101 58.6884 36.2175 60.9139 36.2101C63.6746 36.2101 65.7983 35.2623 67.2841 33.3667C68.1622 32.2018 68.7889 30.8683 69.1251 29.4501H69.3751L70.3236 35.6735H76.5594V19.9136C76.5594 16.6566 75.6996 14.1337 73.9794 12.3449C72.2593 10.5561 69.4659 9.66177 65.5999 9.66177ZM67.7809 29.0885C66.7913 29.9121 65.4954 30.322 63.8824 30.322C62.5531 30.322 61.6295 30.0898 61.1118 29.6252C60.8595 29.4054 60.6588 29.1328 60.5239 28.8269C60.389 28.521 60.3233 28.1892 60.3313 27.8551C60.3167 27.5399 60.3663 27.2251 60.4774 26.9298C60.5884 26.6345 60.7585 26.3647 60.9774 26.1371C61.214 25.9156 61.4932 25.7443 61.798 25.6335C62.1029 25.5227 62.4271 25.4746 62.751 25.4924H69.2596V25.9209C69.2726 26.5267 69.146 27.1274 68.8901 27.6766C68.6335 28.2259 68.2542 28.709 67.7809 29.0885Z" fill="#201515"/>
<path d="M114.266 10.2543H106.899V35.6922H114.266V10.2543Z" fill="#201515"/>
<path d="M157.764 10.2543C155.683 10.2543 154.042 10.9872 152.843 12.453C151.982 13.5064 151.327 15.0628 150.879 17.1224H150.662L149.699 10.2543H143.407V35.6884H150.774V22.6452C150.774 21.0006 151.16 19.7397 151.932 18.8627C152.704 17.9857 154.127 17.5473 156.203 17.5473H159V10.2543H157.764Z" fill="#201515"/>
<path d="M136.095 11.0853C134.376 10.0642 132.206 9.55493 129.587 9.5574C125.465 9.5574 122.238 10.7288 119.909 13.0716C117.578 15.4144 116.413 18.6441 116.413 22.7608C116.354 25.2497 116.898 27.7159 118 29.9494C119.009 31.9398 120.58 33.5916 122.519 34.7009C124.47 35.8263 126.791 36.3903 129.483 36.3927C131.81 36.3927 133.754 36.035 135.315 35.3195C136.783 34.6769 138.06 33.6697 139.027 32.3941C139.947 31.1418 140.63 29.7325 141.043 28.2352L134.696 26.4613C134.428 27.4349 133.913 28.3232 133.202 29.0401C132.484 29.7556 131.283 30.1134 129.598 30.1134C127.594 30.1134 126.101 29.5407 125.117 28.3954C124.404 27.5681 123.956 26.3868 123.758 24.8552H141.14C141.211 24.1396 141.249 23.5396 141.249 23.0552V21.4714C141.29 19.3437 140.85 17.234 139.961 15.3001C139.128 13.5384 137.78 12.0692 136.095 11.0853ZM129.374 15.6206C132.362 15.6206 134.055 17.0876 134.456 20.0217H123.889C124.057 19.0427 124.463 18.12 125.072 17.3349C126.041 16.1896 127.475 15.6181 129.374 15.6206Z" fill="#201515"/>
<path d="M110.663 0.0023862C110.108 -0.0164255 109.556 0.0761452 109.038 0.274603C108.521 0.473061 108.049 0.773348 107.649 1.15763C107.256 1.54559 106.947 2.01095 106.744 2.52417C106.54 3.03739 106.445 3.58725 106.466 4.13891C106.446 4.69415 106.541 5.24752 106.745 5.76448C106.949 6.28145 107.258 6.75094 107.651 7.1436C108.045 7.53627 108.516 7.84372 109.034 8.0468C109.552 8.24988 110.106 8.34422 110.663 8.32389C111.216 8.34474 111.767 8.25046 112.281 8.04712C112.795 7.84372 113.262 7.53569 113.65 7.14256C114.036 6.7454 114.336 6.27459 114.535 5.75841C114.733 5.24223 114.824 4.69135 114.804 4.13891C114.83 3.58975 114.74 3.04131 114.541 2.52863C114.342 2.01594 114.038 1.55029 113.649 1.16138C113.26 0.772469 112.793 0.468859 112.28 0.26994C111.767 0.0710223 111.217 -0.0188253 110.667 0.00611645L110.663 0.0023862Z" fill="#201515"/>
<path d="M95.4428 9.5574C92.9334 9.5574 90.9168 10.3437 89.3938 11.9163C88.2657 13.0815 87.438 14.8206 86.9105 17.1336H86.6755L85.7119 10.2655H79.42V43H86.7871V29.5172H87.0561C87.2806 30.4161 87.5959 31.2901 87.9968 32.1258C88.6202 33.487 89.6425 34.6278 90.9286 35.3977C92.2616 36.1239 93.7638 36.4852 95.2822 36.4449C98.3668 36.4449 100.715 35.2462 102.328 32.8487C103.941 30.4513 104.748 27.106 104.748 22.813C104.748 18.6665 103.967 15.4206 102.407 13.0753C100.846 10.7301 98.5248 9.5574 95.4428 9.5574ZM96.1897 27.9892C95.3305 29.2314 93.9864 29.8525 92.1565 29.8525C91.4025 29.8873 90.6505 29.7421 89.9637 29.4291C89.2763 29.1161 88.6737 28.6443 88.2063 28.0525C87.2526 26.8576 86.7773 25.2216 86.7799 23.1446V22.6602C86.7799 20.5509 87.2552 18.936 88.2063 17.8156C89.1568 16.6951 90.4742 16.1411 92.1565 16.1535C94.019 16.1535 95.3717 16.7435 96.2158 17.9236C97.0599 19.1037 97.4816 20.7497 97.4816 22.8614C97.4868 25.0452 97.0586 26.7545 96.1968 27.9892H96.1897Z" fill="#201515"/>
<path d="M25.4887 29.465H0V35.6959H25.4887V29.465Z" fill="#FF4F00"/>
</svg>
