<svg width="145" height="51" viewBox="0 0 145 51" fill="none" xmlns="http://www.w3.org/2000/svg">
<path d="M31.0714 24.65H26.4107C26.4107 24.82 26.4107 24.99 26.4107 25.16C26.4107 31.96 20.7143 36.04 15.5357 36.04C10.3571 36.04 4.66071 31.96 4.66071 25.16C4.66071 24.99 4.66071 24.82 4.66071 24.65H0C0 24.82 0 24.99 0 25.16C0 34.51 7.76786 40.63 15.5357 40.63C23.3036 40.63 31.0714 34.51 31.0714 25.16C31.0714 24.99 31.0714 24.82 31.0714 24.65Z" fill="black"/>
<path d="M15.5357 5.78L18.8155 10.2H24.6845C21.9226 6.63 18.9881 3.06 15.5357 0C12.0833 3.06 9.14881 6.63 6.3869 10.2H12.256L15.5357 5.78Z" fill="black"/>
<path d="M6.21429 20.57C7.93031 20.57 9.32143 19.2 9.32143 17.51C9.32143 15.82 7.93031 14.45 6.21429 14.45C4.49826 14.45 3.10714 15.82 3.10714 17.51C3.10714 19.2 4.49826 20.57 6.21429 20.57Z" fill="black"/>
<path d="M15.5357 20.57C17.2517 20.57 18.6429 19.2 18.6429 17.51C18.6429 15.82 17.2517 14.45 15.5357 14.45C13.8197 14.45 12.4286 15.82 12.4286 17.51C12.4286 19.2 13.8197 20.57 15.5357 20.57Z" fill="black"/>
<path d="M24.8571 20.57C26.5732 20.57 27.9643 19.2 27.9643 17.51C27.9643 15.82 26.5732 14.45 24.8571 14.45C23.1411 14.45 21.75 15.82 21.75 17.51C21.75 19.2 23.1411 20.57 24.8571 20.57Z" fill="black"/>
<path d="M70.4286 39.95H64.9048V35.53C61.9702 39.1 58 40.8 53.3393 40.8C48.6786 40.8 44.5357 39.27 41.7738 36.55C39.0119 33.83 37.2857 29.92 37.2857 25.33C37.2857 20.57 38.8393 16.83 41.7738 14.11C44.7083 11.39 48.6786 9.86 53.3393 9.86C58.3452 9.86 61.7976 11.39 64.9048 14.79V0H70.4286V39.95ZM53.8571 14.62C47.125 14.62 42.9821 18.53 42.9821 25.33C42.9821 31.96 47.125 35.87 53.8571 35.87C60.7619 35.87 64.9048 31.96 64.9048 25.33C64.9048 18.7 60.7619 14.62 53.8571 14.62Z" fill="black"/>
<path d="M95.2857 15.13H81.994V40.8H76.6429V10.2H95.2857V15.13Z" fill="black"/>
<path d="M99.4286 3.23C99.4286 2.04 99.9464 1.02 100.982 0.51C102.018 -0.17 103.054 -0.17 104.089 0.51C105.125 1.02 105.643 2.04 105.643 3.23C105.643 4.42 105.125 5.61 104.089 6.12C103.054 6.8 102.018 6.8 100.982 6.12C99.9464 5.61 99.4286 4.42 99.4286 3.23ZM99.9464 10.54H105.125V40.8H99.9464V10.54Z" fill="black"/>
<path d="M111.857 10.88H117.381V15.3C120.143 12.07 123.768 10.2 128.946 10.2C133.607 10.2 137.577 11.73 140.512 14.45C143.446 17.17 145 21.08 145 25.67C145 30.43 143.446 34.17 140.512 36.89C137.577 39.61 133.607 41.14 128.774 41.14C123.94 41.14 120.488 39.61 117.381 36.21V51H111.857V10.88ZM128.256 36.38C135.161 36.38 139.304 32.47 139.304 25.67C139.304 19.04 135.161 15.13 128.256 15.13C121.524 15.13 117.381 19.04 117.381 25.67C117.381 32.3 121.524 36.38 128.256 36.38Z" fill="black"/>
</svg>
