<svg width="141" height="43" viewBox="0 0 141 43" fill="none" xmlns="http://www.w3.org/2000/svg">
<path d="M80.0618 8.59733C80.8141 8.59733 81.5422 8.29742 82.0761 7.77258C82.61 7.24775 82.9255 6.49798 82.9497 5.74821C82.9497 4.97345 82.6342 4.22369 82.1003 3.67386C81.5664 3.12403 80.8384 2.79913 80.0861 2.79913C79.3337 2.82412 78.6299 3.12403 78.096 3.69885C77.5621 4.24868 77.2709 4.99845 77.2952 5.74821C77.2952 6.49798 77.5864 7.22275 78.1203 7.77258C78.6299 8.27243 79.3337 8.57234 80.0618 8.59733ZM99.6222 11.3465H106.563V11.9213C106.175 11.9963 105.811 12.1212 105.471 12.3212C104.84 12.6211 103.578 14.0956 102.583 16.5698C100.933 20.8435 99.2096 25.9169 97.3895 31.7151L96.71 33.9145C96.4188 34.9141 96.1518 35.5639 96.0305 35.9388C95.9091 36.3387 95.7392 36.9385 95.448 37.6633C95.2781 38.2131 95.0597 38.763 94.7928 39.2628C94.453 39.9126 93.822 41.2372 93.3124 41.6371C92.5115 42.3368 91.3224 43.1116 89.842 42.9866C86.954 42.9866 84.7941 40.7873 84.7699 38.1881C84.7699 36.4137 85.862 35.239 87.5122 35.239C88.7014 35.239 89.7449 35.8888 89.7449 37.2634C89.7449 38.2631 88.7742 39.2878 88.7742 39.8126C88.7742 41.1622 89.5265 41.787 91.0069 41.787C92.196 41.787 93.1668 41.0122 93.8948 39.4627C94.8656 37.6883 94.9626 35.7389 94.1375 33.5646L88.0461 17.0697C86.6385 13.2709 85.595 12.0213 84.2845 11.8713V11.2965H93.8948V11.8713C92.7542 11.9963 92.1718 12.6961 92.1718 13.9457C92.1718 14.8454 92.5115 16.2449 93.1425 18.0194L94.2831 21.2184C95.5936 24.6923 96.6614 27.7164 97.1954 29.6158C98.433 25.667 99.5737 22.2181 100.666 19.194C101.467 16.9447 101.855 15.3452 101.855 14.3955C101.855 12.6961 100.957 11.9213 99.6222 11.9213V11.3465ZM32.811 32.4149C31.5733 32.19 30.5298 31.0653 30.5298 28.6911V0L23.5404 1.54952V2.14933C24.7296 2.02437 25.9188 3.09904 25.9188 5.39832V28.6911C25.9188 30.9404 24.7296 32.24 23.5404 32.4149C23.4191 32.4399 23.322 32.4399 23.2007 32.4649C22.594 32.5149 21.9873 32.3899 21.4291 32.14C20.4826 31.7151 19.706 30.9654 19.0508 29.8657L15.8231 24.5924C15.1435 23.4677 14.1243 22.618 12.9351 22.1431C11.746 21.6683 10.4355 21.5933 9.19776 21.9432L12.838 17.8195C15.5804 14.6954 18.1286 12.721 20.5312 11.8963V11.3215H12.5225V11.8963C14.5854 12.721 14.464 14.5455 12.0857 17.3946L6.98933 23.4927V0L0 1.54952V2.14933C1.18916 2.14933 2.37831 3.34896 2.37831 5.4733V28.6661C2.37831 31.2403 1.21343 32.24 0 32.4149V32.9897H9.27057V32.4149C7.74165 32.19 6.98933 30.9904 6.98933 28.6911V24.4174L8.97935 22.1681L13.7845 30.2656C14.9251 32.215 15.9929 32.9897 17.6675 32.9897H33.7818V32.5399C33.806 32.5399 33.3449 32.5149 32.811 32.4149ZM52.0317 29.6908V19.9938C51.9346 13.6708 49.3379 10.7717 43.3921 10.7717C41.4991 10.7467 39.6547 11.3965 38.1501 12.5961C36.5726 13.8207 35.8203 15.1953 35.8203 16.7948C35.8203 18.3443 36.6697 19.5189 38.053 19.5189C39.5334 19.5189 40.6012 18.6442 40.6012 17.4446C40.6012 16.5449 40.0188 15.2703 40.0188 14.4205C40.0188 12.871 41.1594 11.5214 43.1494 11.5214C45.6976 11.5214 47.5177 13.4708 47.5177 17.7945V20.3937L45.4064 20.9185C44.3143 21.1434 43.3678 21.3684 42.664 21.5683C41.936 21.7932 41.0138 22.0931 39.9217 22.518C37.7133 23.3927 36.5484 24.2175 35.5291 25.767C35.0194 26.5168 34.7768 27.4165 34.7768 28.3162C34.7768 31.9151 37.2279 33.5646 40.6497 33.5646C43.3678 33.5646 46.2315 32.09 47.542 29.3159C47.5663 30.1906 47.7604 31.0403 48.1487 31.8401C49.5805 34.8142 54.3372 33.0647 54.3372 33.0647V32.4899C52.2015 32.8148 52.0317 30.2906 52.0317 29.6908ZM47.5177 26.6917C47.5177 28.1163 47.0081 29.2909 45.9888 30.1156C45.0181 30.9404 43.9988 31.3652 42.931 31.3652C40.8682 31.3652 39.5091 29.9907 39.5091 27.4165C39.5091 26.2168 40.1644 25.0922 40.6983 24.4424C41.1351 23.9925 41.6205 23.6177 42.1787 23.3677C42.9067 22.9679 43.2465 22.7679 43.7561 22.543L45.6976 21.8182C46.6683 21.4183 47.2508 21.2184 47.5177 21.0934V26.6917ZM141 11.3465H124.546V0H141L137.554 5.67324L141 11.3465ZM107.534 30.2156C105.495 28.0663 104.355 25.1672 104.403 22.1431C104.379 20.6686 104.646 19.194 105.18 17.8195C105.714 16.4449 106.514 15.1953 107.534 14.1206C109.621 11.8713 112.145 10.7467 115.13 10.7467C118.042 10.7467 120.59 11.8713 122.677 14.1206C123.697 15.1703 124.522 16.4199 125.056 17.7945C125.614 19.169 125.881 20.6436 125.856 22.1431C125.881 23.6427 125.614 25.1172 125.056 26.4918C124.497 27.8663 123.697 29.1409 122.677 30.1906C120.59 32.3899 118.066 33.5396 115.13 33.5396C112.169 33.5646 109.621 32.4399 107.534 30.2156ZM118.94 14.4955C118.115 12.821 116.998 11.8463 115.712 11.5714C113.091 11.0216 110.786 13.7957 109.912 18.1694C109.548 20.1437 109.451 22.1431 109.645 24.1175C109.839 26.1169 110.373 28.0413 111.247 29.8407C112.096 31.5152 113.188 32.4899 114.475 32.7648C117.096 33.3146 119.474 30.4405 120.348 26.0169C121.076 22.3181 120.712 17.8195 118.94 14.4955Z" fill="black"/>
<path d="M82.5129 28.6911V11.3465H67.612V11.8713C69.6021 12.1712 70.5485 13.7207 69.6506 16.195C64.9911 29.1409 65.2823 28.5661 64.991 29.5908C64.6998 28.5911 64.0203 26.1419 62.9282 23.0678C61.8361 19.9938 61.1081 17.9694 60.8169 17.0447C59.6762 13.4458 60.0645 12.1212 61.909 11.8963V11.3215H52.2501V11.8963C53.6819 12.1962 54.9682 13.8957 56.0117 16.9197L57.4921 20.8685C59.1181 25.1172 61.0353 30.9904 61.6663 32.9897H64.8697C65.9132 29.9157 70.0389 17.6195 70.5971 16.3699C71.2038 14.9454 71.8833 13.8707 72.6356 13.1209C72.9996 12.721 73.4365 12.3961 73.9461 12.1962C74.4315 11.9963 74.9654 11.8713 75.4993 11.8963C75.4993 11.8963 77.8291 11.8963 77.8291 14.1956V28.7161C77.8291 31.1403 76.6885 32.265 75.4993 32.4399V33.0147H84.7213V32.4399C83.5322 32.24 82.5129 31.1153 82.5129 28.6911Z" fill="black"/>
</svg>
