<svg width="176" height="65" viewBox="0 0 176 65" fill="none" xmlns="http://www.w3.org/2000/svg">
<path d="M66.2448 39.5442L70.1047 49.6323H62.6314L66.2509 39.5442H66.2448ZM64.797 36.1648L56.355 58.2549H59.4894L61.6596 52.2532H71.0658L73.236 58.2549H76.3719L67.9299 36.1648H64.794H64.797ZM110.37 58.27H113.274V36.1814H110.37V58.27ZM80.7138 45.287C81.2582 44.5053 81.9773 43.8601 82.8147 43.4022C83.652 42.9443 84.5847 42.6861 85.5393 42.648C89.3991 42.648 91.3275 45.29 91.3275 49.1312V58.4956H88.4197V49.6126C88.4197 46.4906 86.7316 45.29 84.5599 45.29C83.4207 45.3876 82.3617 45.9139 81.5988 46.7618C80.8358 47.6097 80.4263 48.7153 80.4538 49.8534V58.2579H77.5505V42.9099H80.4598L80.7016 45.3127L80.7138 45.287ZM93.7395 53.7082C93.7395 50.3288 96.8739 48.4241 100.495 48.4241C101.932 48.2876 103.375 48.6248 104.601 49.384V48.901C104.604 48.4064 104.505 47.9165 104.309 47.462C104.113 47.0075 103.824 46.5982 103.462 46.2599C103.099 45.9215 102.671 45.6614 102.203 45.4958C101.734 45.3302 101.237 45.2627 100.741 45.2976C99.9849 45.2225 99.2243 45.3921 98.5723 45.7813C97.9203 46.1705 97.4117 46.7585 97.1218 47.4581L94.4634 46.2666C94.9486 44.8252 96.877 42.6631 100.734 42.6631C101.618 42.5912 102.508 42.7075 103.344 43.0042C104.181 43.301 104.944 43.7714 105.583 44.3843C106.223 44.9972 106.724 45.7385 107.054 46.559C107.383 47.3795 107.534 48.2604 107.495 49.1433V58.2685H104.835V56.1079H104.594C104.05 56.9456 103.298 57.629 102.41 58.0919C101.523 58.5548 100.531 58.7815 99.5292 58.75C96.3933 58.75 93.7395 56.8286 93.7395 53.7082ZM104.595 51.7868C103.521 51.0946 102.254 50.7585 100.976 50.8269C98.0662 50.8269 96.8693 52.5075 96.8693 53.7233C96.8693 55.4039 98.5574 56.1261 100.004 56.1261C101.17 56.0999 102.285 55.643 103.132 54.8442C103.979 54.0453 104.498 52.9616 104.587 51.8035" fill="#757575"/>
<path fill-rule="evenodd" clip-rule="evenodd" d="M117.38 65L120.775 57.0769L114.746 43.1476H117.656L122.239 53.7127L126.823 43.1476H129.732L120.328 65H117.38ZM159.834 48.194C159.545 47.3225 158.998 46.5582 158.265 46.0011C157.533 45.444 156.648 45.1202 155.728 45.072C155.077 45.116 154.442 45.2881 153.858 45.5782C153.275 45.8682 152.755 46.2706 152.328 46.762C151.902 47.2534 151.578 47.824 151.375 48.4409C151.171 49.0578 151.093 49.7088 151.144 50.356C151.093 51.0033 151.171 51.6542 151.375 52.2711C151.578 52.888 151.902 53.4587 152.328 53.9501C152.755 54.4415 153.275 54.8438 153.858 55.1339C154.442 55.424 155.077 55.596 155.728 55.6401C156.618 55.5983 157.479 55.3033 158.206 54.79C158.934 54.2767 159.499 53.5666 159.834 52.7437L162.247 54.1851C161.708 55.4628 160.803 56.5541 159.645 57.3228C158.487 58.0916 157.127 58.5037 155.735 58.5077C153.656 58.4112 151.701 57.4969 150.299 55.9658C148.897 54.4348 148.162 52.4122 148.257 50.3424C148.191 49.3132 148.334 48.2813 148.677 47.3083C149.02 46.3353 149.557 45.441 150.255 44.6789C150.953 43.9169 151.798 43.3026 152.739 42.8727C153.681 42.4429 154.7 42.2063 155.735 42.1771C157.128 42.179 158.489 42.5902 159.647 43.3592C160.806 44.1282 161.71 45.2208 162.247 46.4997L159.834 48.1803V48.194Z" fill="#757575"/>
<path d="M170.206 58.7469C174.066 58.7469 175.994 56.5864 175.994 53.9443C175.994 48.1818 167.552 50.3409 167.552 46.9797C167.552 45.779 168.516 45.0583 170.206 45.0583C170.996 45.0169 171.785 45.1707 172.501 45.5059C173.217 45.8411 173.84 46.3474 174.312 46.9797L176 45.2991C174.438 43.597 172.276 42.5619 169.965 42.4103C166.346 42.4103 164.418 44.5708 164.418 47.2128C164.418 52.7361 173.101 50.8163 173.101 53.696C173.101 55.1374 172.137 56.0989 170.192 56.0989C169.398 56.053 168.628 55.8088 167.953 55.3889C167.279 54.969 166.721 54.3868 166.332 53.696L164.189 55.3933C165.637 56.8347 167.809 58.7727 170.218 58.7727L170.206 58.7469ZM142.708 58.267H145.617V42.9054H142.708V58.267Z" fill="#757575"/>
<path fill-rule="evenodd" clip-rule="evenodd" d="M143.912 35.4759C144.424 35.4759 144.915 35.6783 145.277 36.0386C145.639 36.3989 145.842 36.8876 145.842 37.3972C145.842 37.9068 145.639 38.3955 145.277 38.7558C144.915 39.1161 144.424 39.3186 143.912 39.3186C143.412 39.2845 142.941 39.0712 142.586 38.7179C142.232 38.3646 142.018 37.8955 141.984 37.3972C142.018 36.899 142.232 36.4298 142.586 36.0765C142.941 35.7233 143.412 35.5099 143.912 35.4759ZM139.806 55.8884L140.291 58.049H137.382C134.728 58.049 133.522 56.1276 133.522 53.2464V45.7715H130.613V42.8766H133.522V38.3435H136.432V42.9054H139.826V45.8018H136.432V53.7248C136.432 55.8854 138.12 55.8854 139.826 55.8854L139.806 55.8884Z" fill="#757575"/>
<path d="M71.0217 11.7582V15.3677H79.4576C79.3204 16.9835 78.6406 18.5063 77.5277 19.6903C76.6886 20.5584 75.6762 21.242 74.5556 21.697C73.4351 22.1521 72.2313 22.3685 71.0217 22.3323C69.7995 22.326 68.5908 22.0776 67.4659 21.6018C66.341 21.126 65.3224 20.4321 64.4694 19.5606C63.6164 18.6892 62.9461 17.6575 62.4974 16.5257C62.0487 15.3938 61.8306 14.1844 61.8558 12.9679C61.8456 10.5224 62.8005 8.17074 64.5149 6.41928C66.2292 4.66781 68.5659 3.65663 71.0217 3.60346C73.3391 3.60096 75.5744 4.45754 77.292 6.00627L79.7055 3.60346C77.3901 1.32618 74.2763 0.0340505 71.0217 0C67.6155 0.012838 64.3487 1.34811 61.9162 3.72182C59.4836 6.09553 58.0772 9.32038 57.996 12.7105C58.0783 16.0998 59.4853 19.3236 61.9177 21.6963C64.3502 24.069 67.6163 25.4037 71.0217 25.4165C72.6842 25.5092 74.3467 25.2342 75.8897 24.6111C77.4327 23.9881 78.8179 23.0325 79.9458 21.813C80.9851 20.7262 81.7974 19.4449 82.3357 18.0432C82.874 16.6416 83.1276 15.1476 83.0817 13.6477C83.1356 12.9188 83.0536 12.1863 82.8399 11.4872H71.0202L71.0217 11.7582ZM92.4864 8.85724C91.4008 8.82929 90.3208 9.02174 89.3123 9.42287C88.3039 9.82399 87.388 10.4254 86.6206 11.1904C85.8532 11.9554 85.2503 12.8679 84.8487 13.8724C84.4471 14.877 84.2552 15.9524 84.2847 17.0331C84.2575 18.1125 84.4511 19.1861 84.8538 20.1887C85.2564 21.1912 85.8596 22.1018 86.6268 22.865C87.394 23.6282 88.309 24.2281 89.3163 24.6282C90.3237 25.0283 91.4022 25.2203 92.4864 25.1924C93.5662 25.2022 94.6372 24.9977 95.6367 24.5909C96.6363 24.1841 97.5444 23.583 98.308 22.8229C99.0708 22.0634 99.6741 21.1603 100.083 20.1662C100.491 19.1722 100.697 18.1072 100.688 17.0331C100.719 15.952 100.528 14.876 100.127 13.8709C99.7256 12.8658 99.1228 11.9527 98.3551 11.1875C97.5874 10.4222 96.671 9.82085 95.662 9.42019C94.6529 9.01953 93.5723 8.82798 92.4864 8.85724ZM92.4864 22.0507C91.2096 21.9802 90.0122 21.4113 89.154 20.4674C88.2959 19.5235 87.8463 18.2808 87.9027 17.0089C87.8464 15.7386 88.2965 14.4975 89.155 13.5561C90.0135 12.6146 91.2109 12.0489 92.4864 11.9823C93.1246 11.998 93.7529 12.1426 94.3333 12.4073C94.9136 12.6719 95.434 13.0512 95.8627 13.5221C96.2915 13.993 96.6197 14.5456 96.8275 15.1466C97.0353 15.7475 97.1183 16.3842 97.0716 17.018C97.1192 17.6522 97.0368 18.2894 96.8295 18.891C96.6222 19.4925 96.2943 20.0458 95.8656 20.5173C95.4369 20.9889 94.9165 21.3687 94.3358 21.6339C93.7552 21.899 93.1265 22.0439 92.4879 22.0598L92.4864 22.0507ZM132.027 10.5439C131.436 9.92884 130.724 9.44102 129.935 9.11057C129.147 8.78011 128.299 8.61402 127.444 8.62256C125.34 8.70732 123.353 9.60987 121.91 11.1365C120.467 12.6631 119.683 14.692 119.726 16.7879C119.683 18.8842 120.468 20.9134 121.912 22.4398C123.356 23.9662 125.344 24.8681 127.448 24.9517C128.268 24.9625 129.081 24.7964 129.831 24.4647C130.58 24.133 131.249 23.6437 131.79 23.0303H132.032V24.231C132.032 27.353 130.344 29.0336 127.69 29.0336C126.797 28.9996 125.933 28.7077 125.204 28.1934C124.475 27.6791 123.912 26.9646 123.584 26.1372L120.448 27.3378C121.059 28.7491 122.067 29.9539 123.351 30.8062C124.636 31.6586 126.141 32.122 127.684 32.1404C132.026 32.1404 135.642 29.7376 135.642 23.4951V8.60742H132.248V10.5227L132.027 10.5439ZM127.921 22.0704C127.302 22.0286 126.697 21.8644 126.141 21.5872C125.586 21.3101 125.092 20.9256 124.688 20.4562C124.284 19.9868 123.978 19.442 123.787 18.8535C123.597 18.265 123.526 17.6446 123.579 17.0286C123.526 16.4126 123.597 15.7922 123.787 15.2037C123.978 14.6152 124.284 14.0704 124.688 13.601C125.092 13.1316 125.586 12.7471 126.141 12.47C126.697 12.1928 127.302 12.0286 127.921 11.9868C128.541 12.0286 129.146 12.1928 129.701 12.47C130.256 12.7471 130.75 13.1316 131.154 13.601C131.559 14.0704 131.865 14.6152 132.055 15.2037C132.246 15.7922 132.316 16.4126 132.263 17.0286C132.316 17.6436 132.245 18.263 132.055 18.8506C131.865 19.4382 131.56 19.9823 131.156 20.4512C130.753 20.9201 130.26 21.3045 129.706 21.582C129.153 21.8594 128.549 22.0244 127.93 22.0674L127.921 22.0704ZM110.312 8.87692C109.228 8.85013 108.151 9.04277 107.145 9.44316C106.139 9.84355 105.225 10.4433 104.458 11.2061C103.692 11.9688 103.089 12.8787 102.687 13.8804C102.285 14.882 102.091 15.9547 102.118 17.0331C102.088 18.114 102.28 19.1896 102.682 20.1942C103.084 21.1988 103.687 22.1115 104.454 22.8765C105.222 23.6415 106.138 24.2429 107.146 24.6439C108.155 25.0449 109.235 25.2372 110.321 25.2091C111.401 25.2189 112.472 25.0144 113.471 24.6076C114.471 24.2007 115.379 23.5997 116.143 22.8396C116.907 22.0781 117.512 21.1722 117.92 20.1752C118.329 19.1782 118.534 18.11 118.523 17.0331C118.571 15.9483 118.392 14.8653 117.997 13.8531C117.602 12.8409 117 11.9218 116.228 11.1543C115.456 10.3868 114.533 9.78778 113.516 9.39541C112.499 9.00305 111.411 8.82595 110.321 8.87541L110.312 8.87692ZM110.312 22.0704C109.037 21.9976 107.843 21.4283 106.987 20.4857C106.131 19.543 105.682 18.3028 105.737 17.0331C105.681 15.7613 106.13 14.5186 106.989 13.5747C107.847 12.6308 109.044 12.0618 110.321 11.9913C110.959 12.0072 111.588 12.1521 112.169 12.4173C112.749 12.6824 113.27 13.0623 113.699 13.5338C114.127 14.0053 114.455 14.5586 114.663 15.1602C114.87 15.7617 114.952 16.3989 114.905 17.0331C114.951 17.6667 114.868 18.3031 114.66 18.9038C114.452 19.5044 114.124 20.0568 113.696 20.5275C113.267 20.9982 112.747 21.3774 112.167 21.6421C111.587 21.9068 110.959 22.0515 110.321 22.0674L110.312 22.0704ZM138.333 0.227108H141.952V25.2091H138.333V0.227108ZM151.839 22.0795C151.003 22.0817 150.182 21.8603 149.461 21.4384C148.74 21.0165 148.146 20.4097 147.742 19.6812L158.844 15.1179L158.351 14.1564C157.856 12.676 156.923 11.3792 155.675 10.4362C154.426 9.49314 152.921 8.94802 151.355 8.87238C150.302 8.87562 149.26 9.09256 148.293 9.50997C147.326 9.92738 146.455 10.5365 145.733 11.3002C145.01 12.0638 144.452 12.966 144.091 13.9517C143.731 14.9374 143.576 15.9858 143.636 17.0331C143.626 18.1082 143.831 19.1744 144.24 20.1695C144.649 21.1646 145.252 22.0687 146.016 22.829C146.779 23.5914 147.687 24.1946 148.687 24.6033C149.687 25.0119 150.759 25.2179 151.84 25.2091C153.208 25.1927 154.553 24.8583 155.767 24.2327C156.982 23.607 158.033 22.7074 158.836 21.6056L155.927 19.6843C155.522 20.4149 154.927 21.0236 154.205 21.4464C153.482 21.8692 152.659 22.0905 151.821 22.0871L151.839 22.0795ZM151.597 11.9913C152.255 11.9549 152.909 12.1199 153.471 12.4641C154.032 12.8084 154.474 13.3155 154.738 13.9172L147.255 17.0331C147.255 13.4342 149.669 11.9959 151.599 11.9959L151.597 11.9913Z" fill="#757575"/>
<path d="M35.3086 8.08052V50.2622C35.2348 51.1923 35.3537 52.1276 35.6579 53.0102C35.9621 53.8927 36.4452 54.7036 37.0771 55.3927C37.709 56.0817 38.4764 56.6342 39.3316 57.0158C40.1868 57.3975 41.1117 57.6002 42.0488 57.6114C45.2592 57.6114 48.789 55.3751 48.789 50.2622V8.39999C48.8312 7.49259 48.6881 6.58609 48.3684 5.7353C48.0487 4.88451 47.559 4.10708 46.929 3.45001C46.299 2.79294 45.5417 2.26986 44.7029 1.91239C43.8641 1.55492 42.9612 1.37048 42.0488 1.37022C40.2695 1.39679 38.5706 2.1123 37.3123 3.36501C36.054 4.61773 35.3353 6.30912 35.3086 8.08052Z" fill="#F9AB00"/>
<path d="M17.6596 29.4923V50.2637C17.5863 51.1932 17.7054 52.1278 18.0095 53.0097C18.3136 53.8916 18.7963 54.7019 19.4277 55.3905C20.0592 56.0792 20.8258 56.6315 21.6803 57.0132C22.5347 57.395 23.4588 57.598 24.3953 57.6099C27.6057 57.6099 31.1355 55.3736 31.1355 50.2607V29.8118C31.177 28.9048 31.0334 27.9988 30.7135 27.1485C30.3935 26.2982 29.9037 25.5214 29.2738 24.8648C28.6438 24.2082 27.8868 23.6855 27.0483 23.3283C26.2098 22.9712 25.3073 22.7868 24.3953 22.7866C22.6175 22.8143 20.9204 23.5297 19.6632 24.7813C18.406 26.0329 17.6874 27.7225 17.6596 29.4923Z" fill="#E37400"/>
<path d="M6.74022 57.6114C10.4627 57.6114 13.4804 54.6071 13.4804 50.9011C13.4804 47.1951 10.4627 44.1908 6.74022 44.1908C3.0177 44.1908 0 47.1951 0 50.9011C0 54.6071 3.0177 57.6114 6.74022 57.6114Z" fill="#E37400"/>
</svg>
