<svg width="274" height="43" viewBox="0 0 274 43" fill="none" xmlns="http://www.w3.org/2000/svg">
<path d="M34.2277 0.0727698C30.3575 0.0727698 27.2339 1.40168 24.9254 5.02804C23.4356 1.79672 20.2024 0.0727698 16.1917 0.0727698C12.9602 0.0727698 9.19613 1.65291 7.59836 4.56197V1.43807C7.59836 1.15219 7.35005 0.900959 7.06577 0.900959H0.532587C0.248312 0.897494 0 1.14872 0 1.4346V30.1024C0 30.39 0.248312 30.6395 0.532587 30.6395H7.42026C7.70454 30.6395 7.95285 30.39 7.95285 30.1024V13.2198C7.95285 9.9504 9.97703 7.36361 13.4568 7.36361C17.0428 7.36361 18.6406 9.77194 18.6406 12.9686V30.0678C18.6406 30.3554 18.8889 30.6049 19.1731 30.6049H25.9889C26.2749 30.6049 26.5232 30.3554 26.5232 30.0678V13.1835C26.5232 9.98678 28.5474 7.32722 31.9553 7.32722C35.6132 7.32722 37.139 9.73556 37.139 12.9322V30.0331C37.139 30.319 37.3873 30.5702 37.6716 30.5702H44.3109C44.5952 30.5702 44.8437 30.319 44.8437 30.0331V11.3504C44.8795 3.37513 39.6598 0.0710372 34.2277 0.0710372V0.0727698ZM64.6212 25.1108C60.7509 25.1108 57.0571 26.6909 55.7436 28.8827C58.2301 30.6066 61.2476 31.5405 64.6212 31.5405C67.9589 31.5405 71.0122 30.5702 73.4971 28.8827C72.1836 26.6909 68.3493 25.1108 64.6212 25.1108ZM98.1742 0C90.6478 0 83.7241 6.1785 83.7241 15.6628C83.7241 25.6843 90.8242 31.5405 98.8849 31.5405C105.666 31.5405 110.211 27.7322 111.951 23.0264C112.057 22.7388 111.915 22.4166 111.595 22.3091L105.844 20.7636C105.594 20.6926 105.348 20.7983 105.24 21.0513C104.175 23.2066 102.187 24.6793 98.9209 24.6793C94.9787 24.6793 91.677 21.8413 91.4989 17.9256H112.021C112.306 17.9256 112.518 17.7108 112.554 17.4232C112.588 16.9554 112.626 16.1653 112.626 15.448C112.696 5.85623 107.264 0 98.1742 0ZM91.7129 12.3934C91.8893 9.66278 94.1618 6.53715 98.2804 6.53715C102.187 6.53715 104.743 9.44794 104.85 12.3934H91.7129Z" fill="#00237C"/>
<path d="M64.6212 0C55.8515 0 49.2104 6.57354 49.2104 15.7702C49.2104 19.757 50.4896 23.314 52.6542 26.0083C54.4301 24.3917 57.093 22.8826 60.2184 22.2727C58.4785 20.9074 57.3071 18.6447 57.3071 15.4826C57.3071 9.98678 60.7852 7.50741 64.5852 7.50741C68.3836 7.50741 71.8633 10.0232 71.8633 15.4826C71.8633 18.6447 70.692 20.9057 68.9864 22.2727C72.1117 22.8826 74.7746 24.3917 76.5505 25.9719C78.7168 23.2777 79.9944 19.757 79.9944 15.7339C80.0303 6.57354 73.4251 0 64.6212 0ZM259.478 0C251.952 0 245.028 6.1785 245.028 15.6628C245.028 25.6843 252.128 31.5405 260.189 31.5405C267.006 31.5405 271.515 27.7322 273.255 23.0264C273.361 22.7388 273.183 22.4166 272.899 22.3091L267.147 20.7636C266.898 20.6926 266.65 20.7983 266.544 21.0513C265.479 23.2066 263.49 24.6793 260.223 24.6793C256.282 24.6793 252.981 21.8413 252.803 17.9256H273.397C273.68 17.9256 273.894 17.7108 273.93 17.4232C273.964 16.9554 274 16.1653 274 15.448C274 5.85623 268.568 0 259.478 0ZM253.051 12.3934C253.229 9.66278 255.502 6.53715 259.62 6.53715C263.526 6.53715 266.081 9.44794 266.189 12.3934H253.051ZM240.481 0.897494H233.878C233.594 0.897494 233.345 1.14872 233.345 1.43634V4.41816C232.35 2.40833 229.687 0.358651 225.002 0.358651C216.941 0.358651 211.331 7.00496 211.331 14.8728C211.331 23.2066 217.19 29.3124 225.002 29.3124C229.227 29.3124 231.996 27.4446 233.203 25.5058V27.6958C233.203 33.4446 230.398 35.9604 225.392 35.9604C221.841 35.9604 219.356 33.8397 218.645 30.8578C218.575 30.5702 218.291 30.39 218.006 30.4628L211.829 32.1157C211.545 32.1868 211.403 32.4744 211.437 32.7256C212.502 38.1868 217.794 43 225.641 43C236.683 43 241.05 35.5636 241.05 27.4099V1.43807C241.014 1.14872 240.801 0.897494 240.481 0.897494ZM226.386 22.4166C222.267 22.4166 219.32 19.5058 219.32 14.8728C219.32 10.2744 222.409 7.36361 226.386 7.36361C230.22 7.36361 233.309 10.2744 233.309 14.8728C233.309 19.4711 230.434 22.4166 226.386 22.4166ZM132.544 0.107422C129.383 0.107422 125.869 1.50911 124.057 4.59836V1.43634C124.057 1.15046 123.809 0.899226 123.526 0.899226H116.885C116.601 0.899226 116.354 1.15046 116.354 1.43634V30.1042C116.354 30.3918 116.601 30.6413 116.885 30.6413H123.774C124.057 30.6413 124.305 30.3918 124.305 30.1042V13.5438C124.305 10.0959 126.329 7.36361 129.809 7.36361C133.645 7.36361 135.241 9.9504 135.241 13.2909V30.1042C135.241 30.3918 135.491 30.6413 135.774 30.6413H142.663C142.948 30.6413 143.194 30.3918 143.194 30.1042V11.8909C143.194 5.38843 139.858 0.109155 132.542 0.109155L132.544 0.107422ZM194.502 0C186.762 0 182.537 4.95701 181.933 9.55536C181.897 9.69917 182.005 9.80659 182.147 9.84298L188.68 11.2447C188.822 11.2793 188.962 11.1719 188.998 11.0281C189.353 8.55045 191.235 6.46611 194.573 6.46611C197.91 6.46611 199.544 8.22645 199.544 10.3472C199.544 11.3867 199.011 12.2132 197.343 12.4662L190.099 13.5438C185.2 14.2611 181.33 17.243 181.33 22.5604C181.33 27.2298 185.164 31.5041 191.413 31.5041C195.746 31.5041 198.515 29.4943 200.041 27.1587V30.1042C200.041 30.3918 200.289 30.6413 200.573 30.6413H206.788C207.07 30.6413 207.32 30.3918 207.32 30.1042V11.314C207.284 5.31739 203.841 0 194.502 0ZM199.544 18.6083C199.544 23.8529 196.455 25.5041 193.083 25.5041C190.526 25.5041 189.247 23.8165 189.247 22.0562C189.247 19.757 190.844 18.6083 192.905 18.3207L199.544 17.2794V18.6083ZM176.572 0.897494H169.967C169.683 0.897494 169.436 1.14872 169.436 1.43634V4.41816C168.441 2.40833 165.741 0.358651 161.09 0.358651C153.029 0.358651 147.419 7.00496 147.419 14.8728C147.419 23.2066 153.279 29.3124 161.09 29.3124C165.314 29.3124 168.084 27.4446 169.293 25.5058V27.6958C169.293 33.4446 166.486 35.9604 161.48 35.9604C157.93 35.9604 155.444 33.8397 154.733 30.8578C154.664 30.5702 154.378 30.39 154.094 30.4628L147.917 32.1157C147.633 32.1868 147.489 32.4744 147.527 32.7256C148.592 38.1868 153.88 43 161.729 43C172.771 43 177.138 35.5636 177.138 27.4099V1.43807C177.103 1.14872 176.855 0.897494 176.571 0.897494H176.572ZM162.475 22.4166C158.357 22.4166 155.409 19.5058 155.409 14.8728C155.409 10.2744 158.499 7.36361 162.475 7.36361C166.311 7.36361 169.399 10.2744 169.399 14.8728C169.399 19.4711 166.523 22.4166 162.475 22.4166Z" fill="#00237C"/>
</svg>
