<svg width="212" height="49" viewBox="0 0 212 49" fill="none" xmlns="http://www.w3.org/2000/svg">
<path d="M28.8125 0L41.0538 6.80444V39.0148L28.8125 49V0ZM13.2647 4.26787L23.1444 7.24733V38.2901L13.2647 42.6787V4.26787ZM99.8203 15.9441C105.961 15.9441 109.306 19.1652 109.306 24.5201V39.0148H104.426L104.386 36.1159C102.812 38.4511 100.253 39.5785 97.4979 39.5785C93.5225 39.5785 90.6884 36.9211 90.6884 33.0961C90.6884 28.9088 93.2863 26.4528 98.482 25.6072L104.189 24.6812V24.3188C104.189 21.903 102.457 20.6146 99.4267 20.6146C96.5533 20.6146 94.0735 21.8628 91.948 23.8357V18.6417C93.9161 17.0312 96.5926 15.9441 99.8203 15.9441ZM160.83 15.9441C167.286 15.9441 171.419 20.8965 171.419 27.5801C171.419 28.3049 171.419 28.7477 171.261 29.4322H154.926C155.32 32.5727 157.839 35.0288 161.972 35.0288C164.766 35.0288 167.443 34.0222 170.12 32.009V37.1627H170.159C167.876 38.6122 164.924 39.5785 161.657 39.5785C154.375 39.5785 149.77 34.5053 149.77 27.7009C149.73 20.9367 154.336 15.9441 160.83 15.9441ZM181.101 9.13968V16.4675H186.927V20.977H181.101V31.083C181.101 33.6196 182.164 34.7067 184.526 34.7067C185.392 34.7067 186.258 34.5053 186.927 34.0222V38.7732C186.061 39.2966 184.762 39.6187 182.991 39.6187C178.543 39.6187 175.945 36.8406 175.945 32.1298V21.0173H172.048L181.101 9.13968ZM200.27 15.9039C207.001 15.9039 212 21.0978 212 27.7412C212 34.3846 207.001 39.5785 200.27 39.5785C193.5 39.5785 188.541 34.3846 188.541 27.7412C188.501 21.138 193.5 15.9039 200.27 15.9039ZM125.641 15.9844C126.192 15.9844 126.547 16.0247 126.625 16.1454V21.6212C126.429 21.4601 125.956 21.4199 125.287 21.4199C121.469 21.4199 119.147 24.4396 119.147 29.1101V39.055H113.99V16.4675H119.107V20.3328C120.17 17.7157 122.807 15.9844 125.641 15.9844ZM60.3802 6.80444L70.9684 24.3188L81.3992 6.80444H86.831V39.0148H81.6353V15.3402L70.811 33.1364L60.0653 15.5012V39.0148H54.8303V6.80444H60.3802ZM135.127 24.963L143.433 16.4273H149.809L140.244 26.2514L150.518 39.0148H144.141L136.269 28.9893L135.127 30.0362V38.9745H129.971V6.76417H135.127V24.963ZM0.0393517 9.38126L7.55735 10.6294V35.1898L0 37.2432L0.0393517 9.38126ZM104.268 28.788L99.3479 29.6335C96.9469 30.0362 95.7661 31.083 95.7661 32.7338C95.8054 34.304 97.065 35.2703 98.7969 35.2703C102.025 35.2703 104.268 33.1364 104.268 30.0362V28.788ZM200.231 20.8159C196.57 20.8159 193.697 23.9162 193.697 27.7814C193.697 31.6467 196.57 34.7469 200.231 34.7469C203.931 34.7469 206.765 31.6467 206.765 27.7814C206.765 23.8759 203.892 20.8159 200.231 20.8159ZM160.712 20.2523C157.563 20.2523 155.28 22.7486 154.926 25.4462H166.302C165.987 22.3862 163.822 20.2523 160.712 20.2523Z" fill="#5C4C9F"/>
</svg>
