<svg width="162" height="51" viewBox="0 0 162 51" fill="none" xmlns="http://www.w3.org/2000/svg">
<path d="M105.147 43.343C103.49 48.3754 98.7186 51 93.5642 51C84.9683 51 80.234 45.5893 80.234 37.2635C80.234 29.6618 85.5531 23.7622 93.4203 23.7622C98.4656 23.7622 102.873 26.17 104.875 30.9118L100.615 32.7038C99.4844 29.7909 96.8457 27.7637 93.6385 27.7637C87.9922 27.7637 85.6622 32.5608 85.6622 37.4457C85.6622 42.3305 88.2126 46.8924 93.7661 46.8924C97.282 46.8924 99.8302 44.7752 101.032 41.5901L105.149 43.3453L105.147 43.343Z" fill="black"/>
<path d="M118.584 24.1404C123.919 24.1404 128.619 26.0962 128.619 32.1042C128.619 35.8866 126.342 38.3313 122.717 39.2169L130.22 50.6379H124.648L117.709 39.9596H114.103V50.6379H108.93V24.1404H118.584ZM118.438 36.4124C121.406 36.4124 123.592 35.2892 123.592 32.1226C123.592 28.956 121.262 28.0681 118.438 28.0681H114.103V36.4124H118.438Z" fill="black"/>
<path d="M140.292 24.1404L147.978 43.4514L155.609 24.1404H162V50.6379H157.229V30.439L148.832 50.6379H146.537L138.415 30.439V50.6379H133.752V24.1404H140.292Z" fill="black"/>
<path d="M81.6056 15.7546L90.1853 3.43413H82.4735V1.00326H94.2233V2.21408L85.8525 14.5345H93.982V16.9654H81.6079V15.7546H81.6056Z" fill="black"/>
<path d="M101.55 5.03704C105.114 5.03704 107.858 7.52327 107.858 11.0981C107.858 14.6729 104.973 17.1822 101.429 17.1822C97.8854 17.1822 94.9776 14.719 94.9776 11.1534C94.9776 7.58784 98.0154 5.03704 101.55 5.03704ZM104.841 11.1211C104.841 8.97395 103.743 7.18654 101.441 7.18654C99.1386 7.18654 98.1268 9.06159 98.1268 11.1996C98.1268 13.3375 99.2338 15.0373 101.506 15.0373C103.778 15.0373 104.841 13.1623 104.841 11.1235V11.1211Z" fill="black"/>
<path d="M112.585 0V7.14042C113.341 5.68973 114.889 5.03704 116.512 5.03704C119.32 5.03704 120.724 6.99973 120.724 9.65893V16.9631H117.892V9.93108C117.892 8.25207 117.015 7.33645 115.379 7.33645C113.58 7.33645 112.583 8.43658 112.583 10.1064V16.9631H109.774V0H112.585Z" fill="black"/>
<path d="M128.988 5.03704C132.552 5.03704 135.295 7.52327 135.295 11.0981C135.295 14.6729 132.411 17.1822 128.867 17.1822C125.323 17.1822 122.415 14.719 122.415 11.1534C122.415 7.58784 125.453 5.03704 128.988 5.03704ZM132.279 11.1211C132.279 8.97395 131.181 7.18654 128.879 7.18654C126.577 7.18654 125.565 9.06159 125.565 11.1996C125.565 13.3375 126.672 15.0373 128.944 15.0373C131.216 15.0373 132.279 13.1623 132.279 11.1235V11.1211Z" fill="black"/>
<path d="M46.1287 46.8463C40.5148 46.8463 35.2259 44.6853 31.2366 40.7622L19.5773 29.1751C18.2197 27.8259 17.4747 26.0316 17.4817 24.1243C17.4886 22.2169 18.2429 20.4272 19.6075 19.0872C22.397 16.3473 26.9247 16.3611 29.698 19.1172L40.3756 29.7287C41.6265 30.9718 43.6664 30.9764 44.9219 29.7402C45.5369 29.1359 45.8757 28.331 45.878 27.4708C45.8803 26.6128 45.5462 25.8033 44.9335 25.1967L33.2904 13.6258C30.0368 10.4269 25.7156 8.6649 21.1345 8.67874C16.4606 8.69027 12.0976 10.5146 8.84858 13.8149C5.59493 17.1199 3.85439 21.4997 3.94722 26.1469C4.13055 35.3976 11.8586 42.9255 21.1739 42.9255C22.8402 42.9255 24.4856 42.6903 26.066 42.2267C27.1103 41.92 28.208 42.5127 28.5144 43.5505C28.823 44.5884 28.2266 45.6793 27.1823 45.986C25.2398 46.5557 23.2185 46.8463 21.1739 46.8463C9.72582 46.8463 0.22942 37.5956 0.00431021 26.2253C-0.109405 20.5172 2.0303 15.1365 6.0289 11.075C10.0252 7.01587 15.3861 4.77181 21.1252 4.76028C26.7297 4.74644 32.0651 6.90747 36.0683 10.8444L47.723 22.4268C49.0806 23.7783 49.8279 25.5726 49.8233 27.4823C49.8186 29.3919 49.0621 31.184 47.6975 32.5262C44.9033 35.2731 40.3686 35.2616 37.5884 32.4986L26.9108 21.8871C25.6645 20.6486 23.6339 20.644 22.3807 21.8733C21.768 22.4752 21.4292 23.2778 21.4269 24.1358C21.4246 24.9915 21.7588 25.7987 22.3668 26.4029L34.0145 37.9807C37.2565 41.1681 41.5615 42.9278 46.1287 42.9278C55.6204 42.9278 63.3507 35.2546 63.36 25.8217C63.3647 21.2506 61.5731 16.947 58.3148 13.7042C55.0565 10.4615 50.7283 8.67643 46.1287 8.67643C44.662 8.67643 43.2069 8.85863 41.8005 9.22073C41.5963 9.27378 41.3921 9.32913 41.1902 9.38909C40.1458 9.69814 39.0481 9.10772 38.7372 8.07218C38.4262 7.03432 39.0203 5.94343 40.0623 5.63438C40.3106 5.56058 40.5613 5.49139 40.8119 5.42681C42.5385 4.98399 44.3278 4.75797 46.1263 4.75797C51.7796 4.75797 57.0987 6.9513 61.102 10.9343C65.1052 14.9174 67.3076 20.2058 67.3006 25.824C67.289 37.4157 57.788 46.844 46.1263 46.844L46.1287 46.8463Z" fill="#006EB9"/>
</svg>
