<svg width="286" height="61" viewBox="0 0 286 61" fill="none" xmlns="http://www.w3.org/2000/svg">
<path d="M73.7413 1.53339C66.1623 1.53339 63.4454 6.85232 63.4454 11.8837V14.9505H61.92C60.7284 14.9505 59.775 15.861 59.775 17.1068C59.775 18.3527 60.6807 19.2632 61.92 19.2632H63.4454V40.2993C63.4454 41.4972 64.351 42.5994 65.7333 42.5994C67.1157 42.5994 68.0213 41.6889 68.0213 40.2993V19.1194H72.8833C74.075 19.1194 75.0283 18.209 75.0283 16.9631C75.0283 15.7651 74.1226 14.8068 72.8833 14.8068H68.0213V11.74C68.0213 9.00864 69.07 5.65437 73.932 5.65437C75.1236 5.65437 76.077 4.74392 76.077 3.68971C75.8863 2.44384 74.933 1.53339 73.7413 1.53339Z" fill="#4D4D4D"/>
<path d="M91.0442 14.1838C87.9936 14.0401 85.2766 15.3818 83.4653 17.8256V16.6277C83.4653 15.4297 82.5596 14.3276 81.1773 14.3276C79.795 14.3276 78.8893 15.3818 78.8893 16.6277V40.1076C78.8893 41.3056 79.795 42.4077 81.1773 42.4077C82.5596 42.4077 83.4653 41.4973 83.4653 40.1076V27.1218C83.4653 21.6112 86.3253 18.4486 91.0442 18.4486C92.2359 18.4486 93.1892 17.5381 93.1892 16.2922C93.1416 15.0943 92.0929 14.1838 91.0442 14.1838Z" fill="#4D4D4D"/>
<path d="M117.88 25.7801C117.88 23.1925 117.118 20.6049 115.735 18.4485C113.59 15.5734 110.111 13.8963 106.488 14.1838C98.7662 14.1838 94.3332 19.359 94.3332 28.3676C94.3332 37.6638 98.7185 42.6952 107.06 42.6952C110.397 42.839 113.733 41.641 116.307 39.3409C116.784 39.0534 117.07 38.4305 117.07 37.8075C117.07 36.7533 116.164 35.8429 115.116 35.8429C114.639 35.8429 114.21 35.9866 113.924 36.3221C112.113 37.8555 109.682 38.7659 107.251 38.7659C102.246 38.7659 99.0522 35.4116 98.9092 30.0927H115.306C117.88 29.7573 117.88 27.3134 117.88 25.7801ZM106.679 18.161C111.207 18.161 113.495 20.7486 113.638 25.7801H98.9092C99.3859 20.8924 102.103 18.161 106.679 18.161Z" fill="#4D4D4D"/>
<path d="M132.752 26.1155C129.416 24.9175 126.699 23.9591 126.699 21.5632C126.699 18.8319 129.749 18.4965 131.418 18.4965C133.706 18.3527 135.946 19.2631 137.471 20.7965C138.234 21.5632 139.616 21.5632 140.331 20.7965C140.808 20.3174 140.951 19.8861 140.951 19.2632C140.951 18.784 140.808 18.3527 140.474 17.8735C138.186 15.2859 134.85 13.7526 131.513 14.0401C125.888 14.0401 122.409 16.9152 122.409 21.3716C122.409 26.8822 127.271 28.5593 131.513 30.0448C134.707 31.099 137.567 32.0094 137.567 34.4532C137.567 37.6638 133.944 38.2867 131.799 38.2867C129.225 38.4305 126.651 37.3763 124.84 35.5554C124.363 35.0762 123.934 34.9324 123.314 34.7887C122.266 34.7887 121.36 35.6991 121.36 36.7533C121.36 37.2325 121.503 37.6638 121.837 38.143C124.411 41.2097 128.033 42.6952 131.847 42.6952C138.234 42.6952 142 39.6284 142 34.7408C141.714 29.1343 136.995 27.6009 132.752 26.1155Z" fill="#4D4D4D"/>
<path d="M159.017 14.0401C156.3 13.8963 153.535 15.0943 151.724 17.2506V2.30009C151.724 1.10213 150.818 0 149.436 0C148.244 0 147.291 0.910456 147.291 2.30009V40.1076C147.291 41.3056 148.196 42.4077 149.436 42.4077C150.627 42.4077 151.724 41.4972 151.724 40.1076V25.9238C151.724 20.7486 154.155 18.161 159.017 18.161C163.879 18.161 165.547 20.3174 165.547 25.4925V40.1555C165.547 41.3535 166.453 42.4556 167.835 42.4556C169.027 42.4556 169.98 41.5452 169.98 40.1555V24.7258C169.932 17.7298 166.31 14.0401 159.017 14.0401Z" fill="#4D4D4D"/>
<path d="M185.996 26.1155C182.659 24.9175 179.942 23.9591 179.942 21.5632C179.942 18.8319 182.993 18.4965 184.661 18.4965C186.949 18.3527 189.189 19.2631 190.715 20.7965C191.191 21.2757 191.62 21.4195 192.24 21.4195C193.289 21.4195 194.194 20.509 194.194 19.4548C194.194 18.9756 194.051 18.5444 193.718 18.0652C191.43 15.4776 188.093 13.9442 184.756 14.2317C179.132 14.2317 175.652 17.1068 175.652 21.5632C175.652 27.0738 180.514 28.751 184.756 30.2364C187.95 31.2906 190.81 32.2011 190.81 34.6449C190.81 37.8555 187.187 38.4784 185.042 38.4784C182.468 38.6222 179.894 37.5679 178.083 35.747C177.606 35.2679 177.177 35.1241 176.558 34.9804C175.509 34.9804 174.604 35.8908 174.604 36.945C174.604 37.4242 174.747 37.8554 175.08 38.3346C177.654 41.2097 181.277 42.7431 185.233 42.5994C191.62 42.5994 195.386 39.5326 195.386 34.6449C194.957 29.1343 190.095 27.6009 185.996 26.1155Z" fill="#4D4D4D"/>
<path d="M210.449 14.0401C204.538 14.0401 201.63 16.9152 200.582 18.784C200.439 19.0715 200.296 19.5507 200.296 19.9819C200.296 21.0361 201.201 21.9466 202.25 21.9466C203.013 21.9466 203.632 21.6591 204.061 21.0361C205.587 19.0715 208.018 17.9694 210.449 18.3048C214.405 18.3048 216.836 20.6049 216.836 24.2467V25.4446H209.114C202.727 25.4446 198.627 28.6551 198.627 33.9741C198.627 39.293 202.441 42.5035 208.923 42.5035C211.974 42.6473 214.834 41.4493 216.836 39.1493V40.0597C216.836 41.2577 217.742 42.216 218.981 42.216C220.173 42.216 221.126 41.3056 221.126 40.0597V24.2467C221.078 18.0173 216.979 14.0401 210.449 14.0401ZM209.4 38.4305C206.54 38.4305 203.203 37.6638 203.203 33.8782C203.203 30.0448 207.017 29.326 209.114 29.326H216.836V31.4823C216.836 36.3221 212.88 38.6222 209.4 38.4305Z" fill="#4D4D4D"/>
<path d="M233.662 38.143C232.757 38.143 231.708 37.8555 231.708 35.2679V2.30009C231.708 1.10213 230.802 0 229.563 0C228.371 0 227.418 1.05421 227.418 2.30009V35.2679C227.418 39.8201 229.706 42.4556 233.805 42.4556C234.997 42.4556 235.95 41.5452 235.95 40.2993C235.76 39.0534 234.854 38.143 233.662 38.143Z" fill="#4D4D4D"/>
<path d="M261.738 25.7801C261.738 23.1925 260.975 20.6049 259.593 18.4485C257.448 15.5734 253.968 13.8963 250.346 14.1838C242.624 14.1838 238.191 19.359 238.191 28.3676C238.191 37.6638 242.576 42.6952 250.918 42.6952C254.254 42.839 257.591 41.641 260.165 39.3409C260.641 39.0534 260.927 38.4305 260.927 37.8075C260.927 36.7533 260.022 35.8429 258.973 35.8429C258.496 35.8429 258.067 35.9866 257.781 36.3221C255.97 37.8555 253.539 38.7659 251.108 38.7659C246.103 38.7659 242.91 35.4116 242.767 30.0927H259.164C261.738 29.7573 261.738 27.3134 261.738 25.7801ZM250.346 18.161C254.874 18.161 257.162 20.7486 257.305 25.7801H242.624C243.053 20.8924 245.817 18.161 250.346 18.161Z" fill="#4D4D4D"/>
<path d="M276.61 26.1155C273.273 24.9175 270.556 23.9591 270.556 21.5632C270.556 18.8319 273.607 18.4965 275.275 18.4965C277.563 18.3527 279.803 19.2631 281.329 20.7965C281.805 21.2757 282.234 21.4195 282.854 21.4195C283.903 21.4195 284.808 20.509 284.808 19.4548C284.808 18.9756 284.665 18.5444 284.332 18.0652C282.044 15.4776 278.707 13.9442 275.37 14.2317C269.746 14.2317 266.266 17.1068 266.266 21.5632C266.266 27.0738 271.128 28.751 275.37 30.2364C278.564 31.2906 281.424 32.2011 281.424 34.6449C281.424 37.8555 277.801 38.4784 275.656 38.4784C273.082 38.6222 270.508 37.5679 268.697 35.747C268.22 35.2679 267.791 35.1241 267.172 34.9804C266.123 34.9804 265.217 35.8908 265.217 36.945C265.217 37.4242 265.36 37.8554 265.694 38.3346C268.268 41.2097 271.938 42.7431 275.847 42.5994C282.234 42.5994 286 39.5326 286 34.6449C285.523 29.1343 280.852 27.6009 276.61 26.1155Z" fill="#4D4D4D"/>
<path d="M45.1891 9.00865C48.8118 9.00865 51.7194 11.8837 51.7194 15.5734V35.0762C51.7194 49.4038 40.1841 61 25.9319 61H25.7889C11.5366 61 0.00131532 49.4038 0.00131532 35.0762C-0.141684 20.7486 11.3936 9.1524 25.6459 9.00865H45.1891Z" fill="#FFA800"/>
<path d="M26.1225 21.9945C28.9825 21.9945 31.2705 24.2946 31.2705 27.1697C31.2705 30.0448 28.9825 32.3448 26.1225 32.3448C23.2625 32.3448 20.9746 30.0448 20.9746 27.1697C20.9269 24.2946 23.2625 21.9945 26.1225 21.9945Z" fill="white"/>
<path d="M14.7302 34.022L23.6915 43.0306V48.0621H28.0769V43.0306L37.0381 34.022H14.7302Z" fill="white"/>
</svg>
