<svg width="154" height="45" viewBox="0 0 154 45" fill="none" xmlns="http://www.w3.org/2000/svg">
<path d="M0 8.38962H5.36983V20.4122H16.6951V8.38962H22.0719V37.9014H16.6951V25.6263H5.36983V37.9014H0V8.38962ZM39.0835 28.2889C39.0835 30.7594 37.0862 32.7698 34.6353 32.7698C32.1835 32.7698 30.1874 30.7594 30.1874 28.2889V15.5831H25.0949V28.2889C25.0949 33.5897 29.3749 37.9014 34.6353 37.9014C39.8944 37.9014 44.1742 33.5897 44.1742 28.2889V15.5831H39.0835V28.2889ZM58.3904 15.7319C55.8643 15.7319 54.1011 16.4707 52.3983 18.1551V8.38962H47.2892V26.4878C47.2892 33.262 52.1495 37.9014 57.6099 37.9014C63.6803 37.9014 68.9989 33.1793 68.9989 26.817C68.9989 20.5353 64.0945 15.7319 58.3904 15.7319ZM58.5174 33.1384C55.0555 33.1384 52.4082 30.2247 52.4082 26.817C52.4082 23.4086 55.0555 20.4941 58.5174 20.4941C61.4507 20.4941 64.0996 23.4086 64.0996 26.817C64.0996 30.2247 61.4507 33.1384 58.5174 33.1384ZM77.5798 17.029C77.5798 14.4409 79.291 13.6204 81.1644 13.6204C82.6726 13.6204 84.6684 14.7698 85.9708 16.166L89.3106 12.2251C87.6414 9.9674 84.2608 8.4069 81.4904 8.4069C75.9495 8.4069 71.957 11.6504 71.957 17.029C71.957 27.0049 84.1384 23.8427 84.1384 29.4275C84.1384 31.1499 82.4686 32.6703 80.555 32.6703C77.5392 32.6703 76.561 31.1923 75.1764 29.6318L71.4685 33.4903C73.8328 36.4055 76.7649 37.8841 80.2689 37.8841C85.5238 37.8841 89.7609 34.5997 89.7609 29.4672C89.7609 18.3831 77.5798 21.8321 77.5798 17.029ZM103.211 15.4428C97.7509 15.4428 92.8901 20.0794 92.8901 26.8552V45H97.9988V35.1881C99.7019 36.8714 101.464 37.6113 103.991 37.6113C109.695 37.6113 114.6 32.8086 114.6 26.5269C114.6 20.1637 109.28 15.4428 103.211 15.4428ZM104.119 32.8498C100.657 32.8498 98.0093 29.9322 98.0093 26.5269C98.0093 23.1185 100.657 20.204 104.119 20.204C107.051 20.204 109.7 23.1185 109.7 26.5269C109.7 29.9322 107.051 32.8498 104.119 32.8498ZM152.206 33.1384C149.193 33.1384 148.337 31.8252 148.337 29.8128V20.9045H153.021V16.3891H148.337V10.4357L143.165 12.7753V30.9213C143.165 35.561 146.341 37.9014 150.698 37.9014C151.35 37.9014 152.248 37.859 152.737 37.7374L154 33.0577C153.43 33.0974 152.778 33.1384 152.206 33.1384Z" fill="#45535E"/>
<path d="M138.733 21.167C137.754 19.4689 136.376 18.1075 134.654 17.0827C133.367 16.3276 132.032 15.8483 130.528 15.6425V10.2469C132.032 9.60334 132.965 8.17895 132.965 6.51721C132.965 4.25225 131.163 2.41683 128.917 2.41683C126.67 2.41683 124.836 4.25225 124.836 6.51721C124.836 8.17895 125.715 9.60334 127.219 10.2469V15.645C126.016 15.8202 124.768 16.1982 123.629 16.7789C121.302 14.9978 113.67 9.15441 109.206 5.74151C109.312 5.35685 109.394 4.96036 109.394 4.54204C109.394 2.03337 107.378 0 104.887 0C102.397 0 100.382 2.03337 100.382 4.54204C100.382 7.05041 102.399 9.08439 104.889 9.08439C105.739 9.08439 106.525 8.83401 107.203 8.42236L108.145 9.14259L121.09 18.5419C120.405 19.1752 119.768 19.8954 119.258 20.7035C118.225 22.351 117.594 24.1637 117.594 26.141V26.5536C117.594 27.9416 117.855 29.252 118.301 30.483C118.694 31.5579 119.268 32.5351 119.978 33.4188L115.682 37.7589C115.059 37.5254 114.383 37.4775 113.734 37.6209C113.085 37.7643 112.491 38.093 112.023 38.5677C111.698 38.893 111.441 39.2799 111.266 39.706C111.091 40.1322 111.002 40.5891 111.003 41.0503C111.004 41.9878 111.366 42.869 112.024 43.532C112.347 43.8591 112.731 44.1185 113.154 44.2951C113.576 44.4717 114.03 44.562 114.487 44.5608C114.945 44.5619 115.399 44.4716 115.821 44.295C116.244 44.1184 116.628 43.8591 116.951 43.532C117.275 43.2067 117.532 42.8199 117.707 42.3939C117.882 41.968 117.972 41.5113 117.971 41.0503C117.971 40.6874 117.915 40.3334 117.81 39.9969L122.251 35.5212C122.86 35.945 123.518 36.3018 124.224 36.6095C125.619 37.2169 127.157 37.587 128.842 37.587H129.15C131.012 37.587 132.769 37.1463 134.42 36.2448C136.159 35.2921 137.521 33.9892 138.55 32.326C139.584 30.6582 140.153 28.8155 140.153 26.7882V26.6869C140.153 24.6927 139.695 22.8527 138.733 21.167ZM133.307 30.5557C132.102 31.9056 130.716 32.737 129.15 32.737H128.892C127.998 32.737 127.123 32.4879 126.266 32.0347C125.3 31.5357 124.566 30.824 123.966 29.9228C123.345 29.0383 123.008 28.0725 123.008 27.0486V26.7376C123.008 25.7309 123.2 24.7763 123.683 23.8748C124.199 22.8894 124.897 22.1231 125.824 21.5138C126.735 20.9087 127.708 20.612 128.791 20.612H128.892C129.875 20.612 130.805 20.8072 131.682 21.2598C132.577 21.7423 133.307 22.4016 133.874 23.2689C134.424 24.1364 134.751 25.0722 134.856 26.0916C134.873 26.3035 134.881 26.5205 134.881 26.7279C134.881 28.1113 134.357 29.3926 133.307 30.5557Z" fill="#F8761F"/>
</svg>
