<svg width="175" height="47" viewBox="0 0 175 47" fill="none" xmlns="http://www.w3.org/2000/svg">
<path d="M33.0744 22.2093C33.4151 22.1683 33.7414 22.1665 34.0412 22.2093C34.2148 21.8085 34.2446 21.1174 34.0885 20.3649C33.8566 19.2463 33.5425 18.5694 32.8934 18.6748C32.2444 18.7802 32.2205 19.5905 32.4525 20.7091C32.583 21.3382 32.8155 21.8761 33.0744 22.2093Z" fill="#000008"/>
<path d="M27.5069 23.0954C27.9712 23.3006 28.2566 23.4365 28.3684 23.3176C28.4402 23.2434 28.4187 23.1021 28.3078 22.9197C28.0788 22.5429 27.6073 22.1607 27.1072 21.9462C26.0841 21.5029 24.8645 21.6502 23.9234 22.3312C23.6127 22.5605 23.3181 22.8782 23.3604 23.0709C23.3739 23.1333 23.4205 23.1803 23.5295 23.1956C23.7856 23.225 24.6807 22.7693 25.7116 22.7059C26.4397 22.6609 27.0427 22.8902 27.5069 23.0954Z" fill="#000008"/>
<path d="M26.5727 23.631C25.9681 23.7272 25.6343 23.928 25.4202 24.1148C25.2373 24.2758 25.1245 24.4534 25.1254 24.5786C25.1259 24.638 25.1515 24.6723 25.1716 24.6894C25.1993 24.714 25.232 24.7275 25.2711 24.7275C25.4077 24.7275 25.7138 24.604 25.7138 24.604C26.5554 24.3006 27.1106 24.3373 27.6609 24.4004C27.9648 24.4347 28.1084 24.4538 28.1752 24.3487C28.1949 24.3187 28.219 24.2535 28.1579 24.1541C28.0163 23.9227 27.4056 23.5314 26.5727 23.631Z" fill="#000008"/>
<path d="M31.1975 25.602C31.6082 25.8052 32.0603 25.7254 32.2075 25.4237C32.3546 25.1222 32.1411 24.713 31.7303 24.5098C31.3196 24.3066 30.8675 24.3863 30.7204 24.6878C30.5732 24.9895 30.7868 25.3988 31.1975 25.602Z" fill="#000008"/>
<path d="M33.836 23.2784C33.5026 23.2728 33.2256 23.6417 33.218 24.1024C33.2104 24.5631 33.4744 24.9412 33.808 24.9469C34.1417 24.9525 34.4184 24.5836 34.4262 24.123C34.4339 23.6621 34.1698 23.2841 33.836 23.2784Z" fill="#000008"/>
<path d="M11.0772 31.5447C10.985 31.5663 10.8806 31.5909 10.7662 31.5887C10.5208 31.5841 10.3129 31.4785 10.1963 31.2979C10.0443 31.0629 10.0531 30.7126 10.2208 30.3111C10.2435 30.2572 10.2701 30.1972 10.299 30.1317C10.5667 29.5271 11.0145 28.5153 10.5116 27.551C10.1333 26.8253 9.51611 26.3734 8.77415 26.2785C8.06168 26.1876 7.3283 26.4536 6.86059 26.9735C6.12254 27.7934 6.00721 28.9091 6.14991 29.3033C6.20223 29.4478 6.28395 29.4877 6.34345 29.496C6.46899 29.513 6.65473 29.421 6.77092 29.1058C6.77934 29.0832 6.79041 29.048 6.80437 29.0034C6.85615 28.8366 6.95253 28.5266 7.11074 28.2779C7.30132 27.9779 7.5981 27.7715 7.94666 27.6963C8.30169 27.6198 8.66436 27.6878 8.96808 27.8882C9.48507 28.229 9.68415 28.867 9.46347 29.4758C9.34931 29.7905 9.16396 30.3925 9.2049 30.887C9.28756 31.8883 9.89898 32.2903 10.4482 32.3329C10.9824 32.3532 11.3557 32.0515 11.45 31.8306C11.5059 31.7001 11.4588 31.6205 11.4287 31.5866C11.3456 31.4818 11.2091 31.5137 11.0772 31.5447Z" fill="#000008"/>
<path d="M25.1808 32.8411L25.1815 32.8421L25.1824 32.8443L25.1808 32.8411ZM42.3329 33.0327C41.9918 35.1146 41.1131 36.8042 39.6363 38.3586C38.7375 39.3331 37.6461 40.1804 36.3974 40.7965C35.7343 41.1473 35.0282 41.4508 34.2824 41.696C28.7154 43.5272 23.017 41.5141 21.1797 37.1909C21.0333 36.8659 20.9094 36.5257 20.8117 36.1698C20.0288 33.3209 20.6934 29.9031 22.7708 27.7517L22.7706 27.7506C22.8988 27.6135 23.0293 27.4522 23.0293 27.2492C23.0293 27.0794 22.9222 26.9003 22.8294 26.7733C22.1026 25.7115 19.5851 23.9025 20.0904 20.4014C20.4533 17.8863 22.6374 16.1151 24.6738 16.2202C24.8458 16.229 25.0181 16.2397 25.1899 16.25C26.0722 16.3025 26.8422 16.4163 27.5686 16.4471C28.7844 16.5 29.8779 16.3219 31.1727 15.2353C31.6097 14.8687 31.9597 14.5509 32.5524 14.4498C32.6145 14.4392 32.7697 14.3833 33.0794 14.3978C33.3954 14.4149 33.6963 14.5023 33.9668 14.6836C35.0051 15.3794 35.1524 17.0643 35.2061 18.2969C35.2367 19.0005 35.3211 20.703 35.3501 21.1916C35.4161 22.3092 35.7077 22.4667 36.2979 22.6624C36.6297 22.7722 36.9377 22.8544 37.3917 22.9826C38.7659 23.3713 39.5808 23.7655 40.0943 24.2719C40.4006 24.5883 40.5429 24.9246 40.587 25.2452C40.7492 26.4357 39.6691 27.9065 36.8106 29.2427C33.6859 30.7034 29.8951 31.0731 27.276 30.7794C27.0751 30.7568 26.3608 30.6753 26.3583 30.675C24.2633 30.3908 23.0681 33.1177 24.3254 34.9857C25.1358 36.1897 27.3431 36.9733 29.5517 36.9736C34.6153 36.9745 38.5074 34.7967 39.9548 32.9159C39.9983 32.8597 40.0026 32.8535 40.0708 32.7497C40.142 32.6415 40.0833 32.5821 39.9945 32.6431C38.8117 33.4581 33.5579 36.6942 27.9383 35.7207C27.9383 35.7207 27.2555 35.6077 26.632 35.3633C26.1366 35.1693 25.1001 34.6892 24.974 33.6179C29.5092 35.0303 32.3647 33.6951 32.3647 33.6951C32.4163 33.6732 32.4519 33.6137 32.4459 33.5549C32.4386 33.4824 32.3744 33.4297 32.3025 33.4371C32.3025 33.4371 28.5849 33.9914 25.073 32.6965C25.4554 31.4443 26.4726 31.8966 28.0101 32.0214C30.7811 32.1878 33.2649 31.78 35.1002 31.2496C36.6908 30.7897 38.7799 29.8834 40.4024 28.5938C40.9497 29.8045 41.1431 31.1369 41.1431 31.1369C41.1431 31.1369 41.5666 31.0605 41.9206 31.2801C42.2552 31.4873 42.5006 31.9183 42.3329 33.0327ZM16.5049 13.199C18.2468 11.1717 20.3915 9.40911 22.3124 8.4194C22.3788 8.38524 22.4493 8.45788 22.4133 8.52369C22.2608 8.80192 21.967 9.39741 21.874 9.84951C21.8595 9.91979 21.9356 9.97288 21.9946 9.93244C23.1897 9.1118 25.2686 8.23273 27.0922 8.11981C27.1706 8.11494 27.2084 8.21616 27.1461 8.26423C26.8689 8.47838 26.5656 8.77498 26.344 9.07473C26.3063 9.12585 26.3419 9.19936 26.4049 9.19975C27.6854 9.20894 29.4906 9.66033 30.6671 10.3246C30.7467 10.3698 30.6899 10.5249 30.6009 10.5044C28.8208 10.0936 25.9068 9.78189 22.8801 10.5253C20.1779 11.1892 18.1154 12.214 16.6106 13.3161C16.5348 13.3718 16.4433 13.2706 16.5049 13.199ZM7.4547 22.8406C5.87745 23.1493 4.48743 24.0496 3.6374 25.2932C3.12922 24.8665 2.18258 24.0403 2.01547 23.7184C0.658279 21.1231 3.4965 16.0773 5.47938 13.2278C10.3794 6.18546 18.054 0.855156 21.6069 1.82217C22.1842 1.98669 24.0972 4.22056 24.0972 4.22056C24.0972 4.22056 20.5458 6.20485 17.2526 8.97099C12.8149 12.412 9.46277 17.4134 7.4547 22.8406ZM10.1051 34.7497C9.8663 34.7907 9.62278 34.807 9.37723 34.8012C7.00399 34.737 4.44065 32.5854 4.18597 30.0336C3.9044 27.2132 5.33528 25.0424 7.86899 24.5279C8.17186 24.4663 8.53796 24.4309 8.9326 24.4516C10.3523 24.5298 12.444 25.6278 12.9221 28.742C13.3453 31.5002 12.6729 34.3088 10.1051 34.7497ZM42.2528 29.7554C42.2324 29.6831 42.0998 29.1954 41.9179 28.6079C41.7359 28.0205 41.5475 27.6069 41.5475 27.6069C42.2776 26.5063 42.2904 25.522 42.1934 24.9649C42.0899 24.2737 41.8043 23.6849 41.2284 23.0763C40.6529 22.4676 39.4754 21.8443 37.8208 21.3765C37.6315 21.3229 37.0074 21.1504 36.9526 21.1337C36.9483 21.0976 36.9069 19.0722 36.8691 18.2029C36.8418 17.5743 36.7883 16.5933 36.4859 15.6266C36.1256 14.3187 35.4979 13.174 34.7145 12.4417C36.8767 10.1845 38.2263 7.69787 38.2231 5.56483C38.217 1.46251 33.2145 0.221262 27.0497 2.79202C27.0431 2.79493 25.7528 3.34597 25.7435 3.3506C25.7377 3.34487 23.382 1.01724 23.3467 0.986144C16.3179 -5.18812 -5.65796 19.4121 1.36795 25.3869L2.90363 26.6969C2.50525 27.736 2.34883 28.9266 2.47671 30.2066C2.64062 31.8511 3.48293 33.4273 4.84792 34.6453C6.14382 35.8015 7.84763 36.5332 9.50098 36.532C12.2351 42.8774 18.4824 46.7702 25.8074 46.9895C33.6647 47.2245 40.2604 43.5114 43.0242 36.8413C43.2049 36.3732 43.972 34.264 43.972 32.4021C43.972 30.5308 42.9216 29.7554 42.2528 29.7554Z" fill="#000008"/>
<path d="M69.2153 26.0566C65.5184 26.0566 65.4536 30.1202 64.5803 30.1202C64.3978 30.1202 64.2528 29.9577 64.2528 29.7359C64.2528 29.4388 64.3292 29.1811 64.3292 28.7018C64.3292 27.2432 63.31 26.0566 61.1719 26.0566C59.3574 26.0566 58.0294 26.9719 57.2185 28.665C56.8075 29.5233 56.8426 30.1202 56.4278 30.1202C56.2742 30.1202 56.1556 29.9737 56.1556 29.7632C56.1556 29.1419 56.7007 28.5724 56.7007 27.2372C56.7007 26.8898 56.6734 26.5967 56.6188 26.3585H53.102V40.0875H57.8727V32.6385C57.8727 31.1702 58.4973 30.2303 59.5632 30.2303C60.2697 30.2303 60.8998 30.8518 60.8998 31.991V40.0875H65.6704V32.6385C65.6704 30.9901 66.4284 30.2303 67.361 30.2303C68.1423 30.2303 68.6967 30.9587 68.6967 31.991V40.0875H73.4136V31.6578C73.4136 27.974 71.9616 26.0566 69.2153 26.0566Z" fill="#000008"/>
<path d="M101.848 22.5144H97.1311V40.0875H101.848V22.5144Z" fill="#000008"/>
<path d="M103.404 33.0582C103.404 37.7291 106.404 40.4168 110.301 40.4168C112.536 40.4168 114.243 39.5268 115.29 38.6595V34.1291C114.231 34.8597 112.599 35.6941 110.847 35.6941C108.662 35.6941 107.52 34.7799 107.52 33.1956C107.52 31.6844 108.836 30.7244 110.765 30.7244C112.511 30.7244 114.114 31.4244 115.29 32.2346V27.4294C114.295 26.6827 112.536 26.029 110.301 26.029C106.12 26.029 103.404 28.6627 103.404 33.0582Z" fill="#000008"/>
<path d="M125.678 26.0832C123.76 26.0832 122.648 26.9782 121.834 28.6368C121.474 29.3681 121.448 30.092 121.043 30.092C120.89 30.092 120.771 29.9504 120.771 29.7351C120.771 28.9745 121.67 27.839 121.67 24.4906C121.67 23.649 121.588 22.9988 121.425 22.5411H117.308V40.0866H122.079V32.698C122.079 31.3139 122.802 30.2568 123.905 30.2568C124.727 30.2568 125.296 30.9294 125.296 32.0176V40.0866H130.067V31.4924C130.067 27.9058 128.515 26.0832 125.678 26.0832Z" fill="#000008"/>
<path d="M168.184 37.2044C167.221 37.2044 166.167 36.1991 166.167 33.6622C166.167 31.4528 167.028 30.1476 168.184 30.1476C169.514 30.1476 170.256 31.4368 170.256 33.6622C170.256 36.1345 169.401 37.2044 168.184 37.2044ZM169.465 26.029C167.357 26.029 166.28 27.2387 165.677 28.3577C165.201 29.243 165.132 30.0928 164.722 30.0928C164.521 30.0928 164.422 29.9739 164.422 29.7358C164.422 29.3154 164.967 28.6016 164.967 27.4294C164.967 26.9537 164.93 26.5966 164.857 26.3585H161.286V43.602H166.085V38.1861C166.694 39.4961 167.968 40.362 169.711 40.362C172.853 40.362 175 37.7511 175 33.1956C175 28.9928 173.01 26.029 169.465 26.029Z" fill="#000008"/>
<path d="M80.3372 36.9979C79.4521 36.9979 78.9757 36.6079 78.9757 35.9286C78.9757 35.0429 79.8022 34.3655 81.9435 34.3655C82.4153 34.3655 82.8426 34.3816 83.2293 34.4136C83.0406 35.6772 81.9466 36.9979 80.3372 36.9979ZM81.9435 26.029C79.4786 26.029 77.2227 26.6428 75.6538 27.4276V31.4039C77.4793 30.4109 79.3508 29.6761 80.9906 29.6761C82.7482 29.6761 83.4921 30.6095 83.3876 31.8376C82.678 31.7635 81.8912 31.7329 80.936 31.7329C77.2048 31.7329 74.8647 33.2001 74.8647 36.3948C74.8647 39.0186 76.8929 40.371 79.1121 40.371C81.2768 40.371 82.7669 39.3286 83.6301 37.7565C84.1214 36.8612 84.0793 36.3124 84.3998 36.3124C84.5565 36.3124 84.6665 36.4253 84.6665 36.6014C84.6665 37.1746 84.5035 37.51 84.5035 38.2869C84.5035 39.0136 84.5978 39.6256 84.7483 40.0693H88.1793V32.7201C88.1793 28.5453 86.2837 26.029 81.9435 26.029Z" fill="#000008"/>
<path d="M98.955 13.4185V5.71577H95.6706V13.0241C95.6706 14.8345 94.4674 16.0462 92.8868 16.0462C91.3008 16.0462 90.103 14.8345 90.103 13.0241V5.71577H86.8241L86.842 13.4185C86.842 16.773 89.5081 19.225 92.8962 19.225C96.2835 19.225 98.955 16.7779 98.955 13.4185Z" fill="#000008"/>
<path d="M111.633 18.9588H114.912V8.80922H118.824V5.71577H107.717V8.80922H111.633V18.9588Z" fill="#000008"/>
<path d="M105.601 5.72127H102.322V18.9645H105.601V5.72127Z" fill="#000008"/>
<path d="M77.5089 18.9588H80.7879V8.80922H84.6992V5.71577H73.5921V8.80922H77.5089V18.9588Z" fill="#000008"/>
<path d="M56.381 5.72127H53.102V18.9645H56.381V5.72127Z" fill="#000008"/>
<path d="M63.0262 11.6511C63.0262 9.84063 64.2294 8.62884 65.81 8.62884C67.3906 8.62884 68.5938 9.84063 68.5938 11.6511V18.959H71.8727L71.8634 11.2565C71.8634 7.90173 69.1926 5.44979 65.8053 5.44979C62.4172 5.44979 59.7465 7.8971 59.7465 11.2565V18.959H63.0262V11.6511Z" fill="#000008"/>
<path d="M155.096 26.0566C151.399 26.0566 151.335 30.1202 150.461 30.1202C150.278 30.1202 150.134 29.9577 150.134 29.7359C150.134 29.4388 150.21 29.1811 150.21 28.7018C150.21 27.2432 149.191 26.0566 147.053 26.0566C145.238 26.0566 143.91 26.9719 143.1 28.665C142.689 29.5233 142.724 30.1202 142.309 30.1202C142.155 30.1202 142.036 29.9737 142.036 29.7632C142.036 29.1419 142.582 28.5724 142.582 27.2372C142.582 26.8898 142.554 26.5967 142.5 26.3585H138.982V40.0875H143.754V32.6385C143.754 31.1702 144.378 30.2303 145.444 30.2303C146.151 30.2303 146.78 30.8518 146.78 31.991V40.0875H151.551V32.6385C151.551 30.9901 152.309 30.2303 153.242 30.2303C154.023 30.2303 154.578 30.9587 154.578 31.991V40.0875H159.295V31.6578C159.295 27.974 157.843 26.0566 155.096 26.0566Z" fill="#000008"/>
<path d="M134.461 27.3196C133.462 27.3196 132.671 27.1734 132.089 26.8802V40.0875H136.806V26.8802C136.194 27.1509 135.465 27.3196 134.461 27.3196Z" fill="#000008"/>
<path d="M134.432 22.4317C132.483 22.4317 131.461 23.3 131.461 24.2987C131.461 25.3739 132.668 26.166 134.432 26.166C136.195 26.166 137.404 25.3739 137.404 24.2987C137.404 23.3 136.382 22.4317 134.432 22.4317Z" fill="#000008"/>
<path d="M92.6755 27.3196C91.6758 27.3196 90.8851 27.1734 90.3034 26.8802V40.0875H95.0203V26.8802C94.4081 27.1509 93.6791 27.3196 92.6755 27.3196Z" fill="#000008"/>
<path d="M92.6467 22.4317C90.6972 22.4317 89.6749 23.3 89.6749 24.2987C89.6749 25.3739 90.8828 26.166 92.6467 26.166C94.4105 26.166 95.6184 25.3739 95.6184 24.2987C95.6184 23.3 94.5961 22.4317 92.6467 22.4317Z" fill="#000008"/>
</svg>
