<svg width="231" height="65" viewBox="0 0 231 65" fill="none" xmlns="http://www.w3.org/2000/svg">
<g clip-path="url(#clip0_8002_671)">
<path opacity="0.25" d="M49.854 26.6845L26.835 49.8613L38.431 61.5369L61.4501 38.3601L49.854 26.6845Z" fill="#59C1A7"/>
<path opacity="0.25" d="M38.2899 3.32887L26.6938 15.0044L49.7129 38.1812L61.309 26.5057L38.2899 3.32887Z" fill="#36C3F2"/>
<path opacity="0.15" d="M14.9139 26.7102L3.31787 38.3857L26.3369 61.5625L37.933 49.887L14.9139 26.7102Z" fill="#EF3D55"/>
<path opacity="0.15" d="M26.8828 2.77536L3.86377 25.9521L15.4598 37.6277L38.4789 14.4509L26.8828 2.77536Z" fill="#6A266D"/>
<path d="M32.34 17.3128C36.9024 17.3128 40.601 13.5889 40.601 8.99527C40.601 4.40162 36.9024 0.677734 32.34 0.677734C27.7776 0.677734 24.0791 4.40162 24.0791 8.99527C24.0791 13.5889 27.7776 17.3128 32.34 17.3128Z" fill="#6A266D"/>
<path d="M55.6545 40.8792C60.2169 40.8792 63.9154 37.1553 63.9154 32.5617C63.9154 27.968 60.2169 24.2441 55.6545 24.2441C51.0921 24.2441 47.3936 27.968 47.3936 32.5617C47.3936 37.1553 51.0921 40.8792 55.6545 40.8792Z" fill="#36C3F2"/>
<path d="M32.34 64.3533C36.9024 64.3533 40.601 60.6294 40.601 56.0358C40.601 51.4421 36.9024 47.7183 32.34 47.7183C27.7776 47.7183 24.0791 51.4421 24.0791 56.0358C24.0791 60.6294 27.7776 64.3533 32.34 64.3533Z" fill="#59C1A7"/>
<path d="M9.02606 40.7869C13.5884 40.7869 17.287 37.063 17.287 32.4694C17.287 27.8757 13.5884 24.1519 9.02606 24.1519C4.46368 24.1519 0.765137 27.8757 0.765137 32.4694C0.765137 37.063 4.46368 40.7869 9.02606 40.7869Z" fill="#EF3D55"/>
<path d="M135.877 22.7036H125.811C125.627 22.7036 125.474 22.8576 125.474 23.0425V40.879C125.474 41.0638 125.627 41.2178 125.811 41.2178H135.877C136.06 41.2178 136.213 41.0638 136.213 40.879V38.0448C136.213 37.86 136.06 37.706 135.877 37.706H129.727C129.36 37.706 129.084 37.4287 129.084 37.0591V34.1325C129.084 33.7629 129.36 33.4856 129.727 33.4856H135.357C135.54 33.4856 135.693 33.3316 135.693 33.1467V30.5899C135.693 30.405 135.54 30.251 135.357 30.251H129.727C129.36 30.251 129.084 29.9738 129.084 29.6041V26.8932C129.084 26.5235 129.36 26.2463 129.727 26.2463H135.877C136.06 26.2463 136.213 26.0922 136.213 25.9074V23.0733C136.213 22.8576 136.06 22.7036 135.877 22.7036Z" fill="#333332"/>
<path d="M177.671 41.2179C177.793 41.2179 177.885 41.1563 177.946 41.0638C178.007 40.9714 178.007 40.8482 177.977 40.7558L170.878 22.8885C170.817 22.7653 170.695 22.6729 170.572 22.6729H168.767C168.645 22.6729 168.522 22.7653 168.461 22.8885L161.363 40.725C161.332 40.8174 161.332 40.9406 161.393 41.033C161.455 41.1255 161.577 41.1871 161.669 41.1871H164.912C165.065 41.1871 165.157 41.0947 165.218 40.9714L166.105 38.507C166.197 38.2605 166.442 38.0757 166.717 38.0757H172.683C172.959 38.0757 173.204 38.2605 173.295 38.507L174.152 40.9714C174.213 41.0947 174.305 41.1871 174.458 41.1871L177.671 41.2179ZM171.613 34.6563C171.49 34.8411 171.307 34.9335 171.092 34.9335H168.308C168.094 34.9335 167.91 34.8411 167.788 34.6563C167.666 34.4714 167.635 34.2558 167.696 34.071L169.073 30.1586C169.195 29.8198 169.563 29.6349 169.899 29.7582C170.083 29.8198 170.236 29.9738 170.297 30.1586L171.674 34.071C171.766 34.2558 171.735 34.4714 171.613 34.6563Z" fill="#333332"/>
<path d="M212.795 41.2178C212.979 41.2178 213.132 41.0638 213.132 40.879V38.0448C213.132 37.86 212.979 37.706 212.795 37.706H207.563C207.196 37.706 206.921 37.4287 206.921 37.0591V23.0425C206.921 22.8576 206.768 22.7036 206.584 22.7036H203.647C203.464 22.7036 203.311 22.8576 203.311 23.0425V40.879C203.311 41.0638 203.464 41.2178 203.647 41.2178H212.795Z" fill="#333332"/>
<path d="M184.219 41.218H191.164C192.235 41.2488 193.306 41.0024 194.254 40.4787C195.08 40.0166 195.754 39.3389 196.212 38.5379C196.641 37.7678 196.886 36.8744 196.886 35.981C196.947 34.0403 195.845 32.2536 194.101 31.391C194.04 31.3602 194.01 31.2986 194.01 31.237V31.1446L194.071 31.0521C195.111 30.1896 195.692 28.8957 195.662 27.5403C195.662 26.6777 195.448 25.846 195.05 25.1066C194.621 24.3365 193.979 23.7204 193.214 23.3507C192.266 22.8886 191.225 22.6422 190.154 22.673H184.249C184.035 22.673 183.882 22.827 183.882 23.0427V40.8483C183.852 41.064 184.035 41.218 184.219 41.218ZM187.493 26.7701C187.493 26.4621 187.737 26.2156 188.043 26.2156H189.634C190.246 26.1848 190.858 26.3697 191.317 26.7701C191.654 27.0782 191.868 27.4787 191.929 27.9408C192.021 28.5877 191.776 29.2038 191.317 29.6659C190.858 30.0972 190.216 30.3128 189.604 30.282H188.013C187.707 30.282 187.462 30.0355 187.462 29.7275L187.493 26.7701ZM187.493 33.8555C187.493 33.5474 187.737 33.301 188.043 33.301H190.491C191.134 33.2701 191.776 33.4858 192.266 33.9479C192.725 34.3483 192.969 34.9028 192.969 35.519C192.969 36.1351 192.725 36.7204 192.296 37.1209C191.807 37.5829 191.164 37.7986 190.491 37.7678H188.074C187.768 37.7678 187.493 37.4905 187.493 37.1825V33.8555Z" fill="#333332"/>
<path d="M152.797 34.8103C152.613 34.5022 152.735 34.1326 153.011 33.9477C153.806 33.4548 154.479 32.8079 154.938 31.9762C155.489 31.0212 155.795 29.9122 155.764 28.7724C155.764 27.725 155.489 26.7084 155 25.7842C154.479 24.8601 153.715 24.0591 152.797 23.5354C151.787 22.9501 150.655 22.6729 149.492 22.6729H143.893C143.71 22.6729 143.557 22.8269 143.557 23.0117V40.8482C143.557 41.033 143.71 41.1871 143.893 41.1871H146.83C147.014 41.1871 147.167 41.033 147.167 40.8482V35.4572C147.167 35.0875 147.442 34.8103 147.809 34.8103H148.697C148.942 34.8103 149.156 34.9335 149.278 35.1492L152.307 41.0022C152.368 41.1255 152.491 41.1871 152.613 41.1871H155.948C156.132 41.1871 156.285 41.0638 156.315 40.879C156.315 40.8174 156.315 40.7558 156.254 40.6942L152.797 34.8103ZM151.297 30.6515C150.747 31.1444 150.012 31.3909 149.278 31.3601H147.809C147.442 31.3601 147.167 31.0828 147.167 30.7131V26.8624C147.167 26.4928 147.442 26.2155 147.809 26.2155H149.278C150.012 26.1847 150.747 26.462 151.297 26.9548C152.307 27.9406 152.338 29.5733 151.359 30.5899C151.328 30.5899 151.297 30.6207 151.297 30.6515Z" fill="#333332"/>
<path d="M118.743 22.7036H107.147C106.964 22.7036 106.811 22.8576 106.811 23.0425V25.8766C106.811 26.0614 106.964 26.2155 107.147 26.2155H110.543C110.91 26.2155 111.186 26.4927 111.186 26.8624V40.9098C111.186 41.0946 111.339 41.2486 111.522 41.2486H114.49C114.674 41.2486 114.827 41.0946 114.827 40.9098V26.8316C114.827 26.4619 115.102 26.1847 115.469 26.1847H118.743C118.927 26.1847 119.08 26.0306 119.08 25.8458V23.0117C119.08 22.8576 118.927 22.7036 118.743 22.7036Z" fill="#333332"/>
<path d="M229.929 37.7059H223.779C223.412 37.7059 223.137 37.4287 223.137 37.059V34.1325C223.137 33.7628 223.412 33.4856 223.779 33.4856H229.409C229.592 33.4856 229.745 33.3315 229.745 33.1467V30.5898C229.745 30.405 229.592 30.251 229.409 30.251H223.779C223.412 30.251 223.137 29.9737 223.137 29.604V26.8931C223.137 26.5235 223.412 26.2462 223.779 26.2462H229.929C230.113 26.2462 230.266 26.0922 230.266 25.9074V23.0732C230.266 22.8884 230.113 22.7344 229.929 22.7344H219.863C219.679 22.7344 219.526 22.8884 219.526 23.0732V40.9097C219.526 41.0946 219.679 41.2486 219.863 41.2486H229.96C230.143 41.2486 230.296 41.0946 230.296 40.9097V38.0756C230.266 37.86 230.113 37.7059 229.929 37.7059Z" fill="#333332"/>
<path d="M99.9571 37.6752H97.0505C96.6833 37.6752 96.408 37.398 96.408 37.0283V26.8316C96.408 26.462 96.6833 26.1847 97.0505 26.1847H99.9877C100.171 26.1847 100.324 26.0307 100.324 25.8458V23.0117C100.324 22.8269 100.171 22.6729 99.9877 22.6729H89.0343C88.8507 22.6729 88.6978 22.8269 88.6978 23.0117V25.8766C88.6978 26.0615 88.8507 26.2155 89.0343 26.2155H92.1245C92.4917 26.2155 92.767 26.4928 92.767 26.8624V37.0899C92.767 37.4288 92.4611 37.706 92.1245 37.706H89.0343C88.8507 37.706 88.6978 37.8601 88.6978 38.0449V40.879C88.6978 41.0638 88.8507 41.2179 89.0343 41.2179H93.0118C93.0424 41.2179 93.073 41.2487 93.1036 41.2487H96.0714C96.102 41.2487 96.1326 41.2487 96.1632 41.2179H99.9877C100.171 41.2179 100.324 41.0638 100.324 40.879V38.0449C100.294 37.8292 100.141 37.6752 99.9571 37.6752Z" fill="#333332"/>
</g>
<defs>
<clipPath id="clip0_8002_671">
<rect width="231" height="65" fill="white"/>
</clipPath>
</defs>
</svg>
