<svg width="222" height="45" viewBox="0 0 222 45" fill="none" xmlns="http://www.w3.org/2000/svg">
<path d="M23.0352 35.5261C31.3251 35.5261 37.7325 29.1639 37.7325 21.3158C37.7325 13.9631 31.7129 9.47389 27.7259 9.47389C22.174 9.47389 17.7236 13.4317 17.0896 19.3072C16.9722 20.3953 16.1235 21.3078 15.0465 21.3C13.2563 21.2869 10.6532 21.2714 9.00556 21.2772C8.29614 21.2797 7.70988 20.695 7.74483 19.9747C7.99332 14.8789 9.67074 10.1142 12.8691 6.45417C16.423 2.38722 21.5987 0 27.7259 0C38.0206 0 47.7392 9.5025 47.7392 21.3158C47.7392 34.3961 37.0706 45 23.2542 45C13.401 45 3.47714 38.4586 0.0122474 29.3133C-0.000215731 29.2795 -0.00323956 29.2427 0.00350942 29.2072C0.04993 28.9367 0.141406 28.6894 0.231517 28.4461C0.362587 28.0922 0.490926 27.7461 0.472358 27.3475L0.412284 26.0736C0.398482 25.7653 0.475361 25.4597 0.633099 25.1961C0.790836 24.9324 1.02227 24.7225 1.29783 24.5933L1.79862 24.3564C2.07919 24.2245 2.32456 24.026 2.51414 23.7777C2.70372 23.5293 2.83197 23.2384 2.88814 22.9292C3.05607 21.995 3.86325 21.3158 4.80559 21.3158C6.27739 21.3158 7.55696 22.31 8.03755 23.7233C10.3512 30.5261 14.0294 35.5261 23.0352 35.5261Z" fill="#FB6970"/>
<path d="M206.293 15.7181C204.457 15.7181 203.892 14.6058 203.892 13.35C203.892 12.0225 204.351 10.9819 206.293 10.9819C208.234 10.9819 208.693 12.0225 208.693 13.35C208.693 14.6056 208.199 15.7181 206.293 15.7181ZM172.782 31.1197V21.8992L170.2 21.8861V20.8128C170.2 19.6436 171.135 18.6975 172.286 18.7033L172.782 18.7061V14.795L176.912 13.6111V18.7056H180.654V19.7894C180.654 20.0666 180.6 20.341 180.496 20.5969C180.392 20.8529 180.239 21.0855 180.046 21.2814C179.853 21.4773 179.625 21.6326 179.373 21.7386C179.121 21.8445 178.851 21.899 178.579 21.8989H176.912V30.5814C176.912 31.9181 177.657 32.3875 178.617 32.5489C179.749 32.7389 180.69 33.5711 180.69 34.7358V36.3219C176.778 36.3219 172.782 36.1467 172.782 31.1197ZM91.2954 18.3083C87.1648 18.2006 82.0809 20.8556 82.0809 27.4933C82.0809 34.0231 87.1648 36.6064 91.2954 36.4989C95.532 36.6064 100.58 34.0231 100.58 27.4933C100.58 20.8556 95.532 18.2006 91.2954 18.3083ZM91.326 33.2397C88.325 33.2397 86.1959 31.0178 86.1959 27.3583C86.1959 23.8778 88.3264 21.5853 91.3273 21.5853C94.328 21.5853 96.4347 23.8733 96.4347 27.3533C96.4347 31.0131 94.3267 33.2397 91.3257 33.2397H91.326ZM111.43 18.3478C115.031 18.3478 118.774 19.3522 118.774 26.5281V36.1436H116.471C115.325 36.1436 114.396 35.1992 114.396 34.0342V26.1694C114.396 22.7611 113.16 21.4694 111.007 21.4694C109.806 21.4694 108.253 22.4022 107.511 23.1556V34.0344C107.511 34.3116 107.458 34.586 107.353 34.8419C107.249 35.0979 107.096 35.3305 106.903 35.5264C106.711 35.7223 106.482 35.8776 106.23 35.9836C105.978 36.0895 105.709 36.144 105.436 36.1439H103.346V18.7783H105.675C106.076 18.7782 106.466 18.9165 106.78 19.1706C107.095 19.4247 107.315 19.7796 107.406 20.1775C108.465 18.9936 109.842 18.3478 111.43 18.3478ZM123.495 18.7475C123.923 18.7474 124.34 18.8818 124.69 19.1324C125.04 19.3831 125.305 19.7376 125.449 20.1475L129.229 30.9103L133.009 20.1478C133.153 19.7379 133.419 19.3833 133.768 19.1327C134.118 18.8821 134.536 18.7476 134.964 18.7478H137.949L131.793 34.7708C131.641 35.1664 131.375 35.506 131.03 35.7454C130.685 35.9848 130.277 36.1129 129.859 36.1128H127.217L120.509 18.7475H123.495ZM154.271 35.2692C152.965 35.8072 150.315 36.5242 147.562 36.5242C142.725 36.5242 139.02 33.69 139.02 27.3036C139.02 21.5631 142.611 18.4936 146.989 18.4936C152.392 18.4936 154.697 22.1794 154.457 27.1969C154.407 28.2336 153.519 28.9897 152.498 28.9897H143.184C143.396 31.7883 145.408 33.2592 148.056 33.2592C149.095 33.2592 150.189 33.2056 151.498 32.9569C152.888 32.6931 154.271 33.6978 154.271 35.1339V35.2692ZM150.718 26.0478C151.002 23.3017 149.178 21.7947 146.989 21.7947C144.8 21.7947 143.324 23.4644 143.184 26.0475L150.718 26.0478ZM159.959 18.7836C160.342 18.7835 160.714 18.9143 161.015 19.1551C161.317 19.3959 161.53 19.7326 161.62 20.1114C163.032 19.0347 164.798 18.3531 166.033 18.3531C166.14 18.3531 166.81 18.3531 167.869 18.4967V20.3586C167.869 21.3594 167.018 22.1203 166.033 22.1203C164.904 22.1203 163.244 22.5508 161.938 23.3044V36.1489H157.737V18.7833L159.959 18.7836ZM208.411 33.9878V18.7319H206.321C205.174 18.7319 204.245 19.6764 204.245 20.8414V36.0969H206.335C207.482 36.0969 208.411 35.1525 208.411 33.9878ZM214.092 31.1564V21.9356H211.303V20.8517C211.303 19.6867 212.232 18.7422 213.379 18.7422H214.092V14.8317L218.222 13.6475V18.7422H221.965V19.8261C221.965 20.9911 221.036 21.9356 219.889 21.9356H218.222V30.6183C218.222 31.9547 218.968 32.4242 219.929 32.5856C221.059 32.7758 222 33.6078 222 34.7725V36.3586C218.089 36.3586 214.092 36.1836 214.092 31.1564ZM61.4382 23.9061C61.4644 15.7867 67.4893 11.2497 73.2708 11.2497C76.482 11.2497 79.4267 11.9531 81.8482 13.7108L80.8685 15.0767C80.2132 15.9906 78.9707 16.3536 77.9358 15.9378C76.4752 15.3508 75.0995 15.2269 74.0747 15.2269C69.3442 15.2269 65.7763 18.3158 65.7509 23.9058C65.7763 29.4956 69.3442 32.6292 74.0747 32.6292C75.0995 32.6292 76.4752 32.5053 77.9358 31.9183C78.9707 31.5025 80.2132 31.8217 80.8685 32.7353L81.8482 34.1014C79.4267 35.8592 76.4823 36.5625 73.2708 36.5625C67.4893 36.5625 61.4644 32.0253 61.4382 23.9061ZM185.812 11.3767C186.958 11.3767 187.887 12.3211 187.887 13.4861V23.1569L196.383 12.3075C196.576 12.0413 196.828 11.825 197.119 11.676C197.409 11.5269 197.729 11.4493 198.055 11.4494H201.828L192.223 23.7758L201.829 36.0972H198.054C197.729 36.0973 197.409 36.0197 197.118 35.8706C196.828 35.7216 196.576 35.5053 196.383 35.2392L187.887 24.3928V33.9878C187.887 35.1528 186.958 36.0972 185.812 36.0972H183.615V11.3767H185.812Z" fill="#212F4F"/>
</svg>
