<svg width="284" height="39" viewBox="0 0 284 39" fill="none" xmlns="http://www.w3.org/2000/svg">
<path fill-rule="evenodd" clip-rule="evenodd" d="M69.5447 34.1899C64.806 34.1899 61.5425 30.253 61.5425 25.128C61.5425 20.0031 64.806 16.0661 69.5447 16.0661C74.2833 16.0661 77.547 20.0031 77.547 25.128C77.547 30.253 74.334 34.1899 69.5447 34.1899ZM69.5447 11.7265C62.957 11.7265 56.9048 17.3448 56.9048 25.1079C56.9048 32.8709 62.9671 38.4892 69.5447 38.4892C76.1223 38.4892 82.1847 32.881 82.1847 25.1079C82.1847 17.3348 76.1223 11.7265 69.5447 11.7265Z" fill="#1E2423"/>
<path fill-rule="evenodd" clip-rule="evenodd" d="M116.416 11.7261C114.83 11.7216 113.266 12.1004 111.858 12.8298C110.45 13.5593 109.241 14.6177 108.333 15.9147H107.444C106.733 14.7198 105.743 13.7142 104.557 12.984C103.372 12.2538 102.026 11.8207 100.636 11.7217C99.2455 11.6228 97.8519 11.8609 96.574 12.4158C95.2962 12.9706 94.1723 13.8257 93.2986 14.9078H92.561L91.6618 11.9778H88.6306V38.1565H93.2683V23.2447C93.2683 18.4318 96.2186 15.7032 99.6337 15.7032C104.17 15.7032 104.797 20.4757 104.797 25.5505V38.1565H109.435V22.8821C109.586 18.2708 112.466 15.7032 115.8 15.7032C120.336 15.7032 120.963 20.4757 120.963 25.5505V38.1565H125.601V23.9596C125.601 16.7302 122.438 11.7059 116.386 11.7059" fill="#1E2423"/>
<path fill-rule="evenodd" clip-rule="evenodd" d="M145.577 11.7258C144.132 11.6664 142.691 11.9263 141.358 12.4868C140.025 13.0473 138.834 13.8946 137.868 14.968H137.241L136.302 11.9473H133.271V38.1259H137.878V23.2444C137.878 18.6431 141.03 15.7029 144.951 15.7029C150.134 15.7029 150.922 20.8883 150.922 25.5501V38.1561H155.529V23.9593C155.529 16.6796 152.236 11.7057 145.577 11.7057" fill="#1E2423"/>
<path d="M168.442 11.9886H163.835V38.1774H168.442V11.9886Z" fill="#1E2423"/>
<path d="M166.138 6.68218C167.85 6.68218 169.24 5.29828 169.24 3.5911C169.24 1.88394 167.85 0.5 166.138 0.5C164.425 0.5 163.037 1.88394 163.037 3.5911C163.037 5.29828 164.425 6.68218 166.138 6.68218Z" fill="#1E2423"/>
<path fill-rule="evenodd" clip-rule="evenodd" d="M185.678 22.7518C183.101 22.0671 180.626 21.2213 180.626 18.8148C180.626 16.6601 182.516 15.2908 184.941 15.2908C187.729 15.2908 189.791 17.083 189.791 19.0162H194.075C194.075 15.4015 190.861 11.5653 184.98 11.5653C180.141 11.5653 176.291 14.1933 176.291 18.8652C176.291 24.111 181.192 25.5306 184.769 26.4772C187.669 27.2625 190.245 28.0982 190.245 30.7764C190.245 33.4548 187.931 34.5523 185.455 34.5523C182.557 34.5523 179.767 32.8707 179.767 29.6186H175.504C175.504 34.4012 179.455 38.3381 185.506 38.3381C190.67 38.3381 194.6 35.4483 194.6 30.565C194.6 25.1582 189.699 23.7989 185.698 22.7518" fill="#1E2423"/>
<path fill-rule="evenodd" clip-rule="evenodd" d="M204.855 22.3288C205.693 18.1302 208.644 15.452 212.544 15.452C216.444 15.452 219.142 18.2912 219.769 22.3288H204.855ZM212.604 11.5653C206.017 11.5653 200.106 16.5997 200.106 24.7453C200.106 32.8909 206.017 38.3381 212.654 38.3381C215.089 38.3296 217.465 37.6016 219.483 36.2466C221.501 34.8916 223.069 32.9704 223.992 30.7261H219.142C218.453 31.8055 217.49 32.6843 216.351 33.2731C215.212 33.8619 213.937 34.14 212.654 34.079C208.118 34.079 205.067 31.0583 204.643 26.1548H224.568C225.094 16.2372 218.929 11.5653 212.604 11.5653Z" fill="#1E2423"/>
<path fill-rule="evenodd" clip-rule="evenodd" d="M243.393 11.7258C241.949 11.6658 240.51 11.9254 239.178 12.486C237.847 13.0466 236.657 13.8942 235.693 14.968H235.057L234.117 11.9473H231.086V38.1259H235.704V23.2444C235.704 18.6431 238.846 15.7029 242.776 15.7029C247.97 15.7029 248.748 20.8883 248.748 25.5501V38.1561H253.366V23.9593C253.366 16.6796 250.062 11.7057 243.402 11.7057" fill="#1E2423"/>
<path fill-rule="evenodd" clip-rule="evenodd" d="M271.996 34.1303C268.066 34.1303 264.136 30.7271 264.136 25.0686C264.136 19.4099 268.066 16.0067 271.996 16.0067C275.463 16.0067 279.544 18.6346 279.544 25.0686C279.544 31.5024 275.502 34.1303 271.996 34.1303ZM279.544 0.903571V15.8455C278.7 14.5262 277.528 13.4471 276.143 12.7131C274.756 11.9791 273.202 11.6152 271.633 11.657C264.975 11.657 259.508 17.2552 259.508 25.0182C259.508 32.7811 264.964 38.3794 271.633 38.3794C273.082 38.4222 274.521 38.1161 275.826 37.4868C277.13 36.8574 278.265 35.9236 279.129 34.7647H279.958L280.969 38.1176H284V0.903571H279.544Z" fill="#1E2423"/>
<path d="M31.0997 1.02418H6.51699C5.66165 1.02286 4.81443 1.18959 4.02382 1.51486C3.2332 1.84014 2.51469 2.31756 1.9094 2.91981C1.30411 3.52206 0.8239 4.23733 0.496266 5.02468C0.168633 5.81206 -1.03119e-06 6.65606 0 7.50845V32.0057C-1.03119e-06 32.858 0.168633 33.702 0.496266 34.4894C0.8239 35.2768 1.30411 35.992 1.9094 36.5942C2.51469 37.1966 3.2332 37.6739 4.02382 37.9992C4.81443 38.3245 5.66165 38.4912 6.51699 38.4899H17.7121V33.1232C17.7121 27.9479 17.0654 23.9808 13.2058 22.8331V18.5942C19.4802 19.158 22.5922 23.8096 22.5922 31.4519V38.5H31.0997C32.8255 38.5 34.4804 37.8168 35.7007 36.6008C36.9211 35.3847 37.6066 33.7355 37.6066 32.0157V7.50845C37.6066 5.78871 36.9211 4.13941 35.7007 2.92337C34.4804 1.70734 32.8255 1.02418 31.0997 1.02418ZM18.975 14.5566C18.2612 14.5585 17.5629 14.3494 16.9684 13.9557C16.3739 13.5619 15.9098 13.0012 15.6354 12.3446C15.3608 11.6879 15.2879 10.9649 15.4259 10.267C15.564 9.56901 15.9067 8.92758 16.4108 8.42387C16.9149 7.92015 17.5575 7.57683 18.2576 7.4373C18.9575 7.29779 19.6833 7.36837 20.3429 7.64014C21.0027 7.9119 21.5666 8.37263 21.9635 8.96396C22.3603 9.5553 22.572 10.2506 22.572 10.962C22.572 11.9136 22.1933 12.8264 21.5192 13.5002C20.8448 14.174 19.93 14.5539 18.975 14.5566Z" fill="#1E2423"/>
</svg>
