<svg width="248" height="55" viewBox="0 0 248 55" fill="none" xmlns="http://www.w3.org/2000/svg">
<path d="M20.4582 11.1149C15.6564 11.1149 12.8721 13.3296 11.5405 14.8061C11.3791 13.4937 10.5317 11.8121 7.22291 11.8121H0V19.4407H2.94566C3.42987 19.4407 3.59128 19.6048 3.59128 20.097V55H12.1458V40.9732C13.4774 42.2036 16.0195 43.9262 20.0143 43.9262C28.3671 43.9262 34.218 37.1999 34.218 27.5205C34.2584 17.7181 28.6899 11.1149 20.4582 11.1149ZM18.7231 36.3386C14.123 36.3386 12.0247 31.868 12.0247 27.6846C12.0247 21.1223 15.5353 18.7845 18.8441 18.7845C22.8793 18.7845 25.6232 22.3117 25.6232 27.6025C25.5828 33.6726 22.1126 36.3386 18.7231 36.3386Z" fill="#203232"/>
<path d="M45.7586 34.9851V16.4877C45.7586 13.3706 44.2656 11.8531 41.2392 11.8531H33.5725V19.4817H36.5181C37.0023 19.4817 37.1637 19.6458 37.1637 20.1379V38.5533C37.1637 41.7114 38.6164 43.1879 41.6831 43.1879H49.3499V35.6003H46.4042C45.9604 35.6413 45.7586 35.4362 45.7586 34.9851Z" fill="#203232"/>
<path d="M68.1133 11.1149C63.3114 11.1149 60.5272 13.3296 59.1553 14.8061C58.9938 13.4937 58.1465 11.8121 54.8377 11.8121H47.6551V19.4407H50.6007C51.085 19.4407 51.2464 19.6048 51.2464 20.097V55H59.8816V40.9732C61.2132 42.2036 63.7957 43.9262 67.7501 43.9262C76.1029 43.9262 81.9538 37.1999 81.9538 27.5205C81.9538 17.7181 76.3853 11.1149 68.1133 11.1149ZM66.3782 36.3386C61.7781 36.3386 59.6798 31.868 59.6798 27.6846C59.6798 21.1223 63.1904 18.7845 66.4992 18.7845C70.5344 18.7845 73.2783 22.3117 73.2783 27.6025C73.2783 33.6726 69.808 36.3386 66.3782 36.3386Z" fill="#203232"/>
<path d="M98.054 11.1149C88.8135 11.1149 82.3977 17.8822 82.3977 27.5205C82.3977 37.0358 89.3381 43.9262 98.9417 43.9262C106.487 43.9262 111.088 39.3736 111.289 39.2096L111.652 38.8814L107.94 32.6063L107.375 33.1395C107.335 33.1805 103.945 36.3386 99.4663 36.3386C95.1891 36.3386 92.0416 33.6726 91.275 29.4892H111.572L111.612 28.915C111.612 28.833 111.814 26.9873 111.814 26.085C111.814 17.1439 106.286 11.1149 98.054 11.1149ZM91.5978 23.009C92.5259 19.9329 94.8662 18.1693 98.054 18.1693C100.637 18.1693 102.614 20.179 102.977 23.009H91.5978Z" fill="#203232"/>
<path d="M142.965 34.985V4.67558C142.965 1.5585 141.472 0.040978 138.406 0.040978H130.739V7.66961H133.684C134.169 7.66961 134.33 7.83367 134.33 8.32584V13.8217C133.079 12.6733 130.618 11.1558 126.34 11.1558C118.028 11.1558 112.217 17.9231 112.217 27.5615C112.217 37.3639 117.786 43.9671 126.018 43.9671C130.739 43.9671 133.483 41.7524 134.814 40.1938C134.976 41.5473 135.863 43.2699 139.051 43.2699H146.476V35.6823H143.611C143.127 35.6413 142.965 35.4362 142.965 34.985ZM127.672 36.3385C123.597 36.3385 120.974 32.8933 120.974 27.5205C120.974 22.3117 123.718 18.8255 127.793 18.8255C132.434 18.8255 134.491 23.173 134.491 27.4794C134.491 34.0417 130.981 36.3385 127.672 36.3385Z" fill="#203232"/>
<path d="M165.562 11.4019C162.011 11.4019 158.702 13.4937 156.765 16.8158V16.1186C156.765 13.2886 155.232 11.8121 152.206 11.8121H144.862V19.4407H147.807C148.292 19.4407 148.453 19.6048 148.453 20.0969V43.1879H157.008V30.6376C157.008 28.997 157.209 27.3974 157.613 25.9209C158.904 21.5734 162.334 20.0559 165.078 20.0559C166.046 20.0559 166.773 20.179 166.773 20.179L167.499 20.302V11.648L166.974 11.566C166.974 11.525 166.248 11.4019 165.562 11.4019Z" fill="#203232"/>
<path d="M179.685 34.9851V16.4877C179.685 13.3706 178.192 11.8531 175.166 11.8531H168.225V19.4817H170.445C170.929 19.4817 171.09 19.6458 171.09 20.1379V38.5533C171.09 41.7114 172.543 43.1879 175.61 43.1879H183.276V35.6003H180.331C179.887 35.6413 179.685 35.4362 179.685 34.9851Z" fill="#203232"/>
<path d="M207.447 11.8531C204.784 11.8531 203.331 12.7964 202.484 15.0932L196.915 30.9247C196.713 31.4989 196.552 32.1551 196.391 32.8113C196.229 32.1961 196.027 31.4989 195.826 30.9247L190.257 15.0932C189.41 12.7554 188.038 11.8531 185.294 11.8531H180.452V19.4817H181.703C182.389 19.4817 182.59 19.7278 182.752 20.1379L191.387 43.2289H201.031L209.666 20.1379C209.828 19.7278 210.029 19.4817 210.715 19.4817H212.047V11.8531H207.447Z" fill="#203232"/>
<path d="M226.775 11.1148C217.535 11.1148 211.119 17.8822 211.119 27.5205C211.119 37.0358 218.059 43.9261 227.663 43.9261C235.209 43.9261 239.809 39.3736 240.01 39.2095L240.374 38.8814L236.661 32.6062L236.096 33.1394C236.056 33.1804 232.666 36.3385 228.228 36.3385C223.951 36.3385 220.803 33.6726 220.036 29.4892H240.333L240.374 28.915C240.374 28.8329 240.535 26.9873 240.535 26.085C240.535 17.1439 235.007 11.1148 226.775 11.1148ZM220.319 23.0089C221.247 19.9329 223.587 18.1693 226.775 18.1693C229.358 18.1693 231.335 20.179 231.698 23.0089H220.319Z" fill="#203232"/>
<path d="M45.1533 0H37.5269V8.16181H45.1533V0Z" fill="#203232"/>
<path d="M179.12 0H171.494V8.16181H179.12V0Z" fill="#203232"/>
<path d="M240.374 11.8531H241.503V14.9702H242.351V11.8531H243.481V11.1149H240.374V11.8531Z" fill="#203232"/>
<path d="M246.83 11.1149L245.982 13.7808L245.095 11.1149H243.924V14.9702H244.691V12.2633H244.732L245.66 14.9702H246.305L247.233 12.2633V14.9702H248V11.1149H246.83Z" fill="#203232"/>
</svg>
