<svg width="169" height="89" viewBox="0 0 169 89" fill="none" xmlns="http://www.w3.org/2000/svg">
<path d="M169 23.1021C169 10.4149 157.546 0 151.912 0C146.279 0 134.824 10.4149 134.824 23.1021C134.824 29.3511 136.702 34.8426 139.519 39.0085C140.458 41.0915 142.148 43.3638 143.65 45.6362C145.528 48.2872 147.406 50.9383 148.532 53.5894C147.593 53.9681 146.842 54.7255 146.467 55.6723C147.406 55.8617 148.344 56.0511 149.471 56.2404C152.288 56.6192 154.917 56.4298 156.419 55.8617C155.48 56.6191 152.663 56.9979 149.471 56.8085C148.344 56.8085 147.218 56.6191 146.279 56.4298C146.279 56.6191 146.279 56.8085 146.279 56.9979V61.7319C146.279 63.8149 147.969 64.383 150.034 64.383H155.292C157.358 64.383 159.048 63.8149 159.048 61.7319V56.9979C159.048 55.2936 157.733 53.7787 156.043 53.4C156.794 51.8851 157.546 50.3702 158.297 48.8553L159.611 46.2043C159.987 45.4468 160.738 43.9319 161.489 42.6064C165.808 38.6298 169 31.434 169 23.1021ZM158.297 45.8255L156.982 48.4766C156.231 49.9915 155.292 51.6957 154.729 53.4H152.476V46.3936H151.349V53.4H149.659C149.471 53.4 149.471 53.4 149.283 53.4C148.157 50.7489 146.279 47.9085 144.401 45.0681C143.838 44.3106 143.462 43.7426 142.899 42.9851C145.528 45.0681 148.532 46.3936 151.912 46.3936C154.541 46.3936 156.982 45.6362 159.236 44.1213C158.86 44.5 158.672 45.0681 158.297 45.8255ZM158.109 43.9319C158.109 43.9319 163.554 38.0617 165.057 29.7298C162.991 32.1915 159.611 33.8957 155.668 33.8957C149.471 33.8957 144.401 29.9191 144.401 24.9957C144.401 20.0723 149.471 16.0957 155.668 16.0957C159.611 16.0957 162.991 17.6106 165.057 20.0723C161.864 6.4383 147.03 3.02979 147.03 3.02979C147.03 3.02979 147.969 1.89362 150.034 1.32553C151.724 0.757447 152.476 0.946809 153.602 1.32553C154.917 1.70426 167.873 8.9 167.873 22.9128C167.686 36.5468 158.109 43.9319 158.109 43.9319Z" fill="#8ABC00"/>
<path d="M9.38889 61.7319C11.83 61.7319 15.9611 62.4894 15.9611 65.3298C15.9611 66.8447 15.0222 67.9809 13.7078 67.9809C12.3933 67.9809 11.83 67.034 9.76444 67.034C6.94778 67.034 5.63333 69.117 5.63333 71.7681C5.63333 74.4192 6.94778 76.5021 9.38889 76.5021C11.83 76.5021 12.9567 75.5553 13.7078 75.5553C15.0222 75.5553 15.9611 76.8809 15.9611 78.017C15.9611 80.8575 11.6422 81.8043 9.38889 81.8043C3.75556 81.6149 0 77.2596 0 71.7681C0 66.0872 3.75556 61.7319 9.38889 61.7319Z" fill="#404040"/>
<path d="M17.0878 64.9511C17.0878 63.4362 18.2144 62.1106 19.9044 62.1106C21.4067 62.1106 22.3456 63.0574 22.7211 63.8149C23.66 62.6787 24.9744 61.7319 26.4767 61.7319C27.9789 61.7319 29.2933 62.8681 29.2933 64.5723C29.2933 66.466 27.7911 67.034 25.9133 67.6021C23.4722 68.3596 22.7211 68.9277 22.7211 71.7681V78.5851C22.7211 80.1 21.5944 81.4255 19.9044 81.4255C18.2144 81.4255 17.0878 80.1 17.0878 78.5851V64.9511Z" fill="#404040"/>
<path d="M47.5078 78.3957C47.5078 79.9106 46.3811 81.2362 44.6911 81.2362C43.3767 81.2362 42.4378 80.2894 42.0622 79.5319C40.7478 81.0468 39.4333 81.6149 37.3678 81.6149C32.4856 81.6149 28.9178 77.2596 28.9178 71.5787C28.9178 66.0872 32.6733 61.5426 37.3678 61.5426C39.4333 61.5426 40.9356 62.1106 42.0622 63.6255C42.4378 62.8681 43.3767 61.9213 44.6911 61.9213C46.3811 61.9213 47.5078 63.2468 47.5078 64.7617V78.3957ZM34.3633 71.7681C34.3633 74.4192 35.6778 76.5021 38.1189 76.5021C40.56 76.5021 41.8744 74.4192 41.8744 71.7681C41.8744 69.3064 40.56 67.034 38.1189 67.034C35.6778 67.034 34.3633 69.117 34.3633 71.7681Z" fill="#404040"/>
<path d="M56.3333 67.4128H51.4511C49.7611 67.4128 48.6344 66.6553 48.6344 64.9511C48.6344 63.2468 49.7611 62.4894 51.4511 62.4894H62.1544C63.2811 62.4894 63.6567 62.6787 64.22 63.2468C64.5956 63.6255 64.7833 64.0042 64.7833 64.5723C64.7833 65.1404 64.5956 65.5191 64.0322 66.0872L56.5211 76.3128H62.3422C64.0322 76.3128 65.1589 77.0702 65.1589 78.9638C65.1589 80.6681 64.0322 81.6149 62.3422 81.6149H51.2633C50.3244 81.6149 49.9489 81.4255 49.3856 81.2362C48.6344 80.8575 48.6344 80.1 48.6344 79.7213C48.6344 79.3426 48.6344 78.7745 49.5733 77.6383L56.3333 67.4128Z" fill="#404040"/>
<path d="M70.7922 79.3426L66.0978 68.1702C65.5344 66.6553 64.9711 65.3298 64.9711 64.7617C64.9711 63.0574 66.2856 62.1106 67.6 62.1106C68.9144 62.1106 69.8533 62.8681 70.4167 64.1936L73.6089 72.7149L76.6133 65.1404C77.3644 63.4362 78.1156 62.1106 79.6178 62.1106C81.3078 62.1106 82.4344 63.2468 82.4344 64.9511C82.4344 65.7085 82.0589 66.6553 81.6833 67.4128L73.7967 86.3489C73.2333 87.8638 72.67 89 70.7922 89C68.9144 89 68.1633 87.4851 68.1633 86.5383C68.1633 85.5915 68.5389 85.0234 69.1022 83.5085L70.7922 79.3426Z" fill="#404040"/>
<path d="M89.1944 73.4723C89.1944 74.6085 90.1333 76.5021 93.7011 76.5021C96.5178 76.5021 98.02 74.7979 99.3344 74.7979C100.649 74.7979 101.588 75.7447 101.588 77.2596C101.588 79.9106 97.0811 81.8043 92.95 81.8043C86.9411 81.8043 83.3733 77.4489 83.3733 71.7681C83.3733 66.466 87.3167 61.7319 92.95 61.7319C98.3956 61.7319 101.963 66.2766 101.963 71.2C101.963 73.0936 101.024 73.6617 99.3344 73.6617L89.1944 73.4723ZM96.33 69.6851C96.33 68.3596 95.0156 66.2766 92.7622 66.2766C90.5089 66.2766 89.1944 68.3596 89.1944 69.6851H96.33Z" fill="#404040"/>
<path d="M121.492 79.3426C121.492 86.3489 116.986 89 111.54 89C108.723 89 103.278 87.8638 103.278 84.834C103.278 83.5085 104.404 82.3723 105.531 82.3723C107.221 82.3723 108.16 84.0766 111.352 84.0766C114.732 84.0766 116.047 82.183 116.047 79.1532H115.859C114.732 80.8574 112.667 81.2362 110.789 81.2362C105.531 81.2362 102.714 76.5021 102.714 71.5787C102.714 66.0872 106.47 61.5426 111.164 61.5426C113.23 61.5426 114.732 62.1106 115.859 63.6255C116.234 62.8681 117.173 61.9213 118.488 61.9213C120.178 61.9213 121.304 63.2468 121.304 64.7617C121.492 64.9511 121.492 79.3426 121.492 79.3426ZM112.103 67.034C109.662 67.034 108.348 69.117 108.348 71.7681C108.348 74.4192 109.662 76.5021 112.103 76.5021C114.544 76.5021 115.859 74.4192 115.859 71.7681C115.859 69.117 114.544 67.034 112.103 67.034Z" fill="#404040"/>
<path d="M141.772 79.3426C141.772 86.3489 137.266 89 131.82 89C129.003 89 123.558 87.8638 123.558 84.834C123.558 83.5085 124.684 82.3723 125.811 82.3723C127.501 82.3723 128.44 84.0766 131.632 84.0766C135.012 84.0766 136.327 82.183 136.327 79.1532H136.139C135.012 80.8574 132.947 81.2362 131.069 81.2362C125.811 81.2362 122.994 76.5021 122.994 71.5787C122.994 66.0872 126.75 61.5426 131.444 61.5426C133.51 61.5426 135.012 62.1106 136.139 63.6255C136.514 62.8681 137.453 61.9213 138.768 61.9213C140.458 61.9213 141.584 63.2468 141.584 64.7617C141.772 64.9511 141.772 79.3426 141.772 79.3426ZM132.383 67.034C129.942 67.034 128.628 69.117 128.628 71.7681C128.628 74.4192 129.942 76.5021 132.383 76.5021C134.824 76.5021 136.139 74.4192 136.139 71.7681C136.139 69.117 134.824 67.034 132.383 67.034Z" fill="#404040"/>
<path d="M159.611 22.534C158.672 22.534 157.733 21.966 156.419 21.966C154.166 21.966 153.039 23.2915 153.039 24.8064C153.039 26.1319 154.166 27.4574 156.419 27.4574C157.358 27.4574 158.86 26.8894 159.423 26.8894C160.362 26.8894 161.113 27.4574 161.113 28.0255C161.113 29.3511 157.733 29.9191 156.231 29.9191C151.912 29.9191 149.096 27.4574 149.096 24.8064C149.096 22.1553 152.1 19.5043 156.231 19.5043C157.921 19.5043 161.113 19.883 161.113 21.2085C161.301 21.7766 160.55 22.534 159.611 22.534Z" fill="#8ABC00"/>
<path d="M145.903 79.7213H145.34C145.152 79.7213 144.964 79.5319 144.964 79.3426C144.964 79.1532 145.152 78.9638 145.34 78.9638H147.218C147.406 78.9638 147.593 79.1532 147.593 79.3426C147.593 79.5319 147.593 79.7213 147.218 79.7213H146.654V82.3723C146.654 82.5617 146.467 82.7511 146.279 82.7511C146.091 82.7511 145.903 82.5617 145.903 82.3723V79.7213Z" fill="#404040"/>
<path d="M148.157 79.5319C148.157 79.3426 148.344 79.1532 148.72 79.1532C148.908 79.1532 149.096 79.3426 149.283 79.5319L149.847 81.6149L150.41 79.5319C150.41 79.3426 150.598 79.1532 150.973 79.1532C151.161 79.1532 151.537 79.3426 151.537 79.5319L152.1 82.5617C152.1 82.5617 152.1 82.5617 152.1 82.7511C152.1 82.9404 151.912 83.1298 151.724 83.1298C151.537 83.1298 151.349 82.9404 151.349 82.7511L150.973 80.6681L150.41 82.9404C150.41 83.1298 150.222 83.3192 150.034 83.3192C149.847 83.3192 149.659 83.1298 149.659 82.9404L149.096 80.6681L148.72 82.7511C148.72 82.9404 148.532 83.1298 148.344 83.1298C148.157 83.1298 147.969 82.9404 147.969 82.7511L148.157 79.5319Z" fill="#404040"/>
</svg>
