<svg width="189" height="49" viewBox="0 0 189 49" fill="none" xmlns="http://www.w3.org/2000/svg">
<path d="M49.4851 37.098V0H55.2376V14.6165C57.0395 11.902 59.7425 10.5796 63.3465 10.5796C66.396 10.5796 68.8217 11.4844 70.4851 13.294C72.1484 15.1037 72.9801 17.679 72.9801 20.9503V37.098H67.2276V21.7855C67.2276 17.5398 65.3564 15.4517 61.6138 15.4517C59.7425 15.4517 58.2178 16.0085 56.9702 17.1918C55.792 18.3054 55.1683 19.9063 55.1683 21.9943V37.1676L49.4851 37.098Z" fill="#323232"/>
<path d="M100.148 33.8963C97.5841 36.4716 94.3959 37.7244 90.5147 37.7244C86.6335 37.7244 83.4455 36.4716 80.8811 33.8963C78.3167 31.321 76.9999 28.0497 76.9999 24.152C76.9999 20.1847 78.3167 16.983 80.8811 14.4077C83.4455 11.8324 86.6335 10.5796 90.5147 10.5796C94.3959 10.5796 97.5841 11.8324 100.148 14.4077C102.713 16.983 103.96 20.1847 103.96 24.152C103.96 28.1193 102.713 31.3906 100.148 33.8963ZM85.1088 30.6946C86.4949 32.2955 88.2969 33.1307 90.5841 33.1307C92.8712 33.1307 94.6731 32.2955 96.0593 30.6946C97.4454 29.0938 98.1385 26.9361 98.1385 24.152C98.1385 21.4375 97.4454 19.2798 96.0593 17.679C94.6731 16.0781 92.8712 15.2429 90.6534 15.2429C88.3662 15.2429 86.5643 16.0085 85.1781 17.6094C83.792 19.2102 83.0989 21.3679 83.0989 24.0824C83.0296 26.8665 83.7227 29.0938 85.1088 30.6946Z" fill="#323232"/>
<path d="M117.267 37.794C112 37.794 109.366 34.9403 109.366 29.233V16.0781H105.346V11.206H109.505L110.822 3.54972H115.119V11.206H125.376V16.0781H115.119V29.0242C115.119 31.3906 116.02 32.5739 117.752 32.5739C119.416 32.5739 120.871 31.1122 122.188 28.1193L126.624 30.4162C124.406 35.358 121.287 37.794 117.267 37.794Z" fill="#323232"/>
<path d="M128.426 49C125.861 49 123.782 48.304 122.119 46.8423L124.267 42.3182C125.307 43.5014 126.416 44.1278 127.594 44.1278C129.188 44.1278 130.02 43.0838 130.02 41.0653V11.206H135.772V41.0653C135.772 43.8494 135.079 45.8679 133.693 47.0511C132.307 48.3736 130.574 49 128.426 49ZM132.861 6.82104C131.891 6.82104 130.99 6.47301 130.297 5.84659C129.95 5.49858 129.673 5.15058 129.535 4.73297C129.327 4.31535 129.257 3.82812 129.327 3.41051C129.327 2.92329 129.396 2.50568 129.604 2.08807C129.812 1.67045 130.02 1.25284 130.366 0.974428C131.059 0.348007 131.96 0 132.931 0C133.901 0 134.802 0.348007 135.495 0.974428C135.841 1.32244 136.119 1.67045 136.257 2.08807C136.465 2.50568 136.535 2.99289 136.535 3.41051C136.535 3.89772 136.465 4.31535 136.257 4.73297C136.049 5.15058 135.841 5.49858 135.495 5.84659C135.148 6.1946 134.733 6.40341 134.317 6.61222C133.832 6.75142 133.346 6.89064 132.861 6.82104Z" fill="#323232"/>
<path d="M149.98 37.794C147.069 37.794 144.643 37.0284 142.841 35.5668C141.039 34.1051 140.138 32.0867 140.138 29.6506C140.138 27.3537 141.109 25.4744 142.98 23.8736C144.851 22.2727 147.277 21.5071 150.119 21.5071C153.03 21.5071 155.525 22.4815 157.535 24.3608V21.2287C157.535 19.3494 157.049 17.9574 156.148 16.9134C155.178 15.8693 153.861 15.3821 152.129 15.3821C148.594 15.3821 146.445 17.1918 145.614 20.7415L140.346 19.6279C141.039 16.8438 142.426 14.6861 144.574 13.0852C146.653 11.4844 149.287 10.6492 152.406 10.6492C155.802 10.6492 158.505 11.554 160.446 13.3636C162.386 15.1733 163.426 17.8182 163.426 21.2287V37.1676H157.812V33.8963C155.871 36.4716 153.307 37.794 149.98 37.794ZM151.089 33.4787C153.653 33.4787 155.802 32.2259 157.604 29.6506V28.8153C155.802 26.6577 153.653 25.6137 151.089 25.6137C149.634 25.6137 148.386 25.9616 147.485 26.7273C147.069 27.0753 146.723 27.4929 146.445 27.9801C146.238 28.4673 146.099 29.0242 146.099 29.581C146.099 30.1378 146.168 30.6946 146.445 31.1818C146.653 31.669 147 32.0867 147.485 32.4347C148.317 33.1307 149.564 33.4787 151.089 33.4787Z" fill="#323232"/>
<path d="M168.901 37.098V11.206H174.515V15.6605C175.901 12.3892 178.396 10.7187 181.861 10.7187C183.941 10.7187 185.604 11.4148 186.99 12.7372C188.376 14.0597 189 15.9389 189 18.1662C189 19.5582 188.723 20.8807 188.307 22.2031L183.04 21.6463C183.178 20.9503 183.247 20.2543 183.247 19.4886C183.247 16.8438 182.139 15.4517 179.921 15.4517C178.465 15.4517 177.149 16.2173 176.178 17.8182C175.139 19.419 174.653 21.5071 174.653 24.0824V36.9588H168.901V37.098Z" fill="#323232"/>
<path d="M13.6534 15.1733C17.9504 12.8068 23.7723 9.53551 23.7723 0H16.6337C16.6337 5.28977 14.0693 6.75143 10.1188 8.9091C5.82176 11.2756 0 14.5469 0 24.0824H7.06927C7.13858 18.7926 9.70293 17.4006 13.6534 15.1733Z" fill="#FF3C00"/>
<path d="M25.9207 13.0156C25.9207 18.3054 23.3564 19.767 19.4059 21.9247C15.1089 24.2912 9.2871 27.5625 9.2871 37.098H16.3564C16.3564 31.8082 18.9208 30.3466 22.8713 28.1889C27.1683 25.8224 32.9901 22.5511 32.9901 13.0156H25.9207Z" fill="#FF3C00"/>
</svg>
