<svg width="290" height="29" viewBox="0 0 290 29" fill="none" xmlns="http://www.w3.org/2000/svg">
<path fill-rule="evenodd" clip-rule="evenodd" d="M217.563 0.222167C218.609 0.222167 218.829 0.84119 218.829 1.36167V3.27786H216.83C215.83 3.27786 215.62 2.6884 215.62 2.1939V0.223959H217.563V0.222167ZM217.393 6.50019C218.222 6.50019 218.661 6.91227 218.661 7.69433V23.7782H216.858V23.7155C216.213 23.6581 215.789 23.1959 215.789 22.5285V6.50019H217.393ZM121.997 19.041C122.614 19.5937 122.791 19.8239 122.797 19.8338L122.869 19.9279L122.787 20.013C120.007 22.8859 117.215 24.1114 113.451 24.1114C106.694 24.1114 101.598 18.9407 101.598 12.0839C101.598 5.30783 106.829 0 113.507 0C118.091 0 120.619 1.78092 122.669 3.70518L122.769 3.79834L122.677 3.89868C122.672 3.90405 122.162 4.46305 121.659 4.95935C121.087 5.58733 120.31 5.43324 119.834 5.02206C117.893 3.41493 115.864 2.66601 113.451 2.66601C108.395 2.66601 104.582 6.66771 104.582 11.972C104.582 17.252 108.478 21.389 113.451 21.389C115.957 21.389 117.84 20.6902 119.949 18.9765C120.469 18.5214 121.341 18.3942 121.997 19.041ZM164.802 6.05585C168.849 6.05585 171.362 8.72723 171.362 13.0281V23.6671H169.869C168.703 23.6671 168.546 22.9504 168.546 22.2499V13.5836C168.546 10.423 166.976 8.61167 164.239 8.61167C161.926 8.61167 159.593 10.2 159.593 13.7502V23.6671H158.045C157.228 23.6671 156.777 23.2228 156.777 22.4165V13.528C156.777 10.449 155.168 8.61167 152.471 8.61167C149.779 8.61167 147.826 10.7957 147.826 13.8057V22.4165C147.826 23.4154 147.382 23.6115 146.615 23.6115H145.01V6.33356H146.558C147.399 6.33356 147.881 6.80835 147.881 7.63879V8.85982C148.962 7.36377 150.487 5.94566 153.315 5.94566C156.602 5.94566 158.172 7.89321 158.854 9.20023C160.377 7.08606 162.326 6.05585 164.802 6.05585ZM185.129 6.11139C189.182 6.11139 193.49 9.25578 193.49 15.0832C193.49 20.9115 189.182 24.0559 185.128 24.0559C182.516 24.0559 180.404 22.9674 178.682 20.7305V28.9454H177.077C176.285 28.9454 175.866 28.5127 175.866 27.6948V6.44464H177.246C178.185 6.44464 178.681 6.91496 178.681 7.80542V9.58813C180.405 7.2491 182.518 6.11139 185.129 6.11139ZM190.562 15.0832C190.562 10.8342 187.573 8.61167 184.622 8.61167C181.619 8.61167 178.513 11.0116 178.513 15.0276C178.513 19.0786 181.618 21.5001 184.622 21.5001C188.12 21.5001 190.562 18.8618 190.562 15.0832ZM237.241 7.69523C237.241 6.85314 238.023 6.3891 238.564 6.3891H240.112V20.5836C240.112 25.9327 236.88 29 231.244 29C228.291 29 225.632 28.1875 223.336 26.5857L223.238 26.5167L223.292 26.4101C223.298 26.3967 223.468 26.0634 223.917 25.3441C224.156 24.9589 224.464 24.7797 224.806 24.7842C225.089 24.7914 225.402 24.9123 225.856 25.1873C227.486 26.085 229.321 26.5562 231.188 26.5562C235.07 26.5562 237.296 24.399 237.296 20.6392V19.0365C235.452 21.2537 233.283 22.3332 230.681 22.3332C226.682 22.3332 222.432 19.4799 222.432 14.1936C222.432 11.8358 223.34 9.7028 224.99 8.18884C226.506 6.7976 228.58 5.99941 230.681 5.99941C233.991 5.99941 236.049 7.64596 237.241 9.16171V7.69523ZM237.353 14.3056C237.353 10.6067 234.177 8.61077 231.188 8.61077C227.811 8.61077 225.359 10.9829 225.359 14.2501C225.359 17.4966 227.865 19.944 231.188 19.944C234.219 19.944 237.353 17.8352 237.353 14.3056ZM253.373 6.11139C257.46 6.11139 260.101 8.82577 260.101 13.0272V23.7217H258.383C257.596 23.7217 257.23 23.3437 257.23 22.5285V13.6391C257.23 10.5252 255.493 8.66721 252.584 8.66721C249.617 8.66721 247.545 10.8029 247.545 13.8613L247.602 23.7217H244.73V6.44464H246.278C246.937 6.44464 247.601 6.81373 247.601 7.63879V9.10975C248.976 7.11921 250.915 6.11139 253.373 6.11139ZM204.048 6.22248C208.839 6.22248 211.509 8.67707 211.566 13.1374V23.6671H210.017C209.191 23.6671 208.806 23.3052 208.806 22.5285V21.3594C207.263 23.126 205.159 24.0559 202.697 24.0559C198.19 24.0559 196.136 21.2188 196.136 18.5832C196.136 15.1056 198.876 13.1115 203.654 13.1115H206.553V14.0834C206.553 14.887 206.139 15.2776 205.286 15.2776H203.879C200.738 15.2776 199.008 16.4323 199.008 18.5277C199.008 20.761 201.183 21.7778 203.203 21.7778C206.45 21.7778 208.805 19.8965 208.805 17.3058V13.1939C208.805 10.3093 207.036 8.72186 203.823 8.72186C202.375 8.72186 201.07 8.97628 199.595 9.54603C199.058 9.72251 198.405 9.70728 198.174 9.13484C197.997 8.69128 197.828 8.2451 197.665 7.79646L197.622 7.67642L197.74 7.62267C199.901 6.65427 201.846 6.22248 204.048 6.22248ZM133.157 6.22248C137.947 6.22248 140.618 8.67707 140.675 13.1374V23.6671H139.126C138.3 23.6671 137.915 23.3052 137.915 22.5285V21.3594C136.373 23.126 134.269 24.0559 131.806 24.0559C127.299 24.0559 125.246 21.2188 125.246 18.5832C125.246 15.1056 127.986 13.1115 132.764 13.1115H135.642V14.0834C135.642 14.887 135.227 15.2776 134.376 15.2776H132.988C129.847 15.2776 128.118 16.4323 128.118 18.5277C128.118 20.761 130.293 21.7778 132.313 21.7778C135.56 21.7778 137.915 19.8965 137.915 17.3058V13.1939C137.915 10.3093 136.145 8.72186 132.932 8.72186C131.484 8.72186 130.18 8.97628 128.704 9.54603C128.164 9.7243 127.514 9.70728 127.284 9.13484C127.107 8.69143 126.937 8.24524 126.775 7.79646L126.73 7.67463L126.851 7.62267C128.522 6.89525 130.442 6.22248 133.157 6.22248ZM289.043 12.6385C289.677 13.0774 290 13.6203 290 14.2501V14.5627C289.993 15.0491 289.816 15.7336 289.043 16.306L289.04 16.3078C288.668 16.5703 284.879 19.1601 280.868 21.9032C276.944 24.5862 272.522 27.6097 271.982 27.9868V28.4231L271.719 27.9877C271.707 27.9653 271.695 27.9465 271.708 27.916H271.7V25.6388C271.7 24.8621 271.787 24.4886 272.664 23.9125C273.395 23.4485 284.979 15.523 286.516 14.4731C284.991 13.4277 273.556 5.59539 272.773 5.02922L272.68 4.96293C272.101 4.54905 271.645 4.22297 271.645 3.36118V0.650377L271.865 0.802669C272.548 1.27209 288.595 12.3079 289.043 12.6385ZM279.013 15.704C278.616 15.704 278.223 15.5678 277.809 15.2964C276.807 14.6362 271.665 11.1084 271.613 11.0725L271.553 11.0313V9.29161C271.553 8.89207 271.728 8.57584 272.034 8.42265C272.361 8.25782 272.771 8.31157 273.128 8.56777C273.902 9.05869 281.384 14.1811 281.459 14.2339L281.629 14.3495L281.456 14.4633C281.456 14.4633 280.95 14.7956 280.389 15.1826C279.909 15.5302 279.46 15.704 279.013 15.704ZM40.1822 19.7621C40.7315 20.3041 41.013 20.5281 41.0157 20.5308L41.1292 20.6203L41.0348 20.7296C39.6665 22.3036 37.6254 24.1114 33.9455 24.1114C28.9936 24.1114 24.9641 20.0864 24.9641 15.1387C24.9641 10.0764 28.9091 6.11139 33.9455 6.11139C36.7756 6.11139 38.9265 7.05023 40.9186 9.15544L41.0057 9.24861L40.9195 9.34267C40.6062 9.68488 40.2857 10.0208 39.957 10.3487C39.405 10.8916 38.8257 10.8602 38.0776 10.2457C37.0679 9.43763 35.7778 8.61077 33.8892 8.61077C30.5271 8.61077 27.8922 11.4542 27.8922 15.0832C27.8922 18.7131 30.6006 21.5565 34.0572 21.5565C35.6525 21.5565 37.117 20.9697 38.4117 19.8141C38.7921 19.5131 39.583 19.1709 40.1822 19.763V19.7621ZM58.8896 0.223063C59.6595 0.223063 60.1562 0.735481 60.1562 1.52919V3.27876H58.1578C57.1572 3.27876 56.9466 2.6893 56.9466 2.1948V0.223959H58.8896V0.223063ZM58.6644 6.50108C59.4934 6.50108 59.931 6.91317 59.931 7.69523V23.7791H58.1297V23.7164C57.4832 23.659 57.0592 23.1968 57.0592 22.5294V6.50019L58.6644 6.50108ZM77.1721 7.41752C77.449 6.76177 77.952 6.44375 78.7092 6.44375H80.6704L80.5842 6.63814C80.5151 6.79402 73.711 22.2015 73.4322 22.8062C73.1371 23.4476 72.7113 23.7217 72.0095 23.7217H71.6708C70.9463 23.7217 70.4959 23.5847 70.1899 22.859C69.913 22.257 63.1079 6.73848 63.0398 6.58171L62.9545 6.38731H64.9701C65.7392 6.38731 66.2758 6.73489 66.5645 7.41752C66.7688 8.02221 71.0352 18.2356 71.8397 20.1626C72.646 18.2365 76.9188 8.01773 77.1721 7.41752ZM94.8135 14.0557C94.977 14.0557 95.0977 14.0127 95.1676 13.9276C95.2657 13.8138 95.2893 13.6069 95.2375 13.3291C95.0051 10.4678 92.9114 8.55434 90.0268 8.55434C87.165 8.55434 84.9305 10.879 84.5928 14.2071C84.5918 14.2169 84.5374 14.6003 84.5374 15.1378C84.5374 15.6216 84.5918 16.0041 84.5918 16.0077C84.9514 19.3939 87.3384 21.6658 90.5335 21.6658C92.3884 21.6658 93.9047 21.1149 95.1685 19.9798C95.5045 19.6484 96.1428 19.4432 96.8156 19.9736C97.2695 20.3659 97.6636 20.6992 97.6636 20.6992L97.7744 20.7923L97.6763 20.8981C95.6234 23.1197 93.4035 24.1105 90.4772 24.1105C85.4862 24.1105 81.7218 20.2289 81.7218 15.0832C81.7218 9.93572 85.3409 6.05495 90.1394 6.05495C94.5203 6.05495 97.7444 8.98434 98.163 13.3471C98.2329 14.2796 98.0195 15.0375 97.5456 15.541C97.0861 16.0292 96.3943 16.2773 95.489 16.2773C93.9492 16.2773 90.232 16.2827 87.0306 16.3329L86.888 16.3347V15.2489C86.888 14.5018 87.3402 14.0548 88.0983 14.0548L94.8135 14.0557ZM13.8589 1.07948C14.1931 1.79436 24.008 23.3088 24.1079 23.5255L24.1969 23.7217H22.5153C22.1576 23.7217 21.0699 23.7217 20.6413 22.8071C20.3308 22.1415 13.1507 6.06212 12.0975 3.70339L6.96579 15.0554H14.5617V16.306C14.5617 17.1203 13.9624 17.6668 13.0699 17.6668H5.82631C5.55302 18.2616 3.86514 21.9229 3.55462 22.5858C3.11881 23.3849 2.61036 23.7226 1.8504 23.7226H0L0.0889791 23.5255C0.188854 23.307 10.1146 1.52113 10.337 1.02663C10.6457 0.476585 11.1424 0.166625 11.7044 0.166625H12.3799C13.1398 0.166625 13.5121 0.396855 13.8571 1.07679L13.8589 1.07948ZM52.8826 21.2761C53.0415 21.3926 53.2304 21.6273 53.2304 22.0824C53.2304 22.6942 53.1759 23.1878 53.1741 23.2093L53.165 23.2837L53.0969 23.3177C52.2035 23.7594 50.7753 24.055 49.5423 24.055C46.329 24.055 44.5594 22.3081 44.5594 19.1377V0.277709H45.9395C46.8112 0.277709 47.3741 0.790127 47.3741 1.58384V6.50019H51.3445C52.0627 6.50019 52.8363 6.90869 52.8363 7.80542V8.99957H47.375L47.4313 18.7498C47.4313 20.5379 48.3501 21.4445 50.1615 21.4445C50.7562 21.4445 51.1829 21.3415 51.814 21.1722C52.2316 21.0486 52.622 21.0853 52.8826 21.2761Z" fill="#356AE6"/>
</svg>
