<svg width="214" height="41" viewBox="0 0 214 41" fill="none" xmlns="http://www.w3.org/2000/svg">
<path d="M194.265 40.1346V35.4983H194.826C197.417 35.4983 198.869 34.51 200.063 32.1561L200.444 31.3887L192.091 9.81395H197.543L203.128 25.7691L208.674 9.81395H214L204.233 34.6927C202.617 38.088 200.035 39.9419 194.826 40.1329L194.265 40.1346ZM177.39 10.1578H182.158V13.809C183.861 11.3239 186.377 9.81395 189.439 9.81395H189.821L191.738 14.7425H189.439C184.84 14.7425 182.158 17.3571 182.158 21.3887V32.0299H177.39V32.0415V10.1578ZM163.582 9.11462C156.933 9.11462 151.951 14.0449 151.951 20.5764C151.951 27.108 156.933 32.0382 163.581 32.0382C170.231 32.0382 175.213 27.108 175.213 20.5764C175.213 14.0449 170.231 9.11462 163.582 9.11462ZM163.582 27.4037C159.755 27.4037 156.857 24.4468 156.857 20.5764C156.857 16.706 159.744 13.7508 163.582 13.7508C167.421 13.7508 170.269 16.7076 170.269 20.5781C170.269 24.4452 167.419 27.4037 163.582 27.4037ZM148.934 32.0365C144.207 32.0365 141.653 29.6279 141.653 25.3023V14.5332H138.371V10.1528H140.205C141.312 10.1528 141.907 9.54983 141.907 8.43688V4.23588H146.419V10.1528H151.405V14.5332H146.419V24.5332C146.419 26.4668 147.234 27.6196 149.23 27.6196H151.405V32.0382L148.934 32.0365ZM128.764 32.3754C123.528 32.3754 120.084 29.5449 120.084 25.4236H124.942C124.942 27.103 126.517 28.2176 128.818 28.2176C130.954 28.2176 132.352 27.2326 132.352 25.8621C132.352 21.9186 120.429 24.108 120.429 16.3355C120.429 12.0864 123.797 9.47176 128.601 9.47176C133.404 9.47176 136.865 12.1744 136.865 16.1179H132.007C132.007 14.6196 130.598 13.5847 128.563 13.5847C126.527 13.5847 125.244 14.4817 125.244 15.814C125.244 19.6296 137.205 17.5299 137.205 25.3405C137.205 29.5897 133.838 32.3671 128.779 32.3671L128.767 32.3787H128.764V32.3754ZM113.308 32.0365V1.15282H118.073V32.0382L113.308 32.0365ZM105.255 32.0365V1.15282H110.022V32.0382L105.255 32.0365ZM90.2985 32.5515C85.3169 32.5515 81.9981 29.2093 81.9981 24.0997V10.1578H86.7636V22.6794C86.7636 25.8156 88.7595 27.9169 91.8359 27.9169C95.0756 27.9169 97.2397 25.7658 97.2397 22.6013V10.1595H102.005V32.0432H97.2381V29.3422C95.5721 31.4402 93.1967 32.5548 90.2985 32.5548M67.1985 40.5V36.0017C69.4089 36.0017 69.9565 34.7425 69.9565 32.603V14.5797H66.7861V10.1229H69.9565V7.83721C69.9565 3.11794 72.7228 0.5 77.8743 0.5H79.8108V4.99834H78.2998C76.0895 4.99834 74.7995 6.2608 74.7995 8.40365V10.1113H79.8108V14.5681H74.7995V33.1628C74.7995 37.8821 72.3516 40.4967 67.1952 40.4967L67.1985 40.5ZM56.978 27.2841H37.3321L54.2497 17.5166L54.3487 17.4601L51.9833 13.3472L34.9651 23.1711L44.7319 6.25083L44.7897 6.15116L40.7351 3.80897L40.679 3.77575L30.8544 20.794V1.1495H26.1153V20.814L16.3518 3.8887L16.2957 3.78904L12.2395 6.13123L12.1818 6.16611L22.0064 23.186L5.08715 13.4186L4.98818 13.3621L2.6244 17.4751L19.6393 27.299H0V32.0415H17.7159C22.7305 31.5183 25.4258 28.7076 26.8048 26.4369C27.5918 25.1281 28.1623 23.6991 28.494 22.206C28.6837 23.0764 29.1505 24.7309 30.1847 26.4369C31.5637 28.7027 34.2574 31.515 39.2852 32.0415H56.978V27.2841Z" fill="black"/>
</svg>
