<svg width="226" height="35" viewBox="0 0 226 35" fill="none" xmlns="http://www.w3.org/2000/svg">
<path fill-rule="evenodd" clip-rule="evenodd" d="M84.0285 23.9203H87.8621V24.6429C88.2304 26.7683 90.2159 28.0801 93.0785 28.0801C95.8039 28.0801 97.5583 27.0385 97.5583 25.411C97.5583 21.4303 89.8944 23.9626 85.7394 19.894C84.7249 18.898 84.0318 17.4072 84.0318 15.8253C84.0318 12.1636 87.2628 9.54013 91.6957 9.54013C93.6812 9.54013 95.5729 9.99256 97.0059 10.7607V9.90142H100.793V16.9548H97.0059V15.6431C95.7604 13.8333 94.1432 13.0196 91.9268 13.0196C89.6199 13.0196 88.0931 14.0612 88.0931 15.6431C88.0931 19.217 96.497 17.1338 100.096 20.6621C101.389 21.9283 101.944 23.6013 101.944 25.0953C101.944 28.9849 98.5728 31.6084 93.5874 31.6084C91.2337 31.6084 89.4324 31.1104 87.8621 30.0721V31.2471H84.0285V23.9203Z" fill="#010202"/>
<path fill-rule="evenodd" clip-rule="evenodd" d="M104.666 9.90142H107.482V6.60095L111.821 2.75691V9.90142H115.839V13.6088H111.821V25.9546C111.821 28.0345 113.713 27.9434 115.839 27.2208V31.0192C114.825 31.335 113.67 31.6084 112.655 31.6084C109.608 31.6084 107.486 30.2511 107.486 26.5437V13.612H104.67V9.90142H104.666Z" fill="#010202"/>
<path fill-rule="evenodd" clip-rule="evenodd" d="M122.489 13.612H118.843V9.90142H126.828V12.5704C129.366 10.5817 131.813 9.54013 134.214 9.54013C136.661 9.54013 138.553 10.7151 139.477 12.8862C142.618 10.4906 144.831 9.54013 147.325 9.54013C150.928 9.54013 153.144 11.7111 153.144 15.4185V27.5365H156.884V31.2438H148.805V16.3657C148.805 14.2858 147.837 13.2442 146.173 13.2442C144.419 13.2442 142.159 14.2858 139.986 16.0467V27.5332H143.726V31.2406H135.647V16.4535C135.647 14.1914 134.354 13.4232 132.968 13.4232C131.398 13.4232 129.459 14.237 126.828 16.0467V27.5332H130.568V31.2406H118.518V27.5332H122.489V13.612Z" fill="#010202"/>
<path fill-rule="evenodd" clip-rule="evenodd" d="M181.168 31.2471V27.5398H177.428V15.8253C177.428 12.3882 175.259 9.26672 168.887 9.26672C164.454 9.26672 161.314 10.9397 159.469 14.2402L163.577 15.3241C164.548 13.6511 166.162 12.7918 168.241 12.7918C170.826 12.7918 173.089 13.8757 173.089 16.906V19.7084C171.335 18.579 169.075 17.8987 167.133 17.8987C162.653 17.8987 159.191 20.929 159.191 24.8187C159.191 28.6171 162.422 31.6019 166.577 31.6019C168.978 31.6019 170.869 30.7881 173.595 28.6171V31.2471H181.168ZM167.454 21.1634C169.302 21.1634 171.241 21.886 173.086 23.2888V25.8212C171.331 27.403 169.162 28.3535 167.223 28.3535C164.916 28.3535 163.299 26.905 163.299 24.8252C163.303 22.6997 165.057 21.1634 167.454 21.1634Z" fill="#010202"/>
<path fill-rule="evenodd" clip-rule="evenodd" d="M187.078 13.612H182.692V9.90142H190.493V14.6959H190.587C191.973 11.122 194.742 9.54013 197.467 9.54013H200.283V13.791H197.973C192.94 13.791 191.417 16.5479 191.417 21.4336V27.5398H196.128V31.2471H182.785V27.5398H187.078V13.612Z" fill="#010202"/>
<path fill-rule="evenodd" clip-rule="evenodd" d="M205.037 4.25091H201.113V0.543569H209.376V19.7182L217.549 13.433V13.3419H213.903V9.90142H226V13.3386H222.628L214.456 19.9851L222.166 27.5365H225.906V31.2438H220.365L209.376 20.4799V27.5332H212.607V31.2406H201.066V27.5332H205.037V4.25091Z" fill="#010202"/>
<path d="M75.9025 5.56263V3.75291C71.9704 7.42751 64.5415 9.95983 55.9104 10.1211C55.9058 10.7568 55.8475 11.3619 55.7463 11.9336C57.9203 11.9006 60.0194 11.7172 62.0069 11.403C63.9011 10.0504 66.2771 9.26996 68.9283 9.26996C69.213 9.26996 69.4945 9.27908 69.7726 9.29706C72.2653 8.27937 74.3555 7.00956 75.9025 5.56263Z" fill="#CCCCCC"/>
<path d="M51.1094 9.96102L51.1095 9.99255C51.1095 10.6059 51.0628 11.1987 50.9455 11.7559C52.2739 11.8762 53.6398 11.939 55.0335 11.939C55.272 11.939 55.5096 11.9372 55.7463 11.9336C55.8475 11.3619 55.9058 10.7568 55.9104 10.1211C55.6195 10.1265 55.3271 10.1293 55.0335 10.1293C53.697 10.1293 52.3862 10.0716 51.1094 9.96102Z" fill="#010202"/>
<path d="M37.9513 6.37636L37.8783 6.33727C37.1155 5.92888 36.3086 5.4969 35.4569 5.05814V6.86786C36.3086 7.30663 37.1155 7.7386 37.8783 8.14699L37.9513 8.18609C38.6475 8.55585 39.3878 8.90357 40.1677 9.22681V7.41819C39.3878 7.09472 38.6475 6.74665 37.9513 6.37636Z" fill="#010202"/>
<path d="M0 5.56263C4.3392 3.25816 10.386 1.80973 17.0823 1.80973C24.6691 1.80973 30.7486 4.44239 35.4569 6.86786V5.05814C35.0229 4.83456 34.5772 4.60923 34.1198 4.38436H31.5329V3.18664C27.5083 1.44857 22.71 0 17.0823 0C10.3893 0 4.3392 1.44518 0 3.75291V5.56263Z" fill="#CCCCCC"/>
<path d="M40.1677 9.22681C43.2363 10.4986 46.9185 11.3913 50.9455 11.7559C51.0628 11.1987 51.1095 10.6059 51.1095 9.99255L51.1094 9.96102C47.0184 9.60658 43.2779 8.7081 40.1677 7.41819V9.22681Z" fill="#CCCCCC"/>
<path d="M0 13.2475C4.3392 10.943 10.386 9.49455 17.0823 9.49455C24.6691 9.49455 30.7486 12.1272 35.4569 14.5527V12.743C30.7486 10.3175 24.6691 7.68483 17.0823 7.68483C10.3893 7.68483 4.3392 9.13 0 11.4377V13.2475Z" fill="#CCCCCC"/>
<path d="M52.2307 17.7287C51.1816 18.445 49.9648 18.8889 48.5201 19.152C50.5907 19.459 52.7755 19.6238 55.0335 19.6238C55.8569 19.6238 56.6702 19.6023 57.4716 19.5602C57.5226 18.9326 57.6207 18.3228 57.7628 17.7342C56.8675 17.787 55.9568 17.8141 55.0335 17.8141C54.0853 17.8141 53.1501 17.7851 52.2307 17.7287Z" fill="#CCCCCC"/>
<path fill-rule="evenodd" clip-rule="evenodd" d="M52.2307 17.7287C51.1816 18.445 49.9648 18.8889 48.5201 19.152C44.4531 18.5491 40.8266 17.3979 37.9513 15.8709L37.8782 15.8318C37.1154 15.4234 36.3086 14.9915 35.4569 14.5527V12.743C36.3086 13.1817 37.1155 13.6137 37.8783 14.0221L37.9513 14.0612C41.6757 16.042 46.6607 17.3873 52.2307 17.7287ZM73.4758 15.0997C74.3877 14.5234 75.201 13.9036 75.9025 13.2475V11.4377C74.8562 12.4155 73.5624 13.3124 72.0642 14.1052C72.5784 14.3744 73.0518 14.7089 73.4758 15.0997ZM62.1868 19.059C62.315 18.3755 62.5293 17.7323 62.818 17.1414C61.2053 17.4298 59.5135 17.631 57.7628 17.7342C57.6207 18.3228 57.5226 18.9326 57.4716 19.5602C59.0981 19.4748 60.6752 19.3048 62.1868 19.059Z" fill="#010202"/>
<path d="M73.4758 15.0997C73.0518 14.7089 72.5784 14.3744 72.0642 14.1052C69.5061 15.459 66.3523 16.5094 62.818 17.1414C62.5293 17.7323 62.315 18.3755 62.1868 19.059C66.6673 18.3304 70.5716 16.9353 73.4758 15.0997Z" fill="#CCCCCC"/>
<path d="M69.7726 9.29706C69.4945 9.27908 69.213 9.26996 68.9283 9.26996C66.2771 9.26996 63.9011 10.0504 62.0069 11.403C64.8617 10.9517 67.4864 10.2304 69.7726 9.29706Z" fill="#010202"/>
<path d="M75.7619 20.5743C75.7619 20.1509 75.7306 19.738 75.6702 19.3379C72.891 21.8187 68.4993 23.7548 63.2275 24.7541C63.6027 25.336 64.0576 25.8504 64.5779 26.2834C69.2969 25.2144 73.2125 23.3767 75.7472 21.0785C75.757 20.9123 75.7619 20.7442 75.7619 20.5743Z" fill="#CCCCCC"/>
<path d="M59.4017 27.1055C59.0291 26.5651 58.7039 25.9877 58.4308 25.378C57.3217 25.4598 56.1875 25.5022 55.0335 25.5022C49.4145 25.5022 44.2486 24.4836 40.1677 22.7911V24.5997C44.2486 26.291 49.4145 27.3119 55.0335 27.3119C56.5264 27.3119 57.9863 27.241 59.4017 27.1055Z" fill="#CCCCCC"/>
<path fill-rule="evenodd" clip-rule="evenodd" d="M75.7472 21.0785C75.7996 21.0311 75.8513 20.9834 75.9025 20.9356V19.1258C75.8264 19.197 75.749 19.2677 75.6702 19.3379C75.7306 19.738 75.7619 20.1509 75.7619 20.5743C75.7619 20.7442 75.757 20.9123 75.7472 21.0785ZM64.5779 26.2834C64.0576 25.8504 63.6027 25.336 63.2275 24.7541C61.6969 25.0443 60.092 25.2554 58.4308 25.378C58.7039 25.9877 59.0291 26.5651 59.4017 27.1055C61.2077 26.9325 62.9411 26.6542 64.5779 26.2834ZM37.9513 21.7493C38.6475 22.1196 39.3878 22.4676 40.1677 22.7911V24.5997C39.3878 24.2765 38.6475 23.9288 37.9513 23.559L37.8783 23.5199C37.1155 23.1115 36.3086 22.6795 35.4569 22.2408V20.4311C36.3086 20.8698 37.1154 21.3018 37.8782 21.7102L37.9513 21.7493Z" fill="#010202"/>
<path d="M0 20.9356C4.3392 18.6311 10.386 17.1826 17.0823 17.1826C24.6691 17.1826 30.7486 19.8153 35.4569 22.2408V20.4311C30.7486 18.0056 24.6691 15.3729 17.0823 15.3729C10.3893 15.3729 4.3392 16.8181 0 19.1258V20.9356Z" fill="#CCCCCC"/>
<path d="M37.9513 31.2471H42.2334C40.6742 30.7298 39.2376 30.1215 37.9513 29.4374L37.8782 29.3983C36.7024 28.7687 35.4218 28.0831 34.0336 27.4031H31.5329V28.0574C33.9153 29.0863 36.0265 30.2166 37.8782 31.208L37.9513 31.2471Z" fill="#010202"/>
<path d="M0 28.6236C4.3392 26.3192 10.386 24.8707 17.0823 24.8707C22.71 24.8707 27.5083 26.3193 31.5329 28.0574V27.4031H34.0336C29.543 25.2031 23.9259 23.061 17.0823 23.061C10.3893 23.061 4.3392 24.5062 0 26.8139V28.6236Z" fill="#CCCCCC"/>
<path fill-rule="evenodd" clip-rule="evenodd" d="M34.1198 4.38436H35.4569V5.05814C36.3086 5.4969 37.1155 5.92888 37.8783 6.33727L37.9513 6.37636C38.6475 6.74665 39.3878 7.09472 40.1677 7.41819V4.38436H45.5683C49.0202 4.38436 51.0974 6.36478 51.1094 9.96102C52.3862 10.0716 53.697 10.1293 55.0335 10.1293C55.3271 10.1293 55.6195 10.1265 55.9104 10.1211C55.9106 10.0935 55.9107 10.0658 55.9107 10.0381C55.9107 6.14852 54.1094 0.540311 45.431 0.540311H31.5329V3.18664V4.38436H34.1198ZM62.0069 11.403C64.8617 10.9517 67.4864 10.2304 69.7726 9.29706C75.8998 9.69305 80.379 14.3876 80.379 20.5743C80.379 26.1831 76.6622 30.5655 71.3994 31.6303C70.5937 31.7933 69.7518 31.8785 68.8815 31.8785C68.0704 31.8785 67.2847 31.8045 66.5306 31.6625C63.523 31.0962 61.0172 29.4487 59.4017 27.1055C59.0291 26.5651 58.7039 25.9877 58.4308 25.378C57.7851 23.9364 57.4308 22.3144 57.4308 20.5743C57.4308 20.2315 57.4445 19.8933 57.4716 19.5602C57.5226 18.9326 57.6207 18.3228 57.7628 17.7342C58.3966 15.109 59.9052 12.9038 62.0069 11.403ZM42.2334 31.2471H44.2759V27.4031H40.1677V24.5997V22.7911V19.4904H43.6766C45.5365 19.4904 47.1333 19.4045 48.5201 19.152C49.9648 18.8889 51.1816 18.445 52.2307 17.7287C52.6001 17.4765 52.9487 17.1906 53.2791 16.8669C54.3326 15.8351 55.3571 14.1325 55.7463 11.9336C55.5096 11.9372 55.272 11.939 55.0335 11.939C53.6398 11.939 52.2739 11.8762 50.9455 11.7559C50.4573 14.0761 48.7462 15.7798 44.0918 15.7798H40.1677V9.22681C39.3878 8.90357 38.6475 8.55585 37.9513 8.18609L37.8783 8.14699C37.1155 7.7386 36.3086 7.30663 35.4569 6.86786V12.743V14.5527V20.4311V22.2408V27.4031H34.0336C35.4218 28.0831 36.7024 28.7687 37.8782 29.3983L37.9513 29.4374C39.2376 30.1215 40.6742 30.7298 42.2334 31.2471ZM37.8782 31.208L37.9513 31.2471H31.5329V28.0574C33.9153 29.0863 36.0265 30.2166 37.8782 31.208ZM75.7472 21.0785C75.5187 24.9802 72.6452 27.8099 68.8815 27.8099C67.2264 27.8099 65.7391 27.2494 64.5779 26.2834C64.0576 25.8504 63.6027 25.336 63.2275 24.7541C62.4789 23.5928 62.0479 22.1625 62.0479 20.5743C62.0479 20.0517 62.0956 19.5452 62.1868 19.059C62.315 18.3755 62.5293 17.7323 62.818 17.1414C63.9407 14.8438 66.1891 13.3386 68.8815 13.3386C70.045 13.3386 71.1231 13.6126 72.0642 14.1052C72.5784 14.3744 73.0518 14.7089 73.4758 15.0997C74.6254 16.159 75.4127 17.6317 75.6702 19.3379C75.7306 19.738 75.7619 20.1509 75.7619 20.5743C75.7619 20.7442 75.757 20.9123 75.7472 21.0785Z" fill="#010202"/>
<path d="M37.9513 31.2471C42.2905 33.5516 48.3406 35 55.0335 35C61.3823 35 67.135 33.7181 71.3994 31.6303C70.5937 31.7933 69.7518 31.8785 68.8815 31.8785C68.0704 31.8785 67.2847 31.8045 66.5306 31.6625C63.1252 32.6359 59.2086 33.1903 55.0335 33.1903C50.3246 33.1903 45.9339 32.4749 42.2334 31.2471H37.9513Z" fill="#CCCCCC"/>
</svg>
