<svg width="40" height="34" viewBox="0 0 40 34" fill="none" xmlns="http://www.w3.org/2000/svg">
<path d="M27.1111 17C27.1111 20.9273 23.9273 24.1111 20 24.1111C16.0726 24.1111 12.8889 20.9273 12.8889 17C12.8889 13.0726 16.0726 9.88889 20 9.88889C23.9273 9.88889 27.1111 13.0726 27.1111 17ZM27.1111 17V19.6667C27.1111 22.1212 29.101 24.1111 31.5556 24.1111C34.0101 24.1111 36 22.1212 36 19.6667V17C36 8.16345 28.8366 1 20 1C11.1634 1 4 8.16345 4 17C4 25.8366 11.1634 33 20 33H27.1111" stroke="#E43D30" stroke-width="1.9593" stroke-linecap="round" stroke-linejoin="round"/>
</svg>
