<svg width="40" height="40" viewBox="0 0 40 40" fill="none" xmlns="http://www.w3.org/2000/svg">
<path d="M6.2438 1.5C6.2438 0.947715 5.79608 0.5 5.2438 0.5C4.69151 0.5 4.2438 0.947715 4.2438 1.5H6.2438ZM4.2438 8.98759C4.2438 9.53988 4.69151 9.98759 5.2438 9.98759C5.79608 9.98759 6.2438 9.53988 6.2438 8.98759L4.2438 8.98759ZM8.98759 6.2438C9.53988 6.2438 9.98759 5.79608 9.98759 5.2438C9.98759 4.69151 9.53988 4.2438 8.98759 4.2438V6.2438ZM1.5 4.2438C0.947715 4.2438 0.5 4.69151 0.5 5.2438C0.5 5.79608 0.947715 6.2438 1.5 6.2438L1.5 4.2438ZM6.2438 16.2562C6.2438 15.7039 5.79608 15.2562 5.2438 15.2562C4.69151 15.2562 4.2438 15.7039 4.2438 16.2562H6.2438ZM4.2438 23.7438C4.2438 24.2961 4.69151 24.7438 5.2438 24.7438C5.79608 24.7438 6.2438 24.2961 6.2438 23.7438H4.2438ZM8.98759 21C9.53988 21 9.98759 20.5523 9.98759 20C9.98759 19.4477 9.53988 19 8.98759 19V21ZM1.5 19C0.947715 19 0.5 19.4477 0.5 20C0.5 20.5523 0.947715 21 1.5 21V19ZM21 1.5C21 0.947715 20.5523 0.5 20 0.5C19.4477 0.5 19 0.947715 19 1.5H21ZM19 8.98759C19 9.53988 19.4477 9.98759 20 9.98759C20.5523 9.98759 21 9.53988 21 8.98759H19ZM23.7438 6.2438C24.2961 6.2438 24.7438 5.79608 24.7438 5.2438C24.7438 4.69151 24.2961 4.2438 23.7438 4.2438V6.2438ZM16.2562 4.2438C15.7039 4.2438 15.2562 4.69151 15.2562 5.2438C15.2562 5.79608 15.7039 6.2438 16.2562 6.2438V4.2438ZM35.7562 31.0124C35.7562 30.4601 35.3085 30.0124 34.7562 30.0124C34.2039 30.0124 33.7562 30.4601 33.7562 31.0124H35.7562ZM33.7562 38.5C33.7562 39.0523 34.2039 39.5 34.7562 39.5C35.3085 39.5 35.7562 39.0523 35.7562 38.5H33.7562ZM38.5 35.7562C39.0523 35.7562 39.5 35.3085 39.5 34.7562C39.5 34.2039 39.0523 33.7562 38.5 33.7562V35.7562ZM31.0124 33.7562C30.4601 33.7562 30.0124 34.2039 30.0124 34.7562C30.0124 35.3085 30.4601 35.7562 31.0124 35.7562V33.7562ZM19.9998 34.7558V35.7558C20.5521 35.7558 20.9998 35.3081 20.9998 34.7558H19.9998ZM19.9998 19.9996V18.9996C19.4475 18.9996 18.9998 19.4473 18.9998 19.9996H19.9998ZM34.756 19.9996V20.9996C35.3083 20.9996 35.756 20.5519 35.756 19.9996H34.756ZM4.2438 1.5V5.2438H6.2438V1.5H4.2438ZM4.2438 5.2438L4.2438 8.98759L6.2438 8.98759V5.2438L4.2438 5.2438ZM8.98759 4.2438H5.2438V6.2438H8.98759V4.2438ZM5.2438 4.2438L1.5 4.2438L1.5 6.2438L5.2438 6.2438L5.2438 4.2438ZM4.2438 16.2562V20H6.2438V16.2562H4.2438ZM4.2438 20L4.2438 23.7438H6.2438V20H4.2438ZM8.98759 19H5.2438V21H8.98759V19ZM5.2438 19H1.5V21H5.2438V19ZM19 1.5V5.2438H21V1.5H19ZM19 5.2438V8.98759H21V5.2438H19ZM23.7438 4.2438H20V6.2438H23.7438V4.2438ZM20 4.2438L16.2562 4.2438V6.2438L20 6.2438V4.2438ZM33.7562 31.0124V34.7562H35.7562V31.0124H33.7562ZM33.7562 34.7562V38.5H35.7562V34.7562H33.7562ZM38.5 33.7562H34.7562V35.7562H38.5V33.7562ZM34.7562 33.7562H31.0124V35.7562H34.7562V33.7562ZM9.12261 35.7558H19.9998V33.7558H9.12261V35.7558ZM20.9998 34.7558V19.9996H18.9998V34.7558H20.9998ZM19.9998 20.9996H34.756V18.9996H19.9998V20.9996ZM35.756 19.9996V8.82819H33.756V19.9996H35.756ZM37.4997 5.2437C37.4997 6.759 36.2713 7.9874 34.756 7.9874V9.9874C37.3759 9.9874 39.4997 7.86357 39.4997 5.2437H37.4997ZM34.756 7.9874C33.2407 7.9874 32.0123 6.759 32.0123 5.2437H30.0123C30.0123 7.86357 32.1361 9.9874 34.756 9.9874V7.9874ZM32.0123 5.2437C32.0123 3.7284 33.2407 2.5 34.756 2.5V0.5C32.1361 0.5 30.0123 2.62383 30.0123 5.2437H32.0123ZM34.756 2.5C36.2713 2.5 37.4997 3.7284 37.4997 5.2437H39.4997C39.4997 2.62383 37.3759 0.5 34.756 0.5V2.5ZM7.9874 34.7563C7.9874 36.2716 6.759 37.5 5.2437 37.5V39.5C7.86357 39.5 9.9874 37.3762 9.9874 34.7563H7.9874ZM5.2437 37.5C3.7284 37.5 2.5 36.2716 2.5 34.7563H0.5C0.5 37.3762 2.62383 39.5 5.2437 39.5V37.5ZM2.5 34.7563C2.5 33.241 3.7284 32.0126 5.2437 32.0126V30.0126C2.62383 30.0126 0.5 32.1364 0.5 34.7563H2.5ZM5.2437 32.0126C6.759 32.0126 7.9874 33.241 7.9874 34.7563H9.9874C9.9874 32.1364 7.86357 30.0126 5.2437 30.0126V32.0126Z" fill="#E43D30"/>
</svg>
