<svg width="26" height="27" viewBox="0 0 26 27" fill="none" xmlns="http://www.w3.org/2000/svg">
<path d="M10.4116 1.00863C8.29854 1.51871 6.35505 2.60819 4.78269 4.16406C3.21033 5.71993 2.06635 7.68552 1.46943 9.85696C0.872497 12.0284 0.844356 14.3266 1.38792 16.5132C1.93148 18.6998 3.02696 20.6951 4.56071 22.2922C6.09447 23.8893 8.01065 25.03 10.1105 25.5961C12.2103 26.1621 14.4174 26.1328 16.5027 25.5112C18.588 24.8896 20.4756 23.6984 21.9697 22.0611C23.4639 20.4237 24.5102 18.4 25 16.1997C25 15.8266 24.8577 15.4689 24.6044 15.2051C24.351 14.9413 24.0075 14.7931 23.6492 14.7931H14.4639C13.7474 14.7931 13.0603 14.4967 12.5536 13.9691C12.047 13.4416 11.7623 12.726 11.7623 11.9799V2.13389C11.7456 1.96725 11.6972 1.80573 11.62 1.65871C11.5428 1.51168 11.4384 1.38208 11.3127 1.2774C11.1871 1.17273 11.0427 1.09507 10.888 1.04894C10.7333 1.0028 10.5714 0.989098 10.4116 1.00863Z" stroke="#E43D30" stroke-width="2" stroke-linecap="round" stroke-linejoin="round"/>
<path d="M17.1655 1.4306C18.8806 2.05946 20.4384 3.08094 21.7241 4.41981C23.0099 5.75867 23.9909 7.38082 24.5948 9.16678H18.5163C18.158 9.16678 17.8144 9.01859 17.5611 8.75481C17.3078 8.49102 17.1655 8.13325 17.1655 7.76021V1.4306Z" stroke="#E43D30" stroke-width="2" stroke-linecap="round" stroke-linejoin="round"/>
</svg>
