<svg width="52" height="52" viewBox="0 0 52 52" fill="none" xmlns="http://www.w3.org/2000/svg">
<path d="M6.05918 1V6.05918M6.05918 6.05918L6.05918 11.1184M6.05918 6.05918H11.1184M6.05918 6.05918L1 6.05918M6.05918 20.9408V26M6.05918 26L6.05918 31.0592M6.05918 26H11.1184M6.05918 26H1M26 1V6.05918M26 6.05918V11.1184M26 6.05918H31.0592M26 6.05918L20.9408 6.05918M45.9408 40.8816V45.9408M45.9408 45.9408V51M45.9408 45.9408H51M45.9408 45.9408H40.8816M11.3008 45.9403H25.9998V25.9995H45.9406V10.903M50.9996 6.05905C50.9996 8.85309 48.7346 11.1181 45.9406 11.1181C43.1465 11.1181 40.8815 8.85309 40.8815 6.05905C40.8815 3.26501 43.1465 1 45.9406 1C48.7346 1 50.9996 3.26501 50.9996 6.05905ZM11.1181 45.9409C11.1181 48.735 8.85309 51 6.05905 51C3.26501 51 1 48.735 1 45.9409C1 43.1469 3.26501 40.8819 6.05905 40.8819C8.85309 40.8819 11.1181 43.1469 11.1181 45.9409Z" stroke="#E43D30" stroke-width="2" stroke-linecap="round" stroke-linejoin="round"/>
</svg>
