<svg width="41" height="52" viewBox="0 0 41 52" fill="none" xmlns="http://www.w3.org/2000/svg">
<path d="M12.1429 6.55568H6.57143C5.09379 6.55568 3.67668 7.14099 2.63183 8.18286C1.58699 9.22473 1 10.6378 1 12.1112V45.4446C1 46.918 1.58699 48.3311 2.63183 49.3729C3.67668 50.4148 5.09379 51.0001 6.57143 51.0001H34.4286C35.9062 51.0001 37.3233 50.4148 38.3682 49.3729C39.413 48.3311 40 46.918 40 45.4446V12.1112C40 10.6378 39.413 9.22473 38.3682 8.18286C37.3233 7.14099 35.9062 6.55568 34.4286 6.55568H28.8571M12.1429 6.55568C12.1429 5.08225 12.7298 3.66918 13.7747 2.62731C14.8195 1.58544 16.2367 1.00012 17.7143 1.00012H23.2857C24.7633 1.00012 26.1805 1.58544 27.2253 2.62731C28.2702 3.66918 28.8571 5.08225 28.8571 6.55568M12.1429 6.55568C12.1429 8.0291 12.7298 9.44218 13.7747 10.484C14.8195 11.5259 16.2367 12.1112 17.7143 12.1112H23.2857C24.7633 12.1112 26.1805 11.5259 27.2253 10.484C28.2702 9.44218 28.8571 8.0291 28.8571 6.55568M12.1429 39.889V28.7779M20.5 39.889V37.1112M28.8571 39.889V34.3335" stroke="#E43D30" stroke-width="2" stroke-linecap="round" stroke-linejoin="round"/>
</svg>
