<svg width="52" height="52" viewBox="0 0 52 52" fill="none" xmlns="http://www.w3.org/2000/svg">
<path d="M24.4583 50.7585C23.6857 50.5117 22.9916 50.0662 22.4455 49.4665C21.8994 48.8668 21.5207 48.1341 21.3472 47.3418C21.1697 46.609 20.8216 45.9285 20.3314 45.3557C19.8411 44.7828 19.2225 44.3339 18.526 44.0453C17.8294 43.7567 17.0745 43.6366 16.3228 43.6949C15.5711 43.7532 14.8438 43.9882 14.2 44.3807C9.91389 46.9918 5.00556 42.0862 7.61667 37.7973C8.00861 37.1539 8.2432 36.427 8.30134 35.6758C8.35949 34.9245 8.23956 34.1702 7.95131 33.4741C7.66306 32.7779 7.21461 32.1596 6.64242 31.6694C6.07024 31.1792 5.39046 30.8309 4.65833 30.6529C-0.219444 29.4696 -0.219444 22.5307 4.65833 21.3473C5.39111 21.1698 6.07161 20.8217 6.64444 20.3315C7.21728 19.8412 7.66626 19.2227 7.95485 18.5261C8.24344 17.8295 8.36347 17.0747 8.30519 16.3229C8.24691 15.5712 8.01195 14.8439 7.61944 14.2001C5.00833 9.91401 9.91389 5.00568 14.2028 7.61679C16.9806 9.30568 20.5806 7.81123 21.3472 4.65846C22.5306 -0.219322 29.4694 -0.219322 30.6528 4.65846C30.8303 5.39123 31.1784 6.07173 31.6686 6.64457C32.1589 7.2174 32.7775 7.66638 33.474 7.95497C34.1706 8.24356 34.9255 8.3636 35.6772 8.30531C36.4289 8.24703 37.1562 8.01207 37.8 7.61957C42.0861 5.00845 46.9944 9.91401 44.3833 14.2029C43.9914 14.8464 43.7568 15.5733 43.6987 16.3245C43.6405 17.0757 43.7604 17.83 44.0487 18.5262C44.3369 19.2223 44.7854 19.8406 45.3576 20.3308C45.9298 20.821 46.6095 21.1693 47.3417 21.3473C50.9806 22.2307 51.9056 26.3196 50.1111 28.8307M34.3333 45.4446L39.8889 51.0001L51 39.889M17.6667 26.0001C17.6667 28.2103 18.5446 30.3299 20.1074 31.8927C21.6702 33.4555 23.7899 34.3335 26 34.3335C28.2101 34.3335 30.3298 33.4555 31.8926 31.8927C33.4554 30.3299 34.3333 28.2103 34.3333 26.0001C34.3333 23.79 33.4554 21.6704 31.8926 20.1076C30.3298 18.5448 28.2101 17.6668 26 17.6668C23.7899 17.6668 21.6702 18.5448 20.1074 20.1076C18.5446 21.6704 17.6667 23.79 17.6667 26.0001Z" stroke="#E43D30" stroke-width="2" stroke-linecap="round" stroke-linejoin="round"/>
</svg>
