<svg width="36" height="38" viewBox="0 0 36 38" fill="none" xmlns="http://www.w3.org/2000/svg">
<path d="M21.6262 35.019V30.7921C22.4612 30.543 23.2624 30.2065 24.0295 29.7959L26.331 32.1113C26.6841 32.468 27.2612 32.468 27.6142 32.1113L31.4636 28.2479C31.8167 27.8911 31.8167 27.3123 31.4636 26.9623L29.1621 24.6469C29.5763 23.8796 29.9089 23.0719 30.1533 22.2305H33.4121C33.9145 22.2305 34.3219 21.82 34.3219 21.3219V15.8565C34.3219 15.3517 33.9145 14.9479 33.4121 14.9479H30.1533C29.9089 14.1132 29.5763 13.2988 29.1621 12.5315L31.4636 10.2161C31.8167 9.85939 31.8167 9.28054 31.4636 8.93054L27.6142 5.06708C27.2612 4.71035 26.6841 4.71035 26.331 5.06708L24.0295 7.38247C23.2624 6.96516 22.4612 6.63535 21.6262 6.38631V3.08151C21.6262 2.5767 21.2188 2.17285 20.7164 2.17285H15.2783C14.7759 2.17285 14.3686 2.58343 14.3686 3.08151V6.35939C13.5335 6.60843 12.7324 6.94497 11.9652 7.35554L9.66371 5.04016C9.31068 4.68343 8.7336 4.68343 8.38057 5.04016L4.53112 8.90362C4.17809 9.26035 4.17809 9.8392 4.53112 10.1892L6.83264 12.5046C6.41851 13.2719 6.08584 14.0796 5.84143 14.9209H2.58943C2.08704 14.9209 1.67969 15.3315 1.67969 15.8296V21.3017C1.69327 21.7998 2.09382 22.1969 2.58943 22.2104H5.84822C6.09263 23.045 6.42529 23.8594 6.83943 24.6267L4.53791 26.9421C4.18488 27.2988 4.18488 27.8777 4.53791 28.2277L8.38736 32.0911C8.74039 32.4479 9.31747 32.4479 9.6705 32.0911L11.972 29.7757C12.7392 30.193 13.5403 30.5229 14.3754 30.7719V34.9988C14.3754 35.443 14.7352 35.8065 15.1833 35.8065H20.8251C21.2663 35.8065 21.6262 35.443 21.6262 34.9988V35.019Z" stroke="#E43D30" stroke-width="2" stroke-linecap="round" stroke-linejoin="round"/>
<path d="M23.8381 24.445C20.6133 27.6825 15.3857 27.6825 12.1608 24.445C8.93598 21.2075 8.93598 15.9508 12.1608 12.7133C15.3857 9.47578 20.6133 9.47578 23.8381 12.7133C27.063 15.9508 27.063 21.2075 23.8381 24.445Z" stroke="#E43D30" stroke-width="2" stroke-linecap="round" stroke-linejoin="round"/>
</svg>
