<svg width="32" height="40" viewBox="0 0 32 40" fill="none" xmlns="http://www.w3.org/2000/svg">
<path d="M7.6001 7.40137H1.6001V11.4886C1.60019 12.4014 1.9339 13.2815 2.5361 13.957L10.6001 23.0014V38.6014L21.4001 34.9308V22.0837L29.3453 13.9827C30.0205 13.2945 30.3999 12.361 30.4001 11.3876V7.40137H23.8001" stroke="#E43D30" stroke-width="2" stroke-linecap="round" stroke-linejoin="round"/>
<path d="M15.7133 10.6445C14.8381 10.6445 13.9988 10.2904 13.3799 9.66007C12.7611 9.02974 12.4134 8.17481 12.4134 7.28338C12.4134 6.39195 12.7611 5.53703 13.3799 4.90669C13.9988 4.27635 14.8381 3.92223 15.7133 3.92223M15.7133 10.6445C16.5884 10.6445 17.4277 10.2904 18.0466 9.66007C18.6654 9.02974 19.0131 8.17481 19.0131 7.28338C19.0131 6.39195 18.6654 5.53703 18.0466 4.90669C17.4277 4.27635 16.5884 3.92223 15.7133 3.92223M15.7133 10.6445V13.1654M15.7133 3.92223V1.40137M20.7141 4.34238L18.5709 5.60281M12.8573 8.96396L10.7124 10.2244M10.7124 4.34238L12.8573 5.60281M18.5709 8.96396L20.7158 10.2244" stroke="#E43D30" stroke-width="2" stroke-linecap="round" stroke-linejoin="round"/>
</svg>
