<svg width="37" height="38" viewBox="0 0 37 38" fill="none" xmlns="http://www.w3.org/2000/svg">
<g clip-path="url(#clip0_14_1301)">
<path d="M7.70595 23.2844C5.44784 24.5592 3.62191 26.4794 2.46223 28.7988C1.30256 31.1181 0.861986 33.731 1.19699 36.3023C3.76838 36.6373 6.38122 36.1967 8.70056 35.0371C11.0199 33.8774 12.9401 32.0515 14.2149 29.7933M1.19699 21.1147C5.06568 21.5745 8.66721 23.3225 11.422 26.0773C14.1769 28.8321 15.9248 32.4336 16.3846 36.3023C18.3024 35.1967 19.9065 33.6202 21.0455 31.722C22.1844 29.8238 22.8205 27.6666 22.8935 25.4541C26.5366 24.1725 29.7178 21.8394 32.035 18.7499C34.3522 15.6603 35.7012 11.953 35.9114 8.09684C35.9114 6.37057 35.2256 4.71499 34.0049 3.49432C32.7844 2.27365 31.1287 1.58789 29.4025 1.58789C25.5463 1.79815 21.839 3.14715 18.7494 5.4643C15.6599 7.78146 13.3268 10.9627 12.0452 14.6058C9.83277 14.6788 7.67548 15.3149 5.77727 16.4538C3.87905 17.5928 2.30262 19.197 1.19699 21.1147ZM22.8935 12.4362C22.8935 13.0115 23.122 13.5635 23.5289 13.9704C23.9358 14.3773 24.4878 14.6058 25.0631 14.6058C25.6386 14.6058 26.1904 14.3773 26.5973 13.9704C27.0042 13.5635 27.2329 13.0115 27.2329 12.4362C27.2329 11.8607 27.0042 11.3089 26.5973 10.902C26.1904 10.4951 25.6386 10.2665 25.0631 10.2665C24.4878 10.2665 23.9358 10.4951 23.5289 10.902C23.122 11.3089 22.8935 11.8607 22.8935 12.4362Z" stroke="#E63E31" stroke-width="2" stroke-linecap="round" stroke-linejoin="round"/>
</g>
<defs>
<clipPath id="clip0_14_1301">
<rect width="37" height="37" fill="white" transform="translate(0 0.5)"/>
</clipPath>
</defs>
</svg>
