<svg width="40" height="36" viewBox="0 0 40 36" fill="none" xmlns="http://www.w3.org/2000/svg">
<path d="M1.5 8.98969V33.2387C1.5 34.2114 2.28586 35 3.25526 35H36.7447C37.7141 35 38.5 34.2114 38.5 33.2387V8.98969M1.5 8.98969V2.76133C1.5 1.78858 2.28585 1 3.25526 1H36.7447C37.7141 1 38.5 1.78857 38.5 2.76133V8.98969M1.5 8.98969H38.5M5.87764 5.07486H10.2798" stroke="#E43D30" stroke-width="2" stroke-linecap="round" stroke-linejoin="round"/>
<path d="M16 17.9785V28.9785C16 29.2437 15.8946 29.498 15.7071 29.6856C15.5196 29.8731 15.2652 29.9785 15 29.9785H14C13.7348 29.9785 13.4804 29.8731 13.2929 29.6856C13.1054 29.498 13 29.2437 13 28.9785V23.9785M27.6082 20.8206H31M27 17.5035L29.0019 15.2261M29.0019 26.2261L27 23.9486M22.524 14.2085L19.1125 17.0513C18.3937 17.6504 17.4875 17.9785 16.5518 17.9785H10C9.73478 17.9785 9.48043 18.0838 9.29289 18.2714C9.10536 18.4589 9 18.7132 9 18.9785V22.9785C9 23.2437 9.10536 23.498 9.29289 23.6856C9.48043 23.8731 9.73478 23.9785 10 23.9785H16.5518C17.4875 23.9785 18.3937 24.3065 19.1125 24.9056L22.524 27.7485C22.6555 27.858 22.8154 27.9277 22.9851 27.9496C23.1548 27.9714 23.3271 27.9444 23.482 27.8718C23.6369 27.7992 23.7679 27.6839 23.8597 27.5395C23.9514 27.3951 24.0001 27.2275 24 27.0565V14.9005C24.0001 14.7294 23.9514 14.5618 23.8597 14.4174C23.7679 14.273 23.6369 14.1577 23.482 14.0851C23.3271 14.0125 23.1548 13.9855 22.9851 14.0074C22.8154 14.0292 22.6555 14.099 22.524 14.2085Z" stroke="#E43D30" stroke-width="2" stroke-linecap="round" stroke-linejoin="round"/>
</svg>
