<svg width="39" height="40" viewBox="0 0 39 40" fill="none" xmlns="http://www.w3.org/2000/svg">
<path d="M36.3182 20H38M19.5 3.18182V1.5M19.5 38.5V36.8182M32.9545 33.4545L31.2727 31.7727M32.9545 6.54545L31.2727 8.22727M6.04545 33.4545L7.72727 31.7727M6.04545 6.54545L7.72727 8.22727M1 20H2.68182M16.0563 16.0018L18.6774 10.4442C19.014 9.73073 19.986 9.73073 20.3226 10.4442L22.9437 16.0018L28.8053 16.8986C29.5574 17.0136 29.8571 17.9811 29.3127 18.5361L25.0719 22.8593L26.0727 28.9664C26.2012 29.7508 25.4146 30.3489 24.7417 29.9784L19.5 27.0934L14.2582 29.9784C13.5853 30.3489 12.7987 29.7508 12.9272 28.9664L13.9281 22.8593L9.68735 18.5361C9.14286 17.9811 9.44261 17.0136 10.1947 16.8986L16.0563 16.0018Z" stroke="#E43D30" stroke-width="2" stroke-linecap="round" stroke-linejoin="round"/>
</svg>
