<svg width="40" height="40" viewBox="0 0 40 40" fill="none" xmlns="http://www.w3.org/2000/svg">
<path d="M11.6006 7.40137H5.60059V11.4886C5.60068 12.4014 5.93439 13.2815 6.53659 13.957L14.6006 23.0014V38.6014L25.4006 34.9308V22.0837L33.3458 13.9827C34.021 13.2945 34.4004 12.361 34.4006 11.3876V7.40137H27.8006" stroke="#E43D30" stroke-width="2" stroke-linecap="round" stroke-linejoin="round"/>
<path d="M19.7137 10.6445C18.8386 10.6445 17.9993 10.2904 17.3804 9.66007C16.7616 9.02974 16.4139 8.17481 16.4139 7.28338C16.4139 6.39195 16.7616 5.53703 17.3804 4.90669C17.9993 4.27635 18.8386 3.92223 19.7137 3.92223M19.7137 10.6445C20.5889 10.6445 21.4282 10.2904 22.0471 9.66007C22.6659 9.02974 23.0135 8.17481 23.0135 7.28338C23.0135 6.39195 22.6659 5.53703 22.0471 4.90669C21.4282 4.27635 20.5889 3.92223 19.7137 3.92223M19.7137 10.6445V13.1654M19.7137 3.92223V1.40137M24.7146 4.34238L22.5714 5.60281M16.8578 8.96396L14.7129 10.2244M14.7129 4.34238L16.8578 5.60281M22.5714 8.96396L24.7162 10.2244" stroke="#E43D30" stroke-width="2" stroke-linecap="round" stroke-linejoin="round"/>
</svg>
