<svg width="58" height="52" viewBox="0 0 58 52" fill="none" xmlns="http://www.w3.org/2000/svg">
<path d="M5.7666 28.3562L28.7847 51.0005L51.8027 28.3562C58.1629 22.0993 58.1558 11.9478 51.7956 5.69088C45.4432 -0.558309 35.1371 -0.565305 28.7847 5.68388C22.4324 -0.565305 12.1261 -0.558309 5.77372 5.69088C-0.586493 11.9478 -0.593609 22.0993 5.7666 28.3562Z" stroke="#E43D30" stroke-width="2" stroke-linecap="round" stroke-linejoin="round"/>
<path d="M33.0761 28.0269C32.0532 29.2586 30.5102 30.043 28.7839 30.043C27.0577 30.043 25.5146 29.2586 24.4918 28.0269M41.2144 24.4666C41.2144 31.3317 35.6491 36.897 28.7839 36.897C21.9188 36.897 16.3535 31.3317 16.3535 24.4666C16.3535 17.6014 21.9188 12.0361 28.7839 12.0361C35.6491 12.0361 41.2144 17.6014 41.2144 24.4666ZM25.9465 21.4888C25.9465 22.049 25.4924 22.5032 24.9321 22.5032C24.3719 22.5032 23.9177 22.049 23.9177 21.4888C23.9177 20.9285 24.3719 20.4744 24.9321 20.4744C25.4924 20.4744 25.9465 20.9285 25.9465 21.4888ZM33.3315 21.4888C33.3315 22.049 32.8773 22.5032 32.3171 22.5032C31.7568 22.5032 31.3027 22.049 31.3027 21.4888C31.3027 20.9285 31.7568 20.4744 32.3171 20.4744C32.8773 20.4744 33.3315 20.9285 33.3315 21.4888Z" stroke="#E43D30" stroke-width="2" stroke-linecap="round" stroke-linejoin="round"/>
</svg>
