<svg width="52" height="52" viewBox="0 0 52 52" fill="none" xmlns="http://www.w3.org/2000/svg">
<path d="M32.7032 19.5807C32.7032 15.9339 29.7928 12.9771 26.2032 12.9771C22.6137 12.9771 19.7033 15.9339 19.7033 19.5807C19.7033 23.2275 22.6137 26.1843 26.2032 26.1843C29.7928 26.1843 32.7032 29.1419 32.7032 32.7887C32.7032 36.4354 29.7928 39.3922 26.2032 39.3922C22.6137 39.3922 19.7032 36.4354 19.7032 32.7887M26.2019 12.9881V10.1846M26.2019 42.1846V39.3811M51 26.0005C51 39.8076 39.8071 51.0005 26 51.0005C12.1929 51.0005 1 39.8076 1 26.0005C1 12.1934 12.1929 1.00049 26 1.00049C39.8071 1.00049 51 12.1934 51 26.0005Z" stroke="#E43D30" stroke-width="2" stroke-linecap="round" stroke-linejoin="round"/>
</svg>
