<svg width="51" height="51" viewBox="0 0 51 51" fill="none" xmlns="http://www.w3.org/2000/svg">
<path d="M25.2281 12.3481C18.1181 12.3481 12.3281 18.1281 12.3281 25.2381C12.3281 32.3481 18.1181 38.1381 25.2281 38.1381C32.3381 38.1381 38.1181 32.3481 38.1181 25.2381C38.1181 18.1281 32.3381 12.3481 25.2281 12.3481Z" stroke="#E43D30" stroke-width="2" stroke-linecap="round" stroke-linejoin="round"/>
<path d="M18.9375 25.1381L23.0675 29.1881L31.3375 21.0381" stroke="#E43D30" stroke-width="2" stroke-linecap="round" stroke-linejoin="round"/>
<path d="M27.5975 2.05799L32.0575 7.06799C32.3575 7.40799 32.7975 7.58799 33.2475 7.55799L39.9475 7.16799C41.8375 7.05799 43.4075 8.61799 43.2975 10.518L42.9075 17.218C42.8775 17.668 43.0675 18.108 43.3975 18.408L48.4075 22.868C49.8175 24.128 49.8175 26.338 48.4075 27.598L43.3975 32.058C43.0575 32.358 42.8775 32.798 42.9075 33.248L43.2975 39.948C43.4075 41.838 41.8475 43.408 39.9475 43.298L33.2475 42.908C32.7975 42.878 32.3575 43.068 32.0575 43.398L27.5975 48.408C26.3375 49.818 24.1275 49.818 22.8675 48.408L18.4075 43.398C18.1075 43.058 17.6675 42.878 17.2175 42.908L10.5175 43.298C8.6275 43.408 7.0575 41.848 7.1675 39.948L7.5575 33.248C7.5875 32.798 7.3975 32.358 7.0675 32.058L2.0575 27.598C0.6475 26.338 0.6475 24.128 2.0575 22.868L7.0675 18.408C7.4075 18.108 7.5875 17.668 7.5575 17.218L7.1675 10.518C7.0575 8.62799 8.6175 7.05799 10.5175 7.16799L17.2175 7.55799C17.6675 7.58799 18.1075 7.39799 18.4075 7.06799L22.8675 2.05799C24.1275 0.647988 26.3375 0.647988 27.5975 2.05799Z" stroke="#E43D30" stroke-width="2" stroke-linecap="round" stroke-linejoin="round"/>
</svg>
