<svg width="54" height="52" viewBox="0 0 54 52" fill="none" xmlns="http://www.w3.org/2000/svg">
<path d="M4.5918 31.7744V47.2413C4.5918 49.3209 6.27146 51.0005 8.35103 51.0005C10.4306 51.0005 12.1103 49.3209 12.1103 47.2413V31.7744" stroke="#E43D30" stroke-width="2"/>
<path d="M30.4041 6.20947C25.5051 13.398 15.7871 12.9081 15.7871 12.9081H3.9794C2.32973 12.9081 1 14.2378 1 15.8875V28.6249C1 30.2747 2.32973 31.6044 3.9794 31.6044H15.697C15.697 31.6044 24.7651 31.5243 30.394 38.5429" stroke="#E43D30" stroke-width="2"/>
<path d="M34.634 43.192C32.4645 43.192 30.7148 41.3724 30.7148 39.1128V5.07967C30.7148 2.83012 32.4743 1.00049 34.634 1.00049C36.8035 1.00049 38.5531 2.82012 38.873 4.98969V39.0228C38.5531 41.3523 36.8035 43.182 34.634 43.182V43.192Z" stroke="#E43D30" stroke-width="2"/>
<path d="M46.1631 22.2974H53.9215" stroke="#E43D30" stroke-width="2"/>
<path d="M44.7715 15.278L49.3505 10.459" stroke="#E43D30" stroke-width="2"/>
<path d="M49.3505 33.7335L44.7715 28.9146" stroke="#E43D30" stroke-width="2"/>
</svg>
