<svg width="37" height="34" viewBox="0 0 37 34" fill="none" xmlns="http://www.w3.org/2000/svg">
<path d="M1 8.5202V31.3428C1 32.2583 1.73963 33.0005 2.65201 33.0005H34.1715C35.0839 33.0005 35.8235 32.2583 35.8235 31.3428V8.5202M1 8.5202V2.65821C1 1.74268 1.73963 1.00049 2.65201 1.00049H34.1715C35.0839 1.00049 35.8235 1.74268 35.8235 2.65821V8.5202M1 8.5202H35.8235M5.12013 4.83565H9.26335" stroke="#E43D30" stroke-width="1.8" stroke-linecap="round" stroke-linejoin="round"/>
<path d="M14.6468 16.9803V27.3332C14.6468 27.5828 14.5477 27.8222 14.3712 27.9987C14.1947 28.1752 13.9553 28.2744 13.7057 28.2744H12.7645C12.5149 28.2744 12.2755 28.1752 12.099 27.9987C11.9225 27.8222 11.8233 27.5828 11.8233 27.3332V22.6273M25.5722 19.6552H28.7645M24.9998 16.5333L26.8839 14.3898M26.8839 24.7427L24.9998 22.5992M20.7871 13.432L17.5763 16.1077C16.8997 16.6715 16.0469 16.9803 15.1662 16.9803H8.99977C8.75015 16.9803 8.51076 17.0794 8.33426 17.2559C8.15775 17.4324 8.05859 17.6718 8.05859 17.9215V21.6862C8.05859 21.9358 8.15775 22.1752 8.33426 22.3517C8.51076 22.5282 8.75015 22.6273 8.99977 22.6273H15.1662C16.0469 22.6273 16.8997 22.9361 17.5763 23.4999L20.7871 26.1756C20.9108 26.2786 21.0613 26.3443 21.221 26.3648C21.3807 26.3854 21.543 26.36 21.6888 26.2917C21.8345 26.2233 21.9578 26.1148 22.0442 25.9789C22.1305 25.843 22.1763 25.6853 22.1762 25.5243V14.0833C22.1763 13.9223 22.1305 13.7646 22.0442 13.6287C21.9578 13.4928 21.8345 13.3843 21.6888 13.3159C21.543 13.2476 21.3807 13.2222 21.221 13.2428C21.0613 13.2633 20.9108 13.329 20.7871 13.432Z" stroke="#E43D30" stroke-width="1.8" stroke-linecap="round" stroke-linejoin="round"/>
</svg>
