<svg width="34" height="34" viewBox="0 0 34 34" fill="none" xmlns="http://www.w3.org/2000/svg">
<path d="M31.5455 17.0005H33M17 2.45503V1.00049M17 33.0005V31.5459M28.6364 28.6369L27.1818 27.1823M28.6364 5.36412L27.1818 6.81867M5.36364 28.6369L6.81818 27.1823M5.36364 5.36412L6.81818 6.81867M1 17.0005H2.45455M14.0217 13.5426L16.2886 8.73599C16.5796 8.11896 17.4204 8.11896 17.7114 8.73599L19.9783 13.5426L25.0479 14.3182C25.6983 14.4177 25.9575 15.2545 25.4867 15.7345L21.8189 19.4734L22.6845 24.7553C22.7956 25.4337 22.1153 25.9509 21.5334 25.6305L17 23.1353L12.4666 25.6305C11.8846 25.9509 11.2043 25.4337 11.3154 24.7553L12.181 19.4734L8.51338 15.7345C8.04247 15.2545 8.30172 14.4177 8.95216 14.3182L14.0217 13.5426Z" stroke="#E43D30" stroke-width="2" stroke-linecap="round" stroke-linejoin="round"/>
</svg>
