<svg width="31" height="34" viewBox="0 0 31 34" fill="none" xmlns="http://www.w3.org/2000/svg">
<path d="M0.29015 14.8461C-0.0988533 15.2382 -0.0963923 15.8713 0.295647 16.2603C0.687686 16.6493 1.32085 16.6469 1.70985 16.2548L0.29015 14.8461ZM11.4302 5.0389L12.14 4.33455C11.9523 4.14533 11.6967 4.0389 11.4302 4.0389C11.1636 4.0389 10.9081 4.14533 10.7203 4.33455L11.4302 5.0389ZM18.2115 11.8731L17.5017 12.5775C17.6894 12.7667 17.9449 12.8731 18.2115 12.8731C18.4781 12.8731 18.7336 12.7667 18.9213 12.5775L18.2115 11.8731ZM30 0.996605C29.9978 0.444324 29.5484 -0.0016489 28.9961 0.000495851L19.9962 0.0354456C19.4439 0.0375903 18.9979 0.487041 19.0001 1.03932C19.0022 1.5916 19.4517 2.03758 20.004 2.03543L28.0039 2.00436L28.035 10.0043C28.0371 10.5566 28.4866 11.0026 29.0388 11.0004C29.5911 10.9983 30.0371 10.5488 30.0349 9.99654L30 0.996605ZM2 20.9622C2 20.4099 1.55228 19.9622 1 19.9622C0.447715 19.9622 0 20.4099 0 20.9622H2ZM0 33.0005C0 33.5528 0.447715 34.0005 1 34.0005C1.55228 34.0005 2 33.5528 2 33.0005H0ZM30 14.6354C30 14.0831 29.5523 13.6354 29 13.6354C28.4477 13.6354 28 14.0831 28 14.6354H30ZM28 33.0005C28 33.5528 28.4477 34.0005 29 34.0005C29.5523 34.0005 30 33.5528 30 33.0005H28ZM10.2752 14.6353C10.2752 14.083 9.82746 13.6353 9.27518 13.6353C8.72289 13.6353 8.27518 14.083 8.27518 14.6353H10.2752ZM8.27518 33.0005C8.27518 33.5528 8.72289 34.0005 9.27518 34.0005C9.82746 34.0005 10.2752 33.5528 10.2752 33.0005H8.27518ZM20.3018 17.4278C20.3018 16.8755 19.8541 16.4278 19.3018 16.4278C18.7495 16.4278 18.3018 16.8755 18.3018 17.4278H20.3018ZM18.3018 33.0005C18.3018 33.5528 18.7495 34.0005 19.3018 34.0005C19.8541 34.0005 20.3018 33.5528 20.3018 33.0005H18.3018ZM1 15.5505L1.70985 16.2548L12.14 5.74326L11.4302 5.0389L10.7203 4.33455L0.29015 14.8461L1 15.5505ZM11.4302 5.0389L10.7203 5.74326L17.5017 12.5775L18.2115 11.8731L18.9213 11.1687L12.14 4.33455L11.4302 5.0389ZM18.2115 11.8731L18.9213 12.5775L29.7098 1.70484L29 1.00049L28.2902 0.296133L17.5017 11.1687L18.2115 11.8731ZM1 20.9622H0V33.0005H1H2V20.9622H1ZM29 14.6354H28V33.0005H29H30V14.6354H29ZM9.27518 14.6353H8.27518V33.0005H9.27518H10.2752V14.6353H9.27518ZM19.3018 17.4278H18.3018V33.0005H19.3018H20.3018V17.4278H19.3018Z" fill="#E43D30"/>
</svg>
