<svg width="32" height="32" viewBox="0 0 32 32" fill="none" xmlns="http://www.w3.org/2000/svg">
<g clip-path="url(#clip0_14_1470)">
<path d="M4.92977 0.941665C4.92977 0.421867 4.50839 0.000488281 3.98859 0.000488281C3.46879 0.000488281 3.04742 0.421867 3.04742 0.941665H4.92977ZM3.04742 7.0365C3.04742 7.55629 3.46879 7.97767 3.98859 7.97767C4.50839 7.97767 4.92977 7.55629 4.92977 7.0365H3.04742ZM7.03601 4.93026C7.5558 4.93026 7.97719 4.50887 7.97719 3.98908C7.97719 3.46928 7.5558 3.0479 7.03601 3.0479V4.93026ZM0.941176 3.0479C0.421379 3.0479 5.60984e-08 3.46928 0 3.98908C0 4.50887 0.421379 4.93026 0.941176 4.93026V3.0479ZM4.92977 12.9531C4.92977 12.4332 4.50839 12.0119 3.98859 12.0119C3.46879 12.0119 3.04742 12.4332 3.04742 12.9531H4.92977ZM3.04742 19.0479C3.04742 19.5677 3.46879 19.9891 3.98859 19.9891C4.50839 19.9891 4.92977 19.5677 4.92977 19.0479H3.04742ZM7.03601 16.9417C7.5558 16.9417 7.97719 16.5203 7.97719 16.0005C7.97719 15.4807 7.5558 15.0593 7.03601 15.0593V16.9417ZM0.941176 15.0593C0.421379 15.0593 0 15.4807 0 16.0005C0 16.5203 0.421379 16.9417 0.941176 16.9417V15.0593ZM16.9412 0.941665C16.9412 0.421867 16.5198 0.000488281 16 0.000488281C15.4802 0.000488281 15.0588 0.421867 15.0588 0.941665H16.9412ZM15.0588 7.0365C15.0588 7.55629 15.4802 7.97767 16 7.97767C16.5198 7.97767 16.9412 7.55629 16.9412 7.0365H15.0588ZM19.0474 4.93026C19.5672 4.93026 19.9886 4.50887 19.9886 3.98908C19.9886 3.46928 19.5672 3.0479 19.0474 3.0479V4.93026ZM12.9526 3.0479C12.4328 3.0479 12.0114 3.46928 12.0114 3.98908C12.0114 4.50887 12.4328 4.93026 12.9526 4.93026V3.0479ZM28.9526 24.9644C28.9526 24.4447 28.5312 24.0233 28.0114 24.0233C27.4916 24.0233 27.0702 24.4447 27.0702 24.9644H28.9526ZM27.0702 31.0593C27.0702 31.5791 27.4916 32.0005 28.0114 32.0005C28.5312 32.0005 28.9526 31.5791 28.9526 31.0593H27.0702ZM31.0588 28.9531C31.5786 28.9531 32 28.5317 32 28.0119C32 27.4921 31.5786 27.0707 31.0588 27.0707V28.9531ZM24.964 27.0707C24.4442 27.0707 24.0228 27.4921 24.0228 28.0119C24.0228 28.5317 24.4442 28.9531 24.964 28.9531V27.0707ZM15.9998 28.0116V28.9528C16.5196 28.9528 16.941 28.5314 16.941 28.0116H15.9998ZM15.9998 16.0002V15.059C15.4801 15.059 15.0586 15.4804 15.0586 16.0002H15.9998ZM28.0113 16.0002V16.9414C28.5311 16.9414 28.9525 16.52 28.9525 16.0002H28.0113ZM3.04742 0.941665V3.98908H4.92977V0.941665H3.04742ZM3.04742 3.98908V7.0365H4.92977V3.98908H3.04742ZM7.03601 3.0479H3.98859V4.93026H7.03601V3.0479ZM3.98859 3.0479H0.941176V4.93026H3.98859V3.0479ZM3.04742 12.9531V16.0005H4.92977V12.9531H3.04742ZM3.04742 16.0005V19.0479H4.92977V16.0005H3.04742ZM7.03601 15.0593H3.98859V16.9417H7.03601V15.0593ZM3.98859 15.0593H0.941176V16.9417H3.98859V15.0593ZM15.0588 0.941665V3.98908H16.9412V0.941665H15.0588ZM15.0588 3.98908V7.0365H16.9412V3.98908H15.0588ZM19.0474 3.0479H16V4.93026H19.0474V3.0479ZM16 3.0479H12.9526V4.93026H16V3.0479ZM27.0702 24.9644V28.0119H28.9526V24.9644H27.0702ZM27.0702 28.0119V31.0593H28.9526V28.0119H27.0702ZM31.0588 27.0707H28.0114V28.9531H31.0588V27.0707ZM28.0114 27.0707H24.964V28.9531H28.0114V27.0707ZM7.14591 28.9528H15.9998V27.0704H7.14591V28.9528ZM16.941 28.0116V16.0002H15.0586V28.0116H16.941ZM15.9998 16.9414H28.0113V15.059H15.9998V16.9414ZM28.9525 16.0002V6.90674H27.0701V16.0002H28.9525ZM30.1175 3.989C30.1175 5.1522 29.1745 6.09516 28.0113 6.09516V7.97751C30.214 7.97751 31.9998 6.19179 31.9998 3.989H30.1175ZM28.0113 6.09516C26.8481 6.09516 25.9051 5.1522 25.9051 3.989H24.0228C24.0228 6.19179 25.8085 7.97751 28.0113 7.97751V6.09516ZM25.9051 3.989C25.9051 2.8258 26.8481 1.88284 28.0113 1.88284V0.000488281C25.8085 0.000488281 24.0228 1.7862 24.0228 3.989H25.9051ZM28.0113 1.88284C29.1745 1.88284 30.1175 2.8258 30.1175 3.989H31.9998C31.9998 1.7862 30.214 0.000488281 28.0113 0.000488281V1.88284ZM6.09467 28.012C6.09467 29.1752 5.15171 30.1181 3.98851 30.1181V32.0005C6.1913 32.0005 7.97703 30.2148 7.97703 28.012H6.09467ZM3.98851 30.1181C2.82531 30.1181 1.88235 29.1752 1.88235 28.012H0C0 30.2148 1.78571 32.0005 3.98851 32.0005V30.1181ZM1.88235 28.012C1.88235 26.8488 2.82531 25.9058 3.98851 25.9058V24.0235C1.78571 24.0235 0 25.8091 0 28.012H1.88235ZM3.98851 25.9058C5.15171 25.9058 6.09467 26.8488 6.09467 28.012H7.97703C7.97703 25.8091 6.1913 24.0235 3.98851 24.0235V25.9058Z" fill="#E43D30"/>
</g>
<defs>
<clipPath id="clip0_14_1470">
<rect width="32" height="32" fill="white" transform="translate(0 0.000488281)"/>
</clipPath>
</defs>
</svg>
