<svg width="38" height="38" viewBox="0 0 38 38" fill="none" xmlns="http://www.w3.org/2000/svg">
<path d="M22.9193 8.93113L19.748 12.0531L16.5768 8.93113C16.3676 8.7288 16.2029 8.48562 16.0929 8.21689C15.9829 7.94816 15.9301 7.65971 15.9378 7.3697C15.9455 7.07969 16.0135 6.7944 16.1375 6.5318C16.2616 6.2692 16.439 6.03497 16.6586 5.84387C16.8782 5.65277 17.1352 5.50894 17.4135 5.42143C17.6918 5.33392 17.9852 5.30463 18.2755 5.33541C18.5657 5.36618 18.8463 5.45635 19.0998 5.60024C19.3532 5.74413 19.5739 5.93862 19.748 6.17146C19.9229 5.94031 20.1439 5.74752 20.3971 5.60516C20.6504 5.46279 20.9305 5.37393 21.2199 5.34411C21.5093 5.3143 21.8017 5.34419 22.079 5.4319C22.3562 5.51962 22.6123 5.66327 22.8311 5.85387C23.0499 6.04447 23.2268 6.27792 23.3507 6.5396C23.4746 6.80128 23.5428 7.08556 23.5511 7.37465C23.5594 7.66374 23.5075 7.95141 23.3988 8.21967C23.2901 8.48793 23.1268 8.73099 22.9193 8.93365M5.25326 26.0523L11.4968 19.7464H22.9175C24.2677 19.7464 25.3685 20.8495 25.3685 22.2218C25.3685 23.5855 24.2763 24.6973 22.9175 24.6973H16.7084M11.8324 32.6973L25.0505 30.9167L36.239 19.5818C36.7263 19.0884 37 18.4199 37 17.723C37 17.0261 36.7263 16.3576 36.239 15.8643C35.7505 15.372 35.0886 15.0956 34.3986 15.0956C33.7086 15.0956 33.0467 15.372 32.5582 15.8643L28.4388 20.0247M19.7445 15.4204C15.8018 15.4204 12.6055 12.1917 12.6055 8.21022C12.6055 4.22875 15.8018 1 19.7445 1C23.6872 1 26.8835 4.22875 26.8835 8.21022C26.8835 12.1917 23.6872 15.4204 19.7445 15.4204ZM12.0039 34.3204L9.64755 36.7003C9.25195 37.0999 8.61556 37.0999 8.21996 36.7003L1.29702 29.7083C1.2029 29.6138 1.12819 29.5015 1.07722 29.3778C1.02624 29.2541 1 29.1214 1 28.9874C1 28.8534 1.02624 28.7207 1.07722 28.597C1.12819 28.4732 1.2029 28.3609 1.29702 28.2665L3.6534 25.8866C4.049 25.487 4.68539 25.487 5.08099 25.8866L12.0039 32.8786C12.3995 33.2695 12.3995 33.9209 12.0039 34.3204Z" stroke="#E63E31" stroke-width="2" stroke-linecap="round" stroke-linejoin="round"/>
</svg>
