<svg width="32" height="32" viewBox="0 0 32 32" fill="none" xmlns="http://www.w3.org/2000/svg">
<path d="M29.1818 16H30.5M16 2.36364V1M16 31V29.6364M26.5455 26.9091L25.2273 25.5455M26.5455 5.09091L25.2273 6.45455M5.45455 26.9091L6.77273 25.5455M5.45455 5.09091L6.77273 6.45455M1.5 16H2.81818M13.3009 12.7583L15.3553 8.25204C15.619 7.67357 16.381 7.67357 16.6447 8.25204L18.6991 12.7583L23.2934 13.4853C23.8829 13.5786 24.1178 14.3631 23.6911 14.8131L20.3671 18.3183L21.1516 23.2701C21.2523 23.9061 20.6358 24.391 20.1084 24.0906L16 21.7514L11.8916 24.0906C11.3642 24.391 10.7476 23.9061 10.8484 23.2701L11.6328 18.3183L8.309 14.8131C7.88224 14.3631 8.11718 13.5786 8.70665 13.4853L13.3009 12.7583Z" stroke="#E43D30" stroke-width="2" stroke-linecap="round" stroke-linejoin="round"/>
</svg>
