<svg width="32" height="40" viewBox="0 0 32 40" fill="none" xmlns="http://www.w3.org/2000/svg">
<path d="M7.71429 21.0278V28.7361C7.71429 30.7218 11.4221 32.3333 16 32.3333C20.5779 32.3333 24.2857 30.7218 24.2857 28.7361V21.0278M20.1429 1.5V9.72222C20.1429 10.2674 20.3611 10.7902 20.7496 11.1757C21.138 11.5612 21.6649 11.7778 22.2143 11.7778H30.5M20.1429 1.5H5.64286C4.5441 1.5 3.49035 1.93313 2.71341 2.70412C1.93648 3.4751 1.5 4.52078 1.5 5.61111V34.3889C1.5 35.4792 1.93648 36.5249 2.71341 37.2959C3.49035 38.0669 4.5441 38.5 5.64286 38.5H26.3571C27.4559 38.5 28.5096 38.0669 29.2866 37.2959C30.0635 36.5249 30.5 35.4792 30.5 34.3889V11.7778M20.1429 1.5L30.5 11.7778M7.71429 21.5417C7.71429 22.4957 8.58724 23.4107 10.1411 24.0853C11.695 24.7599 13.8025 25.1389 16 25.1389C18.1975 25.1389 20.305 24.7599 21.8589 24.0853C23.4128 23.4107 24.2857 22.4957 24.2857 21.5417C24.2857 20.5876 23.4128 19.6727 21.8589 18.998C20.305 18.3234 18.1975 17.9444 16 17.9444C13.8025 17.9444 11.695 18.3234 10.1411 18.998C8.58724 19.6727 7.71429 20.5876 7.71429 21.5417Z" stroke="#E43D30" stroke-width="2" stroke-linecap="round" stroke-linejoin="round"/>
</svg>
