<svg width="53" height="52" viewBox="0 0 53 52" fill="none" xmlns="http://www.w3.org/2000/svg">
<path d="M33.2032 19.5802C33.2032 15.9335 30.2928 12.9766 26.7032 12.9766C23.1137 12.9766 20.2033 15.9335 20.2033 19.5802C20.2033 23.227 23.1137 26.1838 26.7032 26.1838C30.2928 26.1838 33.2032 29.1414 33.2032 32.7882C33.2032 36.4349 30.2928 39.3918 26.7032 39.3918C23.1137 39.3918 20.2032 36.4349 20.2032 32.7882M26.7019 12.9876V10.1841M26.7019 42.1841V39.3806M51.5 26C51.5 39.8071 40.3071 51 26.5 51C12.6929 51 1.5 39.8071 1.5 26C1.5 12.1929 12.6929 1 26.5 1C40.3071 1 51.5 12.1929 51.5 26Z" stroke="#E43D30" stroke-width="2" stroke-linecap="round" stroke-linejoin="round"/>
</svg>
