<svg width="61" height="52" viewBox="0 0 61 52" fill="none" xmlns="http://www.w3.org/2000/svg">
<path d="M6.67066 33.0815C-0.890221 24.2224 -0.890221 9.85905 6.67066 1M10.7201 28.3368C5.39561 22.0981 5.39561 11.9833 10.7201 5.74467M14.8501 23.4976C11.8066 19.9316 11.8066 14.1499 14.8501 10.5838M54.1886 33.0815C61.7495 24.2224 61.7495 9.85905 54.1886 1M50.1392 28.3368C55.4637 22.0981 55.4637 11.9833 50.1392 5.74467M46.0092 23.4976C49.0527 19.9316 49.0527 14.1499 46.0092 10.5838M11.8679 51L18.482 35.2637C19.1057 33.7796 20.5586 32.8143 22.1685 32.8143H38.6909C40.3007 32.8143 41.7536 33.7796 42.3774 35.2637L48.9915 51M19.4879 50.9996L22.4594 41.6315M41.3715 50.9996L38.4 41.6315M39.1429 17.5526C39.1429 22.3648 35.2419 26.2658 30.4297 26.2658C25.6175 26.2658 21.7165 22.3648 21.7165 17.5526C21.7165 12.7404 25.6175 8.83941 30.4297 8.83941C35.2419 8.83941 39.1429 12.7404 39.1429 17.5526Z" stroke="#E43D30" stroke-width="2" stroke-linecap="round" stroke-linejoin="round"/>
</svg>
