<svg width="150" height="31" viewBox="0 0 150 31" fill="none" xmlns="http://www.w3.org/2000/svg">
<g clip-path="url(#clip0_388_161)">
<path d="M82.6378 2.97754C90.2446 2.97754 96.3308 9.10347 96.3308 16.7103C96.3308 24.3171 90.2446 30.3676 82.6378 30.3676C75.031 30.3676 68.9805 24.3171 68.9805 16.7103C68.9805 9.10347 75.031 2.97754 82.6378 2.97754ZM82.6378 25.4247C87.4297 25.4247 91.388 21.5062 91.388 16.7142C91.388 11.9223 87.4337 7.92831 82.6378 7.92831C77.8418 7.92831 73.9273 11.9223 73.9273 16.7142C73.9273 21.5062 77.8458 25.4247 82.6378 25.4247Z" fill="white"/>
<path d="M96.8802 4.34721C96.6539 3.85491 96.9556 3.35864 97.5273 3.35864H101.406C101.748 3.35864 101.978 3.58494 102.053 3.77551L109.358 20.1325H109.624L116.929 3.77551C117.005 3.58494 117.235 3.35864 117.577 3.35864H121.455C122.027 3.35864 122.329 3.85491 122.103 4.34721L110.311 29.9507C110.196 30.1809 110.005 30.3675 109.664 30.3675H109.283C108.941 30.3675 108.751 30.177 108.636 29.9507L96.8802 4.34721Z" fill="white"/>
<path d="M136.306 2.97754C143.913 2.97754 149.999 9.10347 149.999 16.7103C149.999 24.3171 143.913 30.3676 136.306 30.3676C128.699 30.3676 122.648 24.3171 122.648 16.7103C122.648 9.10347 128.699 2.97754 136.306 2.97754ZM136.306 25.4247C141.098 25.4247 145.056 21.5062 145.056 16.7142C145.056 11.9223 141.102 7.92831 136.306 7.92831C131.51 7.92831 127.595 11.9223 127.595 16.7142C127.595 21.5062 131.514 25.4247 136.306 25.4247Z" fill="white"/>
<path d="M31.3131 30.1215C30.9161 30.1215 30.5985 29.8 30.5985 29.4069V14.9794C30.5985 10.6281 27.8949 7.8133 23.7143 7.8133C19.5337 7.8133 16.8856 10.6242 16.8856 14.9794V29.4069C16.8856 29.8039 16.5641 30.1215 16.171 30.1215H12.5701C12.1731 30.1215 11.8555 29.8 11.8555 29.4069V14.9794C11.8555 7.29321 16.0876 3.06104 23.7738 3.06104C31.46 3.06104 35.6922 7.29321 35.6922 14.9794V29.4069C35.6922 29.8039 35.3706 30.1215 34.9776 30.1215H31.3211H31.3131Z" fill="white"/>
<path d="M60.4616 30.1215C60.0646 30.1215 59.747 29.8 59.747 29.4069V14.9794C59.747 10.6281 57.0433 7.8133 52.8627 7.8133C48.6822 7.8133 46.0341 10.6242 46.0341 14.9794V29.4069C46.0341 29.8039 45.7125 30.1215 45.3195 30.1215H41.7185C41.3215 30.1215 41.0039 29.8 41.0039 29.4069V14.9794C41.0039 7.29321 45.2361 3.06104 52.9223 3.06104C60.6085 3.06104 64.8407 7.29321 64.8407 14.9794V29.4069C64.8407 29.8039 64.5191 30.1215 64.126 30.1215H60.4695H60.4616Z" fill="white"/>
<path d="M3.35874 6.71748C5.2128 6.71748 6.71748 5.2128 6.71748 3.35874C6.71748 1.50468 5.2128 0 3.35874 0C1.50468 0 0 1.50468 0 3.35874C0 5.2128 1.50468 6.71748 3.35874 6.71748Z" fill="white"/>
<path d="M1.58975 9.54419H5.13112C5.53211 9.54419 5.85369 9.86974 5.85369 10.2668V29.3949C5.85369 29.7919 5.52814 30.1175 5.13112 30.1175H1.58975C1.18877 30.1175 0.867188 29.7919 0.867188 29.3949V10.2668C0.867188 9.86974 1.19274 9.54419 1.58975 9.54419Z" fill="white"/>
</g>
<defs>
<clipPath id="clip0_388_161">
<rect width="150" height="30.3676" fill="white"/>
</clipPath>
</defs>
</svg>
