<svg width="34" height="34" viewBox="0 0 34 34" fill="none" xmlns="http://www.w3.org/2000/svg">
<path d="M23.5425 6.11287H28.1362C28.2737 6.11287 28.3857 6.00158 28.3857 5.86344V1.26953" stroke="white" stroke-width="2" stroke-linecap="round"/>
<path d="M5.61279 32.731V28.137C5.61279 27.9989 5.72447 27.8877 5.862 27.8877H10.456" stroke="white" stroke-width="2" stroke-linecap="round"/>
<path d="M3.14553 24.9989C1.74217 22.573 1 19.8072 1 16.9999C1 8.17754 8.17769 1 17 1C21.2706 1 25.2869 2.66554 28.3094 5.69046" stroke="white" stroke-width="2" stroke-linecap="round"/>
<path d="M5.69043 28.309C8.71291 31.3339 12.7292 32.9995 16.9998 32.9995C25.8221 32.9995 32.9995 25.8214 32.9995 16.999C32.9995 14.1911 32.2576 11.4253 30.8542 9" stroke="white" stroke-width="2" stroke-linecap="round"/>
<path d="M18.9616 25.0921H15.0406C14.9024 25.0921 14.7911 24.9802 14.7911 24.8426V23.0652C14.0863 22.8085 13.4372 22.4326 12.8571 21.9449L11.3151 22.8354C11.2576 22.8678 11.1891 22.877 11.1255 22.8605C11.062 22.8434 11.0069 22.8018 10.9739 22.7443L9.01314 19.3485C8.98013 19.291 8.97096 19.2231 8.98807 19.1589C9.00518 19.0948 9.04701 19.0403 9.10446 19.0073L10.6403 18.1205C10.5755 17.7519 10.5433 17.376 10.5433 17.0001C10.5433 16.6242 10.5755 16.2477 10.6403 15.8798L9.10446 14.9929C9.04701 14.9599 9.00518 14.9049 8.98807 14.8413C8.97096 14.7778 8.97952 14.7093 9.01314 14.6518L10.9739 11.2559C11.0069 11.1985 11.062 11.1569 11.1255 11.1398C11.1891 11.1226 11.2576 11.1312 11.3151 11.1648L12.8571 12.0554C13.4372 11.5683 14.0863 11.1923 14.7911 10.9356V9.15756C14.7911 9.01942 14.903 8.9082 15.0406 8.9082H18.9616C19.0997 8.9082 19.2108 9.02003 19.2108 9.15756V10.9356C19.9155 11.1923 20.5646 11.5683 21.1447 12.0554L22.6874 11.1648C22.7448 11.1318 22.8133 11.1226 22.8769 11.1398C22.9404 11.1569 22.9955 11.1985 23.0285 11.2559L24.9893 14.6518C25.0583 14.771 25.0174 14.9238 24.8983 14.9929L23.3622 15.8798C23.4263 16.2489 23.4594 16.6248 23.4594 17.0001C23.4594 17.3754 23.4269 17.7519 23.3622 18.1205L24.8983 19.0073C25.0174 19.0764 25.0583 19.2287 24.9893 19.3485L23.0285 22.7443C22.9955 22.8018 22.9404 22.8434 22.8769 22.8605C22.8133 22.877 22.7448 22.8684 22.6874 22.8354L21.1447 21.9449C20.564 22.4326 19.9149 22.8085 19.2108 23.0652V24.8426C19.2108 24.9808 19.0991 25.0921 18.9616 25.0921Z" stroke="white" stroke-width="2" stroke-linecap="round"/>
<path d="M16.9998 19.8638C15.421 19.8638 14.1362 18.5791 14.1362 17.0003C14.1362 15.4215 15.421 14.1367 16.9998 14.1367C18.5786 14.1367 19.8634 15.4215 19.8634 17.0003C19.8634 18.5791 18.5786 19.8638 16.9998 19.8638Z" stroke="white" stroke-width="2" stroke-linecap="round"/>
</svg>
