<svg width="134" height="23" viewBox="0 0 134 23" fill="none" xmlns="http://www.w3.org/2000/svg">
<path d="M78.1978 11.5448C78.1978 14.8171 78.1644 18.09 78.2175 21.3612C78.234 22.3752 78.0292 22.8242 76.8823 22.7863C74.3694 22.703 71.8498 22.8263 69.3362 22.7529C63.4069 22.5797 58.6003 17.9083 58.3094 12.1126C58.0069 6.08681 62.1733 0.935862 68.1721 0.289709C71.1819 -0.0342452 74.2478 0.180788 77.2875 0.107705C78.3004 0.0834607 78.2252 0.717667 78.2245 1.37717C78.221 4.7664 78.2228 8.15527 78.2228 11.5445L78.1978 11.5448ZM74.2798 11.6148C74.2798 9.45285 74.2679 7.29092 74.2868 5.12935C74.2928 4.46809 74.2187 3.99516 73.3659 4.03276C71.7317 4.10443 70.0772 3.97794 68.4623 4.18138C64.8746 4.63323 62.2555 7.69218 62.2011 11.2912C62.1463 14.92 64.6251 18.0025 68.1545 18.7035C69.7796 19.026 71.4254 18.7808 73.0543 18.9027C74.1217 18.9825 74.3244 18.5081 74.2995 17.5738C74.2461 15.5887 74.2837 13.601 74.2798 11.6148Z" fill="white"/>
<path d="M19.8964 11.5781C19.8964 14.8504 19.8588 18.1233 19.9182 21.3948C19.9372 22.4405 19.6835 22.8294 18.5616 22.7883C16.166 22.7001 13.7645 22.7883 11.3661 22.756C5.01948 22.6713 0.0656445 17.7751 0.000642781 11.5507C-0.064359 5.33586 4.80831 0.306835 11.1342 0.12729C13.6482 0.0559639 16.1671 0.164886 18.6807 0.0907486C19.7341 0.0598288 19.9456 0.46565 19.933 1.41046C19.8884 4.79898 19.9154 8.18856 19.9154 11.5778C19.9091 11.5778 19.9028 11.5778 19.8961 11.5778L19.8964 11.5781ZM15.9872 11.562C15.9812 11.562 15.9753 11.562 15.9693 11.562C15.9693 9.45873 15.937 7.35478 15.9847 5.25259C16.0048 4.37524 15.7855 3.96309 14.8158 4.02072C13.5916 4.0938 12.3576 3.99156 11.1321 4.04848C7.06475 4.23645 3.98367 7.29294 3.89513 11.1839C3.80166 15.2906 6.79069 18.5653 10.9652 18.8604C12.2459 18.9511 13.5414 18.8306 14.8235 18.91C15.7838 18.9694 16.0223 18.5783 16.0023 17.6957C15.9552 15.6522 15.9872 13.6069 15.9872 11.562Z" fill="white"/>
<path d="M82.2075 11.4619C82.2075 8.13134 82.2493 4.79973 82.1836 1.47024C82.1622 0.388399 82.4914 0.0619846 83.5669 0.0950125C85.9635 0.168447 88.3644 0.0830663 90.7624 0.123473C97.1277 0.230989 102.084 5.11842 102.149 11.315C102.214 17.5766 97.245 22.6183 90.8204 22.7609C88.4227 22.8144 86.0201 22.7002 83.6252 22.795C82.4028 22.8435 82.1752 22.3674 82.1948 21.2789C82.2546 18.0077 82.2163 14.7348 82.2163 11.4626C82.2135 11.4626 82.2103 11.4626 82.2075 11.4626V11.4619ZM86.1283 11.3516H86.1157C86.1157 12.2844 86.1178 13.2169 86.1153 14.1498C86.1055 17.6531 87.8713 19.2223 91.4128 18.8573C95.3013 18.4568 98.2432 15.2886 98.2538 11.4896C98.265 7.55967 95.3389 4.39602 91.3193 4.0812C89.9852 3.97685 88.6342 4.10123 87.2945 4.04044C86.3866 3.99933 86.0777 4.30186 86.1079 5.2305C86.1736 7.26875 86.1283 9.31121 86.1283 11.3516Z" fill="white"/>
<path d="M133.97 11.4976C133.97 14.8264 133.938 18.1559 133.99 21.484C134.006 22.4558 133.751 22.8195 132.724 22.7903C130.27 22.7208 127.812 22.8037 125.357 22.7541C119.025 22.6266 114.071 17.6598 114.065 11.4751C114.059 5.32559 118.837 0.385105 125.11 0.144423C127.621 0.04815 130.141 0.178856 132.652 0.0962864C133.78 0.0590422 134.018 0.473297 133.999 1.51122C133.939 4.83895 133.977 8.16845 133.977 11.4976H133.97ZM130.065 11.4393C130.065 9.33497 130.054 7.23032 130.072 5.12602C130.078 4.46721 130.019 3.98655 129.153 4.02837C127.519 4.10742 125.864 3.98199 124.249 4.18718C120.711 4.63657 118.111 7.60662 117.994 11.1276C117.871 14.7856 120.257 17.872 123.791 18.6696C125.357 19.023 126.945 18.7672 128.512 18.9039C129.701 19.0076 130.171 18.6857 130.099 17.4005C129.987 15.4191 130.069 13.4266 130.065 11.4393Z" fill="white"/>
<path d="M52.8939 22.6979C51.4318 22.6979 49.9544 22.8363 48.5106 22.6736C42.47 21.9934 38.1669 17.0322 38.3328 11.0548C38.4944 5.2233 43.0779 0.517175 49.0911 0.169679C51.7744 0.0147292 54.4736 0.146841 57.1646 0.10538C57.9612 0.0930826 58.2658 0.301791 58.3083 1.17527C58.4489 4.04308 58.4935 4.03746 55.6531 4.04167C53.488 4.04484 51.3166 3.95383 49.1596 4.09122C45.73 4.30941 43.0452 6.70042 42.3643 9.94243C41.7009 13.0998 43.1938 16.2862 46.1143 17.9517C47.3722 18.6692 48.746 18.8867 50.1676 18.8902C52.4501 18.8955 54.7336 18.9369 57.0139 18.8709C58.0061 18.842 58.3034 19.1368 58.3016 20.1438C58.2964 22.7481 58.3498 22.7485 55.7026 22.7527C54.7663 22.7541 53.8299 22.7527 52.8939 22.7527C52.8939 22.7344 52.8939 22.7161 52.8939 22.6979Z" fill="white"/>
<path d="M23.9437 14.9548C23.9444 13.0283 23.9205 11.1014 23.9493 9.17564C24.0298 3.78014 27.192 0.480164 32.6135 0.142506C33.662 0.0771532 34.7171 0.1151 35.7691 0.116154C38.2244 0.118262 38.9247 1.08802 38.3017 3.4706C38.1204 4.16418 37.6531 4.03207 37.23 4.03945C35.9444 4.06229 34.6577 4.01661 33.3725 4.04507C29.8086 4.12378 27.8557 6.08999 27.8396 9.61835C27.8217 13.471 27.7335 17.3272 27.8677 21.1753C27.9232 22.7726 27.1983 22.8618 26.0104 22.7768C24.9753 22.7027 23.7469 23.1816 23.9043 21.2565C24.0751 19.1687 23.943 17.0563 23.9437 14.9548Z" fill="white"/>
<path d="M106.066 11.3586C106.066 8.08502 106.146 4.80893 106.037 1.53917C105.967 -0.561969 107.428 0.205402 108.429 0.0458846C109.58 -0.137174 110.049 0.202943 110.034 1.51211C109.957 8.11664 109.92 14.724 110.031 21.3275C110.062 23.1299 109.033 22.7708 108.042 22.7715C107.059 22.7722 105.958 23.1616 106.036 21.3531C106.179 18.0271 106.077 14.691 106.077 11.359C106.073 11.359 106.069 11.3586 106.066 11.3586Z" fill="white"/>
</svg>
