<svg width="134" height="32" viewBox="0 0 134 32" fill="none" xmlns="http://www.w3.org/2000/svg">
<path d="M27.0991 23.6562C27.0373 28.9437 23.3778 31.5874 16.1205 31.5874H0V30.1662H4.35438V1.4212H0V0H16.2131C19.1469 0 21.4476 0.702961 23.1153 2.10888C24.8138 3.5148 25.6631 5.31805 25.6631 7.51862C25.6631 9.7192 24.9837 11.4919 23.6248 12.8367C22.266 14.1815 20.5212 15.0372 18.3903 15.404C20.4285 15.4346 22.2969 16.0611 23.9954 17.2837C26.1263 18.8118 27.1608 20.936 27.0991 23.6562ZM21.0771 7.79369C21.0771 3.54537 19.1778 1.4212 15.3793 1.4212H8.56979V14.8539H14.6381C16.1205 14.8539 17.4793 14.3649 18.7146 13.3868C20.2896 12.1032 21.0771 10.2388 21.0771 7.79369ZM19.5484 28.9742C21.216 27.8739 22.0344 26.0401 22.0035 23.4728C21.9726 20.8749 21.1079 18.9341 19.4094 17.6504C18.1433 16.703 16.5683 16.2292 14.6845 16.2292H8.56979V30.1662H15.055C16.8153 30.1662 18.3131 29.7689 19.5484 28.9742Z" fill="white"/>
<path d="M35.6164 29.2951V13.4785C35.5855 12.4394 35.0605 11.9198 34.0414 11.9198H31.9105V10.6361H39.5075V14.8539C39.8472 14.0287 40.4803 13.1423 41.4068 12.1948C42.7965 10.8195 44.2634 10.1318 45.8075 10.1318C46.734 10.1318 47.4751 10.4374 48.031 11.0487C48.5869 11.66 48.8648 12.3935 48.8648 13.2493C48.8648 14.9303 48.0928 15.8472 46.5487 16C45.931 14.6552 44.9119 13.9828 43.4913 13.9828C42.4722 13.9828 41.5458 14.4871 40.7119 15.4957C39.8781 16.5043 39.4612 17.6504 39.4612 18.9341V29.2951C39.5539 29.9981 39.909 30.3496 40.5267 30.3496H43.2134V31.5874H31.9569V30.3496H34.551C35.1068 30.3496 35.462 29.9981 35.6164 29.2951Z" fill="white"/>
<path d="M69.4892 20.9513H54.7584C54.7584 23.6409 55.4378 25.7345 56.7966 27.2321C58.1863 28.852 60.2245 29.6619 62.9113 29.6619C64.3318 29.6619 66.1693 28.9589 68.4237 27.553L69.0259 28.0115C66.8333 30.6705 64.1157 32 60.873 32C57.6304 32 55.0826 31.0372 53.2297 29.1117C51.5003 27.2474 50.6356 24.7717 50.6356 21.6848C50.6356 18.5979 51.5621 15.9389 53.415 13.7077C55.2988 11.446 57.8157 10.3152 60.9657 10.3152C63.5598 10.3152 65.6443 11.1862 67.2193 12.9284C68.7943 14.6399 69.5818 16.7488 69.5818 19.255C69.5818 19.5912 69.5509 20.1566 69.4892 20.9513ZM65.5054 19.3009C65.5054 17.1003 65.0884 15.297 64.2546 13.8911C63.4517 12.4852 62.2318 11.7822 60.5951 11.7822C58.9583 11.7822 57.5841 12.4394 56.4723 13.7536C55.3606 15.0678 54.8047 16.8863 54.8047 19.2092C60.5797 19.362 64.1465 19.3925 65.5054 19.3009Z" fill="white"/>
<path d="M91.0222 20.9513H76.2914C76.2914 23.6409 76.9708 25.7345 78.3296 27.2321C79.7193 28.852 81.7576 29.6619 84.4443 29.6619C85.8649 29.6619 87.7024 28.9589 89.9568 27.553L90.559 28.0115C88.3663 30.6705 85.6487 32 82.4061 32C79.1635 32 76.6157 31.0372 74.7628 29.1117C73.0334 27.2474 72.1687 24.7717 72.1687 21.6848C72.1687 18.5979 73.0951 15.9389 74.9481 13.7077C76.8319 11.446 79.3488 10.3152 82.4987 10.3152C85.0928 10.3152 87.1774 11.1862 88.7524 12.9284C90.3274 14.6399 91.1149 16.7488 91.1149 19.255C91.1149 19.5912 91.084 20.1566 91.0222 20.9513ZM87.0384 19.3009C87.0384 17.1003 86.6215 15.297 85.7877 13.8911C84.9847 12.4852 83.7649 11.7822 82.1282 11.7822C80.4914 11.7822 79.1171 12.4394 78.0054 13.7536C76.8936 15.0678 76.3377 16.8863 76.3377 19.2092C82.1127 19.362 85.6796 19.3925 87.0384 19.3009Z" fill="white"/>
<path d="M112.787 25.1232V31.5874C108.587 31.5874 102.102 31.6332 93.3311 31.7249V30.7163L106.996 12.3782L99.2142 12.3324C98.7509 12.3324 98.2877 12.4241 97.8245 12.6074C97.3612 12.7603 97.0833 13.0048 96.9907 13.341C96.7745 14.1662 96.5583 15.2665 96.3421 16.6418H95.0451V10.6361C103.321 10.7278 109.004 10.7278 112.092 10.6361V11.9656L98.7973 30.0287L109.174 29.9828C109.791 29.9828 110.285 29.6313 110.656 28.9284C111.057 27.9503 111.351 26.6819 111.536 25.1232H112.787Z" fill="white"/>
<path d="M133.907 20.9513H119.177C119.177 23.6409 119.856 25.7345 121.215 27.2321C122.604 28.852 124.643 29.6619 127.329 29.6619C128.75 29.6619 130.588 28.9589 132.842 27.553L133.444 28.0115C131.251 30.6705 128.534 32 125.291 32C122.049 32 119.501 31.0372 117.648 29.1117C115.919 27.2474 115.054 24.7717 115.054 21.6848C115.054 18.5979 115.98 15.9389 117.833 13.7077C119.717 11.446 122.234 10.3152 125.384 10.3152C127.978 10.3152 130.063 11.1862 131.638 12.9284C133.213 14.6399 134 16.7488 134 19.255C134 19.5912 133.969 20.1566 133.907 20.9513ZM129.924 19.3009C129.924 17.1003 129.507 15.297 128.673 13.8911C127.87 12.4852 126.65 11.7822 125.013 11.7822C123.377 11.7822 122.002 12.4394 120.891 13.7536C119.779 15.0678 119.223 16.8863 119.223 19.2092C124.998 19.362 128.565 19.3925 129.924 19.3009Z" fill="white"/>
</svg>
