<svg width="46" height="51" viewBox="0 0 46 51" fill="none" xmlns="http://www.w3.org/2000/svg">
<path fill-rule="evenodd" clip-rule="evenodd" d="M38.7686 3.96175C36.609 2.23584 33.1939 1.11925 28.0289 1.31284C16.9977 1.72632 10.2438 8.85592 6.26077 17.7614C2.41532 26.3595 1.20769 36.5177 1.28086 43.5415C8.45288 42.1408 13.6253 44.973 16.6182 46.6118C16.8444 46.7356 17.0581 46.8526 17.2592 46.9605C20.1817 48.5273 23.9051 50.2417 30.0378 49.5518C36.9497 48.7743 40.5784 45.6874 42.5085 42.3459C44.4613 38.9653 44.7222 35.2419 44.7222 33.1524C44.7222 27.2002 39.8258 24.3436 36.807 23.6642L34.842 23.222L36.6997 22.4383C38.0716 21.8596 39.5253 20.2416 40.5956 18.0224C41.6553 15.8251 42.2819 13.1522 42.0943 10.6047C41.9075 8.06852 40.9189 5.68015 38.7686 3.96175ZM38.5188 22.8375C39.7757 21.8631 40.9002 20.3382 41.7444 18.588C42.8869 16.2188 43.5754 13.3187 43.3686 10.5089C43.1608 7.68766 42.0457 4.93437 39.5613 2.94903C37.0862 0.971173 33.3353 -0.178082 27.9814 0.0225924C16.2916 0.46076 9.19551 8.06454 5.0964 17.2297C1.00415 26.3795 -0.159823 37.1872 0.0170718 44.3515C0.0218589 44.5454 0.112652 44.7268 0.264347 44.8456C0.41604 44.9644 0.61256 45.008 0.799565 44.9644C7.88825 43.3098 12.9389 46.0696 16.0227 47.7547C16.2455 47.8765 16.4581 47.9925 16.6603 48.101C19.6981 49.7297 23.6891 51.5651 30.1792 50.8349C37.4685 50.0151 41.4662 46.7115 43.612 42.9969C45.7351 39.3214 46 35.3232 46 33.1524C46 27.2411 41.7867 24.0649 38.5188 22.8375ZM37.2332 34.6139C37.4815 34.7478 37.6137 35.0297 37.5594 35.3084C36.7659 39.3742 34.2268 41.7027 31.4915 42.8985C28.7879 44.0801 25.858 44.1748 24.1347 43.7748C22.7883 43.4621 22.0351 42.4262 22.2101 41.3651C22.2949 40.851 22.6011 40.3909 23.0873 40.1159C23.5627 39.8471 24.1594 39.7813 24.8142 39.9268C30.0891 40.5979 33.3144 37.9264 36.4808 34.7271C36.6797 34.5261 36.9851 34.4801 37.2332 34.6139ZM35.5476 37.4015C32.7509 39.8975 29.4532 41.8288 24.6226 41.2037L24.5915 41.1996L24.5608 41.1925C24.1281 41.092 23.8582 41.1596 23.7115 41.2426C23.5673 41.3242 23.4922 41.4458 23.4704 41.5773C23.4325 41.8071 23.5665 42.318 24.4209 42.5164C25.8754 42.854 28.5275 42.7873 30.984 41.7135C32.8184 40.9115 34.5239 39.5594 35.5476 37.4015Z" fill="white"/>
</svg>
