<svg width="128" height="38" viewBox="0 0 128 38" fill="none" xmlns="http://www.w3.org/2000/svg">
<path d="M122.17 14.3457V25.654H116.539V31.3082H110.904V36.9624H99.5469V20.3481C103.038 19.124 102.779 16.6965 100.619 15.3802C100.294 15.1805 99.9325 15.0012 99.5469 14.8527V12.2663C101.412 12.5019 101.808 12.6761 102.006 12.2971C102.281 11.7695 101.899 11.4418 101.899 11.4418C101.899 11.4418 101.574 10.6479 99.5469 10.1563V0.727539L99.6378 3.05271H110.904V8.70691H116.539V14.3508H110.904V20.005H116.539V14.3508H122.17V14.3457Z" fill="white"/>
<path d="M116.539 14.3508V8.70691H110.904V3.05271H99.6378L99.5469 0.727539V10.1563C101.574 10.6479 101.899 11.4418 101.899 11.4418C101.899 11.4418 102.281 11.7695 102.006 12.2971C101.808 12.676 101.412 12.5019 99.5469 12.2663V14.8527C99.9325 15.0012 100.294 15.1805 100.619 15.3802C102.779 16.6965 103.038 19.124 99.5469 20.3481V36.9624H110.904V31.3082H116.539V25.654H122.17V14.3457V14.3508H116.539ZM116.539 14.3508H110.904V20.005H116.539V14.3508Z" stroke="#C7C6C5" stroke-width="0.35" stroke-miterlimit="10"/>
<path d="M122.231 2.86816H116.561V8.58381H122.231V2.86816Z" fill="white" stroke="#C7C6C5" stroke-width="0.35" stroke-miterlimit="10"/>
<path d="M127.906 25.741H122.235V31.4566H127.906V25.741Z" fill="white" stroke="#C7C6C5" stroke-width="0.35" stroke-miterlimit="10"/>
<path d="M82.7551 18.4223C82.059 18.1508 81.373 18.0484 81.3171 18.8576C81.2815 19.3851 83.3954 19.2878 83.3954 19.2878C83.3954 19.2878 83.4513 18.6937 82.7551 18.4223ZM82.7551 18.4223C82.059 18.1508 81.373 18.0484 81.3171 18.8576C81.2815 19.3851 83.3954 19.2878 83.3954 19.2878C83.3954 19.2878 83.4513 18.6937 82.7551 18.4223ZM82.7551 18.4223C82.059 18.1508 81.373 18.0484 81.3171 18.8576C81.2815 19.3851 83.3954 19.2878 83.3954 19.2878C83.3954 19.2878 83.4513 18.6937 82.7551 18.4223ZM82.7551 18.4223C82.059 18.1508 81.373 18.0484 81.3171 18.8576C81.2815 19.3851 83.3954 19.2878 83.3954 19.2878C83.3954 19.2878 83.4513 18.6937 82.7551 18.4223ZM82.7551 18.4223C82.059 18.1508 81.373 18.0484 81.3171 18.8576C81.2815 19.3851 83.3954 19.2878 83.3954 19.2878C83.3954 19.2878 83.4513 18.6937 82.7551 18.4223ZM82.7551 18.4223C82.059 18.1508 81.373 18.0484 81.3171 18.8576C81.2815 19.3851 83.3954 19.2878 83.3954 19.2878C83.3954 19.2878 83.4513 18.6937 82.7551 18.4223ZM82.7551 18.4223C82.059 18.1508 81.373 18.0484 81.3171 18.8576C81.2815 19.3851 83.3954 19.2878 83.3954 19.2878C83.3954 19.2878 83.4513 18.6937 82.7551 18.4223ZM82.7551 18.4223C82.059 18.1508 81.373 18.0484 81.3171 18.8576C81.2815 19.3851 83.3954 19.2878 83.3954 19.2878C83.3954 19.2878 83.4513 18.6937 82.7551 18.4223ZM82.7551 18.4223C82.059 18.1508 81.373 18.0484 81.3171 18.8576C81.2815 19.3851 83.3954 19.2878 83.3954 19.2878C83.3954 19.2878 83.4513 18.6937 82.7551 18.4223ZM82.7551 18.4223C82.059 18.1508 81.373 18.0484 81.3171 18.8576C81.2815 19.3851 83.3954 19.2878 83.3954 19.2878C83.3954 19.2878 83.4513 18.6937 82.7551 18.4223ZM82.7551 18.4223C82.059 18.1508 81.373 18.0484 81.3171 18.8576C81.2815 19.3851 83.3954 19.2878 83.3954 19.2878C83.3954 19.2878 83.4513 18.6937 82.7551 18.4223ZM82.7551 18.4223C82.059 18.1508 81.373 18.0484 81.3171 18.8576C81.2815 19.3851 83.3954 19.2878 83.3954 19.2878C83.3954 19.2878 83.4513 18.6937 82.7551 18.4223ZM50.4062 0.0922852V34.0019H106.272V0.0922852H50.4062ZM60.4168 14.4479C61.1028 13.4185 62.8153 12.9627 63.8265 14.2994C64.8327 15.6412 64.9953 15.0574 65.5289 14.4274C67.9476 11.5491 68.1458 16.1278 64.9241 16.7423C63.7961 16.9472 63.2015 15.6976 62.5765 15.3442C62.2208 15.1394 61.8752 15.3852 61.55 15.7796C59.8121 17.8435 59.3294 16.0664 60.4168 14.4479ZM75.6563 25.0546C74.5282 25.2697 73.9336 24.0201 73.3086 23.6616C72.9529 23.4567 72.6074 23.7025 72.272 24.0969C70.5341 26.1558 70.0514 24.3837 71.1388 22.7601C71.8249 21.7359 73.5423 21.275 74.5485 22.6167C75.5546 23.9586 75.7274 23.3747 76.2559 22.7448C78.6646 19.8665 78.8678 24.4452 75.6512 25.0546H75.6563ZM77.4907 19.9996C75.8392 21.6641 73.9946 20.8089 73.4509 19.9638C72.9072 19.1188 72.5312 17.9715 72.5312 17.9715C72.5312 17.9715 73.0749 21.3671 66.4537 21.3722C57.8456 21.3876 53.6635 21.8383 53.7753 17.4901C53.8464 14.6528 54.7459 14.2686 55.4217 14.2892C57.5356 14.3608 55.5335 17.7103 57.0478 18.4479C57.7134 18.7705 57.805 19.2416 61.8955 19.1751C68.1001 19.0829 69.782 19.3953 70.3207 17.3877C70.8543 15.3954 71.3218 14.2584 72.3889 14.407C73.4407 14.5555 73.6237 15.9639 74.3402 17.4953C74.767 18.412 75.9052 18.6322 75.8647 17.2597C75.7884 14.873 75.143 13.8487 76.0069 13.6387C78.1462 13.1266 79.7215 17.7565 77.4958 19.9996H77.4907ZM99.5446 20.3428C98.5889 20.6808 97.3444 20.9267 95.7841 21.0342C91.9782 21.3006 88.4871 21.3108 86.0326 21.2698C85.8651 23.6513 84.5742 26.0738 81.4746 26.038C78.8881 26.0072 78.6646 24.5015 80.377 24.4452C84.4269 24.3017 83.5326 21.3313 83.5326 21.3313C83.5326 21.3313 79.6453 21.8434 79.4827 19.3237C79.3251 16.7936 81.19 15.9946 83.4259 16.6348C84.7014 16.9985 85.3775 18.2123 85.7228 19.1956C87.3133 19.1751 89.2593 19.0881 91.0637 19.1085C96.0536 19.1597 99.5648 18.6885 99.4781 17.6745C99.4074 16.8192 98.9805 16.1739 94.2954 15.8102C89.6104 15.4518 84.5995 15.631 84.0001 14.2328C83.3903 12.8295 85.7884 10.3866 93.4113 9.85903C96.3382 9.6593 98.274 9.84371 99.5446 10.151C101.572 10.6426 101.897 11.4365 101.897 11.4365C101.897 11.4365 102.279 11.7643 102.004 12.2917C101.805 12.6707 101.41 12.4966 99.5446 12.2611C98.7876 12.1586 97.7865 12.0562 96.4603 11.9691C91.8106 11.6772 87.6838 12.9985 87.0843 13.3724C86.6574 13.6439 87.9945 13.7514 90.5299 13.7668C92.7655 13.7821 96.7499 13.7156 99.5446 14.8525C99.9252 15.001 100.291 15.1803 100.617 15.38C102.781 16.6963 103.036 19.1239 99.5446 20.3479V20.3428ZM82.7551 18.4223C82.059 18.1508 81.373 18.0484 81.3171 18.8576C81.2815 19.3851 83.3954 19.2878 83.3954 19.2878C83.3954 19.2878 83.4513 18.6937 82.7551 18.4223ZM82.7551 18.4223C82.059 18.1508 81.373 18.0484 81.3171 18.8576C81.2815 19.3851 83.3954 19.2878 83.3954 19.2878C83.3954 19.2878 83.4513 18.6937 82.7551 18.4223ZM82.7551 18.4223C82.059 18.1508 81.373 18.0484 81.3171 18.8576C81.2815 19.3851 83.3954 19.2878 83.3954 19.2878C83.3954 19.2878 83.4513 18.6937 82.7551 18.4223ZM82.7551 18.4223C82.059 18.1508 81.373 18.0484 81.3171 18.8576C81.2815 19.3851 83.3954 19.2878 83.3954 19.2878C83.3954 19.2878 83.4513 18.6937 82.7551 18.4223ZM82.7551 18.4223C82.059 18.1508 81.373 18.0484 81.3171 18.8576C81.2815 19.3851 83.3954 19.2878 83.3954 19.2878C83.3954 19.2878 83.4513 18.6937 82.7551 18.4223ZM82.7551 18.4223C82.059 18.1508 81.373 18.0484 81.3171 18.8576C81.2815 19.3851 83.3954 19.2878 83.3954 19.2878C83.3954 19.2878 83.4513 18.6937 82.7551 18.4223ZM82.7551 18.4223C82.059 18.1508 81.373 18.0484 81.3171 18.8576C81.2815 19.3851 83.3954 19.2878 83.3954 19.2878C83.3954 19.2878 83.4513 18.6937 82.7551 18.4223ZM82.7551 18.4223C82.059 18.1508 81.373 18.0484 81.3171 18.8576C81.2815 19.3851 83.3954 19.2878 83.3954 19.2878C83.3954 19.2878 83.4513 18.6937 82.7551 18.4223ZM82.7551 18.4223C82.059 18.1508 81.373 18.0484 81.3171 18.8576C81.2815 19.3851 83.3954 19.2878 83.3954 19.2878C83.3954 19.2878 83.4513 18.6937 82.7551 18.4223ZM82.7551 18.4223C82.059 18.1508 81.373 18.0484 81.3171 18.8576C81.2815 19.3851 83.3954 19.2878 83.3954 19.2878C83.3954 19.2878 83.4513 18.6937 82.7551 18.4223ZM82.7551 18.4223C82.059 18.1508 81.373 18.0484 81.3171 18.8576C81.2815 19.3851 83.3954 19.2878 83.3954 19.2878C83.3954 19.2878 83.4513 18.6937 82.7551 18.4223ZM82.7551 18.4223C82.059 18.1508 81.373 18.0484 81.3171 18.8576C81.2815 19.3851 83.3954 19.2878 83.3954 19.2878C83.3954 19.2878 83.4513 18.6937 82.7551 18.4223ZM82.7551 18.4223C82.059 18.1508 81.373 18.0484 81.3171 18.8576C81.2815 19.3851 83.3954 19.2878 83.3954 19.2878C83.3954 19.2878 83.4513 18.6937 82.7551 18.4223Z" fill="white" stroke="#C7C6C5" stroke-width="0.35" stroke-miterlimit="10"/>
<path d="M3.12668 13.6951V7.89236H7.36466V6.62735H3.12668V1.39827H7.66447V0.0922794H1.70894V15.0266H7.87281V13.6951H3.12668ZM16.6028 0.0922794L13.5539 13.3621H13.5133L10.4644 0.0922794H8.87387L12.5275 15.0266H14.428L18.1476 0.0922794H16.6028ZM21.3897 13.7002V7.89749H25.6276V6.63247H21.3897V1.39827H25.9223V0.0922794H19.9668V15.0266H26.1357V13.6951H21.3897V13.7002ZM33.4023 7.85652C33.7123 7.81555 34.0172 7.71311 34.3322 7.5441C34.6523 7.37509 34.9369 7.13438 35.191 6.82709C35.4552 6.51468 35.6585 6.13569 35.8211 5.67475C35.9786 5.21893 36.0599 4.67604 36.0599 4.03586C36.0599 3.3086 35.9481 2.68378 35.7347 2.17674C35.5162 1.67483 35.2316 1.27023 34.876 0.952698C34.5202 0.645404 34.1188 0.425179 33.6614 0.286898C33.2092 0.158859 32.7417 0.0871582 32.2488 0.0871582H28.6968V15.0215H30.145V8.10235H32.0456L34.7184 15.0215H36.2835L33.3972 7.84627L33.4023 7.85652ZM30.145 6.95V1.3573H32.0252C32.3606 1.3573 32.6858 1.39827 32.9958 1.48534C33.3058 1.5724 33.5852 1.7158 33.8342 1.93091C34.0731 2.13577 34.2712 2.42257 34.4135 2.78108C34.5609 3.13959 34.632 3.58004 34.632 4.1178C34.632 5.00895 34.4033 5.7106 33.9511 6.20227C33.504 6.70417 32.8789 6.94488 32.0862 6.94488H30.145V6.95ZM44.2107 0.0922794L41.3447 7.36997L38.5448 0.0922794H36.9543L40.6333 8.89105V15.0318H42.051V8.89105L45.7757 0.0922794H44.2107ZM0.0117188 18.791V20.056H2.85736V33.7253H4.29543V20.056H7.1614V18.791H0.0117188ZM15.9778 18.791V25.3312H10.312V18.791H8.85358V33.7253H10.312V26.6372H15.9778V33.7253H17.4362V18.791H15.9778ZM20.8205 18.791V33.7253H22.289V18.791H20.8205ZM32.6705 18.791V31.2107H32.6045L27.4824 18.791H25.6682V33.7253H27.0454V21.2954H27.1114L32.259 33.7253H34.0121V18.791H32.6705ZM41.9646 25.6897V26.9547H44.0786V32.0199C43.8448 32.2248 43.545 32.3938 43.1943 32.4962C42.8387 32.6089 42.4372 32.6652 41.9901 32.6652C41.3803 32.6652 40.8416 32.5064 40.3741 32.1786C39.9067 31.856 39.5154 31.4053 39.2054 30.8419C38.8954 30.2683 38.6616 29.5923 38.5042 28.8036C38.3568 28.0199 38.2755 27.1596 38.2755 26.2326C38.2755 25.3056 38.3466 24.5117 38.494 23.7333C38.6363 22.9548 38.8649 22.2685 39.1597 21.6744C39.4595 21.0906 39.8355 20.6142 40.2776 20.2711C40.7248 19.928 41.2482 19.759 41.8681 19.759C42.3509 19.759 42.8132 19.8818 43.235 20.1226C43.6618 20.3735 44.0278 20.7372 44.3478 21.2288L45.293 20.266C44.8865 19.6309 44.3834 19.1649 43.7889 18.8729C43.1842 18.5707 42.5287 18.4273 41.8021 18.4273C41.0093 18.4273 40.2979 18.622 39.6678 19.0112C39.0428 19.4056 38.5143 19.9536 38.0773 20.6501C37.6454 21.3518 37.3201 22.1712 37.0864 23.1289C36.8578 24.0867 36.7459 25.116 36.7459 26.2326C36.7459 27.4105 36.8578 28.486 37.1016 29.4438C37.3354 30.3964 37.6759 31.2107 38.123 31.8867C38.5702 32.5576 39.1241 33.08 39.7745 33.4437C40.4249 33.8073 41.1618 33.9917 41.9849 33.9917C42.7625 33.9917 43.4433 33.8841 44.0278 33.6639C44.602 33.4488 45.0999 33.1569 45.4963 32.7932V25.6846H41.9646V25.6897Z" fill="white"/>
</svg>
