<svg width="134" height="67" viewBox="0 0 134 67" fill="none" xmlns="http://www.w3.org/2000/svg">
<path d="M94.4977 6.74617H92.8264C92.675 7.66611 92.0674 8.2794 90.8516 8.2794V7.66611C91.7631 7.66611 92.2188 7.20614 92.2188 5.97955V2.2998H92.8264V6.13287H94.3463V6.74617H94.4977Z" fill="white"/>
<path d="M100.727 5.82626V6.7462H94.043V6.13291H99.816C99.816 5.97959 99.816 5.82626 99.816 5.82626C99.816 5.05965 99.6646 4.44635 99.3598 3.98639C98.9046 3.52642 98.297 3.21977 97.5371 3.21977H95.562C95.8657 2.60648 96.3219 1.68654 97.0818 0.613281H97.8409L96.7771 2.60648H97.6894C98.6008 2.60648 99.3598 2.91313 99.9683 3.52642C100.424 3.98639 100.727 4.753 100.727 5.82626Z" fill="white"/>
<path d="M109.997 0.766615H109.389V0H109.997V0.766615ZM109.693 5.36631C110.453 5.05966 111.061 4.29304 111.061 3.52643C111.061 2.75981 110.605 2.14652 109.693 2.14652C108.934 2.14652 108.326 2.75981 108.326 3.52643C108.326 4.44637 108.934 5.05966 109.693 5.36631ZM112.884 6.74621H111.972C110.605 6.74621 110.453 6.59288 109.693 6.28624C108.934 6.74621 108.782 6.74621 107.414 6.74621H105.895C104.072 6.74621 103.16 5.82627 103.16 3.9864V2.60649H103.769V3.9864C103.769 5.36631 104.376 6.13291 105.743 6.13291H107.87C108.174 6.13291 108.478 6.13291 108.782 5.82627C108.022 5.36631 107.414 4.59969 107.414 3.67975C107.414 2.45316 108.326 1.68656 109.542 1.68656C110.757 1.68656 111.668 2.45316 111.668 3.67975C111.668 4.59969 111.213 5.36631 110.301 5.82627C110.605 5.97959 111.061 6.13291 111.364 6.13291H112.884V6.74621Z" fill="white"/>
<path d="M114.862 0.459961V5.05965C114.862 6.13291 114.406 6.7462 113.494 6.7462H112.734V6.13291H113.342C113.798 6.13291 113.95 5.97959 114.102 5.67294C114.253 5.51962 114.253 5.21297 114.253 4.753V0.459961H114.862Z" fill="white"/>
<path d="M118.201 6.7462H117.442C117.137 6.7462 116.833 6.59288 116.529 6.43956C116.226 6.13291 116.074 5.82626 116.074 5.21297V0.459961H116.833V4.753C116.833 5.21297 116.833 5.51962 116.986 5.67294C117.137 5.82626 117.289 5.97959 117.593 5.97959C117.593 5.97959 117.746 5.97959 118.201 5.97959V6.7462Z" fill="white"/>
<path d="M121.997 8.2794H121.237V7.35946H121.997V8.2794ZM124.58 5.82624V6.74617H117.895V6.13288H123.668C123.668 5.97956 123.668 5.82624 123.668 5.82624C123.668 4.13968 122.756 3.21974 121.389 3.21974C120.63 3.21974 120.022 3.52639 119.566 4.13968C119.413 3.98636 119.262 3.83303 118.958 3.52639C119.566 2.91309 120.326 2.45312 121.389 2.45312C123.364 2.45312 124.58 3.83303 124.58 5.82624Z" fill="white"/>
<path d="M84.3229 56.5765H80.9805V38.1777H84.3229V56.5765ZM93.2869 41.5509C87.6652 41.5509 85.5383 45.2305 85.5383 45.2305C85.5383 38.331 93.2869 38.1777 93.2869 38.1777V41.5509Z" fill="white"/>
<path d="M78.5478 17.632H71.8629C71.8629 17.632 74.9015 19.012 75.2054 21.4651V26.5248C75.2054 28.2113 74.1419 29.1313 72.9265 29.5912C72.3187 29.7445 71.863 29.8978 71.2553 29.8978C72.4707 30.0512 73.8381 30.3578 75.2054 30.9711C77.3323 29.7445 78.2439 28.058 78.5478 27.7513V17.632ZM68.6725 9.50586C72.7745 9.50586 75.6612 10.4259 78.5478 13.9523V9.96587C75.6612 7.66603 71.8629 6.74609 68.8244 6.74609C65.0263 6.74609 61.9877 7.97267 59.5569 10.4259C57.1261 12.879 56.0625 15.9455 56.0625 19.7785C56.0625 23.3049 57.1261 26.2181 59.4049 28.6713C60.3165 29.5912 61.38 30.5112 62.4435 31.1245C63.6589 30.5112 65.3301 29.8978 67.609 29.7445C63.5069 28.9779 59.5569 24.8382 59.5569 19.6252C59.405 14.1055 63.8108 9.50586 68.6725 9.50586Z" fill="white"/>
<path d="M87.8171 30.0511C85.5383 29.4378 84.3229 27.9046 84.3229 25.4514V14.2588H80.9805V26.5247C80.9805 28.6712 82.0439 31.2777 85.0825 32.3509C88.4249 33.5776 91.7673 31.5843 92.3746 29.5911C92.6793 28.8245 92.527 28.3645 92.527 28.3645C92.527 28.3645 91.0076 30.8177 87.8171 30.0511ZM93.8945 32.6575H97.2362V14.2588H93.8945V32.6575Z" fill="white"/>
<path d="M95.7148 38.1777H99.8174L107.109 51.9768L112.427 38.1777H116.225L106.806 61.6362C106.502 62.5561 104.375 67.0024 99.8174 65.9292C97.8423 65.4692 96.7786 63.7827 96.7786 63.7827C96.7786 63.7827 99.3613 64.7026 101.64 63.016C103.767 61.4828 105.59 55.6566 105.59 55.6566L95.7148 38.1777Z" fill="white"/>
<path d="M78.5473 37.8702C75.6607 34.3438 72.7741 33.4239 68.672 33.4239C63.8104 33.4239 59.4044 38.0236 59.4044 43.6966C59.4044 49.3695 64.2662 53.8159 68.672 53.9691C71.2548 54.1225 73.9895 53.6625 78.3954 51.8227C77.9396 52.5893 75.5088 56.729 68.672 56.729C64.8738 56.729 61.6834 55.5024 59.2525 52.896C56.9736 50.4427 55.9102 47.5296 55.9102 44.0032C55.9102 40.1701 57.1255 37.1037 59.4044 34.6505C61.8353 32.1974 64.8738 30.9707 68.672 30.9707C71.7106 30.9707 75.5088 31.7374 78.3954 34.1905V37.8702H78.5473Z" fill="white"/>
<path d="M131.418 40.6309C133.242 42.3174 134.001 44.6173 134.001 47.3771C134.001 50.137 133.089 52.2834 131.418 54.1233C129.747 55.8098 127.62 56.5765 125.038 56.5765C122.302 56.5765 120.024 55.6566 118.352 53.8166C116.681 52.1301 115.922 49.9836 115.922 47.5304C115.922 44.7706 116.833 42.6241 118.505 40.7842C120.176 38.9444 122.455 38.1777 125.038 38.1777C127.62 38.1777 129.747 38.9444 131.418 40.6309ZM119.264 47.2237C119.264 51.2102 121.847 54.5833 125.038 54.5833C128.228 54.5833 130.811 51.3635 130.811 47.2237C130.811 43.0841 128.228 39.8643 125.038 39.8643C121.847 40.0176 119.264 43.2374 119.264 47.2237Z" fill="white"/>
<path d="M99.8203 26.5248V8.73926H103.163V25.4515C103.163 27.9046 104.378 29.5912 106.657 30.0512C109.847 30.8178 111.366 28.3646 111.366 28.3646C111.366 28.3646 111.519 28.8246 111.215 29.5912C110.607 31.4311 107.265 33.4243 103.922 32.351C100.884 31.2777 99.8203 28.6712 99.8203 26.5248Z" fill="white"/>
<path d="M113.794 14.8728C113.794 12.7264 114.857 10.1199 117.895 9.04659C121.238 7.82 124.581 9.81323 125.188 11.8064C125.492 12.573 125.34 13.033 125.34 13.033C125.34 13.033 123.821 10.5798 120.63 11.3464C118.351 11.9597 117.136 13.4929 117.136 15.9461V17.9393H123.213V19.4725H117.136V32.6583H113.794V19.4725H111.211V17.9393H113.794V14.8728Z" fill="white"/>
<path d="M0 6.74609H49.3764V56.576H31.6009C40.4127 52.5896 46.4898 44.0036 46.4898 34.0376C46.4898 20.2385 34.7914 9.19922 20.3583 9.19922C12.1542 9.19922 4.70975 12.879 0 18.552V6.74609ZM11.5465 56.576H0V49.2166C3.3424 52.743 8.50794 53.9695 14.8889 52.743C8.65987 49.9831 4.10204 42.777 4.10204 34.1909C4.10204 23.3049 11.3946 14.4123 20.3583 14.4123C29.322 14.4123 36.6145 23.3049 36.6145 34.1909C36.6145 41.2438 33.576 47.3766 29.1701 50.7498C28.1066 51.6697 23.2449 55.8095 11.5465 56.576Z" fill="white"/>
</svg>
