<svg width="134" height="38" viewBox="0 0 134 38" fill="none" xmlns="http://www.w3.org/2000/svg">
<path d="M68.2717 0C68.2717 0 61.0738 2.92136 57.8644 2.92136C60.6263 5.02295 61.8144 6.73701 61.8144 9.41989C61.8298 17.0288 61.7912 24.6452 61.8375 32.2542C61.853 34.5048 61.4826 36.517 59.1836 38C63.1259 38 66.7905 38 70.9951 38C67.7085 36.0698 68.2794 33.2602 68.2794 30.6295C68.264 23.505 68.2717 16.3805 68.2717 9.25593C68.2717 6.84134 68.2717 2.6009 68.2717 0Z" fill="white"/>
<path d="M114.738 38C108.281 37.4113 103.544 34.0577 102.109 29.1241C100.99 25.2489 101.307 21.463 103.822 17.9529C106.128 14.7409 109.646 12.9672 114.09 12.3338C110.418 14.3236 109.022 17.3493 108.373 20.6954C107.648 24.4067 107.88 28.1032 109.099 31.725C109.963 34.2663 111.421 36.5095 114.738 38Z" fill="white"/>
<path d="M117.006 12.3338C123.464 12.9225 128.201 16.2761 129.636 21.2097C130.754 25.0849 130.438 28.8708 127.923 32.3809C125.616 35.5929 122.098 37.3665 117.654 38C121.327 36.0102 122.723 32.9845 123.371 29.6384C124.096 25.927 123.865 22.2306 122.646 18.6087C121.79 16.0749 120.324 13.8243 117.006 12.3338Z" fill="white"/>
<path d="M89.7036 34.9147C84.0486 33.9757 80.4457 27.656 81.6647 20.7923C82.2433 17.543 83.794 14.7484 85.877 12.8182C79.0494 13.2206 73.6413 18.6982 73.6413 25.3979C73.6413 32.3585 79.4814 38 86.6871 38C91.0768 38 94.9574 35.9059 97.3181 32.6939C95.1117 34.4899 92.4192 35.3618 89.7036 34.9147Z" fill="white"/>
<path d="M88.4383 12.8182C88.4383 12.8182 97.7347 14.0106 97.8582 25.1893H90.7374C90.7374 25.1893 92.0334 16.4699 88.4383 12.8182Z" fill="white"/>
<path d="M92.9052 24.9657H87.3428V25.1818H92.9052V24.9657Z" fill="white"/>
<path d="M48.2748 34.9147C42.6198 33.9757 39.017 27.656 40.2359 20.7923C40.8146 17.543 42.3652 14.7484 44.4483 12.8182C37.6206 13.2206 32.2125 18.6982 32.2125 25.3979C32.2125 32.3585 38.0526 38 45.2583 38C49.6481 38 53.5286 35.9059 55.8894 32.6939C53.6829 34.4899 50.9904 35.3618 48.2748 34.9147Z" fill="white"/>
<path d="M47.0096 12.8182C47.0096 12.8182 56.306 14.0106 56.4294 25.1893H49.3086C49.3086 25.1893 50.6047 16.4699 47.0096 12.8182Z" fill="white"/>
<path d="M51.4765 24.9657H45.9141V25.1818H51.4765V24.9657Z" fill="white"/>
<path d="M5.57313 4.36713C3.35126 7.24377 3.49784 10.1651 6.45263 12.073C9.04482 13.7423 12.0613 14.8825 15.0007 16.0004C18.5572 17.3493 22.1369 18.6087 24.9837 21.1351C28.0619 23.8627 29.0571 27.8796 27.3984 31.181C26.3801 33.223 24.5979 34.5495 22.3375 35.4215C23.919 33.8192 24.3356 32.0306 23.5487 30.0259C22.785 28.0808 21.3654 26.6276 19.4367 25.7854C15.9727 24.2801 12.4008 22.9908 8.89823 21.5599C6.26747 20.4793 3.82186 19.1453 2.01659 16.9319C-1.65568 12.4158 -0.220719 6.92332 5.57313 4.36713Z" fill="white"/>
<path d="M0.867075 35.4215V28.0286C0.867075 28.0286 2.81122 34.1843 6.69179 35.4215H0.867075Z" fill="white"/>
<path d="M17.4154 4.00196C17.4849 4.03922 17.7549 3.97215 17.8397 3.97215C18.2178 3.95725 18.5958 3.95725 18.9815 3.98706C20.1619 4.06158 21.3423 4.31496 22.4224 4.79192C24.2508 5.60424 26.0638 7.1618 26.0946 9.24848C26.1178 11.2681 24.4514 13.0939 22.3298 13.1983C22.0289 13.2132 21.728 13.1908 21.4349 13.1387C20.023 12.8704 18.8504 11.7972 18.5958 10.4185C18.4724 9.7627 18.6498 9.27084 18.781 8.63738C18.8812 8.11571 18.943 7.58659 18.943 7.05001C18.9275 5.85762 18.5418 4.62051 17.4154 4.00196Z" fill="white"/>
<path d="M130.531 14.7782C130.554 14.7037 130.793 14.5621 130.855 14.5099C131.132 14.264 131.402 14.0031 131.649 13.7274C132.428 12.8704 133.084 11.8866 133.493 10.806C134.195 8.98019 134.334 6.64013 132.822 5.14964C131.364 3.70386 128.841 3.55481 127.267 4.92606C127.043 5.11983 126.851 5.33595 126.681 5.58188C125.878 6.73701 125.84 8.29457 126.665 9.44224C127.059 9.98627 127.545 10.2098 128.1 10.575C128.556 10.8731 128.988 11.2085 129.373 11.5885C130.245 12.4307 130.87 13.5634 130.531 14.7782Z" fill="white"/>
</svg>
