<svg width="294" height="297" viewBox="0 0 294 297" fill="none" xmlns="http://www.w3.org/2000/svg">
<path d="M145.488 289.73C223.49 289.73 286.723 226.495 286.723 148.491C286.723 70.4866 223.49 7.25146 145.488 7.25146C67.4853 7.25146 4.25195 70.4866 4.25195 148.491C4.25195 226.495 67.4853 289.73 145.488 289.73Z" stroke="#EAEAEA" strokeWidth="8" stroke-miterlimit="10"/>
<path d="M145.487 297C76.6182 297 17.2489 250.301 1.13303 183.425C0.190371 179.527 2.58327 175.611 6.4808 174.669C10.3783 173.726 14.294 176.119 15.2366 180.016C29.7753 240.348 83.3437 282.479 145.505 282.479C219.395 282.479 279.489 222.365 279.489 148.491C279.489 74.6171 219.377 14.5028 145.487 14.5028C141.48 14.5028 138.235 11.2578 138.235 7.25142C138.235 3.24501 141.48 0 145.487 0C227.371 0 293.973 66.6224 293.973 148.491C293.973 230.359 227.371 297 145.487 297Z" fill="url(#paint0_linear_1274_2)"/>
<path d="M108.201 123.6V127.28L85.6413 175.12L80.7613 172.96L102.361 128.24H76.8413V123.6H108.201ZM132.509 122.96C135.229 122.96 137.735 123.467 140.029 124.48C142.375 125.493 144.402 127.067 146.109 129.2C147.869 131.28 149.229 133.947 150.189 137.2C151.202 140.453 151.709 144.32 151.709 148.8C151.709 153.28 151.175 157.173 150.109 160.48C149.095 163.733 147.709 166.427 145.949 168.56C144.189 170.64 142.135 172.187 139.789 173.2C137.495 174.213 135.069 174.72 132.509 174.72C129.842 174.72 127.335 174.213 124.989 173.2C122.642 172.187 120.589 170.64 118.829 168.56C117.122 166.427 115.762 163.733 114.749 160.48C113.789 157.173 113.309 153.28 113.309 148.8C113.309 144.48 113.815 140.72 114.829 137.52C115.895 134.267 117.309 131.573 119.069 129.44C120.829 127.253 122.855 125.627 125.149 124.56C127.495 123.493 129.949 122.96 132.509 122.96ZM119.069 148.8C119.069 152.96 119.442 156.427 120.189 159.2C120.935 161.92 121.949 164.107 123.229 165.76C124.509 167.36 125.949 168.507 127.549 169.2C129.202 169.893 130.909 170.24 132.669 170.24C134.429 170.24 136.109 169.867 137.709 169.12C139.309 168.373 140.722 167.147 141.949 165.44C143.175 163.733 144.135 161.52 144.829 158.8C145.575 156.08 145.949 152.747 145.949 148.8C145.949 144.693 145.575 141.28 144.829 138.56C144.082 135.787 143.069 133.573 141.789 131.92C140.509 130.267 139.042 129.093 137.389 128.4C135.789 127.707 134.109 127.36 132.349 127.36C130.589 127.36 128.909 127.733 127.309 128.48C125.709 129.227 124.295 130.453 123.069 132.16C121.842 133.867 120.855 136.08 120.109 138.8C119.415 141.52 119.069 144.853 119.069 148.8ZM168.844 174L203.804 114H208.204L173.244 174H168.844ZM218.204 159.76C218.204 161.787 217.911 163.707 217.324 165.52C216.791 167.333 215.991 168.933 214.924 170.32C213.858 171.653 212.498 172.72 210.844 173.52C209.191 174.32 207.298 174.72 205.164 174.72C203.084 174.72 201.244 174.32 199.644 173.52C198.044 172.72 196.711 171.653 195.644 170.32C194.578 168.933 193.778 167.333 193.244 165.52C192.711 163.707 192.444 161.787 192.444 159.76C192.444 157.733 192.711 155.84 193.244 154.08C193.831 152.267 194.684 150.693 195.804 149.36C196.924 147.973 198.284 146.88 199.884 146.08C201.484 145.28 203.324 144.88 205.404 144.88C207.484 144.88 209.324 145.28 210.924 146.08C212.524 146.88 213.858 147.973 214.924 149.36C215.991 150.693 216.791 152.267 217.324 154.08C217.911 155.84 218.204 157.733 218.204 159.76ZM213.484 159.76C213.484 158.213 213.324 156.773 213.004 155.44C212.738 154.053 212.284 152.853 211.644 151.84C211.004 150.773 210.178 149.947 209.164 149.36C208.151 148.72 206.898 148.4 205.404 148.4C204.018 148.4 202.791 148.693 201.724 149.28C200.711 149.813 199.858 150.613 199.164 151.68C198.524 152.693 198.018 153.893 197.644 155.28C197.324 156.667 197.164 158.16 197.164 159.76C197.164 161.36 197.324 162.853 197.644 164.24C197.964 165.627 198.444 166.853 199.084 167.92C199.724 168.933 200.551 169.733 201.564 170.32C202.578 170.907 203.778 171.2 205.164 171.2C207.938 171.2 210.018 170.187 211.404 168.16C212.791 166.08 213.484 163.28 213.484 159.76ZM183.644 128.88C183.644 130.907 183.351 132.827 182.764 134.64C182.231 136.453 181.431 138.053 180.364 139.44C179.298 140.773 177.938 141.84 176.284 142.64C174.631 143.44 172.738 143.84 170.604 143.84C168.524 143.84 166.684 143.44 165.084 142.64C163.484 141.84 162.151 140.773 161.084 139.44C160.018 138.053 159.218 136.453 158.684 134.64C158.151 132.827 157.884 130.907 157.884 128.88C157.884 126.853 158.151 124.96 158.684 123.2C159.271 121.387 160.124 119.813 161.244 118.48C162.364 117.093 163.724 116 165.324 115.2C166.924 114.4 168.764 114 170.844 114C172.924 114 174.764 114.4 176.364 115.2C177.964 116 179.298 117.093 180.364 118.48C181.431 119.813 182.231 121.387 182.764 123.2C183.351 124.96 183.644 126.853 183.644 128.88ZM178.924 128.88C178.924 127.387 178.764 125.947 178.444 124.56C178.178 123.173 177.724 121.973 177.084 120.96C176.444 119.893 175.618 119.067 174.604 118.48C173.591 117.84 172.338 117.52 170.844 117.52C169.458 117.52 168.231 117.813 167.164 118.4C166.151 118.987 165.298 119.787 164.604 120.8C163.964 121.813 163.458 123.013 163.084 124.4C162.764 125.787 162.604 127.28 162.604 128.88C162.604 130.48 162.764 132 163.084 133.44C163.404 134.827 163.884 136.027 164.524 137.04C165.164 138.053 165.991 138.853 167.004 139.44C168.018 140.027 169.218 140.32 170.604 140.32C173.378 140.32 175.458 139.307 176.844 137.28C178.231 135.2 178.924 132.4 178.924 128.88Z" fill="black"/>
<defs>
<linearGradient id="paint0_linear_1274_2" x1="59.7289" y1="331.754" x2="224.307" y2="55.5733" gradientUnits="userSpaceOnUse">
<stop stop-color="#033743"/>
<stop offset="1" stop-color="#00A7E1"/>
</linearGradient>
</defs>
</svg>
