<svg width="298" height="297" viewBox="0 0 298 297" fill="none" xmlns="http://www.w3.org/2000/svg">
<path d="M148.806 289.73C226.808 289.73 290.041 226.495 290.041 148.491C290.041 70.4866 226.808 7.25146 148.806 7.25146C70.8036 7.25146 7.57031 70.4866 7.57031 148.491C7.57031 226.495 70.8036 289.73 148.806 289.73Z" stroke="#EAEAEA" strokeWidth="8" stroke-miterlimit="10"/>
<path d="M148.805 297C66.9208 297 0.318359 230.378 0.318359 148.509C0.318359 97.0784 26.3502 50.0348 69.9482 22.6607C73.3381 20.5396 77.8157 21.5548 79.9367 24.9449C82.0577 28.3349 81.0425 32.8127 77.6526 34.9337C38.2966 59.6429 14.8026 102.1 14.8026 148.509C14.8026 222.401 74.9152 282.497 148.787 282.497C222.659 282.497 282.771 222.383 282.771 148.509C282.771 74.6352 222.695 14.5028 148.805 14.5028C144.799 14.5028 141.554 11.2578 141.554 7.25142C141.554 3.24501 144.799 0 148.805 0C230.69 0 297.292 66.6224 297.292 148.491C297.292 230.359 230.69 297 148.805 297Z" fill="url(#paint0_linear_1274_3)"/>
<path d="M95.6463 174.72C93.4063 174.72 91.4863 174.56 89.8863 174.24C88.3396 173.973 86.9529 173.547 85.7263 172.96L87.0863 168.48C88.1529 168.96 89.3796 169.36 90.7663 169.68C92.1529 170 93.6996 170.16 95.4063 170.16C105.433 170.16 110.66 163.707 111.086 150.8C109.913 152.507 108.206 153.947 105.966 155.12C103.78 156.24 101.246 156.8 98.3663 156.8C96.1263 156.8 94.0463 156.427 92.1263 155.68C90.2063 154.933 88.5263 153.867 87.0863 152.48C85.6463 151.093 84.4996 149.387 83.6463 147.36C82.8463 145.28 82.4463 142.933 82.4463 140.32C82.4463 137.6 82.8729 135.173 83.7263 133.04C84.6329 130.907 85.8329 129.093 87.3263 127.6C88.8729 126.107 90.6863 124.96 92.7663 124.16C94.8463 123.36 97.0863 122.96 99.4863 122.96C101.726 122.96 103.886 123.413 105.966 124.32C108.046 125.173 109.886 126.56 111.486 128.48C113.086 130.347 114.366 132.8 115.326 135.84C116.286 138.827 116.766 142.453 116.766 146.72C116.766 151.84 116.233 156.187 115.166 159.76C114.1 163.333 112.606 166.24 110.686 168.48C108.82 170.667 106.606 172.267 104.046 173.28C101.486 174.24 98.6863 174.72 95.6463 174.72ZM111.006 142.96C111.006 141.04 110.74 139.147 110.206 137.28C109.673 135.413 108.873 133.76 107.806 132.32C106.793 130.827 105.54 129.627 104.046 128.72C102.606 127.813 100.953 127.36 99.0863 127.36C95.8329 127.36 93.1663 128.507 91.0863 130.8C89.0596 133.04 88.0463 136.107 88.0463 140C88.0463 144.107 89.0863 147.2 91.1662 149.28C93.2996 151.307 96.0463 152.32 99.4062 152.32C102.126 152.32 104.42 151.707 106.286 150.48C108.206 149.253 109.566 147.707 110.366 145.84C110.633 145.253 110.793 144.747 110.846 144.32C110.953 143.893 111.006 143.44 111.006 142.96ZM143.384 122.96C146.104 122.96 148.61 123.467 150.904 124.48C153.25 125.493 155.277 127.067 156.984 129.2C158.744 131.28 160.104 133.947 161.064 137.2C162.077 140.453 162.584 144.32 162.584 148.8C162.584 153.28 162.05 157.173 160.984 160.48C159.97 163.733 158.584 166.427 156.824 168.56C155.064 170.64 153.01 172.187 150.664 173.2C148.37 174.213 145.944 174.72 143.384 174.72C140.717 174.72 138.21 174.213 135.864 173.2C133.517 172.187 131.464 170.64 129.704 168.56C127.997 166.427 126.637 163.733 125.624 160.48C124.664 157.173 124.184 153.28 124.184 148.8C124.184 144.48 124.69 140.72 125.704 137.52C126.77 134.267 128.184 131.573 129.944 129.44C131.704 127.253 133.73 125.627 136.024 124.56C138.37 123.493 140.824 122.96 143.384 122.96ZM129.944 148.8C129.944 152.96 130.317 156.427 131.064 159.2C131.81 161.92 132.824 164.107 134.104 165.76C135.384 167.36 136.824 168.507 138.424 169.2C140.077 169.893 141.784 170.24 143.544 170.24C145.304 170.24 146.984 169.867 148.584 169.12C150.184 168.373 151.597 167.147 152.824 165.44C154.05 163.733 155.01 161.52 155.704 158.8C156.45 156.08 156.824 152.747 156.824 148.8C156.824 144.693 156.45 141.28 155.704 138.56C154.957 135.787 153.944 133.573 152.664 131.92C151.384 130.267 149.917 129.093 148.264 128.4C146.664 127.707 144.984 127.36 143.224 127.36C141.464 127.36 139.784 127.733 138.184 128.48C136.584 129.227 135.17 130.453 133.944 132.16C132.717 133.867 131.73 136.08 130.984 138.8C130.29 141.52 129.944 144.853 129.944 148.8ZM179.719 174L214.679 114H219.079L184.119 174H179.719ZM229.079 159.76C229.079 161.787 228.786 163.707 228.199 165.52C227.666 167.333 226.866 168.933 225.799 170.32C224.733 171.653 223.373 172.72 221.719 173.52C220.066 174.32 218.173 174.72 216.039 174.72C213.959 174.72 212.119 174.32 210.519 173.52C208.919 172.72 207.586 171.653 206.519 170.32C205.453 168.933 204.653 167.333 204.119 165.52C203.586 163.707 203.319 161.787 203.319 159.76C203.319 157.733 203.586 155.84 204.119 154.08C204.706 152.267 205.559 150.693 206.679 149.36C207.799 147.973 209.159 146.88 210.759 146.08C212.359 145.28 214.199 144.88 216.279 144.88C218.359 144.88 220.199 145.28 221.799 146.08C223.399 146.88 224.733 147.973 225.799 149.36C226.866 150.693 227.666 152.267 228.199 154.08C228.786 155.84 229.079 157.733 229.079 159.76ZM224.359 159.76C224.359 158.213 224.199 156.773 223.879 155.44C223.613 154.053 223.159 152.853 222.519 151.84C221.879 150.773 221.053 149.947 220.039 149.36C219.026 148.72 217.773 148.4 216.279 148.4C214.893 148.4 213.666 148.693 212.599 149.28C211.586 149.813 210.733 150.613 210.039 151.68C209.399 152.693 208.893 153.893 208.519 155.28C208.199 156.667 208.039 158.16 208.039 159.76C208.039 161.36 208.199 162.853 208.519 164.24C208.839 165.627 209.319 166.853 209.959 167.92C210.599 168.933 211.426 169.733 212.439 170.32C213.453 170.907 214.653 171.2 216.039 171.2C218.813 171.2 220.893 170.187 222.279 168.16C223.666 166.08 224.359 163.28 224.359 159.76ZM194.519 128.88C194.519 130.907 194.226 132.827 193.639 134.64C193.106 136.453 192.306 138.053 191.239 139.44C190.173 140.773 188.813 141.84 187.159 142.64C185.506 143.44 183.613 143.84 181.479 143.84C179.399 143.84 177.559 143.44 175.959 142.64C174.359 141.84 173.026 140.773 171.959 139.44C170.893 138.053 170.093 136.453 169.559 134.64C169.026 132.827 168.759 130.907 168.759 128.88C168.759 126.853 169.026 124.96 169.559 123.2C170.146 121.387 170.999 119.813 172.119 118.48C173.239 117.093 174.599 116 176.199 115.2C177.799 114.4 179.639 114 181.719 114C183.799 114 185.639 114.4 187.239 115.2C188.839 116 190.173 117.093 191.239 118.48C192.306 119.813 193.106 121.387 193.639 123.2C194.226 124.96 194.519 126.853 194.519 128.88ZM189.799 128.88C189.799 127.387 189.639 125.947 189.319 124.56C189.053 123.173 188.599 121.973 187.959 120.96C187.319 119.893 186.493 119.067 185.479 118.48C184.466 117.84 183.213 117.52 181.719 117.52C180.333 117.52 179.106 117.813 178.039 118.4C177.026 118.987 176.173 119.787 175.479 120.8C174.839 121.813 174.333 123.013 173.959 124.4C173.639 125.787 173.479 127.28 173.479 128.88C173.479 130.48 173.639 132 173.959 133.44C174.279 134.827 174.759 136.027 175.399 137.04C176.039 138.053 176.866 138.853 177.879 139.44C178.893 140.027 180.093 140.32 181.479 140.32C184.253 140.32 186.333 139.307 187.719 137.28C189.106 135.2 189.799 132.4 189.799 128.88Z" fill="black"/>
<defs>
<linearGradient id="paint0_linear_1274_3" x1="0.313646" y1="148.497" x2="297.298" y2="148.497" gradientUnits="userSpaceOnUse">
<stop stop-color="#033743"/>
<stop offset="1" stop-color="#00A7E1"/>
</linearGradient>
</defs>
</svg>
