<svg width="298" height="297" viewBox="0 0 298 297" fill="none" xmlns="http://www.w3.org/2000/svg">
<path d="M148.853 289.73C226.855 289.73 290.088 226.495 290.088 148.491C290.088 70.4866 226.855 7.25146 148.853 7.25146C70.8505 7.25146 7.61719 70.4866 7.61719 148.491C7.61719 226.495 70.8505 289.73 148.853 289.73Z" stroke="#EAEAEA" stroke-width="8" stroke-miterlimit="10"/>
<path d="M148.852 297C66.9677 297 0.365234 230.378 0.365234 148.509C0.365234 144.503 3.61015 141.258 7.61645 141.258C11.6227 141.258 14.8677 144.503 14.8677 148.509C14.8677 222.401 74.9803 282.497 148.852 282.497C222.724 282.497 282.836 222.383 282.836 148.509C282.836 74.6352 222.724 14.5028 148.852 14.5028C144.846 14.5028 141.601 11.2578 141.601 7.25142C141.601 3.24501 144.846 0 148.852 0C230.736 0 297.339 66.6224 297.339 148.491C297.339 230.359 230.718 297 148.852 297Z" fill="url(#paint0_linear_1274_4)"/>
<path d="M111.725 123.6V127.28L89.1647 175.12L84.2847 172.96L105.885 128.24H80.3647V123.6H111.725ZM149.174 123.44V128.08L129.734 128.24L128.054 143.6C128.641 143.493 129.387 143.387 130.294 143.28C131.254 143.173 132.267 143.12 133.334 143.12C135.414 143.12 137.494 143.413 139.574 144C141.654 144.587 143.494 145.493 145.094 146.72C146.747 147.947 148.081 149.52 149.094 151.44C150.107 153.307 150.614 155.547 150.614 158.16C150.614 160.56 150.187 162.773 149.334 164.8C148.481 166.773 147.227 168.507 145.574 170C143.921 171.493 141.894 172.667 139.494 173.52C137.094 174.32 134.374 174.72 131.334 174.72C129.467 174.72 127.521 174.507 125.494 174.08C123.521 173.707 121.841 173.147 120.454 172.4L121.734 167.92C122.961 168.613 124.401 169.147 126.054 169.52C127.761 169.893 129.467 170.08 131.174 170.08C133.201 170.08 135.041 169.84 136.694 169.36C138.401 168.88 139.841 168.16 141.014 167.2C142.241 166.24 143.174 165.04 143.814 163.6C144.507 162.107 144.854 160.373 144.854 158.4C144.854 154.88 143.601 152.16 141.094 150.24C138.641 148.267 135.414 147.28 131.414 147.28C129.921 147.28 128.481 147.387 127.094 147.6C125.707 147.76 124.294 148 122.854 148.32L125.334 123.6L149.174 123.44ZM169.321 174L204.281 114H208.681L173.721 174H169.321ZM218.681 159.76C218.681 161.787 218.388 163.707 217.801 165.52C217.268 167.333 216.468 168.933 215.401 170.32C214.334 171.653 212.974 172.72 211.321 173.52C209.668 174.32 207.774 174.72 205.641 174.72C203.561 174.72 201.721 174.32 200.121 173.52C198.521 172.72 197.188 171.653 196.121 170.32C195.054 168.933 194.254 167.333 193.721 165.52C193.188 163.707 192.921 161.787 192.921 159.76C192.921 157.733 193.188 155.84 193.721 154.08C194.308 152.267 195.161 150.693 196.281 149.36C197.401 147.973 198.761 146.88 200.361 146.08C201.961 145.28 203.801 144.88 205.881 144.88C207.961 144.88 209.801 145.28 211.401 146.08C213.001 146.88 214.334 147.973 215.401 149.36C216.468 150.693 217.268 152.267 217.801 154.08C218.388 155.84 218.681 157.733 218.681 159.76ZM213.961 159.76C213.961 158.213 213.801 156.773 213.481 155.44C213.214 154.053 212.761 152.853 212.121 151.84C211.481 150.773 210.654 149.947 209.641 149.36C208.628 148.72 207.374 148.4 205.881 148.4C204.494 148.4 203.268 148.693 202.201 149.28C201.188 149.813 200.334 150.613 199.641 151.68C199.001 152.693 198.494 153.893 198.121 155.28C197.801 156.667 197.641 158.16 197.641 159.76C197.641 161.36 197.801 162.853 198.121 164.24C198.441 165.627 198.921 166.853 199.561 167.92C200.201 168.933 201.028 169.733 202.041 170.32C203.054 170.907 204.254 171.2 205.641 171.2C208.414 171.2 210.494 170.187 211.881 168.16C213.268 166.08 213.961 163.28 213.961 159.76ZM184.121 128.88C184.121 130.907 183.828 132.827 183.241 134.64C182.708 136.453 181.908 138.053 180.841 139.44C179.774 140.773 178.414 141.84 176.761 142.64C175.108 143.44 173.214 143.84 171.081 143.84C169.001 143.84 167.161 143.44 165.561 142.64C163.961 141.84 162.628 140.773 161.561 139.44C160.494 138.053 159.694 136.453 159.161 134.64C158.628 132.827 158.361 130.907 158.361 128.88C158.361 126.853 158.628 124.96 159.161 123.2C159.748 121.387 160.601 119.813 161.721 118.48C162.841 117.093 164.201 116 165.801 115.2C167.401 114.4 169.241 114 171.321 114C173.401 114 175.241 114.4 176.841 115.2C178.441 116 179.774 117.093 180.841 118.48C181.908 119.813 182.708 121.387 183.241 123.2C183.828 124.96 184.121 126.853 184.121 128.88ZM179.401 128.88C179.401 127.387 179.241 125.947 178.921 124.56C178.654 123.173 178.201 121.973 177.561 120.96C176.921 119.893 176.094 119.067 175.081 118.48C174.068 117.84 172.814 117.52 171.321 117.52C169.934 117.52 168.708 117.813 167.641 118.4C166.628 118.987 165.774 119.787 165.081 120.8C164.441 121.813 163.934 123.013 163.561 124.4C163.241 125.787 163.081 127.28 163.081 128.88C163.081 130.48 163.241 132 163.561 133.44C163.881 134.827 164.361 136.027 165.001 137.04C165.641 138.053 166.468 138.853 167.481 139.44C168.494 140.027 169.694 140.32 171.081 140.32C173.854 140.32 175.934 139.307 177.321 137.28C178.708 135.2 179.401 132.4 179.401 128.88Z" fill="black"/>
<defs>
<linearGradient id="paint0_linear_1274_4" x1="54.9314" y1="281.967" x2="232.749" y2="79.563" gradientUnits="userSpaceOnUse">
<stop stop-color="#033743"/>
<stop offset="1" stop-color="#00A7E1"/>
</linearGradient>
</defs>
</svg>
