<svg width="294" height="294" viewBox="0 0 294 294" fill="none" xmlns="http://www.w3.org/2000/svg">
<path d="M145.513 289.73C223.515 289.73 286.749 226.495 286.749 148.491C286.749 70.4866 223.515 7.25146 145.513 7.25146C67.5107 7.25146 4.27734 70.4866 4.27734 148.491C4.27734 226.495 67.5107 289.73 145.513 289.73Z" stroke="#EAEAEA" strokeWidth="8" stroke-miterlimit="10"/>
<path d="M245.888 255.123C244.039 255.123 242.208 254.416 240.794 253.02C237.948 250.21 237.93 245.606 240.739 242.759C265.738 217.506 279.515 184.023 279.515 148.491C279.497 74.6171 219.403 14.5028 145.513 14.5028C141.507 14.5028 138.262 11.2578 138.262 7.25142C138.262 3.24501 141.507 0 145.513 0C227.397 0 294 66.6224 294 148.491C294 187.866 278.736 224.975 251.036 252.966C249.622 254.398 247.755 255.123 245.888 255.123Z" fill="url(#paint0_linear_1274_5)"/>
<path d="M86.865 123.6H92.385V156.16H100.705V160.8H92.385V174H87.025V160.8H62.225V157.44L86.865 123.6ZM68.705 156.16H87.025V140.08L87.425 129.36H87.265L81.745 138.16L68.705 156.16ZM126.165 122.96C128.885 122.96 131.392 123.467 133.685 124.48C136.032 125.493 138.058 127.067 139.765 129.2C141.525 131.28 142.885 133.947 143.845 137.2C144.858 140.453 145.365 144.32 145.365 148.8C145.365 153.28 144.832 157.173 143.765 160.48C142.752 163.733 141.365 166.427 139.605 168.56C137.845 170.64 135.792 172.187 133.445 173.2C131.152 174.213 128.725 174.72 126.165 174.72C123.498 174.72 120.992 174.213 118.645 173.2C116.298 172.187 114.245 170.64 112.485 168.56C110.778 166.427 109.418 163.733 108.405 160.48C107.445 157.173 106.965 153.28 106.965 148.8C106.965 144.48 107.472 140.72 108.485 137.52C109.552 134.267 110.965 131.573 112.725 129.44C114.485 127.253 116.512 125.627 118.805 124.56C121.152 123.493 123.605 122.96 126.165 122.96ZM112.725 148.8C112.725 152.96 113.098 156.427 113.845 159.2C114.592 161.92 115.605 164.107 116.885 165.76C118.165 167.36 119.605 168.507 121.205 169.2C122.858 169.893 124.565 170.24 126.325 170.24C128.085 170.24 129.765 169.867 131.365 169.12C132.965 168.373 134.378 167.147 135.605 165.44C136.832 163.733 137.792 161.52 138.485 158.8C139.232 156.08 139.605 152.747 139.605 148.8C139.605 144.693 139.232 141.28 138.485 138.56C137.738 135.787 136.725 133.573 135.445 131.92C134.165 130.267 132.698 129.093 131.045 128.4C129.445 127.707 127.765 127.36 126.005 127.36C124.245 127.36 122.565 127.733 120.965 128.48C119.365 129.227 117.952 130.453 116.725 132.16C115.498 133.867 114.512 136.08 113.765 138.8C113.072 141.52 112.725 144.853 112.725 148.8ZM162.501 174L197.461 114H201.861L166.901 174H162.501ZM211.861 159.76C211.861 161.787 211.567 163.707 210.981 165.52C210.447 167.333 209.647 168.933 208.581 170.32C207.514 171.653 206.154 172.72 204.501 173.52C202.847 174.32 200.954 174.72 198.821 174.72C196.741 174.72 194.901 174.32 193.301 173.52C191.701 172.72 190.367 171.653 189.301 170.32C188.234 168.933 187.434 167.333 186.901 165.52C186.367 163.707 186.101 161.787 186.101 159.76C186.101 157.733 186.367 155.84 186.901 154.08C187.487 152.267 188.341 150.693 189.461 149.36C190.581 147.973 191.941 146.88 193.541 146.08C195.141 145.28 196.981 144.88 199.061 144.88C201.141 144.88 202.981 145.28 204.581 146.08C206.181 146.88 207.514 147.973 208.581 149.36C209.647 150.693 210.447 152.267 210.981 154.08C211.567 155.84 211.861 157.733 211.861 159.76ZM207.141 159.76C207.141 158.213 206.981 156.773 206.661 155.44C206.394 154.053 205.941 152.853 205.301 151.84C204.661 150.773 203.834 149.947 202.821 149.36C201.807 148.72 200.554 148.4 199.061 148.4C197.674 148.4 196.447 148.693 195.381 149.28C194.367 149.813 193.514 150.613 192.821 151.68C192.181 152.693 191.674 153.893 191.301 155.28C190.981 156.667 190.821 158.16 190.821 159.76C190.821 161.36 190.981 162.853 191.301 164.24C191.621 165.627 192.101 166.853 192.741 167.92C193.381 168.933 194.207 169.733 195.221 170.32C196.234 170.907 197.434 171.2 198.821 171.2C201.594 171.2 203.674 170.187 205.061 168.16C206.447 166.08 207.141 163.28 207.141 159.76ZM177.301 128.88C177.301 130.907 177.007 132.827 176.421 134.64C175.887 136.453 175.087 138.053 174.021 139.44C172.954 140.773 171.594 141.84 169.941 142.64C168.287 143.44 166.394 143.84 164.261 143.84C162.181 143.84 160.341 143.44 158.741 142.64C157.141 141.84 155.807 140.773 154.741 139.44C153.674 138.053 152.874 136.453 152.341 134.64C151.807 132.827 151.541 130.907 151.541 128.88C151.541 126.853 151.807 124.96 152.341 123.2C152.927 121.387 153.781 119.813 154.901 118.48C156.021 117.093 157.381 116 158.981 115.2C160.581 114.4 162.421 114 164.501 114C166.581 114 168.421 114.4 170.021 115.2C171.621 116 172.954 117.093 174.021 118.48C175.087 119.813 175.887 121.387 176.421 123.2C177.007 124.96 177.301 126.853 177.301 128.88ZM172.581 128.88C172.581 127.387 172.421 125.947 172.101 124.56C171.834 123.173 171.381 121.973 170.741 120.96C170.101 119.893 169.274 119.067 168.261 118.48C167.247 117.84 165.994 117.52 164.501 117.52C163.114 117.52 161.887 117.813 160.821 118.4C159.807 118.987 158.954 119.787 158.261 120.8C157.621 121.813 157.114 123.013 156.741 124.4C156.421 125.787 156.261 127.28 156.261 128.88C156.261 130.48 156.421 132 156.741 133.44C157.061 134.827 157.541 136.027 158.181 137.04C158.821 138.053 159.647 138.853 160.661 139.44C161.674 140.027 162.874 140.32 164.261 140.32C167.034 140.32 169.114 139.307 170.501 137.28C171.887 135.2 172.581 132.4 172.581 128.88Z" fill="black"/>
<defs>
<linearGradient id="paint0_linear_1274_5" x1="83.4106" y1="301.341" x2="238.53" y2="64.8855" gradientUnits="userSpaceOnUse">
<stop stop-color="#033743"/>
<stop offset="1" stop-color="#00A7E1"/>
</linearGradient>
</defs>
</svg>
