<svg width="32" height="32" viewBox="0 0 32 32" fill="none" xmlns="http://www.w3.org/2000/svg">
<g clip-path="url(#clip0_284_1069)">
<path d="M12.8839 1.5769H1.98002C1.75698 1.5769 1.57617 1.75771 1.57617 1.98075V12.8846C1.57617 13.1076 1.75698 13.2884 1.98002 13.2884H12.8839C13.1069 13.2884 13.2877 13.1076 13.2877 12.8846V1.98075C13.2877 1.75771 13.1069 1.5769 12.8839 1.5769Z" stroke="#E43D30" strokeWidth="2" strokeLinecap="round" strokeLinejoin="round"/>
<path d="M30.4932 1.5769H19.5894C19.3664 1.5769 19.1855 1.75771 19.1855 1.98075V12.8846C19.1855 13.1076 19.3664 13.2884 19.5894 13.2884H30.4932C30.7163 13.2884 30.8971 13.1076 30.8971 12.8846V1.98075C30.8971 1.75771 30.7163 1.5769 30.4932 1.5769Z" stroke="#E43D30" strokeWidth="2" strokeLinecap="round" strokeLinejoin="round"/>
<path d="M12.8839 18.7114H1.98002C1.75698 18.7114 1.57617 18.8922 1.57617 19.1153V30.0191C1.57617 30.2422 1.75698 30.423 1.98002 30.423H12.8839C13.1069 30.423 13.2877 30.2422 13.2877 30.0191V19.1153C13.2877 18.8922 13.1069 18.7114 12.8839 18.7114Z" stroke="#E43D30" strokeWidth="2" strokeLinecap="round" strokeLinejoin="round"/>
<path d="M30.4932 18.7114H19.5894C19.3664 18.7114 19.1855 18.8922 19.1855 19.1153V30.0191C19.1855 30.2422 19.3664 30.423 19.5894 30.423H30.4932C30.7163 30.423 30.8971 30.2422 30.8971 30.0191V19.1153C30.8971 18.8922 30.7163 18.7114 30.4932 18.7114Z" stroke="#E43D30" strokeWidth="2" strokeLinecap="round" strokeLinejoin="round"/>
</g>
<defs>
<clipPath id="clip0_284_1069">
<rect width="32" height="32" fill="#E43D30"/>
</clipPath>
</defs>
</svg>
