<svg width="70" height="52" viewBox="0 0 70 52" fill="none" xmlns="http://www.w3.org/2000/svg">
<path d="M34.6045 8.09339L24.4766 30.8791L5.68873 20.7521L12.4847 51H34.6045M34.5974 8.09339L44.7253 30.8791L63.5132 20.7521L56.7173 51H34.5974M34.5974 8.09339C36.5562 8.09339 38.1441 6.50548 38.1441 4.5467C38.1441 2.58791 36.5562 1 34.5974 1C32.6387 1 31.0507 2.58791 31.0507 4.5467C31.0507 6.50548 32.6386 8.09339 34.5974 8.09339ZM17.3235 45.4158H51.9485M8.09339 17.2054C8.09339 19.1641 6.50548 20.7521 4.5467 20.7521C2.58791 20.7521 1 19.1641 1 17.2054C1 15.2466 2.58791 13.6587 4.5467 13.6587C6.50548 13.6587 8.09339 15.2466 8.09339 17.2054ZM61.1085 17.2054C61.1085 19.1641 62.6964 20.7521 64.6552 20.7521C66.614 20.7521 68.2019 19.1641 68.2019 17.2054C68.2019 15.2466 66.614 13.6587 64.6552 13.6587C62.6964 13.6587 61.1085 15.2466 61.1085 17.2054Z" stroke="#E43D30" strokeWidth="2" strokeLinecap="round" strokeLinejoin="round"/>
</svg>
