<svg width="55" height="53" viewBox="0 0 55 53" fill="none" xmlns="http://www.w3.org/2000/svg">
<path d="M27.4154 1.25708V7.45074M27.4154 51.2571V45.0634M44.4742 5.52751L41.9412 11.1795M44.4742 46.9867L41.9412 41.3346M10.3562 5.52751L12.8892 11.1795M10.3562 46.9867L12.8892 41.3346M22.0822 26.257C22.0822 23.3116 24.4699 20.9239 27.4153 20.9239M37.0628 26.2569C37.0628 31.585 32.7435 35.9043 27.4154 35.9043C22.0873 35.9043 17.7681 31.585 17.7681 26.2569C17.7681 20.9289 22.0873 16.6096 27.4154 16.6096C32.7435 16.6096 37.0628 20.9289 37.0628 26.2569ZM2 26.2812C8.23313 17.6527 17.3099 12.2189 27.4155 12.2189C37.521 12.2189 46.5978 17.6527 52.8309 26.2812C46.5978 34.9097 37.521 40.2948 27.4155 40.2948C17.3099 40.2948 8.23313 34.9097 2 26.2812Z" stroke="#E43D30" stroke-width="2" stroke-linecap="round"/>
</svg>
