<svg width="57" height="53" viewBox="0 0 57 53" fill="none" xmlns="http://www.w3.org/2000/svg">
<path d="M1 8.60772V48.8888C1 50.3187 2.15916 51.4778 3.58905 51.4778H10.6748M1 8.60772V4.08904C1 2.65916 2.15915 1.5 3.58904 1.5H52.9868C54.4167 1.5 55.5758 2.65915 55.5758 4.08904V8.60772M1 8.60772H55.5758M55.5758 8.60772V48.8888C55.5758 50.3187 54.4167 51.4778 52.9868 51.4778H45.9011M28.288 21.2734C17.1124 21.2734 8.05273 30.3331 8.05273 41.5087C8.05273 45.1333 9.00572 48.5353 10.6748 51.4778M28.288 21.2734C39.4636 21.2734 48.5232 30.3331 48.5232 41.5087C48.5232 45.1333 47.5702 48.5353 45.9011 51.4778M28.288 21.2734C23.4812 21.2734 19.5845 30.3331 19.5845 41.5087C19.5845 45.1532 19.9989 48.5134 20.7241 51.467L35.8496 51.4778C36.5749 48.5242 36.9915 45.1532 36.9915 41.5087C36.9915 30.3331 33.0948 21.2734 28.288 21.2734ZM48.5234 41.5671H8.05273M45.5083 31.491H11.0679M10.6748 51.4778H45.9011" stroke="#E43D30" strokeWidth="2" strokeLinecap="round"/>
</svg>
