<svg width="47" height="64" viewBox="0 0 47 64" fill="none" xmlns="http://www.w3.org/2000/svg">
<path d="M0.223017 28.372C-0.124658 28.8011 -0.0586376 29.4308 0.370478 29.7785C0.799594 30.1262 1.42931 30.0601 1.77698 29.631L0.223017 28.372ZM17.3903 8.77194L18.1672 8.14242C17.9774 7.90807 17.6919 7.77194 17.3903 7.77194C17.0887 7.77195 16.8032 7.90808 16.6133 8.14242L17.3903 8.77194ZM28.0466 21.9244L27.2697 22.5539C27.4595 22.7883 27.745 22.9244 28.0466 22.9244C28.3483 22.9244 28.6338 22.7883 28.8236 22.5539L28.0466 21.9244ZM45.9945 0.895733C45.937 0.346459 45.445 -0.0521344 44.8957 0.00545067L35.9448 0.943853C35.3955 1.00144 34.9969 1.4934 35.0545 2.04267C35.1121 2.59194 35.604 2.99054 36.1533 2.93295L44.1097 2.09882L44.9439 10.0552C45.0014 10.6045 45.4934 11.0031 46.0427 10.9455C46.5919 10.8879 46.9905 10.396 46.933 9.84668L45.9945 0.895733ZM2 39.4163C2 38.864 1.55228 38.4163 1 38.4163C0.447715 38.4163 0 38.864 0 39.4163H2ZM0 62.5841C0 63.1364 0.447715 63.5841 1 63.5841C1.55228 63.5841 2 63.1364 2 62.5841H0ZM46 27.2404C46 26.6881 45.5523 26.2404 45 26.2404C44.4477 26.2404 44 26.6881 44 27.2404H46ZM44 62.5841C44 63.1364 44.4477 63.5841 45 63.5841C45.5523 63.5841 46 63.1364 46 62.5841H44ZM15.0038 27.2402C15.0038 26.6879 14.5561 26.2402 14.0038 26.2402C13.4516 26.2402 13.0038 26.6879 13.0038 27.2402H15.0038ZM13.0038 62.5841C13.0038 63.1364 13.4516 63.5841 14.0038 63.5841C14.5561 63.5841 15.0038 63.1364 15.0038 62.5841H13.0038ZM30.76 32.6144C30.76 32.0621 30.3123 31.6144 29.76 31.6144C29.2077 31.6144 28.76 32.0621 28.76 32.6144H30.76ZM28.76 62.5841C28.76 63.1364 29.2077 63.5841 29.76 63.5841C30.3123 63.5841 30.76 63.1364 30.76 62.5841H28.76ZM1.77698 29.631L18.1673 9.40147L16.6133 8.14242L0.223017 28.372L1.77698 29.631ZM16.6133 9.40147L27.2697 22.5539L28.8236 21.2949L18.1672 8.14242L16.6133 9.40147ZM28.8236 22.5539L45.777 1.62952L44.223 0.370475L27.2697 21.2949L28.8236 22.5539ZM0 39.4163V62.5841H2V39.4163H0ZM44 27.2404V62.5841H46V27.2404H44ZM13.0038 27.2402V62.5841H15.0038V27.2402H13.0038ZM28.76 32.6144V62.5841H30.76V32.6144H28.76Z" fill="#E43D30"/>
</svg>
