<svg width="46" height="53" viewBox="0 0 46 53" fill="none" xmlns="http://www.w3.org/2000/svg">
<path d="M43.9096 38.6048V37.4989C43.9096 33.01 40.2706 29.3711 35.7818 29.3711H9.12782C4.63895 29.3711 1 33.01 1 37.4989V44.5873C1 46.3829 2.45968 47.8385 4.25523 47.8385H16.7774M32.3889 46.5129C28.5286 43.2683 27.4545 41.4476 25.0147 41.4476C22.5749 41.4476 19.9619 43.7154 19.9619 46.5129C19.9619 49.3103 22.5749 51.5781 25.0147 51.5781C27.4545 51.5781 28.5286 49.7586 32.3889 46.5129ZM32.3889 46.5129C36.2493 49.7574 37.3132 51.5781 39.753 51.5781C42.1929 51.5781 44.816 49.3103 44.816 46.5129C44.816 43.7154 42.1929 41.4476 39.753 41.4476C37.3132 41.4476 36.2493 43.2671 32.3889 46.5129ZM22.4547 23.4582C16.4136 23.4582 11.5164 18.5592 11.5164 12.5182C11.5164 6.4771 16.4136 1.57812 22.4547 1.57812C28.4958 1.57812 33.393 6.4771 33.393 12.5182C33.393 18.5592 28.4958 23.4582 22.4547 23.4582Z" stroke="#E43D30" stroke-width="2" stroke-linecap="round" stroke-linejoin="round"/>
</svg>
