<svg width="47" height="52" viewBox="0 0 47 52" fill="none" xmlns="http://www.w3.org/2000/svg">
<path d="M19.8602 1.72769V1.74635M19.8602 1.74635V5.63356C19.0952 5.86369 18.3613 6.17466 17.6585 6.55406L15.5501 4.41453C15.2267 4.0849 14.698 4.0849 14.3746 4.41453L10.8481 7.98455C10.5247 8.31419 10.5247 8.84907 10.8481 9.17249L12.9565 11.312C12.5771 12.021 12.2724 12.7674 12.0485 13.5448H9.0631C8.60286 13.5448 8.22968 13.9242 8.22968 14.3845V16.9096M19.8602 1.74635C19.8602 1.33586 20.1899 1 20.5941 1H25.7626C26.1731 1 26.5027 1.33586 26.5027 1.74635V5.65222C27.2677 5.88235 28.0016 6.18711 28.7044 6.57272L30.8129 4.43319C31.1363 4.10356 31.6649 4.10356 31.9884 4.43319L35.5148 8.00321C35.8383 8.32663 35.8383 8.86151 35.5148 9.19115L33.4064 11.3307C33.7858 12.0397 34.0906 12.7923 34.3145 13.5635H37.2999C37.7539 13.5759 38.1208 13.9429 38.1333 14.4031V16.9314M30.7431 16.7079C30.6921 14.8166 29.9545 12.9407 28.5303 11.4985C25.576 8.50689 20.7869 8.50689 17.8327 11.4985C16.4084 12.9407 15.6708 14.8166 15.6198 16.7079M5.88513 21.9366L17.7381 37.8305V51L28.6249 46.5185V37.8305L40.4778 21.9366M1 16.9314H45.363V21.9366H1V16.9314Z" stroke="#E43D30" stroke-width="2" stroke-linecap="round" stroke-linejoin="round"/>
</svg>
