<svg width="52" height="53" viewBox="0 0 52 53" fill="none" xmlns="http://www.w3.org/2000/svg">
<path d="M6.05918 1.75708V6.81626M6.05918 6.81626L6.05918 11.8754M6.05918 6.81626H11.1184M6.05918 6.81626L1 6.81626M6.05918 21.6979V26.7571M6.05918 26.7571L6.05918 31.8163M6.05918 26.7571H11.1184M6.05918 26.7571H1M26 1.75708V6.81626M26 6.81626V11.8754M26 6.81626H31.0592M26 6.81626L20.9408 6.81626M45.9408 41.6387V46.6979M45.9408 46.6979V51.7571M45.9408 46.6979H51M45.9408 46.6979H40.8816M11.3008 46.6974H25.9998V26.7566H45.9406V11.66M50.9996 6.81613C50.9996 9.61017 48.7346 11.8752 45.9406 11.8752C43.1465 11.8752 40.8815 9.61017 40.8815 6.81613C40.8815 4.02209 43.1465 1.75708 45.9406 1.75708C48.7346 1.75708 50.9996 4.02209 50.9996 6.81613ZM11.1181 46.698C11.1181 49.4921 8.85309 51.7571 6.05905 51.7571C3.26501 51.7571 1 49.4921 1 46.698C1 43.904 3.26501 41.639 6.05905 41.639C8.85309 41.639 11.1181 43.904 11.1181 46.698Z" stroke="#E43D30" strokeWidth="2" strokeLinecap="round" strokeLinejoin="round"/>
</svg>
