<svg width="46" height="53" viewBox="0 0 46 53" fill="none" xmlns="http://www.w3.org/2000/svg">
<path d="M0 27.2745C0 27.8268 0.447715 28.2745 1 28.2745C1.55228 28.2745 2 27.8268 2 27.2745H0ZM13.1182 14.8556C13.1182 15.4079 13.566 15.8555 14.1183 15.8555C14.6705 15.8554 15.1182 15.4076 15.1182 14.8553L13.1182 14.8556ZM14.118 13.678H13.118V13.6782L14.118 13.678ZM0.295159 35.2726C-0.0966125 35.6619 -0.0986384 36.295 0.290634 36.6868C0.679907 37.0786 1.31307 37.0806 1.70484 36.6913L0.295159 35.2726ZM17.2451 19.8405L17.95 19.1311C17.56 18.7436 16.9303 18.7436 16.5403 19.1311L17.2451 19.8405ZM27.8071 30.335L27.1023 31.0444C27.4923 31.4319 28.122 31.4319 28.512 31.0444L27.8071 30.335ZM45.6104 13.6423C45.6121 13.09 45.1659 12.6409 44.6136 12.6391L35.6136 12.6103C35.0614 12.6085 34.6122 13.0548 34.6104 13.6071C34.6087 14.1594 35.0549 14.6085 35.6072 14.6103L43.6072 14.6359L43.5816 22.6359C43.5798 23.1881 44.0261 23.6373 44.5784 23.639C45.1306 23.6408 45.5798 23.1945 45.5816 22.6423L45.6104 13.6423ZM2 43.1543C2 42.602 1.55228 42.1543 1 42.1543C0.447715 42.1543 0 42.602 0 43.1543H2ZM0 51.5781C0 52.1304 0.447715 52.5781 1 52.5781C1.55228 52.5781 2 52.1304 2 51.5781H0ZM45.6104 33.4389C45.6104 32.8866 45.1627 32.4389 44.6104 32.4389C44.0581 32.4389 43.6104 32.8866 43.6104 33.4389H45.6104ZM43.6104 51.5781C43.6104 52.1304 44.0581 52.5781 44.6104 52.5781C45.1627 52.5781 45.6104 52.1304 45.6104 51.5781H43.6104ZM14.8887 33.4388C14.8887 32.8865 14.441 32.4388 13.8887 32.4388C13.3364 32.4388 12.8887 32.8865 12.8887 33.4388H14.8887ZM12.8887 51.5781C12.8887 52.1304 13.3364 52.5781 13.8887 52.5781C14.441 52.5781 14.8887 52.1304 14.8887 51.5781H12.8887ZM30.5054 37.7269C30.5054 37.1746 30.0576 36.7269 29.5054 36.7269C28.9531 36.7269 28.5054 37.1746 28.5054 37.7269H30.5054ZM28.5054 51.5781C28.5054 52.1304 28.9531 52.5781 29.5054 52.5781C30.0576 52.5781 30.5054 52.1304 30.5054 51.5781H28.5054ZM7.55903 7.12879C6.30289 7.12879 5.28422 6.11001 5.28422 4.85346H3.28422C3.28422 7.21417 5.19791 9.12879 7.55903 9.12879V7.12879ZM9.83386 4.85346C9.83386 6.11 8.81518 7.12879 7.55903 7.12879V9.12879C9.92015 9.12879 11.8339 7.21417 11.8339 4.85346H9.83386ZM7.55903 2.57812C8.81518 2.57812 9.83386 3.59691 9.83386 4.85346H11.8339C11.8339 2.49274 9.92015 0.578125 7.55903 0.578125V2.57812ZM7.55903 0.578125C5.19791 0.578125 3.28422 2.49274 3.28422 4.85346H5.28422C5.28422 3.5969 6.30289 2.57812 7.55903 2.57812V0.578125ZM3.6945 11.9835H11.4235V9.98354H3.6945V11.9835ZM13.118 13.6782L13.1182 14.8556L15.1182 14.8553L15.118 13.6779L13.118 13.6782ZM2 27.2745V13.678H0V27.2745H2ZM11.4235 11.9835C12.3594 11.9835 13.118 12.7422 13.118 13.678H15.118C15.118 11.6376 13.4639 9.98354 11.4235 9.98354V11.9835ZM3.6945 9.98354C1.65408 9.98354 0 11.6376 0 13.678H2C2 12.7422 2.75865 11.9835 3.6945 11.9835V9.98354ZM1.70484 36.6913L17.95 20.5498L16.5403 19.1311L0.295159 35.2726L1.70484 36.6913ZM16.5403 20.5498L27.1023 31.0444L28.512 29.6257L17.95 19.1311L16.5403 20.5498ZM28.512 31.0444L45.3152 14.3485L43.9055 12.9297L27.1023 29.6257L28.512 31.0444ZM0 43.1543V51.5781H2V43.1543H0ZM43.6104 33.4389V51.5781H45.6104V33.4389H43.6104ZM12.8887 33.4388V51.5781H14.8887V33.4388H12.8887ZM28.5054 37.7269V51.5781H30.5054V37.7269H28.5054Z" fill="#E43D30"/>
</svg>
