<svg width="46" height="52" viewBox="0 0 46 52" fill="none" xmlns="http://www.w3.org/2000/svg">
<path d="M43.9096 38.0266V36.9208C43.9096 32.4319 40.2706 28.7929 35.7818 28.7929H9.12782C4.63895 28.7929 1 32.4319 1 36.9208V44.0092C1 45.8048 2.45968 47.2604 4.25523 47.2604H16.7774M32.3889 45.9347C28.5286 42.6902 27.4545 40.8695 25.0147 40.8695C22.5749 40.8695 19.9619 43.1373 19.9619 45.9347C19.9619 48.7322 22.5749 51 25.0147 51C27.4545 51 28.5286 49.1805 32.3889 45.9347ZM32.3889 45.9347C36.2493 49.1793 37.3132 51 39.753 51C42.1929 51 44.816 48.7322 44.816 45.9347C44.816 43.1373 42.1929 40.8695 39.753 40.8695C37.3132 40.8695 36.2493 42.689 32.3889 45.9347ZM22.4547 22.8801C16.4136 22.8801 11.5164 17.9811 11.5164 11.94C11.5164 5.89898 16.4136 1 22.4547 1C28.4958 1 33.393 5.89898 33.393 11.94C33.393 17.9811 28.4958 22.8801 22.4547 22.8801Z" stroke="#E43D30" strokeWidth="2" strokeLinecap="round" strokeLinejoin="round"/>
</svg>
