<svg width="54" height="63" viewBox="0 0 54 63" fill="none" xmlns="http://www.w3.org/2000/svg">
<path d="M14.2244 33.483L23.6507 24.1169L29.7793 30.2064L39.5294 20.5185M14.2244 38.305V42.8196M39.5294 27.8332V42.8196M21.7031 32.6675V42.8196M30.7647 35.1557V42.8196M23.6567 5.83525C10.8727 7.4997 1 18.4315 1 31.6692C1 44.9068 10.8727 55.8386 23.6567 57.5031M30.0116 57.5031C42.7956 55.8386 52.6683 44.9068 52.6683 31.6692C52.6683 18.4315 42.7956 7.49971 30.0116 5.83527M18.5862 1.75708L24.0174 5.9064L19.6661 11.4052M34.1168 61.7571L28.6857 57.6078L33.037 52.1089" stroke="#E43D30" strokeWidth="2" strokeLinecap="round" strokeLinejoin="round"/>
</svg>
