<svg width="59" height="53" viewBox="0 0 59 53" fill="none" xmlns="http://www.w3.org/2000/svg">
<path d="M52.5664 28.5611L29.1455 51.7571L5.72474 28.5611C4.17993 27.0579 2.9631 25.251 2.15088 23.2544C1.33866 21.2578 0.948655 19.1146 1.00541 16.9598C1.06217 14.805 1.56447 12.6854 2.48068 10.7343C3.39688 8.78315 4.70714 7.04288 6.32896 5.62303C7.95078 4.20319 9.84901 3.13452 11.9041 2.48434C13.9592 1.83415 16.1267 1.61653 18.2701 1.84517C20.4134 2.07381 22.4862 2.74376 24.3579 3.81284C26.2297 4.88192 27.8597 6.32697 29.1455 8.05699C30.4369 6.33953 32.0689 4.90711 33.9393 3.84938C35.8097 2.79164 37.8784 2.13137 40.0157 1.90987C42.1531 1.68837 44.3131 1.91042 46.3607 2.56213C48.4083 3.21383 50.2993 4.28116 51.9154 5.6973C53.5315 7.11345 54.8379 8.84794 55.7529 10.7922C56.6678 12.7365 57.1716 14.8487 57.2327 16.9966C57.2938 19.1445 56.9109 21.2819 56.108 23.275C55.3051 25.2682 54.0994 27.0741 52.5664 28.5799M29.1455 8.03825L18.8623 18.3215C18.2768 18.9072 17.9479 19.7013 17.9479 20.5293C17.9479 21.3574 18.2768 22.1515 18.8623 22.7371L20.5579 24.4328C22.7126 26.5875 26.2101 26.5875 28.3649 24.4328L31.4876 21.31C33.3511 19.4466 35.8785 18.3997 38.5139 18.3997C41.1492 18.3997 43.6766 19.4466 45.5401 21.31L52.5664 28.3363M30.7069 37.7046L36.9525 43.9501M38.5139 29.8977L44.7594 36.1432" stroke="#E43D30" stroke-width="2" stroke-linecap="round" stroke-linejoin="round"/>
</svg>
