<svg width="55" height="52" viewBox="0 0 55 52" fill="none" xmlns="http://www.w3.org/2000/svg">
<path d="M27.4154 1V7.19366M27.4154 51V44.8063M44.4742 5.27043L41.9412 10.9225M44.4742 46.7296L41.9412 41.0775M10.3562 5.27043L12.8892 10.9225M10.3562 46.7296L12.8892 41.0775M22.0822 25.9999C22.0822 23.0545 24.4699 20.6668 27.4153 20.6668M37.0628 25.9999C37.0628 31.3279 32.7435 35.6472 27.4154 35.6472C22.0873 35.6472 17.7681 31.3279 17.7681 25.9999C17.7681 20.6718 22.0873 16.3525 27.4154 16.3525C32.7435 16.3525 37.0628 20.6718 37.0628 25.9999ZM2 26.0241C8.23313 17.3956 17.3099 11.9618 27.4155 11.9618C37.521 11.9618 46.5978 17.3956 52.8309 26.0241C46.5978 34.6526 37.521 40.0377 27.4155 40.0377C17.3099 40.0377 8.23313 34.6526 2 26.0241Z" stroke="#E43D30" strokeWidth="2" strokeLinecap="round"/>
</svg>
