<svg width="58" height="52" viewBox="0 0 58 52" fill="none" xmlns="http://www.w3.org/2000/svg">
<path d="M33.0763 28.0266C32.0534 29.2584 30.5104 30.0428 28.7842 30.0428C27.0579 30.0428 25.5149 29.2584 24.492 28.0266M28.7847 51L5.7666 28.3557C-0.593609 22.0988 -0.586493 11.9473 5.77372 5.69039C12.1261 -0.558797 22.4324 -0.565793 28.7847 5.68339C35.1371 -0.565793 45.4432 -0.558797 51.7956 5.69039C58.1558 11.9473 58.1629 22.0988 51.8027 28.3557L28.7847 51ZM41.2146 24.4663C41.2146 31.3314 35.6493 36.8967 28.7842 36.8967C21.919 36.8967 16.3538 31.3314 16.3538 24.4663C16.3538 17.6012 21.919 12.0359 28.7842 12.0359C35.6493 12.0359 41.2146 17.6012 41.2146 24.4663ZM25.9468 21.4885C25.9468 22.0488 25.4926 22.5029 24.9324 22.5029C24.3721 22.5029 23.918 22.0488 23.918 21.4885C23.918 20.9283 24.3721 20.4741 24.9324 20.4741C25.4926 20.4741 25.9468 20.9283 25.9468 21.4885ZM33.3317 21.4885C33.3317 22.0488 32.8776 22.5029 32.3173 22.5029C31.7571 22.5029 31.3029 22.0488 31.3029 21.4885C31.3029 20.9283 31.7571 20.4741 32.3173 20.4741C32.8776 20.4741 33.3317 20.9283 33.3317 21.4885Z" stroke="#E43D30" stroke-width="2" stroke-linecap="round" stroke-linejoin="round"/>
</svg>
