<svg width="62" height="52" viewBox="0 0 62 52" fill="none" xmlns="http://www.w3.org/2000/svg">
<path d="M44.2189 18.0914H54.5481C57.8928 18.0914 60.6042 20.8029 60.6042 24.1476L60.6045 41.4433C60.6045 42.9298 59.3994 44.1349 57.9129 44.1349H48.6391M17.3853 18.0914H7.05616C3.71143 18.0914 1 20.8029 1 24.1476L1.00033 41.4433C1.00033 42.9298 2.20541 44.1349 3.69195 44.1349H12.9658M30.8022 15.7232C26.7372 15.7232 23.4418 12.4267 23.4418 8.36162C23.4418 4.29655 26.7372 1 30.8022 1C34.8673 1 38.1627 4.29655 38.1627 8.36162C38.1627 12.4267 34.8673 15.7232 30.8022 15.7232ZM49.3836 15.1412C46.2895 15.1412 43.7813 12.6321 43.7813 9.53799C43.7813 6.4439 46.2895 3.93476 49.3836 3.93476C52.4777 3.93476 54.986 6.4439 54.986 9.53799C54.986 12.6321 52.4777 15.1412 49.3836 15.1412ZM12.2206 15.1412C15.3147 15.1412 17.8229 12.6321 17.8229 9.53799C17.8229 6.4439 15.3147 3.93476 12.2206 3.93476C9.12651 3.93476 6.61825 6.4439 6.61825 9.53799C6.61825 12.6321 9.12651 15.1412 12.2206 15.1412ZM18.7521 51H42.8529C44.3394 51 45.5445 49.7949 45.5445 48.3084L45.5442 25.6554C45.5442 22.3106 42.8327 19.5992 39.488 19.5992H22.1163C18.7716 19.5992 16.0602 22.3106 16.0602 25.6554L16.0605 48.3084C16.0605 49.7949 17.2656 51 18.7521 51Z" stroke="#E43D30" stroke-width="2" stroke-linecap="round" stroke-linejoin="round"/>
</svg>
