<svg width="63" height="52" viewBox="0 0 63 52" fill="none" xmlns="http://www.w3.org/2000/svg">
<path d="M33.3554 12.2381H26.748C17.0137 12.2381 12.4931 18.3996 12.4931 26.0002C12.4931 33.6007 17.0137 39.7622 26.748 39.7622H33.3554M33.3554 12.2381L42.6408 12.2381V1L33.3554 1M33.3554 12.2381V1M33.3554 1L26 1C12.1929 0.999999 1 12.1929 1 26C0.999999 39.8071 12.1929 51 26 51H33.3554M33.3554 39.7622H42.6408V51H33.3554M33.3554 39.7622V51M48.0426 1L51.2597 1M48.0426 12.2381L55.45 12.2381M51.2597 6.61905H61.5743M48.0426 51H51.2597M48.0426 39.7619H55.45M51.2597 45.381H61.5743" stroke="#E43D30" strokeWidth="2" strokeLinecap="round" strokeLinejoin="round"/>
</svg>
