<svg width="55" height="52" viewBox="0 0 55 52" fill="none" xmlns="http://www.w3.org/2000/svg">
<g clip-path="url(#clip0_3001_8)">
<path d="M0.261016 23.0523C-0.145838 23.401 -0.0685799 23.9126 0.433577 24.1951C0.935734 24.4776 1.67264 24.4239 2.07948 24.0753L0.261016 23.0523ZM20.3504 7.12727L21.2595 6.61578C21.0374 6.42537 20.7033 6.31477 20.3504 6.31477C19.9975 6.31478 19.6634 6.42538 19.4411 6.61578L20.3504 7.12727ZM32.8205 17.8136L31.9114 18.3251C32.1335 18.5156 32.4676 18.6261 32.8205 18.6261C33.1736 18.6261 33.5077 18.5156 33.7298 18.3251L32.8205 17.8136ZM53.8234 0.727849C53.7561 0.281563 53.1804 -0.0422937 52.5376 0.00449413L42.0631 0.766946C41.4203 0.813736 40.9539 1.21345 41.0213 1.65973C41.0887 2.10602 41.6643 2.42988 42.3071 2.38309L51.6178 1.70536L52.594 8.16992C52.6613 8.61622 53.237 8.94008 53.8798 8.89328C54.5225 8.84648 54.9889 8.44682 54.9216 8.00049L53.8234 0.727849ZM2.34046 32.0258C2.34046 31.5771 1.81654 31.2133 1.17025 31.2133C0.52396 31.2133 3.8589e-05 31.5771 3.8589e-05 32.0258H2.34046ZM3.8589e-05 50.8496C3.8589e-05 51.2984 0.52396 51.6621 1.17025 51.6621C1.81654 51.6621 2.34046 51.2984 2.34046 50.8496H3.8589e-05ZM53.8298 22.1329C53.8298 21.6841 53.3059 21.3204 52.6596 21.3204C52.0133 21.3204 51.4894 21.6841 51.4894 22.1329H53.8298ZM51.4894 50.8496C51.4894 51.2984 52.0133 51.6621 52.6596 51.6621C53.3059 51.6621 53.8298 51.2984 53.8298 50.8496H51.4894ZM17.5577 22.1327C17.5577 21.684 17.0338 21.3202 16.3875 21.3202C15.7413 21.3202 15.2173 21.684 15.2173 22.1327H17.5577ZM15.2173 50.8496C15.2173 51.2984 15.7413 51.6621 16.3875 51.6621C17.0338 51.6621 17.5577 51.2984 17.5577 50.8496H15.2173ZM35.9958 26.4993C35.9958 26.0505 35.4719 25.6868 34.8256 25.6868C34.1793 25.6868 33.6554 26.0505 33.6554 26.4993H35.9958ZM33.6554 50.8496C33.6554 51.2984 34.1793 51.6621 34.8256 51.6621C35.4719 51.6621 35.9958 51.2984 35.9958 50.8496H33.6554ZM2.07948 24.0753L21.2596 7.63876L19.4411 6.61578L0.261016 23.0523L2.07948 24.0753ZM19.4411 7.63876L31.9114 18.3251L33.7298 17.3022L21.2595 6.61578L19.4411 7.63876ZM33.7298 18.3251L53.5689 1.32405L51.7504 0.301076L31.9114 17.3022L33.7298 18.3251ZM3.8589e-05 32.0258V50.8496H2.34046V32.0258H3.8589e-05ZM51.4894 22.1329V50.8496H53.8298V22.1329H51.4894ZM15.2173 22.1327V50.8496H17.5577V22.1327H15.2173ZM33.6554 26.4993V50.8496H35.9958V26.4993H33.6554Z" fill="#E43D30"/>
</g>
<defs>
<clipPath id="clip0_3001_8">
<rect width="55" height="52" fill="white"/>
</clipPath>
</defs>
</svg>
