<?xml version="1.0" encoding="utf-8"?>
<!-- Generator: Adobe Illustrator 28.2.0, SVG Export Plug-In . SVG Version: 6.00 Build 0)  -->
<svg version="1.1" id="Layer_1" xmlns="http://www.w3.org/2000/svg" xmlns:xlink="http://www.w3.org/1999/xlink" x="0px" y="0px"
	 viewBox="0 0 35 35" style="enable-background:new 0 0 35 35;" xml:space="preserve">
<style type="text/css">
	.st0{fill:#E43D30;}
</style>
<path class="st0" d="M2.59,15.84c-0.39,0.39-0.39,1.02,0,1.41c0.39,0.39,1.02,0.39,1.41,0L2.59,15.84z M13.88,6.04l0.7-0.71
	c-0.39-0.39-1.02-0.39-1.41,0L13.88,6.04z M20.76,12.87l-0.7,0.71c0.39,0.39,1.02,0.39,1.41,0L20.76,12.87z M32.7,2
	c0-0.55-0.44-1-1-1l-9-0.03c-0.55,0-1,0.44-1,1c0,0.55,0.44,1,1,1l8,0.03l-0.03,8c0,0.55,0.44,1,1,1c0.55,0,1-0.44,1-1L32.7,2z
	 M4.3,21.96c0-0.55-0.45-1-1-1c-0.55,0-1,0.45-1,1H4.3z M2.3,34c0,0.55,0.45,1,1,1c0.55,0,1-0.45,1-1H2.3z M32.7,15.63
	c0-0.55-0.45-1-1-1c-0.55,0-1,0.45-1,1H32.7z M30.7,34c0,0.55,0.45,1,1,1c0.55,0,1-0.45,1-1H30.7z M12.69,15.63c0-0.55-0.45-1-1-1
	c-0.55,0-1,0.45-1,1H12.69z M10.69,34c0,0.55,0.45,1,1,1c0.55,0,1-0.45,1-1H10.69z M22.86,18.43c0-0.55-0.45-1-1-1s-1,0.45-1,1
	H22.86z M20.86,34c0,0.55,0.45,1,1,1s1-0.45,1-1H20.86z M4,17.26L14.58,6.75l-1.41-1.42L2.59,15.84L4,17.26z M13.17,6.75l6.88,6.83
	l1.41-1.42l-6.88-6.83L13.17,6.75z M21.46,13.58L32.4,2.71l-1.41-1.42L20.05,12.16L21.46,13.58z M2.3,21.96V34h2V21.96H2.3z
	 M30.7,15.63V34h2V15.63H30.7z M10.69,15.63V34h2V15.63H10.69z M20.86,18.43V34h2V18.43H20.86z"/>
</svg>
