<svg width="34" height="30" viewBox="0 0 34 30" fill="none" xmlns="http://www.w3.org/2000/svg">
<path d="M1.01965 1.63525H6.39417L7.97733 5.86323M7.97733 5.86323L12.4853 17.9023M7.97733 5.86323H26.4592M12.4853 17.9023H22.2312M12.4853 17.9023L9.61891 23.0618H28.7524M26.4592 5.86323H32.9804L28.7524 17.9023H22.2312M26.4592 5.86323L22.2312 17.9023M17.4657 25.7131C17.4657 27.1774 16.2786 28.3645 14.8143 28.3645C13.35 28.3645 12.163 27.1774 12.163 25.7131C12.163 24.2488 13.35 23.0618 14.8143 23.0618C16.2786 23.0618 17.4657 24.2488 17.4657 25.7131ZM26.7059 25.7131C26.7059 27.1774 25.5189 28.3645 24.0546 28.3645C22.5903 28.3645 21.4032 27.1774 21.4032 25.7131C21.4032 24.2488 22.5903 23.0618 24.0546 23.0618C25.5189 23.0618 26.7059 24.2488 26.7059 25.7131Z" stroke="#E63E31" strokeWidth="2" strokeLinecap="round" strokeLinejoin="round"/>
</svg>
