<svg width="34" height="30" viewBox="0 0 34 30" fill="none" xmlns="http://www.w3.org/2000/svg">
<path d="M1.01953 1.63525H6.39404L7.97721 5.86323M7.97721 5.86323L12.4852 17.9023M7.97721 5.86323H26.4591M12.4852 17.9023H22.2311M12.4852 17.9023L9.61879 23.0618H28.7522M26.4591 5.86323H32.9802L28.7522 17.9023H22.2311M26.4591 5.86323L22.2311 17.9023M17.4656 25.7131C17.4656 27.1774 16.2785 28.3645 14.8142 28.3645C13.3499 28.3645 12.1628 27.1774 12.1628 25.7131C12.1628 24.2488 13.3499 23.0618 14.8142 23.0618C16.2785 23.0618 17.4656 24.2488 17.4656 25.7131ZM26.7058 25.7131C26.7058 27.1774 25.5188 28.3645 24.0544 28.3645C22.5901 28.3645 21.4031 27.1774 21.4031 25.7131C21.4031 24.2488 22.5901 23.0618 24.0544 23.0618C25.5188 23.0618 26.7058 24.2488 26.7058 25.7131Z" stroke="#E63E31" strokeWidth="2" strokeLinecap="round" strokeLinejoin="round"/>
</svg>
