<svg width="28" height="34" viewBox="0 0 28 34" fill="none" xmlns="http://www.w3.org/2000/svg">
<path d="M7.84566 33H20.1522M13.9989 28.0774V19.4628M13.9989 19.4628L9.07631 14.5402M13.9989 19.4628L18.9215 14.5402M6.41519 23.0015C4.95219 21.8586 3.76722 20.3992 2.94928 18.7326C2.13134 17.066 1.70167 15.2358 1.69257 13.3794C1.65566 6.70919 7.03363 1.15744 13.7022 1.00361C16.2866 0.941011 18.825 1.69385 20.9574 3.15531C23.0898 4.61673 24.7078 6.71266 25.5819 9.14553C26.456 11.5784 26.5417 14.2248 25.827 16.7092C25.1122 19.1935 23.6332 21.3897 21.5999 22.9861C21.1514 23.3339 20.788 23.7791 20.5372 24.2882C20.2864 24.7973 20.1548 25.3568 20.1523 25.9243V26.8473C20.1523 27.1737 20.0227 27.4867 19.7919 27.7175C19.5611 27.9483 19.2481 28.0779 18.9217 28.0779H9.07647C8.75008 28.0779 8.43708 27.9483 8.20631 27.7175C7.97546 27.4867 7.84582 27.1737 7.84582 26.8473V25.9243C7.84527 25.3604 7.7161 24.8041 7.46816 24.2976C7.2203 23.7912 6.86012 23.3479 6.41519 23.0015Z" stroke="#E63E31" strokeWidth="2" strokeLinecap="round" strokeLinejoin="round"/>
</svg>
