<svg width="32" height="35" viewBox="0 0 32 35" fill="none" xmlns="http://www.w3.org/2000/svg">
<path d="M1.09496 15.8406C0.703192 16.2299 0.701166 16.8631 1.09044 17.2548C1.47971 17.6466 2.11287 17.6486 2.50465 17.2593L1.09496 15.8406ZM12.3789 6.03841L13.0837 5.32905C12.6937 4.94154 12.064 4.94154 11.674 5.32905L12.3789 6.03841ZM19.257 12.8726L18.5522 13.582C18.9422 13.9695 19.5718 13.9695 19.9618 13.582L19.257 12.8726ZM31.1995 2.0032C31.2013 1.45092 30.755 1.00177 30.2027 1.00001L21.2027 0.971174C20.6505 0.969405 20.2013 1.41568 20.1995 1.96797C20.1978 2.52025 20.6441 2.96939 21.1963 2.97116L29.1963 2.99679L29.1707 10.9968C29.1689 11.549 29.6152 11.9982 30.1675 11.9999C30.7197 12.0017 31.1689 11.5554 31.1707 11.0032L31.1995 2.0032ZM2.7998 21.9617C2.7998 21.4094 2.35209 20.9617 1.7998 20.9617C1.24752 20.9617 0.799805 21.4094 0.799805 21.9617H2.7998ZM0.799805 34C0.799805 34.5523 1.24752 35 1.7998 35C2.35209 35 2.7998 34.5523 2.7998 34H0.799805ZM31.1995 15.6349C31.1995 15.0826 30.7518 14.6349 30.1995 14.6349C29.6472 14.6349 29.1995 15.0826 29.1995 15.6349H31.1995ZM29.1995 34C29.1995 34.5523 29.6472 35 30.1995 35C30.7518 35 31.1995 34.5523 31.1995 34H29.1995ZM11.1931 15.6348C11.1931 15.0825 10.7454 14.6348 10.1931 14.6348C9.64082 14.6348 9.1931 15.0825 9.1931 15.6348H11.1931ZM9.1931 34C9.1931 34.5523 9.64082 35 10.1931 35C10.7454 35 11.1931 34.5523 11.1931 34H9.1931ZM21.3629 18.4273C21.3629 17.875 20.9152 17.4273 20.3629 17.4273C19.8106 17.4273 19.3629 17.875 19.3629 18.4273H21.3629ZM19.3629 34C19.3629 34.5523 19.8106 35 20.3629 35C20.9152 35 21.3629 34.5523 21.3629 34H19.3629ZM2.50465 17.2593L13.0837 6.74778L11.674 5.32905L1.09496 15.8406L2.50465 17.2593ZM11.674 6.74778L18.5522 13.582L19.9618 12.1632L13.0837 5.32905L11.674 6.74778ZM19.9618 13.582L30.9043 2.70937L29.4947 1.29063L18.5522 12.1632L19.9618 13.582ZM0.799805 21.9617V34H2.7998V21.9617H0.799805ZM29.1995 15.6349V34H31.1995V15.6349H29.1995ZM9.1931 15.6348V34H11.1931V15.6348H9.1931ZM19.3629 18.4273V34H21.3629V18.4273H19.3629Z" fill="#E43D30"/>
</svg>
