<svg width="34" height="34" viewBox="0 0 34 34" fill="none" xmlns="http://www.w3.org/2000/svg">
<path d="M20.42 32.2507V28.2291C21.2076 27.9922 21.9633 27.672 22.6869 27.2814L24.8578 29.4843C25.1908 29.8237 25.7351 29.8237 26.0681 29.4843L29.6991 25.8085C30.0321 25.4691 30.0321 24.9184 29.6991 24.5854L27.5282 22.3824C27.9189 21.6524 28.2326 20.8839 28.4632 20.0834H31.537C32.0109 20.0834 32.3951 19.6928 32.3951 19.2189V14.019C32.3951 13.5387 32.0109 13.1545 31.537 13.1545H28.4632C28.2326 12.3604 27.9189 11.5856 27.5282 10.8555L29.6991 8.65259C30.0321 8.31319 30.0321 7.76246 29.6991 7.42946L26.0681 3.75365C25.7351 3.41425 25.1908 3.41425 24.8578 3.75365L22.6869 5.95657C21.9633 5.55954 21.2076 5.24575 20.42 5.00881V1.86452C20.42 1.38423 20.0357 1 19.5618 1H14.4324C13.9585 1 13.5743 1.39063 13.5743 1.86452V4.98319C12.7866 5.22013 12.0309 5.54032 11.3073 5.93096L9.13639 3.72804C8.80339 3.38863 8.25906 3.38863 7.92606 3.72804L4.29508 7.40384C3.96208 7.74325 3.96208 8.29398 4.29508 8.62698L6.46598 10.8299C6.07535 11.5599 5.76156 12.3284 5.53102 13.1289H2.46358C1.9897 13.1289 1.60547 13.5195 1.60547 13.9934V19.1997C1.61828 19.6736 1.9961 20.0514 2.46358 20.0642H5.53743C5.76797 20.8583 6.08175 21.6332 6.47239 22.3632L4.30149 24.5661C3.96849 24.9055 3.96849 25.4563 4.30149 25.7893L7.93246 29.4651C8.26546 29.8045 8.80979 29.8045 9.14279 29.4651L11.3137 27.2622C12.0373 27.6592 12.793 27.973 13.5807 28.2099V32.2315C13.5807 32.6542 13.9201 33 14.3427 33H19.6643C20.0806 33 20.42 32.6542 20.42 32.2315V32.2507Z" stroke="#E63E31" stroke-width="2" stroke-linecap="round" stroke-linejoin="round"/>
<path d="M22.5088 22.1903C19.467 25.2706 14.5361 25.2706 11.4942 22.1903C8.45241 19.1101 8.45241 14.1087 11.4942 11.0284C14.5361 7.94817 19.467 7.94817 22.5088 11.0284C25.5507 14.1087 25.5507 19.1101 22.5088 22.1903Z" stroke="#E63E31" stroke-width="2" stroke-linecap="round" stroke-linejoin="round"/>
</svg>
