<svg width="22" height="34" viewBox="0 0 22 34" fill="none" xmlns="http://www.w3.org/2000/svg">
<path d="M16.6873 26.0992C19.1775 26.7888 20.8011 27.9193 20.8011 29.1969C20.8011 31.2973 16.413 33 11 33C5.58708 33 1.19901 31.2973 1.19901 29.1969C1.19901 27.8492 3.00549 26.6653 5.7301 25.9898M16.3425 10.9396C16.3425 13.8902 13.9506 16.2821 11 16.2821C8.04939 16.2821 5.65746 13.8902 5.65746 10.9396C5.65746 7.98903 8.04939 5.5971 11 5.5971C13.9506 5.5971 16.3425 7.98903 16.3425 10.9396ZM20.9396 10.9396C20.9396 16.4291 16.4158 21.273 11 28.1163C5.57965 21.273 1.06036 16.4291 1.06036 10.9396C1.06036 5.45012 5.51048 1 11 1C16.4895 1 20.9396 5.45012 20.9396 10.9396Z" stroke="#E63E31" stroke-width="2" stroke-linecap="round"/>
</svg>
