<?xml version="1.0" encoding="utf-8"?>
<!-- Generator: Adobe Illustrator 28.2.0, SVG Export Plug-In . SVG Version: 6.00 Build 0)  -->
<svg version="1.1" id="Layer_1" xmlns="http://www.w3.org/2000/svg" xmlns:xlink="http://www.w3.org/1999/xlink" x="0px" y="0px"
	 viewBox="0 0 35 35" style="enable-background:new 0 0 35 35;" xml:space="preserve">
<style type="text/css">
	.st0{fill:none;stroke:#E43D30;strokeWidth:2;strokeLinecap:round;strokeLinejoin:round;}
</style>
<path class="st0" d="M20.58,31.23v-3.62c0.71-0.21,1.39-0.5,2.04-0.85l1.96,1.98c0.3,0.31,0.79,0.31,1.09,0l3.27-3.31
	c0.3-0.31,0.3-0.8,0-1.1l-1.96-1.98c0.35-0.66,0.63-1.35,0.84-2.07h2.77c0.43,0,0.77-0.35,0.77-0.78v-4.68
	c0-0.43-0.35-0.78-0.77-0.78h-2.77c-0.21-0.72-0.49-1.41-0.84-2.07l1.96-1.98c0.3-0.31,0.3-0.8,0-1.1l-3.27-3.31
	c-0.3-0.31-0.79-0.31-1.09,0l-1.96,1.98c-0.65-0.36-1.33-0.64-2.04-0.85V3.86c0-0.43-0.35-0.78-0.77-0.78h-4.62
	c-0.43,0-0.77,0.35-0.77,0.78v2.81c-0.71,0.21-1.39,0.5-2.04,0.85l-1.96-1.98c-0.3-0.31-0.79-0.31-1.09,0L6.05,8.85
	c-0.3,0.31-0.3,0.8,0,1.1l1.96,1.98C7.66,12.59,7.38,13.28,7.17,14H4.4c-0.43,0-0.77,0.35-0.77,0.78v4.69
	c0.01,0.43,0.35,0.77,0.77,0.78h2.77c0.21,0.72,0.49,1.41,0.84,2.07L6.05,24.3c-0.3,0.31-0.3,0.8,0,1.1l3.27,3.31
	c0.3,0.31,0.79,0.31,1.09,0l1.96-1.98c0.65,0.36,1.33,0.64,2.04,0.85v3.62c0,0.38,0.31,0.69,0.69,0.69h4.79
	c0.38,0,0.68-0.31,0.68-0.69v0.03H20.58z"/>
<path class="st0" d="M22.46,22.17c-2.74,2.78-7.18,2.78-9.92,0c-2.74-2.77-2.74-7.28,0-10.06c2.74-2.77,7.18-2.77,9.92,0
	C25.2,14.89,25.2,19.39,22.46,22.17z"/>
</svg>
