<svg width="40" height="34" viewBox="0 0 40 34" fill="none" xmlns="http://www.w3.org/2000/svg">
<path d="M0.00878906 1H6.39579L8.27721 6.0617M8.27721 6.0617L13.6344 20.4748M8.27721 6.0617H30.2409M13.6344 20.4748H25.2164M13.6344 20.4748L10.228 26.6517H32.9659M30.2409 6.0617H37.9905L32.9659 20.4748H25.2164M30.2409 6.0617L25.2164 20.4748M19.5531 29.8258C19.5531 31.5788 18.1424 33 16.4022 33C14.662 33 13.2513 31.5788 13.2513 29.8258C13.2513 28.0727 14.662 26.6517 16.4022 26.6517C18.1424 26.6517 19.5531 28.0727 19.5531 29.8258ZM30.534 29.8258C30.534 31.5788 29.1234 33 27.3831 33C25.643 33 24.2324 31.5788 24.2324 29.8258C24.2324 28.0727 25.643 26.6517 27.3831 26.6517C29.1234 26.6517 30.534 28.0727 30.534 29.8258Z" stroke="#E43D30" stroke-width="2"/>
</svg>
