<svg width="24" height="34" viewBox="0 0 24 34" fill="none" xmlns="http://www.w3.org/2000/svg">
<path d="M10.25 2.77778H13.75M12 25.8889V25.9067M1.5 4.55556C1.5 3.61256 1.86875 2.70819 2.52513 2.0414C3.1815 1.3746 4.07174 1 5 1H19C19.9283 1 20.8185 1.3746 21.4749 2.0414C22.1312 2.70819 22.5 3.61256 22.5 4.55556V29.4444C22.5 30.3874 22.1312 31.2918 21.4749 31.9586C20.8185 32.6254 19.9283 33 19 33H5C4.07174 33 3.1815 32.6254 2.52513 31.9586C1.86875 31.2918 1.5 30.3874 1.5 29.4444V4.55556Z" stroke="#E43D30" stroke-width="2" stroke-linecap="round"/>
</svg>
