<svg width="34" height="34" viewBox="0 0 34 34" fill="none" xmlns="http://www.w3.org/2000/svg">
<path d="M33 6.33333H1M30.3333 1H3.66667C2.19467 1.002 1.002 2.19467 1 3.66667V30.3333C1.002 31.8053 2.19467 32.998 3.66667 33H30.3333C31.8053 32.998 32.998 31.8053 33 30.3333V3.66667C32.998 2.19467 31.8053 1.002 30.3333 1Z" stroke="#E43D30" stroke-width="2"/>
<path d="M14.7265 10.2757C15.453 10.0959 16.1912 10 16.9412 10C17.6911 10 18.4294 10.0959 19.1559 10.2757C19.4723 10.3476 19.7183 10.6114 19.7769 10.947C19.7769 10.947 20.0347 12.4334 20.105 12.817C20.4214 12.9609 20.7261 13.1407 21.0073 13.3445L22.7533 12.7091C22.847 12.6732 22.9408 12.6612 23.0345 12.6612C23.2572 12.6612 23.4681 12.7571 23.6321 12.9249C24.6633 14.0278 25.4367 15.3823 25.8468 16.8448C25.9406 17.1685 25.8351 17.5161 25.589 17.7319L24.1712 18.9666C24.1946 19.3262 24.1946 19.6738 24.1712 20.0334L25.589 21.2681C25.8468 21.4839 25.9406 21.8315 25.8468 22.1552C25.425 23.6177 24.6633 24.9722 23.6321 26.0751C23.4798 26.2429 23.2572 26.3388 23.0345 26.3388C22.9408 26.3388 22.847 26.3268 22.7533 26.2909L21.0073 25.6555C20.7144 25.8473 20.4214 26.0271 20.105 26.183L19.7769 28.053C19.7183 28.3767 19.4723 28.6404 19.1559 28.7243C18.4294 28.9041 17.6911 29 16.9412 29C16.1912 29 15.453 28.9041 14.7265 28.7243C14.4101 28.6524 14.164 28.3767 14.1054 28.053C14.1054 28.053 13.8476 26.5666 13.7773 26.183C13.4609 26.0271 13.1563 25.8593 12.875 25.6555L11.1291 26.2909C11.0353 26.3268 10.9416 26.3388 10.8478 26.3388C10.6252 26.3388 10.4143 26.2429 10.2502 26.0751C9.21904 24.9722 8.44566 23.6177 8.03553 22.1552C7.94179 21.8315 8.04725 21.4839 8.29332 21.2681L9.7112 20.0334C9.68776 19.6738 9.68776 19.3142 9.7112 18.9666L8.29332 17.7319C8.03553 17.5161 7.94179 17.1685 8.03553 16.8448C8.45738 15.3823 9.21904 14.0278 10.2502 12.9249C10.4026 12.7571 10.6252 12.6612 10.8478 12.6612C10.9416 12.6612 11.0353 12.6732 11.1291 12.7091L12.875 13.3445C13.168 13.1527 13.4609 12.9729 13.7773 12.817L14.1054 10.947C14.164 10.6233 14.4101 10.3596 14.7265 10.2757Z" stroke="#E43D30" stroke-width="1.6"/>
<path d="M13.5879 19.4999C13.5879 17.3371 15.3502 15.5881 17.4997 15.5881C19.6625 15.5881 21.4114 17.3371 21.4114 19.4999C21.4114 21.6627 19.6625 23.4117 17.4997 23.4117C15.3368 23.4117 13.5879 21.6627 13.5879 19.4999Z" stroke="#E43D30" stroke-width="1.6"/>
</svg>
