<svg width="22" height="34" viewBox="0 0 22 34" fill="none" xmlns="http://www.w3.org/2000/svg">
<path d="M16.8106 26.6249L16.8407 20.4918H5.16766V26.8056M10.5637 20.4918V14.2332M14.6291 26.8056C14.3905 26.8056 14.1886 26.9983 14.1886 27.2461V32.5595C14.1886 32.7981 14.3813 33 14.6291 33H19.9425C20.1811 33 20.383 32.8073 20.383 32.5595V27.2461C20.383 27.0075 20.1903 26.8056 19.9425 26.8056H14.6291ZM2.05668 26.8056C1.81808 26.8056 1.61618 26.9983 1.61618 27.2461V32.5595C1.61618 32.7981 1.8089 33 2.05668 33H7.37013C7.60873 33 7.81062 32.8073 7.81062 32.5595V27.2461C7.81062 27.0075 7.61791 26.8056 7.37013 26.8056H2.05668ZM2.37787 1C1.90985 1 1.52441 1.38543 1.52441 1.85346V13.3797C1.52441 13.8477 1.90985 14.2332 2.37787 14.2332H10.9996H19.6213C20.0894 14.2332 20.4748 13.8477 20.4748 13.3797V1.85346C20.4748 1.38543 20.0894 1 19.6213 1H2.37787Z" stroke="#E43D30" stroke-width="2"/>
</svg>
