<svg width="34" height="34" viewBox="0 0 34 34" fill="none" xmlns="http://www.w3.org/2000/svg">
<path d="M27.7247 6.51095H23.2971C23.1616 6.51095 23.0557 6.40497 23.0557 6.26956C23.0557 6.13414 23.1616 6.02816 23.2971 6.02816H27.4833V1.84784C27.4833 1.71243 27.5892 1.60645 27.7247 1.60645C27.8601 1.60645 27.9661 1.71243 27.9661 1.84784V6.27544C27.9661 6.41086 27.8601 6.51684 27.7247 6.51684V6.51095Z" fill="white" stroke="#E43D30" stroke-width="1.6" stroke-miterlimit="10"/>
<path d="M6.26972 32.3933C6.1343 32.3933 6.02832 32.2873 6.02832 32.1519V27.7243C6.02832 27.5889 6.1343 27.4829 6.26972 27.4829H10.6973C10.8327 27.4829 10.9387 27.5889 10.9387 27.7243C10.9387 27.8597 10.8327 27.9657 10.6973 27.9657H6.51112V32.1519C6.51112 32.2873 6.40514 32.3933 6.26972 32.3933Z" fill="white" stroke="#E43D30" stroke-width="1.6" stroke-miterlimit="10"/>
<path d="M3.85568 24.8279C3.77326 24.8279 3.69083 24.7867 3.64961 24.7101C2.29543 22.3727 1.58301 19.7114 1.58301 17.003C1.58301 8.5011 8.49524 1.58887 16.9972 1.58887C21.1127 1.58887 24.981 3.19623 27.8895 6.10478C27.9837 6.19899 27.9837 6.35207 27.8895 6.44627C27.7953 6.54048 27.6423 6.54048 27.548 6.44627C24.7278 3.62603 20.9773 2.07166 16.9913 2.07166C8.76019 2.07166 2.0658 8.76605 2.0658 17.003C2.0658 19.6231 2.76056 22.2019 4.06764 24.4687C4.13241 24.5865 4.09708 24.7278 3.97933 24.7984C3.944 24.822 3.90279 24.8338 3.86157 24.8338L3.85568 24.8279Z" fill="white" stroke="#E43D30" stroke-width="1.6" stroke-miterlimit="10"/>
<path d="M16.9972 32.4111C12.8817 32.4111 9.01339 30.8037 6.10483 27.8951C6.01063 27.8009 6.01063 27.6479 6.10483 27.5536C6.19904 27.4594 6.35212 27.4594 6.44632 27.5536C9.26656 30.3739 13.0171 31.9283 17.0031 31.9283C25.2342 31.9283 31.9345 25.228 31.9345 16.9969C31.9345 14.3768 31.2397 11.798 29.9326 9.5312C29.8679 9.41345 29.9032 9.27214 30.0209 9.20149C30.1387 9.13672 30.28 9.17205 30.3506 9.28981C31.7048 11.6272 32.4173 14.2885 32.4173 16.9969C32.4173 25.4929 25.505 32.4111 17.0031 32.4111H16.9972Z" fill="white" stroke="#E43D30" stroke-width="1.6" stroke-miterlimit="10"/>
<path d="M18.8808 24.7983H15.1009C14.9654 24.7983 14.8595 24.6923 14.8595 24.5569V22.8436C14.1824 22.5963 13.5583 22.2371 12.9989 21.7661L11.5152 22.6257C11.4622 22.6552 11.3916 22.667 11.3327 22.6493C11.2738 22.6316 11.2208 22.5904 11.1855 22.5374L9.29552 19.2638C9.26608 19.2108 9.25431 19.1402 9.27197 19.0813C9.28963 19.0224 9.33085 18.9694 9.38384 18.9341L10.8617 18.0804C10.7969 17.7271 10.7675 17.3621 10.7675 17.0029C10.7675 16.6438 10.7969 16.2787 10.8617 15.9255L9.38384 15.0717C9.33085 15.0423 9.28963 14.9893 9.27197 14.9245C9.25431 14.8598 9.26608 14.795 9.29552 14.742L11.1855 11.4684C11.2149 11.4154 11.2679 11.3742 11.3327 11.3566C11.3916 11.3389 11.4622 11.3507 11.5152 11.3801L12.9989 12.2397C13.5583 11.7687 14.1824 11.4095 14.8595 11.1623V9.44892C14.8595 9.3135 14.9654 9.20752 15.1009 9.20752H18.8808C19.0162 9.20752 19.1222 9.3135 19.1222 9.44892V11.1623C19.7993 11.4095 20.4293 11.7687 20.9827 12.2397L22.4665 11.3801C22.5194 11.3507 22.5901 11.3389 22.649 11.3566C22.7078 11.3742 22.7608 11.4154 22.7962 11.4684L24.6861 14.742C24.7509 14.8598 24.7156 15.0011 24.5978 15.0717L23.12 15.9255C23.1848 16.2787 23.2142 16.6438 23.2142 17.0029C23.2142 17.3621 23.1848 17.7271 23.12 18.0804L24.5978 18.9341C24.7156 18.9989 24.7509 19.1461 24.6861 19.2638L22.7962 22.5374C22.7667 22.5904 22.7137 22.6316 22.649 22.6493C22.5901 22.667 22.5194 22.6552 22.4665 22.6257L20.9827 21.7661C20.4234 22.2371 19.7993 22.5963 19.1222 22.8436V24.5569C19.1222 24.6923 19.0162 24.7983 18.8808 24.7983ZM15.3481 24.3155H18.6453V22.6728C18.6453 22.5669 18.7101 22.4785 18.8102 22.4432C19.5461 22.2018 20.2173 21.8132 20.8002 21.2892C20.8768 21.2186 20.9886 21.2068 21.0828 21.2598L22.5077 22.0841L24.1562 19.2285L22.7373 18.4101C22.649 18.3571 22.6019 18.257 22.6195 18.1569C22.6961 17.7801 22.7373 17.3915 22.7373 17.0029C22.7373 16.6143 22.6961 16.2257 22.6195 15.8489C22.596 15.7488 22.6431 15.6428 22.7373 15.5957L24.1562 14.7773L22.5077 11.9218L21.0828 12.7461C20.9945 12.7991 20.8826 12.7873 20.8002 12.7166C20.2114 12.1985 19.5461 11.8099 18.8102 11.5626C18.7101 11.5273 18.6453 11.439 18.6453 11.333V9.69032H15.3481V11.333C15.3481 11.439 15.2834 11.5273 15.1833 11.5626C14.4473 11.8099 13.7761 12.1926 13.1932 12.7166C13.1167 12.7873 13.0048 12.7991 12.9106 12.7461L11.4858 11.9218L9.8372 14.7773L11.2561 15.5957C11.3445 15.6487 11.3916 15.7488 11.3739 15.8548C11.2974 16.2316 11.2561 16.6202 11.2561 17.0088C11.2561 17.3974 11.2974 17.786 11.3739 18.1628C11.3975 18.2629 11.3504 18.3689 11.2561 18.4219L9.8372 19.2403L11.4858 22.0958L12.9106 21.2716C12.9989 21.2186 13.1108 21.2303 13.1932 21.301C13.782 21.825 14.4532 22.2077 15.1833 22.455C15.2834 22.4903 15.3481 22.5786 15.3481 22.6846V24.3273V24.3155Z" fill="white" stroke="#E43D30" stroke-width="1.6" stroke-miterlimit="10"/>
<path d="M16.9977 19.758C15.4786 19.758 14.2422 18.5216 14.2422 17.0026C14.2422 15.4835 15.4786 14.2412 16.9977 14.2412C18.5167 14.2412 19.759 15.4776 19.759 17.0026C19.759 18.5275 18.5226 19.758 16.9977 19.758ZM16.9977 14.724C15.7436 14.724 14.7191 15.7485 14.7191 17.0026C14.7191 18.2567 15.7436 19.2811 16.9977 19.2811C18.2518 19.2811 19.2762 18.2567 19.2762 17.0026C19.2762 15.7485 18.2518 14.724 16.9977 14.724Z" fill="white" stroke="#E43D30" stroke-width="1.6" stroke-miterlimit="10"/>
</svg>
