<svg width="39" height="34" viewBox="0 0 39 34" fill="none" xmlns="http://www.w3.org/2000/svg">
<path d="M37.0946 17.9251V10.725M37.0946 10.725H1.89453M37.0946 10.725V6.72502C37.0946 3.63701 34.5826 1.125 31.4946 1.125H7.49455C4.40654 1.125 1.89453 3.63701 1.89453 6.72502V10.725M1.89453 10.725V27.5251C1.89453 29.5187 2.96813 31.3763 4.69454 32.3763" stroke="#E43D30" stroke-width="2"/>
<path d="M15.8938 25.481H14.5737C14.4956 25.1012 14.359 24.7676 14.1638 24.4802C13.9721 24.1927 13.7379 23.9514 13.4611 23.7562C13.1879 23.5575 12.8844 23.4085 12.5508 23.3091C12.2173 23.2097 11.8695 23.16 11.5075 23.16C10.8474 23.16 10.2494 23.3268 9.71357 23.6604C9.18125 23.994 8.75717 24.4855 8.44133 25.1349C8.12903 25.7844 7.97288 26.5811 7.97288 27.5251C7.97288 28.469 8.12903 29.2658 8.44133 29.9152C8.75717 30.5646 9.18125 31.0561 9.71357 31.3897C10.2494 31.7233 10.8474 31.8901 11.5075 31.8901C11.8695 31.8901 12.2173 31.8404 12.5508 31.7411C12.8844 31.6417 13.1879 31.4944 13.4611 31.2992C13.7379 31.1005 13.9721 30.8574 14.1638 30.5699C14.359 30.2789 14.4956 29.9454 14.5737 29.5692H15.8938C15.7945 30.1263 15.6135 30.625 15.3509 31.065C15.0882 31.5051 14.7618 31.8795 14.3714 32.1882C13.981 32.4934 13.5427 32.7258 13.0566 32.8855C12.5739 33.0452 12.0576 33.1251 11.5075 33.1251C10.5777 33.1251 9.75084 32.898 9.02688 32.4437C8.30292 31.9895 7.73334 31.3436 7.31813 30.5061C6.90292 29.6685 6.69531 28.6749 6.69531 27.5251C6.69531 26.3753 6.90292 25.3816 7.31813 24.5441C7.73334 23.7066 8.30292 23.0607 9.02688 22.6064C9.75084 22.1522 10.5777 21.925 11.5075 21.925C12.0576 21.925 12.5739 22.0049 13.0566 22.1646C13.5427 22.3243 13.981 22.5585 14.3714 22.8673C14.7618 23.1725 15.0882 23.5451 15.3509 23.9851C15.6135 24.4216 15.7945 24.9202 15.8938 25.481Z" fill="white" stroke="#E43D30" stroke-width="1.07563"/>
<path d="M17.6133 32.827V21.925H21.2969C22.1487 21.925 22.8478 22.0705 23.3943 22.3616C23.9408 22.649 24.3454 23.0447 24.608 23.5486C24.8706 24.0526 25.0019 24.6257 25.0019 25.268C25.0019 25.9104 24.8706 26.4799 24.608 26.9768C24.3454 27.4736 23.9426 27.864 23.3996 28.1479C22.8566 28.4282 22.1629 28.5684 21.3182 28.5684H18.3372V27.376H21.2757C21.8577 27.376 22.3261 27.2908 22.681 27.1205C23.0394 26.9502 23.2985 26.7088 23.4582 26.3965C23.6214 26.0807 23.703 25.7045 23.703 25.268C23.703 24.8315 23.6214 24.45 23.4582 24.1235C23.2949 23.797 23.0341 23.5451 22.6757 23.3676C22.3172 23.1867 21.8435 23.0962 21.2544 23.0962H18.9334V32.827H17.6133ZM22.7449 27.9296L25.4278 32.827H23.8947L21.2544 27.9296H22.7449Z" fill="white" stroke="#E43D30" stroke-width="1.07563"/>
<path d="M27.416 21.925H28.9917L32.6966 30.9745H32.8244L36.5294 21.925H38.105V32.827H36.87V24.5441H36.7636L33.3567 32.827H32.1643L28.7575 24.5441H28.651V32.827H27.416V21.925Z" fill="white" stroke="#E43D30" stroke-width="1.07563"/>
</svg>
