<svg width="36" height="34" viewBox="0 0 36 34" fill="none" xmlns="http://www.w3.org/2000/svg">
<path d="M10.717 33C10.6459 33 10.5807 32.9467 10.5333 32.8638C10.5096 32.8164 10.4918 32.7631 10.4681 32.7038C10.4563 32.6742 10.4504 32.6446 10.4385 32.6149L10.1304 31.8151C9.88157 31.1633 9.6268 30.5057 9.37796 29.854C9.30094 29.6584 9.31279 29.5814 9.33056 29.5577C9.34241 29.5281 9.40166 29.4807 9.6268 29.4274C10.1482 29.3148 10.6814 29.1904 11.1969 29.0778C11.4457 29.0185 11.6946 28.9652 11.9493 28.906H11.979C12.0441 28.8823 12.1093 28.8704 12.1626 28.8645C12.1686 28.8645 12.1804 28.8645 12.1863 28.8645C12.3345 28.8645 12.3641 28.9356 12.3759 29.0008C12.4056 29.1667 12.3285 29.2081 12.2456 29.2318C11.9256 29.3148 11.6057 29.3859 11.2858 29.457C11.1436 29.4866 11.0014 29.5222 10.8592 29.5577C10.7881 29.5755 10.7229 29.5933 10.6281 29.611L10.4681 29.6525L10.006 29.7651L10.4207 30.008C10.4918 30.0495 10.5629 30.0909 10.6222 30.1265C10.7525 30.2035 10.8592 30.2687 10.9777 30.3339C13.2884 31.5129 15.605 32.1054 17.8623 32.1054C20.5108 32.1054 23.1592 31.2818 25.7306 29.6584C25.772 29.6347 25.8076 29.6051 25.8431 29.5814C25.9024 29.5399 25.9616 29.4985 26.0149 29.4688C26.0505 29.4511 26.0801 29.4451 26.1097 29.4451C26.1275 29.4451 26.1808 29.4451 26.246 29.5281C26.3171 29.6229 26.3112 29.694 26.2282 29.7828C26.1571 29.8539 26.0623 29.9132 25.9735 29.9724C23.3073 31.6492 20.5759 32.5024 17.8505 32.5024C15.4746 32.5024 13.0395 31.8565 10.6163 30.5827C10.5866 30.5649 10.557 30.5531 10.5096 30.5235C10.48 30.5057 10.4444 30.4879 10.397 30.4642L9.9349 30.2154C9.9349 30.2154 10.6222 32.0165 10.794 32.455C10.8058 32.4846 10.8177 32.5083 10.8295 32.5379C10.8532 32.6031 10.8829 32.6683 10.9006 32.7275C10.9421 32.8519 10.9125 32.923 10.7881 32.9823C10.7644 32.9941 10.7407 33 10.717 33Z" stroke="#E43D30" stroke-width="1.2"/>
<path d="M23.4255 5.13555C23.313 5.13555 23.2597 5.09407 23.236 4.9815C23.2182 4.8867 23.2241 4.79191 23.4018 4.75043C23.7099 4.67341 24.024 4.60231 24.3321 4.53714C24.4683 4.50751 24.5987 4.47789 24.7349 4.44826C24.806 4.43049 24.8771 4.41272 24.9719 4.39494L25.6118 4.24682L25.203 4.0039C22.8686 2.60563 20.4572 1.92428 17.8325 1.92428C17.6725 1.92428 17.5066 1.92428 17.3407 1.9302C14.6212 2.01907 12.0854 2.84855 9.78654 4.40679L9.57324 4.10462C11.7417 2.49306 14.8167 1.53324 17.8384 1.53324C20.4335 1.53324 22.9042 2.20275 25.1971 3.52399L25.6592 3.7906L25.4696 3.28699C25.4341 3.1922 25.3985 3.0974 25.3689 3.00852C25.2978 2.813 25.2267 2.62934 25.1615 2.44567C25.1082 2.29754 25.049 2.15534 24.9897 2.00722C24.9008 1.78208 24.812 1.55694 24.729 1.32587C24.6875 1.2133 24.6698 1.0711 24.8179 1.01777C24.8475 1.00592 24.8712 1 24.9008 1C25.0016 1 25.0608 1.10072 25.0964 1.18367C25.5348 2.30939 25.914 3.30477 26.2636 4.23497C26.2991 4.32384 26.2991 4.40087 26.2754 4.45419C26.2458 4.51344 26.1688 4.54306 26.1095 4.55491C25.28 4.73858 24.4565 4.92225 23.627 5.10592C23.5796 5.11777 23.5322 5.12962 23.4848 5.13555C23.467 5.13555 23.4433 5.13555 23.4255 5.13555Z" stroke="#E43D30" stroke-width="1.2"/>
<path d="M34.381 26.0223C34.3159 26.0223 34.1914 26.0223 34.1914 25.7497C34.1914 25.4357 34.1914 25.1157 34.1914 24.8017C34.1914 24.4166 34.1914 24.0137 34.1914 23.6227C34.1737 20.8795 32.1177 18.6458 29.4042 18.4207C29.262 18.4088 29.1198 18.4029 28.9776 18.4029C26.4536 18.4029 24.2673 20.287 23.8822 22.7932C23.7933 23.3679 23.7992 23.9604 23.8052 24.5351C23.8052 24.7899 23.8052 25.0506 23.8052 25.2994C23.8052 25.3824 23.8052 25.4594 23.8052 25.5364C23.8052 25.6371 23.8052 25.7319 23.8052 25.8208C23.7992 25.9749 23.7341 26.0104 23.6215 26.0163C23.6156 26.0163 23.6096 26.0163 23.6037 26.0163C23.4971 26.0163 23.4319 25.9512 23.4201 25.8327C23.4023 25.5838 23.4082 25.329 23.4141 25.0802V25.0091C23.4141 24.7958 23.4141 24.5825 23.4141 24.3751C23.4141 23.6642 23.4023 22.9947 23.5622 22.3192C23.8466 21.1046 24.5517 20.0026 25.5412 19.2146C26.5247 18.4325 27.7333 18 28.942 18C29.1375 18 29.3271 18.0119 29.5227 18.0356C30.9328 18.1955 32.2185 18.8413 33.1427 19.8545C34.067 20.8676 34.5765 22.1948 34.5825 23.5871C34.5825 23.7945 34.5825 24.0078 34.5825 24.2152V24.3159V24.5114C34.5825 24.6358 34.5825 24.7603 34.5825 24.8847C34.5825 25.1631 34.5825 25.4535 34.5825 25.7438C34.5825 26.0282 34.464 26.0282 34.387 26.0282L34.381 26.0223Z" stroke="#E43D30" stroke-width="2"/>
<path d="M12.3878 26.0163C12.3226 26.0163 12.21 26.0104 12.2041 25.7734C12.2041 25.3053 12.2041 24.8254 12.2041 24.3633C12.2041 24.1145 12.2041 23.8715 12.2041 23.6227C12.2041 21.0809 10.4444 18.9658 7.94412 18.4858C7.63603 18.4266 7.31609 18.397 7.00207 18.397C4.22924 18.397 1.9067 20.6366 1.82375 23.3857C1.80597 23.9012 1.8119 24.4285 1.81782 24.938C1.81782 25.1928 1.81782 25.4535 1.81782 25.7082C1.81782 26.0163 1.69933 26.0163 1.6223 26.0163C1.55121 26.0163 1.42678 26.0163 1.42678 25.7082C1.42678 25.4298 1.42678 25.1572 1.42678 24.8254C1.42678 24.6655 1.42678 24.304 1.42678 24.304C1.37938 23.2494 1.50381 22.3488 1.80597 21.5549C2.60583 19.4634 4.73878 18 6.99022 18C7.15019 18 7.31609 18.0059 7.47606 18.0237C8.71435 18.1422 9.8934 18.6577 10.7999 19.4812C11.7123 20.3048 12.3107 21.4068 12.4826 22.5799C12.5892 23.3324 12.5892 24.1263 12.5892 24.8906C12.5892 25.1928 12.5892 25.5068 12.5892 25.8149C12.5892 25.8623 12.5833 25.9215 12.5418 25.9689C12.5003 26.0104 12.4411 26.0222 12.3996 26.0222C12.3996 26.0222 12.3937 26.0222 12.3878 26.0222V26.0163Z" stroke="#E43D30" stroke-width="2"/>
<path d="M6.79367 15.6578C5.89902 15.6578 5.05177 15.3083 4.41188 14.6743C3.772 14.0403 3.41058 13.1872 3.39873 12.2807C3.38688 11.3801 3.73053 10.5269 4.37041 9.87517C5.01622 9.21751 5.87532 8.85016 6.7996 8.84424H6.8233C8.70148 8.84424 10.1945 10.3432 10.2182 12.251C10.2419 14.0937 8.7311 15.6223 6.85292 15.6519C6.83515 15.6519 6.81145 15.6519 6.79367 15.6519V15.6578ZM6.81145 9.23528C6.00567 9.23528 5.24729 9.5493 4.6785 10.1181C4.10379 10.6869 3.78977 11.4453 3.78977 12.2451C3.78977 13.8922 5.13472 15.249 6.78183 15.2609H6.80552C8.45856 15.2609 9.80942 13.9159 9.82127 12.2629C9.82127 11.4512 9.51318 10.6928 8.9444 10.1181C8.37561 9.5493 7.62315 9.22935 6.81737 9.22935H6.81145V9.23528Z" stroke="#E43D30" stroke-width="2"/>
<path d="M28.8043 15.6578C27.886 15.6578 27.0269 15.3023 26.387 14.6565C25.7412 14.0107 25.3916 13.1457 25.3975 12.2214C25.4094 10.361 26.9321 8.84424 28.7925 8.84424H28.8103C29.7286 8.84424 30.5818 9.20565 31.2276 9.85739C31.8675 10.5032 32.217 11.3623 32.2111 12.2688C32.1993 14.1411 30.6707 15.6637 28.8043 15.6637V15.6578ZM28.7984 9.23528C27.9926 9.23528 27.2342 9.5493 26.6655 10.1181C26.0967 10.6869 25.7827 11.4452 25.7827 12.251C25.7827 13.91 27.1335 15.2609 28.7984 15.2609H28.8103C29.622 15.2609 30.3803 14.935 30.955 14.3544C31.5238 13.7796 31.8319 13.0213 31.8201 12.2273C31.8023 10.5802 30.4455 9.23528 28.7984 9.23528Z" stroke="#E43D30" stroke-width="2"/>
</svg>
