<svg width="34" height="34" viewBox="0 0 34 34" fill="none" xmlns="http://www.w3.org/2000/svg">
<path d="M33 9.7251H1" stroke="#E43D30" stroke-width="2"/>
<rect x="1" y="1" width="32" height="32" rx="3" stroke="#E43D30" stroke-width="2"/>
<path d="M9 21C9 23.1372 9.83112 25.1474 11.3419 26.6581C12.8526 28.1689 14.8628 29 17 29C19.1372 29 21.1474 28.1689 22.6581 26.6581C24.1689 25.1474 25 23.1372 25 21C25 18.8628 24.1689 16.8526 22.6581 15.3419C21.1474 13.8311 19.1372 13 17 13C14.8628 13 12.8526 13.8311 11.3419 15.3419C9.83112 16.8526 9 18.8628 9 21ZM9 21L13.7165 20.8649M16.4841 28.9059L15.7267 28.1525C15.5834 28.001 15.4442 27.8373 15.3173 27.6571C14.871 27.043 14.5107 26.2692 14.2487 25.3603C13.9253 24.2385 13.7492 22.9038 13.7206 21.3889L13.7165 20.8649M13.7165 20.8649L20.2753 20.8608M13.7165 20.8649V20.6111C13.7451 19.1003 13.9253 17.7615 14.2487 16.6397C14.5107 15.7308 14.871 14.957 15.3173 14.3429C15.4483 14.1627 15.5834 13.999 15.7267 13.8475L16.4841 13.0162M17.9171 28.9059L18.4739 28.1116C18.5435 28.0338 18.6172 27.9478 18.6827 27.8618C19.1331 27.2805 19.4933 26.5148 19.7554 25.5814C20.0788 24.4309 20.2549 23.0184 20.2794 21.3889H20.2876L20.2753 20.8608M20.2753 20.8608V20.607C20.2508 18.9775 20.0747 17.565 19.7513 16.4145C19.4893 15.4811 19.129 14.7155 18.6786 14.1341C18.6131 14.0481 18.5394 13.9621 18.4698 13.8843H18.4657L17.7472 13.0341M20.2753 20.8608H24.9988" stroke="#E43D30" stroke-width="1.5"/>
</svg>
