<svg width="22" height="34" viewBox="0 0 22 34" fill="none" xmlns="http://www.w3.org/2000/svg">
<path d="M1.63525 5.5638V1.88853C1.63525 1.39781 2.03306 1 2.52378 1H19.4765C19.9672 1 20.365 1.39781 20.365 1.88853V5.5638M1.63525 5.5638H20.365M1.63525 5.5638V28.0614M20.365 5.5638V28.0614M1.63525 28.0614V32.1115C1.63525 32.6022 2.03306 33 2.52378 33H19.4765C19.9672 33 20.365 32.6022 20.365 32.1115V28.0614M1.63525 28.0614H20.365M7.45495 14.8184L5.2733 17.0001L7.45495 19.1817M14.5451 14.8184L16.7267 17.0001L14.5451 19.1817M12.3006 14.8184L9.69941 19.1817" stroke="#E63E31" stroke-width="2" stroke-linecap="round" stroke-linejoin="round"/>
</svg>
