<svg width="31" height="32" viewBox="0 0 31 32" fill="none" xmlns="http://www.w3.org/2000/svg">
<g clip-path="url(#clip0_284_1062)">
<path d="M18.5262 29.7307V26.1077C19.2358 25.8942 19.9166 25.6058 20.5685 25.2538L22.5242 27.2384C22.8242 27.5442 23.3146 27.5442 23.6146 27.2384L26.8858 23.9269C27.1858 23.6211 27.1858 23.125 26.8858 22.825L24.93 20.8404C25.2819 20.1827 25.5646 19.4904 25.7723 18.7692H28.5416C28.9685 18.7692 29.3146 18.4173 29.3146 17.9904V13.3058C29.3146 12.8731 28.9685 12.5269 28.5416 12.5269H25.7723C25.5646 11.8115 25.2819 11.1134 24.93 10.4558L26.8858 8.47113C27.1858 8.16537 27.1858 7.66921 26.8858 7.36921L23.6146 4.05767C23.3146 3.7519 22.8242 3.7519 22.5242 4.05767L20.5685 6.04229C19.9166 5.6846 19.2358 5.4019 18.5262 5.18844V2.35575C18.5262 1.92306 18.18 1.5769 17.7531 1.5769H13.1319C12.705 1.5769 12.3589 1.92883 12.3589 2.35575V5.16537C11.6492 5.37883 10.9685 5.66729 10.3166 6.01921L8.36079 4.0346C8.06079 3.72883 7.5704 3.72883 7.2704 4.0346L3.99925 7.34614C3.69925 7.6519 3.69925 8.14806 3.99925 8.44806L5.95502 10.4327C5.60309 11.0904 5.3204 11.7827 5.11271 12.5038H2.34925C1.92233 12.5038 1.57617 12.8558 1.57617 13.2827V17.9731C1.58771 18.4 1.92809 18.7404 2.34925 18.7519H5.11848C5.32617 19.4673 5.60886 20.1654 5.96079 20.8231L4.00502 22.8077C3.70502 23.1134 3.70502 23.6096 4.00502 23.9096L7.27617 27.2211C7.57617 27.5269 8.06656 27.5269 8.36656 27.2211L10.3223 25.2365C10.9742 25.5942 11.655 25.8769 12.3646 26.0904V29.7134C12.3646 30.0942 12.6704 30.4058 13.0512 30.4058H17.8454C18.2204 30.4058 18.5262 30.0942 18.5262 29.7134V29.7307Z" stroke="#E43D30" strokeWidth="2" strokeLinecap="round" strokeLinejoin="round"/>
<path d="M20.4081 20.6673C17.6677 23.4423 13.2254 23.4423 10.485 20.6673C7.74459 17.8923 7.74459 13.3865 10.485 10.6115C13.2254 7.83652 17.6677 7.83652 20.4081 10.6115C23.1484 13.3865 23.1484 17.8923 20.4081 20.6673Z" stroke="#E43D30" strokeWidth="2" strokeLinecap="round" strokeLinejoin="round"/>
</g>
<defs>
<clipPath id="clip0_284_1062">
<rect width="31" height="32" fill="#E43D30"/>
</clipPath>
</defs>
</svg>
