<svg width="30" height="32" viewBox="0 0 30 32" fill="none" xmlns="http://www.w3.org/2000/svg">
<path d="M18.0262 29.7307V26.1077C18.7358 25.8942 19.4166 25.6058 20.0685 25.2538L22.0243 27.2384C22.3243 27.5442 22.8146 27.5442 23.1146 27.2384L26.3858 23.9269C26.6858 23.6211 26.6858 23.125 26.3858 22.825L24.43 20.8404C24.7819 20.1827 25.0646 19.4904 25.2723 18.7692H28.0416C28.4685 18.7692 28.8146 18.4173 28.8146 17.9904V13.3057C28.8146 12.8731 28.4685 12.5269 28.0416 12.5269H25.2723C25.0646 11.8115 24.7819 11.1134 24.43 10.4558L26.3858 8.47114C26.6858 8.16537 26.6858 7.66921 26.3858 7.36921L23.1146 4.05767C22.8146 3.7519 22.3243 3.7519 22.0243 4.05767L20.0685 6.04229C19.4166 5.6846 18.7358 5.4019 18.0262 5.18844V2.35575C18.0262 1.92306 17.68 1.5769 17.2531 1.5769H12.6319C12.205 1.5769 11.8589 1.92883 11.8589 2.35575V5.16537C11.1492 5.37883 10.4685 5.66729 9.81656 6.01921L7.86079 4.0346C7.56079 3.72883 7.0704 3.72883 6.7704 4.0346L3.49925 7.34614C3.19925 7.6519 3.19925 8.14806 3.49925 8.44806L5.45502 10.4327C5.10309 11.0904 4.8204 11.7827 4.61271 12.5038H1.84925C1.42233 12.5038 1.07617 12.8558 1.07617 13.2827V17.9731C1.08771 18.4 1.42809 18.7404 1.84925 18.7519H4.61848C4.82617 19.4673 5.10886 20.1654 5.46079 20.8231L3.50502 22.8077C3.20502 23.1134 3.20502 23.6096 3.50502 23.9096L6.77617 27.2211C7.07617 27.5269 7.56656 27.5269 7.86656 27.2211L9.82233 25.2365C10.4742 25.5942 11.155 25.8769 11.8646 26.0904V29.7134C11.8646 30.0942 12.1704 30.4058 12.5512 30.4058H17.3454C17.7204 30.4058 18.0262 30.0942 18.0262 29.7134V29.7307Z" stroke="#E63E31" stroke-width="2" stroke-linecap="round" stroke-linejoin="round"/>
<path d="M19.9081 20.6673C17.1677 23.4423 12.7254 23.4423 9.98498 20.6673C7.24459 17.8923 7.24459 13.3865 9.98498 10.6115C12.7254 7.83652 17.1677 7.83652 19.9081 10.6115C22.6484 13.3865 22.6484 17.8923 19.9081 20.6673Z" stroke="#E63E31" stroke-width="2" stroke-linecap="round" stroke-linejoin="round"/>
</svg>
