<svg width="34" height="34" viewBox="0 0 34 34" fill="none" xmlns="http://www.w3.org/2000/svg">
<path d="M5.23788 1C5.23788 0.447715 4.79016 0 4.23788 0C3.68559 0 3.23788 0.447715 3.23788 1H5.23788ZM3.23788 7.47576C3.23788 8.02804 3.68559 8.47576 4.23788 8.47576C4.79016 8.47576 5.23788 8.02804 5.23788 7.47576H3.23788ZM7.47576 5.23788C8.02804 5.23788 8.47576 4.79016 8.47576 4.23788C8.47576 3.68559 8.02804 3.23788 7.47576 3.23788V5.23788ZM1 3.23788C0.447715 3.23788 5.96046e-08 3.68559 0 4.23788C0 4.79016 0.447715 5.23788 1 5.23788L1 3.23788ZM5.23788 13.7621C5.23788 13.2098 4.79016 12.7621 4.23788 12.7621C3.68559 12.7621 3.23788 13.2098 3.23788 13.7621H5.23788ZM3.23788 20.2379C3.23788 20.7902 3.68559 21.2379 4.23788 21.2379C4.79016 21.2379 5.23788 20.7902 5.23788 20.2379H3.23788ZM7.47576 18C8.02804 18 8.47576 17.5523 8.47576 17C8.47576 16.4477 8.02804 16 7.47576 16V18ZM1 16C0.447715 16 0 16.4477 0 17C0 17.5523 0.447715 18 1 18V16ZM18 1C18 0.447715 17.5523 0 17 0C16.4477 0 16 0.447715 16 1H18ZM16 7.47576C16 8.02804 16.4477 8.47576 17 8.47576C17.5523 8.47576 18 8.02804 18 7.47576H16ZM20.2379 5.23788C20.7902 5.23788 21.2379 4.79016 21.2379 4.23788C21.2379 3.68559 20.7902 3.23788 20.2379 3.23788V5.23788ZM13.7621 3.23788C13.2098 3.23788 12.7621 3.68559 12.7621 4.23788C12.7621 4.79016 13.2098 5.23788 13.7621 5.23788V3.23788ZM30.7621 26.5242C30.7621 25.972 30.3144 25.5242 29.7621 25.5242C29.2098 25.5242 28.7621 25.972 28.7621 26.5242H30.7621ZM28.7621 33C28.7621 33.5523 29.2098 34 29.7621 34C30.3144 34 30.7621 33.5523 30.7621 33H28.7621ZM33 30.7621C33.5523 30.7621 34 30.3144 34 29.7621C34 29.2098 33.5523 28.7621 33 28.7621V30.7621ZM26.5242 28.7621C25.972 28.7621 25.5242 29.2098 25.5242 29.7621C25.5242 30.3144 25.972 30.7621 26.5242 30.7621V28.7621ZM16.9998 29.7618V30.7618C17.5521 30.7618 17.9998 30.3141 17.9998 29.7618H16.9998ZM16.9998 16.9997V15.9997C16.4476 15.9997 15.9998 16.4474 15.9998 16.9997H16.9998ZM29.762 16.9997V17.9997C30.3143 17.9997 30.762 17.552 30.762 16.9997H29.762ZM3.23788 1V4.23788H5.23788V1H3.23788ZM3.23788 4.23788L3.23788 7.47576H5.23788V4.23788H3.23788ZM7.47576 3.23788H4.23788V5.23788H7.47576V3.23788ZM4.23788 3.23788L1 3.23788L1 5.23788L4.23788 5.23788V3.23788ZM3.23788 13.7621V17H5.23788V13.7621H3.23788ZM3.23788 17L3.23788 20.2379H5.23788V17H3.23788ZM7.47576 16H4.23788V18H7.47576V16ZM4.23788 16H1V18H4.23788V16ZM16 1V4.23788H18V1H16ZM16 4.23788V7.47576H18V4.23788H16ZM20.2379 3.23788H17V5.23788H20.2379V3.23788ZM17 3.23788L13.7621 3.23788V5.23788L17 5.23788V3.23788ZM28.7621 26.5242V29.7621H30.7621V26.5242H28.7621ZM28.7621 29.7621V33H30.7621V29.7621H28.7621ZM33 28.7621H29.7621V30.7621H33V28.7621ZM29.7621 28.7621H26.5242V30.7621H29.7621V28.7621ZM7.59253 30.7618H16.9998V28.7618H7.59253V30.7618ZM17.9998 29.7618V16.9997H15.9998V29.7618H17.9998ZM16.9998 17.9997H29.762V15.9997H16.9998V17.9997ZM30.762 16.9997V7.33789H28.762V16.9997H30.762ZM31.9998 4.23779C31.9998 5.47369 30.9979 6.47559 29.762 6.47559V8.47559C32.1024 8.47559 33.9998 6.57826 33.9998 4.23779H31.9998ZM29.762 6.47559C28.5261 6.47559 27.5242 5.47369 27.5242 4.23779H25.5242C25.5242 6.57826 27.4215 8.47559 29.762 8.47559V6.47559ZM27.5242 4.23779C27.5242 3.00189 28.5261 2 29.762 2V0C27.4215 0 25.5242 1.89732 25.5242 4.23779H27.5242ZM29.762 2C30.9979 2 31.9998 3.00189 31.9998 4.23779H33.9998C33.9998 1.89732 32.1024 0 29.762 0V2ZM6.47559 29.7622C6.47559 30.9981 5.47369 32 4.23779 32V34C6.57826 34 8.47559 32.1027 8.47559 29.7622H6.47559ZM4.23779 32C3.00189 32 2 30.9981 2 29.7622H0C0 32.1027 1.89732 34 4.23779 34V32ZM2 29.7622C2 28.5263 3.00189 27.5244 4.23779 27.5244V25.5244C1.89732 25.5244 0 27.4217 0 29.7622H2ZM4.23779 27.5244C5.47369 27.5244 6.47559 28.5263 6.47559 29.7622H8.47559C8.47559 27.4217 6.57826 25.5244 4.23779 25.5244V27.5244Z" fill="#E63E31"/>
</svg>
