<svg width="40" height="40" viewBox="0 0 40 40" fill="none" xmlns="http://www.w3.org/2000/svg">
<path d="M35.24 0H4.76C2.136 0 0 2.136 0 4.76V35.24C0 37.864 2.136 40 4.76 40H35.24C37.864 40 40 37.864 40 35.24V4.76C40 2.136 37.864 0 35.24 0ZM31.432 17.448C31.216 17.472 30.992 17.48 30.776 17.48C28.368 17.48 26.128 16.264 24.808 14.256V25.24C24.808 29.728 21.176 33.36 16.688 33.36C12.2 33.36 8.568 29.728 8.568 25.24C8.568 20.752 12.2 17.12 16.688 17.12C16.856 17.12 17.024 17.136 17.192 17.144V21.144C17.024 21.128 16.864 21.096 16.688 21.096C14.4 21.096 12.544 22.952 12.544 25.24C12.544 27.528 14.4 29.384 16.688 29.384C18.976 29.384 21 27.584 21 25.288L21.04 6.624H24.872C25.232 10.056 28 12.736 31.448 12.992V17.44" fill="#E43D30"/>
</svg>
