<?xml version="1.0" encoding="utf-8"?>
<!-- Generator: Adobe Illustrator 28.2.0, SVG Export Plug-In . SVG Version: 6.00 Build 0)  -->
<svg version="1.1" id="Layer_1" xmlns="http://www.w3.org/2000/svg" xmlns:xlink="http://www.w3.org/1999/xlink" x="0px" y="0px"
	 viewBox="0 0 35 35" style="enable-background:new 0 0 35 35;" xml:space="preserve">
<style type="text/css">
	.st0{fill:#E43D30;}
</style>
<path class="st0" d="M5.74,1.5c0-0.55-0.45-1-1-1s-1,0.45-1,1H5.74z M3.74,7.98c0,0.55,0.45,1,1,1s1-0.45,1-1
	C5.74,7.98,3.74,7.98,3.74,7.98z M7.98,5.74c0.55,0,1-0.45,1-1s-0.45-1-1-1C7.98,3.74,7.98,5.74,7.98,5.74z M1.5,3.74
	c-0.55,0-1,0.45-1,1s0.45,1,1,1V3.74z M5.74,14.26c0-0.55-0.45-1-1-1s-1,0.45-1,1H5.74z M3.74,20.74c0,0.55,0.45,1,1,1s1-0.45,1-1
	H3.74z M7.98,18.5c0.55,0,1-0.45,1-1s-0.45-1-1-1C7.98,16.5,7.98,18.5,7.98,18.5z M1.5,16.5c-0.55,0-1,0.45-1,1s0.45,1,1,1V16.5z
	 M18.5,1.5c0-0.55-0.45-1-1-1s-1,0.45-1,1H18.5z M16.5,7.98c0,0.55,0.45,1,1,1s1-0.45,1-1C18.5,7.98,16.5,7.98,16.5,7.98z
	 M20.74,5.74c0.55,0,1-0.45,1-1s-0.45-1-1-1V5.74z M14.26,3.74c-0.55,0-1,0.45-1,1s0.45,1,1,1V3.74z M31.26,27.02c0-0.55-0.45-1-1-1
	s-1,0.45-1,1H31.26z M29.26,33.5c0,0.55,0.45,1,1,1s1-0.45,1-1H29.26z M33.5,31.26c0.55,0,1-0.45,1-1s-0.45-1-1-1V31.26z
	 M27.02,29.26c-0.55,0-1,0.45-1,1s0.45,1,1,1V29.26z M17.5,30.26v1c0.55,0,1-0.45,1-1H17.5z M17.5,17.5v-1c-0.55,0-1,0.45-1,1H17.5z
	 M30.26,17.5v1c0.55,0,1-0.45,1-1H30.26z M3.74,1.5v3.24h2V1.5H3.74z M3.74,4.74v3.24h2V4.74H3.74z M7.98,3.74H4.74v2h3.24
	C7.98,5.74,7.98,3.74,7.98,3.74z M4.74,3.74H1.5v2h3.24V3.74z M3.74,14.26v3.24h2v-3.24H3.74z M3.74,17.5v3.24h2V17.5H3.74z
	 M7.98,16.5H4.74v2h3.24C7.98,18.5,7.98,16.5,7.98,16.5z M4.74,16.5H1.5v2h3.24V16.5z M16.5,1.5v3.24h2V1.5H16.5z M16.5,4.74v3.24h2
	V4.74H16.5z M20.74,3.74H17.5v2h3.24V3.74z M17.5,3.74h-3.24v2h3.24V3.74z M29.26,27.02v3.24h2v-3.24H29.26z M29.26,30.26v3.24h2
	v-3.24H29.26z M33.5,29.26h-3.24v2h3.24V29.26z M30.26,29.26h-3.24v2h3.24V29.26z M8.09,31.26h9.41v-2H8.09V31.26z M18.5,30.26V17.5
	h-2v12.76H18.5z M17.5,18.5h12.76v-2H17.5V18.5z M31.26,17.5V7.84h-2v9.66H31.26z M32.5,4.74c0,1.24-1,2.24-2.24,2.24v2
	c2.34,0,4.24-1.9,4.24-4.24H32.5z M30.26,6.98c-1.24,0-2.24-1-2.24-2.24h-2c0,2.34,1.9,4.24,4.24,4.24V6.98z M28.02,4.74
	c0-1.24,1-2.24,2.24-2.24v-2c-2.34,0-4.24,1.9-4.24,4.24H28.02z M30.26,2.5c1.24,0,2.24,1,2.24,2.24h2c0-2.34-1.9-4.24-4.24-4.24
	V2.5z M6.98,30.26c0,1.24-1,2.24-2.24,2.24v2c2.34,0,4.24-1.9,4.24-4.24H6.98z M4.74,32.5c-1.24,0-2.24-1-2.24-2.24h-2
	c0,2.34,1.9,4.24,4.24,4.24V32.5z M2.5,30.26c0-1.24,1-2.24,2.24-2.24v-2c-2.34,0-4.24,1.9-4.24,4.24H2.5z M4.74,28.02
	c1.24,0,2.24,1,2.24,2.24h2c0-2.34-1.9-4.24-4.24-4.24V28.02z"/>
</svg>
