<svg width="36" height="34" viewBox="0 0 36 34" fill="none" xmlns="http://www.w3.org/2000/svg">
<path d="M11.2056 3.99684L8.43517 6.76731M14.6786 7.46975L10.2532 11.8951M27.3331 20.1243L24.5626 22.8947M30.5113 23.3025L26.086 27.7278M12.3192 28.224L3.27275 32.5495L7.59827 23.5031M12.3192 28.224L7.59827 23.5031M12.3192 28.224C14.2421 26.3012 15.9408 24.6024 17.5344 23.0088M7.59827 23.5031L12.8134 18.2879M26.1615 4.9398L28.9238 2.17752C29.5741 1.52719 30.6285 1.52719 31.2788 2.17752L33.6448 4.54342C34.2951 5.19375 34.2951 6.24814 33.6448 6.89846L30.8825 9.66075M26.1615 4.9398L30.8825 9.66075M26.1615 4.9398L19.1551 11.9463M30.8825 9.66075C28.2232 12.32 25.9925 14.5507 23.876 16.6672M19.1551 11.9463L8.20881 1L1.86719 7.34162L12.8134 18.2879M19.1551 11.9463L12.8134 18.2879M17.5344 23.0088L27.5256 33L33.8672 26.6584C29.8844 22.6756 27.1146 19.9057 23.876 16.6672M17.5344 23.0088C19.7449 20.7983 21.7531 18.7902 23.876 16.6672" stroke="#E63E31" strokeWidth="2" strokeLinecap="round" strokeLinejoin="round"/>
</svg>
