<svg width="32" height="34" viewBox="0 0 32 34" fill="none" xmlns="http://www.w3.org/2000/svg">
<path d="M19.7357 33L18.3268 32.0645C18.3051 32.0503 18.2859 32.0338 18.2688 32.0167L18.2105 31.9564L18.1316 31.928C18.1173 31.9229 18.1032 31.916 18.0906 31.9069C18.0484 31.879 18.0198 31.8364 18.0101 31.7875C18.0003 31.7386 18.01 31.6886 18.0379 31.6465L19.1348 30.0075M17 2.08142C17.3467 2.08142 17.5 2.08142 18.222 2.22438C21.7424 2.74473 24.9745 4.51229 27.3226 7.20165C29.6941 9.91718 31 13.397 31 17.0003C31 18.7229 30.7082 20.4187 30.1331 22.0395C29.5764 23.6085 28.7683 25.0701 27.7313 26.3838C25.6465 29.0242 22.7308 30.9066 19.5221 31.684L18.2688 31.9069M13.894 2.08142L12.4784 2.31594C9.26921 3.09335 6.35353 4.97578 4.26868 7.61623C3.23168 8.92992 2.42363 10.3914 1.86687 11.9605C1.29184 13.5812 1 15.2771 1 16.9997C1 19.0163 1.39628 20.9726 2.1786 22.8141C2.93408 24.593 4.01555 26.1904 5.39346 27.5627C6.77137 28.9349 8.37546 30.0121 10.1617 30.7644C12.0107 31.5436 12.3866 31.7875 14.5 32H15M12.2648 1L14.0675 2.19654L12.866 3.9919M11.7089 17.1879L4.99725 17.1765M26.9821 17.1874L20.4152 17.1885M11.8045 17.0067V16.4475C11.8862 11.7762 13.0202 9.26086 13.9579 7.97333C14.5072 7.21924 15.0533 6.78935 15.4147 6.56187C15.6169 6.43505 15.7812 6.3571 15.884 6.31445L15.9074 6.3048L16.0165 6.261L16.1416 6.29231C16.2427 6.31847 16.405 6.3696 16.6031 6.46627C16.9606 6.6403 17.5007 6.99459 18.0455 7.69579C18.9842 8.90541 20.1201 11.406 20.1961 16.4487L20.2022 17.049M16 28.1143C13.0192 28.1143 10.2166 26.9581 8.10895 24.8591C6.00125 22.76 4.84027 19.9689 4.84027 17.0003C4.84027 14.0317 6.00125 11.2405 8.10895 9.14148C10.2166 7.04242 13.0192 5.88626 16 5.88626C18.9808 5.88626 21.7834 7.04242 23.8911 9.14148C25.9987 11.2405 27.1597 14.0317 27.1597 17.0003C27.1597 19.9689 25.9987 22.76 23.8911 24.8591C21.7834 26.9581 18.9808 28.1143 16 28.1143ZM11.8045 17.5525C11.8862 22.2237 13.0208 24.7391 13.9584 26.0266C14.5078 26.7813 15.0538 27.2107 15.4153 27.4381C15.6174 27.5655 15.7818 27.6428 15.8846 27.6855L15.908 27.6952L16.0159 27.7384L16.1422 27.7077C16.2433 27.6815 16.4055 27.6303 16.6037 27.5337C16.9611 27.3596 17.5013 27.0053 18.046 26.3041C18.9854 25.0945 20.1207 22.5945 20.1966 17.5513L20.2022 17.1874H11.7989L11.8045 17.5525Z" stroke="white" stroke-width="2" stroke-linecap="round"/>
</svg>
