<svg width="35" height="34" viewBox="0 0 35 34" fill="none" xmlns="http://www.w3.org/2000/svg">
<path d="M15.6638 14.8727V24.8954M20.0263 10.2487V23.0918M7.09932 17.4235V23.5269M10.6749 24.448V10.8854M13.2101 25.1371C9.94522 25.1371 6.87412 23.881 4.56341 21.6009C2.26577 19.3337 1 16.3137 1 13.0985C1 9.88326 2.26636 6.84007 4.56597 4.53354C6.87406 2.256 9.94521 1 13.2108 1C16.4763 1 19.5461 2.25602 21.8568 4.53613C24.1545 6.80336 25.4203 9.82331 25.4203 13.0385C25.4203 16.2538 24.1539 19.297 21.8543 21.6035C19.5462 23.881 16.4757 25.1371 13.2101 25.1371Z" stroke="white" stroke-width="2"/>
<path d="M19.5403 23.903L28.1147 32.0915C28.7084 32.6773 29.511 33.0002 30.3751 33.0002C31.2392 33.0002 32.0418 32.6773 32.6355 32.0915C33.2291 31.5057 33.5565 30.7137 33.5565 29.8611C33.5565 29.0084 33.2291 28.2164 32.6355 27.6305L23.9027 19.5405" stroke="white" stroke-width="2"/>
</svg>
