<svg width="32" height="32" viewBox="0 0 32 32" fill="none" xmlns="http://www.w3.org/2000/svg">
<path d="M16.0001 29.3332C23.3639 29.3332 29.3334 23.3636 29.3334 15.9998C29.3334 8.63604 23.3639 2.6665 16.0001 2.6665C8.63628 2.6665 2.66675 8.63604 2.66675 15.9998C2.66675 23.3636 8.63628 29.3332 16.0001 29.3332Z" stroke="white" stroke-width="2" stroke-linecap="round" stroke-linejoin="round"/>
<path d="M10.6667 4H12C9.40005 11.7867 9.40005 20.2133 12 28H10.6667" stroke="white" stroke-width="2" stroke-linecap="round" stroke-linejoin="round"/>
<path d="M20 4C22.6 11.7867 22.6 20.2133 20 28" stroke="white" stroke-width="2" stroke-linecap="round" stroke-linejoin="round"/>
<path d="M4 21.3333V20C11.7867 22.6 20.2133 22.6 28 20V21.3333" stroke="white" stroke-width="2" stroke-linecap="round" stroke-linejoin="round"/>
<path d="M4 12.0003C11.7867 9.40029 20.2133 9.40029 28 12.0003" stroke="white" stroke-width="2" stroke-linecap="round" stroke-linejoin="round"/>
</svg>
