<svg width="52" height="52" viewBox="0 0 52 52" fill="none" xmlns="http://www.w3.org/2000/svg">
<path d="M50.0196 25.5099C50.0196 11.9735 39.0462 1.00012 25.5098 1.00012M50.0196 25.5099H1M50.0196 25.5099C50.0196 27.5376 49.7734 29.5079 49.3092 31.3923M25.5098 50.0197C11.9734 50.0197 1 39.0463 1 25.5099M25.5098 50.0197C17.5145 50.0197 11.033 39.0463 11.033 25.5099C11.033 11.9735 17.5145 1.00012 25.5098 1.00012M25.5098 50.0197V1.00012M25.5098 50.0197C27.2487 50.0197 28.9159 49.5007 30.4604 48.5491M25.5098 50.0197C27.3624 50.0197 29.167 49.8142 30.902 49.4247M1 25.5099C1 11.9735 11.9734 1.00012 25.5098 1.00012M25.5098 1.00012C33.5051 1.00012 39.9866 11.9735 39.9866 25.5099C39.9866 26.5053 39.9515 27.4868 39.8834 28.4511M45.9682 13.1436H5.05143M5.05143 37.7996H28.9412" stroke="#E43D30" stroke-width="1.96078" stroke-linecap="round" stroke-linejoin="round"/>
<path d="M36.2941 41.6865L39.2352 44.6276L46.098 37.7649M41.196 51.0002C46.6105 51.0002 50.9999 46.6108 50.9999 41.1963C50.9999 35.7817 46.6105 31.3923 41.196 31.3923C35.7815 31.3923 31.3921 35.7817 31.3921 41.1963C31.3921 46.6108 35.7815 51.0002 41.196 51.0002Z" stroke="#E43D30" stroke-width="1.96078" stroke-linecap="round" stroke-linejoin="round"/>
</svg>
