<svg width="55" height="52" viewBox="0 0 55 52" fill="none" xmlns="http://www.w3.org/2000/svg">
<path d="M27.4154 1.00012V7.19378M27.4154 51.0001V44.8065M44.4742 5.27055L41.9412 10.9226M44.4742 46.7297L41.9412 41.0777M10.3562 5.27055L12.8892 10.9226M10.3562 46.7297L12.8892 41.0777M22.0822 26.0001C22.0822 23.0547 24.4699 20.6669 27.4153 20.6669M37.0628 26C37.0628 31.3281 32.7435 35.6473 27.4154 35.6473C22.0873 35.6473 17.7681 31.3281 17.7681 26C17.7681 20.6719 22.0873 16.3526 27.4154 16.3526C32.7435 16.3526 37.0628 20.6719 37.0628 26ZM2 26.0243C8.23313 17.3958 17.3099 11.962 27.4155 11.962C37.521 11.962 46.5978 17.3958 52.8309 26.0243C46.5978 34.6528 37.521 40.0379 27.4155 40.0379C17.3099 40.0379 8.23313 34.6528 2 26.0243Z" stroke="#E43D30" stroke-width="2" stroke-linecap="round"/>
</svg>
