<svg width="26" height="34" viewBox="0 0 26 34" fill="none" xmlns="http://www.w3.org/2000/svg">
<path d="M5.33333 25.4707L2.55992 26.8335C2.2416 26.9897 1.97384 27.2299 1.78664 27.5271C1.59944 27.8243 1.50019 28.1668 1.5 28.5163V33H24.5V28.5163C24.4998 28.1668 24.4006 27.8243 24.2134 27.5271C24.0262 27.2299 23.7584 26.9897 23.4401 26.8335L20.6667 25.4707H5.33333Z" stroke="#E43D30" stroke-width="2" stroke-linecap="round"/>
<path d="M7.25 1.0005L9.16667 6.64747L2.47558 10.6907C2.11987 10.9054 1.84526 11.2282 1.69349 11.6102C1.54172 11.9922 1.5211 12.4124 1.63477 12.8069C1.74844 13.2014 1.99017 13.5487 2.32322 13.796C2.65626 14.0433 3.06241 14.177 3.47992 14.1768H9.16667L5.19342 25.4707H20.452L20.6667 16.0591C20.6667 10.4121 18.5775 4.79714 13 2.88282C9.28167 1.6066 7.365 0.979791 7.25 1.0005Z" stroke="#E43D30" stroke-width="2" stroke-linecap="round"/>
</svg>
