<svg width="34" height="34" viewBox="0 0 34 34" fill="none" xmlns="http://www.w3.org/2000/svg">
<path d="M31.5455 17H33M17 2.45455V1M17 33V31.5455M28.6364 28.6364L27.1818 27.1818M28.6364 5.36364L27.1818 6.81818M5.36364 28.6364L6.81818 27.1818M5.36364 5.36364L6.81818 6.81818M1 17H2.45455M14.0217 13.5421L16.2886 8.73551C16.5796 8.11847 17.4204 8.11847 17.7114 8.73551L19.9783 13.5421L25.0479 14.3177C25.6983 14.4172 25.9575 15.254 25.4867 15.734L21.8189 19.4729L22.6845 24.7548C22.7956 25.4332 22.1153 25.9504 21.5334 25.63L17 23.1348L12.4666 25.63C11.8846 25.9504 11.2043 25.4332 11.3154 24.7548L12.181 19.4729L8.51338 15.734C8.04247 15.254 8.30172 14.4172 8.95216 14.3177L14.0217 13.5421Z" stroke="#E43D30" stroke-width="2" stroke-linecap="round"/>
</svg>
