<svg width="34" height="34" viewBox="0 0 34 34" fill="none" xmlns="http://www.w3.org/2000/svg">
<path d="M2.77775 1H31.2219C32.2037 1 32.9996 1.80839 32.9996 2.80566L33 5.66948C33.0002 6.14855 32.8128 6.60799 32.4793 6.94672L21.0759 18.53C20.7426 18.8686 20.5552 19.328 20.5552 19.8069V31.1931C20.5552 32.368 19.4683 33.2302 18.3464 32.9452L14.7909 32.0422C13.9994 31.8412 13.4442 31.1189 13.4442 30.2902V19.8069C13.4442 19.328 13.2569 18.8686 12.9236 18.53L1.52069 6.94661C1.18729 6.60795 1 6.1486 1 5.66966V2.80589C1 1.80853 1.79592 1 2.77775 1Z" stroke="#E43D30" stroke-width="2" stroke-linecap="round" stroke-linejoin="round"/>
</svg>
