<svg width="34" height="34" viewBox="0 0 34 34" fill="none" xmlns="http://www.w3.org/2000/svg">
<path d="M7.08146 20.9373C5.00644 22.1088 3.32856 23.8733 2.26291 26.0046C1.19727 28.1359 0.792414 30.5369 1.10026 32.8997C3.46315 33.2076 5.86414 32.8027 7.99543 31.7371C10.1267 30.6714 11.8912 28.9936 13.0627 26.9185M1.10026 18.9436C4.65527 19.3661 7.96478 20.9723 10.4962 23.5038C13.0277 26.0352 14.6339 29.3447 15.0564 32.8997C16.8187 31.8838 18.2928 30.4351 19.3394 28.6908C20.386 26.9465 20.9705 24.9642 21.0376 22.9311C24.3853 21.7534 27.3086 19.6095 29.4379 16.7705C31.5672 13.9314 32.8068 10.5247 33 6.9812C33 5.39489 32.3698 3.87355 31.2481 2.75185C30.1265 1.63016 28.6051 1 27.0188 1C23.4753 1.19321 20.0686 2.43283 17.2295 4.56211C14.3905 6.69139 12.2466 9.6147 11.0689 12.9624C9.03584 13.0295 7.05346 13.614 5.30916 14.6606C3.56485 15.7072 2.11624 17.1813 1.10026 18.9436ZM21.0376 10.9687C21.0376 11.4974 21.2476 12.0046 21.6215 12.3785C21.9954 12.7524 22.5026 12.9624 23.0313 12.9624C23.5601 12.9624 24.0672 12.7524 24.4411 12.3785C24.815 12.0046 25.0251 11.4974 25.0251 10.9687C25.0251 10.4399 24.815 9.93279 24.4411 9.55889C24.0672 9.18499 23.5601 8.97494 23.0313 8.97494C22.5026 8.97494 21.9954 9.18499 21.6215 9.55889C21.2476 9.93279 21.0376 10.4399 21.0376 10.9687Z" stroke="#E43D30" stroke-width="2" stroke-linecap="round" stroke-linejoin="round"/>
</svg>
