<svg width="30" height="30" viewBox="0 0 30 30" fill="none" xmlns="http://www.w3.org/2000/svg">
<path d="M9.10396 3.62223L6.69973 6.0464M12.1178 6.66103L8.27746 10.5332M23.0994 17.7337L20.6952 20.1579M25.8575 20.5147L22.0172 24.3868M10.0703 24.821L2.21975 28.6058L5.97346 20.6902M10.0703 24.821L5.97346 20.6902M10.0703 24.821C11.739 23.1385 13.2132 21.6521 14.5961 20.2577M5.97346 20.6902L10.4992 16.1269M22.0827 4.44733L24.4799 2.03033C25.0442 1.46129 25.9592 1.46129 26.5236 2.03033L28.5767 4.1005C29.1411 4.66953 29.1411 5.59212 28.5767 6.16116L26.1796 8.57816M22.0827 4.44733L26.1796 8.57816M22.0827 4.44733L16.0025 10.578M26.1796 8.57816C23.8719 10.905 21.9361 12.8568 20.0994 14.7088M16.0025 10.578L6.50329 1L1 6.54892L10.4992 16.1269M16.0025 10.578L10.4992 16.1269M14.5961 20.2577L23.2665 29L28.7698 23.4511C25.3135 19.9661 22.9098 17.5425 20.0994 14.7088M14.5961 20.2577C16.5144 18.3235 18.2571 16.5664 20.0994 14.7088" stroke="#E43D30" stroke-width="2" stroke-linecap="round" stroke-linejoin="round"/>
</svg>
