<svg width="30" height="30" viewBox="0 0 30 30" fill="none" xmlns="http://www.w3.org/2000/svg">
<path d="M17.9987 28.3444V24.8255C18.6895 24.6182 19.3521 24.338 19.9867 23.9962L21.8904 25.9238C22.1824 26.2207 22.6597 26.2207 22.9517 25.9238L26.1358 22.7074C26.4278 22.4104 26.4278 21.9286 26.1358 21.6372L24.2321 19.7096C24.5747 19.0708 24.8498 18.3984 25.052 17.698H27.7475C28.1631 17.698 28.5 17.3562 28.5 16.9416V12.3916C28.5 11.9714 28.1631 11.6352 27.7475 11.6352H25.052C24.8498 10.9404 24.5747 10.2624 24.2321 9.62357L26.1358 7.69602C26.4278 7.39904 26.4278 6.91715 26.1358 6.62578L22.9517 3.40945C22.6597 3.11247 22.1824 3.11247 21.8904 3.40945L19.9867 5.337C19.3521 4.98959 18.6895 4.71503 17.9987 4.5077V1.75645C17.9987 1.3362 17.6618 1 17.2463 1H12.7481C12.3326 1 11.9956 1.34181 11.9956 1.75645V4.48529C11.3049 4.69262 10.6423 4.97278 10.0077 5.31459L8.10399 3.38703C7.81198 3.09005 7.33465 3.09005 7.04264 3.38703L3.85857 6.60336C3.56656 6.90034 3.56656 7.38223 3.85857 7.6736L5.76227 9.60116C5.41972 10.2399 5.14455 10.9123 4.94239 11.6128H2.2525C1.83694 11.6128 1.5 11.9546 1.5 12.3692V16.9248C1.51123 17.3394 1.84255 17.67 2.2525 17.6812H4.948C5.15017 18.376 5.42533 19.054 5.76789 19.6928L3.86418 21.6204C3.57217 21.9173 3.57217 22.3992 3.86418 22.6906L7.04825 25.9069C7.34027 26.2039 7.8176 26.2039 8.10961 25.9069L10.0133 23.9794C10.6479 24.3268 11.3105 24.6014 12.0012 24.8087V28.3276C12.0012 28.6974 12.2989 29 12.6695 29H17.3361C17.7011 29 17.9987 28.6974 17.9987 28.3276V28.3444Z" stroke="#E43D30" stroke-width="2" stroke-linecap="round" stroke-linejoin="round"/>
<path d="M19.8305 19.5415C17.1631 22.2367 12.8391 22.2367 10.1716 19.5415C7.5042 16.8463 7.5042 12.4701 10.1716 9.77487C12.8391 7.07965 17.1631 7.07965 19.8305 9.77487C22.498 12.4701 22.498 16.8463 19.8305 19.5415Z" stroke="#E43D30" stroke-width="2" stroke-linecap="round" stroke-linejoin="round"/>
</svg>
