<svg width="34" height="28" viewBox="0 0 34 28" fill="none" xmlns="http://www.w3.org/2000/svg">
<path d="M1.5 1H6.71296L8.24854 5.11262M8.24854 5.11262L12.621 16.8232M8.24854 5.11262H26.1749M12.621 16.8232H22.074M12.621 16.8232L9.84078 21.842H28.3991M26.1749 5.11262H32.5L28.3991 16.8232H22.074M26.1749 5.11262L22.074 16.8232M17.4517 24.421C17.4517 25.8453 16.3003 27 14.88 27C13.4597 27 12.3084 25.8453 12.3084 24.421C12.3084 22.9966 13.4597 21.8419 14.88 21.8419C16.3003 21.8419 17.4517 22.9966 17.4517 24.421ZM26.4142 24.421C26.4142 25.8453 25.2628 27 23.8425 27C22.4222 27 21.2708 25.8453 21.2708 24.421C21.2708 22.9966 22.4222 21.8419 23.8425 21.8419C25.2628 21.8419 26.4142 22.9966 26.4142 24.421Z" stroke="#E43D30" stroke-width="2" stroke-linecap="round" stroke-linejoin="round"/>
</svg>
