<svg width="40" height="40" viewBox="0 0 40 40" fill="none" xmlns="http://www.w3.org/2000/svg">
<path d="M9 6.97611V2.72658C9 2.15918 9.46727 1.69922 10.0437 1.69922H29.9563C30.5327 1.69922 31 2.15918 31 2.72658V6.97611M9 6.97611H31M9 6.97611V32.989M31 6.97611V32.989M9 32.989V37.6719C9 38.2393 9.46727 38.6992 10.0437 38.6992H29.9563C30.5327 38.6992 31 38.2393 31 37.6719V32.989M9 32.989H31M15.8358 17.6768L13.2733 20.1993L15.8358 22.7218M24.1639 17.6768L26.7265 20.1993L24.1639 22.7218M21.5276 17.6768L18.4722 22.7218" stroke="#E43D30" stroke-width="2" stroke-linecap="round" stroke-linejoin="round"/>
</svg>
