<svg width="40" height="40" viewBox="0 0 40 40" fill="none" xmlns="http://www.w3.org/2000/svg">
<path d="M36.8182 20.1992H38.5M20 3.38104V1.69922M20 38.6992V37.0174M33.4545 33.6538L31.7727 31.9719M33.4545 6.74467L31.7727 8.42649M6.54545 33.6538L8.22727 31.9719M6.54545 6.74467L8.22727 8.42649M1.5 20.1992H3.18182M16.5563 16.2011L19.1774 10.6434C19.514 9.92995 20.486 9.92995 20.8226 10.6434L23.4437 16.2011L29.3053 17.0978C30.0574 17.2128 30.3571 18.1804 29.8127 18.7354L25.5719 23.0585L26.5727 29.1657C26.7012 29.9501 25.9146 30.5481 25.2417 30.1776L20 27.2926L14.7582 30.1776C14.0853 30.5481 13.2987 29.9501 13.4272 29.1657L14.4281 23.0585L10.1873 18.7354C9.64286 18.1804 9.94261 17.2128 10.6947 17.0978L16.5563 16.2011Z" stroke="#E43D30" stroke-width="2" stroke-linecap="round" stroke-linejoin="round"/>
</svg>
