<svg width="40" height="25" viewBox="0 0 40 25" fill="none" xmlns="http://www.w3.org/2000/svg">
<path d="M16.3 5.78255C13.839 6.18859 11.5878 7.40439 9.90963 9.23379C8.23141 11.0632 7.22403 13.3995 7.05 15.8659M23.7 5.78255C26.161 6.18859 28.4122 7.40439 30.0904 9.23379C31.7686 11.0632 32.776 13.3995 32.95 15.8659M16.3 4.86589H5.2M5.2 4.86589C5.2 5.35212 5.00509 5.81843 4.65815 6.16225C4.31121 6.50606 3.84065 6.69922 3.35 6.69922C2.85935 6.69922 2.38879 6.50606 2.04185 6.16225C1.69491 5.81843 1.5 5.35212 1.5 4.86589C1.5 4.37966 1.69491 3.91334 2.04185 3.56952C2.38879 3.22571 2.85935 3.03255 3.35 3.03255C3.84065 3.03255 4.31121 3.22571 4.65815 3.56952C5.00509 3.91334 5.2 4.37966 5.2 4.86589ZM34.8 4.86589H23.7M34.8 4.86589C34.8 5.35212 34.9949 5.81843 35.3419 6.16225C35.6888 6.50606 36.1593 6.69922 36.65 6.69922C37.1407 6.69922 37.6112 6.50606 37.9581 6.16225C38.3051 5.81843 38.5 5.35212 38.5 4.86589C38.5 4.37966 38.3051 3.91334 37.9581 3.56952C37.6112 3.22571 37.1407 3.03255 36.65 3.03255C36.1593 3.03255 35.6888 3.22571 35.3419 3.56952C34.9949 3.91334 34.8 4.37966 34.8 4.86589ZM3.35 17.6992C3.35 17.213 3.54491 16.7467 3.89185 16.4029C4.23879 16.059 4.70935 15.8659 5.2 15.8659H8.9C9.39065 15.8659 9.86121 16.059 10.2081 16.4029C10.5551 16.7467 10.75 17.213 10.75 17.6992V21.3659C10.75 21.8521 10.5551 22.3184 10.2081 22.6622C9.86121 23.0061 9.39065 23.1992 8.9 23.1992H5.2C4.70935 23.1992 4.23879 23.0061 3.89185 22.6622C3.54491 22.3184 3.35 21.8521 3.35 21.3659V17.6992ZM29.25 17.6992C29.25 17.213 29.4449 16.7467 29.7919 16.4029C30.1388 16.059 30.6093 15.8659 31.1 15.8659H34.8C35.2907 15.8659 35.7612 16.059 36.1081 16.4029C36.4551 16.7467 36.65 17.213 36.65 17.6992V21.3659C36.65 21.8521 36.4551 22.3184 36.1081 22.6622C35.7612 23.0061 35.2907 23.1992 34.8 23.1992H31.1C30.6093 23.1992 30.1388 23.0061 29.7919 22.6622C29.4449 22.3184 29.25 21.8521 29.25 21.3659V17.6992ZM16.3 3.03255C16.3 2.54632 16.4949 2.08001 16.8419 1.73619C17.1888 1.39237 17.6593 1.19922 18.15 1.19922H21.85C22.3407 1.19922 22.8112 1.39237 23.1581 1.73619C23.5051 2.08001 23.7 2.54632 23.7 3.03255V6.69922C23.7 7.18545 23.5051 7.65176 23.1581 7.99558C22.8112 8.3394 22.3407 8.53255 21.85 8.53255H18.15C17.6593 8.53255 17.1888 8.3394 16.8419 7.99558C16.4949 7.65176 16.3 7.18545 16.3 6.69922V3.03255Z" stroke="#E43D30" stroke-width="2" stroke-linecap="round" stroke-linejoin="round"/>
</svg>
