<svg width="51" height="51" viewBox="0 0 51 51" fill="none" xmlns="http://www.w3.org/2000/svg">
<g clip-path="url(#clip0_39_90)">
<path d="M25.2398 12.3501C18.1298 12.3501 12.3398 18.1301 12.3398 25.2401C12.3398 32.3501 18.1298 38.1401 25.2398 38.1401C32.3498 38.1401 38.1298 32.3501 38.1298 25.2401C38.1298 18.1301 32.3498 12.3501 25.2398 12.3501Z" stroke="#E43D30" stroke-width="2" stroke-linecap="round" stroke-linejoin="round"/>
<path d="M18.9492 25.14L23.0792 29.19L31.3492 21.04" stroke="#E43D30" stroke-width="2" stroke-linecap="round" stroke-linejoin="round"/>
<path d="M27.6092 2.05994L32.0692 7.06994C32.3692 7.40994 32.8092 7.58994 33.2592 7.55994L39.9592 7.16994C41.8492 7.05994 43.4192 8.61994 43.3092 10.5199L42.9192 17.2199C42.8892 17.6699 43.0792 18.1099 43.4092 18.4099L48.4192 22.8699C49.8292 24.1299 49.8292 26.3399 48.4192 27.5999L43.4092 32.0599C43.0692 32.3599 42.8892 32.7999 42.9192 33.2499L43.3092 39.9499C43.4192 41.8399 41.8592 43.4099 39.9592 43.2999L33.2592 42.9099C32.8092 42.8799 32.3692 43.0699 32.0692 43.3999L27.6092 48.4099C26.3492 49.8199 24.1392 49.8199 22.8792 48.4099L18.4192 43.3999C18.1192 43.0599 17.6792 42.8799 17.2292 42.9099L10.5292 43.2999C8.63922 43.4099 7.06922 41.8499 7.17922 39.9499L7.56922 33.2499C7.59922 32.7999 7.40922 32.3599 7.07922 32.0599L2.06922 27.5999C0.659219 26.3399 0.659219 24.1299 2.06922 22.8699L7.07922 18.4099C7.41922 18.1099 7.59922 17.6699 7.56922 17.2199L7.17922 10.5199C7.06922 8.62994 8.62922 7.05994 10.5292 7.16994L17.2292 7.55994C17.6792 7.58994 18.1192 7.39994 18.4192 7.06994L22.8792 2.05994C24.1392 0.649941 26.3492 0.649941 27.6092 2.05994Z" stroke="#E43D30" stroke-width="2" stroke-linecap="round" stroke-linejoin="round"/>
</g>
<defs>
<clipPath id="clip0_39_90">
<rect width="50.48" height="50.48" fill="white"/>
</clipPath>
</defs>
</svg>
