<svg width="52" height="53" viewBox="0 0 52 53" fill="none" xmlns="http://www.w3.org/2000/svg">
<path d="M1 51.48V40.0911C1 37.1442 2.17063 34.3181 4.25437 32.2344C6.33811 30.1506 9.16426 28.98 12.1111 28.98H23.2222C26.1691 28.98 28.9952 30.1506 31.079 32.2344C33.1627 34.3181 34.3333 37.1442 34.3333 40.0911V51.48M37.1111 1.84109C39.5012 2.45304 41.6195 3.84304 43.1323 5.79195C44.6451 7.74087 45.4662 10.1378 45.4662 12.605C45.4662 15.0721 44.6451 17.4691 43.1323 19.418C41.6195 21.3669 39.5012 22.7569 37.1111 23.3689M51 51.48V40.0911C50.9859 37.6388 50.1609 35.26 48.6535 33.3255C47.1462 31.3911 45.0412 30.0097 42.6667 29.3966M6.55556 12.5911C6.55556 15.5379 7.72619 18.3641 9.80992 20.4478C11.8937 22.5316 14.7198 23.7022 17.6667 23.7022C20.6135 23.7022 23.4397 22.5316 25.5234 20.4478C27.6071 18.3641 28.7778 15.5379 28.7778 12.5911C28.7778 9.64424 27.6071 6.81809 25.5234 4.73435C23.4397 2.65061 20.6135 1.47998 17.6667 1.47998C14.7198 1.47998 11.8937 2.65061 9.80992 4.73435C7.72619 6.81809 6.55556 9.64424 6.55556 12.5911Z" stroke="#E43D30" stroke-width="2" stroke-linecap="round" stroke-linejoin="round"/>
</svg>
