<svg width="50" height="51" viewBox="0 0 50 51" fill="none" xmlns="http://www.w3.org/2000/svg">
<path d="M32.826 48.7201H17.1738V26.981C17.1738 26.1234 17.8746 25.4282 18.739 25.4282H31.2608C32.1253 25.4282 32.826 26.1234 32.826 26.981V48.7201Z" stroke="#E43D30" stroke-width="2" stroke-linecap="round" stroke-linejoin="round"/>
<path d="M46.9131 48.7201H32.8262V41.2149C32.8262 40.3572 33.5269 39.6621 34.3914 39.6621H46.9131C47.7776 39.6621 48.4783 40.3572 48.4783 41.2149V47.1673C48.4783 48.0249 47.7776 48.7201 46.9131 48.7201Z" stroke="#E43D30" stroke-width="2" stroke-linecap="round" stroke-linejoin="round"/>
<path d="M17.1737 48.72V36.0389C17.1737 35.1812 16.4729 34.4861 15.6084 34.4861H3.0867C2.22226 34.4861 1.52148 35.1812 1.52148 36.0389V47.1672C1.52148 48.0249 2.22226 48.72 3.0867 48.72H17.1737Z" stroke="#E43D30" stroke-width="2" stroke-linecap="round" stroke-linejoin="round"/>
<path d="M21.8838 7.60531L24.2553 2.61657C24.5597 1.97612 25.4394 1.97612 25.7438 2.61657L28.1154 7.60531L33.4191 8.41023C34.0997 8.51352 34.3708 9.38202 33.8783 9.88026L30.0411 13.7607L30.9466 19.2428C31.063 19.9468 30.3513 20.4838 29.7424 20.1512L24.9996 17.5615L20.2567 20.1512C19.6479 20.4838 18.9361 19.9468 19.0524 19.2428L19.958 13.7607L16.1209 9.88026C15.6283 9.38202 15.8995 8.51352 16.58 8.41023L21.8838 7.60531Z" stroke="#E43D30" stroke-width="2" stroke-linecap="round" stroke-linejoin="round"/>
</svg>
