<svg width="52" height="53" viewBox="0 0 52 53" fill="none" xmlns="http://www.w3.org/2000/svg">
<path d="M15.8375 36.6421C11.8821 32.6867 6.71096 30.177 1.15625 29.5169C2.74373 26.7633 5.00718 24.46 7.73266 22.8247C10.4581 21.1894 13.5556 20.2761 16.7323 20.1712C18.5724 14.9405 21.9223 10.3728 26.3583 7.04577C30.7943 3.71877 36.1172 1.78187 41.654 1.47998C44.1326 1.47998 46.5097 2.46461 48.2623 4.21725C50.015 5.9699 50.9996 8.34699 50.9996 10.8256C50.6977 16.3624 48.7608 21.6853 45.4338 26.1213C42.1068 30.5573 37.5391 33.9072 32.3083 35.7473C32.2034 38.924 31.2902 42.0214 29.6549 44.7469C28.0196 47.4724 25.7163 49.7358 22.9627 51.3233C22.3026 45.7686 19.7929 40.5975 15.8375 36.6421Z" stroke="#E43D30" stroke-width="2" stroke-linecap="round" stroke-linejoin="round"/>
<path d="M32.3086 17.0561C32.3086 17.8823 32.6368 18.6747 33.221 19.2589C33.8052 19.8431 34.5976 20.1713 35.4238 20.1713C36.25 20.1713 37.0424 19.8431 37.6266 19.2589C38.2108 18.6747 38.539 17.8823 38.539 17.0561C38.539 16.2299 38.2108 15.4376 37.6266 14.8533C37.0424 14.2691 36.25 13.9409 35.4238 13.9409C34.5976 13.9409 33.8052 14.2691 33.221 14.8533C32.6368 15.4376 32.3086 16.2299 32.3086 17.0561Z" stroke="#E43D30" stroke-width="2" stroke-linecap="round" stroke-linejoin="round"/>
<path d="M10.5023 32.48C7.26006 34.3104 4.63838 37.0674 2.9733 40.3975C1.30823 43.7277 0.675647 47.4792 1.15665 51.1712C4.84867 51.6522 8.60021 51.0197 11.9304 49.3546C15.2605 47.6895 18.0175 45.0678 19.8479 41.8256" stroke="#E43D30" stroke-width="2" stroke-linecap="round" stroke-linejoin="round"/>
</svg>
