<svg width="40" height="40" viewBox="0 0 40 40" fill="none" xmlns="http://www.w3.org/2000/svg">
<path d="M36.8182 19.6787H38.5M20 2.86053V1.17871M20 38.1787V36.4969M33.4545 33.1333L31.7727 31.4514M33.4545 6.22417L31.7727 7.90598M6.54545 33.1333L8.22727 31.4514M6.54545 6.22417L8.22727 7.90598M1.5 19.6787H3.18182M16.5563 15.6806L19.1774 10.1229C19.514 9.40944 20.486 9.40944 20.8226 10.1229L23.4437 15.6806L29.3053 16.5773C30.0574 16.6923 30.3571 17.6599 29.8127 18.2149L25.5719 22.538L26.5727 28.6452C26.7012 29.4296 25.9146 30.0276 25.2417 29.6571L20 26.7721L14.7582 29.6571C14.0853 30.0276 13.2987 29.4296 13.4272 28.6452L14.4281 22.538L10.1873 18.2149C9.64286 17.6599 9.94261 16.6923 10.6947 16.5773L16.5563 15.6806Z" stroke="#E43D30" stroke-width="2" stroke-linecap="round" stroke-linejoin="round"/>
</svg>
