<svg width="40" height="36" viewBox="0 0 40 36" fill="none" xmlns="http://www.w3.org/2000/svg">
<path d="M1.5 30.512V12.1787C1.5 10.1537 3.15655 8.51204 5.2 8.51204H6.125C7.28959 8.51204 8.38624 7.96866 9.085 7.04538L13.192 1.61871C13.4016 1.34173 13.7306 1.17871 14.08 1.17871H25.92C26.2695 1.17871 26.5984 1.34173 26.808 1.61871L30.915 7.04538C31.6137 7.96866 32.7104 8.51204 33.875 8.51204H34.8C36.8435 8.51204 38.5 10.1537 38.5 12.1787V30.512C38.5 32.5371 36.8435 34.1787 34.8 34.1787H5.2C3.15655 34.1787 1.5 32.5371 1.5 30.512Z" stroke="#E43D30" stroke-width="2" stroke-linecap="round" stroke-linejoin="round"/>
<path d="M20 26.8454C24.0868 26.8454 27.4 23.5621 27.4 19.512C27.4 15.462 24.0868 12.1787 20 12.1787C15.9131 12.1787 12.6 15.462 12.6 19.512C12.6 23.5621 15.9131 26.8454 20 26.8454Z" stroke="#E43D30" stroke-width="2" stroke-linecap="round" stroke-linejoin="round"/>
</svg>
