<svg width="40" height="25" viewBox="0 0 40 25" fill="none" xmlns="http://www.w3.org/2000/svg">
<path d="M16.3 6.26204C13.839 6.66808 11.5878 7.88388 9.90963 9.71329C8.23141 11.5427 7.22403 13.879 7.05 16.3454M23.7 6.26204C26.161 6.66808 28.4122 7.88388 30.0904 9.71329C31.7686 11.5427 32.776 13.879 32.95 16.3454M16.3 5.34538H5.2M5.2 5.34538C5.2 5.83161 5.00509 6.29792 4.65815 6.64174C4.31121 6.98556 3.84065 7.17871 3.35 7.17871C2.85935 7.17871 2.38879 6.98556 2.04185 6.64174C1.69491 6.29792 1.5 5.83161 1.5 5.34538C1.5 4.85915 1.69491 4.39283 2.04185 4.04902C2.38879 3.7052 2.85935 3.51204 3.35 3.51204C3.84065 3.51204 4.31121 3.7052 4.65815 4.04902C5.00509 4.39283 5.2 4.85915 5.2 5.34538ZM34.8 5.34538H23.7M34.8 5.34538C34.8 5.83161 34.9949 6.29792 35.3419 6.64174C35.6888 6.98556 36.1593 7.17871 36.65 7.17871C37.1407 7.17871 37.6112 6.98556 37.9581 6.64174C38.3051 6.29792 38.5 5.83161 38.5 5.34538C38.5 4.85915 38.3051 4.39283 37.9581 4.04902C37.6112 3.7052 37.1407 3.51204 36.65 3.51204C36.1593 3.51204 35.6888 3.7052 35.3419 4.04902C34.9949 4.39283 34.8 4.85915 34.8 5.34538ZM3.35 18.1787C3.35 17.6925 3.54491 17.2262 3.89185 16.8823C4.23879 16.5385 4.70935 16.3454 5.2 16.3454H8.9C9.39065 16.3454 9.86121 16.5385 10.2081 16.8823C10.5551 17.2262 10.75 17.6925 10.75 18.1787V21.8454C10.75 22.3316 10.5551 22.7979 10.2081 23.1417C9.86121 23.4856 9.39065 23.6787 8.9 23.6787H5.2C4.70935 23.6787 4.23879 23.4856 3.89185 23.1417C3.54491 22.7979 3.35 22.3316 3.35 21.8454V18.1787ZM29.25 18.1787C29.25 17.6925 29.4449 17.2262 29.7919 16.8823C30.1388 16.5385 30.6093 16.3454 31.1 16.3454H34.8C35.2907 16.3454 35.7612 16.5385 36.1081 16.8823C36.4551 17.2262 36.65 17.6925 36.65 18.1787V21.8454C36.65 22.3316 36.4551 22.7979 36.1081 23.1417C35.7612 23.4856 35.2907 23.6787 34.8 23.6787H31.1C30.6093 23.6787 30.1388 23.4856 29.7919 23.1417C29.4449 22.7979 29.25 22.3316 29.25 21.8454V18.1787ZM16.3 3.51204C16.3 3.02581 16.4949 2.5595 16.8419 2.21568C17.1888 1.87187 17.6593 1.67871 18.15 1.67871H21.85C22.3407 1.67871 22.8112 1.87187 23.1581 2.21568C23.5051 2.5595 23.7 3.02581 23.7 3.51204V7.17871C23.7 7.66494 23.5051 8.13126 23.1581 8.47507C22.8112 8.81889 22.3407 9.01204 21.85 9.01204H18.15C17.6593 9.01204 17.1888 8.81889 16.8419 8.47507C16.4949 8.13126 16.3 7.66494 16.3 7.17871V3.51204Z" stroke="#E43D30" stroke-width="2" stroke-linecap="round" stroke-linejoin="round"/>
</svg>
