<svg width="39" height="38" viewBox="0 0 39 38" fill="none" xmlns="http://www.w3.org/2000/svg">
<g clip-path="url(#clip0_39_163)">
<path d="M1.04492 36.3613H37.4336" stroke="#E43D30" stroke-width="2" stroke-linecap="round" stroke-linejoin="round"/>
<path d="M33.3906 36.3617V28.2329" stroke="#E43D30" stroke-width="2" stroke-linecap="round" stroke-linejoin="round"/>
<path d="M33.3908 28.2327C34.4632 28.2327 35.4916 27.8045 36.2498 27.0423C37.0081 26.2801 37.434 25.2463 37.434 24.1683V20.1039C37.434 19.026 37.0081 17.9922 36.2498 17.23C35.4916 16.4678 34.4632 16.0396 33.3908 16.0396C32.3185 16.0396 31.2901 16.4678 30.5319 17.23C29.7736 17.9922 29.3477 19.026 29.3477 20.1039V24.1683C29.3477 25.2463 29.7736 26.2801 30.5319 27.0423C31.2901 27.8045 32.3185 28.2327 33.3908 28.2327Z" stroke="#E43D30" stroke-width="2" stroke-linecap="round" stroke-linejoin="round"/>
<path d="M23.2823 36.3613V7.91056V3.81396C23.2823 2.7094 22.3869 1.81396 21.2823 1.81396H17.2176H9.13119H5.06641C3.96184 1.81396 3.06641 2.7094 3.06641 3.81397V7.91056V36.3613" stroke="#E43D30" stroke-width="2" stroke-linecap="round" stroke-linejoin="round"/>
<path d="M13.1758 28.2329V36.3617" stroke="#E43D30" stroke-width="2" stroke-linecap="round" stroke-linejoin="round"/>
<path d="M11.1543 20.104H15.1975" stroke="#E43D30" stroke-width="2" stroke-linecap="round" stroke-linejoin="round"/>
<path d="M11.1543 11.9751H15.1975" stroke="#E43D30" stroke-width="2" stroke-linecap="round" stroke-linejoin="round"/>
</g>
<defs>
<clipPath id="clip0_39_163">
<rect width="38.48" height="37" fill="white" transform="translate(0 0.47998)"/>
</clipPath>
</defs>
</svg>
