<svg width="39" height="40" viewBox="0 0 39 40" fill="none" xmlns="http://www.w3.org/2000/svg">
<path d="M36.3182 19.98H38M19.5 3.1618V1.47998M19.5 38.48V36.7982M32.9545 33.4345L31.2727 31.7527M32.9545 6.52544L31.2727 8.20725M6.04545 33.4345L7.72727 31.7527M6.04545 6.52544L7.72727 8.20725M1 19.98H2.68182" stroke="#E43D30" stroke-width="2" stroke-linecap="round" stroke-linejoin="round"/>
<path d="M16.0555 15.9819L18.6765 10.4242C19.0131 9.7108 19.9852 9.7108 20.3217 10.4242L22.9428 15.9819L28.8044 16.8786C29.5566 16.9937 29.8563 17.9612 29.3119 18.5162L25.071 22.8393L26.0718 28.9465C26.2003 29.7309 25.4137 30.329 24.7408 29.9585L19.4991 27.0735L14.2574 29.9585C13.5844 30.329 12.7978 29.7309 12.9264 28.9465L13.9272 22.8393L9.68646 18.5162C9.14198 17.9612 9.44173 16.9937 10.1938 16.8786L16.0555 15.9819Z" stroke="#E43D30" stroke-width="2" stroke-linecap="round" stroke-linejoin="round"/>
</svg>
