<svg width="37" height="38" viewBox="0 0 37 38" fill="none" xmlns="http://www.w3.org/2000/svg">
<g clip-path="url(#clip0_39_186)">
<path d="M18.1291 24.497C20.9737 24.497 23.2797 22.1963 23.2797 19.3581C23.2797 16.5199 20.9737 14.2192 18.1291 14.2192C15.2844 14.2192 12.9785 16.5199 12.9785 19.3581C12.9785 22.1963 15.2844 24.497 18.1291 24.497Z" stroke="#E43D30" stroke-width="2" stroke-linecap="round" stroke-linejoin="round"/>
<path d="M31.2161 16.6095L29.3315 12.0691L31.8643 9.08037L28.4306 5.65444L25.4514 8.19468L20.804 6.28779L19.7353 2.22852H16.38L15.2951 6.34156L10.7546 8.25123L7.82836 5.65444L4.39465 9.08037L6.88988 12.1446L5.03418 16.6967L0.960938 17.6452V21.0711L5.0833 22.194L6.99697 26.7234L4.39465 29.6359L7.82836 33.0619L10.9035 30.5614L15.3774 32.3977L16.4126 36.4878H19.8464L20.8842 32.3993L25.4349 30.519C26.1934 31.0599 28.4306 33.0619 28.4306 33.0619L31.8643 29.6359L29.3164 26.6372L31.2015 22.0955L35.2979 21.0321L35.2981 17.6452L31.2161 16.6095Z" stroke="#E43D30" stroke-width="2" stroke-linecap="round" stroke-linejoin="round"/>
</g>
<defs>
<clipPath id="clip0_39_186">
<rect width="36.26" height="37" fill="white" transform="translate(0 0.47998)"/>
</clipPath>
</defs>
</svg>
