<svg width="61" height="53" viewBox="0 0 61 53" fill="none" xmlns="http://www.w3.org/2000/svg">
<path d="M8.77311 35.0538L11.8382 28.5744C12.2317 27.7427 13.3684 27.7427 13.7618 28.5744L16.8269 35.0538L23.6814 36.0994C24.5608 36.2335 24.9112 37.3615 24.2746 38.0088L19.3157 43.0489L20.486 50.1692C20.6363 51.0836 19.7165 51.7806 18.9296 51.3489L12.8 47.9853L6.67046 51.3489C5.88355 51.7806 4.96371 51.0836 5.11401 50.1692L6.28434 43.0489L1.32538 38.0088C0.688684 37.3615 1.0392 36.2335 1.91866 36.0994L8.77311 35.0538Z" stroke="#E43D30" stroke-width="2" stroke-linecap="round" stroke-linejoin="round"/>
<path d="M44.173 35.0538L47.2383 28.5744C47.6316 27.7427 48.7685 27.7427 49.1617 28.5744L52.2271 35.0538L59.0814 36.0994C59.9608 36.2335 60.3113 37.3615 59.6747 38.0088L54.7157 43.0489L55.886 50.1692C56.0364 51.0836 55.1166 51.7806 54.3296 51.3489L48.2 47.9853L42.0705 51.3489C41.2835 51.7806 40.3636 51.0836 40.5141 50.1692L41.6844 43.0489L36.7254 38.0088C36.0888 37.3615 36.4393 36.2335 37.3187 36.0994L44.173 35.0538Z" stroke="#E43D30" stroke-width="2" stroke-linecap="round" stroke-linejoin="round"/>
<path d="M26.473 8.58337L29.5383 2.10383C29.9316 1.27203 31.0685 1.27203 31.4617 2.10383L34.5271 8.58337L41.3814 9.62881C42.2608 9.76292 42.6113 10.891 41.9746 11.5381L37.0157 16.5781L38.186 23.6985C38.3364 24.6129 37.4166 25.31 36.6295 24.8782L30.5 21.5146L24.3705 24.8782C23.5836 25.31 22.6637 24.6129 22.814 23.6985L23.9844 16.5781L19.0254 11.5381C18.3887 10.891 18.7392 9.76292 19.6187 9.62881L26.473 8.58337Z" stroke="#E43D30" stroke-width="2" stroke-linecap="round" stroke-linejoin="round"/>
</svg>
