<svg width="53" height="53" viewBox="0 0 53 53" fill="none" xmlns="http://www.w3.org/2000/svg">
<path d="M26.334 33.98C30.4762 33.98 33.834 30.6222 33.834 26.48C33.834 22.3377 30.4762 18.98 26.334 18.98C22.1917 18.98 18.834 22.3377 18.834 26.48C18.834 30.6222 22.1917 33.98 26.334 33.98Z" stroke="#E43D30" stroke-width="2" stroke-linecap="round" stroke-linejoin="round"/>
<path d="M45.39 22.4685L42.6457 15.842L46.334 11.48L41.334 6.47998L36.9957 10.1874L30.2285 7.40433L28.6722 1.47998H23.7865L22.2067 7.48281L15.595 10.2699L11.334 6.47998L6.33398 11.48L9.96741 15.9521L7.26523 22.5957L1.33398 23.98V28.98L7.33676 30.6187L10.1234 37.2292L6.33398 41.48L11.334 46.48L15.8119 42.8307L22.3265 45.5107L23.834 51.48H28.834L30.3452 45.513L36.9717 42.7687C38.0762 43.5582 41.334 46.48 41.334 46.48L46.334 41.48L42.6237 37.1035L45.3687 30.475L51.3337 28.923L51.334 23.98L45.39 22.4685Z" stroke="#E43D30" stroke-width="2" stroke-linecap="round" stroke-linejoin="round"/>
</svg>
