<svg width="69" height="53" viewBox="0 0 69 53" fill="none" xmlns="http://www.w3.org/2000/svg">
<path d="M19.9993 51.48V47.7944C19.9993 45.8394 20.772 43.9645 22.1472 42.5821C23.5225 41.1997 25.3878 40.4231 27.3327 40.4231H41.9993C43.9443 40.4231 45.8095 41.1997 47.1848 42.5821C48.5601 43.9645 49.3327 45.8394 49.3327 47.7944V51.48M47.8139 24.1202H60.3327C62.2776 24.1202 64.1429 24.8968 65.5181 26.2792C66.8934 27.6615 67.666 29.5364 67.666 31.4914V35.177M1.66602 35.177V31.4914C1.66602 29.5364 2.43863 27.6615 3.8139 26.2792C5.18917 24.8968 7.05443 24.1202 8.99935 24.1202H21.5181M27.3327 25.1542C27.3327 27.1091 28.1053 28.984 29.4806 30.3664C30.8558 31.7488 32.7211 32.5254 34.666 32.5254C36.6109 32.5254 38.4762 31.7488 39.8515 30.3664C41.2267 28.984 41.9993 27.1091 41.9993 25.1542C41.9993 23.1992 41.2267 21.3243 39.8515 19.9419C38.4762 18.5596 36.6109 17.783 34.666 17.783C32.7211 17.783 30.8558 18.5596 29.4806 19.9419C28.1053 21.3243 27.3327 23.1992 27.3327 25.1542ZM45.666 8.8512C45.666 10.8062 46.4386 12.6811 47.8139 14.0634C49.1892 15.4458 51.0544 16.2224 52.9993 16.2224C54.9443 16.2224 56.8095 15.4458 58.1848 14.0634C59.5601 12.6811 60.3327 10.8062 60.3327 8.8512C60.3327 6.89623 59.5601 5.02133 58.1848 3.63896C56.8095 2.25659 54.9443 1.47998 52.9993 1.47998C51.0544 1.47998 49.1892 2.25659 47.8139 3.63896C46.4386 5.02133 45.666 6.89623 45.666 8.8512ZM8.99935 8.8512C8.99935 10.8062 9.77196 12.6811 11.1472 14.0634C12.5225 15.4458 14.3878 16.2224 16.3327 16.2224C18.2776 16.2224 20.1429 15.4458 21.5181 14.0634C22.8934 12.6811 23.666 10.8062 23.666 8.8512C23.666 6.89623 22.8934 5.02133 21.5181 3.63896C20.1429 2.25659 18.2776 1.47998 16.3327 1.47998C14.3878 1.47998 12.5225 2.25659 11.1472 3.63896C9.77196 5.02133 8.99935 6.89623 8.99935 8.8512Z" stroke="#E43D30" stroke-width="2" stroke-linecap="round" stroke-linejoin="round"/>
</svg>
