<svg width="48" height="53" viewBox="0 0 48 53" fill="none" xmlns="http://www.w3.org/2000/svg">
<path d="M12.583 36.7782L6.65576 30.8582C5.96858 30.1719 5.96858 29.0591 6.65576 28.3728C7.34272 27.6867 8.45702 27.6871 9.14424 28.3728M9.14424 28.3728L6.13892 25.3712C5.79386 25.0265 5.6 24.5591 5.6 24.0717V14.7254C5.6 13.4567 4.57026 12.4283 3.3 12.4283C2.02975 12.4283 1 13.4567 1 14.7254V32.0397C1 33.0145 1.38771 33.9494 2.07785 34.6386L8.76419 41.3167C9.38899 41.9408 9.74 42.7871 9.74 43.6696V50.5611C9.74 51.0686 10.1519 51.48 10.66 51.48H16.64C17.1481 51.48 17.56 51.0686 17.56 50.5611V38.3006C17.56 37.3258 17.1723 36.3909 16.4822 35.7016L9.14424 28.3728ZM35.417 36.7782L41.3442 30.8582C42.0314 30.1719 42.0314 29.0591 41.3442 28.3728C40.6573 27.6867 39.543 27.6871 38.8558 28.3728M38.8558 28.3728L41.8611 25.3712C42.2061 25.0265 42.4 24.5591 42.4 24.0717V14.7254C42.4 13.4567 43.4297 12.4283 44.7 12.4283C45.9703 12.4283 47 13.4567 47 14.7254V32.0397C47 33.0145 46.6123 33.9494 45.9222 34.6386L39.2358 41.3167C38.611 41.9408 38.26 42.7871 38.26 43.6696V50.5611C38.26 51.0686 37.8481 51.48 37.34 51.48H31.36C30.8519 51.48 30.44 51.0686 30.44 50.5611V38.3006C30.44 37.3258 30.8277 36.3909 31.5178 35.7016L38.8558 28.3728ZM20.543 7.02797L22.933 1.96723C23.2396 1.31757 24.126 1.31757 24.4326 1.96723L26.8225 7.02797L32.1665 7.8445C32.8522 7.94925 33.1254 8.8303 32.6291 9.33572L28.7628 13.2722L29.6752 18.8334C29.7925 19.5476 29.0753 20.0921 28.4617 19.7548L23.6828 17.1277L18.9038 19.7548C18.2903 20.0921 17.5731 19.5476 17.6903 18.8334L18.6027 13.2722L14.7364 9.33572C14.24 8.8303 14.5133 7.94925 15.199 7.8445L20.543 7.02797Z" stroke="#E43D30" stroke-width="2" stroke-linecap="round" stroke-linejoin="round"/>
</svg>
