<svg width="54" height="53" viewBox="0 0 54 53" fill="none" xmlns="http://www.w3.org/2000/svg">
<path d="M20.9489 51.48C18.4655 50.9176 16.0804 49.9873 13.8729 48.7199M32.3619 1.47998C38.0346 2.77334 43.0993 5.95102 46.7269 10.4928C50.3545 15.0345 52.3301 20.6712 52.3301 26.48C52.3301 32.2888 50.3545 37.9255 46.7269 42.4672C43.0993 47.0089 38.0346 50.1866 32.3619 51.48M5.48154 40.9866C3.92511 38.7292 2.743 36.2364 1.98062 33.6037M1.33008 22.2074C1.7866 19.5015 2.66539 16.938 3.89799 14.5881L4.38019 13.7194M12.1239 5.34235C14.7935 3.50772 17.7885 2.19696 20.9489 1.47998M18.0957 26.48L23.8022 32.1767L35.2151 20.7833" stroke="#E43D30" stroke-width="2" stroke-linecap="round" stroke-linejoin="round"/>
</svg>
