<svg width="53" height="53" viewBox="0 0 53 53" fill="none" xmlns="http://www.w3.org/2000/svg">
<path d="M51.6602 23.3491C50.8959 17.8395 48.3447 12.7345 44.3997 8.82042C40.4546 4.90635 35.3344 2.40038 29.8279 1.68853C24.3214 0.97668 18.734 2.09845 13.9264 4.88103C9.11885 7.66361 5.35781 11.9526 3.22266 17.0874M1.66016 4.56405V17.0874H14.1602M1.66016 29.6108C2.4244 35.1204 4.97557 40.2255 8.92066 44.1395C12.8658 48.0536 17.9859 50.5596 23.4924 51.2714C28.999 51.9833 34.5863 50.8615 39.3939 48.0789C44.2015 45.2963 47.9625 41.0073 50.0977 35.8725M51.6602 48.3959V35.8725H39.1602M27.1602 33.48C31.3024 33.48 34.6602 30.1222 34.6602 25.98C34.6602 21.8377 31.3024 18.48 27.1602 18.48C23.0179 18.48 19.6602 21.8377 19.6602 25.98C19.6602 30.1222 23.0179 33.48 27.1602 33.48Z" stroke="#E43D30" stroke-width="2" stroke-linecap="round" stroke-linejoin="round"/>
</svg>
