<svg width="75" height="35" viewBox="0 0 75 35" fill="none" xmlns="http://www.w3.org/2000/svg">
<g clip-path="url(#clip0_3002_76)">
<mask id="mask0_3002_76" style="mask-type:luminance" maskUnits="userSpaceOnUse" x="3" y="7" width="70" height="21">
<path d="M73 7H3V27.0701H73V7Z" fill="white"/>
</mask>
<g mask="url(#mask0_3002_76)">
<path d="M20.0723 19.502H23.6787C24.4928 19.502 25.1181 19.6852 25.544 20.0572C25.9752 20.4238 26.1909 20.909 26.1909 21.5073C26.1909 22.1057 25.9914 22.5586 25.5979 22.8712C25.0534 23.3025 24.3849 23.5181 23.5925 23.5181H22.2879V26.0141C22.2879 26.1596 22.3256 26.2621 22.3903 26.3267C22.482 26.4076 22.606 26.4453 22.7623 26.4453H23.5925V26.8173H20.0777V26.4453H20.8108C20.9564 26.4453 21.0642 26.4184 21.1343 26.3591C21.2043 26.2998 21.2367 26.2243 21.2367 26.1273V20.2998C21.2367 20.1489 21.1936 20.0464 21.1073 19.9763C21.0211 19.9117 20.8593 19.8793 20.6221 19.8793H20.083V19.5073L20.0723 19.502ZM22.2771 23.1569H23.269C23.8944 23.1569 24.3472 23.0276 24.6275 22.7634C24.9078 22.4993 25.0426 22.068 25.0426 21.4642C25.0426 21.0437 24.9779 20.7203 24.8539 20.4939C24.7299 20.2675 24.5467 20.1003 24.3041 19.9925C24.0615 19.8847 23.6626 19.8308 23.1127 19.8308C22.7461 19.8308 22.5143 19.8685 22.4227 19.9332C22.3256 20.0033 22.2771 20.1219 22.2771 20.2944V23.1569Z" fill="black"/>
<path d="M26.6914 19.502H30.4704C31.1981 19.502 31.7696 19.6691 32.1739 20.0033C32.5782 20.3375 32.7777 20.7742 32.7777 21.3133C32.7777 21.6367 32.6968 21.9224 32.5351 22.1758C32.3733 22.4292 32.1415 22.6286 31.845 22.7796C31.5432 22.9305 31.0688 23.0383 30.4219 23.103C30.8963 23.2324 31.2197 23.3564 31.3922 23.4804C31.5701 23.6044 31.7103 23.7607 31.8181 23.9602C31.9259 24.1542 32.0445 24.5532 32.1901 25.1569C32.2871 25.5882 32.3949 25.8847 32.5081 26.041C32.5944 26.165 32.686 26.2243 32.7884 26.2243C32.8909 26.2243 32.9879 26.1489 33.0742 25.9979C33.1604 25.847 33.2143 25.5828 33.2359 25.2055H33.5701C33.5054 26.3268 33.0903 26.8874 32.3248 26.8874C32.0876 26.8874 31.8774 26.8281 31.6995 26.7041C31.5216 26.5801 31.3922 26.4022 31.3006 26.165C31.2305 25.9871 31.155 25.5181 31.0688 24.7634C31.0202 24.3268 30.9394 24.0141 30.837 23.8308C30.7291 23.6475 30.562 23.4966 30.3356 23.3834C30.1092 23.2701 29.8343 23.2162 29.5216 23.2162H28.9232V26.0896C28.9232 26.2135 28.9556 26.2944 29.0149 26.3483C29.0957 26.413 29.2143 26.4453 29.3868 26.4453H30.0876V26.8173H26.6914V26.4453H27.4084C27.5647 26.4453 27.6833 26.413 27.7588 26.3483C27.8343 26.289 27.8666 26.1974 27.8666 26.0896V20.2459C27.8666 20.1219 27.8289 20.0249 27.7534 19.9656C27.6779 19.9009 27.5593 19.8739 27.4084 19.8739H26.6914V19.502ZM28.9178 22.8658H29.7804C30.3626 22.8658 30.8154 22.758 31.1442 22.537C31.4731 22.316 31.6348 21.9278 31.6348 21.3672C31.6348 20.9844 31.5755 20.6772 31.4515 20.4561C31.3275 20.2297 31.1658 20.0788 30.9663 19.9979C30.7669 19.917 30.368 19.8739 29.7804 19.8739C29.3922 19.8739 29.1496 19.9009 29.058 19.9548C28.9663 20.0087 28.9232 20.1003 28.9232 20.2351V22.8658H28.9178Z" fill="black"/>
<path d="M34.4062 19.5015H40.2015L40.3416 21.9705H40.0127C39.8833 21.1942 39.6732 20.6497 39.3875 20.3371C39.1018 20.0244 38.7352 19.8735 38.277 19.8735H36.8429C36.7297 19.8735 36.6434 19.9058 36.5841 19.9651C36.5195 20.0298 36.4925 20.1214 36.4925 20.2508V22.8546H37.1179C37.4522 22.8546 37.727 22.736 37.9319 22.4934C38.1367 22.2508 38.2553 21.8842 38.2715 21.3883H38.6111V24.7737H38.2715C38.2553 24.2131 38.1421 23.8142 37.9265 23.5716C37.7162 23.329 37.4251 23.2104 37.0639 23.2104H36.4925V26.116C36.4925 26.2239 36.5248 26.3047 36.5949 26.3586C36.665 26.4125 36.7836 26.4449 36.9507 26.4449H38.0829C39.3066 26.4449 40.0181 25.6632 40.2068 24.0891H40.5626L40.4386 26.8115H34.4116V26.4395H34.913C35.1071 26.4395 35.2419 26.4071 35.3228 26.3371C35.4037 26.267 35.4413 26.1699 35.4413 26.0406V20.2454C35.4413 20.116 35.409 20.019 35.339 19.9597C35.2689 19.895 35.161 19.8681 35.0154 19.8681H34.417V19.4961L34.4062 19.5015Z" fill="black"/>
<path d="M45.7384 20.0568L46.1858 19.4207H46.547L46.5739 22.0837H46.2451C46.0402 21.2697 45.7384 20.6713 45.3394 20.294C44.9405 19.9166 44.4769 19.7279 43.9594 19.7279C43.5227 19.7279 43.1669 19.8573 42.892 20.1161C42.6117 20.3802 42.4769 20.6929 42.4769 21.0703C42.4769 21.3021 42.5308 21.5069 42.6332 21.6848C42.7411 21.8627 42.8974 22.0029 43.1076 22.1161C43.3179 22.2293 43.7114 22.3425 44.2936 22.4665C45.1076 22.6444 45.6791 22.8223 46.0079 23.0056C46.3367 23.1835 46.5793 23.4153 46.7411 23.6902C46.9028 23.9651 46.9836 24.2886 46.9836 24.6552C46.9836 25.3129 46.7626 25.8627 46.3206 26.294C45.8785 26.7253 45.3071 26.9463 44.6009 26.9463C43.8462 26.9463 43.1939 26.7037 42.6332 26.2131L42.0726 26.8978H41.7168V24.0622H42.0726C42.2128 24.8438 42.52 25.4584 42.9998 25.9112C43.4796 26.3641 44.0241 26.5905 44.6278 26.5905C45.1184 26.5905 45.5119 26.4449 45.8246 26.1592C46.1319 25.8681 46.2882 25.5231 46.2882 25.108C46.2882 24.8762 46.2343 24.6713 46.1157 24.4934C46.0025 24.3155 45.8192 24.17 45.5659 24.0514C45.3179 23.9328 44.8219 23.7872 44.0888 23.6147C43.2801 23.4261 42.7303 23.2104 42.4338 22.9732C42.0241 22.639 41.8192 22.1592 41.8192 21.5447C41.8192 20.9301 42.0241 20.3748 42.4338 19.9651C42.8435 19.5554 43.3718 19.3506 44.0079 19.3506C44.3098 19.3506 44.6063 19.4045 44.8866 19.5123C45.1615 19.6201 45.4473 19.8034 45.7438 20.0568H45.7384Z" fill="black"/>
<path d="M47.879 19.502H53.8143L53.9545 22.2675H53.6148C53.3884 20.6448 52.8008 19.8308 51.852 19.8308C51.6634 19.8308 51.5286 19.8631 51.4585 19.9278C51.383 19.9925 51.3507 20.1003 51.3507 20.2567V26.1003C51.3507 26.2189 51.3884 26.3052 51.4531 26.3645C51.5232 26.4184 51.6364 26.4507 51.7927 26.4507H52.5313V26.8227H49.1351V26.4507H49.976C50.0892 26.4507 50.1755 26.4238 50.2348 26.3645C50.2941 26.3106 50.3264 26.2351 50.3264 26.1435V20.2135C50.3264 20.0896 50.2887 19.9925 50.2132 19.9278C50.1378 19.8631 50.0138 19.8308 49.8466 19.8308C49.3669 19.8308 48.9679 20.0572 48.6499 20.51C48.3857 20.882 48.197 21.4696 48.0838 22.2675H47.7227L47.879 19.502Z" fill="black"/>
<path d="M54.562 19.502H57.9313V19.8739H57.3545C57.0957 19.8739 56.934 19.9063 56.8639 19.971C56.7992 20.0356 56.7615 20.1704 56.7615 20.3807V25.917C56.7615 26.1381 56.7938 26.2782 56.8531 26.3321C56.9286 26.4076 57.0742 26.4453 57.279 26.4453H57.9259V26.8173H54.5566V26.4453H55.1928C55.4138 26.4453 55.5647 26.413 55.6294 26.3483C55.6941 26.2836 55.7265 26.1381 55.7265 25.917V20.3807C55.7265 20.1704 55.6941 20.041 55.6348 19.9925C55.5432 19.917 55.3707 19.8793 55.1281 19.8793H54.5566V19.5073L54.562 19.502Z" fill="black"/>
<path d="M64.0029 20.0784L64.4072 19.3452H64.7414L64.9247 22.2617H64.6012C64.3533 21.4207 64.0622 20.8169 63.7279 20.4396C63.302 19.9652 62.8115 19.7226 62.2562 19.7226C61.8303 19.7226 61.453 19.8412 61.1134 20.0838C60.7791 20.3264 60.5204 20.6822 60.3425 21.1673C60.1592 21.6471 60.0729 22.3264 60.0729 23.1997C60.0729 24.073 60.1646 24.7091 60.3425 25.1835C60.5258 25.6633 60.7684 26.0137 61.0864 26.2401C61.3991 26.4665 61.771 26.5797 62.1969 26.5797C62.7737 26.5797 63.2158 26.418 63.5339 26.0946C63.8465 25.7711 64.0029 25.356 64.0029 24.8439V24.1539C64.0029 24.046 63.9651 23.9598 63.8789 23.9005C63.7926 23.8412 63.6578 23.8088 63.4638 23.8088H62.8438V23.4638H65.9112V23.8088H65.4961C65.3128 23.8088 65.1781 23.8412 65.0972 23.9059C65.0163 23.9706 64.9786 24.0622 64.9786 24.1862V26.9787H64.6551C64.5366 26.542 64.4126 26.1269 64.2832 25.728C64.0352 26.1323 63.7441 26.4396 63.3991 26.639C63.0595 26.8439 62.6713 26.9409 62.2401 26.9409C61.6255 26.9409 61.0541 26.7846 60.5258 26.4665C60.0029 26.1485 59.5824 25.7064 59.2805 25.1296C58.9786 24.5528 58.8223 23.9059 58.8223 23.1781C58.8223 22.4504 58.9786 21.7981 59.2859 21.2212C59.5932 20.6444 60.0082 20.1862 60.5473 19.8466C61.0756 19.507 61.6147 19.3398 62.1592 19.3398C62.4719 19.3398 62.763 19.3938 63.0433 19.4962C63.329 19.5986 63.6471 19.7927 64.0029 20.0676V20.0784Z" fill="black"/>
<path d="M66.8477 19.5015H72.6428L72.7776 21.9705H72.4487C72.314 21.1942 72.1091 20.6497 71.8234 20.3371C71.5377 20.0244 71.1657 19.8735 70.7075 19.8735H69.2789C69.1657 19.8735 69.0741 19.9058 69.0148 19.9651C68.9555 20.0298 68.9285 20.1214 68.9285 20.2508V22.8546H69.5539C69.8935 22.8546 70.163 22.736 70.3733 22.4934C70.5781 22.2508 70.6913 21.8842 70.7129 21.3883H71.0525V24.7737H70.7129C70.6967 24.2131 70.5835 23.8142 70.3679 23.5716C70.1576 23.329 69.8665 23.2104 69.4999 23.2104H68.9285V26.116C68.9285 26.2239 68.9609 26.3047 69.0309 26.3586C69.101 26.4125 69.225 26.4449 69.3867 26.4449H70.5188C71.7479 26.4449 72.4541 25.6632 72.6428 24.0891H72.9986L72.8746 26.8115H66.8477V26.4395H67.349C67.5431 26.4395 67.6832 26.4071 67.7587 26.3371C67.8342 26.267 67.8773 26.1699 67.8773 26.0406V20.2454C67.8773 20.116 67.845 20.019 67.7749 19.9597C67.7102 19.895 67.597 19.8681 67.4514 19.8681H66.853V19.4961L66.8477 19.5015Z" fill="black"/>
<path d="M44.4979 7.50674C44.4979 7.78706 44.2714 8.01348 43.9911 8.01348C43.7108 8.01348 43.4844 7.78706 43.4844 7.50674C43.4844 7.22642 43.7108 7 43.9911 7C44.2714 7 44.4979 7.22642 44.4979 7.50674Z" fill="black"/>
<path d="M46.1482 7.50674C46.1482 7.78706 45.9218 8.01348 45.6415 8.01348C45.3612 8.01348 45.1348 7.78706 45.1348 7.50674C45.1348 7.22642 45.3612 7 45.6415 7C45.9218 7 46.1482 7.22642 46.1482 7.50674Z" fill="black"/>
<path d="M68.9568 16.5634C68.9568 16.8437 68.7304 17.0701 68.4501 17.0701C68.1698 17.0701 67.9434 16.8437 67.9434 16.5634C67.9434 16.2831 68.1698 16.0566 68.4501 16.0566C68.7304 16.0566 68.9568 16.2831 68.9568 16.5634Z" fill="black"/>
<path d="M35.8572 16.5634C35.8572 16.8437 35.6307 17.0701 35.3504 17.0701C35.0701 17.0701 34.8438 16.8437 34.8438 16.5634C34.8438 16.2831 35.0701 16.0566 35.3504 16.0566C35.6307 16.0566 35.8572 16.2831 35.8572 16.5634Z" fill="black"/>
<path d="M37.5076 16.5634C37.5076 16.8437 37.2812 17.0701 37.0009 17.0701C36.7206 17.0701 36.4941 16.8437 36.4941 16.5634C36.4941 16.2831 36.7206 16.0566 37.0009 16.0566C37.2812 16.0566 37.5076 16.2831 37.5076 16.5634Z" fill="black"/>
<path d="M27.1557 14.0456C27.1557 14.3044 26.9455 14.5093 26.6921 14.5093C26.4388 14.5093 26.2285 14.299 26.2285 14.0456C26.2285 13.7923 26.4388 13.582 26.6921 13.582C26.9455 13.582 27.1557 13.7923 27.1557 14.0456Z" fill="black"/>
<path d="M57.8302 9.35063L57.0755 9.60399V13.0541C57.0323 13.9221 56.3261 13.8628 56.2884 13.8628H54.2345V9.87893L53.4798 10.1323V13.8574H50.9676V10.2671L50.2183 10.5204V13.8574H46.186C45.8194 13.8628 45.5445 13.7765 45.372 13.6094C45.2048 13.4369 45.1994 13.2428 45.1994 13.2428V9.33984L44.4393 9.5986V13.2913C44.4393 13.7981 44.0404 13.8735 43.8032 13.8735C43.7331 13.8735 43.6846 13.8681 43.6792 13.8681H38.1967C37.3773 13.8681 37.3342 13.2752 37.3342 13.2482V9.34523L36.5795 9.5986V13.0326C36.5795 13.8574 35.6199 13.8628 35.5768 13.8628H30.6873C28.8383 13.7711 28.5903 11.6741 28.5849 11.6525C28.1914 9.56626 26.7089 9.45844 26.4178 9.45844C26.3962 9.45844 26.38 9.45844 26.38 9.45844C24.7358 9.38297 24.1374 10.4288 24.1321 10.4396V10.4504L24.1267 10.4611C24.1267 10.4611 24.2794 10.5923 24.5849 10.8547L24.6226 10.887L24.6496 10.8439C24.6658 10.8169 25.1078 10.1 26.3207 10.17C27.4043 10.2293 27.7601 11.2105 27.8356 11.4638C26.2453 11.2428 25.0862 11.5177 24.3962 12.2617C23.6631 13.0541 23.7385 14.1215 23.7385 14.1323C23.8517 16.294 25.2695 16.7469 26.4393 16.7469C27.1617 16.7469 27.7763 16.569 27.8949 16.5366L27.9272 16.5258V15.8196L27.7116 15.9005C26.4825 16.294 25.5552 16.2024 25 15.631C24.4178 15.038 24.4232 14.1161 24.4232 14.1053C24.4609 12.4018 25.7331 12.0407 26.7951 12.0407C27.3881 12.0407 27.9003 12.1539 28.0189 12.1808C28.5094 14.4504 30.4393 14.5474 30.4609 14.5474H35.6792C36.504 14.5474 36.8436 14.1593 36.9407 14.0353C37.1401 14.4558 37.8679 14.5528 38.0835 14.5528C38.1752 14.5528 38.2345 14.542 38.2345 14.542H43.6199C44.4555 14.542 44.8221 14.2186 44.9137 14.046C45.1186 14.4935 45.8949 14.5474 46.1267 14.5474C46.1806 14.5474 46.2183 14.5474 46.2183 14.5474H56.0296C56.7304 14.5474 57.2372 14.3695 57.5445 14.0245C57.9056 13.6094 57.841 13.1134 57.841 13.1027V9.34523L57.8302 9.35063Z" fill="black"/>
<path d="M69.6962 13.1296V9.35059L68.8714 9.63091V12.9409C68.8714 13.9058 67.9981 13.8681 67.9604 13.8681H61.7609V9.35059L60.9631 9.62013V14.7037C60.9631 16.2994 59.6154 16.1862 59.5776 16.1862C58.8445 16.1862 58.4456 15.8196 58.4456 15.8196C58.4024 15.7711 58.3701 15.7333 58.3323 15.7064L58.2461 15.6201L58.3647 16.5042L58.3755 16.515C58.8337 16.8762 59.4968 16.8924 59.6261 16.8924H59.6531C60.2892 16.8924 60.7906 16.6983 61.1571 16.3155C61.7501 15.6902 61.7771 14.7738 61.7717 14.5581H68.079C68.6774 14.5581 69.1248 14.4018 69.4051 14.0837C69.7663 13.674 69.7124 13.1511 69.707 13.1349L69.6962 13.1296Z" fill="black"/>
<path d="M10.6177 7.33969C10.5692 7.3343 10.3967 7.31273 10.1811 7.29117C10.1002 7.28578 10.0193 7.275 9.93847 7.275C9.93847 7.275 9.88456 7.26961 9.863 7.26422H4.47217C4.47217 7.26422 4.42904 7.25883 4.40209 7.25883C3.67971 7.25343 3.09211 7.84104 3.09211 8.5688C3.09211 9.29656 3.66354 9.8626 4.37513 9.87877H9.29696C9.6312 9.87877 10.5638 9.92729 11.3024 10.2453C12.774 10.8976 13.7983 12.3586 13.7983 14.0728C13.7983 15.7871 12.8495 17.1348 11.4749 17.8195C11.4425 17.8356 11.4048 17.8518 11.367 17.868C11.3401 17.8788 11.3077 17.8949 11.2808 17.9057C10.6069 18.1807 9.77675 18.24 9.32931 18.2507H4.46678C4.07324 18.2238 3.75518 18.3855 3.55572 18.5257C3.43173 18.6173 3.30235 18.7521 3.20532 18.93C3.08133 19.178 3.00586 19.5122 3.00586 19.965V25.8464C3.0382 26.5311 3.59885 27.0755 4.28349 27.0755C4.96812 27.0755 5.56651 26.4987 5.56651 25.7871V20.8815H9.93847V20.8707C13.5449 20.6928 16.4075 17.717 16.4075 14.0728C16.4075 10.6604 13.89 7.83564 10.6177 7.33969Z" fill="black"/>
<path d="M6.71913 14.0569V14.0461C6.71913 14.0461 6.71913 14.0353 6.71913 14.0299C6.71913 13.9652 6.70835 13.9113 6.70296 13.879C6.70296 13.879 6.70296 13.8736 6.70296 13.8682C6.70296 13.852 6.69757 13.8466 6.69757 13.8466C6.69757 13.8466 6.68139 13.7981 6.676 13.7765C6.676 13.7765 6.676 13.7711 6.676 13.7658C6.676 13.755 6.66522 13.7388 6.66522 13.728C6.65444 13.7118 6.64366 13.7011 6.63288 13.6849C6.6167 13.6579 6.60053 13.6364 6.57897 13.6094C6.56819 13.5933 6.5574 13.5771 6.54662 13.5609C6.54662 13.5609 6.54662 13.5609 6.54123 13.5555C6.53045 13.5447 6.52506 13.5286 6.51428 13.5178C6.51428 13.5178 6.49811 13.5016 6.48193 13.4854C6.28247 13.2644 5.99137 13.0434 5.71643 12.8601C5.49541 12.7038 5.28517 12.5744 5.0911 12.4773C5.06953 12.4666 5.05875 12.4558 5.05875 12.4558C4.39568 12.1108 3.93207 12.0461 3.93207 12.0461C3.80808 12.0299 3.71104 12.0407 3.64096 12.0569C3.44689 12.1054 3.30673 12.224 3.21509 12.3372C3.19352 12.3695 3.13422 12.4612 3.0911 12.5906C3.08031 12.6283 3.01562 12.8655 3.01562 13.1081V15.011C3.01562 15.2482 3.08031 15.4854 3.0911 15.5286C3.13961 15.6579 3.19352 15.7496 3.21509 15.7819C3.30673 15.8951 3.44689 16.0083 3.64096 16.0623C3.71104 16.0784 3.80808 16.0892 3.93207 16.0676C3.93207 16.0676 4.39568 16.003 5.05875 15.6579C5.05875 15.6579 5.06953 15.6525 5.0911 15.6418C5.28517 15.5393 5.49541 15.4154 5.71643 15.259C5.99137 15.0757 6.28247 14.8547 6.48193 14.6337C6.5035 14.6175 6.51428 14.6013 6.51428 14.6013C6.52506 14.5906 6.53584 14.5744 6.54123 14.5636C6.54123 14.5636 6.54662 14.5636 6.54662 14.5582C6.54662 14.5582 6.56819 14.5259 6.57897 14.5097C6.60053 14.4827 6.6167 14.4612 6.63288 14.4342C6.64366 14.418 6.65444 14.4073 6.66522 14.3911C6.66522 14.3803 6.676 14.3641 6.676 14.3534C6.676 14.3534 6.676 14.348 6.676 14.3426C6.676 14.3426 6.69218 14.2994 6.69757 14.2725C6.69757 14.2725 6.69757 14.2617 6.70296 14.2509C6.70296 14.2509 6.70296 14.2455 6.70296 14.2402C6.71374 14.2078 6.71913 14.1539 6.71913 14.0838C6.71913 14.0838 6.71913 14.0784 6.71913 14.073V14.0569Z" fill="black"/>
</g>
</g>
<defs>
<clipPath id="clip0_3002_76">
<rect width="70" height="21" fill="white" transform="translate(3 7)"/>
</clipPath>
</defs>
</svg>
