<svg width="70" height="16" viewBox="0 0 70 16" fill="none" xmlns="http://www.w3.org/2000/svg">
<g clip-path="url(#clip0_368_287)">
<path d="M16.6686 6.47404L8.38698 3.59277L5.81319 6.55879C5.30544 7.15199 5.28793 7.81298 5.81319 7.98247L8.36947 8.88075L17.0013 7.30453C17.1238 6.93166 17.0013 6.59268 16.6686 6.47404Z" fill="#5BA646"/>
<path d="M10.1551 2.35586C9.69985 2.4406 9.22711 2.71178 8.85943 3.1016L15.2501 5.25408L15.8979 5.13544C16.8084 4.96595 17.7714 4.40665 18.4367 3.64396L21.5883 0L10.1551 2.35586ZM5.69035 9.9997C4.77989 10.1692 3.81691 10.7285 3.15158 11.4912L0 15.1351L11.8534 12.9827C12.3262 12.8979 12.8514 12.5928 13.2016 12.1691L16.7034 7.98281V7.96586L8.9995 9.3726L5.69035 9.9997Z" fill="#18355F"/>
<path d="M26.5606 2.64444L19.1895 13.6441H22.6212L24.4246 10.7967H28.7843L29.0994 13.6441H32.4961L30.7277 2.64444H26.5606ZM25.37 9.00018L26.8758 6.62737C27.2785 5.98332 27.6987 5.13589 28.0839 4.4749H28.1364C28.2065 5.13589 28.294 6.01722 28.364 6.62737L28.6617 9.00018H25.37ZM62.9088 5.33928C63.8368 4.77997 65.0624 4.49184 66.3755 4.49184C67.6887 4.49184 68.6692 4.69523 69.1244 4.84777L69.9999 2.93257C69.5796 2.72919 68.3365 2.45801 66.6907 2.45801C64.5546 2.45801 62.6987 2.83088 61.1229 3.62746C58.8293 4.72913 57.306 6.66127 57.306 9.11882C57.306 12.017 60.0024 13.7797 63.9944 13.7797C65.8153 13.7797 67.181 13.5594 67.9864 13.3051L67.7237 11.4069C66.9533 11.6272 65.9028 11.7628 64.8523 11.7628C62.1734 11.7628 60.8253 10.5934 60.8253 8.84764C60.8253 7.35616 61.6307 6.08502 62.9088 5.33928ZM50.9153 9.25441H53.244L52.6312 11.5764C52.2635 11.695 51.7382 11.7798 50.9854 11.7798C48.6042 11.7798 47.0984 10.8476 47.0984 9.00018C47.0984 7.49175 47.9738 6.18671 49.2695 5.44097C50.285 4.86471 51.6332 4.55964 53.1389 4.55964C54.4871 4.55964 55.6602 4.77997 56.343 5.01725L57.306 3.03426C56.7282 2.81393 55.2575 2.54275 53.279 2.54275C50.6527 2.54275 48.3065 3.119 46.6082 4.13592C44.6822 5.32233 43.5091 7.10193 43.5091 9.16967C43.5091 10.5764 44.2095 11.7798 45.4176 12.5594C46.6782 13.3729 48.3765 13.7627 50.4776 13.7627C52.3861 13.7627 54.207 13.4238 55.38 13.1357L56.8858 7.37311H51.3881L50.9153 9.25441ZM39.9723 7.20363C38.6942 6.67822 37.7662 6.2884 37.7662 5.6613C37.7662 5.0342 38.5541 4.50879 40.0599 4.50879C41.3205 4.49184 42.3886 4.79692 42.8963 5.0003L43.9118 3.03426C43.264 2.78003 42.1784 2.47496 40.34 2.47496C37.0309 2.47496 34.3695 3.83085 34.3695 6.05112C34.3695 7.49175 35.8928 8.33919 37.5211 8.96629C38.9218 9.49169 39.5696 9.89846 39.5696 10.5086C39.5696 11.373 38.4316 11.7967 37.1709 11.7967C35.7702 11.7967 34.4921 11.4916 33.5992 11.1018L32.5136 13.034C33.2315 13.4238 34.7372 13.8136 36.8558 13.8136C40.2175 13.8136 43.0189 12.5594 43.0189 10.1018C42.9839 8.7968 41.8108 7.89852 39.9723 7.20363Z" fill="#18355F"/>
</g>
<defs>
<clipPath id="clip0_368_287">
<rect width="70" height="15.1351" fill="white"/>
</clipPath>
</defs>
</svg>
