<svg width="70" height="21" viewBox="0 0 70 21" fill="none" xmlns="http://www.w3.org/2000/svg">
<g clip-path="url(#clip0_368_292)">
<path d="M17.0723 12.502H20.6787C21.4928 12.502 22.1181 12.6852 22.544 13.0572C22.9752 13.4238 23.1909 13.909 23.1909 14.5073C23.1909 15.1057 22.9914 15.5586 22.5979 15.8712C22.0534 16.3025 21.3849 16.5181 20.5925 16.5181H19.2879V19.0141C19.2879 19.1596 19.3256 19.2621 19.3903 19.3267C19.482 19.4076 19.606 19.4453 19.7623 19.4453H20.5925V19.8173H17.0777V19.4453H17.8108C17.9564 19.4453 18.0642 19.4184 18.1343 19.3591C18.2043 19.2998 18.2367 19.2243 18.2367 19.1273V13.2998C18.2367 13.1489 18.1936 13.0464 18.1073 12.9763C18.0211 12.9117 17.8593 12.8793 17.6221 12.8793H17.083V12.5073L17.0723 12.502ZM19.2771 16.1569H20.269C20.8944 16.1569 21.3472 16.0276 21.6275 15.7634C21.9078 15.4993 22.0426 15.068 22.0426 14.4642C22.0426 14.0437 21.9779 13.7203 21.8539 13.4939C21.7299 13.2675 21.5467 13.1003 21.3041 12.9925C21.0615 12.8847 20.6626 12.8308 20.1127 12.8308C19.7461 12.8308 19.5143 12.8685 19.4227 12.9332C19.3256 13.0033 19.2771 13.1219 19.2771 13.2944V16.1569Z" fill="black"/>
<path d="M23.6914 12.502H27.4704C28.1981 12.502 28.7696 12.6691 29.1739 13.0033C29.5782 13.3375 29.7777 13.7742 29.7777 14.3133C29.7777 14.6367 29.6968 14.9224 29.5351 15.1758C29.3733 15.4292 29.1415 15.6286 28.845 15.7796C28.5432 15.9305 28.0688 16.0383 27.4219 16.103C27.8963 16.2324 28.2197 16.3564 28.3922 16.4804C28.5701 16.6044 28.7103 16.7607 28.8181 16.9602C28.9259 17.1542 29.0445 17.5532 29.1901 18.1569C29.2871 18.5882 29.3949 18.8847 29.5081 19.041C29.5944 19.165 29.686 19.2243 29.7884 19.2243C29.8909 19.2243 29.9879 19.1489 30.0742 18.9979C30.1604 18.847 30.2143 18.5828 30.2359 18.2055H30.5701C30.5054 19.3268 30.0903 19.8874 29.3248 19.8874C29.0876 19.8874 28.8774 19.8281 28.6995 19.7041C28.5216 19.5801 28.3922 19.4022 28.3006 19.165C28.2305 18.9871 28.155 18.5181 28.0688 17.7634C28.0202 17.3268 27.9394 17.0141 27.837 16.8308C27.7291 16.6475 27.562 16.4966 27.3356 16.3834C27.1092 16.2701 26.8343 16.2162 26.5216 16.2162H25.9232V19.0896C25.9232 19.2135 25.9556 19.2944 26.0149 19.3483C26.0957 19.413 26.2143 19.4453 26.3868 19.4453H27.0876V19.8173H23.6914V19.4453H24.4084C24.5647 19.4453 24.6833 19.413 24.7588 19.3483C24.8343 19.289 24.8666 19.1974 24.8666 19.0896V13.2459C24.8666 13.1219 24.8289 13.0249 24.7534 12.9656C24.6779 12.9009 24.5593 12.8739 24.4084 12.8739H23.6914V12.502ZM25.9178 15.8658H26.7804C27.3626 15.8658 27.8154 15.758 28.1442 15.537C28.4731 15.316 28.6348 14.9278 28.6348 14.3672C28.6348 13.9844 28.5755 13.6772 28.4515 13.4561C28.3275 13.2297 28.1658 13.0788 27.9663 12.9979C27.7669 12.917 27.368 12.8739 26.7804 12.8739C26.3922 12.8739 26.1496 12.9009 26.058 12.9548C25.9663 13.0087 25.9232 13.1003 25.9232 13.2351V15.8658H25.9178Z" fill="black"/>
<path d="M31.4062 12.5015H37.2014L37.3416 14.9705H37.0127C36.8833 14.1942 36.6731 13.6497 36.3874 13.3371C36.1017 13.0244 35.7351 12.8735 35.2769 12.8735H33.8429C33.7297 12.8735 33.6434 12.9058 33.5841 12.9651C33.5195 13.0298 33.4925 13.1214 33.4925 13.2508V15.8546H34.1178C34.4521 15.8546 34.727 15.736 34.9319 15.4934C35.1367 15.2508 35.2553 14.8842 35.2715 14.3883H35.6111V17.7737H35.2715C35.2553 17.2131 35.1421 16.8142 34.9265 16.5716C34.7162 16.329 34.4251 16.2104 34.0639 16.2104H33.4925V19.116C33.4925 19.2239 33.5248 19.3047 33.5949 19.3586C33.665 19.4125 33.7836 19.4449 33.9507 19.4449H35.0828C36.3065 19.4449 37.0181 18.6632 37.2068 17.0891H37.5626L37.4386 19.8115H31.4116V19.4395H31.913C32.1071 19.4395 32.2418 19.4071 32.3227 19.3371C32.4036 19.267 32.4413 19.1699 32.4413 19.0406V13.2454C32.4413 13.116 32.4089 13.019 32.3389 12.9597C32.2688 12.895 32.161 12.8681 32.0154 12.8681H31.417V12.4961L31.4062 12.5015Z" fill="black"/>
<path d="M42.7384 13.0568L43.1858 12.4207H43.547L43.5739 15.0837H43.2451C43.0402 14.2697 42.7384 13.6713 42.3394 13.294C41.9405 12.9166 41.4769 12.7279 40.9594 12.7279C40.5227 12.7279 40.1669 12.8573 39.892 13.1161C39.6117 13.3802 39.4769 13.6929 39.4769 14.0703C39.4769 14.3021 39.5308 14.5069 39.6332 14.6848C39.7411 14.8627 39.8974 15.0029 40.1076 15.1161C40.3179 15.2293 40.7114 15.3425 41.2936 15.4665C42.1076 15.6444 42.6791 15.8223 43.0079 16.0056C43.3367 16.1835 43.5793 16.4153 43.7411 16.6902C43.9028 16.9651 43.9836 17.2886 43.9836 17.6552C43.9836 18.3129 43.7626 18.8627 43.3206 19.294C42.8785 19.7253 42.3071 19.9463 41.6009 19.9463C40.8462 19.9463 40.1939 19.7037 39.6332 19.2131L39.0726 19.8978H38.7168V17.0622H39.0726C39.2128 17.8438 39.52 18.4584 39.9998 18.9112C40.4796 19.3641 41.0241 19.5905 41.6278 19.5905C42.1184 19.5905 42.5119 19.4449 42.8246 19.1592C43.1319 18.8681 43.2882 18.5231 43.2882 18.108C43.2882 17.8762 43.2343 17.6713 43.1157 17.4934C43.0025 17.3155 42.8192 17.17 42.5659 17.0514C42.3179 16.9328 41.8219 16.7872 41.0888 16.6147C40.2801 16.4261 39.7303 16.2104 39.4338 15.9732C39.0241 15.639 38.8192 15.1592 38.8192 14.5447C38.8192 13.9301 39.0241 13.3748 39.4338 12.9651C39.8435 12.5554 40.3718 12.3506 41.0079 12.3506C41.3098 12.3506 41.6063 12.4045 41.8866 12.5123C42.1615 12.6201 42.4473 12.8034 42.7438 13.0568H42.7384Z" fill="black"/>
<path d="M44.879 12.502H50.8143L50.9545 15.2675H50.6148C50.3884 13.6448 49.8008 12.8308 48.852 12.8308C48.6634 12.8308 48.5286 12.8631 48.4585 12.9278C48.383 12.9925 48.3507 13.1003 48.3507 13.2567V19.1003C48.3507 19.2189 48.3884 19.3052 48.4531 19.3645C48.5232 19.4184 48.6364 19.4507 48.7927 19.4507H49.5313V19.8227H46.1351V19.4507H46.976C47.0892 19.4507 47.1755 19.4238 47.2348 19.3645C47.2941 19.3106 47.3264 19.2351 47.3264 19.1435V13.2135C47.3264 13.0896 47.2887 12.9925 47.2132 12.9278C47.1378 12.8631 47.0138 12.8308 46.8466 12.8308C46.3669 12.8308 45.9679 13.0572 45.6499 13.51C45.3857 13.882 45.197 14.4696 45.0838 15.2675H44.7227L44.879 12.502Z" fill="black"/>
<path d="M51.562 12.502H54.9313V12.8739H54.3545C54.0957 12.8739 53.934 12.9063 53.8639 12.971C53.7992 13.0356 53.7615 13.1704 53.7615 13.3807V18.917C53.7615 19.1381 53.7938 19.2782 53.8531 19.3321C53.9286 19.4076 54.0742 19.4453 54.279 19.4453H54.9259V19.8173H51.5566V19.4453H52.1928C52.4138 19.4453 52.5647 19.413 52.6294 19.3483C52.6941 19.2836 52.7265 19.1381 52.7265 18.917V13.3807C52.7265 13.1704 52.6941 13.041 52.6348 12.9925C52.5432 12.917 52.3707 12.8793 52.1281 12.8793H51.5566V12.5073L51.562 12.502Z" fill="black"/>
<path d="M61.0029 13.0784L61.4072 12.3452H61.7414L61.9247 15.2617H61.6012C61.3533 14.4207 61.0622 13.8169 60.7279 13.4396C60.302 12.9652 59.8115 12.7226 59.2562 12.7226C58.8303 12.7226 58.453 12.8412 58.1134 13.0838C57.7791 13.3264 57.5204 13.6822 57.3425 14.1673C57.1592 14.6471 57.0729 15.3264 57.0729 16.1997C57.0729 17.073 57.1646 17.7091 57.3425 18.1835C57.5258 18.6633 57.7684 19.0137 58.0864 19.2401C58.3991 19.4665 58.771 19.5797 59.1969 19.5797C59.7737 19.5797 60.2158 19.418 60.5339 19.0946C60.8465 18.7711 61.0029 18.356 61.0029 17.8439V17.1539C61.0029 17.046 60.9651 16.9598 60.8789 16.9005C60.7926 16.8412 60.6578 16.8088 60.4638 16.8088H59.8438V16.4638H62.9112V16.8088H62.4961C62.3128 16.8088 62.1781 16.8412 62.0972 16.9059C62.0163 16.9706 61.9786 17.0622 61.9786 17.1862V19.9787H61.6551C61.5366 19.542 61.4126 19.1269 61.2832 18.728C61.0352 19.1323 60.7441 19.4396 60.3991 19.639C60.0595 19.8439 59.6713 19.9409 59.2401 19.9409C58.6255 19.9409 58.0541 19.7846 57.5258 19.4665C57.0029 19.1485 56.5824 18.7064 56.2805 18.1296C55.9786 17.5528 55.8223 16.9059 55.8223 16.1781C55.8223 15.4504 55.9786 14.7981 56.2859 14.2212C56.5932 13.6444 57.0082 13.1862 57.5473 12.8466C58.0756 12.507 58.6147 12.3398 59.1592 12.3398C59.4719 12.3398 59.763 12.3938 60.0433 12.4962C60.329 12.5986 60.6471 12.7927 61.0029 13.0676V13.0784Z" fill="black"/>
<path d="M63.8477 12.5015H69.6428L69.7776 14.9705H69.4487C69.314 14.1942 69.1091 13.6497 68.8234 13.3371C68.5377 13.0244 68.1657 12.8735 67.7075 12.8735H66.2789C66.1657 12.8735 66.0741 12.9058 66.0148 12.9651C65.9555 13.0298 65.9285 13.1214 65.9285 13.2508V15.8546H66.5539C66.8935 15.8546 67.163 15.736 67.3733 15.4934C67.5781 15.2508 67.6913 14.8842 67.7129 14.3883H68.0525V17.7737H67.7129C67.6967 17.2131 67.5835 16.8142 67.3679 16.5716C67.1576 16.329 66.8665 16.2104 66.4999 16.2104H65.9285V19.116C65.9285 19.2239 65.9609 19.3047 66.0309 19.3586C66.101 19.4125 66.225 19.4449 66.3867 19.4449H67.5188C68.7479 19.4449 69.4541 18.6632 69.6428 17.0891H69.9986L69.8746 19.8115H63.8477V19.4395H64.349C64.5431 19.4395 64.6832 19.4071 64.7587 19.3371C64.8342 19.267 64.8773 19.1699 64.8773 19.0406V13.2454C64.8773 13.116 64.845 13.019 64.7749 12.9597C64.7102 12.895 64.597 12.8681 64.4514 12.8681H63.853V12.4961L63.8477 12.5015Z" fill="black"/>
<path d="M41.4979 0.506739C41.4979 0.787062 41.2714 1.01348 40.9911 1.01348C40.7108 1.01348 40.4844 0.787062 40.4844 0.506739C40.4844 0.226415 40.7108 0 40.9911 0C41.2714 0 41.4979 0.226415 41.4979 0.506739Z" fill="black"/>
<path d="M43.1482 0.506739C43.1482 0.787062 42.9218 1.01348 42.6415 1.01348C42.3612 1.01348 42.1348 0.787062 42.1348 0.506739C42.1348 0.226415 42.3612 0 42.6415 0C42.9218 0 43.1482 0.226415 43.1482 0.506739Z" fill="black"/>
<path d="M65.9568 9.56338C65.9568 9.8437 65.7304 10.0701 65.4501 10.0701C65.1698 10.0701 64.9434 9.8437 64.9434 9.56338C64.9434 9.28306 65.1698 9.05664 65.4501 9.05664C65.7304 9.05664 65.9568 9.28306 65.9568 9.56338Z" fill="black"/>
<path d="M32.8572 9.56338C32.8572 9.8437 32.6308 10.0701 32.3505 10.0701C32.0702 10.0701 31.8438 9.8437 31.8438 9.56338C31.8438 9.28306 32.0702 9.05664 32.3505 9.05664C32.6308 9.05664 32.8572 9.28306 32.8572 9.56338Z" fill="black"/>
<path d="M34.5076 9.56338C34.5076 9.8437 34.2812 10.0701 34.0009 10.0701C33.7206 10.0701 33.4941 9.8437 33.4941 9.56338C33.4941 9.28306 33.7206 9.05664 34.0009 9.05664C34.2812 9.05664 34.5076 9.28306 34.5076 9.56338Z" fill="black"/>
<path d="M24.1557 7.04564C24.1557 7.3044 23.9455 7.50925 23.6921 7.50925C23.4388 7.50925 23.2285 7.29901 23.2285 7.04564C23.2285 6.79227 23.4388 6.58203 23.6921 6.58203C23.9455 6.58203 24.1557 6.79227 24.1557 7.04564Z" fill="black"/>
<path d="M54.8302 2.35063L54.0755 2.60399V6.05413C54.0323 6.92205 53.3261 6.86275 53.2884 6.86275H51.2345V2.87893L50.4798 3.1323V6.85736H47.9676V3.26707L47.2183 3.52044V6.85736H43.186C42.8194 6.86275 42.5445 6.7765 42.372 6.60939C42.2048 6.43688 42.1994 6.24281 42.1994 6.24281V2.33984L41.4393 2.5986V6.29133C41.4393 6.79806 41.0404 6.87354 40.8032 6.87354C40.7331 6.87354 40.6846 6.86814 40.6792 6.86814H35.1967C34.3773 6.86814 34.3342 6.27515 34.3342 6.2482V2.34523L33.5795 2.5986V6.03257C33.5795 6.85736 32.6199 6.86275 32.5768 6.86275H27.6873C25.8383 6.77111 25.5903 4.67408 25.5849 4.65251C25.1914 2.56626 23.7089 2.45844 23.4178 2.45844C23.3962 2.45844 23.38 2.45844 23.38 2.45844C21.7358 2.38297 21.1374 3.42879 21.1321 3.43957V3.45036L21.1267 3.46114C21.1267 3.46114 21.2794 3.59231 21.5849 3.85467L21.6226 3.88701L21.6496 3.84389C21.6658 3.81693 22.1078 3.09995 23.3207 3.17003C24.4043 3.22933 24.7601 4.21046 24.8356 4.46383C23.2453 4.24281 22.0862 4.51774 21.3962 5.26168C20.6631 6.05413 20.7385 7.12151 20.7385 7.1323C20.8517 9.29402 22.2695 9.74685 23.4393 9.74685C24.1617 9.74685 24.7763 9.56895 24.8949 9.53661L24.9272 9.52583V8.81963L24.7116 8.90049C23.4825 9.29402 22.5552 9.20238 22 8.63095C21.4178 8.03796 21.4232 7.11612 21.4232 7.10534C21.4609 5.40184 22.7331 5.04065 23.7951 5.04065C24.3881 5.04065 24.9003 5.15386 25.0189 5.18081C25.5094 7.45036 27.4393 7.54739 27.4609 7.54739H32.6792C33.504 7.54739 33.8436 7.15925 33.9407 7.03526C34.1401 7.45575 34.8679 7.55278 35.0835 7.55278C35.1752 7.55278 35.2345 7.542 35.2345 7.542H40.6199C41.4555 7.542 41.8221 7.21855 41.9137 7.04604C42.1186 7.49348 42.8949 7.54739 43.1267 7.54739C43.1806 7.54739 43.2183 7.54739 43.2183 7.54739H53.0296C53.7304 7.54739 54.2372 7.36949 54.5445 7.02448C54.9056 6.60938 54.841 6.11343 54.841 6.10265V2.34523L54.8302 2.35063Z" fill="black"/>
<path d="M66.6962 6.12956V2.35059L65.8714 2.63091V5.94088C65.8714 6.90584 64.9981 6.86811 64.9604 6.86811H58.7609V2.35059L57.9631 2.62013V7.70369C57.9631 9.29937 56.6154 9.18617 56.5776 9.18617C55.8445 9.18617 55.4456 8.81959 55.4456 8.81959C55.4024 8.77107 55.3701 8.73333 55.3323 8.70638L55.2461 8.62013L55.3647 9.50422L55.3755 9.51501C55.8337 9.87619 56.4968 9.89236 56.6261 9.89236H56.6531C57.2892 9.89236 57.7906 9.69829 58.1571 9.31555C58.7501 8.69021 58.7771 7.77377 58.7717 7.55813H65.079C65.6774 7.55813 66.1248 7.4018 66.4051 7.08374C66.7663 6.67404 66.7124 6.15112 66.707 6.13495L66.6962 6.12956Z" fill="black"/>
<path d="M7.61772 0.339688C7.5692 0.334298 7.39669 0.312734 7.18106 0.291171C7.1002 0.28578 7.01934 0.274998 6.93847 0.274998C6.93847 0.274998 6.88456 0.269608 6.863 0.264217H1.47217C1.47217 0.264217 1.42904 0.258826 1.40209 0.258826C0.679714 0.253435 0.0921127 0.841036 0.0921127 1.5688C0.0921127 2.29656 0.663541 2.8626 1.37513 2.87877H6.29696C6.6312 2.87877 7.56381 2.92729 8.30235 3.24535C9.77405 3.89764 10.7983 5.35856 10.7983 7.07284C10.7983 8.78713 9.84952 10.1348 8.47486 10.8195C8.44252 10.8356 8.40478 10.8518 8.36704 10.868C8.34009 10.8788 8.30774 10.8949 8.28079 10.9057C7.60694 11.1807 6.77675 11.24 6.32931 11.2507H1.46678C1.07324 11.2238 0.755185 11.3855 0.555725 11.5257C0.431735 11.6173 0.302355 11.7521 0.20532 11.93C0.0813311 12.178 0.00585938 12.5122 0.00585938 12.965V18.8464C0.0382044 19.5311 0.598851 20.0755 1.28349 20.0755C1.96812 20.0755 2.56651 19.4987 2.56651 18.7871V13.8815H6.93847V13.8707C10.5449 13.6928 13.4075 10.717 13.4075 7.07284C13.4075 3.66044 10.89 0.835645 7.61772 0.339688Z" fill="black"/>
<path d="M3.71913 7.05687V7.04609C3.71913 7.04609 3.71913 7.0353 3.71913 7.02991C3.71913 6.96522 3.70835 6.91132 3.70296 6.87897C3.70296 6.87897 3.70296 6.87358 3.70296 6.86819C3.70296 6.85202 3.69757 6.84662 3.69757 6.84662C3.69757 6.84662 3.68139 6.79811 3.676 6.77654C3.676 6.77654 3.676 6.77115 3.676 6.76576C3.676 6.75498 3.66522 6.73881 3.66522 6.72803C3.65444 6.71185 3.64366 6.70107 3.63288 6.6849C3.6167 6.65795 3.60053 6.63638 3.57897 6.60943C3.56819 6.59326 3.5574 6.57708 3.54662 6.56091C3.54662 6.56091 3.54662 6.56091 3.54123 6.55552C3.53045 6.54474 3.52506 6.52857 3.51428 6.51778C3.51428 6.51778 3.49811 6.50161 3.48193 6.48544C3.28247 6.26441 2.99137 6.04339 2.71643 5.8601C2.49541 5.70377 2.28517 5.57439 2.0911 5.47735C2.06953 5.46657 2.05875 5.45579 2.05875 5.45579C1.39568 5.11078 0.932067 5.04609 0.932067 5.04609C0.808078 5.02991 0.711043 5.0407 0.640962 5.05687C0.446892 5.10539 0.30673 5.22398 0.215086 5.33719C0.193523 5.36954 0.134223 5.46118 0.0910967 5.59056C0.080315 5.6283 0.015625 5.86549 0.015625 6.10808V8.01105C0.015625 8.24824 0.080315 8.48544 0.0910967 8.52857C0.139614 8.65795 0.193523 8.74959 0.215086 8.78194C0.30673 8.89514 0.446892 9.00835 0.640962 9.06226C0.711043 9.07843 0.808078 9.08921 0.932067 9.06765C0.932067 9.06765 1.39568 9.00296 2.05875 8.65795C2.05875 8.65795 2.06953 8.65255 2.0911 8.64177C2.28517 8.53935 2.49541 8.41536 2.71643 8.25902C2.99137 8.07574 3.28247 7.85471 3.48193 7.63369C3.5035 7.61751 3.51428 7.60134 3.51428 7.60134C3.52506 7.59056 3.53584 7.57439 3.54123 7.56361C3.54123 7.56361 3.54662 7.56361 3.54662 7.55822C3.54662 7.55822 3.56819 7.52587 3.57897 7.5097C3.60053 7.48274 3.6167 7.46118 3.63288 7.43423C3.64366 7.41805 3.65444 7.40727 3.66522 7.3911C3.66522 7.38032 3.676 7.36415 3.676 7.35336C3.676 7.35336 3.676 7.34797 3.676 7.34258C3.676 7.34258 3.69218 7.29945 3.69757 7.2725C3.69757 7.2725 3.69757 7.26172 3.70296 7.25094C3.70296 7.25094 3.70296 7.24555 3.70296 7.24016C3.71374 7.20781 3.71913 7.1539 3.71913 7.08382C3.71913 7.08382 3.71913 7.07843 3.71913 7.07304V7.05687Z" fill="black"/>
</g>
<defs>
<clipPath id="clip0_368_292">
<rect width="70" height="20.0701" fill="white"/>
</clipPath>
</defs>
</svg>
