<svg width="70" height="35" viewBox="0 0 70 35" fill="none" xmlns="http://www.w3.org/2000/svg">
<g clip-path="url(#clip0_368_271)">
<path d="M49.3585 3.49049H48.5017C48.4065 4.00613 48.0654 4.27585 47.4863 4.30758V3.9744C47.9464 3.9744 48.1844 3.72055 48.1844 3.13351V1.22168H48.5335V3.14144H49.3585V3.49049Z" fill="#909496"/>
<path d="M52.572 2.98259V3.49029H49.1133V3.14124H52.1516C52.1516 3.07778 52.1595 3.02225 52.1595 2.95879C52.1595 2.57008 52.0723 2.26862 51.8819 2.03857C51.6677 1.76885 51.3504 1.63399 50.922 1.63399H49.8907C50.0732 1.30874 50.327 0.856567 50.6523 0.269531H51.0648L50.4698 1.29288H50.9141C51.4218 1.29288 51.8263 1.4436 52.1199 1.76092C52.4134 2.0703 52.5562 2.48281 52.5562 2.99052" fill="#909496"/>
<path d="M57.3938 0.420444H57.0368V0H57.3938V0.420444ZM57.2669 2.80825C57.6952 2.62579 57.957 2.26881 57.957 1.87217C57.957 1.47552 57.6794 1.18994 57.2589 1.18994C56.8385 1.18994 56.5608 1.49139 56.5608 1.86423C56.5608 2.23708 56.8385 2.62579 57.2589 2.80032M58.9328 3.49048H58.4409C57.7428 3.49048 57.6635 3.44288 57.2748 3.22076C56.8781 3.45082 56.7988 3.49048 56.0928 3.49048H55.2757C54.3158 3.49048 53.8398 3.00657 53.8398 2.03876V1.31686H54.1889V2.03876C54.1889 2.78445 54.5459 3.14143 55.244 3.14143H56.3863C56.5688 3.14143 56.7433 3.10177 56.894 3.02244C56.4577 2.81618 56.188 2.38781 56.188 1.9277C56.188 1.3248 56.6243 0.888486 57.2669 0.888486C57.9094 0.888486 58.3457 1.3248 58.3457 1.9277C58.3457 2.40367 58.0681 2.81618 57.6397 3.02244C57.7984 3.10177 57.965 3.14143 58.1474 3.14143H58.9328V3.49048Z" fill="#909496"/>
<path d="M59.9806 0.261719V2.60986C59.9806 3.1969 59.7347 3.49041 59.2508 3.49041H58.8145V3.1493H59.1318C59.346 3.1493 59.4888 3.0779 59.5522 2.94304C59.5998 2.85578 59.6236 2.68919 59.6236 2.45913V0.261719H59.9727H59.9806Z" fill="#909496"/>
<path d="M61.7505 3.49041H61.3539C61.1714 3.49041 61.0207 3.42695 60.9017 3.30002C60.7589 3.15723 60.6875 2.95891 60.6875 2.69712V0.261719H61.0445V2.49087C61.0445 2.72092 61.0762 2.88751 61.1397 2.98271C61.1952 3.06997 61.2904 3.11757 61.4253 3.14137C61.457 3.14137 61.4967 3.14137 61.7426 3.14137V3.49041H61.7505Z" fill="#909496"/>
<path d="M63.7093 4.25206H63.3523V3.82369H63.7093V4.25206ZM65.0896 2.9828V3.49051H61.6309V3.14146H64.6692C64.6692 3.07799 64.6771 3.01453 64.6771 2.959C64.6771 2.11811 64.2329 1.6342 63.4475 1.6342C63.0271 1.6342 62.7097 1.8008 62.5114 2.12604C62.4638 2.07051 62.3607 1.97532 62.21 1.81666C62.4955 1.45968 62.9001 1.28516 63.4475 1.28516C64.4391 1.28516 65.0975 1.94359 65.0975 2.9828" fill="#909496"/>
<path d="M44.0364 29.249H42.2832V19.7295H44.0364V29.249ZM48.693 21.4906C45.7261 21.4906 44.6551 23.3707 44.6551 23.3707C44.6551 19.8168 48.693 19.7454 48.693 19.7454V21.4906Z" fill="#365888"/>
<path d="M40.9815 9.09906H37.5069C37.5069 9.09906 39.0697 9.83682 39.2284 11.0981V13.7239C39.2284 14.6204 38.6651 15.0805 38.0464 15.3185C37.7528 15.4216 37.4673 15.4771 37.1817 15.5009C37.8322 15.5961 38.5303 15.7706 39.268 16.0483C40.3469 15.3978 40.8388 14.5728 40.9815 14.3665V9.08319V9.09906ZM35.8569 4.90255C37.967 4.90255 39.4743 5.39439 40.9815 7.21896V5.18813C39.4584 3.9744 37.4831 3.53809 35.8886 3.53809C33.9133 3.53809 32.3029 4.18065 31.0575 5.46578C29.8199 6.73505 29.2012 8.35336 29.2012 10.3287C29.2012 12.1136 29.7882 13.6446 30.9702 14.9059C31.4462 15.4137 31.9777 15.8262 32.5647 16.1355C33.1914 15.842 34.0878 15.5247 35.2223 15.4374C33.0962 15.0091 30.994 12.8751 30.994 10.2097C30.994 7.28242 33.3422 4.90255 35.8569 4.90255Z" fill="#909496"/>
<path d="M45.8452 15.5726C44.6632 15.2791 44.0286 14.4303 44.0286 13.1531V7.37793H42.2754V13.7005C42.2754 14.8111 42.8624 16.1914 44.3935 16.715C46.1546 17.3258 47.8681 16.2866 48.1775 15.3267C48.3203 14.9063 48.2727 14.6921 48.2727 14.6921C48.2727 14.6921 47.4952 15.9851 45.8452 15.5726ZM49.0342 16.9054H50.7874V7.38586H49.0342V16.9054Z" fill="#909496"/>
<path d="M49.9532 19.7295H52.0713L55.9109 26.8374L58.7112 19.7295H60.6706L55.7363 31.8748C55.5539 32.319 54.4988 34.6672 52.1031 34.1198C51.048 33.8818 50.4768 33.0171 50.4768 33.0171C50.4768 33.0171 51.8492 33.4931 52.9995 32.6363C54.1101 31.8589 55.0541 28.8285 55.0541 28.8285L49.9453 19.7374L49.9532 19.7295Z" fill="#365888"/>
<path d="M40.9815 19.5785C39.4664 17.7539 37.967 17.262 35.8569 17.262C33.3422 17.262 30.994 19.634 30.994 22.5692C30.994 25.5043 33.5405 27.7969 35.8569 27.8763C37.2213 27.9239 38.6651 27.6859 40.9577 26.7419C40.7118 27.0988 39.4743 29.2725 35.8886 29.2725C33.8816 29.2725 32.2395 28.5982 30.9702 27.2575C29.7882 25.9962 29.2012 24.4731 29.2012 22.6802C29.2012 20.7049 29.8199 19.0866 31.0575 17.8173C32.3109 16.5322 33.9213 15.8896 35.8886 15.8896C37.4831 15.8896 39.4584 16.326 40.9815 17.5397V19.5705V19.5785Z" fill="#365888"/>
<path d="M68.6273 21.0385C69.5475 21.935 70.0077 23.0852 70.0077 24.4894C70.0077 25.8935 69.5475 27.0517 68.6273 27.9402C67.7309 28.8128 66.6044 29.2491 65.2558 29.2491C63.8279 29.2491 62.6618 28.7731 61.7574 27.8132C60.9165 26.9168 60.4961 25.83 60.4961 24.5528C60.4961 23.1487 60.9324 21.9984 61.813 21.0941C62.7014 20.1739 63.8517 19.7217 65.2558 19.7217C66.66 19.7217 67.7309 20.158 68.6273 21.0306M62.2651 24.4735C62.2651 26.5598 63.5979 28.2496 65.2479 28.2496C66.898 28.2496 68.2307 26.5598 68.2307 24.4735C68.2307 22.3871 66.898 20.6974 65.2479 20.6974C63.5979 20.6974 62.2651 22.3871 62.2651 24.4735Z" fill="#365888"/>
<path d="M52.088 13.7082V4.49805H53.8412V13.1529C53.8412 14.4221 54.4758 15.2789 55.6578 15.5724C57.2999 15.9849 58.0853 14.6918 58.0853 14.6918C58.0853 14.6918 58.1329 14.906 57.9901 15.3265C57.6728 16.2943 55.9672 17.3256 54.1982 16.7227C52.675 16.1991 52.0801 14.8188 52.0801 13.7082" fill="#909496"/>
<path d="M59.4008 7.69494C59.4008 6.58434 59.9879 5.20401 61.5189 4.68044C63.28 4.07754 64.9935 5.10881 65.3109 6.0687C65.4457 6.48914 65.4061 6.70333 65.4061 6.70333C65.4061 6.70333 64.6286 5.41027 62.9786 5.82278C61.7966 6.11629 61.162 6.96512 61.162 8.24231V9.27359H64.3272V10.0827H61.162V16.8971H59.4088V10.0827H58.084V9.27359H59.4088V7.69494H59.4008Z" fill="#909496"/>
<path d="M0 3.50586H25.7661V29.272H16.4608C21.0619 27.2094 24.2509 22.7749 24.2509 17.6423C24.2509 10.5344 18.1584 4.77512 10.638 4.77512C6.3384 4.77512 2.49887 6.66316 0.00793291 9.60627V3.50586H0ZM5.99728 29.272H0V25.4562C1.77697 27.257 4.44243 27.8996 7.75839 27.2649C4.46623 25.8529 2.11809 22.0768 2.11809 17.6502C2.11809 12.0099 5.93382 7.43265 10.638 7.43265C15.3422 7.43265 19.158 12.0099 19.158 17.6502C19.158 21.2597 17.5952 24.4329 15.2391 26.2495C14.7076 26.7493 12.1294 28.8832 6.00521 29.2799" fill="#365888"/>
</g>
<defs>
<clipPath id="clip0_368_271">
<rect width="70" height="34.1988" fill="white"/>
</clipPath>
</defs>
</svg>
