<svg width="40" height="40" viewBox="0 0 40 40" fill="none" xmlns="http://www.w3.org/2000/svg">
<path d="M2.25757 37.4111L15.1356 24.533M15.1356 24.533C13.9502 23.3478 13.9505 21.4258 15.1359 20.2404C16.3213 19.0549 18.2433 19.0549 19.4287 20.2404C20.6139 21.4258 20.6139 23.3478 19.4287 24.533C18.2433 25.7184 16.3209 25.7184 15.1356 24.533ZM31.591 18.0942L37.3147 12.3705C38.8951 10.79 38.8951 8.2275 37.3147 6.64698L33.0221 2.35432C31.4414 0.773821 28.879 0.773821 27.2984 2.35432L21.5749 8.07787M31.3536 18.8061L27.4981 30.3724C27.3728 30.7482 27.0721 31.0394 26.6923 31.1523L3.06211 38.1774C2.12055 38.4572 1.25363 37.5616 1.56425 36.6297L9.23644 13.6132C9.34802 13.2784 9.59971 13.0088 9.92599 12.8744L20.8262 8.38607C21.2794 8.19945 21.8005 8.30365 22.1471 8.65022L31.0602 17.5636C31.3854 17.8888 31.4991 18.3698 31.3536 18.8061Z" stroke="#E43D30" stroke-width="2" stroke-linecap="round" stroke-linejoin="round"/>
</svg>
