<svg width="39" height="40" viewBox="0 0 39 40" fill="none" xmlns="http://www.w3.org/2000/svg">
<path d="M11.7088 5.16431L8.53179 8.36767M15.6913 9.17987L10.6166 14.2966M30.2028 23.8117L27.0258 27.015M33.8474 27.4864L28.7727 32.6032M12.9858 33.177L2.61182 38.1784L7.57208 27.7184M12.9858 33.177L7.57208 27.7184M12.9858 33.177C15.1908 30.9537 17.1388 28.9895 18.9662 27.1469M7.57208 27.7184L13.5525 21.6883M28.8593 6.25462L32.027 3.06072C32.7727 2.30879 33.9818 2.30879 34.7276 3.06072L37.4407 5.7963C38.1864 6.54824 38.1864 7.76738 37.4407 8.51932L34.2731 11.7132M28.8593 6.25462L34.2731 11.7132M28.8593 6.25462L20.8247 14.3558M34.2731 11.7132C31.2236 14.788 28.6656 17.3672 26.2385 19.8144M20.8247 14.3558L8.27221 1.69922L1 9.03172L13.5525 21.6883M20.8247 14.3558L13.5525 21.6883M18.9662 27.1469L30.4235 38.6992L37.6958 31.3667C33.1285 26.7616 29.9522 23.559 26.2385 19.8144M18.9662 27.1469C21.5012 24.591 23.804 22.2691 26.2385 19.8144" stroke="#E43D30" stroke-width="2" stroke-linecap="round" stroke-linejoin="round"/>
</svg>
