<svg width="52" height="52" viewBox="0 0 52 52" fill="none" xmlns="http://www.w3.org/2000/svg">
<path d="M26.0089 51C19.3339 51 13.0506 48.4012 8.33357 43.6842C3.61659 38.9672 1.0178 32.6839 1 26.0089C1 19.3339 3.59879 13.0506 8.31577 8.33357C13.0328 3.61659 19.3161 1.0178 25.9911 1C32.6661 1 38.9494 3.59879 43.6664 8.31577C48.3834 13.0328 50.9822 19.3161 51 25.9911C51 39.7682 39.7682 50.9822 25.9911 51H26.0089Z" stroke="#E43D30" stroke-width="2"/>
<path d="M26.0076 40.8891C25.6516 40.8891 25.3668 40.6043 25.3668 40.2483V37.4181L24.459 37.2757C22.4654 36.9731 20.6676 35.8339 19.5462 34.1608C19.3682 33.8582 19.475 33.4843 19.7598 33.3063C19.8666 33.2351 19.9734 33.1996 20.098 33.1996C20.3116 33.1996 20.5252 33.3064 20.6498 33.5021V33.5378L20.6854 33.5734C21.878 35.1931 23.7826 36.1721 25.794 36.1721C25.8652 36.1721 25.9542 36.1721 26.0432 36.1721C28.9446 36.1721 31.4009 34.5167 31.9171 32.2384C32.3621 30.227 31.223 28.3758 28.8734 27.2544C28.2326 26.9518 27.3248 26.8272 26.15 26.6848C24.815 26.5068 23.302 26.311 22.3052 25.8126C19.7598 24.5488 18.4426 22.3594 18.7808 19.9386C19.1546 17.322 21.3974 15.275 24.4768 14.741L25.3668 14.5808V11.7862C25.3668 11.4302 25.6516 11.1454 26.0076 11.1454C26.3636 11.1454 26.6484 11.4302 26.6484 11.7862V14.6164L27.5562 14.7588C29.4964 15.0614 31.2764 16.1472 32.4155 17.767C32.5935 18.0518 32.5045 18.4434 32.2197 18.6392C32.1129 18.7104 31.9883 18.746 31.8637 18.746C31.6502 18.746 31.4543 18.6392 31.3297 18.4612V18.4256L31.2941 18.39C30.0838 16.8236 28.197 15.8802 26.2212 15.8802C26.15 15.8802 26.0788 15.8802 26.0076 15.8802C23.0884 15.8802 20.6854 17.5 20.1336 19.7962C19.7776 21.3092 20.3116 23.3918 22.8926 24.6556C23.5512 24.976 24.5302 25.1184 25.7584 25.2786C27.04 25.4566 28.4996 25.6524 29.4252 26.0796C32.1485 27.3612 33.5725 29.604 33.2521 32.0604C32.8961 34.6947 30.6712 36.7417 27.5562 37.3113L26.6662 37.4715V40.2661C26.6662 40.6221 26.3814 40.9069 26.0254 40.9069L26.0076 40.8891Z" stroke="#E43D30" stroke-width="2"/>
</svg>
