<svg width="52" height="52" viewBox="0 0 52 52" fill="none" xmlns="http://www.w3.org/2000/svg">
<path d="M15.4714 5.68256L11.1781 10.0114M20.8532 11.109L13.9955 18.0236M40.4633 30.8817L36.17 35.2105M45.3884 35.8476L38.5307 42.7622M17.197 43.5375L3.17813 50.2961L9.88118 36.161M17.197 43.5375L9.88118 36.161M17.197 43.5375C20.1767 40.5331 22.8092 37.8787 25.2787 35.3888M9.88118 36.161L17.9629 28.0123M38.6478 7.15594L42.9283 2.83987C43.9361 1.82374 45.5701 1.82374 46.5778 2.83987L50.2442 6.5366C51.2519 7.55274 51.2519 9.20022 50.2442 10.2164L45.9636 14.5324M38.6478 7.15594L45.9636 14.5324M38.6478 7.15594L27.7902 18.1035M45.9636 14.5324C41.8427 18.6875 38.3859 22.1729 35.106 25.48M27.7902 18.1035L10.8273 1L1 10.9088L17.9629 28.0123M27.7902 18.1035L17.9629 28.0123M25.2787 35.3888L40.7616 51L50.5889 41.0912C44.4169 34.8681 40.1246 30.5402 35.106 25.48M25.2787 35.3888C28.7043 31.9348 31.8162 28.7971 35.106 25.48" stroke="#E43D30" stroke-width="2" stroke-linecap="round" stroke-linejoin="round"/>
</svg>
