<svg width="51" height="52" viewBox="0 0 51 52" fill="none" xmlns="http://www.w3.org/2000/svg">
<path d="M38.8222 44.2431C38.27 44.2431 37.8222 44.6908 37.8222 45.2431C37.8222 45.7953 38.27 46.2431 38.8222 46.2431V44.2431ZM11.4913 46.2431C12.0435 46.2431 12.4913 45.7953 12.4913 45.2431C12.4913 44.6908 12.0435 44.2431 11.4913 44.2431V46.2431ZM20.3508 33.4198C19.7986 33.4198 19.3508 33.8675 19.3508 34.4198C19.3508 34.9721 19.7986 35.4198 20.3508 35.4198V33.4198ZM24.1896 34.4197H23.1896C23.1896 34.972 23.6373 35.4197 24.1896 35.4197V34.4197ZM20.4623 34.4197L20.4662 35.4197C21.0177 35.4176 21.4634 34.9693 21.4623 34.4178C21.4612 33.8663 21.0138 33.4197 20.4623 33.4197V34.4197ZM17.8985 46.5699L18.5446 45.8066H18.5446L17.8985 46.5699ZM23.3112 16.233C23.3112 15.6807 22.8634 15.233 22.3112 15.233C21.7589 15.233 21.3112 15.6807 21.3112 16.233H23.3112ZM21.3112 19.5906C21.3112 20.1429 21.7589 20.5906 22.3112 20.5906C22.8634 20.5906 23.3112 20.1429 23.3112 19.5906H21.3112ZM16.6835 18.1503C16.293 17.7598 15.6598 17.7598 15.2693 18.1503C14.8787 18.5408 14.8787 19.174 15.2693 19.5645L16.6835 18.1503ZM17.6434 21.9387C18.0339 22.3292 18.6671 22.3292 19.0576 21.9387C19.4482 21.5481 19.4482 20.915 19.0576 20.5244L17.6434 21.9387ZM29.353 19.564C29.7436 19.1734 29.7436 18.5403 29.353 18.1498C28.9625 17.7592 28.3293 17.7592 27.9388 18.1498L29.353 19.564ZM25.5647 20.5239C25.1741 20.9144 25.1741 21.5476 25.5647 21.9381C25.9552 22.3286 26.5884 22.3286 26.9789 21.9381L25.5647 20.5239ZM32.2369 46.5708L32.9065 47.3135L32.2369 46.5708ZM3.29196 2H47.0215V0H3.29196V2ZM2 42.9511V6.88181H0V42.9511H2ZM2 6.88181V3.29196H0V6.88181H2ZM48.3135 3.29196V6.88181H50.3135V3.29196H48.3135ZM48.3135 6.88181V42.9511H50.3135V6.88181H48.3135ZM3.29196 44.2431C2.57843 44.2431 2 43.6646 2 42.9511H0C0 44.7692 1.47386 46.2431 3.29196 46.2431V44.2431ZM47.0215 46.2431C48.8396 46.2431 50.3135 44.7692 50.3135 42.9511H48.3135C48.3135 43.6646 47.7351 44.2431 47.0215 44.2431V46.2431ZM47.0215 2C47.7351 2 48.3135 2.57843 48.3135 3.29196H50.3135C50.3135 1.47386 48.8396 0 47.0215 0V2ZM3.29196 0C1.47386 0 0 1.47386 0 3.29196H2C2 2.57843 2.57843 2 3.29196 2V0ZM1 7.88181H49.3135V5.88181H1V7.88181ZM20.3508 35.4198H20.4327V33.4198H20.3508V35.4198ZM21.4327 34.4198V25.1782H19.4327V34.4198H21.4327ZM23.1896 25.1782V34.4197H25.1896V25.1782H23.1896ZM22.3111 24.2997C22.7963 24.2997 23.1896 24.693 23.1896 25.1782H25.1896C25.1896 23.5885 23.9008 22.2997 22.3111 22.2997V24.2997ZM22.3111 22.2997C20.7214 22.2997 19.4327 23.5885 19.4327 25.1782H21.4327C21.4327 24.693 21.826 24.2997 22.3111 24.2997V22.2997ZM32.5036 38.0922V44.4581H34.5036V38.0922H32.5036ZM17.789 44.4581V38.0926H15.789V44.4581H17.789ZM24.1896 35.4197H29.8303V33.4197H24.1896V35.4197ZM20.4584 33.4197L20.4288 33.4198L20.4366 35.4198L20.4662 35.4197L20.4584 33.4197ZM32.5036 44.4581C32.5036 44.5821 32.4378 44.797 32.2323 45.0932C32.0374 45.3741 31.7819 45.6346 31.5672 45.8282L32.9065 47.3135C33.1816 47.0654 33.5595 46.6888 33.8755 46.2333C34.1808 45.7932 34.5036 45.1726 34.5036 44.4581H32.5036ZM18.5446 45.8066C18.3695 45.6584 18.1668 45.4221 18.0126 45.1492C17.8552 44.8708 17.789 44.6278 17.789 44.4581H15.789C15.789 45.0833 16.0087 45.6685 16.2715 46.1334C16.5375 46.6039 16.8896 47.0261 17.2524 47.3331L18.5446 45.8066ZM30.8467 47.4021V50.2653H32.8467V47.4021H30.8467ZM31.112 50H19.2778V52H31.112V50ZM19.5432 50.2653V47.6293H17.5432V50.2653H19.5432ZM19.2778 50C19.4244 50 19.5432 50.1188 19.5432 50.2653H17.5432C17.5432 51.2234 18.3198 52 19.2778 52V50ZM30.8467 50.2653C30.8467 50.1188 30.9655 50 31.112 50V52C32.07 52 32.8467 51.2234 32.8467 50.2653H30.8467ZM17.2524 47.3331C17.362 47.426 17.4524 47.5228 17.5082 47.6054C17.5684 47.6945 17.5432 47.6988 17.5432 47.6293H19.5432C19.5432 47.1541 19.3505 46.7598 19.1657 46.4861C18.9765 46.206 18.7446 45.9759 18.5446 45.8066L17.2524 47.3331ZM34.5036 38.0922C34.5036 35.5109 32.411 33.4197 29.8303 33.4197V35.4197C31.307 35.4197 32.5036 36.6161 32.5036 38.0922H34.5036ZM17.789 38.0926C17.789 36.6235 18.9741 35.4314 20.4406 35.4198L20.4248 33.4199C17.8611 33.4401 15.789 35.524 15.789 38.0926H17.789ZM20.4406 35.4198C20.4477 35.4197 20.4549 35.4197 20.4623 35.4197V33.4197C20.45 33.4197 20.4375 33.4198 20.4248 33.4199L20.4406 35.4198ZM21.3112 16.233V19.5906H23.3112V16.233H21.3112ZM15.2693 19.5645L17.6434 21.9387L19.0576 20.5244L16.6835 18.1503L15.2693 19.5645ZM27.9388 18.1498L25.5647 20.5239L26.9789 21.9381L29.353 19.564L27.9388 18.1498ZM11.4913 44.2431H3.29196V46.2431H11.4913V44.2431ZM47.0215 44.2431H38.8222V46.2431H47.0215V44.2431ZM31.5672 45.8282C31.1534 46.2013 30.8467 46.758 30.8467 47.4021H32.8467C32.8467 47.4045 32.8459 47.3974 32.8541 47.3804C32.8628 47.3624 32.8795 47.3379 32.9065 47.3135L31.5672 45.8282Z" fill="#E43D30"/>
</svg>
