<svg width="58" height="52" viewBox="0 0 58 52" fill="none" xmlns="http://www.w3.org/2000/svg">
<path d="M37.2912 25.8486L47.2868 35.565M47.2868 35.565L40.0051 42.8466M47.2868 35.565L48.0015 36.76C49.4422 39.1388 51.4078 44.5554 51.9886 46.1524L52.7592 48.3079L50.6037 47.5373L50.5925 47.5484C48.9955 46.9789 43.5789 45.0021 41.2001 43.5614L40.0051 42.8466M40.0051 42.8466L30.457 33.2668" stroke="#E43D30" stroke-width="2"/>
<path d="M19.6361 6.86996L15.1287 2.35135C14.2575 1.48023 13.096 1 11.8675 1C10.639 1 9.47755 1.48023 8.60643 2.35135L8.07036 2.88742C6.27228 4.6855 6.27228 7.61157 8.07036 9.40965L12.4371 13.7876M12.4371 13.7876L19.4954 6.72928L32.5317 20.1M12.4371 13.7876L25.2706 26.7973M19.9422 46.354C15.8993 50.3969 10.5162 51 7.66831 51C6.94237 51 6.23878 50.9665 5.56868 50.8883L3 50.6091L4.98794 48.9674C7.1099 47.214 7.85816 45.0697 8.57293 42.9812C9.17601 41.2278 9.80143 39.4186 11.2645 37.8215C12.2473 36.7494 13.3529 36.2021 14.5479 36.2021C16.6587 36.2021 18.4903 37.8885 18.8365 38.2348L18.87 38.2683C18.87 38.2683 18.9593 38.3576 18.9817 38.3799L19.0375 38.4358C19.4172 38.8267 21.3047 40.904 21.3047 43.2716C21.3047 44.4108 20.8468 45.4494 19.9422 46.354ZM24.7221 39.5079L24.6998 39.5303C24.3648 39.8541 23.9739 39.9993 23.516 39.9993C22.2763 39.9993 20.7909 38.8602 20.1767 38.2459L19.6741 37.7322C19.6741 37.7322 19.5959 37.654 19.5401 37.587L19.5066 37.5535C19.2386 37.2631 17.8872 35.7331 17.876 34.3594C17.876 33.9015 18.0324 33.5106 18.3451 33.1867L18.3674 33.1644L52.4528 1.72593C52.9218 1.25687 53.5361 1.01117 54.195 1.01117C54.8539 1.01117 55.4347 1.25687 55.8814 1.7036L56.1829 2.00514C56.6297 2.45187 56.8865 3.08845 56.8754 3.73621C56.8754 4.38396 56.6073 4.98704 56.1606 5.44494L24.7221 39.5191V39.5079Z" stroke="#E43D30" stroke-width="2"/>
</svg>
