<svg width="30" height="28" viewBox="0 0 30 28" fill="none" xmlns="http://www.w3.org/2000/svg">
<path d="M16.35 25.6316H4.2C2.70883 25.6316 1.5 24.4063 1.5 22.8947V3.73684C1.5 2.22533 2.70883 1 4.2 1H25.8C27.2912 1 28.5 2.22533 28.5 3.73684V16.0526M1.5 6.47368H28.5M5.55 3.75053L5.5635 3.73532M9.6 3.75053L9.6135 3.73532M13.65 3.75053L13.6635 3.73532M25.9675 24.4253C26.6983 23.6827 27.15 22.658 27.15 21.5263C27.15 19.259 25.3368 17.4211 23.1 17.4211C20.8632 17.4211 19.05 19.259 19.05 21.5263C19.05 23.7937 20.8632 25.6316 23.1 25.6316C24.2204 25.6316 25.2344 25.1704 25.9675 24.4253ZM25.9675 24.4253L28.5 27" stroke="#E43D30" stroke-width="2" stroke-linecap="round"/>
</svg>
