<svg width="28" height="34" viewBox="0 0 28 34" fill="none" xmlns="http://www.w3.org/2000/svg">
<path d="M7.5 4.30159H4.25C3.38805 4.30159 2.5614 4.64943 1.9519 5.2686C1.34241 5.88777 1 6.72754 1 7.60318V27.4127C1 28.2883 1.34241 29.1281 1.9519 29.7473C2.5614 30.3664 3.38805 30.7143 4.25 30.7143H12.375M7.5 4.30159C7.5 3.42595 7.84241 2.58618 8.4519 1.96701C9.0614 1.34785 9.88805 1 10.75 1H14C14.862 1 15.6886 1.34785 16.2981 1.96701C16.9076 2.58618 17.25 3.42595 17.25 4.30159M7.5 4.30159C7.5 5.17722 7.84241 6.017 8.4519 6.63616C9.0614 7.25533 9.88805 7.60318 10.75 7.60318H14C14.862 7.60318 15.6886 7.25533 16.2981 6.63616C16.9076 6.017 17.25 5.17722 17.25 4.30159M17.25 4.30159H20.5C21.362 4.30159 22.1886 4.64943 22.7981 5.2686C23.4076 5.88777 23.75 6.72754 23.75 7.60318V17.5079M22.8808 22.9347L25.7078 25.917M16.1667 33H18.9937L26.4145 25.1714C26.6001 24.9756 26.7474 24.7431 26.8478 24.4873C26.9483 24.2314 27 23.9572 27 23.6802C27 23.4033 26.9483 23.1291 26.8478 22.8732C26.7474 22.6174 26.6001 22.3849 26.4145 22.1891C26.2289 21.9933 26.0085 21.8379 25.766 21.732C25.5235 21.626 25.2635 21.5714 25.001 21.5714C24.7385 21.5714 24.4786 21.626 24.236 21.732C23.9935 21.8379 23.7731 21.9933 23.5875 22.1891L16.1667 30.0177V33Z" stroke="#E43D30" stroke-width="2" stroke-linecap="round" stroke-linejoin="round"/>
</svg>
