<svg width="28" height="28" viewBox="0 0 28 28" fill="none" xmlns="http://www.w3.org/2000/svg">
<path d="M27 12.372C26.6026 9.50696 25.276 6.85235 23.2245 4.81703C21.1731 2.78171 18.5106 1.47861 15.6472 1.10844C12.7838 0.738284 9.87839 1.3216 7.37845 2.76855C4.87852 4.21549 2.92278 6.44579 1.8125 9.11588M1 2.60371V9.11588H7.5M1 15.628C1.39741 18.493 2.72401 21.1477 4.77546 23.183C6.82691 25.2183 9.4894 26.5214 12.3528 26.8916C15.2162 27.2617 18.1216 26.6784 20.6215 25.2315C23.1215 23.7845 25.0772 21.5542 26.1875 18.8841M27 25.3963V18.8841H20.5" stroke="#E43D30" stroke-width="2" stroke-linecap="round" stroke-linejoin="round"/>
</svg>
