<svg width="40" height="32" viewBox="0 0 40 32" fill="none" xmlns="http://www.w3.org/2000/svg">
<path d="M36.5526 14.125V10.375C36.5526 5.19734 32.1933 1 26.8158 1H11.2368C5.85934 1 1.5 5.19734 1.5 10.375C1.5 15.5526 5.85934 19.75 11.2368 19.75H19.0263M34.8469 27.4722C35.901 26.4546 36.5526 25.0506 36.5526 23.5C36.5526 20.3933 33.9371 17.875 30.7105 17.875C27.4839 17.875 24.8684 20.3933 24.8684 23.5C24.8684 26.6067 27.4839 29.125 30.7105 29.125C32.3266 29.125 33.7893 28.4931 34.8469 27.4722ZM34.8469 27.4722L38.5 31" stroke="#E43D30" stroke-width="2" stroke-linecap="round" stroke-linejoin="round"/>
</svg>
