<svg width="32" height="36" viewBox="0 0 32 36" fill="none" xmlns="http://www.w3.org/2000/svg">
<path d="M0.293103 15.752C-0.0975369 16.1424 -0.0977252 16.7756 0.292683 17.1663C0.683091 17.5569 1.31626 17.5571 1.7069 17.1667L0.293103 15.752ZM12.1752 5.29081L12.8821 4.5835C12.4916 4.19325 11.8588 4.19325 11.4683 4.5835L12.1752 5.29081ZM19.4409 12.5522L18.734 13.2595C19.1245 13.6497 19.7573 13.6497 20.1478 13.2595L19.4409 12.5522ZM32 1.0003C32.0002 0.448016 31.5526 0.000166178 31.0003 5.96046e-08L22.0003 -0.00270689C21.448 -0.00287294 21.0002 0.444708 21 0.996992C20.9998 1.54928 21.4474 1.99713 21.9997 1.99729L29.9997 1.9997L29.9973 9.9997C29.9971 10.552 30.4447 10.9998 30.997 11C31.5493 11.0002 31.9971 10.5526 31.9973 10.0003L32 1.0003ZM2 22.2093C2 21.657 1.55228 21.2093 1 21.2093C0.447715 21.2093 0 21.657 0 22.2093H2ZM0 35C0 35.5523 0.447715 36 1 36C1.55228 36 2 35.5523 2 35H0ZM32 15.4871C32 14.9348 31.5523 14.4871 31 14.4871C30.4477 14.4871 30 14.9348 30 15.4871H32ZM30 35C30 35.5523 30.4477 36 31 36C31.5523 36 32 35.5523 32 35H30ZM10.8663 15.487C10.8663 14.9347 10.4185 14.487 9.86626 14.487C9.31398 14.487 8.86626 14.9347 8.86626 15.487H10.8663ZM8.86626 35C8.86626 35.5523 9.31398 36 9.86626 36C10.4185 36 10.8663 35.5523 10.8663 35H8.86626ZM21.6091 18.454C21.6091 17.9017 21.1614 17.454 20.6091 17.454C20.0568 17.454 19.6091 17.9017 19.6091 18.454H21.6091ZM19.6091 35C19.6091 35.5523 20.0568 36 20.6091 36C21.1614 36 21.6091 35.5523 21.6091 35H19.6091ZM1.7069 17.1667L12.8821 5.99813L11.4683 4.5835L0.293103 15.752L1.7069 17.1667ZM11.4683 5.99813L18.734 13.2595L20.1478 11.8448L12.8821 4.5835L11.4683 5.99813ZM20.1478 13.2595L31.7069 1.70732L30.2931 0.292681L18.734 11.8448L20.1478 13.2595ZM0 22.2093V35H2V22.2093H0ZM30 15.4871V35H32V15.4871H30ZM8.86626 15.487V35H10.8663V15.487H8.86626ZM19.6091 18.454V35H21.6091V18.454H19.6091Z" fill="#E43D30"/>
</svg>
