<svg width="40" height="38" viewBox="0 0 40 38" fill="none" xmlns="http://www.w3.org/2000/svg">
<path d="M4.56226 22.8555V33.175C4.56226 34.5625 5.68293 35.6832 7.07043 35.6832C8.45793 35.6832 9.5786 34.5625 9.5786 33.175V22.8555" stroke="#E43D30" stroke-width="2" stroke-linecap="round" stroke-linejoin="round"/>
<path d="M21.7847 5.79883C18.5161 10.595 12.0322 10.2682 12.0322 10.2682H4.15412C3.05346 10.2682 2.16626 11.1554 2.16626 12.256V20.7545C2.16626 21.8551 3.05346 22.7423 4.15412 22.7423H11.9721C11.9721 22.7423 18.0224 22.689 21.778 27.3718" stroke="#E43D30" stroke-width="2" stroke-linecap="round" stroke-linejoin="round"/>
<path d="M24.6066 30.4735C23.1591 30.4735 21.9917 29.2594 21.9917 27.7518V5.04488C21.9917 3.54398 23.1657 2.32324 24.6066 2.32324C26.0541 2.32324 27.2215 3.5373 27.435 4.98484V27.6918C27.2215 29.2461 26.0541 30.4668 24.6066 30.4668V30.4735Z" stroke="#E43D30" stroke-width="2" stroke-linecap="round" stroke-linejoin="round"/>
<path d="M32.2988 16.5322H37.4753" stroke="#E43D30" stroke-width="2" stroke-linecap="round" stroke-linejoin="round"/>
<path d="M31.3706 11.8491L34.4258 8.63379" stroke="#E43D30" stroke-width="2" stroke-linecap="round" stroke-linejoin="round"/>
<path d="M34.4258 24.1635L31.3706 20.9482" stroke="#E43D30" stroke-width="2" stroke-linecap="round" stroke-linejoin="round"/>
</svg>
