<svg width="53" height="52" viewBox="0 0 53 52" fill="none" xmlns="http://www.w3.org/2000/svg">
<path d="M29.6295 15.6296C28.8436 15.6296 28.09 15.9418 27.5343 16.4975C26.9787 17.0531 26.6665 17.8068 26.6665 18.5926V33.4074C26.6665 34.1932 26.3543 34.9469 25.7987 35.5025C25.243 36.0582 24.4894 36.3704 23.7035 36.3704M13.3332 36.3704C13.3332 37.1562 13.6453 37.9098 14.201 38.4655C14.7567 39.0212 15.5103 39.3333 16.2961 39.3333C17.082 39.3333 17.8356 39.0212 18.3913 38.4655C18.9469 37.9098 19.2591 37.1562 19.2591 36.3704C19.2591 35.5845 18.9469 34.8309 18.3913 34.2752C17.8356 33.7196 17.082 33.4074 16.2961 33.4074C15.5103 33.4074 14.7567 33.7196 14.201 34.2752C13.6453 34.8309 13.3332 35.5845 13.3332 36.3704ZM37.0369 18.5926C37.8227 18.5926 38.5763 18.2804 39.132 17.7248C39.6877 17.1691 39.9998 16.4155 39.9998 15.6296C39.9998 14.8438 39.6877 14.0902 39.132 13.5345C38.5763 12.9788 37.8227 12.6667 37.0369 12.6667C36.251 12.6667 35.4974 12.9788 34.9417 13.5345C34.3861 14.0902 34.0739 14.8438 34.0739 15.6296C34.0739 16.4155 34.3861 17.1691 34.9417 17.7248C35.4974 18.2804 36.251 18.5926 37.0369 18.5926ZM51.6665 26C51.6665 39.8071 40.4736 51 26.6665 51C12.8594 51 1.6665 39.8071 1.6665 26C1.6665 12.1929 12.8594 1 26.6665 1C40.4736 1 51.6665 12.1929 51.6665 26Z" stroke="#E43D30" stroke-width="2" stroke-linecap="round" stroke-linejoin="round"/>
</svg>
