<svg width="57" height="52" viewBox="0 0 57 52" fill="none" xmlns="http://www.w3.org/2000/svg">
<path d="M39.6848 46.0397C37.9722 46.0397 36.3296 45.3429 35.1186 44.1026C33.9076 42.8622 33.2272 41.18 33.2272 39.4259C33.2272 37.6719 33.9076 35.9896 35.1186 34.7493C36.3296 33.509 37.9722 32.8122 39.6848 32.8122M39.6848 46.0397C41.3975 46.0397 43.04 45.3429 44.251 44.1026C45.4621 42.8622 46.1424 41.18 46.1424 39.4259C46.1424 37.6719 45.4621 35.9896 44.251 34.7493C43.04 33.509 41.3975 32.8122 39.6848 32.8122M39.6848 46.0397V51M39.6848 32.8122V27.8519M49.4713 33.6389L45.2771 36.1191M34.0958 42.7328L29.8983 45.213M29.8983 33.6389L34.0958 36.1191M45.2771 42.7328L49.4746 45.213M1 12.7496V38.6876C1 40.1181 2.16816 41.2778 3.60917 41.2778H25.2373M1 12.7496V3.59019C1 2.15967 2.16816 1 3.60917 1H53.3908C54.8318 1 56 2.15967 56 3.59019V12.7496M1 12.7496H56M56 12.7496V38.6876C56 40.1181 54.8318 41.2778 53.3908 41.2778M7.5073 6.99244H14.0511" stroke="#E43D30" stroke-width="1.9593" stroke-linecap="round" stroke-linejoin="round"/>
</svg>
