<svg width="52" height="52" viewBox="0 0 52 52" fill="none" xmlns="http://www.w3.org/2000/svg">
<path d="M23.2222 45.4446H38.5C41.0785 45.4446 43.5514 44.4203 45.3746 42.597C47.1979 40.7737 48.2222 38.3008 48.2222 35.7223C48.2222 33.1438 47.1979 30.671 45.3746 28.8477C43.5514 27.0244 41.0785 26.0001 38.5 26.0001H16.2778C13.6993 26.0001 11.2264 24.9758 9.40313 23.1525C7.57986 21.3293 6.55556 18.8564 6.55556 16.2779C6.55556 13.6994 7.57986 11.2265 9.40313 9.40325C11.2264 7.57998 13.6993 6.55568 16.2778 6.55568H28.7778M1 39.889H12.1111V51.0001H1V39.889ZM39.8889 1.00012H51V12.1112H39.8889V1.00012Z" stroke="#E43D30" stroke-width="2" stroke-linecap="round" stroke-linejoin="round"/>
</svg>
