<svg width="52" height="52" viewBox="0 0 52 52" fill="none" xmlns="http://www.w3.org/2000/svg">
<path d="M32.7032 19.5803C32.7032 15.9336 29.7928 12.9767 26.2032 12.9767C22.6137 12.9767 19.7033 15.9336 19.7033 19.5803C19.7033 23.2271 22.6137 26.1839 26.2032 26.1839C29.7928 26.1839 32.7032 29.1415 32.7032 32.7883C32.7032 36.435 29.7928 39.3919 26.2032 39.3919C22.6137 39.3919 19.7032 36.435 19.7032 32.7883M26.2019 12.9877V10.1842M26.2019 42.1842V39.3807M51 26.0001C51 39.8072 39.8071 51.0001 26 51.0001C12.1929 51.0001 1 39.8072 1 26.0001C1 12.193 12.1929 1.00012 26 1.00012C39.8071 1.00012 51 12.193 51 26.0001Z" stroke="#E43D30" stroke-width="1.9593" stroke-linecap="round" stroke-linejoin="round"/>
</svg>
