<svg width="52" height="52" viewBox="0 0 52 52" fill="none" xmlns="http://www.w3.org/2000/svg">
<path d="M20.7917 26.4006L24.758 30.367L32.25 22.875M43.6647 20.8423L50.089 21.8923C50.6153 21.9783 51.001 22.4327 51 22.9653V28.9433C51 29.4707 50.6217 29.9227 50.101 30.014L43.668 31.1433C43.295 32.4327 42.783 33.674 42.1383 34.8477L45.941 40.1273C46.253 40.5597 46.204 41.1543 45.8277 41.5317L41.6013 45.761C41.2273 46.1337 40.6403 46.187 40.2077 45.8817L34.8757 42.1413C33.6997 42.7957 32.4507 43.3173 31.1473 43.701L30.0113 50.1033C29.92 50.6217 29.4687 51 28.9417 51H22.9627C22.4313 51 21.978 50.6163 21.892 50.0933L20.831 43.7227C19.53 43.3467 18.2743 42.8283 17.0862 42.175L11.7922 45.8827C11.3607 46.186 10.7726 46.1337 10.3997 45.761L6.17327 41.5317C5.79823 41.1543 5.74933 40.562 6.05803 40.1303L9.7986 34.899C9.13877 33.7053 8.6148 32.4457 8.2354 31.138L1.89683 30.014C1.3783 29.9217 1 29.4707 1 28.9433V22.9653C1 22.4347 1.3848 21.9803 1.90877 21.8933L8.24737 20.838C8.62893 19.5273 9.15287 18.2674 9.81053 17.0772L6.11567 11.7913C5.81237 11.3598 5.86457 10.7728 6.2374 10.4L10.4628 6.175C10.84 5.8 11.4303 5.75 11.864 6.05977L17.1144 9.80977C18.2939 9.16413 19.5463 8.65 20.8507 8.275L21.89 1.91197C21.9757 1.38587 22.43 1 22.9627 1H28.9417C29.47 1 29.921 1.38043 30.0123 1.9L31.133 8.29783C32.43 8.675 33.68 9.19457 34.8637 9.8489L40.1283 6.06523C40.561 5.75327 41.1547 5.80217 41.5317 6.17827L45.7593 10.4033C46.1323 10.7772 46.1843 11.3652 45.881 11.7967L42.1307 17.1413C42.7743 18.3141 43.2883 19.5533 43.6647 20.8423ZM14.5417 25.9999C14.5417 32.3285 19.6717 37.4583 26.0001 37.4583C32.328 37.4583 37.4583 32.3285 37.4583 25.9999C37.4583 19.6719 32.328 14.5417 26.0001 14.5417C19.6717 14.5417 14.5417 19.6719 14.5417 25.9999Z" stroke="#E43D30" stroke-width="1.96078" stroke-linecap="round" stroke-linejoin="round"/>
</svg>
