<svg width="53" height="52" viewBox="0 0 53 52" fill="none" xmlns="http://www.w3.org/2000/svg">
<path d="M8.90937 16.7296C10.8238 13.3421 13.6975 10.5686 17.1617 8.77778M35.5048 8.77778C38.969 10.5686 41.8427 13.3421 43.7571 16.7296M17.1617 44.3333C13.3832 42.3801 10.3071 39.2575 8.41218 35.4444M44.2543 35.4444C42.3594 39.2575 39.2833 42.3801 35.5048 44.3333M32.9999 7.66667C32.9999 11.3486 30.0152 14.3333 26.3333 14.3333C22.6514 14.3333 19.6666 11.3486 19.6666 7.66667C19.6666 3.98477 22.6514 1 26.3333 1C30.0152 1 32.9999 3.98477 32.9999 7.66667ZM7.99992 19.3333C11.6818 19.3333 14.6666 22.3181 14.6666 26C14.6666 29.6819 11.6818 32.6667 7.99992 32.6667C4.31802 32.6667 1.33325 29.6819 1.33325 26C1.33325 22.3181 4.31802 19.3333 7.99992 19.3333ZM32.9999 44.3333C32.9999 48.0152 30.0152 51 26.3333 51C22.6514 51 19.6666 48.0152 19.6666 44.3333C19.6666 40.6514 22.6514 37.6667 26.3333 37.6667C30.0152 37.6667 32.9999 40.6514 32.9999 44.3333ZM44.6666 19.3333C48.3485 19.3333 51.3333 22.3181 51.3333 26C51.3333 29.6819 48.3485 32.6667 44.6666 32.6667C40.9847 32.6667 37.9999 29.6819 37.9999 26C37.9999 22.3181 40.9847 19.3333 44.6666 19.3333Z" stroke="#E43D30" stroke-width="2" stroke-linecap="round" stroke-linejoin="round"/>
</svg>
