<svg width="30" height="26" viewBox="0 0 30 26" fill="none" xmlns="http://www.w3.org/2000/svg">
<path d="M29.9265 3.52455C29.8018 2.82488 29.5207 2.1636 29.1105 1.60766C29.0272 1.49094 28.9401 1.3871 28.8448 1.28177C28.1151 0.467203 27.1 0 26.0598 0H3.94008C2.88826 0 1.89902 0.455427 1.15459 1.28222C1.06037 1.38658 0.973008 1.49146 0.886523 1.61189C0.478125 2.16549 0.198223 2.82586 0.0765234 3.5265C0.0256641 3.80164 0 4.08674 0 4.37516V21.6252C0 22.2254 0.109805 22.8097 0.32748 23.3653C0.515859 23.8586 0.80168 24.3264 1.15436 24.7178C1.24318 24.816 1.33143 24.9065 1.42564 24.9948C2.13076 25.6432 3.02361 26 3.94008 26H26.0598C26.9822 26 27.8742 25.6418 28.5774 24.9877C28.6714 24.9032 28.7585 24.8145 28.8456 24.7178C29.1865 24.3396 29.4575 23.9052 29.6522 23.4261L29.6779 23.3577C29.8915 22.8127 30 22.2302 30 21.6253V4.37516C30 4.09051 29.9753 3.80353 29.9265 3.52455ZM2.04041 2.79216C2.09613 2.70159 2.16727 2.60862 2.25803 2.50706C2.70855 2.00707 3.30603 1.73192 3.94002 1.73192H26.0597C26.6993 1.73192 27.297 2.00752 27.7425 2.50804C27.8194 2.59437 27.8929 2.69021 27.957 2.78598L28.1262 3.03841L16.3195 14.4642C15.9555 14.8185 15.4869 15.0135 14.9998 15.0135C14.5175 15.0135 14.0493 14.8189 13.681 14.4646L1.88613 3.04167L2.04041 2.79216ZM1.56768 21.7775C1.56129 21.7306 1.55982 21.6784 1.55982 21.6252V4.73234L10.7221 13.6074L1.65229 22.3881L1.56768 21.7775ZM27.2402 23.9198C26.8856 24.147 26.4772 24.2675 26.0598 24.2675H3.94008C3.52248 24.2675 3.11426 24.147 2.75988 23.9198L2.3891 23.6812L11.7604 14.613L12.7874 15.6049C13.4034 16.1988 14.1891 16.5262 14.9999 16.5262C15.8138 16.5262 16.6007 16.1988 17.2164 15.6049L18.243 14.6126L27.611 23.6817L27.2402 23.9198ZM28.4398 21.6252C28.4398 21.6775 28.4389 21.7291 28.433 21.7751L28.3518 22.3914L19.278 13.6121L28.4398 4.73664V21.6252Z" fill="#E63E31"/>
</svg>
