<svg id="eQf4bqoeGYg1" xmlns="http://www.w3.org/2000/svg" xmlns:xlink="http://www.w3.org/1999/xlink" viewBox="0 0 850 567" shape-rendering="geometricPrecision" text-rendering="geometricPrecision" project-id="a7a099aba6f343ffaead6a9cdc7647ce" export-id="d01c10ee59694ec494e635a5ece375f8" cached="false">
<style><![CDATA[
#eQf4bqoeGYg3_to {animation: eQf4bqoeGYg3_to__to 2500ms linear infinite normal forwards}@keyframes eQf4bqoeGYg3_to__to { 0% {transform: translate(425px,283.500137px)} 20% {transform: translate(425px,261.117222px)} 40% {transform: translate(425px,283.500137px)} 100% {transform: translate(425px,283.500137px)}}
]]></style>
<rect width="850" height="567" rx="0" ry="0" fill="#f2f2f2"/><g id="eQf4bqoeGYg3_to" transform="translate(425,283.500137)"><g transform="translate(-425,-283.500137)"><rect width="123.3" height="26.7" rx="0" ry="0" transform="translate(362.8 349.3)" fill="none" stroke="#f00" stroke-width="5" stroke-linecap="round" stroke-linejoin="round"/><path d="M376.7,349.3v-92.8c0-21.9,17.8-39.7,39.7-39.7h4.9c0,0,10.7-30,38.3-25.3l-9.2,26.4l44.9,50.8L479,290.1c0,0-9.5,3.3-14-10.2h-27.6c-10.3,0-18.7-8.4-18.7-18.7v-1" fill="none" stroke="#f00" stroke-width="5" stroke-linecap="round" stroke-linejoin="round"/><path d="M437.3,279.9c0,0,3.9,50.1,34.5,53.3v16" fill="none" stroke="#f00" stroke-width="5" stroke-linecap="round" stroke-linejoin="round"/><path d="M376.7,332.9l-22-18.3v-54.1c0-36.1,29.2-65.3,65.3-65.3h18.5" fill="none" stroke="#f00" stroke-width="5" stroke-linecap="round" stroke-linejoin="round"/></g></g></svg>
