<svg id="eihbT9kJPtZ1" xmlns="http://www.w3.org/2000/svg" xmlns:xlink="http://www.w3.org/1999/xlink" viewBox="0 0 850 567" shape-rendering="geometricPrecision" text-rendering="geometricPrecision" project-id="5cef595b54764c988d76e78bc6ddc089" export-id="37021bd161c34cd0b29d3b57c3af732a" cached="false">
<style><![CDATA[
#eihbT9kJPtZ8 {animation: eihbT9kJPtZ8_s_do 400ms linear infinite normal forwards}@keyframes eihbT9kJPtZ8_s_do { 0% {stroke-dashoffset: -28.7} 50% {stroke-dashoffset: 0} 100% {stroke-dashoffset: 0}} #eihbT9kJPtZ9 {animation: eihbT9kJPtZ9_s_do 400ms linear infinite normal forwards}@keyframes eihbT9kJPtZ9_s_do { 0% {stroke-dashoffset: 24.55} 50% {stroke-dashoffset: 0} 100% {stroke-dashoffset: 0}} #eihbT9kJPtZ10 {animation: eihbT9kJPtZ10_s_do 400ms linear infinite normal forwards}@keyframes eihbT9kJPtZ10_s_do { 0% {stroke-dashoffset: -24.55} 50% {stroke-dashoffset: 0} 100% {stroke-dashoffset: 0}}
]]></style>
<rect width="850" height="567" rx="0" ry="0" fill="#f2f2f2"/><g><path d="M340.4,304.9v57.2c0,7.7,6.2,13.9,13.9,13.9v0c7.7,0,13.9-6.2,13.9-13.9v-57.2" fill="none" stroke="#f00" strokeWidth="5" strokeLinecap="round" strokeLinejoin="round"/><path d="M435.9,210.3c-18.1,26.6-54.1,24.8-54.1,24.8h-43.7c-6.1,0-11,4.9-11,11v47.1c0,6.1,4.9,11,11,11h43.4c0,0,33.5-.3,54.4,25.7" fill="none" stroke="#f00" strokeWidth="5" strokeLinecap="round" strokeLinejoin="round"/><path d="M451.5,347.1v0c-8,0-14.5-6.8-14.5-15.1v-126c0-8.3,6.5-15.1,14.5-15.1v0c8,0,14.5,6.8,15.7,14.8v126c-1.2,8.6-7.7,15.4-15.7,15.4Z" fill="none" stroke="#f00" strokeWidth="5" strokeLinecap="round" strokeLinejoin="round"/><g><line id="eihbT9kJPtZ8" x1="494.2" y1="269.8" x2="522.9" y2="269.8" transform="matrix(-1 0 0-1 1017.100036 539.599976)" fill="none" stroke="#f00" strokeWidth="5" strokeLinecap="round" strokeLinejoin="round" stroke-dashoffset="-28.7" stroke-dasharray="28.7"/><line id="eihbT9kJPtZ9" x1="489.1" y1="243.8" x2="506" y2="226" fill="none" stroke="#f00" strokeWidth="5" strokeLinecap="round" strokeLinejoin="round" stroke-dashoffset="24.55" stroke-dasharray="24.55"/><line id="eihbT9kJPtZ10" x1="506" y1="312.1" x2="489.1" y2="294.3" fill="none" stroke="#f00" strokeWidth="5" strokeLinecap="round" strokeLinejoin="round" stroke-dashoffset="-24.55" stroke-dasharray="24.55"/></g></g></svg>
