<svg width="45" height="35" viewBox="0 0 45 35" fill="none" xmlns="http://www.w3.org/2000/svg">
<path d="M8.84302 15.6043L8.73978 27.1218C8.73978 27.1672 8.75872 27.2202 8.79584 27.28C8.80493 27.2914 8.81629 27.305 8.82841 27.3209C10.0283 28.8426 14.5968 33.8057 22.9764 33.8057C31.6461 33.8057 36.2525 28.3906 37.088 27.305L37.1039 27.2846C37.1425 27.2233 37.1622 27.1688 37.1622 27.1226L36.9741 15.7797M4.33109 17.7636L5.36433 17.8893C6.12184 18.1838 6.61194 18.8931 6.61194 19.6956C6.61194 20.4981 6.13093 21.224 5.41508 21.5019L4.97346 21.6737L7.18841 28.7081H2.18507L4.39699 21.6828L3.96673 21.5057C3.25619 21.2134 2.76078 20.4693 2.76078 19.6956C2.76078 18.9174 3.27361 18.1747 4.00839 17.8893L4.33109 17.7636ZM4.33109 17.7636L4.39113 13.4734M36.9741 15.7797L43.1599 12.7402C43.6743 12.4828 43.8902 12.1543 43.928 12.0907L44 11.9703V11.8303C44 11.6115 43.8894 11.1959 43.1508 10.8651L25.5282 2.26215C24.9578 1.97675 24.0776 1.80566 23.1776 1.80566C22.3542 1.80566 21.521 1.96994 20.8907 2.2561L2.85144 10.9158C2.31058 11.158 2 11.4911 2 11.831V11.9287L2.03636 12.0195C2.07802 12.124 2.26058 12.4844 2.85826 12.7501L4.80278 13.6676M36.9741 15.7797L36.6757 15.9584L25.5327 21.3462C24.9555 21.646 24.1056 21.8178 23.1966 21.8178C22.2876 21.8178 21.4225 21.6467 20.8309 21.3507L4.80278 13.6676M23.0133 11.5222C23.0042 11.5222 22.9958 11.5229 22.9837 11.5244L4.80278 13.6676" stroke="#E43D30" stroke-width="2"/>
</svg>
