<svg width="34" height="35" viewBox="0 0 34 35" fill="none" xmlns="http://www.w3.org/2000/svg">
<path d="M10.2617 4.8025L7.51398 7.57297M13.706 8.27542L9.3171 12.7007M26.2565 20.9299L23.5088 23.7004M29.4086 24.1081L25.0196 28.5334M11.3661 29.0297L2.394 33.3552L6.68396 24.3087M11.3661 29.0297L6.68396 24.3087M11.3661 29.0297C13.2731 27.1068 14.9579 25.4081 16.5384 23.8145M6.68396 24.3087L11.8562 19.0935M25.0946 5.74547L27.8341 2.98318C28.4791 2.33286 29.5248 2.33286 30.1698 2.98318L32.5163 5.34909C33.1612 5.99941 33.1612 7.0538 32.5163 7.70413L29.7767 10.4664M25.0946 5.74547L29.7767 10.4664M25.0946 5.74547L18.1457 12.7519M29.7767 10.4664C27.1393 13.1257 24.927 15.3563 22.8279 17.4729M18.1457 12.7519L7.28948 1.80566L1 8.14729L11.8562 19.0935M18.1457 12.7519L11.8562 19.0935M16.5384 23.8145L26.4474 33.8057L32.7369 27.464C28.7868 23.4812 26.0398 20.7114 22.8279 17.4729M16.5384 23.8145C18.7308 21.6039 20.7224 19.5958 22.8279 17.4729" stroke="#E43D30" stroke-width="2" stroke-linecap="round" stroke-linejoin="round"/>
</svg>
