<svg width="37" height="34" viewBox="0 0 37 34" fill="none" xmlns="http://www.w3.org/2000/svg">
<path d="M22.6693 33H1.22217V1H33.2222V16.0148" stroke="#E43D30" stroke-width="2" stroke-miterlimit="10" stroke-linecap="round"/>
<path d="M27.5475 12.3259C28.0998 12.3259 28.5475 11.8782 28.5475 11.3259C28.5475 10.7736 28.0998 10.3259 27.5475 10.3259L27.5475 12.3259ZM0.749512 12.3259L27.5475 12.3259L27.5475 10.3259L0.749512 10.3259L0.749512 12.3259Z" fill="#E43D30"/>
<path d="M34.6624 31.5982C35.1091 31.9229 35.7345 31.824 36.0592 31.3773C36.3839 30.9305 36.285 30.3051 35.8383 29.9804L34.6624 31.5982ZM35.8383 29.9804L27.1753 23.684L25.9995 25.3018L34.6624 31.5982L35.8383 29.9804Z" fill="#E43D30"/>
<path d="M24.3838 17.0257C25.1117 17.1924 25.79 17.5283 26.3639 18.0061C26.9378 18.4838 27.391 19.0901 27.6869 19.7757C28.2112 20.9538 28.246 22.2919 27.7837 23.4956C27.3213 24.6994 26.3997 25.6702 25.2216 26.1945C24.0435 26.7187 22.7054 26.7535 21.5017 26.2912C20.2979 25.8289 19.3271 24.9073 18.8028 23.7292" stroke="#E43D30" stroke-width="2" stroke-linecap="round"/>
</svg>
