<svg width="34" height="34" viewBox="0 0 34 34" fill="none" xmlns="http://www.w3.org/2000/svg">
<path d="M20.5541 32.2507V28.2291C21.3727 27.9922 22.1581 27.672 22.9101 27.2814L25.1664 29.4843C25.5125 29.8237 26.0782 29.8237 26.4243 29.4843L30.198 25.8085C30.5441 25.4691 30.5441 24.9184 30.198 24.5854L27.9418 22.3824C28.3478 21.6524 28.6739 20.8839 28.9135 20.0834H32.1082C32.6007 20.0834 33 19.6928 33 19.2189V14.019C33 13.5387 32.6007 13.1545 32.1082 13.1545H28.9135C28.6739 12.3604 28.3478 11.5856 27.9418 10.8555L30.198 8.65259C30.5441 8.31319 30.5441 7.76246 30.198 7.42946L26.4243 3.75365C26.0782 3.41425 25.5125 3.41425 25.1664 3.75365L22.9101 5.95657C22.1581 5.55954 21.3727 5.24575 20.5541 5.00881V1.86452C20.5541 1.38423 20.1547 1 19.6622 1H14.3311C13.8386 1 13.4393 1.39063 13.4393 1.86452V4.98319C12.6206 5.22013 11.8353 5.54032 11.0832 5.93096L8.82695 3.72804C8.48086 3.38863 7.91514 3.38863 7.56905 3.72804L3.79534 7.40384C3.44925 7.74325 3.44925 8.29398 3.79534 8.62698L6.05158 10.8299C5.64559 11.5599 5.31947 12.3284 5.07987 13.1289H1.89185C1.39933 13.1289 1 13.5195 1 13.9934V19.1997C1.01331 19.6736 1.40599 20.0514 1.89185 20.0642H5.08652C5.32612 20.8583 5.65225 21.6332 6.05824 22.3632L3.802 24.5661C3.45591 24.9055 3.45591 25.4563 3.802 25.7893L7.57571 29.4651C7.9218 29.8045 8.48752 29.8045 8.83361 29.4651L11.0898 27.2622C11.8419 27.6592 12.6273 27.973 13.4459 28.2099V32.2315C13.4459 32.6542 13.7987 33 14.2379 33H19.7687C20.2013 33 20.5541 32.6542 20.5541 32.2315V32.2507Z" stroke="#E43D30" stroke-width="2" stroke-linecap="round" stroke-linejoin="round"/>
<path d="M22.7251 22.1903C19.5637 25.2706 14.4389 25.2706 11.2775 22.1903C8.11609 19.1101 8.11609 14.1087 11.2775 11.0284C14.4389 7.94817 19.5637 7.94817 22.7251 11.0284C25.8865 14.1087 25.8865 19.1101 22.7251 22.1903Z" stroke="#E43D30" stroke-width="2" stroke-linecap="round" stroke-linejoin="round"/>
</svg>
