<svg width="39" height="40" viewBox="0 0 39 40" fill="none" xmlns="http://www.w3.org/2000/svg">
<path d="M11.7088 4.77076L8.53179 7.97411M15.6913 8.78632L10.6166 13.9031M30.2028 23.4181L27.0258 26.6215M33.8474 27.0929L28.7727 32.2097M12.9858 32.7834L2.61182 37.7848L7.57208 27.3248M12.9858 32.7834L7.57208 27.3248M12.9858 32.7834C15.1908 30.5601 17.1388 28.5959 18.9662 26.7534M7.57208 27.3248L13.5525 21.2948M28.8593 5.86106L32.027 2.66717C32.7727 1.91523 33.9818 1.91523 34.7276 2.66717L37.4407 5.40275C38.1864 6.15469 38.1864 7.37382 37.4407 8.12576L34.2731 11.3197M28.8593 5.86106L34.2731 11.3197M28.8593 5.86106L20.8247 13.9623M34.2731 11.3197C31.2236 14.3944 28.6656 16.9736 26.2385 19.4209M20.8247 13.9623L8.27221 1.30566L1 8.63816L13.5525 21.2948M20.8247 13.9623L13.5525 21.2948M18.9662 26.7534L30.4235 38.3057L37.6958 30.9732C33.1285 26.368 29.9522 23.1654 26.2385 19.4209M18.9662 26.7534C21.5012 24.1974 23.804 21.8755 26.2385 19.4209" stroke="#E43D30" stroke-width="2" stroke-linecap="round" stroke-linejoin="round"/>
</svg>
