<svg width="39" height="40" viewBox="0 0 39 40" fill="none" xmlns="http://www.w3.org/2000/svg">
<path d="M23.6094 37.4393V32.7894C24.5559 32.5154 25.464 32.1452 26.3336 31.6935L28.9424 34.2406C29.3426 34.6331 29.9967 34.6331 30.3968 34.2406L34.7602 29.9905C35.1604 29.598 35.1604 28.9613 34.7602 28.5762L32.1514 26.0291C32.6208 25.185 32.9979 24.2965 33.275 23.3709H36.9688C37.5383 23.3709 38 22.9192 38 22.3713V16.3589C38 15.8036 37.5383 15.3593 36.9688 15.3593H33.275C32.9979 14.4411 32.6208 13.5452 32.1514 12.7011L34.7602 10.154C35.1604 9.76154 35.1604 9.12476 34.7602 8.73972L30.3968 4.48957C29.9967 4.09714 29.3426 4.09714 28.9424 4.48957L26.3336 7.0367C25.464 6.57763 24.5559 6.21481 23.6094 5.94085V2.30526C23.6094 1.74993 23.1477 1.30566 22.5782 1.30566H16.4141C15.8446 1.30566 15.3829 1.75734 15.3829 2.30526V5.91123C14.4364 6.18519 13.5283 6.55541 12.6587 7.00708L10.0499 4.45996C9.64975 4.06752 8.99563 4.06752 8.59547 4.45996L4.23211 8.71011C3.83195 9.10254 3.83195 9.73932 4.23211 10.1244L6.84089 12.6715C6.37146 13.5156 5.99438 14.4041 5.71735 15.3297H2.0312C1.46173 15.3297 1 15.7814 1 16.3293V22.3491C1.01539 22.897 1.46943 23.3339 2.0312 23.3487H5.72504C6.00208 24.2668 6.37916 25.1628 6.84859 26.0069L4.23981 28.554C3.83964 28.9464 3.83964 29.5832 4.23981 29.9683L8.60316 34.2184C9.00333 34.6108 9.65745 34.6108 10.0576 34.2184L12.6664 31.6713C13.536 32.1304 14.4441 32.4932 15.3906 32.7671V37.4171C15.3906 37.9058 15.7985 38.3057 16.3064 38.3057H22.7013C23.2015 38.3057 23.6094 37.9058 23.6094 37.4171V37.4393Z" stroke="#E43D30" stroke-width="2" stroke-linecap="round" stroke-linejoin="round"/>
<path d="M26.1196 25.807C22.4643 29.3685 16.5387 29.3685 12.8833 25.807C9.22798 22.2454 9.22798 16.4626 12.8833 12.901C16.5387 9.33949 22.4643 9.33949 26.1196 12.901C29.775 16.4626 29.775 22.2454 26.1196 25.807Z" stroke="#E43D30" stroke-width="2" stroke-linecap="round" stroke-linejoin="round"/>
</svg>
