<svg width="47" height="40" viewBox="0 0 47 40" fill="none" xmlns="http://www.w3.org/2000/svg">
<path d="M1 1.30566H8.39904L10.5786 7.15825M10.5786 7.15825L16.7847 23.8233M10.5786 7.15825H36.0225M16.7847 23.8233H30.2018M16.7847 23.8233L12.8385 30.9654H39.1793M36.0225 7.15825H45L39.1793 23.8233H30.2018M36.0225 7.15825L30.2018 23.8233M23.6412 34.6355C23.6412 36.6624 22.0069 38.3057 19.991 38.3057C17.9751 38.3057 16.3408 36.6624 16.3408 34.6355C16.3408 32.6085 17.9751 30.9654 19.991 30.9654C22.0069 30.9654 23.6412 32.6085 23.6412 34.6355ZM36.3621 34.6355C36.3621 36.6624 34.7279 38.3057 32.7119 38.3057C30.696 38.3057 29.0619 36.6624 29.0619 34.6355C29.0619 32.6085 30.696 30.9654 32.7119 30.9654C34.7279 30.9654 36.3621 32.6085 36.3621 34.6355Z" stroke="#E43D30" stroke-width="2" stroke-linecap="round"/>
</svg>
