<svg width="39" height="40" viewBox="0 0 39 40" fill="none" xmlns="http://www.w3.org/2000/svg">
<path d="M16.4188 2.0494C17.3598 1.55358 18.4286 1.30566 19.4989 1.30566H19.4981C20.5684 1.30566 21.6394 1.55434 22.585 2.05168L36.0647 8.99779C37.2596 9.6267 38 10.8511 38 12.1971C38 13.5431 37.2596 14.7682 36.0685 15.3948L22.5812 22.3463C21.6402 22.8413 20.5729 23.1045 19.4996 23.1045C18.4263 23.1045 17.3598 22.8413 16.4142 22.344L2.93609 15.3971C2.93457 15.3964 2.93305 15.3948 2.93153 15.3948C1.74038 14.7682 1 13.5431 1 12.1978C1 10.8526 1.74038 9.62746 2.93153 9.00083L16.4188 2.0494Z" stroke="#E43D30" stroke-width="2"/>
<path d="M1.30078 29.4336L16.414 37.5447C17.3603 38.0421 18.4268 38.3052 19.4994 38.3052C20.5719 38.3052 21.6384 38.0421 22.5894 37.5432L37.698 29.4344" stroke="#E43D30" stroke-width="2" stroke-linecap="round"/>
<path d="M1.30078 21.834L16.414 29.9451C17.3596 30.4425 18.4261 30.7056 19.4994 30.7056C20.5727 30.7056 21.6392 30.4425 22.5894 29.9436L37.698 21.8347" stroke="#E43D30" stroke-width="2" stroke-linecap="round"/>
</svg>
