<svg width="40" height="37" viewBox="0 0 40 37" fill="none" xmlns="http://www.w3.org/2000/svg">
<path d="M1.5 9.18891V33.4379C1.5 34.4106 2.28586 35.1992 3.25526 35.1992H36.7447C37.7141 35.1992 38.5 34.4106 38.5 33.4379V9.18891M1.5 9.18891V2.96055C1.5 1.98779 2.28585 1.19922 3.25526 1.19922H36.7447C37.7141 1.19922 38.5 1.98779 38.5 2.96055V9.18891M1.5 9.18891H38.5M5.87764 5.27408H10.2798" stroke="#E43D30" stroke-width="2" stroke-linecap="round" stroke-linejoin="round"/>
<path d="M16 18.1777V29.1777C16 29.4429 15.8946 29.6973 15.7071 29.8848C15.5196 30.0723 15.2652 30.1777 15 30.1777H14C13.7348 30.1777 13.4804 30.0723 13.2929 29.8848C13.1054 29.6973 13 29.4429 13 29.1777V24.1777M27.6082 21.0198H31M27 17.7028L29.0019 15.4253M29.0019 26.4253L27 24.1478M22.524 14.4077L19.1125 17.2506C18.3937 17.8496 17.4875 18.1777 16.5518 18.1777H10C9.73478 18.1777 9.48043 18.283 9.29289 18.4706C9.10536 18.6581 9 18.9125 9 19.1777V23.1777C9 23.4429 9.10536 23.6973 9.29289 23.8848C9.48043 24.0723 9.73478 24.1777 10 24.1777H16.5518C17.4875 24.1777 18.3937 24.5057 19.1125 25.1048L22.524 27.9477C22.6555 28.0572 22.8154 28.1269 22.9851 28.1488C23.1548 28.1706 23.3271 28.1437 23.482 28.071C23.6369 27.9984 23.7679 27.8831 23.8597 27.7387C23.9514 27.5943 24.0001 27.4268 24 27.2557V15.0997C24.0001 14.9286 23.9514 14.761 23.8597 14.6166C23.7679 14.4722 23.6369 14.357 23.482 14.2843C23.3271 14.2117 23.1548 14.1847 22.9851 14.2066C22.8154 14.2284 22.6555 14.2982 22.524 14.4077Z" stroke="#E43D30" stroke-width="2" stroke-linecap="round" stroke-linejoin="round"/>
</svg>
