<svg width="50" height="52" viewBox="0 0 50 52" fill="none" xmlns="http://www.w3.org/2000/svg">
<path d="M30.3311 49.8294V43.5457C31.5591 43.1754 32.7371 42.6751 33.8652 42.0648L37.2496 45.5068C37.7687 46.0371 38.6173 46.0371 39.1364 45.5068L44.797 39.7634C45.3161 39.2331 45.3161 38.3725 44.797 37.8522L41.4126 34.4102C42.0216 33.2695 42.5108 32.0688 42.8702 30.818H47.6622C48.401 30.818 49 30.2076 49 29.4672V21.3423C49 20.5919 48.401 19.9915 47.6622 19.9915H42.8702C42.5108 18.7508 42.0216 17.54 41.4126 16.3994L44.797 12.9573C45.3161 12.427 45.3161 11.5665 44.797 11.0462L39.1364 5.3027C38.6173 4.77239 37.7687 4.77239 37.2496 5.3027L33.8652 8.74477C32.7371 8.1244 31.5591 7.6341 30.3311 7.26388V2.35093C30.3311 1.60048 29.7321 1.00012 28.9933 1.00012H20.9967C20.2579 1.00012 19.6589 1.61049 19.6589 2.35093V7.22386C18.4309 7.59408 17.2529 8.09438 16.1248 8.70474L12.7404 5.26268C12.2213 4.73236 11.3727 4.73236 10.8536 5.26268L5.19301 11.0061C4.67388 11.5364 4.67388 12.397 5.19301 12.9173L8.57737 16.3593C7.96839 17.5 7.4792 18.7007 7.1198 19.9515H2.33777C1.599 19.9515 1 20.5619 1 21.3023V29.4372C1.01997 30.1776 1.60899 30.768 2.33777 30.788H7.12978C7.48918 32.0287 7.97837 33.2395 8.58735 34.3801L5.20299 37.8222C4.68386 38.3525 4.68386 39.213 5.20299 39.7334L10.8636 45.4768C11.3827 46.0071 12.2313 46.0071 12.7504 45.4768L16.1348 42.0347C17.2629 42.6551 18.4409 43.1454 19.6689 43.5156V49.7994C19.6689 50.4598 20.198 51.0001 20.8569 51.0001H29.1531C29.802 51.0001 30.3311 50.4598 30.3311 49.7994V49.8294Z" stroke="#E43D30" stroke-width="2" stroke-linecap="round" stroke-linejoin="round"/>
<path d="M33.5876 34.11C28.8455 38.9229 21.1583 38.9229 16.4162 34.11C11.6741 29.2971 11.6741 21.4824 16.4162 16.6695C21.1583 11.8566 28.8455 11.8566 33.5876 16.6695C38.3297 21.4824 38.3297 29.2971 33.5876 34.11Z" stroke="#E43D30" stroke-width="2" stroke-linecap="round" stroke-linejoin="round"/>
</svg>
