<svg width="51" height="52" viewBox="0 0 51 52" fill="none" xmlns="http://www.w3.org/2000/svg">
<path d="M38.8222 44.2432C38.27 44.2432 37.8222 44.6909 37.8222 45.2432C37.8222 45.7955 38.27 46.2432 38.8222 46.2432V44.2432ZM11.4913 46.2432C12.0435 46.2432 12.4913 45.7955 12.4913 45.2432C12.4913 44.6909 12.0435 44.2432 11.4913 44.2432V46.2432ZM20.3508 33.42C19.7986 33.42 19.3508 33.8677 19.3508 34.42C19.3508 34.9722 19.7986 35.42 20.3508 35.42V33.42ZM24.1896 34.4198H23.1896C23.1896 34.9721 23.6373 35.4198 24.1896 35.4198V34.4198ZM20.4623 34.4198L20.4662 35.4198C21.0177 35.4177 21.4634 34.9694 21.4623 34.4179C21.4612 33.8664 21.0138 33.4198 20.4623 33.4198V34.4198ZM17.8985 46.57L18.5446 45.8068H18.5446L17.8985 46.57ZM23.3112 16.2332C23.3112 15.6809 22.8634 15.2332 22.3112 15.2332C21.7589 15.2332 21.3112 15.6809 21.3112 16.2332H23.3112ZM21.3112 19.5907C21.3112 20.143 21.7589 20.5907 22.3112 20.5907C22.8634 20.5907 23.3112 20.143 23.3112 19.5907H21.3112ZM16.6835 18.1504C16.293 17.7599 15.6598 17.7599 15.2693 18.1504C14.8787 18.5409 14.8787 19.1741 15.2693 19.5646L16.6835 18.1504ZM17.6434 21.9388C18.0339 22.3293 18.6671 22.3293 19.0576 21.9388C19.4482 21.5483 19.4482 20.9151 19.0576 20.5246L17.6434 21.9388ZM29.353 19.5641C29.7436 19.1736 29.7436 18.5404 29.353 18.1499C28.9625 17.7593 28.3293 17.7593 27.9388 18.1499L29.353 19.5641ZM25.5647 20.524C25.1741 20.9146 25.1741 21.5477 25.5647 21.9382C25.9552 22.3288 26.5884 22.3288 26.9789 21.9382L25.5647 20.524ZM32.2369 46.571L32.9065 47.3136L32.2369 46.571ZM3.29196 2.00012H47.0215V0.00012207H3.29196V2.00012ZM2 42.9512V6.88193H0V42.9512H2ZM2 6.88193V3.29208H0V6.88193H2ZM48.3135 3.29208V6.88193H50.3135V3.29208H48.3135ZM48.3135 6.88193V42.9512H50.3135V6.88193H48.3135ZM3.29196 44.2432C2.57843 44.2432 2 43.6648 2 42.9512H0C0 44.7693 1.47386 46.2432 3.29196 46.2432V44.2432ZM47.0215 46.2432C48.8396 46.2432 50.3135 44.7693 50.3135 42.9512H48.3135C48.3135 43.6648 47.7351 44.2432 47.0215 44.2432V46.2432ZM47.0215 2.00012C47.7351 2.00012 48.3135 2.57856 48.3135 3.29208H50.3135C50.3135 1.47398 48.8396 0.00012207 47.0215 0.00012207V2.00012ZM3.29196 0.00012207C1.47386 0.00012207 0 1.47399 0 3.29208H2C2 2.57855 2.57843 2.00012 3.29196 2.00012V0.00012207ZM1 7.88193H49.3135V5.88193H1V7.88193ZM20.3508 35.42H20.4327V33.42H20.3508V35.42ZM21.4327 34.42V25.1783H19.4327V34.42H21.4327ZM23.1896 25.1783V34.4198H25.1896V25.1783H23.1896ZM22.3111 24.2999C22.7963 24.2999 23.1896 24.6932 23.1896 25.1783H25.1896C25.1896 23.5886 23.9008 22.2999 22.3111 22.2999V24.2999ZM22.3111 22.2999C20.7214 22.2999 19.4327 23.5886 19.4327 25.1783H21.4327C21.4327 24.6932 21.826 24.2999 22.3111 24.2999V22.2999ZM32.5036 38.0923V44.4582H34.5036V38.0923H32.5036ZM17.789 44.4582V38.0927H15.789V44.4582H17.789ZM24.1896 35.4198H29.8303V33.4198H24.1896V35.4198ZM20.4584 33.4198L20.4288 33.42L20.4366 35.4199L20.4662 35.4198L20.4584 33.4198ZM32.5036 44.4582C32.5036 44.5822 32.4378 44.7971 32.2323 45.0933C32.0374 45.3742 31.7819 45.6347 31.5672 45.8283L32.9065 47.3136C33.1816 47.0656 33.5595 46.6889 33.8755 46.2334C34.1808 45.7933 34.5036 45.1727 34.5036 44.4582H32.5036ZM18.5446 45.8068C18.3695 45.6585 18.1668 45.4222 18.0126 45.1493C17.8552 44.8709 17.789 44.6279 17.789 44.4582H15.789C15.789 45.0834 16.0087 45.6686 16.2715 46.1336C16.5375 46.604 16.8896 47.0262 17.2524 47.3333L18.5446 45.8068ZM30.8467 47.4022V50.2655H32.8467V47.4022H30.8467ZM31.112 50.0001H19.2778V52.0001H31.112V50.0001ZM19.5432 50.2655V47.6294H17.5432V50.2655H19.5432ZM19.2778 50.0001C19.4244 50.0001 19.5432 50.1189 19.5432 50.2655H17.5432C17.5432 51.2235 18.3198 52.0001 19.2778 52.0001V50.0001ZM30.8467 50.2655C30.8467 50.1189 30.9655 50.0001 31.112 50.0001V52.0001C32.07 52.0001 32.8467 51.2235 32.8467 50.2655H30.8467ZM17.2524 47.3333C17.362 47.4261 17.4524 47.5229 17.5082 47.6055C17.5684 47.6946 17.5432 47.6989 17.5432 47.6294H19.5432C19.5432 47.1542 19.3505 46.7599 19.1657 46.4863C18.9765 46.2061 18.7446 45.9761 18.5446 45.8068L17.2524 47.3333ZM34.5036 38.0923C34.5036 35.5111 32.411 33.4198 29.8303 33.4198V35.4198C31.307 35.4198 32.5036 36.6162 32.5036 38.0923H34.5036ZM17.789 38.0927C17.789 36.6237 18.9741 35.4315 20.4406 35.4199L20.4248 33.42C17.8611 33.4402 15.789 35.5241 15.789 38.0927H17.789ZM20.4406 35.4199C20.4477 35.4199 20.4549 35.4198 20.4623 35.4198V33.4198C20.45 33.4198 20.4375 33.4199 20.4248 33.42L20.4406 35.4199ZM21.3112 16.2332V19.5907H23.3112V16.2332H21.3112ZM15.2693 19.5646L17.6434 21.9388L19.0576 20.5246L16.6835 18.1504L15.2693 19.5646ZM27.9388 18.1499L25.5647 20.524L26.9789 21.9382L29.353 19.5641L27.9388 18.1499ZM11.4913 44.2432H3.29196V46.2432H11.4913V44.2432ZM47.0215 44.2432H38.8222V46.2432H47.0215V44.2432ZM31.5672 45.8283C31.1534 46.2014 30.8467 46.7581 30.8467 47.4022H32.8467C32.8467 47.4046 32.8459 47.3976 32.8541 47.3805C32.8628 47.3625 32.8795 47.338 32.9065 47.3136L31.5672 45.8283Z" fill="#E43D30"/>
</svg>
