<svg width="46" height="52" viewBox="0 0 46 52" fill="none" xmlns="http://www.w3.org/2000/svg">
<path d="M20.8727 50.7339C21.3342 50.9114 21.8312 51.0001 22.3281 51.0001H22.9316C23.4286 51.0001 23.9167 50.9114 24.3871 50.7339C30.1024 48.5951 34.6995 45.1339 38.0363 40.4392C40.6632 36.7474 42.4914 32.3278 43.4588 27.3047C45.0449 19.0569 43.7787 11.9028 43.7086 11.5063L43.7073 11.4989C43.4499 10.1144 42.5269 8.96072 41.2223 8.41936L24.2362 1.31961C23.7215 1.10662 23.189 1.00012 22.6299 1.00012C22.0708 1.00012 21.5383 1.10662 21.0236 1.31961L4.0374 8.41936C2.7417 8.96072 1.80985 10.1144 1.55249 11.4989C1.49036 11.8006 0.194659 18.9891 1.80098 27.3047C2.76832 32.3278 4.59651 36.7474 7.22341 40.4392C10.5603 45.1339 15.1574 48.5951 20.8727 50.7339Z" stroke="#E43D30" stroke-width="2"/>
<path d="M16.8436 22.6545L16.5773 22.8142C15.5035 23.4532 14.8379 24.6335 14.8379 25.876V32.745C14.8379 34.7152 16.4353 36.3126 18.4055 36.3126H18.3966H26.8542C28.8244 36.3126 30.4218 34.7152 30.4218 32.745V25.876C30.4218 24.6335 29.7562 23.4621 28.6824 22.8142L28.4162 22.6545M16.8436 22.6545V19.9477C16.8436 18.4035 17.447 16.948 18.5386 15.8564C19.6302 14.7649 21.0857 14.1614 22.6299 14.1614C24.1741 14.1614 25.6295 14.7649 26.7211 15.8564C27.8127 16.948 28.4162 18.4035 28.4162 19.9477V22.6545M16.8436 22.6545H28.4162" stroke="#E43D30" stroke-width="2"/>
</svg>
