<svg width="36" height="51" viewBox="0 0 36 51" fill="none" xmlns="http://www.w3.org/2000/svg">
<path d="M14.4032 45.0711V47.7761C14.4042 48.5571 15.0402 49.1941 15.8202 49.1941H15.8192H19.9412C20.7222 49.1931 21.3592 48.5571 21.3592 47.7771V45.0711M14.4032 45.0711H11.6972C10.9172 45.0711 10.2812 44.4341 10.2802 43.6531V32.9421L9.93916 32.7601C5.04116 30.1511 1.74116 25.3011 1.11116 19.7881C0.600159 15.3121 1.86216 10.9041 4.66616 7.37812C7.47016 3.85112 11.4792 1.62812 15.9552 1.11612C16.6082 1.03912 17.2702 1.00012 17.9252 1.00012C22.0722 1.00012 26.0522 2.53012 29.1322 5.30712C30.6182 6.63512 31.8442 8.19712 32.7792 9.95312C37.1492 18.1591 34.0292 28.3901 25.8232 32.7611L25.4822 32.9431V43.6541C25.4822 44.4341 24.8452 45.0701 24.0642 45.0711H21.3592M14.4032 45.0711H21.3592M25.4822 36.8251H10.2802M21.2382 27.4451L18.2672 30.4161M18.2672 30.4161V36.8251M18.2672 30.4161L14.5172 27.4361" stroke="#E43D30" stroke-width="2"/>
</svg>
