<svg width="34" height="28" viewBox="0 0 34 28" fill="none" xmlns="http://www.w3.org/2000/svg">
<path d="M4.79727 18.5927C4.79727 11.8104 10.2955 6.31219 17.0778 6.31219M17.0778 6.31219C23.8602 6.31219 29.3583 11.8104 29.3583 18.5927L29.3583 20.5255M17.0778 6.31219C17.843 6.31219 18.4633 5.69188 18.4633 4.92669C18.4633 4.16151 17.843 3.5412 17.0778 3.5412C16.3126 3.5412 15.6923 4.16151 15.6923 4.92669C15.6923 5.69188 16.3126 6.31219 17.0778 6.31219ZM8.73237 14.9023C9.61619 12.9268 11.1709 11.317 13.1067 10.3628M29.3583 20.5255H2.72412V24.5412H31.4314V20.5255H29.3583ZM29.3583 20.5255H4.79727V18.5443" stroke="#E43D30" strokeWidth="2" strokeLinecap="round" strokeLinejoin="round"/>
</svg>
