<svg width="28" height="28" viewBox="0 0 28 28" fill="none" xmlns="http://www.w3.org/2000/svg">
<g clip-path="url(#clip0_397_459)">
<path d="M16.4322 25.9V22.76C17.0472 22.575 17.6372 22.325 18.2022 22.02L19.8972 23.74C20.1572 24.005 20.5822 24.005 20.8422 23.74L23.6772 20.87C23.9372 20.605 23.9372 20.175 23.6772 19.915L21.9822 18.195C22.2872 17.625 22.5322 17.025 22.7122 16.4H25.1122C25.4822 16.4 25.7822 16.095 25.7822 15.725V11.665C25.7822 11.29 25.4822 10.99 25.1122 10.99H22.7122C22.5322 10.37 22.2872 9.765 21.9822 9.195L23.6772 7.475C23.9372 7.21 23.9372 6.78 23.6772 6.52L20.8422 3.65C20.5822 3.385 20.1572 3.385 19.8972 3.65L18.2022 5.37C17.6372 5.06 17.0472 4.815 16.4322 4.63V2.175C16.4322 1.8 16.1322 1.5 15.7622 1.5H11.7572C11.3872 1.5 11.0872 1.805 11.0872 2.175V4.61C10.4722 4.795 9.88219 5.045 9.31719 5.35L7.62219 3.63C7.36219 3.365 6.93719 3.365 6.67719 3.63L3.84219 6.5C3.58219 6.765 3.58219 7.195 3.84219 7.455L5.53719 9.175C5.23219 9.745 4.98719 10.345 4.80719 10.97H2.41219C2.04219 10.97 1.74219 11.275 1.74219 11.645V15.71C1.75219 16.08 2.04719 16.375 2.41219 16.385H4.81219C4.99219 17.005 5.23719 17.61 5.54219 18.18L3.84719 19.9C3.58719 20.165 3.58719 20.595 3.84719 20.855L6.68219 23.725C6.94219 23.99 7.36719 23.99 7.62719 23.725L9.32219 22.005C9.88719 22.315 10.4772 22.56 11.0922 22.745V25.885C11.0922 26.215 11.3572 26.485 11.6872 26.485H15.8422C16.1672 26.485 16.4322 26.215 16.4322 25.885V25.9Z" stroke="#000000" stroke-width="2" stroke-linecap="round" stroke-linejoin="round"/>
<path d="M18.0629 18.0451C15.6879 20.4501 11.8379 20.4501 9.46289 18.0451C7.08789 15.6401 7.08789 11.7351 9.46289 9.33012C11.8379 6.92512 15.6879 6.92512 18.0629 9.33012C20.4379 11.7351 20.4379 15.6401 18.0629 18.0451Z" stroke="#000000" stroke-width="2" stroke-linecap="round" stroke-linejoin="round"/>
</g>
<defs>
<clipPath id="clip0_397_459">
<rect width="27" height="28" fill="#000000" transform="translate(0.242188)"/>
</clipPath>
</defs>
</svg>
