<svg width="29" height="28" viewBox="0 0 29 28" fill="none" xmlns="http://www.w3.org/2000/svg">
<g clip-path="url(#clip0_397_439)">
<path d="M22.2027 4.56006H6.28773C5.46759 4.56006 4.80273 5.22492 4.80273 6.04506V21.9601C4.80273 22.7802 5.46759 23.4451 6.28773 23.4451H22.2027C23.0229 23.4451 23.6877 22.7802 23.6877 21.9601V6.04506C23.6877 5.22492 23.0229 4.56006 22.2027 4.56006Z" stroke="#000000" stroke-width="2" stroke-linecap="round" stroke-linejoin="round"/>
<path d="M23.6816 10.2148H26.7416" stroke="#000000" stroke-width="2" stroke-linecap="round" stroke-linejoin="round"/>
<path d="M23.6816 14H26.7416" stroke="#000000" stroke-width="2" stroke-linecap="round" stroke-linejoin="round"/>
<path d="M23.6816 17.7847H26.7416" stroke="#000000" stroke-width="2" stroke-linecap="round" stroke-linejoin="round"/>
<path d="M1.74219 10.2148H4.80219" stroke="#000000" stroke-width="2" stroke-linecap="round" stroke-linejoin="round"/>
<path d="M1.74219 14H4.80219" stroke="#000000" stroke-width="2" stroke-linecap="round" stroke-linejoin="round"/>
<path d="M1.74219 17.7847H4.80219" stroke="#000000" stroke-width="2" stroke-linecap="round" stroke-linejoin="round"/>
<path d="M18.0273 1.5V4.56" stroke="#000000" stroke-width="2" stroke-linecap="round" stroke-linejoin="round"/>
<path d="M14.2422 1.5V4.56" stroke="#000000" stroke-width="2" stroke-linecap="round" stroke-linejoin="round"/>
<path d="M10.457 1.5V4.56" stroke="#000000" stroke-width="2" stroke-linecap="round" stroke-linejoin="round"/>
<path d="M18.0273 23.4399V26.4999" stroke="#000000" stroke-width="2" stroke-linecap="round" stroke-linejoin="round"/>
<path d="M14.2422 23.4399V26.4999" stroke="#000000" stroke-width="2" stroke-linecap="round" stroke-linejoin="round"/>
<path d="M10.457 23.4399V26.4999" stroke="#000000" stroke-width="2" stroke-linecap="round" stroke-linejoin="round"/>
</g>
<defs>
<clipPath id="clip0_397_439">
<rect width="28" height="28" fill="#000000" transform="translate(0.242188)"/>
</clipPath>
</defs>
</svg>
