<svg width="29" height="28" viewBox="0 0 29 28" fill="none" xmlns="http://www.w3.org/2000/svg">
<g clip-path="url(#clip0_9_342)">
<path d="M22.202 4.56006H6.287C5.46686 4.56006 4.802 5.22492 4.802 6.04506V21.9601C4.802 22.7802 5.46686 23.4451 6.287 23.4451H22.202C23.0221 23.4451 23.687 22.7802 23.687 21.9601V6.04506C23.687 5.22492 23.0221 4.56006 22.202 4.56006Z" stroke="#E43D30" stroke-width="2" stroke-linecap="round" stroke-linejoin="round"/>
<path d="M23.6807 10.2148H26.7407" stroke="#E43D30" stroke-width="2" stroke-linecap="round" stroke-linejoin="round"/>
<path d="M23.6807 13.9998H26.7407" stroke="#E43D30" stroke-width="2" stroke-linecap="round" stroke-linejoin="round"/>
<path d="M23.6807 17.7849H26.7407" stroke="#E43D30" stroke-width="2" stroke-linecap="round" stroke-linejoin="round"/>
<path d="M1.74146 10.2148H4.80146" stroke="#E43D30" stroke-width="2" stroke-linecap="round" stroke-linejoin="round"/>
<path d="M1.74146 13.9998H4.80146" stroke="#E43D30" stroke-width="2" stroke-linecap="round" stroke-linejoin="round"/>
<path d="M1.74146 17.7849H4.80146" stroke="#E43D30" stroke-width="2" stroke-linecap="round" stroke-linejoin="round"/>
<path d="M18.0266 1.5V4.56" stroke="#E43D30" stroke-width="2" stroke-linecap="round" stroke-linejoin="round"/>
<path d="M14.2412 1.5V4.56" stroke="#E43D30" stroke-width="2" stroke-linecap="round" stroke-linejoin="round"/>
<path d="M10.4563 1.5V4.56" stroke="#E43D30" stroke-width="2" stroke-linecap="round" stroke-linejoin="round"/>
<path d="M18.0266 23.4399V26.4999" stroke="#E43D30" stroke-width="2" stroke-linecap="round" stroke-linejoin="round"/>
<path d="M14.2412 23.4399V26.4999" stroke="#E43D30" stroke-width="2" stroke-linecap="round" stroke-linejoin="round"/>
<path d="M10.4563 23.4399V26.4999" stroke="#E43D30" stroke-width="2" stroke-linecap="round" stroke-linejoin="round"/>
</g>
<defs>
<clipPath id="clip0_9_342">
<rect width="28" height="28" fill="white" transform="translate(0.241455)"/>
</clipPath>
</defs>
</svg>
