<svg width="44" height="52" viewBox="0 0 44 52" fill="none" xmlns="http://www.w3.org/2000/svg">
<path d="M22 1C27.4581 6.74049 34.5817 9.72935 41.8617 9.33333C42.9216 13.6195 43.2459 18.1152 42.8154 22.5533C42.3848 26.9914 41.2082 31.2813 39.3554 35.1681C37.5026 39.055 35.0115 42.4594 32.0301 45.1791C29.0486 47.8988 25.6377 49.8783 22 51C18.3623 49.8783 14.9514 47.8988 11.9699 45.1791C8.9885 42.4594 6.49737 39.055 4.64459 35.1681C2.79181 31.2813 1.61518 26.9914 1.18463 22.5533C0.754079 18.1152 1.07839 13.6195 2.13828 9.33333C9.41825 9.72935 16.5419 6.74049 22 1Z" stroke="#E43D30" stroke-width="2" stroke-linecap="round" stroke-linejoin="round"/>
<path d="M21.9872 14L24.6813 22.2918H33.3998L26.3464 27.4164L29.0406 35.7082L21.9872 30.5836L14.9337 35.7082L17.6279 27.4164L10.5745 22.2918H19.293L21.9872 14Z" stroke="#E43D30" stroke-width="2" stroke-linecap="round" stroke-linejoin="round"/>
</svg>
