<svg width="52" height="52" viewBox="0 0 52 52" fill="none" xmlns="http://www.w3.org/2000/svg">
<path d="M50.785 1.21498L51.7828 1.14846C51.7495 0.648591 51.3514 0.250519 50.8516 0.217192L50.785 1.21498ZM0.293011 50.2928C-0.0975784 50.6832 -0.0976837 51.3164 0.292776 51.707C0.683235 52.0976 1.3164 52.0977 1.70699 51.7072L0.293011 50.2928ZM10.3038 32.2821C9.90737 32.6666 9.89763 33.2997 10.2821 33.6962C10.6666 34.0926 11.2997 34.1024 11.6962 33.7179L10.3038 32.2821ZM22.1752 22.1633L22.8713 21.4454C22.4834 21.0693 21.8669 21.0693 21.479 21.4454L22.1752 22.1633ZM29.4409 29.2089L28.7447 29.9268C29.1326 30.3029 29.7492 30.3029 30.137 29.9268L29.4409 29.2089ZM41.9999 18.0154C42.0084 17.4632 41.5676 17.0086 41.0154 17.0001L32.0164 16.8617C31.4642 16.8532 31.0097 17.294 31.0012 17.8462C30.9927 18.3984 31.4335 18.853 31.9857 18.8615L39.9847 18.9845L39.8617 26.9836C39.8532 27.5358 40.294 27.9903 40.8462 27.9988C41.3984 28.0073 41.853 27.5665 41.8615 27.0143L41.9999 18.0154ZM7.0604 45.2848C13.547 49.1769 19.7842 50.8429 25.4727 50.4691C31.1725 50.0946 36.2413 47.6764 40.372 43.5455C48.6021 35.3149 53.0633 20.3571 51.7828 1.14846L49.7872 1.28149C51.0485 20.2011 46.6136 34.4751 38.9577 42.1313C35.1454 45.9439 30.5236 48.1329 25.3415 48.4734C20.148 48.8146 14.3118 47.3033 8.08942 43.5698L7.0604 45.2848ZM50.8516 0.217192C31.6441 -1.0634 16.6874 3.39821 8.45727 11.6289C4.32663 15.7599 1.90861 20.8289 1.53403 26.5289C1.16019 32.2176 2.82587 38.455 6.71738 44.9417L8.43243 43.9128C4.69945 37.6904 3.18841 31.8539 3.52972 26.6601C3.87028 21.4777 6.05926 16.8556 9.87154 13.0431C17.5273 5.38676 31.8001 0.951442 50.7185 2.21276L50.8516 0.217192ZM6.86792 43.7201L0.293011 50.2928L1.70699 51.7072L8.2819 45.1345L6.86792 43.7201ZM11.6962 33.7179L22.8713 22.8812L21.479 21.4454L10.3038 32.2821L11.6962 33.7179ZM21.479 22.8812L28.7447 29.9268L30.137 28.491L22.8713 21.4454L21.479 22.8812ZM30.137 29.9268L41.6961 18.7179L40.3039 17.2821L28.7447 28.491L30.137 29.9268Z" fill="#E43D30"/>
</svg>
