<svg width="52" height="52" viewBox="0 0 52 52" fill="none" xmlns="http://www.w3.org/2000/svg">
<path d="M15.838 36.1621C11.8826 32.2067 6.71145 29.697 1.15674 29.0369C2.74422 26.2833 5.00767 23.98 7.73314 22.3447C10.4586 20.7094 13.5561 19.7962 16.7328 19.6913C18.5729 14.4605 21.9227 9.8928 26.3587 6.56579C30.7947 3.23879 36.1177 1.30189 41.6545 1C44.1331 1 46.5102 1.98463 48.2628 3.73727C50.0155 5.48992 51.0001 7.86701 51.0001 10.3456C50.6982 15.8824 48.7613 21.2053 45.4343 25.6413C42.1073 30.0773 37.5396 33.4272 32.3088 35.2673C32.2039 38.444 31.2907 41.5415 29.6554 44.2669C28.0201 46.9924 25.7168 49.2559 22.9632 50.8433C22.3031 45.2886 19.7934 40.1175 15.838 36.1621Z" stroke="#E43D30" stroke-width="2" stroke-linecap="round" stroke-linejoin="round"/>
</svg>
