<svg width="52" height="52" viewBox="0 0 52 52" fill="none" xmlns="http://www.w3.org/2000/svg">
<path d="M8.57611 16.7296C10.4905 13.3421 13.3643 10.5686 16.8284 8.77778M35.1716 8.77778C38.6357 10.5686 41.5094 13.3421 43.4239 16.7296M16.8284 44.3333C13.0499 42.3801 9.97386 39.2575 8.07893 35.4444M43.9211 35.4444C42.0261 39.2575 38.9501 42.3801 35.1716 44.3333M32.6667 7.66667C32.6667 11.3486 29.6819 14.3333 26 14.3333C22.3181 14.3333 19.3333 11.3486 19.3333 7.66667C19.3333 3.98477 22.3181 1 26 1C29.6819 1 32.6667 3.98477 32.6667 7.66667ZM7.66667 19.3333C11.3486 19.3333 14.3333 22.3181 14.3333 26C14.3333 29.6819 11.3486 32.6667 7.66667 32.6667C3.98477 32.6667 1 29.6819 1 26C1 22.3181 3.98477 19.3333 7.66667 19.3333ZM32.6667 44.3333C32.6667 48.0152 29.6819 51 26 51C22.3181 51 19.3333 48.0152 19.3333 44.3333C19.3333 40.6514 22.3181 37.6667 26 37.6667C29.6819 37.6667 32.6667 40.6514 32.6667 44.3333ZM44.3333 19.3333C48.0152 19.3333 51 22.3181 51 26C51 29.6819 48.0152 32.6667 44.3333 32.6667C40.6514 32.6667 37.6667 29.6819 37.6667 26C37.6667 22.3181 40.6514 19.3333 44.3333 19.3333Z" stroke="#E43D30" stroke-width="2" stroke-linecap="round" stroke-linejoin="round"/>
</svg>
