<svg width="40" height="40" viewBox="0 0 40 40" fill="none" xmlns="http://www.w3.org/2000/svg">
<path d="M21.0751 22.7728H26.1201C27.5551 22.7728 28.4634 21.9827 28.4634 20.7144C28.4634 19.5193 27.5551 18.6576 26.1201 18.6576H21.0751C20.9084 18.6576 20.7634 18.801 20.7634 18.9443V22.4861C20.7884 22.6528 20.9068 22.7728 21.0751 22.7728ZM21.0751 30.933H26.2884C27.8901 30.933 28.8468 30.1197 28.8468 28.683C28.8468 27.4396 27.9384 26.4329 26.2884 26.4329H21.0751C20.9084 26.4329 20.7634 26.5779 20.7634 26.7212V30.6214C20.7884 30.813 20.9068 30.933 21.0751 30.933ZM24.6118 14.9725H27.0518C30.8534 14.9725 33.1018 17.3642 33.1018 19.9727C33.1018 22.0311 31.7151 23.5394 30.2318 24.2078C29.9934 24.3045 29.9934 24.6395 30.2551 24.7345C31.9768 25.4045 33.1968 27.2012 33.1968 29.3046C33.1968 32.2714 31.2134 34.6415 27.3634 34.6415H16.7934C16.6268 34.6415 16.4818 34.4981 16.4818 34.3548V23.0844L0.103412 39.4016C-0.113255 39.6183 0.0317454 40 0.341746 40H39.7268C39.7964 39.9991 39.8628 39.9711 39.912 39.9219C39.9612 39.8727 39.9893 39.8062 39.9901 39.7367V0.303674C40.0618 0.0403314 39.7268 -0.103007 39.5351 0.0869997L24.6118 14.9725Z" fill="white"/>
</svg>
