<svg width="35" height="40" viewBox="0 0 35 40" fill="none" xmlns="http://www.w3.org/2000/svg">
<path d="M30.6655 7.97179C30.6655 7.97179 30.6324 7.79331 30.5306 7.72866C30.4286 7.66401 30.3181 7.65148 30.3181 7.65148L27.122 7.41508L24.7703 5.09106C24.6811 5.02347 24.5781 4.98396 24.4734 4.96269C24.2229 4.91444 23.8861 4.97236 23.824 4.98682L22.604 5.3621C22.074 3.80698 21.35 2.69945 20.4416 2.05884C19.7699 1.58705 19.0299 1.38645 18.235 1.44623C18.068 1.22529 17.8841 1.03235 17.6827 0.870267C16.801 0.162149 15.6635 0.0521842 14.3027 0.542307C10.2219 2.01546 8.48951 7.27233 7.86495 9.89833L4.30836 10.9933C4.30836 10.9933 3.47071 11.2307 3.27419 11.4641C3.0583 11.7207 3.01699 12.4154 3.01699 12.4154L0 35.544L22.7291 39.7581L35 37.1185L30.6655 7.97179ZM18.0699 6.75816L14.1401 7.96699C14.6608 5.94007 15.6614 3.86877 17.5745 3.06128C17.9719 4.0955 18.0816 5.51073 18.0699 6.75816ZM14.769 1.81966C15.6003 1.51961 16.2389 1.53307 16.7193 1.85531C14.1551 3.01782 13.0355 5.9468 12.5523 8.45603L9.40574 9.4246C10.1084 6.89898 11.6763 2.93585 14.769 1.81966ZM16.9712 18.8647C16.7912 18.7778 16.5787 18.6852 16.3384 18.5974C16.1001 18.5087 15.8347 18.4247 15.5469 18.3553C15.262 18.2859 14.9554 18.2299 14.6322 18.1971C14.3119 18.1633 13.9756 18.1527 13.6272 18.173C13.3074 18.1923 13.0177 18.2491 12.7629 18.3398C12.5096 18.4286 12.2903 18.5521 12.1098 18.7055C11.9293 18.858 11.787 19.0403 11.6866 19.2506C11.5871 19.46 11.5284 19.6954 11.5172 19.9568C11.5085 20.1508 11.5391 20.336 11.6075 20.5163C11.6759 20.6977 11.7832 20.8752 11.9287 21.0508C12.0753 21.2283 12.2607 21.4038 12.4863 21.5833C12.7129 21.7657 12.9804 21.949 13.2889 22.141C13.7218 22.4169 14.1644 22.7275 14.5851 23.0835C15.0121 23.4453 15.4159 23.8534 15.7629 24.3184C16.1143 24.7882 16.4064 25.315 16.6034 25.9053C16.8014 26.5016 16.9029 27.1586 16.8709 27.8821C16.819 29.0659 16.5579 30.0865 16.1264 30.9325C15.7003 31.768 15.1122 32.424 14.4037 32.9006C13.7107 33.3656 12.908 33.654 12.0351 33.7698C11.1873 33.8826 10.2783 33.8325 9.34078 33.627C9.33393 33.626 9.32615 33.6231 9.31845 33.6212C9.31114 33.6202 9.30382 33.6183 9.29659 33.6174C9.28935 33.6155 9.28204 33.6134 9.27426 33.6116C9.26695 33.6106 9.25963 33.6086 9.25193 33.6068C8.8123 33.5007 8.38807 33.3637 7.98966 33.2025C7.5971 33.0453 7.22873 32.8658 6.89295 32.6719C6.562 32.48 6.26209 32.2745 6.00248 32.0613C5.74575 31.8501 5.52737 31.633 5.35606 31.414L6.39014 28.0027C6.56488 28.1493 6.77836 28.3163 7.02147 28.485C7.267 28.6577 7.54318 28.8333 7.83866 28.9983C8.13756 29.1642 8.45692 29.3176 8.78546 29.443C9.11835 29.5694 9.46097 29.6678 9.80064 29.717C10.1005 29.7604 10.3684 29.7517 10.6028 29.6997C10.8392 29.6465 11.0405 29.5492 11.2056 29.415C11.3715 29.2828 11.5001 29.114 11.5899 28.9201C11.6797 28.7243 11.7306 28.5053 11.7404 28.2708C11.751 28.0354 11.7296 27.8145 11.67 27.6003C11.6108 27.3852 11.5137 27.1777 11.3744 26.9694C11.2351 26.7619 11.0546 26.5536 10.8261 26.3385C10.5999 26.1253 10.3287 25.9053 10.0074 25.6719C9.6119 25.3786 9.24112 25.0612 8.90877 24.7158C8.58069 24.3743 8.28958 24.0048 8.05128 23.6044C7.81548 23.207 7.62962 22.7777 7.50926 22.3108C7.38938 21.8467 7.33414 21.3441 7.35733 20.7961C7.39809 19.8806 7.58208 19.0364 7.89024 18.2772C8.20174 17.5092 8.64285 16.8204 9.19607 16.2271C9.7605 15.6222 10.4467 15.1118 11.2376 14.7192C12.0515 14.3149 12.9818 14.0314 14.013 13.8973C14.4914 13.8345 14.9506 13.8055 15.3844 13.8037C15.8251 13.8018 16.239 13.8278 16.6199 13.8761C17.0062 13.9253 17.3581 13.9966 17.6701 14.0844C17.9846 14.1731 18.2573 14.2773 18.482 14.3912L16.9712 18.8647ZM19.4321 6.33949C19.4302 6.18614 19.4263 6.03078 19.4206 5.87256C19.3749 4.657 19.2089 3.63337 18.9265 2.80369C19.2341 2.83455 19.5137 2.93585 19.7689 3.11533C20.4804 3.61605 20.9928 4.62414 21.3538 5.74806L19.4321 6.33949Z" fill="white"/>
</svg>
