<svg width="38" height="40" viewBox="0 0 38 40" fill="none" xmlns="http://www.w3.org/2000/svg">
<path fill-rule="evenodd" clip-rule="evenodd" d="M20.3556 0.0500488C22.1504 0.0500488 23.6925 1.28587 24.0302 2.99499L24.1803 3.75499C24.7705 6.74226 27.9575 8.52619 30.921 7.52814L31.6753 7.27411C33.3708 6.7031 35.2457 7.3799 36.143 8.8869L37.4986 11.1631C38.3961 12.6702 38.0631 14.5828 36.7052 15.7208L36.1014 16.2269C33.728 18.2162 33.728 21.784 36.1014 23.7731L36.7052 24.2792C38.0631 25.4173 38.3961 27.3299 37.4986 28.837L36.1432 31.1132C35.2457 32.6202 33.3707 33.297 31.6751 32.7259L30.9211 32.4719C27.9575 31.4737 24.7705 33.2576 24.1803 36.2451L24.0302 37.0051C23.6925 38.7142 22.1504 39.9501 20.3556 39.9501H17.6444C15.8496 39.9501 14.3075 38.7142 13.9699 37.0053L13.8196 36.2447C13.2293 33.2576 10.0423 31.4737 7.07874 32.4719L6.32491 32.7258C4.62937 33.297 2.7544 32.6201 1.8569 31.113L0.501427 28.837C-0.396031 27.3299 -0.0631391 25.4173 1.29469 24.2792L1.89865 23.7731C4.27196 21.7838 4.27196 18.2162 1.89865 16.227L1.29469 15.7208C-0.0631391 14.5828 -0.39603 12.6702 0.501427 11.1632L1.85696 8.88695C2.75441 7.37992 4.62933 6.70312 6.32486 7.27416L7.0789 7.52812C10.0424 8.52619 13.2293 6.74238 13.8196 3.75519L13.9698 2.99486C14.3075 1.28581 15.8495 0.0500488 17.6444 0.0500488H20.3556ZM19 25.7001C22.148 25.7001 24.7 23.148 24.7 20.0001C24.7 16.852 22.148 14.3001 19 14.3001C15.8519 14.3001 13.3 16.852 13.3 20.0001C13.3 23.148 15.8519 25.7001 19 25.7001Z" fill="white"/>
</svg>
