<svg width="40" height="12" viewBox="0 0 40 12" fill="none" xmlns="http://www.w3.org/2000/svg">
<path d="M5.10458 11.1839C6.27256 11.1839 7.20987 10.6072 7.91642 9.28054L9.48816 6.33892V8.83352C9.48816 10.3043 10.4399 11.1839 11.9107 11.1839C13.0643 11.1839 13.915 10.6792 14.7369 9.28054L18.3563 3.16657C19.1494 1.82554 18.587 0.816162 16.8422 0.816162C15.905 0.816162 15.2993 1.11898 14.7514 2.14277L12.2568 6.8292V2.66188C12.2568 1.42179 11.6656 0.816162 10.5697 0.816162C9.70447 0.816162 9.01232 1.19108 8.47878 2.22929L6.12837 6.8292V2.70515C6.12837 1.37853 5.58041 0.816162 4.25379 0.816162H1.54291C0.51911 0.816162 0 1.29201 0 2.17162C0 3.05122 0.547948 3.55591 1.54291 3.55591H2.65323V8.81911C2.65323 10.3043 3.64819 11.1839 5.10458 11.1839Z" fill="white"/>
<path fill-rule="evenodd" clip-rule="evenodd" d="M23.6491 0.816162C20.6931 0.816162 18.4292 3.02238 18.4292 6.00727C18.4292 8.99216 20.7075 11.1839 23.6491 11.1839C26.5907 11.1839 28.8402 8.97771 28.8546 6.00727C28.8546 3.02238 26.5907 0.816162 23.6491 0.816162ZM23.6491 7.99718C22.5388 7.99718 21.7745 7.16085 21.7745 6.00727C21.7745 4.8537 22.5388 4.00292 23.6491 4.00292C24.7594 4.00292 25.5237 4.8537 25.5237 6.00727C25.5237 7.16085 24.7738 7.99718 23.6491 7.99718Z" fill="white"/>
<path fill-rule="evenodd" clip-rule="evenodd" d="M29.589 6.00727C29.589 3.02238 31.8529 0.816162 34.7945 0.816162C37.7361 0.816162 40 3.0368 40 6.00727C40 8.97771 37.7361 11.1839 34.7945 11.1839C31.8529 11.1839 29.589 8.99216 29.589 6.00727ZM32.9344 6.00727C32.9344 7.16085 33.6698 7.99718 34.7945 7.99718C35.9048 7.99718 36.6691 7.16085 36.6691 6.00727C36.6691 4.8537 35.9048 4.00292 34.7945 4.00292C33.6842 4.00292 32.9344 4.8537 32.9344 6.00727Z" fill="white"/>
</svg>
