<svg width="40" height="40" viewBox="0 0 40 40" fill="none" xmlns="http://www.w3.org/2000/svg">
<path d="M2.25757 37.9111L15.1356 25.033M15.1356 25.033C13.9502 23.8478 13.9505 21.9258 15.1359 20.7404C16.3213 19.5549 18.2433 19.5549 19.4287 20.7404C20.6139 21.9258 20.6139 23.8478 19.4287 25.033C18.2433 26.2184 16.3209 26.2184 15.1356 25.033ZM31.591 18.5942L37.3147 12.8705C38.8951 11.29 38.8951 8.7275 37.3147 7.14698L33.0221 2.85432C31.4414 1.27382 28.879 1.27382 27.2984 2.85432L21.5749 8.57787M31.3536 19.3061L27.4981 30.8724C27.3728 31.2482 27.0721 31.5394 26.6923 31.6523L3.06211 38.6774C2.12055 38.9572 1.25363 38.0616 1.56425 37.1297L9.23644 14.1132C9.34802 13.7784 9.59971 13.5088 9.92599 13.3744L20.8262 8.88607C21.2794 8.69945 21.8005 8.80365 22.1471 9.15022L31.0602 18.0636C31.3854 18.3888 31.4991 18.8698 31.3536 19.3061Z" stroke="#E43D30" stroke-width="2" stroke-linecap="round" stroke-linejoin="round"/>
</svg>
