<svg width="40" height="40" viewBox="0 0 40 40" fill="none" xmlns="http://www.w3.org/2000/svg">
<path d="M26.5802 30.7269C29.4613 31.5248 31.3397 32.8327 31.3397 34.3109C31.3397 36.741 26.2628 38.711 20.0001 38.711C13.7373 38.711 8.66041 36.741 8.66041 34.3109C8.66041 32.7517 10.7505 31.3819 13.9028 30.6003M26.1812 13.1875C26.1812 16.6013 23.4138 19.3687 20 19.3687C16.5862 19.3687 13.8188 16.6013 13.8188 13.1875C13.8188 9.77371 16.5862 7.00628 20 7.00628C23.4138 7.00628 26.1812 9.77371 26.1812 13.1875ZM31.5 13.1875C31.5 19.5388 26.266 25.1431 20 33.0607C13.7287 25.143 8.5 19.5388 8.5 13.1875C8.5 6.83623 13.6487 1.6875 20 1.6875C26.3513 1.6875 31.5 6.83623 31.5 13.1875Z" stroke="#E63E31" stroke-width="2" stroke-linecap="round" stroke-linejoin="round"/>
</svg>
