<svg width="46" height="52" viewBox="0 0 46 52" fill="none" xmlns="http://www.w3.org/2000/svg">
<path d="M0.29216 23.0281C-0.097959 23.419 -0.097302 24.0522 0.293628 24.4423C0.684557 24.8324 1.31772 24.8318 1.70784 24.4408L0.29216 23.0281ZM17.3903 7.31014L18.0981 6.60377C17.9105 6.41578 17.6558 6.31014 17.3903 6.31014C17.1247 6.31014 16.87 6.41579 16.6824 6.60377L17.3903 7.31014ZM28.0466 17.9886L27.3388 18.695C27.5264 18.8829 27.7811 18.9886 28.0466 18.9886C28.3122 18.9886 28.5669 18.8829 28.7545 18.695L28.0466 17.9886ZM46 0.999088C45.9994 0.446803 45.5513 -0.000448585 44.999 0.000122607L35.999 0.00943142C35.4467 0.0100027 34.9994 0.458181 35 1.01047C35.0006 1.56275 35.4488 2.01 36.001 2.00943L44.001 2.00116L44.0093 10.0012C44.0099 10.5534 44.4581 11.0007 45.0103 11.0001C45.5626 10.9995 46.0099 10.5514 46.0093 9.99908L46 0.999088ZM2 32.1902C2 31.6379 1.55228 31.1902 1 31.1902C0.447715 31.1902 0 31.6379 0 32.1902H2ZM0 51.0001C0 51.5524 0.447715 52.0001 1 52.0001C1.55228 52.0001 2 51.5524 2 51.0001H0ZM46 22.3046C46 21.7523 45.5523 21.3046 45 21.3046C44.4477 21.3046 44 21.7523 44 22.3046H46ZM44 51.0001C44 51.5524 44.4477 52.0001 45 52.0001C45.5523 52.0001 46 51.5524 46 51.0001H44ZM15.0038 22.3045C15.0038 21.7522 14.5561 21.3045 14.0038 21.3045C13.4516 21.3045 13.0038 21.7522 13.0038 22.3045H15.0038ZM13.0038 51.0001C13.0038 51.5524 13.4516 52.0001 14.0038 52.0001C14.5561 52.0001 15.0038 51.5524 15.0038 51.0001H13.0038ZM30.76 26.6677C30.76 26.1155 30.3123 25.6677 29.76 25.6677C29.2077 25.6677 28.76 26.1155 28.76 26.6677H30.76ZM28.76 51.0001C28.76 51.5524 29.2077 52.0001 29.76 52.0001C30.3123 52.0001 30.76 51.5524 30.76 51.0001H28.76ZM1.70784 24.4408L18.0981 8.01652L16.6824 6.60377L0.29216 23.0281L1.70784 24.4408ZM16.6824 8.01652L27.3388 18.695L28.7545 17.2822L18.0981 6.60377L16.6824 8.01652ZM28.7545 18.695L45.7078 1.7065L44.2922 0.293747L27.3388 17.2822L28.7545 18.695ZM0 32.1902V51.0001H2V32.1902H0ZM44 22.3046V51.0001H46V22.3046H44ZM13.0038 22.3045V51.0001H15.0038V22.3045H13.0038ZM28.76 26.6677V51.0001H30.76V26.6677H28.76Z" fill="#E43D30"/>
</svg>
