<svg width="52" height="52" viewBox="0 0 52 52" fill="none" xmlns="http://www.w3.org/2000/svg">
<path d="M10.5023 32.1522C7.26006 33.9826 4.63838 36.7396 2.9733 40.0698C1.30823 43.3999 0.675647 47.1515 1.15665 50.8435C4.84867 51.3245 8.60021 50.6919 11.9304 49.0268C15.2605 47.3617 18.0175 44.7401 19.8479 41.4978M1.15665 29.037C6.71136 29.6971 11.8825 32.2068 15.8379 36.1622C19.7933 40.1177 22.303 45.2888 22.9631 50.8435C25.7167 49.256 28.02 46.9925 29.6553 44.2671C31.2906 41.5416 32.2038 38.4441 32.3087 35.2674C37.5395 33.4273 42.1072 30.0775 45.4342 25.6415C48.7612 21.2055 50.6981 15.8825 51 10.3458C51 7.86714 50.0154 5.49004 48.2627 3.73739C46.5101 1.98475 44.133 1.00012 41.6544 1.00012C36.1176 1.30201 30.7947 3.23891 26.3587 6.56592C21.9227 9.89292 18.5728 14.4606 16.7327 19.6914C13.556 19.7963 10.4585 20.7095 7.73306 22.3448C5.00758 23.9801 2.74413 26.2834 1.15665 29.037ZM32.3087 16.5762C32.3087 17.4024 32.637 18.1947 33.2212 18.779C33.8054 19.3632 34.5977 19.6914 35.424 19.6914C36.2502 19.6914 37.0425 19.3632 37.6267 18.779C38.211 18.1947 38.5392 17.4024 38.5392 16.5762C38.5392 15.75 38.211 14.9576 37.6267 14.3734C37.0425 13.7892 36.2502 13.461 35.424 13.461C34.5977 13.461 33.8054 13.7892 33.2212 14.3734C32.637 14.9576 32.3087 15.75 32.3087 16.5762Z" stroke="#E43D30" stroke-width="2" stroke-linecap="round" stroke-linejoin="round"/>
</svg>
