<svg width="47" height="50" viewBox="0 0 47 50" fill="none" xmlns="http://www.w3.org/2000/svg">
<path d="M38.0186 38.1131L35.8131 31.3726L33.6077 38.1131H26.4706L32.2446 42.279L30.0391 49.0196L35.8131 44.8537L41.5872 49.0196L39.3817 42.279L45.1557 38.1131H38.0186Z" stroke="#E43D30" stroke-width="1.71999" stroke-linecap="round" stroke-linejoin="round"/>
<path d="M8.82353 11.0262C8.82353 13.5605 9.83027 15.9909 11.6223 17.7829C13.4143 19.5749 15.8447 20.5817 18.379 20.5817C20.9133 20.5817 23.3438 19.5749 25.1358 17.7829C26.9278 15.9909 27.9345 13.5605 27.9345 11.0262C27.9345 8.49191 26.9278 6.06144 25.1358 4.26944C23.3438 2.47744 20.9133 1.4707 18.379 1.4707C15.8447 1.4707 13.4143 2.47744 11.6223 4.26944C9.83027 6.06144 8.82353 8.49191 8.82353 11.0262Z" stroke="#E43D30" stroke-width="1.71999" stroke-linecap="round" stroke-linejoin="round"/>
<path d="M0.980392 48.7702V34.6758C0.980392 32.1416 1.98713 29.7111 3.77913 27.9191C5.57113 26.1271 8.0016 25.1204 10.5359 25.1204H29.2046C31.7389 25.1204 34.1693 26.1271 35.9613 27.9191" stroke="#E43D30" stroke-width="1.71999" stroke-linecap="round" stroke-linejoin="round"/>
</svg>
