<svg width="52" height="52" viewBox="0 0 52 52" fill="none" xmlns="http://www.w3.org/2000/svg">
<path d="M32.7032 19.5802C32.7032 15.9335 29.7928 12.9766 26.2032 12.9766C22.6137 12.9766 19.7033 15.9335 19.7033 19.5802C19.7033 23.227 22.6137 26.1838 26.2032 26.1838C29.7928 26.1838 32.7032 29.1414 32.7032 32.7882C32.7032 36.4349 29.7928 39.3918 26.2032 39.3918C22.6137 39.3918 19.7032 36.4349 19.7032 32.7882M26.2019 12.9876V10.1841M26.2019 42.1841V39.3806M51 26C51 39.8071 39.8071 51 26 51C12.1929 51 1 39.8071 1 26C1 12.1929 12.1929 1 26 1C39.8071 1 51 12.1929 51 26Z" stroke="#E43D30" stroke-width="1.9593" stroke-linecap="round" stroke-linejoin="round"/>
</svg>
