<svg width="40" height="34" viewBox="0 0 40 34" fill="none" xmlns="http://www.w3.org/2000/svg">
<path d="M1.46634 1.72266H7.69958L9.5357 6.62617M9.5357 6.62617L14.764 20.5888M9.5357 6.62617H30.9706M14.764 20.5888H26.0671M14.764 20.5888L11.4396 26.5727H33.6301M30.9706 6.62617H38.5337L33.6301 20.5888H26.0671M30.9706 6.62617L26.0671 20.5888M20.5401 29.6477C20.5401 31.3459 19.1634 32.7227 17.4651 32.7227C15.7668 32.7227 14.3901 31.3459 14.3901 29.6477C14.3901 27.9494 15.7668 26.5727 17.4651 26.5727C19.1634 26.5727 20.5401 27.9494 20.5401 29.6477ZM31.2567 29.6477C31.2567 31.3459 29.88 32.7227 28.1817 32.7227C26.4835 32.7227 25.1067 31.3459 25.1067 29.6477C25.1067 27.9494 26.4835 26.5727 28.1817 26.5727C29.88 26.5727 31.2567 27.9494 31.2567 29.6477Z" stroke="#E63E31" stroke-width="2" stroke-linecap="round" stroke-linejoin="round"/>
</svg>
