<svg width="40" height="40" viewBox="0 0 40 40" fill="none" xmlns="http://www.w3.org/2000/svg">
<path d="M26.576 30.7436C29.4553 31.541 31.3325 32.8481 31.3325 34.3253C31.3325 36.7539 26.2588 38.7227 20.0001 38.7227C13.7413 38.7227 8.66762 36.7539 8.66762 34.3253C8.66762 32.7671 10.7564 31.3981 13.9067 30.6171M26.1773 13.2153C26.1773 16.627 23.4116 19.3926 20 19.3926C16.5884 19.3926 13.8227 16.627 13.8227 13.2153C13.8227 9.80372 16.5884 7.03805 20 7.03805C23.4116 7.03805 26.1773 9.80372 26.1773 13.2153ZM31.4927 13.2153C31.4927 19.5626 26.2621 25.1633 20 33.0759C13.7327 25.1633 8.50731 19.5626 8.50731 13.2153C8.50731 6.86811 13.6528 1.72266 20 1.72266C26.3472 1.72266 31.4927 6.86811 31.4927 13.2153Z" stroke="#E43D30" stroke-width="2" stroke-linecap="round" stroke-linejoin="round"/>
</svg>
