<svg width="44" height="40" viewBox="0 0 44 40" fill="none" xmlns="http://www.w3.org/2000/svg">
<path d="M19.1152 19.1487C16.794 19.1487 14.912 17.2667 14.912 14.9455C14.912 12.6242 16.794 10.7422 19.1152 10.7422C21.4364 10.7422 23.3185 12.6242 23.3185 14.9455" stroke="#E43D30" stroke-width="1.9593" stroke-linecap="round" stroke-linejoin="round"/>
<path d="M19.1152 19.1494C21.4364 19.1494 23.3185 21.0315 23.3185 23.3527C23.3185 25.6739 21.4364 27.556 19.1152 27.556C16.794 27.556 14.912 25.6739 14.912 23.3527" stroke="#E43D30" stroke-width="1.9593" stroke-linecap="round" stroke-linejoin="round"/>
<path d="M19.1143 10.7493V8.96484" stroke="#E43D30" stroke-width="1.9593" stroke-linecap="round" stroke-linejoin="round"/>
<path d="M19.1143 29.3333V27.5488" stroke="#E43D30" stroke-width="1.9593" stroke-linecap="round" stroke-linejoin="round"/>
<path d="M36.1629 22.7739C36.4103 21.6047 36.5404 20.3921 36.5404 19.1491C36.5404 9.52476 28.7383 1.72266 19.114 1.72266C9.48957 1.72266 1.68747 9.52476 1.68747 19.1491C1.68747 28.7735 9.48957 36.5756 19.114 36.5756C21.919 36.5756 24.5692 35.9129 26.9166 34.7355" stroke="#E43D30" stroke-width="1.9593" stroke-linecap="round" stroke-linejoin="round"/>
<path d="M30.8039 36.406C30.8545 36.6334 30.9734 36.8398 31.1447 36.9977C31.316 37.1555 31.5315 37.2572 31.7622 37.2891C31.9929 37.321 32.2279 37.2816 32.4356 37.1761C32.6433 37.0707 32.8137 36.9042 32.9241 36.6991L34.9131 33.7557L39.5827 38.4254C39.677 38.5197 39.7889 38.5945 39.9121 38.6455C40.0353 38.6965 40.1674 38.7228 40.3007 38.7228C40.4341 38.7228 40.5661 38.6965 40.6893 38.6455C40.8125 38.5945 40.9244 38.5197 41.0187 38.4254L42.0151 37.429C42.1094 37.3347 42.1842 37.2228 42.2352 37.0996C42.2862 36.9764 42.3125 36.8444 42.3125 36.711C42.3125 36.5777 42.2862 36.4456 42.2352 36.3224C42.1842 36.1992 42.1094 36.0873 42.0151 35.993L37.3454 31.3233L40.3079 29.3344C40.513 29.224 40.6794 29.0534 40.7848 28.8457C40.8902 28.6379 40.9295 28.4029 40.8975 28.1722C40.8655 27.9414 40.7637 27.726 40.6057 27.5547C40.4478 27.3835 40.2412 27.2647 40.0138 27.2142L27.0887 23.499L30.8039 36.406Z" stroke="#E43D30" stroke-width="1.9593" stroke-linecap="round" stroke-linejoin="round"/>
</svg>
