<svg width="40" height="38" viewBox="0 0 40 38" fill="none" xmlns="http://www.w3.org/2000/svg">
<g clip-path="url(#clip0_4035_1844)">
<path d="M23.6262 35.2417V31.0147C24.4612 30.7657 25.2624 30.4292 26.0295 30.0186L28.331 32.334C28.6841 32.6907 29.2612 32.6907 29.6142 32.334L33.4636 28.4705C33.8167 28.1138 33.8167 27.5349 33.4636 27.1849L31.1621 24.8695C31.5763 24.1022 31.9089 23.2945 32.1533 22.4532H35.4121C35.9145 22.4532 36.3219 22.0426 36.3219 21.5445V16.0792C36.3219 15.5744 35.9145 15.1705 35.4121 15.1705H32.1533C31.9089 14.3359 31.5763 13.5215 31.1621 12.7542L33.4636 10.4388C33.8167 10.082 33.8167 9.5032 33.4636 9.1532L29.6142 5.28974C29.2612 4.93301 28.6841 4.93301 28.331 5.28974L26.0295 7.60512C25.2624 7.18782 24.4612 6.85801 23.6262 6.60897V3.30416C23.6262 2.79935 23.2188 2.39551 22.7164 2.39551H17.2783C16.7759 2.39551 16.3686 2.80608 16.3686 3.30416V6.58205C15.5335 6.83108 14.7324 7.16762 13.9652 7.5782L11.6637 5.26282C11.3107 4.90608 10.7336 4.90608 10.3806 5.26282L6.53112 9.12628C6.17809 9.48301 6.17809 10.0619 6.53112 10.4119L8.83264 12.7272C8.41851 13.4945 8.08584 14.3022 7.84143 15.1436H4.58943C4.08704 15.1436 3.67969 15.5542 3.67969 16.0522V21.5244C3.69327 22.0224 4.09382 22.4195 4.58943 22.433H7.84822C8.09263 23.2676 8.42529 24.082 8.83943 24.8494L6.53791 27.1647C6.18488 27.5215 6.18488 28.1003 6.53791 28.4503L10.3874 32.3138C10.7404 32.6705 11.3175 32.6705 11.6705 32.3138L13.972 29.9984C14.7392 30.4157 15.5403 30.7455 16.3754 30.9945V35.2215C16.3754 35.6657 16.7352 36.0292 17.1833 36.0292H22.8251C23.2663 36.0292 23.6262 35.6657 23.6262 35.2215V35.2417Z" stroke="#E43D30" stroke-width="2" stroke-linecap="round" stroke-linejoin="round"/>
<path d="M25.8381 24.6677C22.6133 27.9052 17.3857 27.9052 14.1608 24.6677C10.936 21.4302 10.936 16.1734 14.1608 12.9359C17.3857 9.69844 22.6133 9.69844 25.8381 12.9359C29.063 16.1734 29.063 21.4302 25.8381 24.6677Z" stroke="#E43D30" stroke-width="2" stroke-linecap="round" stroke-linejoin="round"/>
</g>
<defs>
<clipPath id="clip0_4035_1844">
<rect width="36" height="37" fill="white" transform="translate(2 0.722656)"/>
</clipPath>
</defs>
</svg>
