<svg width="38" height="39" viewBox="0 0 38 39" fill="none" xmlns="http://www.w3.org/2000/svg">
<path d="M23.0634 9.51168L19.9179 12.5777L16.7724 9.51168C16.5649 9.31298 16.4015 9.07415 16.2924 8.81024C16.1833 8.54633 16.1309 8.26305 16.1385 7.97823C16.1462 7.69341 16.2136 7.41324 16.3367 7.15534C16.4597 6.89744 16.6357 6.66741 16.8535 6.47974C17.0713 6.29207 17.3263 6.15081 17.6023 6.06487C17.8783 5.97893 18.1694 5.95016 18.4572 5.98038C18.7451 6.01061 19.0235 6.09916 19.2749 6.24047C19.5262 6.38178 19.7452 6.57279 19.9179 6.80146C20.0913 6.57445 20.3105 6.38511 20.5617 6.2453C20.8129 6.10549 21.0907 6.01821 21.3778 5.98894C21.6648 5.95966 21.9549 5.98901 22.2299 6.07515C22.5049 6.16129 22.7589 6.30237 22.9759 6.48956C23.193 6.67674 23.3684 6.90601 23.4913 7.163C23.6142 7.41999 23.6819 7.69918 23.6901 7.98309C23.6983 8.267 23.6468 8.54952 23.539 8.81297C23.4312 9.07642 23.2692 9.31513 23.0634 9.51416M19.9144 15.8847C16.0036 15.8847 12.8333 12.7138 12.8333 8.80369C12.8333 4.89356 16.0036 1.72266 19.9144 1.72266C23.8251 1.72266 26.9954 4.89356 26.9954 8.80369C26.9954 12.7138 23.8251 15.8847 19.9144 15.8847Z" stroke="#E43D30" stroke-width="1.64444" stroke-linecap="round" stroke-linejoin="round"/>
<path d="M12.2369 34.4462L9.8996 36.7835C9.50722 37.1758 8.87598 37.1758 8.4836 36.7835L1.61683 29.9167C1.52347 29.8239 1.44937 29.7136 1.39881 29.5921C1.34825 29.4706 1.32222 29.3403 1.32222 29.2087C1.32222 29.0771 1.34825 28.9468 1.39881 28.8253C1.44937 28.7038 1.52347 28.5934 1.61683 28.5007L3.95409 26.1634C4.34648 25.771 4.97771 25.771 5.3701 26.1634L12.2369 33.0302C12.6292 33.4141 12.6292 34.0538 12.2369 34.4462Z" stroke="#E43D30" stroke-width="1.64444" stroke-linecap="round" stroke-linejoin="round"/>
<path d="M5.54092 26.3257L11.7338 20.1328H23.0618C24.4011 20.1328 25.4929 21.2161 25.4929 22.5639C25.4929 23.9031 24.4096 24.995 23.0618 24.995H16.9031" stroke="#E43D30" stroke-width="1.64444" stroke-linecap="round" stroke-linejoin="round"/>
<path d="M12.0665 32.8517L25.1773 31.103L36.2751 19.9712C36.7585 19.4867 37.0299 18.8302 37.0299 18.1457C37.0299 17.4613 36.7585 16.8048 36.2751 16.3203C35.7905 15.8369 35.134 15.5654 34.4496 15.5654C33.7652 15.5654 33.1087 15.8369 32.6242 16.3203L28.5382 20.4062" stroke="#E43D30" stroke-width="1.64444" stroke-linecap="round" stroke-linejoin="round"/>
</svg>
