<svg width="28" height="28" viewBox="0 0 28 28" fill="none" xmlns="http://www.w3.org/2000/svg">
<g clip-path="url(#clip0_9_363)">
<path d="M16.4312 25.9V22.76C17.0462 22.575 17.6362 22.325 18.2012 22.02L19.8962 23.74C20.1562 24.005 20.5812 24.005 20.8412 23.74L23.6762 20.87C23.9362 20.605 23.9362 20.175 23.6762 19.915L21.9812 18.195C22.2862 17.625 22.5312 17.025 22.7112 16.4H25.1112C25.4812 16.4 25.7812 16.095 25.7812 15.725V11.665C25.7812 11.29 25.4812 10.99 25.1112 10.99H22.7112C22.5312 10.37 22.2862 9.765 21.9812 9.195L23.6762 7.475C23.9362 7.21 23.9362 6.78 23.6762 6.52L20.8412 3.65C20.5812 3.385 20.1562 3.385 19.8962 3.65L18.2012 5.37C17.6362 5.06 17.0462 4.815 16.4312 4.63V2.175C16.4312 1.8 16.1312 1.5 15.7612 1.5H11.7562C11.3862 1.5 11.0862 1.805 11.0862 2.175V4.61C10.4712 4.795 9.88121 5.045 9.31621 5.35L7.62121 3.63C7.36121 3.365 6.93621 3.365 6.67621 3.63L3.84121 6.5C3.58121 6.765 3.58121 7.195 3.84121 7.455L5.53621 9.175C5.23121 9.745 4.98621 10.345 4.80621 10.97H2.41121C2.04121 10.97 1.74121 11.275 1.74121 11.645V15.71C1.75121 16.08 2.04621 16.375 2.41121 16.385H4.81121C4.99121 17.005 5.23621 17.61 5.54121 18.18L3.84621 19.9C3.58621 20.165 3.58621 20.595 3.84621 20.855L6.68121 23.725C6.94121 23.99 7.36621 23.99 7.62621 23.725L9.32121 22.005C9.88621 22.315 10.4762 22.56 11.0912 22.745V25.885C11.0912 26.215 11.3562 26.485 11.6862 26.485H15.8412C16.1662 26.485 16.4312 26.215 16.4312 25.885V25.9Z" stroke="#E43D30" strokeWidth="2" strokeLinecap="round" strokeLinejoin="round"/>
<path d="M18.0619 18.0451C15.6869 20.4501 11.8369 20.4501 9.46191 18.0451C7.08691 15.6401 7.08691 11.7351 9.46191 9.33012C11.8369 6.92512 15.6869 6.92512 18.0619 9.33012C20.4369 11.7351 20.4369 15.6401 18.0619 18.0451Z" stroke="#E43D30" strokeWidth="2" strokeLinecap="round" strokeLinejoin="round"/>
</g>
<defs>
<clipPath id="clip0_9_363">
<rect width="27" height="28" fill="white" transform="translate(0.241211)"/>
</clipPath>
</defs>
</svg>
