<svg width="26" height="27" viewBox="0 0 26 27" fill="none" xmlns="http://www.w3.org/2000/svg">
<path d="M9.64376 10.9994C12.5385 10.9994 14.8935 8.64443 14.8935 5.74972C14.8935 2.85501 12.5385 0.5 9.64376 0.5C6.74905 0.5 4.39404 2.85501 4.39404 5.74972C4.39404 8.64443 6.74905 10.9994 9.64376 10.9994Z" stroke="#E43D30"/>
<path d="M9.09014 22.6433H0.5V18.4821C0.5 16.1874 2.36657 14.3208 4.66122 14.3208H11.3042" stroke="#E43D30"/>
<path d="M18.5018 21.5357C17.4284 21.5357 16.5547 20.6626 16.5547 19.5887C16.5547 18.5148 17.4279 17.6416 18.5018 17.6416C19.5757 17.6416 20.4489 18.5148 20.4489 19.5887C20.4489 20.6626 19.5757 21.5357 18.5018 21.5357Z" stroke="#E43D30"/>
<path d="M24.6932 21.2028L23.4151 20.2839L23.4372 20.1144C23.4608 19.9343 23.4723 19.7578 23.4723 19.5898C23.4723 19.4228 23.4603 19.2462 23.4372 19.0651L23.4151 18.8957L24.6927 17.9767C25.0362 17.7292 25.1358 17.266 24.9241 16.8993L24.0414 15.3702C23.8955 15.1167 23.6233 14.9592 23.3316 14.9592C23.2149 14.9592 23.1008 14.9839 22.9931 15.0322L21.548 15.6841L21.4132 15.5855C21.126 15.3752 20.8218 15.1981 20.5084 15.0593L20.3564 14.992L20.1989 13.4191C20.1572 12.9976 19.8061 12.6797 19.3821 12.6797H17.6162C17.1922 12.6797 16.8411 12.9971 16.7993 13.4186L16.6424 14.9909L16.4904 15.0583C16.1745 15.1992 15.8698 15.3762 15.5856 15.5845L15.4507 15.683L14.0056 15.0311C13.897 14.9823 13.7829 14.9577 13.6662 14.9577C13.3755 14.9577 13.1038 15.1157 12.9574 15.3697L12.0752 16.8987C11.8634 17.2654 11.963 17.7287 12.3065 17.9762L13.5847 18.8951L13.5625 19.0646C13.5389 19.2447 13.5272 19.4212 13.5272 19.5892C13.5272 19.7557 13.5394 19.9323 13.5625 20.1139L13.5842 20.2834L12.3065 21.2024C11.963 21.4498 11.8634 21.9131 12.0752 22.2797L12.9579 23.8093C13.1042 24.0639 13.376 24.2218 13.6667 24.2218C13.7834 24.2218 13.897 24.1971 14.0056 24.1474L15.4507 23.4955L15.5856 23.5941C15.8703 23.8028 16.1745 23.9799 16.4904 24.1202L16.6424 24.1876L16.7993 25.7605C16.8411 26.182 17.1922 26.4998 17.6162 26.4998H19.3821C19.8061 26.4998 20.1572 26.1825 20.1989 25.761L20.3573 24.1876L20.5094 24.1202C20.8253 23.9794 21.1295 23.8023 21.4142 23.5941L21.549 23.4955L22.9941 24.1474C23.1028 24.1961 23.2168 24.2213 23.3335 24.2213C23.6238 24.2213 23.8955 24.0634 24.0423 23.8093L24.9236 22.2813C25.1353 21.9146 24.9842 21.4125 24.6406 21.1651L24.6932 21.2028Z" stroke="#E43D30"/>
</svg>
