<svg width="32" height="32" viewBox="0 0 32 32" fill="none" xmlns="http://www.w3.org/2000/svg">
<path d="M6 31H16M11 31V1M11 1L1 11H31M11 1L27.6667 11M24.3333 11V17.6667C24.9926 17.6667 25.6371 17.8622 26.1852 18.2284C26.7334 18.5947 27.1606 19.1153 27.4129 19.7244C27.6652 20.3335 27.7312 21.0037 27.6026 21.6503C27.474 22.2969 27.1565 22.8908 26.6904 23.357C26.2242 23.8232 25.6302 24.1407 24.9836 24.2693C24.337 24.3979 23.6668 24.3319 23.0577 24.0796C22.4486 23.8273 21.928 23.4001 21.5618 22.8519C21.1955 22.3037 21 21.6593 21 21" stroke="#E63E31" stroke-width="2" stroke-linecap="round" stroke-linejoin="round"/>
</svg>
