<svg width="28" height="29" viewBox="0 0 28 29" fill="none" xmlns="http://www.w3.org/2000/svg">
<path d="M14.5094 28.0599C11.8294 28.0599 9.45938 27.5399 7.39938 26.4999C5.35938 25.4599 3.75937 23.9599 2.59938 21.9999C1.43938 20.0199 0.859375 17.6199 0.859375 14.7999V14.1699C0.859375 11.3699 1.40937 8.98994 2.50937 7.02994C3.60937 5.04994 5.13938 3.53994 7.09938 2.49994C9.07938 1.45994 11.3694 0.939941 13.9694 0.939941H14.5994C17.0794 0.939941 19.2594 1.44994 21.1394 2.46994C23.0194 3.46994 24.4894 4.89994 25.5494 6.75994C26.6094 8.61994 27.1394 10.8499 27.1394 13.4499V14.4699C27.1394 17.0099 26.6694 18.9099 25.7294 20.1699C24.8094 21.4299 23.4994 22.0599 21.7994 22.0599H20.8094C19.9894 22.0599 19.3694 21.8799 18.9494 21.5199C18.5294 21.1399 18.3194 20.6399 18.3194 20.0199V19.7199H17.8994C17.7394 20.1399 17.4794 20.5599 17.1194 20.9799C16.7794 21.3799 16.3094 21.7199 15.7094 21.9999C15.1294 22.2799 14.3794 22.4199 13.4594 22.4199C12.2794 22.4199 11.2194 22.0999 10.2794 21.4599C9.33938 20.8199 8.59938 19.9399 8.05937 18.8199C7.53937 17.6999 7.27938 16.4499 7.27938 15.0699V14.5299C7.27938 13.1099 7.53937 11.8499 8.05937 10.7499C8.57938 9.64994 9.29938 8.77994 10.2194 8.13994C11.1394 7.49994 12.1894 7.17994 13.3694 7.17994C14.2694 7.17994 15.0094 7.30994 15.5894 7.56994C16.1694 7.80994 16.6294 8.11994 16.9694 8.49994C17.3094 8.87994 17.5794 9.25994 17.7794 9.63994H18.1994V7.53994H20.5094V19.1799C20.5094 19.4799 20.5594 19.6899 20.6594 19.8099C20.7794 19.9299 20.9794 19.9899 21.2594 19.9899H21.6194C22.7394 19.9899 23.5394 19.5599 24.0194 18.6999C24.5194 17.8199 24.7694 16.3699 24.7694 14.3499V13.5099C24.7694 11.2899 24.3594 9.40994 23.5394 7.86994C22.7194 6.30994 21.5494 5.11994 20.0294 4.29994C18.5094 3.47994 16.6894 3.06994 14.5694 3.06994H14.0594C11.8794 3.06994 9.97938 3.48994 8.35938 4.32994C6.73938 5.16994 5.47938 6.41994 4.57938 8.07994C3.67937 9.73994 3.22937 11.7999 3.22937 14.2599V14.7399C3.22937 17.1799 3.69937 19.2399 4.63937 20.9199C5.59938 22.5799 6.93938 23.8299 8.65938 24.6699C10.3794 25.5099 12.3694 25.9299 14.6294 25.9299H20.5094V28.0599H14.5094ZM13.9094 20.2899C15.1694 20.2899 16.1994 19.8199 16.9994 18.8799C17.7994 17.9399 18.1994 16.6299 18.1994 14.9499V14.6499C18.1994 12.9699 17.7994 11.6599 16.9994 10.7199C16.1994 9.75994 15.1694 9.27994 13.9094 9.27994C12.6494 9.27994 11.6194 9.75994 10.8194 10.7199C10.0194 11.6799 9.61938 12.9799 9.61938 14.6199V14.9799C9.61938 16.5999 10.0194 17.8899 10.8194 18.8499C11.6194 19.8099 12.6494 20.2899 13.9094 20.2899Z" fill="#E63E31"/>
</svg>
