<svg width="36" height="30" viewBox="0 0 36 30" fill="none" xmlns="http://www.w3.org/2000/svg">
<path d="M1 1H6.71744L8.40162 5.42898M8.40162 5.42898L13.1973 18.0404M8.40162 5.42898H28.0628M13.1973 18.0404H23.565M13.1973 18.0404L10.1479 23.4452H30.5022M28.0628 5.42898H35L30.5022 18.0404H23.565M28.0628 5.42898L23.565 18.0404M18.4954 26.2226C18.4954 27.7565 17.2326 29 15.6749 29C14.1171 29 12.8543 27.7565 12.8543 26.2226C12.8543 24.6887 14.1171 23.4452 15.6749 23.4452C17.2326 23.4452 18.4954 24.6887 18.4954 26.2226ZM28.3252 26.2226C28.3252 27.7565 27.0624 29 25.5047 29C23.9469 29 22.6841 27.7565 22.6841 26.2226C22.6841 24.6887 23.9469 23.4452 25.5047 23.4452C27.0624 23.4452 28.3252 24.6887 28.3252 26.2226Z" stroke="#E63E31" stroke-width="2" stroke-linecap="round" stroke-linejoin="round"/>
</svg>
