<svg width="52" height="52" viewBox="0 0 52 52" fill="none" xmlns="http://www.w3.org/2000/svg">
<path d="M40.5833 24.9583V39.5417M31.2083 1H10.375C5.20625 1 1 5.20625 1 10.375V41.625C1 46.7937 5.20625 51 10.375 51H41.625C46.7937 51 51 46.7937 51 41.625V20.7917M32.2021 39.2333L24.3167 14.0021C23.825 12.4271 22.4438 11.4083 20.7938 11.4083C19.1458 11.4083 17.7604 12.4271 17.2687 14.0021L9.38333 39.2333M29.125 30.1667H12.4583M31.8812 9.78542L37.7771 7.55417L40.1375 1.65417C40.4542 0.8625 41.7542 0.8625 42.0729 1.65417L44.4375 7.5625L50.3458 9.92708C50.7417 10.0854 51 10.4687 51 10.8937C51 11.3187 50.7396 11.7021 50.3458 11.8604L44.4375 14.225L42.0729 20.1333C41.9146 20.5292 41.5312 20.7875 41.1062 20.7875C40.6812 20.7875 40.2979 20.5271 40.1396 20.1333L37.7708 14.2125L31.8479 11.7167C31.4562 11.55 31.2021 11.1625 31.2104 10.7375C31.2187 10.3125 31.4854 9.93333 31.8833 9.78333L31.8812 9.78542Z" stroke="#E43D30" stroke-width="2"/>
</svg>
