<svg width="52" height="52" viewBox="0 0 52 52" fill="none" xmlns="http://www.w3.org/2000/svg">
<path d="M19.3589 37.7191C9.23527 37.7191 1 29.4827 1 19.359C1 9.23538 9.23617 1 19.3589 1C29.4817 1 37.7188 9.23628 37.7188 19.359C37.7188 23.0877 36.6063 26.6784 34.5014 29.7418C33.2152 31.6147 31.6136 33.2169 29.7407 34.5031C26.6782 36.6071 23.0876 37.7191 19.3589 37.7191Z" stroke="#E43D30" stroke-width="2"/>
<path d="M19.3579 7.28833C26.0138 7.28833 31.4286 12.703 31.4286 19.3589" stroke="#E43D30" stroke-width="2"/>
<path d="M47.4668 51C46.5615 51 45.6575 50.6552 44.9679 49.9665L35.8308 40.8294C35.1267 40.1244 35.1267 38.9791 35.8308 38.2742L38.2742 35.8308C38.9791 35.1267 40.1246 35.1267 40.8295 35.8308L49.9666 44.9679C50.6346 45.6359 51.0015 46.523 51.0015 47.4672C51.0015 48.4113 50.6346 49.2986 49.9666 49.9665C49.278 50.6552 48.3722 51 47.4668 51Z" stroke="#E43D30" stroke-width="2"/>
<path d="M37.0513 37.6043L31.7881 32.3403" stroke="#E43D30" stroke-width="2"/>
</svg>
