<svg width="58" height="52" viewBox="0 0 58 52" fill="none" xmlns="http://www.w3.org/2000/svg">
<path d="M28.4975 5.1825C29.855 2.8375 32.5375 1.025 37.5825 1C45.3025 1.04 47.49 5.25 47.87 9.1225C51.2525 10.42 53.0825 13.2925 53.17 17.485C53.1475 18.565 53.015 19.54 52.77 20.4225C54.835 22.385 55.9225 25.23 55.9975 28.8975L56.0025 28.9C55.9075 33.65 53.9875 37.0975 50.4325 38.97C50.5 39.4975 50.54 40.05 50.5525 40.62C50.42 47.2925 46.285 50.9575 38.91 51C33.0125 50.97 29.975 48.785 28.5 46.0125M28.4975 5.1825C27.14 2.8375 24.4525 1.025 19.4 1C11.6925 1.04 9.5075 5.2525 9.1275 9.1225C5.7425 10.42 3.915 13.2975 3.8275 17.54C3.85 18.58 3.9825 19.545 4.2275 20.425C2.1625 22.385 1.075 25.235 1 28.95C1.0925 33.655 3.015 37.0975 6.5725 38.97C6.505 39.505 6.4625 40.07 6.45 40.6725C6.5825 47.29 10.7175 50.9575 18.1075 51C23.9925 50.9675 27.025 48.7875 28.5 46.0125M28.4975 5.1825L28.4976 28.4976M28.5 46.0125L28.4976 27.2476" stroke="#E43D30" stroke-width="2"/>
<path d="M22 19C21.5475 16.8275 21.1707 13.4393 17.2821 13.4629C14.3996 13.4804 12.7171 15.1754 12.6621 18.1504C12.7121 21.0404 14.4371 22.7779 17.2971 22.7954C19.7521 22.7804 21.3371 21.5504 21.7871 19.3804H25.0171H28.2471" stroke="#E43D30" stroke-width="2"/>
<path d="M21.9972 34.7474C21.9972 30.9974 19.7496 29.3073 17.2821 29.2898C14.3996 29.3073 12.7171 31.0023 12.6621 33.9773C12.7121 36.8673 14.4371 38.6048 17.2971 38.6223C19.7521 38.6073 21.3371 37.3773 21.7871 35.2073H28.2471" stroke="#E43D30" stroke-width="2"/>
<path d="M34.7484 18.5326C34.9585 15.9976 35.9976 13.4976 39.4635 13.4976C42.346 13.5151 44.0285 15.2101 44.0835 18.1851C44.0335 21.0751 42.3085 22.8126 39.4485 22.8301C36.9935 22.8151 35.4085 21.5851 34.9585 19.4151H31.7285H28.4985" stroke="#E43D30" stroke-width="2"/>
<path d="M34.7484 34.7828C34.7484 31.0328 36.996 29.3427 39.4635 29.3252C42.346 29.3427 44.0285 31.0377 44.0835 34.0127C44.0335 36.9027 42.3085 38.6402 39.4485 38.6577C36.9935 38.6427 35.4085 37.4127 34.9585 35.2427H28.4985" stroke="#E43D30" stroke-width="2"/>
</svg>
