<svg width="52" height="52" viewBox="0 0 52 52" fill="none" xmlns="http://www.w3.org/2000/svg">
<path d="M29.8463 37.1647L45.1212 29.1332C45.6483 28.8583 46.2394 28.7132 46.8296 28.7132C47.2107 28.7132 47.59 28.7719 47.9586 28.8881C48.9092 29.1872 49.6862 29.8359 50.1439 30.7144C50.6017 31.593 50.689 32.6005 50.3899 33.552C50.0907 34.5026 49.4416 35.2783 48.5631 35.7369L28.2821 46.3064C27.6973 46.6109 27.0623 46.7598 26.3405 46.7598C25.8044 46.7598 25.2042 46.6822 24.3923 46.5083L16.3422 44.781C16.1178 44.7332 15.8212 44.6774 15.5238 44.6774L15.522 44.6783C15.1914 44.6783 14.8988 44.7467 14.6285 44.8872L13.5021 45.4748M20.2808 37.4823C20.2835 37.4823 20.2869 37.4823 20.2896 37.4823L27.6081 37.7986C27.6613 37.8013 27.7155 37.8022 27.7687 37.8022C28.6986 37.8022 29.5916 37.4536 30.2827 36.8201C31.0179 36.147 31.4458 35.2315 31.4891 34.2404C31.5323 33.2501 31.1846 32.3003 30.5097 31.566C29.8375 30.8316 28.9209 30.4026 27.9306 30.3594L17.0532 29.889C16.9955 29.8863 16.9387 29.8855 16.8838 29.8855C16.3161 29.8855 15.8113 30.0107 15.295 30.2802L7.65754 34.2602M5.37541 31.731C5.25016 31.731 5.12944 31.7606 5.01771 31.8192L1.41873 33.6952C1.03668 33.8953 0.88962 34.3674 1.08876 34.7476L9.34088 50.5829C9.43639 50.7676 9.59929 50.9038 9.79933 50.965C9.87502 50.9885 9.95456 51 10.033 51C10.1564 51 10.2807 50.9703 10.3907 50.9127L13.9905 49.0366C14.1743 48.9411 14.3093 48.779 14.3724 48.5808C14.4355 48.3835 14.4182 48.1726 14.3236 47.9888L6.07012 32.1498C5.97461 31.9651 5.81127 31.8299 5.61123 31.7677C5.53554 31.7443 5.45648 31.7319 5.37629 31.7319L5.37541 31.731ZM22.8344 25.418C21.6405 25.418 20.6643 24.4638 20.631 23.2771V23.214V22.7382C20.631 17.53 24.8682 13.2924 30.0772 13.2924C35.2863 13.2924 39.523 17.5291 39.523 22.7382V23.214C39.523 24.4295 38.5343 25.418 37.3187 25.418H22.8344ZM16.7729 19.3917C16.6855 19.3917 16.6069 19.3404 16.5727 19.2602L15.5537 16.9156L13.2091 15.8964C13.1298 15.8612 13.0776 15.7829 13.0776 15.6964C13.0776 15.6099 13.1289 15.5307 13.2091 15.4964L15.5537 14.4772L16.5727 12.1328C16.6078 12.0526 16.6864 12.0011 16.7729 12.0011C16.8594 12.0011 16.9388 12.0526 16.9731 12.1328L17.9921 14.4772L20.3367 15.4964C20.4169 15.5316 20.4682 15.6099 20.4682 15.6964C20.4682 15.7829 20.4169 15.8621 20.3367 15.8964L17.9921 16.9156L16.9731 19.2602C16.9379 19.3404 16.8594 19.3917 16.7729 19.3917ZM41.5829 10.9352C41.4955 10.9352 41.417 10.8839 41.3827 10.8037L40.3638 8.45907L38.0192 7.4401C37.939 7.40495 37.8876 7.32641 37.8876 7.23991C37.8876 7.15341 37.939 7.07418 38.0192 7.03994L40.3638 6.02074L41.3827 3.67635C41.4179 3.59616 41.4964 3.5448 41.5829 3.5448C41.6694 3.5448 41.7484 3.59616 41.7827 3.67635L42.8017 6.02074L45.1463 7.03994C45.2265 7.07508 45.2778 7.15341 45.2778 7.23991C45.2778 7.32641 45.2265 7.40586 45.1463 7.4401L42.8017 8.45907L41.7827 10.8037C41.7475 10.8839 41.6694 10.9352 41.5829 10.9352ZM30.0755 10.4504C27.4696 10.4504 25.3502 8.33118 25.3502 5.7253C25.3502 3.11943 27.4696 1 30.0755 1C32.6813 1 34.8003 3.11943 34.8003 5.7253C34.8003 8.33118 32.6813 10.4504 30.0755 10.4504Z" stroke="#E43D30" stroke-width="2"/>
</svg>
