<svg width="38" height="52" viewBox="0 0 38 52" fill="none" xmlns="http://www.w3.org/2000/svg">
<path d="M22.7224 38.5651C25.7724 38.306 28.3087 36.9969 30.3086 34.6925C32.1086 32.6152 33.0267 30.1744 33.0404 27.4154C33.0494 24.8791 33.0404 22.3382 33.0404 19.8019L33.0449 19.8065C33.0449 17.3202 33.0494 14.8339 33.0449 12.3476C33.0358 8.94313 31.7768 6.07957 29.2359 3.82508C26.8542 1.7115 24.027 0.793345 20.8543 1.03879C18.0089 1.25697 15.5817 2.42512 13.6045 4.49325C11.8773 6.29775 10.8318 8.4386 10.5728 10.9204C10.45 12.0931 10.4955 13.2885 10.4864 14.4748" stroke="#E43D30" stroke-width="2" stroke-linecap="round"/>
<path d="M22.8176 49.8784V43.2694M13.7363 40.0832C14.05 40.1923 14.3409 40.3786 14.6363 40.5377C20.1816 43.5286 26.9314 42.7831 31.6359 38.6241C34.6858 35.9287 36.3903 32.5379 36.7312 28.4744C36.763 28.088 36.7812 27.6971 36.7857 27.3108M30.1948 50.9965C25.1585 51.001 20.1268 51.001 15.0906 50.9965" stroke="#E43D30" stroke-width="2" stroke-linecap="round"/>
<path d="M1 33.6313C1.77725 32.8449 5.4317 29.6223 6.22714 28.8587M10.4678 20.9995C7.84515 20.9995 5.77248 23.0813 5.76793 25.7221C5.76339 28.2493 7.90424 30.3538 10.4814 30.3538C13.0587 30.3538 15.2222 28.1766 15.1313 25.5176C15.045 22.9404 12.9451 20.9659 10.5452 20.9977L10.4678 20.9995Z" stroke="#E43D30" stroke-width="2" stroke-linecap="round"/>
</svg>
