<svg width="35" height="23" viewBox="0 0 35 23" fill="none" xmlns="http://www.w3.org/2000/svg">
<path d="M15.6713 3.67771H11.6093H8.38138L8.45234 3.15057C8.48305 2.92301 8.50759 2.71218 8.52397 2.52366C8.53079 2.44893 8.50259 2.3756 8.44801 2.3251C7.5583 1.49362 3.93547 1.00479 1.10736 0.839844C1.10191 0.839844 1.0965 0.839844 1.09104 0.839844C1.02145 0.839844 0.965578 0.860812 0.917135 0.905921C0.86801 0.95103 0.839844 1.01562 0.839844 1.08295V13.8547C0.839844 13.9887 0.950583 14.0985 1.08704 14.0985H5.40101C5.50813 14.0985 5.60245 14.0312 5.63588 13.9302C5.65021 13.8864 5.71 13.7045 5.80279 13.4157L6.04233 12.6726L6.59169 13.2326C6.71041 13.3531 6.83712 13.4845 6.96949 13.6205L7.1374 13.7934C7.76511 14.4411 8.41478 15.1104 8.8378 15.4605C11.5022 17.6614 14.6967 20.0327 15.3319 20.4447C15.7972 20.747 16.8479 21.1941 17.625 21.1941L17.5747 21.1935C17.5747 21.1935 18.6616 21.0735 18.9536 20.8311L19.1678 20.6533L19.4283 20.7537C19.6228 20.8285 19.8288 20.8662 20.041 20.8662C20.2689 20.8662 20.4975 20.8223 20.722 20.7361C21.2535 20.5335 21.7063 20.1194 21.9656 19.601L22.1282 19.2759L22.4877 19.3513C22.6207 19.3796 22.7605 19.3937 22.9038 19.3937C23.2667 19.3937 23.6393 19.3042 23.9818 19.1345C24.4444 18.9049 24.7905 18.5521 24.957 18.1407L25.0826 17.8304L25.4201 17.8478C25.4487 17.8492 25.4783 17.85 25.507 17.85C25.9403 17.85 26.3767 17.6816 26.7383 17.3752C27.2603 16.9343 27.4875 16.3108 27.3613 15.6645L27.1982 15.0303M6.03057 12.7091L6.28253 11.8922C6.90683 9.85823 7.74942 6.93221 8.21747 4.5428L8.34507 3.86953M19.0136 20.553L18.2923 19.8826C17.1904 18.8579 15.7147 17.31 15.2883 16.8596M22.2334 19.2979L21.4589 18.7359C20.387 17.788 18.5366 15.8355 18.1764 15.4531L18.1594 15.4348M25.0198 17.9856L24.4016 17.3698C23.3775 16.4481 20.8256 13.8299 20.3248 13.3141M29.4962 13.2952L27.0788 14.9199L26.81 14.5657C25.8534 13.3046 23.8337 11.6928 21.881 10.1335C20.5669 9.08528 19.3253 8.09498 18.5168 7.29716C18.4711 7.25205 18.4098 7.22714 18.3436 7.22714H18.3423C18.3136 7.22714 18.2849 7.23185 18.259 7.24128C17.8121 7.40151 17.5294 7.52544 17.3028 7.62508L17.2682 7.64053C16.8609 7.82029 16.693 7.88486 16.1608 7.93805C16.0864 7.94545 16.0202 7.98464 15.9792 8.04456C15.3099 9.03156 14.5116 9.53244 13.6055 9.53244C13.3087 9.53244 13.0011 9.4785 12.6654 9.36742C12.3338 9.25835 12.1386 9.06387 12.0697 8.77437C11.8541 7.88296 12.7917 6.27374 13.7844 5.29414C15.396 3.70254 16.551 2.84024 18.0391 2.84024C18.7268 2.84024 19.4767 3.02929 20.3978 3.43526C22.807 4.49835 25.2463 5.37702 25.9368 5.62074L26.767 5.88932M33.4337 2.7546C29.9533 2.83539 27.5443 3.4805 26.4178 3.85753L25.9181 4.02503L26.1427 4.49644C27.2364 6.79564 29.2492 12.4901 29.9369 14.7011L30.0392 15.0303H33.9174V2.74392L33.4337 2.7546Z" stroke="#E43D30" stroke-width="1.68" stroke-linecap="round"/>
</svg>
