<svg width="35" height="35" viewBox="0 0 35 35" fill="none" xmlns="http://www.w3.org/2000/svg">
<path d="M13.9791 17.5785L16.1377 19.7031C16.2025 19.7668 16.2882 19.8019 16.3801 19.8019H16.3989C16.4909 19.7964 16.5781 19.7548 16.6391 19.6864L20.7744 15.0159M17.3806 33.4041C16.6063 33.4041 15.8252 33.3505 15.0584 33.2443C14.514 33.1722 14.1087 32.7138 14.1115 32.1769V30.2214L13.6935 30.1068C12.6366 29.8157 11.6164 29.399 10.6609 28.8667L10.2828 28.656L8.87944 30.0358C8.67107 30.2446 8.39591 30.3573 8.10306 30.3573C7.86278 30.3573 7.63595 30.2816 7.44447 30.1374C6.19892 29.2142 5.09419 28.1265 4.15838 26.9039C3.82611 26.4741 3.86925 25.8679 4.25784 25.4908L5.6621 24.1066L5.44807 23.7341C4.90743 22.7933 4.48473 21.7888 4.19001 20.7483L4.0736 20.3361H2.0772C1.53843 20.3361 1.07567 19.9397 1.00246 19.4138C0.785638 17.8955 0.785638 16.3569 1.00246 14.8404C1.07473 14.3081 1.53743 13.9097 2.07995 13.9097H4.07451L4.19092 13.4976C4.48471 12.4561 4.90834 11.4515 5.44899 10.5117L5.66302 10.1393L4.26059 8.75865C3.86918 8.37883 3.82616 7.77256 4.15655 7.34561C5.09423 6.11745 6.19805 5.02882 7.44172 4.10655C7.63508 3.96146 7.86278 3.88578 8.10306 3.88578C8.39591 3.88578 8.67111 3.99852 8.87761 4.20367L10.2828 5.58704L10.6609 5.37632C11.6173 4.84402 12.6389 4.42729 13.6967 4.13712L14.1152 4.0225V2.06979C14.1114 1.52918 14.5168 1.06995 15.0575 0.998791C15.8271 0.89344 16.6081 0.839844 17.3825 0.839844C18.1568 0.839844 18.9388 0.89344 19.7056 0.998791C20.2491 1.07087 20.6535 1.52924 20.6498 2.06709V4.0225L21.0673 4.13802C22.1242 4.43004 23.1435 4.84862 24.0981 5.38184L24.4776 5.59347L25.88 4.21101C26.0884 4.00308 26.3631 3.88939 26.6559 3.88939C26.8962 3.88939 27.1235 3.9652 27.315 4.10937C28.5615 5.03257 29.6653 6.12026 30.6011 7.34381C30.9286 7.77075 30.8855 8.37508 30.4998 8.7512L29.0946 10.1329L29.3086 10.5053C29.8493 11.446 30.2724 12.4505 30.5671 13.4911L30.6836 13.9033H32.669C33.2218 13.9033 33.6843 14.3015 33.7556 14.8301C33.9734 16.3512 33.9734 17.889 33.7556 19.4064C33.6833 19.9396 33.2216 20.3389 32.679 20.3389H30.6836L30.5671 20.7511C30.2734 21.7916 29.8502 22.7961 29.3095 23.736L29.0955 24.1084L30.4989 25.4899C30.8893 25.8697 30.9324 26.476 30.602 26.903C29.6652 28.1293 28.5614 29.2169 27.3196 30.1392C27.1253 30.2852 26.898 30.361 26.6578 30.361C26.3649 30.361 26.0901 30.2483 25.8846 30.0422L24.4794 28.6588L24.1013 28.8694C23.1458 29.4008 22.1255 29.8177 21.0687 30.1078L20.6498 30.2223V32.1724C20.6535 32.7148 20.2481 33.174 19.7066 33.2443C18.936 33.3515 18.1541 33.4051 17.3797 33.4051L17.3806 33.4041ZM17.3788 9.33803C13.0227 9.34265 9.47758 12.8359 9.4757 17.1238C9.4757 21.4146 13.0208 24.9059 17.3788 24.9059C21.7368 24.9059 25.2828 21.4155 25.2828 17.1238C25.2828 13.0226 22.0427 9.65224 17.9512 9.36206L17.7396 9.33803H17.3788Z" stroke="#E43D30" stroke-width="1.68" stroke-linecap="round"/>
</svg>
