<svg width="32" height="33" viewBox="0 0 32 33" fill="none" xmlns="http://www.w3.org/2000/svg">
<path d="M3.85231 3.77283L1.14767 4.7806L1.14863 4.77966C0.966088 4.84741 0.843758 5.01866 0.839935 5.21062C0.836112 5.40258 0.952708 5.57759 1.13238 5.65287L3.84945 6.78015L4.93609 9.45436C5.00872 9.63221 5.18457 9.74983 5.37953 9.74983C5.57449 9.74983 5.75035 9.63315 5.82298 9.45436L6.9077 6.78579L9.61808 5.7178C9.79871 5.64628 9.91817 5.47315 9.91817 5.28119C9.91817 5.08923 9.79967 4.9161 9.61808 4.84458L6.9077 3.77659L5.82298 1.10802C5.67676 0.750452 5.0804 0.750452 4.93513 1.10802L3.85231 3.77283Z" stroke="#E43D30" stroke-width="1.68"/>
<path d="M11.6178 2.55863C12.4664 2.371 13.3485 2.27197 14.2537 2.27197C17.4764 2.27428 20.496 3.50879 22.7654 5.74665C25.0348 7.98567 26.2841 10.96 26.2818 14.1226C26.2794 16.5905 25.1192 19.6108 24.0564 20.9702L22.2862 23.0231M30.7669 31.3712L22.2862 23.0231M22.2862 23.0231L21.2096 23.7745C19.1656 25.2021 16.7602 25.9557 14.2537 25.9557C11.031 25.9534 8.01135 24.7189 5.74195 22.481C3.47255 20.2431 2.22324 17.2678 2.22559 14.1052C2.22673 12.8334 2.43267 11.6078 2.8126 10.4586" stroke="#E43D30" stroke-width="1.68" stroke-linecap="round"/>
</svg>
