<svg width="42" height="34" viewBox="0 0 42 34" fill="none" xmlns="http://www.w3.org/2000/svg">
<path d="M27.7925 8.63225C28.7824 8.63225 29.5871 7.82856 29.5871 6.84054C29.5871 5.85252 28.7824 5.04883 27.7925 5.04883C26.8027 5.04883 26 5.85252 26 6.84054C26 7.82856 26.8045 8.63225 27.7925 8.63225Z" stroke="#E43D30" stroke-width="2"/>
<path d="M34.7925 8.63225C35.7824 8.63225 36.5871 7.82856 36.5871 6.84054C36.5871 5.85252 35.7824 5.04883 34.7925 5.04883C33.8027 5.04883 33 5.85252 33 6.84054C33 7.82856 33.8045 8.63225 34.7925 8.63225Z" stroke="#E43D30" stroke-width="2"/>
<path d="M14.0189 17.4653L11.7764 27.5567" stroke="#E43D30" stroke-width="2" stroke-linecap="round"/>
<path d="M16.2612 18.5869L19.3856 22.388C19.7045 22.7703 19.7055 23.3749 19.3846 23.7595L16.2623 27.557" stroke="#E43D30" stroke-width="2" stroke-linecap="round"/>
<path d="M8.41263 18.5869L5.28839 22.3858C4.96948 22.7704 4.96899 23.3725 5.28684 23.756L8.41263 27.557" stroke="#E43D30" stroke-width="2" stroke-linecap="round"/>
<path d="M1.40479 13.0205L40.6803 13.147" stroke="#E43D30" stroke-width="2"/>
<path d="M1 13.9569V5.46813C1 3.00402 2.61031 1 4.58853 1H37.0927C39.0709 1 40.6804 3.00489 40.6804 5.46813V13.5195V13.5213V13.523" stroke="#E43D30" stroke-width="2"/>
<path d="M24.5128 33H4.53736C2.58654 33 1 31.1398 1 28.8546V13.0205" stroke="#E43D30" stroke-width="2"/>
<path d="M17.1962 32.9999H37.1716C39.1224 32.9999 40.709 31.1398 40.709 28.8545L40.6805 13.147" stroke="#E43D30" stroke-width="2"/>
</svg>
