<svg width="36" height="34" viewBox="0 0 36 34" fill="none" xmlns="http://www.w3.org/2000/svg">
<path d="M9.34246 24.2997C9.34246 24.2997 9.34246 16.6228 9.34246 11.0568M13.6989 15.1132V25.3095M18.1371 12.6498C18.1371 17.6412 18.1371 24.2997 18.1371 24.2997M13.4218 25.5554C10.1003 25.5554 6.97593 24.2776 4.62517 21.9579C2.2877 19.6514 1 16.5791 1 13.3082C1 10.0372 2.28831 6.94129 4.62777 4.59478C6.97587 2.27777 10.1002 1 13.4224 1C16.7446 1 19.8676 2.27779 22.2183 4.59742C24.5558 6.90394 25.8435 9.97623 25.8435 13.2472C25.8435 16.5181 24.5552 19.6141 22.2157 21.9606C19.8676 24.2776 16.7439 25.5554 13.4218 25.5554Z" stroke="#E43D30" stroke-width="2" stroke-linecap="round"/>
<path d="M20.4165 23.9071L28.5844 32.0751C29.1884 32.6711 30.0049 32.9996 30.884 32.9996C31.763 32.9996 32.5796 32.6711 33.1835 32.0751C33.7875 31.4792 34.1205 30.6734 34.1205 29.806C34.1205 28.9386 33.7875 28.1328 33.1835 27.5368L24.8544 19.2075" stroke="#E43D30" stroke-width="2" stroke-linecap="round"/>
</svg>
