<svg width="56" height="52" viewBox="0 0 56 52" fill="none" xmlns="http://www.w3.org/2000/svg">
<path d="M52.8943 39.4918C52.8337 39.4918 52.7712 39.4918 52.7084 39.4918C51.9614 39.5023 51.1453 39.5087 50.1389 39.5087C49.5886 39.5087 49.0402 39.5087 48.4899 39.5066C47.9417 39.5066 47.3932 39.5043 46.8429 39.5043L44.4822 39.4918M37.3433 50.9854C37.3266 50.046 37.331 49.1231 37.3331 48.1439C37.3331 47.784 37.3331 47.422 37.3331 47.0558V44.9509M24.9421 51C24.9421 50.0082 24.9421 48.9997 24.9421 48.0246V44.9509M12.5542 51V50.2302C12.5458 49.4895 12.548 48.757 12.5501 47.9807C12.5501 47.6647 12.5501 47.3466 12.5501 47.0244L12.5542 44.9509M1 37.9245C1.01046 37.9245 1.01917 37.9245 1.02963 37.9245C1.45857 37.9392 1.91678 37.9478 2.46918 37.9478C2.83954 37.9478 3.21373 37.9435 3.57362 37.9414C3.93351 37.9393 4.29364 37.935 4.65354 37.935L6.96363 37.9478M1.01737 25.5397H1.03372C1.46475 25.5481 1.92681 25.5522 2.48757 25.5522C2.84956 25.5522 3.21158 25.5523 3.57566 25.5482C3.93346 25.5482 4.29369 25.5438 4.6515 25.5438L6.96363 25.5522M1.07152 13.1422C1.08198 13.1422 1.09477 13.1422 1.10523 13.1422C1.52999 13.1568 1.98431 13.1654 2.53252 13.1654C2.89451 13.1654 3.25761 13.1632 3.6196 13.159C3.9753 13.1569 4.33154 13.1526 4.68725 13.1526L7.11682 13.1422M14.1746 1C14.1746 1.37245 14.1683 4.58218 14.1746 4.96718C14.1767 5.11365 14.1746 5.25805 14.1746 5.41289C14.1746 5.4924 14.1746 5.57409 14.1746 5.65988V7.56327M26.5002 1C26.4918 1.88509 26.4981 3.25365 26.5002 4.122C26.5002 4.50491 26.5002 4.88776 26.5002 5.26858V7.56327M37.3045 7.56327V1M54.7017 14.7219C53.4567 14.7198 52.2144 14.7178 50.9715 14.7178L44.1191 14.7219M52.8943 27.1279H44.4822M7.96379 44.0952H43.4867V8.57652H7.96379V44.0952Z" stroke="#E43D30" stroke-width="2" stroke-linecap="round"/>
<path d="M14.2852 34.7652C14.8124 33.3466 15.9463 30.9387 16.4736 29.5452C16.6766 29.0053 16.8796 28.4657 17.0825 27.9258L19.979 20.228C20.0752 19.9727 20.1688 19.7172 20.2651 19.462C20.4743 18.8991 20.6921 18.3176 20.9118 17.7547C21.0185 17.4848 21.1794 17.3047 21.6188 17.3047H21.6382C21.9667 17.3089 22.2194 17.4095 22.3994 17.8865C22.8367 19.0541 23.2759 20.2196 23.7132 21.385C23.9622 22.0504 24.9904 24.7788 24.9904 24.7788C25.7227 26.7289 26.4567 28.6811 27.189 30.6312C27.3166 30.9702 27.4445 31.3091 27.5742 31.6481C27.909 32.5331 28.6192 33.8655 28.933 34.7652M16.4328 29.6519H26.8396" stroke="#E43D30" stroke-width="2" stroke-linecap="round"/>
<path d="M35.5869 34.8012C35.5869 34.7907 35.5869 34.7134 35.5869 34.6883C35.5869 32.5477 35.5869 30.4093 35.5869 28.2688V26.3646C35.5869 23.5901 35.5869 20.8155 35.5869 18.041" stroke="#E43D30" stroke-width="2" stroke-linecap="round"/>
</svg>
