<svg width="57" height="52" viewBox="0 0 57 52" fill="none" xmlns="http://www.w3.org/2000/svg">
<path d="M17.9062 26.3081C17.9062 20.7262 22.4574 16.1846 28.0506 16.1846" stroke="#E43D30" stroke-width="2" stroke-linecap="round"/>
<path d="M28.0532 16.1846C33.6465 16.1846 38.1976 20.7262 38.1976 26.3081" stroke="#E43D30" stroke-width="2" stroke-linecap="round"/>
<path d="M38.1976 26.3071C38.1976 31.8891 33.6465 36.4307 28.0532 36.4307" stroke="#E43D30" stroke-width="2" stroke-linecap="round"/>
<path d="M28.0506 36.4307C22.4574 36.4307 17.9062 31.8891 17.9062 26.3071" stroke="#E43D30" stroke-width="2" stroke-linecap="round"/>
<path d="M1.12451 26.6587C6.3038 32.9583 16.9391 39.7392 28.0496 39.7392" stroke="#E43D30" stroke-width="2" stroke-linecap="round"/>
<path d="M28.0527 39.7396C33.3064 39.7396 38.8599 38.2262 44.1127 35.3633" stroke="#E43D30" stroke-width="2" stroke-linecap="round"/>
<path d="M44.1118 35.3643C48.3778 33.0399 52.3376 29.8666 54.976 26.6587" stroke="#E43D30" stroke-width="2" stroke-linecap="round"/>
<path d="M54.9766 26.6596C55.1438 26.4559 55.1438 26.1587 54.9766 25.9551" stroke="#E43D30" stroke-width="2" stroke-linecap="round"/>
<path d="M54.9769 25.955C49.7957 19.6554 39.1632 12.8745 28.0527 12.8745" stroke="#E43D30" stroke-width="2" stroke-linecap="round"/>
<path d="M28.0496 12.8745C16.9391 12.8745 6.3038 19.6554 1.12451 25.955" stroke="#E43D30" stroke-width="2" stroke-linecap="round"/>
<path d="M1.12612 25.9551C0.957959 26.1587 0.957959 26.455 1.12612 26.6596" stroke="#E43D30" stroke-width="2" stroke-linecap="round"/>
<path d="M28.0498 30.8288C25.5515 30.8288 23.5186 28.8005 23.5186 26.3072C23.5186 23.814 25.5515 21.7856 28.0498 21.7856C30.5481 21.7856 32.5801 23.814 32.5801 26.3072C32.5801 28.8005 30.5481 30.8288 28.0498 30.8288Z" stroke="#E43D30" stroke-width="2" stroke-linecap="round"/>
<path d="M14.6626 50.0453L17.907 44.8657" stroke="#E43D30" stroke-width="2" stroke-linecap="round"/>
<path d="M14.6626 1.84971L17.907 7.0293" stroke="#E43D30" stroke-width="2" stroke-linecap="round"/>
<path d="M41.5781 50.0453L38.3337 44.8657" stroke="#E43D30" stroke-width="2" stroke-linecap="round"/>
<path d="M41.5781 1.84971L38.3337 7.0293" stroke="#E43D30" stroke-width="2" stroke-linecap="round"/>
<path d="M27.5006 50.8947L27.3903 44.7873" stroke="#E43D30" stroke-width="2" stroke-linecap="round"/>
<path d="M27.5006 0.999365L27.3903 7.10671" stroke="#E43D30" stroke-width="2" stroke-linecap="round"/>
</svg>
