<svg width="40" height="52" viewBox="0 0 40 52" fill="none" xmlns="http://www.w3.org/2000/svg">
<path d="M21.1248 17.2348C19.8391 17.2348 1.86539 17.0985 1.0345 9.65145C0.881143 8.27277 1.2395 6.99874 2.0998 5.86464C5.50316 1.37938 17.2331 1.0019 20.4797 1.0019C20.6909 1.0019 38.6608 0.696723 38.6608 8.36524C38.6608 16.4828 21.8991 17.2067 21.1848 17.2335C21.169 17.2335 21.1511 17.2348 21.1248 17.2348Z" stroke="#E43D30" stroke-width="2" stroke-linecap="round"/>
<path d="M1 8.79386V43.1144C1 43.1945 1.01554 43.2722 1.04677 43.3426C1.18524 43.6557 4.60234 51.0001 20.4776 51.0001C36.4059 51.0001 38.5582 43.6071 38.6425 43.2928C38.655 43.2455 38.6608 43.1945 38.6608 43.1448V8.14453" stroke="#E43D30" stroke-width="2" stroke-linecap="round"/>
<path d="M1.15088 22.9899C1.40445 23.2579 7.27572 29.2937 18.1326 29.2937L18.1347 29.2924C18.5665 29.2924 19.007 29.2821 19.4547 29.2628C30.7488 28.7615 36.7313 25.6599 38.5636 22.9229" stroke="#E43D30" stroke-width="2" stroke-linecap="round"/>
<path d="M1.11914 33.8105C1.31967 34.0693 6.19521 40.1467 19.5837 40.1467V40.1453C25.4138 40.1453 33.3962 39.184 38.3234 34.6024C38.386 34.5442 38.438 34.4963 38.4793 34.4601" stroke="#E43D30" stroke-width="2" stroke-linecap="round"/>
</svg>
