<svg width="50" height="52" viewBox="0 0 50 52" fill="none" xmlns="http://www.w3.org/2000/svg">
<path d="M23.686 50.6103C24.0292 50.8619 24.4504 51 24.8759 51C25.3014 51 25.7222 50.8619 26.0653 50.6103L30.8886 47.2199C31.3571 46.8841 31.909 46.7047 32.4855 46.701L38.3905 46.6095C39.2717 46.6095 40.0374 46.0487 40.3046 45.2114L42.2134 39.6341C42.3946 39.0869 42.736 38.6174 43.2 38.2761L47.9142 34.7375C48.6234 34.2278 48.9237 33.3036 48.6501 32.4745L46.9161 26.8405C46.7413 26.2915 46.7413 25.7113 46.9161 25.1623L48.6501 19.5274C48.9237 18.6974 48.6243 17.7741 47.9142 17.2644L43.1991 13.7259C42.7351 13.3846 42.3937 12.9142 42.2125 12.3679L40.3038 6.79053C40.0366 5.95233 39.2704 5.39146 38.3883 5.39146L32.4837 5.29897C31.9072 5.29531 31.3553 5.11605 30.8868 4.78022L26.0644 1.38984C25.7213 1.1382 25.3005 1 24.875 1C24.4495 1 24.0283 1.1382 23.6852 1.38984L18.8619 4.78022C18.3933 5.11605 17.8414 5.29531 17.265 5.29897L11.3613 5.39056C10.4792 5.39056 9.71301 5.95143 9.44581 6.78963L7.53704 12.3669C7.35586 12.9141 7.01443 13.3836 6.55049 13.7249L1.83621 17.2635C1.12612 17.7741 0.82716 18.6965 1.10076 19.5265L2.83438 25.1605C3.00916 25.7095 3.00916 26.2906 2.83438 26.8396L1.10076 32.4736C0.826245 33.3036 1.12612 34.2269 1.83621 34.7375L6.55138 38.2761C7.01532 38.6174 7.35675 39.0869 7.53793 39.6341L9.4467 45.2114C9.7139 46.0496 10.48 46.6104 11.3622 46.6104L17.2659 46.702C17.8423 46.7057 18.3942 46.8851 18.8627 47.2209L23.686 50.6103ZM24.8759 41.3068C16.4353 41.3068 9.56868 34.4402 9.56868 25.9996C9.56868 17.5591 16.4353 10.6924 24.8759 10.6924C33.3164 10.6924 40.1831 17.5591 40.1831 25.9996C40.1831 34.4402 33.3164 41.3068 24.8759 41.3068Z" stroke="#E43D30" stroke-width="2"/>
<path d="M16.6094 25.0124L21.9188 31.125C21.9938 31.211 22.1006 31.2642 22.2159 31.2706C22.2232 31.2706 22.2387 31.2715 22.2387 31.2715C22.3449 31.2715 22.4464 31.2321 22.5242 31.1608L33.106 21.4629" stroke="#E43D30" stroke-width="2" stroke-linecap="round"/>
</svg>
