<svg width="53" height="55" viewBox="0 0 53 55" fill="none" xmlns="http://www.w3.org/2000/svg">
<path d="M32.0809 1.409C30.173 2.61715 26.5365 4.78087 23.6107 5.69762L23.1465 5.84331V16.0775L23.222 16.2216C23.9463 17.6042 26.7315 22.3092 32.158 24.8063L32.4346 24.9339L32.7116 24.8063C38.1408 22.3076 40.9241 17.6037 41.6479 16.2211L41.7234 16.077V5.84279L41.2592 5.6971C38.334 4.78035 34.6967 2.61663 32.7892 1.40848L32.4351 1.18408L32.0809 1.409Z" stroke="#E43D30" stroke-width="2" stroke-linecap="round"/>
<path d="M28.4473 13.0508L31.2746 15.8782C31.3368 15.9404 31.4055 15.9718 31.4779 15.9718H31.4789C31.5512 15.9718 31.6192 15.9399 31.6814 15.8782L36.4262 11.1333" stroke="#E43D30" stroke-width="2" stroke-linecap="round"/>
<path d="M15.7766 46.4018C17.2524 44.926 20.7697 42.7813 22.7975 42.7813C22.9526 42.7813 23.1086 42.7861 23.2627 42.7958C24.1403 42.8526 25.157 42.8835 26.2003 42.8835C29.3889 42.8835 37.1024 42.5848 39.8672 39.82L50.6479 29.0392C50.9331 28.7531 51.0854 28.3591 51.0661 27.9574C51.0459 27.5567 50.857 27.1809 50.5458 26.9256C49.8407 26.3448 48.9428 26.0239 48.0208 26.0239C47.0238 26.0239 46.0741 26.39 45.3448 27.0557L38.3526 33.4263L38.4354 33.7375C38.5336 34.1065 38.5827 34.4898 38.5798 34.879C38.5711 36.0485 37.605 37.0003 36.4259 37.0003H21.266M38.5798 33.5236C37.8823 32.8204 37.9335 30.9883 34.2527 31.1625H27.5075C26.5191 31.1625 25.5596 30.9929 24.656 30.6577C23.5886 30.2617 21.9152 29.7897 20.003 29.7897C18.6023 29.7897 17.2736 30.045 16.0569 30.5469C15.4452 30.7993 14.827 31.1837 14.221 31.6904L7.1065 37.7317M1.38148 42.6195L11.5041 52.7442C11.7893 53.0284 12.1692 53.1845 12.5719 53.1845C12.9746 53.1845 13.354 53.0284 13.6392 52.7433L16.6534 49.729C17.2391 49.1413 17.24 48.1857 16.6562 47.598C16.6013 47.5431 6.89781 37.8384 6.5905 37.5321C6.30439 37.2469 5.92541 37.0899 5.52273 37.0899C5.12005 37.0899 4.74152 37.2469 4.45637 37.5311L1.44216 40.5455C1.15605 40.8325 0.999041 41.212 1 41.6157C1 41.9866 1.134 42.3362 1.37772 42.6108L1.38148 42.6195Z" stroke="#E43D30" stroke-width="2" stroke-linecap="round"/>
</svg>
