<svg width="63" height="48" viewBox="0 0 63 48" fill="none" xmlns="http://www.w3.org/2000/svg">
<path d="M31.624 42.8201V36.4121M31.624 42.8201C30.596 42.8201 29.7612 43.6551 29.7612 44.6831C29.7612 45.7111 30.596 46.542 31.624 46.542C32.652 46.542 33.4873 45.7151 33.4873 44.6831C33.4873 43.6511 32.652 42.8201 31.624 42.8201ZM44.3042 36.4121V42.158C44.3042 42.314 44.4309 42.4421 44.5879 42.4421H55.0955M7.84139 42.438H18.0371C18.1931 42.438 18.3213 42.3151 18.3213 42.1541V36.4121M51.1143 23.6152H57.6143M4.95487 23.9121H12.0513M54.7749 4.82104H44.5869C44.4309 4.82104 44.3032 4.94898 44.3032 5.10498V10.9219M18.3198 10.9219V5.104C18.3198 4.948 18.1931 4.82007 18.0361 4.82007H7.71177M31.624 10.9219V5.16309M56.9292 43.9722C55.9012 43.9722 55.0659 43.1411 55.0659 42.1091C55.0659 41.0771 55.9012 40.25 56.9292 40.25C57.9572 40.25 58.792 41.0811 58.792 42.1091C58.792 43.1371 57.9572 43.9722 56.9292 43.9722ZM5.68701 43.9722C4.65901 43.9722 3.82812 43.1411 3.82812 42.1091C3.82812 41.0771 4.65901 40.25 5.68701 40.25C6.71501 40.25 7.55029 41.0811 7.55029 42.1091C7.55029 43.1371 6.71501 43.9722 5.68701 43.9722ZM48.9551 12.196H14.4961C14.0111 12.196 13.4512 12.739 13.4512 13.405V33.8572C13.4512 34.5232 13.805 35.0662 14.29 35.0662H48.5522C49.2182 35.0662 49.7612 34.5232 49.7612 33.8572V13.002C49.7612 12.558 49.3991 12.196 48.9551 12.196ZM59.7559 25.4919C58.7279 25.4919 57.8931 24.6572 57.8931 23.6292C57.8931 22.6012 58.7279 21.77 59.7559 21.77C60.7839 21.77 61.6191 22.6012 61.6191 23.6292C61.6191 24.6572 60.7839 25.4919 59.7559 25.4919ZM2.85889 25.4919C1.83089 25.4919 1 24.6572 1 23.6292C1 22.6012 1.83089 21.77 2.85889 21.77C3.88689 21.77 4.72217 22.6012 4.72217 23.6292C4.72217 24.6572 3.88689 25.4919 2.85889 25.4919ZM56.9292 6.99194C55.9012 6.99194 55.0659 6.16106 55.0659 5.13306C55.0659 4.10506 55.9012 3.27002 56.9292 3.27002C57.9572 3.27002 58.792 4.10106 58.792 5.13306C58.792 6.16506 57.9572 6.99194 56.9292 6.99194ZM5.68701 6.99194C4.65901 6.99194 3.82812 6.16106 3.82812 5.13306C3.82812 4.10506 4.65901 3.27002 5.68701 3.27002C6.71501 3.27002 7.55029 4.10106 7.55029 5.13306C7.55029 6.16506 6.71501 6.99194 5.68701 6.99194ZM31.624 4.72607C30.596 4.72607 29.7612 3.89104 29.7612 2.86304C29.7612 1.83504 30.596 1 31.624 1C32.652 1 33.4873 1.83504 33.4873 2.86304C33.4873 3.89104 32.652 4.72607 31.624 4.72607Z" stroke="#E43D30" stroke-width="2"/>
<path d="M26.8415 27V22.2991C26.8165 21.5811 27.1943 20.913 27.8273 20.562C28.2443 20.331 28.718 20.209 29.195 20.209C29.672 20.209 30.1452 20.331 30.5632 20.562C31.1992 20.915 31.576 21.586 31.549 22.312V27M31.1138 24.1152H27.1138" stroke="#E43D30" stroke-width="2"/>
<path d="M35.6138 19.6152V27.1152" stroke="#E43D30" stroke-width="2"/>
</svg>
