<svg width="40" height="40" viewBox="0 0 40 40" fill="none" xmlns="http://www.w3.org/2000/svg">
<path d="M2.25757 37.872L15.1356 24.9939M15.1356 24.9939C13.9502 23.8087 13.9505 21.8867 15.1359 20.7013C16.3213 19.5159 18.2433 19.5159 19.4287 20.7013C20.6139 21.8867 20.6139 23.8087 19.4287 24.9939C18.2433 26.1793 16.3209 26.1793 15.1356 24.9939ZM31.591 18.5551L37.3147 12.8315C38.8951 11.251 38.8951 8.68844 37.3147 7.10792L33.0221 2.81526C31.4414 1.23476 28.879 1.23476 27.2984 2.81526L21.5749 8.53881M31.3536 19.267L27.4981 30.8334C27.3728 31.2092 27.0721 31.5003 26.6923 31.6133L3.06211 38.6383C2.12055 38.9182 1.25363 38.0225 1.56425 37.0907L9.23644 14.0741C9.34802 13.7393 9.59971 13.4697 9.92599 13.3353L20.8262 8.847C21.2794 8.66039 21.8005 8.76458 22.1471 9.11116L31.0602 18.0245C31.3854 18.3497 31.4991 18.8307 31.3536 19.267Z" stroke="#E43D30" stroke-width="2" stroke-linecap="round" stroke-linejoin="round"/>
</svg>
