<svg width="43" height="34" viewBox="0 0 43 34" fill="none" xmlns="http://www.w3.org/2000/svg">
<path d="M4.97905 33.1593C3.95435 33.1593 2.93461 32.7283 2.18323 31.9761L2.17002 31.9629C1.41533 31.2429 1 30.2545 1 29.1803V8.95724C1 7.93255 1.43102 6.91281 2.18323 6.16059L2.19644 6.14738C2.91645 5.39269 3.90481 4.97737 4.97987 4.97737H12.4921V4.08396C12.4921 3.30615 12.7968 2.5721 13.3508 2.01888C13.9123 1.45741 14.6406 1.16016 15.4564 1.16016H27.6387C28.4165 1.16016 29.1506 1.46484 29.7038 2.01888L29.7211 2.03622C30.2479 2.53164 30.5617 3.29707 30.5617 4.08396V4.97737H38.1152C39.1894 4.97737 40.1778 5.39269 40.8978 6.14738L40.911 6.16142L40.9251 6.17463C41.6798 6.89464 42.0951 7.883 42.0951 8.95807V29.1811C42.0951 30.2058 41.6641 31.2255 40.9119 31.9769L40.8986 31.9901C40.1786 32.7448 39.1903 33.1602 38.116 33.1602L4.97905 33.1593ZM4.97905 5.50499C4.05509 5.50499 3.1881 5.86334 2.53663 6.51482C1.88515 7.1663 1.52762 8.03328 1.52762 8.95724V29.1803C1.52762 30.1042 1.88598 30.9721 2.53663 31.6227C3.18728 32.2734 4.05509 32.6317 4.97905 32.6317H38.1152C39.0392 32.6317 39.907 32.2734 40.5576 31.6227C41.0134 31.1669 41.3255 30.6054 41.4717 29.9928H41.6071V8.95724C41.6071 8.03328 41.2487 7.1663 40.5981 6.51482C39.9466 5.86417 39.0796 5.50499 38.1557 5.50499H30.3181C30.1588 5.50499 30.0341 5.38031 30.0341 5.22095V4.0435C30.0341 3.38129 29.7905 2.77357 29.3496 2.33182C28.9078 1.89007 28.3001 1.64732 27.6387 1.64732H15.4968C14.8346 1.64732 14.2269 1.89007 13.7851 2.33182C13.3434 2.77275 13.1006 3.38129 13.1006 4.0435V5.22095C13.1006 5.38031 12.976 5.50499 12.8166 5.50499H4.97905Z" fill="#E43D30" stroke="#E43D30" stroke-width="1.5"/>
<path d="M21.5473 28.2469C19.0933 28.2469 16.7879 27.2932 15.0556 25.5609C13.3489 23.8542 12.3696 21.4877 12.3696 19.0693C12.3696 16.6153 13.3233 14.3099 15.0556 12.5776C16.7624 10.8709 19.1288 9.8916 21.5473 9.8916C23.9658 9.8916 26.3322 10.8709 28.0389 12.5776C29.7457 14.2843 30.7249 16.6508 30.7249 19.0693C30.7249 21.5232 29.7712 23.8286 28.0389 25.5609C26.3322 27.2676 23.9658 28.2469 21.5473 28.2469ZM21.5473 10.501C19.2353 10.501 17.0703 11.3927 15.4503 13.0127L15.4421 13.021C13.8278 14.6831 12.9385 16.8456 12.9385 19.1097C12.9385 21.4217 13.8303 23.5867 15.4503 25.2067L15.4586 25.2149C17.1207 26.8292 19.2832 27.7185 21.5473 27.7185C23.8113 27.7185 25.9739 26.8292 27.636 25.2149L27.6442 25.2067C29.3047 23.5462 30.1973 21.3779 30.156 19.1023C30.1544 16.7936 29.2618 14.6311 27.6442 13.0127L27.636 13.0045C25.9739 11.3902 23.8113 10.501 21.5473 10.501Z" fill="#E43D30" stroke="#E43D30" stroke-width="1.5"/>
<path d="M36.0041 12.2055C35.3551 12.2055 34.8267 11.677 34.8267 11.028C34.8267 10.379 35.3551 9.85059 36.0041 9.85059C36.6531 9.85059 37.1816 10.379 37.1816 11.028C37.1816 11.677 36.6531 12.2055 36.0041 12.2055Z" fill="#E43D30" stroke="#E43D30" stroke-width="1.5"/>
</svg>
