<svg width="40" height="40" viewBox="0 0 40 40" fill="none" xmlns="http://www.w3.org/2000/svg">
<path d="M36.8182 20.1602H38.5M20 3.34197V1.66016M20 38.6602V36.9783M33.4545 33.6147L31.7727 31.9329M33.4545 6.70561L31.7727 8.38743M6.54545 33.6147L8.22727 31.9329M6.54545 6.70561L8.22727 8.38743M1.5 20.1602H3.18182M16.5563 16.162L19.1774 10.6043C19.514 9.89089 20.486 9.89089 20.8226 10.6043L23.4437 16.162L29.3053 17.0587C30.0574 17.1738 30.3571 18.1413 29.8127 18.6963L25.5719 23.0194L26.5727 29.1266C26.7012 29.911 25.9146 30.5091 25.2417 30.1386L20 27.2536L14.7582 30.1386C14.0853 30.5091 13.2987 29.911 13.4272 29.1266L14.4281 23.0194L10.1873 18.6963C9.64286 18.1413 9.94261 17.1738 10.6947 17.0587L16.5563 16.162Z" stroke="#E43D30" stroke-width="2" stroke-linecap="round" stroke-linejoin="round"/>
</svg>
