<svg width="48" height="31" viewBox="0 0 48 31" fill="none" xmlns="http://www.w3.org/2000/svg">
<path d="M19.4 6.99349C16.3404 7.51027 13.5416 9.05764 11.4552 11.386C9.36878 13.7143 8.11636 16.6878 7.9 19.8268M28.6 6.99349C31.6596 7.51027 34.4584 9.05764 36.5448 11.386C38.6312 13.7143 39.8836 16.6878 40.1 19.8268M19.4 5.82682H5.6M5.6 5.82682C5.6 6.44566 5.35768 7.03915 4.92635 7.47674C4.49501 7.91432 3.91 8.16016 3.3 8.16016C2.69 8.16016 2.10499 7.91432 1.67365 7.47674C1.24232 7.03915 1 6.44566 1 5.82682C1 5.20798 1.24232 4.61449 1.67365 4.17691C2.10499 3.73932 2.69 3.49349 3.3 3.49349C3.91 3.49349 4.49501 3.73932 4.92635 4.17691C5.35768 4.61449 5.6 5.20798 5.6 5.82682ZM42.4 5.82682H28.6M42.4 5.82682C42.4 6.44566 42.6423 7.03915 43.0737 7.47674C43.505 7.91432 44.09 8.16016 44.7 8.16016C45.31 8.16016 45.895 7.91432 46.3263 7.47674C46.7577 7.03915 47 6.44566 47 5.82682C47 5.20798 46.7577 4.61449 46.3263 4.17691C45.895 3.73932 45.31 3.49349 44.7 3.49349C44.09 3.49349 43.505 3.73932 43.0737 4.17691C42.6423 4.61449 42.4 5.20798 42.4 5.82682ZM3.3 22.1602C3.3 21.5413 3.54232 20.9478 3.97365 20.5102C4.40499 20.0727 4.99 19.8268 5.6 19.8268H10.2C10.81 19.8268 11.395 20.0727 11.8263 20.5102C12.2577 20.9478 12.5 21.5413 12.5 22.1602V26.8268C12.5 27.4457 12.2577 28.0392 11.8263 28.4767C11.395 28.9143 10.81 29.1602 10.2 29.1602H5.6C4.99 29.1602 4.40499 28.9143 3.97365 28.4767C3.54232 28.0392 3.3 27.4457 3.3 26.8268V22.1602ZM35.5 22.1602C35.5 21.5413 35.7423 20.9478 36.1737 20.5102C36.605 20.0727 37.19 19.8268 37.8 19.8268H42.4C43.01 19.8268 43.595 20.0727 44.0263 20.5102C44.4577 20.9478 44.7 21.5413 44.7 22.1602V26.8268C44.7 27.4457 44.4577 28.0392 44.0263 28.4767C43.595 28.9143 43.01 29.1602 42.4 29.1602H37.8C37.19 29.1602 36.605 28.9143 36.1737 28.4767C35.7423 28.0392 35.5 27.4457 35.5 26.8268V22.1602ZM19.4 3.49349C19.4 2.87465 19.6423 2.28116 20.0737 1.84357C20.505 1.40599 21.09 1.16016 21.7 1.16016H26.3C26.91 1.16016 27.495 1.40599 27.9263 1.84357C28.3577 2.28116 28.6 2.87465 28.6 3.49349V8.16016C28.6 8.77899 28.3577 9.37249 27.9263 9.81007C27.495 10.2477 26.91 10.4935 26.3 10.4935H21.7C21.09 10.4935 20.505 10.2477 20.0737 9.81007C19.6423 9.37249 19.4 8.77899 19.4 8.16016V3.49349Z" stroke="#E43D30" stroke-width="2" stroke-linecap="round" stroke-linejoin="round"/>
</svg>
