<svg width="41" height="34" viewBox="0 0 41 34" fill="none" xmlns="http://www.w3.org/2000/svg">
<path d="M1 1H7.39008L9.27241 6.0617M9.27241 6.0617L14.6322 20.4748M9.27241 6.0617H31.2467M14.6322 20.4748H26.2197M14.6322 20.4748L11.2242 26.6517H33.9731M31.2467 6.0617H39L33.9731 20.4748H26.2197M31.2467 6.0617L26.2197 20.4748M20.5537 29.8258C20.5537 31.5788 19.1423 33 17.4013 33C15.6603 33 14.2489 31.5788 14.2489 29.8258C14.2489 28.0727 15.6603 26.6517 17.4013 26.6517C19.1423 26.6517 20.5537 28.0727 20.5537 29.8258ZM31.54 29.8258C31.54 31.5788 30.1287 33 28.3876 33C26.6466 33 25.2353 31.5788 25.2353 29.8258C25.2353 28.0727 26.6466 26.6517 28.3876 26.6517C30.1287 26.6517 31.54 28.0727 31.54 29.8258Z" stroke="white" stroke-width="2" stroke-linecap="round"/>
</svg>
