<svg width="37" height="34" viewBox="0 0 37 34" fill="none" xmlns="http://www.w3.org/2000/svg">
<path d="M1 8.51971V31.3423C1 32.2578 1.73963 33 2.65201 33H34.1715C35.0839 33 35.8235 32.2578 35.8235 31.3423V8.51971M1 8.51971V2.65772C1 1.74219 1.73963 1 2.65201 1H34.1715C35.0839 1 35.8235 1.74219 35.8235 2.65772V8.51971M1 8.51971H35.8235M5.12013 4.83516H9.26335" stroke="white" stroke-width="2" stroke-linecap="round" stroke-linejoin="round"/>
<path d="M14.6468 16.9798V27.3327C14.6468 27.5823 14.5477 27.8217 14.3712 27.9982C14.1947 28.1747 13.9553 28.2739 13.7057 28.2739H12.7645C12.5149 28.2739 12.2755 28.1747 12.099 27.9982C11.9225 27.8217 11.8233 27.5823 11.8233 27.3327V22.6268M25.5722 19.6547H28.7645M24.9998 16.5328L26.8839 14.3893M26.8839 24.7422L24.9998 22.5987M20.7871 13.4316L17.5763 16.1072C16.8997 16.671 16.0469 16.9798 15.1662 16.9798H8.99977C8.75015 16.9798 8.51076 17.0789 8.33426 17.2555C8.15775 17.432 8.05859 17.6713 8.05859 17.921V21.6857C8.05859 21.9353 8.15775 22.1747 8.33426 22.3512C8.51076 22.5277 8.75015 22.6268 8.99977 22.6268H15.1662C16.0469 22.6268 16.8997 22.9356 17.5763 23.4994L20.7871 26.1751C20.9108 26.2781 21.0613 26.3438 21.221 26.3643C21.3807 26.3849 21.543 26.3595 21.6888 26.2912C21.8345 26.2228 21.9578 26.1143 22.0442 25.9784C22.1305 25.8425 22.1763 25.6848 22.1762 25.5238V14.0828C22.1763 13.9218 22.1305 13.7641 22.0442 13.6282C21.9578 13.4923 21.8345 13.3838 21.6888 13.3155C21.543 13.2471 21.3807 13.2217 21.221 13.2423C21.0613 13.2628 20.9108 13.3285 20.7871 13.4316Z" stroke="white" stroke-width="2" stroke-linecap="round" stroke-linejoin="round"/>
</svg>
