<svg width="38" height="34" viewBox="0 0 38 34" fill="none" xmlns="http://www.w3.org/2000/svg">
<path d="M1.5 8.51971V31.3423C1.5 32.2578 2.24338 33 3.16038 33H34.8396C35.7566 33 36.5 32.2578 36.5 31.3423V8.51971M1.5 8.51971V2.65772C1.5 1.74219 2.24338 1 3.16038 1H34.8396C35.7566 1 36.5 1.74219 36.5 2.65772V8.51971M1.5 8.51971H36.5M5.64101 4.83516H9.80523" stroke="white" stroke-width="2" stroke-linecap="round" stroke-linejoin="round"/>
<path d="M1.5 28.9307L8.45472 21.9915C8.45973 21.9865 8.46374 21.9804 8.46875 21.9754V21.9754C9.32166 21.0265 10.8207 21.0646 11.6244 22.0556L20.5 33M15.067 25.7989L21.9605 18.2324C21.9715 18.2223 21.9825 18.2113 21.9935 18.1982L23.4825 16.5407C24.6924 15.1939 26.8105 15.2175 27.9901 16.591L36.5 26.5" stroke="white" stroke-width="2"/>
</svg>
