<svg width="38" height="30" viewBox="0 0 38 30" fill="none" xmlns="http://www.w3.org/2000/svg">
<path d="M36.075 1.925C35.4583 1.30833 34.6897 1 33.769 1H4.231C3.31033 1 2.54167 1.30833 1.925 1.925C1.30833 2.54167 1 3.31033 1 4.231V25.769C1 26.6897 1.30833 27.4583 1.925 28.075C2.54167 28.6917 3.31033 29 4.231 29H33.769C34.6897 29 35.4583 28.6917 36.075 28.075C36.6917 27.4583 37 26.6897 37 25.769V4.231C37 3.31033 36.6917 2.54167 36.075 1.925ZM36.075 1.925L20 13L2 2" stroke="white" stroke-width="2"/>
</svg>
