<svg width="37" height="34" viewBox="0 0 37 34" fill="none" xmlns="http://www.w3.org/2000/svg">
<path d="M9.56586 8.42315H3.57883C2.15714 8.42315 1 9.5796 1 11.002V30.4212C1 31.8429 2.15645 33 3.57883 33H33.2776C34.6993 33 35.8564 31.8435 35.8564 30.4212V11.0033C35.8502 9.58029 34.6904 8.42315 33.2707 8.42315H27.2837M9.56586 8.42315V5.85806C9.56586 3.1796 11.7455 1 14.4239 1H22.4256C25.1041 1 27.2837 3.1796 27.2837 5.85806V8.42315M9.56586 8.42315H12.4381H24.4128H27.2837M35.8564 14.7166L29.5162 14.7173M26.7677 14.7173H10.7161L10.1382 14.7166H7.29418L1 14.7173M29.5568 14.7166H26.7127" stroke="white" stroke-width="2"/>
<path d="M20.9413 19.6786H20.5518C18.4277 19.6786 16.3035 19.6786 14.1792 19.6796C14.0455 19.6796 13.9059 19.6786 13.779 19.7117C13.5115 19.7824 13.362 19.973 13.3689 20.2333C13.3758 20.5078 13.5332 20.7012 13.8292 20.7503C13.9728 20.7739 14.1222 20.7729 14.2688 20.7729C16.3437 20.7739 18.4188 20.7729 20.4938 20.7729H21.0268C20.6482 21.1465 20.3375 21.438 20.0444 21.7446C19.8458 21.9521 19.8093 22.2257 20.0139 22.4145C20.1565 22.5455 20.4132 22.587 20.6266 22.6134C20.7161 22.6247 20.837 22.505 20.9217 22.4248C21.5333 21.8455 22.1421 21.2635 22.7459 20.6767C23.0645 20.3673 23.0704 20.0927 22.7577 19.7871C22.1469 19.1909 21.5294 18.5994 20.9088 18.0135C20.6325 17.7522 20.2912 17.7381 20.0582 17.9569C19.8261 18.1749 19.8369 18.5088 20.1044 18.7711C20.3916 19.0522 20.6954 19.3202 20.9914 19.5928C20.9747 19.6202 20.958 19.6484 20.9413 19.6758V19.6786Z" fill="white" stroke="white" stroke-width="0.2"/>
<path d="M15.4161 26.2372H15.8056C17.9298 26.2372 20.0539 26.2372 22.1782 26.2381C22.3119 26.2381 22.4515 26.2372 22.5784 26.2703C22.8459 26.341 22.9954 26.5316 22.9885 26.7919C22.9816 27.0664 22.8243 27.2598 22.5283 27.3089C22.3846 27.3325 22.2352 27.3315 22.0886 27.3315C20.0137 27.3325 17.9386 27.3315 15.8636 27.3315H15.3306C15.7092 27.7051 16.0199 27.9966 16.313 28.3032C16.5117 28.5107 16.5481 28.7843 16.3435 28.9731C16.2009 29.1041 15.9443 29.1456 15.7309 29.172C15.6413 29.1833 15.5204 29.0636 15.4358 28.9834C14.8241 28.4041 14.2153 27.8221 13.6115 27.2353C13.2929 26.9259 13.287 26.6513 13.5997 26.3457C14.2105 25.7495 14.828 25.158 15.4486 24.5721C15.7249 24.3108 16.0662 24.2967 16.2993 24.5155C16.5313 24.7335 16.5205 25.0674 16.253 25.3297C15.9659 25.6108 15.662 25.8788 15.366 26.1514C15.3827 26.1788 15.3995 26.207 15.4161 26.2344V26.2372Z" fill="white" stroke="white" stroke-width="0.2"/>
</svg>
