<svg width="34" height="34" viewBox="0 0 34 34" fill="none" xmlns="http://www.w3.org/2000/svg">
<path d="M14.5728 28.1462C11.4024 28.1462 8.31539 27.025 5.87999 24.9895L5.85413 24.9677V10.9326C5.85413 10.809 5.9547 10.7084 6.07825 10.7084H9.49459V7.29204C9.49459 7.16849 9.59515 7.06792 9.7187 7.06792H21.8537C21.9773 7.06792 22.0779 7.16849 22.0779 7.29204V20.641C22.0779 20.7646 21.9773 20.8651 21.8537 20.8651C21.7302 20.8651 21.6296 20.7646 21.6296 20.641V7.51616H9.94282V10.7084H18.2133C18.3368 10.7084 18.4374 10.809 18.4374 10.9326V27.2077L19.8241 26.6003C24.6069 24.5045 27.6974 19.7836 27.6974 14.5731C27.6974 7.33629 21.8095 1.44824 14.5728 1.44824C7.33617 1.44824 1.44823 7.33629 1.44823 14.5731C1.44823 17.4332 2.35619 20.1537 4.07327 22.4403L5.74839 24.6712L5.63289 24.7786C2.68777 22.1949 1 18.4791 1 14.5731C1 7.08861 7.0885 1 14.5728 1C22.0572 1 28.1457 7.08861 28.1457 14.5731C28.1457 22.0576 22.0572 28.1462 14.5728 28.1462ZM6.30236 24.7689L6.69715 25.066C8.98602 26.7877 11.7093 27.6979 14.5728 27.6979C15.4555 27.6979 16.3382 27.6089 17.1973 27.4342L17.9892 27.2727V11.1567H6.30236V24.7689Z" stroke="white" stroke-width="1.2"/>
<path d="M30.3482 33C29.6402 33 28.9742 32.7242 28.4742 32.2236L24.1827 27.9331C24.1407 27.8912 24.1172 27.8337 24.1172 27.7751C24.1172 27.7165 24.1413 27.6585 24.1827 27.6165L27.6157 24.184C27.6582 24.1415 27.7145 24.1179 27.7743 24.1179C27.8341 24.1179 27.8904 24.1415 27.9329 24.184L32.2227 28.4745C32.7238 28.9756 32.9997 29.6411 32.9997 30.349C32.9997 31.057 32.7238 31.7231 32.2227 32.2242C31.7222 32.7247 31.0562 33 30.3482 33ZM24.6579 27.7751L28.7909 31.907C29.1949 32.3098 29.762 32.5403 30.3482 32.5403C30.9343 32.5403 31.5015 32.3098 31.9049 31.9075C32.3216 31.4921 32.5509 30.9387 32.5509 30.349C32.5509 29.7594 32.321 29.2055 31.9038 28.79L27.7743 24.6593L24.6579 27.7751Z" stroke="white" stroke-width="1.2"/>
<path d="M9.71923 16.0107C9.59568 16.0107 9.49512 15.9102 9.49512 15.7866C9.49512 15.6631 9.59568 15.5625 9.71923 15.5625H14.5734C14.6969 15.5625 14.7975 15.6631 14.7975 15.7866C14.7975 15.9102 14.6969 16.0107 14.5734 16.0107H9.71923Z" stroke="white" stroke-width="1.2"/>
<path d="M9.71923 19.6514C9.59568 19.6514 9.49512 19.5508 9.49512 19.4272C9.49512 19.3037 9.59568 19.2031 9.71923 19.2031H14.5734C14.6969 19.2031 14.7975 19.3037 14.7975 19.4272C14.7975 19.5508 14.6969 19.6514 14.5734 19.6514H9.71923Z" stroke="white" stroke-width="1.2"/>
<path d="M9.71923 23.2917C9.59568 23.2917 9.49512 23.1912 9.49512 23.0676C9.49512 22.9441 9.59568 22.8435 9.71923 22.8435H14.5734C14.6969 22.8435 14.7975 22.9441 14.7975 23.0676C14.7975 23.1912 14.6969 23.2917 14.5734 23.2917H9.71923Z" stroke="white" stroke-width="1.2"/>
</svg>
