<svg width="72" height="35" viewBox="0 0 72 35" fill="none" xmlns="http://www.w3.org/2000/svg">
<g clip-path="url(#clip0_388_187)">
<path d="M50.5137 3.57197H49.6369C49.5394 4.09969 49.1903 4.37572 48.5977 4.4082V4.06721C49.0685 4.06721 49.3121 3.80741 49.3121 3.20662V1.25H49.6693V3.21474H50.5137V3.57197Z" fill="#909496"/>
<path d="M53.8054 3.05201V3.57161H50.2656V3.21438H53.3751C53.3751 3.14943 53.3832 3.0926 53.3832 3.02765C53.3832 2.62983 53.2939 2.32132 53.0991 2.08588C52.8799 1.80984 52.5551 1.67182 52.1167 1.67182H51.0613C51.248 1.33895 51.5078 0.876179 51.8407 0.275391H52.2628L51.6539 1.32271H52.1086C52.6282 1.32271 53.0422 1.47697 53.3426 1.80172C53.643 2.11835 53.7892 2.54053 53.7892 3.06013" fill="#909496"/>
<path d="M58.7388 0.430295H58.3734V0H58.7388V0.430295ZM58.6089 2.87404C59.0473 2.68731 59.3152 2.32197 59.3152 1.91603C59.3152 1.51009 59.031 1.21781 58.6007 1.21781C58.1705 1.21781 57.8863 1.52633 57.8863 1.90791C57.8863 2.28949 58.1705 2.68731 58.6007 2.86592M60.3138 3.57226H59.8104C59.096 3.57226 59.0148 3.52354 58.617 3.29622C58.211 3.53166 58.1299 3.57226 57.4073 3.57226H56.5711C55.5887 3.57226 55.1016 3.07701 55.1016 2.08652V1.34772H55.4588V2.08652C55.4588 2.84969 55.8241 3.21503 56.5386 3.21503H57.7077C57.8944 3.21503 58.073 3.17444 58.2273 3.09325C57.7808 2.88216 57.5047 2.44375 57.5047 1.97286C57.5047 1.35583 57.9512 0.909302 58.6089 0.909302C59.2665 0.909302 59.713 1.35583 59.713 1.97286C59.713 2.45999 59.4289 2.88216 58.9905 3.09325C59.1528 3.17444 59.3233 3.21503 59.5101 3.21503H60.3138V3.57226Z" fill="#909496"/>
<path d="M61.3849 0.267578V2.67073C61.3849 3.27152 61.1332 3.57192 60.6379 3.57192H60.1914V3.22281H60.5162C60.7354 3.22281 60.8815 3.14974 60.9465 3.01172C60.9952 2.92241 61.0195 2.75192 61.0195 2.51648V0.267578H61.3767H61.3849Z" fill="#909496"/>
<path d="M63.1973 3.57192H62.7913C62.6046 3.57192 62.4504 3.50697 62.3286 3.37707C62.1824 3.23093 62.1094 3.02796 62.1094 2.76004V0.267578H62.4747V2.54895C62.4747 2.7844 62.5072 2.95489 62.5721 3.05231C62.629 3.14162 62.7264 3.19033 62.8644 3.21469C62.8969 3.21469 62.9375 3.21469 63.1892 3.21469V3.57192H63.1973Z" fill="#909496"/>
<path d="M65.2013 4.35185H64.836V3.91343H65.2013V4.35185ZM66.614 3.05285V3.57245H63.0742V3.21522H66.1837C66.1837 3.15027 66.1918 3.08532 66.1918 3.02849C66.1918 2.1679 65.7372 1.67266 64.9334 1.67266C64.5031 1.67266 64.1784 1.84315 63.9754 2.17602C63.9267 2.11919 63.8211 2.02176 63.6669 1.85939C63.9592 1.49404 64.3732 1.31543 64.9334 1.31543C65.9483 1.31543 66.6221 1.98929 66.6221 3.05285" fill="#909496"/>
<path d="M45.0677 29.9339H43.2734V20.1914H45.0677V29.9339ZM49.8334 21.9938C46.797 21.9938 45.701 23.9179 45.701 23.9179C45.701 20.2807 49.8334 20.2076 49.8334 20.2076V21.9938Z" fill="#365888"/>
<path d="M41.9431 9.31235H38.3871C38.3871 9.31235 39.9865 10.0674 40.1488 11.3583V14.0456C40.1488 14.963 39.5724 15.4339 38.9391 15.6775C38.6387 15.783 38.3465 15.8398 38.0542 15.8642C38.7199 15.9616 39.4344 16.1402 40.1894 16.4244C41.2936 15.7586 41.7969 14.9143 41.9431 14.7032V9.29611V9.31235ZM36.6984 5.01752C38.858 5.01752 40.4005 5.52089 41.9431 7.3882V5.3098C40.3843 4.06763 38.3627 3.62109 36.7308 3.62109C34.7093 3.62109 33.0612 4.27871 31.7865 5.59395C30.52 6.89296 29.8867 8.54918 29.8867 10.5708C29.8867 12.3975 30.4875 13.9644 31.6972 15.2553C32.1843 15.7749 32.7283 16.1971 33.3291 16.5137C33.9705 16.2133 34.8879 15.8885 36.0489 15.7992C33.873 15.3608 31.7216 13.1769 31.7216 10.449C31.7216 7.45315 34.1247 5.01752 36.6984 5.01752Z" fill="#909496"/>
<path d="M46.9191 15.9375C45.7094 15.6371 45.0599 14.7684 45.0599 13.4612V7.55078H43.2656V14.0214C43.2656 15.1581 43.8664 16.5707 45.4333 17.1066C47.2357 17.7317 48.9894 16.6682 49.306 15.6858C49.4521 15.2555 49.4034 15.0363 49.4034 15.0363C49.4034 15.0363 48.6078 16.3596 46.9191 15.9375ZM50.1828 17.3014H51.9771V7.5589H50.1828V17.3014Z" fill="#909496"/>
<path d="M51.1253 20.1914H53.293L57.2225 27.4658L60.0884 20.1914H62.0938L57.0439 32.6212C56.8572 33.0759 55.7774 35.479 53.3255 34.9188C52.2457 34.6753 51.6611 33.7903 51.6611 33.7903C51.6611 33.7903 53.0657 34.2775 54.2429 33.4006C55.3795 32.605 56.3457 29.5036 56.3457 29.5036L51.1172 20.1995L51.1253 20.1914Z" fill="#365888"/>
<path d="M41.9431 20.0369C40.3924 18.1696 38.858 17.6663 36.6984 17.6663C34.1247 17.6663 31.7216 20.0938 31.7216 23.0977C31.7216 26.1017 34.3277 28.448 36.6984 28.5292C38.0948 28.5779 39.5724 28.3343 41.9187 27.3682C41.667 27.7335 40.4005 29.9581 36.7308 29.9581C34.6768 29.9581 32.9962 29.268 31.6972 27.8959C30.4875 26.605 29.8867 25.0462 29.8867 23.2114C29.8867 21.1898 30.52 19.5336 31.7865 18.2346C33.0693 16.9193 34.7174 16.2617 36.7308 16.2617C38.3627 16.2617 40.3843 16.7083 41.9431 17.9504V20.0288V20.0369Z" fill="#365888"/>
<path d="M70.2358 21.5313C71.1776 22.4487 71.6485 23.626 71.6485 25.063C71.6485 26.5 71.1776 27.6853 70.2358 28.5946C69.3184 29.4877 68.1655 29.9342 66.7853 29.9342C65.3239 29.9342 64.1305 29.4471 63.2049 28.4647C62.3444 27.5473 61.9141 26.435 61.9141 25.1279C61.9141 23.6909 62.3606 22.5137 63.2618 21.5881C64.1711 20.6464 65.3483 20.1836 66.7853 20.1836C68.2223 20.1836 69.3184 20.6301 70.2358 21.5232M63.7245 25.0467C63.7245 27.182 65.0885 28.9113 66.7772 28.9113C68.4659 28.9113 69.8299 27.182 69.8299 25.0467C69.8299 22.9115 68.4659 21.1822 66.7772 21.1822C65.0885 21.1822 63.7245 22.9115 63.7245 25.0467Z" fill="#365888"/>
<path d="M53.3089 14.0294V4.60352H55.1031V13.4611C55.1031 14.7601 55.7527 15.6369 56.9623 15.9373C58.6429 16.3595 59.4467 15.0361 59.4467 15.0361C59.4467 15.0361 59.4954 15.2553 59.3493 15.6856C59.0245 16.6761 57.279 17.7316 55.4685 17.1145C53.9097 16.5787 53.3008 15.166 53.3008 14.0294" fill="#909496"/>
<path d="M60.793 7.87524C60.793 6.73861 61.3938 5.32595 62.9607 4.79011C64.7631 4.17308 66.5168 5.22852 66.8415 6.21089C66.9795 6.64119 66.9389 6.8604 66.9389 6.8604C66.9389 6.8604 66.1433 5.53704 64.4546 5.95921C63.2449 6.25961 62.5954 7.12832 62.5954 8.43544V9.49088H65.8348V10.319H62.5954V17.293H60.8011V10.319H59.4453V9.49088H60.8011V7.87524H60.793Z" fill="#909496"/>
<path d="M0 3.58789H26.3698V29.9576H16.8464C21.5553 27.8468 24.8191 23.3084 24.8191 18.0555C24.8191 10.7811 18.5839 4.88689 10.8873 4.88689C6.48689 4.88689 2.55741 6.81916 0.00811877 9.83122V3.58789H0ZM6.13779 29.9576H0V26.0525C1.8186 27.8955 4.54651 28.5531 7.94015 27.9036C4.57087 26.4585 2.16771 22.5939 2.16771 18.0637C2.16771 12.2912 6.07284 7.60668 10.8873 7.60668C15.7017 7.60668 19.6068 12.2912 19.6068 18.0637C19.6068 21.7577 18.0074 25.0052 15.5961 26.8644C15.0522 27.3759 12.4136 29.5598 6.14591 29.9658" fill="#365888"/>
</g>
<defs>
<clipPath id="clip0_388_187">
<rect width="71.64" height="35" fill="white"/>
</clipPath>
</defs>
</svg>
