<?xml version="1.0" encoding="iso-8859-1"?>
<!-- Generator: Adobe Illustrator 17.0.0, SVG Export Plug-In . SVG Version: 6.00 Build 0)  -->
<!DOCTYPE svg PUBLIC "-//W3C//DTD SVG 1.1//EN" "http://www.w3.org/Graphics/SVG/1.1/DTD/svg11.dtd">
<svg version="1.1" id="Layer_1" xmlns="http://www.w3.org/2000/svg" xmlns:xlink="http://www.w3.org/1999/xlink" x="0px" y="0px"
	 width="353.175px" height="168.357px" viewBox="0 0 353.175 168.357" style="enable-background:new 0 0 353.175 168.357;"
	 xml:space="preserve">
<g>
	<g>
		<defs>
			<polyline id="SVGID_1_" points="353.175,168.357 0,168.357 0,0 353.175,0 			"/>
		</defs>
		<clipPath id="SVGID_2_">
			<use xlink:href="#SVGID_1_"  style="overflow:visible;"/>
		</clipPath>
		<path style="clip-path:url(#SVGID_2_);fill:#2B2A7F;" d="M174.394,26.596c-0.693-0.049-1.281-0.113-1.895-0.113
			c-0.697,0-1.311,0.064-1.941,0.113c-1.063-3.034-2.374-6.543-3.835-9.88h-9.284c-1.281,3.224-2.603,6.442-3.626,9.88
			c-0.498-0.049-0.917-0.113-1.355-0.113c-0.468,0-0.877,0.064-1.263,0.113l11.39-25.558h0.854L174.394,26.596z M162.113,5.828
			l-3.981,9.355h8.037L162.113,5.828z"/>
	</g>
	<g>
		<defs>
			<polyline id="SVGID_3_" points="353.175,168.357 0,168.357 0,0 353.175,0 			"/>
		</defs>
		<clipPath id="SVGID_4_">
			<use xlink:href="#SVGID_3_"  style="overflow:visible;"/>
		</clipPath>
		<path style="clip-path:url(#SVGID_4_);fill:#2B2A7F;" d="M202.679,1.589c0.966,9.025,1.984,18.019,2.974,25.007
			c-0.656-0.049-1.176-0.112-1.719-0.112c-0.584,0-1.169,0.063-1.716,0.112c-0.629-7.36-1.351-15.247-1.872-18.876
			c-4.236,7.576-7.375,13.42-9.577,18.464h-0.408l-1.996-4.123c-2.349-4.821-4.904-9.577-7.382-14.341
			c-0.818,7.142-1.802,14.371-1.802,18.876c-0.48-0.049-0.869-0.112-1.281-0.112c-0.472,0-0.872,0.063-1.319,0.112
			c0.963-5.887,3.139-21.164,3.521-25.007h0.944c2.921,5.797,6.435,12.682,10.353,19.149c3.474-6.258,6.831-12.606,10.523-19.149
			C201.922,1.589,202.679,1.589,202.679,1.589z"/>
	</g>
	<g>
		<defs>
			<polyline id="SVGID_5_" points="353.175,168.357 0,168.357 0,0 353.175,0 			"/>
		</defs>
		<clipPath id="SVGID_6_">
			<use xlink:href="#SVGID_5_"  style="overflow:visible;"/>
		</clipPath>
		<path style="clip-path:url(#SVGID_6_);fill:#2B2A7F;" d="M213.941,12.483h5.66c1.108,0,2.168-0.153,3.258-0.187
			c-0.03,0.289-0.098,0.622-0.098,0.955c0,0.277,0.068,0.622,0.098,1.019c-1.09-0.03-2.15-0.176-3.258-0.176h-5.66V24.76
			c2.229,0.079,4.435-0.067,6.626-0.146c1.131-0.033,2.221-0.146,3.355-0.321c-0.03,0.4-0.104,0.733-0.104,1.089
			c0,0.368,0.074,0.734,0.104,1.101h-13.194V1.588h12.97c-0.03,0.397-0.101,0.727-0.101,1.109c0,0.355,0.071,0.712,0.101,1.075
			c-1.086-0.222-2.184-0.308-3.288-0.397l-3.645-0.08h-2.824V12.483z"/>
	</g>
	<g>
		<defs>
			<polyline id="SVGID_7_" points="353.175,168.357 0,168.357 0,0 353.175,0 			"/>
		</defs>
		<clipPath id="SVGID_8_">
			<use xlink:href="#SVGID_7_"  style="overflow:visible;"/>
		</clipPath>
		<path style="clip-path:url(#SVGID_8_);fill:#2B2A7F;" d="M229.042,1.589h7.756c5.607,0,8.105,1.875,8.105,5.55
			c0,4.243-3.805,6.288-7.494,6.955l7.525,9.532l1.763,2.055l0.694,0.914c-0.768-0.048-1.424-0.112-2.116-0.112
			c-0.705,0-1.424,0.064-2.083,0.112c-0.817-1.138-1.536-2.157-2.307-3.179l-4.311-5.603l-2.936-3.438h-1.382v12.22
			c-0.585-0.048-1.105-0.112-1.604-0.112c-0.542,0-1.097,0.064-1.61,0.112L229.042,1.589L229.042,1.589z M232.256,12.985
			c0.517,0.041,2.85,0.187,4.711-0.18c2.675-0.532,4.689-2.378,4.689-5.224c0-2.517-1.288-4.172-4.034-4.611
			c-1.347-0.217-3.835-0.105-5.366-0.041V12.985z"/>
	</g>
	<g>
		<defs>
			<polyline id="SVGID_9_" points="353.175,168.357 0,168.357 0,0 353.175,0 			"/>
		</defs>
		<clipPath id="SVGID_10_">
			<use xlink:href="#SVGID_9_"  style="overflow:visible;"/>
		</clipPath>
		<path style="clip-path:url(#SVGID_10_);fill:#2B2A7F;" d="M251.555,1.589c0.514,0.041,1.063,0.104,1.607,0.104
			c0.513,0,1.023-0.063,1.607-0.104v25.007c-0.584-0.049-1.094-0.112-1.607-0.112c-0.544,0-1.093,0.063-1.607,0.112V1.589z"/>
	</g>
	<g>
		<defs>
			<polyline id="SVGID_11_" points="353.175,168.357 0,168.357 0,0 353.175,0 			"/>
		</defs>
		<clipPath id="SVGID_12_">
			<use xlink:href="#SVGID_11_"  style="overflow:visible;"/>
		</clipPath>
		<path style="clip-path:url(#SVGID_12_);fill:#2B2A7F;" d="M280.573,24.936c-2.307,1.547-5.292,2.102-8.074,2.102
			c-8.038,0-12.862-5.09-12.862-13.098c0-8.235,6.068-12.902,13.775-12.902c2.667,0,5.413,0.625,7.854,1.681
			c-0.359,0.922-0.581,1.862-0.767,2.81l-0.247,0.044c-0.521-0.666-3.214-3.146-6.986-3.146c-6.722,0-10.052,5.446-10.052,11.667
			c0,7.011,4.019,11.509,9.791,11.509c3.951,0,7.025-2.333,7.753-2.963L280.573,24.936z"/>
	</g>
	<g>
		<defs>
			<polyline id="SVGID_13_" points="353.175,168.357 0,168.357 0,0 353.175,0 			"/>
		</defs>
		<clipPath id="SVGID_14_">
			<use xlink:href="#SVGID_13_"  style="overflow:visible;"/>
		</clipPath>
		<path style="clip-path:url(#SVGID_14_);fill:#2B2A7F;" d="M304.776,26.596c-0.686-0.049-1.277-0.113-1.903-0.113
			c-0.696,0-1.318,0.064-1.929,0.113c-1.063-3.034-2.374-6.543-3.839-9.88h-9.288c-1.285,3.224-2.595,6.442-3.614,9.88
			c-0.521-0.049-0.922-0.113-1.359-0.113c-0.473,0-0.873,0.064-1.278,0.113l11.408-25.558h0.835L304.776,26.596z M292.495,5.828
			l-3.978,9.355h8.034L292.495,5.828z"/>
	</g>
	<g>
		<defs>
			<polyline id="SVGID_15_" points="353.175,168.357 0,168.357 0,0 353.175,0 			"/>
		</defs>
		<clipPath id="SVGID_16_">
			<use xlink:href="#SVGID_15_"  style="overflow:visible;"/>
		</clipPath>
		<path style="clip-path:url(#SVGID_16_);fill:#2B2A7F;" d="M330.214,26.596h-1.098c-0.396-0.517-1.137-1.39-1.894-2.231
			l-15.798-17.48h-0.359v19.711c-0.372-0.049-0.694-0.112-1.031-0.112c-0.359,0-0.692,0.063-1.014,0.112V1.589h1.423l17.359,18.827
			h0.359V1.589c0.334,0.041,0.657,0.105,1.034,0.105c0.323,0,0.656-0.064,1.019-0.105V26.596z"/>
	</g>
	<g>
		<defs>
			<polyline id="SVGID_17_" points="353.175,168.357 0,168.357 0,0 353.175,0 			"/>
		</defs>
		<clipPath id="SVGID_18_">
			<use xlink:href="#SVGID_17_"  style="overflow:visible;"/>
		</clipPath>
		<path style="clip-path:url(#SVGID_18_);fill:#2B2A7F;" d="M152.248,56.429c1.435,2.329,3.079,3.794,5.929,3.794
			c2.955,0,5.079-2.442,5.079-5.356c0-6.787-11.454-3.787-11.454-12.042c0-4.707,3.738-7.022,8.128-7.022
			c1.763,0,3.865,0.551,5.228,1.757c-0.445,0.944-0.696,1.981-0.988,2.989h-0.375c-0.757-1.963-2.367-3.169-4.521-3.169
			c-2.528,0-4.614,1.682-4.614,4.27c0,6.73,11.513,4.022,11.513,11.809c0,5.225-4.056,8.344-9.019,8.344
			c-1.798,0-4.722-0.779-5.959-2.123c0.361-1.067,0.543-2.165,0.682-3.251H152.248z"/>
	</g>
	<g>
		<defs>
			<polyline id="SVGID_19_" points="353.175,168.357 0,168.357 0,0 353.175,0 			"/>
		</defs>
		<clipPath id="SVGID_20_">
			<use xlink:href="#SVGID_19_"  style="overflow:visible;"/>
		</clipPath>
		<path style="clip-path:url(#SVGID_20_);fill:#2B2A7F;" d="M190.154,59.702c-2.307,1.547-5.307,2.101-8.075,2.101
			c-8.037,0-12.872-5.09-12.872-13.098c0-8.235,6.074-12.902,13.782-12.902c2.671,0,5.408,0.626,7.861,1.681
			c-0.362,0.922-0.584,1.862-0.771,2.81l-0.247,0.045c-0.517-0.667-3.225-3.147-6.989-3.147c-6.722,0-10.048,5.447-10.048,11.667
			c0,7.011,4.022,11.509,9.797,11.509c3.94,0,7.007-2.333,7.756-2.962L190.154,59.702z"/>
	</g>
	<g>
		<defs>
			<polyline id="SVGID_21_" points="353.175,168.357 0,168.357 0,0 353.175,0 			"/>
		</defs>
		<clipPath id="SVGID_22_">
			<use xlink:href="#SVGID_21_"  style="overflow:visible;"/>
		</clipPath>
		<path style="clip-path:url(#SVGID_22_);fill:#2B2A7F;" d="M214.098,36.353c0.51,0.041,1.067,0.105,1.611,0.105
			c0.498,0,1.023-0.064,1.603-0.105v25.008c-0.58-0.049-1.105-0.113-1.603-0.113c-0.544,0-1.101,0.064-1.611,0.113V48.784
			c-2.595-0.079-5.119-0.192-7.677-0.192c-2.57,0-5.083,0.113-7.708,0.192v12.577c-0.595-0.049-1.101-0.113-1.618-0.113
			c-0.543,0-1.101,0.064-1.606,0.113V36.353c0.505,0.041,1.063,0.105,1.606,0.105c0.517,0,1.023-0.064,1.618-0.105v10.498
			c2.625,0.064,5.18,0.188,7.708,0.188c2.558,0,5.082-0.124,7.677-0.188L214.098,36.353L214.098,36.353z"/>
	</g>
	<g>
		<defs>
			<polyline id="SVGID_23_" points="353.175,168.357 0,168.357 0,0 353.175,0 			"/>
		</defs>
		<clipPath id="SVGID_24_">
			<use xlink:href="#SVGID_23_"  style="overflow:visible;"/>
		</clipPath>
		<path style="clip-path:url(#SVGID_24_);fill:#2B2A7F;" d="M222.177,48.86c0-8.012,5.947-13.057,13.516-13.057
			c6.865,0,13.851,3.738,13.851,12.491c0,8.164-5.772,13.509-13.922,13.509C227.548,61.803,222.177,56.668,222.177,48.86
			 M243.66,40.549c-1.82-2.297-4.674-3.532-7.592-3.532c-6.442,0-10.314,4.853-10.314,12.277c0,7.419,4.535,11.284,9.98,11.284
			c7.704,0,10.488-7.962,10.24-11.985C245.974,45.57,245.562,43.001,243.66,40.549"/>
	</g>
	<g>
		<defs>
			<polyline id="SVGID_25_" points="353.175,168.357 0,168.357 0,0 353.175,0 			"/>
		</defs>
		<clipPath id="SVGID_26_">
			<use xlink:href="#SVGID_25_"  style="overflow:visible;"/>
		</clipPath>
		<path style="clip-path:url(#SVGID_26_);fill:#2B2A7F;" d="M252.615,48.86c0-8.012,5.962-13.057,13.52-13.057
			c6.876,0,13.854,3.738,13.854,12.491c0,8.164-5.768,13.509-13.917,13.509C257.993,61.803,252.615,56.668,252.615,48.86
			 M274.109,40.549c-1.828-2.297-4.678-3.532-7.596-3.532c-6.438,0-10.31,4.853-10.31,12.277c0,7.419,4.528,11.284,9.973,11.284
			c7.719,0,10.488-7.962,10.233-11.985C276.409,45.57,276.007,43.001,274.109,40.549"/>
	</g>
	<g>
		<defs>
			<polyline id="SVGID_27_" points="353.175,168.357 0,168.357 0,0 353.175,0 			"/>
		</defs>
		<clipPath id="SVGID_28_">
			<use xlink:href="#SVGID_27_"  style="overflow:visible;"/>
		</clipPath>
		<path style="clip-path:url(#SVGID_28_);fill:#2B2A7F;" d="M288.001,59.525c2.221,0.079,4.415-0.067,6.606-0.134
			c1.176-0.046,2.315-0.187,3.484-0.334c-0.038,0.401-0.112,0.735-0.112,1.09c0,0.367,0.074,0.734,0.112,1.102h-13.312V36.353
			c0.514,0.041,1.057,0.106,1.615,0.106c0.505,0,1.026-0.065,1.607-0.106L288.001,59.525L288.001,59.525z"/>
	</g>
	<g>
		<defs>
			<polyline id="SVGID_29_" points="353.175,168.357 0,168.357 0,0 353.175,0 			"/>
		</defs>
		<clipPath id="SVGID_30_">
			<use xlink:href="#SVGID_29_"  style="overflow:visible;"/>
		</clipPath>
		<path style="clip-path:url(#SVGID_30_);fill:#2B2A7F;" d="M308.032,48.85c0-8.003,5.954-13.047,13.521-13.047
			c6.867,0,13.866,3.729,13.866,12.495c0,8.159-5.789,13.505-13.942,13.505C313.402,61.803,308.032,56.683,308.032,48.85
			 M329.532,40.549c-1.834-2.299-4.696-3.528-7.615-3.528c-6.431,0-10.31,4.854-10.31,12.272c0,7.427,4.536,11.301,9.988,11.301
			c7.712,0,10.49-7.967,10.24-11.998C331.835,45.56,331.424,43,329.532,40.549"/>
	</g>
	<g>
		<defs>
			<polyline id="SVGID_31_" points="353.175,168.357 0,168.357 0,0 353.175,0 			"/>
		</defs>
		<clipPath id="SVGID_32_">
			<use xlink:href="#SVGID_31_"  style="overflow:visible;"/>
		</clipPath>
		<path style="clip-path:url(#SVGID_32_);fill:#2B2A7F;" d="M340.2,36.352h12.975c-0.037,0.395-0.106,0.733-0.106,1.089
			c0,0.366,0.069,0.741,0.106,1.1c-1.101-0.218-2.19-0.335-3.283-0.395l-3.66-0.085h-2.806v9.185h5.656
			c1.105,0,2.157-0.142,3.258-0.19c-0.036,0.294-0.109,0.625-0.109,0.955c0,0.287,0.073,0.61,0.109,1.021
			c-1.101-0.036-2.153-0.182-3.258-0.182h-5.656v12.51c-0.597-0.052-1.109-0.12-1.617-0.12c-0.552,0-1.096,0.068-1.609,0.12V36.352z
			"/>
	</g>
	<g>
		<defs>
			<polyline id="SVGID_33_" points="353.175,168.357 0,168.357 0,0 353.175,0 			"/>
		</defs>
		<clipPath id="SVGID_34_">
			<use xlink:href="#SVGID_33_"  style="overflow:visible;"/>
		</clipPath>
		<path style="clip-path:url(#SVGID_34_);fill:#2B2A7F;" d="M172.14,94.24c-2.311,1.531-5.31,2.096-8.088,2.096
			c-8.047,0-12.856-5.083-12.856-13.095c0-8.229,6.063-12.905,13.772-12.905c2.673,0,5.418,0.621,7.861,1.674
			c-0.362,0.922-0.584,1.862-0.769,2.83l-0.246,0.04c-0.517-0.669-3.234-3.158-6.991-3.158c-6.733,0-10.055,5.452-10.055,11.661
			c0,7.014,4.019,11.526,9.797,11.526c3.951,0,7.031-2.342,7.761-2.963L172.14,94.24z"/>
	</g>
	<g>
		<defs>
			<polyline id="SVGID_35_" points="353.175,168.357 0,168.357 0,0 353.175,0 			"/>
		</defs>
		<clipPath id="SVGID_36_">
			<use xlink:href="#SVGID_35_"  style="overflow:visible;"/>
		</clipPath>
		<path style="clip-path:url(#SVGID_36_);fill:#2B2A7F;" d="M177.473,70.885h7.742c5.644,0,8.126,1.854,8.126,5.548
			c0,4.249-3.792,6.304-7.494,6.95l7.539,9.555l1.743,2.032l0.697,0.923c-0.767-0.052-1.428-0.121-2.117-0.121
			c-0.698,0-1.432,0.069-2.097,0.121c-0.785-1.141-1.531-2.169-2.285-3.181l-4.319-5.596l-2.934-3.423h-1.379v12.2
			c-0.601-0.052-1.113-0.121-1.617-0.121c-0.54,0-1.101,0.069-1.605,0.121V70.885z M180.695,82.294
			c0.504,0.032,2.846,0.165,4.709-0.178c2.66-0.555,4.677-2.382,4.677-5.24c0-2.524-1.271-4.161-4.016-4.604
			c-1.355-0.218-3.85-0.106-5.37-0.037V82.294z"/>
	</g>
	<g>
		<defs>
			<polyline id="SVGID_37_" points="353.175,168.357 0,168.357 0,0 353.175,0 			"/>
		</defs>
		<clipPath id="SVGID_38_">
			<use xlink:href="#SVGID_37_"  style="overflow:visible;"/>
		</clipPath>
		<path style="clip-path:url(#SVGID_38_);fill:#2B2A7F;" d="M202.978,81.778h5.681c1.096,0,2.149-0.142,3.25-0.189
			c-0.033,0.293-0.101,0.624-0.101,0.955c0,0.286,0.068,0.609,0.101,1.02c-1.101-0.037-2.154-0.182-3.25-0.182h-5.681v10.68
			c2.242,0.069,4.436-0.068,6.629-0.157c1.141-0.032,2.241-0.146,3.358-0.311c-0.029,0.4-0.1,0.73-0.1,1.089
			c0,0.371,0.071,0.73,0.1,1.088h-13.196V70.884h12.986c-0.041,0.395-0.117,0.734-0.117,1.089c0,0.367,0.076,0.742,0.117,1.101
			c-1.1-0.219-2.193-0.335-3.29-0.396l-3.652-0.085h-2.835L202.978,81.778L202.978,81.778z"/>
	</g>
	<g>
		<defs>
			<polyline id="SVGID_39_" points="353.175,168.357 0,168.357 0,0 353.175,0 			"/>
		</defs>
		<clipPath id="SVGID_40_">
			<use xlink:href="#SVGID_39_"  style="overflow:visible;"/>
		</clipPath>
		<path style="clip-path:url(#SVGID_40_);fill:#2B2A7F;" d="M238.602,95.892c-0.697-0.051-1.282-0.121-1.898-0.121
			c-0.699,0-1.319,0.07-1.94,0.121c-1.056-3.039-2.379-6.543-3.842-9.865h-9.285c-1.274,3.201-2.6,6.419-3.616,9.865
			c-0.52-0.051-0.907-0.121-1.359-0.121c-0.476,0-0.879,0.07-1.278,0.121l11.406-25.556h0.837L238.602,95.892z M226.314,75.118
			l-3.976,9.365h8.039L226.314,75.118z"/>
	</g>
	<g>
		<defs>
			<polyline id="SVGID_41_" points="353.175,168.357 0,168.357 0,0 353.175,0 			"/>
		</defs>
		<clipPath id="SVGID_42_">
			<use xlink:href="#SVGID_41_"  style="overflow:visible;"/>
		</clipPath>
		<path style="clip-path:url(#SVGID_42_);fill:#2B2A7F;" d="M248.436,95.977c-0.589-0.053-1.102-0.137-1.613-0.137
			c-0.544,0-1.085,0.084-1.597,0.137V72.63c-3.692,0-5.946,0.225-8.007,0.444c0.032-0.36,0.101-0.735,0.101-1.101
			c0-0.355-0.069-0.694-0.101-1.089h18.864c-0.032,0.395-0.112,0.734-0.112,1.089c0,0.366,0.08,0.741,0.112,1.101
			c-1.831-0.219-4.398-0.444-7.647-0.444V95.977z"/>
	</g>
	<g>
		<defs>
			<polyline id="SVGID_43_" points="353.175,168.357 0,168.357 0,0 353.175,0 			"/>
		</defs>
		<clipPath id="SVGID_44_">
			<use xlink:href="#SVGID_43_"  style="overflow:visible;"/>
		</clipPath>
		<path style="clip-path:url(#SVGID_44_);fill:#2B2A7F;" d="M260.288,70.885c0.512,0.036,1.061,0.097,1.601,0.097
			c0.516,0,1.028-0.061,1.612-0.097v25.008c-0.584-0.052-1.096-0.121-1.612-0.121c-0.54,0-1.089,0.069-1.601,0.121V70.885z"/>
	</g>
	<g>
		<defs>
			<polyline id="SVGID_45_" points="353.175,168.357 0,168.357 0,0 353.175,0 			"/>
		</defs>
		<clipPath id="SVGID_46_">
			<use xlink:href="#SVGID_45_"  style="overflow:visible;"/>
		</clipPath>
		<path style="clip-path:url(#SVGID_46_);fill:#2B2A7F;" d="M285.913,77.573l2.201-6.104l0.25-0.584
			c0.432,0.036,0.879,0.096,1.351,0.096c0.395,0,0.854-0.06,1.314-0.096c-1.161,2.221-9.249,20.952-10.558,25.007
			c-0.262-0.051-0.513-0.121-0.73-0.121c-0.263,0-0.524,0.07-0.778,0.121c-4.161-8.587-9.503-21.907-11.115-25.007
			c0.556,0.036,1.181,0.096,1.765,0.096c0.581,0,1.117-0.06,1.779-0.096c0.487,1.125,0.915,2.341,1.354,3.539l2.463,6.398
			l4.487,11.088h0.326c0.706-1.513,1.468-2.932,2.045-4.411L285.913,77.573z"/>
	</g>
	<g>
		<defs>
			<polyline id="SVGID_47_" points="353.175,168.357 0,168.357 0,0 353.175,0 			"/>
		</defs>
		<clipPath id="SVGID_48_">
			<use xlink:href="#SVGID_47_"  style="overflow:visible;"/>
		</clipPath>
		<path style="clip-path:url(#SVGID_48_);fill:#2B2A7F;" d="M297.823,81.778h5.668c1.104,0,2.165-0.142,3.266-0.189
			c-0.044,0.293-0.113,0.632-0.113,0.955c0,0.286,0.069,0.621,0.113,1.028c-1.101-0.045-2.162-0.178-3.266-0.178h-5.668v10.668
			c2.241,0.069,4.435-0.068,6.624-0.157c1.141-0.032,2.23-0.129,3.362-0.311c-0.032,0.4-0.105,0.73-0.105,1.089
			c0,0.371,0.073,0.73,0.105,1.088h-13.192V70.884h12.982c-0.04,0.395-0.117,0.734-0.117,1.089c0,0.367,0.077,0.742,0.117,1.101
			c-1.104-0.219-2.205-0.335-3.286-0.396l-3.673-0.085h-2.817V81.778z"/>
	</g>
	<g>
		<defs>
			<polyline id="SVGID_49_" points="353.175,168.357 0,168.357 0,0 353.175,0 			"/>
		</defs>
		<clipPath id="SVGID_50_">
			<use xlink:href="#SVGID_49_"  style="overflow:visible;"/>
		</clipPath>
		<path style="clip-path:url(#SVGID_50_);fill:#2B2A7F;" d="M152.268,124.122c1.411,2.354,3.063,3.813,5.904,3.813
			c2.967,0,5.083-2.456,5.083-5.353c0-6.795-11.438-3.797-11.438-12.055c0-4.723,3.727-7.016,8.129-7.016
			c1.741,0,3.873,0.548,5.216,1.753c-0.448,0.955-0.69,1.974-0.992,2.99h-0.351c-0.781-1.975-2.39-3.18-4.538-3.18
			c-2.527,0-4.615,1.685-4.615,4.296c0,6.719,11.511,4.002,11.511,11.785c0,5.239-4.047,8.356-9.024,8.356
			c-1.793,0-4.72-0.786-5.957-2.125c0.358-1.08,0.545-2.168,0.701-3.264H152.268z"/>
	</g>
	<g>
		<defs>
			<polyline id="SVGID_51_" points="353.175,168.357 0,168.357 0,0 353.175,0 			"/>
		</defs>
		<clipPath id="SVGID_52_">
			<use xlink:href="#SVGID_51_"  style="overflow:visible;"/>
		</clipPath>
		<path style="clip-path:url(#SVGID_52_);fill:#2B2A7F;" d="M190.157,127.406c-2.293,1.531-5.304,2.104-8.068,2.104
			c-8.058,0-12.877-5.09-12.877-13.098c0-8.227,6.069-12.902,13.791-12.902c2.66,0,5.401,0.621,7.847,1.672
			c-0.358,0.923-0.585,1.863-0.761,2.83l-0.254,0.04c-0.517-0.668-3.225-3.156-6.989-3.156c-6.727,0-10.052,5.449-10.052,11.668
			c0,7.001,4.031,11.511,9.806,11.511c3.95,0,7.013-2.341,7.746-2.962L190.157,127.406z"/>
	</g>
	<g>
		<defs>
			<polyline id="SVGID_53_" points="353.175,168.357 0,168.357 0,0 353.175,0 			"/>
		</defs>
		<clipPath id="SVGID_54_">
			<use xlink:href="#SVGID_53_"  style="overflow:visible;"/>
		</clipPath>
		<path style="clip-path:url(#SVGID_54_);fill:#2B2A7F;" d="M195.675,104.058c0.504,0.036,1.061,0.097,1.616,0.097
			c0.512,0,1.016-0.061,1.609-0.097v25c-0.593-0.052-1.097-0.121-1.609-0.121c-0.555,0-1.112,0.069-1.616,0.121V104.058z"/>
	</g>
	<g>
		<defs>
			<polyline id="SVGID_55_" points="353.175,168.357 0,168.357 0,0 353.175,0 			"/>
		</defs>
		<clipPath id="SVGID_56_">
			<use xlink:href="#SVGID_55_"  style="overflow:visible;"/>
		</clipPath>
		<path style="clip-path:url(#SVGID_56_);fill:#2B2A7F;" d="M208.834,114.948h5.675c1.088,0,2.152-0.141,3.24-0.189
			c-0.036,0.294-0.101,0.632-0.101,0.955c0,0.287,0.065,0.621,0.101,1.028c-1.088-0.045-2.152-0.178-3.24-0.178h-5.675v10.665
			c2.229,0.069,4.43-0.068,6.634-0.157c1.12-0.032,2.22-0.129,3.357-0.311c-0.053,0.4-0.125,0.73-0.125,1.088
			c0,0.371,0.072,0.73,0.125,1.088h-13.208v-24.879h12.971c-0.032,0.395-0.106,0.734-0.106,1.088c0,0.367,0.074,0.742,0.106,1.101
			c-1.097-0.218-2.185-0.335-3.293-0.395l-3.651-0.085h-2.81V114.948z"/>
	</g>
	<g>
		<defs>
			<polyline id="SVGID_57_" points="353.175,168.357 0,168.357 0,0 353.175,0 			"/>
		</defs>
		<clipPath id="SVGID_58_">
			<use xlink:href="#SVGID_57_"  style="overflow:visible;"/>
		</clipPath>
		<path style="clip-path:url(#SVGID_58_);fill:#2B2A7F;" d="M245.494,129.059h-1.088c-0.407-0.516-1.148-1.374-1.906-2.229
			l-15.795-17.459h-0.359v19.688c-0.374-0.052-0.702-0.121-1.024-0.121c-0.371,0-0.697,0.069-1.019,0.121v-25h1.418l17.351,18.83
			h0.379v-18.83c0.322,0.036,0.661,0.097,1.016,0.097c0.334,0,0.673-0.061,1.027-0.097V129.059z"/>
	</g>
	<g>
		<defs>
			<polyline id="SVGID_59_" points="353.175,168.357 0,168.357 0,0 353.175,0 			"/>
		</defs>
		<clipPath id="SVGID_60_">
			<use xlink:href="#SVGID_59_"  style="overflow:visible;"/>
		</clipPath>
		<path style="clip-path:url(#SVGID_60_);fill:#2B2A7F;" d="M271.409,127.406c-2.301,1.531-5.304,2.104-8.076,2.104
			c-8.045,0-12.865-5.09-12.865-13.098c0-8.227,6.069-12.902,13.775-12.902c2.669,0,5.405,0.621,7.868,1.672
			c-0.375,0.923-0.589,1.863-0.77,2.83l-0.274,0.04c-0.508-0.668-3.196-3.156-6.961-3.156c-6.734,0-10.063,5.449-10.063,11.668
			c0,7.001,4.03,11.511,9.805,11.511c3.947,0,7.013-2.341,7.748-2.962L271.409,127.406z"/>
	</g>
	<g>
		<defs>
			<polyline id="SVGID_61_" points="353.175,168.357 0,168.357 0,0 353.175,0 			"/>
		</defs>
		<clipPath id="SVGID_62_">
			<use xlink:href="#SVGID_61_"  style="overflow:visible;"/>
		</clipPath>
		<path style="clip-path:url(#SVGID_62_);fill:#2B2A7F;" d="M279.922,114.948h5.671c1.092,0,2.152-0.141,3.248-0.189
			c-0.028,0.294-0.108,0.632-0.108,0.955c0,0.287,0.08,0.621,0.108,1.028c-1.096-0.045-2.156-0.178-3.248-0.178h-5.671v10.665
			c2.225,0.069,4.43-0.068,6.618-0.157c1.137-0.032,2.236-0.129,3.369-0.311c-0.045,0.4-0.113,0.73-0.113,1.088
			c0,0.371,0.068,0.73,0.113,1.088h-13.195v-24.879h12.966c-0.032,0.395-0.113,0.734-0.113,1.088c0,0.367,0.081,0.742,0.113,1.101
			c-1.084-0.218-2.196-0.335-3.285-0.395l-3.66-0.085h-2.813V114.948z"/>
	</g>
	<g>
		<defs>
			<polyline id="SVGID_63_" points="353.175,168.357 0,168.357 0,0 353.175,0 			"/>
		</defs>
		<clipPath id="SVGID_64_">
			<use xlink:href="#SVGID_63_"  style="overflow:visible;"/>
		</clipPath>
		<path style="clip-path:url(#SVGID_64_);fill:#F7323F;" d="M49.637,157.788c16.594-1.976,33.095-14.112,42.744-32.721
			c-1.636,0.956-3.356,1.805-5.144,2.533c-28.819,11.542-66.421-14.662-83.996-58.532c-1.087-2.708-2.072-5.413-2.946-8.124
			c1.677,31.303,11.007,58.509,33.877,82.514c5.173,5.431,10.963,10.753,17.047,15.612C50.69,158.65,50.166,158.221,49.637,157.788"
			/>
	</g>
	<g>
		<defs>
			<polyline id="SVGID_65_" points="353.175,168.357 0,168.357 0,0 353.175,0 			"/>
		</defs>
		<clipPath id="SVGID_66_">
			<use xlink:href="#SVGID_65_"  style="overflow:visible;"/>
		</clipPath>
		<path style="clip-path:url(#SVGID_66_);fill:#2B2A7F;" d="M63.809,0.005L37.645,0c10.1,4.991,21.804,11.775,33.462,20.759
			c26.69,20.553,43.77,45.143,51.318,71.814c3.65-13.323,5.19-27.483,5.19-42.551V0.005H63.809z"/>
	</g>
	<g>
		<defs>
			<polyline id="SVGID_67_" points="353.175,168.357 0,168.357 0,0 353.175,0 			"/>
		</defs>
		<clipPath id="SVGID_68_">
			<use xlink:href="#SVGID_67_"  style="overflow:visible;"/>
		</clipPath>
		<path style="clip-path:url(#SVGID_68_);fill:#E63329;" d="M74.123,23.133c-0.145,0.085-0.283,0.173-0.428,0.267
			C59.049,33.052,46.21,44.583,35.392,57.696c10.948,6.868,22.482,15.655,32.587,26.575c9.766-14.873,20.929-26.753,31.4-35.961
			C92.321,39.416,83.897,30.994,74.123,23.133"/>
	</g>
	<g>
		<defs>
			<polyline id="SVGID_69_" points="353.175,168.357 0,168.357 0,0 353.175,0 			"/>
		</defs>
		<clipPath id="SVGID_70_">
			<use xlink:href="#SVGID_69_"  style="overflow:visible;"/>
		</clipPath>
		<path style="clip-path:url(#SVGID_70_);fill:#2B2A7F;" d="M92.381,125.058c-9.636,18.611-26.15,30.754-42.744,32.729
			c4.57,3.727,9.321,7.216,14.149,10.272c10.622-6.757,20.999-15.526,29.656-24.602c0.872-0.917,1.723-1.839,2.561-2.77
			C95.194,135.231,93.968,130.02,92.381,125.058"/>
	</g>
	<g>
		<defs>
			<polyline id="SVGID_71_" points="353.175,168.357 0,168.357 0,0 353.175,0 			"/>
		</defs>
		<clipPath id="SVGID_72_">
			<use xlink:href="#SVGID_71_"  style="overflow:visible;"/>
		</clipPath>
		<path style="clip-path:url(#SVGID_72_);fill:#0070BA;" d="M127.614,0.005h-0.147c-10.601,2.42-31.114,8.583-53.344,23.128
			c9.774,7.861,18.198,16.283,25.256,25.177c10.982-9.65,21.197-16.37,28.235-20.48V0.005z"/>
	</g>
	<g>
		<defs>
			<polyline id="SVGID_73_" points="353.175,168.357 0,168.357 0,0 353.175,0 			"/>
		</defs>
		<clipPath id="SVGID_74_">
			<use xlink:href="#SVGID_73_"  style="overflow:visible;"/>
		</clipPath>
		<path style="clip-path:url(#SVGID_74_);fill:#2B2A7F;" d="M35.392,57.696C24.214,71.251,15.2,86.514,8.606,103.156
			c5.393,14.397,13.642,27.78,25.566,40.302c2.61,2.736,5.383,5.456,8.266,8.09c4.027-27.109,13.77-49.366,25.542-67.278
			C57.874,73.35,46.34,64.563,35.392,57.696"/>
	</g>
	<g>
		<defs>
			<polyline id="SVGID_75_" points="353.175,168.357 0,168.357 0,0 353.175,0 			"/>
		</defs>
		<clipPath id="SVGID_76_">
			<use xlink:href="#SVGID_75_"  style="overflow:visible;"/>
		</clipPath>
		<path style="clip-path:url(#SVGID_76_);fill:#B20E10;" d="M67.98,84.27c13.623,14.734,24.636,33.343,28.023,56.417
			c13.303-14.774,21.665-30.737,26.422-48.114c-4.412-15.598-12.094-30.489-23.046-44.264C88.909,57.517,77.746,69.397,67.98,84.27"
			/>
	</g>
	<g>
		<defs>
			<polyline id="SVGID_77_" points="353.175,168.357 0,168.357 0,0 353.175,0 			"/>
		</defs>
		<clipPath id="SVGID_78_">
			<use xlink:href="#SVGID_77_"  style="overflow:visible;"/>
		</clipPath>
		<path style="clip-path:url(#SVGID_78_);fill:#E42313;" d="M73.696,23.399c0.145-0.094,0.283-0.182,0.428-0.267
			c-0.993-0.797-1.998-1.589-3.017-2.374C59.449,11.774,47.745,4.991,37.645,0H0.001v40.009c7.666,2.921,21.01,8.646,35.391,17.687
			C46.211,44.583,59.05,33.051,73.696,23.399"/>
	</g>
	<g>
		<defs>
			<polyline id="SVGID_79_" points="353.175,168.357 0,168.357 0,0 353.175,0 			"/>
		</defs>
		<clipPath id="SVGID_80_">
			<use xlink:href="#SVGID_79_"  style="overflow:visible;"/>
		</clipPath>
	</g>
	<g>
		<defs>
			<polyline id="SVGID_81_" points="353.175,168.357 0,168.357 0,0 353.175,0 			"/>
		</defs>
		<clipPath id="SVGID_82_">
			<use xlink:href="#SVGID_81_"  style="overflow:visible;"/>
		</clipPath>
	</g>
	<g>
		<defs>
			<polyline id="SVGID_83_" points="353.175,168.357 0,168.357 0,0 353.175,0 			"/>
		</defs>
		<clipPath id="SVGID_84_">
			<use xlink:href="#SVGID_83_"  style="overflow:visible;"/>
		</clipPath>
	</g>
	<g>
		<defs>
			<polyline id="SVGID_85_" points="353.175,168.357 0,168.357 0,0 353.175,0 			"/>
		</defs>
		<clipPath id="SVGID_86_">
			<use xlink:href="#SVGID_85_"  style="overflow:visible;"/>
		</clipPath>
	</g>
	<g>
		<defs>
			<polyline id="SVGID_87_" points="353.175,168.357 0,168.357 0,0 353.175,0 			"/>
		</defs>
		<clipPath id="SVGID_88_">
			<use xlink:href="#SVGID_87_"  style="overflow:visible;"/>
		</clipPath>
	</g>
	<g>
		<defs>
			<polyline id="SVGID_89_" points="353.175,168.357 0,168.357 0,0 353.175,0 			"/>
		</defs>
		<clipPath id="SVGID_90_">
			<use xlink:href="#SVGID_89_"  style="overflow:visible;"/>
		</clipPath>
	</g>
</g>
</svg>
