<svg width="60" height="60" viewBox="0 0 60 60" fill="none" xmlns="http://www.w3.org/2000/svg">
<path d="M31.4397 4.00781L10.001 4.00096C8.34373 4.00043 7 5.34373 7 7.00096V53.0072C7 54.664 8.34315 56.0072 10 56.0072H45.5995C47.2563 56.0072 48.5995 54.664 48.5995 53.0072V31.5675" stroke="#E63E31" stroke-width="2.5" stroke-linecap="round" stroke-linejoin="round"/>
<path d="M14.7969 45.5996H27.9971" stroke="#E63E31" stroke-width="2.5" stroke-linecap="round" stroke-linejoin="round"/>
<path d="M15 40H21.2002" stroke="#E63E31" stroke-width="2.5" stroke-linecap="round" stroke-linejoin="round"/>
<path d="M52.1846 13.4279C53.2203 12.3922 53.8022 10.9874 53.8022 9.52272C53.8022 8.058 53.2203 6.65328 52.1846 5.61757C51.1489 4.58186 49.7442 4 48.2794 4C46.8147 4 45.41 4.58186 44.3743 5.61757L31.3484 18.6486C30.7303 19.2664 30.2778 20.0301 30.0329 20.869L27.8567 28.3309C27.7914 28.5546 27.7875 28.7918 27.8454 29.0175C27.9032 29.2433 28.0207 29.4493 28.1854 29.6141C28.3502 29.7789 28.5563 29.8964 28.782 29.9542C29.0078 30.012 29.2449 30.0081 29.4687 29.9429L36.9306 27.7667C37.7695 27.5217 38.5331 27.0693 39.1509 26.4511L52.1846 13.4279Z" stroke="#E63E31" stroke-width="2.5" stroke-linecap="round" stroke-linejoin="round"/>
</svg>
