<svg width="35" height="52" viewBox="0 0 35 52" fill="none" xmlns="http://www.w3.org/2000/svg">
<path d="M14.75 3.77778H20.25M17.5 39.8889V39.9167M1 6.55556C1 5.08213 1.57946 3.66905 2.61091 2.62718C3.64236 1.58532 5.04131 1 6.5 1H28.5C29.9587 1 31.3576 1.58532 32.3891 2.62718C33.4205 3.66905 34 5.08213 34 6.55556V45.4444C34 46.9179 33.4205 48.3309 32.3891 49.3728C31.3576 50.4147 29.9587 51 28.5 51H6.5C5.04131 51 3.64236 50.4147 2.61091 49.3728C1.57946 48.3309 1 46.9179 1 45.4444V6.55556Z" stroke="#E43D30" stroke-width="2" stroke-linecap="round"/>
</svg>
