<svg width="50" height="52" viewBox="0 0 50 52" fill="none" xmlns="http://www.w3.org/2000/svg">
<path d="M30.3311 49.8293V43.5455C31.5591 43.1753 32.7371 42.675 33.8652 42.0646L37.2496 45.5067C37.7687 46.037 38.6173 46.037 39.1364 45.5067L44.797 39.7633C45.3161 39.2329 45.3161 38.3724 44.797 37.8521L41.4126 34.41C42.0216 33.2694 42.5108 32.0686 42.8702 30.8179H47.6622C48.401 30.8179 49 30.2075 49 29.4671V21.3422C49 20.5918 48.401 19.9914 47.6622 19.9914H42.8702C42.5108 18.7506 42.0216 17.5399 41.4126 16.3992L44.797 12.9572C45.3161 12.4269 45.3161 11.5663 44.797 11.046L39.1364 5.30258C38.6173 4.77226 37.7687 4.77226 37.2496 5.30258L33.8652 8.74465C32.7371 8.12427 31.5591 7.63398 30.3311 7.26376V2.35081C30.3311 1.60036 29.7321 1 28.9933 1H20.9967C20.2579 1 19.6589 1.61037 19.6589 2.35081V7.22373C18.4309 7.59396 17.2529 8.09426 16.1248 8.70462L12.7404 5.26256C12.2213 4.73224 11.3727 4.73224 10.8536 5.26256L5.19301 11.006C4.67388 11.5363 4.67388 12.3968 5.19301 12.9172L8.57737 16.3592C7.96839 17.4999 7.4792 18.7006 7.1198 19.9514H2.33777C1.599 19.9514 1 20.5617 1 21.3022V29.4371C1.01997 30.1775 1.60898 30.7679 2.33777 30.7879H7.12978C7.48918 32.0286 7.97837 33.2393 8.58735 34.38L5.20299 37.8221C4.68386 38.3524 4.68386 39.2129 5.20299 39.7332L10.8636 45.4767C11.3827 46.007 12.2313 46.007 12.7504 45.4767L16.1348 42.0346C17.2629 42.655 18.4409 43.1453 19.6689 43.5155V49.7993C19.6689 50.4597 20.198 51 20.8569 51H29.1531C29.802 51 30.3311 50.4597 30.3311 49.7993V49.8293Z" stroke="#E43D30" stroke-width="2" stroke-linecap="round" stroke-linejoin="round"/>
<path d="M33.5876 34.1099C28.8455 38.9228 21.1583 38.9228 16.4162 34.1099C11.6741 29.297 11.6741 21.4823 16.4162 16.6694C21.1583 11.8565 28.8455 11.8565 33.5876 16.6694C38.3297 21.4823 38.3297 29.297 33.5876 34.1099Z" stroke="#E43D30" stroke-width="2" stroke-linecap="round" stroke-linejoin="round"/>
</svg>
