<svg width="46" height="52" viewBox="0 0 46 52" fill="none" xmlns="http://www.w3.org/2000/svg">
<path d="M20.8727 50.7338C21.3342 50.9113 21.8312 51 22.3281 51H22.9316C23.4286 51 23.9167 50.9113 24.3871 50.7338C30.1024 48.595 34.6995 45.1338 38.0363 40.4391C40.6632 36.7472 42.4914 32.3277 43.4588 27.3046C45.0449 19.0568 43.7787 11.9026 43.7086 11.5062L43.7073 11.4988C43.4499 10.1143 42.5269 8.9606 41.2223 8.41924L24.2362 1.31949C23.7215 1.1065 23.189 1 22.6299 1C22.0708 1 21.5383 1.1065 21.0236 1.31949L4.0374 8.41924C2.7417 8.9606 1.80985 10.1143 1.55249 11.4988C1.49036 11.8005 0.194659 18.989 1.80098 27.3046C2.76832 32.3277 4.59651 36.7472 7.22341 40.4391C10.5603 45.1338 15.1574 48.595 20.8727 50.7338Z" stroke="#E43D30" stroke-width="2"/>
<path d="M16.8436 22.6542L16.5773 22.814C15.5035 23.4529 14.8379 24.6333 14.8379 25.8757V32.7447C14.8379 34.7149 16.4353 36.3124 18.4055 36.3124H18.3966H26.8542C28.8244 36.3124 30.4218 34.7149 30.4218 32.7447V25.8757C30.4218 24.6333 29.7562 23.4618 28.6824 22.814L28.4162 22.6542M16.8436 22.6542V19.9474C16.8436 18.4032 17.447 16.9478 18.5386 15.8562C19.6302 14.7646 21.0857 14.1611 22.6299 14.1611C24.1741 14.1611 25.6295 14.7646 26.7211 15.8562C27.8127 16.9478 28.4162 18.4032 28.4162 19.9474V22.6542M16.8436 22.6542H28.4162" stroke="#E43D30" stroke-width="2"/>
</svg>
