<svg width="47" height="40" viewBox="0 0 47 40" fill="none" xmlns="http://www.w3.org/2000/svg">
<path d="M1 1.5H8.39904L10.5786 7.35259M10.5786 7.35259L16.7847 24.0177M10.5786 7.35259H36.0225M16.7847 24.0177H30.2018M16.7847 24.0177L12.8385 31.1597H39.1793M36.0225 7.35259H45L39.1793 24.0177H30.2018M36.0225 7.35259L30.2018 24.0177M23.6412 34.8298C23.6412 36.8568 22.0069 38.5 19.991 38.5C17.9751 38.5 16.3408 36.8568 16.3408 34.8298C16.3408 32.8028 17.9751 31.1597 19.991 31.1597C22.0069 31.1597 23.6412 32.8028 23.6412 34.8298ZM36.3621 34.8298C36.3621 36.8568 34.7279 38.5 32.7119 38.5C30.696 38.5 29.0619 36.8568 29.0619 34.8298C29.0619 32.8028 30.696 31.1597 32.7119 31.1597C34.7279 31.1597 36.3621 32.8028 36.3621 34.8298Z" stroke="#E43D30" stroke-width="2" stroke-linecap="round"/>
</svg>
