<svg width="38" height="40" viewBox="0 0 38 40" fill="none" xmlns="http://www.w3.org/2000/svg">
<path d="M22.8019 37.6337V32.9837C23.7147 32.7097 24.5903 32.3395 25.4288 31.8878L27.9444 34.435C28.3303 34.8274 28.9611 34.8274 29.347 34.435L33.5545 30.1848C33.9403 29.7924 33.9403 29.1556 33.5545 28.7706L31.0389 26.2234C31.4915 25.3793 31.8551 24.4908 32.1223 23.5652H35.6842C36.2333 23.5652 36.6786 23.1136 36.6786 22.5656V16.5532C36.6786 15.9979 36.2333 15.5536 35.6842 15.5536H32.1223C31.8551 14.6355 31.4915 13.7395 31.0389 12.8954L33.5545 10.3483C33.9403 9.95587 33.9403 9.31909 33.5545 8.93406L29.347 4.68391C28.9611 4.29148 28.3303 4.29148 27.9444 4.68391L25.4288 7.23104C24.5903 6.77196 23.7147 6.40915 22.8019 6.13518V2.4996C22.8019 1.94427 22.3567 1.5 21.8076 1.5H15.8636C15.3145 1.5 14.8692 1.95167 14.8692 2.4996V6.10556C13.9565 6.37953 13.0808 6.74975 12.2423 7.20142L9.72671 4.65429C9.34083 4.26186 8.71007 4.26186 8.3242 4.65429L4.11668 8.90444C3.73081 9.29688 3.73081 9.93366 4.11668 10.3187L6.63229 12.8658C6.17963 13.7099 5.81601 14.5985 5.54887 15.524H1.99437C1.44524 15.524 1 15.9757 1 16.5236V22.5434C1.01484 23.0914 1.45266 23.5282 1.99437 23.543H5.55629C5.82343 24.4612 6.18705 25.3571 6.63971 26.2012L4.1241 28.7483C3.73823 29.1408 3.73823 29.7776 4.1241 30.1626L8.33162 34.4128C8.71749 34.8052 9.34825 34.8052 9.73413 34.4128L12.2497 31.8656C13.0883 32.3247 13.9639 32.6875 14.8766 32.9615V37.6115C14.8766 38.1002 15.2699 38.5 15.7597 38.5H21.9263C22.4086 38.5 22.8019 38.1002 22.8019 37.6115V37.6337Z" stroke="#E43D30" stroke-width="2" stroke-linecap="round" stroke-linejoin="round"/>
<path d="M25.2225 26.0013C21.6977 29.5628 15.9838 29.5628 12.4589 26.0013C8.93412 22.4398 8.93412 16.6569 12.4589 13.0954C15.9838 9.53383 21.6977 9.53383 25.2225 13.0954C28.7473 16.6569 28.7473 22.4398 25.2225 26.0013Z" stroke="#E43D30" stroke-width="2" stroke-linecap="round" stroke-linejoin="round"/>
</svg>
