<svg width="28" height="40" viewBox="0 0 28 40" fill="none" xmlns="http://www.w3.org/2000/svg">
<path d="M5.33333 29.7943L2.19817 31.37C1.83832 31.5506 1.53565 31.8283 1.32403 32.172C1.11241 32.5156 1.00021 32.9116 1 33.3157V38.5H27V33.3157C26.9998 32.9116 26.8876 32.5156 26.676 32.172C26.4644 31.8283 26.1617 31.5506 25.8018 31.37L22.6667 29.7943H5.33333Z" stroke="#E43D30" stroke-width="2" stroke-linecap="round"/>
<path d="M7.5 1.50057L9.66667 8.02988L2.10283 12.7049C1.70072 12.9531 1.39029 13.3264 1.21873 13.768C1.04716 14.2097 1.02386 14.6955 1.15235 15.1517C1.28084 15.6079 1.5541 16.0095 1.93059 16.2954C2.30708 16.5813 2.76621 16.7358 3.23817 16.7356H9.66667L5.17517 29.7943H22.424L22.6667 18.9121C22.6667 12.3828 20.305 5.89045 14 3.67701C9.79667 2.20139 7.63 1.47663 7.5 1.50057Z" stroke="#E43D30" stroke-width="2" stroke-linecap="round"/>
</svg>
