<svg width="28" height="35" viewBox="0 0 28 35" fill="none" xmlns="http://www.w3.org/2000/svg">
<path d="M22.093 20.1067C22.1227 17.7947 23.3343 15.6596 25.3038 14.4492C24.0563 12.6665 22.0399 11.5772 19.8652 11.5092C17.5767 11.2694 15.3587 12.8779 14.1929 12.8779C13.0048 12.8779 11.2096 11.5327 9.27602 11.5723C6.73289 11.6551 4.41848 13.0658 3.18092 15.2899C0.546306 19.852 2.51083 26.5578 5.03541 30.2458C6.29894 32.0521 7.77388 34.0685 9.70626 33.998C11.5966 33.9202 12.3025 32.7926 14.5836 32.7926C16.8436 32.7926 17.5062 33.998 19.477 33.9523C21.5045 33.9189 22.7829 32.1386 24.0019 30.315C24.9094 29.028 25.6079 27.6062 26.0703 26.1016C23.6619 25.0829 22.0955 22.7227 22.093 20.1067Z" stroke="#E43D30" stroke-width="2"/>
<path d="M18.8804 6.95347C19.7335 5.45113 19.9684 3.67547 19.5337 2.0038C17.9029 2.47767 16.5088 3.54839 15.632 5.00225C14.7657 6.43789 14.5045 8.15798 14.9076 9.78635C16.5959 9.50059 18.0601 8.45621 18.8804 6.95347Z" stroke="#E43D30" stroke-width="2"/>
</svg>
