<svg width="30" height="34" viewBox="0 0 30 34" fill="none" xmlns="http://www.w3.org/2000/svg">
<path d="M18.5335 32.9981C17.2222 32.9668 16.19 31.8636 16.19 30.5517V26.5335H13.8103V30.5517C13.8103 31.863 12.7775 32.9668 11.4668 32.9975C10.1163 33.0294 9.00709 31.94 9.00709 30.5962V26.5329H7.81727C6.8879 26.5329 6.13418 25.7791 6.13418 24.8498V22.9279L5.42618 23.3375C5.06226 23.5481 4.6472 23.6594 4.22553 23.6594C2.90156 23.6594 1.82422 22.582 1.82422 21.2574V13.3557C1.82422 12.0312 2.90156 10.9538 4.22553 10.9538C4.64901 10.9538 5.06647 11.0663 5.4316 11.2787L6.11313 11.6751L6.1402 10.8871C6.23945 8.02498 7.73004 5.37283 10.1271 3.79261L10.5242 3.53094L9.09492 1.40393C9.01912 1.29084 9.0492 1.13745 9.16229 1.06166C9.27538 0.985868 9.42877 1.01594 9.50456 1.12903L10.9609 3.29574L11.3248 3.12972C12.4821 2.60158 13.7189 2.3339 15.0007 2.3339C16.2742 2.3339 17.5037 2.59797 18.6544 3.11889L19.0178 3.28371L20.4783 1.10918C20.5541 0.996094 20.7075 0.966017 20.8205 1.04181C20.9336 1.1182 20.9643 1.27159 20.8885 1.38468L19.4539 3.51951L19.8527 3.78118C22.2624 5.3602 23.7602 8.01776 23.8595 10.8889L23.8872 11.6769L24.5687 11.2805C24.9338 11.0681 25.3507 10.9556 25.7742 10.9556C27.0987 10.9556 28.1761 12.033 28.1761 13.3575V21.2592C28.1761 22.5838 27.0987 23.6612 25.7742 23.6612C25.3531 23.6612 24.938 23.5499 24.5741 23.3393L23.8661 22.9297V24.8516C23.8661 25.7816 23.1124 26.5347 22.183 26.5347H20.9932V30.598C20.9932 31.9418 19.8846 33.0312 18.5335 32.9993V32.9981ZM16.6826 30.5968C16.6826 31.6489 17.5386 32.5049 18.5913 32.5049C19.644 32.5049 20.4993 31.6489 20.4993 30.5968V26.0402H22.1824C22.8387 26.0402 23.3728 25.5067 23.3728 24.8504V11.4489H6.62624V24.8504C6.62624 25.5067 7.1604 26.0402 7.81606 26.0402H9.49915V30.5968C9.49915 31.6489 10.3551 32.5049 11.4072 32.5049C12.4593 32.5049 13.3153 31.6489 13.3153 30.5968V26.0402H16.682L16.6826 30.5968ZM25.7742 11.4489C24.7221 11.4489 23.8661 12.3049 23.8661 13.3569V21.2586C23.8661 22.3107 24.7221 23.1673 25.7742 23.1673C26.8262 23.1673 27.6828 22.3113 27.6828 21.2586V13.3569C27.6828 12.3049 26.8268 11.4489 25.7742 11.4489ZM4.22433 11.4489C3.17225 11.4489 2.31627 12.3049 2.31627 13.3569V21.2586C2.31627 22.3107 3.17225 23.1673 4.22433 23.1673C5.2764 23.1673 6.13298 22.3113 6.13298 21.2586V13.3569C6.13298 12.3049 5.277 11.4489 4.22433 11.4489ZM14.9995 2.82896C10.6372 2.82896 7.05212 6.10188 6.66113 10.4413L6.61481 10.9556H23.3849L23.3386 10.4413C22.9476 6.10128 19.3624 2.82896 14.9995 2.82896Z" stroke="#E43D30" stroke-width="2"/>
<path d="M11.695 7.61066C11.695 7.45219 11.5665 7.32373 11.408 7.32373C11.2496 7.32373 11.1211 7.45219 11.1211 7.61066C11.1211 7.76913 11.2496 7.89759 11.408 7.89759C11.5665 7.89759 11.695 7.76913 11.695 7.61066Z" stroke="#E43D30" stroke-width="2"/>
<path d="M18.8785 7.61036C18.8785 7.45206 18.7501 7.32373 18.5916 7.32373C18.4332 7.32373 18.3047 7.45206 18.3047 7.61036C18.3047 7.76866 18.4332 7.89699 18.5916 7.89699C18.7501 7.89699 18.8785 7.76866 18.8785 7.61036Z" stroke="#E43D30" stroke-width="2"/>
</svg>
