<svg width="38" height="34" viewBox="0 0 38 34" fill="none" xmlns="http://www.w3.org/2000/svg">
<path d="M10.044 23.4015L9.33783 23.2267C4.08295 21.895 1.06543 19.642 1.06543 17.0381C1.06543 14.4342 4.08407 12.1811 9.33783 10.8495L10.044 10.6746M9.01164 12.4838C9.50149 14.043 10.0911 15.5607 10.7805 17.0381C10.0922 18.5155 9.50261 20.0332 9.01164 21.5924M27.9563 23.4015L28.6625 23.2267C33.9163 21.895 36.9349 19.642 36.9349 17.0381C36.9349 14.4342 33.9174 12.1811 28.6625 10.8495L27.9563 10.6746M28.9887 21.5924C28.5336 20.115 27.9384 18.5906 27.2199 17.0381C27.9081 15.5607 28.4977 14.0362 28.9887 12.4838M8.99931 12.4782L8.80091 11.7776C7.32354 6.56979 7.77303 2.83375 10.0328 1.53124C12.2511 0.252272 15.8067 1.7644 19.5371 5.59458L20.0449 6.11469M10.0552 10.6802C11.6492 10.3238 13.2599 10.0727 14.8898 9.92695C15.8235 8.59529 17.8972 6.25476 19.0002 5.05762C22.7306 1.22743 25.7492 0.252272 27.9676 1.53124C30.2273 2.83263 30.6768 6.56979 29.1994 11.7776L29.001 12.4782M26.1696 32.9989C26.164 32.9989 26.164 32.9989 26.1696 32.9989ZM26.1696 32.9989C24.0387 32.9989 21.3003 31.3993 18.4633 28.4804L17.9555 27.9603M26.1696 32.9989C26.7996 33.0112 27.4183 32.852 27.9676 32.5371C30.2273 31.2357 30.6768 27.5052 29.1994 22.2974L29.001 21.5969M20.0449 27.9491C21.1479 26.7464 22.1757 25.4809 23.1095 24.1436C24.7326 24.0035 26.3501 23.7524 27.944 23.3959M27.9451 10.6802C26.4386 10.3361 24.8155 10.085 23.1106 9.92695V9.92807M20.046 6.12702C21.149 7.32977 22.1713 8.59641 23.1106 9.92807M23.1106 9.92807L22.7597 9.89893C20.2612 9.68819 17.7447 9.68819 15.2406 9.89893L14.8898 9.92807L14.6857 10.2195C13.9672 11.253 13.2902 12.3212 12.6715 13.3895C12.0415 14.4756 11.4631 15.5854 10.9262 16.7175L10.7749 17.0381L10.9262 17.3587C11.4631 18.4919 12.0404 19.6005 12.6715 20.6867C13.2958 21.7728 13.974 22.8288 14.6857 23.8566L14.8898 24.1481L15.2406 24.1772C16.5072 24.2826 17.7683 24.3353 19.0002 24.3353C20.2321 24.3353 21.4987 24.2826 22.7597 24.1772L23.1106 24.1481L23.3146 23.8566C24.7505 21.802 26.0059 19.624 27.0742 17.3587L27.2255 17.0381L27.0742 16.7175C26.0059 14.4521 24.7449 12.2742 23.3146 10.2195L23.1106 9.92807ZM8.99931 21.598L8.80091 22.2986C7.32354 27.5052 7.77303 31.2368 10.0328 32.5382C10.5809 32.8532 11.2053 33.0101 11.8364 32.9989V33C13.9616 33 16.7 31.4004 19.5315 28.4816L20.0393 27.9615M10.0563 23.3959C11.6503 23.7524 13.2622 24.0024 14.8909 24.1425C15.8246 25.4797 16.8525 26.7464 17.9555 27.9491M19.0002 13.8446C17.237 13.8446 15.8011 15.2805 15.8011 17.0437C15.8011 18.8069 17.237 20.2428 19.0002 20.2428C20.7634 20.2428 22.1993 18.8069 22.1993 17.0437C22.1993 15.2805 20.7634 13.8446 19.0002 13.8446Z" stroke="#E43D30" stroke-width="2"/>
</svg>
