<svg width="21" height="34" viewBox="0 0 21 34" fill="none" xmlns="http://www.w3.org/2000/svg">
<path d="M14.9017 10.9976H13.0983C13.0432 10.9976 13 10.9544 13 10.8993C13 10.8441 13.0432 10.801 13.0983 10.801H14.8034V9.09832C14.8034 9.04317 14.8465 9 14.9017 9C14.9568 9 15 9.04317 15 9.09832V10.9017C15 10.9568 14.9568 11 14.9017 11V10.9976Z" fill="black" stroke="#E43D30" stroke-width="0.8"/>
<path d="M6.09832 22C6.04317 22 6 21.9568 6 21.9017V20.0983C6 20.0432 6.04317 20 6.09832 20H7.90168C7.95683 20 8 20.0432 8 20.0983C8 20.1535 7.95683 20.1966 7.90168 20.1966H6.19664V21.9017C6.19664 21.9568 6.15348 22 6.09832 22Z" fill="black" stroke="#E43D30" stroke-width="0.8"/>
<path d="M4.94777 18.9975C4.91339 18.9975 4.87902 18.9797 4.86183 18.9468C4.2971 17.9412 4 16.7964 4 15.6312C4 11.9737 6.88259 9 10.4281 9C12.1444 9 13.7576 9.69149 14.9705 10.9428C15.0098 10.9833 15.0098 11.0491 14.9705 11.0897C14.9313 11.1302 14.8674 11.1302 14.8281 11.0897C13.652 9.87639 12.0904 9.2077 10.4281 9.2077C6.99308 9.2077 4.20134 12.0876 4.20134 15.6312C4.20134 16.7584 4.49107 17.8678 5.03616 18.843C5.06317 18.8936 5.04844 18.9544 4.99933 18.9848C4.9846 18.9949 4.96741 19 4.95022 19L4.94777 18.9975Z" fill="black" stroke="#E43D30"/>
<path d="M10.5709 22C8.85494 22 7.24213 21.3084 6.02946 20.057C5.99018 20.0164 5.99018 19.9506 6.02946 19.91C6.06873 19.8695 6.13256 19.8695 6.17184 19.91C7.34769 21.1235 8.9114 21.7923 10.5733 21.7923C14.0051 21.7923 16.7987 18.9094 16.7987 15.3679C16.7987 14.2405 16.509 13.131 15.9641 12.1557C15.9371 12.105 15.9518 12.0442 16.0009 12.0138C16.05 11.9859 16.1089 12.0011 16.1384 12.0518C16.703 13.0575 17 14.2026 17 15.3679C17 19.0234 14.1181 22 10.5733 22H10.5709Z" fill="black" stroke="#E43D30"/>
<path d="M8.28906 29.707H12.38" stroke="#E43D30" stroke-width="2"/>
<path d="M19.6486 5.22497H1M1 26.9306H19.655M3.77623 33C2.24452 33 1 31.7555 1 30.2238V3.77623C1 2.24452 2.24452 1 3.77623 1H16.8596C18.3977 1 19.6486 2.24452 19.6486 3.77623L19.655 25.1755V30.2174C19.655 31.7491 18.4041 32.9936 16.866 32.9936H3.77623V33Z" stroke="#E43D30" stroke-width="2"/>
</svg>
