<svg width="52" height="52" viewBox="0 0 52 52" fill="none" xmlns="http://www.w3.org/2000/svg">
<path d="M48.7273 26H51M26 3.27273V1M26 51V48.7273M44.1818 44.1818L41.9091 41.9091M44.1818 7.81818L41.9091 10.0909M7.81818 44.1818L10.0909 41.9091M7.81818 7.81818L10.0909 10.0909M1 26H3.27273" stroke="#E43D30" stroke-width="2" stroke-linecap="round" stroke-linejoin="round"/>
<path d="M21.3463 20.597L24.8883 13.0866C25.3431 12.1225 26.6567 12.1225 27.1115 13.0866L30.6535 20.597L38.5747 21.8087C39.591 21.9642 39.996 23.2717 39.2604 24.0217L33.5294 29.8637L34.8819 38.1167C35.0556 39.1767 33.9926 39.9849 33.0833 39.4842L25.9999 35.5856L18.9164 39.4842C18.0071 39.9849 16.9441 39.1767 17.1178 38.1167L18.4702 29.8637L12.7396 24.0217C12.0038 23.2717 12.4088 21.9642 13.4251 21.8087L21.3463 20.597Z" stroke="#E43D30" stroke-width="2" stroke-linecap="round" stroke-linejoin="round"/>
</svg>
