<svg width="43" height="51" viewBox="0 0 43 51" fill="none" xmlns="http://www.w3.org/2000/svg">
<path d="M30 45C26.2723 41.7972 25.2351 40 22.8792 40C20.5232 40 18 42.2386 18 45C18 47.7614 20.5232 50 22.8792 50C25.2351 50 26.2723 48.204 30 45ZM30 45C33.7277 48.2028 34.755 50 37.111 50C39.467 50 42 47.7614 42 45C42 42.2386 39.467 40 37.111 40C34.755 40 33.7277 41.796 30 45Z" stroke="#E43D30" stroke-width="2" stroke-linecap="round" stroke-linejoin="round"/>
<path d="M9 11.2466C9 13.8315 10.0269 16.3106 11.8547 18.1385C13.6825 19.9663 16.1616 20.9932 18.7466 20.9932C21.3315 20.9932 23.8106 19.9663 25.6385 18.1385C27.4663 16.3106 28.4932 13.8315 28.4932 11.2466C28.4932 8.66163 27.4663 6.18255 25.6385 4.35471C23.8106 2.52687 21.3315 1.5 18.7466 1.5C16.1616 1.5 13.6825 2.52687 11.8547 4.35471C10.0269 6.18255 9 8.66163 9 11.2466Z" stroke="#E43D30" stroke-width="1.75439" stroke-linecap="round" stroke-linejoin="round"/>
<path d="M1 49.7456V35.3694C1 32.7844 2.02687 30.3054 3.85471 28.4775C5.68255 26.6497 8.16163 25.6228 10.7466 25.6228H29.7887C32.3736 25.6228 34.8527 26.6497 36.6806 28.4775C38.5084 30.3054 39.5353 32.7844 39.5353 35.3694" stroke="#E43D30" stroke-width="1.75439" stroke-linecap="round" stroke-linejoin="round"/>
</svg>
