<svg width="46" height="53" viewBox="0 0 46 53" fill="none" xmlns="http://www.w3.org/2000/svg">
<path d="M0.29516 23.8331C-0.0966125 24.2224 -0.0986385 24.8555 0.290634 25.2473C0.679907 25.6391 1.31307 25.6411 1.70484 25.2518L0.29516 23.8331ZM17.3903 8.25677L18.0951 7.5474C17.7051 7.15989 17.0754 7.15989 16.6854 7.5474L17.3903 8.25677ZM28.0466 18.8451L27.3418 19.5545C27.7318 19.942 28.3615 19.942 28.7515 19.5545L28.0466 18.8451ZM46 2.0032C46.0018 1.45092 45.5555 1.00177 45.0032 1.00001L36.0033 0.971174C35.451 0.969405 35.0018 1.41568 35.0001 1.96797C34.9983 2.52025 35.4446 2.96939 35.9968 2.97116L43.9968 2.99679L43.9712 10.9967C43.9694 11.549 44.4157 11.9982 44.968 11.9999C45.5202 12.0017 45.9694 11.5554 45.9712 11.0032L46 2.0032ZM2 32.9269C2 32.3746 1.55228 31.9269 1 31.9269C0.447715 31.9269 0 32.3746 0 32.9269H2ZM0 51.578C0 52.1303 0.447715 52.578 1 52.578C1.55228 52.578 2 52.1303 2 51.578H0ZM46 23.1247C46 22.5724 45.5523 22.1247 45 22.1247C44.4477 22.1247 44 22.5724 44 23.1247H46ZM44 51.578C44 52.1303 44.4477 52.578 45 52.578C45.5523 52.578 46 52.1303 46 51.578H44ZM15.0038 23.1246C15.0038 22.5723 14.5561 22.1246 14.0038 22.1246C13.4516 22.1246 13.0038 22.5723 13.0038 23.1246H15.0038ZM13.0038 51.578C13.0038 52.1303 13.4516 52.578 14.0038 52.578C14.5561 52.578 15.0038 52.1303 15.0038 51.578H13.0038ZM30.76 27.451C30.76 26.8987 30.3123 26.451 29.76 26.451C29.2077 26.451 28.76 26.8987 28.76 27.451H30.76ZM28.76 51.578C28.76 52.1303 29.2077 52.578 29.76 52.578C30.3123 52.578 30.76 52.1303 30.76 51.578H28.76ZM1.70484 25.2518L18.0951 8.96613L16.6854 7.5474L0.29516 23.8331L1.70484 25.2518ZM16.6854 8.96613L27.3418 19.5545L28.7515 18.1357L18.0951 7.5474L16.6854 8.96613ZM28.7515 19.5545L45.7048 2.70937L44.2952 1.29063L27.3418 18.1357L28.7515 19.5545ZM0 32.9269V51.578H2V32.9269H0ZM44 23.1247V51.578H46V23.1247H44ZM13.0038 23.1246V51.578H15.0038V23.1246H13.0038ZM28.76 27.451V51.578H30.76V27.451H28.76Z" fill="#E43D30"/>
</svg>
