<svg width="84" height="41" viewBox="0 0 84 41" fill="none" xmlns="http://www.w3.org/2000/svg">
<mask id="mask0_1_2173" style="mask-type:luminance" maskUnits="userSpaceOnUse" x="0" y="0" width="84" height="41">
<path d="M83.6943 40.3058H0.666992V0.727051H83.6943" fill="white"/>
</mask>
<g mask="url(#mask0_1_2173)">
<path d="M41.6652 6.97946C41.5023 6.96794 41.3641 6.95289 41.2197 6.95289C41.0559 6.95289 40.9115 6.96794 40.7634 6.97946C40.5135 6.2662 40.2053 5.44128 39.8619 4.65679H37.6793C37.3782 5.41471 37.0674 6.17122 36.8269 6.97946C36.7098 6.96794 36.6113 6.95289 36.5083 6.95289C36.3983 6.95289 36.3022 6.96794 36.2114 6.97946L38.8891 0.971069H39.0898L41.6652 6.97946ZM38.7781 2.09714L37.8422 4.29639H39.7316L38.7781 2.09714Z" fill="#2B2A7F"/>
</g>
<mask id="mask1_1_2173" style="mask-type:luminance" maskUnits="userSpaceOnUse" x="0" y="0" width="84" height="41">
<path d="M83.6943 40.3058H0.666992V0.727051H83.6943" fill="white"/>
</mask>
<g mask="url(#mask1_1_2173)">
<path d="M48.3145 1.10062C48.5416 3.22229 48.781 5.33667 49.0137 6.97947C48.8595 6.96795 48.7372 6.95314 48.6096 6.95314C48.4723 6.95314 48.3348 6.96795 48.2062 6.97947C48.0583 5.24922 47.8886 3.39508 47.7661 2.54194C46.7702 4.32297 46.0323 5.69683 45.5146 6.88262H45.4187L44.9495 5.91335C44.3973 4.77999 43.7966 3.6619 43.2141 2.54194C43.0218 4.22094 42.7904 5.9204 42.7904 6.97947C42.6776 6.96795 42.5861 6.95314 42.4893 6.95314C42.3783 6.95314 42.2843 6.96795 42.1792 6.97947C42.4056 5.59551 42.9171 2.00406 43.0069 1.10062H43.2289C43.9156 2.46342 44.7417 4.08201 45.6627 5.60232C46.4794 4.13114 47.2686 2.6388 48.1366 1.10062H48.3145Z" fill="#2B2A7F"/>
</g>
<mask id="mask2_1_2173" style="mask-type:luminance" maskUnits="userSpaceOnUse" x="0" y="0" width="84" height="41">
<path d="M83.6943 40.3058H0.666992V0.727051H83.6943" fill="white"/>
</mask>
<g mask="url(#mask2_1_2173)">
<path d="M50.9619 3.66166H52.2925C52.553 3.66166 52.8022 3.62569 53.0584 3.6177C53.0513 3.68564 53.0354 3.76392 53.0354 3.84221C53.0354 3.90733 53.0513 3.98843 53.0584 4.08176C52.8022 4.07471 52.553 4.04039 52.2925 4.04039H50.9619V6.54784C51.4859 6.56641 52.0045 6.53209 52.5196 6.51352C52.7855 6.50576 53.0417 6.47919 53.3083 6.43805C53.3012 6.53209 53.2838 6.61037 53.2838 6.69407C53.2838 6.78058 53.3012 6.86662 53.3083 6.9529H50.2065V1.10037H53.2556C53.2486 1.1937 53.2319 1.27128 53.2319 1.36109C53.2319 1.44454 53.2486 1.52847 53.2556 1.61381C53.0003 1.56162 52.7422 1.5414 52.4827 1.52048L51.6258 1.50167H50.9619V3.66166Z" fill="#2B2A7F"/>
</g>
<mask id="mask3_1_2173" style="mask-type:luminance" maskUnits="userSpaceOnUse" x="0" y="0" width="84" height="41">
<path d="M83.6943 40.3058H0.666992V0.727051H83.6943" fill="white"/>
</mask>
<g mask="url(#mask3_1_2173)">
<path d="M54.5122 1.10062H56.3356C57.6537 1.10062 58.2409 1.54141 58.2409 2.40536C58.2409 3.40284 57.3464 3.88359 56.4792 4.0404L58.2482 6.28126L58.6627 6.76437L58.8258 6.97924C58.6453 6.96795 58.4911 6.95291 58.3284 6.95291C58.1627 6.95291 57.9936 6.96795 57.8387 6.97924C57.6466 6.71171 57.4776 6.47215 57.2964 6.23189L56.2829 4.91469L55.5927 4.10646H55.2678V6.97924C55.1303 6.96795 55.008 6.95291 54.8907 6.95291C54.7633 6.95291 54.6328 6.96795 54.5122 6.97924V1.10062ZM55.2678 3.77968C55.3893 3.78932 55.9378 3.82365 56.3753 3.73737C57.0041 3.6123 57.4776 3.17833 57.4776 2.50927C57.4776 1.91755 57.1748 1.52848 56.5293 1.42527C56.2126 1.37426 55.6277 1.40059 55.2678 1.41563V3.77968Z" fill="#2B2A7F"/>
</g>
<mask id="mask4_1_2173" style="mask-type:luminance" maskUnits="userSpaceOnUse" x="0" y="0" width="84" height="41">
<path d="M83.6943 40.3058H0.666992V0.727051H83.6943" fill="white"/>
</mask>
<g mask="url(#mask4_1_2173)">
<path d="M59.8047 1.10062C59.9255 1.11026 60.0546 1.12507 60.1825 1.12507C60.3031 1.12507 60.423 1.11026 60.5603 1.10062V6.97947C60.423 6.96795 60.3031 6.95314 60.1825 6.95314C60.0546 6.95314 59.9255 6.96795 59.8047 6.97947V1.10062Z" fill="#2B2A7F"/>
</g>
<mask id="mask5_1_2173" style="mask-type:luminance" maskUnits="userSpaceOnUse" x="0" y="0" width="84" height="41">
<path d="M83.6943 40.3058H0.666992V0.727051H83.6943" fill="white"/>
</mask>
<g mask="url(#mask5_1_2173)">
<path d="M66.6264 6.58921C66.0841 6.95289 65.3823 7.08337 64.7283 7.08337C62.8387 7.08337 61.7046 5.88677 61.7046 4.00418C61.7046 2.06823 63.1311 0.971069 64.9429 0.971069C65.5699 0.971069 66.2155 1.118 66.7893 1.36625C66.7049 1.583 66.6527 1.80399 66.609 2.02685L66.5509 2.0372C66.4285 1.88063 65.7954 1.29761 64.9086 1.29761C63.3283 1.29761 62.5455 2.5779 62.5455 4.04038C62.5455 5.68859 63.4903 6.74602 64.8473 6.74602C65.7761 6.74602 66.4987 6.19755 66.6699 6.04945L66.6264 6.58921Z" fill="#2B2A7F"/>
</g>
<mask id="mask6_1_2173" style="mask-type:luminance" maskUnits="userSpaceOnUse" x="0" y="0" width="84" height="41">
<path d="M83.6943 40.3058H0.666992V0.727051H83.6943" fill="white"/>
</mask>
<g mask="url(#mask6_1_2173)">
<path d="M72.3163 6.97946C72.155 6.96794 72.0161 6.95289 71.8689 6.95289C71.7053 6.95289 71.559 6.96794 71.4154 6.97946C71.1655 6.2662 70.8573 5.44128 70.5129 4.65679H68.3294C68.0273 5.41471 67.7193 6.17122 67.4798 6.97946C67.3573 6.96794 67.263 6.95289 67.1603 6.95289C67.0491 6.95289 66.9551 6.96794 66.8599 6.97946L69.5417 0.971069H69.738L72.3163 6.97946ZM69.4291 2.09714L68.494 4.29639H70.3827L69.4291 2.09714Z" fill="#2B2A7F"/>
</g>
<mask id="mask7_1_2173" style="mask-type:luminance" maskUnits="userSpaceOnUse" x="0" y="0" width="84" height="41">
<path d="M83.6943 40.3058H0.666992V0.727051H83.6943" fill="white"/>
</mask>
<g mask="url(#mask7_1_2173)">
<path d="M78.2964 6.97947H78.0383C77.9452 6.85793 77.771 6.6527 77.593 6.45499L73.8791 2.34564H73.7947V6.97947C73.7073 6.96795 73.6316 6.95314 73.5523 6.95314C73.4679 6.95314 73.3897 6.96795 73.314 6.97947V1.10062H73.6485L77.7294 5.52663H77.8138V1.10062C77.8923 1.11026 77.9682 1.1253 78.0569 1.1253C78.1328 1.1253 78.2111 1.11026 78.2964 1.10062V6.97947Z" fill="#2B2A7F"/>
</g>
<mask id="mask8_1_2173" style="mask-type:luminance" maskUnits="userSpaceOnUse" x="0" y="0" width="84" height="41">
<path d="M83.6943 40.3058H0.666992V0.727051H83.6943" fill="white"/>
</mask>
<g mask="url(#mask8_1_2173)">
<path d="M36.459 13.9929C36.7963 14.5404 37.1828 14.8848 37.8528 14.8848C38.5475 14.8848 39.0468 14.3107 39.0468 13.6257C39.0468 12.0301 36.3541 12.7354 36.3541 10.7947C36.3541 9.68818 37.2329 9.14395 38.2649 9.14395C38.6794 9.14395 39.1735 9.27349 39.494 9.557C39.3894 9.77893 39.3303 10.0227 39.2617 10.2597H39.1735C38.9956 9.7982 38.6171 9.51469 38.1107 9.51469C37.5164 9.51469 37.026 9.9101 37.026 10.5185C37.026 12.1007 39.7326 11.464 39.7326 13.2947C39.7326 14.523 38.7791 15.2562 37.6123 15.2562C37.1896 15.2562 36.5022 15.0731 36.2114 14.7572C36.2963 14.5063 36.3391 14.2482 36.3718 13.9929H36.459Z" fill="#2B2A7F"/>
</g>
<mask id="mask9_1_2173" style="mask-type:luminance" maskUnits="userSpaceOnUse" x="0" y="0" width="84" height="41">
<path d="M83.6943 40.3058H0.666992V0.727051H83.6943" fill="white"/>
</mask>
<g mask="url(#mask9_1_2173)">
<path d="M45.3702 14.7623C44.8278 15.126 44.1226 15.2562 43.4719 15.2562C41.5825 15.2562 40.4458 14.0597 40.4458 12.1771C40.4458 10.2411 41.8737 9.14395 43.6858 9.14395C44.3137 9.14395 44.9571 9.29112 45.5338 9.53913C45.4487 9.75589 45.3965 9.97687 45.3526 10.1997L45.2945 10.2103C45.173 10.0535 44.5363 9.47049 43.6515 9.47049C42.0712 9.47049 41.2893 10.751 41.2893 12.2133C41.2893 13.8615 42.2348 14.9189 43.5925 14.9189C44.5187 14.9189 45.2397 14.3704 45.4158 14.2226L45.3702 14.7623Z" fill="#2B2A7F"/>
</g>
<mask id="mask10_1_2173" style="mask-type:luminance" maskUnits="userSpaceOnUse" x="0" y="0" width="84" height="41">
<path d="M83.6943 40.3058H0.666992V0.727051H83.6943" fill="white"/>
</mask>
<g mask="url(#mask10_1_2173)">
<path d="M50.9993 9.27322C51.1192 9.28286 51.2501 9.29791 51.378 9.29791C51.4951 9.29791 51.6185 9.28286 51.7548 9.27322V15.1523C51.6185 15.1408 51.4951 15.1257 51.378 15.1257C51.2501 15.1257 51.1192 15.1408 50.9993 15.1523V12.1956C50.3892 12.177 49.7959 12.1505 49.1945 12.1505C48.5903 12.1505 47.9995 12.177 47.3824 12.1956V15.1523C47.2426 15.1408 47.1236 15.1257 47.0021 15.1257C46.8744 15.1257 46.7432 15.1408 46.6245 15.1523V9.27322C46.7432 9.28286 46.8744 9.29791 47.0021 9.29791C47.1236 9.29791 47.2426 9.28286 47.3824 9.27322V11.7412C47.9995 11.7562 48.6002 11.7854 49.1945 11.7854C49.7959 11.7854 50.3892 11.7562 50.9993 11.7412V9.27322Z" fill="#2B2A7F"/>
</g>
<mask id="mask11_1_2173" style="mask-type:luminance" maskUnits="userSpaceOnUse" x="0" y="0" width="84" height="41">
<path d="M83.6943 40.3058H0.666992V0.727051H83.6943" fill="white"/>
</mask>
<g mask="url(#mask11_1_2173)">
<path d="M52.8984 12.2135C52.8984 10.33 54.2965 9.14395 56.0759 9.14395C57.6898 9.14395 59.3321 10.0227 59.3321 12.0804C59.3321 13.9997 57.9752 15.2562 56.0592 15.2562C54.1611 15.2562 52.8984 14.0491 52.8984 12.2135ZM57.9488 10.2597C57.521 9.71968 56.85 9.42935 56.164 9.42935C54.6496 9.42935 53.7393 10.5702 53.7393 12.3155C53.7393 14.0596 54.8055 14.9683 56.0855 14.9683C57.8966 14.9683 58.5511 13.0965 58.4928 12.1507C58.4928 11.4401 58.396 10.8361 57.9488 10.2597Z" fill="#2B2A7F"/>
</g>
<mask id="mask12_1_2173" style="mask-type:luminance" maskUnits="userSpaceOnUse" x="0" y="0" width="84" height="41">
<path d="M83.6943 40.3058H0.666992V0.727051H83.6943" fill="white"/>
</mask>
<g mask="url(#mask12_1_2173)">
<path d="M60.0542 12.2135C60.0542 10.33 61.4558 9.14395 63.2326 9.14395C64.8491 9.14395 66.4895 10.0227 66.4895 12.0804C66.4895 13.9997 65.1335 15.2562 63.2178 15.2562C61.3185 15.2562 60.0542 14.0491 60.0542 12.2135ZM65.1072 10.2597C64.6774 9.71968 64.0074 9.42935 63.3215 9.42935C61.808 9.42935 60.8977 10.5702 60.8977 12.3155C60.8977 14.0596 61.9622 14.9683 63.2422 14.9683C65.0569 14.9683 65.7078 13.0965 65.6479 12.1507C65.6479 11.4401 65.5534 10.8361 65.1072 10.2597Z" fill="#2B2A7F"/>
</g>
<mask id="mask13_1_2173" style="mask-type:luminance" maskUnits="userSpaceOnUse" x="0" y="0" width="84" height="41">
<path d="M83.6943 40.3058H0.666992V0.727051H83.6943" fill="white"/>
</mask>
<g mask="url(#mask13_1_2173)">
<path d="M68.3722 14.7207C68.8943 14.7393 69.4101 14.7049 69.9252 14.6892C70.2017 14.6784 70.4694 14.6452 70.7442 14.6107C70.7353 14.7049 70.7179 14.7835 70.7179 14.8669C70.7179 14.9532 70.7353 15.0395 70.7442 15.126H67.6147V9.27322C67.7356 9.28286 67.8632 9.29814 67.9944 9.29814C68.1131 9.29814 68.2356 9.28286 68.3722 9.27322V14.7207Z" fill="#2B2A7F"/>
</g>
<mask id="mask14_1_2173" style="mask-type:luminance" maskUnits="userSpaceOnUse" x="0" y="0" width="84" height="41">
<path d="M83.6943 40.3058H0.666992V0.727051H83.6943" fill="white"/>
</mask>
<g mask="url(#mask14_1_2173)">
<path d="M73.0815 12.2111C73.0815 10.3297 74.4813 9.14395 76.2602 9.14395C77.8745 9.14395 79.5199 10.0206 79.5199 12.0814C79.5199 13.9995 78.159 15.2562 76.2423 15.2562C74.344 15.2562 73.0815 14.0526 73.0815 12.2111ZM78.1359 10.2597C77.7048 9.71921 77.032 9.43029 76.3457 9.43029C74.8339 9.43029 73.922 10.5714 73.922 12.3153C73.922 14.0613 74.9883 14.972 76.27 14.972C78.083 14.972 78.7361 13.0991 78.6773 12.1514C78.6773 11.4377 78.5807 10.8359 78.1359 10.2597Z" fill="#2B2A7F"/>
</g>
<mask id="mask15_1_2173" style="mask-type:luminance" maskUnits="userSpaceOnUse" x="0" y="0" width="84" height="41">
<path d="M83.6943 40.3058H0.666992V0.727051H83.6943" fill="white"/>
</mask>
<g mask="url(#mask15_1_2173)">
<path d="M80.644 9.27298H83.6943C83.6856 9.36584 83.6694 9.4453 83.6694 9.52899C83.6694 9.61503 83.6856 9.70319 83.6943 9.78759C83.4355 9.73634 83.1795 9.70883 82.9225 9.69473L82.0621 9.67475H81.4024V11.834H82.7321C82.9919 11.834 83.2392 11.8006 83.498 11.7894C83.4895 11.8585 83.4724 11.9363 83.4724 12.0139C83.4724 12.0813 83.4895 12.1573 83.498 12.2539C83.2392 12.2454 82.9919 12.2111 82.7321 12.2111H81.4024V15.1521C81.2621 15.1398 81.1417 15.1239 81.0223 15.1239C80.8925 15.1239 80.7646 15.1398 80.644 15.1521V9.27298Z" fill="#2B2A7F"/>
</g>
<mask id="mask16_1_2173" style="mask-type:luminance" maskUnits="userSpaceOnUse" x="0" y="0" width="84" height="41">
<path d="M83.6943 40.3058H0.666992V0.727051H83.6943" fill="white"/>
</mask>
<g mask="url(#mask16_1_2173)">
<path d="M41.1351 22.8818C40.5918 23.2417 39.8868 23.3745 39.2337 23.3745C37.342 23.3745 36.2114 22.1796 36.2114 20.2961C36.2114 18.3615 37.6368 17.2622 39.4491 17.2622C40.0775 17.2622 40.7228 17.4082 41.2971 17.6558C41.212 17.8725 41.1598 18.0935 41.1163 18.3211L41.0585 18.3305C40.9369 18.1732 40.2982 17.5881 39.415 17.5881C37.8321 17.5881 37.0512 18.8698 37.0512 20.3294C37.0512 21.9783 37.996 23.0391 39.3543 23.0391C40.2832 23.0391 41.0072 22.4885 41.1788 22.3425L41.1351 22.8818Z" fill="#2B2A7F"/>
</g>
<mask id="mask17_1_2173" style="mask-type:luminance" maskUnits="userSpaceOnUse" x="0" y="0" width="84" height="41">
<path d="M83.6943 40.3058H0.666992V0.727051H83.6943" fill="white"/>
</mask>
<g mask="url(#mask17_1_2173)">
<path d="M42.3892 17.3913H44.2092C45.5361 17.3913 46.1195 17.8271 46.1195 18.6956C46.1195 19.6945 45.2281 20.1776 44.3578 20.3294L46.1301 22.5757L46.5399 23.0534L46.7037 23.2704C46.5234 23.2582 46.368 23.2419 46.2061 23.2419C46.042 23.2419 45.8694 23.2582 45.7131 23.2704C45.5285 23.0022 45.3532 22.7605 45.1759 22.5226L44.1605 21.207L43.4708 20.4023H43.1466V23.2704C43.0053 23.2582 42.885 23.2419 42.7665 23.2419C42.6395 23.2419 42.5076 23.2582 42.3892 23.2704V17.3913ZM43.1466 20.0734C43.2651 20.0809 43.8157 20.1122 44.2536 20.0316C44.879 19.9011 45.3532 19.4716 45.3532 18.7997C45.3532 18.2063 45.0544 17.8215 44.409 17.7174C44.0905 17.6661 43.5039 17.6924 43.1466 17.7087V20.0734Z" fill="#2B2A7F"/>
</g>
<mask id="mask18_1_2173" style="mask-type:luminance" maskUnits="userSpaceOnUse" x="0" y="0" width="84" height="41">
<path d="M83.6943 40.3058H0.666992V0.727051H83.6943" fill="white"/>
</mask>
<g mask="url(#mask18_1_2173)">
<path d="M48.3848 19.9521H49.7203C49.978 19.9521 50.2255 19.9188 50.4843 19.9077C50.4766 19.9766 50.4606 20.0544 50.4606 20.1322C50.4606 20.1994 50.4766 20.2754 50.4843 20.372C50.2255 20.3633 49.978 20.3292 49.7203 20.3292H48.3848V22.84C48.9118 22.8562 49.4276 22.824 49.9432 22.8031C50.2114 22.7955 50.47 22.7687 50.7326 22.7299C50.7258 22.824 50.7091 22.9016 50.7091 22.986C50.7091 23.0732 50.7258 23.1576 50.7326 23.2417H47.6304V17.3911H50.6832C50.6736 17.4839 50.6557 17.5636 50.6557 17.6471C50.6557 17.7334 50.6736 17.8215 50.6832 17.9059C50.4246 17.8544 50.1677 17.8272 49.9098 17.8128L49.0512 17.7928H48.3848V19.9521Z" fill="#2B2A7F"/>
</g>
<mask id="mask19_1_2173" style="mask-type:luminance" maskUnits="userSpaceOnUse" x="0" y="0" width="84" height="41">
<path d="M83.6943 40.3058H0.666992V0.727051H83.6943" fill="white"/>
</mask>
<g mask="url(#mask19_1_2173)">
<path d="M56.7596 23.2702C56.5957 23.2582 56.4582 23.2417 56.3134 23.2417C56.149 23.2417 56.0033 23.2582 55.8573 23.2702C55.609 22.5557 55.298 21.732 54.9541 20.951H52.7713C52.4718 21.7035 52.16 22.46 51.9212 23.2702C51.799 23.2582 51.708 23.2417 51.6017 23.2417C51.4898 23.2417 51.3951 23.2582 51.3013 23.2702L53.9827 17.2622H54.1795L56.7596 23.2702ZM53.8708 18.3864L52.9361 20.588H54.8259L53.8708 18.3864Z" fill="#2B2A7F"/>
</g>
<mask id="mask20_1_2173" style="mask-type:luminance" maskUnits="userSpaceOnUse" x="0" y="0" width="84" height="41">
<path d="M83.6943 40.3058H0.666992V0.727051H83.6943" fill="white"/>
</mask>
<g mask="url(#mask20_1_2173)">
<path d="M59.0716 23.2902C58.9331 23.2777 58.8125 23.2579 58.6924 23.2579C58.5645 23.2579 58.4373 23.2777 58.3169 23.2902V17.8015C57.449 17.8015 56.9191 17.8544 56.4346 17.9059C56.4421 17.8213 56.4583 17.7331 56.4583 17.6471C56.4583 17.5636 56.4421 17.4839 56.4346 17.3911H60.8693C60.8618 17.4839 60.8429 17.5636 60.8429 17.6471C60.8429 17.7331 60.8618 17.8213 60.8693 17.9059C60.4388 17.8544 59.8354 17.8015 59.0716 17.8015V23.2902Z" fill="#2B2A7F"/>
</g>
<mask id="mask21_1_2173" style="mask-type:luminance" maskUnits="userSpaceOnUse" x="0" y="0" width="84" height="41">
<path d="M83.6943 40.3058H0.666992V0.727051H83.6943" fill="white"/>
</mask>
<g mask="url(#mask21_1_2173)">
<path d="M61.8574 17.3913C61.9778 17.3998 62.1069 17.4141 62.2338 17.4141C62.3551 17.4141 62.4755 17.3998 62.6128 17.3913V23.2704C62.4755 23.2582 62.3551 23.2419 62.2338 23.2419C62.1069 23.2419 61.9778 23.2582 61.8574 23.2704V17.3913Z" fill="#2B2A7F"/>
</g>
<mask id="mask22_1_2173" style="mask-type:luminance" maskUnits="userSpaceOnUse" x="0" y="0" width="84" height="41">
<path d="M83.6943 40.3058H0.666992V0.727051H83.6943" fill="white"/>
</mask>
<g mask="url(#mask22_1_2173)">
<path d="M67.8816 18.9636L68.3991 17.5286L68.4578 17.3913C68.5594 17.3998 68.6645 17.4139 68.7754 17.4139C68.8683 17.4139 68.9762 17.3998 69.0843 17.3913C68.8114 17.9134 66.91 22.3169 66.6023 23.2702C66.5407 23.2582 66.4817 23.2417 66.4307 23.2417C66.3688 23.2417 66.3075 23.2582 66.2478 23.2702C65.2696 21.2514 64.0137 18.1201 63.6348 17.3913C63.7655 17.3998 63.9124 17.4139 64.0497 17.4139C64.1863 17.4139 64.3123 17.3998 64.4679 17.3913C64.5824 17.6558 64.683 17.9416 64.7862 18.2233L65.3653 19.7274L66.4201 22.334H66.4967C66.6627 21.9783 66.8418 21.6448 66.9775 21.2971L67.8816 18.9636Z" fill="#2B2A7F"/>
</g>
<mask id="mask23_1_2173" style="mask-type:luminance" maskUnits="userSpaceOnUse" x="0" y="0" width="84" height="41">
<path d="M83.6943 40.3058H0.666992V0.727051H83.6943" fill="white"/>
</mask>
<g mask="url(#mask23_1_2173)">
<path d="M70.6819 19.9521H72.0144C72.2739 19.9521 72.5234 19.9188 72.7822 19.9077C72.7718 19.9766 72.7556 20.0563 72.7556 20.1322C72.7556 20.1994 72.7718 20.2782 72.7822 20.3739C72.5234 20.3633 72.2739 20.332 72.0144 20.332H70.6819V22.84C71.2087 22.8562 71.7245 22.824 72.2391 22.8031C72.5074 22.7955 72.7634 22.7727 73.0295 22.7299C73.022 22.824 73.0048 22.9016 73.0048 22.986C73.0048 23.0732 73.022 23.1576 73.0295 23.2417H69.9282V17.3911H72.9801C72.9707 17.4839 72.9526 17.5636 72.9526 17.6471C72.9526 17.7334 72.9707 17.8215 72.9801 17.9059C72.7206 17.8544 72.4618 17.8272 72.2076 17.8128L71.3442 17.7928H70.6819V19.9521Z" fill="#2B2A7F"/>
</g>
<mask id="mask24_1_2173" style="mask-type:luminance" maskUnits="userSpaceOnUse" x="0" y="0" width="84" height="41">
<path d="M83.6943 40.3058H0.666992V0.727051H83.6943" fill="white"/>
</mask>
<g mask="url(#mask24_1_2173)">
<path d="M36.4634 29.9067C36.7952 30.4601 37.1835 30.8031 37.8514 30.8031C38.5489 30.8031 39.0464 30.2257 39.0464 29.5447C39.0464 27.9472 36.3574 28.652 36.3574 26.7107C36.3574 25.6003 37.2336 25.0613 38.2684 25.0613C38.6777 25.0613 39.1789 25.1901 39.4947 25.4734C39.3894 25.6979 39.3325 25.9375 39.2615 26.1763H39.1789C38.9953 25.712 38.6171 25.4287 38.1121 25.4287C37.518 25.4287 37.0272 25.8248 37.0272 26.4387C37.0272 28.0182 39.7333 27.3795 39.7333 29.2092C39.7333 30.4408 38.7819 31.1736 37.6118 31.1736C37.1903 31.1736 36.5022 30.9888 36.2114 30.674C36.2956 30.4201 36.3395 30.1643 36.3762 29.9067H36.4634Z" fill="#2B2A7F"/>
</g>
<mask id="mask25_1_2173" style="mask-type:luminance" maskUnits="userSpaceOnUse" x="0" y="0" width="84" height="41">
<path d="M83.6943 40.3058H0.666992V0.727051H83.6943" fill="white"/>
</mask>
<g mask="url(#mask25_1_2173)">
<path d="M45.3707 30.6787C44.8316 31.0386 44.1238 31.1733 43.474 31.1733C41.5797 31.1733 40.4468 29.9767 40.4468 28.0941C40.4468 26.1601 41.8735 25.061 43.6889 25.061C44.3142 25.061 44.9586 25.207 45.5336 25.4541C45.4495 25.6711 45.3961 25.8921 45.3547 26.1194L45.295 26.1288C45.1735 25.9718 44.5368 25.3869 43.652 25.3869C42.0705 25.3869 41.2889 26.6679 41.2889 28.1299C41.2889 29.7757 42.2365 30.836 43.5941 30.836C44.5227 30.836 45.2428 30.2856 45.4151 30.1396L45.3707 30.6787Z" fill="#2B2A7F"/>
</g>
<mask id="mask26_1_2173" style="mask-type:luminance" maskUnits="userSpaceOnUse" x="0" y="0" width="84" height="41">
<path d="M83.6943 40.3058H0.666992V0.727051H83.6943" fill="white"/>
</mask>
<g mask="url(#mask26_1_2173)">
<path d="M46.668 25.1899C46.7865 25.1983 46.9174 25.2127 47.0479 25.2127C47.1682 25.2127 47.2867 25.1983 47.4261 25.1899V31.0671C47.2867 31.0549 47.1682 31.0386 47.0479 31.0386C46.9174 31.0386 46.7865 31.0549 46.668 31.0671V25.1899Z" fill="#2B2A7F"/>
</g>
<mask id="mask27_1_2173" style="mask-type:luminance" maskUnits="userSpaceOnUse" x="0" y="0" width="84" height="41">
<path d="M83.6943 40.3058H0.666992V0.727051H83.6943" fill="white"/>
</mask>
<g mask="url(#mask27_1_2173)">
<path d="M49.7616 27.75H51.0958C51.3516 27.75 51.6017 27.7168 51.8575 27.7056C51.849 27.7747 51.8337 27.8541 51.8337 27.9301C51.8337 27.9975 51.849 28.0761 51.8575 28.1717C51.6017 28.1612 51.3516 28.1299 51.0958 28.1299H49.7616V30.6371C50.2857 30.6533 50.8031 30.6211 51.3212 30.6002C51.5845 30.5927 51.8431 30.5699 52.1104 30.5271C52.098 30.6211 52.081 30.6987 52.081 30.7829C52.081 30.8701 52.098 30.9545 52.1104 31.0386H49.0054V25.1899H52.0547C52.0472 25.2827 52.0298 25.3624 52.0298 25.4457C52.0298 25.5319 52.0472 25.6201 52.0547 25.7045C51.7968 25.6532 51.541 25.6257 51.2806 25.6116L50.4222 25.5916H49.7616V27.75Z" fill="#2B2A7F"/>
</g>
<mask id="mask28_1_2173" style="mask-type:luminance" maskUnits="userSpaceOnUse" x="0" y="0" width="84" height="41">
<path d="M83.6943 40.3058H0.666992V0.727051H83.6943" fill="white"/>
</mask>
<g mask="url(#mask28_1_2173)">
<path d="M58.3797 31.0673H58.1239C58.0283 30.946 57.8541 30.7443 57.6759 30.5433L53.9626 26.4389H53.8782V31.0673C53.7903 31.0551 53.7132 31.0389 53.6375 31.0389C53.5503 31.0389 53.4736 31.0551 53.3979 31.0673V25.1901H53.7313L57.8103 29.6168H57.8994V25.1901C57.9751 25.1986 58.0548 25.2129 58.1383 25.2129C58.2168 25.2129 58.2965 25.1986 58.3797 25.1901V31.0673Z" fill="#2B2A7F"/>
</g>
<mask id="mask29_1_2173" style="mask-type:luminance" maskUnits="userSpaceOnUse" x="0" y="0" width="84" height="41">
<path d="M83.6943 40.3058H0.666992V0.727051H83.6943" fill="white"/>
</mask>
<g mask="url(#mask29_1_2173)">
<path d="M64.4718 30.6787C63.9309 31.0386 63.2249 31.1733 62.5732 31.1733C60.682 31.1733 59.5488 29.9767 59.5488 28.0941C59.5488 26.1601 60.9756 25.061 62.7872 25.061C63.4146 25.061 64.0578 25.207 64.6368 25.4541C64.5487 25.6711 64.4984 25.8921 64.4558 26.1194L64.3914 26.1288C64.272 25.9718 63.6401 25.3869 62.755 25.3869C61.1719 25.3869 60.3893 26.6679 60.3893 28.1299C60.3893 29.7757 61.3367 30.836 62.6943 30.836C63.6222 30.836 64.343 30.2856 64.5158 30.1396L64.4718 30.6787Z" fill="#2B2A7F"/>
</g>
<mask id="mask30_1_2173" style="mask-type:luminance" maskUnits="userSpaceOnUse" x="0" y="0" width="84" height="41">
<path d="M83.6943 40.3058H0.666992V0.727051H83.6943" fill="white"/>
</mask>
<g mask="url(#mask30_1_2173)">
<path d="M66.4734 27.75H67.8066C68.0633 27.75 68.3125 27.7168 68.5702 27.7056C68.5636 27.7747 68.5448 27.8541 68.5448 27.9301C68.5448 27.9975 68.5636 28.0761 68.5702 28.1717C68.3125 28.1612 68.0633 28.1299 67.8066 28.1299H66.4734V30.6371C66.9965 30.6533 67.5148 30.6211 68.0292 30.6002C68.2965 30.5927 68.5549 30.5699 68.8212 30.5271C68.8107 30.6211 68.7947 30.6987 68.7947 30.7829C68.7947 30.8701 68.8107 30.9545 68.8212 31.0386H65.7192V25.1899H68.7674C68.7599 25.2827 68.7408 25.3624 68.7408 25.4457C68.7408 25.5319 68.7599 25.6201 68.7674 25.7045C68.5126 25.6532 68.2511 25.6257 67.9951 25.6116L67.1347 25.5916H66.4734V27.75Z" fill="#2B2A7F"/>
</g>
<mask id="mask31_1_2173" style="mask-type:luminance" maskUnits="userSpaceOnUse" x="0" y="0" width="84" height="41">
<path d="M83.6943 40.3058H0.666992V0.727051H83.6943" fill="white"/>
</mask>
<g mask="url(#mask31_1_2173)">
<path d="M12.3361 37.8212C16.2371 37.3567 20.1163 34.5036 22.3847 30.1289C22.0001 30.3536 21.5957 30.5532 21.1754 30.7243C14.4004 33.4377 5.56058 27.2775 1.4289 16.9641C1.17336 16.3275 0.941795 15.6916 0.736328 15.0543C1.13057 22.4133 3.32395 28.8091 8.70042 34.4524C9.91653 35.7291 11.2777 36.9803 12.708 38.1226C12.5836 38.0238 12.4604 37.923 12.3361 37.8212Z" fill="#F7323F"/>
</g>
<mask id="mask32_1_2173" style="mask-type:luminance" maskUnits="userSpaceOnUse" x="0" y="0" width="84" height="41">
<path d="M83.6943 40.3058H0.666992V0.727051H83.6943" fill="white"/>
</mask>
<g mask="url(#mask32_1_2173)">
<path d="M15.6675 0.728226L9.5166 0.727051C11.891 1.90038 14.6425 3.49522 17.3831 5.60725C23.6576 10.439 27.6729 16.2198 29.4474 22.4899C30.3055 19.3578 30.6675 16.029 30.6675 12.4866V0.728226H15.6675Z" fill="#2B2A7F"/>
</g>
<mask id="mask33_1_2173" style="mask-type:luminance" maskUnits="userSpaceOnUse" x="0" y="0" width="84" height="41">
<path d="M83.6943 40.3058H0.666992V0.727051H83.6943" fill="white"/>
</mask>
<g mask="url(#mask33_1_2173)">
<path d="M18.0925 6.16534C18.0584 6.18533 18.026 6.20601 17.9919 6.22811C14.5488 8.49719 11.5305 11.208 8.9873 14.2907C11.5611 15.9053 14.2726 17.971 16.6481 20.5382C18.944 17.0417 21.5683 14.2489 24.0299 12.0842C22.3707 9.99329 20.3903 8.01337 18.0925 6.16534Z" fill="#E63329"/>
</g>
<mask id="mask34_1_2173" style="mask-type:luminance" maskUnits="userSpaceOnUse" x="0" y="0" width="84" height="41">
<path d="M83.6943 40.3058H0.666992V0.727051H83.6943" fill="white"/>
</mask>
<g mask="url(#mask34_1_2173)">
<path d="M22.385 30.1267C20.1197 34.502 16.2375 37.3566 12.3364 37.8209C13.4108 38.6971 14.5277 39.5173 15.6627 40.2358C18.1598 38.6473 20.5993 36.5858 22.6345 34.4521C22.8395 34.2366 23.0395 34.0198 23.2365 33.8009C23.0463 32.5183 22.7581 31.2932 22.385 30.1267Z" fill="#2B2A7F"/>
</g>
<mask id="mask35_1_2173" style="mask-type:luminance" maskUnits="userSpaceOnUse" x="0" y="0" width="84" height="41">
<path d="M83.6943 40.3058H0.666992V0.727051H83.6943" fill="white"/>
</mask>
<g mask="url(#mask35_1_2173)">
<path d="M30.6674 0.728241H30.6328C28.1407 1.29715 23.3183 2.746 18.0923 6.16537C20.39 8.0134 22.3704 9.99331 24.0297 12.0842C26.6114 9.81558 29.0128 8.23579 30.6674 7.26958V0.728241Z" fill="#0070BA"/>
</g>
<mask id="mask36_1_2173" style="mask-type:luminance" maskUnits="userSpaceOnUse" x="0" y="0" width="84" height="41">
<path d="M83.6943 40.3058H0.666992V0.727051H83.6943" fill="white"/>
</mask>
<g mask="url(#mask36_1_2173)">
<path d="M8.98702 14.2907C6.3592 17.4773 4.24011 21.0655 2.68994 24.9778C3.95777 28.3624 5.89702 31.5086 8.70021 34.4524C9.31379 35.0956 9.96569 35.735 10.6435 36.3542C11.5902 29.9812 13.8806 24.7489 16.6481 20.5379C14.2723 17.9708 11.5608 15.9051 8.98702 14.2907Z" fill="#2B2A7F"/>
</g>
<mask id="mask37_1_2173" style="mask-type:luminance" maskUnits="userSpaceOnUse" x="0" y="0" width="84" height="41">
<path d="M83.6943 40.3058H0.666992V0.727051H83.6943" fill="white"/>
</mask>
<g mask="url(#mask37_1_2173)">
<path d="M16.6484 20.5379C19.851 24.0017 22.4401 28.3765 23.2363 33.8009C26.3637 30.3277 28.3295 26.575 29.4478 22.4899C28.4106 18.823 26.6047 15.3223 24.03 12.0839C21.5686 14.2486 18.9443 17.0415 16.6484 20.5379Z" fill="#B20E10"/>
</g>
<mask id="mask38_1_2173" style="mask-type:luminance" maskUnits="userSpaceOnUse" x="0" y="0" width="84" height="41">
<path d="M83.6943 40.3058H0.666992V0.727051H83.6943" fill="white"/>
</mask>
<g mask="url(#mask38_1_2173)">
<path d="M17.9923 6.22788C18.0264 6.20579 18.0588 6.1851 18.0929 6.16512C17.8595 5.97775 17.6232 5.79156 17.3837 5.60702C14.643 3.49498 11.8915 1.90038 9.51715 0.727051H0.66748V10.1327C2.46967 10.8194 5.60669 12.1653 8.98749 14.2907C11.5309 11.208 14.5492 8.49696 17.9923 6.22788Z" fill="#E42313"/>
</g>
</svg>
