<svg width="104" height="24" viewBox="0 0 104 24" fill="none" xmlns="http://www.w3.org/2000/svg">
<path d="M25.4645 10.1959L13.2692 5.81363L9.47711 10.3251C8.72828 11.2288 8.70246 12.2322 9.47711 12.4904L13.2397 13.8553L25.9514 11.4575C26.1358 10.8931 25.9551 10.3767 25.4645 10.1959Z" fill="#5BA646"/>
<path d="M15.8737 3.93219C15.2023 4.0613 14.5088 4.47444 13.9666 5.06834L23.3768 8.34402L24.3322 8.16326C25.6712 7.90505 27.0914 7.05293 28.0726 5.89464L32.7132 0.350342L15.8737 3.93219ZM9.29653 15.5593C7.95749 15.8176 6.53729 16.6697 5.55606 17.828L0.915527 23.3723L18.371 20.0966C19.0682 19.9675 19.8392 19.5027 20.3556 18.8572L25.5126 12.4902V12.4644L14.1695 14.6039L9.29653 15.5593Z" fill="#18355F"/>
<path d="M40.0325 4.3674L29.1763 21.0999H34.23L36.8859 16.7692H43.3045L43.7692 21.0999H48.7713L46.167 4.3674C46.1707 4.3674 40.0325 4.3674 40.0325 4.3674ZM38.2803 14.0395L40.4973 10.4281C41.0912 9.44691 41.7109 8.15951 42.2753 7.15246H42.3527C42.456 8.15951 42.5851 9.49855 42.6884 10.4281L43.1274 14.0395H38.2803ZM93.561 8.46937C94.9258 7.61725 96.7333 7.18197 98.6663 7.18197C100.599 7.18197 102.045 7.49183 102.713 7.72423L104 4.81006C103.381 4.5002 101.551 4.08705 99.1274 4.08705C95.9808 4.08705 93.2474 4.65513 90.9271 5.86506C87.5482 7.53979 85.3054 10.4798 85.3054 14.2202C85.3054 18.6284 89.2745 21.3102 95.1545 21.3102C97.8363 21.3102 99.8467 20.9745 101.035 20.5872L100.647 17.6988C99.511 18.0345 97.9654 18.2411 96.4198 18.2411C92.4764 18.2411 90.4882 16.463 90.4882 13.8071C90.4919 11.5385 91.676 9.60184 93.561 8.46937ZM75.8989 14.4231H79.3295L78.4257 17.957C77.8835 18.1378 77.1125 18.2669 76.0022 18.2669C72.4941 18.2669 70.2771 16.8504 70.2771 14.0395C70.2771 11.745 71.5645 9.76046 73.4753 8.6243C74.9693 7.74636 76.9576 7.28526 79.1746 7.28526C81.1591 7.28526 82.8892 7.62094 83.8926 7.98245L85.3091 4.96499C84.4569 4.62931 82.2916 4.21616 79.3774 4.21616C75.5116 4.21616 72.0551 5.0941 69.5541 6.63972C66.7174 8.44355 64.991 11.1511 64.991 14.2977C64.991 16.4372 66.0239 18.2669 67.8019 19.4547C69.6574 20.6941 72.1584 21.2843 75.2533 21.2843C78.0642 21.2843 80.746 20.7679 82.4724 20.3289L84.6893 11.5606H76.5924L75.8989 14.4231ZM59.7824 11.3061C57.9011 10.5056 56.5326 9.91539 56.5326 8.95998C56.5326 8.0304 57.6945 7.20779 59.9115 7.20779C61.767 7.18197 63.3421 7.64676 64.0873 7.95662L65.5812 4.96499C64.6258 4.57766 63.0286 4.11287 60.321 4.11287C55.4481 4.11287 51.5305 6.17492 51.5305 9.55388C51.5305 11.745 53.7733 13.0361 56.1711 13.9878C58.2331 14.7883 59.1885 15.4044 59.1885 16.3339C59.1885 17.6472 57.5138 18.2927 55.6546 18.2927C53.5926 18.2927 51.7113 17.8279 50.3944 17.234L48.7971 20.174C49.8558 20.7679 52.0728 21.3618 55.1898 21.3618C60.1402 21.3618 64.2643 19.4547 64.2643 15.7142C64.2164 13.7296 62.49 12.3611 59.7824 11.3061Z" fill="#18355F"/>
</svg>
