<?xml version="1.0" encoding="UTF-8"?>
<svg xmlns="http://www.w3.org/2000/svg" version="1.1" viewBox="0 0 100 23.4">
  <defs>
    <style>
      .cls-1 {
        fill: #5ba646;
      }

      .cls-2 {
        fill: #18355f;
      }
    </style>
  </defs>
  <!-- Generator: Adobe Illustrator 28.6.0, SVG Export Plug-In . SVG Version: 1.2.0 Build 709)  -->
  <g>
    <g id="Layer_1">
      <g>
        <path class="cls-1" d="M27.7,19.4c0,.1,0,.3,0,.5,0,.3,0,.5-.2.7-.1.2-.3.4-.4.5-.2.1-.4.3-.6.3-.2,0-.5.1-.8.1-1,0-1.7-.3-2.2-.9h0s.9-.8.9-.8h0c.2.2.4.4.6.5.2.1.5.2.7.2s.4,0,.5-.1c.1,0,.2-.2.2-.3s0,0,0-.1c0,0,0,0-.1-.1,0,0-.1,0-.2-.1-.1,0-.2-.1-.4-.2-.2,0-.3-.1-.5-.2-.1,0-.3-.2-.4-.3-.1-.1-.2-.2-.3-.4,0-.1-.1-.3-.1-.5s0-.5.2-.7c.1-.2.3-.4.4-.5.2-.1.4-.3.6-.3.2,0,.5-.1.8-.1.4,0,.8,0,1.1.2.3.1.6.3.8.6h0s-.8.9-.8.9h0c-.2-.2-.4-.3-.5-.4-.2,0-.4-.1-.6-.1s-.4,0-.5.1c-.1,0-.2.2-.2.3s0,.1,0,.1c0,0,0,0,.1.1,0,0,.1,0,.3.1.1,0,.2.1.4.2.2,0,.3.1.5.2.1,0,.3.2.4.3.1.1.2.2.3.4"/>
        <polygon class="cls-1" points="33.3 16.5 33 17.6 31.5 17.6 30.4 21.6 29.2 21.6 30.3 17.6 28.8 17.6 29.1 16.5 33.3 16.5"/>
        <polygon class="cls-1" points="34.8 17.6 34.6 18.5 36.9 18.5 36.6 19.5 34.3 19.5 34.1 20.5 36.7 20.5 36.4 21.6 32.6 21.6 32.6 21.5 33.9 16.5 37.8 16.5 37.5 17.6 34.8 17.6"/>
        <polygon class="cls-1" points="39.6 17.6 39.3 18.5 41.6 18.5 41.3 19.5 39 19.5 38.8 20.5 41.4 20.5 41.1 21.6 37.3 21.6 37.3 21.5 38.7 16.5 42.5 16.5 42.2 17.6 39.6 17.6"/>
        <polygon class="cls-1" points="46 20.5 45.7 21.6 42 21.6 42 21.5 43.4 16.5 44.6 16.5 43.5 20.5 46 20.5"/>
        <polygon class="cls-1" points="51.2 16.5 51.2 16.6 49.8 21.6 48.6 21.6 48.6 21.5 50 16.5 51.2 16.5"/>
        <polygon class="cls-1" points="56.8 16.5 56.8 16.6 55.4 21.6 54.4 21.6 54.4 21.5 53 18.4 52.1 21.6 50.9 21.6 51 21.5 52.3 16.5 53.4 16.5 53.4 16.5 54.8 19.5 55.6 16.5 56.8 16.5"/>
        <path class="cls-1" d="M61.3,17.2c-.2-.2-.5-.4-.8-.5-.3-.1-.7-.2-1.2-.2h-1.5l-1.3,5h0c0,0,1.9,0,1.9,0,.6,0,1.1,0,1.5-.2.4-.2.8-.4,1.1-.7.3-.3.5-.6.6-.9.1-.3.2-.7.2-1.1,0-.6-.2-1.1-.6-1.5M58.6,20.5h-.5l.8-2.9h.5c.3,0,.5,0,.7,0,.2,0,.3.1.4.2.2.2.3.4.3.7s0,.5-.1.7c0,.2-.2.4-.4.5-.2.2-.4.3-.7.4-.3,0-.6.1-.9.1"/>
        <path class="cls-1" d="M67.7,16.5l-.8,3c-.2.6-.4,1.2-.8,1.5-.2.2-.5.4-.7.5-.3.1-.6.2-1,.2s-.6,0-.8-.1c-.2,0-.4-.2-.6-.3-.2-.1-.3-.3-.4-.5,0-.2-.1-.5-.1-.7s0-.3,0-.4c0-.1,0-.3,0-.4l.7-2.6h1.2l-.7,2.7c0,0,0,.2,0,.2,0,0,0,.2,0,.3,0,.2,0,.4.2.6.1.1.3.2.6.2s.6,0,.8-.3c.2-.2.4-.5.5-.9l.8-2.8h1.2Z"/>
        <path class="cls-1" d="M71.4,19.4c0,.1,0,.3,0,.5,0,.3,0,.5-.2.7-.1.2-.3.4-.4.5-.2.1-.4.3-.6.3-.2,0-.5.1-.8.1-1,0-1.7-.3-2.2-.9h0s.9-.8.9-.8h0c.2.2.4.4.6.5.2.1.5.2.7.2s.4,0,.5-.1c.1,0,.2-.2.2-.3s0,0,0-.1c0,0,0,0-.1-.1,0,0-.1,0-.2-.1-.1,0-.2-.1-.4-.2-.2,0-.3-.1-.5-.2-.1,0-.3-.2-.4-.3-.1-.1-.2-.2-.3-.4,0-.1-.1-.3-.1-.5s0-.5.2-.7c.1-.2.3-.4.4-.5.2-.1.4-.3.6-.3.2,0,.5-.1.8-.1.4,0,.8,0,1.1.2.3.1.6.3.8.6h0s-.8.9-.8.9h0c-.2-.2-.4-.3-.5-.4-.2,0-.4-.1-.6-.1s-.4,0-.5.1c-.1,0-.2.2-.2.3s0,.1,0,.1c0,0,0,0,.1.1,0,0,.1,0,.3.1.1,0,.2.1.4.2.2,0,.3.1.5.2.1,0,.3.2.4.3.1.1.2.2.3.4"/>
        <polygon class="cls-1" points="77.1 16.5 76.8 17.6 75.2 17.6 74.2 21.6 73 21.6 74 17.6 72.5 17.6 72.8 16.5 77.1 16.5"/>
        <path class="cls-1" d="M81.1,17c-.2-.2-.4-.3-.7-.4-.3,0-.6-.1-1-.1h-1.8l-1.3,5h0c0,0,1.2,0,1.2,0l.4-1.6h.7l.8,1.6h1.4l-.9-1.7c.5-.1.9-.3,1.2-.6.3-.3.4-.7.4-1.2s-.1-.8-.4-1M79.1,18.9h-.9l.4-1.3h.9c.3,0,.6,0,.7.2,0,0,.1.2.1.4s0,.2,0,.3c0,0-.1.2-.2.2-.1,0-.2.1-.4.1-.1,0-.3,0-.5,0"/>
        <polygon class="cls-1" points="84.1 16.5 84.1 16.6 82.7 21.6 81.5 21.6 81.5 21.5 82.9 16.5 84.1 16.5"/>
        <polygon class="cls-1" points="86.1 17.6 85.9 18.5 88.2 18.5 87.9 19.5 85.6 19.5 85.3 20.5 88 20.5 87.7 21.6 83.9 21.6 83.9 21.5 85.2 16.5 89 16.5 88.7 17.6 86.1 17.6"/>
        <path class="cls-1" d="M92.6,19.4c0,.1,0,.3,0,.5,0,.3,0,.5-.2.7-.1.2-.3.4-.4.5-.2.1-.4.3-.6.3-.2,0-.5.1-.8.1-1,0-1.7-.3-2.2-.9h0s.9-.8.9-.8h0c.2.2.4.4.6.5.2.1.5.2.7.2s.4,0,.5-.1c.1,0,.2-.2.2-.3s0,0,0-.1c0,0,0,0-.1-.1,0,0-.1,0-.2-.1-.1,0-.2-.1-.4-.2-.2,0-.3-.1-.5-.2-.1,0-.3-.2-.4-.3-.1-.1-.2-.2-.3-.4,0-.1-.1-.3-.1-.5s0-.5.2-.7c.1-.2.3-.4.4-.5.2-.1.4-.3.6-.3.2,0,.5-.1.8-.1.4,0,.8,0,1.1.2.3.1.6.3.8.6h0s-.8.9-.8.9h0c-.2-.2-.4-.3-.5-.4-.2,0-.4-.1-.6-.1s-.4,0-.5.1c-.1,0-.2.2-.2.3s0,.1,0,.1c0,0,0,0,.1.1,0,0,.1,0,.3.1.1,0,.2.1.4.2.2,0,.3.1.5.2.1,0,.3.2.4.3.1.1.2.2.3.4"/>
        <path class="cls-1" d="M22.5,10.3l-10.7-3.8-3.3,3.9c-.7.8-.7,1.7,0,1.9l3.3,1.2,11.1-2.1c.2-.5,0-1-.4-1.1"/>
        <path class="cls-2" d="M14.1,4.7c-.6,0-1.2.5-1.7,1l8.3,2.9.8-.2c1.2-.2,2.4-1,3.3-2l4.1-4.9-14.8,3.2ZM8.3,14.9c-1.2.2-2.4,1-3.3,2l-4.1,4.9,15.3-2.9c.6-.1,1.3-.5,1.7-1.1l4.5-5.6s0,0,0,0l-10,1.9-4.3.8Z"/>
        <path class="cls-2" d="M34,2.3l-7.5,11.6h3.5l1.8-3h4.4l.3,3h3.4l-1.8-11.6h-4.2ZM32.8,8.9l1.5-2.5c.4-.7.8-1.6,1.2-2.3h0c0,.7.2,1.6.2,2.3l.3,2.5h-3.3ZM47.6,7c-1.3-.5-2.2-1-2.2-1.6s.8-1.2,2.3-1.2c1.3,0,2.4.3,2.9.5l1-2.1c-.7-.3-1.8-.6-3.6-.6-3.4,0-6.1,1.4-6.1,3.8s1.6,2.4,3.2,3.1c1.4.6,2.1,1,2.1,1.6s-1.2,1.3-2.4,1.3-2.7-.3-3.6-.7l-1.1,2c.7.4,2.3.8,4.4.8,3.4,0,6.3-1.3,6.3-3.9s-1.2-2.3-3.1-3M82.7,6.4c-.4,1.7-.6,3-.7,4.2h0c-.4-1.3-.8-2.5-1.4-3.9l-2-4.4h-3.9l-2.9,11.6h3.1l1-4c.5-1.8.8-3.5,1-4.6h0c.4,1.4.8,2.4,1.5,4l2.1,4.6h3.4l2.9-11.6h-3.1l-1.1,4.2ZM87.6,2.3l-.6,2.2h4.1l-2.4,9.4h3.3l2.4-9.4h4.1l.5-2.2h-11.4ZM57.9,7c-1.3-.5-2.2-1-2.2-1.6s.8-1.2,2.3-1.2c1.3,0,2.4.3,2.9.5l1-2.1c-.7-.3-1.8-.6-3.6-.6-3.4,0-6.1,1.4-6.1,3.8s1.6,2.4,3.2,3.1c1.4.6,2.1,1,2.1,1.6s-1.2,1.3-2.4,1.3-2.7-.3-3.6-.7l-1.1,2c.7.4,2.3.8,4.4.8,3.4,0,6.3-1.3,6.3-3.9s-1.2-2.3-3.1-3M66.7,4.4h5.8l.5-2.1h-9.1l-2.9,11.6h9.4l.5-2.1h-6.1l.7-2.8h5.5l.5-2.1h-5.5l.6-2.5Z"/>
      </g>
    </g>
  </g>
</svg>