<?xml version="1.0" encoding="UTF-8"?>
<svg xmlns="http://www.w3.org/2000/svg" version="1.1" viewBox="0 0 100 29.7">
  <defs>
    <style>
      .cls-1 {
        fill: #ee3124;
      }
    </style>
  </defs>
  <!-- Generator: Adobe Illustrator 28.6.0, SVG Export Plug-In . SVG Version: 1.2.0 Build 709)  -->
  <g>
    <g id="Layer_1">
      <g>
        <path d="M34.2,20.6l1.5-3.8h3.1c1.3-.1,3.2.4,2.7,1.8-.6,1.6-4.1,2-5.5,2h-1.8ZM30.2,25.5c-.3.9-.8,2.3-1.9,2.7h0c0,0,3.4,0,3.4,0,1.6,0,5.6,0,7.3-.6,1.6-.6,3.2-1.9,3.8-3.4.7-1.9-.3-3.1-2-3.4,1.4-.5,2.5-1.2,3-2.5.7-1.7-.5-2.8-3.2-2.8h-7.3c.9.4.2,1.8-.1,2.7l-2.8,7.3ZM31.8,26.7l1.8-4.8h2.8c1.9,0,4.7.6,4,2.5-.7,1.8-3.9,2.5-5.6,2.4h-3Z"/>
        <path d="M52.5,23.4v2.7c.1,1.3.2,1.6-1,2h0c0,0,4.3,0,4.3,0h0c-1-.6-.9-1.7-1-2.8l-.5-9.9h-3.3c.9.4.2,1.2-.4,1.9l-6.6,8.1c-.9,1.1-1.6,2.2-3.1,2.7h0c0,0,3.8,0,3.8,0h0c-.9-.4-.5-1,.4-2l2.1-2.7h5.2ZM52.5,22h-4.1l3.9-4.9v4.9Z"/>
        <path d="M60.3,25.5c-.3.9-1.1,2.3-.2,2.6h0c0,0-3.9,0-3.9,0h0c1.2-.4,1.6-1.8,2-2.7l2.8-7.3c.3-.9,1-2.3,0-2.7h0c0,0,7.3,0,7.3,0,.4,0,.7,0,1,0h0l-.9,2.2h0c-.4-.7-1.2-.8-2.2-.8s-2.2,0-2.9.1l-1.4,3.6h3.2c.3,0,.6,0,.9-.1h0l-.8,2h0c-.1-.6-1-.5-1.6-.5h-2.2l-1.4,3.5Z"/>
        <path d="M80.1,17.9c-.9-.7-2-1.1-3.4-1.1-2.9,0-5.6,1.9-6.7,4.7-1.1,2.8,0,5.4,3.2,5.4s3.3-.5,4.9-1.2h0l-1.9,2.2c-1.1.4-2.3.6-3.4.6-4.9,0-6.9-2.5-5.3-6.7,1.5-4,5.6-6.6,9.8-6.6s2.5.2,3.6.5l-.9,2.2Z"/>
        <path d="M89.8,15.1c-4.3,0-8.6,3-10,6.6-1.5,4,.5,6.7,4.6,6.7s8.7-2.9,10.3-6.8c1.3-3.5-.5-6.6-4.9-6.5M89,16.5c3.3,0,4.2,2.7,3.1,5.5-1.1,2.9-4,5-7.1,5s-3.8-2.8-2.8-5.5c1.1-2.9,3.6-5.1,6.8-5.1"/>
        <path class="cls-1" d="M32.5,10.1l2.7-7.5h-4.5c0,0-2.1,1.2-5.2,3.2,2.5.8,5.5,2.2,7,4.3"/>
        <path class="cls-1" d="M24.7,19.7c-1.8-1.4-10-4.6-10-4.6,12.5-3.3,14.4-4.4,14.4-4.4-1.1-1.3-3-2.5-5.9-3.4C15.7,12.3,4.7,20.6,1,28.2c.2-.2,4.2-4.3,23.7-8.4"/>
        <path class="cls-1" d="M20.7,6.7c-3-.6-6.9-1-11.8-1,0,0,6.9-1.6,14.6-.4,0,0,0,0,.1,0,2.6-1.2,4.6-2.1,6.7-2.7H7.8L1,21.4c5.7-6.4,13-11.3,19.7-14.7"/>
        <path class="cls-1" d="M25.9,28.2l2.3-6.4c-2.9,1.4-13.3,1.8-26.6,6.4h24.2Z"/>
        <path class="cls-1" d="M29.1,19.4l2.4-6.6c-2.4,1.1-7.3,1.8-11.1,2.3,4.3,1.3,6.9,2.7,8.7,4.3"/>
        <path d="M97.5,7c.3-.8.6-1.6,1.5-1.8h0s-3.7,0-3.7,0h0c.9.4.3,1.5,0,2.3l-.8,2h-8.5l1.6-4.6c.3-.7.6-1.9,1.7-2.2h0s-3.7,0-3.7,0h0c.9.4.3,1.5,0,2.3l-1.3,3.5c-.3.7-.6,1.9-1.6,2.2h0s14.2,0,14.2,0h0c-.7-.3-.5-1.1-.3-1.8l.7-1.9Z"/>
        <path d="M79.9,7.2h-1.8c-.9,0-1.8-.1-2.4-.4-.8-.4-.7-1.1,0-1.6.8-.7,2.4-.9,3.8-.9h1.4s-1.1,2.8-1.1,2.8ZM84.1,3.6h-3.5c-5.2,0-7,.9-7.6,2.2-.4.9.5,1.7,1.7,2,1.3.4,2.9.4,4.5.4h.4l-.5,1.3h-10.2l.3-1.2c.4-1.9-1.3-3.4-4.8-3.4h-7.8l3.4-2.2h-3.1l-5.1,3.3h12.1c2.3,0,3.4.7,3.1,2.2l-.5,1.4h-18c.2-.3.4-.6.6-.9.4-.7.5-1.4.3-2-.3-1.2-2-2.1-4.6-2.2-3.4-.2-6.6,1-7.5,2.5-1,1.8.9,3.4,4.2,3.5.5,0,.9,0,1.4,0,1-.3,1.9-.7,2.5-1.3-.9.3-2.3.5-3.4.4-2.3-.1-3.2-1.2-2.5-2.4.7-1.1,2.7-2,5.1-1.8,1.9,0,2.7.7,2.9,1.6,0,1.3-.8,2.3-2.2,3.1,0,0,0,0,0,0-1.4.9-3.3,1.5-5.2,1.5s-3-.1-3.9-1.1l-.8,1.4c1.3.7,2.8.7,3.8.7,3.3,0,6.1-.7,8-2h33.7l1.7-4.8c.3-.7.6-2,1.7-2.3"/>
        <path d="M80.4,2.6c.7,0,1.5-.3,1.7-.7.2-.4-.2-.7-1-.7s-1.5.3-1.7.7c-.2.4.2.7,1,.7"/>
        <path d="M90.8,11.6c-.7,0-1.5.3-1.7.7-.2.4.2.7,1,.7s1.5-.3,1.7-.7c.2-.4-.2-.7-1-.7"/>
      </g>
    </g>
  </g>
</svg>