<svg width="98" height="50" viewBox="0 0 98 50" fill="none" xmlns="http://www.w3.org/2000/svg">
<path d="M45.7566 6.9765H47.2044C47.9282 6.9765 48.5164 7.51941 48.5164 8.24329C48.5164 8.69571 48.2449 9.01241 47.883 9.23862C48.3807 9.37435 48.6521 9.91726 48.6521 10.4149C48.6521 11.365 47.9735 11.727 47.1591 11.727H45.7566V6.9765ZM46.4352 9.01241H47.0686C47.4758 9.01241 47.8377 8.69571 47.8377 8.24329C47.8377 7.83611 47.5663 7.56465 47.0686 7.56465H46.4352V9.01241ZM46.4352 11.0936H47.0686C47.6115 11.0936 47.9735 10.9126 47.9735 10.3697C47.9735 9.78153 47.6115 9.55532 47.0686 9.55532H46.4352V11.0936Z" fill="black"/>
<path d="M52.3159 8.10741V11.7268L51.6825 11.8173V11.3196C51.4563 11.6816 51.0491 11.8173 50.6419 11.8173C49.9181 11.8173 49.2847 11.5006 49.2847 10.641V8.19789L49.9633 8.10741V10.5505C49.9633 11.0482 50.3252 11.2291 50.7324 11.2291C51.2753 11.2291 51.7278 10.9124 51.7278 10.1433V8.19789L52.3159 8.10741Z" fill="black"/>
<path d="M53.1309 11.8173V6.93112L53.8095 6.84064V9.82664L55.4382 8.06218L56.0264 8.37888L54.6239 9.82664L56.2073 11.4554L55.6192 11.8173L53.8095 9.91712V11.6816L53.1309 11.8173Z" fill="black"/>
<path d="M56.5244 11.8173V6.93111L57.2031 6.84062V8.55983H57.2483C57.4293 8.28838 57.8364 8.10741 58.2436 8.10741C58.9675 8.10741 59.6009 8.42411 59.6009 9.28371V11.7268L58.9223 11.8173V9.3742C58.9223 8.87653 58.5603 8.69556 58.1531 8.69556C57.6102 8.69556 57.1578 9.01226 57.1578 9.78138V11.7268L56.5244 11.8173Z" fill="black"/>
<path d="M62.5408 11.8172V11.3195C62.3599 11.7267 61.9074 11.8172 61.5003 11.8172C60.7311 11.8172 60.1882 11.229 60.1882 10.4599C60.1882 9.69077 60.8669 9.23834 61.5907 9.23834C61.9074 9.23834 62.2694 9.32883 62.4956 9.55504V9.28359C62.4956 8.78592 62.1789 8.69544 61.6812 8.69544C61.4098 8.69544 61.0026 8.69544 60.6407 8.87641L60.8216 8.19777C61.0478 8.15253 61.455 8.06204 61.7717 8.06204C62.7218 8.06204 63.1742 8.42398 63.1742 9.37407V11.6814L62.5408 11.8172ZM60.8216 10.4599C60.8216 10.9576 61.0931 11.1838 61.5907 11.1838C62.0432 11.1838 62.4504 11.0028 62.4504 10.4599C62.4504 10.0075 62.0432 9.8265 61.636 9.8265C61.2288 9.78125 60.8216 10.0075 60.8216 10.4599Z" fill="black"/>
<path d="M65.6628 8.78601H64.7128V10.641C64.7128 11.0934 64.8485 11.2291 65.3462 11.2291C65.4819 11.2291 65.6628 11.1839 65.7986 11.1839L65.6628 11.772C65.5271 11.772 65.3914 11.8173 65.1199 11.8173C64.4865 11.8173 64.0341 11.3648 64.0341 10.7314V8.78601H63.4912L63.7174 8.19786H64.0341V7.33826L64.7128 7.15729V8.15262H65.6628V8.78601Z" fill="black"/>
<path d="M66.5222 6.75027L66.9746 7.29318L66.5674 7.79085L66.115 7.29318L66.5222 6.75027ZM66.2055 11.8174V8.19803L66.8841 8.10755V11.7269L66.2055 11.8174Z" fill="black"/>
<path d="M67.6982 11.8173V8.19789L68.3316 8.10741V8.87653C68.5126 8.4241 68.8745 8.10741 69.4175 8.10741H69.7342L69.4627 8.78604C68.8745 8.7408 68.3769 9.19322 68.3769 10.0981V11.772L67.6982 11.8173Z" fill="black"/>
<path d="M45.8479 20.0058V15.2553H48.3815L48.5172 15.8887H46.5265V17.246H48.11V17.8794H46.5265V19.4176H48.6982L48.5172 20.051H45.8479V20.0058Z" fill="black"/>
<path d="M52.1358 19.5081C51.8191 19.87 51.3667 20.0962 50.869 20.0962C49.8737 20.0962 49.1046 19.1914 49.0593 18.2413C49.0593 17.1555 49.8737 16.3864 50.869 16.3864C51.3667 16.3864 51.7739 16.6126 52.0906 16.884V15.2101L52.7692 15.1196V20.0058L52.1358 20.0962V19.5081ZM50.869 17.0198C50.1904 17.0198 49.6927 17.6079 49.6927 18.2866C49.6927 18.9199 50.2356 19.5081 50.869 19.5081C51.5929 19.5081 52.1358 19.0104 52.1358 18.2866C52.1811 17.5174 51.5929 17.0198 50.869 17.0198Z" fill="black"/>
<path d="M56.5691 16.3864V20.0057L55.9357 20.0962V19.5986C55.7095 19.9605 55.3023 20.0962 54.8951 20.0962C54.1712 20.0962 53.5378 19.7795 53.5378 18.9199V16.4768L54.2165 16.3864V18.8294C54.2165 19.3271 54.5784 19.5081 54.9856 19.5081C55.5285 19.5081 55.9809 19.1914 55.9809 18.4223V16.4768L56.5691 16.3864Z" fill="black"/>
<path d="M59.8271 17.3364C59.5104 17.1102 59.3294 17.0197 58.9222 17.0197C58.2436 17.0197 57.7912 17.6079 57.7912 18.2865C57.7912 18.9199 58.3341 19.508 58.9222 19.508C59.2842 19.508 59.5556 19.3271 59.7818 19.1009L60.189 19.5533C59.8271 19.9152 59.3747 20.1414 58.877 20.1414C57.9722 20.1414 57.1125 19.3271 57.1125 18.2865C57.1125 17.2459 57.8364 16.3863 58.877 16.3863C59.3747 16.3863 59.7819 16.5673 60.189 16.884L59.8271 17.3364Z" fill="black"/>
<path d="M62.9039 20.0962V19.5985C62.7229 20.0057 62.2705 20.0962 61.8633 20.0962C61.0942 20.0962 60.5513 19.5081 60.5513 18.7389C60.5513 17.9698 61.2299 17.5174 61.9538 17.5174C62.2705 17.5174 62.6324 17.6079 62.8586 17.8341V17.5626C62.8586 17.065 62.5419 16.9745 62.0443 16.9745C61.7728 16.9745 61.3656 16.9745 61.0037 17.1555L61.1847 16.4768C61.4109 16.4316 61.8181 16.3411 62.1348 16.3411C63.0848 16.3411 63.5373 16.703 63.5373 17.6531V20.0057L62.9039 20.0962ZM61.2299 18.7389C61.2299 19.2366 61.5014 19.4628 61.999 19.4628C62.4515 19.4628 62.8586 19.2819 62.8586 18.7389C62.8586 18.2865 62.4515 18.1055 62.0443 18.1055C61.6371 18.1055 61.2299 18.2865 61.2299 18.7389Z" fill="black"/>
<path d="M66.0261 17.1104H65.076V18.9654C65.076 19.4178 65.2118 19.5535 65.7094 19.5535C65.8452 19.5535 66.0261 19.5083 66.1619 19.5083L66.0261 20.0964C65.8904 20.0964 65.7547 20.1417 65.4832 20.1417C64.8498 20.1417 64.3974 19.6892 64.3974 19.0559V17.1104H63.8545L64.0807 16.5223H64.3974V15.6627L65.076 15.4817V16.477H66.0261V17.1104Z" fill="black"/>
<path d="M66.9309 15.0743L67.3833 15.6172L66.9761 16.1149L66.5237 15.6172L66.9309 15.0743ZM66.5689 20.0962V16.4768L67.2476 16.3863V20.0057L66.5689 20.0962Z" fill="black"/>
<path d="M71.7252 18.2412C71.7252 19.2818 70.8656 20.0962 69.825 20.0962C68.7844 20.0962 67.9248 19.2818 67.9248 18.2412C67.9248 17.2007 68.7844 16.3863 69.825 16.3863C70.8656 16.3863 71.7252 17.2007 71.7252 18.2412ZM69.7797 17.0197C69.1011 17.0197 68.5582 17.5626 68.5582 18.2412C68.5582 18.9199 69.1011 19.4628 69.7797 19.4628C70.4584 19.4628 71.0465 18.9199 71.0465 18.2412C71.0465 17.5626 70.5036 17.0197 69.7797 17.0197Z" fill="black"/>
<path d="M72.2673 20.0962V16.4768L72.946 16.3864V16.884C73.1269 16.5221 73.5794 16.3864 73.9865 16.3864C74.7104 16.3864 75.3438 16.703 75.3438 17.6079V20.0057L74.6652 20.0962V17.6531C74.6652 17.1555 74.3032 16.9745 73.8961 16.9745C73.3531 16.9745 72.9007 17.2912 72.9007 18.0603V20.0057L72.2673 20.0962Z" fill="black"/>
<path d="M45.304 28.2848L47.7018 23.4438L50.0997 28.2848L49.421 28.4205L48.6067 26.7918H46.7065L45.8921 28.4205L45.304 28.2848ZM48.3804 26.1584L47.7018 24.8011L47.0232 26.1584H48.3804Z" fill="black"/>
<path d="M53.2664 27.8322C52.9497 28.1942 52.4973 28.4204 51.9996 28.4204C51.0043 28.4204 50.2352 27.5155 50.1899 26.5655C50.1899 25.4796 51.0043 24.7105 51.9996 24.7105C52.4973 24.7105 52.9045 24.9367 53.2212 25.2082V23.5342L53.8998 23.4437V28.3299L53.2664 28.4204V27.8322ZM52.0449 25.2987C51.3662 25.2987 50.8686 25.8868 50.8686 26.5655C50.8686 27.1988 51.4115 27.787 52.0449 27.787C52.7688 27.787 53.3117 27.2893 53.3117 26.5655C53.3117 25.7963 52.7688 25.2987 52.0449 25.2987Z" fill="black"/>
<path d="M54.7591 24.7104L55.7545 27.1083L56.7498 24.7104L57.3832 24.8009L55.7545 28.4203L54.1257 24.8009L54.7591 24.7104Z" fill="black"/>
<path d="M59.8262 28.4204V27.9227C59.6453 28.3299 59.1928 28.4204 58.7857 28.4204C58.0165 28.4204 57.4736 27.8322 57.4736 27.0631C57.4736 26.294 58.1523 25.8415 58.8761 25.8415C59.1928 25.8415 59.5548 25.932 59.781 26.1582V25.8868C59.781 25.3891 59.4643 25.2986 58.9666 25.2986C58.6952 25.2986 58.288 25.2986 57.9261 25.4796L58.107 24.801C58.3332 24.7557 58.7404 24.6652 59.0571 24.6652C60.0072 24.6652 60.4596 25.0272 60.4596 25.9773V28.2846L59.8262 28.4204ZM58.1523 27.0631C58.1523 27.5608 58.4237 27.787 58.9214 27.787C59.3738 27.787 59.781 27.606 59.781 27.0631C59.781 26.6107 59.3738 26.4297 58.9666 26.4297C58.5594 26.3844 58.1523 26.6107 58.1523 27.0631Z" fill="black"/>
<path d="M61.1375 28.4204V24.801L61.8161 24.7105V25.2082C61.9971 24.8462 62.4495 24.7105 62.8567 24.7105C63.5805 24.7105 64.2139 25.0272 64.2139 25.932V28.3299L63.5353 28.4204V25.9773C63.5353 25.4796 63.1734 25.2986 62.7662 25.2986C62.2233 25.2986 61.7708 25.6153 61.7708 26.3845V28.3299L61.1375 28.4204Z" fill="black"/>
<path d="M67.5173 25.6606C67.2006 25.4344 67.0196 25.3439 66.6124 25.3439C65.9338 25.3439 65.4814 25.932 65.4814 26.6107C65.4814 27.2441 66.0243 27.8322 66.6124 27.8322C66.9744 27.8322 67.2458 27.6513 67.472 27.425L67.8792 27.8775C67.5173 28.2394 67.0649 28.4656 66.5672 28.4656C65.6623 28.4656 64.8027 27.6513 64.8027 26.6107C64.8027 25.5701 65.5266 24.7105 66.5672 24.7105C67.0649 24.7105 67.472 24.8915 67.8792 25.2082L67.5173 25.6606Z" fill="black"/>
<path d="M69.1465 27.2438C69.3727 27.6057 69.6894 27.8319 70.0966 27.8319C70.5942 27.8319 71.0466 27.5152 71.4086 27.2438L71.5443 27.9224C71.0919 28.2391 70.6847 28.4653 70.1418 28.4653C69.0107 28.4653 68.2869 27.6057 68.2869 26.5199C68.2869 25.5698 69.1012 24.7554 70.0513 24.7554C70.8204 24.7554 71.2276 25.0721 71.6348 25.7055L69.1465 27.2438ZM70.73 25.5246C70.5942 25.3436 70.368 25.2983 70.1418 25.2983C69.3727 25.2983 68.9203 25.8865 69.0107 26.6104L70.73 25.5246Z" fill="black"/>
<path d="M72.2676 28.4204V24.801L72.901 24.7105V25.2082C73.0367 24.9367 73.3534 24.7105 73.8058 24.7105C74.213 24.7105 74.5297 24.801 74.7107 25.2082C74.8464 24.9367 75.2536 24.7105 75.7512 24.7105C76.3846 24.7105 76.9275 25.0272 76.9275 25.7963V28.2846L76.2489 28.3751V25.8868C76.2489 25.4796 76.0679 25.2534 75.6608 25.2534C75.3441 25.2534 74.8916 25.4344 74.8916 25.9773V28.2846L74.213 28.3751V25.8868C74.213 25.4796 74.032 25.2534 73.6248 25.2534C73.3082 25.2534 72.8557 25.4344 72.8557 25.9773V28.2846L72.2676 28.4204Z" fill="black"/>
<path d="M78.374 27.2438C78.6002 27.6057 78.9169 27.8319 79.3241 27.8319C79.8218 27.8319 80.2742 27.5152 80.6361 27.2438L80.7719 27.9224C80.3194 28.2391 79.9123 28.4653 79.3693 28.4653C78.2383 28.4653 77.5144 27.6057 77.5144 26.5199C77.5144 25.5698 78.3288 24.7554 79.2789 24.7554C80.048 24.7554 80.4552 25.0721 80.8623 25.7055L78.374 27.2438ZM79.9575 25.5246C79.8218 25.3436 79.5956 25.2983 79.3693 25.2983C78.6002 25.2983 78.1478 25.8865 78.2383 26.6104L79.9575 25.5246Z" fill="black"/>
<path d="M81.5417 28.4204V24.801L82.2204 24.7105V25.2082C82.4014 24.8462 82.8538 24.7105 83.261 24.7105C83.9848 24.7105 84.6182 25.0272 84.6182 25.932V28.3299L83.9396 28.4204V25.9773C83.9396 25.4796 83.5777 25.2986 83.1705 25.2986C82.6276 25.2986 82.1751 25.6153 82.1751 26.3845V28.3299L81.5417 28.4204Z" fill="black"/>
<path d="M87.1961 25.3893H86.246V27.2442C86.246 27.6967 86.3817 27.8324 86.8794 27.8324C87.0151 27.8324 87.1961 27.7871 87.3318 27.7871L87.1961 28.3753C87.0603 28.3753 86.9246 28.4205 86.6531 28.4205C86.0197 28.4205 85.5673 27.9681 85.5673 27.3347V25.3893H85.0244L85.2506 24.8011H85.5673V23.9415L86.246 23.7606V24.7559H87.1961V25.3893Z" fill="black"/>
<path d="M47.9278 36.6993V36.2016C47.7468 36.6088 47.2944 36.6993 46.8872 36.6993C46.1181 36.6993 45.5752 36.1111 45.5752 35.342C45.5752 34.5729 46.2538 34.1205 46.9777 34.1205C47.2944 34.1205 47.6563 34.211 47.8826 34.4372V34.1657C47.8826 33.668 47.5659 33.5776 47.0682 33.5776C46.7967 33.5776 46.3896 33.5776 46.0276 33.7585L46.2086 33.0799C46.4348 33.0347 46.842 32.9442 47.1587 32.9442C48.1088 32.9442 48.5612 33.3061 48.5612 34.2562V36.5636L47.9278 36.6993ZM46.2086 35.342C46.2086 35.8397 46.48 36.0659 46.9777 36.0659C47.4301 36.0659 47.8373 35.8849 47.8373 35.342C47.8373 34.8896 47.4301 34.7086 47.023 34.7086C46.6158 34.7086 46.2086 34.8896 46.2086 35.342Z" fill="black"/>
<path d="M49.2402 36.6993V33.0799L49.9189 32.9895V33.4871C50.0998 33.1252 50.5523 32.9895 50.9594 32.9895C51.6833 32.9895 52.3167 33.3062 52.3167 34.211V36.6088L51.6381 36.6993V34.2562C51.6381 33.7586 51.2761 33.5776 50.869 33.5776C50.3261 33.5776 49.8736 33.8943 49.8736 34.6634V36.6088L49.2402 36.6993Z" fill="black"/>
<path d="M55.9805 36.1113C55.6638 36.4732 55.2114 36.6994 54.7137 36.6994C53.7184 36.6994 52.9493 35.7946 52.9041 34.8445C52.9041 33.7587 53.7184 32.9895 54.7137 32.9895C55.2114 32.9895 55.6186 33.2157 55.9353 33.4872V31.8132L56.6139 31.7227V36.6089L55.9805 36.6994V36.1113ZM54.7137 33.6229C54.0351 33.6229 53.5374 34.2111 53.5374 34.8445C53.5374 35.4779 54.0804 36.066 54.7137 36.066C55.4376 36.066 55.9805 35.5684 55.9805 34.8445C56.0258 34.1206 55.4376 33.6229 54.7137 33.6229Z" fill="black"/>
<path d="M58.9204 36.6091L59.9157 31.7682L61.5445 35.3876L63.1732 31.7682L64.1233 36.6091L63.4446 36.6996L62.8565 33.7136L61.4992 36.6996L60.0967 33.7136L59.5538 36.6996L58.9204 36.6091Z" fill="black"/>
<path d="M66.7476 36.6992V36.2015C66.5667 36.6087 66.1142 36.6992 65.7071 36.6992C64.9379 36.6992 64.395 36.1111 64.395 35.3419C64.395 34.5728 65.0737 34.1204 65.7975 34.1204C66.1142 34.1204 66.4762 34.2109 66.7024 34.4371V34.1656C66.7024 33.668 66.3857 33.5775 65.888 33.5775C65.6166 33.5775 65.2094 33.5775 64.8474 33.7585L65.0284 33.0798C65.2546 33.0346 65.6618 32.9441 65.9785 32.9441C66.9286 32.9441 67.381 33.306 67.381 34.2561V36.5635L66.7476 36.6992ZM65.0737 35.3419C65.0737 35.8396 65.3451 36.0658 65.8428 36.0658C66.2952 36.0658 66.7024 35.8848 66.7024 35.3419C66.7024 34.8895 66.2952 34.7085 65.888 34.7085C65.4808 34.7085 65.0737 34.8895 65.0737 35.3419Z" fill="black"/>
<path d="M68.0601 36.6992V33.0798L68.7387 32.9894V33.487C68.9197 33.1251 69.3721 32.9894 69.7793 32.9894C70.5031 32.9894 71.1365 33.3061 71.1365 34.2109V36.6088L70.4579 36.6992V34.2561C70.4579 33.7585 70.096 33.5775 69.6888 33.5775C69.1459 33.5775 68.6934 33.8942 68.6934 34.6633V36.6088L68.0601 36.6992Z" fill="black"/>
<path d="M74.0313 36.6992V36.2015C73.8503 36.6087 73.3979 36.6992 72.9907 36.6992C72.2216 36.6992 71.6787 36.1111 71.6787 35.3419C71.6787 34.5728 72.3573 34.1204 73.0812 34.1204C73.3979 34.1204 73.7599 34.2109 73.9861 34.4371V34.1656C73.9861 33.668 73.6694 33.5775 73.1717 33.5775C72.9003 33.5775 72.4931 33.5775 72.1311 33.7585L72.3121 33.0798C72.5383 33.0346 72.9455 32.9441 73.2622 32.9441C74.2123 32.9441 74.6647 33.306 74.6647 34.2561V36.5635L74.0313 36.6992ZM72.3573 35.3419C72.3573 35.8396 72.6288 36.0658 73.1265 36.0658C73.5789 36.0658 73.9861 35.8848 73.9861 35.3419C73.9861 34.8895 73.5789 34.7085 73.1717 34.7085C72.7645 34.7085 72.3573 34.8895 72.3573 35.3419Z" fill="black"/>
<path d="M75.6593 36.6542C75.8855 37.0613 76.2022 37.2875 76.6546 37.2875C77.1523 37.2875 77.6047 37.0161 77.6047 36.5184C77.6047 35.885 77.1523 35.6136 76.6546 35.6136C76.2927 35.6136 76.0665 35.7041 75.795 35.885L75.9307 35.3874C75.3878 35.2064 75.1616 34.754 75.1616 34.2111C75.1616 33.3967 75.8855 32.9895 76.4737 32.9895C77.0166 32.9443 77.2428 32.9443 77.469 32.899C77.6952 32.8538 77.9214 32.7633 78.2381 32.6728L78.1024 33.3062L77.6952 33.3967C78.0119 33.5777 78.1476 33.8491 78.1476 34.2563C78.1476 34.754 77.8762 35.1159 77.4237 35.2516C77.9666 35.4326 78.2834 35.8398 78.2834 36.4279C78.2834 37.3328 77.5142 37.8305 76.6999 37.8305C76.0212 37.8305 75.5688 37.5138 75.2069 37.0161L75.6593 36.6542ZM77.469 34.3016C77.469 33.8491 77.107 33.5777 76.6546 33.5777C76.2474 33.5777 75.8403 33.8039 75.8403 34.3016C75.8403 34.754 76.157 35.0707 76.6546 35.0707C77.107 35.0707 77.469 34.754 77.469 34.3016Z" fill="black"/>
<path d="M79.5505 35.523C79.7767 35.8849 80.0934 36.1111 80.5006 36.1111C80.9983 36.1111 81.4507 35.7944 81.8126 35.523L81.9484 36.2016C81.4959 36.5183 81.0888 36.7445 80.5459 36.7445C79.4148 36.7445 78.6909 35.8849 78.6909 34.7991C78.6909 33.849 79.5053 33.0346 80.4554 33.0346C81.2245 33.0346 81.6317 33.3513 82.0389 33.9847L79.5505 35.523ZM81.0888 33.849C80.953 33.668 80.7268 33.6228 80.5006 33.6228C79.7315 33.6228 79.2791 34.2109 79.3696 34.9348L81.0888 33.849Z" fill="black"/>
<path d="M82.6731 36.6992V33.0798L83.3065 32.9894V33.487C83.4422 33.2156 83.7589 32.9894 84.2113 32.9894C84.6185 32.9894 84.9352 33.0798 85.1162 33.487C85.2519 33.2156 85.6591 32.9894 86.1568 32.9894C86.7902 32.9894 87.3331 33.3061 87.3331 34.0752V36.5635L86.6544 36.654V34.1657C86.6544 33.7585 86.4735 33.5323 86.0663 33.5323C85.7496 33.5323 85.2972 33.7132 85.2972 34.2561V36.5635L84.6185 36.654V34.1657C84.6185 33.7585 84.4375 33.5323 84.0304 33.5323C83.7137 33.5323 83.2612 33.7132 83.2612 34.2561V36.5635L82.6731 36.6992Z" fill="black"/>
<path d="M88.7795 35.523C89.0057 35.8849 89.3224 36.1111 89.7296 36.1111C90.2273 36.1111 90.6797 35.7944 91.0417 35.523L91.1774 36.2016C90.725 36.5183 90.3178 36.7445 89.7749 36.7445C88.6438 36.7445 87.9199 35.8849 87.9199 34.7991C87.9199 33.849 88.7343 33.0346 89.6844 33.0346C90.4535 33.0346 90.8607 33.3513 91.2679 33.9847L88.7795 35.523ZM90.3178 33.849C90.182 33.668 89.9558 33.6228 89.7296 33.6228C88.9605 33.6228 88.5081 34.2109 88.5986 34.9348L90.3178 33.849Z" fill="black"/>
<path d="M91.9006 36.6992V33.0798L92.5793 32.9894V33.487C92.7602 33.1251 93.2127 32.9894 93.6198 32.9894C94.3437 32.9894 94.9771 33.3061 94.9771 34.2109V36.6088L94.2985 36.6992V34.2561C94.2985 33.7585 93.9365 33.5775 93.5294 33.5775C92.9865 33.5775 92.534 33.8942 92.534 34.6633V36.6088L91.9006 36.6992Z" fill="black"/>
<path d="M97.5549 33.7134H96.6049V35.5684C96.6049 36.0208 96.7406 36.1565 97.2382 36.1565C97.374 36.1565 97.5549 36.1113 97.6907 36.1113L97.5549 36.6994C97.4192 36.6994 97.2835 36.7447 97.012 36.7447C96.3786 36.7447 95.9262 36.2922 95.9262 35.6589V33.7134H95.3833L95.6095 33.1253H95.9262V32.2657L96.6049 32.0847V33.08H97.5549V33.7134Z" fill="black"/>
<path d="M45.8479 44.9785V40.1828L46.5265 40.0923V44.888L45.8479 44.9785Z" fill="black"/>
<path d="M47.2964 45.0235V41.4041L47.975 41.3136V41.8113C48.156 41.4493 48.6084 41.3136 49.0156 41.3136C49.7395 41.3136 50.3729 41.6303 50.3729 42.5351V44.933L49.6942 45.0235V42.5804C49.6942 42.0827 49.3323 41.9017 48.9251 41.9017C48.3822 41.9017 47.9298 42.2184 47.9298 42.9876V44.933L47.2964 45.0235Z" fill="black"/>
<path d="M52.9507 41.9925H52.0006V43.8474C52.0006 44.2998 52.1363 44.4355 52.634 44.4355C52.7697 44.4355 52.9507 44.3903 53.0864 44.3903L52.9507 44.9785C52.815 44.9785 52.6792 45.0237 52.4078 45.0237C51.7744 45.0237 51.322 44.5713 51.322 43.9379V41.9925H50.7791L51.0053 41.4043H51.322V40.5447L52.0006 40.3637V41.3591H52.9507V41.9925Z" fill="black"/>
<path d="M54.1724 43.8473C54.3986 44.2093 54.7153 44.4355 55.1224 44.4355C55.6201 44.4355 56.0725 44.1188 56.4345 43.8473L56.5702 44.526C56.1178 44.8427 55.7106 45.0689 55.1677 45.0689C54.0366 45.0689 53.3127 44.2093 53.3127 43.1234C53.3127 42.1734 54.1271 41.359 55.0772 41.359C55.8463 41.359 56.2535 41.6757 56.6607 42.3091L54.1724 43.8473ZM55.7106 42.1281C55.5749 41.9471 55.3487 41.9019 55.1224 41.9019C54.3533 41.9019 53.9009 42.4901 53.9914 43.2139L55.7106 42.1281Z" fill="black"/>
<path d="M57.2935 45.0236V41.4042L57.9269 41.3137V42.0828C58.1078 41.6304 58.4698 41.3137 59.0127 41.3137H59.3294L59.0579 41.9923C58.4698 41.9471 57.9721 42.3995 57.9721 43.3044V44.9783L57.2935 45.0236Z" fill="black"/>
<path d="M59.6008 45.0236V41.4042L60.2795 41.3137V41.8114C60.4604 41.4494 60.9129 41.3137 61.32 41.3137C62.0439 41.3137 62.6773 41.6304 62.6773 42.5352V44.9331L61.9987 45.0236V42.5805C61.9987 42.0828 61.6367 41.9019 61.2296 41.9019C60.6866 41.9019 60.2342 42.2186 60.2342 42.9877V44.9331L59.6008 45.0236Z" fill="black"/>
<path d="M65.5731 45.0235V44.5259C65.3921 44.9331 64.9397 45.0235 64.5325 45.0235C63.7634 45.0235 63.2205 44.4354 63.2205 43.6663C63.2205 42.8971 63.8991 42.4447 64.623 42.4447C64.9397 42.4447 65.3016 42.5352 65.5278 42.7614V42.49C65.5278 41.9923 65.2111 41.9018 64.7135 41.9018C64.442 41.9018 64.0348 41.9018 63.6729 42.0828L63.8538 41.4041C64.0801 41.3589 64.4872 41.2684 64.8039 41.2684C65.754 41.2684 66.2065 41.6304 66.2065 42.5804V44.8878L65.5731 45.0235ZM63.8991 43.6663C63.8991 44.1639 64.1705 44.3901 64.6682 44.3901C65.1206 44.3901 65.5278 44.2092 65.5278 43.6663C65.5278 43.2138 65.1206 43.0329 64.7135 43.0329C64.3063 42.9876 63.8991 43.2138 63.8991 43.6663Z" fill="black"/>
<path d="M68.7393 41.9925H67.7892V43.8474C67.7892 44.2998 67.9249 44.4355 68.4226 44.4355C68.5583 44.4355 68.7393 44.3903 68.875 44.3903L68.7393 44.9785C68.6035 44.9785 68.4678 45.0237 68.1964 45.0237C67.563 45.0237 67.1105 44.5713 67.1105 43.9379V41.9925H66.5676L66.7938 41.4043H67.1105V40.5447L67.7892 40.3637V41.3591H68.7393V41.9925Z" fill="black"/>
<path d="M69.5986 39.9566L70.051 40.4995L69.6438 40.9972L69.1914 40.4995L69.5986 39.9566ZM69.2819 45.0238V41.4044L69.9605 41.3139V44.9333L69.2819 45.0238Z" fill="black"/>
<path d="M74.3941 43.1685C74.3941 44.2091 73.5345 45.0235 72.4939 45.0235C71.4534 45.0235 70.5938 44.2091 70.5938 43.1685C70.5938 42.128 71.4534 41.3136 72.4939 41.3136C73.5345 41.3136 74.3941 42.0827 74.3941 43.1685ZM72.4939 41.9017C71.8153 41.9017 71.2724 42.4447 71.2724 43.1233C71.2724 43.8019 71.8153 44.3448 72.4939 44.3448C73.1726 44.3448 73.7607 43.8019 73.7607 43.1233C73.7155 42.4899 73.1726 41.9017 72.4939 41.9017Z" fill="black"/>
<path d="M74.9832 45.0235V41.4041L75.6618 41.3136V41.8113C75.8428 41.4493 76.2952 41.3136 76.7024 41.3136C77.4262 41.3136 78.0596 41.6303 78.0596 42.5351V44.933L77.381 45.0235V42.5804C77.381 42.0827 77.0191 41.9017 76.6119 41.9017C76.069 41.9017 75.6165 42.2184 75.6165 42.9876V44.933L74.9832 45.0235Z" fill="black"/>
<path d="M80.9556 45.0235V44.5258C80.7747 44.933 80.3222 45.0235 79.9151 45.0235C79.1459 45.0235 78.603 44.4353 78.603 43.6662C78.603 42.8971 79.2817 42.4446 80.0055 42.4446C80.3222 42.4446 80.6842 42.5351 80.9104 42.7613V42.4899C80.9104 41.9922 80.5937 41.9017 80.096 41.9017C79.8246 41.9017 79.4174 41.9017 79.0555 42.0827L79.2364 41.4041C79.4626 41.3588 79.8698 41.2683 80.1865 41.2683C81.1366 41.2683 81.589 41.6303 81.589 42.5804V44.8877L80.9556 45.0235ZM79.2817 43.6662C79.2817 44.1639 79.5531 44.3901 80.0508 44.3901C80.5032 44.3901 80.9104 44.2091 80.9104 43.6662C80.9104 43.2138 80.5032 43.0328 80.096 43.0328C79.6888 42.9876 79.2817 43.2138 79.2817 43.6662Z" fill="black"/>
<path d="M82.3562 44.9783V40.1373L83.0348 40.0468V44.8878L82.3562 44.9783Z" fill="black"/>
<path d="M0.424934 0.923111C0.737093 0.918587 1.04925 0.914062 1.36141 0.914062C12.5629 0.914062 23.7645 0.914062 34.9614 0.914062H35.7396C35.8708 1.42528 35.9115 44.1593 35.7939 45.0822C35.6672 45.1049 35.5315 45.1365 35.3958 45.1501C35.2917 45.1637 35.1876 45.1501 35.0836 45.1501C23.674 45.1501 12.2643 45.1501 0.859242 45.1501C0.714473 45.1501 0.565179 45.1501 0.42041 45.1456C0.424934 30.4063 0.424934 15.6624 0.424934 0.923111ZM0.777809 1.20812C0.737093 1.29408 0.700901 1.33027 0.700901 1.36647C0.691852 15.6217 0.687328 29.877 0.682804 44.1367C0.682804 44.3041 0.705425 44.467 0.718997 44.6344C0.718997 44.6525 0.737093 44.6706 0.750665 44.6841C0.764237 44.6977 0.782333 44.7113 0.818526 44.7475C0.936151 44.7565 1.08092 44.7701 1.22569 44.7701C12.6308 44.761 24.0359 44.752 35.441 44.7384C35.4591 44.7384 35.4772 44.7203 35.4953 44.7113C35.5134 44.6977 35.527 44.6841 35.5405 44.6706C35.6491 43.8743 35.6129 1.68767 35.4953 1.20812H0.777809Z" fill="black"/>
<path d="M29.0891 49.9094C28.777 49.0136 28.5688 47.593 28.691 47.1994C28.9443 47.2929 29.1434 47.8267 29.2882 48.801C29.5325 48.2354 29.528 47.7242 29.6366 47.2039C29.7949 47.1903 29.9487 47.1722 30.1433 47.1587C30.2428 47.6925 30.3333 48.1902 30.4419 48.7829C30.7812 48.2219 30.5369 47.5568 30.9938 47.1406C31.3015 47.3034 31.2381 47.5342 31.2019 47.7197C31.0526 48.4526 30.8807 49.181 30.7178 49.9094H30.2157C30.1116 49.362 30.0075 48.8145 29.899 48.24C29.7904 48.8191 29.6908 49.3665 29.5868 49.9094H29.0846H29.0891Z" fill="black"/>
<path d="M13.1929 49.9094V47.2763C13.4869 47.0863 13.6498 47.1677 13.7494 47.3939C13.9077 47.7559 14.0525 48.1223 14.2018 48.4888C14.247 48.5974 14.3013 48.706 14.4416 48.7965V47.2175C14.618 47.2084 14.7447 47.1994 14.9438 47.1903V49.9094H14.3194L13.6543 48.2671C13.6272 48.2671 13.5955 48.2716 13.5684 48.2762V49.9094H13.1929Z" fill="black"/>
<path d="M6.68115 49.9095V47.204H7.14263C7.16977 47.5342 7.19239 47.86 7.22406 48.24C7.4367 48.2536 7.63124 48.2626 7.88912 48.2807C7.91627 47.9097 7.93889 47.5885 7.96604 47.2221C8.11081 47.213 8.23749 47.2085 8.43656 47.1949V49.914H7.93437V48.7286H7.18334V49.914H6.68115V49.9095Z" fill="black"/>
<path d="M4.30733 49.9094C4.0223 49.3303 4.01325 48.706 4.0585 48.0861C4.10374 47.4618 4.59236 47.0591 5.13979 47.1632C5.55602 47.2446 5.70079 47.4256 5.75961 47.9504C5.29814 48.2445 5.27552 47.6156 4.92263 47.5704C4.64665 47.6337 4.53354 47.869 4.56973 48.1631C4.63307 48.6607 4.32995 49.2489 4.89096 49.6334C5.24837 49.5294 5.31623 49.276 5.35243 49C5.24385 48.7964 4.85476 49.0453 4.84571 48.6336C5.10812 48.4345 5.41124 48.5386 5.72794 48.5521C5.90439 49 5.79128 49.457 5.81843 49.9049H4.31638L4.30733 49.9094Z" fill="black"/>
<path d="M16.1957 49.9096C15.6935 49.2219 15.7206 48.4708 15.9513 47.7062C16.0464 47.3941 16.2635 47.1769 16.63 47.1498C16.9919 47.1181 17.2996 47.2041 17.4851 47.5343C17.5484 47.6474 17.5439 47.8013 17.571 47.9415C17.3041 48.0772 17.1774 48.041 17.0417 47.7922C16.8607 47.4574 16.6255 47.4755 16.449 47.7877C16.2002 48.222 16.2952 49.163 16.639 49.6109C17.0372 49.629 17.0869 49.335 17.1503 49.0364C16.9964 48.9368 16.8426 48.8418 16.6436 48.7152C16.9422 48.4482 17.2091 48.5432 17.4851 48.5613C17.6615 49.0047 17.5484 49.4662 17.571 49.9141H16.1957V49.9096Z" fill="black"/>
<path d="M31.7172 49.9094C31.975 49.0181 32.2375 48.1314 32.5044 47.2084C32.6673 47.1903 32.8211 47.1722 33.0382 47.1496C33.2328 47.8418 33.4228 48.5114 33.5993 49.1855C33.6626 49.4208 33.6807 49.6696 33.7214 49.9139H33.2192C33.1966 49.7375 33.174 49.5565 33.1468 49.3258C32.8799 49.3122 32.6627 49.3032 32.4184 49.2896C32.3415 49.5203 32.2782 49.7149 32.2148 49.9094H31.7126H31.7172ZM32.7713 47.8645C32.6673 48.2943 32.5994 48.5748 32.518 48.9277C32.7261 48.8688 32.8347 48.8417 32.9794 48.801C32.9161 48.5159 32.8618 48.2626 32.7713 47.8645Z" fill="black"/>
<path d="M24.9592 49.9096V47.1996H26.3979C26.4115 47.3172 26.4251 47.4303 26.4477 47.6113C26.0948 47.6384 25.7736 47.661 25.389 47.6882C25.38 47.8601 25.3709 48.032 25.3574 48.2311C25.6967 48.2628 25.9772 48.2899 26.2894 48.3216V48.7378C25.9998 48.7649 25.7193 48.7921 25.38 48.8238C25.3664 49.0319 25.3528 49.2264 25.3393 49.4888C25.7057 49.5114 26.0269 49.5341 26.3889 49.5567C26.416 49.6788 26.4387 49.7919 26.4613 49.9096H24.9592Z" fill="black"/>
<path d="M22.3309 49.9094C22.3309 49.1403 22.3218 48.3666 22.3263 47.5975C22.3263 47.4256 22.2766 47.2039 22.5933 47.1813C22.8421 47.4753 22.6159 47.869 22.7878 48.2264H23.5253C23.5569 47.8871 23.5886 47.5477 23.6293 47.1089C23.7831 47.2265 23.9234 47.2763 23.9324 47.3487C23.9686 47.593 23.9596 47.8463 23.9596 48.0952C23.9596 48.7014 23.9596 49.3031 23.9551 49.9094H23.5795C23.5705 49.5203 23.5614 49.1267 23.5479 48.7014H22.7335C22.7245 49.1267 22.7154 49.5158 22.7018 49.9094H22.3263H22.3309Z" fill="black"/>
<path d="M34.7228 49.9095C34.8721 48.9594 34.4333 48.1405 34.0442 47.2583C34.2433 47.2131 34.3699 47.1904 34.4921 47.1633C34.655 47.489 34.7952 47.7831 34.94 48.0727C35.4015 47.9188 35.1526 47.1769 35.8086 47.1769C35.8086 47.3307 35.8267 47.4664 35.8041 47.5931C35.786 47.6926 35.7272 47.7831 35.6774 47.8781C35.3472 48.516 35.1391 49.1766 35.225 49.9095H34.7228Z" fill="black"/>
<path d="M9.81266 49.9094V47.7288C9.58193 47.6745 9.41 47.6338 9.21094 47.584C9.21999 47.4437 9.22451 47.3306 9.23356 47.1859H10.8894C10.8985 47.3306 10.9075 47.4437 10.9166 47.584C10.7175 47.6338 10.5456 47.6745 10.3149 47.7288V49.9094H9.81266Z" fill="black"/>
<path d="M20.4525 49.9095V47.7152C20.181 47.6745 19.982 47.6428 19.7512 47.6066V47.213C20.2941 47.109 20.8235 47.1452 21.3935 47.1859C21.4116 47.3171 21.4252 47.4302 21.4433 47.5659C21.2487 47.6202 21.0723 47.67 20.828 47.7424V49.9095H20.4525Z" fill="black"/>
<path d="M0.425537 47.1542C0.52507 47.1677 0.624604 47.1813 0.792001 47.2039V49.4887C1.17656 49.5158 1.49778 49.5339 1.8552 49.5611C1.88234 49.6832 1.90496 49.7963 1.93211 49.914H0.425537C0.425537 48.991 0.425537 48.0726 0.425537 47.1542Z" fill="black"/>
<path d="M11.6914 49.9094V47.2085C11.8633 47.1949 11.9764 47.1858 12.1076 47.1723C12.2796 47.6337 12.1755 48.0907 12.1936 48.5386C12.2117 48.9955 12.1936 49.4525 12.1936 49.9049H11.6914V49.9094Z" fill="black"/>
<path d="M2.67871 49.9094V47.2084C2.84611 47.1949 2.95921 47.1858 3.15828 47.1677C3.20805 48.0997 3.17185 49.0046 3.1809 49.9094H2.67871Z" fill="black"/>
<path d="M25.8101 12.9526C20.3225 16.9156 14.8348 20.8787 9.23407 24.9232C9.36526 24.5296 9.53718 24.3215 9.72719 24.1224C10.4737 23.3398 11.2201 22.5526 11.9575 21.7609C12.8895 20.752 13.8124 19.7386 14.7398 18.7253C15.6537 17.73 16.5675 16.7302 17.4769 15.7349C18.3907 14.7396 19.3046 13.7398 20.2139 12.7445C21.1549 11.7175 22.1004 10.6906 23.0414 9.66361C23.0957 9.6048 23.1364 9.53694 23.2269 9.41026C22.9102 9.40122 22.7655 9.57313 22.6162 9.72695C21.9964 10.3467 21.3766 10.9665 20.7568 11.5863C19.5036 12.8395 18.255 14.1017 16.9928 15.3503C14.2331 18.0783 11.4689 20.7973 8.70476 23.5207C8.58261 23.6384 8.44236 23.7379 8.25235 23.7967C9.21145 22.1409 10.3289 20.6027 11.3694 19.0103C12.428 17.3907 13.541 15.8027 14.6222 14.1967C15.6899 12.6178 16.7485 11.0344 17.8116 9.4555C17.7755 9.42836 17.7393 9.40122 17.7031 9.37407C14.2331 13.966 10.7677 18.5579 7.29778 23.1498C7.49684 22.1092 8.02163 21.2044 8.42427 20.2544C8.83143 19.2953 9.27931 18.3543 9.71362 17.4088C10.1524 16.4406 10.5958 15.477 11.0392 14.5089C11.4644 13.5724 11.8897 12.6314 12.3195 11.6949C12.2787 11.6768 12.2426 11.6587 12.2018 11.6361C10.2022 15.2689 8.20259 18.9017 6.20749 22.539C6.16225 22.5209 6.12153 22.5028 6.07629 22.4847C6.47893 20.9375 6.99919 19.4174 7.45612 17.8838C7.91757 16.3275 8.43331 14.7848 8.90834 13.2331C9.38336 11.6859 9.84481 10.1341 10.261 8.56427C9.76338 9.65909 9.36526 10.7946 8.94001 11.9121C8.50117 13.0612 8.09401 14.2193 7.6597 15.3684C7.23444 16.4994 6.78656 17.6214 6.36583 18.7524C5.94057 19.8925 5.5515 21.0416 4.9498 22.1228C5.66008 17.8612 6.36583 13.5995 7.0761 9.33788L6.96752 9.31526C5.98128 13.5136 4.99052 17.7119 4.00428 21.9102C3.97261 21.9102 3.93642 21.9192 3.90475 21.9192C3.87308 21.8378 3.81879 21.7564 3.82332 21.6795C3.85046 21.1818 3.9138 20.6887 3.92737 20.191C3.94547 19.3767 3.87308 18.5579 3.94547 17.7481C4.09476 16.1013 3.95904 14.45 4.08571 12.8169C4.17619 11.6497 4.13095 10.4915 4.11286 9.32883C3.72379 13.4955 3.3302 17.6621 2.92756 21.9464C2.77374 21.4125 2.75112 4.03571 2.87327 3.39329C3.32567 3.28019 32.6776 3.25305 33.3743 3.36615C33.492 3.80498 33.5327 29.6056 33.4151 30.3882C33.4015 30.4018 33.3879 30.4199 33.3698 30.4335C33.3517 30.447 33.3336 30.4561 33.3155 30.4606C33.2567 30.4742 33.1934 30.4923 33.13 30.4923C25.9956 30.4923 18.8612 30.4923 11.7268 30.4923C11.668 30.4923 11.6092 30.4697 11.5368 30.3837C11.7721 30.3339 12.0028 30.2616 12.238 30.2435C13.3962 30.153 14.5543 30.067 15.7125 29.9946C16.5811 29.9403 17.4542 29.9177 18.3274 29.8589C19.2141 29.7956 20.1008 29.7096 20.9875 29.6282C21.0282 29.6282 21.069 29.6191 21.1097 29.6146C22.0235 29.5694 22.9374 29.5332 23.8467 29.4789C24.5887 29.4337 25.3306 29.3658 26.0725 29.2617C25.4437 29.2617 24.8149 29.2527 24.186 29.2617C23.8784 29.2708 23.5707 29.3477 23.2586 29.3522C22.1954 29.3658 21.1278 29.2934 20.0691 29.3748C18.3229 29.506 16.5721 29.402 14.8258 29.5151C13.8486 29.5784 12.8714 29.583 11.8987 29.6101C11.7404 29.6101 11.582 29.592 11.4101 29.4834C16.1332 28.6329 20.8563 27.7824 25.5794 26.9319C23.1726 27.0812 20.7885 27.4657 18.3952 27.7507C16.0201 28.0357 13.6495 28.3886 11.2065 28.7234C11.5639 28.4384 14.0024 27.701 16.2735 27.0993C17.979 26.6469 19.671 26.1311 21.3675 25.6425C23.0641 25.1539 24.7606 24.6698 26.448 24.1134C26.2987 24.1224 26.1449 24.1134 26.0002 24.1451C23.9598 24.6382 21.924 25.1403 19.8882 25.638C17.59 26.199 15.2872 26.76 12.989 27.3164C12.3511 27.4702 11.7042 27.5969 11.0392 27.6783C12.9347 26.7554 14.8891 25.9728 16.8254 25.1539C18.7526 24.3351 20.6799 23.5162 22.589 22.6431C20.5668 23.2538 18.5898 24.0048 16.6037 24.7151C14.6267 25.4208 12.6542 26.1356 10.6275 26.7735C10.718 26.683 10.7903 26.5654 10.8989 26.5021C13.2424 25.1132 15.5903 23.7288 17.9383 22.349C20.051 21.1049 22.1683 19.8563 24.2855 18.6122C24.9461 18.2231 25.6111 17.8521 26.249 17.4178C25.9323 17.4314 25.6789 17.6033 25.4166 17.739C25.0456 17.929 24.6927 18.1462 24.3217 18.3407C22.4397 19.327 20.5532 20.3087 18.6712 21.2994C17.1964 22.073 15.7215 22.8557 14.2512 23.6338C13.0388 24.2808 11.8263 24.9322 10.6139 25.5792C10.4329 25.6742 10.2429 25.7556 10.0348 25.8054C10.4239 25.2444 11.0256 24.9187 11.5187 24.4798C12.0299 24.0229 12.6 23.6338 13.1383 23.2131C13.6586 22.8014 14.1788 22.3852 14.6946 21.969C15.2284 21.5392 15.7623 21.1094 16.3006 20.6842C16.839 20.2589 17.3819 19.8427 17.9202 19.422C18.4586 19.0012 19.0015 18.5805 19.5398 18.1552C20.0782 17.73 20.6075 17.2911 21.1413 16.8659C21.6616 16.4542 22.1864 16.0425 22.7067 15.6353C23.245 15.2146 23.7924 14.7984 24.3263 14.3731C24.8556 13.9479 25.3758 13.509 25.9006 13.0747C25.8644 13.034 25.8328 12.9978 25.7966 12.9571L25.8101 12.9526Z" fill="url(#paint0_linear_1_5341)"/>
<path d="M2.89053 32.1887C3.31579 32.1209 3.71843 32.0168 4.12559 31.9987C5.18422 31.9489 6.24737 31.967 7.27885 32.252C8.00269 32.4556 8.65868 32.7633 8.94822 33.5233C9.3961 34.6905 9.20609 36.1834 8.02531 36.8982C7.95745 36.939 7.90316 37.0068 7.80816 37.0928C7.89864 37.1742 7.95745 37.2511 8.03889 37.2964C8.83512 37.7352 9.16085 38.45 9.17894 39.3096C9.18799 39.7846 9.13823 40.2641 9.05679 40.7301C8.93917 41.4132 8.50486 41.8792 7.91674 42.2095C7.22908 42.594 6.48714 42.7614 5.70448 42.7659C5.3697 42.7659 5.03492 42.7795 4.70467 42.7659C4.1075 42.7388 3.5058 42.7026 2.97649 42.6709C2.89958 42.585 2.88601 42.5714 2.87243 42.5533C2.85886 42.5397 2.84077 42.5216 2.83624 42.5035C2.82267 42.3588 2.80005 42.214 2.80005 42.0692C2.80005 38.8571 2.80457 35.6451 2.81362 32.433C2.81362 32.3742 2.84981 32.3154 2.89505 32.1842L2.89053 32.1887ZM3.59176 41.9471C4.15726 42.0104 4.68657 42.0737 5.21589 42.128C5.2747 42.1326 5.34256 42.1235 5.40137 42.1145C5.68639 42.0783 5.97592 42.0421 6.26094 42.0059C7.37385 41.8611 8.17008 41.2956 8.36462 40.3501C8.45057 39.9293 8.48224 39.4634 8.39176 39.0517C8.25604 38.4319 7.9484 37.8709 7.26075 37.6809C6.96216 37.5995 6.65453 37.5226 6.35142 37.5135C5.60495 37.4909 4.85396 37.5045 4.10297 37.509C3.94463 37.509 3.78177 37.5361 3.59176 37.5542V41.9471ZM3.55556 32.7497C3.57366 34.125 3.51032 35.4189 3.59628 36.6901C3.7139 36.7218 3.75462 36.7399 3.79534 36.7399C4.48299 36.7444 5.16612 36.7625 5.85377 36.7399C6.24284 36.7309 6.64096 36.6856 7.02098 36.6042C8.13389 36.3599 8.47319 35.3963 8.39628 34.4779C8.3239 33.6183 7.79459 33.1026 6.95764 32.8945C5.87187 32.6275 4.77253 32.7904 3.56009 32.7497H3.55556Z" fill="black"/>
<path d="M32.9498 42.7391C32.6919 42.4902 32.7145 42.2143 32.7145 41.9428C32.7145 40.5041 32.7145 39.0609 32.7145 37.6221C32.7145 37.4955 32.7145 37.3733 32.7145 37.2466C32.6874 36.1789 32.1535 35.6496 31.0768 35.6315C30.8053 35.6315 30.5338 35.6224 30.2624 35.6496C30.0588 35.6722 29.8643 35.7536 29.5883 35.8306C29.5883 36.0477 29.5883 36.2694 29.5883 36.4911C29.5883 38.3098 29.5883 40.1241 29.5883 41.9428C29.5883 42.1283 29.5928 42.3228 29.5611 42.5038C29.5249 42.6938 29.3666 42.7934 29.1856 42.7481C29.0635 42.7164 28.9142 42.6169 28.8689 42.5083C28.8101 42.3636 28.8327 42.1826 28.8327 42.0152C28.8327 40.1964 28.8327 38.3822 28.8327 36.5635V35.8622C28.136 35.541 27.4302 35.55 26.7425 35.6903C25.9734 35.8486 25.7201 36.4097 25.5979 37.2874C25.5753 37.4502 25.5888 37.6222 25.5888 37.7895C25.5888 39.1875 25.5888 40.5855 25.5888 41.988C25.5888 42.1554 25.5888 42.3228 25.5662 42.4857C25.5346 42.6757 25.3898 42.7617 25.2043 42.7572C25.0143 42.7572 24.8831 42.6622 24.8514 42.4676C24.8288 42.3228 24.8333 42.1781 24.8333 42.0288C24.8333 40.5267 24.8152 39.0201 24.8424 37.5181C24.8514 37.0702 24.96 36.6087 25.0957 36.1789C25.2224 35.7808 25.4893 35.4731 25.892 35.265C26.6701 34.8624 27.489 34.7538 28.3034 35.0071C29.068 35.2424 29.7738 35.0071 30.5067 34.9257C31.3934 34.8307 32.244 34.9257 32.9226 35.6224C33.2801 35.9889 33.4656 36.4187 33.4701 36.9118C33.4836 38.6853 33.4836 40.4634 33.4746 42.2369C33.4746 42.6712 33.4429 42.6848 32.9543 42.7345L32.9498 42.7391Z" fill="black"/>
<path d="M22.8912 42.4314C21.6425 42.7933 20.4345 42.9064 19.213 42.6214C18.4438 42.445 17.8738 42.0242 17.7833 41.1782C17.729 40.7077 17.6702 40.2145 17.7381 39.753C17.8738 38.8572 18.6203 38.2419 19.6382 38.1334C20.2988 38.061 20.9638 38.0429 21.6244 38.0022C21.7872 37.9931 21.9501 37.9795 22.1763 37.966C22.2035 37.2919 22.3573 36.6313 21.8415 36.0658C21.5746 35.7717 21.2624 35.6043 20.8507 35.6269C20.1449 35.6676 19.4346 35.541 18.7379 35.74C18.6067 35.7762 18.4529 35.731 18.2674 35.7219C18.2448 35.5545 18.2221 35.3962 18.195 35.2333C18.3262 35.1564 18.4348 35.0388 18.5388 35.0388C19.4437 35.0388 20.335 34.7447 21.2624 34.9664C22.3754 35.2378 22.95 35.8531 22.9635 37.0159C22.9771 38.1831 22.9636 39.3549 22.9681 40.5222C22.9681 41.0243 22.9681 41.522 22.9681 42.0242C22.9681 42.1464 22.9274 42.264 22.9002 42.4269L22.8912 42.4314ZM22.1401 38.7668C21.2443 38.7848 20.3757 38.6672 19.5161 38.8889C18.9551 39.0337 18.6248 39.364 18.4936 39.934C18.29 40.8343 18.6881 41.7075 19.4799 41.9518C19.7151 42.0242 19.9821 41.979 20.2173 42.0468C20.8688 42.2323 21.4706 41.9156 22.0768 41.9744C22.2261 41.4632 22.2578 39.6716 22.1401 38.7713V38.7668Z" fill="black"/>
<path d="M16.1596 41.8705C16.1731 42.1148 16.1777 42.2551 16.1867 42.3908C16.1189 42.4361 16.0691 42.4858 16.0148 42.4994C14.8928 42.7392 13.7662 42.9292 12.6261 42.6351C11.762 42.4089 11.1331 41.8796 10.8481 41.0335C10.6852 40.5494 10.5993 40.0201 10.5721 39.5089C10.5359 38.7624 10.5043 38.0114 10.6852 37.2694C10.9205 36.3193 11.3141 35.5049 12.3049 35.1249C13.3772 34.7132 14.3951 34.8263 15.3226 35.4778C15.6121 35.6814 15.8338 36.0343 15.9877 36.3645C16.3632 37.1789 16.4039 38.043 16.2682 39.0022H11.4272C11.1603 40.0925 11.5856 41.3095 12.3773 41.7574C12.9112 42.0605 13.5038 42.1239 14.1146 42.0605C14.7706 41.9972 15.4266 41.9384 16.1596 41.8705ZM11.4046 38.3416H15.499C15.6619 37.7806 15.499 37.2875 15.3452 36.7898C15.1688 36.2288 14.8023 35.8669 14.2368 35.713C13.7482 35.5773 13.2505 35.5773 12.7619 35.713C11.9566 35.9392 11.1874 37.1517 11.4046 38.3371V38.3416Z" fill="black"/>
<defs>
<linearGradient id="paint0_linear_1_5341" x1="31.7395" y1="3.29369" x2="4.54092" y2="30.4923" gradientUnits="userSpaceOnUse">
<stop stop-color="#9EDFFB"/>
<stop offset="1" stop-color="#1D667D"/>
</linearGradient>
</defs>
</svg>
