<svg width="80" height="21" viewBox="0 0 80 21" fill="none" xmlns="http://www.w3.org/2000/svg">
<g clip-path="url(#clip0_1_1449)">
<path d="M55.2577 20.1771C54.4577 20.3764 53.5894 20.5596 52.6529 20.73C52.1781 20.8232 51.6477 20.8939 51.0616 20.9357C50.4725 20.9775 49.8272 21 49.1233 21C47.7433 21 46.3446 20.8168 44.9272 20.4471C43.5377 20.0775 42.2662 19.486 41.1063 18.6727C39.9774 17.8788 39.047 16.8084 38.3151 15.4647C37.6018 14.1211 37.2451 12.4913 37.2451 10.5788C37.2451 8.80758 37.5397 7.26144 38.1352 5.93711C38.7276 4.61274 39.5525 3.51018 40.6101 2.62942C41.6677 1.74866 42.9175 1.09291 44.3659 0.655748C45.8081 0.218583 47.3868 0 49.0925 0C50.1716 0 51.2138 0.102863 52.2094 0.305373C53.2077 0.507885 54.2129 0.755397 55.2268 1.05112L54.7772 5.43886C53.8807 4.95669 52.9968 4.59987 52.1286 4.36844C51.2603 4.137 50.3486 4.02128 49.3933 4.02128C48.4099 4.02128 47.5199 4.18521 46.7229 4.50987C45.9259 4.83452 45.2468 5.291 44.682 5.87279C44.1177 6.45462 43.6838 7.14895 43.3796 7.95256C43.0757 8.75618 42.9237 9.63371 42.9237 10.5788C42.9237 11.5817 43.0943 12.4785 43.4355 13.2693C43.7768 14.06 44.2542 14.7286 44.8681 15.2783C45.4825 15.8279 46.2081 16.249 47.0516 16.5416C47.8951 16.8341 48.8194 16.9819 49.8212 16.9819C50.7268 16.9819 51.6264 16.8791 52.5194 16.6766C53.4125 16.474 54.2346 16.2266 54.9851 15.9308L55.2577 20.1771Z" fill="#0A1F8F"/>
<path d="M25.2768 3.97949H33.8769C34.1281 3.97949 34.3328 3.77376 34.3328 3.51661V0.462881C34.3328 0.205725 34.1281 0 33.8769 0H20.2215C19.9703 0 19.7656 0.205725 19.7656 0.462881V3.52304C19.7656 3.77698 19.9703 3.98592 20.2215 3.98592H25.2768V3.97949Z" fill="#0A1F8F"/>
<path d="M25.2765 16.5737V12.7421C25.2765 12.4849 25.4812 12.2792 25.7324 12.2792H33.3866C33.6378 12.2792 33.8425 12.0735 33.8425 11.8163V8.77544C33.8425 8.51828 33.6378 8.31258 33.3866 8.31258H25.7386C25.4873 8.31258 25.2827 8.10682 25.2827 7.84971V5.87279C25.2827 5.51601 24.9012 5.29419 24.5973 5.471L19.7653 8.30294H19.7622V20.5371C19.7622 20.7943 19.9669 21 20.2181 21H33.8704C34.1216 21 34.3263 20.7943 34.3263 20.5371V17.4995C34.3263 17.2423 34.1216 17.0366 33.8704 17.0366H25.7324C25.4812 17.0366 25.2765 16.8277 25.2765 16.5737Z" fill="#0A1F8F"/>
<path d="M10.8951 15.889C10.6532 16.2137 10.3369 16.458 9.94613 16.6252C9.55535 16.7923 9.11496 16.9016 8.62183 16.9562C8.13183 17.0077 7.63561 17.0366 7.13317 17.0366H5.92361C5.69722 17.0366 5.51426 16.8501 5.51426 16.6187V12.5171C5.51426 12.2856 5.69722 12.0992 5.92361 12.0992H7.20448C7.67591 12.0992 8.15352 12.1217 8.63735 12.1635C9.11804 12.2085 9.55222 12.3145 9.93991 12.4882C10.3245 12.6585 10.6408 12.9124 10.8889 13.2435C11.134 13.5778 11.258 14.0279 11.258 14.5936C11.258 15.1368 11.137 15.5676 10.8951 15.889ZM12.5885 10.2959V10.238C13.1684 10.0323 13.6833 9.78477 14.1361 9.49547C14.5889 9.20617 14.9734 8.86547 15.2867 8.46688C15.5999 8.07149 15.8356 7.61501 15.9969 7.10074C16.1551 6.58642 16.2357 5.99815 16.2357 5.32957C16.2357 4.42951 16.0682 3.64518 15.7302 2.9798C15.3921 2.31441 14.9238 1.76152 14.3253 1.32114C13.7267 0.880758 13.0196 0.54967 12.1977 0.331088C11.3758 0.109291 10.4796 0 9.5057 0H0.412483C0.182981 0 0 0.186438 0 0.417879V3.56161C0 3.79305 0.182981 3.97949 0.412483 3.97949H5.56387V3.9827H7.10526C7.56735 3.9827 8.01704 4.00199 8.45126 4.04056C8.88544 4.07914 9.27 4.16914 9.60804 4.31379C9.94613 4.45523 10.2159 4.66739 10.4175 4.94381C10.6191 5.22348 10.7215 5.6028 10.7215 6.08174C10.7215 6.5221 10.616 6.88855 10.402 7.17465C10.188 7.46395 9.90891 7.69216 9.56152 7.86578C9.21417 8.03611 8.8203 8.15508 8.383 8.21935C7.94574 8.28363 7.49913 8.31577 7.04322 8.31577H5.92674C5.70035 8.31577 5.51735 8.12933 5.51735 7.89792V5.79888C5.51735 5.47744 5.17309 5.27812 4.90017 5.43886L0 8.30614V20.5821C0 20.8104 0.182981 21 0.412483 21H8.71178C9.17387 21 9.63909 20.9807 10.1074 20.9422C10.5757 20.9036 11.0502 20.8457 11.534 20.7653C12.4986 20.6078 13.3669 20.2992 14.1392 19.8396C14.9114 19.3799 15.5441 18.7627 16.0341 17.9881C16.5241 17.2134 16.7723 16.1912 16.7723 14.9183C16.7691 12.4046 15.3766 10.8616 12.5885 10.2959Z" fill="#0A1F8F"/>
<path d="M61.0329 17.5445L60.2359 19.4989H61.8363L61.0329 17.5445ZM60.7537 17.0141H61.3585L63.055 20.9583H62.4285L62.0194 19.965H60.0529L59.6468 20.9583H59.042L60.7537 17.0141Z" fill="#B1B1B1"/>
<path d="M64.176 18.7081H64.666C64.942 18.7081 65.156 18.6535 65.3077 18.5442C65.4599 18.4349 65.5342 18.2838 65.5342 18.0909C65.5342 17.9077 65.466 17.7631 65.3325 17.6602C65.1994 17.5574 64.9977 17.5059 64.7277 17.5059H64.176V18.7081ZM63.6021 17.0141H64.5851C64.6877 17.0141 64.7838 17.0173 64.8829 17.0205C64.979 17.0238 65.0721 17.0334 65.1651 17.0495C65.2581 17.0624 65.3451 17.0816 65.429 17.1041C65.5125 17.1266 65.5903 17.1588 65.6647 17.1973C65.739 17.2359 65.8042 17.2809 65.8629 17.3356C65.922 17.387 65.9716 17.4513 66.0151 17.522C66.0586 17.5927 66.0894 17.6763 66.1142 17.7695C66.139 17.8627 66.1481 17.9688 66.1481 18.0877C66.1481 18.2067 66.1268 18.3192 66.0834 18.4221C66.0399 18.5249 65.9807 18.6149 65.9064 18.692C65.8321 18.7692 65.7451 18.8335 65.6429 18.8849C65.5403 18.9364 65.432 18.9685 65.3173 18.9878V18.9974C65.3607 19.0167 65.4007 19.036 65.4381 19.0585C65.4755 19.081 65.5064 19.1067 65.5312 19.1325C65.5868 19.1871 65.646 19.2739 65.7112 19.3928L66.4707 20.9615H65.8134L65.1964 19.5921C65.1529 19.4989 65.1064 19.4249 65.0599 19.3735C65.0134 19.3221 64.9638 19.2835 64.9107 19.2578C64.8581 19.2353 64.7994 19.2192 64.7373 19.216C64.6751 19.2128 64.6038 19.2096 64.5264 19.2096H64.1821V20.9615H63.6051V17.0141H63.6021Z" fill="#B1B1B1"/>
<path d="M68.7047 17.5445L67.9077 19.4989H69.5077L68.7047 17.5445ZM68.4256 17.0141H69.0303L70.7269 20.9583H70.1003L69.6908 19.965H67.7247L67.3182 20.9583H66.7134L68.4256 17.0141Z" fill="#B1B1B1"/>
<path d="M71.8516 20.4954H72.2829C72.4129 20.4954 72.5403 20.4857 72.6581 20.4696C72.7759 20.4536 72.8812 20.4214 72.9742 20.3732C73.0673 20.325 73.1355 20.2607 73.1916 20.1772C73.2442 20.0936 73.272 19.9875 73.272 19.8589C73.272 19.7046 73.2412 19.5824 73.179 19.4925C73.1168 19.3992 73.0364 19.3317 72.9372 19.2803C72.8377 19.2289 72.7264 19.1999 72.602 19.1839C72.4781 19.1678 72.3542 19.1613 72.2299 19.1613H71.8546V20.4954H71.8516ZM71.8516 18.6985H72.1646C72.3042 18.6985 72.4346 18.692 72.5586 18.6792C72.6829 18.6663 72.7912 18.6406 72.8873 18.5988C72.9803 18.5571 73.0581 18.4928 73.1138 18.4092C73.1699 18.3256 73.1977 18.2099 73.1977 18.0652C73.1977 17.9495 73.1759 17.8531 73.1294 17.7791C73.0829 17.7052 73.0238 17.6441 72.9525 17.5991C72.8812 17.5542 72.8007 17.522 72.7138 17.5059C72.6268 17.4898 72.5403 17.4802 72.4594 17.4802H71.8546V18.6985H71.8516ZM71.2746 17.0141H72.3633C72.5712 17.0141 72.7633 17.0334 72.9338 17.0687C73.1077 17.1041 73.2564 17.162 73.3807 17.2424C73.5046 17.3227 73.6007 17.4256 73.669 17.5509C73.7372 17.6763 73.7712 17.8306 73.7712 18.0106C73.7712 18.2806 73.6968 18.4863 73.5451 18.6342C73.3959 18.7788 73.1946 18.8849 72.9403 18.9492V18.9589C73.0768 18.9685 73.2038 19.0007 73.3155 19.0457C73.4303 19.0939 73.5294 19.1582 73.6103 19.2417C73.6938 19.3253 73.7559 19.4217 73.8025 19.531C73.849 19.6435 73.8707 19.7689 73.8707 19.9071C73.8707 20.1193 73.8303 20.2928 73.7464 20.4279C73.6629 20.5629 73.5512 20.6722 73.4116 20.7493C73.272 20.8265 73.1077 20.8811 72.9216 20.9133C72.7355 20.9422 72.5403 20.9583 72.3386 20.9583H71.2686V17.0141H71.2746Z" fill="#B1B1B1"/>
<path d="M75.4002 17.0141H74.8232V20.9583H75.4002V17.0141Z" fill="#B1B1B1"/>
<path d="M77.9773 17.5445L77.1804 19.4989H78.7808L77.9773 17.5445ZM77.6951 17.0141H78.2999L79.9964 20.9583H79.3699L78.9608 19.965H76.9943L76.5882 20.9583H75.9834L77.6951 17.0141Z" fill="#B1B1B1"/>
<path d="M60.7938 10.791C60.7938 10.7459 60.8034 10.7074 60.819 10.6688C60.8342 10.6302 60.859 10.5949 60.8868 10.5692C60.9151 10.5402 60.949 10.5177 60.9894 10.5017C61.0299 10.4856 61.0699 10.476 61.1134 10.476C61.1568 10.476 61.2003 10.4856 61.2373 10.5017C61.2777 10.5177 61.3121 10.5402 61.3399 10.5692C61.3707 10.5981 61.3925 10.6302 61.4081 10.6688C61.4268 10.7074 61.4329 10.7492 61.4329 10.791C61.4329 10.836 61.4234 10.8745 61.4081 10.9131C61.3925 10.9517 61.3677 10.9838 61.3399 11.0127C61.3121 11.0417 61.2747 11.0642 61.2373 11.0802C61.1973 11.0963 61.1568 11.106 61.1134 11.106C61.0234 11.106 60.946 11.0771 60.8838 11.016C60.8251 10.9549 60.7938 10.881 60.7938 10.791ZM59.9316 10.791C59.9316 10.7459 59.9412 10.7074 59.9564 10.6688C59.9751 10.6302 59.9968 10.5949 60.0247 10.5692C60.0529 10.5402 60.0868 10.5177 60.1273 10.5017C60.1677 10.4856 60.2077 10.476 60.2512 10.476C60.2947 10.476 60.3381 10.4856 60.3751 10.5017C60.4155 10.5177 60.4499 10.5402 60.4777 10.5692C60.5055 10.5981 60.5303 10.6302 60.546 10.6688C60.5647 10.7074 60.5707 10.7492 60.5707 10.791C60.5707 10.836 60.5612 10.8745 60.546 10.9131C60.5303 10.9517 60.5055 10.9838 60.4777 11.0127C60.4468 11.0417 60.4155 11.0642 60.3751 11.0802C60.3351 11.0963 60.2947 11.106 60.2512 11.106C60.1612 11.106 60.0838 11.0771 60.0216 11.016C59.9629 10.9549 59.9316 10.881 59.9316 10.791ZM60.9025 12.305C60.7007 12.3435 60.5181 12.3885 60.3538 12.44C60.189 12.4914 60.0464 12.5525 59.9255 12.62C59.8077 12.6875 59.7147 12.7646 59.6494 12.8482C59.5847 12.9318 59.5503 13.0282 59.5503 13.1375C59.5503 13.2243 59.569 13.2982 59.606 13.3561C59.6434 13.4139 59.6929 13.4622 59.752 13.4975C59.8107 13.5329 59.879 13.5586 59.9534 13.5747C60.0281 13.5908 60.1055 13.5971 60.1799 13.5971C60.3225 13.5971 60.456 13.5779 60.5738 13.5425C60.6947 13.5072 60.8034 13.459 60.8994 13.3947V12.305H60.9025ZM61.4486 13.3497C61.4486 13.43 61.4516 13.4943 61.4607 13.5489C61.4699 13.6036 61.4886 13.6454 61.5164 13.6775C61.5477 13.7097 61.5881 13.7322 61.6407 13.745C61.6934 13.7579 61.7616 13.7675 61.8486 13.7675H63.7807C63.8521 13.7675 63.9077 13.7804 63.9451 13.8029C63.9821 13.8254 64.0007 13.8672 64.0007 13.925V14.1308C64.0007 14.1694 63.9947 14.1982 63.9851 14.2208C63.976 14.2433 63.9603 14.2626 63.9386 14.2722C63.9203 14.2851 63.8955 14.2915 63.8707 14.2947C63.8455 14.2979 63.8147 14.3011 63.7868 14.3011H61.7181C61.5847 14.3011 61.4699 14.2883 61.3738 14.2658C61.2807 14.2401 61.2003 14.2079 61.1381 14.1661C61.0764 14.1243 61.0299 14.0793 60.9955 14.0247C60.9616 13.97 60.9368 13.9122 60.9212 13.8543C60.7721 13.9443 60.6294 14.0054 60.4934 14.044C60.3568 14.0826 60.2203 14.1018 60.0807 14.1018C59.9599 14.1018 59.8386 14.0858 59.7147 14.0504C59.5907 14.0182 59.479 13.9636 59.3799 13.8929C59.2803 13.8222 59.1999 13.7289 59.1347 13.6165C59.0694 13.504 59.0386 13.3689 59.0386 13.2082C59.0386 13.0604 59.0694 12.9253 59.1316 12.8096C59.1938 12.6907 59.2773 12.5878 59.3768 12.4946C59.479 12.4014 59.5938 12.321 59.7273 12.2503C59.8573 12.1828 59.9938 12.1217 60.1303 12.0671C60.2668 12.0157 60.4034 11.9706 60.5364 11.9321C60.6699 11.8935 60.7907 11.8614 60.8994 11.8324V11.5174H61.4451V13.3497H61.4486Z" fill="#B1B1B1"/>
<path d="M64.9472 15.1915C64.9472 15.1465 64.9563 15.1079 64.972 15.0693C64.9907 15.0308 65.0124 14.9986 65.0402 14.9697C65.0681 14.9408 65.1024 14.9183 65.1424 14.9022C65.1828 14.8861 65.2233 14.8765 65.2668 14.8765C65.3098 14.8765 65.3533 14.8861 65.3907 14.9022C65.4311 14.9183 65.465 14.9408 65.4928 14.9697C65.5211 14.9986 65.5459 15.0308 65.5611 15.0693C65.5767 15.1079 65.5859 15.1497 65.5859 15.1915C65.5859 15.2365 65.5767 15.2751 65.5611 15.3137C65.5459 15.3522 65.5211 15.3844 65.4928 15.4133C65.462 15.4422 65.4281 15.4647 65.3907 15.4808C65.3502 15.4969 65.3098 15.5065 65.2668 15.5065C65.1768 15.5065 65.0989 15.4776 65.0372 15.4165C64.9781 15.3554 64.9472 15.2815 64.9472 15.1915ZM64.085 15.1915C64.085 15.1465 64.0941 15.1079 64.1098 15.0693C64.1285 15.0308 64.1502 14.9986 64.1781 14.9697C64.2059 14.9408 64.2402 14.9183 64.2802 14.9022C64.3207 14.8861 64.3611 14.8765 64.4046 14.8765C64.4476 14.8765 64.4911 14.8861 64.5285 14.9022C64.5689 14.9183 64.6028 14.9408 64.6307 14.9697C64.6589 14.9986 64.6837 15.0308 64.6989 15.0693C64.7146 15.1079 64.7237 15.1497 64.7237 15.1915C64.7237 15.2365 64.7146 15.2751 64.6989 15.3137C64.6802 15.3522 64.6589 15.3844 64.6307 15.4133C64.5998 15.4422 64.5659 15.4647 64.5285 15.4808C64.4881 15.4969 64.4476 15.5065 64.4046 15.5065C64.3146 15.5065 64.2368 15.4776 64.175 15.4165C64.1159 15.3554 64.085 15.2815 64.085 15.1915ZM65.1424 13.5811C65.2324 13.6421 65.3411 13.6871 65.465 13.7193C65.5889 13.7514 65.7381 13.7643 65.9085 13.7643H65.9333C66.0046 13.7643 66.0607 13.7772 66.0976 13.7997C66.135 13.8222 66.1507 13.8639 66.1507 13.9218V14.1275C66.1507 14.1661 66.1441 14.195 66.135 14.2175C66.1259 14.24 66.1072 14.2593 66.0885 14.269C66.0668 14.2818 66.045 14.2882 66.0202 14.2915C65.9954 14.2947 65.9646 14.2979 65.9363 14.2979H65.9054C65.6946 14.2979 65.5211 14.2722 65.3815 14.2175C65.242 14.1629 65.1237 14.0954 65.0246 14.015C64.975 14.0954 64.9067 14.1597 64.8233 14.2143C64.7394 14.269 64.6337 14.2947 64.5037 14.2947H63.7811C63.7098 14.2947 61.9324 14.2818 61.8954 14.2593C61.8581 14.2368 61.8394 14.195 61.8394 14.1372V13.9315C61.8394 13.8929 61.8459 13.8639 61.855 13.8414C61.8676 13.8189 61.8828 13.7997 61.9015 13.79C61.9233 13.7772 63.6663 13.7707 63.6911 13.7675C63.7189 13.7643 63.7468 13.7611 63.775 13.7611H64.3859C64.4511 13.7611 64.5007 13.7321 64.5376 13.6775C64.575 13.6229 64.5937 13.5393 64.5937 13.4235V12.0027H65.1394V13.5811H65.1424Z" fill="#B1B1B1"/>
<path d="M68.6058 15.1915C68.6058 15.1465 68.6149 15.108 68.6306 15.0694C68.6492 15.0308 68.671 14.9987 68.6988 14.9697C68.7266 14.9408 68.7605 14.9183 68.801 14.9022C68.8414 14.8861 68.8818 14.8765 68.9249 14.8765C68.9684 14.8765 69.0119 14.8861 69.0492 14.9022C69.0897 14.9183 69.1236 14.9408 69.1514 14.9697C69.1792 14.9987 69.204 15.0308 69.2197 15.0694C69.2353 15.108 69.2445 15.1497 69.2445 15.1915C69.2445 15.2333 69.2353 15.2751 69.2197 15.3137C69.204 15.3522 69.1792 15.3844 69.1514 15.4133C69.1236 15.4422 69.0862 15.4647 69.0492 15.4808C69.0088 15.4969 68.9684 15.5065 68.9249 15.5065C68.8353 15.5065 68.7575 15.4776 68.6958 15.4165C68.6336 15.3554 68.6058 15.2815 68.6058 15.1915ZM65.9353 14.3011C65.864 14.3011 65.8084 14.2883 65.771 14.2658C65.7336 14.2433 65.7153 14.2015 65.7153 14.1436V13.9379C65.7153 13.8993 65.7214 13.8704 65.7305 13.8479C65.7432 13.8254 65.7588 13.8061 65.7771 13.7965C65.7988 13.7836 65.8205 13.7771 65.8453 13.774C65.8701 13.7707 65.8984 13.7675 65.9292 13.7675H68.6458V12.006H69.1919V14.3011H65.9353Z" fill="#B1B1B1"/>
<path d="M69.6758 15.0308C69.8927 15.0019 70.0632 14.9601 70.1906 14.9054C70.3175 14.8476 70.4167 14.7769 70.4819 14.69C70.5471 14.6033 70.5936 14.4972 70.6123 14.3815C70.634 14.2626 70.6432 14.1275 70.6432 13.9765V12.0092H71.1893V13.7708H71.8993C71.9706 13.7708 72.0267 13.7836 72.0636 13.8061C72.101 13.8286 72.1162 13.8704 72.1162 13.9283V14.134C72.1162 14.1725 72.1101 14.2015 72.101 14.224C72.0884 14.2465 72.0732 14.2658 72.0545 14.2754C72.0327 14.2883 72.011 14.2947 71.9832 14.2979C71.9584 14.3011 71.9301 14.3043 71.8993 14.3043H71.158C71.1271 14.5133 71.0775 14.6869 71.0062 14.8315C70.9349 14.9761 70.8388 15.0951 70.721 15.1915C70.6027 15.288 70.4601 15.3651 70.2958 15.4198C70.1314 15.4744 69.9423 15.5162 69.7284 15.5451L69.6758 15.0308Z" fill="#B1B1B1"/>
<path d="M74.2841 12.6425C74.2841 12.5974 74.2689 12.5589 74.2407 12.5171C74.2128 12.4785 74.1724 12.4431 74.1167 12.411C74.0611 12.3789 73.9959 12.3531 73.9185 12.3339C73.8406 12.3145 73.7507 12.3049 73.6546 12.3049C73.5428 12.3049 73.4189 12.3178 73.2824 12.3467C73.1459 12.3756 73.0002 12.4238 72.842 12.4946C72.8667 12.5428 72.9102 12.6103 72.9663 12.6907C73.025 12.771 73.0902 12.8546 73.1676 12.9446C73.2454 13.0314 73.3259 13.115 73.4128 13.1986C73.4998 13.2821 73.5833 13.3464 73.6672 13.3978C73.7633 13.3432 73.8472 13.2789 73.9215 13.205C73.9959 13.1343 74.0611 13.0603 74.1167 12.9896C74.1693 12.9189 74.2098 12.8546 74.2407 12.7903C74.2689 12.7356 74.2841 12.6842 74.2841 12.6425ZM73.1959 13.6228C73.1059 13.5586 73.022 13.4814 72.938 13.3882C72.8546 13.295 72.7772 13.2017 72.7024 13.1085C72.6311 13.0153 72.5659 12.9253 72.5072 12.8449C72.448 12.7614 72.4015 12.7003 72.3646 12.6617C72.3737 12.62 72.3863 12.5717 72.4015 12.5203C72.4172 12.4688 72.4359 12.4174 72.4546 12.366C72.4733 12.3146 72.4946 12.2728 72.5163 12.2342C72.538 12.1956 72.5598 12.1731 72.5785 12.1603C72.6406 12.1249 72.718 12.0896 72.805 12.0542C72.895 12.0156 72.9941 11.9835 73.1028 11.9513C73.2111 11.9192 73.332 11.8935 73.4624 11.8742C73.5928 11.8517 73.7289 11.842 73.875 11.842C73.9833 11.842 74.092 11.8517 74.2037 11.8742C74.3154 11.8935 74.4146 11.9256 74.5076 11.9674C74.5976 12.0092 74.672 12.0606 74.7307 12.1249C74.7898 12.1892 74.8176 12.2631 74.8176 12.3531C74.8176 12.4142 74.8115 12.4882 74.7959 12.5717C74.7807 12.6553 74.7493 12.7517 74.7028 12.8578C74.6563 12.9639 74.588 13.0796 74.498 13.2082C74.4085 13.3367 74.2872 13.475 74.1354 13.626C74.182 13.6485 74.2407 13.6679 74.3089 13.6839C74.3772 13.7 74.4515 13.7161 74.5354 13.7257C74.6193 13.7386 74.7059 13.7482 74.8024 13.7546C74.8985 13.7611 74.9946 13.7643 75.0967 13.7643H75.348C75.4193 13.7643 75.475 13.7771 75.5124 13.7997C75.5498 13.8222 75.568 13.8639 75.568 13.9218V14.1275C75.568 14.1661 75.562 14.195 75.5528 14.2175C75.5402 14.24 75.525 14.2593 75.5063 14.269C75.4846 14.2818 75.4628 14.2882 75.435 14.2915C75.4102 14.2947 75.3789 14.2979 75.3511 14.2979H74.942C74.7772 14.2979 74.6254 14.285 74.4859 14.2593C74.3463 14.2336 74.2189 14.2014 74.1076 14.1661C73.9959 14.1307 73.8967 14.0921 73.8128 14.0536C73.7289 14.015 73.6672 13.9797 73.6207 13.9539C73.5367 13.9989 73.4467 14.0439 73.3506 14.0857C73.2546 14.1275 73.1493 14.1629 73.0376 14.195C72.9259 14.2271 72.808 14.2529 72.6841 14.2722C72.5598 14.2915 72.4328 14.3011 72.2993 14.3011H71.9085C71.8372 14.3011 71.7815 14.2882 71.7441 14.2657C71.7072 14.2433 71.6885 14.2014 71.6885 14.1436V13.9378C71.6885 13.8993 71.6946 13.8704 71.7037 13.8479C71.7163 13.8254 71.732 13.8093 71.7502 13.7964C71.772 13.7836 71.7937 13.7771 71.8185 13.7739C71.8467 13.7707 71.8746 13.7675 71.9024 13.7675H72.3302C72.442 13.7675 72.5446 13.7643 72.6407 13.7546C72.7367 13.745 72.8237 13.7353 72.898 13.7225C72.9724 13.7096 73.0376 13.6936 73.0872 13.6775C73.1367 13.6582 73.1741 13.6422 73.1959 13.6228Z" fill="#B1B1B1"/>
<path d="M75.3391 14.3011C75.2678 14.3011 75.2117 14.2882 75.1747 14.2657C75.1373 14.2432 75.1187 14.2014 75.1187 14.1435V13.9378C75.1187 13.8992 75.1252 13.8703 75.1343 13.8478C75.1469 13.8253 75.1621 13.806 75.1808 13.7964C75.2026 13.7835 75.2243 13.7771 75.2491 13.7739C75.2739 13.7707 75.3017 13.7674 75.333 13.7674H77.876V10.0355H78.4217V14.3011H75.3391Z" fill="#B1B1B1"/>
<path d="M80.0022 10.0388H79.4565V14.3044H80.0022V10.0388Z" fill="#B1B1B1"/>
</g>
<defs>
<clipPath id="clip0_1_1449">
<rect width="80" height="21" fill="white"/>
</clipPath>
</defs>
</svg>
