<svg width="119" height="29" viewBox="0 0 119 29" fill="none" xmlns="http://www.w3.org/2000/svg">
<path fill-rule="evenodd" clip-rule="evenodd" d="M85.6887 2.38153L84.9629 3.28884L85.9156 4.06006L86.5507 3.28884L87.5034 4.06006L88.2292 3.15275L87.3219 2.38153L86.6414 3.15275L85.6887 2.38153Z" fill="#313080"/>
<path fill-rule="evenodd" clip-rule="evenodd" d="M65.365 2.6991L64.5938 3.60641L65.5011 4.33226L66.2723 3.42495L65.365 2.6991Z" fill="#313080"/>
<path fill-rule="evenodd" clip-rule="evenodd" d="M97.2578 9.23184L97.3032 9.32258L97.3939 9.45867L97.53 9.59477L97.6661 9.6855L97.8476 9.73087L98.029 9.77623H98.4373V9.23184H101.431L101.341 9.36794L101.25 9.45867L101.114 9.5494L101.023 9.64013L100.796 9.77623H100.66H100.569H99.5715L99.5261 9.86696L99.4807 10.0031L99.4354 10.1392L99.39 10.3206L99.2993 10.5021L99.2085 10.7289L99.1178 10.9557L99.0271 11.1826L98.8002 11.4548L98.7095 11.5909L98.6641 11.6362L98.6188 11.727L98.3919 11.9538V10.366L98.5734 10.0938L98.7549 9.86696L98.8002 9.77623L98.8456 9.6855H98.3466V9.14111L97.2578 9.23184ZM101.568 9.23184L101.704 9.27721L101.84 9.32258L101.976 9.36794L102.112 9.45867L103.11 9.86696V9.23184H109.597L109.37 9.36794L109.189 9.45867L109.008 9.5494L108.917 9.59477L108.871 9.64013L108.645 9.6855H108.508H108.372L108.1 9.73087H107.919H107.828H107.783H107.601H107.556H107.51H107.465H105.741L105.469 9.6855L105.197 9.59477L104.925 9.45867L104.698 9.32258L104.153 10.2299L103.065 9.8216V9.18648H101.568V9.23184ZM110.505 9.23184L110.595 9.45867L110.686 9.59477L110.777 9.73087L110.867 9.77623L111.004 9.8216H114.406H114.451H114.497H114.542H114.587H114.678H114.814L114.905 9.77623L114.996 9.73087L115.041 9.6855L115.086 9.64013L115.132 9.59477L115.268 9.36794H110.505V9.23184ZM115.903 9.23184L116.81 9.5494V9.23184H118.534L118.398 9.36794L118.262 9.5494L118.081 9.73087L117.899 9.9577L116.81 9.5494V9.23184H115.903ZM98.4373 10.4567L98.3012 10.5928L98.1651 10.7289L97.8476 11.0011L97.5754 11.2279L97.3032 11.4094L97.0763 11.5909L96.8495 11.727L96.6227 11.8177L96.3959 11.863H96.2144L95.8061 11.8177L95.4432 11.7723L95.1256 11.6362L94.8081 11.5001L94.7627 11.6362L95.7607 12.1806L95.9876 12.2713L96.2144 12.3621L96.4412 12.4528L96.532 12.4982L96.6681 12.5435H96.7588L96.8495 12.5889H97.031H97.0763H97.1671H97.3032L97.5754 12.5435L97.8022 12.4528L97.9383 12.3621L97.9837 12.3167H98.0744L98.3012 12.1806L98.528 11.9991V10.4567H98.4373Z" fill="#313080"/>
<path fill-rule="evenodd" clip-rule="evenodd" d="M98.4368 9.23178V8.55129L98.3914 8.50593L98.2099 8.46056H98.0739L97.9831 8.36983L97.8924 8.32446L97.847 8.23373L97.8017 8.18837V8.09764L97.847 8.05227L97.8924 7.87081L98.0739 7.78008L98.2553 7.68935H98.4368V6.64594H98.3914L98.2553 6.6913L98.1192 6.78204L97.9831 6.87277L97.8924 6.9635L97.6656 7.28106L97.4387 7.64398L97.348 7.82544L97.3026 8.00691L97.2573 8.32446L97.2119 8.50593V8.68739V8.95958L97.2573 9.14105V9.23178H98.4368V8.55129H98.6182H98.709H98.7997H98.9812H99.0265H99.1173V8.4152L99.0719 8.32446V8.2791L98.9812 8.18837L98.8904 8.05227L98.7997 7.87081L98.709 7.78008L98.5729 7.73471L98.4821 7.68935H98.4368V6.64594L98.709 6.60057H98.7997L98.9358 6.64594L99.0265 6.6913L99.1626 6.78204L99.2534 6.87277L99.3895 7.00886L99.4348 7.14496L99.5709 7.37179L99.6163 7.64398L99.707 7.91618L99.7977 8.23373L99.8431 8.55129H100.705H100.796H100.887L100.977 8.50593H101.023H101.068V8.46056H101.113H101.159V8.4152H101.204L101.249 8.36983L101.34 8.32446L102.202 7.19032L102.384 7.00886L102.565 6.8274L102.883 6.64594L103.155 6.50984V7.46252H102.973L102.837 7.50788L102.747 7.59861L102.61 7.68935L102.474 7.82544L102.202 8.143L103.155 8.46056V9.23178H109.642L110.368 8.68739L110.413 8.86885V9.05032L110.504 9.23178H115.267L115.404 9.00495L115.903 9.23178H116.81V8.23373L117.763 8.55129V8.2791L117.717 8.09764L117.626 7.87081L117.581 7.64398L117.4 7.41715L117.354 7.32642L117.263 7.23569L117.173 7.19032L117.082 7.14496L116.991 7.09959H116.901L116.81 7.14496V6.28301L116.991 6.19228L117.309 6.14692H117.49H117.536L117.626 6.19228L117.808 6.28301L117.899 6.37375L117.944 6.41911L118.08 6.6913L118.171 6.78204L118.262 6.9635L118.398 7.23569L118.488 7.59861L118.534 7.78008L118.579 7.91618L118.67 8.2791L118.715 8.46056V8.59666V8.77812V8.82349V8.86885L118.761 8.95958H118.715V9.00495L118.624 9.09568L118.534 9.23178H116.81V8.23373L115.857 7.91618L115.993 7.68935L116.129 7.55325L116.265 7.41715L116.402 7.32642L116.628 7.14496H116.81V6.28301L116.628 6.32838L116.356 6.55521L115.993 6.87277L115.903 6.9635L115.812 7.09959L115.721 7.28106L115.63 7.46252L115.449 7.64398L115.313 7.91618L115.177 8.143L115.041 8.4152L114.496 8.55129H111.275H111.185H111.094L111.003 8.50593L110.958 8.46056V8.4152L111.139 8.2791L111.321 8.18837L111.502 8.143L111.774 8.09764L112.001 8.05227H112.273L112.591 8.00691L112.908 8.05227L113.362 6.87277L112.999 6.8274H112.954H112.908H112.818H112.682L112.001 6.78204L111.638 6.73667L111.321 6.6913L110.595 6.50984L109.415 6.14692L109.098 6.05618L108.871 6.01082L108.689 5.96545H108.599H108.281L108.009 6.10155L107.782 6.23765L107.51 6.50984L107.328 6.73667L107.192 7.05423L107.102 7.32642L107.056 7.64398L107.147 7.50788L107.238 7.46252L107.374 7.37179L107.51 7.28106L107.646 7.23569L107.827 7.19032H108.19H108.417L108.735 7.23569L109.007 7.32642L109.37 7.41715L110.459 7.73471L110.232 7.91618L109.96 8.09764L109.733 8.23373L109.506 8.32446L109.279 8.4152L109.052 8.50593L108.825 8.55129H108.644H105.967L105.287 8.46056L105.106 8.36983L104.969 8.2791L104.879 8.143L104.788 7.96154L104.697 7.73471L104.606 7.50788L104.516 7.28106L104.47 7.14496L104.38 6.9635L104.334 6.87277L104.289 6.78204L104.244 6.73667L104.107 6.60057L103.971 6.50984L103.835 6.46447H103.79L103.563 6.41911L103.246 6.46447L103.155 6.50984V7.46252L103.246 7.41715H103.336L103.427 7.46252L103.563 7.55325L103.699 7.68935L103.835 7.96154L103.926 8.18837L103.971 8.2791V8.32446V8.4152L104.017 8.59666L104.062 8.82349L103.155 8.46056V9.23178H101.567L101.522 9.18641H101.476H101.431V9.23178H98.4368Z" fill="#313080"/>
<path fill-rule="evenodd" clip-rule="evenodd" d="M93.4915 7.2357V7.14496V7.0996L93.4008 6.91813L93.3554 6.73667L93.2647 6.60058L93.174 6.46448L93.0379 6.32838L92.9471 6.19229L92.7203 5.96546L92.5842 5.82936L92.4481 5.73863L92.312 5.6479L92.1759 5.60253L92.0398 5.5118H91.8584L91.6769 5.46644H91.4954H91.3593L91.2232 5.5118H91.0872L90.9511 5.55717L90.6789 5.6479L90.5428 5.73863L90.4067 5.82936L90.1345 6.01082L89.9076 6.23765L89.7262 6.41911L89.5901 6.64594L89.454 6.87277L89.3633 7.14496L89.3179 7.37179V7.64398V7.87081L89.3633 8.09764L89.454 8.32447L89.5901 8.59666H88.3199L88.1837 8.55129L88.0477 8.50593L87.9116 8.46057L87.8208 8.36984L87.7301 8.23374L87.6394 8.09764L87.594 7.91618L87.5486 7.68935L87.0043 4.10547L86.3691 5.28497L86.4599 5.82936L86.3691 5.87473L86.3238 5.96546L86.1877 6.05619L86.0516 6.19229L85.8701 6.28302L85.6886 6.41911L85.5979 6.46448V7.19033L85.8247 7.14496L85.9155 7.05423L86.0062 6.9635L86.1423 6.8274L86.233 6.69131L86.4145 6.23765L86.6413 7.73472V7.82545V7.87081V7.91618L86.596 7.96154H86.5506L86.4599 8.00691H86.3238H86.233H86.1877H86.1423H86.0969H86.0062H85.8247H85.6433V9.32251H85.7794H85.8247H85.8701H85.9608L86.0969 9.27715H86.233L86.6413 8.50593L86.7774 8.14301L86.8228 8.50593L86.8681 8.68739L86.9135 8.86886L86.9589 9.00495L87.0043 9.14105L87.095 9.36788L87.1857 9.50397L87.2764 9.5947L87.3672 9.68543L87.5033 9.77617L87.6394 9.82153L87.8208 9.8669H87.9569H88.1384H93.7184L94.4442 8.64203L91.8584 8.59666L91.7223 8.55129L91.5862 8.50593L91.314 8.4152L91.1779 8.32447L91.0418 8.23374L90.9057 8.09764L90.7696 7.96154L90.5428 7.73472L90.4067 7.64398L90.3613 7.55325L90.2252 7.37179L90.1798 7.2357L90.2252 7.0996L90.2706 7.00887L90.3613 6.9635L90.452 6.87277L90.5881 6.8274L90.9511 6.69131L91.1325 6.60058L91.314 6.55521L91.4501 6.50984H91.6315L91.7676 6.46448H91.8584H92.0852H92.3574L92.5842 6.50984L92.811 6.55521L93.0379 6.64594L93.2193 6.73667L93.3554 6.87277L93.4915 7.00887V7.2357ZM85.734 6.41911L85.5979 6.50984L85.3711 6.64594L85.0989 6.78204L84.8721 7.00887L84.6452 7.2357L84.4638 7.55325L84.2823 7.87081L84.1462 8.2791L83.9648 8.68739L83.874 9.09568H84.1916L84.5091 9.14105H84.7813H85.0535H85.235L85.3711 9.18641H85.4165H85.5072H85.6433V7.87081L85.4618 7.82545H85.1443H84.8267H84.5545L84.5999 7.73472L84.6906 7.64398L84.8267 7.50789L84.9628 7.41716L85.1443 7.28106L85.3257 7.19033L85.5525 7.0996H85.5979V6.41911H85.734Z" fill="#313080"/>
<path fill-rule="evenodd" clip-rule="evenodd" d="M78.5664 9.77611L78.6117 9.50392L78.6571 9.23172L78.7025 8.95953L78.7478 8.7327V8.50587V8.32441L78.7932 8.14295V7.96149V7.64392L78.7478 7.37173L78.7025 7.09954L78.6117 6.82735L78.521 6.55515L78.3849 6.28296L78.2488 6.01076L78.1127 5.78394L77.523 6.87271V6.91808L77.5683 6.96344L77.6591 7.09954L77.7952 7.37173L77.8859 7.59856L77.9766 7.82539L78.0673 8.00685L78.1127 8.18831L78.1581 8.32441L78.2034 8.46051H74.7103L74.6649 8.14295L74.6196 7.82539L74.5288 7.55319L74.4381 7.281L74.3474 7.09954L74.2566 6.96344L74.1659 6.82735L74.0752 6.73661L73.9391 6.64588L73.803 6.60052L73.6669 6.55515H73.5762L73.3493 6.60052V7.68929H73.3947H73.4854L73.5762 7.73466L73.6669 7.82539L73.7576 7.96149L73.8483 8.05222L73.9391 8.18831L73.9844 8.32441V8.46051H73.8937H73.8483H73.6669H73.5762H73.4854H73.3493V9.68538H73.8483L73.6669 9.9122L73.4854 10.1844L73.3493 10.3659V11.9537L73.5308 11.7268L73.5762 11.6361L73.6215 11.5907L73.7576 11.4546L73.9844 11.1824L74.5288 9.73074H78.5664V9.77611ZM73.304 6.64588H73.2586L73.1225 6.69125L73.0318 6.78198L72.8957 6.87271L72.7596 6.96344L72.5327 7.281L72.3059 7.64392L72.2152 7.82539L72.1698 8.00685L72.0791 8.36978V8.55124V8.68733V8.91416L72.1245 9.09563L72.1698 9.27709L72.2606 9.41318L72.3966 9.54928L72.5327 9.64001L72.7142 9.68538L72.8957 9.73074H73.304V8.50587H73.2586L73.0771 8.46051L72.8957 8.41514L72.7596 8.36978L72.6688 8.32441L72.6235 8.23368V8.18831V8.09758L72.6688 8.00685V7.91612L72.7596 7.82539L72.941 7.73466L73.1225 7.64392H73.304V6.64588ZM73.304 10.4112L73.2586 10.4566L73.0318 10.7288L72.7142 11.001L72.442 11.2278L72.1698 11.4093L71.943 11.5907L71.7162 11.7268L71.4893 11.8176L71.2625 11.8629L71.0811 11.9083L70.6728 11.8629L70.3098 11.8176L69.9469 11.6815L69.6293 11.5454L69.584 11.6815L69.8562 11.8629L69.9015 11.9083H69.9469L69.9923 11.9537L70.1284 12.0444L70.3552 12.1805L70.582 12.2712L70.7181 12.3166L70.8542 12.3619L70.9903 12.4073L71.1264 12.4527L71.3532 12.5434L71.444 12.5888L71.5347 12.6341H71.6254L71.7162 12.6795H71.8976H71.943H72.0337H72.1245H72.2152L72.3059 12.6341L72.442 12.5888L72.6688 12.498L72.7596 12.4073L72.8049 12.3619H72.8957L73.1225 12.2259L73.2132 12.1351L73.304 12.0444V10.4112Z" fill="#313080"/>
<path fill-rule="evenodd" clip-rule="evenodd" d="M78.7028 11.3184L77.7048 10.5925L76.9336 11.4545L77.8863 12.2257L78.7028 11.3184Z" fill="#313080"/>
<path fill-rule="evenodd" clip-rule="evenodd" d="M109.369 11.3184L108.417 10.5925L107.646 11.4545L108.553 12.2257L109.369 11.3184Z" fill="#313080"/>
<path fill-rule="evenodd" clip-rule="evenodd" d="M45.8582 7.19021L45.586 7.87069L46.5387 9.32239L46.4933 9.45849L46.448 9.59459L46.4026 9.77605L46.3119 9.95751L46.1758 10.139L46.0397 10.3204L45.8582 10.5473L45.6767 10.7741L45.4046 11.0009L45.1324 11.2277L44.8602 11.4092L44.6333 11.5453L44.3611 11.6814L44.1343 11.7721L43.9075 11.8175L43.6807 11.8629H43.2724L42.9094 11.8175L42.5465 11.7268L42.3651 11.6814L42.1836 11.5907L42.2743 11.7721L42.4558 11.8629L42.6826 11.999L42.728 12.0443L42.8187 12.0897L43.0455 12.1804H43.1363H43.1816H43.227L43.4085 12.2712L43.5446 12.3165L43.726 12.4073L43.8621 12.4526L44.0436 12.498L44.1797 12.5434L44.3158 12.5887H44.4519H44.588H44.7241H44.8148L44.9055 12.5434H44.9963L45.2231 12.498L45.3138 12.4526L45.4499 12.4073L45.6767 12.2712L45.8582 12.0897L45.9036 12.0443L45.9489 11.999L46.085 11.9082L46.2665 11.6814L46.3572 11.5453L46.4933 11.4092L46.6294 11.1824L46.7655 10.9556L46.8563 10.7287L46.9016 10.5926L46.947 10.5019L46.9923 10.3658L47.0377 10.2297L47.1284 10.0029L47.2645 9.50386L47.446 9.59459L47.6728 9.63995L47.8997 9.68532H48.1265H53.5704V8.46045H51.3021L51.3928 8.41508L51.5289 8.36972L51.665 8.27898L51.8465 8.18825L51.9826 8.05216L52.164 7.91606L52.3455 7.77996L52.6177 7.5985L52.8445 7.41704L53.0713 7.28094L53.2528 7.14484L53.3889 7.09948H52.3001L52.2094 7.14484L51.8918 7.37167L51.7557 7.46241L51.6196 7.55314L51.4835 7.64386L51.3928 7.7346L51.166 7.87069L51.0299 7.96143H50.9392H50.8938H50.8484L50.8938 7.82533L50.9392 7.7346L50.9845 7.64386V7.50777L51.0299 7.41704L51.0753 7.14484V6.96338H50.5762V7.05411L50.6216 7.32631V7.55314V7.77996V7.82533L50.5762 7.87069L50.5309 7.91606H50.4855L50.3494 8.00679H50.304H50.2133L50.0318 8.05216L49.805 8.09752H49.6689L49.5328 8.14289H48.1719H48.0358L47.8997 8.09752L47.7636 8.00679L47.6275 7.96143L47.4914 7.82533L47.3553 7.68923L47.2192 7.55314L47.0831 7.41704L46.6748 6.78192H45.8582V7.19021ZM54.886 7.19021L54.9313 7.23558L55.2035 7.41704L55.3396 7.55314L55.4757 7.68923L55.5664 7.77996L55.6118 7.82533L55.6572 7.91606L55.7025 7.96143L55.7479 8.00679L55.7933 8.09752L55.8386 8.18825L55.884 8.27898V8.32435V8.36972V8.41508V8.46045L55.7933 8.50581L55.6572 8.55118H55.5211H55.4304H55.3396H55.2035H55.1582H55.1128H53.5704V9.77605H55.7025L55.884 9.54922L56.0655 9.36776L56.3377 9.00483L56.4738 8.82337L56.5645 8.68727L56.6552 8.55118L56.746 8.46045L56.9274 8.09752V7.96143V7.87069V7.77996L56.882 7.64386L56.8367 7.55314V7.50777L56.7006 7.32631L56.6552 7.28094H54.886V7.19021Z" fill="#313080"/>
<path fill-rule="evenodd" clip-rule="evenodd" d="M46.6296 7.1902L46.1306 6.46435L45.8584 7.1902H46.6296ZM51.1208 7.1902V7.0541V6.73654V6.50971V6.32825V6.10142V5.96533L50.9847 4.0146L51.1208 4.10534L51.7559 2.88046L51.4837 2.74437L51.2569 2.60827L51.0754 2.51754L50.9393 2.42681L50.8032 2.33608L50.7125 2.24535L50.6672 2.15462V2.10925L50.7579 1.74632V1.65559L50.7125 1.61023L50.6672 1.65559L50.6218 1.70096L50.5764 1.74632L50.5311 1.83706L50.4403 1.92779L50.3496 2.06389L50.2589 2.19998L50.1681 2.33608L49.9867 2.60827L49.9413 2.74437L49.8959 2.88046L49.8506 2.9712L49.8052 3.01656V3.15266V3.24339V3.28876L49.8506 3.33412L49.9413 3.42485L50.0774 3.56095L50.395 5.91996L50.4403 6.23752V6.28288V6.37362L50.4857 6.50971L50.5311 7.09947V7.28093H51.1208V7.1902ZM53.3891 7.1902L53.4345 7.14483L53.5705 7.0541V6.32825L53.3891 6.41898L53.253 6.55508L52.9354 6.78191L52.754 6.87264L52.5725 7.0541L52.3003 7.23556H53.3891V7.1902ZM56.7008 7.1902L56.6554 7.14483L56.61 7.0541L56.4286 6.87264L56.3832 6.82727L56.3379 6.78191L56.2471 6.69117L56.0203 6.46435L55.8388 6.32825L55.6574 6.19215L55.4759 6.10142L55.113 5.96533L54.7954 5.91996H54.614L54.3871 5.96533L54.251 6.01069L54.1149 6.05606L53.8427 6.19215L53.5252 6.32825V7.0541L53.7066 7.00874L53.8427 6.96337H54.0242L54.2964 7.00874L54.5686 7.09947L54.7954 7.1902H56.7008Z" fill="#313080"/>
<path fill-rule="evenodd" clip-rule="evenodd" d="M59.1047 1.83716L58.2881 2.88056L58.3335 3.19813L58.4242 3.51568V3.83325L58.4696 4.1508L58.5149 4.51373L58.5603 4.92202L58.651 5.64787V6.05616L58.6964 6.50981L58.7417 7.37176V8.27907L58.7871 9.32248V9.50394L58.8778 9.64004L58.9232 9.6854L58.9686 9.73077L59.0593 9.77614H59.15H64.8661H65.0929L65.1837 9.73077H65.3198H65.5012L65.728 9.6854L65.9095 9.64004L66.091 9.59467V9.54931H66.1363L66.2271 9.50394H66.2724L66.3632 9.45858L67.7241 8.46053L67.9056 8.3698L68.0871 8.27907L68.2685 8.18834L68.5407 8.14298L68.7675 8.09761H69.0397L69.3573 8.05224L69.7202 8.09761L69.8563 7.73469L69.947 7.46249L70.0378 7.1903L70.1739 6.9181L69.4027 6.87274L68.7222 6.82737L68.3593 6.78201L68.0417 6.73664L67.4066 6.55518L66.9983 6.41908L66.6354 6.32835L66.3178 6.19225L66.0456 6.14689L65.7734 6.10152L65.6373 6.05616L65.4559 6.01079H65.3651L65.0476 6.05616L64.7754 6.14689L64.5032 6.28298L64.3217 6.50981L64.0949 6.78201L63.9588 7.0542L63.8681 7.37176L63.8227 7.73469L64.0495 7.50786L64.1856 7.41712L64.3217 7.37176L64.4578 7.28103L64.6393 7.23566H64.7754H65.0022H65.229L65.5012 7.28103L65.8188 7.37176L66.1363 7.46249L66.3178 7.50786L66.4085 7.55322H66.4539L66.4993 7.59859L66.6807 7.64395L66.8168 7.68932H66.9529V7.73469H67.0436L67.1344 7.78005H67.2705L67.0436 7.96151L66.8168 8.14298L66.59 8.23371L66.4085 8.3698L66.2271 8.41517L66.0456 8.5059L65.8641 8.55126H65.728H59.7398H59.6944L59.6491 8.5059L59.5583 8.46053L59.513 8.3698V8.23371L59.3315 4.83129L59.2861 4.24153V3.74251L59.2408 3.28886L59.1954 2.88056L59.15 2.56301V2.24545L59.1047 2.01862V1.83716Z" fill="#313080"/>
<path fill-rule="evenodd" clip-rule="evenodd" d="M42.4102 25.2913V17.1709H45.495C46.1301 17.1709 46.6292 17.2616 46.9921 17.3977C47.355 17.5792 47.6726 17.806 47.8994 18.1689C48.1262 18.5319 48.217 18.8494 48.217 19.2577C48.217 19.6206 48.1262 19.9382 47.9448 20.2558C47.7633 20.5733 47.4457 20.8001 47.0828 20.9816C47.5818 21.1177 47.9448 21.3899 48.217 21.7075C48.4891 22.0704 48.6252 22.4787 48.6252 22.9323C48.6252 23.2953 48.5345 23.6582 48.3984 23.9757C48.2623 24.2933 48.0355 24.5655 47.8087 24.747C47.5818 24.9284 47.2643 25.0645 46.9014 25.1552C46.5384 25.246 46.0848 25.2913 45.5857 25.2913H42.4102ZM43.5443 20.5733H45.3136C45.8126 20.5733 46.1301 20.528 46.357 20.4826C46.6292 20.3919 46.856 20.2558 46.9921 20.0743C47.1282 19.8928 47.2189 19.666 47.2189 19.3484C47.2189 19.0763 47.1735 18.8494 47.0375 18.6226C46.9014 18.3958 46.7199 18.2597 46.4931 18.2143C46.2662 18.1236 45.8126 18.1236 45.2228 18.1236H43.5897V20.5733M43.5443 24.3387H45.5857C45.9487 24.3387 46.1755 24.3387 46.3116 24.2933C46.5838 24.2479 46.7653 24.1572 46.9467 24.0665C47.1282 23.9757 47.2643 23.7943 47.355 23.6128C47.4457 23.4314 47.5365 23.2045 47.5365 22.9323C47.5365 22.6148 47.4457 22.3879 47.3096 22.1611C47.1282 21.9343 46.9467 21.7982 46.6292 21.7075C46.357 21.6167 45.9487 21.5714 45.4497 21.5714H43.5443V24.3387Z" fill="#313080"/>
<path fill-rule="evenodd" clip-rule="evenodd" d="M53.9331 25.291V24.4291C53.4795 25.1096 52.8444 25.4271 52.0278 25.4271C51.6649 25.4271 51.3473 25.3818 51.0297 25.2457C50.7122 25.1096 50.4853 24.9281 50.3492 24.7467C50.2132 24.5652 50.0771 24.293 50.0317 24.0208C49.9863 23.8393 49.9863 23.5218 49.9863 23.1135V19.4843H50.9844V22.7506C50.9844 23.2496 50.9844 23.6125 51.0297 23.794C51.0751 24.0662 51.2112 24.2476 51.438 24.4291C51.6195 24.5652 51.8917 24.6559 52.2092 24.6559C52.5268 24.6559 52.799 24.5652 53.0712 24.4291C53.3434 24.293 53.5248 24.0662 53.6156 23.794C53.7063 23.5218 53.797 23.1589 53.797 22.6598V19.5296H54.7951V25.3818H53.9331V25.291Z" fill="#313080"/>
<path fill-rule="evenodd" clip-rule="evenodd" d="M56.4736 25.2913V17.1709H57.4717V21.7982L59.8761 19.3938H61.1463L58.878 21.5714L61.3731 25.2913H60.1482L58.1522 22.2972L57.4717 22.9777V25.2913H56.4736Z" fill="#313080"/>
<path fill-rule="evenodd" clip-rule="evenodd" d="M62.2354 25.2912V17.1708H63.2334V20.0742C63.687 19.5298 64.2768 19.2576 65.0026 19.2576C65.4563 19.2576 65.8192 19.3483 66.1368 19.5298C66.4543 19.7113 66.6812 19.9381 66.8173 20.2556C66.9534 20.5732 67.0441 20.9815 67.0441 21.5712V25.2912H66.0461V21.5712C66.0461 21.0722 65.9553 20.7093 65.7285 20.4825C65.5017 20.2556 65.1841 20.1649 64.8212 20.1649C64.5036 20.1649 64.2314 20.2556 63.9592 20.3917C63.687 20.5278 63.5056 20.7547 63.4149 21.0269C63.3241 21.299 63.2334 21.662 63.2334 22.1156V25.3366H62.2354V25.2912Z" fill="#313080"/>
<path fill-rule="evenodd" clip-rule="evenodd" d="M72.5335 24.5653C72.1705 24.8828 71.8076 25.1097 71.49 25.2458C71.1271 25.3819 70.7642 25.4272 70.3559 25.4272C69.7208 25.4272 69.1764 25.2911 68.8588 24.9736C68.4959 24.656 68.3145 24.2477 68.3145 23.7487C68.3145 23.4765 68.3598 23.2043 68.4959 22.9775C68.632 22.7507 68.8135 22.5692 69.0403 22.3877C69.2671 22.2516 69.494 22.1155 69.7662 22.0702C69.9476 22.0248 70.2652 21.9794 70.6735 21.9341C71.49 21.8433 72.0798 21.7072 72.4881 21.5712C72.4881 21.4351 72.4881 21.3443 72.4881 21.299C72.4881 20.8907 72.3974 20.6185 72.2159 20.437C71.9437 20.2102 71.5808 20.1195 71.0364 20.1195C70.5827 20.1195 70.2198 20.2102 69.993 20.3463C69.7662 20.5277 69.5847 20.7999 69.494 21.2082L68.4959 21.0721C68.5866 20.6638 68.7227 20.3009 68.9496 20.0741C69.131 19.8019 69.4486 19.6204 69.8569 19.4843C70.2652 19.3482 70.6735 19.2575 71.2178 19.2575C71.7169 19.2575 72.1252 19.3029 72.4427 19.439C72.7603 19.5751 72.9871 19.7112 73.1232 19.8926C73.2593 20.0741 73.3954 20.3009 73.4408 20.5731C73.4861 20.7546 73.4861 21.0721 73.4861 21.4804V22.796C73.4861 23.7033 73.5315 24.2931 73.5315 24.5653C73.5769 24.7921 73.6676 25.0643 73.7583 25.2458H72.7149C72.6242 25.0643 72.5788 24.8375 72.5335 24.5653ZM72.4881 22.3424C72.1252 22.4785 71.5808 22.6146 70.8096 22.7053C70.4013 22.7507 70.0837 22.8414 69.9022 22.8868C69.7208 22.9775 69.5847 23.0682 69.494 23.2043C69.4032 23.3404 69.3579 23.5219 69.3579 23.658C69.3579 23.9302 69.4486 24.157 69.6754 24.3385C69.8569 24.5199 70.1744 24.6106 70.5827 24.6106C70.991 24.6106 71.3086 24.5199 71.6261 24.3838C71.9437 24.2024 72.1705 23.9755 72.3066 23.7033C72.3974 23.4765 72.4881 23.1589 72.4881 22.7053V22.3424Z" fill="#313080"/>
<path fill-rule="evenodd" clip-rule="evenodd" d="M77.2956 24.3837L77.4317 25.2457C77.1595 25.291 76.8873 25.3364 76.6605 25.3364C76.2976 25.3364 76.0254 25.291 75.7986 25.1549C75.6171 25.0642 75.4356 24.8827 75.3903 24.7013C75.2995 24.5198 75.2542 24.1115 75.2542 23.5218V20.1647H74.5283V19.3935H75.2542V17.9418L76.2522 17.3521V19.3935H77.2956V20.1647H76.2522V23.5671C76.2522 23.8393 76.2522 24.0208 76.2976 24.1115C76.3429 24.2023 76.3883 24.2476 76.479 24.293C76.5698 24.3384 76.6605 24.3837 76.842 24.3837C76.9327 24.4291 77.0688 24.3837 77.2956 24.3837Z" fill="#313080"/>
<path fill-rule="evenodd" clip-rule="evenodd" d="M78.2939 18.305V17.1709H79.292V18.305H78.2939ZM78.2939 25.2913V19.4392H79.292V25.2913H78.2939Z" fill="#313080"/>
<path fill-rule="evenodd" clip-rule="evenodd" d="M80.8799 25.2912V19.439H81.7872V20.3463C82.014 19.938 82.2409 19.6658 82.4223 19.5297C82.6038 19.3936 82.8306 19.3483 83.0574 19.3483C83.375 19.3483 83.7379 19.4844 84.1008 19.6658L83.7379 20.5731C83.5111 20.437 83.2389 20.3917 83.0121 20.3917C82.7852 20.3917 82.6038 20.437 82.4223 20.5731C82.2409 20.7092 82.1048 20.8907 82.0594 21.1175C81.9687 21.4805 81.8779 21.8434 81.8779 22.297V25.3819H80.8799V25.2912Z" fill="#313080"/>
<path fill-rule="evenodd" clip-rule="evenodd" d="M91.9496 22.0703V21.1176H95.3973V24.1117C94.853 24.52 94.3086 24.8376 93.7642 25.0644C93.2198 25.2912 92.63 25.382 91.9949 25.382C91.1783 25.382 90.4525 25.2005 89.8174 24.8829C89.1369 24.52 88.6832 24.0664 88.3203 23.3859C88.0028 22.7508 87.8213 22.0249 87.8213 21.2083C87.8213 20.4371 88.0028 19.6659 88.3203 18.9854C88.6379 18.3049 89.1369 17.8059 89.772 17.443C90.4071 17.1254 91.133 16.944 91.9496 16.944C92.5393 16.944 93.0837 17.0347 93.5827 17.2162C94.0817 17.3976 94.4447 17.6698 94.7169 17.9874C94.9891 18.3503 95.2159 18.7586 95.352 19.303L94.3539 19.5752C94.2178 19.1669 94.0817 18.8493 93.9003 18.6225C93.7188 18.3957 93.4466 18.2142 93.1291 18.0327C92.8115 17.8966 92.4032 17.8059 91.9949 17.8059C91.4959 17.8059 91.0876 17.8966 90.7247 18.0327C90.3618 18.1688 90.0896 18.3957 89.8627 18.6225C89.6359 18.8493 89.4544 19.1215 89.3183 19.4391C89.1369 19.9381 89.0008 20.4825 89.0008 21.0722C89.0008 21.7981 89.1369 22.3878 89.3637 22.8869C89.5905 23.3859 89.9988 23.7488 90.4525 23.9756C90.9515 24.2025 91.4505 24.3386 91.9949 24.3386C92.4486 24.3386 92.9022 24.2478 93.3559 24.0664C93.8096 23.8849 94.1271 23.7034 94.3539 23.4766V21.9342H91.9496V22.0703Z" fill="#313080"/>
<path fill-rule="evenodd" clip-rule="evenodd" d="M96.9395 25.291V19.4389H97.8468V20.3462C98.0736 19.9379 98.3004 19.6657 98.4819 19.5296C98.6633 19.3935 98.8902 19.3481 99.117 19.3481C99.4346 19.3481 99.7975 19.4842 100.16 19.6657L99.7975 20.573C99.5253 20.4369 99.2985 20.3462 99.0716 20.3462C98.8448 20.3462 98.6633 20.3916 98.4819 20.5276C98.3004 20.6637 98.1643 20.8452 98.119 21.072C97.9829 21.435 97.9375 21.7979 97.9375 22.2515V25.3364H96.9395V25.291Z" fill="#313080"/>
<path fill-rule="evenodd" clip-rule="evenodd" d="M100.433 22.3425C100.433 21.2537 100.75 20.4371 101.34 19.9381C101.839 19.4844 102.474 19.303 103.2 19.303C104.017 19.303 104.697 19.5752 105.196 20.1196C105.695 20.6639 105.967 21.3898 105.967 22.2971C105.967 23.0683 105.831 23.6581 105.604 24.0664C105.377 24.4747 105.06 24.8376 104.606 25.0644C104.153 25.2912 103.699 25.4273 103.155 25.4273C102.338 25.4273 101.657 25.1551 101.113 24.6561C100.705 24.0664 100.433 23.3405 100.433 22.3425ZM101.476 22.3425C101.476 23.1137 101.657 23.6581 101.975 24.021C102.293 24.3839 102.701 24.5654 103.245 24.5654C103.744 24.5654 104.153 24.3839 104.47 24.021C104.788 23.6581 104.969 23.0683 104.969 22.2971C104.969 21.5713 104.788 21.0269 104.47 20.6639C104.153 20.301 103.744 20.1196 103.245 20.1196C102.746 20.1196 102.338 20.301 101.975 20.6639C101.657 21.0269 101.476 21.5713 101.476 22.3425Z" fill="#313080"/>
<path fill-rule="evenodd" clip-rule="evenodd" d="M111.138 25.2912V24.4292C110.685 25.1097 110.049 25.4273 109.233 25.4273C108.87 25.4273 108.552 25.3819 108.235 25.2458C107.917 25.1097 107.69 24.9282 107.554 24.7468C107.418 24.52 107.282 24.2931 107.237 24.0209C107.191 23.8395 107.191 23.5219 107.191 23.1136V19.4844H108.189V22.7507C108.189 23.2497 108.189 23.6126 108.235 23.7941C108.28 24.0663 108.416 24.2478 108.643 24.4292C108.87 24.5653 109.097 24.656 109.414 24.656C109.732 24.656 110.004 24.5653 110.276 24.4292C110.548 24.2931 110.73 24.0663 110.821 23.7941C110.911 23.5219 111.002 23.159 111.002 22.66V19.5297H112V25.3819H111.138V25.2912Z" fill="#313080"/>
<path fill-rule="evenodd" clip-rule="evenodd" d="M113.634 27.514V19.3936H114.541V20.1648C114.768 19.8473 114.995 19.6204 115.267 19.4843C115.539 19.3482 115.857 19.2575 116.265 19.2575C116.764 19.2575 117.218 19.3936 117.626 19.6658C118.034 19.938 118.306 20.3009 118.533 20.7546C118.76 21.2082 118.805 21.7526 118.805 22.297C118.805 22.8868 118.715 23.4311 118.488 23.9302C118.261 24.4292 117.944 24.7921 117.535 25.0189C117.127 25.2911 116.673 25.3819 116.22 25.3819C115.857 25.3819 115.585 25.3365 115.312 25.155C115.04 25.0189 114.813 24.8375 114.632 24.6106V27.4687H113.634M114.541 22.3877C114.541 23.1589 114.723 23.7033 114.995 24.0663C115.312 24.4292 115.675 24.6106 116.129 24.6106C116.583 24.6106 116.991 24.4292 117.308 24.0663C117.626 23.7033 117.807 23.1136 117.807 22.3424C117.807 21.5712 117.671 21.0268 117.354 20.6638C117.036 20.3009 116.673 20.1195 116.22 20.1195C115.766 20.1195 115.403 20.3009 115.085 20.7092C114.677 21.0268 114.541 21.6165 114.541 22.3877Z" fill="#313080"/>
<path fill-rule="evenodd" clip-rule="evenodd" d="M21.4049 22.025C20.9966 22.4333 20.9966 23.0684 21.4049 23.4767L25.7146 27.7864C26.1229 28.1947 26.758 28.1947 27.1663 27.7864L35.8311 19.167L40.1408 14.8572C40.5491 14.4489 40.5491 13.8138 40.1408 13.4055L35.8311 9.0958L27.1663 0.430974C26.758 0.0226833 26.1229 0.0226833 25.7146 0.430974L21.4049 4.74071C20.9966 5.149 20.9966 5.78411 21.4049 6.1924L29.3438 14.1314L21.4049 22.025Z" fill="#313080"/>
<path fill-rule="evenodd" clip-rule="evenodd" d="M11.5612 14.086L19.5002 6.147C19.9085 5.73871 19.9085 5.10359 19.5002 4.6953L15.1905 0.385563C14.7822 -0.0227269 14.1471 -0.0227269 13.7388 0.385563L5.07396 9.0504L0.764226 13.3601C0.355935 13.7684 0.355935 14.4035 0.764226 14.8118L5.07396 19.1216L13.7388 27.741C14.1471 28.1493 14.7822 28.1493 15.1905 27.741L19.5002 23.4313C19.9085 23.023 19.9085 22.3879 19.5002 21.9796L11.5612 14.086Z" fill="#C1B9B7"/>
</svg>
