<svg width="58" height="35" viewBox="0 0 58 35" fill="none" xmlns="http://www.w3.org/2000/svg">
<path d="M18.7742 0.971108C18.8028 0.971108 18.8028 0.99963 18.8313 0.99963C18.8883 1.02815 18.9169 1.0852 18.9454 1.17077C18.9454 1.22781 18.9739 1.31338 18.9739 1.37042C18.9739 1.48451 18.9739 1.62713 18.9739 1.74122C18.9739 5.33507 18.9739 8.95744 18.9739 12.5513C18.9739 12.6654 18.9739 12.7509 18.9739 12.865C18.9739 12.9221 18.9739 12.9791 19.0024 13.0362C19.0309 13.1217 19.0595 13.1503 19.145 13.1503C19.1736 13.1503 19.2021 13.1503 19.2591 13.1217C19.5443 13.0362 19.8296 13.0077 20.1148 12.9791C20.2574 12.9791 20.4 12.9506 20.5426 12.9506C20.5997 12.9506 20.6567 12.9506 20.7138 12.9506C21.3983 12.9506 22.0829 13.0362 22.7389 13.2358C23.1382 13.3499 23.509 13.5496 23.8513 13.7492C24.6499 14.2341 25.3059 14.8616 25.8193 15.6317C26.2186 16.2307 26.4753 16.8867 26.618 17.5713C26.732 18.0276 26.7606 18.484 26.7606 18.9404C26.7606 21.3648 26.7606 23.7892 26.7606 26.2136C26.7606 26.3848 26.732 26.5274 26.732 26.6985C26.732 26.8126 26.6465 26.8982 26.5324 26.8982C26.3042 26.8982 26.0475 26.9267 25.8193 26.9267C25.7052 26.9267 25.6197 26.9267 25.5056 26.8982C25.4771 26.8982 25.4485 26.8982 25.42 26.8982C25.3344 26.8696 25.2774 26.8411 25.2774 26.727C25.2774 26.67 25.2489 26.5844 25.2489 26.5274C25.2489 26.3562 25.2489 26.1851 25.2489 25.9854C25.2489 23.8177 25.2489 21.6785 25.2489 19.5108C25.2489 19.1685 25.2489 18.8263 25.1918 18.4555C25.1348 18.0276 25.0777 17.5998 24.9066 17.2005C24.6214 16.4874 24.1935 15.8884 23.5946 15.4036C23.2523 15.1468 22.91 14.9187 22.5392 14.7475C22.2825 14.6334 21.9973 14.5479 21.7121 14.5194C21.3413 14.4623 20.9705 14.4623 20.5997 14.4623C20.5712 14.4623 20.5426 14.4623 20.5141 14.4623C20.1718 14.4338 19.8296 14.5194 19.5158 14.6334C19.2306 14.719 18.9739 14.8616 18.6887 15.0042C18.5461 15.0898 18.4034 15.1754 18.2894 15.2895C18.1182 15.4321 17.9756 15.5747 17.8045 15.7173C17.7474 15.7743 17.6904 15.8029 17.6333 15.8314C17.5763 15.8599 17.5192 15.8314 17.5192 15.7743C17.5192 15.7173 17.4907 15.6888 17.4907 15.6317C17.4907 15.5176 17.4907 15.4321 17.4907 15.318C17.4907 10.7829 17.4907 6.24779 17.4907 1.7127C17.4907 1.57008 17.4907 1.42747 17.4907 1.28486C17.4907 1.22781 17.4907 1.17077 17.4907 1.11372C17.4907 1.02815 17.5192 0.971107 17.6048 0.942585C17.6333 0.942585 17.6333 0.914062 17.6619 0.914062C18.0326 0.971108 18.4034 0.971108 18.7742 0.971108Z" fill="#0D1EF7"/>
<path d="M24.1376 22.5912C24.1376 23.8176 24.1376 25.0441 24.1376 26.2706C24.1376 26.3847 24.1376 26.5273 24.1376 26.6414C24.1376 26.6984 24.1376 26.7269 24.1091 26.784C24.0806 26.8696 24.0235 26.9266 23.938 26.9551C23.9094 26.9551 23.8809 26.9551 23.8239 26.9551C23.5101 26.9551 23.2249 26.9551 22.9112 26.9551C22.74 26.9551 22.6259 26.8696 22.6259 26.6699C22.6259 26.4988 22.6259 26.2991 22.6259 26.128C22.6259 23.9032 22.6259 21.6784 22.6259 19.4537C22.6259 19.254 22.6259 19.0544 22.5974 18.8547C22.5689 18.5695 22.4833 18.3128 22.3692 18.0561C22.2551 17.8564 22.1125 17.6853 21.9414 17.5427C21.8558 17.4856 21.7702 17.4286 21.6847 17.343C21.5135 17.2289 21.3424 17.1433 21.1713 17.1148C21.0001 17.0863 20.4867 17.0863 20.3156 17.1148C20.23 17.1433 20.1445 17.1719 20.0589 17.2004C19.4884 17.4856 19.1176 17.9135 18.975 18.5695C18.9465 18.7406 18.918 18.8832 18.918 19.0544C18.918 19.197 18.918 19.3396 18.918 19.4822C18.918 21.707 18.918 23.9317 18.918 26.185C18.918 26.3847 18.918 26.5558 18.8895 26.7555C18.8895 26.784 18.8895 26.8125 18.8895 26.8125C18.8895 26.8981 18.8039 26.9551 18.7183 26.9836C18.6898 26.9836 18.6613 26.9836 18.6328 26.9836C18.2905 26.9836 17.9767 26.9836 17.6345 26.9836C17.6059 26.9836 17.5774 26.9836 17.5774 26.9836C17.4633 26.9836 17.4063 26.9266 17.3778 26.8125C17.3778 26.6699 17.3492 26.5273 17.3492 26.3847C17.3492 26.0139 17.3492 25.6431 17.3492 25.2723C17.3492 23.2757 17.3492 21.3076 17.3492 19.3111C17.3492 18.8262 17.4063 18.3413 17.5489 17.8849C17.72 17.343 18.0053 16.8866 18.4616 16.5158C18.6328 16.3732 18.8324 16.2306 19.0036 16.088C19.2888 15.8598 19.6311 15.7457 19.9733 15.6602C20.1445 15.6316 20.3156 15.6031 20.4867 15.6031C20.6293 15.6031 20.772 15.6031 20.9146 15.6031C21.1142 15.6031 21.3424 15.6316 21.5421 15.6887C22.027 15.8028 22.4548 16.0024 22.7971 16.3447C23.0252 16.5729 23.2534 16.7725 23.4531 17.0293C23.7668 17.4571 23.995 17.942 24.0521 18.4839C24.0806 18.7121 24.0806 18.9688 24.0806 19.197C24.1376 20.2808 24.1376 21.4217 24.1376 22.5912Z" fill="#0D1EF7"/>
<path d="M10.6748 27.0408C9.39131 27.0408 8.1078 27.0408 6.8528 27.0408C6.68166 27.0408 6.51053 27.0408 6.31087 27.0123C5.91155 26.9838 5.51224 26.8982 5.11292 26.7841C4.48542 26.613 3.91497 26.3563 3.37304 25.9855C2.65997 25.5291 2.061 24.9016 1.63316 24.16C1.37646 23.7322 1.1768 23.3044 1.03419 22.8195C0.948618 22.4772 0.863049 22.1064 0.834526 21.7356C0.806004 21.3933 0.777481 21.0511 0.806004 20.7088C0.806004 20.5377 0.806004 20.3665 0.806004 20.1669C0.806004 20.0813 0.863049 19.9957 0.977139 19.9672C1.00566 19.9672 1.00566 19.9672 1.03419 19.9672C1.06271 19.9672 1.06271 19.9672 1.09123 19.9672C1.4335 19.9672 1.74725 19.9672 2.08952 19.9672C2.11804 19.9672 2.14657 19.9672 2.17509 19.9672C2.26066 19.9672 2.3177 20.0243 2.34623 20.1098C2.34623 20.1383 2.34623 20.1669 2.34623 20.2239C2.34623 20.3665 2.34623 20.5091 2.3177 20.6518C2.26066 21.0225 2.28918 21.3933 2.37475 21.7641C2.46032 22.2205 2.60293 22.6769 2.83111 23.1047C3.14486 23.6751 3.54418 24.16 4.05758 24.5308C4.34281 24.759 4.68508 24.9301 4.99883 25.1013C5.28406 25.2439 5.5978 25.3009 5.91155 25.358C6.28235 25.415 6.68166 25.4436 7.08098 25.4436C9.5054 25.4436 11.9013 25.4436 14.3257 25.4436C14.5539 25.4436 14.7536 25.4436 14.9817 25.4721C15.0103 25.4721 15.0103 25.4721 15.0388 25.4721C15.1244 25.4721 15.1529 25.5291 15.1814 25.5862C15.1814 25.6147 15.1814 25.6717 15.1814 25.7003C15.1814 26.0425 15.1814 26.3563 15.1814 26.6985C15.1814 26.7271 15.1814 26.7556 15.1814 26.7556C15.1814 26.8982 15.0958 26.9552 15.0103 26.9552C14.9817 26.9552 14.9532 26.9552 14.9247 26.9552C14.7821 26.9552 14.668 26.9552 14.5254 26.9552C13.2133 27.0408 11.9298 27.0408 10.6748 27.0408Z" fill="#DA0000"/>
<path d="M53.2308 12.8364C54.5144 12.8364 55.8264 12.8364 57.1099 12.8364C57.224 12.8364 57.3381 12.8364 57.4522 12.8364C57.4807 12.8364 57.5378 12.8364 57.5663 12.8364C57.7089 12.8649 57.7659 12.9219 57.7659 13.036C57.7659 13.0931 57.7659 13.1501 57.7659 13.2071C57.7659 13.4924 57.7659 13.7776 57.7659 14.0913C57.7659 14.234 57.6804 14.3195 57.5378 14.3195C57.4522 14.3195 57.3381 14.3195 57.2525 14.3195C56.568 14.3195 55.912 14.3195 55.2274 14.3195C53.3449 14.3195 51.491 14.3195 49.6085 14.3195C49.0665 14.3195 48.5246 14.4051 48.0112 14.5192C47.5548 14.6333 47.1555 14.8615 46.7562 15.1182C46.4139 15.3749 46.1287 15.6601 45.8435 15.9738C45.4442 16.4302 45.1875 16.9436 45.0449 17.5141C44.9593 17.8278 44.9022 18.1701 44.8737 18.5124C44.8452 18.712 44.8737 18.8831 44.8737 19.0828C44.8737 19.2254 44.9022 19.3966 44.9022 19.5392C44.9022 19.5677 44.9022 19.6247 44.9022 19.6533C44.8737 19.7388 44.8167 19.7959 44.7311 19.8244C44.7026 19.8244 44.6741 19.8244 44.6455 19.8244C44.3033 19.8244 43.9895 19.8244 43.6472 19.8244H43.6187C43.4476 19.8244 43.3905 19.7673 43.362 19.5962V19.5677C43.362 19.1969 43.3335 18.8261 43.3335 18.4553C43.3335 17.9419 43.4476 17.457 43.5902 17.0007C43.8184 16.2591 44.1892 15.5745 44.6741 14.9755C44.9593 14.6048 45.3016 14.291 45.6723 14.0343C46.4425 13.4638 47.2696 13.0931 48.2109 12.9219C48.5817 12.8364 48.9525 12.8078 49.3232 12.8078C50.6638 12.8364 51.9473 12.8364 53.2308 12.8364Z" fill="#0D1EF7"/>
<path d="M47.8969 27.0408C46.6419 27.0408 45.3869 27.0408 44.1604 27.0408C43.9893 27.0408 43.8467 27.0408 43.6755 27.0408C43.6185 27.0408 43.59 27.0408 43.5329 27.0123C43.4759 26.9838 43.4188 26.9267 43.4188 26.8697C43.4188 26.8412 43.4188 26.8127 43.4188 26.7556C43.4188 26.4419 43.4188 26.0996 43.4188 25.7858C43.4188 25.6147 43.5044 25.5291 43.6755 25.5291C43.9037 25.5291 44.1034 25.5291 44.3315 25.5291C46.756 25.5291 49.1519 25.5291 51.5763 25.5291C52.1182 25.5291 52.6316 25.4721 53.145 25.3295C53.7155 25.1869 54.2004 24.9016 54.6282 24.5308C54.8279 24.3597 55.0275 24.1886 55.1987 23.9889C55.5695 23.5896 55.8262 23.1047 55.9973 22.5913C56.1684 22.1064 56.254 21.6215 56.254 21.1367C56.254 21.0511 56.254 20.9655 56.254 20.9085C56.254 20.7088 56.254 20.4806 56.254 20.281V20.2525C56.254 20.1098 56.311 20.0528 56.4537 20.0243C56.4822 20.0243 56.5107 20.0243 56.5107 20.0243C56.8245 19.9958 57.1382 19.9958 57.452 20.0243C57.509 20.0243 57.5375 20.0243 57.5946 20.0528C57.6801 20.0813 57.7372 20.1384 57.7372 20.2239C57.7372 20.281 57.7657 20.3665 57.7657 20.4236C57.7942 20.6518 57.7942 20.8514 57.7942 21.0796C57.7942 21.2507 57.7942 21.3934 57.7942 21.5645C57.7372 22.4202 57.4805 23.1903 57.0812 23.9319C56.9385 24.2171 56.7389 24.5023 56.5107 24.759C56.2825 25.0157 56.0543 25.2724 55.7976 25.5577C55.7691 25.5862 55.7406 25.6147 55.7121 25.6432C55.3698 25.9285 54.999 26.1852 54.5997 26.3848C54.2289 26.5845 53.8581 26.7271 53.4588 26.8412C53.1165 26.9268 52.7742 27.0123 52.4034 27.0694C52.2038 27.0979 52.0041 27.0979 51.8045 27.0979C50.521 27.0408 49.2089 27.0408 47.8969 27.0408Z" fill="#0D1EF7"/>
<path d="M32.3512 27.0408C31.0962 27.0408 29.8412 27.0408 28.5862 27.0408C28.4436 27.0408 28.2725 27.0408 28.1299 27.0408C28.0728 27.0408 28.0443 27.0408 27.9873 27.0122C27.9017 26.9837 27.8732 26.9267 27.8732 26.8411C27.8732 26.8126 27.8732 26.7841 27.8732 26.7555C27.8732 26.4418 27.8732 26.128 27.8732 25.8143C27.8732 25.7858 27.8732 25.7572 27.8732 25.7287C27.8732 25.6146 27.9302 25.5576 28.0443 25.5291C28.0728 25.5291 28.1013 25.5291 28.1299 25.5291C28.3581 25.5291 28.5862 25.5291 28.8144 25.5291C31.2103 25.5291 33.6062 25.5291 36.0021 25.5291C36.544 25.5291 37.0575 25.472 37.5709 25.3294C38.0557 25.1868 38.5121 24.9586 38.9114 24.6449C39.1681 24.4452 39.4248 24.217 39.653 23.9603C40.0523 23.5325 40.309 23.0191 40.4802 22.4486C40.6513 21.9067 40.7083 21.3648 40.7083 20.7943C40.7083 20.5946 40.7083 20.4235 40.7083 20.2239C40.7083 20.1953 40.7083 20.1383 40.7369 20.1098C40.7654 20.0527 40.8224 20.0242 40.908 19.9957C40.965 19.9957 41.0506 19.9671 41.1077 19.9671C41.3644 19.9671 41.5925 19.9671 41.8493 19.9671C41.9348 19.9671 42.0204 19.9957 42.0774 19.9957C42.163 19.9957 42.1915 20.0527 42.22 20.1383C42.22 20.1668 42.2486 20.1953 42.2486 20.2524C42.2771 20.4806 42.2771 20.7087 42.3056 20.9369C42.3341 21.1936 42.3056 21.4503 42.2771 21.707C42.2486 21.8496 42.2486 21.9923 42.22 22.1349C42.163 22.5057 42.0204 22.8479 41.9063 23.1902C41.6781 23.7607 41.3929 24.3026 40.9936 24.7589C40.7654 25.0157 40.5657 25.2438 40.3376 25.5005C40.309 25.5291 40.2805 25.5576 40.252 25.5861C39.8812 25.8713 39.4819 26.1566 39.054 26.3847C38.6832 26.5844 38.2554 26.727 37.8561 26.8411C37.3142 26.9837 36.7722 27.0693 36.2018 27.0693C34.8897 27.0408 33.6062 27.0408 32.3512 27.0408Z" fill="#0D1EF7"/>
<path d="M37.7717 12.8364C39.0267 12.8364 40.2817 12.8364 41.5082 12.8364C41.6793 12.8364 41.8219 12.8364 41.993 12.8364C42.0216 12.8364 42.0501 12.8364 42.0786 12.8364C42.2212 12.865 42.2783 12.922 42.2783 13.0646C42.2783 13.3784 42.2783 13.6636 42.2783 13.9773C42.2783 14.0344 42.2783 14.0914 42.2783 14.1485C42.2783 14.2626 42.2212 14.3196 42.1071 14.3481C42.0786 14.3481 42.0501 14.3481 42.0216 14.3481C41.8219 14.3481 41.6223 14.3481 41.4226 14.3481C38.9982 14.3481 36.5452 14.3481 34.1208 14.3481C33.5789 14.3481 33.0655 14.4337 32.5521 14.5763C31.896 14.7475 31.3541 15.1183 30.8692 15.5746C30.8122 15.6317 30.7551 15.6887 30.6696 15.7458C30.3273 16.088 30.0421 16.4873 29.8424 16.9437C29.5572 17.5997 29.4146 18.2843 29.4431 18.9973C29.4431 19.197 29.4716 19.3966 29.4431 19.5963C29.4431 19.6248 29.4431 19.6533 29.4431 19.6819C29.4431 19.7674 29.386 19.8245 29.3005 19.853C29.2149 19.8815 29.1579 19.8815 29.0723 19.8815C28.8156 19.8815 28.5589 19.8815 28.3022 19.8815C28.2737 19.8815 28.2451 19.8815 28.1881 19.8815C28.1311 19.8815 28.1025 19.853 28.0455 19.853C27.9884 19.8245 27.9314 19.796 27.9314 19.7389C27.9314 19.6819 27.9029 19.6248 27.9029 19.5678C27.8744 19.3396 27.8743 19.0829 27.8458 18.8547C27.8458 18.7406 27.8458 18.6265 27.8458 18.4839C27.8743 18.2557 27.8743 18.0276 27.9314 17.7994C27.9599 17.6282 27.9884 17.4571 28.0455 17.3145C28.1311 17.0007 28.2451 16.7155 28.3592 16.4018C28.5304 15.9739 28.7871 15.6031 29.0723 15.2323C29.329 14.9186 29.5857 14.6334 29.8424 14.3481C29.8709 14.3196 29.8995 14.2911 29.928 14.2626C30.2702 13.9773 30.641 13.7206 31.0404 13.521C31.3826 13.3499 31.7249 13.2072 32.0672 13.0931C32.495 12.9791 32.9229 12.865 33.3792 12.8364C33.5504 12.8079 33.7215 12.8079 33.9211 12.8079C35.2332 12.8364 36.5167 12.8364 37.7717 12.8364Z" fill="#0D1EF7"/>
<path d="M10.647 12.8079C11.8735 12.8079 13.1285 12.8079 14.3549 12.8079C14.5261 12.8079 14.6972 12.8079 14.8683 12.8364C14.8969 12.8364 14.9254 12.8364 14.9539 12.8364C15.068 12.865 15.125 12.922 15.125 13.0361C15.125 13.0646 15.125 13.0931 15.125 13.1217C15.125 13.4354 15.125 13.7492 15.125 14.0629C15.125 14.12 15.125 14.1485 15.125 14.2055C15.0965 14.2911 15.0395 14.3481 14.9539 14.3767C14.8398 14.3767 14.7542 14.4052 14.6402 14.4052C14.0127 14.4052 13.3566 14.4052 12.7291 14.4052C10.8466 14.4052 8.96415 14.4052 7.08166 14.4052C6.71086 14.4052 6.34007 14.4337 5.96928 14.4908C5.45587 14.5763 4.97098 14.776 4.51462 15.0612C4.34349 15.1753 4.17235 15.2894 4.02974 15.4035C3.71599 15.6602 3.45929 15.9169 3.20258 16.2306C2.88883 16.6014 2.68918 17.0007 2.57509 17.4571C2.48952 17.7423 2.40395 17.999 2.37543 18.2843C2.37543 18.3698 2.3469 18.4554 2.3469 18.541C2.3469 18.5695 2.31838 18.598 2.31838 18.6265C2.28986 18.6836 2.23282 18.7406 2.14725 18.7406C2.11872 18.7406 2.0902 18.7406 2.06168 18.7406C1.71941 18.7406 1.40566 18.7406 1.06339 18.7406C0.892251 18.7406 0.835205 18.6551 0.835205 18.5124C0.863728 18.3128 0.863729 18.1131 0.892252 17.942C0.892252 17.8279 0.920773 17.7138 0.949296 17.5997C1.00634 17.3715 1.06339 17.1719 1.12043 16.9722C1.14895 16.8581 1.17748 16.7726 1.23452 16.6585C1.4627 16.1736 1.71941 15.6887 2.03316 15.2609C2.0902 15.1753 2.17577 15.0612 2.26134 14.9756C2.88883 14.2911 3.63042 13.7492 4.4861 13.3213C4.62871 13.2643 4.77133 13.2072 4.88542 13.1787C5.28473 13.0646 5.71257 12.9505 6.14041 12.8935C6.42564 12.865 6.68234 12.8364 6.96757 12.8364C8.16552 12.8079 9.39199 12.8079 10.647 12.8079Z" fill="#DA0000"/>
<path d="M10.9026 24.4738C9.6761 24.4738 8.4211 24.4738 7.19463 24.4738C7.13759 24.4738 7.08054 24.4738 7.0235 24.4738C6.76679 24.5023 6.51009 24.4738 6.28191 24.4168C5.88259 24.3312 5.5118 24.1886 5.16953 24.0174C4.85578 23.8463 4.59907 23.6467 4.37089 23.39C4.14271 23.1332 3.94305 22.848 3.77192 22.5628C3.7434 22.5057 3.71487 22.4202 3.68635 22.3631C3.51521 21.9638 3.42965 21.536 3.40112 21.0796C3.40112 20.7944 3.40112 20.5377 3.40112 20.2525C3.40112 20.2239 3.40112 20.1954 3.40112 20.1669C3.42965 20.0813 3.45817 20.0243 3.57226 19.9958C3.60078 19.9958 3.6293 19.9958 3.65783 19.9958C3.97158 19.9958 4.31385 19.9958 4.6276 19.9958C4.65612 19.9958 4.68464 19.9958 4.71317 19.9958C4.82726 19.9958 4.8843 20.0528 4.91282 20.1669C4.91282 20.281 4.94134 20.3666 4.94134 20.4806C4.94134 20.5947 4.94134 20.7373 4.94134 20.8514C4.94134 21.1081 4.99839 21.3363 5.08396 21.5645C5.22657 21.9638 5.48327 22.2776 5.82555 22.5343C5.88259 22.5628 5.93964 22.6198 5.99668 22.6484C6.36748 22.8195 6.73827 22.9336 7.13759 22.9336C7.25168 22.9336 7.33725 22.9336 7.45134 22.9336C9.76167 22.9336 12.0435 22.9336 14.3538 22.9336C14.5249 22.9336 14.7246 22.9336 14.8957 22.9336C14.9528 22.9336 14.9813 22.9336 15.0384 22.9336C15.1524 22.9621 15.2095 23.0192 15.2095 23.1332C15.2095 23.1618 15.2095 23.1903 15.2095 23.2188C15.2095 23.5326 15.2095 23.8178 15.2095 24.1315C15.2095 24.1886 15.2095 24.2171 15.181 24.2742C15.1524 24.3597 15.0954 24.3882 15.0098 24.4168C14.8672 24.4168 14.6961 24.4453 14.5535 24.4453C13.2985 24.4738 12.1005 24.4738 10.9026 24.4738Z" fill="#DA0000"/>
<path d="M47.8684 24.5023C46.6419 24.5023 45.3869 24.5023 44.1604 24.5023C43.9608 24.5023 43.7896 24.5023 43.59 24.4738C43.4759 24.4738 43.4188 24.4168 43.4188 24.3027C43.4188 24.2456 43.4188 24.2171 43.4188 24.1601C43.4188 23.8748 43.4188 23.5611 43.4188 23.2759V23.2473C43.4473 23.1047 43.4759 23.0192 43.647 23.0192C43.7896 23.0192 43.9322 23.0192 44.0748 23.0192C45.5295 23.0192 47.0127 23.0192 48.4673 23.0192C49.4371 23.0192 50.3783 23.0192 51.3481 23.0192C51.6333 23.0192 51.89 22.9906 52.1467 22.9336C52.8598 22.7339 53.3732 22.2776 53.6299 21.5645C53.687 21.3934 53.7155 21.2508 53.7155 21.0796C53.7155 20.88 53.7155 20.6518 53.7155 20.4521C53.7155 20.3951 53.7155 20.3095 53.7155 20.2525C53.744 20.0813 53.8011 20.0243 53.9722 20.0243C54.0007 20.0243 54.0007 20.0243 54.0292 20.0243C54.3145 20.0243 54.6282 20.0243 54.9134 20.0243C54.9705 20.0243 54.999 20.0243 55.056 20.0243C55.1701 20.0528 55.2272 20.1099 55.2557 20.1954C55.2557 20.281 55.2842 20.3666 55.2842 20.4807C55.3128 20.7659 55.3128 21.0511 55.2842 21.3363C55.2557 21.6216 55.1987 21.8783 55.0846 22.135C54.9705 22.4202 54.8279 22.7054 54.6567 22.9906C54.6282 23.0477 54.5712 23.1047 54.5426 23.1618C54.2859 23.4755 53.9722 23.7608 53.6014 23.9889C53.2591 24.1886 52.9169 24.3312 52.5461 24.4453C52.2608 24.5309 51.9756 24.5594 51.6904 24.5594C51.5478 24.5594 51.3766 24.5594 51.234 24.5594C50.0931 24.5023 48.9807 24.5023 47.8684 24.5023Z" fill="#0D1EF7"/>
<path d="M37.8574 15.3752C39.0838 15.3752 40.3103 15.3752 41.5368 15.3752C41.7364 15.3752 41.9076 15.3752 42.1072 15.4037C42.2213 15.4037 42.2784 15.4607 42.2784 15.5748C42.2784 15.6319 42.3069 15.7174 42.3069 15.7745C42.3069 16.0312 42.3069 16.2594 42.3069 16.5161C42.3069 16.5731 42.3069 16.6301 42.2784 16.6872C42.2498 16.7728 42.1928 16.8298 42.1072 16.8583C42.0787 16.8583 42.0217 16.8583 41.9931 16.8583C41.879 16.8583 41.7364 16.8583 41.6223 16.8583C39.1979 16.8583 36.802 16.8583 34.3776 16.8583C34.0068 16.8583 33.636 16.9154 33.2937 17.058C32.8088 17.2576 32.4381 17.5714 32.2099 18.0278C32.1528 18.1418 32.0958 18.2559 32.0673 18.37C32.0102 18.5697 31.9817 18.7693 31.9817 18.969C31.9817 19.1401 31.9817 19.3398 32.0102 19.5109C32.0102 19.568 32.0102 19.5965 32.0102 19.6535C31.9817 19.7676 31.9246 19.8247 31.8106 19.8532C31.782 19.8532 31.7535 19.8532 31.7535 19.8532C31.4398 19.8532 31.126 19.8532 30.8123 19.8532H30.7837C30.6126 19.8532 30.527 19.7676 30.527 19.5965C30.527 19.5109 30.4985 19.3968 30.4985 19.3113C30.4985 19.0546 30.47 18.7979 30.4985 18.5412C30.527 18.2559 30.5841 17.9992 30.6982 17.7425C30.8123 17.4573 30.9549 17.1721 31.126 16.9154C31.1545 16.8583 31.2116 16.7728 31.2686 16.7157C31.5539 16.3734 31.8676 16.0882 32.2384 15.8886C32.5807 15.6889 32.9515 15.5463 33.3223 15.4607C33.579 15.4037 33.8357 15.3752 34.0924 15.3752C34.235 15.3752 34.3776 15.3752 34.4917 15.3752C35.6041 15.3752 36.7164 15.3752 37.8574 15.3752Z" fill="#0D1EF7"/>
<path d="M48.0401 32.9734C48.2398 32.9449 48.4394 32.9449 48.6106 32.9164C48.6106 32.9449 48.6391 32.9734 48.6391 33.0019C48.6676 33.116 48.6961 33.2301 48.7247 33.3157C48.7817 33.5153 48.9243 33.6865 49.0955 33.8006C49.2666 33.9147 49.4662 34.0002 49.6659 34.0288C49.9797 34.0858 50.2934 34.0858 50.6072 34.0288C50.7498 34.0002 50.8639 33.9432 51.0065 33.8576C51.2061 33.715 51.3202 33.5439 51.3487 33.2872C51.3773 33.059 51.2917 32.8593 51.1206 32.7167C51.0065 32.6311 50.8924 32.5741 50.7498 32.5171C50.6072 32.46 50.4645 32.4315 50.3219 32.3744C50.0652 32.2889 49.8085 32.2318 49.5518 32.1748C49.3807 32.1177 49.2381 32.0607 49.0669 32.0036C48.8673 31.9181 48.6961 31.804 48.5535 31.6614C48.3539 31.4617 48.2398 31.205 48.2398 30.9198C48.2398 30.3779 48.468 29.9785 48.9528 29.7504C49.1525 29.6363 49.3807 29.5792 49.6089 29.5507C49.9511 29.5222 50.2649 29.5222 50.6072 29.6077C50.8068 29.6648 51.0065 29.7218 51.2061 29.8359C51.5484 30.0641 51.7481 30.3779 51.8336 30.7487C51.8621 30.8342 51.8621 30.9198 51.8621 31.0054C51.8621 31.0054 51.8336 31.0054 51.8336 31.0339C51.8051 31.0339 51.7766 31.0339 51.7195 31.0339C51.5769 31.0339 51.4058 31.0624 51.2632 31.0624C51.2632 31.0339 51.2346 31.0054 51.2346 30.9768C51.2061 30.8913 51.2061 30.8057 51.1776 30.7201C51.092 30.4634 50.8924 30.2638 50.6357 30.1782C50.4931 30.1212 50.3219 30.0926 50.1508 30.0926C49.9226 30.0641 49.7229 30.0926 49.4948 30.1497C49.3236 30.1782 49.181 30.2638 49.0384 30.4064C48.8958 30.5775 48.8388 30.7487 48.8673 30.9768C48.8958 31.148 48.9814 31.2621 49.124 31.3476C49.2095 31.4047 49.2951 31.4332 49.3807 31.4617C49.6089 31.5473 49.837 31.6043 50.0937 31.6614C50.379 31.7184 50.6642 31.804 50.9209 31.8896C51.1491 31.9751 51.3202 32.0607 51.5199 32.2033C51.7481 32.403 51.9192 32.6597 51.9477 32.9449C52.0048 33.4868 51.8336 33.9147 51.4058 34.2284C51.1776 34.3995 50.8924 34.5136 50.6072 34.5707C50.1223 34.6563 49.6374 34.6277 49.1525 34.4566C48.7247 34.314 48.4109 34.0573 48.2112 33.6865C48.0972 33.4583 48.0401 33.2016 48.0116 32.9449C48.0401 33.0019 48.0401 33.0019 48.0401 32.9734Z" fill="#0D1EF7"/>
<path d="M57.2817 31.0339C57.1962 31.0625 56.7683 31.091 56.6828 31.0625C56.6828 31.0339 56.6542 30.9769 56.6542 30.9484C56.6257 30.8913 56.6257 30.8343 56.5972 30.7772C56.5116 30.5205 56.312 30.3209 56.0553 30.2068C55.9127 30.1497 55.7415 30.1212 55.5989 30.1212C55.3707 30.0927 55.1711 30.1212 54.9429 30.1783C54.7718 30.2068 54.6006 30.2923 54.4865 30.435C54.3439 30.6061 54.2869 30.7772 54.3439 31.0054C54.3724 31.1765 54.458 31.2906 54.6006 31.3762C54.6862 31.4332 54.8003 31.4618 54.9144 31.5188C55.1711 31.6044 55.3992 31.6614 55.656 31.7185C55.8841 31.7755 56.1408 31.8611 56.369 31.9181C56.5687 31.9752 56.7398 32.0893 56.9109 32.2034C57.2817 32.5171 57.4529 32.9164 57.3673 33.3728C57.3103 33.7721 57.1106 34.0859 56.7683 34.314C56.5402 34.4566 56.2835 34.5707 56.0268 34.5993C55.5704 34.6848 55.114 34.6563 54.6862 34.5137C54.5436 34.4852 54.401 34.4281 54.2583 34.3426C53.8305 34.0858 53.5738 33.7151 53.4882 33.2302C53.4882 33.1446 53.4597 33.0876 53.4597 33.002C53.4597 32.9735 53.4597 32.9449 53.4597 32.9449C53.4882 32.9449 53.4882 32.9164 53.4882 32.9164C53.5168 32.9164 53.5453 32.9164 53.5453 32.9164C53.7164 32.9164 53.859 32.8879 54.0302 32.8879C54.0302 32.9164 54.0587 32.9449 54.0587 32.9735C54.0587 33.002 54.0587 33.059 54.0872 33.0876C54.1728 33.4584 54.3724 33.7151 54.7147 33.8862C54.9999 34.0288 55.2852 34.0573 55.5989 34.0573C55.7986 34.0573 55.9982 34.0288 56.1979 33.9432C56.312 33.9147 56.3975 33.8577 56.4831 33.7721C56.7113 33.5724 56.7969 33.3157 56.7113 33.0305C56.6828 32.8879 56.5687 32.7738 56.4546 32.6597C56.3405 32.5742 56.2264 32.5171 56.0838 32.4601C55.8841 32.403 55.656 32.346 55.4563 32.2889C55.1996 32.2319 54.9714 32.1463 54.7147 32.0893C54.6006 32.0607 54.4865 32.0037 54.401 31.9752C54.2298 31.8896 54.1157 31.804 53.9731 31.69C53.7164 31.4332 53.6308 31.1195 53.6594 30.7487C53.7164 30.2638 53.9731 29.9215 54.401 29.7219C54.6291 29.6078 54.8573 29.5508 55.0855 29.5508C55.3992 29.5222 55.713 29.5508 55.9982 29.6078C56.1979 29.6648 56.3975 29.7219 56.5687 29.836C56.9965 30.0927 57.1962 30.492 57.2532 30.9769C57.3103 31.0054 57.2817 31.0339 57.2817 31.0339Z" fill="#0D1EF7"/>
<path d="M43.1633 29.6363C43.1633 29.9786 43.1633 30.3209 43.1633 30.6632C43.1633 31.0054 43.1348 31.3192 43.1348 31.6614C43.1633 31.6614 43.1918 31.69 43.2203 31.69C43.3344 31.69 43.4485 31.69 43.5911 31.69C44.1616 31.69 44.732 31.7185 45.331 31.7185C45.4166 31.7185 45.5307 31.7185 45.6162 31.7185C45.6448 31.7185 45.6733 31.7185 45.7303 31.7185C45.7589 31.5759 45.7303 31.4618 45.7589 31.3192C45.7589 31.1766 45.7589 31.0625 45.7589 30.9199C45.7589 30.7772 45.7589 30.6346 45.7589 30.5205C45.7589 30.3779 45.7589 30.2638 45.7589 30.1212C45.7589 29.9786 45.7589 29.8645 45.7589 29.7219C45.7874 29.7219 45.7874 29.6934 45.7874 29.6934C45.987 29.6934 46.1867 29.6934 46.3578 29.6934C46.3864 29.7219 46.3864 29.779 46.3864 29.8075C46.3864 29.9216 46.3864 30.0642 46.3864 30.1783C46.3864 30.5491 46.3864 30.9484 46.3578 31.3192C46.3578 31.8326 46.3293 32.346 46.3293 32.8594C46.3293 33.3728 46.3008 33.8577 46.3008 34.3711C46.3008 34.4567 46.3008 34.5422 46.2723 34.6278C46.2437 34.6278 46.2152 34.6278 46.2152 34.6278C46.0441 34.6278 45.8444 34.6278 45.6733 34.6278C45.6733 34.5993 45.6733 34.5422 45.6733 34.5137C45.6733 34.2 45.6733 33.8862 45.7018 33.5725C45.7018 33.2872 45.7018 33.0305 45.7018 32.7453C45.7018 32.6312 45.7018 32.5456 45.7018 32.4316C45.7018 32.3745 45.7018 32.346 45.7018 32.2889C45.6448 32.2604 45.5877 32.2604 45.5307 32.2604C45.1599 32.2604 44.7891 32.2604 44.4183 32.2319C44.0475 32.2319 43.7052 32.2319 43.3344 32.2034C43.2774 32.2034 43.2203 32.2034 43.1348 32.2034C43.1063 32.2889 43.1063 32.3745 43.1063 32.4316C43.1063 32.8594 43.1063 33.2872 43.0777 33.7151C43.0777 33.9718 43.0777 34.2 43.0492 34.4281C43.0492 34.4281 43.0492 34.4567 43.0492 34.4852C43.0492 34.4852 43.0207 34.5137 42.9922 34.5137C42.821 34.5137 42.6214 34.5137 42.4502 34.5137H42.4217C42.3932 34.4852 42.3932 34.4281 42.3932 34.3996C42.3932 34.2 42.3932 34.0288 42.3932 33.8292C42.3932 33.6295 42.3932 33.4298 42.3932 33.2302C42.3932 32.8023 42.4217 32.346 42.4217 31.9181C42.4217 31.3477 42.4502 30.7487 42.4502 30.1783C42.4502 30.0357 42.4502 29.8645 42.4502 29.7219C42.4502 29.6934 42.4502 29.6649 42.4502 29.6363C42.5643 29.6078 42.6499 29.6078 42.764 29.6363C42.9351 29.6078 43.0492 29.6078 43.1633 29.6363Z" fill="#0D1EF7"/>
<path d="M4.71473 32.888C4.74326 32.888 4.77178 32.888 4.8003 32.888C4.97144 32.945 5.1711 32.9735 5.34223 33.0306C5.34223 33.0591 5.34223 33.0876 5.31371 33.1161C5.22814 33.3728 5.14257 33.601 4.99996 33.8007C4.68621 34.257 4.25837 34.5138 3.71644 34.5993C3.2886 34.6564 2.88929 34.6278 2.48997 34.5138C2.06213 34.3997 1.71986 34.143 1.46316 33.7722C1.29202 33.5155 1.17793 33.2302 1.09236 32.9165C0.978271 32.5172 0.949749 32.1179 1.00679 31.69C1.03532 31.4333 1.09236 31.1766 1.17793 30.9484C1.43463 30.2354 1.94804 29.779 2.68963 29.5793C3.08894 29.4652 3.48826 29.4652 3.88758 29.5508C4.5436 29.6934 4.97144 30.0927 5.22814 30.6917C5.25666 30.7773 5.28519 30.8629 5.31371 30.9484L5.28519 30.9769C5.11405 31.0055 4.94292 31.0625 4.74326 31.091C4.71473 31.091 4.68621 31.091 4.68621 31.091C4.65769 31.0625 4.65769 31.0055 4.62917 30.9769C4.57212 30.8629 4.5436 30.7773 4.48655 30.6632C4.28689 30.2924 3.97314 30.0927 3.54531 30.0357C3.31712 30.0072 3.08895 30.0072 2.88929 30.0642C2.4044 30.1783 2.06213 30.4635 1.891 30.9484C1.7769 31.2337 1.71986 31.5189 1.69134 31.8326C1.66281 32.1749 1.69134 32.4886 1.7769 32.8309C1.80543 32.9165 1.83395 33.0306 1.86247 33.1161C2.00509 33.5155 2.31883 33.8007 2.71815 33.9718C3.0319 34.0859 3.37417 34.1144 3.68792 34.0289C4.03019 33.9433 4.28689 33.7436 4.48655 33.4584C4.57212 33.3158 4.65769 33.1447 4.68621 33.0021C4.68621 33.0021 4.68621 32.945 4.71473 32.888Z" fill="#DA0000"/>
<path d="M33.3229 34.5993C33.2944 34.5993 33.2944 34.5993 33.2658 34.5993C33.0947 34.5993 32.895 34.5993 32.7239 34.5993C32.6669 34.5137 32.6383 34.4282 32.6383 34.3141C32.6383 34.257 32.6098 34.2285 32.6098 34.1714C32.5813 34.2 32.5528 34.2 32.5242 34.2C32.4387 34.257 32.3246 34.3426 32.239 34.3996C31.8682 34.5993 31.4689 34.6849 31.0696 34.6278C30.9555 34.5993 30.8129 34.5993 30.6988 34.5422C30.328 34.3996 30.0998 34.1144 30.0713 33.7436C30.0428 33.3443 30.1854 33.002 30.5277 32.7738C30.7273 32.6312 30.9555 32.5742 31.2122 32.5457C31.4404 32.5171 31.64 32.4886 31.8682 32.4601C32.0679 32.4316 32.2675 32.403 32.4387 32.346C32.4957 32.346 32.5242 32.3175 32.5813 32.289C32.6098 32.1178 32.6098 31.9752 32.5528 31.8326C32.5242 31.7185 32.4672 31.6329 32.3531 31.5759C32.2675 31.5474 32.2105 31.4903 32.1249 31.4618C31.8682 31.3762 31.583 31.3762 31.3263 31.4618C31.1552 31.5188 31.0125 31.6044 30.927 31.7755C30.8699 31.8611 30.8414 31.9752 30.7844 32.0608C30.6988 32.0893 30.5847 32.0323 30.4991 32.0323C30.4136 32.0037 30.2995 32.0323 30.2139 31.9752C30.271 31.7755 30.328 31.5759 30.4421 31.4333C30.5277 31.2907 30.6703 31.2051 30.8129 31.1195C30.984 31.034 31.1837 30.9769 31.3833 30.9484C31.6971 30.8913 32.0108 30.9199 32.3531 30.9769C32.4957 31.0054 32.6383 31.0625 32.7524 31.1195C33.0091 31.2621 33.1517 31.4903 33.2088 31.7755C33.2373 32.0037 33.2373 32.2034 33.2373 32.4316C33.2373 32.9165 33.2088 33.4299 33.2088 33.9147C33.2088 34.1429 33.2373 34.3711 33.3514 34.5708C33.3229 34.5708 33.3229 34.5993 33.3229 34.5993ZM32.5528 32.8309C32.4957 32.8309 32.4387 32.8594 32.3816 32.8594C32.0964 32.945 31.7827 32.9735 31.4974 33.0305C31.3263 33.0591 31.1837 33.0591 31.0411 33.1446C30.8414 33.2302 30.7273 33.3728 30.6988 33.601C30.6703 33.8292 30.7844 33.9718 30.9555 34.1144C31.0125 34.1714 31.0981 34.1714 31.1837 34.2C31.2978 34.2285 31.4119 34.2285 31.526 34.2285C31.7827 34.2 32.0108 34.1429 32.2105 33.9718C32.3531 33.8577 32.4672 33.6866 32.5242 33.4869C32.5528 33.3443 32.5813 33.1732 32.5813 33.0305C32.5813 32.945 32.5813 32.8879 32.5528 32.8309Z" fill="#DA0000"/>
<path d="M10.0206 32.7738C10.0206 33.002 9.99206 33.2016 9.96354 33.4298C9.82093 34.0573 9.45013 34.4281 8.82264 34.5992C8.45184 34.7133 8.08105 34.6848 7.73878 34.5707C7.22537 34.3996 6.8831 34.0288 6.74049 33.4869C6.65492 33.1731 6.65492 32.8308 6.68344 32.5171C6.71196 32.346 6.74049 32.1463 6.79753 31.9752C6.99719 31.3762 7.42503 31.0339 8.024 30.9483C8.30923 30.8913 8.59446 30.9198 8.85116 30.9769C9.45014 31.148 9.79241 31.5473 9.96354 32.1463C10.0206 32.346 10.0491 32.5456 10.0206 32.7738ZM7.31094 32.8023C7.31094 32.8879 7.31094 32.9735 7.31094 33.0305C7.33946 33.2302 7.36798 33.4298 7.48207 33.6295C7.82435 34.257 8.68002 34.314 9.10786 33.8291C9.22195 33.6865 9.30752 33.5154 9.36457 33.3442C9.45014 33.0305 9.45014 32.6882 9.42161 32.3745C9.39309 32.2033 9.33605 32.0607 9.279 31.9181C8.90821 31.2906 8.05253 31.2621 7.65321 31.747C7.53912 31.8611 7.48208 32.0037 7.42503 32.1463C7.31094 32.3745 7.28242 32.6027 7.31094 32.8023Z" fill="#DA0000"/>
<path d="M18.8619 31.9181C18.7478 31.9466 18.434 32.0036 18.2914 32.0036C18.2914 31.9751 18.2629 31.9181 18.2629 31.8895C18.2058 31.6614 18.0632 31.5188 17.8636 31.4617C17.6069 31.3761 17.3216 31.3761 17.0649 31.4617C16.9508 31.4902 16.8653 31.5473 16.8082 31.6328C16.6941 31.7755 16.6941 31.9751 16.8368 32.1177C16.8938 32.1748 16.9794 32.2318 17.0649 32.2603C17.2361 32.3174 17.4072 32.3744 17.5783 32.4315C17.8065 32.4885 18.0347 32.5741 18.2344 32.6311C18.3199 32.6597 18.4055 32.6882 18.4911 32.7452C18.8619 32.9164 19.0045 33.2586 18.976 33.658C18.9189 34.0002 18.7478 34.2854 18.434 34.4566C18.2344 34.5707 18.0062 34.6277 17.7495 34.6562C17.4928 34.6848 17.2646 34.6562 17.0079 34.5992C16.466 34.4851 16.1522 34.1428 16.0096 33.6294C16.0096 33.5724 15.9811 33.5439 15.9811 33.4868C16.0666 33.4583 16.1807 33.4583 16.2663 33.4298C16.3519 33.4298 16.466 33.4012 16.5515 33.4012C16.5515 33.4298 16.5801 33.4583 16.5801 33.4868C16.5801 33.5153 16.5801 33.5439 16.6086 33.5724C16.6941 33.8861 16.8938 34.0858 17.2076 34.1428C17.4072 34.1999 17.6354 34.1999 17.835 34.1428C17.9777 34.1143 18.1203 34.0573 18.2058 33.9432C18.2629 33.8861 18.2914 33.8006 18.3199 33.7435C18.377 33.5439 18.2914 33.3727 18.1203 33.2872C18.0632 33.2586 18.0062 33.2301 17.9206 33.2016C17.721 33.1445 17.4928 33.0875 17.2931 33.0019C17.122 32.9449 16.9223 32.8878 16.7512 32.8308C16.6656 32.8023 16.5801 32.7452 16.4945 32.7167C16.2378 32.5456 16.1237 32.3174 16.0952 32.0322C16.0666 31.5473 16.3804 31.2335 16.6656 31.0909C16.8368 31.0053 17.0364 30.9768 17.2076 30.9483C17.5213 30.9198 17.8065 30.9483 18.0918 31.0339C18.1203 31.0339 18.1773 31.0624 18.2058 31.0909C18.6337 31.2335 18.8048 31.5188 18.8619 31.9181Z" fill="#DA0000"/>
<path d="M35.0059 30.977C35.12 30.9485 35.4338 30.977 35.5193 30.977C35.5479 31.034 35.5193 31.1196 35.5193 31.2052C35.5193 31.2622 35.5193 31.3478 35.5193 31.4333C35.5479 31.4333 35.5479 31.4048 35.5764 31.4048L35.6049 31.3763C35.9187 31.0055 36.3465 30.8914 36.8029 30.9199C36.974 30.9484 37.1451 30.977 37.3163 31.0625C37.5444 31.1766 37.6871 31.3478 37.7726 31.5759C37.8297 31.7471 37.8582 31.9467 37.8582 32.1179C37.8582 32.4031 37.8582 32.6598 37.8582 32.945C37.8582 33.2588 37.8582 33.5725 37.8297 33.8863C37.8297 34.0859 37.8297 34.2856 37.8297 34.4567C37.8297 34.4853 37.8297 34.5138 37.8297 34.5708C37.7156 34.5993 37.3733 34.5993 37.2307 34.5708C37.2307 34.5708 37.2307 34.5423 37.2307 34.5138C37.2307 34.2286 37.2307 33.9719 37.2592 33.6866C37.2592 33.4014 37.2592 33.1447 37.2592 32.8595C37.2592 32.6598 37.2592 32.4602 37.2592 32.2605C37.2592 32.1464 37.2592 32.0608 37.2307 31.9467C37.1737 31.6615 37.0025 31.4904 36.7173 31.4333C36.4321 31.3763 36.1754 31.4333 35.9187 31.5759C35.776 31.6615 35.6905 31.7756 35.6334 31.9467C35.5764 32.1179 35.5479 32.3175 35.5193 32.5172C35.5193 32.7739 35.5193 33.0591 35.5193 33.3158C35.5193 33.6866 35.5193 34.0859 35.4908 34.4567C35.4908 34.4853 35.4908 34.5138 35.4908 34.5138L35.4623 34.5423C35.4338 34.5423 35.4053 34.5423 35.3767 34.5423C35.2056 34.5423 35.063 34.5423 34.8918 34.5138C34.8918 34.4853 34.8918 34.4282 34.8918 34.3997C34.8918 34.0859 34.8918 33.7722 34.8918 33.487C34.8918 33.0306 34.9204 32.5742 34.9204 32.1464C34.9204 31.7756 34.9489 31.3763 34.9489 31.0055C34.9774 31.0055 34.9774 31.0055 35.0059 30.977Z" fill="#DA0000"/>
<path d="M12.1304 34.5709C11.9307 34.5709 11.7311 34.5709 11.5599 34.5709C11.5599 34.5423 11.5599 34.5138 11.5599 34.4853C11.5599 34.143 11.5599 33.8293 11.5885 33.487C11.5885 33.3444 11.5885 33.2018 11.5885 33.0592C11.5885 32.7454 11.5885 32.4602 11.5885 32.1464C11.5885 31.7757 11.5885 31.4049 11.617 31.0626C11.617 31.0341 11.617 31.0341 11.617 31.0055C11.7025 30.977 11.7881 31.0055 11.9022 31.0055C11.9878 31.0055 12.0733 31.0055 12.1589 31.0341C12.1589 31.1767 12.1589 31.3193 12.1589 31.4619C12.1874 31.4904 12.1874 31.4619 12.216 31.4619C12.2445 31.4334 12.2445 31.4334 12.273 31.4049C12.5012 31.1196 12.8149 31.0055 13.1572 30.977C13.4139 30.9485 13.6706 31.0055 13.8988 31.0911C14.2411 31.2337 14.4407 31.519 14.4978 31.8897C14.5263 32.0038 14.5263 32.1179 14.5263 32.232C14.5263 32.6313 14.5263 33.0307 14.4978 33.43C14.4978 33.7722 14.4978 34.086 14.4692 34.4283C14.4692 34.5138 14.4692 34.5994 14.4692 34.685C14.3552 34.7135 14.0129 34.7135 13.8703 34.685C13.8703 34.6564 13.8703 34.6564 13.8703 34.6279C13.8703 34.3712 13.8703 34.143 13.8988 33.8863C13.8988 33.5726 13.8988 33.2588 13.9273 32.9736C13.9273 32.831 13.9273 32.6599 13.9273 32.5172C13.9273 32.4032 13.9273 32.2891 13.8988 32.175C13.8703 31.7471 13.585 31.576 13.2713 31.5475C13.0146 31.519 12.7864 31.576 12.5867 31.7186C12.4441 31.8042 12.3586 31.9183 12.3015 32.0609C12.2445 32.175 12.216 32.3176 12.216 32.4317C12.216 32.5743 12.1874 32.7454 12.1874 32.888C12.1874 33.2018 12.1874 33.487 12.1874 33.8008C12.1874 34.0575 12.1874 34.3427 12.1589 34.5994C12.1589 34.5138 12.1304 34.5423 12.1304 34.5709Z" fill="#DA0000"/>
<path d="M22.8558 31.0339C22.9699 31.0054 23.3121 31.0339 23.4548 31.0339C23.4548 31.0624 23.4548 31.091 23.4548 31.1195C23.4548 31.5188 23.4262 31.8896 23.4262 32.2889C23.4262 32.5741 23.4262 32.8594 23.4262 33.1446C23.4262 33.601 23.3977 34.0573 23.3977 34.5137C23.3977 34.5422 23.3977 34.5992 23.3977 34.6278C23.3121 34.6563 23.1125 34.6563 22.8843 34.6278C22.8843 34.5992 22.8558 34.5707 22.8558 34.5707C22.8558 34.4852 22.8558 34.3711 22.8558 34.2855C22.8558 34.257 22.8558 34.2284 22.8558 34.1714C22.8273 34.1999 22.8273 34.1999 22.7987 34.1999C22.7987 34.1999 22.7987 34.1999 22.7702 34.2284C22.485 34.5992 22.0857 34.7419 21.6293 34.7133C21.4011 34.7133 21.1729 34.6278 20.9733 34.5137C20.7166 34.3711 20.6025 34.1429 20.5454 33.8862C20.5169 33.715 20.4884 33.5439 20.4884 33.3728C20.4884 33.0305 20.4884 32.7168 20.5169 32.3745C20.5169 32.2033 20.5169 32.0037 20.5169 31.8326C20.5169 31.5758 20.5169 31.3191 20.5454 31.091C20.5454 31.0624 20.5454 31.0624 20.5454 31.0339C20.6595 31.0054 21.0018 31.0339 21.1444 31.0339C21.1444 31.0624 21.1444 31.091 21.1444 31.1195C21.1444 31.4332 21.1159 31.7185 21.1159 32.0322C21.1159 32.4886 21.1159 32.9449 21.1159 33.4298C21.1159 33.4869 21.1159 33.5724 21.1444 33.6295C21.2015 33.9147 21.4011 34.1429 21.7149 34.1714C21.9431 34.1999 22.1712 34.1714 22.3709 34.0288C22.542 33.9147 22.6846 33.7721 22.7417 33.5724C22.7987 33.4013 22.7987 33.2302 22.8273 33.059C22.8273 32.8879 22.8273 32.7168 22.8273 32.5456C22.8273 32.0893 22.8558 31.6329 22.8558 31.1765C22.8273 31.091 22.8558 31.0624 22.8558 31.0339Z" fill="#DA0000"/>
<path d="M28.8453 34.0862C28.8738 34.2573 28.9023 34.4284 28.9308 34.571L28.9023 34.5996C28.6456 34.6566 28.4174 34.6566 28.1607 34.5996C28.0752 34.571 28.0181 34.5425 27.9325 34.514C27.7899 34.4284 27.6758 34.3143 27.6758 34.1147C27.6473 33.915 27.6473 33.7154 27.6473 33.5442C27.6473 33.3731 27.6473 33.1734 27.6473 33.0023C27.6473 32.5174 27.6758 32.061 27.6758 31.5762C27.6758 31.5476 27.6758 31.5191 27.6758 31.4621C27.6473 31.4621 27.6188 31.4621 27.5903 31.4621C27.5047 31.4621 27.4191 31.4621 27.3336 31.4621C27.3051 31.4621 27.2765 31.4621 27.2195 31.4621C27.2195 31.348 27.2195 31.1198 27.2195 31.0057C27.3621 30.9772 27.5047 31.0057 27.6473 30.9772C27.6758 30.8346 27.6758 30.692 27.6758 30.5493C27.6758 30.4067 27.6758 30.2641 27.7044 30.1215C27.7899 30.0359 28.1893 29.8078 28.3033 29.7792C28.3319 29.8363 28.3033 29.9219 28.3033 29.9789C28.3033 30.0359 28.3033 30.1215 28.3033 30.1786C28.3033 30.2356 28.3033 30.3212 28.3033 30.3782C28.3033 30.4353 28.3033 30.5208 28.3033 30.5779C28.3033 30.6349 28.3033 30.7205 28.3033 30.7775C28.3033 30.8346 28.3033 30.9201 28.3033 30.9772C28.503 31.0057 28.7027 30.9772 28.8738 31.0057C28.9023 31.0913 28.9023 31.2624 28.8738 31.4621C28.7882 31.4906 28.6741 31.4621 28.5886 31.4621C28.503 31.4621 28.3889 31.4621 28.3033 31.4621C28.3033 31.4906 28.3033 31.5191 28.3033 31.5476C28.3033 31.8899 28.2748 32.2322 28.2748 32.5745C28.2748 32.9167 28.2748 33.2305 28.2748 33.5727C28.2748 33.6583 28.2748 33.7154 28.2748 33.8009C28.2748 33.9435 28.3604 34.0291 28.503 34.0576C28.56 34.0576 28.6456 34.0862 28.7027 34.0576C28.7312 34.0576 28.7882 34.0576 28.8453 34.0862Z" fill="#DA0000"/>
<path d="M39.7417 31.4617C39.5991 31.4332 39.4565 31.4617 39.3138 31.4332C39.3138 31.4047 39.3138 31.4047 39.3138 31.4047C39.3138 31.2621 39.3138 31.148 39.3138 31.0054C39.3424 31.0054 39.3709 31.0054 39.3994 31.0054C39.485 31.0054 39.5705 31.0054 39.6561 31.0054C39.6846 31.0054 39.7132 31.0054 39.7417 31.0054C39.7702 30.8627 39.7417 30.7201 39.7702 30.5775C39.7702 30.4349 39.7702 30.2923 39.7702 30.1497C39.8272 30.0926 39.8843 30.0641 39.9699 30.0356C40.0269 30.0071 40.1125 29.95 40.1695 29.9215C40.2266 29.893 40.2836 29.8359 40.3692 29.8074C40.3977 29.9215 40.3692 30.0071 40.3692 30.1212C40.3692 30.2352 40.3692 30.3208 40.3692 30.4349C40.3692 30.549 40.3692 30.6346 40.3692 30.7487C40.3692 30.8627 40.3692 30.9483 40.3692 31.0624C40.5688 31.0909 40.7685 31.0624 40.9396 31.0909C40.9682 31.1765 40.9682 31.4047 40.9396 31.5473C40.74 31.5758 40.5403 31.5188 40.3692 31.5473C40.3407 31.6043 40.3407 31.6329 40.3407 31.6899C40.3407 31.861 40.3407 32.0322 40.3407 32.2318C40.3407 32.7167 40.3121 33.2301 40.3121 33.715C40.3121 33.772 40.3121 33.8291 40.3121 33.8861C40.3407 34.0288 40.3977 34.1143 40.5403 34.1428C40.6259 34.1428 40.6829 34.1428 40.7685 34.1428C40.797 34.1428 40.8541 34.1428 40.8826 34.1428C40.9111 34.2284 40.9682 34.5136 40.9682 34.6562C40.9396 34.6562 40.8826 34.6848 40.8541 34.6848C40.6259 34.7133 40.4262 34.7133 40.198 34.6848C40.1125 34.6562 40.0269 34.6277 39.9699 34.5707C39.8272 34.4851 39.7417 34.3425 39.7132 34.1714C39.6846 33.9717 39.6846 33.772 39.6846 33.5724C39.6846 32.9164 39.7132 32.2603 39.7132 31.6043C39.7702 31.5188 39.7417 31.5188 39.7417 31.4617Z" fill="#DA0000"/>
<path d="M25.2518 29.6078C25.4515 29.6078 25.6511 29.6078 25.8223 29.6363C25.8223 29.6649 25.8508 29.6649 25.8508 29.6649C25.8508 30.1497 25.8508 30.6632 25.8223 31.148C25.7938 32.2889 25.7938 33.4298 25.7652 34.5708C25.6511 34.5993 25.3374 34.5993 25.1663 34.5708C25.1663 34.5422 25.1663 34.5137 25.1663 34.4852C25.1663 34.2855 25.1663 34.0573 25.1663 33.8577C25.1663 33.7151 25.1663 33.5439 25.1663 33.4013C25.1663 33.0876 25.1663 32.8023 25.1663 32.4886C25.1663 31.9752 25.1948 31.4618 25.1948 30.9769C25.1948 30.5776 25.1948 30.1783 25.2233 29.8075C25.2233 29.7504 25.2233 29.6934 25.2518 29.6078Z" fill="#DA0000"/>
</svg>
