<svg width="82" height="38" viewBox="0 0 82 38" fill="none" xmlns="http://www.w3.org/2000/svg">
<path d="M19.1247 23.1362C17.8348 23.1362 16.8029 22.6203 16.2133 21.699C15.8448 21.1093 15.6237 20.3354 15.6237 19.4141C15.6237 18.4928 15.8448 17.7189 16.2133 17.1292C16.8029 16.2079 17.8348 15.692 19.1247 15.692C20.5619 15.692 21.8517 16.3553 22.6625 17.1292L23.7681 15.3603C22.7362 14.3653 20.9673 13.4808 19.0509 13.4808C18.8298 13.4808 18.6456 13.4808 18.4245 13.5177C15.3288 13.7756 13.1177 15.9131 13.1177 19.4141C13.1177 22.8782 15.3288 25.0525 18.4245 25.3105C18.6456 25.3105 18.8298 25.3474 19.0509 25.3474C20.9673 25.3474 22.7362 24.4629 23.7681 23.4679L22.6625 21.699C21.8517 22.4729 20.5619 23.1362 19.1247 23.1362Z" fill="#CA000E"/>
<path d="M30.5493 13.4808C33.9397 13.4808 36.4825 16.0236 36.4825 19.4141C36.4825 22.7677 33.9397 25.3105 30.5493 25.3105C27.1957 25.3105 24.6528 22.7677 24.6528 19.4141C24.6528 16.0236 27.1957 13.4808 30.5493 13.4808ZM30.5861 23.1362C32.6867 23.1362 34.1608 21.5147 34.1608 19.4509C34.1608 17.3503 32.6867 15.7657 30.5861 15.7657C28.4855 15.7657 27.0114 17.3503 27.0114 19.4509C26.9745 21.5147 28.4855 23.1362 30.5861 23.1362Z" fill="#CA000E"/>
<path d="M40.4997 17.424V25.1631H38.1411V13.665H40.2049L46.6909 21.4041V13.665H49.0495V25.1631H46.9857L40.4997 17.424Z" fill="#CA000E"/>
<path d="M61.6904 13.6651L57.3787 18.7876L53.1038 13.6651H50.9663V25.1631H53.3249V17.3872L57.3787 22.2886L61.4693 17.3872V25.1631H63.8279V13.6651H61.6904Z" fill="#CA000E"/>
<path d="M68.1022 13.6651H65.7437V25.1631H68.1022V13.6651Z" fill="#CA000E"/>
<path d="M81.6644 13.6651H78.8268L75.768 17.6452L72.7461 13.6651H69.9084L74.1096 19.3035L69.8716 25.1631H72.7829L75.768 20.9988L78.7899 25.1631H81.6644L77.4264 19.3035L81.6644 13.6651Z" fill="#CA000E"/>
<path d="M9.39616 28.2219V10.6063L0.588379 19.4141L9.39616 28.2219ZM3.20491 19.4141L7.51667 15.1023V23.7627L3.20491 19.4141Z" fill="#CA000E"/>
<path d="M27.9332 29.1063H10.2808L19.0885 37.9141L27.9332 29.1063ZM19.1254 35.3344L14.8136 31.0227H23.4371L19.1254 35.3344Z" fill="#CA000E"/>
<path d="M10.2808 9.72184H27.9332L19.1254 0.914062L10.2808 9.72184ZM19.1254 3.49375L23.4371 7.8055H14.7768L19.1254 3.49375Z" fill="#CA000E"/>
</svg>
