<svg width="65" height="38" viewBox="0 0 65 38" fill="none" xmlns="http://www.w3.org/2000/svg">
<path d="M4.96555 15.5521C1.95695 15.5521 0.626221 17.2878 0.626221 20.9907C0.626221 24.8094 1.92802 26.4294 5.39948 26.4294C6.73021 26.4294 7.88737 26.169 8.69737 25.764C8.49487 25.2722 7.97415 25.0119 7.48236 25.1565C6.96164 25.3011 6.38306 25.3879 5.65984 25.3879C3.49018 25.3879 2.47767 24.3754 2.41981 21.2222H9.18917C9.16024 17.0275 8.00308 15.5521 4.96555 15.5521ZM2.41981 20.2964C2.5066 17.5482 3.31661 16.391 4.96555 16.391C6.70128 16.391 7.39558 17.5482 7.39558 20.2964H2.41981Z" fill="#808184"/>
<path d="M17.9835 11.2128V15.8993C17.1156 15.6968 16.2767 15.5811 15.6402 15.5811C12.487 15.5811 11.0695 17.1432 11.0695 21.0197C11.0695 24.9251 12.458 26.4583 15.6981 26.4583C17.1445 26.4583 18.4752 26.2558 19.7481 25.793V12.9486C19.7192 11.965 18.9381 11.2128 17.9835 11.2128ZM17.9835 25.1855C17.4049 25.388 16.5659 25.5037 15.9006 25.5037C13.702 25.5037 12.8341 24.3465 12.8341 20.9908C12.8341 17.635 13.702 16.5068 15.9006 16.5068C16.5659 16.5068 17.4049 16.6225 17.9835 16.7961V25.1855Z" fill="#808184"/>
<path d="M25.5342 26.4294C27.1253 26.4294 28.6296 26.1112 30.0182 25.6772V17.5772C30.0182 16.5936 29.2371 15.8125 28.2535 15.8125V25.1855C27.4724 25.359 26.6335 25.5037 25.8235 25.5037C23.972 25.5037 23.3356 24.7226 23.3356 22.9579V17.5772C23.3356 16.6225 22.5545 15.8414 21.5999 15.8414V22.9579C21.5999 25.3012 22.7281 26.4294 25.5342 26.4294Z" fill="#808184"/>
<path d="M36.3825 26.4294C37.3661 26.4294 38.2918 26.1979 38.8126 25.9087V25.8797C38.6679 25.4169 38.1761 25.1565 37.6843 25.2433C37.395 25.3012 37.0479 25.3301 36.6718 25.3301C34.2996 25.3301 33.6054 23.9704 33.6054 20.9908C33.6054 17.8664 34.4154 16.5936 36.6718 16.5936C37.019 16.5936 37.3661 16.6225 37.6554 16.7093C38.1472 16.825 38.639 16.5357 38.8126 16.0439C38.2629 15.7836 37.3661 15.5232 36.3825 15.5232C33.1136 15.5232 31.8118 17.2011 31.8118 20.9618C31.8118 24.8672 33.1714 26.4294 36.3825 26.4294Z" fill="#808184"/>
<path d="M44.5988 19.9782C41.4167 19.9782 40.1438 20.9618 40.1438 23.2183C40.1438 25.4747 41.1563 26.4005 44.0492 26.4005C45.1196 26.4005 46.161 26.2558 47.0289 26.0533C47.5785 25.9087 47.9546 25.4169 47.9546 24.8672V18.9079C47.9546 16.7093 46.7974 15.5811 44.0781 15.5811C42.8342 15.5811 41.5613 15.8703 40.6645 16.2464C40.8381 16.7382 41.3299 16.9986 41.8217 16.8829C42.3713 16.7382 42.9499 16.6514 43.4996 16.6514C45.5246 16.6514 46.2189 17.3168 46.2189 19.0525V20.0072H44.5988V19.9782ZM46.2478 25.2433C45.756 25.3879 44.9171 25.5326 44.2228 25.5326C42.5738 25.5326 41.8795 24.9251 41.8795 23.1893C41.8795 21.4825 42.7763 20.8461 44.6856 20.8461H46.2767V25.2433H46.2478Z" fill="#808184"/>
<path d="M49.9211 30.7976C50.9047 30.7976 51.6858 30.0165 51.6858 29.0329V26.4583C51.1072 26.8633 50.5286 27.2683 49.9211 27.6733V30.7976Z" fill="#808184"/>
<path d="M56.7479 22.3213C56.5164 24.6645 55.5907 25.5035 53.7393 25.5035C53.5078 25.5035 53.2764 25.5035 53.0161 25.4745C52.6978 25.706 52.3796 25.9663 52.0325 26.1978C52.7557 26.3424 53.45 26.4292 53.9996 26.4292C57.1529 26.4292 58.5704 24.896 58.5704 20.9906C58.5704 20.817 58.5704 20.6434 58.5704 20.4988C57.9918 21.1063 57.3843 21.7138 56.7479 22.3213Z" fill="#808184"/>
<path d="M63.5754 4.9641C62.6208 3.08373 60.7404 1.69514 58.05 0.914062C60.0461 1.89764 61.6083 3.34409 62.4472 5.02196C63.1994 6.55519 63.2283 8.40664 62.534 10.5474C61.8397 12.6013 60.509 14.8288 58.5707 17.1432C58.3972 17.3457 58.2236 17.5482 58.05 17.7507C57.3847 16.2174 56.0539 15.581 53.9421 15.581C52.4957 15.581 51.1939 15.8124 49.8921 16.2464V24.8961C47.1438 26.8343 44.1063 28.6569 40.8373 30.3058C34.5309 33.459 27.4433 36.2073 21.1368 37.9141C27.3565 37.3644 34.5309 35.1948 41.5027 31.6944C57.1532 23.8836 67.0469 11.907 63.5754 4.9641ZM51.6857 23.5943V16.796C52.2642 16.6224 53.0743 16.5067 53.7396 16.5067C55.4753 16.5067 56.4011 17.2299 56.6904 19.1971C55.215 20.7014 53.5082 22.1768 51.6857 23.5943Z" fill="#808184"/>
</svg>
