<?xml version="1.0" encoding="UTF-8"?>
<svg xmlns="http://www.w3.org/2000/svg" version="1.1" viewBox="0 0 100 21">
  <defs>
    <style>
      .cls-1 {
        fill: #2fb252;
      }

      .cls-2 {
        fill: #03405f;
      }

      .cls-3 {
        fill: #8ec863;
      }

      .cls-4 {
        fill: #1a9ad6;
      }
    </style>
  </defs>
  <!-- Generator: Adobe Illustrator 28.6.0, SVG Export Plug-In . SVG Version: 1.2.0 Build 709)  -->
  <g>
    <g id="Layer_1">
      <g>
        <path class="cls-2" d="M27.2,12.9c-.5,0-.8-.3-.8-.8V3.7c0-.2,0-.4.3-.6.2-.1.4-.2.6-.2h7.7c.6,0,.8.4.8.7s-.2.7-.8.7h-6.9v3h5.7c.6,0,.8.4.8.7s-.2.7-.8.7h-5.7v3.4c0,.5-.3.8-.8.8"/>
        <path class="cls-2" d="M47,12.9c-.3,0-.5-.1-.7-.3l-3.3-3.5h-3.4v3.1c0,.5-.3.8-.8.8s-.8-.3-.8-.8V3.7c0-.2,0-.4.3-.6.2-.1.4-.2.6-.2h5.1c1.2,0,2.1.3,2.8.8.7.5,1,1.3,1,2.3s-.3,1.7-.9,2.2c-.5.4-1.1.6-1.8.8l2.6,2.7c.2.2.2.4.2.5s0,.4-.2.6c-.1,0-.3.2-.6.2M43.8,7.6c2,0,2.2-.9,2.2-1.7s-.2-1.7-2.2-1.7h-4.2v3.3h4.2Z"/>
        <path class="cls-2" d="M51.3,12.8c-.2,0-.4,0-.6-.2-.2-.1-.3-.3-.3-.6V3.7c0-.2,0-.4.3-.6.2-.1.4-.2.6-.2h7.8c.6,0,.8.4.8.7s-.2.7-.8.7h-7v2.8h5.9c.6,0,.8.4.8.7s-.2.7-.8.7h-5.9v2.9h7c.6,0,.8.4.8.7s-.2.7-.8.7h-7.8Z"/>
        <path class="cls-2" d="M67.1,13c-1.2,0-2.2-.1-3-.4-.9-.3-1.5-.7-2-1.3-.1-.1-.2-.3-.2-.5s0-.4.3-.5c.1-.1.3-.2.6-.2s.5,0,.6.3c.3.4.8.7,1.4.9.6.2,1.4.3,2.4.3s1.9-.2,2.4-.5c.5-.3.8-.7.8-1.2s0-.4-.1-.5c0-.1-.2-.3-.5-.4-.3-.1-.6-.2-1.1-.3-.5,0-1.1-.1-1.7-.1-.8,0-1.6,0-2.1-.1-.6,0-1.1-.2-1.5-.4-.4-.2-.7-.5-.9-.8-.2-.3-.3-.7-.3-1.2s.1-.9.4-1.3c.2-.4.6-.7,1-1,.4-.3.9-.5,1.5-.6.6-.1,1.2-.2,1.9-.2s1.8.1,2.6.4c.8.2,1.4.6,1.8,1.1.1.1.2.3.2.5s0,.4-.2.5c-.1.1-.3.2-.5.2-.3,0-.5-.1-.6-.3-.3-.3-.7-.5-1.3-.7-.6-.2-1.2-.3-2-.3s-1,0-1.4.1c-.4,0-.7.2-1,.4-.3.2-.5.3-.6.5-.1.2-.2.4-.2.7s0,.4.1.5c0,.1.2.2.4.3.2.1.6.2,1,.2.4,0,1,0,1.7,0,.9,0,1.6,0,2.2.2.6.1,1.2.3,1.5.5.4.2.7.5.9.9.2.4.3.8.3,1.3s-.1,1-.4,1.4c-.2.4-.6.7-1,1-.4.3-.9.5-1.5.6-.6.1-1.2.2-2,.2"/>
        <path class="cls-2" d="M80.1,13c-.9,0-1.7-.1-2.4-.4-.7-.2-1.3-.6-1.9-1-.5-.5-.9-1-1.2-1.6-.3-.6-.4-1.3-.4-2.1s.1-1.5.4-2.1c.3-.6.7-1.2,1.2-1.6.5-.4,1.1-.8,1.9-1,.7-.2,1.5-.4,2.4-.4s1.9.2,2.7.5c.8.3,1.5.8,2,1.3.1.1.2.3.2.5s0,.4-.2.5c-.1.1-.3.2-.6.2s-.5-.1-.7-.3c-.4-.4-.8-.8-1.4-1-.6-.2-1.3-.4-2-.4s-1.2,0-1.8.3c-.5.2-1,.4-1.3.8-.4.3-.7.7-.9,1.2-.2.4-.3,1-.3,1.5s.1,1.1.3,1.5c.2.4.5.8.9,1.2.4.3.8.6,1.3.8.5.2,1.1.3,1.8.3s1.5-.1,2-.4c.6-.2,1.1-.6,1.5-1.1.2-.2.4-.3.7-.3s.5.1.6.2c.1.1.2.3.2.5s0,.3-.1.4c0,0,0,0,0,0-.5.6-1.2,1.1-2,1.5-.8.4-1.8.5-2.8.5"/>
        <path class="cls-2" d="M93.1,13c-.9,0-1.7-.1-2.4-.4-.7-.2-1.3-.6-1.9-1-.5-.5-.9-1-1.2-1.6-.3-.6-.4-1.3-.4-2.1s.1-1.5.4-2.1c.3-.6.7-1.2,1.2-1.6.5-.4,1.1-.8,1.9-1,.7-.2,1.5-.4,2.4-.4s1.6.1,2.4.4c.7.2,1.3.6,1.9,1,.5.4.9,1,1.2,1.6.3.6.4,1.3.4,2.1s-.1,1.5-.4,2.1c-.3.6-.7,1.2-1.2,1.6-.5.5-1.2.8-1.9,1-.7.2-1.5.4-2.4.4M93.1,4.2c-.6,0-1.2,0-1.8.3-.5.2-1,.4-1.3.8-.4.3-.7.7-.9,1.2-.2.4-.3,1-.3,1.5s.1,1.1.3,1.5c.2.4.5.8.9,1.2.4.3.8.6,1.3.8.5.2,1.1.3,1.8.3s1.2,0,1.8-.3c.5-.2,1-.4,1.3-.8.4-.3.7-.7.9-1.2.2-.4.3-1,.3-1.5s-.1-1.1-.3-1.5c-.2-.4-.5-.8-.9-1.2-.4-.3-.8-.6-1.3-.8-.5-.2-1.1-.3-1.8-.3"/>
        <polygon class="cls-2" points="69.1 15.8 69.1 15.8 69.1 15.8 69.1 15.8"/>
        <polygon class="cls-2" points="68.9 15.8 68.9 15.8 68.8 15.8 68.9 15.8"/>
        <path class="cls-2" d="M70.6,15.8c0,0-.1,0-.1.1v1.7l-1.4-1.8h0s0,0,0,0h0s0,0,0,0h0s0,0,0,0h0s0,0,0,0h0s0,.1,0,.1v2.1c0,0,0,.1.1.1s.1,0,.1-.1v-1.7l1.4,1.8h0s0,0,0,0h0s0,0,0,0c0,0,0,0,0,0h0s0,0,0,0c0,0,0,0,0,0h0s0,0,0,0h0s0,0,0,0h0s0-2.2,0-2.2c0,0,0-.1-.1-.1"/>
        <path class="cls-2" d="M74.8,18.1v-.9h.6c.4,0,.7-.3.7-.7s-.3-.7-.7-.7h-.7s0,0,0,0c0,0-.1,0-.1.1v2.1c0,0,0,.1.1.1s.1,0,.1-.1M74.8,16.1h.6c.2,0,.4.2.4.4s-.2.4-.4.4h-.6v-.8Z"/>
        <path class="cls-2" d="M61.3,18.2c.4,0,.9-.3.9-.8v-1.4c0,0,0-.1-.1-.1s-.1,0-.1.1v1.4c0,.3-.3.5-.6.5s-.6-.2-.6-.5v-1.4c0,0,0-.1-.1-.1s-.1,0-.1.1v1.4c0,.5.5.8.9.8"/>
        <path class="cls-2" d="M63.7,18.1v-2h.6c0,0,.1,0,.1-.1s0-.1-.1-.1h-1.5c0,0-.1,0-.1.1s0,.1.1.1h.6v2c0,0,0,.1.1.1s.1,0,.1-.1"/>
        <path class="cls-2" d="M67.1,15.8c-.7,0-1.2.5-1.2,1.2s.5,1.2,1.2,1.2,1.2-.5,1.2-1.2-.5-1.2-1.2-1.2M67.1,17.9c-.5,0-.9-.4-.9-.9s.4-.9.9-.9.9.4.9.9-.4.9-.9.9"/>
        <path class="cls-2" d="M80.6,18.2c0,0,0-.1,0-.2l-.5-.9h0c.3-.1.4-.4.4-.6,0-.4-.3-.7-.7-.7h-.7s0,0,0,0c0,0-.1,0-.1.1v2.1c0,0,0,.1.1.1s.1,0,.1-.1v-.9h.5l.5,1c0,0,0,0,.1,0s0,0,0,0M79.4,16.9v-.8h.6c.2,0,.4.2.4.4s-.2.4-.4.4h-.6Z"/>
        <path class="cls-2" d="M87.1,18.2c0,0,.1,0,.1-.1s0-.1-.1-.1h-1v-.8h1c0,0,.1,0,.1-.1s0-.1-.1-.1h-1v-.8h1c0,0,.1,0,.1-.1s0-.1-.1-.1h-1.2c0,0-.1,0-.1.1v2.1c0,0,0,.1.1.1h1.2Z"/>
        <path class="cls-2" d="M76.6,18.2l.3-.6h0s1.2,0,1.2,0h0s.3.6.3.6c0,0,0,0,0,0,0,0,0,0,.1,0,0,0,0,0,0,0,0,0,0,0,0-.1l-1.1-2.1s0,0-.1,0c0,0,0,0-.1,0l-1,2.1c0,0,0,.1,0,.2,0,0,.1,0,.2,0M77.4,16.3l.5,1h-1l.5-1Z"/>
        <polygon class="cls-2" points="83.4 15.8 83.4 15.8 83.4 15.8 83.4 15.8"/>
        <path class="cls-2" d="M89.1,18.2h0c0,0,0-.1,0-.2l-.5-.9h0c.3-.1.4-.4.4-.6,0-.4-.3-.7-.7-.7h-.7s0,0,0,0c0,0-.1,0-.1.1v2.1c0,0,0,.1.1.1s.1,0,.1-.1v-.9h.5l.5,1c0,0,0,0,.1,0s0,0,0,0M87.9,16.9v-.8h.6c.2,0,.4.2.4.4s-.2.4-.4.4h-.6Z"/>
        <path class="cls-2" d="M85.2,15.8c0,0-.1,0-.1.1v1.7l-1.4-1.8h0s0,0,0,0h0s0,0,0,0h0s0,0,0,0h0s0,0,0,0h0s0,.1,0,.1v2.1c0,0,0,.1.1.1s.1,0,.1-.1v-1.7l1.4,1.8h0s0,0,0,0h0s0,0,0,0c0,0,0,0,0,0h0s0,0,0,0c0,0,0,0,0,0h0s0,0,0,0h0s0,0,0,0h0s0-2.2,0-2.2c0,0,0-.1-.1-.1"/>
        <path class="cls-2" d="M82.2,18.1v-2h.6c0,0,.1,0,.1-.1s0-.1-.1-.1h-1.5c0,0-.1,0-.1.1s0,.1.1.1h.6v2c0,0,0,.1.1.1s.1,0,.1-.1"/>
        <path class="cls-2" d="M60,18.1c0,0,0-.1-.1-.1h-1s0-2,0-2c0,0,0-.1-.1-.1s-.1,0-.1.1v2.1s0,0,0,0c0,0,0,0,0,0h1.2c0,0,.1,0,.1-.1"/>
        <polygon class="cls-2" points="83.7 15.8 83.7 15.8 83.7 15.8 83.7 15.8"/>
        <path class="cls-2" d="M72.3,18.2c0,0,.1,0,.2,0,.3,0,.6-.3.6-.6,0-.3-.2-.6-.5-.7h0c0,0-.2,0-.2,0h0c-.1,0-.3,0-.4,0-.1,0-.2-.2-.2-.4,0-.2.2-.3.4-.3.2,0,.5,0,.6.2,0,0,.1,0,.2,0,0,0,0-.1,0-.2-.2-.2-.5-.3-.8-.2-.3,0-.5.2-.6.5,0,.2,0,.5.3.7.2.1.3.1.5.1,0,0,.2,0,.2,0,.2,0,.3.2.3.4,0,.2-.2.3-.4.4-.3,0-.6,0-.7-.2,0,0,0,0,0,0,0,0,0,0,0,0,0,0,0,0,0,0,0,0,0,.1,0,.2.2.2.5.4.8.4"/>
        <path class="cls-2" d="M65.3,18.1v-2.1c0,0,0-.1-.1-.1s-.1,0-.1.1v2.1c0,0,0,.1.1.1s.1,0,.1-.1"/>
        <path class="cls-2" d="M42.1,15.8c-.7,0-1.2.5-1.2,1.2s.5,1.2,1.2,1.2,1.2-.5,1.2-1.2-.5-1.2-1.2-1.2M42.1,17.9c-.5,0-.9-.4-.9-.9s.4-.9.9-.9.9.4.9.9-.4.9-.9.9"/>
        <path class="cls-2" d="M29.8,15.8c-.7,0-1.2.5-1.2,1.2s.5,1.2,1.2,1.2,1.2-.5,1.2-1.2-.5-1.2-1.2-1.2M29.8,17.9c-.5,0-.9-.4-.9-.9s.4-.9.9-.9.9.4.9.9-.4.9-.9.9"/>
        <path class="cls-2" d="M27.5,18.1v-.9l.9-1.1c0,0,0-.1,0-.2,0,0,0,0-.1,0,0,0,0,0,0,0l-.8,1-.8-1s0,0-.1,0,0,0,0,0c0,0,0,.1,0,.2l.8,1.1v.9c0,0,0,.1.1.1s.1,0,.1-.1"/>
        <path class="cls-2" d="M32.4,18.2c.4,0,.9-.3.9-.8v-1.4c0,0,0-.1-.1-.1s-.1,0-.1.1v1.4c0,.3-.3.5-.6.5s-.6-.2-.6-.5v-1.4c0,0,0-.1-.1-.1s-.1,0-.1.1v1.4c0,.5.5.8.9.8"/>
        <path class="cls-2" d="M35.3,18.2c0,0,0-.1,0-.2l-.5-.9h0c.3-.1.4-.4.4-.6,0-.4-.3-.7-.7-.7h-.7s0,0,0,0c0,0-.1,0-.1.1v2.1c0,0,0,.1.1.1s.1,0,.1-.1v-.9h.5l.5,1c0,0,0,0,.1,0s0,0,0,0M34.1,16.9v-.8h.6c.2,0,.4.2.4.4s-.2.4-.4.4h-.6Z"/>
        <path class="cls-2" d="M37.1,18.1v-.9h.6c.4,0,.7-.3.7-.7s-.3-.7-.7-.7h-.7s0,0,0,0c0,0-.1,0-.1.1v2.1c0,0,0,.1.1.1s.1,0,.1-.1M37.1,16.1h.6c.2,0,.4.2.4.4s-.2.4-.4.4h-.6v-.8Z"/>
        <path class="cls-2" d="M45,15.8c-.7,0-1.2.5-1.2,1.2s.5,1.2,1.2,1.2.6-.1.8-.3c0,0,0-.1,0-.2,0,0,0,0,0,0,0,0,0,0,0,0h0c-.2.2-.4.2-.6.2-.5,0-.9-.4-.9-.9s.4-.9.9-.9.5,0,.6.2c0,0,0,0,0,0,0,0,0,0,0,0,0,0,0,0,0,0,0,0,0,0,0,0-.2-.2-.5-.3-.8-.3"/>
        <path class="cls-2" d="M40.3,18.2c0,0,0-.1,0-.2l-.5-.9h0c.3-.1.4-.4.4-.6,0-.4-.3-.7-.7-.7h-.7s0,0,0,0c0,0-.1,0-.1.1v2.1c0,0,0,.1.1.1s.1,0,.1-.1v-.9h.5l.5,1c0,0,0,0,.1,0s0,0,0,0M39.1,16.9v-.8h.6c.2,0,.4.2.4.4s-.2.4-.4.4h-.6Z"/>
        <path class="cls-2" d="M51.2,18.2c0,0,.1,0,.2,0,.3,0,.6-.3.6-.6,0-.3-.2-.6-.5-.7h0c0,0-.2,0-.2,0h0c-.1,0-.3,0-.4,0-.1,0-.2-.2-.2-.4,0-.2.2-.3.4-.3.2,0,.5,0,.6.2,0,0,.1,0,.2,0,0,0,0-.1,0-.2-.2-.2-.5-.3-.8-.2-.3,0-.5.2-.6.5,0,.2,0,.5.3.7.2.1.3.1.5.1,0,0,.2,0,.2,0,.2,0,.3.2.3.4,0,.2-.2.3-.4.4-.3,0-.6,0-.7-.2,0,0,0,0,0,0,0,0,0,0,0,0,0,0,0,0,0,0,0,0,0,.1,0,.2.2.2.5.4.8.4"/>
        <path class="cls-2" d="M49.1,18.2c0,0,.1,0,.2,0,.3,0,.6-.3.6-.6,0-.3-.2-.6-.5-.7h0c0,0-.2,0-.2,0h0c-.1,0-.3,0-.4,0-.1,0-.2-.2-.2-.4,0-.2.2-.3.4-.3.2,0,.5,0,.6.2,0,0,.1,0,.2,0,0,0,0-.1,0-.2-.2-.2-.5-.3-.8-.2-.3,0-.5.2-.6.5,0,.2,0,.5.3.7.2.1.3.1.5.1,0,0,.2,0,.2,0,.2,0,.3.2.3.4,0,.2-.2.3-.4.4-.3,0-.6,0-.7-.2,0,0,0,0-.1,0s0,0,0,0c0,0,0,.1,0,.2.2.2.5.4.8.4"/>
        <path class="cls-2" d="M56.9,15.8c-.7,0-1.2.5-1.2,1.2s.5,1.2,1.2,1.2,1.2-.5,1.2-1.2-.5-1.2-1.2-1.2M56.9,17.9c-.5,0-.9-.4-.9-.9s.4-.9.9-.9.9.4.9.9-.4.9-.9.9"/>
        <path class="cls-2" d="M54.3,18.2c0,0,.1,0,.2,0,.3,0,.6-.3.6-.6,0-.3-.2-.6-.5-.7h0c0,0-.2,0-.2,0h0c-.1,0-.3,0-.4,0-.1,0-.2-.2-.2-.4,0-.2.2-.3.4-.3.2,0,.5,0,.6.2,0,0,.1,0,.2,0,0,0,0-.1,0-.2-.2-.2-.5-.3-.8-.2-.3,0-.5.2-.6.5,0,.2,0,.5.3.7.2.1.3.1.5.1,0,0,.2,0,.2,0,.2,0,.3.2.3.4,0,.2-.2.3-.4.4-.3,0-.6,0-.7-.2,0,0,0,0,0,0,0,0,0,0,0,0,0,0,0,0,0,0,0,0,0,.1,0,.2.2.2.5.4.8.4"/>
        <path class="cls-2" d="M47.7,18.2c0,0,.1,0,.1-.1s0-.1-.1-.1h-1v-.8h1c0,0,.1,0,.1-.1s0-.1-.1-.1h-1v-.8h1c0,0,.1,0,.1-.1s0-.1-.1-.1h-1.2c0,0-.1,0-.1.1v2.1c0,0,0,.1.1.1h1.2Z"/>
        <path class="cls-4" d="M8.6,18.1c-.6,1.1-1.1,1.6-1.6,2.1h10.7l1.6-2.8h-10.3c-.1.2-.2.5-.4.8"/>
        <path class="cls-4" d="M10,14.2c-.2.4-.2.8-.3,1.2,0,.4-.2.8-.4,1.4h10.4l1.5-2.6h-11.2Z"/>
        <path class="cls-4" d="M20.5,10.4c-1.3,0-2,.2-2.7.4-.7.2-1.5.5-2.9.5-1.3,0-2.1-.2-2.7-.4-.5.4-1,.9-1.6,1.9-.2.3-.3.5-.4.7h11.3l1.6-2.8c-.7-.2-1.3-.4-2.6-.4"/>
        <path class="cls-3" d="M6.2,19.8c.5-.5,1.1-.9,1.7-2.1.7-1.1.8-1.8.9-2.5.1-.7.3-1.5,1-2.8,0,0,0-.1.1-.2,0,0,0,0,0,0,0,0,0-.1,0-.1,0,0,0,0,0,0,0,0,0-.1.1-.2,0,0,0,0,0,0,0,0,0,0,0-.1,0,0,0,0,0,0,0,0,0,0,0-.1,0,0,0,0,0,0,0,0,0,0,0-.1,0,0,0,0,0,0,0,0,0,0,0,0,0,0,0,0,0,0,0,0,0,0,0-.1,0,0,0,0,0,0,0,0,0,0,0,0,0,0,0,0,0,0,0,0,0,0,0,0,0,0,0,0,.1-.1h0s0,0,0,0c-.5-.1-1.1-.2-2-.2-1.3,0-2,.2-2.7.4-.7.2-1.5.5-2.9.5s-2-.2-2.7-.4l5.2,8.9s0,0,0,0"/>
        <path class="cls-1" d="M14.2,8.5c-.5.9-1,1.4-1.4,1.8.5.1,1.1.3,2,.3s1.2,0,1.6-.1l-1.7-2.9c-.1.3-.3.6-.5,1"/>
        <path class="cls-1" d="M15.3,5.7c0,.3-.1.6-.2,1l2,3.5c.2,0,.3-.1.5-.2.5-.2.9-.3,1.6-.4l-3.3-5.7c-.3.7-.4,1.2-.5,1.8"/>
        <path class="cls-1" d="M17.9,1.2c-.5.5-1,.9-1.7,2.1,0,0,0,0,0,.1l3.7,6.3c.2,0,.4,0,.7,0,1.2,0,1.9.2,2.6.4L17.9,1.2Z"/>
        <path class="cls-2" d="M15.5,2.8c.6-1.1,1.1-1.6,1.6-2.1H6.4l-1.4,2.4h10.3c0-.1.1-.2.2-.4"/>
        <path class="cls-2" d="M14.5,5.6c.1-.5.2-1.1.5-1.8H4.7l-1.5,2.6h11.2c0-.3.1-.5.2-.8"/>
        <path class="cls-2" d="M9.3,9.6c1.3,0,2.1.2,2.7.4.5-.4,1-.9,1.6-1.9.2-.4.4-.8.6-1.1H2.8l-1.8,3.1s0,0,0,0c.7.2,1.3.4,2.7.4s2-.2,2.7-.4c.7-.2,1.5-.5,2.9-.5"/>
      </g>
    </g>
  </g>
</svg>