<svg width="151" height="31" viewBox="0 0 151 31" fill="none" xmlns="http://www.w3.org/2000/svg">
<path d="M131.428 18.4505H19.708V18.9405H131.428V18.4505Z" fill="#866132"/>
<path d="M63.2381 28.1305C63.1781 28.4505 63.1481 28.7605 63.1481 29.0805C63.1481 29.4305 63.1781 29.8005 63.2381 30.2305C62.7481 30.4305 62.1981 30.5805 61.5981 30.6905C60.9881 30.8105 60.3881 30.8605 59.8381 30.8605C58.9781 30.8605 58.2281 30.6905 57.5581 30.3405C56.8981 29.9905 56.4081 29.5305 56.0581 28.9305C55.7081 28.3205 55.5381 27.6305 55.5381 26.8805C55.5381 26.1005 55.7381 25.3805 56.1181 24.7805C56.4881 24.1705 57.0081 23.6805 57.7081 23.3405C58.3681 22.9905 59.2381 22.8205 60.2781 22.8205C60.7081 22.8205 61.0881 22.8505 61.4281 22.9105C61.7681 22.9705 62.2381 23.0805 62.8081 23.2305L63.2681 23.3505C63.1781 23.7205 63.0981 24.2705 63.0381 24.9605H62.6881V24.5905C62.6881 24.2405 62.6581 24.0105 62.5981 23.9605C62.4781 23.8405 62.1981 23.7005 61.7381 23.5305C61.2781 23.3605 60.7281 23.2705 60.1281 23.2705C59.0581 23.2705 58.2281 23.5605 57.6481 24.1305C57.0181 24.7605 56.7281 25.6005 56.7281 26.6405C56.7281 27.6505 57.0181 28.4805 57.5681 29.1505C58.2281 29.9605 59.1281 30.3605 60.2781 30.3605C60.8881 30.3605 61.5181 30.2205 62.2081 29.9605C62.2381 29.6405 62.2381 29.3305 62.2381 28.9805C62.2381 28.5205 62.2381 28.2605 62.2081 28.2005C62.1781 28.1405 62.1781 28.0805 62.1181 28.0605C62.0881 28.0305 61.8881 28.0005 61.5381 27.9705L60.8781 27.9105V27.5605C61.7181 27.5905 62.3481 27.6205 62.7481 27.6205C63.0981 27.6205 63.4081 27.5905 63.6381 27.5605V27.8505L63.2381 28.1305Z" fill="#866132"/>
<path d="M68.3081 26.7505C68.6581 27.2705 69.1181 27.8705 69.6381 28.5705L70.7081 29.9505C70.8781 30.1805 71.0281 30.3205 71.0781 30.3505C71.1281 30.3805 71.1981 30.4105 71.2781 30.4105H71.4181V30.7605C71.0981 30.7305 70.8381 30.7305 70.6081 30.7305C70.4081 30.7305 70.1781 30.7305 69.9481 30.7605L67.9881 28.1405C67.6181 27.6505 67.2381 27.1905 66.8381 26.7305L66.8981 26.5605C67.0981 26.5905 67.2681 26.5905 67.3581 26.5905C67.9681 26.5905 68.4581 26.4505 68.7981 26.1305C69.1481 25.8105 69.3181 25.3805 69.3181 24.8605C69.3181 24.4005 69.1781 24.0205 68.8881 23.7605C68.5981 23.5005 68.1681 23.3605 67.6181 23.3605C67.2481 23.3605 66.8381 23.4205 66.4681 23.5605C66.4081 24.1405 66.4081 24.7705 66.4081 25.4305V28.0805C66.4081 29.3805 66.4381 30.1005 66.4981 30.2405C66.5581 30.3805 66.7581 30.4405 67.1081 30.4405H67.5381V30.7905C66.9281 30.7605 66.4181 30.7605 66.0381 30.7605C65.7181 30.7605 65.1481 30.7605 64.3381 30.7905V30.4405H64.7381C65.0581 30.4405 65.2281 30.3805 65.2881 30.2405C65.3481 30.1005 65.3781 29.3805 65.3781 28.0805V25.3705C65.3781 24.2505 65.3481 23.5805 65.2581 23.4705C65.1981 23.3305 64.9681 23.2705 64.5981 23.2705H64.3081V22.9205C64.9981 22.9505 65.5181 22.9505 65.8681 22.9505C66.0981 22.9505 66.4481 22.9505 66.9081 22.9205C67.4281 22.8905 67.7981 22.8905 68.0581 22.8905C68.6881 22.8905 69.1781 22.9505 69.4981 23.0905C69.8181 23.2305 70.0781 23.4105 70.2481 23.6705C70.4181 23.9305 70.5081 24.2205 70.5081 24.5605C70.5081 25.0805 70.3381 25.5405 69.9581 25.9405C69.5481 26.3205 69.0281 26.6005 68.3081 26.7505Z" fill="#866132"/>
<path d="M71.7383 26.8105C71.7383 25.6005 72.1083 24.6205 72.8883 23.9005C73.6683 23.1505 74.7083 22.8005 75.9983 22.8005C77.2683 22.8005 78.2783 23.1505 78.9983 23.8405C79.7183 24.5305 80.0983 25.4305 80.0983 26.5805C80.0983 27.7905 79.6683 28.8305 78.8283 29.6405C77.9883 30.4505 76.9283 30.8805 75.6583 30.8805C74.8483 30.8805 74.1883 30.7105 73.6083 30.3905C73.0283 30.0705 72.5683 29.5805 72.2583 28.9805C71.9383 28.3605 71.7383 27.6105 71.7383 26.8105ZM72.8683 26.3705C72.8683 27.2105 73.0083 27.9305 73.2983 28.5305C73.5883 29.1405 73.9583 29.6005 74.4483 29.9105C74.9383 30.2305 75.4583 30.3705 76.0883 30.3705C76.6683 30.3705 77.1583 30.2305 77.5883 29.9705C78.0183 29.7105 78.3383 29.3105 78.5983 28.8205C78.8283 28.3005 78.9683 27.6705 78.9683 26.9505C78.9683 26.1705 78.8283 25.5105 78.5683 24.9605C78.3083 24.4105 77.9383 23.9805 77.4683 23.7205C77.0083 23.4305 76.4283 23.2905 75.7983 23.2905C75.2183 23.2905 74.6983 23.4105 74.2683 23.6605C73.8383 23.9205 73.5183 24.2705 73.2583 24.7605C72.9983 25.2505 72.8683 25.7405 72.8683 26.3705Z" fill="#866132"/>
<path d="M80.5581 23.2305V22.8805C81.3081 22.9105 81.8581 22.9105 82.1981 22.9105C82.5481 22.9105 83.0881 22.9105 83.7881 22.8805V23.2305H83.3881C83.0381 23.2305 82.8381 23.2905 82.7581 23.4305C82.6981 23.5705 82.6381 24.1505 82.6381 25.2205V27.3805C82.6381 28.1605 82.6681 28.7105 82.7581 29.0205C82.8481 29.3405 83.0781 29.6005 83.4181 29.8005C83.7581 30.0005 84.2581 30.1205 84.8581 30.1205C85.4881 30.1205 86.0081 30.0005 86.4181 29.7705C86.7081 29.6305 86.9381 29.3705 87.0481 29.0505C87.1881 28.7005 87.2481 28.1005 87.2481 27.1505V25.0805C87.2481 24.1305 87.2181 23.5805 87.1281 23.4405C87.0381 23.3005 86.8081 23.2405 86.4081 23.2405H86.1181V22.8905C86.8681 22.9205 87.3581 22.9205 87.5581 22.9205C87.9081 22.9205 88.3081 22.9205 88.7981 22.8905V23.2405H88.4281C88.1381 23.2405 87.9381 23.3305 87.8781 23.4705C87.7881 23.6105 87.7581 24.1605 87.7581 25.1105V27.1905C87.7581 28.1405 87.6981 28.7805 87.6181 29.0905C87.5281 29.4105 87.3581 29.7205 87.0981 29.9805C86.8381 30.2405 86.5181 30.4405 86.1181 30.6105C85.7181 30.7505 85.2281 30.8405 84.6781 30.8405C84.0981 30.8405 83.6081 30.7805 83.1781 30.6405C82.7481 30.5005 82.4281 30.3205 82.1981 30.1205C81.9681 29.9205 81.8281 29.6605 81.7381 29.3705C81.6481 29.0805 81.5981 28.5905 81.5981 27.8705V26.8305V25.1605C81.5981 24.1205 81.5681 23.5505 81.5081 23.4305C81.4481 23.3105 81.2481 23.2605 80.9281 23.2605L80.5581 23.2305Z" fill="#866132"/>
<path d="M91.5679 23.4905C91.5379 24.0105 91.5379 24.5905 91.5379 25.1905V28.3005C91.5379 29.4005 91.5679 30.0305 91.6279 30.1405C91.6879 30.2805 91.9179 30.3405 92.2879 30.3405H92.6579V30.6905C91.9979 30.6605 91.5079 30.6605 91.1279 30.6605C90.8079 30.6605 90.2079 30.6605 89.3679 30.6905V30.3405H89.8579C90.0879 30.3405 90.2279 30.3105 90.2879 30.2505C90.3479 30.1905 90.4079 30.0805 90.4079 29.9005C90.4379 29.7305 90.4379 29.1805 90.4679 28.3105V25.3705L90.4379 24.2205C90.4379 23.7605 90.3779 23.4705 90.2979 23.3605C90.2079 23.2405 89.9779 23.1905 89.6079 23.1905H89.3179V22.8405C89.7779 22.8705 90.3579 22.8705 91.0779 22.8705C91.4779 22.8705 91.9379 22.8705 92.4579 22.8405C92.8079 22.8105 93.0379 22.8105 93.2079 22.8105C94.0979 22.8105 94.7379 22.9805 95.1379 23.3005C95.5379 23.6205 95.7479 24.0505 95.7479 24.6005C95.7479 25.0005 95.6279 25.3805 95.3979 25.7505C95.1679 26.1205 94.8479 26.4105 94.4179 26.6405C93.9879 26.8705 93.5579 26.9905 93.0679 26.9905C92.8379 26.9905 92.5779 26.9605 92.2279 26.8705L92.1679 26.4705C92.4879 26.5605 92.7779 26.5905 92.9779 26.5905C93.4979 26.5905 93.8679 26.4505 94.1879 26.1305C94.4779 25.8105 94.6179 25.4105 94.6179 24.8605C94.6179 24.3405 94.4779 23.9405 94.1279 23.6505C93.8079 23.3605 93.3479 23.2205 92.7179 23.2205C92.3779 23.2905 91.9779 23.3805 91.5679 23.4905Z" fill="#866132"/>
<path d="M12.678 10.1205C12.588 10.6105 12.558 11.1005 12.558 11.6205C12.558 12.1405 12.618 12.7405 12.698 13.4105C11.918 13.7305 11.058 13.9605 10.108 14.1605C9.15801 14.3605 8.20801 14.4505 7.30801 14.4505C5.95801 14.4505 4.73801 14.1905 3.70801 13.6705C2.67801 13.1505 1.86801 12.4305 1.31801 11.4805C0.778008 10.5205 0.488008 9.45046 0.458008 8.24046C0.458008 7.00046 0.748008 5.88046 1.31801 4.90046C1.88801 3.92046 2.72801 3.17046 3.79801 2.59046C4.86801 2.04046 6.21801 1.75046 7.83801 1.75046C8.49801 1.75046 9.10801 1.78046 9.67801 1.87046C10.248 1.96046 10.978 2.13046 11.868 2.39046L12.618 2.59046C12.478 3.20046 12.358 4.06046 12.268 5.16046H11.718V4.58046C11.718 4.00046 11.658 3.69046 11.578 3.57046C11.408 3.40046 10.948 3.17046 10.198 2.88046C9.44801 2.62046 8.58801 2.48046 7.63801 2.48046C5.93801 2.48046 4.63801 2.97046 3.74801 3.86046C2.76801 4.87046 2.27801 6.20046 2.29801 7.84046C2.29801 9.43046 2.75801 10.7505 3.64801 11.8205C4.68801 13.0905 6.12801 13.7205 7.91801 13.6905C8.86801 13.6905 9.87801 13.4605 10.978 13.0605C11.008 12.5705 11.038 12.0505 11.008 11.5005C11.008 10.7805 10.978 10.3805 10.978 10.2605C10.948 10.1405 10.918 10.0905 10.858 10.0605C10.798 10.0305 10.488 10.0005 9.93801 9.94046L8.90801 9.86046V9.31046C10.238 9.37046 11.218 9.40046 11.878 9.37046C12.428 9.37046 12.918 9.34046 13.318 9.28046V9.71046L12.678 10.1205Z" fill="#866132"/>
<path d="M22.938 10.0305L17.918 10.0605L17.338 11.4705C16.968 12.3905 16.758 12.9705 16.758 13.1705C16.758 13.3105 16.788 13.4005 16.878 13.4605C16.968 13.5205 17.138 13.5805 17.428 13.6005L18.268 13.6905V14.2405C17.718 14.2105 17.088 14.1805 16.398 14.1805C15.558 14.1805 14.838 14.2105 14.208 14.2705V13.7205H14.468C14.868 13.7205 15.128 13.6605 15.248 13.5805C15.368 13.5005 15.478 13.3205 15.618 13.0305C16.018 12.1905 16.428 11.3005 16.858 10.3205L19.218 4.90047C19.848 3.46047 20.288 2.42047 20.518 1.76047H21.098L25.568 11.9605C25.858 12.6505 26.058 13.0805 26.178 13.2005C26.268 13.3405 26.378 13.4305 26.528 13.4905C26.648 13.5505 26.928 13.5805 27.388 13.6105V14.1605C26.638 14.1305 25.918 14.1005 25.228 14.1005C24.598 14.1005 23.728 14.1305 22.688 14.1905V13.6405L23.548 13.5805C23.868 13.5505 24.038 13.5205 24.098 13.4905C24.188 13.4305 24.218 13.3505 24.218 13.2605C24.218 13.1405 24.128 12.8905 23.958 12.4505L22.938 10.0305ZM18.238 9.31047L22.618 9.28047L20.398 4.06047L18.238 9.31047Z" fill="#866132"/>
<path d="M28.2182 13.5805H28.7682C29.3182 13.5805 29.6282 13.4405 29.7482 13.1805C29.8682 12.9205 29.8882 11.6805 29.8882 9.43047L29.8582 6.51047C29.8582 4.20047 29.7982 2.91047 29.6882 2.68047C29.5982 2.45047 29.3182 2.33047 28.8482 2.33047H28.1582V1.79047C29.1082 1.82047 30.0582 1.85047 31.0082 1.85047C31.7882 1.85047 32.5082 1.82047 33.1382 1.76047V2.31047H32.4782C32.0782 2.31047 31.8182 2.37047 31.6982 2.45047C31.5782 2.54047 31.5282 2.80047 31.5282 3.20047C31.4982 3.83047 31.4982 4.93047 31.4982 6.51047L31.5282 9.51047C31.5282 11.7605 31.5882 13.0005 31.6982 13.2305C31.7882 13.4605 32.1282 13.5805 32.6482 13.5805H33.2282V14.1305C32.5082 14.1005 31.7282 14.0705 30.8982 14.0705C29.9182 14.0705 29.0282 14.1005 28.2482 14.1605L28.2182 13.5805Z" fill="#866132"/>
<path d="M36.488 3.69047L36.518 9.69047C36.518 11.0405 36.548 12.0205 36.608 12.5405C36.668 12.9405 36.728 13.2005 36.808 13.2905C36.898 13.3805 37.178 13.4305 37.648 13.4905L38.198 13.5205V14.0705C37.568 14.0405 36.988 14.0105 36.468 14.0105C36.118 14.0105 35.318 14.0405 34.018 14.1005V13.5505H34.648C35.018 13.5505 35.278 13.4905 35.398 13.3805C35.518 13.2605 35.568 13.0605 35.598 12.7705C35.658 12.1405 35.688 11.2705 35.688 10.1805L35.658 5.86047C35.658 5.05047 35.628 4.25047 35.628 3.44047C35.628 3.09047 35.568 2.86047 35.488 2.75047C35.398 2.63047 35.288 2.52047 35.138 2.40047C34.998 2.31047 34.768 2.26047 34.508 2.26047H33.958V1.73047C34.708 1.76047 35.258 1.79047 35.658 1.79047C36.058 1.79047 36.518 1.76047 37.038 1.73047C37.618 2.42047 38.158 3.11047 38.678 3.78047C39.198 4.45047 39.718 5.11047 40.268 5.77047L43.268 9.40047C44.338 10.7005 45.108 11.6205 45.598 12.1105L45.568 6.52047C45.568 4.19047 45.508 2.92047 45.428 2.69047C45.338 2.46047 44.998 2.34047 44.418 2.29047L43.758 2.23047V1.67047C44.678 1.70047 45.428 1.73047 45.918 1.73047C46.468 1.73047 47.158 1.70047 47.998 1.64047V2.19047H47.338C46.788 2.19047 46.498 2.36047 46.418 2.74047C46.358 2.97047 46.358 4.24047 46.358 6.54047L46.388 10.4605C46.388 11.5305 46.448 12.7705 46.558 14.2405C45.778 14.1205 45.318 14.0405 45.178 13.9805C45.038 13.9205 44.918 13.8405 44.808 13.7205C44.178 13.0005 43.478 12.2205 42.758 11.3605L36.488 3.69047Z" fill="#866132"/>
<path d="M56.7482 2.19048C56.5782 2.80048 56.5182 3.60048 56.4882 4.58048H55.8782V3.89048C55.8782 3.43048 55.8182 3.14048 55.6782 2.97048C55.5382 2.80048 55.2482 2.62048 54.7282 2.45048C54.2082 2.28048 53.6582 2.19048 53.1182 2.19048C52.1982 2.19048 51.4782 2.42048 50.9282 2.91048C50.4082 3.37048 50.1482 3.98048 50.1482 4.73048C50.1482 5.19048 50.2682 5.59048 50.4982 5.91048C50.7282 6.23048 51.0182 6.49048 51.3882 6.63048C51.7582 6.77048 52.5382 6.89048 53.7182 7.00048C54.8982 7.11048 55.7082 7.26048 56.1382 7.43048C56.5682 7.63048 56.8882 7.92048 57.1482 8.35048C57.4082 8.78048 57.5182 9.27048 57.5182 9.85048C57.5182 11.0005 57.0582 12.0105 56.0782 12.8805C55.0982 13.7405 53.7982 14.1505 52.1882 14.1805C51.6382 14.1805 51.0682 14.1205 50.5182 14.0105C49.9382 13.8905 49.3982 13.7505 48.8182 13.5205C48.9082 12.8305 48.9582 11.9305 48.9582 10.8405H49.5682V11.2705C49.5682 11.8505 49.5982 12.1905 49.6582 12.3105C49.7182 12.4505 49.8582 12.6005 50.0582 12.7405C50.3782 12.9705 50.7482 13.1405 51.2082 13.2605C51.6382 13.3805 52.1282 13.4305 52.6182 13.4305C53.7182 13.4305 54.5482 13.1705 55.1582 12.6505C55.7682 12.1305 56.0482 11.4705 56.0482 10.6905C56.0482 10.2305 55.9282 9.83048 55.7282 9.51048C55.5282 9.19048 55.2382 8.96048 54.8682 8.79048C54.4982 8.65048 53.8282 8.53048 52.8482 8.44048C51.5582 8.36048 50.6682 8.19048 50.1782 7.98048C49.7182 7.78048 49.3382 7.46048 49.0582 7.00048C48.7982 6.54048 48.6582 5.99048 48.6582 5.33048C48.6582 4.21048 49.0582 3.28048 49.8682 2.56048C50.6782 1.84048 51.7982 1.46048 53.2382 1.46048C53.8182 1.46048 54.3882 1.52048 54.9682 1.63048C55.5682 1.76048 56.1782 1.96048 56.7482 2.19048Z" fill="#866132"/>
<path d="M64.4778 6.95046C65.7178 7.04046 66.6078 7.30046 67.1878 7.79046C67.7378 8.28046 68.0278 8.97046 68.0278 9.84046C68.0278 10.9405 67.5678 11.9205 66.6778 12.7205C65.7578 13.5305 64.5778 13.9305 63.1578 13.9605L62.4578 13.9205C61.8778 13.8905 61.3878 13.8905 60.9878 13.8905C60.6978 13.8905 60.3578 13.9205 59.9178 13.9205L59.1978 13.9505V13.5505C59.5478 13.3805 59.7778 13.2305 59.8278 13.1505C59.8878 13.0605 59.9478 12.8905 59.9478 12.6905C59.9778 12.0005 60.0078 11.2205 60.0078 10.3305L59.9778 4.91046C59.9778 3.47046 59.9178 2.63046 59.8078 2.46046C59.6878 2.23046 59.3778 2.11046 58.8878 2.11046H58.2778V1.56046H58.9978L59.8078 1.59046C60.2078 1.62046 60.5578 1.62046 60.7878 1.62046C61.1578 1.62046 61.8878 1.59046 62.9478 1.56046L64.2178 1.53046C65.2278 1.53046 65.9478 1.70046 66.4678 2.05046C67.0978 2.48046 67.3878 3.12046 67.4178 3.92046C67.4178 4.58046 67.2178 5.16046 66.7878 5.68046C66.2678 6.14046 65.5378 6.57046 64.4778 6.95046ZM61.5978 6.72046C61.8878 6.75046 62.1478 6.75046 62.4078 6.75046C63.5578 6.75046 64.3978 6.52046 64.8878 6.12046C65.3778 5.72046 65.6378 5.11046 65.6378 4.33046C65.6378 3.67046 65.4378 3.15046 65.0078 2.80046C64.5778 2.45046 63.9078 2.28046 63.0178 2.28046C62.6178 2.28046 62.1778 2.31046 61.6878 2.40046C61.6278 3.12046 61.6278 4.19046 61.6278 5.60046L61.5978 6.72046ZM61.6178 13.0605C62.1678 13.1505 62.5978 13.1805 62.9478 13.1805C63.9878 13.1805 64.7678 12.8905 65.3378 12.3405C65.8878 11.7905 66.1778 11.0405 66.1778 10.0905C66.1778 9.46046 66.0378 8.94046 65.8078 8.53046C65.5478 8.13046 65.1978 7.84046 64.7378 7.64046C64.2778 7.47046 63.5578 7.35046 62.5778 7.38046C62.2878 7.38046 61.9478 7.38046 61.5678 7.41046L61.5978 10.4905L61.6278 11.5905C61.6578 11.9905 61.6578 12.2805 61.6578 12.4805C61.6478 12.7105 61.6478 12.8605 61.6178 13.0605Z" fill="#866132"/>
<path d="M69.0581 7.72046C69.0581 5.82046 69.6681 4.26047 70.8781 3.11047C72.0881 1.96047 73.7281 1.35047 75.7781 1.32047C77.7981 1.32047 79.3481 1.84046 80.5081 2.91047C81.6581 3.98046 82.2281 5.42046 82.2281 7.21046C82.2281 9.14046 81.5981 10.7605 80.2681 12.0505C78.9381 13.3505 77.2981 14.0105 75.2781 14.0405C74.0081 14.0405 72.9481 13.8105 72.0181 13.2905C71.0981 12.8005 70.3781 12.0505 69.8581 11.0705C69.3481 10.1205 69.0581 8.96046 69.0581 7.72046ZM70.8181 7.00046C70.8181 8.30046 71.0481 9.45046 71.5081 10.4305C71.9681 11.4105 72.5781 12.1305 73.3281 12.5905C74.0781 13.0805 74.9381 13.3105 75.9181 13.3105C76.8081 13.3105 77.5881 13.1105 78.2781 12.6805C78.9381 12.2805 79.4581 11.6405 79.8681 10.8405C80.2381 10.0305 80.4481 9.02046 80.4181 7.84047C80.4181 6.60046 80.1881 5.56047 79.7581 4.70047C79.3281 3.84047 78.7481 3.17046 77.9981 2.74047C77.2481 2.31047 76.3881 2.08047 75.3481 2.11047C74.4281 2.11047 73.6181 2.31047 72.9581 2.72047C72.2981 3.12047 71.7781 3.67047 71.3681 4.45047C70.9881 5.13047 70.8181 6.00046 70.8181 7.00046Z" fill="#866132"/>
<path d="M89.498 7.52046C90.078 8.33046 90.768 9.28046 91.628 10.3405L93.298 12.5005C93.588 12.8705 93.788 13.0805 93.908 13.1305C94.028 13.1905 94.108 13.2205 94.228 13.2205H94.458V13.7705C93.968 13.7405 93.568 13.7105 93.188 13.7105C92.868 13.7105 92.498 13.7405 92.148 13.7705L89.038 9.65046C88.458 8.90046 87.828 8.15046 87.198 7.43046L87.288 7.14046C87.638 7.17046 87.868 7.17046 88.038 7.17046C89.018 7.17046 89.768 6.91046 90.318 6.42046C90.868 5.93046 91.128 5.24046 91.128 4.40046C91.128 3.65046 90.898 3.07046 90.438 2.64046C89.978 2.24046 89.318 2.01046 88.418 2.03046C87.808 2.03046 87.208 2.15046 86.578 2.38046C86.518 3.30046 86.488 4.28046 86.488 5.35046L86.518 9.56046C86.518 11.6105 86.578 12.7305 86.688 12.9605C86.778 13.1905 87.118 13.3105 87.638 13.2805H88.328V13.8305C87.378 13.8005 86.568 13.7705 85.938 13.7705C85.448 13.7705 84.528 13.8005 83.228 13.8605V13.3105H83.888C84.378 13.3105 84.698 13.1905 84.778 12.9905C84.858 12.7905 84.918 11.6405 84.898 9.56046L84.858 5.39046C84.858 3.60046 84.798 2.59046 84.688 2.36046C84.568 2.16046 84.228 2.04046 83.648 2.04046H83.188V1.50046C84.258 1.53046 85.088 1.56046 85.668 1.56046C86.038 1.56046 86.588 1.53046 87.308 1.50046C88.148 1.47046 88.748 1.44046 89.098 1.44046C90.108 1.44046 90.858 1.53046 91.378 1.76046C91.898 1.96046 92.298 2.28046 92.558 2.68046C92.818 3.08046 92.958 3.54046 92.958 4.12046C92.958 4.93046 92.668 5.65046 92.098 6.28046C91.488 6.80046 90.618 7.23046 89.498 7.52046Z" fill="#866132"/>
<path d="M94.9482 7.58048C94.9482 5.68048 95.5582 4.12048 96.7682 2.97048C97.9782 1.79048 99.6182 1.21048 101.668 1.18048C103.688 1.18048 105.238 1.70048 106.398 2.77048C107.548 3.84048 108.128 5.28048 108.128 7.06048C108.128 8.99048 107.498 10.6105 106.168 11.9005C104.838 13.2005 103.198 13.8605 101.178 13.8905C99.9082 13.8905 98.8482 13.6605 97.9182 13.1405C96.9982 12.6505 96.2782 11.9005 95.7582 10.9205C95.2282 9.94048 94.9482 8.82048 94.9482 7.58048ZM96.6982 6.86048C96.6982 8.16048 96.9282 9.31048 97.3882 10.2905C97.8482 11.2705 98.4582 11.9905 99.2082 12.4505C99.9582 12.9405 100.818 13.1705 101.798 13.1705C102.688 13.1705 103.468 12.9705 104.158 12.5405C104.818 12.1405 105.338 11.5005 105.748 10.7005C106.118 9.89048 106.328 8.88048 106.298 7.70048C106.298 6.46048 106.068 5.42048 105.638 4.56048C105.208 3.70048 104.628 3.03048 103.878 2.60048C103.128 2.17048 102.268 1.94048 101.228 1.97048C100.308 1.97048 99.4982 2.17048 98.8382 2.58048C98.1782 2.99048 97.6582 3.53048 97.2482 4.31048C96.8782 4.99048 96.6982 5.85048 96.6982 6.86048Z" fill="#866132"/>
<path d="M108.838 1.82048V1.30048C110.018 1.33048 110.888 1.36048 111.428 1.36048C112.008 1.36048 112.838 1.33048 113.938 1.27048V1.79048H113.308C112.758 1.79048 112.448 1.91048 112.328 2.11048C112.208 2.31048 112.188 3.26048 112.188 4.93048L112.218 8.33048C112.218 9.57048 112.308 10.4305 112.448 10.9205C112.588 11.4105 112.938 11.8105 113.518 12.1605C114.098 12.5105 114.848 12.6505 115.798 12.6505C116.778 12.6505 117.618 12.4505 118.278 12.1005C118.738 11.8405 119.088 11.4705 119.288 10.9505C119.488 10.4305 119.608 9.42048 119.608 7.95048L119.578 4.66048C119.578 3.13048 119.488 2.27048 119.348 2.07048C119.208 1.84048 118.828 1.75048 118.228 1.75048H117.768V1.24048C118.978 1.27048 119.728 1.30048 120.048 1.30048C120.568 1.30048 121.228 1.27048 122.008 1.21048V1.76048H121.398C120.938 1.76048 120.648 1.88048 120.508 2.13048C120.388 2.39048 120.308 3.25048 120.338 4.72048V7.98048C120.338 9.48048 120.278 10.4905 120.138 11.0105C119.998 11.5305 119.738 11.9905 119.328 12.4205C118.958 12.8505 118.408 13.1705 117.768 13.4305C117.108 13.6905 116.358 13.8005 115.458 13.8005C114.538 13.8005 113.758 13.7105 113.068 13.4805C112.378 13.2505 111.858 12.9905 111.508 12.6705C111.158 12.3505 110.898 11.9805 110.758 11.5205C110.618 11.0605 110.528 10.2805 110.528 9.16048V7.52048L110.498 4.87048C110.498 3.23048 110.438 2.33048 110.328 2.13048C110.238 1.93048 109.928 1.84048 109.408 1.84048L108.838 1.82048Z" fill="#866132"/>
<path d="M134.838 9.40047C134.748 9.89047 134.718 10.3805 134.718 10.9005C134.718 11.4205 134.778 12.0205 134.858 12.6905C134.078 13.0105 133.218 13.2405 132.268 13.4405C131.318 13.6405 130.368 13.7305 129.468 13.7305C128.118 13.7305 126.898 13.4705 125.868 12.9505C124.828 12.4305 124.028 11.6805 123.478 10.7305C122.928 9.78047 122.638 8.71047 122.618 7.50047C122.618 6.26047 122.908 5.14047 123.478 4.16047C124.048 3.18047 124.888 2.40047 125.958 1.85047C127.028 1.30047 128.378 1.01047 129.998 1.01047C130.658 1.01047 131.268 1.04047 131.838 1.13047C132.418 1.22047 133.138 1.39047 134.028 1.65047L134.778 1.85047C134.638 2.46047 134.518 3.32047 134.428 4.42047H133.878V3.83047C133.878 3.25047 133.818 2.94047 133.738 2.82047C133.568 2.65047 133.108 2.42047 132.358 2.13047C131.608 1.87047 130.748 1.73047 129.788 1.73047C128.088 1.73047 126.788 2.22047 125.898 3.11047C124.918 4.12047 124.428 5.44047 124.458 7.09047C124.458 8.68047 124.918 10.0005 125.808 11.0705C126.848 12.3405 128.288 12.9705 130.078 12.9405C131.028 12.9405 132.038 12.7105 133.138 12.3105C133.168 11.8205 133.198 11.3005 133.168 10.7505C133.168 10.0305 133.138 9.63047 133.138 9.51047C133.108 9.39047 133.078 9.34047 133.018 9.31047C132.958 9.28047 132.648 9.25047 132.098 9.19047L131.058 9.10047V8.56047C132.388 8.62047 133.368 8.65047 134.028 8.62047C134.578 8.62047 135.068 8.59047 135.468 8.53047V8.96047L134.838 9.40047Z" fill="#866132"/>
<path d="M139.768 7.35047L139.798 9.77047C139.798 10.1705 139.828 10.6605 139.858 11.2405C139.888 12.0205 139.918 12.4805 139.948 12.5405C139.978 12.6305 140.068 12.7105 140.208 12.8005C140.348 12.8905 140.578 12.9205 140.898 12.9205H141.508V13.4705C140.758 13.4405 140.038 13.4105 139.318 13.4105C138.628 13.4105 137.678 13.4405 136.408 13.5005V12.9505H136.958C137.568 12.9505 137.938 12.8305 138.028 12.6305C138.148 12.4305 138.168 11.4805 138.168 9.81047L138.138 4.56047C138.138 3.03047 138.078 2.17047 137.968 1.97047C137.858 1.77047 137.538 1.65047 136.988 1.65047H136.358V1.07047C137.308 1.10047 138.198 1.13047 139.038 1.13047C139.878 1.13047 140.678 1.10047 141.458 1.04047V1.59047H141.088C140.538 1.59047 140.228 1.65047 140.078 1.73047C139.958 1.82047 139.878 1.96047 139.848 2.16047C139.788 2.48047 139.788 3.26047 139.788 4.49047V6.48047C140.828 6.51047 142.118 6.54047 143.738 6.51047C145.088 6.51047 146.188 6.48047 147.028 6.42047V4.72047C147.028 3.74047 146.968 2.90047 146.908 2.21047C146.878 1.98047 146.788 1.81047 146.678 1.69047C146.568 1.57047 146.278 1.55047 145.868 1.55047H145.238V1.01047C146.128 1.04047 146.968 1.07047 147.748 1.07047C148.608 1.07047 149.508 1.04047 150.428 0.980469V1.53047H149.768C149.338 1.53047 149.048 1.59047 148.908 1.67047C148.788 1.76047 148.708 1.96047 148.678 2.22047C148.648 2.48047 148.648 3.32047 148.648 4.70047L148.678 9.51047C148.678 11.3005 148.738 12.2805 148.848 12.4805C148.968 12.6805 149.278 12.8005 149.798 12.8005H150.458V13.3505C149.648 13.3205 148.848 13.2905 147.978 13.2905C146.998 13.2905 146.108 13.3205 145.268 13.3805V12.8305H145.878C146.308 12.8305 146.598 12.7705 146.738 12.6905C146.858 12.5705 146.938 12.4005 146.968 12.1105C147.028 11.5005 147.058 10.6405 147.058 9.49047V7.21047C146.248 7.18047 145.188 7.15047 143.918 7.18047C142.068 7.23047 140.688 7.29047 139.768 7.35047Z" fill="#866132"/>
</svg>
