<?xml version="1.0" encoding="UTF-8"?>
<svg xmlns="http://www.w3.org/2000/svg" version="1.1" viewBox="0 0 100 100">
  <defs>
    <style>
      .cls-1 {
        fill: #30323e;
      }
    </style>
  </defs>
  <!-- Generator: Adobe Illustrator 28.6.0, SVG Export Plug-In . SVG Version: 1.2.0 Build 709)  -->
  <g>
    <g id="Layer_1">
      <g>
        <path class="cls-1" d="M34.5,64.7c.3,0,.8,0,1.5,0,.7,0,1.2,0,1.5,0s.2,0,.3.1c0,0,0,0,0,0,0,0,0,0,0,0-.4,0-.9,0-1.5,0-.7,0-1.2,0-1.5,0s-.2,0-.2,0c0,0,0,0,0,0M36.3,65.1c0,1,0,2.4,0,3.9,0,0,0,0-.1.1,0,0-.2,0-.3,0,0,0-.1,0-.1,0,0-1.8,0-3.1,0-3.9,0,0,0-.1.2-.2.2,0,.3,0,.3,0,0,0,0,0,0,0"/>
        <path class="cls-1" d="M39,64.9c0,.5,0,1.1,0,1.9.6,0,1.5,0,2.7,0,0-.8,0-1.4,0-1.7,0-.1,0-.2.2-.3.2,0,.3,0,.3,0,0,0,0,0,0,0,0,.9,0,2.2,0,3.9,0,.1,0,.2-.2.3-.2,0-.3,0-.3,0,0,0,0,0,0,0,0-.8,0-1.5,0-2.1-1.3,0-2.2,0-2.7,0,0,0,0,0,0,0,0,.6,0,1.2,0,1.9,0,.1,0,.2-.2.3-.2,0-.3,0-.3,0,0,0,0,0,0,0,0-2.1,0-3.4,0-3.9,0-.1,0-.2.2-.3.2,0,.3,0,.3,0,0,0,0,0,0,0"/>
        <path class="cls-1" d="M43.4,66.8c.5,0,1.4,0,2.5,0,0,0,0,0,.1,0,0,0,0,0,0,0-1.2,0-2.1,0-2.5,0,0,0,0,0-.1,0,0,.6,0,1.2,0,1.9,0,0,0,.1-.1.2h2.7c.1,0,.2,0,.2,0,0,0,0,0,0,0h0c-.3,0-.7,0-1.3,0-.6,0-1,0-1.3,0-.1,0-.2,0-.2-.1,0,0,0,0,0,0,0,0,0,0,0,0-.2,0-.3,0-.3,0,0,0,0,0,0,0,0-2.1,0-3.5,0-4,0-.1,0-.2.2-.3,0,0,.1,0,.2,0h0c0,0,0,0,0,0h0c.3,0,.7,0,1.3,0,.6,0,1,0,1.3,0,.1,0,.2,0,.2.1,0,0,0,0,0,0h-2.7s0,0,0,0h0c0,.6,0,1.2,0,2h0Z"/>
        <path class="cls-1" d="M35.9,88.6c-.4-.6-.9-1-1.3-1.2-.3,0-.6-.1-.9-.1-.3,0-.6,0-.9.2-.5.2-.9.6-1.2,1.2-.3.5-.4,1-.4,1.6s.1,1.3.3,1.8c.2.5.5,1,.9,1.3.2.2.5.4.8.4.3,0,.6.1.9,0,.3,0,.6-.2.8-.3.3-.2.5-.4.7-.6.2-.3.5-.6.8-.7.2,0,.4,0,.4,0,0,0,0,.2,0,.3-.2.3-.4.6-.6.9-.3.2-.5.4-.8.6-.6.3-1.3.3-2,.1-.7-.1-1.3-.5-1.8-.9-.6-.5-.9-1.1-1-1.8,0-.8,0-1.5.2-2.2.2-.7.6-1.2,1.1-1.6.5-.4,1.2-.6,2.1-.6.8,0,1.5.2,2,.7.3.2.5.5.5.8,0,.2,0,.3-.1.3s-.1,0-.2-.2"/>
        <path class="cls-1" d="M42,87.7c-1-.4-1.8-.4-2.3-.1-.3.2-.6.4-.9.7-.2.3-.4.7-.6,1.1-.3.7-.3,1.5-.2,2.3.2.8.5,1.5,1.1,1.9.3.2.6.3,1,.4.4,0,.8,0,1.3-.1.3,0,.6-.3.9-.5.3-.2.5-.5.7-.9.3-.5.4-1.1.4-1.8,0-.8-.2-1.5-.5-2-.2-.3-.3-.6-.2-.8,0-.1,0-.1.2,0,.7.7,1.2,1.6,1.3,2.7,0,.4,0,.8,0,1.2,0,.4-.2.7-.4,1-.2.4-.5.6-.8.9-.3.2-.7.4-1,.5-.8.2-1.6.2-2.3,0-.3,0-.7-.3-1.1-.6s-.7-.6-.9-1c-.2-.4-.4-.8-.4-1.2,0-.4,0-.9,0-1.3,0-.5.2-.9.5-1.3.2-.4.5-.7.9-1,.3-.3.7-.4,1.2-.5.4,0,.9-.1,1.3,0,.6.1,1,.3,1.2.5.1,0,.1.2,0,.2,0,0-.2,0-.3-.1"/>
        <path class="cls-1" d="M50.9,87.5v5.8c0,.2-.1.3-.3.4-.2.1-.4.1-.4,0h0c0,.1-.1.2-.2,0,0,0,0,0,0,0-1.3-2-2.6-3.8-3.8-5.6v5.1c0,.2-.1.3-.3.4-.2.1-.4.1-.4,0,0,0,0,0,0-.1v-5.8c0-.2.1-.3.3-.4.2-.1.4-.1.4,0,0,0,0,0,0,0,0,0,0,0,.2,0,0,0,0,0,0,0,1.3,1.8,2.6,3.7,3.9,5.6,0-1,0-2.8,0-5.4,0-.2.1-.3.3-.4.2-.1.4-.1.4,0,0,0,0,0,0,.1"/>
        <path class="cls-1" d="M56.9,88.6c-.4-.6-.9-1-1.3-1.2-.3,0-.6-.1-.9-.1-.3,0-.6,0-.9.2-.5.2-.9.6-1.2,1.2-.3.5-.4,1-.4,1.6s.1,1.3.3,1.8c.2.5.5,1,.9,1.3.2.2.5.4.8.4.3,0,.6.1.9,0,.3,0,.6-.2.8-.3.3-.2.5-.4.7-.6.2-.3.5-.6.8-.7.2,0,.4,0,.4,0,0,0,0,.2,0,.3-.2.3-.4.6-.6.9-.3.2-.5.4-.8.6-.6.3-1.3.3-2,.1-.7-.1-1.3-.5-1.8-.9-.6-.5-.9-1.1-1-1.8,0-.8,0-1.5.2-2.2.2-.7.6-1.2,1.1-1.6.5-.4,1.2-.6,2.1-.6.8,0,1.5.2,2,.7.3.2.5.5.5.8,0,.2,0,.3-.1.3s-.1,0-.2-.2"/>
        <path class="cls-1" d="M59.4,90.5c.8,0,2,0,3.7,0,0,0,.1,0,.2.1,0,0,0,.1,0,.1-1.8,0-3.1,0-3.7,0,0,0-.1,0-.1,0,0,.9,0,1.8,0,2.9,0,.1,0,.2-.2.3h4c.2,0,.3,0,.3.1,0,0,0,.1,0,.1h0c-.4,0-1.1,0-2,0-.9,0-1.5,0-2,0-.2,0-.3,0-.3-.1,0,0,0,0,0,0,0,0,0,0,0,0-.2.1-.4.1-.4,0,0,0,0,0,0,0,0-3.2,0-5.2,0-6,0-.2.1-.3.3-.4,0,0,.2,0,.2,0h0c0,0,0-.1,0-.1h0c.4,0,1.1,0,2,0,.9,0,1.5,0,1.9,0,.2,0,.3,0,.3.1,0,0,0,.1,0,.1h-3.9s0,0,0,0h0c0,.8,0,1.8,0,2.9h0Z"/>
        <path class="cls-1" d="M65.4,90.8c.1,0,.3,0,.6,0,.3,0,.5,0,.6,0s.3,0,.5,0c.2,0,.4,0,.5,0,.4,0,.7-.2,1-.5.3-.2.4-.5.5-.9,0-.4,0-.8,0-1.1,0-.2-.2-.3-.3-.5-.2-.1-.3-.2-.5-.3-.3,0-.7-.1-1.2-.1-.5,0-.9,0-1.3,0-.3,0-.6,0-.7-.1,0,0,0,0,.1-.1,0,0,0,0,0,0,.1,0,.3,0,.5,0,.3,0,.5,0,.6,0,.1,0,.3,0,.5,0,.2,0,.4,0,.6,0,1.4.1,2.2.5,2.4,1.2.1.4.2.7,0,1.1,0,.3-.3.6-.5.9-.2.3-.5.4-.8.5-.3,0-.7.1-1.2.2-.5,0-1,0-1.4,0-.4,0-.7,0-.9-.2v2.4c0,.2-.1.4-.3.5-.2.1-.4.1-.4,0,0,0,0,0,0-.1,0-1.5,0-3.4,0-5.8,0-.2.1-.3.3-.4.2-.1.4-.1.4,0,0,0,0,0,0,0v3.2s0,0,0,0h.2Z"/>
        <path class="cls-1" d="M70.6,87.3c.5,0,1.3,0,2.3,0,1,0,1.8,0,2.3,0s.3,0,.4.1c0,0,0,.1,0,.1,0,0,0,0,0,0-.5,0-1.3,0-2.3,0-1,0-1.8,0-2.3,0s-.3,0-.4-.1c0,0,0-.1.1-.1M73.3,87.8c0,1.5,0,3.5,0,5.9,0,0,0,.1-.2.2-.1,0-.3,0-.4,0-.1,0-.2,0-.2-.1,0-2.7,0-4.6,0-5.8,0-.1.1-.2.3-.3.3,0,.4,0,.5,0,0,0,0,0,0,0"/>
        <path class="cls-1" d="M27.1,75.1v7c-.4.2-.8.4-1.3.6-.4.2-.9.3-1.5.4-.6.1-1.2.2-1.9.2-1.3,0-2.4-.2-3.3-.5-.9-.4-1.7-.9-2.3-1.5-.6-.7-1.1-1.5-1.4-2.4-.3-.9-.5-2-.5-3.2s.2-2.3.5-3.2c.3-1,.8-1.8,1.4-2.4s1.4-1.2,2.4-1.5c.9-.4,2-.5,3.3-.5s1.1,0,1.6.1c.5,0,.9.2,1.2.3.4.1.7.2,1,.4l-.2,1c-.2,0-.5-.2-.9-.3-.3,0-.7-.1-1.1-.2-.4,0-1,0-1.5,0s-1.5.1-2.2.4c-.7.3-1.2.7-1.7,1.3-.5.6-.8,1.2-1.1,2-.3.8-.4,1.7-.4,2.7s.1,1.9.4,2.7c.3.8.6,1.5,1.1,2,.5.5,1,1,1.7,1.3.7.3,1.4.4,2.2.4s1.1,0,1.6-.1c.5,0,.9-.2,1.3-.3l.2-5.5h-3.1v-.8l4.8-.2Z"/>
        <path class="cls-1" d="M36.8,83.1c-.3-.3-.5-.8-.6-1.4-.6,1.1-1.6,1.6-3,1.6s-1.6-.1-2.2-.3c-.6-.2-1-.5-1.4-.9-.3-.4-.6-.8-.7-1.2-.1-.4-.2-.9-.2-1.4,0-1.1.4-1.9,1.1-2.4.7-.5,1.9-.8,3.5-.8s.5,0,.8,0c.3,0,.6,0,.8,0,.3,0,.5,0,.7,0,.2,0,.4,0,.5,0h0c0-.6,0-1-.2-1.4-.1-.4-.3-.8-.6-1.1-.2-.3-.6-.6-.9-.8-.4-.2-.8-.3-1.3-.3s-.8,0-1.1,0c-.3,0-.6,0-.8.1-.3,0-.5.1-.6.1l-.2-.7c.2,0,.5-.2.7-.3.2,0,.5-.1.9-.2.3,0,.7,0,1.2,0,.9,0,1.6.1,2.2.3.6.2,1.1.5,1.5.9.4.4.7.8.8,1.4.2.5.3,1.1.3,1.8s0,1.5,0,2.2c0,.7,0,1.4,0,2,0,.6,0,1.1,0,1.5,0,.4.2.8.4,1h-1.7ZM33.2,82.4c.4,0,.8,0,1.1-.2.4-.1.7-.3.9-.5.3-.2.5-.5.6-.7.2-.3.2-.6.2-1,0-.4,0-.8,0-1.3,0-.4,0-.9,0-1.4h-2.9c-.3,0-.7,0-1,.1-.3,0-.6.2-.8.4-.2.2-.4.4-.6.7-.1.3-.2.6-.2,1.1s0,.7.1,1.1c0,.3.2.6.4.9.2.3.5.5.8.6.3.1.7.2,1.2.2"/>
        <path class="cls-1" d="M46,72c.1,0,.3,0,.5,0,.2,0,.3,0,.4.1.1,0,.3.1.4.2v1.2c-.1,0-.2,0-.4-.1-.1,0-.3,0-.4,0-.2,0-.3,0-.5,0-.6,0-1.1,0-1.5.3-.4.2-.7.4-1,.7-.2.3-.4.6-.5.9,0,.3-.1.7-.1,1v3.7c0,.9,0,2,0,3.1h-1.9v-4.2c0-.8,0-1.5,0-2.3,0-.7,0-1.4-.1-2,0-.6-.1-1.1-.2-1.5,0-.4-.2-.7-.4-.9h1.7c.4.4.6,1,.8,2,.3-.8.7-1.4,1.3-1.8.6-.3,1.2-.5,2-.5"/>
        <path class="cls-1" d="M48,77.8c0-1.2.1-2.1.4-2.8.2-.7.6-1.3,1-1.8.4-.4,1-.7,1.6-.9.6-.2,1.4-.2,2.2-.2s1.5.1,2,.4c.5.3.8.6,1.1,1.1v-6.4h1.9v9.3c0,.8,0,1.5,0,2.3,0,.7,0,1.4.1,2,0,.6.1,1.1.2,1.5,0,.4.2.7.4.9h-1.7c-.4-.4-.6-1-.8-2-.3.8-.7,1.4-1.3,1.7-.6.3-1.2.5-2,.5s-1.8-.1-2.4-.3c-.7-.2-1.2-.6-1.6-1-.4-.5-.7-1-.9-1.7-.2-.7-.3-1.5-.3-2.5M50.1,77.8c0,.8,0,1.4.1,2,0,.6.2,1.1.5,1.4.2.4.5.7,1,.9.4.2.9.3,1.6.3s1.1,0,1.5-.3c.4-.2.7-.4.9-.7s.4-.7.5-1.1c.1-.4.2-.8.2-1.2,0-.2,0-.5,0-.9v-1.2c0-.5,0-1,0-1.5,0-.9-.4-1.6-.9-2-.5-.4-1.2-.6-2.2-.6s-.9,0-1.3.3c-.4.2-.7.4-1,.8-.3.4-.5.9-.6,1.5-.1.6-.2,1.4-.2,2.2"/>
        <path class="cls-1" d="M62.8,77.3v.3c0,1.5.3,2.6.8,3.5.6.8,1.4,1.3,2.6,1.3s1,0,1.5-.1c.5,0,.9-.2,1.2-.3.4-.1.8-.3,1.2-.4l.2.9c-.3.2-.6.3-1,.5-.3.1-.8.2-1.3.3-.5,0-1.1.1-1.8.1-1,0-1.9-.1-2.6-.4-.7-.3-1.2-.7-1.6-1.2-.4-.5-.7-1.1-.8-1.8-.2-.7-.2-1.4-.2-2.2s0-1.5.2-2.2c.2-.7.4-1.3.9-1.8.4-.5,1-.9,1.6-1.2.7-.3,1.5-.4,2.6-.4s1.7.1,2.3.4c.6.3,1.1.6,1.5,1.1.4.4.7.9.8,1.4.2.5.2,1,.2,1.4v1h-8.3ZM66.2,73c-1,0-1.8.3-2.3.9-.6.6-.9,1.5-1,2.6.2,0,.7,0,1.3,0,.6,0,1.3,0,1.9,0,.7,0,1.3,0,2,0,.6,0,1.1,0,1.4,0,0-.4,0-.9-.2-1.3-.1-.4-.3-.8-.6-1.1-.3-.3-.6-.6-1-.8-.4-.2-.9-.3-1.4-.3"/>
        <path class="cls-1" d="M77.6,72c.8,0,1.5,0,2.1.2.6.2,1.1.5,1.5.9.4.4.7,1,.9,1.8.2.7.3,1.7.3,2.8v5.3h-2v-5.3c0-.9,0-1.6-.2-2.2-.1-.6-.3-1.1-.5-1.5-.2-.4-.5-.7-.9-.8-.4-.2-.8-.3-1.3-.3s-1.3.2-1.7.6c-.5.4-.8,1.1-.9,2v7.5h-1.9v-10.9h1.9v1.4c.2-.5.5-.8,1-1.1.4-.3,1-.4,1.7-.4"/>
        <path class="cls-1" d="M92.9,29.4c-.9,1-1.9,1.9-2.9,2.8-3.8,3.1-8.1,5.4-12.9,6.6-2.4.6-4.8.9-7.2.8-3.8-.1-7.2-1.2-10.4-3.3-.2-.1-.4-.1-.6,0-1.4.5-2.9,1-4.2,1.6-.9.4-1.7.9-2.4,1.6-.7.7-1,1.5-1,2.5,0,2.4,0,4.9,0,7.3v.3c0,0,.1,0,.2,0,1.3-.9,2.8-1.5,4.3-1.9,2.1-.6,4.3-.9,6.5-.9,2.3,0,4.6.1,6.8.7,1,.2,2,.5,3,1,1,.5,2.1.7,3.2.9,1.2.2,2.3.2,3.5,0,2.1-.4,3.8-1.5,5.1-3.2.1-.1.2-.3.3-.4,0-.1.2-.3.3-.4,0,.1,0,.2,0,.4,0,.6-.3,1.1-.7,1.7-.6.9-1.3,1.7-2.2,2.3-.3.2-.6.4-.8.6,0,0-.1,0-.2.2.4,0,.8,0,1.2,0,3.6.1,7.2-.3,10.7-1.3,1.8-.5,3.5-1.2,5.1-2.2.2-.1.3-.2.5-.3,0,0,0,0,0,0-3.2,3.1-7.1,4.9-11.5,5.7-2,.3-4,.4-6,.3-3.1-.2-6.2-.9-9.1-2.2-1.7-.8-3.6-1.2-5.5-1.5,0,0-.2,0-.3,0,0,0,0,0,0,0,0,0,0,0,0,.1.8,1.9,1.9,3.5,3.4,4.9,1.3,1.2,2.7,2,4.4,2.4,0,0,.1,0,.2.1,0,0-.2,0-.3,0-1.5,0-2.9-.3-4.2-1-2.7-1.4-4.6-3.6-5.7-6.5-.1-.3-.1-.3-.4-.3-2.4,0-4.8.2-7.1.9-1.1.3-2.3.7-3.3,1.4-.4.2-.7.5-1,.8-.4.4-.6.9-.6,1.5,0,5.3,0,10.7,0,16v.4h-2.1v-.5c0-5.3,0-10.6,0-16,0-.7-.2-1.2-.7-1.7-.5-.5-1.1-.9-1.7-1.2-1.2-.6-2.6-1-3.9-1.3-1.8-.4-3.7-.6-5.6-.5,0,0-.2,0-.2,0,0,.1,0,.2-.1.4-1.3,3.1-3.4,5.4-6.6,6.8-1.1.5-2.2.7-3.3.6-.1,0-.2,0-.3,0,4-1.1,6.5-3.9,8.1-7.6-.2,0-.3,0-.5,0-1.9.3-3.8.7-5.6,1.5-2.7,1.2-5.6,1.9-8.5,2.1-3.3.3-6.5,0-9.7-1.1-2.8-.9-5.4-2.3-7.6-4.3-.2-.1-.3-.3-.5-.4h0c.3.1.6.3.9.5,1.6.9,3.3,1.5,5,2,2.3.6,4.7,1,7.1,1.1,1.3,0,2.6,0,3.9,0,.1,0,.3,0,.5,0-.1-.1-.2-.2-.3-.2-.9-.6-1.7-1.3-2.3-2.1-.5-.7-1-1.4-1.2-2.2,0-.1,0-.3,0-.4,0,0,0-.1,0-.3.1.2.2.2.2.3.7,1.1,1.6,2,2.7,2.7,1.1.7,2.4,1.1,3.7,1.2,1.6.1,3.1-.1,4.6-.5.2,0,.5-.2.7-.3,2.1-.9,4.3-1.4,6.5-1.7,2.1-.2,4.2-.2,6.3,0,2.1.2,4.1.7,6.1,1.5.7.3,1.5.7,2.1,1.1,0,0,.1,0,.3.2v-.4c0-2.4,0-4.8,0-7.1,0-1.2-.4-2.1-1.3-2.9-.6-.5-1.2-.9-1.9-1.2-1.3-.7-2.8-1.1-4.2-1.6-.4-.2-.8-.1-1.2.1-2.3,1.5-4.8,2.4-7.5,2.9-3,.5-5.9.3-8.9-.4-5.9-1.4-11-4.2-15.4-8.3-.5-.4-.9-.9-1.4-1.4.1,0,.2,0,.2,0,.8.5,1.7,1.1,2.5,1.6,2.4,1.6,4.9,3.2,7.6,4.4.5.2,1,.4,1.5.7,0,0,.2,0,.3.1,0,0,0-.1,0-.2,0-2.6-.3-5.1-1.2-7.5-.3-.7-.6-1.4-1-2-.1-.2-.2-.3-.3-.5,0,0,0,0,0-.1.3.3.6.6.9,1,1.2,1.4,1.9,3.1,2.4,4.9.3,1.3.5,2.7.7,4,0,.3,0,.5.1.8,0,.2.1.3.3.4.5.1,1,.3,1.6.4,1,.2,2.1.4,3.1.6,2.7.4,5.3.1,7.8-.6,1.4-.4,2.8-1,4.2-1.7,0,0,.1,0,.2-.1,0,0,0,0,0,0-.1,0-.2,0-.3-.1-1.3-.4-2.5-1-3.7-1.8-.8-.5-1.6-1.2-2.2-1.9-.6-.7-1-1.5-1.1-2.5,0,0,0-.1,0-.2,0,0,0,0,0,0,0,0,0,0,.1.1.8,1.2,1.9,2.1,3.1,2.8,1.3.8,2.7,1.3,4.1,1.8,1.7.5,3.3,1,5,1.5,1.1.3,2.3.7,3.3,1.2.7.3,1.4.7,2.1,1.2,0,0,0,0,.2.1,0-.1,0-.2,0-.3,0-2.8,0-5.5,0-8.3,0-.1,0-.2,0-.3-.5-2-1.4-3.8-2.9-5.4-1.1-1.2-2.5-2-4-2.6-1.5-.6-3.1-1-4.7-1.4-1.2-.3-2.5-.6-3.7-1-.7-.2-1.5-.5-2.1-1-.6-.4-1-.9-1.3-1.6.1,0,.2,0,.2,0,2.1.9,4.2,1.6,6.4,1.9.3,0,.7.1,1,.2.8,0,1.6.3,2.3.5,0,0,.2,0,.3,0,0,0,0,0,0,0,0-.1-.1-.2-.2-.3-.5-1.1-.8-2.2-.7-3.3,0-.6.1-1.1.3-1.7.5-2,.3-3.9-.6-5.7,0-.2-.2-.3-.3-.5,0,0,0,0,0,0,1.1,1,1.9,2.1,2.1,3.6.1.6,0,1.2,0,1.7-.2,1.1-.3,2.2-.2,3.4,0,1.3.5,2.5,1.4,3.5.2.2.4.4.6.5,1.8.8,3.4,1.8,4.8,3.1.7.7,1.3,1.4,1.8,2.2,0,0,.1.2.2.3,0,0,0,0,.1-.1,1-1.7,2.5-3,4.2-4.1.8-.5,1.7-1,2.6-1.4.2,0,.3-.2.5-.3.9-.9,1.3-2,1.4-3.2.1-1.2,0-2.3-.2-3.4-.4-2.1.3-3.8,1.7-5.3.1-.1.3-.3.4-.4,0,0,0,0,0,0,0,.2-.2.3-.2.5-.4.8-.7,1.7-.9,2.7-.1,1,0,2,.2,3,.2.6.3,1.2.3,1.8,0,1.1-.2,2.2-.6,3.2,0,.2-.1.3-.2.5,0,0,0,0,0,0,0,0,0,0,.1,0,1.1-.3,2.2-.5,3.3-.6,2.3-.3,4.4-1,6.5-1.9,0,0,.2,0,.3-.1,0,0,0,0,.1,0,0,.1,0,.2-.1.3-.4.7-1,1.2-1.7,1.6-.8.5-1.7.7-2.6,1-1.2.3-2.5.6-3.8.9-1.4.4-2.8.8-4.1,1.4-1.8.8-3.3,1.9-4.4,3.5-.9,1.3-1.6,2.7-2,4.3,0,.1,0,.2,0,.4,0,2.7,0,5.5,0,8.2,0,0,0,.2,0,.3,0,0,0,0,.1,0,1.1-.8,2.3-1.4,3.5-1.8,1.5-.5,3-.9,4.5-1.4,1.6-.5,3.2-.9,4.7-1.6,1.3-.6,2.5-1.3,3.6-2.2.5-.4.9-.9,1.2-1.4,0,0,.1-.1.2-.2,0,.2,0,.3,0,.4,0,.8-.4,1.5-.9,2.1-.7.9-1.5,1.6-2.4,2.2-1.1.7-2.4,1.3-3.6,1.8-.1,0-.2,0-.4.1.1,0,.2.1.2.2,2.1,1.1,4.4,1.9,6.8,2.3,1.4.2,2.8.3,4.2.2,1.2,0,2.4-.3,3.5-.5.7-.2,1.4-.3,2.1-.5.3,0,.4-.2.4-.5.2-1.6.4-3.3.8-4.8.5-1.9,1.3-3.7,2.7-5.2.2-.2.3-.4.5-.5,0,0,0,0,0,0-1.1,1.7-1.8,3.6-2.1,5.7-.2,1.4-.4,2.8-.3,4.2,0,0,0,.2,0,.3.1,0,.2,0,.4-.1,2-.8,4-1.8,5.8-2.9,1.7-1,3.4-2.2,5.1-3.3.2-.2.5-.3.7-.4h0Z"/>
        <path class="cls-1" d="M88.8,24c0,2.2-2.2,4.6-4.2,4.7.2-.7.6-1.4,1-2,.4-.6,1-1.1,1.5-1.6-.1,0-.2,0-.3,0-.7.3-1.3.7-1.7,1.3-.3.5-.5,1-.8,1.5,0,0,0,.2-.2.3,0-1.3.3-2.4,1.4-3.2.7-.5,1.4-.8,2.2-.9.3,0,.6-.1,1-.2"/>
        <path class="cls-1" d="M14.5,46.2c-2.3-1.3-3.1-3.7-2.6-5.7,0,0,0,0,.1,0,.8.4,1.6.8,2.2,1.5,1,1.1,1.3,2.4.8,3.8,0,0,0,0,0,0,0,0,0,0,0,0,0-.1,0-.2,0-.3,0-.6-.1-1.2-.3-1.7-.2-.6-.5-1.1-1-1.5-.1,0-.2-.2-.4-.3.3.5.5.9.7,1.3.2.4.3.9.5,1.4.1.5.2,1,.2,1.5"/>
        <path class="cls-1" d="M99.2,54.1c-1.2.3-2.4.2-3.5-.3-1-.4-1.7-1.2-2.3-2.1.8,0,1.5,0,2.2.3.7.2,1.4.5,2,.9,0,0,0-.1-.1-.2-.6-.8-1.5-1.2-2.5-1.4-.3,0-.6,0-.8,0-.1,0-.3,0-.4,0,0,0,0,0,.1,0,1.5-.5,2.8-.3,3.9.8.6.6,1.1,1.3,1.5,2.1,0,0,0,0,0,0"/>
        <path class="cls-1" d="M71.7,52.2c.4,0,.8,0,1.2,0,1,0,1.8.6,2.4,1.3.6.8,1,1.6,1.2,2.5,0,0,0,0,0,.1-1.1,0-2.1-.2-3-.7-1.1-.6-1.8-1.5-2.3-2.7.2,0,.3,0,.4,0,1.3.3,2.4.9,3.3,1.7,0,0,.1.1.2.2,0,0,0,0,0,0,0-.1,0-.2,0-.2-.4-.7-.9-1.2-1.6-1.5-.6-.2-1.2-.4-1.7-.6,0,0,0,0,0-.1"/>
        <path class="cls-1" d="M42.5,9.4c0-1.5.5-2.7,1.9-3.5.7-.4,1.6-.6,2.4-.7.1,0,.2,0,.3,0,0,2.2-2.1,4.4-4.1,4.7,0-.8,1.2-2.4,2.6-3.6-.1,0-.2,0-.3,0-.7.2-1.4.7-1.8,1.3-.3.5-.5,1-.8,1.5,0,0,0,.2-.1.3,0,0,0,0,0,0"/>
        <path class="cls-1" d="M17.7,34.1c-1-.2-1.9-.5-2.6-1.2-1-.9-1.5-2-1.7-3.3,0,0,.1,0,.2,0,.9,0,1.8.2,2.6.6,1.3.7,2,1.8,2.1,3.3,0,0,0,.1,0,.2,0-.1-.1-.2-.2-.3-.3-.5-.5-.9-.8-1.4-.5-.7-1.2-1.2-2-1.4,0,0,0,0,0,0,0,0,0,0,0,0,1.2.9,2.2,2,2.7,3.4"/>
        <path class="cls-1" d="M18.2,59.3c-.2-.7-.2-1.4-.2-2.1,0-.2,0-.3,0-.5.3-1.6,1.2-2.6,2.7-3.1,0,0,0,0,.1,0,0,0-.1.1-.2.2-.4.4-.8.7-1.1,1.1-.6.6-.9,1.4-.9,2.3,0,0,0,.1,0,.2.5-1.4,1.4-2.6,2.6-3.5,0,1.1,0,2.1-.5,3-.6,1.1-1.5,1.9-2.7,2.5"/>
        <path class="cls-1" d="M25.7,13.5c1.2.5,2.2,1.2,3,2.2.2.2.3.4.4.6-2.2.2-4.4-1.1-5.2-3.4,0,0,.1,0,.2,0,.8-.1,1.7-.1,2.5,0,1.5.4,2.4,1.3,2.8,2.8,0,0,0,0,0,0,0,0,0,0,0,0,0-.1-.2-.2-.2-.3-.3-.4-.7-.8-1-1.1-.6-.6-1.3-.9-2.2-.9,0,0,0,0-.1,0,0,0,0,0,0,0"/>
        <path class="cls-1" d="M55.5,30.7c-.6.2-1,.6-1.4,1.1-.4.5-.6,1-.8,1.6,0,.2-.2.4-.3.6,0,0,0-.2,0-.3,0-.9,0-1.7.6-2.4.2-.3.5-.6.9-.9.7-.5,1.9-1,2.8-1.1,0,1.1-.3,2-.9,2.9-.7,1.1-1.7,1.7-2.9,2.1,0-.9,1-2.6,2.1-3.7,0,0,.1,0,.2-.1,0,0,0,0,0,0,0,0-.2,0-.2.1"/>
        <path class="cls-1" d="M70.3,46.8c0-.8.2-1.5.4-2.2.2-.7.6-1.3,1-1.9,0,0,0,0,0,0-.1,0-.2.1-.3.2-.8.6-1.1,1.4-1.3,2.3,0,.3,0,.6-.1,1,0,.1,0,.2,0,.4-.2-.4-.3-.8-.3-1.2,0-.8.2-1.6.7-2.3.7-.9,1.6-1.5,2.7-1.9.3.6.2,2.2-.2,3.1-.4,1.1-1.5,2.3-2.4,2.6"/>
        <path class="cls-1" d="M35.9,25.9c0,0-.2,0-.2,0-.8.3-1.4.8-1.8,1.5-.2.4-.4.9-.7,1.3,0,.1,0,.2-.2.3,0,0,0,0,0-.1,0-1.5.6-2.7,2-3.4.8-.4,1.6-.6,2.5-.7,0,0,0,0,0,0,.1.7-.5,2.2-1.2,3-.7.9-2.1,1.7-3,1.6.2-.7.6-1.4,1-2,.4-.6.9-1.1,1.5-1.6"/>
        <path class="cls-1" d="M85.7,37.5c1.5-.3,2.9-.2,4.4.3,0,0,0-.1-.1-.1-.8-.7-1.8-.9-2.9-.8-.4,0-.8,0-1.2.1,0,0,0,0,.1-.1,1.2-.8,2.5-.9,3.8-.3.9.4,1.5,1.1,2.1,1.9,0,0,0,0,0,.1-1.1.5-2.3.7-3.5.5-1-.2-2.3-1-2.7-1.6"/>
        <path class="cls-1" d="M67.8,20.8c1,.9,1.9,1.8,2.2,3.2.2,1.1-.1,2.1-.8,3,0,0,0-.1,0-.2,0-.5.2-.9.2-1.4,0-.9-.1-1.7-.7-2.5,0,0-.1-.1-.2-.2.5,1.4.5,2.9.1,4.3-.7-.7-1.2-1.6-1.4-2.6-.3-1.3,0-2.5.6-3.7"/>
        <path class="cls-1" d="M65.7,7.5c-.2,1.3-.6,2.4-1.6,3.3-.7.7-2,1.4-2.7,1.3.5-1.5,1.4-2.6,2.6-3.5-.7.2-1.3.5-1.8,1.1-.4.4-.6,1-.9,1.5,0,.2-.2.4-.3.6,0,0,0-.2,0-.2,0-1.6.7-2.7,2.2-3.4.8-.4,1.6-.5,2.5-.6"/>
        <path class="cls-1" d="M7.6,54.7c1.1-.9,2.3-1.4,3.7-1.5,0,0,.1,0,.2,0,0,0,0,0,0,0-.5.9-1.1,1.6-1.9,2.2-1.1.7-2.3.8-3.6.7,0,0,0,0,0-.1.3-.8.7-1.6,1.4-2.3,1.1-1.1,2.3-1.4,3.8-1,0,0,0,0,.1,0-.4,0-.8.1-1.2.2-.4,0-.8.2-1.1.4-.6.3-1.1.7-1.5,1.3,0,0,0,.1-.1.2,0,0,0,0,0,0,0,0,0,0,.1-.1"/>
        <path class="cls-1" d="M79.2,21.2c.7.6,1.3,1.2,1.7,2,.3.4.4.9.5,1.4.1,1-.2,1.9-.7,2.7,0,0,0,0,0,0,0,0,0-.2,0-.3.1-.6.2-1.2.2-1.8,0-.7-.3-1.4-.7-1.9,0,0,0-.1-.2-.2.4,1.5.5,2.9.1,4.4-.7-.8-1.2-1.7-1.4-2.7-.3-1.3,0-2.4.6-3.6"/>
        <path class="cls-1" d="M45.8,39.6c-1.8,1.8-4.3,1.9-6.2.8,0,0,0,0,0,0,.7-.9,1.6-1.6,2.7-1.9,1.2-.4,2.4-.1,3.4.6,0,0,0,0,0,0-.4,0-.8-.1-1.2-.2-.6,0-1.1,0-1.7,0-.5.1-.9.3-1.3.6,0,0,0,0-.1.1,1.5-.4,2.9-.5,4.4,0"/>
        <path class="cls-1" d="M84.1,20.2c.2,1.5,0,2.9-.7,4.3-.5-.4-1-1.9-1-2.9,0-1.2.6-2.7,1.3-3.3,0,0,0,0,0,0,.6.8,1.1,1.6,1.4,2.6.3,1.4-.1,2.6-1.1,3.5,0,0,0,0-.1,0,0-.2.2-.5.3-.7.3-.7.5-1.4.4-2.2,0-.5-.2-1-.5-1.5"/>
        <path class="cls-1" d="M67.5,29.1c0-.2-.2-.4-.3-.6-.2-.5-.5-1-.8-1.4-.4-.5-.9-.9-1.5-1.1,0,0-.1,0-.2,0,1.2.9,2,2.1,2.5,3.5-.5,0-1.8-.6-2.5-1.2-1-.9-1.5-2.1-1.7-3.4,0,0,0,0,.1,0,1,.1,2,.3,2.8.9,1.2.8,1.7,1.9,1.7,3.3,0,0,0,0,0,0"/>
        <path class="cls-1" d="M33.4,35.5c0,0-.1-.2-.2-.2-.4-.4-.7-.8-1.1-1.1-.6-.6-1.4-.8-2.3-.8,0,0,0,0-.2,0,1.5.5,2.7,1.4,3.6,2.6-1,0-2,0-2.8-.5-1.1-.5-2.2-1.6-2.6-2.8,0,0,0,0,0,0,1-.2,2-.3,3,0,1.4.4,2.1,1.3,2.5,2.6,0,0,0,0,0,0,0,0,0,0,0,0"/>
        <path class="cls-1" d="M70.9,33.4c-.4,0-.7,0-1.1.1-.5.1-.9.3-1.3.7-.4.4-.7.7-1.1,1.1,0,0-.2.2-.3.2.3-1.2.9-2.1,2.1-2.6.8-.3,1.7-.4,2.6-.3.3,0,.6,0,1,.1-.5,1-1,1.8-1.9,2.4-1,.7-2.2,1-3.5.9,0-.2,0-.2.1-.3.8-1,1.8-1.8,3.1-2.2,0,0,0,0,.1,0,0,0,0,0,.1,0,0,0,0,0,0,0"/>
        <path class="cls-1" d="M32.8,20.8c1.2,2.1.8,4.5-.8,6.2-.3-.7-.3-1.5-.3-2.2,0-.7.2-1.5.4-2.2-.5.5-.8,1.2-.9,1.9,0,.7,0,1.4.2,2,0,.1,0,.2,0,.3,0,0,0,0,0,0,0-.1-.2-.3-.3-.4-.7-1.2-.7-2.5,0-3.7.4-.7,1-1.4,1.6-1.9,0,0,0,0,.1,0"/>
        <path class="cls-1" d="M6.6,35.6c1.2-.9,2.5-1.3,4-1.4-.1.6-1.2,1.7-2,2.2-1.1.6-2.4.8-3.6.6,0,0,0,0,0,0,.4-1,.9-1.9,1.8-2.6,1-.8,2.2-1,3.5-.6,0,0,0,0,0,0-.3,0-.6,0-.9.1-.4,0-.8.2-1.1.3-.7.2-1.3.7-1.7,1.3,0,0,0,.1-.1.2,0,0,0,0,0,0,0,0,.1,0,.2-.1"/>
        <path class="cls-1" d="M23,48.4c-.2-.9.4-2.5,1.4-4.1-.1,0-.2,0-.2.1-.8.6-1.3,1.4-1.5,2.4,0,.4-.1.8-.2,1.3,0,0,0,0,0,.2,0,0,0-.1,0-.1-.4-1.4-.2-2.7.8-3.8.6-.7,1.4-1.1,2.3-1.5,0,0,0,0,0,0,.7,1.8-.7,5-2.6,5.6"/>
        <path class="cls-1" d="M1.2,54.1c.6-1.1,1.2-2.1,2.3-2.8,1-.6,2.1-.6,3.2-.2,0,0,0,0,.2.1-.3,0-.4,0-.6,0-.5,0-1,.1-1.5.3-.8.2-1.4.7-1.8,1.4.6-.4,1.3-.7,2-.9.7-.2,1.4-.4,2.2-.3-.6,1-1.4,1.7-2.4,2.1-1.1.5-2.3.5-3.5.3"/>
        <path class="cls-1" d="M54.7,24.7c1.4-.4,2.9-.4,4.3,0,0,0-.1-.1-.2-.2-.7-.5-1.5-.7-2.4-.6-.5,0-.9.1-1.4.2,0,0-.2,0-.3,0,0,0,0,0,.1-.1,1.2-.8,2.5-1,3.8-.3.8.4,1.5,1,2.1,1.8-1,.5-2,.8-3.1.7-1.2,0-2.3-.6-3.2-1.5"/>
        <path class="cls-1" d="M31.9,18.4c-.3,0-.7-.1-1-.2-.5,0-1-.1-1.4,0-.6,0-1.3.4-1.8.9.8-.2,1.5-.4,2.2-.4.7,0,1.5,0,2.2.3-.2.4-1.4,1.1-2.3,1.3-1.4.4-2.7,0-3.9-.6,0,0,0-.1.1-.2.6-.6,1.2-1.2,1.9-1.5,1.4-.7,2.7-.6,3.9.3,0,0,0,0,.1.1,0,0,0,0,0,0"/>
        <path class="cls-1" d="M67.1,42.2c-.1,0-.2,0-.3,0-.7.2-1.3.7-1.7,1.4-.3.4-.5.9-.7,1.4,0,.1-.1.2-.2.3,0,0,0-.2,0-.3,0-1.6.8-2.8,2.3-3.4.6-.3,1.3-.4,2-.5,0,0,.1,0,.2,0,.1.6-.5,2.1-1.1,2.9-.7.9-2.1,1.8-3.1,1.8.1-.5.3-.9.6-1.3.3-.4.5-.8.9-1.2.3-.4.7-.7,1.1-1.1"/>
        <path class="cls-1" d="M25.1,22.5c.3,0,.6,0,.9.1.7.1,1.4.4,2,.7,1.2.8,1.7,1.9,1.7,3.3,0,0,0,0,0,0,0,0,0-.2-.1-.2-.2-.5-.4-.9-.7-1.4-.5-.8-1.1-1.3-2-1.5,0,0,0,0-.1,0,1.2.9,2.1,2.1,2.6,3.5-.5,0-1.9-.6-2.6-1.2-1-.9-1.5-2.1-1.7-3.4"/>
        <path class="cls-1" d="M68.5,18.9c1.5-.4,2.9-.4,4.4,0,0-.1-.1-.2-.2-.2-.7-.5-1.5-.8-2.3-.7-.5,0-1,.1-1.4.2-.1,0-.2,0-.3,0h0c.2-.2.4-.4.7-.5,1-.5,2.1-.6,3.2,0,.9.4,1.6,1.1,2.3,1.9-1,.5-2,.8-3.2.7-1.2-.1-2.2-.6-3.1-1.5"/>
        <path class="cls-1" d="M39.2,42.7c1.1,1,1.8,2.2,2.2,3.7-1.1-.4-2-.9-2.7-1.8-.7-1-1.1-2.1-1.1-3.3.4.1.7.2,1.1.3.7.2,1.3.5,1.9,1,1.1.9,1.4,2.1,1.2,3.4,0-.1,0-.2-.1-.3-.2-.4-.3-.8-.5-1.2-.4-.8-1-1.5-1.8-1.8,0,0-.2,0-.3-.1h0c0,.1.1.1.2.2"/>
        <path class="cls-1" d="M45.7,24.2c-.3,0-.5,0-.7-.1-.6-.1-1.3-.2-1.9-.1-.6,0-1.1.3-1.6.7,0,0,0,0-.1.1.8-.2,1.5-.4,2.2-.4.7,0,1.5,0,2.2.3-.8.7-1.6,1.2-2.6,1.4-1.3.3-2.5,0-3.6-.6,0,0,0,0,0-.1.6-.7,1.3-1.3,2.1-1.7,1.4-.7,2.7-.5,3.9.4,0,0,0,0,.1.1"/>
        <path class="cls-1" d="M57.5,14.8c-2-.1-4.2-2.6-4.2-4.7,0,0,0,0,.1,0,.9,0,1.7.3,2.4.7,1.4.7,2,1.9,2,3.4,0,0,0,.1,0,.2-.1,0-.1-.2-.2-.3-.2-.5-.5-.9-.7-1.4-.4-.7-1.1-1.2-1.9-1.4,0,0,0,0-.2,0,1,.8,1.8,1.8,2.4,3,0,.2.1.4.2.6"/>
        <path class="cls-1" d="M47.4,34c0,0,0-.2-.1-.3-.2-.4-.3-.9-.5-1.3-.4-.8-.9-1.4-1.8-1.7,0,0-.1,0-.2,0,0,0,0,0,0,0,1.1,1,1.9,2.2,2.3,3.7-.9-.3-1.8-.7-2.4-1.5-.9-1-1.3-2.2-1.3-3.5,0,0,.1,0,.2,0,.9.2,1.7.4,2.5.9,1.2.8,1.7,1.9,1.7,3.4,0,0,0,.2,0,.3,0,0,0,0,0,0"/>
        <path class="cls-1" d="M24,27.4c-.6.1-1.1.4-1.5.8-.3.3-.6.7-.8,1.1-.2.4-.4.8-.6,1.2,0-.1,0-.2,0-.2,0-1.5.6-2.7,2-3.4.8-.4,1.6-.6,2.4-.7,0,0,0,0,0,0,0,0,0,0,0,0-.1,1.1-.5,2.1-1.2,2.9-.8.9-1.8,1.4-3,1.8.2-.8.6-1.4,1-2,.4-.6.9-1.1,1.5-1.6"/>
        <path class="cls-1" d="M84.6,53.6c1.2,0,2.1.5,2.8,1.5.5.8.8,1.6.9,2.5,0,.3,0,.6,0,1-1.1-.3-2.1-.7-2.9-1.5-.8-.9-1.2-1.9-1.4-3.1.8.3,1.4.7,1.9,1.2.5.5,1,1,1.4,1.7,0,0,0-.2,0-.2-.2-.8-.6-1.5-1.3-2-.4-.3-.7-.5-1.1-.7-.1,0-.2-.1-.4-.2,0,0,0,0,0,0"/>
        <path class="cls-1" d="M16.8,18.3c1.5,1.9,1.7,4.3.3,6.3-.4-.7-.6-1.4-.7-2.1-.1-.7-.1-1.5,0-2.2-.2.3-.4.7-.5,1.1-.1.6,0,1.2.1,1.7.1.4.3.8.4,1.1,0,0,0,.2,0,.3,0,0-.2-.2-.2-.2-1-1.1-1.3-2.3-.8-3.7.2-.7.8-1.7,1.3-2.3"/>
        <path class="cls-1" d="M62.9,51.3c0,.2-.1.3-.2.5-.2.6-.5,1.3-.5,2,0,.7.1,1.3.5,1.9-.2-1.5,0-2.9.7-4.4.6.9.9,1.8.9,2.7,0,1.2-.4,2.6-1.2,3.6,0,0,0,0,0,0-.6-.8-1.2-1.6-1.4-2.6-.3-1.4.1-2.5,1.1-3.5,0,0,0,0,.2,0"/>
        <path class="cls-1" d="M94.1,35.7c-.4-.8-1.1-1.3-2-1.6-.4-.1-.9-.2-1.3-.3-.2,0-.3,0-.5-.1,0,0,0,0,.1,0,1.4-.4,2.7-.2,3.8.9.6.6,1.1,1.4,1.4,2.2,0,0,0,0,0,.1-1.1.2-2.1.1-3.1-.3-1.1-.5-1.9-1.3-2.6-2.3.4-.1,1.2,0,2.2.4.7.3,1.4.6,2,1"/>
        <path class="cls-1" d="M75.4,22.5c-.2,1.2-.6,2.3-1.5,3.2-.7.7-2,1.4-2.7,1.4.5-1.5,1.4-2.6,2.6-3.5-.7.2-1.3.5-1.7,1-.4.4-.7,1-.9,1.5,0,.2-.2.4-.3.6,0,0,0,0,0-.1,0-1.5.6-2.7,2-3.4.8-.4,1.7-.6,2.5-.7,0,0,0,0,.1,0"/>
        <path class="cls-1" d="M39.1,12.2c-1.2-.3-2.2-.8-3-1.7-.7-.9-1.1-1.9-1.3-3,.3,0,.5,0,.8.1.7.1,1.3.3,1.9.6,1.2.6,2,1.8,1.9,3.6,0,0,0-.1-.1-.2-.3-.5-.5-1-.8-1.5-.5-.8-1.2-1.3-2.1-1.5.6.4,1.1,1,1.6,1.6.4.6.8,1.2,1,2"/>
        <path class="cls-1" d="M56.1,18.3c-.1-.3-.3-.6-.4-.9-.2-.5-.5-.9-.8-1.3-.5-.5-1.1-.9-1.8-1,.6.4,1.1,1,1.6,1.6.4.6.8,1.2,1,2-2-.1-4.1-2.5-4.2-4.7.2,0,.3,0,.5,0,.8.1,1.6.4,2.4.8,1.2.8,1.7,1.9,1.7,3.3,0,0,0,0,0,.1"/>
        <path class="cls-1" d="M68.3,8.6c.6.5,1,1,1.4,1.6.4.5.6,1.1.7,1.7.2,1.1-.2,2-.8,2.8,0,0,0,0,0,0,0-.2,0-.4.1-.5.1-.6.2-1.2.2-1.8,0-.7-.3-1.3-.7-1.9,0,0,0,0,0,0,0,0,0,0,0,0,.4,1.4.5,2.9,0,4.4-.7-.8-1.2-1.7-1.4-2.7-.2-1.3,0-2.4.7-3.6"/>
        <path class="cls-1" d="M41.2,32.8c0-.1,0-.2,0-.3,0-.5,0-1-.1-1.5-.1-.8-.5-1.4-1.1-2,0,0-.1,0-.2-.1.7,1.3,1.1,2.7,1,4.3-.9-.6-1.5-1.3-1.9-2.2-.6-1.2-.6-2.5-.3-3.8,0,0,0,0,.1,0,.8.5,1.6,1,2.2,1.8.9,1.2,1,2.4.4,3.8,0,0,0,0,0,0,0,0,0,0,0,0"/>
        <path class="cls-1" d="M61.9,27.1c.7,2.2,0,4.6-2.1,5.9-.1-.8,0-1.5.2-2.2.2-.7.5-1.4.8-2-.5.3-.8.7-1.1,1.3-.2.5-.3,1-.4,1.5,0,.3,0,.7,0,1,0,0,0,.1,0,.3,0-.1-.1-.2-.1-.3-.6-1.5-.4-2.8.7-4,.6-.6,1.2-1.1,2-1.5"/>
        <path class="cls-1" d="M27.3,36.3c0,0,0-.2-.1-.3-.2-.4-.5-.9-.7-1.3-.5-.7-1.2-1.2-2-1.4,0,0,0,0-.2,0,1.3.9,2.2,2,2.8,3.4-.6,0-2-.5-2.7-1.2-1-.9-1.5-2-1.7-3.3,0,0,.1,0,.2,0,.8,0,1.5.2,2.3.5,1.5.6,2.2,1.8,2.3,3.4,0,0,0,.1,0,.2,0,0,0,0,0,0"/>
        <path class="cls-1" d="M6.2,46.9c0-.3,0-.5,0-.8,0-.5-.1-.9-.3-1.3-.2-.8-.7-1.3-1.4-1.8.8,1.3,1.3,2.6,1.3,4.2-.9-.6-1.6-1.3-2.1-2.2-.6-1.1-.7-2.4-.4-3.6,0,0,0,0,0,0,1,.4,1.9,1,2.5,1.8.8,1.1.9,2.3.5,3.6,0,0,0,0,0,0s0,0,0,0"/>
        <path class="cls-1" d="M82.8,34.1c.6-1.4,1.5-2.5,2.7-3.4-.7.1-1.3.4-1.8,1-.4.4-.7,1-1,1.5,0,.2-.2.3-.3.5,0,0,0-.1,0-.2,0-1.5.8-2.6,2.1-3.3.8-.4,1.6-.5,2.5-.6,0,0,0,0,.1,0,0,.6-.6,2.1-1.3,2.9-.8.8-2.3,1.6-3.1,1.6"/>
        <path class="cls-1" d="M59,39.6c-.5-.4-1.1-.7-1.7-.7-.7,0-1.4,0-2,.2-.1,0-.2,0-.3,0,0,0,0,0,0,0,0,0,0,0,0,0,1.1-.8,2.3-1,3.6-.5,1,.4,1.8,1.1,2.5,1.9-1,.5-2,.8-3.1.7-1.2,0-2.2-.6-3.1-1.4,0-.1.2-.1.3-.2.8-.2,1.6-.2,2.4-.2.5,0,.9,0,1.3.3,0,0,0,0,.1,0h.2c0,0,0,0,0,0,0,0-.1,0-.2,0"/>
        <path class="cls-1" d="M32.2,8.6c1.2,2,1,4.5-.7,6.2-.3-.7-.3-1.4-.3-2.2,0-.7.1-1.4.3-2.2,0,0-.1.1-.2.2-.5.7-.7,1.5-.6,2.4,0,.6.2,1.1.2,1.7,0,0-.1,0-.1-.1-.4-.6-.7-1.2-.8-2,0-.5,0-1.1.2-1.6.4-1,1.1-1.8,1.8-2.4,0,0,0,0,0,0"/>
        <path class="cls-1" d="M18.1,46c0,0,0-.2,0-.2-.4-1.5,0-2.8,1.1-3.9.6-.6,1.3-1,2.1-1.3.3.5.2,1.9-.1,2.8-.4,1.3-1.3,2.2-2.5,2.9,0-.2,0-.3,0-.4,0-.6.2-1.2.4-1.8.2-.7.5-1.3,1-1.9,0,0,0,0,.1-.2-.1,0-.2,0-.2.1-.8.6-1.3,1.4-1.5,2.4,0,.3-.1.6-.2,1,0,.1,0,.3,0,.4,0,0,0,0,0,0"/>
        <path class="cls-1" d="M44.4,18.3c0-1.2.3-2.3,1.3-3.1.7-.6,1.5-.8,2.4-1,.3,0,.6,0,.9-.1.1.6-.5,2.1-1.1,2.9-.8,1-1.8,1.5-3.1,1.8.2-.8.6-1.4,1-2,.4-.6,1-1.1,1.5-1.6,0,0-.2,0-.2,0-.8.3-1.4.7-1.8,1.4-.2.4-.4.8-.7,1.2,0,.2-.1.3-.2.5,0,0,0,0,0,0"/>
        <path class="cls-1" d="M88,48.9c.6-1.4,1.6-2.5,3-3.3-.5,0-.9.2-1.2.4-.5.2-.9.6-1.2,1-.3.4-.5.8-.8,1.2,0,0-.1.2-.2.3,0,0,0-.1,0-.2.2-1.7,1.1-2.7,2.7-3.3.7-.2,1.4-.3,2.2-.3s0,0,.1,0c0,.6-.6,1.9-1.3,2.6-.9,1-2,1.4-3.3,1.6"/>
        <path class="cls-1" d="M55.1,6.3c1.2.9,2.1,2.1,2.6,3.6-.7,0-2-.7-2.7-1.4-.9-.9-1.3-2-1.5-3.2.1,0,.2,0,.3,0,1,.1,1.9.4,2.7.9,1.2.8,1.7,1.9,1.6,3.3,0,0,0-.1-.1-.2-.3-.5-.5-1-.8-1.5-.4-.7-1-1.1-1.8-1.4,0,0-.2,0-.3,0"/>
        <path class="cls-1" d="M29.3,52.7c-.4,1.9-3.1,3.7-5.3,3.3,0,0,0-.2,0-.2.2-.7.5-1.3.8-1.9.5-.8,1.2-1.5,2.2-1.7.5-.1,1-.1,1.5,0,0,0,.1,0,.2,0-.1,0-.2,0-.3.1-.5.2-1,.3-1.5.5-.8.3-1.4.9-1.7,1.8,0,0,.1,0,.2-.1,1-.9,2.1-1.5,3.4-1.8,0,0,.2,0,.3,0,0,0,0,0,0,0"/>
        <path class="cls-1" d="M43.1,14.8c.5-1.5,1.3-2.6,2.6-3.6-.1,0-.2,0-.3,0-.7.2-1.3.6-1.8,1.3-.3.5-.5,1-.8,1.5,0,.1,0,.2-.2.4,0-.1,0-.2,0-.2,0-1.6.7-2.8,2.2-3.5.7-.4,1.5-.5,2.3-.6,0,0,0,0,.1,0,0,.6-.4,2-1,2.8-.8,1-1.8,1.6-3.1,1.9"/>
        <path class="cls-1" d="M64.9,13.6c-.8,0-1.5.2-2.1.7-.5.4-.9.8-1.2,1.3,0,.1-.2.2-.3.3,0,0,0,0,0,0,0-.1,0-.3.1-.4.4-1.4,1.3-2.2,2.8-2.5.9-.2,1.8-.2,2.6,0,0,.6-.9,1.8-1.6,2.4-1,.8-2.4,1.2-3.6,1.1,0-.2,0-.3.2-.4.6-.8,1.4-1.5,2.3-2,.2-.1.5-.2.7-.4,0,0,.1,0,.2,0"/>
        <path class="cls-1" d="M53.4,47.6c.3-1.5,1.1-2.7,2.2-3.8,0,0-.2,0-.2,0-.7.3-1.3.8-1.7,1.5-.2.5-.4.9-.6,1.4,0,.1,0,.2-.1.3,0,0,0,0,0,0,0,0,0-.1,0-.2,0-1.6.6-2.8,1.9-3.6.7-.4,1.6-.7,2.3-.8.2.4-.2,2.1-.9,3-.7,1-1.7,1.6-2.8,2"/>
        <path class="cls-1" d="M94.8,47.1c0-1.5.4-2.9,1.3-4.2,0,0-.1,0-.2.1-.8.6-1.2,1.4-1.4,2.3,0,.4,0,.7-.1,1.1,0,.1,0,.2,0,.4-.2-.3-.3-.7-.3-1.1-.1-1,.2-2,.9-2.8.7-.7,1.5-1.3,2.4-1.7.3.5.2,2.1,0,3-.4,1.2-1.2,2.1-2.3,2.8"/>
        <path class="cls-1" d="M59.3,56c-1.3,0-2.4-.4-3.4-1.2-.8-.7-1.3-1.5-1.6-2.5.8.1,1.5.5,2.1.8.6.4,1.2.9,1.7,1.4-.2-.6-.5-1-.9-1.4-.4-.4-.9-.6-1.4-.8-.3-.1-.6-.2-.8-.3,0,0-.2,0-.3-.1.3-.1.6,0,.9,0,1.2,0,2.1.6,2.8,1.6.5.8.8,1.6,1,2.5,0,0,0,0,0,.2"/>
        <path class="cls-1" d="M79,31c-1.2-.2-2.2-.8-2.9-1.7-.7-.9-1.1-1.9-1.2-3,.3,0,.5,0,.7,0,.7.1,1.4.3,2,.7,1.4.7,2,1.9,2,3.4,0,0,0,0,0,.1,0,0,0-.1-.1-.2-.2-.4-.4-.9-.7-1.3-.4-.8-1.1-1.3-2-1.6,0,0-.1,0-.2,0,1.2.9,2.1,2.1,2.5,3.5"/>
        <path class="cls-1" d="M71.1,15.7c.3-1.3,1-2.3,2.3-2.8,1-.4,2.1-.3,3.1-.2,0,0,0,0,0,0-.4,1-1,1.9-2,2.6-1,.7-2.1.9-3.2.9.2-.8,1.8-2.1,3.4-2.8-.1,0-.2,0-.2,0-1,0-1.8.5-2.5,1.2-.3.3-.5.6-.7.9,0,0-.1.2-.2.2,0,0,0,0,0,0"/>
        <path class="cls-1" d="M59.9,21.7c.8-.3,1.5-.3,2.2-.3.7,0,1.5.1,2.2.4,0,0,0-.1-.1-.1-.7-.5-1.4-.8-2.2-.7-.5,0-1.1.1-1.6.2,0,0-.2,0-.3,0,0,0,0,0,0,0,.2-.1.4-.2.5-.3,1.1-.6,2.2-.7,3.4-.1.9.4,1.6,1.1,2.3,1.8-1,.5-2,.8-3.1.7-1.2,0-2.3-.6-3.2-1.5"/>
        <path class="cls-1" d="M34.4,22.5c1-1.1,2-1.9,3.4-2.2.8-.1,1.5,0,2.2.4.2.1.4.2.6.4,0,0,0,0,0,0-.3,0-.6-.1-1-.2-.6,0-1.1-.1-1.7,0-.6.1-1.1.4-1.6.8,1.5-.5,2.9-.5,4.5,0-.8.7-1.7,1.2-2.7,1.4-1.3.2-2.4,0-3.6-.6"/>
        <path class="cls-1" d="M14.8,37.6c-.7.7-1.6,1.2-2.6,1.5-1.3.3-2.4,0-3.6-.4,0,0,0-.2.2-.2.6-.7,1.2-1.3,2-1.7,1.3-.7,2.6-.6,3.9.2,0,0,0,0,0,.1-.4,0-.8,0-1.2-.1-.6,0-1.1,0-1.7,0-.5.1-1,.4-1.4.8.3-.1.7-.2,1-.3.3,0,.7-.1,1.1-.2.4,0,.7,0,1.1,0,.4,0,.7,0,1.1.1h0Z"/>
        <path class="cls-1" d="M66.4,56.1c.2.6.3,1.2.5,1.7.3.8.8,1.4,1.5,1.8,0,0,.1,0,.2,0-1-1.2-1.6-2.5-1.8-4.1,1,.5,1.8,1.1,2.4,1.9.7,1.1.9,2.3.8,3.5,0,0,0,0,0,0-.9-.3-1.8-.7-2.6-1.4-1-.9-1.3-2.1-1.1-3.4,0,0,0-.1,0-.2,0,0,0,0,.1,0"/>
        <path class="cls-1" d="M82.4,46c0-.5-.2-1-.3-1.5-.2-.9-.7-1.7-1.4-2.2,0,0-.1,0-.2,0,.4.6.8,1.3,1,2,.2.7.4,1.4.4,2.2-1.9-.7-3.3-3.7-2.6-5.7,0,0,.1,0,.1,0,.8.3,1.5.7,2.1,1.3,1.1,1.1,1.4,2.4,1,3.9,0,0,0,0,0,.1,0,0,0,0,0,0"/>
        <path class="cls-1" d="M37.5,57.6c-1.5-1.9-1.7-4.3-.3-6.3.7,1.4.9,2.8.6,4.4,0,0,.1-.1.1-.2.5-.9.5-1.8.2-2.7-.1-.4-.3-.8-.4-1.2,0,0,0-.2-.1-.3,0,0,.1,0,.1,0,1,1.1,1.5,2.3,1,3.7-.3.9-.8,1.7-1.4,2.5"/>
        <path class="cls-1" d="M42.6,54.4c.9-1.1,2.8-2.2,3.6-2.1-.4,2-2.9,3.9-5,3.7,0,0,0,0,0-.1.2-.9.5-1.8,1-2.6.8-1.2,2-1.6,3.4-1.5,0,0,0,0,.2,0-.1,0-.2,0-.3.1-.4.2-.8.3-1.2.5-.9.4-1.5,1-1.9,1.9,0,0,0,.2-.1.2,0,0,0,0,0,0,0,0,0,0,.1-.1"/>
        <path class="cls-1" d="M12.9,48.5c0-.1-.1-.2-.2-.3-.3-.4-.5-.9-.8-1.3-.5-.7-1.2-1.1-2.1-1.3,0,0,0,0,0,0,0,0,0,0,0,0,.7.4,1.3.8,1.8,1.4.5.5.9,1.1,1.2,1.9-2.4-.2-4.2-1.9-4.6-4.2.4,0,.9,0,1.3,0,.8.1,1.5.3,2.2.8,1,.7,1.4,1.6,1.5,2.8,0,0,0,0,0,.1"/>
        <path class="cls-1" d="M36,45.8c-2.1-.2-4.3-2.7-4.2-4.7.2,0,.4,0,.7,0,.7.1,1.4.3,2.1.7,1.3.7,2,2.1,1.8,3.5,0-.1-.1-.2-.2-.3-.2-.5-.5-1-.8-1.4-.4-.7-1-1.1-1.8-1.4,0,0-.1,0-.2,0,0,0,0,0-.1,0,.6.5,1.1,1,1.5,1.6.4.6.8,1.2,1,2"/>
        <path class="cls-1" d="M16.3,28.3c-.2-.4-.3-.7-.5-1-.2-.4-.5-.8-.8-1.2-.4-.5-1.1-.8-1.7-.9,1.2.9,2.1,2.1,2.6,3.6-1.1-.3-2-.7-2.8-1.5-.9-.9-1.3-2-1.5-3.2,0,0,.1,0,.2,0,.9.1,1.7.3,2.5.7,1.3.7,2,1.9,1.9,3.4,0,0,0,0,0,0,0,0,0,0,0,0"/>
        <path class="cls-1" d="M13.1,57c.8-1.4,1.9-2.4,3.3-3-.1,1-.4,2-1.1,2.8-.8,1-1.9,1.5-3.1,1.8,0-.2,0-.4,0-.6,0-.8.2-1.6.5-2.3.6-1.3,1.7-2,3.1-2.1,0,0,0,0,.2,0-.1,0-.2.1-.2.2-.4.2-.8.5-1.2.8-.8.6-1.3,1.3-1.5,2.3,0,0,0,0,0,.2"/>
        <path class="cls-1" d="M59.2,46.3c.1-.8.5-1.4.9-2.1.4-.6.9-1.2,1.4-1.7,0,0-.2,0-.3.1-.8.4-1.4,1-1.8,1.8-.2.4-.3.8-.4,1.1,0,.1,0,.2-.1.3-.1-.4,0-.7,0-1.1.1-1.1.7-2,1.6-2.6.8-.5,1.6-.8,2.5-1,0,0,0,0,.1,0,0,1-.3,1.9-.8,2.8-.6,1-1.8,1.9-3,2.2"/>
        <path class="cls-1" d="M73.5,36.7c.6-1.5,1.5-2.6,2.7-3.5-.1,0-.2,0-.4,0-.7.2-1.3.7-1.8,1.3-.3.4-.5.9-.8,1.3,0,0,0,.2-.2.3,0,0,0-.1,0-.2,0-1.6.8-2.7,2.3-3.3.7-.3,1.5-.5,2.3-.5,0,0,.1,0,.2,0-.3,2.3-2,4.2-4.4,4.5"/>
        <path class="cls-1" d="M87.3,42.1c-.7.5-1.2,1.2-1.4,2-.1.5-.2,1-.3,1.5,0,0,0,.1,0,.3,0-.1,0-.2-.1-.3-.5-1.6,0-3,1.2-4,.5-.5,1.2-.8,1.8-1.1,0,0,.1,0,.2,0,.6,2.2-.4,4.6-2.6,5.7,0-.1,0-.2,0-.4,0-1.3.5-2.5,1.3-3.6,0,0,.2-.1.2-.3-.1,0-.2.1-.2.2"/>
        <path class="cls-1" d="M28.8,42.7c.7,1,1.2,2.1,1.4,3.3,0,.3,0,.5,0,.8-2.1-1.1-3.1-3.3-2.6-5.7,0,0,.1,0,.2,0,.7.3,1.4.7,2,1.3,1.2,1.1,1.4,2.4,1,4,0,0,0,0,0,.1,0-.1,0-.2,0-.2,0-.5-.2-1.1-.3-1.6-.2-.9-.8-1.7-1.6-2"/>
        <path class="cls-1" d="M35.6,13.6c1.1.4,2.1,1.1,2.9,2,.2.2.4.5.6.8-.6.2-2.2-.1-3-.7-1.1-.7-1.8-1.6-2.3-2.8.5-.1.9-.1,1.4-.1.5,0,1.1,0,1.6.2,1.4.4,2.2,1.4,2.5,2.8,0,0,0,0,0,0,0,0,0,0,0,0,0-.1-.2-.2-.3-.3-.3-.4-.7-.8-1-1.1-.7-.6-1.5-.9-2.4-.9"/>
        <path class="cls-1" d="M32.1,59.6c.9-.5,1.5-1.3,1.7-2.3.1-.4.2-.7.3-1.1,0,0,0-.2,0-.2.1.2.1.5.2.7.1,1.3-.3,2.3-1.3,3.1-.7.6-1.5,1-2.4,1.3,0-1.2,0-2.2.6-3.2.5-1,1.8-2,2.5-2.2,0,.9-.7,2.8-1.7,3.9,0,0,0,0-.1.1,0,0,0,0,0,0,0,0,0,0,.1,0"/>
        <path class="cls-1" d="M79.7,53.6c.8.2,1.6.7,2.1,1.4.4.6.6,1.3.7,2,0,.7,0,1.4-.1,2.1,0,0,0,0,0,.2-.9-.4-1.7-1-2.3-1.9-.7-1-1-2.2-.9-3.5.2,0,.2,0,.3.2,1,.8,1.8,1.9,2.2,3.1,0,0,0,.2.1.2,0-.6,0-1.1-.3-1.6-.2-.5-.5-.8-.8-1.2-.2-.2-.5-.5-.7-.7,0,0-.2-.1-.2-.2,0,0,0,0,0,0"/>
        <path class="cls-1" d="M78.1,48.1c0-.3,0-.5-.1-.8,0-.4-.1-.8-.3-1.2-.2-.8-.7-1.4-1.4-1.8,0,0,0,0-.1,0,0,0,0,0,0,0,.9,1.2,1.4,2.6,1.5,4.1-.5,0-1.6-1.1-2.1-1.9-.7-1.2-.8-2.4-.6-3.7,0,0,.1,0,.1,0,.9.4,1.7.9,2.4,1.6.9,1.1,1.1,2.3.7,3.6,0,0,0,0,0,0,0,0,0,0,0,0"/>
        <path class="cls-1" d="M45,44c1.1,1,1.8,2.2,2.1,3.6-.6,0-1.9-.8-2.4-1.4-.9-1-1.3-2.2-1.4-3.6,0,0,.1,0,.1,0,.8.2,1.6.4,2.4.9,1.3.8,1.9,2,1.8,3.5,0,0,0,.1,0,.2,0,0,0,0,0,.1,0-.1,0-.3-.1-.4-.2-.5-.4-1-.6-1.5-.4-.7-.9-1.2-1.6-1.5,0,0-.2-.1-.4,0,.1,0,.2.1.2.2"/>
        <path class="cls-1" d="M20.5,23.1c0,0-.1.1-.2.2-.5.6-.7,1.4-.7,2.2,0,.6.1,1.1.2,1.7,0,0,0,.1,0,.2,0,0-.1,0-.1-.1-.8-1.1-1-2.3-.4-3.6.4-1,1.1-1.7,1.9-2.4.5,1,.8,2.1.7,3.2-.1,1.2-.7,2.2-1.5,3.1-.3-.8-.3-1.5-.3-2.2,0-.7.2-1.4.4-2.2"/>
        <path class="cls-1" d="M92.9,54.6c-.5-.9-1.3-1.3-2.3-1.6-.4-.1-.9-.2-1.3-.3,0,0,0,0-.2,0,.1,0,.2,0,.2,0,1.5-.4,2.8,0,3.8,1.2.5.6.9,1.4,1.2,2.1,0,0,0,0,0,.2-1.1.1-2.1,0-3.1-.4-1.1-.5-1.9-1.4-2.5-2.4.8-.2,2.8.5,3.9,1.4,0,0,.1.1.2.2,0,0,0,0,0,0,0,0-.1-.1-.2-.2"/>
        <path class="cls-1" d="M17.3,25.8s0,0,0,.1c0-.1-.2-.3-.3-.4.2,0,.3.1.3.3"/>
        <path class="cls-1" d="M83.3,26s0,0,0,0c.1-.1.2-.2.3-.3,0,0,0,0,0,0,0,.1-.2.3-.3.4"/>
        <path class="cls-1" d="M2.5,46.8h0c-.1,0-.2-.1-.3-.2,0,0,0,0,0,0,.1,0,.3.2.4.3"/>
        <path class="cls-1" d="M98.2,46.7s0,0,0,0c.1,0,.2-.2.3-.3,0,.2-.1.3-.2.3"/>
        <path class="cls-1" d="M92.9,29.4s0,0,0,0c0,0,.2-.1.3-.2,0,0,0,0,0,0,0,0-.2.2-.2.2"/>
        <path class="cls-1" d="M45,44c0,0-.1,0-.2-.2.2,0,.3,0,.4,0,0,0,0,0-.1,0"/>
        <path class="cls-1" d="M39.6,6.5h0c0,0-.1,0-.2-.1,0,0,0,0,0,0,0,0,.1.1.2.2"/>
        <path class="cls-1" d="M87.3,42.1c0,0,.1-.1.2-.2,0,.2,0,.2-.2.3,0,0,0,0,0,0"/>
        <path class="cls-1" d="M92.9,54.6c0,0,.1.1.2.2,0,0,0,0,0,0,0,0-.1-.1-.2-.2,0,0,0,0,0,0"/>
        <path class="cls-1" d="M39.2,42.7c0,0-.1,0-.2-.1h0c0,0,.2,0,.3,0h-.1Z"/>
        <path class="cls-1" d="M55.5,30.7c0,0,.2,0,.2-.1,0,0,0,0,0,0,0,0-.1,0-.2.1,0,0,0,0-.1,0"/>
        <path class="cls-1" d="M6.6,35.6c0,0-.1,0-.2.1,0,0,0,0,0,0,0,0,0-.1.1-.2,0,0,0,0,0,0"/>
        <path class="cls-1" d="M42.6,54.4s0,0-.1.1c0,0,0,0,0,0,0,0,0-.2.1-.2h0Z"/>
        <path class="cls-1" d="M71.7,52.2s0,0,0,.1c0,0,0,0-.1,0,0,0,0,0,0,0,0,0,.1,0,.2,0"/>
        <path class="cls-1" d="M7.6,54.7s0,0-.1.1c0,0,0,0,0,0,0,0,0-.1.1-.2,0,0,0,0,0,0"/>
        <path class="cls-1" d="M32.1,59.6s0,0-.1,0c0,0,0,0,0,0,0,0,0,0,.1-.1,0,0,0,0,0,0"/>
        <path class="cls-1" d="M66.4,56.1s0,0-.1,0c0,0,0,0,0-.1,0,0,0,0,0,.1"/>
        <path class="cls-1" d="M59,39.6c0,0,.1,0,.2,0,0,0,0,0,0,0h-.2c0,0,0-.2,0-.2Z"/>
      </g>
    </g>
  </g>
</svg>