<svg width="53" height="43" viewBox="0 0 53 43" fill="none" xmlns="http://www.w3.org/2000/svg">
<g clip-path="url(#clip0_1_5865)">
<path d="M42.1562 11.4785V29.0412H34.4394V17.6831H19.1514L24.445 11.4785H42.1562Z" fill="#A14516"/>
<path opacity="0.5" d="M42.1562 11.4785V29.0412H34.4394V17.6831H19.1514L24.445 11.4785H42.1562Z" fill="url(#paint0_linear_1_5865)"/>
<path d="M42.1561 14.519V29.0309H20.7632C12.9424 29.0309 6.57765 22.7231 6.57765 14.9725C6.56725 7.22179 12.932 0.914062 20.7632 0.914062H42.1561L36.3321 8.56167H20.7632C17.196 8.56167 14.284 11.4373 14.284 14.9828C14.284 18.5283 17.1856 21.4039 20.7632 21.4039H34.8865C38.7761 21.3936 41.9793 18.3428 42.1561 14.519Z" fill="url(#paint1_linear_1_5865)"/>
<path opacity="0.5" d="M42.1562 0.914062L36.3322 8.56167H13.8474C9.94738 8.56167 6.75458 11.6125 6.57778 15.426C6.57778 15.2817 6.56738 15.1271 6.56738 14.9725C6.56738 7.22179 12.9322 0.914062 20.7634 0.914062H42.1562Z" fill="url(#paint2_linear_1_5865)"/>
<mask id="mask0_1_5865" style="mask-type:luminance" maskUnits="userSpaceOnUse" x="0" y="0" width="53" height="43">
<path d="M52.0464 0.914062H0.0463867V42.9141H52.0464V0.914062Z" fill="white"/>
</mask>
<g mask="url(#mask0_1_5865)">
<path d="M2.98959 37.0701C2.98959 37.6164 2.63599 37.9977 2.12639 37.9977C1.57519 37.9977 1.25279 37.6164 1.25279 37.0701C1.25279 36.7919 1.33599 36.5651 1.49199 36.4002H0.930387C0.555987 36.4002 0.337587 36.7506 0.337587 37.3072V38.6883H0.0463867L0.0463867 37.2969C0.0463867 36.5342 0.337587 36.1631 0.930387 36.1631H2.12639C2.65679 36.1425 2.98959 36.5136 2.98959 37.0701ZM2.64639 37.0392C2.64639 36.6476 2.46959 36.4002 2.14719 36.4002C1.80399 36.4002 1.61679 36.6579 1.61679 37.0804C1.61679 37.4721 1.80399 37.7195 2.12639 37.7195C2.46959 37.7298 2.64639 37.503 2.64639 37.0392Z" fill="black"/>
</g>
<mask id="mask1_1_5865" style="mask-type:luminance" maskUnits="userSpaceOnUse" x="0" y="0" width="53" height="43">
<path d="M52.0464 0.914062H0.0463867V42.9141H52.0464V0.914062Z" fill="white"/>
</mask>
<g mask="url(#mask1_1_5865)">
<path d="M3.64491 37.5855H3.27051V38.0081H3.64491V37.5855Z" fill="black"/>
</g>
<mask id="mask2_1_5865" style="mask-type:luminance" maskUnits="userSpaceOnUse" x="0" y="0" width="53" height="43">
<path d="M52.0464 0.914062H0.0463867V42.9141H52.0464V0.914062Z" fill="white"/>
</mask>
<g mask="url(#mask2_1_5865)">
<path d="M6.97264 37.0701C6.97264 37.6164 6.62944 37.9977 6.10944 37.9977C5.55824 37.9977 5.23584 37.6164 5.23584 37.0701C5.23584 36.7919 5.31904 36.5651 5.47504 36.4002H4.90304C4.52864 36.4002 4.31024 36.7506 4.31024 37.3072V38.6883H4.01904V37.2969C4.01904 36.5342 4.31024 36.1631 4.90304 36.1631H6.09904C6.63984 36.1425 6.97264 36.5136 6.97264 37.0701ZM6.62944 37.0392C6.62944 36.6476 6.45264 36.4002 6.13024 36.4002C5.78704 36.4002 5.59984 36.6579 5.59984 37.0804C5.59984 37.4721 5.78704 37.7195 6.10944 37.7195C6.45264 37.7298 6.62944 37.503 6.62944 37.0392Z" fill="black"/>
</g>
<mask id="mask3_1_5865" style="mask-type:luminance" maskUnits="userSpaceOnUse" x="0" y="0" width="53" height="43">
<path d="M52.0464 0.914062H0.0463867V42.9141H52.0464V0.914062Z" fill="white"/>
</mask>
<g mask="url(#mask3_1_5865)">
<path d="M7.62782 37.5855H7.25342V38.0081H7.62782V37.5855Z" fill="black"/>
</g>
<mask id="mask4_1_5865" style="mask-type:luminance" maskUnits="userSpaceOnUse" x="0" y="0" width="53" height="43">
<path d="M52.0464 0.914062H0.0463867V42.9141H52.0464V0.914062Z" fill="white"/>
</mask>
<g mask="url(#mask4_1_5865)">
<path d="M9.93699 38.008H8.09619V37.7195H9.62499C9.62499 37.3587 9.56259 37.0598 9.42739 36.8331C9.26099 36.5651 9.00099 36.4208 8.65779 36.4105H8.54339V36.1425C9.12579 36.1425 9.53139 36.3693 9.73939 36.8331C9.87459 37.101 9.93699 37.4927 9.93699 38.008ZM9.03219 35.8436H8.74099V35.4932H9.03219V35.8436Z" fill="black"/>
</g>
<mask id="mask5_1_5865" style="mask-type:luminance" maskUnits="userSpaceOnUse" x="0" y="0" width="53" height="43">
<path d="M52.0464 0.914062H0.0463867V42.9141H52.0464V0.914062Z" fill="white"/>
</mask>
<g mask="url(#mask5_1_5865)">
<path d="M14.0553 36.1425V37.2866C14.0553 37.771 13.8577 38.008 13.4521 38.008H12.1833C11.3825 38.008 10.9873 37.6061 10.9873 36.8125V36.1425H11.2785V36.8125C11.2785 37.4206 11.5697 37.7195 12.1521 37.7195H13.3585C13.6497 37.7195 13.7745 37.6061 13.7745 37.1526V36.1425H14.0553ZM12.4121 36.1425H12.1209V35.7921H12.4121V36.1425ZM12.9529 36.1425H12.6617V35.7921H12.9529V36.1425Z" fill="black"/>
</g>
<mask id="mask6_1_5865" style="mask-type:luminance" maskUnits="userSpaceOnUse" x="0" y="0" width="53" height="43">
<path d="M52.0464 0.914062H0.0463867V42.9141H52.0464V0.914062Z" fill="white"/>
</mask>
<g mask="url(#mask6_1_5865)">
<path d="M14.9079 35.3489H14.6167V38.008H14.9079V35.3489Z" fill="black"/>
</g>
<mask id="mask7_1_5865" style="mask-type:luminance" maskUnits="userSpaceOnUse" x="0" y="0" width="53" height="43">
<path d="M52.0464 0.914062H0.0463867V42.9141H52.0464V0.914062Z" fill="white"/>
</mask>
<g mask="url(#mask7_1_5865)">
<path d="M16.7281 37.2969L16.4369 37.3278C16.4057 37.1629 16.3225 37.0804 16.1665 37.0804C15.9689 37.0804 15.8753 37.2144 15.8753 37.4721C15.8753 37.5752 15.8961 37.6576 15.9377 37.7195H16.7177V38.0081H15.3345V37.7195H15.6257C15.5945 37.637 15.5737 37.5649 15.5737 37.4721C15.5737 37.2866 15.6153 37.1526 15.7089 37.0392C15.8129 36.9155 15.9585 36.8537 16.1561 36.8537C16.4785 36.8537 16.6657 36.998 16.7281 37.2969Z" fill="black"/>
</g>
<mask id="mask8_1_5865" style="mask-type:luminance" maskUnits="userSpaceOnUse" x="0" y="0" width="53" height="43">
<path d="M52.0464 0.914062H0.0463867V42.9141H52.0464V0.914062Z" fill="white"/>
</mask>
<g mask="url(#mask8_1_5865)">
<path d="M18.1944 38.008H17.872C17.7264 38.008 17.6016 37.9565 17.4976 37.8534C17.3728 37.7401 17.3208 37.5752 17.3208 37.3587V35.3489H17.6224V37.1835C17.6224 37.369 17.6536 37.503 17.7056 37.5958C17.7472 37.6679 17.8304 37.7092 17.9448 37.7195C17.976 37.7195 18.0072 37.7195 18.2152 37.7195V38.008H18.1944Z" fill="black"/>
</g>
<mask id="mask9_1_5865" style="mask-type:luminance" maskUnits="userSpaceOnUse" x="0" y="0" width="53" height="43">
<path d="M52.0464 0.914062H0.0463867V42.9141H52.0464V0.914062Z" fill="white"/>
</mask>
<g mask="url(#mask9_1_5865)">
<path d="M22.0422 38.008H18.1006V37.7195H18.4854C18.7558 37.7195 18.9222 37.5442 18.9222 37.1938V36.1425H19.2134V37.2866C19.2134 37.4515 19.1926 37.5958 19.1406 37.7092V37.7298H19.6814C19.9518 37.7298 20.035 37.6061 20.035 37.1629V36.1528H20.3262V37.2969C20.3262 37.4721 20.3054 37.6164 20.243 37.7298H20.7422C21.0542 37.7298 21.1582 37.6061 21.1582 37.1629V36.1528H21.4494V37.2969C21.4494 37.4721 21.4182 37.6164 21.3662 37.7298H22.0318V38.008H22.0422ZM20.0662 35.8436H19.775V35.4932H20.0662V35.8436ZM20.3366 35.3901H20.0454V35.0397H20.3366V35.3901ZM20.6174 35.8436H20.3262V35.4932H20.6174V35.8436Z" fill="black"/>
</g>
<mask id="mask10_1_5865" style="mask-type:luminance" maskUnits="userSpaceOnUse" x="0" y="0" width="53" height="43">
<path d="M52.0464 0.914062H0.0463867V42.9141H52.0464V0.914062Z" fill="white"/>
</mask>
<g mask="url(#mask10_1_5865)">
<path d="M22.9263 36.1425V37.2866C22.9263 37.771 22.7287 38.008 22.3127 38.008H21.9487V37.7195H22.2191C22.3959 37.7195 22.5103 37.6576 22.5727 37.5442C22.6143 37.4721 22.6351 37.3381 22.6351 37.1526V36.1425H22.9263ZM22.9263 35.8436H22.6351V35.4932H22.9263V35.8436Z" fill="black"/>
</g>
<mask id="mask11_1_5865" style="mask-type:luminance" maskUnits="userSpaceOnUse" x="0" y="0" width="53" height="43">
<path d="M52.0464 0.914062H0.0463867V42.9141H52.0464V0.914062Z" fill="white"/>
</mask>
<g mask="url(#mask11_1_5865)">
<path d="M25.8281 38.008H23.3945V37.7195H24.0705L23.5401 35.6581H23.8521L24.3825 37.7195H24.4969C24.7985 37.7195 24.9129 37.5958 24.9129 37.1526V35.3489H25.2041V37.2866C25.2041 37.4618 25.1729 37.6061 25.1209 37.7195H25.8385L25.8281 38.008Z" fill="black"/>
</g>
<mask id="mask12_1_5865" style="mask-type:luminance" maskUnits="userSpaceOnUse" x="0" y="0" width="53" height="43">
<path d="M52.0464 0.914062H0.0463867V42.9141H52.0464V0.914062Z" fill="white"/>
</mask>
<g mask="url(#mask12_1_5865)">
<path d="M26.6807 35.3489V37.2866C26.6807 37.771 26.4831 38.008 26.0671 38.008H25.7031V37.7195H25.9735C26.1503 37.7195 26.2647 37.6576 26.3271 37.5442C26.3687 37.4721 26.3895 37.3381 26.3895 37.1526V35.3489H26.6807Z" fill="black"/>
</g>
<mask id="mask13_1_5865" style="mask-type:luminance" maskUnits="userSpaceOnUse" x="0" y="0" width="53" height="43">
<path d="M52.0464 0.914062H0.0463867V42.9141H52.0464V0.914062Z" fill="white"/>
</mask>
<g mask="url(#mask13_1_5865)">
<path d="M30.0918 38.008H29.8942C29.4782 38.008 29.2182 37.8019 29.1038 37.4103C28.979 37.6164 28.771 37.7298 28.4694 37.7298C28.043 37.7298 27.731 37.2969 27.731 36.7506C27.731 36.1631 28.043 35.7612 28.5214 35.7612H29.4054V37.0804C29.4054 37.4927 29.603 37.7298 29.9358 37.7298H30.0918V38.008ZM29.1038 36.6888V35.9673H28.5734C28.251 35.9673 28.0222 36.2971 28.0222 36.73C28.0222 37.1526 28.2406 37.503 28.563 37.503C28.9166 37.503 29.0934 37.235 29.1038 36.6888ZM28.667 35.452H28.3758V35.1015H28.667V35.452ZM29.2078 35.452H28.9166V35.1015H29.2078V35.452Z" fill="black"/>
</g>
<mask id="mask14_1_5865" style="mask-type:luminance" maskUnits="userSpaceOnUse" x="0" y="0" width="53" height="43">
<path d="M52.0464 0.914062H0.0463867V42.9141H52.0464V0.914062Z" fill="white"/>
</mask>
<g mask="url(#mask14_1_5865)">
<path d="M32.359 37.4309C32.359 37.6988 32.2862 37.9153 32.1406 38.0905C31.9846 38.276 31.7766 38.3688 31.5062 38.3688C31.1838 38.3688 30.9446 38.2554 30.7886 38.0081H29.9878V37.7195H30.6638C30.643 37.637 30.6222 37.5339 30.6222 37.4309C30.6222 37.1629 30.7054 36.9361 30.8614 36.7609C31.0174 36.5857 31.2358 36.5033 31.5062 36.5033C31.7766 36.5033 31.995 36.596 32.1406 36.7712C32.2862 36.9361 32.359 37.1629 32.359 37.4309ZM32.0158 37.4C32.0158 37.2144 31.9742 37.0701 31.9118 36.9568C31.8182 36.8228 31.6934 36.7506 31.5166 36.7506C31.3294 36.7506 31.1838 36.8228 31.0902 36.9671C31.007 37.0804 30.9758 37.2454 30.9758 37.4412C30.9758 37.6267 31.0174 37.7813 31.0902 37.8947C31.1838 38.0287 31.319 38.1008 31.5062 38.1008C31.8494 38.1111 32.0158 37.8741 32.0158 37.4Z" fill="black"/>
</g>
<mask id="mask15_1_5865" style="mask-type:luminance" maskUnits="userSpaceOnUse" x="0" y="0" width="53" height="43">
<path d="M52.0464 0.914062H0.0463867V42.9141H52.0464V0.914062Z" fill="white"/>
</mask>
<g mask="url(#mask15_1_5865)">
<path d="M33.8257 38.008H33.5034C33.3578 38.008 33.2329 37.9565 33.1289 37.8534C33.0041 37.7401 32.9521 37.5752 32.9521 37.3587V35.3489H33.2537V37.1835C33.2537 37.369 33.2849 37.503 33.3369 37.5958C33.3785 37.6679 33.4617 37.7092 33.5761 37.7195C33.6073 37.7195 33.6385 37.7195 33.8361 37.7195L33.8257 38.008Z" fill="black"/>
</g>
<mask id="mask16_1_5865" style="mask-type:luminance" maskUnits="userSpaceOnUse" x="0" y="0" width="53" height="43">
<path d="M52.0464 0.914062H0.0463867V42.9141H52.0464V0.914062Z" fill="white"/>
</mask>
<g mask="url(#mask16_1_5865)">
<path d="M36.7375 38.008H35.9367C35.6871 38.008 35.4791 37.905 35.3231 37.6885C35.0735 37.905 34.7615 38.008 34.3871 38.008H33.7319V37.7195H34.3767C34.5223 37.7195 34.6575 37.6988 34.7615 37.6679C34.8655 37.6267 34.9903 37.5649 35.1255 37.4618C34.8967 37.1217 34.6055 36.8743 34.2415 36.7403V36.4208C34.5847 36.2044 34.9279 36.091 35.2815 36.091C35.6767 36.091 36.0407 36.225 36.3735 36.4826C36.2695 36.6785 36.1863 36.8331 36.1135 36.9361C35.9679 37.1423 35.7911 37.3278 35.5623 37.4927C35.6559 37.6061 35.7599 37.6782 35.8535 37.6988C35.8951 37.7091 36.0095 37.7195 36.1863 37.7195H36.7479L36.7375 38.008ZM36.0303 36.5754C35.8535 36.493 35.7391 36.4414 35.7183 36.4311C35.5727 36.3796 35.4375 36.3487 35.2919 36.3487C35.0423 36.3487 34.7823 36.4311 34.5015 36.5857C34.6887 36.6579 34.8447 36.7506 34.9799 36.864C35.0943 36.9568 35.2191 37.1011 35.3543 37.2866C35.6559 37.0804 35.8743 36.8434 36.0303 36.5754Z" fill="black"/>
</g>
<mask id="mask17_1_5865" style="mask-type:luminance" maskUnits="userSpaceOnUse" x="0" y="0" width="53" height="43">
<path d="M52.0464 0.914062H0.0463867V42.9141H52.0464V0.914062Z" fill="white"/>
</mask>
<g mask="url(#mask17_1_5865)">
<path d="M37.6319 35.3489V37.2866C37.6319 37.771 37.4239 38.008 37.0183 38.008H36.6543V37.7195H36.9143C37.0911 37.7195 37.2055 37.6576 37.2679 37.5442C37.3095 37.4721 37.3303 37.3381 37.3303 37.1526V35.3489H37.6319Z" fill="black"/>
</g>
<mask id="mask18_1_5865" style="mask-type:luminance" maskUnits="userSpaceOnUse" x="0" y="0" width="53" height="43">
<path d="M52.0464 0.914062H0.0463867V42.9141H52.0464V0.914062Z" fill="white"/>
</mask>
<g mask="url(#mask18_1_5865)">
<path d="M38.4846 35.3489H38.1934V38.008H38.4846V35.3489Z" fill="black"/>
</g>
<mask id="mask19_1_5865" style="mask-type:luminance" maskUnits="userSpaceOnUse" x="0" y="0" width="53" height="43">
<path d="M52.0464 0.914062H0.0463867V42.9141H52.0464V0.914062Z" fill="white"/>
</mask>
<g mask="url(#mask19_1_5865)">
<path d="M41.9271 38.008H41.7399C41.3343 38.008 41.0639 37.8019 40.9495 37.4103C40.8247 37.6164 40.6167 37.7298 40.3151 37.7298C39.8887 37.7298 39.5767 37.2969 39.5767 36.7506C39.5767 36.1631 39.8887 35.7612 40.3671 35.7612H41.2511V37.0804C41.2511 37.4927 41.4487 37.7298 41.7815 37.7298H41.9375L41.9271 38.008ZM40.9495 36.6888V35.9673H40.4191C40.0967 35.9673 39.8679 36.2971 39.8679 36.73C39.8679 37.1526 40.0863 37.503 40.4087 37.503C40.7623 37.503 40.9391 37.235 40.9495 36.6888ZM40.5127 35.452H40.2215V35.1015H40.5127V35.452ZM41.0535 35.452H40.7623V35.1015H41.0535V35.452Z" fill="black"/>
</g>
<mask id="mask20_1_5865" style="mask-type:luminance" maskUnits="userSpaceOnUse" x="0" y="0" width="53" height="43">
<path d="M52.0464 0.914062H0.0463867V42.9141H52.0464V0.914062Z" fill="white"/>
</mask>
<g mask="url(#mask20_1_5865)">
<path d="M44.6101 37.5958V38.0081H41.7397V37.7195H44.2565C44.2565 37.6679 44.2669 37.6164 44.2669 37.5752C44.2669 37.2557 44.1941 37.0083 44.0381 36.8125C43.8613 36.596 43.5909 36.4827 43.2477 36.4827H42.3949C42.5405 36.2147 42.7589 35.8436 43.0293 35.3592H43.3725L42.8837 36.2044H43.2477C43.6637 36.2044 44.0069 36.3281 44.2461 36.596C44.4957 36.8331 44.6101 37.1732 44.6101 37.5958Z" fill="black"/>
</g>
<mask id="mask21_1_5865" style="mask-type:luminance" maskUnits="userSpaceOnUse" x="0" y="0" width="53" height="43">
<path d="M52.0464 0.914062H0.0463867V42.9141H52.0464V0.914062Z" fill="white"/>
</mask>
<g mask="url(#mask21_1_5865)">
<path d="M46.4824 38.0081H45.7648C45.6816 38.4306 45.4008 38.6574 44.9224 38.678V38.3997C45.3072 38.3997 45.5048 38.1936 45.5048 37.7092V36.1425H45.796V37.7195H46.4824V38.0081Z" fill="black"/>
</g>
<mask id="mask22_1_5865" style="mask-type:luminance" maskUnits="userSpaceOnUse" x="0" y="0" width="53" height="43">
<path d="M52.0464 0.914062H0.0463867V42.9141H52.0464V0.914062Z" fill="white"/>
</mask>
<g mask="url(#mask22_1_5865)">
<path d="M50.299 38.008H46.3574V37.7195H46.7422C47.0022 37.7195 47.179 37.5442 47.179 37.1938V36.1425H47.4702V37.2866C47.4702 37.4515 47.4494 37.5958 47.3974 37.7092V37.7298H47.9382C48.1982 37.7298 48.2918 37.6061 48.2918 37.1629V36.1528H48.583V37.2969C48.583 37.4721 48.5622 37.6164 48.4998 37.7298H48.999C49.311 37.7298 49.415 37.6061 49.415 37.1629V36.1528H49.7062V37.2969C49.7062 37.4721 49.675 37.6164 49.623 37.7298H50.2886L50.299 38.008ZM48.3334 35.8436H48.0422V35.4932H48.3334V35.8436ZM48.5934 35.3901H48.3022V35.0397H48.5934V35.3901ZM48.8742 35.8436H48.583V35.4932H48.8742V35.8436Z" fill="black"/>
</g>
<mask id="mask23_1_5865" style="mask-type:luminance" maskUnits="userSpaceOnUse" x="0" y="0" width="53" height="43">
<path d="M52.0464 0.914062H0.0463867V42.9141H52.0464V0.914062Z" fill="white"/>
</mask>
<g mask="url(#mask23_1_5865)">
<path d="M51.1934 35.3489V37.2866C51.1934 37.771 50.9854 38.008 50.5798 38.008H50.2158V37.7195H50.4862C50.663 37.7195 50.7774 37.6576 50.8398 37.5442C50.8814 37.4721 50.9022 37.3381 50.9022 37.1526V35.3489H51.1934Z" fill="black"/>
</g>
<mask id="mask24_1_5865" style="mask-type:luminance" maskUnits="userSpaceOnUse" x="0" y="0" width="53" height="43">
<path d="M52.0464 0.914062H0.0463867V42.9141H52.0464V0.914062Z" fill="white"/>
</mask>
<g mask="url(#mask24_1_5865)">
<path d="M52.0358 35.3489H51.7446V38.008H52.0358V35.3489Z" fill="black"/>
</g>
<mask id="mask25_1_5865" style="mask-type:luminance" maskUnits="userSpaceOnUse" x="0" y="0" width="53" height="43">
<path d="M52.0464 0.914062H0.0463867V42.9141H52.0464V0.914062Z" fill="white"/>
</mask>
<g mask="url(#mask25_1_5865)">
<path d="M1.45039 41.3371V42.172C1.45039 42.3266 1.41919 42.4606 1.36719 42.5739C1.31519 42.6873 1.23199 42.7698 1.12799 42.8213C1.02399 42.8728 0.899187 42.9038 0.753587 42.9038C0.607987 42.9038 0.472787 42.8728 0.368787 42.8213C0.264787 42.7698 0.181587 42.6873 0.129587 42.5842C0.0775867 42.4812 0.0463867 42.3575 0.0463867 42.2132V40.7187C0.0463867 40.5641 0.0775867 40.4301 0.129587 40.3271C0.181587 40.224 0.264787 40.1312 0.368787 40.0797C0.472787 40.0282 0.597587 39.9973 0.743187 39.9973C0.888787 39.9973 1.01359 40.0282 1.10719 40.0797C1.20079 40.1312 1.28399 40.2137 1.33599 40.3271C1.38799 40.4301 1.41919 40.5641 1.41919 40.7084V40.8424H1.10719V40.6981C1.10719 40.6054 1.09679 40.5229 1.06559 40.4611C1.03439 40.3992 0.992787 40.3477 0.940787 40.3065C0.888787 40.2755 0.815987 40.2549 0.743187 40.2549C0.659987 40.2549 0.587187 40.2755 0.524787 40.3065C0.462387 40.3374 0.420787 40.3992 0.389587 40.4611C0.358387 40.5229 0.337587 40.6157 0.337587 40.7084V42.2029C0.337587 42.2957 0.358387 42.3678 0.389587 42.4296C0.420787 42.4915 0.472787 42.543 0.535187 42.5739C0.597587 42.6049 0.670387 42.6255 0.763987 42.6255C0.847187 42.6255 0.919987 42.6049 0.982387 42.5739C1.04479 42.543 1.08639 42.4812 1.11759 42.4193C1.14879 42.3472 1.16959 42.2647 1.16959 42.172V41.5948H0.753587V41.3268L1.45039 41.3371Z" fill="black"/>
</g>
<mask id="mask26_1_5865" style="mask-type:luminance" maskUnits="userSpaceOnUse" x="0" y="0" width="53" height="43">
<path d="M52.0464 0.914062H0.0463867V42.9141H52.0464V0.914062Z" fill="white"/>
</mask>
<g mask="url(#mask26_1_5865)">
<path d="M1.8042 40.0179H2.0954V42.8831H1.8042V40.0179ZM2.0018 40.0179H3.0418V40.2858H2.0018V40.0179ZM2.0018 41.3268H2.9482V41.5948H2.0018V41.3268ZM2.0018 42.6152H3.0418V42.8831H2.0018V42.6152Z" fill="black"/>
</g>
<mask id="mask27_1_5865" style="mask-type:luminance" maskUnits="userSpaceOnUse" x="0" y="0" width="53" height="43">
<path d="M52.0464 0.914062H0.0463867V42.9141H52.0464V0.914062Z" fill="white"/>
</mask>
<g mask="url(#mask27_1_5865)">
<path d="M3.34326 40.0179H3.61366L4.52886 42.3678L4.47686 42.4193V40.0179H4.75766V42.8728H4.48726L3.58246 40.5332L3.62406 40.4817V42.8728H3.34326V40.0179Z" fill="black"/>
</g>
<mask id="mask28_1_5865" style="mask-type:luminance" maskUnits="userSpaceOnUse" x="0" y="0" width="53" height="43">
<path d="M52.0464 0.914062H0.0463867V42.9141H52.0464V0.914062Z" fill="white"/>
</mask>
<g mask="url(#mask28_1_5865)">
<path d="M5.16309 40.0179H5.45429V42.8831H5.16309V40.0179ZM5.35029 40.0179H6.39029V40.2858H5.35029V40.0179ZM5.35029 41.3268H6.29669V41.5948H5.35029V41.3268ZM5.35029 42.6152H6.39029V42.8831H5.35029V42.6152Z" fill="black"/>
</g>
<mask id="mask29_1_5865" style="mask-type:luminance" maskUnits="userSpaceOnUse" x="0" y="0" width="53" height="43">
<path d="M52.0464 0.914062H0.0463867V42.9141H52.0464V0.914062Z" fill="white"/>
</mask>
<g mask="url(#mask29_1_5865)">
<path d="M6.69189 40.0179H6.98309V42.8831H6.69189V40.0179ZM6.86869 41.4093H7.39909C7.48229 41.4093 7.55509 41.399 7.61749 41.3577C7.67989 41.3165 7.73189 41.2753 7.76309 41.2238C7.79429 41.1619 7.81509 41.0898 7.81509 41.0073V40.7084C7.81509 40.6157 7.79429 40.5435 7.76309 40.4817C7.73189 40.4198 7.67989 40.3683 7.61749 40.3374C7.55509 40.3065 7.48229 40.2858 7.39909 40.2858H6.86869V40.0179H7.37829C7.52389 40.0179 7.65909 40.0488 7.76309 40.09C7.86709 40.1312 7.95029 40.2137 8.01269 40.3065C8.06469 40.4095 8.09589 40.5229 8.09589 40.6569V40.9867C8.09589 41.131 8.06469 41.2444 8.01269 41.3474C7.96069 41.4505 7.87749 41.5227 7.76309 41.5742C7.65909 41.6257 7.52389 41.6566 7.37829 41.6566H6.86869V41.4093ZM7.47189 41.5845L7.72149 41.4917L8.17909 42.8831H7.84629L7.47189 41.5845Z" fill="black"/>
</g>
<mask id="mask30_1_5865" style="mask-type:luminance" maskUnits="userSpaceOnUse" x="0" y="0" width="53" height="43">
<path d="M52.0464 0.914062H0.0463867V42.9141H52.0464V0.914062Z" fill="white"/>
</mask>
<g mask="url(#mask30_1_5865)">
<path d="M8.9592 40.0179H9.3024L9.968 42.8831H9.6456L9.1256 40.3374L8.6056 42.8831H8.2832L8.9592 40.0179ZM8.6576 41.9246H9.6352V42.1926H8.6576V41.9246Z" fill="black"/>
</g>
<mask id="mask31_1_5865" style="mask-type:luminance" maskUnits="userSpaceOnUse" x="0" y="0" width="53" height="43">
<path d="M52.0464 0.914062H0.0463867V42.9141H52.0464V0.914062Z" fill="white"/>
</mask>
<g mask="url(#mask31_1_5865)">
<path d="M10.228 40.0179H10.5192V42.8831H10.228V40.0179ZM10.4256 42.6152H11.424V42.8831H10.4256V42.6152Z" fill="black"/>
</g>
<mask id="mask32_1_5865" style="mask-type:luminance" maskUnits="userSpaceOnUse" x="0" y="0" width="53" height="43">
<path d="M52.0464 0.914062H0.0463867V42.9141H52.0464V0.914062Z" fill="white"/>
</mask>
<g mask="url(#mask32_1_5865)">
<path d="M12.8486 42.8213C12.7446 42.7595 12.6718 42.677 12.6198 42.5739C12.5678 42.4606 12.5366 42.3369 12.5366 42.1823V40.729C12.5366 40.5744 12.5678 40.4404 12.6198 40.3271C12.6718 40.2137 12.7446 40.1312 12.8486 40.0797C12.9526 40.0282 13.067 39.9973 13.2126 39.9973C13.3582 39.9973 13.4726 40.0282 13.5766 40.0797C13.6806 40.1312 13.7534 40.224 13.8054 40.3271C13.8574 40.4301 13.8886 40.5641 13.8886 40.7187V40.8218H13.5974V40.7187C13.5974 40.626 13.587 40.5435 13.5558 40.4714C13.5246 40.3992 13.483 40.3477 13.4206 40.3168C13.3582 40.2755 13.2958 40.2652 13.2126 40.2652C13.1294 40.2652 13.067 40.2858 13.0046 40.3168C12.9422 40.358 12.9006 40.4095 12.8694 40.4714C12.8382 40.5435 12.8278 40.626 12.8278 40.7187V42.172C12.8278 42.2647 12.8382 42.3472 12.8694 42.4193C12.9006 42.4915 12.9422 42.543 13.0046 42.5739C13.067 42.6152 13.1294 42.6255 13.2126 42.6255C13.2958 42.6255 13.3686 42.6049 13.4206 42.5739C13.483 42.5327 13.5246 42.4812 13.5558 42.4193C13.587 42.3472 13.5974 42.2647 13.5974 42.172V42.0689H13.8886V42.172C13.8886 42.3266 13.8574 42.4606 13.8054 42.5636C13.7534 42.677 13.6806 42.7595 13.5766 42.811C13.4726 42.8728 13.3582 42.8934 13.2126 42.8934C13.0774 42.9141 12.9526 42.8831 12.8486 42.8213Z" fill="black"/>
</g>
<mask id="mask33_1_5865" style="mask-type:luminance" maskUnits="userSpaceOnUse" x="0" y="0" width="53" height="43">
<path d="M52.0464 0.914062H0.0463867V42.9141H52.0464V0.914062Z" fill="white"/>
</mask>
<g mask="url(#mask33_1_5865)">
<path d="M14.492 42.8213C14.388 42.7698 14.3048 42.6873 14.2424 42.5739C14.1904 42.4709 14.1592 42.3369 14.1592 42.1823V40.6981C14.1592 40.5435 14.1904 40.4198 14.2424 40.3065C14.2944 40.2034 14.3776 40.1209 14.492 40.0591C14.596 40.0076 14.7312 39.9766 14.8768 39.9766C15.0224 39.9766 15.1576 40.0076 15.2616 40.0591C15.3656 40.1106 15.4488 40.1931 15.5112 40.3065C15.5632 40.4095 15.5944 40.5435 15.5944 40.6981V42.1823C15.5944 42.3369 15.5632 42.4606 15.5112 42.5739C15.4592 42.6873 15.376 42.7595 15.2616 42.8213C15.1576 42.8728 15.0224 42.9038 14.8768 42.9038C14.7312 42.9038 14.596 42.8831 14.492 42.8213ZM15.116 42.5842C15.1784 42.5533 15.2304 42.5018 15.2616 42.44C15.2928 42.3781 15.3136 42.2957 15.3136 42.2029V40.6981C15.3136 40.6054 15.2928 40.5332 15.2616 40.4611C15.2304 40.3992 15.1784 40.3477 15.116 40.3168C15.0536 40.2858 14.9704 40.2652 14.8872 40.2652C14.7936 40.2652 14.7208 40.2858 14.6584 40.3168C14.596 40.3477 14.544 40.3992 14.5128 40.4611C14.4816 40.5229 14.4608 40.6054 14.4608 40.6981V42.2029C14.4608 42.2957 14.4816 42.3678 14.5128 42.44C14.544 42.5018 14.596 42.5533 14.6584 42.5842C14.7208 42.6152 14.804 42.6358 14.8872 42.6358C14.9704 42.6358 15.0432 42.6152 15.116 42.5842Z" fill="black"/>
</g>
<mask id="mask34_1_5865" style="mask-type:luminance" maskUnits="userSpaceOnUse" x="0" y="0" width="53" height="43">
<path d="M52.0464 0.914062H0.0463867V42.9141H52.0464V0.914062Z" fill="white"/>
</mask>
<g mask="url(#mask34_1_5865)">
<path d="M15.9478 40.0179H16.2182L17.1334 42.3678L17.0918 42.4193V40.0179H17.3726V42.8728H17.0918L16.187 40.5332L16.2286 40.4817V42.8728H15.9478V40.0179Z" fill="black"/>
</g>
<mask id="mask35_1_5865" style="mask-type:luminance" maskUnits="userSpaceOnUse" x="0" y="0" width="53" height="43">
<path d="M52.0464 0.914062H0.0463867V42.9141H52.0464V0.914062Z" fill="white"/>
</mask>
<g mask="url(#mask35_1_5865)">
<path d="M18.0594 42.8316C17.9554 42.7801 17.8722 42.7079 17.8306 42.6049C17.7786 42.5018 17.7578 42.3781 17.7578 42.2338V42.0895H18.0386V42.2338C18.0386 42.3678 18.0698 42.4709 18.1426 42.543C18.2154 42.6152 18.3194 42.6461 18.4546 42.6461C18.5898 42.6461 18.6938 42.6152 18.7666 42.543C18.829 42.4709 18.8706 42.3678 18.8706 42.2338V42.0689C18.8706 41.9761 18.8498 41.904 18.8082 41.8319C18.7666 41.7597 18.7146 41.7082 18.6522 41.6669C18.5898 41.6257 18.5066 41.5742 18.4026 41.5227H18.3922H18.3818L18.3506 41.5123C18.2154 41.4505 18.1114 41.3887 18.0386 41.3371C17.9554 41.2856 17.893 41.2134 17.841 41.131C17.789 41.0485 17.7578 40.9352 17.7578 40.8012V40.6569C17.7578 40.5126 17.789 40.3889 17.8306 40.2858C17.8826 40.1828 17.9554 40.1106 18.0594 40.0694C18.1634 40.0179 18.2882 39.9973 18.4442 39.9973C18.5898 39.9973 18.725 40.0179 18.8186 40.0694C18.9226 40.1209 18.9954 40.1931 19.0474 40.2961C19.0994 40.3992 19.1202 40.5229 19.1202 40.6672V40.8218H18.8394V40.6672C18.8394 40.5332 18.8082 40.4301 18.7354 40.358C18.673 40.2858 18.569 40.2549 18.4338 40.2549C18.2986 40.2549 18.1946 40.2858 18.1218 40.358C18.049 40.4198 18.0178 40.5229 18.0178 40.6466V40.7909C18.0178 40.8836 18.0386 40.9558 18.0802 41.0176C18.1218 41.0795 18.1738 41.131 18.2466 41.1722C18.309 41.2134 18.4026 41.265 18.517 41.3165C18.5274 41.3165 18.5378 41.3268 18.5482 41.3268C18.5586 41.3268 18.569 41.3371 18.5794 41.3371C18.5898 41.3371 18.5898 41.3371 18.5898 41.3474C18.5898 41.3474 18.6002 41.3474 18.6002 41.3577C18.7042 41.4093 18.7978 41.4711 18.8706 41.5227C18.9434 41.5742 19.0058 41.6566 19.0578 41.7391C19.1098 41.8319 19.1306 41.9452 19.1306 42.0689V42.2544C19.1306 42.409 19.1098 42.5327 19.0578 42.6255C19.0058 42.7285 18.933 42.8007 18.829 42.8522C18.725 42.9038 18.6002 42.9244 18.4442 42.9244C18.2882 42.9141 18.1634 42.8831 18.0594 42.8316Z" fill="black"/>
</g>
<mask id="mask36_1_5865" style="mask-type:luminance" maskUnits="userSpaceOnUse" x="0" y="0" width="53" height="43">
<path d="M52.0464 0.914062H0.0463867V42.9141H52.0464V0.914062Z" fill="white"/>
</mask>
<g mask="url(#mask36_1_5865)">
<path d="M19.3174 40.0179H20.7214V40.2858H19.3174V40.0179ZM19.879 40.2549H20.1702V42.8831H19.879V40.2549Z" fill="black"/>
</g>
<mask id="mask37_1_5865" style="mask-type:luminance" maskUnits="userSpaceOnUse" x="0" y="0" width="53" height="43">
<path d="M52.0464 0.914062H0.0463867V42.9141H52.0464V0.914062Z" fill="white"/>
</mask>
<g mask="url(#mask37_1_5865)">
<path d="M21.0024 40.0179H21.2936V42.8831H21.0024V40.0179ZM21.1792 41.4093H21.7096C21.7928 41.4093 21.8656 41.399 21.928 41.3577C21.9904 41.3268 22.032 41.2753 22.0736 41.2238C22.1048 41.1619 22.1256 41.0898 22.1256 41.0073V40.7084C22.1256 40.6157 22.1048 40.5435 22.0736 40.4817C22.0424 40.4198 21.9904 40.3683 21.928 40.3374C21.8656 40.3065 21.7928 40.2858 21.7096 40.2858H21.1792V40.0179H21.6888C21.8344 40.0179 21.9696 40.0488 22.0736 40.09C22.1776 40.1312 22.2608 40.2137 22.3232 40.3065C22.3752 40.4095 22.4064 40.5229 22.4064 40.6569V40.9867C22.4064 41.131 22.3752 41.2444 22.3232 41.3474C22.2712 41.4505 22.188 41.5227 22.0736 41.5742C21.9696 41.6257 21.8344 41.6566 21.6888 41.6566H21.1792V41.4093ZM21.772 41.5845L22.0216 41.4917L22.4792 42.8831H22.1464L21.772 41.5845Z" fill="black"/>
</g>
<mask id="mask38_1_5865" style="mask-type:luminance" maskUnits="userSpaceOnUse" x="0" y="0" width="53" height="43">
<path d="M52.0464 0.914062H0.0463867V42.9141H52.0464V0.914062Z" fill="white"/>
</mask>
<g mask="url(#mask38_1_5865)">
<path d="M23.0202 42.8316C22.9266 42.7801 22.8538 42.7079 22.8018 42.6049C22.7498 42.5018 22.729 42.3781 22.729 42.2338V40.0179H23.0202V42.2544C23.0202 42.3781 23.0514 42.4812 23.1138 42.543C23.1762 42.6049 23.2698 42.6358 23.3946 42.6358C23.5194 42.6358 23.613 42.6049 23.6754 42.543C23.7378 42.4812 23.769 42.3884 23.769 42.2544V40.0179H24.0602V42.2338C24.0602 42.3884 24.0394 42.5121 23.9874 42.6049C23.9354 42.7079 23.8626 42.7801 23.769 42.8316C23.6754 42.8831 23.5506 42.9038 23.405 42.9038C23.249 42.9141 23.1242 42.8831 23.0202 42.8316Z" fill="black"/>
</g>
<mask id="mask39_1_5865" style="mask-type:luminance" maskUnits="userSpaceOnUse" x="0" y="0" width="53" height="43">
<path d="M52.0464 0.914062H0.0463867V42.9141H52.0464V0.914062Z" fill="white"/>
</mask>
<g mask="url(#mask39_1_5865)">
<path d="M24.6528 42.8213C24.5488 42.7595 24.476 42.677 24.424 42.5739C24.372 42.4606 24.3408 42.3369 24.3408 42.1823V40.729C24.3408 40.5744 24.372 40.4404 24.424 40.3271C24.476 40.2137 24.5488 40.1312 24.6528 40.0797C24.7568 40.0179 24.8712 39.9973 25.0168 39.9973C25.1624 39.9973 25.2768 40.0282 25.3808 40.0797C25.4848 40.1312 25.5576 40.224 25.6096 40.3271C25.6616 40.4301 25.6928 40.5641 25.6928 40.7187V40.8218H25.4016V40.7187C25.4016 40.626 25.3912 40.5435 25.36 40.4714C25.3288 40.3992 25.2872 40.3477 25.2248 40.3168C25.1624 40.2755 25.1 40.2652 25.0168 40.2652C24.9336 40.2652 24.8712 40.2858 24.8088 40.3168C24.7464 40.3477 24.7048 40.4095 24.6736 40.4714C24.6424 40.5435 24.632 40.626 24.632 40.7187V42.172C24.632 42.2647 24.6424 42.3472 24.6736 42.4193C24.7048 42.4915 24.7464 42.543 24.8088 42.5739C24.8712 42.6152 24.9336 42.6255 25.0168 42.6255C25.1 42.6255 25.1728 42.6049 25.2248 42.5739C25.2872 42.5327 25.3288 42.4812 25.36 42.4193C25.3912 42.3472 25.4016 42.2647 25.4016 42.172V42.0689H25.6928V42.172C25.6928 42.3266 25.6616 42.4606 25.6096 42.5636C25.5576 42.677 25.4848 42.7595 25.3808 42.811C25.2768 42.8728 25.1624 42.8934 25.0168 42.8934C24.8816 42.9141 24.7568 42.8831 24.6528 42.8213Z" fill="black"/>
</g>
<mask id="mask40_1_5865" style="mask-type:luminance" maskUnits="userSpaceOnUse" x="0" y="0" width="53" height="43">
<path d="M52.0464 0.914062H0.0463867V42.9141H52.0464V0.914062Z" fill="white"/>
</mask>
<g mask="url(#mask40_1_5865)">
<path d="M25.8486 40.0179H27.2526V40.2858H25.8486V40.0179ZM26.3998 40.2549H26.691V42.8831H26.3998V40.2549Z" fill="black"/>
</g>
<mask id="mask41_1_5865" style="mask-type:luminance" maskUnits="userSpaceOnUse" x="0" y="0" width="53" height="43">
<path d="M52.0464 0.914062H0.0463867V42.9141H52.0464V0.914062Z" fill="white"/>
</mask>
<g mask="url(#mask41_1_5865)">
<path d="M27.8561 40.0179H27.5649V42.8831H27.8561V40.0179Z" fill="black"/>
</g>
<mask id="mask42_1_5865" style="mask-type:luminance" maskUnits="userSpaceOnUse" x="0" y="0" width="53" height="43">
<path d="M52.0464 0.914062H0.0463867V42.9141H52.0464V0.914062Z" fill="white"/>
</mask>
<g mask="url(#mask42_1_5865)">
<path d="M28.6258 42.8213C28.5218 42.7698 28.4386 42.6873 28.3762 42.5739C28.3242 42.4709 28.293 42.3369 28.293 42.1823V40.6981C28.293 40.5435 28.3242 40.4198 28.3762 40.3065C28.4282 40.2034 28.5114 40.1209 28.6258 40.0591C28.7298 40.0076 28.865 39.9766 29.0106 39.9766C29.1562 39.9766 29.2914 40.0076 29.3954 40.0591C29.4994 40.1106 29.5826 40.1931 29.645 40.3065C29.697 40.4095 29.7282 40.5435 29.7282 40.6981V42.1823C29.7282 42.3369 29.697 42.4606 29.645 42.5739C29.593 42.6873 29.5098 42.7595 29.3954 42.8213C29.2914 42.8728 29.1562 42.9038 29.0106 42.9038C28.865 42.9038 28.7298 42.8831 28.6258 42.8213ZM29.2394 42.5842C29.3018 42.5533 29.3538 42.5018 29.385 42.44C29.4162 42.3781 29.437 42.2957 29.437 42.2029V40.6981C29.437 40.6054 29.4162 40.5332 29.385 40.4611C29.3538 40.3992 29.3018 40.3477 29.2394 40.3168C29.177 40.2858 29.0938 40.2652 29.0106 40.2652C28.917 40.2652 28.8442 40.2858 28.7818 40.3168C28.7194 40.3477 28.6674 40.3992 28.6362 40.4611C28.605 40.5229 28.5842 40.6054 28.5842 40.6981V42.2029C28.5842 42.2957 28.605 42.3678 28.6362 42.44C28.6674 42.5018 28.7194 42.5533 28.7818 42.5842C28.8442 42.6152 28.9274 42.6358 29.0106 42.6358C29.1042 42.6358 29.177 42.6152 29.2394 42.5842Z" fill="black"/>
</g>
<mask id="mask43_1_5865" style="mask-type:luminance" maskUnits="userSpaceOnUse" x="0" y="0" width="53" height="43">
<path d="M52.0464 0.914062H0.0463867V42.9141H52.0464V0.914062Z" fill="white"/>
</mask>
<g mask="url(#mask43_1_5865)">
<path d="M30.0815 40.0179H30.3519L31.2671 42.3678L31.2151 42.4193V40.0179H31.4959V42.8728H31.2255L30.3103 40.5332L30.3623 40.4817V42.8728H30.0815V40.0179Z" fill="black"/>
</g>
<mask id="mask44_1_5865" style="mask-type:luminance" maskUnits="userSpaceOnUse" x="0" y="0" width="53" height="43">
<path d="M52.0464 0.914062H0.0463867V42.9141H52.0464V0.914062Z" fill="white"/>
</mask>
<g mask="url(#mask44_1_5865)">
<path d="M33.0249 42.8213C32.9209 42.7595 32.8481 42.677 32.7961 42.5739C32.7441 42.4606 32.7129 42.3369 32.7129 42.1823V40.729C32.7129 40.5744 32.7441 40.4404 32.7961 40.3271C32.8481 40.2137 32.9209 40.1312 33.0249 40.0797C33.1289 40.0179 33.2433 39.9973 33.3889 39.9973C33.5345 39.9973 33.6489 40.0282 33.7529 40.0797C33.8569 40.1312 33.9297 40.224 33.9817 40.3271C34.0337 40.4301 34.0649 40.5641 34.0649 40.7187V40.8218H33.7737V40.7187C33.7737 40.626 33.7633 40.5435 33.7321 40.4714C33.7009 40.3992 33.6593 40.3477 33.5969 40.3168C33.5449 40.2755 33.4721 40.2652 33.3889 40.2652C33.3057 40.2652 33.2433 40.2858 33.1809 40.3168C33.1185 40.3477 33.0769 40.4095 33.0457 40.4714C33.0145 40.5435 33.0041 40.626 33.0041 40.7187V42.172C33.0041 42.2647 33.0145 42.3472 33.0457 42.4193C33.0769 42.4915 33.1185 42.543 33.1809 42.5739C33.2329 42.6152 33.3057 42.6255 33.3889 42.6255C33.4721 42.6255 33.5449 42.6049 33.5969 42.5739C33.6489 42.5327 33.7009 42.4812 33.7321 42.4193C33.7633 42.3472 33.7737 42.2647 33.7737 42.172V42.0689H34.0649V42.172C34.0649 42.3266 34.0337 42.4606 33.9817 42.5636C33.9297 42.677 33.8569 42.7595 33.7529 42.811C33.6489 42.8728 33.5345 42.8934 33.3889 42.8934C33.2433 42.9141 33.1185 42.8831 33.0249 42.8213Z" fill="black"/>
</g>
<mask id="mask45_1_5865" style="mask-type:luminance" maskUnits="userSpaceOnUse" x="0" y="0" width="53" height="43">
<path d="M52.0464 0.914062H0.0463867V42.9141H52.0464V0.914062Z" fill="white"/>
</mask>
<g mask="url(#mask45_1_5865)">
<path d="M34.6575 42.8213C34.5535 42.7698 34.4703 42.6873 34.4079 42.5739C34.3559 42.4709 34.3247 42.3369 34.3247 42.1823V40.6981C34.3247 40.5435 34.3559 40.4198 34.4079 40.3065C34.4599 40.2034 34.5431 40.1209 34.6575 40.0591C34.7615 40.0076 34.8967 39.9766 35.0423 39.9766C35.1879 39.9766 35.3231 40.0076 35.4271 40.0591C35.5311 40.1106 35.6143 40.1931 35.6767 40.3065C35.7287 40.4095 35.7599 40.5435 35.7599 40.6981V42.1823C35.7599 42.3369 35.7287 42.4606 35.6767 42.5739C35.6247 42.6873 35.5415 42.7595 35.4271 42.8213C35.3231 42.8728 35.1879 42.9038 35.0423 42.9038C34.8967 42.9038 34.7719 42.8831 34.6575 42.8213ZM35.2815 42.5842C35.3439 42.5533 35.3959 42.5018 35.4271 42.44C35.4583 42.3781 35.4791 42.2957 35.4791 42.2029V40.6981C35.4791 40.6054 35.4583 40.5332 35.4271 40.4611C35.3959 40.3992 35.3439 40.3477 35.2815 40.3168C35.2191 40.2858 35.1359 40.2652 35.0527 40.2652C34.9591 40.2652 34.8863 40.2858 34.8239 40.3168C34.7615 40.3477 34.7095 40.3992 34.6783 40.4611C34.6471 40.5229 34.6263 40.6054 34.6263 40.6981V42.2029C34.6263 42.2957 34.6471 42.3678 34.6783 42.44C34.7095 42.5018 34.7615 42.5533 34.8239 42.5842C34.8863 42.6152 34.9695 42.6358 35.0527 42.6358C35.1359 42.6358 35.2191 42.6152 35.2815 42.5842Z" fill="black"/>
</g>
<mask id="mask46_1_5865" style="mask-type:luminance" maskUnits="userSpaceOnUse" x="0" y="0" width="53" height="43">
<path d="M52.0464 0.914062H0.0463867V42.9141H52.0464V0.914062Z" fill="white"/>
</mask>
<g mask="url(#mask46_1_5865)">
<path d="M37.7048 40.0179H37.9856V42.8831H37.7048V40.5847L37.7256 40.7084L37.1744 42.4812H36.9352L36.384 40.7496L36.3944 40.5847V42.8831H36.124V40.0179H36.4048L37.0496 42.0998L37.7048 40.0179Z" fill="black"/>
</g>
<mask id="mask47_1_5865" style="mask-type:luminance" maskUnits="userSpaceOnUse" x="0" y="0" width="53" height="43">
<path d="M52.0464 0.914062H0.0463867V42.9141H52.0464V0.914062Z" fill="white"/>
</mask>
<g mask="url(#mask47_1_5865)">
<path d="M38.3809 40.0179H38.6721V42.8831H38.3809V40.0179ZM38.5889 41.502H39.2025C39.2649 41.502 39.3065 41.4917 39.3585 41.4608C39.4105 41.4299 39.4313 41.399 39.4521 41.3474C39.4729 41.2959 39.4833 41.2444 39.4833 41.1722V40.6157C39.4833 40.5435 39.4729 40.4817 39.4521 40.4301C39.4313 40.3786 39.4001 40.3374 39.3585 40.3168C39.3169 40.2858 39.2649 40.2755 39.2025 40.2755H38.5889V40.0076H39.1921C39.3169 40.0076 39.4209 40.0282 39.5041 40.0797C39.5873 40.1312 39.6601 40.1931 39.7017 40.2858C39.7433 40.3786 39.7745 40.4817 39.7745 40.6157V41.1722C39.7745 41.2959 39.7537 41.399 39.7017 41.4917C39.6497 41.5845 39.5873 41.6463 39.5041 41.6979C39.4209 41.7494 39.3169 41.77 39.1921 41.77H38.5889V41.502Z" fill="black"/>
</g>
<mask id="mask48_1_5865" style="mask-type:luminance" maskUnits="userSpaceOnUse" x="0" y="0" width="53" height="43">
<path d="M52.0464 0.914062H0.0463867V42.9141H52.0464V0.914062Z" fill="white"/>
</mask>
<g mask="url(#mask48_1_5865)">
<path d="M40.5024 40.0179H40.8456L41.5112 42.8831H41.1992L40.6792 40.3374L40.1592 42.8831H39.8472L40.5024 40.0179ZM40.2112 41.9246H41.1888V42.1926H40.2112V41.9246Z" fill="black"/>
</g>
<mask id="mask49_1_5865" style="mask-type:luminance" maskUnits="userSpaceOnUse" x="0" y="0" width="53" height="43">
<path d="M52.0464 0.914062H0.0463867V42.9141H52.0464V0.914062Z" fill="white"/>
</mask>
<g mask="url(#mask49_1_5865)">
<path d="M41.771 40.0179H42.0414L42.9566 42.3678L42.9046 42.4193V40.0179H43.1854V42.8728H42.915L42.0102 40.5332L42.0518 40.4817V42.8728H41.771V40.0179Z" fill="black"/>
</g>
<mask id="mask50_1_5865" style="mask-type:luminance" maskUnits="userSpaceOnUse" x="0" y="0" width="53" height="43">
<path d="M52.0464 0.914062H0.0463867V42.9141H52.0464V0.914062Z" fill="white"/>
</mask>
<g mask="url(#mask50_1_5865)">
<path d="M44.34 41.6773V42.8831H44.0488V41.6773L43.4248 40.0179H43.716L44.1944 41.3474L44.6416 40.0179H44.9328L44.34 41.6773Z" fill="black"/>
</g>
<mask id="mask51_1_5865" style="mask-type:luminance" maskUnits="userSpaceOnUse" x="0" y="0" width="53" height="43">
<path d="M52.0464 0.914062H0.0463867V42.9141H52.0464V0.914062Z" fill="white"/>
</mask>
<g mask="url(#mask51_1_5865)">
<path d="M45.9102 40.0179H46.2014V42.8831H45.9102V40.0179ZM46.1182 42.6152H47.1166V42.8831H46.1182V42.6152Z" fill="black"/>
</g>
<mask id="mask52_1_5865" style="mask-type:luminance" maskUnits="userSpaceOnUse" x="0" y="0" width="53" height="43">
<path d="M52.0464 0.914062H0.0463867V42.9141H52.0464V0.914062Z" fill="white"/>
</mask>
<g mask="url(#mask52_1_5865)">
<path d="M47.7096 42.5533H47.3872V42.8728H47.7096V42.5533Z" fill="black"/>
</g>
<mask id="mask53_1_5865" style="mask-type:luminance" maskUnits="userSpaceOnUse" x="0" y="0" width="53" height="43">
<path d="M52.0464 0.914062H0.0463867V42.9141H52.0464V0.914062Z" fill="white"/>
</mask>
<g mask="url(#mask53_1_5865)">
<path d="M48.0942 40.0179H48.3854V42.8831H48.0942V40.0179ZM48.3022 42.6152H49.3006V42.8831H48.3022V42.6152Z" fill="black"/>
</g>
<mask id="mask54_1_5865" style="mask-type:luminance" maskUnits="userSpaceOnUse" x="0" y="0" width="53" height="43">
<path d="M52.0464 0.914062H0.0463867V42.9141H52.0464V0.914062Z" fill="white"/>
</mask>
<g mask="url(#mask54_1_5865)">
<path d="M49.8937 42.5533H49.5713V42.8728H49.8937V42.5533Z" fill="black"/>
</g>
<mask id="mask55_1_5865" style="mask-type:luminance" maskUnits="userSpaceOnUse" x="0" y="0" width="53" height="43">
<path d="M52.0464 0.914062H0.0463867V42.9141H52.0464V0.914062Z" fill="white"/>
</mask>
<g mask="url(#mask55_1_5865)">
<path d="M50.4658 42.8213C50.3618 42.7595 50.289 42.677 50.237 42.5739C50.185 42.4606 50.1538 42.3369 50.1538 42.1823V40.729C50.1538 40.5744 50.185 40.4404 50.237 40.3271C50.289 40.2137 50.3618 40.1312 50.4658 40.0797C50.5698 40.0179 50.6842 39.9973 50.8298 39.9973C50.9754 39.9973 51.0898 40.0282 51.1938 40.0797C51.2978 40.1312 51.3706 40.224 51.4226 40.3271C51.4746 40.4301 51.5058 40.5641 51.5058 40.7187V40.8218H51.2146V40.7187C51.2146 40.626 51.2042 40.5435 51.173 40.4714C51.1418 40.3992 51.1002 40.3477 51.0378 40.3168C50.9858 40.2755 50.913 40.2652 50.8298 40.2652C50.7466 40.2652 50.6842 40.2858 50.6218 40.3168C50.5594 40.3477 50.5178 40.4095 50.4866 40.4714C50.4554 40.5435 50.445 40.626 50.445 40.7187V42.172C50.445 42.2647 50.4554 42.3472 50.4866 42.4193C50.5178 42.4915 50.5594 42.543 50.6218 42.5739C50.6738 42.6152 50.7466 42.6255 50.8298 42.6255C50.913 42.6255 50.9858 42.6049 51.0378 42.5739C51.0898 42.5327 51.1418 42.4812 51.173 42.4193C51.2042 42.3472 51.2146 42.2647 51.2146 42.172V42.0689H51.5058V42.172C51.5058 42.3266 51.4746 42.4606 51.4226 42.5636C51.3706 42.677 51.2978 42.7595 51.1938 42.811C51.0898 42.8728 50.9754 42.8934 50.8298 42.8934C50.6946 42.9141 50.5698 42.8831 50.4658 42.8213Z" fill="black"/>
</g>
<mask id="mask56_1_5865" style="mask-type:luminance" maskUnits="userSpaceOnUse" x="0" y="0" width="53" height="43">
<path d="M52.0464 0.914062H0.0463867V42.9141H52.0464V0.914062Z" fill="white"/>
</mask>
<g mask="url(#mask56_1_5865)">
<path d="M52.0465 42.5533H51.7241V42.8728H52.0465V42.5533Z" fill="black"/>
</g>
</g>
<defs>
<linearGradient id="paint0_linear_1_5865" x1="19.1472" y1="20.2578" x2="42.1572" y2="20.2578" gradientUnits="userSpaceOnUse">
<stop stop-color="#FEE88F"/>
<stop offset="0.9987" stop-color="#944A21"/>
<stop offset="1" stop-color="#944A21"/>
</linearGradient>
<linearGradient id="paint1_linear_1_5865" x1="44.6798" y1="7.07787" x2="15.1764" y2="22.907" gradientUnits="userSpaceOnUse">
<stop stop-color="#FEE88F"/>
<stop offset="0.9987" stop-color="#944A21"/>
<stop offset="1" stop-color="#944A21"/>
</linearGradient>
<linearGradient id="paint2_linear_1_5865" x1="6.5705" y1="8.17053" x2="42.1572" y2="8.17053" gradientUnits="userSpaceOnUse">
<stop stop-color="#FEE88F"/>
<stop offset="1" stop-color="#944A21"/>
</linearGradient>
<clipPath id="clip0_1_5865">
<rect width="52" height="42" fill="white" transform="translate(0.0463867 0.914062)"/>
</clipPath>
</defs>
</svg>
