<?xml version="1.0" encoding="UTF-8"?>
<svg xmlns="http://www.w3.org/2000/svg" version="1.1" viewBox="0 0 100 51">
  <defs>
    <style>
      .cls-1 {
        fill: #909496;
      }

      .cls-2 {
        fill: #365888;
      }
    </style>
  </defs>
  <!-- Generator: Adobe Illustrator 28.6.0, SVG Export Plug-In . SVG Version: 1.2.0 Build 709)  -->
  <g>
    <g id="Layer_1">
      <g>
        <path class="cls-1" d="M62.3,6v-1.5c0-.2,0-.4-.2-.5-.1-.2-.3-.2-.6-.2s-.5.1-.6.4c-.1.2-.2.5-.2.7s0,.5.2.7c.2.3.4.4.7.4h.8ZM63.7,6.5h-1c-.1.7-.6,1.1-1.4,1.1v-.5h0c.4,0,.7-.2.9-.7h-.8c-.4,0-.7-.1-1-.4-.3-.3-.4-.7-.4-1.1s.1-.8.4-1.1c.3-.3.6-.5,1-.5.8,0,1.3.5,1.3,1.4v1.3h.9v.5Z"/>
        <path class="cls-1" d="M65.3,7.5h-.5v-.6h.5v.6ZM64.3,7.5h-.5v-.6h.5v.6ZM65.3,3.3v1.9c0,.8-.3,1.2-1,1.2h-.6v-.5h.5c.3,0,.5,0,.6-.3,0-.1.1-.4.1-.7v-1.7h.5Z"/>
        <rect class="cls-1" x="66.4" y="1.9" width=".5" height="4.5"/>
        <path class="cls-1" d="M70.1,6.5h-1.2c-.1.7-.6,1.1-1.4,1.1v-.5c.6,0,1-.4,1-1.2v-2.7h.5v2.7h1.2v.5Z"/>
        <path class="cls-1" d="M74.6,5.8v.7h-4.8v-.5h4.2c0,0,0-.2,0-.3,0-.5-.1-1-.4-1.3-.3-.4-.7-.6-1.3-.6h-1.4c.3-.5.6-1.1,1.1-1.9h.6l-.8,1.4h.6c.7,0,1.3.2,1.7.7.4.4.6,1,.6,1.7"/>
        <path class="cls-1" d="M81.4,2.2h-.5v-.6h.5v.6ZM81.2,5.5c.6-.3,1-.8,1-1.3s-.4-1-1-1-1,.4-1,.9.4,1.1,1,1.3M83.5,6.5h-.7c-1,0-1.1,0-1.6-.4-.6.3-.7.4-1.7.4h-1.1c-1.3,0-2-.7-2-2v-1h.5v1c0,1,.5,1.5,1.5,1.5h1.6c.3,0,.5,0,.7-.2-.6-.3-1-.9-1-1.5s.6-1.5,1.5-1.5,1.5.6,1.5,1.5-.4,1.2-1,1.5c.2.1.5.2.7.2h1.1v.5Z"/>
        <path class="cls-1" d="M85,1.9v3.3c0,.8-.3,1.2-1,1.2h-.6v-.5h.4c.3,0,.5,0,.6-.3,0-.1.1-.3.1-.7V1.9h.5Z"/>
        <path class="cls-1" d="M87.4,6.5h-.6c-.3,0-.5,0-.6-.3-.2-.2-.3-.5-.3-.8V1.9h.5v3.1c0,.3,0,.6.1.7,0,.1.2.2.4.2,0,0,.1,0,.4,0v.5Z"/>
        <path class="cls-1" d="M90.2,7.5h-.5v-.6h.5v.6ZM92.1,5.8v.7h-4.8v-.5h4.2c0,0,0-.2,0-.3,0-1.2-.6-1.9-1.7-1.9s-1,.2-1.3.7c0,0-.2-.2-.4-.4.4-.5,1-.7,1.7-.7,1.4,0,2.3.9,2.3,2.4"/>
        <path class="cls-2" d="M62.6,42.5h-2.5v-13.3h2.5v13.3ZM69.2,31.7c-4.1,0-5.7,2.6-5.7,2.6,0-5,5.7-5.1,5.7-5.1v2.4Z"/>
        <path class="cls-1" d="M58.4,14.3h-4.9s2.2,1,2.4,2.8v3.7c0,1.3-.8,1.9-1.7,2.2-.4.1-.8.2-1.2.3.9.1,1.9.4,2.9.8,1.5-.9,2.2-2.1,2.4-2.4v-7.4ZM51.2,8.4c3,0,5.1.7,7.2,3.2v-2.8c-2.1-1.7-4.9-2.3-7.1-2.3s-5,.9-6.8,2.7c-1.7,1.8-2.6,4-2.6,6.8s.8,4.6,2.5,6.4c.7.7,1.4,1.3,2.2,1.7.9-.4,2.1-.9,3.7-1-3-.6-5.9-3.6-5.9-7.3s3.3-7.4,6.8-7.4"/>
        <path class="cls-1" d="M65.2,23.4c-1.7-.4-2.5-1.6-2.5-3.4v-8.1h-2.5v8.9c0,1.6.8,3.5,3,4.2,2.5.9,4.9-.6,5.3-1.9.2-.6.1-.9.1-.9,0,0-1.1,1.8-3.4,1.2M69.6,25.3h2.5v-13.3h-2.5v13.3Z"/>
        <path class="cls-2" d="M70.9,29.2h3l5.4,9.9,3.9-9.9h2.7l-6.9,17c-.3.6-1.7,3.9-5.1,3.1-1.5-.3-2.3-1.5-2.3-1.5,0,0,1.9.7,3.5-.5,1.6-1.1,2.9-5.3,2.9-5.3l-7.1-12.7Z"/>
        <path class="cls-2" d="M58.4,29c-2.1-2.6-4.2-3.2-7.2-3.2s-6.8,3.3-6.8,7.4,3.6,7.3,6.8,7.4c1.9,0,3.9-.3,7.1-1.6-.3.5-2.1,3.5-7.1,3.5s-5.1-.9-6.9-2.8c-1.7-1.8-2.5-3.9-2.5-6.4s.9-5,2.6-6.8c1.8-1.8,4-2.7,6.8-2.7s5,.6,7.1,2.3v2.8Z"/>
        <path class="cls-2" d="M97.1,31c1.3,1.3,1.9,2.9,1.9,4.8s-.6,3.6-1.9,4.8c-1.3,1.2-2.8,1.8-4.7,1.8s-3.6-.7-4.9-2c-1.2-1.3-1.8-2.8-1.8-4.6s.6-3.6,1.8-4.8c1.2-1.3,2.9-1.9,4.8-1.9s3.5.6,4.7,1.8M88.2,35.8c0,2.9,1.9,5.3,4.2,5.3s4.2-2.4,4.2-5.3-1.9-5.3-4.2-5.3-4.2,2.4-4.2,5.3"/>
        <path class="cls-1" d="M73.9,20.8V7.9h2.5v12.1c0,1.8.9,3,2.5,3.4,2.3.6,3.4-1.2,3.4-1.2,0,0,0,.3-.1.9-.4,1.4-2.8,2.8-5.3,1.9-2.1-.7-3-2.7-3-4.2"/>
        <path class="cls-1" d="M84.2,12.4c0-1.6.8-3.5,3-4.2,2.5-.8,4.9.6,5.3,1.9.2.6.1.9.1.9,0,0-1.1-1.8-3.4-1.2-1.7.4-2.5,1.6-2.5,3.4v1.4h4.4v1.1h-4.4v9.5h-2.5v-9.5h-1.8v-1.1h1.8v-2.2Z"/>
        <path class="cls-2" d="M1,6.5h36.1v36.1h-13c6.4-2.9,10.9-9.1,10.9-16.3S26.4,8.3,15.9,8.3,4.5,10.9,1,15V6.5ZM9.4,42.6H1v-5.3c2.5,2.5,6.2,3.4,10.9,2.5-4.6-2-7.9-7.3-7.9-13.5s5.3-14.3,11.9-14.3,11.9,6.4,11.9,14.3-2.2,9.5-5.5,12c-.7.7-4.4,3.7-12.9,4.2"/>
      </g>
    </g>
  </g>
</svg>