<?xml version="1.0" encoding="UTF-8"?>
<svg xmlns="http://www.w3.org/2000/svg" version="1.1" viewBox="0 0 100 29">
  <defs>
    <style>
      .cls-1 {
        fill: #a3a5a8;
      }

      .cls-2 {
        fill: #171717;
      }
    </style>
  </defs>
  <!-- Generator: Adobe Illustrator 28.6.0, SVG Export Plug-In . SVG Version: 1.2.0 Build 709)  -->
  <g>
    <g id="Layer_1">
      <g>
        <rect class="cls-2" x="32.4" y="3.4" width="4.1" height="17.9"/>
        <path class="cls-2" d="M45.8,7.8h-2.4v-.5c0-.7.6-1.3,1.3-1.3h.8v-3.7h-.8c-3.8,0-5.4,2-5.4,5v.5h-1.5v3.3h1.5v10.1h4.1v-10.1h2.4v-3.3h0Z"/>
        <path class="cls-2" d="M30.6,7.7h-4.2v7.4s0,2.7-2.5,2.7-2-.7-2.3-1.4c-.2-.5-.3-1-.3-1.5v-7.2h-4.1v8.2s0,5.4,5.1,5.4c3.1,0,4.2-1.8,4.2-1.8v1.8h4.2V7.7h0Z"/>
        <path class="cls-2" d="M12.7,21.4c-.8,1.4-2.3,2.3-4,2.3s-3.1-.9-4-2.2l-3.7,2.1c1.5,2.6,4.4,4.4,7.6,4.4s6.1-1.8,7.6-4.4l-3.6-2.2Z"/>
        <path class="cls-2" d="M8.6,7.1c-4,0-7.2,3.2-7.2,7.2s3.2,7.2,7.2,7.2,7.2-3.2,7.2-7.2-3.2-7.2-7.2-7.2ZM8.6,17.5c-1.7,0-3.2-1.4-3.2-3.2s1.4-3.2,3.2-3.2,3.2,1.4,3.2,3.2-1.4,3.2-3.2,3.2ZM11.6,11.2c-.6,0-1.1-.5-1.1-1.1s.5-1.1,1.1-1.1,1.1.5,1.1,1.1-.5,1.1-1.1,1.1Z"/>
        <circle class="cls-2" cx="14.7" cy="5.8" r="2.1"/>
        <circle class="cls-2" cx="11.2" cy="2.3" r="1.4"/>
        <path class="cls-1" d="M54.3,12h1.8s0-4-4.8-4.2c0,0-4.8-.4-4.8,4.1.3,4.1,7.9,3,7.9,5.8,0,0,.2,2.2-2.7,2.2,0,0-3.2.3-3.6-2.5h-1.8s-.2,4.3,5.5,4.1c0,0,4.6-.3,4.4-4.2,0-2.5-4.2-3.3-4.2-3.3,0,0-3.7-.5-3.6-2.7.2-2.3,3.1-1.9,3.1-1.9,0,0,2.9.2,2.8,2.7Z"/>
        <path class="cls-1" d="M63.6,7.6c-3.6,0-6.6,3.1-6.6,6.9s2.9,6.9,6.6,6.9,6.6-3.1,6.6-6.9c0-3.8-2.9-6.9-6.6-6.9ZM63.6,19.9c-2.7,0-4.9-2.4-4.9-5.4s2.2-5.4,4.9-5.4,4.9,2.4,4.9,5.4-2.2,5.4-4.9,5.4Z"/>
        <path class="cls-1" d="M82.4,3.3v7c-1.2-1.6-3-2.5-5-2.5-3.5,0-6.4,3.1-6.4,6.9s2.9,6.9,6.4,6.9,3.8-1,5-2.6v2.3h1.9V3.3h-1.9ZM77.6,19.9c-2.6,0-4.8-2.4-4.8-5.4s2.1-5.4,4.8-5.4,4.5,2.1,4.8,4.7v1.3c-.3,2.7-2.3,4.7-4.8,4.7Z"/>
        <path class="cls-1" d="M97.2,8v2.7c-1.1-1.8-3.1-3-5.2-3-3.5,0-6.3,3.1-6.3,6.9s2.8,6.9,6.3,6.9,4.1-1.2,5.2-3v2.7h1.8v-13.2h-1.8ZM92.4,19.8c-2.7,0-4.8-2.3-4.8-5.2s2.2-5.2,4.8-5.2,4.8,2.3,4.8,5.2-2.2,5.2-4.8,5.2Z"/>
      </g>
    </g>
  </g>
</svg>