<svg width="75" height="23" viewBox="0 0 75 23" fill="none" xmlns="http://www.w3.org/2000/svg">
<path d="M3.07808 1.04942H0.370361V3.75714H3.07808V1.04942Z" fill="#DF1766"/>
<path d="M3.07808 5.00949H0.370361V13.5388H3.07808V5.00949Z" fill="black"/>
<path d="M7.10596 7.37874V7.34489C7.10596 3.82486 9.77983 0.914062 13.5706 0.914062C15.906 0.914062 17.3276 1.69253 18.4784 2.84331L16.7522 4.84025C15.8045 3.96025 14.823 3.45255 13.5706 3.45255C11.4722 3.45255 9.98291 5.17872 9.98291 7.31105V7.34489C9.98291 9.47722 11.4383 11.2372 13.5706 11.2372C14.9922 11.2372 15.8722 10.6618 16.8199 9.78184L18.5461 11.5419C17.2599 12.8957 15.8383 13.7419 13.4691 13.7419C9.81368 13.7757 7.10596 10.9326 7.10596 7.37874Z" fill="black"/>
<path d="M26.7711 1.04932H29.2757L34.5896 13.5387H31.7465L30.5957 10.7633H25.3495L24.1987 13.5387H21.4233L26.7711 1.04932ZM29.648 8.36015L27.9896 4.33242L26.3311 8.36015H29.648Z" fill="black"/>
<path d="M39.5989 3.65552H35.8081V1.15088H46.0974V3.65552H42.3066V13.5725H39.5989V3.65552Z" fill="black"/>
<path d="M48.9058 7.37874V7.34489C48.9058 3.82486 51.5796 0.914062 55.3704 0.914062C57.7058 0.914062 59.1274 1.69253 60.2782 2.84331L58.552 4.84025C57.6043 3.96025 56.6228 3.45255 55.3704 3.45255C53.272 3.45255 51.7827 5.17872 51.7827 7.31105V7.34489C51.7827 9.47722 53.2381 11.2372 55.3704 11.2372C56.792 11.2372 57.672 10.6618 58.6197 9.78184L60.3459 11.5419C59.0597 12.8957 57.6382 13.7419 55.2689 13.7419C51.6135 13.7757 48.9058 10.9326 48.9058 7.37874Z" fill="black"/>
<path d="M64.3064 1.15094H67.048V6.05868H72.0572V1.15094H74.7988V13.5726H72.0572V8.56332H67.048V13.5726H64.3064V1.15094Z" fill="black"/>
<path d="M0.336426 18.4465H0.776431L2.13029 20.5111L3.518 18.4465H3.958V22.2373H3.518V19.1573L2.16414 21.1881H2.13029L0.742582 19.1573V22.2373H0.336426V18.4465Z" fill="black"/>
<path d="M6.59775 18.4126H7.00391L8.73008 22.2034H8.25623L7.81622 21.188H5.75159L5.31158 22.2034H4.87158L6.59775 18.4126ZM7.64699 20.8495L6.80083 18.9203L5.95467 20.8495H7.64699Z" fill="black"/>
<path d="M9.64404 18.4465H10.084V20.7142L12.2502 18.4465H12.7918L11.1671 20.105L12.8595 22.2373H12.3179L10.8964 20.3757L10.084 21.2219V22.2373H9.64404V18.4465Z" fill="black"/>
<path d="M14.1795 18.4465H13.7395V22.2373H14.1795V18.4465Z" fill="black"/>
<path d="M15.4663 18.4465H15.8725L18.2417 21.4589V18.4465H18.6817V22.2373H18.3433L15.9063 19.1235V22.2373H15.4663V18.4465Z" fill="black"/>
<path d="M19.7642 20.342C19.7642 19.2928 20.5088 18.3789 21.6596 18.3789C22.3026 18.3789 22.675 18.5481 23.0811 18.8866L22.8103 19.2251C22.5057 18.9881 22.2011 18.7851 21.6596 18.7851C20.8134 18.7851 20.238 19.4958 20.238 20.342C20.238 21.2559 20.8134 21.8989 21.7273 21.8989C22.1673 21.8989 22.5734 21.7297 22.8103 21.5266V20.5789H21.6596V20.2066H23.2165V21.6959C22.878 22.0005 22.3365 22.2713 21.6934 22.2713C20.4749 22.2713 19.7642 21.4251 19.7642 20.342Z" fill="black"/>
<path d="M26.161 18.4465H27.7518C28.1918 18.4465 28.5303 18.5819 28.7334 18.785C28.9026 18.9542 28.9703 19.1573 28.9703 19.3942C28.9703 19.9019 28.6657 20.1388 28.3611 20.2742C28.8011 20.4096 29.1734 20.6804 29.1734 21.1881C29.1734 21.8311 28.6318 22.2034 27.8195 22.2034H26.1272V18.4465H26.161ZM27.6841 20.1388C28.1918 20.1388 28.5641 19.9019 28.5641 19.4619C28.5641 19.0896 28.2595 18.8526 27.718 18.8526H26.5672V20.1388H27.6841ZM27.8195 21.8311C28.3949 21.8311 28.7334 21.5942 28.7334 21.1542C28.7334 20.748 28.3949 20.5111 27.718 20.5111H26.5334V21.8311H27.8195Z" fill="black"/>
<path d="M30.2231 18.4465H31.8478C32.3216 18.4465 32.6939 18.5819 32.9309 18.8188C33.1001 18.9881 33.2355 19.2588 33.2355 19.5635C33.2355 20.1727 32.7955 20.545 32.2201 20.6804L33.3709 22.2373H32.8293L31.7462 20.7819H30.6631V22.2373H30.2231V18.4465ZM31.8139 20.3758C32.3893 20.3758 32.7955 20.0712 32.7955 19.5973C32.7955 19.1235 32.4232 18.8527 31.8139 18.8527H30.6631V20.3758H31.8139Z" fill="black"/>
<path d="M35.7062 18.4126H36.1123L37.8385 22.2035H37.3646L36.9246 21.1881H34.86L34.42 22.2035H33.98L35.7062 18.4126ZM36.7554 20.8496L35.9092 18.9203L35.0631 20.8496H36.7554Z" fill="black"/>
<path d="M38.7522 18.4465H39.1584L41.5276 21.4588V18.4465H41.9676V22.2373H41.6291L39.1922 19.1234V22.2373H38.7522V18.4465Z" fill="black"/>
<path d="M43.2202 18.4465H44.5402C45.7249 18.4465 46.5372 19.2588 46.5372 20.3081C46.5372 21.3573 45.7249 22.2035 44.5402 22.2035H43.2202V18.4465ZM44.5064 21.8312C45.4541 21.8312 46.0633 21.1881 46.0633 20.3419C46.0633 19.4958 45.4541 18.8527 44.5064 18.8527H43.6264V21.8312H44.5064Z" fill="black"/>
<path d="M47.3152 21.6619L47.586 21.3573C47.9921 21.7296 48.3644 21.8988 48.8721 21.8988C49.3798 21.8988 49.7183 21.6281 49.7183 21.2557C49.7183 20.9173 49.5152 20.7142 48.7367 20.545C47.8567 20.3419 47.4844 20.0711 47.4844 19.4619C47.4844 18.8526 48.026 18.4465 48.7367 18.4465C49.2783 18.4465 49.6844 18.6157 50.0567 18.9203L49.8198 19.2588C49.4814 18.988 49.109 18.8526 48.7367 18.8526C48.229 18.8526 47.9244 19.1234 47.9244 19.4619C47.9244 19.8342 48.1275 20.0034 48.9398 20.2065C49.786 20.3757 50.1583 20.7142 50.1583 21.2896C50.1583 21.9327 49.6167 22.3727 48.8721 22.3727C48.2629 22.2711 47.7552 22.0681 47.3152 21.6619Z" fill="black"/>
<path d="M52.6968 18.4465H53.1706L54.4906 21.6958L55.8445 18.4465H56.3183L54.6937 22.2373H54.3214L52.6968 18.4465Z" fill="black"/>
<path d="M57.7064 18.4465H57.2664V22.2373H57.7064V18.4465Z" fill="black"/>
<path d="M58.7554 21.6619L59.0261 21.3573C59.4323 21.7296 59.8046 21.8988 60.3123 21.8988C60.82 21.8988 61.1585 21.6281 61.1585 21.2557C61.1585 20.9173 60.9554 20.7142 60.1769 20.545C59.2969 20.3419 58.9246 20.0711 58.9246 19.4619C58.9246 18.8526 59.4323 18.4465 60.1769 18.4465C60.7185 18.4465 61.1246 18.6157 61.4969 18.9203L61.26 19.2588C60.9215 18.988 60.5492 18.8526 60.1769 18.8526C59.6692 18.8526 59.3646 19.1234 59.3646 19.4619C59.3646 19.8342 59.5677 20.0034 60.38 20.2065C61.2262 20.3757 61.5985 20.7142 61.5985 21.2896C61.5985 21.9327 61.0569 22.3727 60.3123 22.3727C59.7031 22.2711 59.1954 22.0681 58.7554 21.6619Z" fill="black"/>
<path d="M63.1219 18.4465H62.6819V22.2373H63.1219V18.4465Z" fill="black"/>
<path d="M64.4083 18.4465H65.9991C66.4391 18.4465 66.7776 18.5819 66.9807 18.785C67.1499 18.9542 67.2176 19.1573 67.2176 19.3942C67.2176 19.9019 66.913 20.1389 66.6084 20.2742C67.0484 20.4096 67.4207 20.6804 67.4207 21.1881C67.4207 21.8312 66.8792 22.2035 66.0668 22.2035H64.3745V18.4465H64.4083ZM65.9314 20.1389C66.4391 20.1389 66.8115 19.9019 66.8115 19.4619C66.8115 19.0896 66.5068 18.8527 65.9653 18.8527H64.8145V20.1389H65.9314ZM66.0668 21.8312C66.6422 21.8312 66.9807 21.5943 66.9807 21.1543C66.9807 20.7481 66.6422 20.5112 65.9653 20.5112H64.7807V21.8312H66.0668Z" fill="black"/>
<path d="M68.469 18.4465H68.909V21.8311H71.0413V22.2373H68.469V18.4465Z" fill="black"/>
<path d="M71.9897 18.4465H74.7313V18.8188H72.4297V20.1388H74.4944V20.5111H72.4297V21.8311H74.7652V22.2373H71.9897V18.4465Z" fill="black"/>
</svg>
