<svg width="115" height="26" viewBox="0 0 115 26" fill="none" xmlns="http://www.w3.org/2000/svg">
<mask id="mask0_1_2098" style="mask-type:luminance" maskUnits="userSpaceOnUse" x="0" y="0" width="115" height="26">
<path d="M115 0.674072H0.429688V25.4976H115V0.674072Z" fill="white"/>
</mask>
<g mask="url(#mask0_1_2098)">
<path d="M63.5585 2.95923C69.3686 2.95923 74.0036 7.62694 74.0036 13.4371C74.0036 19.2472 69.3686 23.8822 63.5585 23.8822C57.7484 23.8822 53.1133 19.2472 53.1133 13.4371C53.1133 7.62694 57.7484 2.95923 63.5585 2.95923ZM63.5585 20.0958C67.214 20.0958 70.2501 17.0929 70.2501 13.4371C70.2501 9.78124 67.214 6.71296 63.5585 6.71296C59.9027 6.71296 56.8997 9.74859 56.8997 13.4371C56.8997 17.0929 59.9027 20.0958 63.5585 20.0958Z" fill="#19272A"/>
<path d="M74.4268 4.00368C74.2639 3.61198 74.4924 3.25293 74.9163 3.25293H77.8868C78.1478 3.25293 78.3114 3.41613 78.3763 3.57934L83.9578 16.0809H84.1538L89.7353 3.57934C89.8009 3.44877 89.9638 3.25293 90.2254 3.25293H93.1953C93.6199 3.25293 93.8484 3.64462 93.6848 4.00368L84.6764 23.5557C84.5784 23.7189 84.4479 23.8821 84.1863 23.8821H83.8929C83.6319 23.8821 83.5008 23.7515 83.4034 23.5557L74.4268 4.00368Z" fill="#19272A"/>
<path d="M104.522 2.95923C110.332 2.95923 114.967 7.62694 114.967 13.4371C114.967 19.2472 110.332 23.8822 104.522 23.8822C98.7122 23.8822 94.0771 19.2472 94.0771 13.4371C94.1096 7.62694 98.7122 2.95923 104.522 2.95923ZM104.522 20.0958C108.178 20.0958 111.214 17.0929 111.214 13.4371C111.214 9.78124 108.178 6.71296 104.522 6.71296C100.867 6.71296 97.8637 9.74859 97.8637 13.4371C97.8962 17.0929 100.867 20.0958 104.522 20.0958Z" fill="#19272A"/>
<path d="M24.355 23.6862C24.0613 23.6862 23.8001 23.4578 23.8001 23.1313V12.0986C23.8001 8.76921 21.7437 6.61493 18.5449 6.61493C15.3787 6.61493 13.3224 8.76921 13.3224 12.0986V23.1313C13.3224 23.4251 13.0612 23.6862 12.7675 23.6862H10.0256C9.7318 23.6862 9.4707 23.4578 9.4707 23.1313V12.0986C9.4707 6.22323 12.7022 2.99176 18.5776 2.99176C24.4529 2.99176 27.6845 6.25587 27.6845 12.0986V23.1313C27.6845 23.4251 27.4233 23.6862 27.1296 23.6862H24.355Z" fill="#19272A"/>
<path d="M46.6168 23.6862C46.323 23.6862 46.0619 23.4578 46.0619 23.1313V12.0986C46.0619 8.76921 44.0054 6.61493 40.8066 6.61493C37.6404 6.61493 35.5841 8.76921 35.5841 12.0986V23.1313C35.5841 23.4251 35.3229 23.6862 35.0292 23.6862H32.2873C31.9935 23.6862 31.7324 23.4578 31.7324 23.1313V12.0986C31.7324 6.22323 34.9639 2.99176 40.8393 2.99176C46.7147 2.99176 49.9462 6.22323 49.9462 12.0986V23.1313C49.9462 23.4251 49.685 23.6862 49.3913 23.6862H46.6168Z" fill="#19272A"/>
<path d="M3.00833 5.7989C4.4119 5.7989 5.58698 4.65646 5.58698 3.22025C5.58698 1.81668 4.44454 0.641602 3.00833 0.641602C1.57213 0.674243 0.429688 1.81668 0.429688 3.25289C0.429688 4.65646 1.57213 5.7989 3.00833 5.7989Z" fill="#19272A"/>
<path d="M1.08203 8.50809C1.08203 8.21434 1.34316 7.95319 1.63693 7.95319H4.34615C4.63991 7.95319 4.90104 8.21434 4.90104 8.50809V23.1313C4.90104 23.4251 4.63991 23.6862 4.34615 23.6862H1.63693C1.34316 23.6862 1.08203 23.4251 1.08203 23.1313V8.50809Z" fill="#19272A"/>
</g>
</svg>
