<svg width="144" height="21" viewBox="0 0 144 21" fill="none" xmlns="http://www.w3.org/2000/svg">
<path d="M0.916016 20.1083V1.92424H3.25396V19.0043H15.3334V20.1083H0.916016Z" fill="black"/>
<path d="M50.0773 20.1084V3.02835H43.0635V1.92432H59.4291V3.02835H52.4153V20.1084H50.0773Z" fill="black"/>
<path d="M69.1055 1.92424H66.7676V20.1083H69.1055V1.92424Z" fill="black"/>
<path d="M91.9657 20.1083L77.6133 4.91162V20.1083H76.4443V1.92424H78.4576L91.7709 15.887V1.92424H92.9399V20.1083H91.9657Z" fill="black"/>
<path d="M141.453 20.1084V4.65192L133.919 18.8744L133.335 20.1084L125.087 4.91169V20.1084H123.918V1.92432H126.256L133.984 16.1468L141.453 1.92432H143.791V20.1084H141.453Z" fill="black"/>
<path d="M25.5943 16.4064L31.4392 4.32701L38.7778 19.0041H38.7128L39.2973 20.1082H41.7651L32.2185 0.235596L31.4392 1.92412L22.6719 20.1082H23.8409L25.5943 16.4064Z" fill="black"/>
<path d="M116.255 18.0299H100.344V20.108H116.255V18.0299Z" fill="black"/>
<path d="M116.255 1.92424H100.344V4.00241H116.255V1.92424Z" fill="black"/>
<path d="M116.255 9.97705H100.344V12.0552H116.255V9.97705Z" fill="black"/>
</svg>
