<svg width="36" height="53" viewBox="0 0 36 53" fill="none" xmlns="http://www.w3.org/2000/svg">
<path d="M28.178 18.1804V8.84717H18.2226C12.8172 8.84717 8.46167 13.2027 8.46167 18.6081V27.9413H11.0283H18.4171C23.8225 27.9024 28.178 23.5469 28.178 18.1804ZM9.55054 26.8913V18.6081C9.55054 13.786 13.4783 9.81938 18.3393 9.81938H27.1669V18.1026C27.1669 22.9247 23.2392 26.8913 18.3782 26.8913H9.55054Z" fill="url(#paint0_linear_1_5130)"/>
<path d="M1.11175 48.2799H0.878418V51.4687H1.11175V48.2799Z" fill="#0B1F49"/>
<path d="M2.5126 49.4468C2.20149 49.4468 2.00704 49.5634 1.85149 49.7579V49.4857H1.61816V51.4301H1.85149V50.3412C1.85149 50.1468 1.92927 49.9912 2.04593 49.8746C2.20148 49.7579 2.31815 49.6801 2.5126 49.6801C2.70704 49.6801 2.8237 49.7579 2.97925 49.8746C3.09592 49.9912 3.1737 50.1468 3.1737 50.3412V51.469H3.40702V50.3412C3.40702 50.1079 3.32925 49.8745 3.1737 49.719C2.94037 49.5634 2.74593 49.4468 2.5126 49.4468Z" fill="#0B1F49"/>
<path d="M4.10568 51.1187C3.98901 51.002 3.95013 50.8854 3.95013 50.7298V49.7187H4.53345V49.5243H3.95013V48.7854H3.7168V50.7687C3.7168 51.002 3.79458 51.1576 3.95013 51.3131C4.10568 51.4687 4.26123 51.5076 4.49456 51.5076H4.53345V51.3131H4.49456C4.33901 51.2743 4.22234 51.2354 4.10568 51.1187Z" fill="#0B1F49"/>
<path d="M6.5556 49.8744C6.32227 49.6022 6.05005 49.4855 5.73895 49.4855C5.42784 49.4855 5.19451 49.6022 5.00007 49.7966C4.80563 49.9911 4.68896 50.2244 4.68896 50.4966C4.68896 50.7688 4.80563 51.0022 5.00007 51.2355C5.19451 51.4299 5.42784 51.5466 5.73895 51.5466H5.77784C6.08894 51.5466 6.32227 51.4299 6.51671 51.1966V50.8077L6.43894 50.9244C6.36116 51.0411 6.2445 51.1577 6.12783 51.1966C6.01117 51.2744 5.85562 51.3133 5.70006 51.3133C5.54451 51.3133 5.42784 51.2355 5.27229 51.1577L6.5556 49.8744ZM5.07785 50.9633C4.96118 50.8077 4.88341 50.6522 4.88341 50.4577C4.88341 50.2633 4.96119 50.0689 5.11674 49.9133C5.27229 49.7577 5.46673 49.68 5.66117 49.68C5.85561 49.68 6.01117 49.7578 6.16672 49.8744L5.07785 50.9633Z" fill="#0B1F49"/>
<path d="M7.60613 49.4466C7.45058 49.4466 7.33392 49.4855 7.21725 49.5633C7.13948 49.6022 7.10059 49.6411 7.0617 49.68V49.4855H6.82837V51.4299H7.0617V50.1466C7.0617 50.03 7.10059 49.9133 7.21725 49.7966C7.33392 49.68 7.45059 49.6411 7.56725 49.6411C7.68392 49.6411 7.83947 49.68 7.91724 49.7966L7.99502 49.8744V49.5633C7.87835 49.5244 7.7228 49.4466 7.60613 49.4466Z" fill="#0B1F49"/>
<path d="M9.16152 49.4466C8.85042 49.4466 8.65598 49.5633 8.50042 49.7577V49.4855H8.26709V51.4299H8.50042V50.3411C8.50042 50.1466 8.5782 49.9911 8.69486 49.8744C8.85042 49.7577 8.96708 49.68 9.16152 49.68C9.35596 49.68 9.47263 49.7577 9.62818 49.8744C9.74484 49.9911 9.82262 50.1466 9.82262 50.3411V51.4688H10.056V50.3411C10.056 50.1077 9.97817 49.8744 9.82262 49.7188C9.62818 49.5633 9.43374 49.4466 9.16152 49.4466Z" fill="#0B1F49"/>
<path d="M12.1562 49.8355C12.0784 49.7577 12.0006 49.68 11.884 49.6022C11.7284 49.4855 11.534 49.4466 11.3395 49.4466C11.0673 49.4466 10.7951 49.5633 10.6007 49.7577C10.4062 49.9522 10.2896 50.1855 10.2896 50.4966C10.2896 50.7688 10.4062 51.0022 10.6007 51.2355C10.7951 51.4299 11.0673 51.5466 11.3395 51.5466C11.534 51.5466 11.6895 51.5077 11.8451 51.391C11.9617 51.3133 12.0395 51.2355 12.1173 51.1577V51.5077H12.3506V49.5633H12.1173V49.8355H12.1562ZM11.9617 51.0799C11.8062 51.2355 11.6117 51.3133 11.3784 51.3133C11.1451 51.3133 10.9506 51.2355 10.7951 51.0799C10.6395 50.9244 10.5618 50.7299 10.5618 50.4966C10.5618 50.2633 10.6395 50.0688 10.7951 49.9133C10.9506 49.7577 11.1451 49.68 11.3784 49.68C11.6117 49.68 11.7673 49.7577 11.9617 49.9133C12.1173 50.0688 12.1951 50.2633 12.1951 50.4966C12.1951 50.7299 12.1173 50.8855 11.9617 51.0799Z" fill="#0B1F49"/>
<path d="M13.1291 51.1188C13.0125 51.0021 12.9736 50.8855 12.9736 50.7299V49.7188H13.5569V49.5244H12.9736V48.7855H12.7402V50.7688C12.7402 51.0021 12.818 51.1577 12.9736 51.3132C13.1291 51.4688 13.2847 51.5077 13.518 51.5077H13.5569V51.3132H13.518C13.3624 51.2743 13.2458 51.2355 13.1291 51.1188Z" fill="#0B1F49"/>
<path d="M13.9837 48.8242C13.867 48.8242 13.8281 48.902 13.8281 48.9798C13.8281 49.0576 13.9059 49.1354 13.9837 49.1354C14.1003 49.1354 14.1392 49.0576 14.1392 48.9798C14.1392 48.902 14.0615 48.8242 13.9837 48.8242Z" fill="#0B1F49"/>
<path d="M14.101 49.5243H13.8677V51.4687H14.101V49.5243Z" fill="#0B1F49"/>
<path d="M15.4616 49.4468C15.1894 49.4468 14.9172 49.5634 14.7227 49.7579C14.5283 49.9523 14.4116 50.1857 14.4116 50.4579C14.4116 50.7301 14.5283 50.9634 14.7227 51.1968C14.9172 51.3912 15.1505 51.5079 15.4227 51.5079H15.4616C15.7338 51.5079 15.9672 51.3912 16.1616 51.1968C16.356 51.0023 16.4727 50.7301 16.4727 50.4579C16.4727 50.1857 16.356 49.9523 16.1616 49.7579C16.006 49.5634 15.7727 49.4468 15.4616 49.4468ZM16.0449 51.0801C15.8894 51.2356 15.6949 51.3134 15.4616 51.3134C15.2283 51.3134 15.0338 51.2356 14.8783 51.0801C14.7227 50.9245 14.645 50.7301 14.645 50.4968C14.645 50.2634 14.7227 50.069 14.8783 49.9134C15.0338 49.7579 15.2283 49.6801 15.4616 49.6801C15.6949 49.6801 15.8894 49.7579 16.0449 49.9134C16.2005 50.069 16.2783 50.2634 16.2783 50.4968C16.2783 50.7301 16.2005 50.8856 16.0449 51.0801Z" fill="#0B1F49"/>
<path d="M17.7169 49.4466C17.4058 49.4466 17.2114 49.5633 17.0558 49.7577V49.4855H16.8225V51.4299H17.0558V50.3411C17.0558 50.1466 17.1336 49.9911 17.2503 49.8744C17.4058 49.7577 17.5225 49.68 17.7169 49.68C17.9114 49.68 18.028 49.7577 18.1836 49.8744C18.3003 49.9911 18.378 50.1466 18.378 50.3411V51.4688H18.6114V50.3411C18.6114 50.1077 18.5336 49.8744 18.378 49.7188C18.1447 49.5633 17.9503 49.4466 17.7169 49.4466Z" fill="#0B1F49"/>
<path d="M20.7114 49.8355C20.6336 49.7577 20.5558 49.68 20.4391 49.6022C20.2836 49.4855 20.0892 49.4466 19.8947 49.4466C19.6225 49.4466 19.3503 49.5633 19.1558 49.7577C18.9614 49.9522 18.8447 50.1855 18.8447 50.4966C18.8447 50.7688 18.9614 51.0022 19.1558 51.2355C19.3503 51.4299 19.6225 51.5466 19.8947 51.5466C20.0892 51.5466 20.2447 51.5077 20.4003 51.391C20.5169 51.3133 20.5947 51.2355 20.6725 51.1577V51.5077H20.9058V49.5633H20.6725V49.8355H20.7114ZM20.478 51.0799C20.3225 51.2355 20.128 51.3133 19.8947 51.3133C19.6614 51.3133 19.4669 51.2355 19.3114 51.0799C19.1558 50.9244 19.0781 50.7299 19.0781 50.4966C19.0781 50.2633 19.1558 50.0688 19.3114 49.9133C19.4669 49.7577 19.6614 49.68 19.8947 49.68C20.128 49.68 20.2836 49.7577 20.478 49.9133C20.6336 50.0688 20.7114 50.2633 20.7114 50.4966C20.7114 50.7299 20.6336 50.8855 20.478 51.0799Z" fill="#0B1F49"/>
<path d="M21.7229 51.1576C21.6062 51.041 21.5673 50.9243 21.5673 50.7688V48.2799H21.334V50.7688C21.334 51.0021 21.4118 51.1576 21.5673 51.3132C21.7229 51.4687 21.8784 51.5076 22.1118 51.5076H22.1506V51.3132H22.1118C21.9562 51.3132 21.8395 51.2354 21.7229 51.1576Z" fill="#0B1F49"/>
<path d="M24.1723 51.1187C24.0557 51.002 24.0168 50.8854 24.0168 50.7298V49.7187H24.6001V49.5243H24.0168V48.7854H23.7834V50.7687C23.7834 51.002 23.8612 51.1576 24.0168 51.3131C24.1723 51.4687 24.3279 51.5076 24.5612 51.5076H24.6001V51.3131H24.5612C24.4057 51.2743 24.289 51.2354 24.1723 51.1187Z" fill="#0B1F49"/>
<path d="M25.6105 49.4466C25.455 49.4466 25.3383 49.4855 25.2216 49.5633C25.1439 49.6022 25.105 49.6411 25.0661 49.68V49.4855H24.8328V51.4299H25.0661V50.1466C25.0661 50.03 25.105 49.9133 25.2216 49.7966C25.3383 49.68 25.455 49.6411 25.5716 49.6411C25.6883 49.6411 25.8439 49.68 25.9216 49.7966L25.9994 49.8744V49.5633C25.8827 49.5244 25.7272 49.4466 25.6105 49.4466Z" fill="#0B1F49"/>
<path d="M28.0217 49.8357C27.9439 49.7579 27.8661 49.6801 27.7495 49.6023C27.5939 49.4857 27.3995 49.4468 27.205 49.4468C26.9328 49.4468 26.6606 49.5634 26.4661 49.7579C26.2717 49.9523 26.155 50.1857 26.155 50.4968C26.155 50.769 26.2717 51.0023 26.4661 51.2356C26.6606 51.4301 26.9328 51.5467 27.205 51.5467C27.3995 51.5467 27.555 51.5079 27.7106 51.3912C27.8272 51.3134 27.905 51.2356 27.9828 51.1579V51.5079H28.2161V49.5634H27.9828V49.8357H28.0217ZM27.7883 51.0801C27.6328 51.2356 27.4383 51.3134 27.205 51.3134C26.9717 51.3134 26.7772 51.2356 26.6217 51.0801C26.4661 50.9245 26.3884 50.7301 26.3884 50.4968C26.3884 50.2634 26.4661 50.069 26.6217 49.9134C26.7772 49.7579 26.9717 49.6801 27.205 49.6801C27.4383 49.6801 27.5939 49.7579 27.7883 49.9134C27.9439 50.069 28.0217 50.2634 28.0217 50.4968C28.0217 50.7301 27.9439 50.8856 27.7883 51.0801Z" fill="#0B1F49"/>
<path d="M30.3558 49.8357C30.278 49.7579 30.2003 49.6412 30.0836 49.6023C29.9281 49.5246 29.7336 49.4468 29.5781 49.4468C29.3058 49.4468 29.0336 49.5635 28.8392 49.7579C28.6447 49.9523 28.5281 50.1857 28.5281 50.4968C28.5281 50.769 28.6447 51.0023 28.8392 51.2357C29.0336 51.4301 29.267 51.5468 29.5781 51.5468C29.7336 51.5468 29.9281 51.5079 30.0836 51.3912C30.2003 51.3134 30.278 51.2357 30.3558 51.1579V51.5079H30.5892V48.319H30.3558V49.8357ZM30.1225 51.0801C29.9669 51.2356 29.7725 51.3134 29.5392 51.3134C29.3058 51.3134 29.1114 51.2356 28.9558 51.0801C28.8003 50.9245 28.7225 50.7301 28.7225 50.4968C28.7225 50.2634 28.8003 50.069 28.9558 49.9134C29.1114 49.7579 29.3058 49.6801 29.5392 49.6801C29.7725 49.6801 29.9281 49.7579 30.1225 49.9134C30.2781 50.069 30.3558 50.2634 30.3558 50.4968C30.3558 50.7301 30.3169 50.8857 30.1225 51.0801Z" fill="#0B1F49"/>
<path d="M31.2897 49.5243H31.0564V51.4687H31.2897V49.5243Z" fill="#0B1F49"/>
<path d="M31.1724 48.8242C31.0557 48.8242 31.0168 48.902 31.0168 48.9798C31.0168 49.0965 31.0946 49.1354 31.1724 49.1354C31.2891 49.1354 31.328 49.0576 31.328 48.9798C31.328 48.902 31.2891 48.8242 31.1724 48.8242Z" fill="#0B1F49"/>
<path d="M32.6498 49.4466C32.3387 49.4466 32.1443 49.5633 31.9887 49.7577V49.4855H31.7554V51.4299H31.9887V50.3411C31.9887 50.1466 32.0665 49.9911 32.1831 49.8744C32.3387 49.7577 32.4554 49.68 32.6498 49.68C32.8442 49.68 32.9609 49.7577 33.1165 49.8744C33.2331 49.9911 33.3109 50.1466 33.3109 50.3411V51.4688H33.5442V50.3411C33.5442 50.1077 33.4665 49.8744 33.3109 49.7188C33.0776 49.5633 32.8831 49.4466 32.6498 49.4466Z" fill="#0B1F49"/>
<path d="M35.6442 49.5243V49.8743C35.5665 49.7965 35.4887 49.6799 35.372 49.641C35.2165 49.5632 35.022 49.4854 34.8276 49.4854C34.5554 49.4854 34.2831 49.6021 34.0887 49.7965C33.8943 49.991 33.7776 50.2243 33.7776 50.5354C33.7776 50.8076 33.8943 51.0409 34.0887 51.2743C34.2831 51.4687 34.5554 51.5854 34.8276 51.5854C35.022 51.5854 35.1776 51.5465 35.3331 51.4298C35.4498 51.3521 35.5276 51.2743 35.6053 51.1965V51.3132C35.6053 51.5854 35.5276 51.8187 35.372 51.9743C35.2165 52.1298 35.022 52.2076 34.8276 52.2076C34.672 52.2076 34.5165 52.1687 34.3609 52.0909C34.2054 52.0132 34.1276 51.8965 34.0498 51.7798L33.972 51.6243V52.0132C34.0498 52.1298 34.1665 52.2465 34.322 52.3243C34.4776 52.402 34.6331 52.4409 34.7887 52.4409C35.0998 52.4409 35.3331 52.3243 35.5276 52.1298C35.722 51.9354 35.7998 51.6632 35.7998 51.3521V49.6021H35.6442V49.5243ZM35.4109 51.0798C35.2553 51.2354 35.0609 51.3132 34.8276 51.3132C34.5942 51.3132 34.3998 51.2354 34.2442 51.0798C34.0887 50.9243 34.0109 50.7298 34.0109 50.4965C34.0109 50.2632 34.0887 50.0687 34.2442 49.9132C34.3998 49.7576 34.5942 49.6799 34.8276 49.6799C35.0609 49.6799 35.2553 49.7576 35.4109 49.9132C35.5664 50.0687 35.6442 50.2632 35.6442 50.4965C35.6442 50.7298 35.5664 50.9243 35.4109 51.0798Z" fill="#0B1F49"/>
<path d="M27.1672 18.1027V9.81953H18.3007C13.4786 9.81953 9.51196 13.7473 9.51196 18.6083V26.8915H18.3785C23.2395 26.8915 27.1672 22.9638 27.1672 18.1027ZM10.5231 18.5694C10.5231 14.3306 13.9841 10.8695 18.2229 10.8695H26.1173V18.1805C26.1173 22.4193 22.6562 25.8804 18.4174 25.8804H10.5231V18.5694Z" fill="url(#paint1_linear_1_5130)"/>
<path d="M33.0779 0.914062H3.67838C2.12285 0.914062 0.878418 2.15849 0.878418 3.71402V27.9414H8.50052V26.9303H1.88952V4.56956C1.88952 3.09181 2.82284 1.92516 4.53392 1.92516H32.2224C34.0112 1.92516 34.8668 3.09181 34.8668 4.56956V32.2191C34.8668 33.6969 34.1279 34.8635 32.2224 34.8635H9.55051V27.9025H8.50052V29.6525V35.9135H33.0779C34.6335 35.9135 35.8779 34.6691 35.8779 33.1136V3.71402C35.8779 2.15849 34.6335 0.914062 33.0779 0.914062Z" fill="url(#paint2_linear_1_5130)"/>
<path d="M32.1837 34.9025C34.167 34.9025 34.867 33.7358 34.867 32.2581V4.5696C34.867 3.09185 34.0503 1.9252 32.2226 1.9252H4.53413C2.78415 1.9252 1.85083 3.09185 1.85083 4.5696V26.8915H8.46184V25.8804H6.16743H2.90082V4.37516C2.90082 3.5974 3.52303 2.97519 4.30079 2.97519H32.417C33.1948 2.97519 33.817 3.5974 33.817 4.37516V32.4525C33.817 33.2303 33.1948 33.8525 32.417 33.8525H10.5229V29.6526V27.9026H9.51183V34.8636L32.1837 34.9025Z" fill="url(#paint3_linear_1_5130)"/>
<path d="M1.42286 46.1802H0.995084C0.917307 46.1802 0.878418 46.1413 0.878418 46.0636V40.2303C0.878418 40.1525 0.917307 40.1136 0.995084 40.1136H3.21172C3.63949 40.1136 3.98948 40.2303 4.22281 40.5025C4.45614 40.7359 4.57281 41.0859 4.57281 41.5136V42.5636C4.57281 42.9914 4.45614 43.3414 4.22281 43.5747C3.98948 43.808 3.63949 43.9247 3.21172 43.9247H1.65618C1.57841 43.9247 1.57841 43.9636 1.57841 44.0025V46.0247C1.57841 46.1024 1.53952 46.1802 1.42286 46.1802ZM1.65618 43.3414H3.13394C3.67838 43.3414 3.91171 43.0692 3.91171 42.5247V41.5525C3.91171 41.0081 3.63949 40.7359 3.13394 40.7359H1.65618C1.57841 40.7359 1.57841 40.7747 1.57841 40.8136V43.2636C1.57841 43.3025 1.6173 43.3414 1.65618 43.3414Z" fill="#0B1F49"/>
<path d="M19.1553 46.1802H16.122C16.0443 46.1802 16.0054 46.1413 16.0054 46.0636V40.2303C16.0054 40.1525 16.0443 40.1136 16.122 40.1136H16.5498C16.6276 40.1136 16.6665 40.1525 16.6665 40.2303V45.4413C16.6665 45.4802 16.7054 45.5191 16.7442 45.5191H19.1164C19.1942 45.5191 19.2331 45.558 19.2331 45.6747V46.0247C19.272 46.1024 19.2331 46.1802 19.1553 46.1802Z" fill="#0B1F49"/>
<path d="M24.4455 46.1802H21.49C21.4122 46.1802 21.3733 46.1413 21.3733 46.0636V40.2303C21.3733 40.1525 21.4122 40.1136 21.49 40.1136H24.4455C24.5232 40.1136 24.5621 40.1525 24.5621 40.2303V40.5803C24.5621 40.6581 24.5232 40.697 24.4455 40.697H22.1511C22.0733 40.697 22.0733 40.7359 22.0733 40.7747V42.6803C22.0733 42.7192 22.1122 42.7581 22.1511 42.7581H24.4455C24.5232 42.7581 24.5621 42.7969 24.5621 42.8747V43.2247C24.5621 43.3025 24.5232 43.3414 24.4455 43.3414H22.1511C22.0733 43.3414 22.0733 43.3803 22.0733 43.4192V45.4413C22.0733 45.4802 22.1122 45.5191 22.1511 45.5191H24.4455C24.5232 45.5191 24.5621 45.558 24.5621 45.6358V45.9858C24.5621 46.1024 24.5232 46.1802 24.4455 46.1802Z" fill="#0B1F49"/>
<path d="M29.695 46.1802H26.7395C26.6617 46.1802 26.6228 46.1413 26.6228 46.0636V40.2303C26.6228 40.1525 26.6617 40.1136 26.7395 40.1136H29.695C29.7728 40.1136 29.8116 40.1525 29.8116 40.2303V40.5803C29.8116 40.6581 29.7728 40.697 29.695 40.697H27.4006C27.3228 40.697 27.3228 40.7359 27.3228 40.7747V42.6803C27.3228 42.7192 27.3617 42.7581 27.4006 42.7581H29.695C29.7728 42.7581 29.8116 42.7969 29.8116 42.8747V43.2247C29.8116 43.3025 29.7728 43.3414 29.695 43.3414H27.4006C27.3228 43.3414 27.3228 43.3803 27.3228 43.4192V45.4413C27.3228 45.4802 27.3617 45.5191 27.4006 45.5191H29.695C29.7728 45.5191 29.8116 45.558 29.8116 45.6358V45.9858C29.8505 46.1024 29.7728 46.1802 29.695 46.1802Z" fill="#0B1F49"/>
<path d="M32.4563 46.1802H32.0285C31.9508 46.1802 31.9119 46.1413 31.9119 46.0636V40.2303C31.9119 40.1525 31.9508 40.1136 32.0285 40.1136H32.4174C32.4952 40.1136 32.5341 40.1525 32.573 40.1914L35.1785 44.7802H35.2174V40.2303C35.2174 40.1525 35.2563 40.1136 35.334 40.1136H35.7618C35.8396 40.1136 35.8785 40.1525 35.8785 40.2303V46.0247C35.8785 46.1024 35.8396 46.1413 35.7618 46.1413H35.4118C35.334 46.1413 35.2951 46.1024 35.2174 46.0247L32.6119 41.5136H32.573V46.0247C32.573 46.1024 32.5341 46.1802 32.4563 46.1802Z" fill="#0B1F49"/>
<path d="M13.906 46.0247L12.6615 43.3803V43.3414C12.9726 43.2636 13.206 43.108 13.3615 42.8747C13.5171 42.6414 13.6337 42.3692 13.6337 42.0192V41.5136C13.6337 41.0859 13.5171 40.7359 13.2449 40.5025C13.0115 40.2692 12.6615 40.1136 12.2338 40.1136H10.8727C10.7949 40.1136 10.756 40.1525 10.756 40.2303V40.6192C10.756 40.697 10.7949 40.7359 10.8727 40.7359H12.1949C12.7393 40.7359 13.0115 41.0081 13.0115 41.5525V41.9803C13.0115 42.4469 12.6615 42.7969 12.1949 42.7969H9.4338C9.35602 42.7969 9.31714 42.8358 9.31714 42.9136V43.3025C9.31714 43.3803 9.35602 43.4192 9.4338 43.4192H11.9615L13.1671 46.0636C13.206 46.1413 13.2837 46.1802 13.4004 46.1802H13.8282C13.9448 46.1802 13.9448 46.1024 13.906 46.0247Z" fill="#0B1F49"/>
<path d="M9.86201 40.5803V40.2303C9.86201 40.1525 9.82312 40.1136 9.74534 40.1136H6.75094C6.67317 40.1136 6.63428 40.1525 6.63428 40.2303V46.0247C6.63428 46.1024 6.67317 46.1413 6.75094 46.1413H9.70646C9.78423 46.1413 9.82312 46.1024 9.82312 46.0247V45.6747C9.82312 45.5969 9.78423 45.558 9.70646 45.558H7.41204C7.33427 45.558 7.33427 45.5191 7.33427 45.4802V40.8136C7.33427 40.7747 7.37315 40.7359 7.41204 40.7359H9.70646C9.82312 40.697 9.86201 40.6581 9.86201 40.5803Z" fill="#0B1F49"/>
<defs>
<linearGradient id="paint0_linear_1_5130" x1="28.178" y1="8.84717" x2="9.06979" y2="28.5316" gradientUnits="userSpaceOnUse">
<stop stop-color="#CEB28A"/>
<stop offset="1" stop-color="#0B1F49"/>
</linearGradient>
<linearGradient id="paint1_linear_1_5130" x1="27.1672" y1="9.81954" x2="10.0835" y2="27.4454" gradientUnits="userSpaceOnUse">
<stop stop-color="#0B1F49"/>
<stop offset="1" stop-color="#CEB28A"/>
</linearGradient>
<linearGradient id="paint2_linear_1_5130" x1="35.8779" y1="0.914065" x2="0.83722" y2="35.8722" gradientUnits="userSpaceOnUse">
<stop stop-color="#CEB28A"/>
<stop offset="1" stop-color="#0B1F49"/>
</linearGradient>
<linearGradient id="paint3_linear_1_5130" x1="1.87027" y1="34.9025" x2="34.8475" y2="1.9252" gradientUnits="userSpaceOnUse">
<stop stop-color="#CEB28A"/>
<stop offset="1" stop-color="#0B1F49"/>
</linearGradient>
</defs>
</svg>
