<?xml version="1.0" encoding="UTF-8"?>
<svg xmlns="http://www.w3.org/2000/svg" version="1.1" viewBox="0 0 100 29">
  <!-- Generator: Adobe Illustrator 28.6.0, SVG Export Plug-In . SVG Version: 1.2.0 Build 709)  -->
  <g>
    <g id="Layer_1">
      <g>
        <g>
          <path d="M24.9,17.5h5c1.1,0,2,.3,2.6.8.6.5.9,1.2.9,2s-.3,1.5-.8,1.9c-.8.6-1.7.9-2.8.9h-1.8v3.5c0,.2,0,.3.1.4.1.1.3.2.5.2h1.2v.5h-4.9v-.5h1c.2,0,.4,0,.4-.1,0,0,.1-.2.1-.3v-8.2c0-.2,0-.4-.2-.4-.1,0-.3-.1-.7-.1h-.8v-.5ZM28,22.7h1.4c.9,0,1.5-.2,1.9-.6.4-.4.6-1,.6-1.8s0-1-.3-1.4c-.2-.3-.4-.6-.8-.7-.3-.2-.9-.2-1.7-.2s-.8,0-1,.1c-.1,0-.2.3-.2.5v4Z"/>
          <path d="M34.2,17.5h5.3c1,0,1.8.2,2.4.7.6.5.8,1.1.8,1.8s-.1.9-.3,1.2c-.2.4-.5.6-1,.8-.4.2-1.1.4-2,.5.7.2,1.1.4,1.4.5.2.2.4.4.6.7.1.3.3.8.5,1.7.1.6.3,1,.4,1.2.1.2.2.3.4.3s.3-.1.4-.3c.1-.2.2-.6.2-1.1h.5c0,1.6-.7,2.4-1.7,2.4s-.6,0-.9-.3c-.2-.2-.4-.4-.6-.8,0-.2-.2-.9-.3-2,0-.6-.2-1-.3-1.3-.2-.3-.4-.5-.7-.6-.3-.2-.7-.2-1.1-.2h-.8v4c0,.2,0,.3.1.4.1,0,.3.1.5.1h1v.5h-4.8v-.5h1c.2,0,.4,0,.5-.1.1,0,.2-.2.2-.4v-8.2c0-.2,0-.3-.2-.4-.1,0-.3-.1-.5-.1h-1v-.5ZM37.3,22.2h1.2c.8,0,1.4-.2,1.9-.5.5-.3.7-.9.7-1.6s0-1-.3-1.3c-.2-.3-.4-.5-.7-.6-.3-.1-.8-.2-1.7-.2s-.9,0-1,.1c-.1,0-.2.2-.2.4v3.7Z"/>
          <path d="M45,17.5h8.1l.2,3.5h-.5c-.2-1.1-.5-1.9-.9-2.3-.4-.4-.9-.7-1.6-.7h-2c-.2,0-.3,0-.4.1,0,0-.1.2-.1.4v3.6h.9c.5,0,.9-.2,1.1-.5.3-.3.4-.9.5-1.6h.5v4.7h-.5c0-.8-.2-1.3-.5-1.7-.3-.3-.7-.5-1.2-.5h-.8v4.1c0,.1,0,.3.1.3,0,0,.3.1.5.1h1.6c1.7,0,2.7-1.1,3-3.3h.5l-.2,3.8h-8.4v-.5h.7c.3,0,.5,0,.6-.1.1,0,.2-.2.2-.4v-8.1c0-.2,0-.3-.1-.4,0,0-.2-.1-.5-.1h-.8v-.5Z"/>
          <path d="M60.8,18.3l.6-.9h.5v3.7s-.4,0-.4,0c-.3-1.1-.7-2-1.3-2.5-.6-.5-1.2-.8-1.9-.8s-1.1.2-1.5.5c-.4.4-.6.8-.6,1.3s0,.6.2.9c.1.2.4.4.7.6.3.2.8.3,1.7.5,1.1.2,1.9.5,2.4.8.5.3.8.6,1,1,.2.4.3.8.3,1.4,0,.9-.3,1.7-.9,2.3-.6.6-1.4.9-2.4.9s-2-.3-2.8-1l-.8,1h-.5v-4h.5c.2,1.1.6,2,1.3,2.6.7.6,1.4.9,2.3.9s1.2-.2,1.7-.6c.4-.4.6-.9.6-1.5s0-.6-.2-.9c-.2-.2-.4-.5-.8-.6-.4-.2-1-.4-2.1-.6-1.1-.3-1.9-.6-2.3-.9-.6-.5-.9-1.1-.9-2s.3-1.6.9-2.2c.6-.6,1.3-.9,2.2-.9s.8,0,1.2.2c.4.2.8.4,1.2.8Z"/>
          <path d="M63.8,17.5h8.3l.2,3.9h-.5c-.3-2.3-1.1-3.4-2.5-3.4s-.5,0-.6.1c-.1,0-.1.2-.1.5v8.2c0,.2,0,.3.1.4,0,0,.3.1.5.1h1v.5h-4.8v-.5h1.2c.2,0,.3,0,.4-.1,0,0,.1-.2.1-.3v-8.3c0-.2,0-.3-.2-.4-.1,0-.3-.1-.5-.1-.7,0-1.2.3-1.7.9-.4.5-.6,1.3-.8,2.5h-.5l.2-3.9Z"/>
          <path d="M73.2,17.5h4.7v.5h-.8c-.4,0-.6,0-.7.1,0,0-.1.3-.1.6v7.8c0,.3,0,.5.1.6.1.1.3.2.6.2h.9v.5h-4.7v-.5h.9c.3,0,.5,0,.6-.1,0,0,.1-.3.1-.6v-7.8c0-.3,0-.5-.1-.5-.1-.1-.4-.2-.7-.2h-.8v-.5Z"/>
          <path d="M86.4,18.3l.6-1h.5l.3,4.1h-.5c-.3-1.2-.8-2-1.2-2.5-.6-.7-1.3-1-2.1-1s-1.1.2-1.6.5c-.5.3-.8.8-1.1,1.5-.3.7-.4,1.6-.4,2.8s.1,2.1.4,2.8c.3.7.6,1.2,1,1.5.4.3,1,.5,1.6.5s1.4-.2,1.9-.7c.4-.5.7-1,.7-1.8v-1c0-.2,0-.3-.2-.4-.1,0-.3-.1-.6-.1h-.9v-.5h4.3v.5h-.6c-.3,0-.4,0-.6.1-.1,0-.2.2-.2.4v3.9h-.5c-.2-.6-.3-1.2-.5-1.8-.3.6-.8,1-1.2,1.3-.5.3-1,.4-1.6.4-.9,0-1.7-.2-2.4-.7-.7-.4-1.3-1.1-1.7-1.9-.4-.8-.6-1.7-.6-2.7s.2-1.9.6-2.7c.4-.8,1-1.4,1.8-1.9.7-.5,1.5-.7,2.3-.7s.8,0,1.2.2c.4.1.8.4,1.3.8Z"/>
          <path d="M90.4,17.5h8.1l.2,3.5h-.5c-.2-1.1-.5-1.9-.9-2.3-.4-.4-.9-.7-1.6-.7h-2c-.2,0-.3,0-.4.1,0,0-.1.2-.1.4v3.6h.9c.5,0,.9-.2,1.1-.5.3-.3.4-.9.5-1.6h.5v4.7h-.5c0-.8-.2-1.3-.5-1.7-.3-.3-.7-.5-1.2-.5h-.8v4.1c0,.1,0,.3.1.3,0,0,.3.1.5.1h1.6c1.7,0,2.7-1.1,3-3.3h.5l-.2,3.8h-8.4v-.5h.7c.3,0,.5,0,.6-.1.1,0,.2-.2.2-.4v-8.1c0-.2,0-.3-.1-.4,0,0-.2-.1-.5-.1h-.8v-.5Z"/>
        </g>
        <g>
          <path d="M59.1.7c0,.4-.3.7-.7.7s-.7-.3-.7-.7.3-.7.7-.7.7.3.7.7Z"/>
          <path d="M61.4.7c0,.4-.3.7-.7.7s-.7-.3-.7-.7.3-.7.7-.7.7.3.7.7Z"/>
        </g>
        <path d="M93.3,13.4c0,.4-.3.7-.7.7s-.7-.3-.7-.7.3-.7.7-.7.7.3.7.7Z"/>
        <g>
          <path d="M47,13.4c0,.4-.3.7-.7.7s-.7-.3-.7-.7.3-.7.7-.7.7.3.7.7Z"/>
          <path d="M49.3,13.4c0,.4-.3.7-.7.7s-.7-.3-.7-.7.3-.7.7-.7.7.3.7.7Z"/>
        </g>
        <path d="M34.8,9.9c0,.4-.3.7-.7.7s-.7-.3-.7-.7.3-.7.7-.7.7.3.7.7Z"/>
        <g>
          <path d="M77.8,3.3l-1.1.4v4.8c0,1.2-1.1,1.1-1.1,1.1h-2.9v-5.6l-1.1.4v5.2h-3.5v-5l-1.1.4v4.7h-5.6c-.5,0-.9-.1-1.1-.3-.2-.2-.2-.5-.2-.5V3.3l-1.1.4v5.2c0,.7-.6.8-.9.8s-.2,0-.2,0h-7.7c-1.2,0-1.2-.8-1.2-.9V3.3l-1.1.4v4.8c0,1.2-1.3,1.2-1.4,1.2h-6.8c-2.6-.1-2.9-3.1-2.9-3.1-.6-2.9-2.6-3.1-3-3.1s0,0,0,0c-2.3-.1-3.1,1.4-3.1,1.4h0q0,0,.6.6h0s0,0,0,0c0,0,.6-1,2.3-.9,1.5,0,2,1.5,2.1,1.8-2.2-.3-3.9,0-4.8,1.1-1,1.1-.9,2.6-.9,2.6.2,3,2.1,3.7,3.8,3.7s1.9-.2,2-.3h0v-1h-.3c-1.7.7-3,.5-3.8-.3-.8-.8-.8-2.1-.8-2.1,0-2.4,1.8-2.9,3.3-2.9s1.5.2,1.7.2c.7,3.2,3.4,3.3,3.4,3.3h7.3c1.2,0,1.6-.5,1.8-.7.3.6,1.3.7,1.6.7s.2,0,.2,0h7.5c1.2,0,1.7-.5,1.8-.7.3.6,1.4.7,1.7.7s.1,0,.1,0h13.7c1,0,1.7-.2,2.1-.7.5-.6.4-1.3.4-1.3V3.3Z"/>
          <path d="M94.4,8.6V3.3l-1.2.4v4.6c0,1.4-1.2,1.3-1.3,1.3h-8.7V3.3l-1.1.4v7.1c0,2.2-1.9,2.1-1.9,2.1-1,0-1.6-.5-1.6-.5,0,0-.1-.1-.2-.2h-.1c0-.1.2,1.1.2,1.1h0c.6.5,1.6.5,1.7.5h0c.9,0,1.6-.3,2.1-.8.8-.9.9-2.2.9-2.5h8.8c.8,0,1.5-.2,1.9-.7.5-.6.4-1.3.4-1.3Z"/>
        </g>
        <path d="M11.7.5c0,0-.3,0-.6,0-.1,0-.2,0-.3,0h0s0,0-.1,0H3.1s0,0,0,0c-1,0-1.8.8-1.8,1.8s.8,1.8,1.8,1.8h6.9c.5,0,1.8,0,2.8.5,2.1.9,3.5,3,3.5,5.4s-1.3,4.3-3.3,5.2c0,0,0,0-.1,0,0,0,0,0-.1,0-.9.4-2.1.5-2.7.5H3.1c-.6,0-1,.2-1.3.4-.2.1-.4.3-.5.6-.2.3-.3.8-.3,1.4v8.2c0,1,.8,1.7,1.8,1.7s1.8-.8,1.8-1.8h0v-6.9h6.1c5-.3,9.1-4.4,9.1-9.5S16.3,1.2,11.7.5Z"/>
        <path d="M6.2,9.9h0s0,0,0,0c0,0,0,0,0,0,0,0,0-.2,0-.2,0,0,0,0,0,0,0,0,0,0,0,0h0s0,0,0,0h0s0,0,0,0c0,0,0,0,0,0,0,0,0,0,0,0,0,0,0,0,0-.1,0,0,0,0,0,0h0s0,0,0,0c0,0,0,0,0,0,0,0,0,0,0,0-.3-.3-.7-.6-1.1-.9-.3-.2-.6-.4-.9-.5,0,0,0,0,0,0h0c-.9-.5-1.6-.6-1.6-.6h0c-.2,0-.3,0-.4,0-.3,0-.5.2-.6.4,0,0-.1.2-.2.4,0,0-.1.4-.1.7v1.3h0v1.4c0,.3,0,.7.1.7,0,.2.1.3.2.4.1.2.3.3.6.4,0,0,.2,0,.4,0h0s.6,0,1.6-.6h0s0,0,0,0c.3-.1.6-.3.9-.5.4-.3.8-.6,1.1-.9,0,0,0,0,0,0,0,0,0,0,0,0,0,0,0,0,0,0,0,0,0,0,0,0,0,0,0,0,0,0,0,0,0,0,0-.1,0,0,0,0,0,0,0,0,0,0,0,0,0,0,0,0,0,0h0s0,0,0,0h0s0,0,0,0c0,0,0,0,0,0,0,0,0-.1,0-.2,0,0,0,0,0,0s0,0,0,0h0Z"/>
      </g>
    </g>
  </g>
</svg>