<svg width="74" height="35" viewBox="0 0 74 35" fill="none" xmlns="http://www.w3.org/2000/svg">
<g clip-path="url(#clip0_1_5432)">
<path d="M7.13376 3.09546L6.67293 0.914062C0.760839 4.47071 4.37698 9.46247 4.37698 9.46247C3.46001 4.52704 7.13376 3.09546 7.13376 3.09546Z" fill="#6ABF4B"/>
<path d="M13.2078 12.6941C13.7545 16.205 11.1858 20.5103 3.67139 23.668C3.67139 23.668 12.8893 22.0334 15.1006 15.5455C16.4537 11.5735 13.9073 8.43337 10.5769 8.14588C8.06813 7.9288 5.56645 8.63637 5.56645 8.63637C5.56645 8.63637 12.5883 8.7103 13.2078 12.6941Z" fill="#6ABF4B"/>
<path d="M3.34444 25.0045C3.34444 24.6313 3.50667 24.433 3.79352 24.433C4.07919 24.433 4.24142 24.6325 4.24142 25.0045V28.7289C4.24142 29.8613 4.85273 30.4586 5.86139 30.4586C6.87006 30.4586 7.4802 29.8613 7.4802 28.7289V25.0045C7.4802 24.6313 7.64125 24.433 7.92692 24.433C8.21377 24.433 8.376 24.6325 8.376 25.0045V28.9519C8.376 30.3823 7.28034 31.206 5.86022 31.206C4.43892 31.206 3.34326 30.3835 3.34326 28.9519V25.0045H3.34444Z" fill="#EA0029"/>
<path d="M10.9192 30.6322C10.9192 31.0066 10.7581 31.206 10.4701 31.206C10.1844 31.206 10.021 31.0066 10.021 30.6322V22.0932C10.021 21.7189 10.1844 21.5194 10.4701 21.5194C10.7569 21.5194 10.9192 21.7189 10.9192 22.0932V30.6322Z" fill="#EA0029"/>
<path d="M16.7113 25.4539C16.7113 25.6534 16.6349 25.8892 16.2634 25.8892C15.9143 25.8892 15.4535 25.1805 14.5553 25.1805C13.9322 25.1805 13.261 25.4785 13.261 26.1145C13.261 26.4126 13.422 26.7236 13.8711 26.8972L15.2289 27.4452C16.1247 27.8078 16.8853 28.242 16.8853 29.2875C16.8853 30.4597 15.839 31.2049 14.4436 31.2049C12.9988 31.2049 12.0513 30.3694 12.0513 29.947C12.0513 29.8108 12.2499 29.5116 12.4745 29.5116C12.8989 29.5116 13.3092 30.4597 14.4801 30.4597C15.3394 30.4597 15.9131 29.947 15.9131 29.325C15.9131 28.7395 15.4758 28.5036 14.9903 28.3042L13.4467 27.6693C12.7719 27.3948 12.2876 26.997 12.2876 26.1744C12.2876 25.0913 13.3585 24.4319 14.3672 24.4319C15.6651 24.433 16.736 24.981 16.7113 25.4539Z" fill="#EA0029"/>
<path d="M22.4788 25.0045C22.4788 24.6313 22.6422 24.433 22.9279 24.433C23.2147 24.433 23.3782 24.6325 23.3782 25.0045V30.6322C23.3782 31.0066 23.2147 31.206 22.9279 31.206C22.6422 31.206 22.4788 31.0066 22.4788 30.6322V30.2227H22.4424C22.0438 30.8704 21.3843 31.206 20.6108 31.206C18.7051 31.206 17.7588 29.6865 17.7588 27.8207C17.7588 26.1509 18.6687 24.433 20.5873 24.433C21.3596 24.433 21.9333 24.7569 22.4436 25.4164H22.48V25.0045H22.4788ZM20.6108 30.4586C22.0062 30.4586 22.4788 29.0282 22.4788 27.8195C22.4788 26.6109 22.0062 25.1793 20.6108 25.1793C19.253 25.1793 18.7298 26.6109 18.7298 27.8195C18.7298 29.0282 19.2154 30.4586 20.6108 30.4586Z" fill="#EA0029"/>
<path d="M25.9175 30.6322C25.9175 31.0066 25.7564 31.206 25.4684 31.206C25.1827 31.206 25.0205 31.0066 25.0205 30.6322V25.0045C25.0205 24.6313 25.1827 24.433 25.4684 24.433C25.7564 24.433 25.9175 24.6325 25.9175 25.0045V25.6276H25.9422C26.2655 24.8942 26.8392 24.433 27.4011 24.433C27.8243 24.433 27.9983 24.6712 27.9983 24.9188C27.9983 25.1664 27.8231 25.3037 27.387 25.4035C26.8897 25.5161 25.9175 25.9409 25.9175 27.41V30.6322Z" fill="#EA0029"/>
<path d="M30.4376 30.7554C30.4376 31.1309 30.2765 31.3293 29.9885 31.3293C29.7028 31.3293 29.5406 31.1321 29.5406 30.7554V25.3776H28.9551C28.6565 25.3776 28.5684 25.1535 28.5684 25.0045C28.5684 24.8543 28.6554 24.6302 28.9551 24.6302H29.5406V22.9252C29.5406 22.0299 30.0637 21.6426 30.7244 21.6426H31.1852C31.6085 21.6426 31.7954 21.8304 31.7954 22.0545C31.7954 22.2786 31.6849 22.464 31.3228 22.464H30.9113C30.6245 22.464 30.4376 22.6494 30.4376 22.8735V24.629H31.2358C31.5332 24.629 31.6202 24.8531 31.6202 25.0033C31.6202 25.1523 31.5332 25.3765 31.2358 25.3765H30.4376V30.7554Z" fill="#6ABF4B"/>
<path d="M34.8354 31.3293C32.9286 31.3293 31.9834 29.8108 31.9834 27.9439C31.9834 26.2741 32.8921 24.5562 34.8354 24.5562C36.7916 24.5562 37.6874 26.2741 37.6874 27.9439C37.6874 29.8108 36.741 31.3293 34.8354 31.3293ZM34.8354 30.5818C36.2297 30.5818 36.7152 29.1514 36.7152 27.9427C36.7152 26.7341 36.2297 25.3025 34.8354 25.3025C33.4388 25.3025 32.9544 26.7341 32.9544 27.9427C32.9544 29.1514 33.4388 30.5818 34.8354 30.5818Z" fill="#6ABF4B"/>
<path d="M41.5128 31.3293C39.606 31.3293 38.6597 29.8108 38.6597 27.9439C38.6597 26.2741 39.5696 24.5562 41.5128 24.5562C43.469 24.5562 44.3649 26.2741 44.3649 27.9439C44.366 29.8108 43.4173 31.3293 41.5128 31.3293ZM41.5128 30.5818C42.9071 30.5818 43.3926 29.1514 43.3926 27.9427C43.3926 26.7341 42.9071 25.3025 41.5128 25.3025C40.1162 25.3025 39.6319 26.7341 39.6319 27.9427C39.6319 29.1514 40.1174 30.5818 41.5128 30.5818Z" fill="#6ABF4B"/>
<path d="M50.0584 22.2153C50.0584 21.8433 50.2195 21.6438 50.5075 21.6438C50.7943 21.6438 50.9554 21.8445 50.9554 22.2153V30.7566C50.9554 31.1309 50.7943 31.3304 50.5075 31.3304C50.2206 31.3304 50.0584 31.1309 50.0584 30.7566V30.3471H50.0208C49.6234 30.9948 48.9628 31.3304 48.1904 31.3304C46.2836 31.3304 45.3384 29.812 45.3384 27.9451C45.3384 26.2753 46.2471 24.5574 48.1657 24.5574C48.9369 24.5574 49.5106 24.8813 50.0208 25.5407H50.0584V22.2153ZM48.1904 30.5818C49.5858 30.5818 50.0596 29.1514 50.0596 27.9427C50.0596 26.7341 49.5858 25.3025 48.1904 25.3025C46.8326 25.3025 46.3094 26.7341 46.3094 27.9427C46.3094 29.1514 46.7949 30.5818 48.1904 30.5818Z" fill="#6ABF4B"/>
<path d="M56.7487 25.5783C56.7487 25.7778 56.6735 26.0136 56.3008 26.0136C55.9505 26.0136 55.4909 25.3037 54.5927 25.3037C53.9708 25.3037 53.2972 25.6018 53.2972 26.2366C53.2972 26.5346 53.4606 26.8468 53.9085 27.0204L55.2663 27.5696C56.1633 27.9287 56.9239 28.364 56.9239 29.4107C56.9239 30.583 55.8765 31.3281 54.481 31.3281C53.0362 31.3281 52.0898 30.4949 52.0898 30.0713C52.0898 29.9352 52.2885 29.6348 52.5131 29.6348C52.9363 29.6348 53.3477 30.583 54.5175 30.583C55.3768 30.583 55.9505 30.0713 55.9505 29.4494C55.9505 28.8639 55.5155 28.628 55.03 28.4285L53.4841 27.7926C52.8117 27.518 52.3261 27.119 52.3261 26.3C52.3261 25.2169 53.3971 24.5562 54.4058 24.5562C55.7013 24.5562 56.7734 25.1042 56.7487 25.5783Z" fill="#6ABF4B"/>
<path d="M59.2528 30.7554C59.2528 31.1309 59.0906 31.3293 58.8037 31.3293C58.5169 31.3293 58.3546 31.1321 58.3546 30.7554V25.3776H57.7692C57.4718 25.3776 57.3848 25.1535 57.3848 25.0045C57.3848 24.8543 57.4729 24.6302 57.7692 24.6302H58.3546V23.1739C58.3546 22.7891 58.518 22.5884 58.8037 22.5884C59.0894 22.5884 59.2528 22.7891 59.2528 23.1739V24.6302H59.8371C60.1368 24.6302 60.2238 24.8543 60.2238 25.0045C60.2238 25.1535 60.1368 25.3776 59.8371 25.3776H59.2528V30.7554Z" fill="#6ABF4B"/>
<path d="M61.1208 25.13C61.1208 24.7557 61.283 24.5562 61.5699 24.5562C61.8567 24.5562 62.019 24.7557 62.019 25.13V28.851C62.019 29.9845 62.6303 30.5818 63.6378 30.5818C64.6464 30.5818 65.2554 29.9845 65.2554 28.851V25.13C65.2554 24.7557 65.4188 24.5562 65.7045 24.5562C65.9901 24.5562 66.1535 24.7557 66.1535 25.13V29.0763C66.1535 30.5079 65.0579 31.3304 63.6378 31.3304C62.2176 31.3304 61.1196 30.509 61.1196 29.0763V25.13H61.1208Z" fill="#6ABF4B"/>
<path d="M68.9208 30.7554C68.9208 31.1309 68.7574 31.3293 68.4717 31.3293C68.1848 31.3293 68.0226 31.1321 68.0226 30.7554V25.3776H67.4383C67.1397 25.3776 67.0527 25.1535 67.0527 25.0045C67.0527 24.8543 67.1385 24.6302 67.4383 24.6302H68.0226V22.9252C68.0226 22.0299 68.5469 21.6426 69.2076 21.6426H69.6673C70.0917 21.6426 70.2798 21.8304 70.2798 22.0545C70.2798 22.2786 70.1669 22.464 69.8048 22.464H69.3933C69.1065 22.464 68.9219 22.6494 68.9219 22.8735V24.629H69.719C70.0164 24.629 70.1046 24.8531 70.1046 25.0033C70.1046 25.1523 70.0164 25.3765 69.719 25.3765H68.9219V30.7554H68.9208Z" fill="#6ABF4B"/>
<path d="M72.1463 30.7554C72.1463 31.1309 71.9841 31.3293 71.6973 31.3293C71.4116 31.3293 71.2494 31.1321 71.2494 30.7554V25.3776H70.6639C70.3653 25.3776 70.2783 25.1535 70.2783 25.0045C70.2783 24.8543 70.3641 24.6302 70.6639 24.6302H71.2494V22.9252C71.2494 22.0299 71.7725 21.6426 72.432 21.6426H72.8929C73.3161 21.6426 73.5042 21.8304 73.5042 22.0545C73.5042 22.2786 73.3925 22.464 73.0304 22.464H72.6178C72.3321 22.464 72.1452 22.6494 72.1452 22.8735V24.629H72.9422C73.2408 24.629 73.329 24.8531 73.329 25.0033C73.329 25.1523 73.2408 25.3765 72.9422 25.3765H72.1452V30.7554H72.1463Z" fill="#6ABF4B"/>
<path d="M30.1661 34.7228C30.1661 34.8495 30.112 34.9141 30.0156 34.9141C29.9215 34.9141 29.8663 34.8484 29.8663 34.7228V32.2081H29.2938C29.1974 32.2081 29.1362 32.1471 29.1362 32.072C29.1362 31.9981 29.1985 31.9359 29.2938 31.9359H30.7386C30.835 31.9359 30.8973 31.9981 30.8973 32.072C30.8973 32.1483 30.835 32.2081 30.7386 32.2081H30.1661V34.7228Z" fill="#EA0029"/>
<path d="M36.1133 34.7228C36.1133 34.8472 36.0592 34.9129 35.964 34.9129C35.8687 34.9129 35.8135 34.8472 35.8135 34.7228V32.092C35.8135 31.9922 35.8582 31.9347 36.0016 31.9347H36.6529C37.2336 31.9347 37.5463 32.3243 37.5463 32.735C37.5463 33.2079 37.2301 33.5705 36.7587 33.5705H36.4836L37.5052 34.6606C37.551 34.7064 37.5639 34.7322 37.5639 34.7885C37.5639 34.8648 37.4981 34.9129 37.4311 34.9129C37.3805 34.9129 37.3429 34.8965 37.2983 34.8472L36.1144 33.5775V34.7228H36.1133ZM36.1133 33.3206H36.6317C37.0232 33.3206 37.2454 33.1398 37.2454 32.789C37.2454 32.4041 37.0337 32.2093 36.6317 32.2093H36.1133V33.3206Z" fill="#EA0029"/>
<path d="M42.6919 34.7779C42.6531 34.8519 42.6296 34.9141 42.5249 34.9141C42.4379 34.9141 42.3921 34.8589 42.3921 34.7967C42.3921 34.7639 42.405 34.7146 42.4215 34.6735L43.3737 32.126C43.409 32.0298 43.456 31.9101 43.6053 31.9101C43.7558 31.9101 43.8005 32.0286 43.8381 32.126L44.788 34.6735C44.8056 34.7146 44.8174 34.7639 44.8174 34.7967C44.8174 34.8589 44.7727 34.9141 44.6857 34.9141C44.5811 34.9141 44.5481 34.8519 44.5199 34.7779L44.3248 34.2464H42.8847L42.6919 34.7779ZM43.6088 32.2997H43.6006L42.9846 33.973H44.2225L43.6088 32.2997Z" fill="#EA0029"/>
<path d="M49.7881 32.092C49.7881 31.9875 49.8375 31.9347 49.9703 31.9347H50.7086C51.6056 31.9347 51.9641 32.7444 51.9641 33.4332C51.9641 34.3426 51.4022 34.8894 50.6851 34.8894H49.9703C49.8375 34.8894 49.7881 34.8354 49.7881 34.7322V32.092ZM50.0867 34.616H50.6674C51.3857 34.616 51.6397 34.0727 51.6397 33.3781C51.6397 32.8148 51.3893 32.207 50.6851 32.207H50.0855V34.616H50.0867Z" fill="#EA0029"/>
<path d="M57.3413 34.7228C57.3413 34.8495 57.2872 34.9141 57.192 34.9141C57.0979 34.9141 57.0415 34.8484 57.0415 34.7228V32.1002C57.0415 31.9758 57.0979 31.9101 57.192 31.9101C57.2884 31.9101 57.3413 31.9758 57.3413 32.1002V34.7228Z" fill="#EA0029"/>
<path d="M62.8264 34.7228C62.8264 34.8495 62.7724 34.9141 62.6771 34.9141C62.5807 34.9141 62.5278 34.8484 62.5278 34.7228V32.0826C62.5278 31.9664 62.5948 31.9101 62.6771 31.9101C62.7594 31.9101 62.81 31.9582 62.8523 32.0169L64.4382 34.3356H64.4464V32.1002C64.4464 31.9758 64.5005 31.9101 64.5957 31.9101C64.6898 31.9101 64.7462 31.9758 64.7462 32.1002V34.731C64.7462 34.8718 64.6862 34.9141 64.6063 34.9141C64.524 34.9141 64.4911 34.8765 64.4429 34.8061L62.8358 32.4593H62.8276V34.7228H62.8264Z" fill="#EA0029"/>
<path d="M72.0713 33.2255C72.2794 33.2255 72.324 33.3323 72.324 33.4531C72.324 34.5984 71.768 34.9152 71.1214 34.9152C70.1997 34.9152 69.8247 34.1725 69.8247 33.4121C69.8247 32.6787 70.2397 31.9113 71.112 31.9113C71.6927 31.9113 72.123 32.2387 72.123 32.363C72.123 32.4698 72.0513 32.5203 71.9772 32.5203C71.8397 32.5203 71.6351 32.1847 71.1296 32.1847C70.4407 32.1847 70.1504 32.8441 70.1504 33.4121C70.1504 34.0809 70.4701 34.6407 71.1449 34.6407C71.7891 34.6407 72.0266 34.0927 72.0266 33.5001H71.5035C71.4071 33.5001 71.3448 33.4379 71.3448 33.364C71.3448 33.29 71.4071 33.2279 71.5035 33.2279H72.0713V33.2255Z" fill="#EA0029"/>
<path d="M0.504395 30.8693V8.96141C0.504395 8.62581 0.775958 8.35358 1.10983 8.35358C1.44487 8.35358 1.71526 8.62581 1.71526 8.96141V30.8681C1.71526 31.2025 1.44487 31.4748 1.10983 31.4748C0.775958 31.4748 0.504395 31.2025 0.504395 30.8693Z" fill="#EA0029"/>
</g>
<defs>
<clipPath id="clip0_1_5432">
<rect width="73" height="34" fill="white" transform="translate(0.504395 0.914062)"/>
</clipPath>
</defs>
</svg>
