<svg width="100" height="32" viewBox="0 0 100 32" fill="none" xmlns="http://www.w3.org/2000/svg">
<path d="M1.18536 13.2658C1.18536 13.3103 1.18536 13.3103 1.18536 13.3549C1.14077 13.5333 1.14077 13.7117 1.09618 13.89C1.05159 14.0684 1.05159 14.2468 1.007 14.4697V14.5143C1.007 14.6927 0.962402 14.9156 0.962402 15.094C0.962402 15.5399 1.00699 16.075 1.09618 16.5655C1.94341 21.6043 8.58746 22.5853 12.5561 18.3045C12.6006 18.2599 12.6006 18.2599 12.6452 18.2154C15.5437 15.0048 20.9392 7.95942 29.0547 8.00401C28.9209 7.78106 28.7872 7.55811 28.6088 7.37974C27.4494 6.1312 24.3727 3.72328 19.4677 6.04201C13.0911 9.02961 8.36451 16.833 4.17296 15.9412C4.17296 15.9412 1.94341 15.8074 1.27454 12.8644C1.22995 12.909 1.18536 13.0874 1.18536 13.2658Z" fill="#24AA58"/>
<path d="M31.4183 16.209C31.4183 12.0174 26.9592 9.34199 23.2136 11.1702C19.7801 12.8647 17.3722 15.7631 14.4292 19.0182C9.92546 24.0124 3.23682 21.2478 3.23682 21.2478C7.69591 24.28 15.098 25.4393 23.2136 19.1074C27.851 15.4509 30.7495 17.8589 31.2845 18.3494C31.3737 17.6805 31.4183 16.967 31.4183 16.2982C31.4183 16.2982 31.4183 16.2536 31.4183 16.209Z" fill="#CF304C"/>
<path d="M30.66 19.4194C30.2141 19.1073 29.902 19.5532 29.6344 19.7762C29.5452 19.8207 29.5007 19.9099 29.4115 19.9991C29.3223 20.1329 29.1885 20.2667 29.0993 20.3558C28.5197 21.0693 27.9846 21.7828 27.3603 22.4516C26.6914 23.2097 26.0226 23.9231 25.2645 24.5474C24.6402 25.0825 23.9714 25.573 23.2133 26.0189C22.2323 26.5986 21.2067 26.9999 20.092 27.1783C19.869 27.2228 19.646 27.2229 19.3785 27.2674C19.111 27.2674 18.7542 27.3566 18.6205 27.0891C18.4867 26.7769 18.8434 26.5986 19.0664 26.4648C19.4677 26.1527 21.073 25.5284 21.4743 25.2163C22.054 24.7703 22.6782 24.369 23.035 23.7002C23.2133 23.388 23.4363 23.0313 23.2133 22.63C22.9904 22.2733 22.5891 22.407 22.2769 22.407C20.85 22.5854 18.4421 23.4326 17.149 24.0123C13.2695 25.7959 9.39013 25.6622 5.51071 24.0123C5.10939 23.8339 4.75266 23.6556 4.39594 23.4772C3.54871 23.0313 2.70148 22.5408 1.85425 22.0503C4.44052 27.9809 10.6387 31.9049 17.4611 31.3252C23.8822 30.7455 29.0547 26.331 30.883 20.5342C30.9276 20.4004 30.9722 20.2667 30.9276 20.1329C31.0167 19.8207 30.883 19.5978 30.66 19.4194Z" fill="black"/>
<path d="M30.66 19.4194C30.2141 19.1073 29.902 19.5532 29.6344 19.7762C29.5452 19.8207 29.5007 19.9099 29.4115 19.9991C29.3223 20.1329 29.1885 20.2667 29.0993 20.3558C28.5197 21.0693 27.9846 21.7828 27.3603 22.4516C26.6914 23.2097 26.0226 23.9231 25.2645 24.5474C24.6402 25.0825 23.9714 25.573 23.2133 26.0189C22.2323 26.5986 21.2067 26.9999 20.092 27.1783C19.869 27.2228 19.646 27.2229 19.3785 27.2674C19.111 27.2674 18.7542 27.3566 18.6205 27.0891C18.4867 26.7769 18.8434 26.5986 19.0664 26.4648C19.4677 26.1527 21.073 25.5284 21.4743 25.2163C22.054 24.7703 22.6782 24.369 23.035 23.7002C23.2133 23.388 23.4363 23.0313 23.2133 22.63C22.9904 22.2733 22.5891 22.407 22.2769 22.407C20.85 22.5854 18.4421 23.4326 17.149 24.0123C13.2695 25.7959 9.39013 25.6622 5.51071 24.0123C5.10939 23.8339 4.75266 23.6556 4.39594 23.4772C3.54871 23.0313 2.70148 22.5408 1.85425 22.0503C4.44052 27.9809 10.6387 31.9049 17.4611 31.3252C23.8822 30.7455 29.0547 26.331 30.883 20.5342C30.9276 20.4004 30.9722 20.2667 30.9276 20.1329C31.0167 19.8207 30.883 19.5978 30.66 19.4194Z" fill="#29AECD"/>
<path d="M16.1681 0.914124C9.56865 0.914124 3.95018 5.10568 1.80981 10.9917C2.70163 11.0363 7.87419 11.17 12.3333 8.31623C16.7924 5.4624 18.8882 2.11808 24.2837 3.32203H24.3283C21.9649 1.76135 19.1557 0.914124 16.1681 0.914124Z" fill="#8ED8EE"/>
<path d="M43.2349 10.0106H44.751V17.0114H43.2349V10.0106Z" fill="black"/>
<path d="M51.5284 10.0108V11.2147H49.1204C48.5854 11.2147 48.184 11.3485 47.9165 11.616C47.6489 11.8836 47.4706 12.2849 47.4706 12.82H51.5284V14.024H47.4706C47.4706 14.6482 47.6044 15.0941 47.8719 15.3617C48.1394 15.6292 48.5408 15.763 49.1204 15.763H51.5284V16.967H49.0313C47.9165 16.967 47.1139 16.6548 46.5788 16.0751C46.0437 15.4955 45.7761 14.6928 45.7761 13.6226C45.7761 12.4633 45.9991 11.616 46.4896 10.9918C47.0247 10.3229 47.8719 9.96617 49.0759 9.96617H51.5284V10.0108Z" fill="black"/>
<path d="M58.0822 10.0108V11.2147H55.6742C55.0946 11.2147 54.6932 11.3931 54.4257 11.7052C54.1136 12.1066 53.9352 12.7754 53.9352 13.7118C53.9352 14.2915 54.0244 14.782 54.1582 15.0941C54.2919 15.3617 54.5149 15.5401 54.7824 15.6738C54.9608 15.763 55.2729 15.763 55.6742 15.763H58.0822V16.967H55.6297C54.5149 16.967 53.7122 16.6548 53.1772 16.0752C52.6421 15.4955 52.3745 14.6928 52.3745 13.6226C52.3745 12.4633 52.5975 11.6161 53.088 10.9918C53.6231 10.3229 54.4703 9.96619 55.6742 9.96619H58.0822V10.0108Z" fill="black"/>
<path d="M62.185 9.87683C62.8984 9.87683 63.4781 9.96601 63.924 10.1444C64.5037 10.3673 64.905 10.7241 65.2172 11.2592C65.5293 11.8388 65.7077 12.5969 65.7077 13.5333C65.7077 14.6927 65.4401 15.5845 64.9496 16.1642C64.3699 16.833 63.4781 17.1898 62.2296 17.1898C61.0256 17.1898 60.1784 16.8776 59.5987 16.2979C59.019 15.6737 58.7515 14.7818 58.7515 13.5333C58.7515 12.6415 58.8852 11.8834 59.1974 11.3483C59.4649 10.8578 59.9108 10.4565 60.4459 10.2336C60.8918 9.96601 61.4715 9.87683 62.185 9.87683ZM60.3121 13.4887C60.3121 14.2467 60.4459 14.8264 60.7135 15.2277C61.0256 15.7182 61.5161 15.9412 62.185 15.9412C62.8538 15.9412 63.3443 15.7182 63.6565 15.2723C63.9686 14.871 64.1024 14.2913 64.1024 13.5333C64.1024 13.0874 64.0578 12.7307 63.9686 12.4631C63.8794 12.0618 63.7011 11.7497 63.4335 11.5267C63.1214 11.2592 62.7201 11.1254 62.185 11.1254C61.5607 11.1254 61.0702 11.3483 60.7581 11.7497C60.4459 12.1064 60.3121 12.6861 60.3121 13.4887Z" fill="black"/>
<path d="M71.3707 10.0106H75.2055V11.2591H71.5937C70.8356 11.2591 70.4343 11.5713 70.4343 12.1955C70.4343 12.4185 70.4789 12.5969 70.6126 12.7306C70.791 12.909 71.014 12.9536 71.3261 12.9536H73.2435C74.0908 12.9536 74.6704 13.132 75.0272 13.4441C75.3393 13.7562 75.5177 14.2467 75.5177 14.9156C75.5177 15.6291 75.3393 16.1196 74.9826 16.4317C74.5812 16.7884 73.957 16.9668 73.0652 16.9668H69.1412V15.7182H72.7976C73.2435 15.7182 73.5557 15.6291 73.734 15.4953C73.8678 15.3615 73.957 15.1386 73.957 14.8264C73.957 14.6035 73.9124 14.4697 73.7786 14.3805C73.6002 14.2467 73.3327 14.1576 72.8868 14.1576H71.1477C70.3451 14.1576 69.7654 13.9792 69.3641 13.6671C69.0074 13.3549 68.7844 12.8198 68.7844 12.151C68.7844 11.4375 68.9628 10.947 69.3195 10.5903C69.8546 10.189 70.4789 10.0106 71.3707 10.0106Z" fill="black"/>
<path d="M77.8814 16.967H76.5437V11.839H81.7162C82.4297 11.839 82.9648 11.9728 83.2769 12.2404C83.6337 12.5525 83.812 13.043 83.812 13.7119V16.967H82.4743V13.8902C82.4743 13.5335 82.4297 13.3105 82.3405 13.1768C82.2068 12.9984 81.9838 12.9538 81.6271 12.9538C81.5379 12.9538 81.4041 12.9538 81.3149 12.9538H81.0474C81.0028 12.9538 80.9582 12.9538 80.9582 12.9538C80.9582 12.9538 80.9136 12.9538 80.869 12.9538V16.967H79.4867V12.9538H77.8814V16.967Z" fill="black"/>
<path d="M87.4236 12.9092H85.1494V11.839H87.9141C89.341 11.839 90.0099 12.4633 90.0099 13.7564V16.967H86.398C85.9075 16.967 85.5062 16.8332 85.2386 16.5657C84.9711 16.2981 84.7927 15.9414 84.7927 15.4509C84.7927 14.8266 85.0157 14.3807 85.417 14.1578C85.7291 13.9794 86.2196 13.8902 86.8439 13.8902H88.6275C88.6275 13.5335 88.5384 13.2659 88.36 13.1322C88.2262 12.9984 87.8695 12.9092 87.4236 12.9092ZM86.9331 15.9414H88.6275V14.8712H87.0223C86.7547 14.8712 86.5764 14.9158 86.4872 14.9604C86.3088 15.0496 86.2196 15.1834 86.2196 15.4063C86.2196 15.6293 86.2642 15.763 86.398 15.8522C86.5318 15.9414 86.7101 15.9414 86.9331 15.9414Z" fill="black"/>
<path d="M92.5521 16.967H91.2144V11.839H93.4885C94.1128 11.839 94.5141 11.9728 94.6924 12.1957C94.8262 12.4187 94.9154 12.9092 94.9154 13.6672V13.9794H93.6223V13.578C93.6223 13.2213 93.5777 12.9984 93.4885 12.9092C93.3993 12.8646 93.0872 12.82 92.5521 12.82V16.967Z" fill="black"/>
<path d="M96.2084 12.8646H95.272V11.839H96.2084V9.96619H97.5461V11.839H99.0176V12.8646H97.5461V14.9158C97.5461 15.3171 97.6353 15.6292 97.8137 15.7184C97.992 15.8522 98.3488 15.8968 98.8393 15.8968H98.973V16.9224H97.7245C97.234 16.9224 96.8327 16.7886 96.5651 16.5211C96.2976 16.2535 96.1638 15.8522 96.1638 15.3617V12.8646H96.2084Z" fill="black"/>
<path d="M39.0866 15.8965C38.9974 15.8965 38.9083 15.9411 38.7745 15.9411C38.1056 15.9411 37.6151 15.7182 37.303 15.2277C37.0354 14.8263 36.9017 14.2467 36.9017 13.4886C36.9017 12.7306 37.0354 12.1509 37.3476 11.705C37.6597 11.2591 38.1502 11.0807 38.7745 11.0807C39.3096 11.0807 39.7109 11.2145 40.023 11.482C40.2906 11.705 40.4689 12.0171 40.5581 12.4184C40.6473 12.7306 40.6919 13.0873 40.6919 13.4886C40.6919 13.7116 40.6919 13.8899 40.6473 14.0683L41.7175 15.8073C42.0742 15.2277 42.2972 14.4696 42.2972 13.4886C42.2972 12.5522 42.1188 11.7942 41.8067 11.2145C41.4945 10.724 41.0932 10.3227 40.5135 10.0997C40.0676 9.92133 39.4879 9.83215 38.7745 9.83215C38.061 9.83215 37.4813 9.92133 36.9908 10.1443C36.4558 10.3672 36.0098 10.7686 35.7423 11.2591C35.4302 11.7942 35.2964 12.5522 35.2964 13.444C35.2964 14.648 35.5639 15.5844 36.1436 16.2087C36.7233 16.8329 37.6151 17.1005 38.7745 17.1005C39.1758 17.1005 39.4879 17.0559 39.8001 17.0113L39.0866 15.8965Z" fill="black"/>
<path d="M42.2087 17.1898L40.4696 14.6035L39.9791 15.4953L38.4185 14.2914L38.8644 15.1386L40.1575 16.8777L40.7818 16.1196L42.2087 17.1898Z" fill="black"/>
<path d="M39.4895 21.3815H38.4194L38.1964 21.7382H37.7505L39.3558 19.1965H39.4449L40.0692 21.7382H39.6679L39.4895 21.3815ZM39.4004 21.0694L39.1774 20.0884L38.5977 21.0694H39.4004Z" fill="black"/>
<path d="M40.8275 20.8019L41.1397 19.2858H41.541L41.2288 20.8019C41.1397 21.1586 41.318 21.4262 41.6302 21.4262C41.8977 21.4262 42.1653 21.2032 42.2098 20.8019L42.522 19.2858H42.9233L42.6112 20.8019C42.4774 21.4708 42.0315 21.8275 41.541 21.8275C41.0059 21.8275 40.6938 21.337 40.8275 20.8019Z" fill="black"/>
<path d="M45.4199 19.6425H44.7956L44.3943 21.7383H43.993L44.3943 19.6425H43.77L43.8592 19.2412H45.5091L45.4199 19.6425Z" fill="black"/>
<path d="M45.9998 20.5341C46.0889 19.776 46.7132 19.1963 47.4267 19.2409C48.0955 19.2855 48.4968 19.8206 48.3631 20.5341C48.2293 21.2921 47.605 21.8272 46.9362 21.7826C46.2673 21.7826 45.866 21.2475 45.9998 20.5341ZM47.9618 20.5341C48.0509 20.0436 47.7834 19.6423 47.3375 19.6423C46.8916 19.6423 46.4903 20.0436 46.4011 20.5341C46.3119 21.0246 46.5794 21.4259 47.0253 21.4259C47.4267 21.4259 47.8726 21.0246 47.9618 20.5341Z" fill="black"/>
<path d="M51.9308 19.1965L51.4403 21.7382H51.039L51.3065 20.4005L50.281 21.6936L49.7904 20.4005L49.5229 21.7382H49.1216L49.6121 19.1965H49.6567L50.3701 20.9802L51.8862 19.1965H51.9308Z" fill="black"/>
<path d="M54.1591 21.3815H53.0444L52.8214 21.7382H52.3755L53.9808 19.1965H54.0699L54.6942 21.7382H54.2929L54.1591 21.3815ZM54.0699 21.0694L53.847 20.0884L53.2673 21.0694H54.0699Z" fill="black"/>
<path d="M57.1484 19.6425H56.5241L56.1228 21.7383H55.7215L56.1228 19.6425H55.4985L55.5877 19.2412H57.2376L57.1484 19.6425Z" fill="black"/>
<path d="M58.1726 19.2858H58.5739L58.0835 21.7829H57.6821L58.1726 19.2858Z" fill="black"/>
<path d="M59.3322 20.5341C59.4214 19.776 60.0456 19.1963 60.7591 19.2409C61.428 19.2855 61.8293 19.8206 61.6955 20.5341C61.5617 21.2921 60.9375 21.8272 60.2686 21.7826C59.6443 21.7826 59.243 21.2475 59.3322 20.5341ZM61.2942 20.5341C61.3834 20.0436 61.1158 19.6423 60.6699 19.6423C60.224 19.6423 59.8227 20.0436 59.7335 20.5341C59.6443 21.0246 59.9119 21.4259 60.3578 21.4259C60.8037 21.4259 61.205 21.0246 61.2942 20.5341Z" fill="black"/>
<path d="M64.8615 19.2858L64.371 21.8275H64.3264L63.1671 20.1776L62.8549 21.7829H62.4536L62.9441 19.2412H62.9887L64.1481 20.8911L64.4602 19.2858H64.8615Z" fill="black"/>
<path d="M65.8433 20.5342C65.8879 20.3113 66.1108 20.0883 66.3338 20.0883C66.5567 20.0883 66.6905 20.2667 66.6459 20.5342C66.6013 20.8018 66.3784 20.9356 66.1554 20.9356C65.9324 20.9802 65.7987 20.8018 65.8433 20.5342Z" fill="black"/>
<path d="M69.9006 20.5344C69.7668 21.6492 68.7413 21.783 68.4291 21.783H67.7603L68.2508 19.2859H68.9196C69.4101 19.2859 70.0344 19.598 69.9006 20.5344ZM68.7858 19.6426H68.5183L68.2062 21.3371H68.4737C69.0088 21.3371 69.4101 20.9803 69.4993 20.4898C69.5885 19.9548 69.2318 19.6426 68.7858 19.6426Z" fill="black"/>
<path d="M71.9966 21.3815H70.9264L70.7035 21.7382H70.2576L71.8628 19.1965H71.952L72.5763 21.7382H72.175L71.9966 21.3815ZM71.952 21.0694L71.7291 20.0884L71.1494 21.0694H71.952Z" fill="black"/>
<path d="M75.0289 19.6425H74.4047L74.0033 21.7383H73.5574L73.9587 19.6425H73.3345L73.4237 19.2412H75.0735L75.0289 19.6425Z" fill="black"/>
<path d="M76.8125 21.3815H75.7424L75.5194 21.7382H75.0735L76.6788 19.1965H76.768L77.3922 21.7382H76.9909L76.8125 21.3815ZM76.768 21.0694L76.545 20.0884L75.9653 21.0694H76.768Z" fill="black"/>
<path d="M78.5513 20.5342C78.5959 20.3113 78.8188 20.0883 79.0418 20.0883C79.2647 20.0883 79.3985 20.2667 79.3539 20.5342C79.3093 20.8018 79.0864 20.9356 78.8634 20.9356C78.6404 20.9802 78.5067 20.8018 78.5513 20.5342Z" fill="black"/>
<path d="M81.2715 19.6425L81.1378 20.2668H82.0296L81.9404 20.6681H81.0486L80.9148 21.3369H81.9404L81.8512 21.7383H80.4243L80.9148 19.2412H82.3417L82.2525 19.6425H81.2715Z" fill="black"/>
<path d="M85.3291 19.2858L84.8385 21.8274H84.794L83.6346 20.1776L83.3225 21.7828H82.9211L83.4116 19.2412H83.4562L84.6156 20.891L84.9277 19.2858H85.3291Z" fill="black"/>
<path d="M86.7559 19.6425L86.6221 20.2668H87.514L87.4248 20.6681H86.533L86.3992 21.3369H87.4248L87.3356 21.7383H85.9087L86.3992 19.2412H87.8261L87.7369 19.6425H86.7559Z" fill="black"/>
<path d="M89.6987 20.7573L90.2338 21.7383H89.7878L89.2973 20.7573H88.9852L88.8068 21.7383H88.4055L88.896 19.2412H89.6095C90.0108 19.2412 90.4121 19.5533 90.3229 20.0438C90.2783 20.4005 90.0554 20.6681 89.6987 20.7573ZM89.5649 19.6425H89.2528L89.0744 20.4451H89.3865C89.6987 20.4451 89.877 20.2668 89.9216 20.0438C89.9662 19.8208 89.7878 19.6425 89.5649 19.6425Z" fill="black"/>
<path d="M93.5342 20.4005C93.5342 20.4897 93.5342 20.5789 93.4896 20.5789C93.3559 21.2923 92.8208 21.7828 92.1519 21.7828C91.4385 21.7828 91.0371 21.2477 91.1263 20.4897C91.2601 19.687 91.8844 19.1965 92.5978 19.1965C92.91 19.1965 93.1775 19.3749 93.3559 19.5978L93.0883 19.91C92.9545 19.687 92.7762 19.5533 92.5086 19.5533C92.1073 19.5533 91.6168 19.91 91.5276 20.4451C91.4384 20.9802 91.7506 21.3369 92.1965 21.3369C92.6424 21.3369 92.9546 20.9356 93.0437 20.7126H92.3303L92.4194 20.3559H93.5342V20.4005Z" fill="black"/>
<path d="M94.8279 20.7128L94.3374 19.2859H94.7387L95.0954 20.2669L95.8089 19.2859H96.2994L95.2292 20.7128L95.0063 21.783H94.605L94.8279 20.7128Z" fill="black"/>
<path d="M35.4761 24.4581C40.6932 24.3689 45.9104 24.3243 51.1275 24.2797L66.7789 24.2351L82.4304 24.2797C87.6475 24.3243 92.8647 24.3689 98.0818 24.4581C92.8647 24.5472 87.6475 24.5918 82.4304 24.6364L66.7789 24.681L51.1275 24.6364C45.8658 24.5918 40.6932 24.5472 35.4761 24.4581Z" fill="black"/>
</svg>
