<svg width="142" height="24" viewBox="0 0 142 24" fill="none" xmlns="http://www.w3.org/2000/svg">
<path d="M25.7714 9.21404C26.3106 9.45998 27.1808 9.70592 28.0511 9.70592C28.997 9.70592 29.4983 9.36539 29.4983 8.83567C29.4983 8.35324 29.0632 8.06 27.9659 7.72893C26.4524 7.25596 25.4498 6.52759 25.4498 5.3641C25.4498 4.01141 26.7646 2.98035 28.9024 2.98035C29.9429 2.98035 30.6902 3.16007 31.2294 3.37764L30.7659 4.81545C30.4159 4.66411 29.7537 4.43708 28.874 4.43708C27.9849 4.43708 27.5497 4.806 27.5497 5.20329C27.5497 5.70463 28.0511 5.93165 29.2429 6.32895C30.851 6.84921 31.5983 7.57758 31.5983 8.7127C31.5983 10.0465 30.4348 11.1721 27.9281 11.1721C26.8876 11.1721 25.8565 10.9262 25.3457 10.6802L25.7714 9.21404Z" fill="#00A6A4"/>
<path d="M35.0698 3.10321H33.0171V11.049H35.0698V3.10321Z" fill="#00A6A4"/>
<path d="M44.5758 8.00314C44.538 7.04775 44.4907 5.90317 44.4907 4.73967H44.4623C44.1691 5.75182 43.7813 6.88694 43.4313 7.81395L42.3245 10.9166H40.7164L39.7421 7.85179C39.4489 6.90586 39.1462 5.78966 38.9192 4.73967H38.8908C38.853 5.80858 38.7962 7.03829 38.7394 8.02206L38.5597 11.0396H36.6489L37.2354 3.10321H39.9786L40.8678 5.76128C41.1705 6.66937 41.4353 7.6626 41.6434 8.58962H41.7002C41.9461 7.67206 42.2583 6.63154 42.5705 5.74236L43.5259 3.10321H46.2312L46.7136 11.0396H44.7083L44.5758 8.00314Z" fill="#00A6A4"/>
<path d="M48.3029 3.20723C48.9367 3.11263 49.8259 3.04642 51.084 3.04642C52.3515 3.04642 53.2785 3.25452 53.8839 3.69911C54.4704 4.08694 54.8393 4.74909 54.8393 5.52476C54.8393 6.31934 54.5555 6.97204 54.0163 7.40716C53.3069 7.97472 52.2569 8.23958 51.0367 8.23958C50.7623 8.23958 50.5259 8.23012 50.3367 8.19229V11.0395H48.2935V3.20723H48.3029ZM50.3461 6.82069C50.5164 6.85852 50.734 6.86798 51.0367 6.86798C52.1339 6.86798 52.8056 6.38556 52.8056 5.58151C52.8056 4.85315 52.238 4.41802 51.1975 4.41802C50.7813 4.41802 50.4975 4.4464 50.3461 4.47477V6.82069Z" fill="#00A6A4"/>
<path d="M56.1831 3.10321H58.2358V9.53555H61.8587V11.049H56.1831V3.10321Z" fill="#00A6A4"/>
<path d="M68.4986 7.69098H65.15V9.57338H68.8959V11.049H63.0879V3.10321H68.7067V4.57886H65.15V6.22479H68.4986V7.69098Z" fill="#00A6A4"/>
<path d="M73.1057 9.21404C73.6448 9.45998 74.5151 9.70592 75.3948 9.70592C76.3408 9.70592 76.8421 9.36539 76.8421 8.83567C76.8421 8.35324 76.407 8.06 75.3097 7.72893C73.7962 7.25596 72.7935 6.52759 72.7935 5.3641C72.7935 4.01141 74.1084 2.98035 76.2462 2.98035C77.2867 2.98035 78.034 3.16007 78.5732 3.37764L78.1096 4.81545C77.7596 4.66411 77.0975 4.43708 76.2178 4.43708C75.3286 4.43708 74.8935 4.806 74.8935 5.20329C74.8935 5.70463 75.3948 5.93165 76.5867 6.32895C78.1948 6.84921 78.9421 7.57758 78.9421 8.7127C78.9421 10.0465 77.7786 11.1721 75.2718 11.1721C74.2313 11.1721 73.2003 10.9262 72.6895 10.6802L73.1057 9.21404Z" fill="#00A6A4"/>
<path d="M84.2109 11.1816C81.5149 11.1816 79.9258 9.40323 79.9258 7.14245C79.9258 4.7587 81.6852 2.98035 84.3622 2.98035C87.1622 2.98035 88.6946 4.806 88.6946 7.00056C88.6946 9.62079 86.8973 11.1816 84.2298 11.1816H84.2109ZM84.3054 9.75322C85.696 9.75322 86.4905 8.60864 86.4905 7.05731C86.4905 5.62896 85.7243 4.4087 84.3054 4.4087C82.8865 4.4087 82.0825 5.61004 82.0825 7.09515C82.0825 8.58972 82.9055 9.76268 84.2865 9.76268H84.3054V9.75322Z" fill="#00A6A4"/>
<path d="M90.0474 3.10321H92.1095V9.53555H95.7324V11.049H90.0474V3.10321Z" fill="#00A6A4"/>
<path d="M98.5887 3.10321V7.6626C98.5887 9.04366 99.1941 9.73419 100.235 9.73419C101.313 9.73419 101.909 9.07204 101.909 7.6626V3.10321H103.962V7.55855C103.962 10.0085 102.543 11.1815 100.159 11.1815C97.8603 11.1815 96.5171 10.0558 96.5171 7.53963V3.10321H98.5887Z" fill="#00A6A4"/>
<path d="M107.528 4.6167H105.068V3.10321H112.078V4.6167H109.58V11.049H107.528V4.6167Z" fill="#00A6A4"/>
<path d="M115.237 3.10321H113.185V11.049H115.237V3.10321Z" fill="#00A6A4"/>
<path d="M120.894 11.1816C118.198 11.1816 116.609 9.40323 116.609 7.14245C116.609 4.7587 118.368 2.98035 121.045 2.98035C123.845 2.98035 125.378 4.806 125.378 7.00056C125.378 9.62079 123.58 11.1816 120.913 11.1816H120.894ZM120.989 9.75322C122.379 9.75322 123.183 8.60864 123.183 7.05731C123.183 5.62896 122.417 4.4087 120.989 4.4087C119.57 4.4087 118.775 5.61004 118.775 7.09515C118.775 8.58972 119.598 9.76268 120.979 9.76268H120.989V9.75322Z" fill="#00A6A4"/>
<path d="M126.721 11.049V3.10321H129.124L131.016 6.01668C131.555 6.8491 132.085 7.84233 132.501 8.74096H132.529C132.406 7.69098 132.368 6.62208 132.368 5.42074V3.10321H134.26V11.049H132.094L130.145 7.98422C129.606 7.12342 129.001 6.11127 128.566 5.1748H128.509C128.575 6.23425 128.604 7.3599 128.604 8.64637V11.0396H126.721V11.049Z" fill="#00A6A4"/>
<path d="M136.124 9.32769C136.663 9.57363 137.533 9.81957 138.413 9.81957C139.359 9.81957 139.86 9.47904 139.86 8.94931C139.86 8.46689 139.425 8.17365 138.328 7.84257C136.814 7.36961 135.812 6.64124 135.812 5.47774C135.812 4.12506 137.126 3.09399 139.264 3.09399C140.305 3.09399 141.052 3.27372 141.591 3.49129L141.128 4.9291C140.778 4.77775 140.116 4.55073 139.236 4.55073C138.347 4.55073 137.912 4.91964 137.912 5.31693C137.912 5.81828 138.413 6.0453 139.605 6.44259C141.213 6.96286 141.96 7.69122 141.96 8.82634C141.96 10.1601 140.797 11.2858 138.29 11.2858C137.249 11.2858 136.218 11.0398 135.708 10.7939L136.124 9.32769Z" fill="#00A6A4"/>
<path d="M25.3457 20.3286V14.5016H28.8362V15.1921H25.9889V16.9705H28.6565V17.6516H25.9889V19.6286H28.9402V20.3191H25.3457V20.3286Z" fill="#97999C"/>
<path d="M29.3374 20.3286L31.2009 17.2921L29.555 14.5016H30.3117L31.182 15.9962C31.3617 16.3083 31.4941 16.5448 31.5698 16.7151C31.6739 16.507 31.8063 16.28 31.9482 16.0529L32.913 14.5111H33.6036L31.9103 17.2543L33.736 20.3286H32.9509L31.7401 18.2475C31.6739 18.1245 31.5982 18.0016 31.532 17.8597C31.4279 18.0678 31.3522 18.2191 31.3049 18.2948L30.0941 20.3286H29.3374Z" fill="#97999C"/>
<path d="M34.332 20.3286V14.5016H34.9658V16.8948H37.4725V14.5016H38.1063V20.3286H37.4725V17.5854H34.9658V20.3286H34.332Z" fill="#97999C"/>
<path d="M39.2793 20.3286V14.5016H39.9131V20.3286H39.2793Z" fill="#97999C"/>
<path d="M41.0103 20.3286V14.5016H42.817C43.1859 14.5016 43.4791 14.5584 43.7062 14.6813C43.9237 14.8043 44.1035 14.984 44.2264 15.23C44.3494 15.4759 44.4156 15.7313 44.4156 15.9962C44.4156 16.2421 44.3589 16.4786 44.2453 16.6962C44.1318 16.9137 43.9616 17.0935 43.744 17.2259C44.0372 17.33 44.2548 17.5002 44.4156 17.7556C44.5764 18.0016 44.6521 18.2948 44.6521 18.6353C44.6521 18.9097 44.6048 19.1651 44.5102 19.3921C44.4156 19.6191 44.2926 19.8083 44.1602 19.9313C44.0183 20.0542 43.8481 20.1583 43.6305 20.215C43.4224 20.2813 43.1575 20.3096 42.8548 20.3096H41.0103V20.3286ZM41.644 16.9516H42.6846C42.9683 16.9516 43.167 16.9327 43.2899 16.8854C43.4508 16.8286 43.5737 16.734 43.6589 16.5921C43.744 16.4597 43.7818 16.2894 43.7818 16.0813C43.7818 15.8921 43.744 15.7219 43.6683 15.5705C43.5926 15.4192 43.4791 15.3246 43.3372 15.2678C43.1954 15.2111 42.9494 15.1827 42.6089 15.1827H41.644V16.9516ZM41.644 19.638H42.8454C43.0535 19.638 43.1954 19.6286 43.2805 19.6097C43.4318 19.5813 43.5454 19.5245 43.6494 19.4488C43.744 19.3732 43.8291 19.2691 43.8953 19.1272C43.9616 18.9853 43.9899 18.8245 43.9899 18.6353C43.9899 18.4178 43.9426 18.2286 43.8481 18.0678C43.7535 17.907 43.6305 17.7935 43.4697 17.7272C43.3089 17.661 43.0724 17.6327 42.7697 17.6327H41.6535V19.638H41.644Z" fill="#97999C"/>
<path d="M45.6357 20.3286V14.5016H46.2695V20.3286H45.6357Z" fill="#97999C"/>
<path d="M48.6155 20.3286V15.1921H47.0264V14.5016H50.8385V15.1921H49.2493V20.3286H48.6155Z" fill="#97999C"/>
<path d="M51.6045 20.3286V14.5016H52.2383V20.3286H51.6045Z" fill="#97999C"/>
<path d="M53.1748 17.4908C53.1748 16.5259 53.3924 15.7692 53.818 15.2205C54.2437 14.6719 54.8018 14.3976 55.4829 14.3976C55.9275 14.3976 56.3248 14.53 56.6842 14.7854C57.0437 15.0408 57.3085 15.4003 57.4977 15.8638C57.6869 16.3273 57.7815 16.8475 57.7815 17.4246C57.7815 18.011 57.6869 18.5408 57.4883 19.0137C57.2896 19.4772 57.0153 19.8367 56.6464 20.0732C56.2869 20.3097 55.8991 20.4326 55.4734 20.4326C55.0194 20.4326 54.6126 20.3002 54.2626 20.0353C53.9032 19.7705 53.6383 19.411 53.4491 18.9475C53.2694 18.4935 53.1748 18.0016 53.1748 17.4908ZM53.837 17.5097C53.837 18.2097 53.9978 18.7678 54.3099 19.1651C54.6221 19.5718 55.0099 19.7705 55.4829 19.7705C55.9653 19.7705 56.3531 19.5624 56.6653 19.1556C56.9775 18.7489 57.1288 18.1719 57.1288 17.4246C57.1288 16.9516 57.0626 16.5354 56.9302 16.1854C56.7977 15.8354 56.6085 15.5611 56.3531 15.3624C56.0977 15.1638 55.814 15.0692 55.4923 15.0692C55.0383 15.0692 54.6505 15.2584 54.3288 15.6273C53.9978 16.0057 53.837 16.63 53.837 17.5097Z" fill="#97999C"/>
<path d="M58.5947 20.3286V14.5016H59.2474L61.7731 19.0705V14.5016H62.3879V20.3286H61.7352L59.2096 15.7502V20.3286H58.5947Z" fill="#97999C"/>
<path d="M65.311 20.3286V14.5016H66.2664L67.411 18.6259C67.5151 19.0137 67.5907 19.2975 67.638 19.4867C67.6948 19.2786 67.7799 18.9664 67.8934 18.5502L69.0475 14.5016H69.9083V20.3286H69.2934V15.457L67.8934 20.3286H67.3164L65.9259 15.3719V20.3286H65.311Z" fill="#97999C"/>
<path d="M70.4004 20.3286L72.2544 14.5016H72.9449L74.9125 20.3286H74.1841L73.626 18.5691H71.6112L71.0815 20.3286H70.4004ZM71.7909 17.9354H73.4274L72.926 16.3178C72.7747 15.8259 72.6612 15.4286 72.5855 15.107C72.5193 15.4759 72.4341 15.8543 72.3301 16.2138L71.7909 17.9354Z" fill="#97999C"/>
<path d="M75.4141 20.3286V14.5016H76.0668L78.5924 19.0705V14.5016H79.2073V20.3286H78.5546L76.0289 15.7502V20.3286H75.4141Z" fill="#97999C"/>
<path d="M83.4353 14.5111H84.0691V17.8786C84.0691 18.4651 84.0123 18.9286 83.9083 19.2691C83.7947 19.6097 83.6056 19.8935 83.3123 20.111C83.0285 20.3286 82.6502 20.4326 82.1867 20.4326C81.7326 20.4326 81.3637 20.338 81.0799 20.1489C80.7961 19.9597 80.588 19.6854 80.4651 19.3354C80.3421 18.9759 80.2759 18.4935 80.2759 17.8786V14.5111H80.9097V17.8692C80.9097 18.38 80.9475 18.7489 81.0232 18.9854C81.0988 19.2218 81.2313 19.411 81.4205 19.534C81.6096 19.6664 81.8461 19.7327 82.111 19.7327C82.584 19.7327 82.915 19.6002 83.1137 19.3448C83.3123 19.0894 83.4164 18.5975 83.4164 17.8597V14.5111H83.4353Z" fill="#97999C"/>
<path d="M85.1665 20.3286V14.5016H88.4111V15.1921H85.8003V16.9989H88.0611V17.6894H85.8003V20.338H85.1665V20.3286Z" fill="#97999C"/>
<path d="M88.3447 20.3286L90.1988 14.5016H90.8893L92.8568 20.3286H92.1285L91.5704 18.5691H89.5555L89.0258 20.3286H88.3447ZM89.7352 17.9354H91.3717L90.8704 16.3178C90.719 15.8259 90.6055 15.4286 90.5298 15.107C90.4636 15.4759 90.3785 15.8543 90.2744 16.2138L89.7352 17.9354Z" fill="#97999C"/>
<path d="M96.7916 18.2854L97.4253 18.484C97.2929 19.1178 97.047 19.6002 96.7064 19.9313C96.3659 20.2624 95.9308 20.4327 95.4294 20.4327C94.9092 20.4327 94.4929 20.3097 94.1619 20.0543C93.8402 19.7989 93.5848 19.43 93.4146 18.9475C93.2443 18.4651 93.1592 17.9449 93.1592 17.3868C93.1592 16.7814 93.2538 16.2516 93.443 15.7976C93.6321 15.3435 93.9065 15.003 94.2565 14.7665C94.6065 14.53 95.0037 14.4165 95.42 14.4165C95.9024 14.4165 96.3091 14.5679 96.6402 14.8611C96.9713 15.1544 97.1983 15.5706 97.3307 16.1098L96.7064 16.2895C96.5929 15.8638 96.4321 15.5611 96.224 15.3625C96.0159 15.1638 95.7416 15.0692 95.42 15.0692C95.051 15.0692 94.7389 15.1733 94.4929 15.3908C94.247 15.6084 94.0673 15.8922 93.9727 16.2516C93.8686 16.6111 93.8213 16.9895 93.8213 17.3678C93.8213 17.8597 93.8781 18.2949 94.0011 18.6638C94.124 19.0327 94.3038 19.307 94.5592 19.4962C94.8146 19.6759 95.0794 19.7705 95.3821 19.7705C95.7416 19.7705 96.0443 19.6475 96.2902 19.4016C96.5362 19.1462 96.7064 18.7773 96.7916 18.2854Z" fill="#97999C"/>
<path d="M99.4402 20.3286V15.1921H97.8511V14.5016H101.673V15.1921H100.083V20.3286H99.4402Z" fill="#97999C"/>
<path d="M105.485 14.5111H106.118V17.8786C106.118 18.4651 106.062 18.9286 105.958 19.2691C105.844 19.6097 105.655 19.8935 105.362 20.111C105.078 20.3286 104.699 20.4326 104.236 20.4326C103.782 20.4326 103.413 20.338 103.129 20.1489C102.845 19.9597 102.637 19.6854 102.514 19.3354C102.391 18.9759 102.325 18.4935 102.325 17.8786V14.5111H102.959V17.8692C102.959 18.38 102.997 18.7489 103.072 18.9854C103.148 19.2218 103.281 19.411 103.47 19.534C103.659 19.6664 103.895 19.7327 104.16 19.7327C104.633 19.7327 104.964 19.6002 105.163 19.3448C105.362 19.0894 105.466 18.5975 105.466 17.8597V14.5111H105.485Z" fill="#97999C"/>
<path d="M107.197 20.3286V14.5016H109.335C109.76 14.5016 110.091 14.5584 110.309 14.6624C110.526 14.7665 110.706 14.9557 110.848 15.2111C110.981 15.4759 111.047 15.7692 111.047 16.0908C111.047 16.507 110.933 16.8475 110.716 17.1313C110.498 17.4151 110.158 17.5948 109.694 17.6705C109.864 17.7651 109.987 17.8691 110.082 17.9637C110.271 18.1718 110.441 18.4272 110.612 18.7394L111.453 20.3191H110.649L110.016 19.1083C109.826 18.7583 109.675 18.4935 109.552 18.3043C109.429 18.1151 109.325 17.9921 109.231 17.9164C109.136 17.8408 109.041 17.7935 108.937 17.7651C108.862 17.7462 108.748 17.7367 108.578 17.7367H107.84V20.3191H107.197V20.3286ZM107.831 17.0746H109.202C109.495 17.0746 109.722 17.0367 109.883 16.961C110.044 16.8854 110.176 16.7719 110.262 16.611C110.347 16.4502 110.385 16.28 110.385 16.0908C110.385 15.8165 110.299 15.5894 110.139 15.4097C109.978 15.23 109.713 15.1449 109.354 15.1449H107.831V17.0746Z" fill="#97999C"/>
<path d="M112.144 20.3286V14.5016H112.778V20.3286H112.144Z" fill="#97999C"/>
<path d="M113.904 20.3286V14.5016H114.557L117.082 19.0705V14.5016H117.697V20.3286H117.044L114.519 15.7502V20.3286H113.904Z" fill="#97999C"/>
<path d="M121.017 18.0489V17.3678H123.06V19.5245C122.748 19.8272 122.426 20.0543 122.095 20.2056C121.764 20.357 121.423 20.4326 121.074 20.4326C120.601 20.4326 120.165 20.3097 119.787 20.0637C119.409 19.8178 119.106 19.4678 118.917 19.0043C118.718 18.5408 118.624 18.0205 118.624 17.4529C118.624 16.8854 118.718 16.3557 118.917 15.8638C119.115 15.3719 119.39 15.003 119.759 14.7665C120.128 14.53 120.553 14.407 121.026 14.407C121.376 14.407 121.688 14.4733 121.972 14.6151C122.256 14.7476 122.473 14.9368 122.634 15.1827C122.795 15.4286 122.918 15.7408 123.003 16.1381L122.426 16.3273C122.351 16.034 122.265 15.7976 122.161 15.6273C122.057 15.457 121.896 15.3246 121.698 15.2205C121.499 15.1165 121.282 15.0692 121.036 15.0692C120.742 15.0692 120.496 15.126 120.279 15.23C120.061 15.3341 119.891 15.4759 119.768 15.6557C119.636 15.8354 119.532 16.0246 119.465 16.2327C119.342 16.5921 119.286 16.98 119.286 17.4056C119.286 17.9259 119.361 18.361 119.503 18.711C119.655 19.061 119.863 19.3164 120.146 19.4867C120.43 19.657 120.733 19.7421 121.045 19.7421C121.319 19.7421 121.594 19.6759 121.849 19.5529C122.114 19.4205 122.313 19.2881 122.445 19.1462V18.0583H121.017V18.0489Z" fill="#97999C"/>
<path d="M125.842 20.3286V14.5016H126.476V19.638H128.85V20.3286H125.842Z" fill="#97999C"/>
<path d="M129.701 20.3285V19.515H130.372V20.3285H129.701Z" fill="#97999C"/>
<path d="M131.451 20.3286V14.5016H132.084V19.638H134.459V20.3286H131.451Z" fill="#97999C"/>
<path d="M135.31 20.3285V19.515H135.982V20.3285H135.31Z" fill="#97999C"/>
<path d="M140.522 18.2854L141.156 18.484C141.023 19.1178 140.777 19.6002 140.437 19.9313C140.096 20.2624 139.661 20.4327 139.16 20.4327C138.64 20.4327 138.223 20.3097 137.892 20.0543C137.571 19.7989 137.315 19.43 137.145 18.9475C136.975 18.4651 136.89 17.9449 136.89 17.3868C136.89 16.7814 136.984 16.2516 137.173 15.7976C137.363 15.3435 137.637 15.003 137.987 14.7665C138.337 14.53 138.734 14.4165 139.15 14.4165C139.633 14.4165 140.04 14.5679 140.371 14.8611C140.702 15.1544 140.929 15.5706 141.061 16.1098L140.456 16.28C140.342 15.8544 140.182 15.5517 139.973 15.353C139.765 15.1544 139.491 15.0598 139.169 15.0598C138.8 15.0598 138.488 15.1638 138.242 15.3814C137.996 15.5989 137.817 15.8827 137.722 16.2422C137.618 16.6016 137.571 16.98 137.571 17.3584C137.571 17.8503 137.627 18.2854 137.75 18.6543C137.873 19.0232 138.053 19.2975 138.309 19.4867C138.564 19.6665 138.829 19.7611 139.132 19.7611C139.491 19.7611 139.794 19.6381 140.04 19.3921C140.267 19.1462 140.437 18.7773 140.522 18.2854Z" fill="#97999C"/>
<path d="M22.7729 0.908813C19.0838 2.63041 12.5285 6.30063 11.8947 9.52625C11.7339 10.3492 11.9799 11.0965 12.6609 11.8154C13.5879 12.7992 13.9285 13.8965 13.6825 15.0789C13.0204 18.2572 7.90289 21.2842 4.27051 23.0625H22.7729V0.908813Z" fill="#36499B"/>
<path d="M11.2133 14.8233C11.3646 14.0571 11.1376 13.3571 10.4943 12.6761C9.53895 11.6639 9.1795 10.5193 9.42544 9.28963C10.0876 5.90319 15.4321 2.62081 19.0267 0.757324H0.458008V22.9016C4.23228 21.2368 10.5795 17.8598 11.2133 14.8233Z" fill="#00A0A0"/>
</svg>
