<svg width="102" height="38" viewBox="0 0 102 38" fill="none" xmlns="http://www.w3.org/2000/svg">
<path d="M50.9902 9.9468C52.8376 9.27967 54.0692 7.99673 54.0692 5.89271C54.0692 2.71101 51.1441 1.32544 47.4493 1.32544H43.2412V21.1854H48.7322C52.8889 21.1854 56.5325 19.4919 56.5325 15.6944C56.5838 12.6666 54.3258 10.5626 50.9902 9.9468ZM48.5269 20.0564H46.2176V10.46V9.33099V2.45443H47.7572C50.477 2.45443 51.4007 3.78868 51.4007 5.79007C51.4007 6.09798 51.606 9.38231 48.9375 9.99812C49.6046 10.1521 50.8875 10.6139 51.9139 11.5376C52.9916 12.41 53.5047 13.7956 53.5047 15.3865C53.5047 18.1576 51.9652 20.0564 48.5269 20.0564Z" fill="#DCB27D"/>
<path d="M1.52034 20.5182C2.8546 21.2366 4.5994 21.5445 6.08761 21.5445C8.65349 21.5445 13.1694 20.6208 13.1694 16.1049C13.1694 12.9745 10.9115 11.1784 7.11396 8.6638C5.36916 7.43217 3.00855 6.20055 3.00855 4.14785C3.05987 2.45436 4.5994 1.42801 6.75474 1.42801C8.91008 1.42801 10.6036 2.45436 11.0141 2.71095L9.93643 0.863518C9.21798 0.452977 7.62714 0.350342 6.75474 0.350342C3.88095 0.350342 0.545307 1.58196 0.545307 4.96893C0.545307 7.68876 2.64933 9.17697 6.19024 11.7429C7.83241 12.9232 10.3983 14.7706 10.3983 17.0286C10.3983 19.1326 8.75612 20.4668 6.08761 20.4668C2.95723 20.4155 0.699259 18.5681 0.134766 18.0549L1.52034 20.5182Z" fill="#DCB27D"/>
<path d="M27.3331 21.5445C22.0474 21.5445 17.8906 17.2852 17.8906 11.281C17.8906 5.37947 21.996 1.01747 27.3331 1.01747C32.6701 1.01747 36.7242 5.37947 36.7242 11.281C36.7755 17.2852 32.6701 21.5445 27.3331 21.5445ZM33.8504 11.281C33.8504 5.89264 31.2332 2.14646 27.3331 2.14646C23.4329 2.14646 20.8157 5.94396 20.8157 11.281C20.867 16.6693 23.4329 20.4155 27.3331 20.4155C31.2332 20.4155 33.8504 16.6693 33.8504 11.281Z" fill="#DCB27D"/>
<path d="M96.5607 15.3351H88.9144L86.5538 21.1853H85.4248L93.6869 0.914825L102 21.1853H98.9213L96.5607 15.3351ZM89.3249 14.2574H96.0989L92.7119 5.99527L89.3249 14.2574Z" fill="#DCB27D"/>
<path d="M76.8545 1.32539V9.48489H66.2317V1.32539H63.3066V21.1853H66.2317V10.6139H76.8545V21.1853H79.7283V1.32539H76.8545Z" fill="#DCB27D"/>
<path d="M11.6294 33.1423V33.3989H10.5004V33.2449C10.5004 32.6804 10.0385 32.1159 9.21744 32.1159C8.19109 32.1159 7.62659 32.8857 7.62659 33.8607V34.6305C7.62659 35.6055 8.13977 36.3753 9.21744 36.3753C10.0385 36.3753 10.5004 35.8621 10.5004 35.2463V35.041H11.6294V35.2976C11.6294 36.3753 10.8083 37.3503 9.16612 37.3503C7.42132 37.3503 6.44629 36.2214 6.44629 34.6305V33.9121C6.44629 32.3212 7.47264 31.1922 9.21744 31.1922C10.8596 31.1409 11.6294 32.0646 11.6294 33.1423Z" fill="#DCB27D"/>
<path d="M19.2249 33.9121V34.5279C19.2249 36.324 18.1472 37.299 16.4538 37.299C14.7603 37.299 13.6826 36.324 13.6826 34.5279V33.9121C13.6826 32.116 14.7603 31.0896 16.4538 31.0896C18.1472 31.1409 19.2249 32.116 19.2249 33.9121ZM14.8629 33.9121V34.5792C14.8629 35.7595 15.4274 36.3753 16.4538 36.3753C17.4801 36.3753 18.0446 35.8108 18.0446 34.5792V33.9121C18.0446 32.7318 17.4801 32.116 16.4538 32.116C15.4274 32.116 14.8629 32.6805 14.8629 33.9121Z" fill="#DCB27D"/>
<path d="M22.7139 31.2949L25.6391 35.4003V31.2949H26.7167V37.1964H25.5877L22.6626 33.0397V37.1964H21.585V31.2949H22.7139Z" fill="#DCB27D"/>
<path d="M34.0041 32.9883V33.1423H32.8238V32.9883C32.8238 32.4751 32.4646 32.0646 31.5408 32.0646C30.8224 32.0646 30.3605 32.3725 30.3605 32.8343C30.3605 33.3475 30.7198 33.4502 31.8487 33.7581C33.5422 34.1173 34.1067 34.5278 34.1067 35.5542C34.1067 36.6832 33.0804 37.3503 31.6435 37.3503C29.95 37.3503 29.1289 36.5805 29.1289 35.4515V35.2463H30.3092V35.3489C30.3092 35.9647 30.7711 36.3753 31.6948 36.3753C32.4646 36.3753 32.9264 36.0674 32.9264 35.6055C32.9264 35.0923 32.6185 34.9384 31.3869 34.6305C29.796 34.2712 29.1802 33.8607 29.1802 32.8857C29.1802 31.8593 30.1039 31.1409 31.5922 31.1409C33.2343 31.1409 34.0041 31.962 34.0041 32.9883Z" fill="#DCB27D"/>
<path d="M40.9321 31.2949V32.27H38.9307V37.1964H37.7504V32.27H35.749V31.2949H40.9321Z" fill="#DCB27D"/>
<path d="M44.2164 37.1964H43.0361V31.2949H45.8586C47.1929 31.2949 47.86 31.962 47.86 32.9883V33.2962C47.86 34.066 47.3981 34.6818 46.577 34.8871L48.1166 37.2477H46.8336L45.3967 35.041H44.1651L44.2164 37.1964ZM44.2164 34.066H45.6533C46.4231 34.066 46.7823 33.7581 46.7823 33.2449V32.9883C46.7823 32.4752 46.4744 32.1673 45.7047 32.1673H44.2164V34.066Z" fill="#DCB27D"/>
<path d="M51.3497 31.2949V34.9384C51.3497 35.8621 51.8629 36.3753 52.7353 36.3753C53.6077 36.3753 54.1208 35.8621 54.1208 34.9384V31.2949H55.2498V34.8871C55.2498 36.4266 54.3774 37.3503 52.7353 37.3503C51.0931 37.3503 50.2207 36.4779 50.2207 34.8871V31.2949H51.3497Z" fill="#DCB27D"/>
<path d="M62.6401 33.1423V33.3989H61.5111V33.2449C61.5111 32.6804 61.0493 32.1159 60.1769 32.1159C59.1505 32.1159 58.586 32.8857 58.586 33.8607V34.6305C58.586 35.6055 59.0992 36.3753 60.1769 36.3753C61.0493 36.3753 61.5111 35.8621 61.5111 35.2463V35.041H62.6401V35.2976C62.6401 36.3753 61.819 37.3503 60.1769 37.3503C58.4321 37.3503 57.457 36.2214 57.457 34.6305V33.9121C57.457 32.3212 58.4834 31.1922 60.2282 31.1922C61.8703 31.1409 62.6401 32.0646 62.6401 33.1423Z" fill="#DCB27D"/>
<path d="M69.5678 31.2949V32.27H67.5151V37.1964H66.3862V32.27H64.3848V31.2949H69.5678Z" fill="#DCB27D"/>
<path d="M72.903 31.2949H71.7227V37.2477H72.903V31.2949Z" fill="#DCB27D"/>
<path d="M80.8577 33.9121V34.5279C80.8577 36.324 79.7801 37.299 78.0866 37.299C76.3931 37.299 75.3154 36.324 75.3154 34.5279V33.9121C75.3154 32.116 76.3931 31.0896 78.0866 31.0896C79.7801 31.1409 80.8577 32.116 80.8577 33.9121ZM76.4957 33.9121V34.5792C76.4957 35.7595 77.0602 36.3753 78.0866 36.3753C79.1129 36.3753 79.6774 35.8108 79.6774 34.5792V33.9121C79.6774 32.7318 79.1129 32.116 78.0866 32.116C77.0602 32.116 76.4957 32.6804 76.4957 33.9121Z" fill="#DCB27D"/>
<path d="M84.3468 31.2949L87.2719 35.4003V31.2949H88.3495V37.1964H87.2205L84.2954 33.0397H84.2441V37.1964H83.2178V31.2949H84.3468Z" fill="#DCB27D"/>
<path d="M95.6365 32.9883V33.1423H94.4561V32.9883C94.4561 32.4751 94.0969 32.0646 93.1219 32.0646C92.4034 32.0646 91.9416 32.3725 91.9416 32.8343C91.9416 33.3475 92.3008 33.4502 93.4298 33.7581C95.1233 34.1173 95.6878 34.5278 95.6878 35.5542C95.6878 36.6832 94.6614 37.3503 93.2245 37.3503C91.4797 37.3503 90.71 36.5805 90.71 35.4515V35.2463H91.8903V35.3489C91.8903 35.9647 92.3521 36.3753 93.2758 36.3753C94.0456 36.3753 94.5075 36.0674 94.5075 35.6055C94.5075 35.0923 94.1996 34.9384 92.9679 34.6305C91.3771 34.2712 90.7613 33.8607 90.7613 32.8857C90.7613 31.8593 91.685 31.1409 93.1219 31.1409C94.8667 31.1409 95.6365 31.962 95.6365 32.9883Z" fill="#DCB27D"/>
</svg>
