<svg width="41" height="37" viewBox="0 0 41 37" fill="none" xmlns="http://www.w3.org/2000/svg">
<path d="M9.70724 36.089C9.8248 36.0596 9.88357 36.0008 9.94235 35.942C10.0011 35.8833 10.0305 35.7951 10.0305 35.7069C10.0305 35.5894 9.97174 35.4718 9.85419 35.4131C9.73663 35.3249 9.58969 35.2955 9.41336 35.2955H8.70804V37H9.47214C9.67786 37 9.8248 36.9706 9.94235 36.8825C10.0599 36.7943 10.1187 36.6768 10.1187 36.5298C10.1187 36.4123 10.0893 36.3241 10.0011 36.2653C9.94235 36.1772 9.85419 36.1184 9.70724 36.089ZM8.91376 35.3837H9.41336C9.5603 35.3837 9.64847 35.4131 9.73663 35.4718C9.8248 35.5306 9.85419 35.6188 9.85419 35.7069C9.85419 35.8245 9.8248 35.8833 9.73663 35.942C9.64847 36.0008 9.5603 36.0302 9.41336 36.0302H8.91376V35.3837ZM9.8248 36.7943C9.73663 36.8531 9.61908 36.9119 9.47214 36.9119H8.91376V36.1478H9.47214C9.61908 36.1478 9.73663 36.1772 9.8248 36.2653C9.91296 36.3241 9.94235 36.4416 9.94235 36.5298C9.94235 36.6474 9.91296 36.7355 9.8248 36.7943ZM12.7343 35.2955H12.8518L12.1465 36.3241V37H11.9702V36.3535L11.2354 35.2955H11.4412L12.0877 36.2065L12.7343 35.2955ZM16.0258 36.9119H17.0837V37H15.8494V35.2955H16.0258V36.9119ZM19.0234 35.2955L18.2299 37H18.3474L18.5826 36.5004H19.4936L19.7287 37H19.9344L19.1409 35.2955H19.0234ZM18.6119 36.4123L19.0234 35.5012L19.4348 36.4123H18.6119ZM20.8161 35.2955H22.3737V35.3837H21.6977V37H21.5214V35.3837H20.8455V35.2955H20.8161ZM23.6667 35.2955H23.8431V37H23.6667V35.2955ZM26.7231 35.2955H26.8113V37H26.7231L25.4301 35.5306V37H25.3419V35.2955H25.4301L26.7231 36.7649V35.2955ZM28.2513 35.2955H29.515V35.3837H28.4277V36.089H29.3681V36.1772H28.4277V36.9119H29.515V37H28.2513V35.2955ZM32.5714 35.2955H32.8065V37H32.6302V35.4424L31.8661 37H31.7486L30.9845 35.4424V37H30.8963V35.2955H31.1314L31.8661 36.7943L32.5714 35.2955ZM19.2585 19.1906H15.3792H15.3498V29.6235C15.3498 29.6529 15.3498 29.7117 15.3498 29.7411V30.6521H13.5865V29.6823C13.5865 29.6529 13.5865 29.6529 13.5865 29.6235V19.1906H9.67786V18.8674H19.2291V19.1906H19.2585ZM20.2577 30.7403L20.3752 30.6815H20.7279L21.0806 29.888C21.0806 29.8293 21.11 29.7999 21.1393 29.7411L21.6683 28.5068H27.693L28.1632 29.6823C28.1926 29.7411 28.1926 29.7705 28.222 29.8293L28.604 30.7109H30.4849L25.4007 19.0143L20.2577 30.7403ZM26.8407 26.479L27.5754 28.3011H21.7271L22.4912 26.479L22.6382 26.1557L24.6953 21.4242L26.7525 26.1557L26.8407 26.479ZM40.9471 18.8968L36.774 26.6259V29.7411V30.7697H35.0107V26.479V26.4496L31.2196 19.9254C31.2196 19.9254 31.2196 19.896 31.1902 19.896L30.6024 18.8968H32.4245L32.9829 19.896L36.5389 25.8324L40.2712 18.8968H40.9471ZM8.23782 26.7141C8.2966 27.0961 8.2966 27.4782 8.23782 27.8602C8.14966 28.4186 7.91455 28.9476 7.5325 29.3884C7.29739 29.6823 7.00351 29.9468 6.68024 30.1525C6.41574 30.2995 6.12186 30.4758 5.79859 30.564C5.47531 30.6815 5.15204 30.7697 4.82877 30.7991C4.47611 30.8578 4.09406 30.8578 3.7414 30.8285C3.30057 30.7991 2.88913 30.7403 2.47769 30.5934C2.12503 30.4758 1.77237 30.3289 1.47848 30.1231C1.21399 29.9468 0.978882 29.7411 0.773163 29.506L0.626221 28.83C0.714386 28.9476 0.949492 29.2415 1.03766 29.359C1.12582 29.4766 1.24338 29.5941 1.36093 29.6823C1.62543 29.888 1.86053 30.0644 2.15442 30.1819C2.4483 30.2995 2.7128 30.417 3.03607 30.4464C3.35934 30.4758 3.65323 30.5346 3.94711 30.564C4.09406 30.564 4.27038 30.564 4.41733 30.5346C4.79938 30.4758 5.15204 30.3876 5.5047 30.2113C5.85736 30.035 6.15124 29.8293 6.41574 29.5354C6.62146 29.3003 6.7684 29.0358 6.85657 28.7419C6.94473 28.4774 7.00351 28.2129 7.00351 27.9484C7.00351 27.5957 6.91535 27.3018 6.73901 26.9786C6.5333 26.6259 6.23941 26.332 5.91614 26.0969C5.68103 25.9206 5.44592 25.7736 5.21082 25.6267C4.85816 25.3916 4.4761 25.1859 4.12344 24.9802C3.74139 24.7451 3.35935 24.5393 3.00669 24.3336C2.80097 24.2161 2.62464 24.0985 2.41892 23.9516C2.15442 23.7458 1.86053 23.5107 1.62543 23.2756C1.39032 23.0405 1.21399 22.776 1.09644 22.4528C0.949495 22.1295 0.890717 21.7768 0.920105 21.4242C0.920105 21.1303 1.00827 20.8658 1.09644 20.6013C1.24338 20.2192 1.47849 19.8666 1.80176 19.6021C1.88992 19.5139 1.97809 19.4551 2.09564 19.367C2.41891 19.1319 2.80096 19.0143 3.18301 18.8968C3.38873 18.838 3.62384 18.8086 3.82956 18.7792C4.12344 18.7498 4.38794 18.7792 4.68182 18.7792C4.85816 18.7792 5.18143 18.838 5.38715 18.8674C5.65164 18.9261 6.21002 19.0731 6.41574 19.1613L6.56268 19.4257C6.53329 19.4257 6.5039 19.3964 6.47452 19.367C5.82797 19.0731 5.09326 18.9555 4.71121 18.9261C4.50549 18.8968 4.32916 18.8968 4.12344 18.9261C3.85895 18.9555 3.59445 19.0143 3.32996 19.1025C3.09485 19.1906 2.88913 19.3082 2.7128 19.4551C2.41892 19.6902 2.18381 19.9841 2.06625 20.3368C2.06625 20.3662 2.03687 20.425 2.03687 20.4543C1.97809 20.8658 2.00748 21.2772 2.27197 21.6593C2.36014 21.8062 2.47769 21.9532 2.59524 22.0413C2.85974 22.3058 3.18301 22.5409 3.50629 22.6879C3.85895 22.8642 4.21161 23.0405 4.53488 23.2169C4.88754 23.3932 5.2402 23.5401 5.56348 23.7165C5.91614 23.9222 6.29819 24.0985 6.62146 24.3336C6.88595 24.5099 7.15045 24.7157 7.38556 24.9508C7.62067 25.1859 7.82639 25.4504 7.97333 25.7736C8.06149 26.0675 8.17904 26.3908 8.23782 26.7141ZM20.6691 10.6386C20.6691 8.90469 18.0829 7.25894 15.4674 9.37491C15.4674 9.37491 12.9987 8.61081 12.0289 6.72995C13.7922 5.55441 16.3196 6.0834 16.3196 6.0834C16.7899 7.75854 18.465 8.25815 18.7589 8.31693C19.5818 8.52264 20.434 9.19858 20.6104 9.9039C20.0814 7.34711 17.9066 6.02463 16.2903 6.0834C16.2903 6.0834 14.8208 3.96744 15.2029 1.88086C17.3188 2.05719 18.994 4.02621 18.994 4.02621C18.5238 6.11279 19.7875 7.75854 19.9932 8.05243C20.2577 8.46387 20.4928 8.96347 20.6397 9.49246C20.6397 9.49246 20.9042 5.55441 18.994 3.99683C18.994 3.99683 19.1409 1.41064 20.6985 0C22.2855 1.41064 22.403 4.02621 22.403 4.02621C20.4928 5.55441 20.7573 9.49246 20.7573 9.49246C20.9336 8.93408 21.1687 8.46387 21.4038 8.05243C21.6096 7.72916 22.8439 6.11279 22.403 4.02621C22.403 4.02621 24.0782 2.0278 26.1648 1.88086C26.5762 3.96744 25.0774 6.0834 25.0774 6.0834C23.4904 6.02463 21.3157 7.34711 20.7573 9.9039C20.963 9.19858 21.7859 8.52264 22.6088 8.31693C22.9026 8.22876 24.5778 7.75854 25.048 6.0834C25.048 6.0834 27.6048 5.55441 29.3681 6.72995C28.3983 8.61081 25.9297 9.37491 25.9297 9.37491C23.3141 7.25894 20.7279 8.90469 20.7279 10.6386V13.8713H20.6985H20.6104H20.581L20.6691 10.6386Z" fill="black"/>
</svg>
