<svg width="67" height="38" viewBox="0 0 67 38" fill="none" xmlns="http://www.w3.org/2000/svg">
<path d="M66.1781 12.6388C66.0888 12.7578 66.0293 12.8768 65.94 12.9661C65.7615 13.1446 65.5829 13.1149 65.4639 12.9066C65.3746 12.728 65.2258 12.6388 65.0175 12.609C63.8569 12.4602 62.6964 12.4304 61.506 12.4304C60.4645 12.4602 59.423 12.49 58.3814 12.5197C57.6375 12.5495 56.8935 12.5792 56.1793 12.6388C55.2866 12.6983 54.3938 12.728 53.5011 12.7875C53.2927 12.7875 53.1142 12.8768 52.9654 13.0554C52.8761 13.1744 52.7868 13.2637 52.7273 13.3827C52.0429 14.6921 51.3584 16.0014 50.6443 17.2811C49.4539 19.4832 48.3826 21.7448 47.3708 24.0064C46.4483 26.0895 45.5258 28.1726 44.6628 30.2557C44.6033 30.3747 44.5735 30.4938 44.514 30.583C44.395 30.7913 44.0677 30.8509 43.8593 30.7318C43.7403 30.6723 43.7106 30.583 43.7701 30.4342C43.8593 30.1367 43.9486 29.8391 44.0379 29.5712C44.514 28.1428 45.0794 26.7442 45.6151 25.3456C46.359 23.5005 47.0732 21.6555 47.8172 19.8105C47.8767 19.6915 47.9065 19.5427 47.966 19.4237C47.8767 19.3641 47.7874 19.3939 47.6982 19.3939C47.4006 19.4237 47.1328 19.3939 46.8352 19.3344C46.7161 19.3046 46.5674 19.2451 46.4483 19.1558C46.2698 19.0368 46.121 18.888 45.9722 18.769C45.7936 18.6202 45.7044 18.4416 45.7044 18.2333C45.7044 18.144 45.7044 18.0548 45.6746 17.9953C45.5853 17.9655 45.5258 18.025 45.4961 18.0845C45.3473 18.2333 45.1985 18.3821 45.0497 18.5607C43.9784 19.7212 43.0261 20.9711 42.1036 22.2507C41.9251 22.5185 41.7167 22.7863 41.5084 23.0542C41.4787 23.1137 41.4192 23.1732 41.3596 23.2327C41.2704 23.322 41.1513 23.3518 41.0323 23.2922C40.8538 23.2327 40.6752 23.1732 40.4967 23.1137C40.2883 23.0542 40.1693 22.9054 40.1991 22.6971C40.1991 22.459 40.2288 22.2209 40.2586 21.9829C40.3479 21.596 40.4371 21.2092 40.5264 20.7925C40.5264 20.733 40.5562 20.6735 40.5562 20.614C40.4669 20.614 40.4371 20.6735 40.4074 20.733C40.0205 21.3282 39.6337 21.9234 39.2468 22.5483C39.0385 22.8459 38.8599 23.1732 38.5921 23.441C38.5028 23.5303 38.4136 23.6493 38.2945 23.7089C37.9374 23.9767 37.4911 23.8874 37.2828 23.5005C37.1935 23.3518 37.134 23.1732 37.134 22.9947C37.0744 22.459 37.134 21.8936 37.2232 21.3579C37.3423 20.5842 37.6101 19.8403 37.8779 19.0963C37.9374 18.9475 37.9672 18.7987 38.0267 18.6499C38.0565 18.5904 38.0565 18.5607 38.0565 18.4714C37.9672 18.4714 37.9077 18.5607 37.8779 18.6202C37.4613 19.1261 37.0149 19.6617 36.5983 20.1676C36.2115 20.6437 35.8246 21.1199 35.4377 21.596C35.2592 21.8043 35.0509 22.0424 34.8723 22.2507C34.8128 22.3102 34.7235 22.3697 34.664 22.4292C34.5152 22.5483 34.3367 22.5483 34.1581 22.459C34.0689 22.4292 34.0093 22.3697 33.9201 22.34C33.4142 22.0721 33.1463 21.6258 33.1761 21.0604C33.1761 21.0306 33.1761 21.0008 33.1761 20.9711C33.1761 20.9711 33.1761 20.9711 33.1761 20.9413C33.1463 20.9711 33.1166 20.9711 33.0868 21.0008C32.819 21.2092 32.5512 21.4175 32.2834 21.6258C32.0155 21.8341 31.7477 22.0424 31.4204 22.1614C31.2121 22.2507 31.0037 22.2507 30.7954 22.1317C30.6764 22.0721 30.5574 22.0126 30.4681 21.9531C30.0812 21.7448 29.9324 21.477 30.0217 21.0306C30.1408 20.3462 30.3193 19.6915 30.5871 19.0666C30.6169 18.9773 30.6466 18.8582 30.7062 18.769C30.7359 18.7095 30.7359 18.6499 30.6764 18.5607C30.5871 18.6202 30.4979 18.6499 30.4086 18.7095C29.3968 19.4237 28.4743 20.2271 27.6113 21.0901C27.0459 21.6555 26.4805 22.1912 25.9151 22.7566C25.7068 22.9649 25.4687 22.9947 25.2009 22.9054C25.0818 22.8756 24.9926 22.8161 24.8735 22.7566C24.6057 22.6376 24.4867 22.4292 24.5164 22.1317C24.5759 21.6555 24.695 21.1794 24.8438 20.733C25.3794 19.1856 26.0936 17.6977 26.9864 16.299C27.0756 16.1502 27.1947 16.0312 27.284 15.9122C27.3137 15.8824 27.3435 15.8229 27.403 15.7931C27.6113 15.6146 27.7601 15.6146 27.9684 15.7931C28.2065 16.0312 28.4445 16.2693 28.6826 16.5073C28.8611 16.6859 28.8909 16.8644 28.8016 17.1025C28.6826 17.3703 28.5636 17.6382 28.4148 17.906C27.9089 18.769 27.403 19.632 26.9268 20.495C26.8673 20.5842 26.8376 20.6735 26.7781 20.7925C26.8673 20.8223 26.9269 20.7628 26.9864 20.733C27.1054 20.614 27.2244 20.495 27.3435 20.4057C28.4148 19.3641 29.5456 18.3821 30.7359 17.4894C30.9442 17.3406 31.1823 17.1918 31.3906 17.043C31.5989 16.924 31.6882 16.924 31.8667 17.1025C32.0155 17.2513 32.1941 17.4298 32.3429 17.5786C32.4619 17.6977 32.5214 17.8465 32.4917 18.025C32.4619 18.1738 32.4321 18.3226 32.3726 18.4714C32.1048 18.9773 31.837 19.4832 31.5692 19.9891C31.3608 20.3759 31.1823 20.7628 31.0335 21.1496V21.1794C31.0335 21.2389 31.0037 21.3282 31.0633 21.3579C31.093 21.3877 31.1823 21.3877 31.2418 21.3579C31.3013 21.3282 31.3608 21.2984 31.4204 21.2687C31.9858 20.9413 32.5809 20.614 33.1463 20.2866C33.2951 20.1974 33.2951 20.1974 33.2356 19.9891C33.2356 19.9593 33.2356 19.9295 33.2356 19.87C33.2951 19.632 33.3547 19.3939 33.5034 19.2153C33.5332 19.1558 33.563 19.0963 33.5927 19.007C33.8308 18.4416 34.1581 17.906 34.6343 17.4894C34.7235 17.4001 34.8128 17.3406 34.9021 17.2811C35.2294 17.0727 35.5568 17.0132 35.9139 17.162C36.1222 17.2513 36.3007 17.3703 36.4793 17.4894C36.6578 17.6084 36.8364 17.7572 37.0447 17.906C37.1042 17.9357 37.1637 17.9953 37.2232 18.025C37.3423 18.1143 37.4018 18.0845 37.5208 17.9953C37.6101 17.906 37.6696 17.8167 37.7589 17.7274C38.0565 17.4001 38.3541 17.0727 38.6516 16.7454C38.7112 16.6859 38.7707 16.5966 38.8599 16.5371C39.098 16.3585 39.4254 16.3883 39.6337 16.6561C39.7229 16.7752 39.7527 16.924 39.6932 17.0727C39.5146 17.4596 39.3658 17.8762 39.1873 18.2631C38.8302 19.0963 38.4731 19.9295 38.2053 20.7925C37.997 21.4175 37.8482 22.0721 37.7589 22.7268C37.7291 22.9649 37.7291 23.0244 37.8482 23.1732C37.9672 23.1732 38.0267 23.1137 38.116 23.0542C38.4136 22.6971 38.7409 22.3102 39.0087 21.9234C39.5146 21.2389 40.0205 20.5247 40.4967 19.8403C40.5264 19.7808 40.5562 19.7212 40.6157 19.6915C40.9133 19.3939 41.0918 19.007 41.2704 18.6202C41.5382 18.0845 41.7763 17.5489 42.0738 17.0132C42.1631 16.8347 42.3119 16.6561 42.4309 16.4776C42.669 16.18 42.8773 16.18 43.1451 16.4181C43.3535 16.5966 43.5915 16.8049 43.7998 16.9835C43.9784 17.1323 44.0081 17.2513 43.8891 17.4894C43.651 17.9953 43.3832 18.5011 43.1451 19.007C43.0261 19.2451 42.9071 19.4534 42.8178 19.6915C42.788 19.751 42.788 19.7808 42.788 19.8403C42.8773 19.87 42.9368 19.8105 42.9666 19.751C43.1749 19.4832 43.3832 19.2451 43.5915 18.9773C44.276 18.1143 45.0199 17.3108 45.8234 16.5371C45.8829 16.4776 45.9722 16.3883 46.0615 16.3288C46.1507 16.2395 46.2698 16.2395 46.359 16.299C46.5376 16.4181 46.7161 16.5371 46.8649 16.6859C46.984 16.8347 47.0435 17.0132 46.984 17.2215C46.9542 17.4001 46.8947 17.5489 46.8352 17.7274C46.7757 17.906 46.7459 18.0548 46.7161 18.2333C46.6864 18.3226 46.6864 18.4119 46.6864 18.5309C46.6864 18.7095 46.7757 18.7987 46.9245 18.7987C47.0732 18.8285 47.1923 18.8285 47.3411 18.8285C47.5494 18.8285 47.7577 18.7987 47.966 18.7987C48.085 18.7987 48.1445 18.769 48.1743 18.6499C48.4124 18.025 48.6504 17.4001 48.8885 16.7752C49.3051 15.6443 49.7813 14.5135 50.2871 13.4125C50.3169 13.3232 50.3764 13.2339 50.4062 13.1446C50.4359 13.0256 50.4062 12.9661 50.2871 12.9661C50.2276 12.9661 50.1979 12.9661 50.1384 12.9661C49.4539 13.0256 48.7695 13.0554 48.0553 13.1149C47.4899 13.1446 46.9245 13.1744 46.359 13.2339C45.6448 13.2934 44.9009 13.3232 44.1867 13.3827C43.5915 13.4125 42.9964 13.472 42.4012 13.5315C41.7763 13.591 41.1811 13.6208 40.5562 13.6803C39.7825 13.7398 39.0087 13.8291 38.235 13.7993C38.0267 13.7993 37.8482 13.7696 37.6399 13.7398C37.4315 13.7101 37.253 13.591 37.134 13.4125C36.9852 13.2042 36.8364 13.0256 36.6876 12.8173C36.6281 12.728 36.5388 12.6388 36.6281 12.5197C36.6876 12.4007 36.8066 12.4007 36.9257 12.4304C37.2232 12.4602 37.5208 12.49 37.8184 12.5197C38.3243 12.5495 38.8302 12.5495 39.3361 12.5792C40.5859 12.609 41.806 12.5197 43.0261 12.49C43.7701 12.4602 44.4843 12.4602 45.2282 12.4007C45.9424 12.3709 46.6269 12.3114 47.3411 12.2817C47.9362 12.2519 48.5612 12.2221 49.1563 12.2221C49.6027 12.1924 50.0193 12.1924 50.4657 12.1924C50.7633 12.1924 50.9418 12.0436 51.0609 11.8055C51.2989 11.2996 51.537 10.8235 51.8048 10.3176C52.1619 9.6034 52.5488 8.91896 52.9356 8.23452C52.9952 8.11549 53.0844 7.99645 53.1737 7.87742C53.263 7.75839 53.3225 7.75839 53.4415 7.8179C53.501 7.84766 53.5606 7.87742 53.6201 7.93694C53.7986 8.08573 53.9772 8.20476 54.1557 8.35355C54.4533 8.62138 54.5426 8.94872 54.4533 9.30582C54.3938 9.6034 54.2748 9.90099 54.1557 10.1688C53.9474 10.6747 53.7391 11.1508 53.5308 11.627C53.501 11.6865 53.5011 11.7162 53.4713 11.7758C53.382 11.9841 53.4118 12.0436 53.6498 12.0436C53.8284 12.0436 54.0069 12.0436 54.1855 12.0436C55.6734 12.0138 57.1613 11.9543 58.679 11.9246C59.3039 11.9246 59.9586 11.8948 60.5835 11.9246C61.3275 11.9543 62.0714 11.9841 62.8154 12.0436C63.3213 12.0733 63.8272 12.1329 64.3331 12.1924C64.7199 12.2221 65.1068 12.2817 65.4639 12.4007C65.6127 12.4304 65.7317 12.4602 65.8805 12.49C65.9698 12.49 65.9995 12.5197 66.0591 12.5792C66.1781 12.5792 66.1781 12.609 66.1781 12.6388ZM34.5747 21.3579C34.9318 21.1496 36.8661 18.9475 36.9852 18.6202C36.7471 18.5607 36.5388 18.5904 36.3305 18.7095C36.0329 18.888 35.7651 19.1261 35.527 19.3939C35.0806 19.9295 34.8128 20.5842 34.5747 21.2389C34.5747 21.2687 34.5747 21.2984 34.5747 21.3579Z" fill="#104D52"/>
<path d="M0.710205 26.5062C0.739963 26.4765 0.739963 26.4467 0.769721 26.3872C0.888754 25.7028 1.24585 25.1374 1.69223 24.6315C2.1386 24.1256 2.6445 23.709 3.2099 23.3221C4.19193 22.6972 5.20371 22.1913 6.24526 21.6854C7.46535 21.12 8.68544 20.5843 9.93529 20.1082C10.1436 20.0487 10.3221 19.9594 10.5305 19.8999C10.5602 19.8999 10.59 19.8701 10.6197 19.8701C10.7685 19.7808 10.7983 19.7213 10.709 19.5725C10.6792 19.513 10.6197 19.4237 10.59 19.3642C10.2031 18.7095 9.72698 18.1441 9.25085 17.5787C8.38786 16.5967 7.52487 15.5849 6.66187 14.6029C6.06671 13.8887 5.53105 13.1447 5.11444 12.3115C4.7871 11.6271 4.57879 10.9426 4.60855 10.1689C4.60855 9.57374 4.75734 8.97857 4.9954 8.41316C5.44178 7.37162 6.06671 6.47887 6.84042 5.64564C7.58438 4.84216 8.47713 4.21724 9.39964 3.65183C11.2744 2.52101 13.2385 1.71754 15.3811 1.2414C16.1845 1.06285 16.988 0.914062 17.7915 0.94382C17.851 0.94382 17.8808 0.914062 17.9403 0.914062C18.1188 0.914062 18.2676 0.914062 18.4462 0.914062C18.5057 0.914062 18.5354 0.94382 18.595 0.94382C19.2496 0.973579 19.8746 1.09261 20.4995 1.27116C20.7971 1.36044 21.0649 1.47947 21.3327 1.65802C21.7791 1.9556 22.1064 2.37222 22.3148 2.87811C22.5231 3.47328 22.7314 4.03869 22.9397 4.63386C23.148 5.22902 23.2075 5.82419 23.029 6.41936C22.9099 6.89549 22.6719 7.28235 22.3445 7.63945C21.5708 8.50244 20.6185 9.03809 19.5175 9.36543C19.3389 9.42495 19.1604 9.45471 18.9818 9.48446C18.6247 9.54398 18.2676 9.45471 17.97 9.21664C17.7022 8.97857 17.4642 8.74051 17.2261 8.47268C17.0773 8.29413 17.0773 8.14534 17.2558 7.99655C17.3451 7.90727 17.4641 7.818 17.5832 7.75848C18.0593 7.4609 18.5354 7.19307 19.0116 6.89549C19.9639 6.30032 20.7078 5.49685 21.2435 4.51482C21.2732 4.48506 21.2732 4.4553 21.303 4.42555C21.422 4.18748 21.3625 4.06845 21.1542 3.97917C20.6781 3.77086 20.1722 3.62207 19.6365 3.62207C19.3389 3.62207 19.0711 3.59231 18.7735 3.59231C18.3867 3.59231 18.0296 3.59231 17.6427 3.62207C16.7797 3.68159 15.9167 3.80062 15.0835 4.00893C13.0599 4.51482 11.2447 5.40757 9.60795 6.71694C9.10206 7.1038 8.62592 7.52041 8.17955 7.99655C7.67366 8.5322 7.2868 9.12736 6.98921 9.78205C6.42381 11.0021 6.45356 12.2222 7.07849 13.4126C7.4951 14.1863 8.001 14.9005 8.59617 15.5552C9.60795 16.686 10.6197 17.8168 11.572 18.9774C11.6315 19.0369 11.691 19.1262 11.7505 19.1857C11.9291 19.394 12.1374 19.4535 12.4052 19.394C12.7921 19.3047 13.2087 19.2452 13.5956 19.1559C13.8039 19.1262 13.9527 19.1857 14.1015 19.3047C14.2502 19.4535 14.2205 19.6023 14.0122 19.6618C13.6551 19.7808 13.298 19.8701 12.9111 19.9594C12.8218 19.9892 12.7623 19.9892 12.6731 20.0487C12.554 20.1082 12.5243 20.1975 12.5838 20.3165C12.6135 20.4058 12.6731 20.4951 12.7028 20.5843C13.1492 21.3283 13.5063 22.102 13.6848 22.965C13.8039 23.5304 13.8634 24.0958 13.8039 24.691C13.7146 25.4944 13.3873 26.1789 12.8516 26.7741C12.316 27.3692 11.6315 27.8156 10.9173 28.2025C9.90553 28.7084 8.83423 29.0357 7.70341 29.244C7.01897 29.363 6.33453 29.4523 5.62033 29.4523C4.57879 29.4523 3.62652 29.244 2.67426 28.7976C2.31716 28.6191 1.96005 28.4405 1.63271 28.2322C1.2161 27.9942 0.94827 27.6073 0.829237 27.1312C0.829237 27.0716 0.799479 27.0419 0.769721 27.0121C0.710204 26.8336 0.710205 26.655 0.710205 26.5062ZM11.691 22.8757C11.691 22.3698 11.6315 21.9532 11.5422 21.5663C11.4827 21.3283 11.3934 21.0605 11.3042 20.8224C11.2149 20.5843 11.0959 20.5248 10.8578 20.6141C10.709 20.6736 10.59 20.7034 10.4412 20.7629C9.0723 21.3283 7.73317 21.9532 6.42381 22.6674C5.73936 23.0245 5.08468 23.4411 4.45976 23.9173C3.77531 24.4529 3.15039 25.0481 2.67426 25.7623C2.40643 26.1789 2.22788 26.6253 2.19812 27.1014C2.13861 27.6073 2.40643 28.1429 3.06111 28.2322C3.47773 28.2917 3.86459 28.262 4.28121 28.262C4.54903 28.262 4.81685 28.2322 5.08468 28.2025C5.8584 28.1429 6.63211 27.9644 7.37607 27.6966C8.53665 27.2502 9.57819 26.6253 10.4709 25.7325C11.2744 24.929 11.691 23.947 11.691 22.8757Z" fill="#104D52"/>
<path d="M22.6126 18.7095C22.5233 18.7095 22.4638 18.7691 22.4043 18.8286C21.1247 20.0784 19.845 21.2985 18.5654 22.5484C18.1191 22.9947 17.6132 23.3816 17.1073 23.7982C17.018 23.8875 16.899 23.947 16.8097 24.0065C16.5419 24.1553 16.274 24.1851 16.0062 24.0958C15.6491 23.9768 15.3218 23.828 14.9944 23.6197C14.7266 23.4411 14.6076 23.203 14.6076 22.9055C14.5778 22.3698 14.6671 21.8639 14.7861 21.3878C15.054 20.3165 15.4706 19.2749 15.9765 18.2929C16.274 17.6978 16.6014 17.1323 16.9287 16.5372C17.018 16.4181 17.1073 16.2991 17.1965 16.1801C17.3453 16.0313 17.4644 16.0313 17.6429 16.1206C17.7024 16.1503 17.762 16.2098 17.8215 16.2396C18.1191 16.4777 18.4166 16.686 18.7142 16.924C18.8035 16.9836 18.863 17.0431 18.9225 17.1323C19.0416 17.2811 19.0713 17.4597 19.0118 17.668C18.8333 18.2036 18.5952 18.6798 18.3274 19.1857C17.8215 20.1975 17.3453 21.2092 16.8394 22.221C16.7502 22.4293 16.7502 22.4591 16.8097 22.6079C16.9287 22.6079 17.018 22.5484 17.1073 22.4591C17.4941 22.1317 17.8512 21.8044 18.2083 21.4473C19.726 20.0189 21.2437 18.5905 22.7614 17.1323C23.1482 16.7455 23.5351 16.3586 23.9219 15.942C23.9815 15.8825 24.0707 15.7932 24.16 15.7337C24.279 15.6444 24.3981 15.6444 24.4873 15.7337C24.7849 16.0015 25.023 16.2991 25.2015 16.6265C25.2908 16.805 25.2611 17.0133 25.2313 17.1919C25.023 17.9953 24.7254 18.7988 24.4278 19.5725C23.8029 21.1795 23.1185 22.7567 22.3745 24.3041C21.9281 25.2564 21.5115 26.2086 21.0651 27.1311C20.1724 29.0059 19.3689 30.9105 18.5059 32.815C17.9405 34.0648 17.3751 35.2849 16.7204 36.505C16.5419 36.8621 16.274 37.2192 16.036 37.5466C15.9467 37.6954 15.7979 37.7846 15.6491 37.8739C15.4408 37.9632 15.292 37.9037 15.2027 37.6954C15.1432 37.5466 15.1432 37.3978 15.173 37.249C15.2027 36.9514 15.292 36.6538 15.411 36.3562C16.1848 34.3029 16.899 32.2198 17.7024 30.1665C19.0118 26.7443 20.4402 23.3518 22.0472 20.0487C22.2257 19.7213 22.3745 19.3642 22.5531 19.0369C22.6423 18.8881 22.7018 18.8286 22.6126 18.7095Z" fill="#104D52"/>
<path d="M51.7452 24.3934C51.8345 24.3339 51.9238 24.2744 52.013 24.2149C52.757 23.59 53.501 22.965 54.2449 22.3401C55.3162 21.4474 56.3578 20.5546 57.4291 19.6619C57.6671 19.4535 57.9052 19.3048 58.173 19.1262C58.2921 19.0369 58.4111 19.0072 58.5301 19.0667C58.7087 19.1262 58.7384 19.2452 58.5896 19.3643C58.3813 19.5428 58.173 19.7214 57.935 19.8999C56.8934 20.7629 55.9411 21.7152 54.9591 22.6377C54.1854 23.3519 53.4117 24.0363 52.638 24.7208C52.3701 24.9588 52.0428 25.1374 51.6559 25.0779C51.4476 25.0481 51.2393 24.9886 51.031 24.9291C50.8227 24.8398 50.6739 24.691 50.5846 24.4827C50.4954 24.2744 50.4656 24.0661 50.4359 23.828C50.4359 23.4114 50.4954 23.0245 50.5846 22.6377C50.9417 20.8819 51.5964 19.1857 52.4594 17.6383C52.6677 17.2812 52.8463 16.9538 53.0546 16.5967C53.1439 16.448 53.2629 16.2992 53.3819 16.1801C53.5307 16.0313 53.6498 16.0016 53.8283 16.1206C54.1556 16.3289 54.4532 16.567 54.7508 16.8646C54.8401 16.9538 54.8698 17.0431 54.8103 17.1622C54.7806 17.2514 54.7211 17.3407 54.6913 17.43C54.1557 18.4418 53.5902 19.4535 53.0546 20.4951C52.5487 21.4474 52.1023 22.4591 51.8047 23.5007C51.7452 23.709 51.6857 23.9173 51.6559 24.1256C51.6559 24.2149 51.6559 24.3042 51.7452 24.3934Z" fill="#104D52"/>
<path d="M56.2991 14.216C56.2991 14.4838 56.2099 14.7218 56.0313 14.9004C55.8528 15.1087 55.6444 15.2575 55.4064 15.4063C55.2278 15.4956 55.0493 15.4956 54.9005 15.3765C54.7219 15.2277 54.5434 15.1087 54.3946 14.9599C54.216 14.7814 54.1863 14.6326 54.2756 14.3945C54.3648 14.1862 54.4541 13.9779 54.5731 13.7993C54.6922 13.5613 54.9005 13.4125 55.1683 13.3232C55.3171 13.2637 55.4956 13.2934 55.6147 13.3827C55.7932 13.5315 55.9718 13.6803 56.1503 13.8291C56.2694 13.9481 56.2991 14.0672 56.2991 14.216Z" fill="#104D52"/>
</svg>
