<svg width="99" height="27" viewBox="0 0 99 27" fill="none" xmlns="http://www.w3.org/2000/svg">
<path d="M98.0453 24.9823H0.710205V26.7963H98.0453V24.9823Z" fill="#F2C272"/>
<path d="M98.0453 0.914062H0.710205V2.72804H98.0453V0.914062Z" fill="#6B8D37"/>
<path d="M36.8121 11.1342V8.6123H28.2289H24.8665V11.1342V12.9924V15.2488V17.0628V19.6289H28.2289H36.8121V17.0628H28.2289V15.2488H36.3254V12.9924H28.2289V11.1342H36.8121Z" fill="black"/>
<path d="M48.3157 16.9743V8.61238H44.8647V16.9743V19.5847H48.3157H55.7043V16.9743H48.3157Z" fill="black"/>
<path d="M73.6226 8.6566H69.154L63.137 19.5404L66.8976 19.5847L67.9152 17.6822H74.596L75.7463 19.5847H79.4185L73.6226 8.6566ZM69.2425 15.3816L71.2335 11.4439L73.4014 15.3816H69.2425Z" fill="black"/>
<path d="M90.5684 16.9301V8.6566H87.1174V16.9301V19.5847H90.5684H97.957V16.9301H90.5684Z" fill="black"/>
<path d="M19.7794 4.63043H0.799072V23.6108H19.7794V4.63043Z" fill="#6B8D37"/>
<path d="M16.8591 8.701H3.98438V11.1344H8.7184V19.5848H12.1251V11.1344H16.8591V8.701Z" fill="#F2C272"/>
</svg>
