<svg width="40" height="25" viewBox="0 0 40 25" fill="none" xmlns="http://www.w3.org/2000/svg">
<path d="M16.3 6.18099C13.839 6.58703 11.5878 7.80282 9.90963 9.63223C8.23141 11.4616 7.22403 13.798 7.05 16.2643M23.7 6.18099C26.161 6.58703 28.4122 7.80282 30.0904 9.63223C31.7686 11.4616 32.776 13.798 32.95 16.2643M16.3 5.26432H5.2M5.2 5.26432C5.2 5.75055 5.00509 6.21687 4.65815 6.56069C4.31121 6.9045 3.84065 7.09766 3.35 7.09766C2.85935 7.09766 2.38879 6.9045 2.04185 6.56069C1.69491 6.21687 1.5 5.75055 1.5 5.26432C1.5 4.77809 1.69491 4.31178 2.04185 3.96796C2.38879 3.62414 2.85935 3.43099 3.35 3.43099C3.84065 3.43099 4.31121 3.62414 4.65815 3.96796C5.00509 4.31178 5.2 4.77809 5.2 5.26432ZM34.8 5.26432H23.7M34.8 5.26432C34.8 5.75055 34.9949 6.21687 35.3419 6.56069C35.6888 6.9045 36.1593 7.09766 36.65 7.09766C37.1407 7.09766 37.6112 6.9045 37.9581 6.56069C38.3051 6.21687 38.5 5.75055 38.5 5.26432C38.5 4.77809 38.3051 4.31178 37.9581 3.96796C37.6112 3.62414 37.1407 3.43099 36.65 3.43099C36.1593 3.43099 35.6888 3.62414 35.3419 3.96796C34.9949 4.31178 34.8 4.77809 34.8 5.26432ZM3.35 18.0977C3.35 17.6114 3.54491 17.1451 3.89185 16.8013C4.23879 16.4575 4.70935 16.2643 5.2 16.2643H8.9C9.39065 16.2643 9.86121 16.4575 10.2081 16.8013C10.5551 17.1451 10.75 17.6114 10.75 18.0977V21.7643C10.75 22.2506 10.5551 22.7169 10.2081 23.0607C9.86121 23.4045 9.39065 23.5977 8.9 23.5977H5.2C4.70935 23.5977 4.23879 23.4045 3.89185 23.0607C3.54491 22.7169 3.35 22.2506 3.35 21.7643V18.0977ZM29.25 18.0977C29.25 17.6114 29.4449 17.1451 29.7919 16.8013C30.1388 16.4575 30.6093 16.2643 31.1 16.2643H34.8C35.2907 16.2643 35.7612 16.4575 36.1081 16.8013C36.4551 17.1451 36.65 17.6114 36.65 18.0977V21.7643C36.65 22.2506 36.4551 22.7169 36.1081 23.0607C35.7612 23.4045 35.2907 23.5977 34.8 23.5977H31.1C30.6093 23.5977 30.1388 23.4045 29.7919 23.0607C29.4449 22.7169 29.25 22.2506 29.25 21.7643V18.0977ZM16.3 3.43099C16.3 2.94476 16.4949 2.47844 16.8419 2.13463C17.1888 1.79081 17.6593 1.59766 18.15 1.59766H21.85C22.3407 1.59766 22.8112 1.79081 23.1581 2.13463C23.5051 2.47844 23.7 2.94476 23.7 3.43099V7.09766C23.7 7.58389 23.5051 8.0502 23.1581 8.39402C22.8112 8.73784 22.3407 8.93099 21.85 8.93099H18.15C17.6593 8.93099 17.1888 8.73784 16.8419 8.39402C16.4949 8.0502 16.3 7.58389 16.3 7.09766V3.43099Z" stroke="#E43D30" stroke-width="2" stroke-linecap="round" stroke-linejoin="round"/>
</svg>
