<svg width="40" height="40" viewBox="0 0 40 40" fill="none" xmlns="http://www.w3.org/2000/svg">
<path d="M36.8182 20.0977H38.5M20 3.27947V1.59766M20 38.5977V36.9158M33.4545 33.5522L31.7727 31.8704M33.4545 6.64311L31.7727 8.32493M6.54545 33.5522L8.22727 31.8704M6.54545 6.64311L8.22727 8.32493M1.5 20.0977H3.18182M16.5563 16.0995L19.1774 10.5418C19.514 9.82839 20.486 9.82839 20.8226 10.5418L23.4437 16.0995L29.3053 16.9962C30.0574 17.1113 30.3571 18.0788 29.8127 18.6338L25.5719 22.9569L26.5727 29.0641C26.7012 29.8485 25.9146 30.4466 25.2417 30.0761L20 27.1911L14.7582 30.0761C14.0853 30.4466 13.2987 29.8485 13.4272 29.0641L14.4281 22.9569L10.1873 18.6338C9.64286 18.0788 9.94261 17.1113 10.6947 16.9962L16.5563 16.0995Z" stroke="#E43D30" stroke-width="2" stroke-linecap="round" stroke-linejoin="round"/>
</svg>
