<svg width="40" height="40" viewBox="0 0 40 40" fill="none" xmlns="http://www.w3.org/2000/svg">
<path d="M2.25757 37.3095L15.1356 24.4314M15.1356 24.4314C13.9502 23.2462 13.9505 21.3242 15.1359 20.1388C16.3213 18.9534 18.2433 18.9534 19.4287 20.1388C20.6139 21.3242 20.6139 23.2462 19.4287 24.4314C18.2433 25.6168 16.3209 25.6168 15.1356 24.4314ZM31.591 17.9926L37.3147 12.269C38.8951 10.6885 38.8951 8.12594 37.3147 6.54542L33.0221 2.25276C31.4414 0.672258 28.879 0.672258 27.2984 2.25276L21.5749 7.97631M31.3536 18.7045L27.4981 30.2709C27.3728 30.6467 27.0721 30.9378 26.6923 31.0508L3.06211 38.0758C2.12055 38.3557 1.25363 37.46 1.56425 36.5282L9.23644 13.5116C9.34802 13.1768 9.59971 12.9072 9.92599 12.7728L20.8262 8.2845C21.2794 8.09789 21.8005 8.20208 22.1471 8.54866L31.0602 17.462C31.3854 17.7872 31.4991 18.2682 31.3536 18.7045Z" stroke="#E43D30" stroke-width="2" stroke-linecap="round" stroke-linejoin="round"/>
</svg>
