<svg width="52" height="52" viewBox="0 0 52 52" fill="none" xmlns="http://www.w3.org/2000/svg">
<path d="M48.7273 26H51M26 3.27273V1M26 51V48.7273M44.1818 44.1818L41.9091 41.9091M44.1818 7.81818L41.9091 10.0909M7.81818 44.1818L10.0909 41.9091M7.81818 7.81818L10.0909 10.0909M1 26H3.27273" stroke="#E43D30" stroke-width="2" stroke-linecap="round" stroke-linejoin="round"/>
<path d="M21.3461 20.597L24.8881 13.0866C25.3428 12.1225 26.6565 12.1225 27.1112 13.0866L30.6533 20.597L38.5744 21.8087C39.5908 21.9642 39.9958 23.2717 39.2601 24.0217L33.5292 29.8637L34.8817 38.1167C35.0553 39.1767 33.9924 39.9849 33.0831 39.4842L25.9997 35.5856L18.9162 39.4842C18.0068 39.9849 16.9439 39.1767 17.1175 38.1167L18.47 29.8637L12.7393 24.0217C12.0035 23.2717 12.4086 21.9642 13.4249 21.8087L21.3461 20.597Z" stroke="#E43D30" stroke-width="2" stroke-linecap="round" stroke-linejoin="round"/>
</svg>
