<svg width="58" height="52" viewBox="0 0 58 52" fill="none" xmlns="http://www.w3.org/2000/svg">
<path d="M5.7666 28.3557L28.7847 51L51.8027 28.3557C58.1629 22.0988 58.1558 11.9473 51.7956 5.69039C45.4432 -0.558797 35.1371 -0.565793 28.7847 5.68339C22.4324 -0.565793 12.1261 -0.558797 5.77372 5.69039C-0.586493 11.9473 -0.593609 22.0988 5.7666 28.3557Z" stroke="#E43D30" stroke-width="2" stroke-linecap="round" stroke-linejoin="round"/>
<path d="M33.0761 28.0266C32.0532 29.2584 30.5102 30.0428 28.7839 30.0428C27.0577 30.0428 25.5146 29.2584 24.4918 28.0266M41.2144 24.4663C41.2144 31.3314 35.6491 36.8967 28.7839 36.8967C21.9188 36.8967 16.3535 31.3314 16.3535 24.4663C16.3535 17.6012 21.9188 12.0359 28.7839 12.0359C35.6491 12.0359 41.2144 17.6012 41.2144 24.4663ZM25.9465 21.4885C25.9465 22.0488 25.4924 22.5029 24.9321 22.5029C24.3719 22.5029 23.9177 22.0488 23.9177 21.4885C23.9177 20.9283 24.3719 20.4741 24.9321 20.4741C25.4924 20.4741 25.9465 20.9283 25.9465 21.4885ZM33.3315 21.4885C33.3315 22.0488 32.8773 22.5029 32.3171 22.5029C31.7568 22.5029 31.3027 22.0488 31.3027 21.4885C31.3027 20.9283 31.7568 20.4741 32.3171 20.4741C32.8773 20.4741 33.3315 20.9283 33.3315 21.4885Z" stroke="#E43D30" stroke-width="2" stroke-linecap="round" stroke-linejoin="round"/>
</svg>
