<svg width="52" height="52" viewBox="0 0 52 52" fill="none" xmlns="http://www.w3.org/2000/svg">
<path d="M15.8375 36.1621C11.8821 32.2067 6.71096 29.697 1.15625 29.0369C2.74373 26.2833 5.00718 23.98 7.73266 22.3447C10.4581 20.7094 13.5556 19.7962 16.7323 19.6913C18.5724 14.4605 21.9223 9.8928 26.3583 6.56579C30.7943 3.23879 36.1172 1.30189 41.654 1C44.1326 1 46.5097 1.98463 48.2623 3.73727C50.015 5.48992 50.9996 7.86701 50.9996 10.3456C50.6977 15.8824 48.7608 21.2053 45.4338 25.6413C42.1068 30.0773 37.5391 33.4272 32.3083 35.2673C32.2034 38.444 31.2902 41.5415 29.6549 44.2669C28.0196 46.9924 25.7163 49.2559 22.9627 50.8433C22.3026 45.2886 19.7929 40.1175 15.8375 36.1621Z" stroke="#E43D30" stroke-width="2" stroke-linecap="round" stroke-linejoin="round"/>
<path d="M32.3086 16.5761C32.3086 17.4024 32.6368 18.1947 33.221 18.7789C33.8052 19.3631 34.5976 19.6914 35.4238 19.6914C36.25 19.6914 37.0424 19.3631 37.6266 18.7789C38.2108 18.1947 38.539 17.4024 38.539 16.5761C38.539 15.7499 38.2108 14.9576 37.6266 14.3734C37.0424 13.7891 36.25 13.4609 35.4238 13.4609C34.5976 13.4609 33.8052 13.7891 33.221 14.3734C32.6368 14.9576 32.3086 15.7499 32.3086 16.5761Z" stroke="#E43D30" stroke-width="2" stroke-linecap="round" stroke-linejoin="round"/>
<path d="M10.5023 32C7.26006 33.8304 4.63838 36.5874 2.9733 39.9175C1.30823 43.2477 0.675647 46.9992 1.15665 50.6913C4.84867 51.1723 8.60021 50.5397 11.9304 48.8746C15.2605 47.2095 18.0175 44.5878 19.8479 41.3456" stroke="#E43D30" stroke-width="2" stroke-linecap="round" stroke-linejoin="round"/>
</svg>
