<svg width="35" height="34" viewBox="0 0 35 34" fill="none" xmlns="http://www.w3.org/2000/svg">
<path d="M1.14258 9.88889H2.92036M1.14258 24.1111H2.92036M10.0315 1V2.77778M24.2537 1V2.77778M31.3648 9.88889H33.1426M31.3648 24.1111H33.1426M10.0315 31.2222V33M24.2537 31.2222V33M10.0315 11.6667C10.0315 11.1952 10.2188 10.743 10.5522 10.4096C10.8856 10.0762 11.3377 9.88889 11.8092 9.88889H22.4759C22.9474 9.88889 23.3996 10.0762 23.733 10.4096C24.0664 10.743 24.2537 11.1952 24.2537 11.6667V22.3333C24.2537 22.8048 24.0664 23.257 23.733 23.5904C23.3996 23.9238 22.9474 24.1111 22.4759 24.1111H11.8092C11.3377 24.1111 10.8856 23.9238 10.5522 23.5904C10.2188 23.257 10.0315 22.8048 10.0315 22.3333V11.6667Z" stroke="#E43D30" stroke-width="2" stroke-linecap="round" stroke-linejoin="round"/>
</svg>
