<svg width="34" height="30" viewBox="0 0 34 30" fill="none" xmlns="http://www.w3.org/2000/svg">
<path d="M27.6667 7.97169C29.0812 7.97169 30.4377 8.52556 31.4379 9.51146C32.4381 10.4973 33 11.8345 33 13.2288C33 14.623 32.4381 15.9602 31.4379 16.9461C30.4377 17.932 29.0812 18.4858 27.6667 18.4858M13.4444 7.97169V27.2476C13.4444 27.7124 13.2571 28.1581 12.9237 28.4867C12.5903 28.8154 12.1382 29 11.6667 29H9.88889C9.41739 29 8.96521 28.8154 8.63181 28.4867C8.29841 28.1581 8.11111 27.7124 8.11111 27.2476V18.4858M17 7.97169L25.0427 1.3653C25.2764 1.17343 25.5607 1.0512 25.8624 1.01291C26.164 0.97463 26.4705 1.02189 26.7459 1.14915C27.0212 1.27641 27.2541 1.47841 27.4172 1.73146C27.5803 1.98451 27.6668 2.27814 27.6667 2.57793V23.8796C27.6668 24.1794 27.5803 24.473 27.4172 24.7261C27.2541 24.9791 27.0212 25.1811 26.7459 25.3084C26.4705 25.4357 26.164 25.4829 25.8624 25.4446C25.5607 25.4063 25.2764 25.2841 25.0427 25.0922L17 18.4858H2.77778C2.30628 18.4858 1.8541 18.3012 1.5207 17.9726C1.1873 17.644 1 17.1982 1 16.7335V9.72405C1 9.2593 1.1873 8.81358 1.5207 8.48495C1.8541 8.15632 2.30628 7.97169 2.77778 7.97169H17Z" stroke="#E43D30" stroke-width="2" stroke-linecap="round" stroke-linejoin="round"/>
</svg>
