<svg width="35" height="30" viewBox="0 0 35 30" fill="none" xmlns="http://www.w3.org/2000/svg">
<path d="M30.769 16.0103L17.4425 29L4.11611 16.0103C3.23711 15.1684 2.54474 14.1566 2.08258 13.0385C1.62043 11.9204 1.39852 10.7202 1.43082 9.51353C1.46311 8.30686 1.74892 7.11984 2.27024 6.02722C2.79156 4.9346 3.5371 3.96005 4.45991 3.16493C5.38272 2.36982 6.46282 1.77137 7.63218 1.40726C8.80154 1.04316 10.0348 0.921291 11.2544 1.04933C12.474 1.17737 13.6534 1.55254 14.7184 2.15123C15.7834 2.74991 16.7109 3.55914 17.4425 4.52795C18.1773 3.56617 19.1059 2.76402 20.1702 2.17169C21.2345 1.57935 22.4115 1.2096 23.6277 1.08556C24.8438 0.961524 26.0729 1.08587 27.2379 1.45083C28.403 1.81578 29.479 2.41348 30.3986 3.20653C31.3182 3.99957 32.0615 4.97088 32.5821 6.05967C33.1027 7.14846 33.3894 8.33128 33.4241 9.53412C33.4589 10.737 33.241 11.9339 32.7842 13.0501C32.3273 14.1662 31.6412 15.1775 30.769 16.0208" stroke="#E43D30" stroke-width="2" stroke-linecap="round" stroke-linejoin="round"/>
</svg>
