<svg width="35" height="34" viewBox="0 0 35 34" fill="none" xmlns="http://www.w3.org/2000/svg">
<path d="M32.4029 17H33.8574M17.8574 2.45455V1M17.8574 33V31.5455M29.4938 28.6364L28.0392 27.1818M29.4938 5.36364L28.0392 6.81818M6.22106 28.6364L7.6756 27.1818M6.22106 5.36364L7.6756 6.81818M1.85742 17H3.31197M14.8791 13.5421L17.146 8.73551C17.4371 8.11847 18.2778 8.11847 18.5688 8.73551L20.8357 13.5421L25.9053 14.3177C26.5557 14.4172 26.815 15.254 26.3441 15.734L22.6763 19.4729L23.5419 24.7548C23.6531 25.4332 22.9728 25.9504 22.3908 25.63L17.8574 23.1348L13.324 25.63C12.742 25.9504 12.0617 25.4332 12.1729 24.7548L13.0384 19.4729L9.3708 15.734C8.89989 15.254 9.15914 14.4172 9.80958 14.3177L14.8791 13.5421Z" stroke="#E43D30" stroke-width="2" stroke-linecap="round"/>
</svg>
